<svg width="1083" height="1385" xmlns="http://www.w3.org/2000/svg" xmlns:xlink="http://www.w3.org/1999/xlink" xml:space="preserve" overflow="hidden"><defs><clipPath id="clip0"><rect x="182" y="638" width="1083" height="1385"/></clipPath></defs><g clip-path="url(#clip0)" transform="translate(-182 -638)"><path d="M258.853 638 299.865 688.884 365 684.414 329.159 738.736 353.627 799.246 290.56 782.055 240.243 824 237.486 758.677 182 724.296 243.345 701.261Z" fill="#72C9E1" fill-rule="evenodd" fill-opacity="0.639216"/><path d="M282.061 767.24 291.802 765.118 356.862 1063.71 347.122 1065.84Z" stroke="#000000" stroke-width="3.4375" stroke-miterlimit="8" fill="#5B612B" fill-rule="evenodd"/><path d="M262.987 656.5 295.292 696.779 346.5 693.336 317.975 736.369 337.565 783.877 287.732 770.451 248.209 803.5 246.147 751.861 202.5 724.664 250.615 706.418Z" stroke="#000000" stroke-width="3.4375" stroke-miterlimit="8" fill="#F6AF1E" fill-rule="evenodd"/><path d="M1166.9 1670.89 271.558 1491.44C254.022 1488 242.676 1470.81 246.114 1453.28L294.938 1209.55C298.376 1192.02 315.568 1180.68 333.103 1184.11L1228.44 1363.56C1245.98 1367 1257.32 1384.19 1253.89 1401.72L1205.06 1645.45C1201.62 1662.98 1184.43 1674.32 1166.9 1670.89L1166.9 1670.89Z" stroke="#000000" stroke-width="20.625" stroke-miterlimit="8" fill="#A6A897" fill-rule="evenodd"/><path d="M582.5 1790.5C583.191 1805.65 585.952 1814.61 588.024 1819.78 592.512 1830.11 593.547 1832.86 595.618 1838.38 595.964 1839.75 596.654 1840.79 596.654 1841.82 599.416 1850.09 599.761 1851.81 605.629 1871.78 614.951 1903.82 615.641 1903.13 618.058 1914.15 621.164 1929.3 619.438 1929.65 623.236 1951 626.688 1970.98 628.759 1980.97 633.937 1987.86 635.318 1989.58 648.437 2006.8 667.423 2005.42 679.851 2004.39 688.136 1995.78 694.005 1989.58 697.457 1985.79 700.219 1982 713.337 1954.45 720.932 1938.6 724.729 1930.34 727.491 1922.76 728.872 1918.63 729.907 1915.53 730.598 1912.77 733.705 1901.06 735.776 1892.45 736.121 1891.07 737.847 1882.81 745.097 1866.96 766.5 1834.59 736.466 1826.67 706.087 1819.09 674.673 1811.85 643.603 1804.28 612.879 1797.04 582.5 1790.5Z" stroke="#000000" stroke-width="20.625" stroke-miterlimit="8" fill="#EBE2B3" fill-rule="evenodd"/><path d="M939.5 1851.24C947.065 1868.41 954.63 1888.32 961.508 1910.3 968.385 1931.93 973.2 1952.18 976.982 1970.72 995.895 2017.76 1046.1 2006.08 1052.29 1956.65 1059.17 1935.02 1066.05 1911.67 1072.23 1887.29 1077.74 1865.32 1082.55 1844.03 1086.68 1823.78 1087.37 1819.31 1087.71 1814.16 1087.37 1808.33 1087.02 1791.85 1082.55 1778.11 1078.77 1768.5 1032.35 1795.97 985.923 1823.78 939.5 1851.24Z" stroke="#000000" stroke-width="20.625" stroke-miterlimit="8" fill="#EBE2B3" fill-rule="evenodd"/><path d="M377.876 1402.41C375.469 1392.78 372.719 1378 372.719 1360.13 372.719 1341.23 375.813 1336.08 376.157 1319.92 377.188 1287.96 365.844 1286.24 365.5 1258.41 365.5 1225.41 381.658 1199.64 386.47 1191.73 397.815 1173.18 402.628 1175.93 416.379 1154.96 429.099 1135.37 434.944 1118.19 441.132 1100.66 451.101 1070.42 448.695 1064.23 456.945 1035.71 462.79 1015.43 470.009 989.998 486.855 963.879 497.855 946.695 516.419 930.199 553.548 897.206 577.269 875.898 594.458 862.152 607.865 851.498 648.775 819.192 662.182 811.975 667.683 809.226 686.934 799.603 704.467 791.011 727.501 791.698 739.189 792.042 757.41 793.073 777.005 793.073 779.755 793.073 785.943 793.073 794.194 792.73 797.632 792.386 803.476 792.042 810.696 791.011 822.728 789.293 831.666 787.231 834.416 786.543 874.639 777.264 894.922 771.765 913.486 775.889 935.832 781.045 950.958 794.104 964.365 805.789 972.96 813.35 984.992 828.472 1008.37 858.371 1034.5 891.708 1040.34 900.643 1055.81 912.671 1071.28 924.7 1073 921.951 1084 931.917 1098.44 945.32 1103.94 958.724 1117.35 989.998 1143.13 1049.8 1141.07 1041.89 1143.82 1049.8 1146.23 1057.7 1147.94 1065.61 1151.04 1081.42 1155.16 1101.35 1156.19 1110.63 1161.35 1139.5 1165.13 1161.83 1167.2 1172.83 1168.23 1177.99 1177.17 1213.73 1190.23 1237.79 1194.7 1246.38 1214.98 1286.59 1212.92 1334.01 1208.79 1428.87 1206.39 1486.61 1205.01 1517.54 1191.26 1558.78 1184.04 1580.08 1180.95 1582.49 1163.07 1630.6 1147.94 1671.5 1145.54 1682.84 1133.16 1711.37 1119.41 1742.99 1112.53 1758.79 1098.1 1776.32 1091.91 1783.88 1077.81 1799.69 1040 1822.03 1008.71 1840.59 973.647 1861.55 922.424 1871.18 848.511 1885.27 786.631 1867.74 762.566 1860.52 747.44 1856.05 742.283 1853.31 713.406 1844.71 699.311 1840.59 688.31 1837.5 679.028 1835.09 641.556 1825.47 638.805 1826.15 620.585 1820.31 609.24 1816.53 601.677 1813.44 587.582 1807.6 561.111 1796.6 538.078 1786.98 520.201 1776.32 476.541 1749.86 453.852 1710.34 444.569 1693.84 437.694 1681.47 428.412 1653.63 409.504 1597.27 397.128 1560.15 390.94 1541.25 388.533 1528.88 384.064 1504.48 382.345 1481.45 379.939 1435.74 378.907 1421.65 378.22 1409.97 377.876 1402.41Z" stroke="#000000" stroke-width="20.625" stroke-miterlimit="8" fill="#EBE2B3" fill-rule="evenodd"/><path d="M622.318 929.352 635.513 904.443 753.376 966.876 740.182 991.785Z" stroke="#000000" stroke-width="10.3139" stroke-miterlimit="8" fill="#595850" fill-rule="evenodd"/><path d="M875.686 961.505 995.87 903.66 1008.1 929.06 887.911 986.905Z" stroke="#000000" stroke-width="10.3139" stroke-miterlimit="8" fill="#595850" fill-rule="evenodd"/><path d="M1078 2014C1078 2018.97 973.235 2023 844 2023 714.765 2023 610 2018.97 610 2014 610 2009.03 714.765 2005 844 2005 973.235 2005 1078 2009.03 1078 2014Z" fill="#5B5742" fill-rule="evenodd" fill-opacity="0.470588"/><path d="M721.5 1053C721.5 1075.92 702.92 1094.5 680 1094.5 657.08 1094.5 638.5 1075.92 638.5 1053 638.5 1030.08 657.08 1011.5 680 1011.5 702.92 1011.5 721.5 1030.08 721.5 1053Z" stroke="#000000" stroke-width="20.625" stroke-miterlimit="8" fill="#231815" fill-rule="evenodd"/><path d="M995.5 1053C995.5 1075.92 976.92 1094.5 954 1094.5 931.08 1094.5 912.5 1075.92 912.5 1053 912.5 1030.08 931.08 1011.5 954 1011.5 976.92 1011.5 995.5 1030.08 995.5 1053Z" stroke="#000000" stroke-width="20.625" stroke-miterlimit="8" fill="#231815" fill-rule="evenodd"/><path d="M704 1066C704 1077.05 695.046 1086 684 1086 672.954 1086 664 1077.05 664 1066 664 1054.95 672.954 1046 684 1046 695.046 1046 704 1054.95 704 1066Z" fill="#FFFFFF" fill-rule="evenodd"/><path d="M973 1066C973 1077.05 964.27 1086 953.5 1086 942.73 1086 934 1077.05 934 1066 934 1054.95 942.73 1046 953.5 1046 964.27 1046 973 1054.95 973 1066Z" fill="#FFFFFF" fill-rule="evenodd"/><path d="M900 1181C900 1193.15 866.198 1203 824.5 1203 782.802 1203 749 1193.15 749 1181 749 1168.85 782.802 1159 824.5 1159 866.198 1159 900 1168.85 900 1181Z" stroke="#000000" stroke-width="10.3125" stroke-miterlimit="8" fill="#E73A8F" fill-rule="evenodd"/><path d="M512.354 1172.94C515.788 1163.99 519.908 1147.47 514.071 1130.6 509.95 1118.9 500.336 1110.29 481.451 1093.77 468.059 1082.07 458.102 1073.12 441.963 1063.83 427.886 1055.57 415.868 1051.09 391.832 1042.49 363.676 1032.51 349.254 1027.35 332.429 1027 321.442 1027 297.406 1026.66 288.478 1041.11 282.984 1050.06 285.388 1060.73 286.418 1064.86 296.032 1107.54 447.114 1166.4 469.433 1175 483.854 1174.31 498.276 1173.62 512.354 1172.94Z" fill="#5B5742" fill-rule="evenodd" fill-opacity="0.431373"/><path d="M597.803 1315.63C595.742 1317.01 583.03 1325.95 568.601 1322.85 558.982 1320.79 552.798 1314.26 549.706 1310.82 535.621 1295.68 517.756 1283.99 503.327 1269.2 497.487 1263.36 499.205 1265.42 426.029 1205.92 401.294 1185.98 388.926 1176 379.994 1168.09 356.632 1148.49 340.485 1133.36 311.971 1109.29 308.879 1107.22 299.603 1100.69 294.45 1089 266.966 1015.4 440.114 1074.55 457.636 1082.46 484.776 1093.81 491.303 1100.34 519.474 1117.88 533.216 1126.48 543.866 1132.67 551.424 1137.14 592.65 1160.53 607.766 1162.94 616.698 1180.13 620.821 1188.04 621.852 1196.3 621.852 1203.52 623.226 1223.81 622.195 1240.32 620.821 1252.01 617.729 1280.9 614.981 1303.59 597.803 1315.63Z" stroke="#000000" stroke-width="20.625" stroke-miterlimit="8" fill="#EBE2B3" fill-rule="evenodd"/><path d="M961.909 1425.63C972.212 1435.94 1009.65 1420.13 1025.44 1411.2 1038.15 1403.98 1050.17 1393.67 1054.98 1389.55 1058.07 1386.8 1064.25 1380.96 1071.46 1372.71 1083.48 1358.97 1088.29 1350.38 1100.31 1331.48 1116.45 1305.71 1128.47 1290.93 1137.4 1265.16 1139.46 1259.66 1141.87 1251.42 1137.75 1245.58 1132.6 1238.02 1119.54 1239.05 1115.08 1239.05 1069.4 1241.11 937.869 1401.58 961.909 1425.63L961.909 1425.63Z" fill="#5B5742" fill-rule="evenodd" fill-opacity="0.431373"/><path d="M1141.51 1067.5C1136.02 1067.5 1127.44 1068.53 1119.21 1072.99 1104.11 1081.22 1098.28 1095.98 1089.01 1118.28 1081.46 1135.78 1072.54 1152.24 1066.02 1170.08 1057.1 1193.76 1045.78 1216.74 1025.19 1263.75 992.591 1337.86 963.768 1378.68 973.375 1391.03 976.464 1395.15 984.699 1398.58 1011.12 1391.03 1087.3 1368.39 1143.23 1298.74 1172.39 1255.51 1175.14 1240.76 1176.85 1220.86 1174.11 1197.19 1172.39 1181.41 1168.96 1167.68 1165.19 1157.05 1163.13 1147.78 1161.07 1138.52 1159.01 1129.26 1153.52 1107.3 1147.69 1086.71 1141.51 1067.5Z" stroke="#000000" stroke-width="20.625" stroke-miterlimit="8" fill="#EBE2B3" fill-rule="evenodd"/></g></svg>