<svg width="1030" height="1259" xmlns="http://www.w3.org/2000/svg" xmlns:xlink="http://www.w3.org/1999/xlink" xml:space="preserve" overflow="hidden"><defs><clipPath id="clip0"><rect x="1419" y="847" width="1030" height="1259"/></clipPath></defs><g clip-path="url(#clip0)" transform="translate(-1419 -847)"><path d="M1930 968.622 1884.28 1015.35 1897 1079.25 1838.56 1050.39 1781.5 1082 1790.78 1017.41 1743 973.088 1807.63 962.094 1835.13 903 1865.38 960.72Z" fill="#72C9E1" fill-rule="evenodd" fill-opacity="0.639216"/><path d="M1804.68 1007.31 1807.98 1016.72 1519.66 1117.99 1516.35 1108.59Z" stroke="#000000" stroke-width="3.4375" stroke-miterlimit="8" fill="#5B612B" fill-rule="evenodd"/><path d="M1913.5 975.303 1877.28 1012.01 1887.28 1062.44 1840.71 1039.46 1795.86 1064.5 1803.1 1013.73 1765.5 978.734 1816.21 970.157 1837.95 923.5 1862.1 969.128Z" stroke="#000000" stroke-width="3.4375" stroke-miterlimit="8" fill="#F6AF1E" fill-rule="evenodd"/><path d="M2350.9 1752.89 1455.56 1573.44C1438.02 1570 1426.68 1552.81 1430.11 1535.28L1478.94 1291.55C1482.38 1274.02 1499.57 1262.68 1517.1 1266.11L2412.44 1445.56C2429.98 1449 2441.32 1466.19 2437.89 1483.72L2389.06 1727.45C2385.62 1744.98 2368.43 1756.32 2350.9 1752.89L2350.9 1752.89Z" stroke="#000000" stroke-width="20.625" stroke-miterlimit="8" fill="#A6A897" fill-rule="evenodd"/><path d="M1767.5 1873.5C1768.19 1888.58 1770.93 1897.5 1772.99 1902.64 1777.46 1912.92 1778.49 1915.67 1780.55 1921.15 1780.89 1922.52 1781.58 1923.55 1781.58 1924.58 1784.32 1932.81 1784.67 1934.52 1790.5 1954.41 1799.77 1986.29 1800.46 1985.6 1802.86 1996.57 1805.95 2011.66 1804.24 2012 1808.01 2033.26 1811.45 2053.14 1813.51 2063.08 1818.66 2069.94 1820.03 2071.65 1833.08 2088.79 1851.96 2087.42 1864.32 2086.39 1872.56 2077.82 1878.4 2071.65 1881.83 2067.88 1884.58 2064.11 1897.63 2036.68 1905.18 2020.91 1908.96 2012.69 1911.7 2005.14 1913.08 2001.03 1914.11 1997.94 1914.79 1995.2 1917.88 1983.55 1919.94 1974.98 1920.29 1973.6 1922 1965.38 1929.21 1949.61 1950.5 1917.38 1920.63 1909.5 1890.42 1901.95 1859.17 1894.76 1828.27 1887.21 1797.71 1880.01 1767.5 1873.5Z" stroke="#000000" stroke-width="20.625" stroke-miterlimit="8" fill="#EBE2B3" fill-rule="evenodd"/><path d="M2124.5 1934.24C2132.06 1951.41 2139.63 1971.32 2146.51 1993.3 2153.39 2014.93 2158.2 2035.18 2161.98 2053.72 2180.9 2100.76 2231.1 2089.08 2237.29 2039.65 2244.17 2018.02 2251.05 1994.67 2257.23 1970.29 2262.74 1948.32 2267.55 1927.03 2271.68 1906.78 2272.37 1902.31 2272.71 1897.16 2272.37 1891.33 2272.02 1874.85 2267.55 1861.11 2263.77 1851.5 2217.35 1878.97 2170.92 1906.78 2124.5 1934.24Z" stroke="#000000" stroke-width="20.625" stroke-miterlimit="8" fill="#EBE2B3" fill-rule="evenodd"/><path d="M1561.88 1485.41C1559.47 1475.78 1556.72 1461.01 1556.72 1443.13 1556.72 1424.23 1559.81 1419.08 1560.16 1402.92 1561.19 1370.96 1549.84 1369.24 1549.5 1341.41 1549.5 1308.41 1565.66 1282.64 1570.47 1274.73 1581.82 1256.18 1586.63 1258.93 1600.38 1237.96 1613.1 1218.37 1618.94 1201.19 1625.13 1183.66 1635.1 1153.42 1632.69 1147.23 1640.95 1118.71 1646.79 1098.43 1654.01 1073 1670.85 1046.88 1681.86 1029.7 1700.42 1013.2 1737.55 980.206 1761.27 958.899 1778.46 945.152 1791.87 934.498 1832.78 902.193 1846.18 894.976 1851.68 892.226 1870.93 882.603 1888.47 874.011 1911.5 874.699 1923.19 875.042 1941.41 876.073 1961.01 876.073 1963.76 876.073 1969.94 876.073 1978.19 875.73 1981.63 875.386 1987.48 875.042 1994.7 874.011 2006.73 872.293 2015.67 870.231 2018.42 869.544 2058.64 860.264 2078.92 854.766 2097.49 858.89 2119.83 864.045 2134.96 877.105 2148.37 888.789 2156.96 896.35 2168.99 911.472 2192.37 941.371 2218.5 974.708 2224.34 983.643 2239.81 995.672 2255.28 1007.7 2257 1004.95 2268 1014.92 2282.44 1028.32 2287.94 1041.72 2301.35 1073 2327.13 1132.8 2325.07 1124.89 2327.82 1132.8 2330.23 1140.7 2331.94 1148.61 2335.04 1164.42 2339.16 1184.35 2340.19 1193.63 2345.35 1222.5 2349.13 1244.83 2351.2 1255.83 2352.23 1260.99 2361.17 1296.73 2374.23 1320.79 2378.7 1329.38 2398.98 1369.59 2396.92 1417.01 2392.79 1511.87 2390.39 1569.61 2389.01 1600.54 2375.26 1641.78 2368.04 1663.08 2364.95 1665.49 2347.07 1713.6 2331.94 1754.5 2329.54 1765.84 2317.16 1794.37 2303.41 1825.99 2296.53 1841.79 2282.1 1859.32 2275.91 1866.88 2261.81 1882.69 2224 1905.03 2192.71 1923.59 2157.65 1944.55 2106.42 1954.18 2032.51 1968.27 1970.63 1950.74 1946.57 1943.52 1931.44 1939.05 1926.28 1936.31 1897.41 1927.71 1883.31 1923.59 1872.31 1920.5 1863.03 1918.09 1825.56 1908.47 1822.81 1909.15 1804.59 1903.31 1793.24 1899.53 1785.68 1896.44 1771.58 1890.6 1745.11 1879.6 1722.08 1869.98 1704.2 1859.32 1660.54 1832.86 1637.85 1793.34 1628.57 1776.84 1621.69 1764.47 1612.41 1736.63 1593.5 1680.27 1581.13 1643.15 1574.94 1624.25 1572.53 1611.88 1568.06 1587.48 1566.35 1564.45 1563.94 1518.74 1562.91 1504.65 1562.22 1492.97 1561.88 1485.41Z" stroke="#000000" stroke-width="20.625" stroke-miterlimit="8" fill="#EBE2B3" fill-rule="evenodd"/><path d="M1806.81 1012 1820 987.096 1937.87 1049.53 1924.67 1074.44Z" stroke="#000000" stroke-width="10.3139" stroke-miterlimit="8" fill="#595850" fill-rule="evenodd"/><path d="M2060.18 1044.16 2180.36 986.313 2192.58 1011.71 2072.4 1069.56Z" stroke="#000000" stroke-width="10.3139" stroke-miterlimit="8" fill="#595850" fill-rule="evenodd"/><path d="M2262 2096.5C2262 2101.75 2157.46 2106 2028.5 2106 1899.54 2106 1795 2101.75 1795 2096.5 1795 2091.25 1899.54 2087 2028.5 2087 2157.46 2087 2262 2091.25 2262 2096.5Z" fill="#5B5742" fill-rule="evenodd" fill-opacity="0.470588"/><path d="M1906.5 1135.5C1906.5 1158.7 1887.7 1177.5 1864.5 1177.5 1841.3 1177.5 1822.5 1158.7 1822.5 1135.5 1822.5 1112.3 1841.3 1093.5 1864.5 1093.5 1887.7 1093.5 1906.5 1112.3 1906.5 1135.5Z" stroke="#000000" stroke-width="20.625" stroke-miterlimit="8" fill="#231815" fill-rule="evenodd"/><path d="M2180.5 1135.5C2180.5 1158.7 2161.7 1177.5 2138.5 1177.5 2115.3 1177.5 2096.5 1158.7 2096.5 1135.5 2096.5 1112.3 2115.3 1093.5 2138.5 1093.5 2161.7 1093.5 2180.5 1112.3 2180.5 1135.5Z" stroke="#000000" stroke-width="20.625" stroke-miterlimit="8" fill="#231815" fill-rule="evenodd"/><path d="M1888 1148.5C1888 1159.27 1879.27 1168 1868.5 1168 1857.73 1168 1849 1159.27 1849 1148.5 1849 1137.73 1857.73 1129 1868.5 1129 1879.27 1129 1888 1137.73 1888 1148.5Z" fill="#FFFFFF" fill-rule="evenodd"/><path d="M2158 1148.5C2158 1159.27 2149.05 1168 2138 1168 2126.95 1168 2118 1159.27 2118 1148.5 2118 1137.73 2126.95 1129 2138 1129 2149.05 1129 2158 1137.73 2158 1148.5Z" fill="#FFFFFF" fill-rule="evenodd"/><path d="M2084 1263C2084 1275.15 2050.42 1285 2009 1285 1967.58 1285 1934 1275.15 1934 1263 1934 1250.85 1967.58 1241 2009 1241 2050.42 1241 2084 1250.85 2084 1263Z" stroke="#000000" stroke-width="10.3125" stroke-miterlimit="8" fill="#E73A8F" fill-rule="evenodd"/><path d="M1684.74 1274C1690.24 1266.09 1698.49 1251.31 1696.77 1233.44 1695.74 1221.06 1688.52 1210.4 1674.09 1189.78 1664.13 1175 1656.57 1163.99 1643.17 1150.93 1631.49 1139.59 1620.84 1132.37 1599.88 1118.27 1574.8 1101.43 1562.09 1093.18 1545.94 1089.05 1535.29 1086.3 1511.93 1080.12 1499.9 1092.15 1492.35 1099.37 1492.35 1110.37 1492 1114.49 1491.32 1157.81 1623.25 1251.66 1642.83 1265.41 1656.92 1268.5 1671 1271.25 1684.74 1274Z" fill="#5B5742" fill-rule="evenodd" fill-opacity="0.431373"/><path d="M1733.79 1432.59C1731.38 1433.62 1716.94 1438.78 1703.88 1432.25 1694.94 1427.78 1690.81 1419.86 1688.41 1415.74 1678.44 1397.51 1664 1382.03 1653.34 1363.8 1649.21 1356.58 1650.24 1359.33 1593.86 1283.66 1574.95 1258.2 1565.33 1245.48 1558.45 1235.84 1540.57 1211.08 1528.54 1192.5 1506.88 1161.89 1504.47 1159.14 1496.91 1150.54 1494.85 1138.16 1486.25 1060.08 1639.59 1159.48 1654.71 1171.52 1678.09 1189.07 1682.9 1196.98 1705.94 1221.05 1717.28 1232.75 1725.88 1241.35 1732.41 1247.54 1766.79 1280.22 1780.89 1286.41 1785.36 1305.32 1787.42 1314.27 1786.39 1322.52 1784.67 1329.06 1781.23 1349.01 1776.07 1364.83 1771.95 1375.84 1761.29 1403.7 1753.38 1425.02 1733.79 1432.59Z" stroke="#000000" stroke-width="20.625" stroke-miterlimit="8" fill="#EBE2B3" fill-rule="evenodd"/><path d="M2145.93 1507.63C2156.28 1517.94 2193.93 1502.13 2209.81 1493.2 2222.59 1485.98 2234.68 1475.67 2239.51 1471.55 2242.62 1468.8 2248.83 1462.96 2256.09 1454.71 2268.17 1440.97 2273.01 1432.38 2285.09 1413.48 2301.32 1387.71 2313.41 1372.93 2322.39 1347.16 2324.46 1341.66 2326.88 1333.42 2322.73 1327.58 2317.55 1320.02 2304.43 1321.05 2299.94 1321.05 2254.01 1323.11 2121.75 1483.58 2145.93 1507.63L2145.93 1507.63Z" fill="#5B5742" fill-rule="evenodd" fill-opacity="0.431373"/><path d="M2325.51 1149.5C2320.02 1149.5 2311.44 1150.53 2303.21 1155.01 2288.11 1163.27 2282.28 1178.06 2273.01 1200.43 2265.46 1217.98 2256.54 1234.5 2250.02 1252.4 2241.1 1276.14 2229.78 1299.2 2209.19 1346.35 2176.59 1420.68 2147.77 1461.63 2157.38 1474.02 2160.46 1478.15 2168.7 1481.59 2195.12 1474.02 2271.3 1451.31 2327.23 1381.45 2356.39 1338.09 2359.14 1323.29 2360.85 1303.33 2358.11 1279.58 2356.39 1263.75 2352.96 1249.99 2349.19 1239.32 2347.13 1230.03 2345.07 1220.74 2343.01 1211.44 2337.52 1189.42 2331.69 1168.77 2325.51 1149.5Z" stroke="#000000" stroke-width="20.625" stroke-miterlimit="8" fill="#EBE2B3" fill-rule="evenodd"/></g></svg>