<svg width="1030" height="1374" xmlns="http://www.w3.org/2000/svg" xmlns:xlink="http://www.w3.org/1999/xlink" xml:space="preserve" overflow="hidden"><g transform="translate(-1619 -649)"><path d="M1740.38 649 1773.26 705.53 1838 710.356 1794.84 759.303 1809.91 823.072 1750.31 796.53 1695.16 831 1701.67 765.852 1652 723.454 1715.71 709.667Z" fill="#72C9E1" fill-rule="evenodd" fill-opacity="0.639216"/><path d="M1744.46 780.477 1754.4 779.791 1775.45 1084.65 1765.5 1085.34Z" stroke="#000000" stroke-width="3.4375" stroke-miterlimit="8" fill="#5B612B" fill-rule="evenodd"/><path d="M1741.88 668.5 1767.75 713.081 1819.5 716.853 1784.66 755.261 1797.08 805.328 1749.81 784.409 1705.65 811.5 1711.17 760.404 1671.5 727.141 1722.21 716.167Z" stroke="#000000" stroke-width="3.4375" stroke-miterlimit="8" fill="#F6AF1E" fill-rule="evenodd"/><path d="M2550.9 1670.89 1655.56 1491.44C1638.02 1488 1626.68 1470.81 1630.11 1453.28L1678.94 1209.55C1682.38 1192.02 1699.57 1180.68 1717.1 1184.11L2612.44 1363.56C2629.98 1367 2641.32 1384.19 2637.89 1401.72L2589.06 1645.45C2585.62 1662.98 2568.43 1674.32 2550.9 1670.89L2550.9 1670.89Z" stroke="#000000" stroke-width="20.625" stroke-miterlimit="8" fill="#A6A897" fill-rule="evenodd"/><path d="M1967.5 1790.5C1968.19 1805.65 1970.93 1814.61 1972.99 1819.78 1977.46 1830.11 1978.49 1832.86 1980.55 1838.38 1980.89 1839.75 1981.58 1840.79 1981.58 1841.82 1984.32 1850.09 1984.67 1851.81 1990.5 1871.78 1999.77 1903.82 2000.46 1903.13 2002.86 1914.15 2005.95 1929.3 2004.24 1929.65 2008.01 1951 2011.45 1970.98 2013.51 1980.97 2018.66 1987.86 2020.03 1989.58 2033.08 2006.8 2051.96 2005.42 2064.32 2004.39 2072.56 1995.78 2078.4 1989.58 2081.83 1985.79 2084.58 1982 2097.63 1954.45 2105.18 1938.6 2108.96 1930.34 2111.7 1922.76 2113.08 1918.63 2114.11 1915.53 2114.79 1912.77 2117.88 1901.06 2119.94 1892.45 2120.29 1891.07 2122 1882.81 2129.21 1866.96 2150.5 1834.59 2120.63 1826.67 2090.42 1819.09 2059.17 1811.85 2028.27 1804.28 1997.71 1797.04 1967.5 1790.5Z" stroke="#000000" stroke-width="20.625" stroke-miterlimit="8" fill="#EBE2B3" fill-rule="evenodd"/><path d="M2324.5 1851.24C2332.07 1868.41 2339.63 1888.32 2346.51 1910.3 2353.39 1931.93 2358.2 1952.18 2361.98 1970.72 2380.9 2017.76 2431.1 2006.08 2437.29 1956.65 2444.17 1935.02 2451.05 1911.67 2457.24 1887.29 2462.74 1865.32 2467.55 1844.03 2471.68 1823.78 2472.37 1819.31 2472.71 1814.16 2472.37 1808.33 2472.02 1791.85 2467.55 1778.11 2463.77 1768.5 2417.35 1795.97 2370.92 1823.78 2324.5 1851.24Z" stroke="#000000" stroke-width="20.625" stroke-miterlimit="8" fill="#EBE2B3" fill-rule="evenodd"/><path d="M1761.88 1402.41C1759.47 1392.78 1756.72 1378 1756.72 1360.13 1756.72 1341.23 1759.81 1336.08 1760.16 1319.92 1761.19 1287.96 1749.84 1286.24 1749.5 1258.41 1749.5 1225.41 1765.66 1199.64 1770.47 1191.73 1781.82 1173.18 1786.63 1175.93 1800.38 1154.96 1813.1 1135.37 1818.94 1118.19 1825.13 1100.66 1835.1 1070.42 1832.69 1064.23 1840.95 1035.71 1846.79 1015.43 1854.01 989.998 1870.85 963.879 1881.86 946.695 1900.42 930.199 1937.55 897.206 1961.27 875.898 1978.46 862.152 1991.86 851.498 2032.78 819.192 2046.18 811.975 2051.68 809.226 2070.93 799.603 2088.47 791.011 2111.5 791.698 2123.19 792.042 2141.41 793.073 2161 793.073 2163.76 793.073 2169.94 793.073 2178.19 792.73 2181.63 792.386 2187.48 792.042 2194.7 791.011 2206.73 789.293 2215.67 787.231 2218.42 786.543 2258.64 777.264 2278.92 771.765 2297.49 775.889 2319.83 781.045 2334.96 794.104 2348.37 805.789 2356.96 813.35 2368.99 828.472 2392.37 858.371 2418.5 891.708 2424.34 900.643 2439.81 912.671 2455.28 924.7 2457 921.951 2468 931.917 2482.44 945.32 2487.94 958.724 2501.35 989.998 2527.13 1049.8 2525.07 1041.89 2527.82 1049.8 2530.23 1057.7 2531.94 1065.61 2535.04 1081.42 2539.16 1101.35 2540.2 1110.63 2545.35 1139.5 2549.13 1161.83 2551.2 1172.83 2552.23 1177.99 2561.17 1213.73 2574.23 1237.79 2578.7 1246.38 2598.98 1286.59 2596.92 1334.01 2592.79 1428.87 2590.39 1486.61 2589.01 1517.54 2575.26 1558.78 2568.04 1580.08 2564.95 1582.49 2547.07 1630.6 2531.94 1671.5 2529.54 1682.84 2517.16 1711.37 2503.41 1742.99 2496.54 1758.79 2482.1 1776.32 2475.91 1783.88 2461.81 1799.69 2424 1822.03 2392.71 1840.59 2357.65 1861.55 2306.42 1871.18 2232.51 1885.27 2170.63 1867.74 2146.57 1860.52 2131.44 1856.05 2126.28 1853.31 2097.41 1844.71 2083.31 1840.59 2072.31 1837.5 2063.03 1835.09 2025.56 1825.47 2022.81 1826.15 2004.58 1820.31 1993.24 1816.53 1985.68 1813.44 1971.58 1807.6 1945.11 1796.6 1922.08 1786.98 1904.2 1776.32 1860.54 1749.86 1837.85 1710.34 1828.57 1693.84 1821.69 1681.47 1812.41 1653.63 1793.5 1597.27 1781.13 1560.15 1774.94 1541.25 1772.53 1528.88 1768.06 1504.48 1766.34 1481.45 1763.94 1435.74 1762.91 1421.65 1762.22 1409.97 1761.88 1402.41Z" stroke="#000000" stroke-width="20.625" stroke-miterlimit="8" fill="#EBE2B3" fill-rule="evenodd"/><path d="M2006.9 929.448 2020.1 904.539 2137.96 966.972 2124.77 991.881Z" stroke="#000000" stroke-width="10.3143" stroke-miterlimit="8" fill="#595850" fill-rule="evenodd"/><path d="M2260.08 961.45 2380.27 903.605 2392.49 929.005 2272.31 986.85Z" stroke="#000000" stroke-width="10.3143" stroke-miterlimit="8" fill="#595850" fill-rule="evenodd"/><path d="M2462 2014C2462 2018.97 2357.46 2023 2228.5 2023 2099.54 2023 1995 2018.97 1995 2014 1995 2009.03 2099.54 2005 2228.5 2005 2357.46 2005 2462 2009.03 2462 2014Z" fill="#5B5742" fill-rule="evenodd" fill-opacity="0.470588"/><path d="M2106.5 1053C2106.5 1075.92 2087.7 1094.5 2064.5 1094.5 2041.3 1094.5 2022.5 1075.92 2022.5 1053 2022.5 1030.08 2041.3 1011.5 2064.5 1011.5 2087.7 1011.5 2106.5 1030.08 2106.5 1053Z" stroke="#000000" stroke-width="20.625" stroke-miterlimit="8" fill="#231815" fill-rule="evenodd"/><path d="M2380.5 1053C2380.5 1075.92 2361.7 1094.5 2338.5 1094.5 2315.3 1094.5 2296.5 1075.92 2296.5 1053 2296.5 1030.08 2315.3 1011.5 2338.5 1011.5 2361.7 1011.5 2380.5 1030.08 2380.5 1053Z" stroke="#000000" stroke-width="20.625" stroke-miterlimit="8" fill="#231815" fill-rule="evenodd"/><path d="M2088 1066C2088 1077.05 2079.27 1086 2068.5 1086 2057.73 1086 2049 1077.05 2049 1066 2049 1054.95 2057.73 1046 2068.5 1046 2079.27 1046 2088 1054.95 2088 1066Z" fill="#FFFFFF" fill-rule="evenodd"/><path d="M2358 1066C2358 1077.05 2349.05 1086 2338 1086 2326.95 1086 2318 1077.05 2318 1066 2318 1054.95 2326.95 1046 2338 1046 2349.05 1046 2358 1054.95 2358 1066Z" fill="#FFFFFF" fill-rule="evenodd"/><path d="M2284 1181C2284 1193.15 2250.42 1203 2209 1203 2167.58 1203 2134 1193.15 2134 1181 2134 1168.85 2167.58 1159 2209 1159 2250.42 1159 2284 1168.85 2284 1181Z" stroke="#000000" stroke-width="10.3125" stroke-miterlimit="8" fill="#E73A8F" fill-rule="evenodd"/><path d="M1910.92 1184C1915.03 1175.39 1920.85 1159.55 1916.4 1141.99 1913.32 1129.94 1904.76 1120.64 1887.3 1102.39 1874.98 1089.3 1865.74 1079.66 1851.02 1068.99 1837.67 1059.34 1826.37 1054.18 1803.09 1043.5 1776.05 1030.76 1762.01 1024.56 1745.58 1022.84 1734.62 1021.81 1711 1019.4 1700.73 1033.17 1694.57 1041.44 1695.94 1052.46 1696.63 1056.59 1702.45 1099.98 1847.25 1172.29 1868.82 1182.97 1882.85 1182.97 1896.89 1183.66 1910.92 1184Z" fill="#5B5742" fill-rule="evenodd" fill-opacity="0.431373"/><path d="M1984.55 1332.64C1982.49 1334.02 1968.76 1341.57 1955.02 1337.11 1945.75 1334.02 1940.25 1327.15 1937.16 1323.38 1924.45 1306.91 1907.63 1293.87 1894.58 1277.74 1889.43 1271.22 1890.8 1273.62 1823.14 1207.73 1800.48 1185.42 1788.8 1174.44 1780.56 1166.21 1759.27 1144.59 1744.16 1128.11 1718.06 1101.69 1715.31 1099.29 1706.38 1092.08 1702.26 1080.07 1681.65 1004.57 1848.56 1078.7 1865.39 1087.96 1891.14 1101.69 1897.32 1108.55 1923.77 1128.8 1936.82 1138.75 1946.78 1145.62 1953.99 1150.76 1992.8 1177.53 2007.91 1181.65 2015.12 1199.49 2018.55 1207.73 2018.9 1215.97 2018.21 1223.17 2017.87 1243.42 2015.46 1259.89 2013.06 1271.22 2007.22 1300.04 2002.41 1322.35 1984.55 1332.64Z" stroke="#000000" stroke-width="20.625" stroke-miterlimit="8" fill="#EBE2B3" fill-rule="evenodd"/><path d="M2345.91 1425.63C2356.21 1435.94 2393.65 1420.13 2409.44 1411.2 2422.15 1403.98 2434.17 1393.67 2438.98 1389.55 2442.07 1386.8 2448.25 1380.96 2455.46 1372.71 2467.48 1358.97 2472.29 1350.38 2484.31 1331.48 2500.45 1305.71 2512.47 1290.93 2521.4 1265.16 2523.46 1259.66 2525.87 1251.42 2521.75 1245.58 2516.6 1238.02 2503.55 1239.05 2499.08 1239.05 2453.4 1241.11 2321.87 1401.58 2345.91 1425.63L2345.91 1425.63Z" fill="#5B5742" fill-rule="evenodd" fill-opacity="0.431373"/><path d="M2525.51 1067.5C2520.02 1067.5 2511.44 1068.53 2503.21 1072.99 2488.11 1081.22 2482.28 1095.98 2473.01 1118.28 2465.46 1135.78 2456.54 1152.24 2450.02 1170.08 2441.1 1193.76 2429.78 1216.74 2409.19 1263.75 2376.59 1337.86 2347.77 1378.68 2357.38 1391.03 2360.46 1395.15 2368.7 1398.58 2395.12 1391.03 2471.3 1368.39 2527.23 1298.74 2556.39 1255.51 2559.14 1240.76 2560.85 1220.86 2558.11 1197.19 2556.39 1181.41 2552.96 1167.68 2549.19 1157.05 2547.13 1147.78 2545.07 1138.52 2543.01 1129.26 2537.52 1107.3 2531.69 1086.71 2525.51 1067.5Z" stroke="#000000" stroke-width="20.625" stroke-miterlimit="8" fill="#EBE2B3" fill-rule="evenodd"/></g></svg>