<svg width="1030" height="1259" xmlns="http://www.w3.org/2000/svg" xmlns:xlink="http://www.w3.org/1999/xlink" xml:space="preserve" overflow="hidden"><defs><clipPath id="clip0"><rect x="30" y="948" width="1030" height="1259"/></clipPath></defs><g clip-path="url(#clip0)" transform="translate(-30 -948)"><path d="M397.5 1974.5C398.328 1989.79 400.873 1998.5 403.126 2003.68 407.664 2014.1 408.653 2016.87 410.625 2022.39 411.123 2023.78 411.507 2024.9 411.782 2025.7 414.667 2034.08 414.771 2035.7 420.541 2055.62 429.815 2087.61 430.571 2086.92 432.804 2097.89 435.895 2112.95 434.315 2113.33 438.059 2134.84 441.528 2154.73 443.383 2164.79 448.57 2171.79 449.909 2173.58 463.168 2190.92 481.888 2189.41 494.185 2188.41 502.36 2179.75 508.199 2173.55 511.737 2169.83 514.485 2166 527.503 2138.35 535.026 2122.39 538.839 2114.22 541.552 2106.68 542.995 2102.68 543.957 2099.47 544.678 2096.68 547.721 2084.9 549.991 2076.39 550.311 2075 552.187 2066.77 559.159 2051.04 580.5 2018.51 550.689 2010.72 520.283 2003.08 489.294 1995.62 458.249 1988.16 427.641 1981.13 397.5 1974.5Z" stroke="#000000" stroke-width="20.625" stroke-miterlimit="8" fill="#EBE2B3" fill-rule="evenodd"/><path d="M754.5 2035.57C762.102 2052.88 769.703 2072.55 776.617 2094.46 783.427 2116.09 788.449 2136.35 792.164 2154.79 811.219 2201.67 861.403 2190.13 867.423 2140.78 874.405 2119.08 881.146 2095.94 887.372 2071.42 892.979 2049.34 897.726 2028.05 901.716 2007.72 902.283 2003.09 902.6 1997.97 902.472 1992.43 902.087 1975.77 897.815 1962.09 893.742 1952.5 847.328 1980.19 800.914 2007.88 754.5 2035.57Z" stroke="#000000" stroke-width="20.625" stroke-miterlimit="8" fill="#EBE2B3" fill-rule="evenodd"/><path d="M192.769 1586.54C190.363 1576.88 187.58 1562.28 187.511 1544.41 187.442 1525.4 190.535 1520.18 191.016 1504.06 191.979 1472.13 180.534 1470.31 180.5 1442.64 180.5 1409.79 196.515 1384.01 201.567 1375.97 213.046 1357.58 217.616 1360.19 231.398 1339.12 244.216 1319.53 250.128 1302.21 255.97 1284.72 266.109 1254.37 263.703 1248.29 271.779 1219.8 277.484 1199.66 284.735 1173.98 301.61 1147.83 312.607 1130.78 331.165 1114.25 368.282 1081.16 392.133 1059.88 409.316 1046.17 422.685 1035.51 463.444 1003.07 476.848 996.129 482.346 993.379 501.626 983.825 518.981 975.198 542.008 975.817 553.589 976.126 571.838 977.26 591.462 977.088 594.246 977.054 600.535 977.088 608.714 976.573 612.22 976.332 618.096 975.886 625.176 974.923 637.204 973.308 646.243 971.177 649.027 970.524 689.167 961.245 709.444 955.643 728.002 960.007 750.307 965.231 765.291 978.154 778.9 989.839 787.526 997.263 799.383 1012.45 822.787 1042.49 848.803 1075.93 854.817 1084.9 870.179 1096.9 885.541 1108.89 887.466 1106.07 898.257 1116.21 912.622 1129.68 918.018 1142.92 931.593 1174.12 957.54 1233.79 955.409 1225.98 957.918 1233.79 960.462 1241.79 961.905 1249.66 965.17 1265.34 969.294 1285.17 970.497 1294.72 975.48 1323.31 979.363 1345.52 981.185 1356.65 982.491 1361.91 991.289 1397.55 1004.52 1421.75 1008.82 1430.34 1028.92 1470.48 1026.89 1517.94 1022.87 1612.87 1020.43 1670.43 1019.09 1701.71 1005.31 1742.75 998.196 1763.92 994.932 1766.36 977.233 1814.71 962.249 1855.61 959.774 1867.02 947.402 1895.44 933.655 1927.06 926.782 1942.87 912.313 1960.36 906.196 1967.79 891.933 1983.74 854.404 2006.01 823.199 2024.53 788.076 2045.36 736.835 2055.15 662.946 2069.28 601.222 2051.75 577.131 2044.64 562.112 2040.2 557.026 2037.52 527.986 2028.83 514.019 2024.65 502.905 2021.59 493.471 2019.14 456.135 2009.47 453.371 2010.2 434.988 2004.25 423.596 2000.57 415.942 1997.4 402.144 1991.65 375.698 1980.62 352.597 1971 334.946 1960.36 291.279 1934.07 268.71 1894.36 259.476 1877.88 252.602 1865.61 243.186 1837.53 224.387 1781.34 211.98 1744.26 205.691 1725.46 203.32 1712.91 198.714 1688.62 197.305 1665.45 194.556 1619.91 193.663 1605.79 193.113 1594.21 192.769 1586.54Z" stroke="#000000" stroke-width="20.625" stroke-miterlimit="8" fill="#EBE2B3" fill-rule="evenodd"/><path d="M436.915 1113.64 450.061 1088.82 567.961 1151.28 554.814 1176.09Z" stroke="#000000" stroke-width="10.3136" stroke-miterlimit="8" fill="#595850" fill-rule="evenodd"/><path d="M690.577 1145.78 810.798 1087.92 822.978 1113.22 702.757 1171.08Z" stroke="#000000" stroke-width="10.3136" stroke-miterlimit="8" fill="#595850" fill-rule="evenodd"/><path d="M892 2198C892 2202.97 787.458 2207 658.5 2207 529.542 2207 425 2202.97 425 2198 425 2193.03 529.542 2189 658.5 2189 787.458 2189 892 2193.03 892 2198Z" fill="#5B5742" fill-rule="evenodd" fill-opacity="0.470588"/><path d="M536.5 1237C536.5 1259.92 517.92 1278.5 495 1278.5 472.08 1278.5 453.5 1259.92 453.5 1237 453.5 1214.08 472.08 1195.5 495 1195.5 517.92 1195.5 536.5 1214.08 536.5 1237Z" stroke="#000000" stroke-width="20.625" stroke-miterlimit="8" fill="#231815" fill-rule="evenodd"/><path d="M810.5 1237C810.5 1259.92 791.92 1278.5 769 1278.5 746.08 1278.5 727.5 1259.92 727.5 1237 727.5 1214.08 746.08 1195.5 769 1195.5 791.92 1195.5 810.5 1214.08 810.5 1237Z" stroke="#000000" stroke-width="20.625" stroke-miterlimit="8" fill="#231815" fill-rule="evenodd"/><path d="M519 1250C519 1261.05 510.046 1270 499 1270 487.954 1270 479 1261.05 479 1250 479 1238.95 487.954 1230 499 1230 510.046 1230 519 1238.95 519 1250Z" fill="#FFFFFF" fill-rule="evenodd"/><path d="M788 1250C788 1261.05 779.046 1270 768 1270 756.954 1270 748 1261.05 748 1250 748 1238.95 756.954 1230 768 1230 779.046 1230 788 1238.95 788 1250Z" fill="#FFFFFF" fill-rule="evenodd"/><path d="M714 1365C714 1377.15 680.422 1387 639 1387 597.579 1387 564 1377.15 564 1365 564 1352.85 597.579 1343 639 1343 680.422 1343 714 1352.85 714 1365Z" stroke="#000000" stroke-width="10.3125" stroke-miterlimit="8" fill="#E73A8F" fill-rule="evenodd"/><path d="M961.856 1871.86 66.6131 1692.53C49.0115 1689 37.6201 1671.88 41.1376 1654.32L89.9599 1410.61C93.4914 1393.01 110.611 1381.62 128.178 1385.14L1023.39 1564.46C1040.99 1567.99 1052.38 1585.1 1048.86 1602.67L1000.04 1846.38C996.554 1863.96 979.424 1875.38 961.856 1871.86L961.856 1871.86Z" stroke="#000000" stroke-width="20.625" stroke-miterlimit="8" fill="#A6A897" fill-rule="evenodd"/><path d="M351.795 1507.34 323.004 1501.59C318.631 1500.72 315.804 1496.51 316.649 1492.14L319.704 1476.97C320.58 1472.62 324.819 1469.81 329.205 1470.65L357.997 1476.4C362.37 1477.27 365.196 1481.48 364.351 1485.85L361.296 1501.02C360.402 1505.4 356.168 1508.21 351.795 1507.34Z" stroke="#000000" stroke-width="3.4375" stroke-miterlimit="8" fill="#D6DBD9" fill-rule="evenodd"/><path d="M487.795 1534.34 459.003 1528.59C454.63 1527.72 451.804 1523.51 452.649 1519.14L455.704 1503.97C456.58 1499.62 460.819 1496.81 465.205 1497.65L493.997 1503.4C498.37 1504.27 501.196 1508.49 500.351 1512.85L497.296 1528.02C496.416 1532.37 492.168 1535.21 487.795 1534.34Z" stroke="#000000" stroke-width="3.4375" stroke-miterlimit="8" fill="#D6DBD9" fill-rule="evenodd"/><path d="M167.795 1470.34 139.003 1464.59C134.63 1463.72 131.804 1459.51 132.649 1455.14L135.704 1439.97C136.58 1435.62 140.819 1432.81 145.205 1433.65L173.997 1439.4C178.37 1440.27 181.196 1444.49 180.351 1448.85L177.296 1464.02C176.451 1468.38 172.168 1471.21 167.795 1470.34Z" stroke="#000000" stroke-width="3.4375" stroke-miterlimit="8" fill="#D6DBD9" fill-rule="evenodd"/><path d="M228.795 1482.34 200.003 1476.59C195.631 1475.72 192.804 1471.51 193.649 1467.14L196.704 1451.97C197.58 1447.62 201.819 1444.81 206.205 1445.65L234.997 1451.4C239.37 1452.27 242.197 1456.48 241.351 1460.85L238.297 1476.02C237.437 1480.42 233.168 1483.21 228.795 1482.34Z" stroke="#000000" stroke-width="3.4375" stroke-miterlimit="8" fill="#D6DBD9" fill-rule="evenodd"/><path d="M726.795 1582.35 698.004 1576.6C693.631 1575.73 690.804 1571.51 691.649 1567.15L694.704 1551.97C695.581 1547.62 699.819 1544.81 704.205 1545.65L732.997 1551.4C737.37 1552.27 740.196 1556.49 739.351 1560.85L736.296 1576.03C735.447 1580.39 731.182 1583.19 726.795 1582.35Z" stroke="#000000" stroke-width="3.4375" stroke-miterlimit="8" fill="#D6DBD9" fill-rule="evenodd"/><path d="M290.795 1495.34 262.003 1489.59C257.631 1488.72 254.804 1484.51 255.649 1480.14L258.704 1464.97C259.58 1460.62 263.819 1457.81 268.205 1458.65L296.997 1464.4C301.37 1465.27 304.196 1469.49 303.351 1473.85L300.297 1489.02C299.448 1493.39 295.168 1496.21 290.795 1495.34Z" stroke="#000000" stroke-width="3.4375" stroke-miterlimit="8" fill="#D6DBD9" fill-rule="evenodd"/><path d="M549.06 1547.34 520.868 1541.59C516.586 1540.72 513.819 1536.51 514.646 1532.14L517.637 1516.97C518.495 1512.62 522.646 1509.81 526.941 1510.65L555.132 1516.4C559.414 1517.27 562.182 1521.48 561.354 1525.85L558.363 1541.02C557.501 1545.37 553.341 1548.22 549.06 1547.34Z" stroke="#000000" stroke-width="3.4375" stroke-miterlimit="8" fill="#D6DBD9" fill-rule="evenodd"/><path d="M607.795 1558.34 579.003 1552.59C574.63 1551.72 571.804 1547.51 572.649 1543.14L575.704 1527.97C576.58 1523.62 580.819 1520.81 585.205 1521.65L613.997 1527.4C618.37 1528.27 621.196 1532.48 620.351 1536.85L617.296 1552.02C616.406 1556.4 612.168 1559.21 607.795 1558.34Z" stroke="#000000" stroke-width="3.4375" stroke-miterlimit="8" fill="#D6DBD9" fill-rule="evenodd"/><path d="M667.059 1570.34 638.868 1564.59C634.586 1563.72 631.818 1559.51 632.646 1555.14L635.637 1539.97C636.495 1535.62 640.646 1532.81 644.941 1533.65L673.133 1539.4C677.414 1540.27 680.182 1544.49 679.354 1548.85L676.363 1564.02C675.532 1568.39 671.341 1571.21 667.059 1570.34Z" stroke="#000000" stroke-width="3.4375" stroke-miterlimit="8" fill="#D6DBD9" fill-rule="evenodd"/><path d="M419.795 1521.34 391.004 1515.59C386.631 1514.72 383.804 1510.5 384.649 1506.14L387.704 1490.97C388.581 1486.62 392.819 1483.81 397.206 1484.65L425.997 1490.4C430.37 1491.27 433.196 1495.48 432.351 1499.85L429.296 1515.02C428.437 1519.42 424.168 1522.21 419.795 1521.34Z" stroke="#000000" stroke-width="3.4375" stroke-miterlimit="8" fill="#D6DBD9" fill-rule="evenodd"/><path d="M794.794 1594.34 766.003 1588.59C761.63 1587.72 758.804 1583.51 759.649 1579.14L762.704 1563.97C763.58 1559.62 767.819 1556.81 772.205 1557.65L800.997 1563.4C805.37 1564.27 808.196 1568.49 807.351 1572.85L804.296 1588.02C803.451 1592.38 799.171 1595.21 794.794 1594.34Z" stroke="#000000" stroke-width="3.4375" stroke-miterlimit="8" fill="#D6DBD9" fill-rule="evenodd"/><path d="M186.93 1520.34 128.934 1508.63C124.608 1507.76 121.811 1503.54 122.648 1499.17L125.67 1483.98C126.537 1479.62 130.73 1476.81 135.07 1477.65L193.066 1489.36C197.392 1490.23 200.189 1494.45 199.353 1498.82L196.33 1514.01C195.477 1518.41 191.256 1521.22 186.93 1520.34Z" stroke="#000000" stroke-width="3.4375" stroke-miterlimit="8" fill="#D6DBD9" fill-rule="evenodd"/><path d="M236.598 1530.34 221.104 1527.33C216.664 1526.47 213.793 1522.29 214.652 1517.96L217.753 1502.91C218.643 1498.6 222.947 1495.81 227.402 1496.65L242.896 1499.66C247.337 1500.52 250.207 1504.7 249.348 1509.03L246.247 1524.08C245.339 1528.42 241.039 1531.21 236.598 1530.34Z" stroke="#000000" stroke-width="3.4375" stroke-miterlimit="8" fill="#D6DBD9" fill-rule="evenodd"/><path d="M280.967 1539.34 265.915 1536.33C261.602 1535.47 258.813 1531.29 259.647 1526.96L262.66 1511.91C263.525 1507.6 267.706 1504.81 272.033 1505.65L287.085 1508.66C291.399 1509.52 294.187 1513.7 293.353 1518.03L290.34 1533.08C289.502 1537.4 285.28 1540.21 280.967 1539.34Z" stroke="#000000" stroke-width="3.4375" stroke-miterlimit="8" fill="#D6DBD9" fill-rule="evenodd"/><path d="M327.967 1548.34 312.915 1545.33C308.602 1544.47 305.813 1540.29 306.647 1535.96L309.661 1520.91C310.525 1516.6 314.706 1513.81 319.033 1514.65L334.085 1517.66C338.399 1518.52 341.187 1522.7 340.353 1527.03L337.34 1542.08C336.502 1546.4 332.281 1549.21 327.967 1548.34Z" stroke="#000000" stroke-width="3.4375" stroke-miterlimit="8" fill="#D6DBD9" fill-rule="evenodd"/><path d="M372.598 1557.34 357.104 1554.33C352.664 1553.47 349.793 1549.29 350.652 1544.96L353.754 1529.91C354.644 1525.6 358.947 1522.81 363.402 1523.65L378.896 1526.66C383.337 1527.52 386.207 1531.7 385.348 1536.03L382.246 1551.08C381.339 1555.42 377.039 1558.21 372.598 1557.34L372.598 1557.34Z" stroke="#000000" stroke-width="3.4375" stroke-miterlimit="8" fill="#D6DBD9" fill-rule="evenodd"/><path d="M425.967 1569.34 410.915 1566.24C406.602 1565.35 403.813 1561.05 404.647 1556.59L407.661 1541.1C408.525 1536.66 412.706 1533.79 417.033 1534.65L432.085 1537.75C436.399 1538.64 439.187 1542.95 438.353 1547.4L435.34 1562.89C434.506 1567.34 430.284 1570.23 425.967 1569.34Z" stroke="#000000" stroke-width="3.4375" stroke-miterlimit="8" fill="#D6DBD9" fill-rule="evenodd"/><path d="M469.967 1578.34 454.915 1575.24C450.602 1574.35 447.813 1570.04 448.647 1565.59L451.661 1550.1C452.525 1545.66 456.706 1542.79 461.033 1543.65L476.085 1546.75C480.399 1547.64 483.187 1551.94 482.353 1556.4L479.34 1571.89C478.492 1576.37 474.284 1579.23 469.967 1578.34Z" stroke="#000000" stroke-width="3.4375" stroke-miterlimit="8" fill="#D6DBD9" fill-rule="evenodd"/><path d="M517.598 1587.34 502.104 1584.33C497.663 1583.47 494.793 1579.29 495.651 1574.96L498.753 1559.91C499.643 1555.6 503.947 1552.81 508.402 1553.65L523.896 1556.66C528.337 1557.52 531.207 1561.7 530.348 1566.03L527.247 1581.08C526.339 1585.42 522.039 1588.21 517.598 1587.34Z" stroke="#000000" stroke-width="3.4375" stroke-miterlimit="8" fill="#D6DBD9" fill-rule="evenodd"/><path d="M559.598 1595.34 544.104 1592.33C539.664 1591.47 536.793 1587.29 537.652 1582.96L540.753 1567.91C541.644 1563.6 545.947 1560.81 550.402 1561.65L565.896 1564.66C570.337 1565.52 573.207 1569.7 572.348 1574.03L569.246 1589.08C568.353 1593.39 564.039 1596.21 559.598 1595.34Z" stroke="#000000" stroke-width="3.4375" stroke-miterlimit="8" fill="#D6DBD9" fill-rule="evenodd"/><path d="M607.598 1605.34 592.104 1602.24C587.663 1601.35 584.793 1597.05 585.651 1592.59L588.753 1577.1C589.643 1572.66 593.947 1569.79 598.402 1570.65L613.896 1573.75C618.337 1574.64 621.207 1578.95 620.348 1583.4L617.247 1598.89C616.356 1603.33 612.039 1606.23 607.598 1605.34Z" stroke="#000000" stroke-width="3.4375" stroke-miterlimit="8" fill="#D6DBD9" fill-rule="evenodd"/><path d="M651.967 1614.34 636.915 1611.24C632.602 1610.35 629.813 1606.04 630.647 1601.59L633.66 1586.1C634.525 1581.66 638.706 1578.79 643.033 1579.65L658.085 1582.75C662.399 1583.64 665.187 1587.94 664.353 1592.4L661.34 1607.89C660.506 1612.34 656.284 1615.23 651.967 1614.34Z" stroke="#000000" stroke-width="3.4375" stroke-miterlimit="8" fill="#D6DBD9" fill-rule="evenodd"/><path d="M699.598 1623.34 684.104 1620.33C679.664 1619.47 676.793 1615.29 677.652 1610.96L680.753 1595.91C681.644 1591.6 685.947 1588.81 690.402 1589.65L705.896 1592.66C710.337 1593.52 713.207 1597.7 712.349 1602.03L709.247 1617.08C708.374 1621.43 704.039 1624.21 699.598 1623.34Z" stroke="#000000" stroke-width="3.4375" stroke-miterlimit="8" fill="#D6DBD9" fill-rule="evenodd"/><path d="M743.967 1632.34 728.915 1629.33C724.602 1628.47 721.813 1624.29 722.647 1619.96L725.661 1604.91C726.525 1600.6 730.706 1597.81 735.033 1598.65L750.085 1601.66C754.399 1602.52 757.187 1606.7 756.353 1611.03L753.34 1626.08C752.458 1630.42 748.281 1633.21 743.967 1632.34Z" stroke="#000000" stroke-width="3.4375" stroke-miterlimit="8" fill="#D6DBD9" fill-rule="evenodd"/><path d="M784.598 1641.34 769.104 1638.24C764.663 1637.35 761.793 1633.04 762.652 1628.59L765.753 1613.1C766.643 1608.66 770.947 1605.79 775.402 1606.65L790.896 1609.75C795.337 1610.64 798.207 1614.94 797.348 1619.4L794.247 1634.89C793.374 1639.37 789.039 1642.23 784.598 1641.34Z" stroke="#000000" stroke-width="3.4375" stroke-miterlimit="8" fill="#D6DBD9" fill-rule="evenodd"/><path d="M289.598 1588.34 274.104 1585.33C269.663 1584.47 266.793 1580.29 267.652 1575.96L270.753 1560.91C271.643 1556.6 275.947 1553.81 280.402 1554.65L295.896 1557.66C300.337 1558.52 303.207 1562.7 302.348 1567.03L299.247 1582.08C298.357 1586.39 294.039 1589.21 289.598 1588.34Z" stroke="#000000" stroke-width="3.4375" stroke-miterlimit="8" fill="#D6DBD9" fill-rule="evenodd"/><path d="M338.967 1599.34 323.915 1596.24C319.602 1595.35 316.813 1591.05 317.647 1586.59L320.661 1571.1C321.525 1566.66 325.706 1563.79 330.033 1564.65L345.085 1567.75C349.399 1568.64 352.187 1572.94 351.353 1577.4L348.34 1592.89C347.475 1597.33 343.281 1600.23 338.967 1599.34Z" stroke="#000000" stroke-width="3.4375" stroke-miterlimit="8" fill="#D6DBD9" fill-rule="evenodd"/><path d="M384.967 1608.34 369.915 1605.24C365.602 1604.35 362.813 1600.05 363.647 1595.59L366.66 1580.1C367.525 1575.66 371.706 1572.79 376.033 1573.65L391.085 1576.75C395.398 1577.64 398.187 1581.95 397.353 1586.4L394.339 1601.89C393.502 1606.34 389.28 1609.23 384.967 1608.34Z" stroke="#000000" stroke-width="3.4375" stroke-miterlimit="8" fill="#D6DBD9" fill-rule="evenodd"/><path d="M431.598 1617.34 416.104 1614.24C411.663 1613.35 408.793 1609.05 409.651 1604.59L412.753 1589.1C413.643 1584.66 417.947 1581.79 422.402 1582.65L437.896 1585.75C442.337 1586.64 445.207 1590.95 444.348 1595.4L441.247 1610.89C440.343 1615.36 436.039 1618.23 431.598 1617.34Z" stroke="#000000" stroke-width="3.4375" stroke-miterlimit="8" fill="#D6DBD9" fill-rule="evenodd"/><path d="M479.967 1626.34 464.915 1623.33C460.602 1622.47 457.813 1618.29 458.647 1613.96L461.661 1598.91C462.525 1594.6 466.706 1591.81 471.033 1592.65L486.085 1595.66C490.399 1596.52 493.187 1600.7 492.353 1605.03L489.34 1620.08C488.506 1624.4 484.284 1627.21 479.967 1626.34Z" stroke="#000000" stroke-width="3.4375" stroke-miterlimit="8" fill="#D6DBD9" fill-rule="evenodd"/><path d="M526.967 1636.34 511.915 1633.33C507.602 1632.47 504.814 1628.29 505.647 1623.96L508.661 1608.91C509.525 1604.6 513.706 1601.81 518.033 1602.65L533.085 1605.66C537.398 1606.52 540.187 1610.7 539.353 1615.03L536.339 1630.08C535.505 1634.4 531.284 1637.21 526.967 1636.34Z" stroke="#000000" stroke-width="3.4375" stroke-miterlimit="8" fill="#D6DBD9" fill-rule="evenodd"/><path d="M567.967 1641.34 552.915 1638.24C548.602 1637.35 545.813 1633.04 546.647 1628.59L549.661 1613.1C550.525 1608.66 554.706 1605.79 559.033 1606.65L574.085 1609.75C578.399 1610.64 581.187 1614.94 580.353 1619.4L577.34 1634.89C576.492 1639.37 572.281 1642.23 567.967 1641.34Z" stroke="#000000" stroke-width="3.4375" stroke-miterlimit="8" fill="#D6DBD9" fill-rule="evenodd"/><path d="M615.967 1650.34 600.915 1647.33C596.602 1646.47 593.813 1642.29 594.647 1637.96L597.66 1622.91C598.525 1618.6 602.706 1615.81 607.033 1616.65L622.085 1619.66C626.398 1620.52 629.187 1624.7 628.353 1629.03L625.339 1644.08C624.492 1648.43 620.28 1651.21 615.967 1650.34Z" stroke="#000000" stroke-width="3.4375" stroke-miterlimit="8" fill="#D6DBD9" fill-rule="evenodd"/><path d="M660.598 1659.34 645.104 1656.33C640.663 1655.47 637.793 1651.29 638.651 1646.96L641.753 1631.91C642.643 1627.6 646.947 1624.81 651.402 1625.65L666.896 1628.66C671.337 1629.52 674.207 1633.7 673.348 1638.03L670.246 1653.08C669.342 1657.42 665.039 1660.21 660.598 1659.34Z" stroke="#000000" stroke-width="3.4375" stroke-miterlimit="8" fill="#D6DBD9" fill-rule="evenodd"/><path d="M707.967 1669.34 692.915 1666.24C688.602 1665.35 685.813 1661.05 686.647 1656.59L689.66 1641.1C690.525 1636.66 694.706 1633.79 699.033 1634.65L714.085 1637.75C718.399 1638.64 721.187 1642.95 720.353 1647.4L717.34 1662.89C716.475 1667.33 712.28 1670.23 707.967 1669.34Z" stroke="#000000" stroke-width="3.4375" stroke-miterlimit="8" fill="#D6DBD9" fill-rule="evenodd"/><path d="M197.787 1570.34 119.007 1554.63C114.632 1553.76 111.803 1549.54 112.649 1545.17L115.706 1529.98C116.583 1525.62 120.823 1522.81 125.212 1523.65L203.993 1539.36C208.368 1540.23 211.196 1544.45 210.35 1548.82L207.294 1564.01C206.448 1568.38 202.163 1571.22 197.787 1570.34Z" stroke="#000000" stroke-width="3.4375" stroke-miterlimit="8" fill="#D6DBD9" fill-rule="evenodd"/><path d="M256.967 1631.34 241.915 1628.33C237.602 1627.47 234.813 1623.29 235.647 1618.96L238.66 1603.91C239.525 1599.6 243.706 1596.81 248.033 1597.65L263.085 1600.66C267.399 1601.52 270.187 1605.7 269.353 1610.03L266.34 1625.08C265.471 1629.39 261.28 1632.21 256.967 1631.34Z" stroke="#000000" stroke-width="3.4375" stroke-miterlimit="8" fill="#D6DBD9" fill-rule="evenodd"/><path d="M240.967 1578.34 225.915 1575.33C221.602 1574.47 218.814 1570.29 219.647 1565.96L222.661 1550.91C223.525 1546.6 227.706 1543.81 232.033 1544.65L247.085 1547.66C251.398 1548.52 254.187 1552.7 253.353 1557.03L250.339 1572.08C249.506 1576.4 245.284 1579.21 240.967 1578.34Z" stroke="#000000" stroke-width="3.4375" stroke-miterlimit="8" fill="#D6DBD9" fill-rule="evenodd"/><path d="M770.776 1683.34 733.013 1675.77C728.633 1674.89 725.803 1670.65 726.649 1666.27L729.708 1651C730.586 1646.63 734.831 1643.8 739.223 1644.65L776.987 1652.22C781.367 1653.1 784.197 1657.34 783.35 1661.72L780.291 1676.99C779.4 1681.39 775.155 1684.22 770.776 1683.34L770.776 1683.34Z" stroke="#000000" stroke-width="3.4375" stroke-miterlimit="8" fill="#D6DBD9" fill-rule="evenodd"/><path d="M209.772 1620.34 110.015 1600.55C105.634 1599.68 102.803 1595.47 103.65 1591.11L106.71 1575.96C107.588 1571.62 111.834 1568.81 116.228 1569.65L215.985 1589.45C220.366 1590.32 223.198 1594.52 222.35 1598.88L219.291 1614.03C218.412 1618.38 214.152 1621.21 209.772 1620.34Z" stroke="#000000" stroke-width="3.4375" stroke-miterlimit="8" fill="#D6DBD9" fill-rule="evenodd"/><path d="M304.967 1639.34 289.915 1636.33C285.602 1635.47 282.813 1631.29 283.647 1626.96L286.661 1611.91C287.525 1607.6 291.706 1604.81 296.033 1605.65L311.085 1608.66C315.399 1609.52 318.187 1613.7 317.353 1618.03L314.34 1633.08C313.506 1637.4 309.284 1640.21 304.967 1639.34Z" stroke="#000000" stroke-width="3.4375" stroke-miterlimit="8" fill="#D6DBD9" fill-rule="evenodd"/><path d="M356.967 1650.34 341.915 1647.33C337.602 1646.47 334.813 1642.29 335.647 1637.96L338.66 1622.91C339.525 1618.6 343.706 1615.81 348.033 1616.65L363.085 1619.66C367.399 1620.52 370.187 1624.7 369.353 1629.03L366.34 1644.08C365.492 1648.43 361.284 1651.21 356.967 1650.34Z" stroke="#000000" stroke-width="3.4375" stroke-miterlimit="8" fill="#D6DBD9" fill-rule="evenodd"/><path d="M402.967 1659.34 387.915 1656.33C383.602 1655.46 380.813 1651.29 381.647 1646.96L384.661 1631.91C385.525 1627.6 389.706 1624.81 394.033 1625.65L409.085 1628.66C413.399 1629.52 416.187 1633.7 415.353 1638.03L412.34 1653.08C411.492 1657.43 407.28 1660.21 402.967 1659.34Z" stroke="#000000" stroke-width="3.4375" stroke-miterlimit="8" fill="#D6DBD9" fill-rule="evenodd"/><path d="M449.598 1668.34 434.104 1665.33C429.664 1664.47 426.793 1660.29 427.652 1655.96L430.754 1640.91C431.644 1636.6 435.947 1633.81 440.402 1634.65L455.896 1637.66C460.337 1638.52 463.207 1642.7 462.348 1647.03L459.246 1662.08C458.353 1666.39 454.039 1669.21 449.598 1668.34Z" stroke="#000000" stroke-width="3.4375" stroke-miterlimit="8" fill="#D6DBD9" fill-rule="evenodd"/><path d="M497.967 1678.35 482.915 1675.25C478.602 1674.36 475.813 1670.05 476.647 1665.6L479.66 1650.1C480.525 1645.66 484.706 1642.79 489.033 1643.65L504.085 1646.75C508.399 1647.64 511.187 1651.95 510.353 1656.4L507.34 1671.9C506.502 1676.35 502.294 1679.21 497.967 1678.35Z" stroke="#000000" stroke-width="3.4375" stroke-miterlimit="8" fill="#D6DBD9" fill-rule="evenodd"/><path d="M544.967 1687.34 529.915 1684.33C525.602 1683.47 522.813 1679.29 523.647 1674.96L526.661 1659.91C527.525 1655.6 531.706 1652.81 536.033 1653.65L551.085 1656.66C555.399 1657.52 558.187 1661.7 557.353 1666.03L554.34 1681.08C553.458 1685.42 549.281 1688.21 544.967 1687.34Z" stroke="#000000" stroke-width="3.4375" stroke-miterlimit="8" fill="#D6DBD9" fill-rule="evenodd"/><path d="M585.967 1692.34 570.915 1689.33C566.602 1688.47 563.813 1684.29 564.647 1679.96L567.66 1664.91C568.525 1660.6 572.706 1657.81 577.033 1658.65L592.085 1661.66C596.399 1662.52 599.187 1666.7 598.353 1671.03L595.34 1686.08C594.488 1690.43 590.28 1693.21 585.967 1692.34Z" stroke="#000000" stroke-width="3.4375" stroke-miterlimit="8" fill="#D6DBD9" fill-rule="evenodd"/><path d="M633.967 1702.34 618.915 1699.24C614.602 1698.35 611.813 1694.04 612.647 1689.59L615.661 1674.1C616.525 1669.66 620.706 1666.79 625.033 1667.65L640.085 1670.75C644.399 1671.64 647.187 1675.94 646.353 1680.4L643.34 1695.89C642.506 1700.34 638.284 1703.23 633.967 1702.34Z" stroke="#000000" stroke-width="3.4375" stroke-miterlimit="8" fill="#D6DBD9" fill-rule="evenodd"/><path d="M678.598 1711.34 663.104 1708.24C658.664 1707.35 655.793 1703.05 656.652 1698.59L659.753 1683.1C660.644 1678.66 664.947 1675.79 669.402 1676.65L684.896 1679.75C689.337 1680.64 692.207 1684.95 691.349 1689.4L688.247 1704.89C687.353 1709.33 683.039 1712.23 678.598 1711.34Z" stroke="#000000" stroke-width="3.4375" stroke-miterlimit="8" fill="#D6DBD9" fill-rule="evenodd"/><path d="M767.812 1724.34 708.995 1712.6C704.628 1711.73 701.805 1707.52 702.649 1703.15L705.7 1687.97C706.575 1683.62 710.808 1680.81 715.188 1681.65L774.006 1693.39C778.373 1694.26 781.196 1698.47 780.351 1702.84L777.301 1718.02C776.408 1722.4 772.179 1725.21 767.812 1724.34Z" stroke="#000000" stroke-width="3.4375" stroke-miterlimit="8" fill="#D6DBD9" fill-rule="evenodd"/><path d="M112.598 1645.34 97.1039 1642.33C92.6634 1641.46 89.7931 1637.28 90.6515 1632.96L93.7533 1617.91C94.6434 1613.6 98.9473 1610.81 103.402 1611.65L118.896 1614.66C123.337 1615.52 126.207 1619.7 125.348 1624.03L122.247 1639.07C121.374 1643.43 117.07 1646.22 112.598 1645.34Z" stroke="#000000" stroke-width="3.4375" stroke-miterlimit="8" fill="#D6DBD9" fill-rule="evenodd"/><path d="M156.967 1654.34 141.915 1651.33C137.602 1650.47 134.813 1646.29 135.647 1641.96L138.66 1626.91C139.525 1622.6 143.706 1619.81 148.033 1620.65L163.085 1623.66C167.399 1624.52 170.187 1628.7 169.353 1633.03L166.34 1648.08C165.461 1652.42 161.284 1655.21 156.967 1654.34Z" stroke="#000000" stroke-width="3.4375" stroke-miterlimit="8" fill="#D6DBD9" fill-rule="evenodd"/><path d="M203.967 1664.34 188.915 1661.24C184.602 1660.35 181.813 1656.05 182.647 1651.59L185.66 1636.1C186.525 1631.66 190.706 1628.79 195.033 1629.65L210.085 1632.75C214.399 1633.64 217.187 1637.95 216.353 1642.4L213.34 1657.89C212.506 1662.34 208.284 1665.23 203.967 1664.34Z" stroke="#000000" stroke-width="3.4375" stroke-miterlimit="8" fill="#D6DBD9" fill-rule="evenodd"/><path d="M248.598 1673.34 233.104 1670.24C228.664 1669.35 225.793 1665.05 226.652 1660.59L229.753 1645.1C230.644 1640.66 234.947 1637.79 239.402 1638.65L254.896 1641.75C259.337 1642.64 262.207 1646.95 261.349 1651.4L258.247 1666.89C257.353 1671.33 253.039 1674.23 248.598 1673.34Z" stroke="#000000" stroke-width="3.4375" stroke-miterlimit="8" fill="#D6DBD9" fill-rule="evenodd"/><path d="M301.967 1684.34 286.915 1681.24C282.602 1680.35 279.813 1676.05 280.647 1671.59L283.66 1656.1C284.525 1651.66 288.706 1648.79 293.033 1649.65L308.085 1652.75C312.399 1653.64 315.187 1657.95 314.353 1662.4L311.34 1677.89C310.471 1682.33 306.28 1685.23 301.967 1684.34Z" stroke="#000000" stroke-width="3.4375" stroke-miterlimit="8" fill="#D6DBD9" fill-rule="evenodd"/><path d="M483.81 1720.34 331.996 1689.83C327.628 1688.95 324.805 1684.7 325.649 1680.31L328.7 1665.02C329.576 1660.64 333.809 1657.8 338.19 1658.65L490.004 1689.16C494.372 1690.04 497.195 1694.29 496.351 1698.68L493.3 1713.97C492.438 1718.4 488.177 1721.22 483.81 1720.34Z" stroke="#000000" stroke-width="3.4375" stroke-miterlimit="8" fill="#D6DBD9" fill-rule="evenodd"/><path d="M527.967 1729.34 512.915 1726.24C508.602 1725.35 505.813 1721.05 506.647 1716.59L509.66 1701.1C510.525 1696.66 514.706 1693.79 519.033 1694.65L534.085 1697.75C538.398 1698.64 541.187 1702.94 540.353 1707.4L537.339 1722.89C536.471 1727.33 532.28 1730.23 527.967 1729.34Z" stroke="#000000" stroke-width="3.4375" stroke-miterlimit="8" fill="#D6DBD9" fill-rule="evenodd"/><path d="M575.598 1738.34 560.104 1735.33C555.663 1734.47 552.793 1730.29 553.652 1725.96L556.753 1710.91C557.643 1706.6 561.947 1703.81 566.402 1704.65L581.896 1707.66C586.337 1708.52 589.207 1712.7 588.348 1717.03L585.247 1732.08C584.388 1736.4 580.039 1739.21 575.598 1738.34Z" stroke="#000000" stroke-width="3.4375" stroke-miterlimit="8" fill="#D6DBD9" fill-rule="evenodd"/><path d="M619.967 1747.35 604.915 1744.34C600.602 1743.48 597.813 1739.29 598.647 1734.97L601.66 1719.92C602.525 1715.6 606.706 1712.81 611.033 1713.65L626.085 1716.66C630.399 1717.53 633.187 1721.71 632.353 1726.03L629.34 1741.09C628.475 1745.4 624.294 1748.19 619.967 1747.35Z" stroke="#000000" stroke-width="3.4375" stroke-miterlimit="8" fill="#D6DBD9" fill-rule="evenodd"/><path d="M660.967 1756.34 645.915 1753.24C641.602 1752.35 638.813 1748.04 639.647 1743.59L642.66 1728.1C643.525 1723.66 647.706 1720.79 652.033 1721.65L667.085 1724.75C671.399 1725.64 674.187 1729.94 673.353 1734.4L670.339 1749.89C669.502 1754.34 665.28 1757.23 660.967 1756.34Z" stroke="#000000" stroke-width="3.4375" stroke-miterlimit="8" fill="#D6DBD9" fill-rule="evenodd"/><path d="M708.967 1763.34 693.915 1760.33C689.602 1759.47 686.813 1755.29 687.647 1750.96L690.66 1735.91C691.525 1731.6 695.706 1728.81 700.033 1729.65L715.085 1732.66C719.399 1733.52 722.187 1737.7 721.353 1742.03L718.34 1757.08C717.489 1761.43 713.28 1764.21 708.967 1763.34Z" stroke="#000000" stroke-width="3.4375" stroke-miterlimit="8" fill="#D6DBD9" fill-rule="evenodd"/><path d="M756.967 1773.34 741.915 1770.24C737.602 1769.35 734.813 1765.05 735.647 1760.59L738.661 1745.1C739.525 1740.66 743.706 1737.79 748.033 1738.65L763.085 1741.75C767.399 1742.64 770.187 1746.94 769.353 1751.4L766.34 1766.89C765.458 1771.36 761.281 1774.23 756.967 1773.34Z" stroke="#000000" stroke-width="3.4375" stroke-miterlimit="8" fill="#D6DBD9" fill-rule="evenodd"/><path d="M860.598 1655.35 845.104 1652.34C840.663 1651.47 837.793 1647.29 838.651 1642.97L841.753 1627.92C842.643 1623.6 846.947 1620.81 851.402 1621.65L866.896 1624.66C871.337 1625.52 874.207 1629.71 873.348 1634.03L870.247 1649.08C869.384 1653.41 865.053 1656.19 860.598 1655.35Z" stroke="#000000" stroke-width="3.4375" stroke-miterlimit="8" fill="#D6DBD9" fill-rule="evenodd"/><path d="M951.598 1673.34 936.104 1670.33C931.664 1669.47 928.793 1665.29 929.652 1660.96L932.753 1645.91C933.643 1641.6 937.947 1638.81 942.402 1639.65L957.896 1642.66C962.337 1643.52 965.207 1647.7 964.348 1652.03L961.247 1667.08C960.388 1671.4 956.039 1674.21 951.598 1673.34Z" stroke="#000000" stroke-width="3.4375" stroke-miterlimit="8" fill="#D6DBD9" fill-rule="evenodd"/><path d="M904.967 1664.34 889.915 1661.33C885.602 1660.47 882.813 1656.29 883.647 1651.96L886.66 1636.91C887.525 1632.6 891.706 1629.81 896.033 1630.65L911.085 1633.66C915.398 1634.52 918.187 1638.7 917.353 1643.03L914.34 1658.08C913.472 1662.39 909.28 1665.21 904.967 1664.34Z" stroke="#000000" stroke-width="3.4375" stroke-miterlimit="8" fill="#D6DBD9" fill-rule="evenodd"/><path d="M851.967 1699.34 836.915 1696.33C832.602 1695.47 829.813 1691.29 830.647 1686.96L833.66 1671.91C834.525 1667.6 838.706 1664.81 843.033 1665.65L858.085 1668.66C862.399 1669.52 865.187 1673.7 864.353 1678.03L861.34 1693.08C860.475 1697.39 856.284 1700.21 851.967 1699.34Z" stroke="#000000" stroke-width="3.4375" stroke-miterlimit="8" fill="#D6DBD9" fill-rule="evenodd"/><path d="M896.967 1706.34 881.915 1703.33C877.602 1702.47 874.813 1698.29 875.647 1693.96L878.661 1678.91C879.525 1674.6 883.706 1671.81 888.033 1672.65L903.085 1675.66C907.399 1676.52 910.187 1680.7 909.353 1685.03L906.34 1700.08C905.475 1704.39 901.281 1707.21 896.967 1706.34Z" stroke="#000000" stroke-width="3.4375" stroke-miterlimit="8" fill="#D6DBD9" fill-rule="evenodd"/><path d="M942.967 1716.34 927.915 1713.24C923.602 1712.35 920.813 1708.04 921.647 1703.59L924.661 1688.1C925.525 1683.66 929.706 1680.79 934.033 1681.65L949.085 1684.75C953.399 1685.64 956.187 1689.94 955.353 1694.4L952.34 1709.89C951.492 1714.37 947.284 1717.23 942.967 1716.34Z" stroke="#000000" stroke-width="3.4375" stroke-miterlimit="8" fill="#D6DBD9" fill-rule="evenodd"/><path d="M843.598 1742.34 828.104 1739.33C823.664 1738.47 820.793 1734.29 821.652 1729.96L824.753 1714.91C825.644 1710.6 829.947 1707.81 834.402 1708.65L849.896 1711.66C854.337 1712.52 857.207 1716.7 856.349 1721.03L853.247 1736.08C852.343 1740.42 848.039 1743.21 843.598 1742.34Z" stroke="#000000" stroke-width="3.4375" stroke-miterlimit="8" fill="#D6DBD9" fill-rule="evenodd"/><path d="M888.598 1747.34 873.104 1744.33C868.664 1743.47 865.793 1739.29 866.652 1734.96L869.754 1719.91C870.644 1715.6 874.948 1712.81 879.402 1713.65L894.897 1716.66C899.337 1717.52 902.207 1721.7 901.349 1726.03L898.247 1741.08C897.374 1745.43 893.039 1748.21 888.598 1747.34Z" stroke="#000000" stroke-width="3.4375" stroke-miterlimit="8" fill="#D6DBD9" fill-rule="evenodd"/><path d="M935.967 1758.34 920.915 1755.24C916.602 1754.35 913.813 1750.05 914.647 1745.59L917.66 1730.1C918.525 1725.66 922.706 1722.79 927.033 1723.65L942.085 1726.75C946.398 1727.64 949.187 1731.95 948.353 1736.4L945.339 1751.89C944.502 1756.34 940.28 1759.23 935.967 1758.34Z" stroke="#000000" stroke-width="3.4375" stroke-miterlimit="8" fill="#D6DBD9" fill-rule="evenodd"/><path d="M888.877 1794.34 819.962 1780.53C815.617 1779.66 812.809 1775.45 813.648 1771.1L816.683 1755.96C817.554 1751.61 821.765 1748.81 826.124 1749.65L895.039 1763.46C899.383 1764.33 902.192 1768.53 901.352 1772.89L898.317 1788.03C897.463 1792.42 893.225 1795.21 888.877 1794.34L888.877 1794.34Z" stroke="#000000" stroke-width="3.4375" stroke-miterlimit="8" fill="#D6DBD9" fill-rule="evenodd"/><path d="M927.598 1801.34 912.104 1798.33C907.663 1797.47 904.793 1793.29 905.652 1788.96L908.753 1773.91C909.643 1769.6 913.947 1766.81 918.402 1767.65L933.896 1770.66C938.337 1771.52 941.207 1775.7 940.348 1780.03L937.247 1795.08C936.388 1799.4 932.039 1802.21 927.598 1801.34Z" stroke="#000000" stroke-width="3.4375" stroke-miterlimit="8" fill="#D6DBD9" fill-rule="evenodd"/><path d="M312.563 1430.43C303.348 1428.08 286.618 1425.4 270.43 1433.15 259.381 1438.44 251.828 1448.84 237.172 1469.43 226.845 1483.94 219.024 1494.92 211.367 1511.72 204.604 1526.56 201.562 1538.98 195.478 1563.8 188.327 1593 184.783 1607.93 186.376 1624.48 187.448 1635.6 189.731 1659.34 204.985 1666.74 214.351 1671.29 224.671 1667.78 228.602 1666.44 269.932 1652.37 312.772 1495.79 319 1472.62 316.851 1458.55 314.708 1444.49 312.563 1430.43Z" fill="#5B5742" fill-rule="evenodd" fill-opacity="0.431373"/><path d="M446.64 1315.86C455.157 1319.93 469.022 1326.77 470.393 1338.08 471.316 1345.7 466.257 1352.72 456.269 1366.24 450.559 1373.96 446.251 1376.62 440.854 1384.61 418.713 1417.37 386.47 1470.07 362.865 1507.09 328.766 1569.28 316.378 1586.83 286.98 1636.03 285.413 1639.46 280.777 1649.76 270.06 1656.87 202.092 1696.38 230.802 1515.71 235.606 1497.07 244.113 1460.04 250.326 1458.31 273.325 1395.18 296.561 1331.39 293.448 1324.27 306.58 1314.69 333.984 1310.02 357.306 1308.01 374.864 1307.1 411.897 1305.18 429.771 1307.8 446.64 1315.86Z" stroke="#000000" stroke-width="20.625" stroke-miterlimit="8" fill="#EBE2B3" fill-rule="evenodd"/><path d="M720.775 1564.95C726.76 1578.44 767.408 1576.88 785.065 1574.17 799.546 1571.97 814.491 1566.56 820.263 1564.32 824.069 1562.88 832.071 1559.67 841.756 1554.58 857.837 1546.12 865.259 1539.74 883.227 1526.02 907.38 1507.58 923.986 1497.93 941.333 1476.9 945.067 1472.4 950.375 1465.48 948.673 1458.53 946.477 1449.68 934.116 1445.85 929.734 1444.37 886.827 1429.95 706.764 1533.47 720.775 1564.95L720.775 1564.95Z" fill="#5B5742" fill-rule="evenodd" fill-opacity="0.431373"/><path d="M992.035 1306.35C990.467 1302.88 986.173 1294.78 977.691 1291.73 965.136 1287.21 947.667 1295.31 938.487 1313.38 909.003 1370.14 888.739 1385.8 836.652 1435.56 754.813 1518.63 704.751 1540.61 778.164 1549.84 853.117 1557.59 976.718 1495.34 1010.69 1448.42 1011.91 1435.07 1012 1419.06 1009.18 1401.3 1008.28 1395.59 1007.16 1390.22 1005.9 1385.17 1004.72 1373.6 1003.1 1361.34 1000.92 1348.52 998.358 1333.44 995.315 1319.36 992.035 1306.35Z" stroke="#000000" stroke-width="20.625" stroke-miterlimit="8" fill="#EBE2B3" fill-rule="evenodd"/></g></svg>