<svg width="1030" height="1259" xmlns="http://www.w3.org/2000/svg" xmlns:xlink="http://www.w3.org/1999/xlink" xml:space="preserve" overflow="hidden"><defs><clipPath id="clip0"><rect x="94" y="891" width="1030" height="1259"/></clipPath></defs><g clip-path="url(#clip0)" transform="translate(-94 -891)"><path d="M1025.85 1796.86 130.613 1617.53C113.011 1614 101.62 1596.88 105.138 1579.32L153.96 1335.61C157.491 1318.01 174.611 1306.62 192.178 1310.14L1087.39 1489.46C1104.99 1492.99 1116.38 1510.11 1112.86 1527.67L1064.04 1771.38C1060.55 1788.96 1043.42 1800.38 1025.85 1796.86L1025.85 1796.86Z" stroke="#000000" stroke-width="20.625" stroke-miterlimit="8" fill="#A6A897" fill-rule="evenodd"/><path d="M441.5 1917.5C442.332 1932.72 444.892 1941.38 447.157 1946.54 451.719 1956.92 452.714 1959.67 454.696 1965.17 455.197 1966.55 455.584 1967.67 455.86 1968.46 458.761 1976.8 458.865 1978.42 464.667 1998.25 473.992 2030.09 474.752 2029.4 476.997 2040.31 480.105 2055.31 478.516 2055.68 482.281 2077.09 485.769 2096.89 487.634 2106.91 492.849 2113.87 494.196 2115.66 507.527 2132.92 526.349 2131.41 538.714 2130.41 546.933 2121.8 552.804 2115.62 556.361 2111.92 559.124 2108.11 572.214 2080.59 579.777 2064.71 583.611 2056.57 586.339 2049.06 587.79 2045.08 588.757 2041.89 589.482 2039.11 592.542 2027.39 594.825 2018.92 595.146 2017.53 597.032 2009.34 604.043 1993.68 625.5 1961.3 595.526 1953.55 564.954 1945.94 533.795 1938.53 502.581 1931.09 471.806 1924.09 441.5 1917.5Z" stroke="#000000" stroke-width="20.625" stroke-miterlimit="8" fill="#EBE2B3" fill-rule="evenodd"/><path d="M798.5 1978.57C806.102 1995.88 813.703 2015.55 820.617 2037.46 827.427 2059.09 832.449 2079.35 836.164 2097.79 855.219 2144.67 905.403 2133.13 911.423 2083.78 918.405 2062.08 925.146 2038.94 931.372 2014.42 936.979 1992.34 941.726 1971.05 945.716 1950.72 946.283 1946.09 946.6 1940.97 946.472 1935.43 946.087 1918.77 941.815 1905.09 937.742 1895.5 891.328 1923.19 844.914 1950.88 798.5 1978.57Z" stroke="#000000" stroke-width="20.625" stroke-miterlimit="8" fill="#EBE2B3" fill-rule="evenodd"/><path d="M236.769 1529.54C234.363 1519.88 231.58 1505.28 231.511 1487.41 231.442 1468.4 234.535 1463.18 235.016 1447.06 235.979 1415.13 224.534 1413.31 224.5 1385.64 224.5 1352.79 240.515 1327.01 245.567 1318.97 257.046 1300.58 261.616 1303.19 275.398 1282.12 288.216 1262.53 294.128 1245.21 299.97 1227.72 310.109 1197.37 307.703 1191.29 315.779 1162.8 321.484 1142.66 328.735 1116.98 345.61 1090.83 356.607 1073.78 375.165 1057.25 412.282 1024.16 436.133 1002.88 453.316 989.169 466.685 978.515 507.444 946.071 520.848 939.129 526.346 936.379 545.626 926.825 562.981 918.199 586.008 918.817 597.589 919.126 615.838 920.261 635.462 920.089 638.246 920.054 644.535 920.089 652.714 919.573 656.22 919.333 662.096 918.886 669.176 917.924 681.204 916.308 690.243 914.177 693.027 913.525 733.167 904.245 753.444 898.643 772.002 903.008 794.307 908.232 809.291 921.154 822.9 932.839 831.526 940.263 843.383 955.454 866.787 985.492 892.803 1018.93 898.817 1027.9 914.179 1039.9 929.541 1051.89 931.466 1049.07 942.257 1059.21 956.622 1072.68 962.018 1085.92 975.593 1117.12 1001.54 1176.79 999.409 1168.98 1001.92 1176.79 1004.46 1184.79 1005.9 1192.66 1009.17 1208.34 1013.29 1228.17 1014.5 1237.72 1019.48 1266.31 1023.36 1288.52 1025.18 1299.65 1026.49 1304.91 1035.29 1340.55 1048.52 1364.75 1052.82 1373.34 1072.92 1413.48 1070.89 1460.94 1066.87 1555.87 1064.43 1613.43 1063.09 1644.71 1049.31 1685.75 1042.2 1706.92 1038.93 1709.36 1021.23 1757.71 1006.25 1798.61 1003.77 1810.02 991.402 1838.44 977.655 1870.06 970.782 1885.87 956.313 1903.36 950.196 1910.79 935.933 1926.74 898.404 1949.01 867.199 1967.53 832.076 1988.36 780.835 1998.15 706.946 2012.28 645.222 1994.75 621.131 1987.64 606.112 1983.2 601.026 1980.52 571.986 1971.83 558.019 1967.65 546.905 1964.59 537.471 1962.14 500.135 1952.47 497.371 1953.2 478.988 1947.25 467.596 1943.57 459.942 1940.4 446.144 1934.65 419.698 1923.62 396.597 1914 378.946 1903.36 335.279 1877.07 312.71 1837.36 303.476 1820.88 296.602 1808.61 287.186 1780.53 268.387 1724.34 255.98 1687.26 249.691 1668.46 247.32 1655.91 242.714 1631.62 241.305 1608.45 238.556 1562.91 237.663 1548.79 237.113 1537.21 236.769 1529.54Z" stroke="#000000" stroke-width="20.625" stroke-miterlimit="8" fill="#EBE2B3" fill-rule="evenodd"/><path d="M481.141 1056.08 494.288 1031.26 612.187 1093.71 599.041 1118.53Z" stroke="#000000" stroke-width="10.3136" stroke-miterlimit="8" fill="#595850" fill-rule="evenodd"/><path d="M734.803 1088.21 855.025 1030.35 867.205 1055.66 746.983 1113.52Z" stroke="#000000" stroke-width="10.3136" stroke-miterlimit="8" fill="#595850" fill-rule="evenodd"/><path d="M937 2140.5C937 2145.75 832.235 2150 703 2150 573.765 2150 469 2145.75 469 2140.5 469 2135.25 573.765 2131 703 2131 832.235 2131 937 2135.25 937 2140.5Z" fill="#5B5742" fill-rule="evenodd" fill-opacity="0.470588"/><path d="M580.5 1179.5C580.5 1202.7 561.92 1221.5 539 1221.5 516.08 1221.5 497.5 1202.7 497.5 1179.5 497.5 1156.3 516.08 1137.5 539 1137.5 561.92 1137.5 580.5 1156.3 580.5 1179.5Z" stroke="#000000" stroke-width="20.625" stroke-miterlimit="8" fill="#231815" fill-rule="evenodd"/><path d="M854.5 1179.5C854.5 1202.7 835.92 1221.5 813 1221.5 790.08 1221.5 771.5 1202.7 771.5 1179.5 771.5 1156.3 790.08 1137.5 813 1137.5 835.92 1137.5 854.5 1156.3 854.5 1179.5Z" stroke="#000000" stroke-width="20.625" stroke-miterlimit="8" fill="#231815" fill-rule="evenodd"/><path d="M563 1193C563 1204.05 554.046 1213 543 1213 531.954 1213 523 1204.05 523 1193 523 1181.95 531.954 1173 543 1173 554.046 1173 563 1181.95 563 1193Z" fill="#FFFFFF" fill-rule="evenodd"/><path d="M833 1193C833 1204.05 824.046 1213 813 1213 801.954 1213 793 1204.05 793 1193 793 1181.95 801.954 1173 813 1173 824.046 1173 833 1181.95 833 1193Z" fill="#FFFFFF" fill-rule="evenodd"/><path d="M759 1307.5C759 1319.37 725.198 1329 683.5 1329 641.803 1329 608 1319.37 608 1307.5 608 1295.63 641.803 1286 683.5 1286 725.198 1286 759 1295.63 759 1307.5Z" stroke="#000000" stroke-width="10.3125" stroke-miterlimit="8" fill="#E73A8F" fill-rule="evenodd"/><path d="M368.787 1321.17C371.911 1312.13 376.001 1295.59 369.678 1278.7 365.365 1267.17 355.675 1258.7 336.477 1242.24 322.95 1230.64 312.705 1221.86 296.671 1212.74 282.51 1204.68 270.441 1200.57 246.295 1192.34 217.908 1182.66 203.38 1177.83 186.805 1178 175.665 1178.12 151.892 1178.37 143.234 1193.03 137.92 1202.03 140.525 1212.68 141.52 1216.73 151.964 1259.38 303.841 1315.77 326.331 1324 340.482 1323.06 354.633 1322.11 368.787 1321.17Z" fill="#5B5742" fill-rule="evenodd" fill-opacity="0.431373"/><path d="M457.529 1461.36C455.572 1462.79 442.911 1471.78 428.54 1468.95 418.82 1467.04 412.666 1460.58 409.378 1457.21 394.835 1442.32 376.853 1431.1 362.039 1416.48 356.123 1410.64 357.997 1412.89 283.55 1354.72 258.476 1335.13 245.89 1325.39 236.751 1317.97 213.08 1298.76 196.491 1284.17 167.694 1260.41 164.544 1258.35 155.075 1252.22 149.685 1240.59 120.991 1167.68 295.159 1223.43 312.849 1231 340.067 1241.8 346.75 1248.06 375.391 1265.15 389.359 1273.49 399.95 1279.41 407.786 1283.62 449.456 1306.06 464.811 1308.36 473.84 1325.35 478.064 1333.3 479.312 1341.47 479.381 1348.49 481.235 1368.57 480.471 1385.2 479.35 1396.96 476.533 1426.37 474.431 1448.97 457.529 1461.36Z" stroke="#000000" stroke-width="20.625" stroke-miterlimit="8" fill="#EBE2B3" fill-rule="evenodd"/><path d="M820.958 1552.56C831.354 1563.04 868.9 1547.05 884.489 1538.21 897.281 1530.98 909.371 1520.58 913.989 1516.42 917.048 1513.72 923.408 1507.85 930.68 1499.63 942.748 1485.97 947.446 1477.35 959.422 1458.1 975.517 1432.22 987.662 1417.26 996.461 1391.4 998.365 1385.85 1000.89 1377.48 996.823 1371.6 991.623 1364.1 978.68 1364.94 974.048 1365.12 928.718 1366.96 796.659 1528.13 820.958 1552.56L820.958 1552.56Z" fill="#5B5742" fill-rule="evenodd" fill-opacity="0.431373"/><path d="M1000.59 1193.5C994.933 1193.55 986.585 1194.43 978.203 1198.93 963.008 1207.09 957.299 1222.01 947.748 1244.45 940.317 1261.9 931.283 1278.67 924.498 1296.38 915.464 1319.96 904.274 1343.21 883.418 1390.39 850.593 1464.64 821.669 1505.78 831.42 1518.05 834.583 1522.03 842.956 1525.72 869.268 1517.94 945.867 1495.29 1001.94 1425.45 1031.34 1381.98 1033.97 1367.28 1035.91 1347.11 1033.18 1323.5 1031.35 1307.67 1027.84 1294.07 1024.19 1283.13 1022.28 1273.99 1020.19 1264.67 1017.9 1255.19 1012.63 1233.45 1006.78 1212.87 1000.59 1193.5Z" stroke="#000000" stroke-width="20.625" stroke-miterlimit="8" fill="#EBE2B3" fill-rule="evenodd"/></g></svg>