<svg width="1082" height="1551" xmlns="http://www.w3.org/2000/svg" xmlns:xlink="http://www.w3.org/1999/xlink" xml:space="preserve" overflow="hidden"><defs><clipPath id="clip0"><rect x="2953" y="472" width="1082" height="1551"/></clipPath></defs><g clip-path="url(#clip0)" transform="translate(-2953 -472)"><path d="M3936.98 1670.89 3042.53 1491.44C3025.01 1488 3013.68 1470.81 3017.11 1453.28L3065.89 1209.55C3069.32 1192.02 3086.5 1180.68 3104.02 1184.11L3998.47 1363.56C4015.99 1367 4027.32 1384.19 4023.89 1401.72L3975.11 1645.45C3971.68 1662.98 3954.5 1674.32 3936.98 1670.89L3936.98 1670.89Z" stroke="#000000" stroke-width="20.625" stroke-miterlimit="8" fill="#A6A897" fill-rule="evenodd"/><path d="M3353.5 1790.5C3354.19 1805.65 3356.93 1814.61 3358.99 1819.78 3363.46 1830.11 3364.49 1832.86 3366.55 1838.38 3366.89 1839.75 3367.58 1840.79 3367.58 1841.82 3370.32 1850.09 3370.67 1851.81 3376.5 1871.78 3385.77 1903.82 3386.46 1903.13 3388.86 1914.15 3391.95 1929.3 3390.24 1929.65 3394.01 1951 3397.45 1970.98 3399.51 1980.97 3404.66 1987.86 3406.03 1989.58 3419.08 2006.8 3437.96 2005.42 3450.32 2004.39 3458.56 1995.78 3464.4 1989.58 3467.83 1985.79 3470.58 1982 3483.63 1954.45 3491.18 1938.6 3494.96 1930.34 3497.7 1922.76 3499.08 1918.63 3500.11 1915.53 3500.79 1912.77 3503.88 1901.06 3505.94 1892.45 3506.29 1891.07 3508 1882.81 3515.21 1866.96 3536.5 1834.59 3506.63 1826.67 3476.42 1819.09 3445.17 1811.85 3414.27 1804.28 3383.71 1797.04 3353.5 1790.5Z" stroke="#000000" stroke-width="20.625" stroke-miterlimit="8" fill="#EBE2B3" fill-rule="evenodd"/><path d="M3710.5 1851.24C3718.07 1868.41 3725.63 1888.32 3732.51 1910.3 3739.39 1931.93 3744.2 1952.18 3747.98 1970.72 3766.9 2017.76 3817.1 2006.08 3823.29 1956.65 3830.17 1935.02 3837.05 1911.67 3843.24 1887.29 3848.74 1865.32 3853.55 1844.03 3857.68 1823.78 3858.37 1819.31 3858.71 1814.16 3858.37 1808.33 3858.02 1791.85 3853.55 1778.11 3849.77 1768.5 3803.35 1795.97 3756.92 1823.78 3710.5 1851.24Z" stroke="#000000" stroke-width="20.625" stroke-miterlimit="8" fill="#EBE2B3" fill-rule="evenodd"/><path d="M3148.86 1402.41C3146.46 1392.78 3143.71 1378 3143.71 1360.13 3143.71 1341.23 3146.8 1336.08 3147.14 1319.92 3148.17 1287.96 3136.84 1286.24 3136.5 1258.41 3136.5 1225.41 3152.64 1199.64 3157.45 1191.73 3168.78 1173.18 3173.58 1175.93 3187.32 1154.96 3200.02 1135.37 3205.86 1118.19 3212.04 1100.66 3222 1070.42 3219.6 1064.23 3227.84 1035.71 3233.67 1015.43 3240.89 989.998 3257.71 963.879 3268.7 946.695 3287.24 930.199 3324.33 897.206 3348.02 875.898 3365.19 862.152 3378.58 851.498 3419.44 819.192 3432.83 811.975 3438.33 809.226 3457.55 799.603 3475.07 791.011 3498.07 791.698 3509.75 792.042 3527.95 793.073 3547.52 793.073 3550.27 793.073 3556.45 793.073 3564.69 792.73 3568.12 792.386 3573.96 792.042 3581.17 791.011 3593.19 789.293 3602.11 787.231 3604.86 786.543 3645.04 777.264 3665.3 771.765 3683.84 775.889 3706.16 781.045 3721.27 794.104 3734.66 805.789 3743.24 813.35 3755.26 828.472 3778.61 858.371 3804.71 891.708 3810.54 900.643 3826 912.671 3841.45 924.7 3843.16 921.951 3854.15 931.917 3868.57 945.32 3874.07 958.724 3887.46 989.998 3913.21 1049.8 3911.15 1041.89 3913.9 1049.8 3916.3 1057.7 3918.02 1065.61 3921.11 1081.42 3925.23 1101.35 3926.26 1110.63 3931.41 1139.5 3935.19 1161.83 3937.25 1172.83 3938.28 1177.99 3947.21 1213.73 3960.25 1237.79 3964.72 1246.38 3984.98 1286.59 3982.92 1334.01 3978.8 1428.87 3976.39 1486.61 3975.02 1517.54 3961.28 1558.78 3954.07 1580.08 3950.98 1582.49 3933.13 1630.6 3918.02 1671.5 3915.62 1682.84 3903.25 1711.37 3889.52 1742.99 3882.65 1758.79 3868.23 1776.32 3862.05 1783.88 3847.97 1799.69 3810.2 1822.03 3778.95 1840.59 3743.93 1861.55 3692.77 1871.18 3618.94 1885.27 3557.13 1867.74 3533.1 1860.52 3517.99 1856.05 3512.84 1853.31 3483.99 1844.71 3469.92 1840.59 3458.93 1837.5 3449.66 1835.09 3412.23 1825.47 3409.48 1826.15 3391.28 1820.31 3379.95 1816.53 3372.4 1813.44 3358.32 1807.6 3331.88 1796.6 3308.87 1786.98 3291.02 1776.32 3247.41 1749.86 3224.75 1710.34 3215.48 1693.84 3208.61 1681.47 3199.34 1653.63 3180.45 1597.27 3168.09 1560.15 3161.91 1541.25 3159.51 1528.88 3155.04 1504.48 3153.32 1481.45 3150.92 1435.74 3149.89 1421.65 3149.2 1409.97 3148.86 1402.41Z" stroke="#000000" stroke-width="20.625" stroke-miterlimit="8" fill="#EBE2B3" fill-rule="evenodd"/><path d="M3393.14 929.353 3406.34 904.443 3524.2 966.876 3511.01 991.785Z" stroke="#000000" stroke-width="10.3139" stroke-miterlimit="8" fill="#595850" fill-rule="evenodd"/><path d="M3646.51 961.505 3766.7 903.661 3778.92 929.06 3658.74 986.905Z" stroke="#000000" stroke-width="10.3139" stroke-miterlimit="8" fill="#595850" fill-rule="evenodd"/><path d="M3848 2014C3848 2018.97 3743.46 2023 3614.5 2023 3485.54 2023 3381 2018.97 3381 2014 3381 2009.03 3485.54 2005 3614.5 2005 3743.46 2005 3848 2009.03 3848 2014Z" fill="#5B5742" fill-rule="evenodd" fill-opacity="0.470588"/><path d="M3492.5 1053C3492.5 1075.92 3473.92 1094.5 3451 1094.5 3428.08 1094.5 3409.5 1075.92 3409.5 1053 3409.5 1030.08 3428.08 1011.5 3451 1011.5 3473.92 1011.5 3492.5 1030.08 3492.5 1053Z" stroke="#000000" stroke-width="20.625" stroke-miterlimit="8" fill="#231815" fill-rule="evenodd"/><path d="M3766.5 1053C3766.5 1075.92 3747.92 1094.5 3725 1094.5 3702.08 1094.5 3683.5 1075.92 3683.5 1053 3683.5 1030.08 3702.08 1011.5 3725 1011.5 3747.92 1011.5 3766.5 1030.08 3766.5 1053Z" stroke="#000000" stroke-width="20.625" stroke-miterlimit="8" fill="#231815" fill-rule="evenodd"/><path d="M3475 1066C3475 1077.05 3466.05 1086 3455 1086 3443.95 1086 3435 1077.05 3435 1066 3435 1054.95 3443.95 1046 3455 1046 3466.05 1046 3475 1054.95 3475 1066Z" fill="#FFFFFF" fill-rule="evenodd"/><path d="M3744 1066C3744 1077.05 3735.05 1086 3724 1086 3712.95 1086 3704 1077.05 3704 1066 3704 1054.95 3712.95 1046 3724 1046 3735.05 1046 3744 1054.95 3744 1066Z" fill="#FFFFFF" fill-rule="evenodd"/><path d="M3671 1181C3671 1193.15 3637.2 1203 3595.5 1203 3553.8 1203 3520 1193.15 3520 1181 3520 1168.85 3553.8 1159 3595.5 1159 3637.2 1159 3671 1168.85 3671 1181Z" stroke="#000000" stroke-width="10.3125" stroke-miterlimit="8" fill="#E73A8F" fill-rule="evenodd"/><path d="M3283.33 1172.94C3286.78 1163.99 3290.92 1147.47 3285.06 1130.6 3280.92 1118.9 3271.26 1110.29 3252.3 1093.77 3238.85 1082.07 3228.85 1073.12 3212.64 1063.83 3198.5 1055.57 3186.43 1051.09 3162.29 1042.49 3134.01 1032.51 3119.53 1027.35 3102.63 1027 3091.6 1027 3067.46 1026.66 3058.49 1041.11 3052.98 1050.06 3055.39 1060.73 3056.42 1064.86 3066.08 1107.54 3217.81 1166.4 3240.23 1175 3254.71 1174.31 3269.2 1173.62 3283.33 1172.94Z" fill="#5B5742" fill-rule="evenodd" fill-opacity="0.431373"/><path d="M3368.8 1315.63C3366.74 1317.01 3354.03 1325.95 3339.6 1322.85 3329.98 1320.79 3323.8 1314.26 3320.71 1310.82 3306.62 1295.68 3288.76 1283.99 3274.33 1269.2 3268.49 1263.36 3270.2 1265.42 3197.03 1205.92 3172.29 1185.98 3159.93 1176 3150.99 1168.09 3127.63 1148.49 3111.49 1133.36 3082.97 1109.29 3079.88 1107.22 3070.6 1100.69 3065.45 1089 3037.97 1015.4 3211.11 1074.55 3228.64 1082.46 3255.78 1093.81 3262.3 1100.34 3290.47 1117.88 3304.22 1126.48 3314.87 1132.67 3322.42 1137.14 3363.65 1160.53 3378.77 1162.94 3387.7 1180.13 3391.82 1188.04 3392.85 1196.3 3392.85 1203.52 3394.23 1223.81 3393.19 1240.32 3391.82 1252.01 3388.73 1280.9 3385.98 1303.59 3368.8 1315.63Z" stroke="#000000" stroke-width="20.625" stroke-miterlimit="8" fill="#EBE2B3" fill-rule="evenodd"/><path d="M3732.91 1425.63C3743.21 1435.94 3780.65 1420.13 3796.44 1411.2 3809.15 1403.98 3821.17 1393.67 3825.98 1389.55 3829.07 1386.8 3835.25 1380.96 3842.46 1372.71 3854.48 1358.97 3859.29 1350.38 3871.31 1331.48 3887.45 1305.71 3899.47 1290.93 3908.4 1265.16 3910.46 1259.66 3912.87 1251.42 3908.75 1245.58 3903.6 1238.02 3890.54 1239.05 3886.08 1239.05 3840.4 1241.11 3708.87 1401.58 3732.91 1425.63L3732.91 1425.63Z" fill="#5B5742" fill-rule="evenodd" fill-opacity="0.431373"/><path d="M3912.35 1067.5C3906.83 1067.5 3898.21 1068.53 3889.93 1072.99 3874.76 1081.22 3868.9 1095.98 3859.59 1118.28 3852 1135.78 3843.04 1152.24 3836.49 1170.08 3827.52 1193.76 3816.14 1216.74 3795.45 1263.75 3762.69 1337.86 3733.73 1378.68 3743.38 1391.03 3746.49 1395.15 3754.76 1398.58 3781.31 1391.03 3857.86 1368.39 3914.07 1298.74 3943.38 1255.51 3946.14 1240.76 3947.86 1220.86 3945.1 1197.19 3943.38 1181.41 3939.93 1167.68 3936.14 1157.05 3934.07 1147.78 3932 1138.52 3929.93 1129.26 3924.41 1107.3 3918.55 1086.71 3912.35 1067.5Z" stroke="#000000" stroke-width="20.625" stroke-miterlimit="8" fill="#EBE2B3" fill-rule="evenodd"/><path d="M3102.88 678.46 3888 472 3888 955 3096 801.787Z" fill="#88CFDC" fill-rule="evenodd" fill-opacity="0.360784"/><path d="M3029.85 638 3070.86 688.884 3136 684.414 3100.16 738.736 3124.63 799.246 3061.56 782.055 3011.24 824 3008.49 758.677 2953 724.296 3014.34 701.261Z" fill="#72C9E1" fill-rule="evenodd" fill-opacity="0.639216"/><path d="M3052.89 767.24 3062.63 765.118 3127.69 1063.71 3117.95 1065.84Z" stroke="#000000" stroke-width="3.4375" stroke-miterlimit="8" fill="#5B612B" fill-rule="evenodd"/><path d="M3033.99 656.5 3066.29 696.779 3117.5 693.336 3088.98 736.369 3108.56 783.877 3058.73 770.451 3019.21 803.5 3017.15 751.861 2973.5 724.664 3021.61 706.418Z" stroke="#000000" stroke-width="3.4375" stroke-miterlimit="8" fill="#F6AF1E" fill-rule="evenodd"/><path d="M3232.97 705.065 3218.28 701.597 3207.69 712 3205.98 697.089 3193 689.807 3206.67 683.911 3209.4 669 3219.31 680.097 3234 678.363 3226.48 691.194Z" fill="#634F9E" fill-rule="evenodd"/><path d="M3529.59 688.902 3502.11 682.698 3481.49 702 3478.74 674.081 3454 660.294 3479.77 648.919 3485.27 621 3503.82 642.026 3532 638.579 3517.57 663.051Z" fill="#634F9E" fill-rule="evenodd"/><path d="M3372.95 764.776 3357.9 761.68 3347.05 772 3345.3 756.864 3332 749.64 3346 743.792 3348.8 729 3358.95 740.352 3374 738.632 3366.3 751.36Z" fill="#634F9E" fill-rule="evenodd"/><path d="M3605.63 764.776 3591.28 761.68 3580.35 772 3578.98 756.864 3566 749.64 3579.67 743.792 3582.4 729 3592.31 740.352 3607 738.632 3599.48 751.36Z" fill="#634F9E" fill-rule="evenodd"/><path d="M3836.93 887.338 3812.44 882.193 3794.15 899 3791.74 874.305 3770 862.3 3792.77 852.353 3797.6 828 3814.16 846.522 3839 843.435 3826.24 865.044Z" fill="#634F9E" fill-rule="evenodd"/><path d="M3809.26 638.511 3777.1 631.283 3753.16 654.001 3749.74 620.957 3721 604.779 3751.11 591.7 3757.6 559 3779.5 583.783 3812 579.996 3795.24 608.565Z" fill="#634F9E" fill-rule="evenodd"/><path d="M3701.63 716.065 3687.28 712.944 3676.35 723 3674.98 708.089 3662 700.807 3675.67 694.911 3678.4 680 3688.31 691.443 3703 689.363 3695.48 702.541Z" fill="#634F9E" fill-rule="evenodd"/></g></svg>