<?xml version="1.0" encoding="iso-8859-1"?>
<!-- Generator: Adobe Illustrator 27.0.0, SVG Export Plug-In . SVG Version: 6.00 Build 0)  -->
<svg version="1.1" id="a" xmlns="http://www.w3.org/2000/svg" xmlns:xlink="http://www.w3.org/1999/xlink" x="0px" y="0px"
	 viewBox="0 0 595.2 841.92" style="enable-background:new 0 0 595.2 841.92;" xml:space="preserve">
<path style="fill:#EBE2B3;stroke:#000000;stroke-width:6;stroke-miterlimit:10;" d="M117.149,665.124
	c-1.089,5.726-0.663,8.599,0.021,10.166c1.324,3.03,1.611,3.83,2.183,5.429c0.145,0.404,0.257,0.728,0.337,0.961
	c0.84,2.43,0.87,2.9,2.55,8.68c2.7,9.28,2.92,9.08,3.57,12.26c0.9,4.37,0.44,4.48,1.53,10.72c1.01,5.77,1.55,8.69,3.06,10.72
	c0.39,0.52,4.25,5.55,9.7,5.11c3.58-0.29,5.96-2.8,7.66-4.6c1.03-1.08,1.83-2.19,5.62-10.21c2.19-4.63,3.3-7,4.09-9.19
	c0.42-1.16,0.7-2.09,0.91-2.9c0.873-3.366,1.529-5.803,1.64-6.29c0.537-2.346,2.077-6.516,6.406-14.515
	c-8.285-2.662-16.626-5.385-25.021-8.17C133.243,670.587,125.158,667.863,117.149,665.124z"/>
<path style="fill:#EBE2B3;stroke:#000000;stroke-width:6;stroke-miterlimit:10;" d="M219.39,684.55c2.21,5.04,4.42,10.77,6.43,17.15
	c1.98,6.3,3.44,12.2,4.52,17.57c5.54,13.65,20.13,10.29,21.88-4.08c2.03-6.32,3.99-13.06,5.8-20.2c1.63-6.43,3.01-12.63,4.17-18.55
	c0.156-1.37,0.244-2.86,0.22-4.454c-0.082-5.467-1.444-10-2.793-13.245C246.208,667.344,232.799,675.947,219.39,684.55z"/>
<path style="fill:#EBE2B3;stroke:#000000;stroke-width:6;stroke-miterlimit:10;" d="M55.8,553.89c-0.7-2.81-1.51-7.06-1.53-12.26
	c-0.02-5.53,0.88-7.05,1.02-11.74c0.28-9.29-3.05-9.82-3.06-17.87c0-9.56,4.66-17.06,6.13-19.4c3.34-5.35,4.67-4.59,8.68-10.72
	c3.73-5.7,5.45-10.74,7.15-15.83c2.95-8.83,2.25-10.6,4.6-18.89c1.66-5.86,3.77-13.33,8.68-20.94c3.2-4.96,8.6-9.77,19.4-19.4
	c6.94-6.19,11.94-10.18,15.83-13.28c11.86-9.44,15.76-11.46,17.36-12.26c5.61-2.78,10.66-5.29,17.36-5.11
	c3.37,0.09,8.68,0.42,14.39,0.37c0.81-0.01,2.64,0,5.02-0.15c1.02-0.07,2.73-0.2,4.79-0.48c3.5-0.47,6.13-1.09,6.94-1.28
	c11.68-2.7,17.58-4.33,22.98-3.06c6.49,1.52,10.85,5.28,14.81,8.68c2.51,2.16,5.96,6.58,12.77,15.32
	c7.57,9.73,9.32,12.34,13.79,15.83c4.47,3.49,5.03,2.67,8.17,5.62c4.18,3.92,5.75,7.77,9.7,16.85c7.55,17.36,6.93,15.09,7.66,17.36
	c0.74,2.33,1.16,4.62,2.11,9.18c1.2,5.77,1.55,8.55,3,16.87c1.13,6.46,1.66,9.7,2.04,11.23c2.56,10.37,6.41,17.41,7.66,19.91
	c5.85,11.68,5.26,25.49,4.09,53.11c-0.71,16.75-1.1,25.85-5.11,37.79c-2.07,6.16-3.02,6.87-8.17,20.94
	c-4.36,11.9-5.08,15.22-8.68,23.49c-4,9.2-6,13.8-10.21,18.89c-1.78,2.16-5.93,6.8-16.85,13.28c-9.08,5.39-19.3,11.45-34.21,14.3
	c-21.5,4.11-39.46-0.99-46.47-3.06c-4.37-1.29-5.85-2.07-14.3-4.6c-14.37-4.3-18.37-4.53-27.06-7.15c-5.2-1.57-7.81-2.3-11.06-3.55
	c-3.27-1.26-10.68-4.17-18.05-9.22c-12.53-8.57-19.42-19.48-21.96-24c-2-3.57-4.74-11.74-10.21-28.09
	c-3.61-10.79-5.44-16.26-6.13-19.91c-1.34-7.07-1.75-13.81-2.55-27.06C56.06,559.49,55.9,556.12,55.8,553.89z"/>
<rect x="142.06" y="402.472" transform="matrix(0.4681 -0.8837 0.8837 0.4681 -295.0687 353.5459)" style="fill:#595850;stroke:#000000;stroke-width:3.0001;stroke-miterlimit:10.0002;" width="8.17" height="38.811"/>
<rect x="200.719" y="416.912" transform="matrix(0.9011 -0.4337 0.4337 0.9011 -160.8014 137.1155)" style="fill:#595850;stroke:#000000;stroke-width:3.0001;stroke-miterlimit:10.0004;" width="38.811" height="8.17"/>
<ellipse style="opacity:0.47;fill:#5B5742;enable-background:new    ;" cx="191.57" cy="731.87" rx="68.04" ry="2.68"/>
<path style="fill:#A6A897;stroke:#000000;stroke-width:6;stroke-miterlimit:10;" d="M326.42,594.43l-260.9,49.41
	c-5.13,0.97-10.07-2.4-11.04-7.52l-13.46-71.04c-0.97-5.13,2.4-10.07,7.52-11.04l260.89-49.41c5.13-0.97,10.07,2.4,11.04,7.52
	l13.46,71.04C334.91,588.51,331.54,593.46,326.42,594.43L326.42,594.43z"/>
<circle style="fill:#231815;stroke:#000000;stroke-width:6;stroke-miterlimit:10;" cx="143.78" cy="452.16" r="12.13"/>
<circle style="fill:#231815;stroke:#000000;stroke-width:6;stroke-miterlimit:10;" cx="223.53" cy="452.16" r="12.13"/>
<circle style="fill:#FFFFFF;" cx="145.11" cy="456.12" r="5.83"/>
<circle style="fill:#FFFFFF;" cx="223.53" cy="456.12" r="5.83"/>
<ellipse style="fill:#E73A8F;stroke:#000000;stroke-width:3;stroke-miterlimit:10;" cx="185.96" cy="489.55" rx="21.89" ry="6.38"/>
<g>
	<path style="fill:#D6DBD9;stroke:#000000;stroke-miterlimit:10;" d="M122.17,562.78l-8.36,1.58c-1.27,0.24-2.49-0.59-2.74-1.86
		l-0.84-4.43c-0.24-1.27,0.59-2.49,1.86-2.74l8.36-1.58c1.27-0.24,2.49,0.59,2.74,1.86l0.84,4.43
		C124.27,561.32,123.44,562.54,122.17,562.78z"/>
	<path style="fill:#D6DBD9;stroke:#000000;stroke-miterlimit:10;" d="M161.88,555.26l-8.36,1.58c-1.27,0.24-2.49-0.59-2.74-1.86
		l-0.84-4.43c-0.24-1.27,0.59-2.49,1.86-2.74l8.36-1.58c1.27-0.24,2.49,0.59,2.74,1.86l0.84,4.43
		C163.98,553.79,163.15,555.02,161.88,555.26z"/>
	<path style="fill:#D6DBD9;stroke:#000000;stroke-miterlimit:10;" d="M68.5,572.95l-8.36,1.58c-1.27,0.24-2.49-0.59-2.74-1.86
		l-0.84-4.43c-0.24-1.27,0.59-2.49,1.86-2.74l8.36-1.58c1.27-0.24,2.49,0.59,2.74,1.86l0.84,4.43
		C70.61,571.48,69.77,572.71,68.5,572.95z"/>
	<path style="fill:#D6DBD9;stroke:#000000;stroke-miterlimit:10;" d="M86.2,569.59l-8.36,1.58c-1.27,0.24-2.49-0.59-2.74-1.86
		l-0.84-4.43c-0.24-1.27,0.59-2.49,1.86-2.74l8.36-1.58c1.27-0.24,2.49,0.59,2.74,1.86l0.84,4.43
		C88.31,568.13,87.47,569.35,86.2,569.59z"/>
	<path style="fill:#D6DBD9;stroke:#000000;stroke-miterlimit:10;" d="M231.38,542.1l-8.36,1.58c-1.27,0.24-2.49-0.59-2.74-1.86
		l-0.84-4.43c-0.24-1.27,0.59-2.49,1.86-2.74l8.36-1.58c1.27-0.24,2.49,0.59,2.74,1.86l0.84,4.43
		C233.49,540.63,232.65,541.85,231.38,542.1z"/>
	<path style="fill:#D6DBD9;stroke:#000000;stroke-miterlimit:10;" d="M104.4,566.15l-8.36,1.58c-1.27,0.24-2.49-0.59-2.74-1.86
		l-0.84-4.43c-0.24-1.27,0.59-2.49,1.86-2.74l8.36-1.58c1.27-0.24,2.49,0.59,2.74,1.86l0.84,4.43
		C106.51,564.68,105.67,565.91,104.4,566.15z"/>
	<path style="fill:#D6DBD9;stroke:#000000;stroke-miterlimit:10;" d="M179.73,551.88l-8.36,1.58c-1.27,0.24-2.49-0.59-2.74-1.86
		l-0.84-4.43c-0.24-1.27,0.59-2.49,1.86-2.74l8.36-1.58c1.27-0.24,2.49,0.59,2.74,1.86l0.84,4.43
		C181.83,550.41,181,551.64,179.73,551.88z"/>
	<path style="fill:#D6DBD9;stroke:#000000;stroke-miterlimit:10;" d="M196.82,548.64l-8.36,1.58c-1.27,0.24-2.49-0.59-2.74-1.86
		l-0.84-4.43c-0.24-1.27,0.59-2.49,1.86-2.74l8.36-1.58c1.27-0.24,2.49,0.59,2.74,1.86l0.84,4.43
		C198.92,547.18,198.09,548.4,196.82,548.64z"/>
	<path style="fill:#D6DBD9;stroke:#000000;stroke-miterlimit:10;" d="M214.11,545.37l-8.36,1.58c-1.27,0.24-2.49-0.59-2.74-1.86
		l-0.84-4.43c-0.24-1.27,0.59-2.49,1.86-2.74l8.36-1.58c1.27-0.24,2.49,0.59,2.74,1.86l0.84,4.43
		C216.22,543.9,215.38,545.13,214.11,545.37z"/>
	<path style="fill:#D6DBD9;stroke:#000000;stroke-miterlimit:10;" d="M142.02,559.02l-8.36,1.58c-1.27,0.24-2.49-0.59-2.74-1.86
		l-0.84-4.43c-0.24-1.27,0.59-2.49,1.86-2.74l8.36-1.58c1.27-0.24,2.49,0.59,2.74,1.86l0.84,4.43
		C144.13,557.56,143.29,558.78,142.02,559.02z"/>
	<path style="fill:#D6DBD9;stroke:#000000;stroke-miterlimit:10;" d="M251.18,537.71l-8.36,1.58c-1.27,0.24-2.49-0.59-2.74-1.86
		l-0.84-4.43c-0.24-1.27,0.59-2.49,1.86-2.74l8.36-1.58c1.27-0.24,2.49,0.59,2.74,1.86l0.84,4.43
		C253.29,536.24,252.45,537.47,251.18,537.71z"/>
	<path style="fill:#D6DBD9;stroke:#000000;stroke-miterlimit:10;" d="M79.19,584.35l-17.02,3.22c-1.27,0.24-2.49-0.59-2.74-1.86
		l-0.84-4.43c-0.24-1.27,0.59-2.49,1.86-2.74l17.02-3.22c1.27-0.24,2.49,0.59,2.74,1.86l0.84,4.43
		C81.3,582.89,80.46,584.11,79.19,584.35z"/>
	<path style="fill:#D6DBD9;stroke:#000000;stroke-miterlimit:10;" d="M93.57,581.59l-4.43,0.84c-1.27,0.24-2.49-0.59-2.74-1.86
		l-0.84-4.43c-0.24-1.27,0.59-2.49,1.86-2.74l4.43-0.84c1.27-0.24,2.49,0.59,2.74,1.86l0.84,4.43
		C95.67,580.13,94.84,581.35,93.57,581.59z"/>
	<path style="fill:#D6DBD9;stroke:#000000;stroke-miterlimit:10;" d="M106.51,579.14l-4.43,0.84c-1.27,0.24-2.49-0.59-2.74-1.86
		l-0.84-4.43c-0.24-1.27,0.59-2.49,1.86-2.74l4.43-0.84c1.27-0.24,2.49,0.59,2.74,1.86l0.84,4.43
		C108.62,577.67,107.78,578.9,106.51,579.14z"/>
	<path style="fill:#D6DBD9;stroke:#000000;stroke-miterlimit:10;" d="M120.3,576.53l-4.43,0.84c-1.27,0.24-2.49-0.59-2.74-1.86
		l-0.84-4.43c-0.24-1.27,0.59-2.49,1.86-2.74l4.43-0.84c1.27-0.24,2.49,0.59,2.74,1.86l0.84,4.43
		C122.41,575.06,121.57,576.29,120.3,576.53z"/>
	<path style="fill:#D6DBD9;stroke:#000000;stroke-miterlimit:10;" d="M133.25,574.07l-4.43,0.84c-1.27,0.24-2.49-0.59-2.74-1.86
		l-0.84-4.43c-0.24-1.27,0.59-2.49,1.86-2.74l4.43-0.84c1.27-0.24,2.49,0.59,2.74,1.86l0.84,4.43
		C135.35,572.61,134.52,573.83,133.25,574.07L133.25,574.07z"/>
	<path style="fill:#D6DBD9;stroke:#000000;stroke-miterlimit:10;" d="M148.84,571.31l-4.43,0.84c-1.27,0.24-2.49-0.59-2.74-1.86
		l-0.84-4.43c-0.24-1.27,0.59-2.49,1.86-2.74l4.43-0.84c1.27-0.24,2.49,0.59,2.74,1.86l0.84,4.43
		C150.95,569.84,150.11,571.07,148.84,571.31z"/>
	<path style="fill:#D6DBD9;stroke:#000000;stroke-miterlimit:10;" d="M161.78,568.85l-4.43,0.84c-1.27,0.24-2.49-0.59-2.74-1.86
		l-0.84-4.43c-0.24-1.27,0.59-2.49,1.86-2.74l4.43-0.84c1.27-0.24,2.49,0.59,2.74,1.86l0.84,4.43
		C163.89,567.39,163.05,568.61,161.78,568.85z"/>
	<path style="fill:#D6DBD9;stroke:#000000;stroke-miterlimit:10;" d="M175.58,566.24l-4.43,0.84c-1.27,0.24-2.49-0.59-2.74-1.86
		l-0.84-4.43c-0.24-1.27,0.59-2.49,1.86-2.74l4.43-0.84c1.27-0.24,2.49,0.59,2.74,1.86l0.84,4.43
		C177.68,564.78,176.85,566,175.58,566.24z"/>
	<path style="fill:#D6DBD9;stroke:#000000;stroke-miterlimit:10;" d="M187.77,563.79l-4.43,0.84c-1.27,0.24-2.49-0.59-2.74-1.86
		l-0.84-4.43c-0.24-1.27,0.59-2.49,1.86-2.74l4.43-0.84c1.27-0.24,2.49,0.59,2.74,1.86l0.84,4.43
		C189.87,562.32,189.04,563.55,187.77,563.79z"/>
	<path style="fill:#D6DBD9;stroke:#000000;stroke-miterlimit:10;" d="M201.82,561.13l-4.43,0.84c-1.27,0.24-2.49-0.59-2.74-1.86
		l-0.84-4.43c-0.24-1.27,0.59-2.49,1.86-2.74l4.43-0.84c1.27-0.24,2.49,0.59,2.74,1.86l0.84,4.43
		C203.92,559.66,203.09,560.89,201.82,561.13z"/>
	<path style="fill:#D6DBD9;stroke:#000000;stroke-miterlimit:10;" d="M214.76,558.68l-4.43,0.84c-1.27,0.24-2.49-0.59-2.74-1.86
		l-0.84-4.43c-0.24-1.27,0.59-2.49,1.86-2.74l4.43-0.84c1.27-0.24,2.49,0.59,2.74,1.86l0.84,4.43
		C216.87,557.21,216.03,558.44,214.76,558.68z"/>
	<path style="fill:#D6DBD9;stroke:#000000;stroke-miterlimit:10;" d="M228.55,556.06l-4.43,0.84c-1.27,0.24-2.49-0.59-2.74-1.86
		l-0.84-4.43c-0.24-1.27,0.59-2.49,1.86-2.74l4.43-0.84c1.27-0.24,2.49,0.59,2.74,1.86l0.84,4.43
		C230.66,554.6,229.82,555.82,228.55,556.06z"/>
	<path style="fill:#D6DBD9;stroke:#000000;stroke-miterlimit:10;" d="M241.5,553.61l-4.43,0.84c-1.27,0.24-2.49-0.59-2.74-1.86
		l-0.84-4.43c-0.24-1.27,0.59-2.49,1.86-2.74l4.43-0.84c1.27-0.24,2.49,0.59,2.74,1.86l0.84,4.43
		C243.6,552.15,242.77,553.37,241.5,553.61z"/>
	<path style="fill:#D6DBD9;stroke:#000000;stroke-miterlimit:10;" d="M253.44,551.49l-4.43,0.84c-1.27,0.24-2.49-0.59-2.74-1.86
		l-0.84-4.43c-0.24-1.27,0.59-2.49,1.86-2.74l4.43-0.84c1.27-0.24,2.49,0.59,2.74,1.86l0.84,4.43
		C255.55,550.03,254.71,551.25,253.44,551.49z"/>
	<path style="fill:#D6DBD9;stroke:#000000;stroke-miterlimit:10;" d="M114.23,591.39l-4.43,0.84c-1.27,0.24-2.49-0.59-2.74-1.86
		l-0.84-4.43c-0.24-1.27,0.59-2.49,1.86-2.74l4.43-0.84c1.27-0.24,2.49,0.59,2.74,1.86l0.84,4.43
		C116.33,589.92,115.5,591.15,114.23,591.39z"/>
	<path style="fill:#D6DBD9;stroke:#000000;stroke-miterlimit:10;" d="M128.72,588.83l-4.43,0.84c-1.27,0.24-2.49-0.59-2.74-1.86
		l-0.84-4.43c-0.24-1.27,0.59-2.49,1.86-2.74l4.43-0.84c1.27-0.24,2.49,0.59,2.74,1.86l0.84,4.43
		C130.82,587.36,129.99,588.59,128.72,588.83z"/>
	<path style="fill:#D6DBD9;stroke:#000000;stroke-miterlimit:10;" d="M142.18,586.28l-4.43,0.84c-1.27,0.24-2.49-0.59-2.74-1.86
		l-0.84-4.43c-0.24-1.27,0.59-2.49,1.86-2.74l4.43-0.84c1.27-0.24,2.49,0.59,2.74,1.86l0.84,4.43
		C144.29,584.81,143.45,586.04,142.18,586.28z"/>
	<path style="fill:#D6DBD9;stroke:#000000;stroke-miterlimit:10;" d="M155.67,583.61l-4.43,0.84c-1.27,0.24-2.49-0.59-2.74-1.86
		l-0.84-4.43c-0.24-1.27,0.59-2.49,1.86-2.74l4.43-0.84c1.27-0.24,2.49,0.59,2.74,1.86l0.84,4.43
		C157.77,582.15,156.94,583.37,155.67,583.61z"/>
	<path style="fill:#D6DBD9;stroke:#000000;stroke-miterlimit:10;" d="M169.78,580.94l-4.43,0.84c-1.27,0.24-2.49-0.59-2.74-1.86
		l-0.84-4.43c-0.24-1.27,0.59-2.49,1.86-2.74l4.43-0.84c1.27-0.24,2.49,0.59,2.74,1.86l0.84,4.43
		C171.89,579.47,171.05,580.7,169.78,580.94z"/>
	<path style="fill:#D6DBD9;stroke:#000000;stroke-miterlimit:10;" d="M183.57,578.33l-4.43,0.84c-1.27,0.24-2.49-0.59-2.74-1.86
		l-0.84-4.43c-0.24-1.27,0.59-2.49,1.86-2.74l4.43-0.84c1.27-0.24,2.49,0.59,2.74,1.86l0.84,4.43
		C185.68,576.86,184.84,578.09,183.57,578.33z"/>
	<path style="fill:#D6DBD9;stroke:#000000;stroke-miterlimit:10;" d="M195.04,575.15l-4.43,0.84c-1.27,0.24-2.49-0.59-2.74-1.86
		l-0.84-4.43c-0.24-1.27,0.59-2.49,1.86-2.74l4.43-0.84c1.27-0.24,2.49,0.59,2.74,1.86l0.84,4.43
		C197.15,573.69,196.31,574.91,195.04,575.15z"/>
	<path style="fill:#D6DBD9;stroke:#000000;stroke-miterlimit:10;" d="M209.09,572.49l-4.43,0.84c-1.27,0.24-2.49-0.59-2.74-1.86
		l-0.84-4.43c-0.24-1.27,0.59-2.49,1.86-2.74l4.43-0.84c1.27-0.24,2.49,0.59,2.74,1.86l0.84,4.43
		C211.2,571.03,210.36,572.25,209.09,572.49z"/>
	<path style="fill:#D6DBD9;stroke:#000000;stroke-miterlimit:10;" d="M222.04,570.04l-4.43,0.84c-1.27,0.24-2.49-0.59-2.74-1.86
		l-0.84-4.43c-0.24-1.27,0.59-2.49,1.86-2.74l4.43-0.84c1.27-0.24,2.49,0.59,2.74,1.86l0.84,4.43
		C224.14,568.58,223.31,569.8,222.04,570.04z"/>
	<path style="fill:#D6DBD9;stroke:#000000;stroke-miterlimit:10;" d="M235.83,567.43l-4.43,0.84c-1.27,0.24-2.49-0.59-2.74-1.86
		l-0.84-4.43c-0.24-1.27,0.59-2.49,1.86-2.74l4.43-0.84c1.27-0.24,2.49,0.59,2.74,1.86l0.84,4.43
		C237.93,565.96,237.1,567.19,235.83,567.43z"/>
	<path style="fill:#D6DBD9;stroke:#000000;stroke-miterlimit:10;" d="M87.57,596.62l-22.86,4.33c-1.27,0.24-2.49-0.59-2.74-1.86
		l-0.84-4.43c-0.24-1.27,0.59-2.49,1.86-2.74l22.86-4.33c1.27-0.24,2.49,0.59,2.74,1.86l0.84,4.43
		C89.68,595.15,88.84,596.38,87.57,596.62z"/>
	<path style="fill:#D6DBD9;stroke:#000000;stroke-miterlimit:10;" d="M110.14,606.67l-4.43,0.84c-1.27,0.24-2.49-0.59-2.74-1.86
		l-0.84-4.43c-0.24-1.27,0.59-2.49,1.86-2.74l4.43-0.84c1.27-0.24,2.49,0.59,2.74,1.86l0.84,4.43
		C112.24,605.2,111.41,606.43,110.14,606.67z"/>
	<path style="fill:#D6DBD9;stroke:#000000;stroke-miterlimit:10;" d="M100.18,594.05l-4.43,0.84c-1.27,0.24-2.49-0.59-2.74-1.86
		l-0.84-4.43c-0.24-1.27,0.59-2.49,1.86-2.74l4.43-0.84c1.27-0.24,2.49,0.59,2.74,1.86l0.84,4.43
		C102.29,592.58,101.45,593.81,100.18,594.05z"/>
	<path style="fill:#D6DBD9;stroke:#000000;stroke-miterlimit:10;" d="M254.32,564.36l-10.95,2.07c-1.27,0.24-2.49-0.59-2.74-1.86
		l-0.84-4.43c-0.24-1.27,0.59-2.49,1.86-2.74l10.95-2.07c1.27-0.24,2.49,0.59,2.74,1.86l0.84,4.43
		C256.42,562.9,255.59,564.12,254.32,564.36L254.32,564.36z"/>
	<path style="fill:#D6DBD9;stroke:#000000;stroke-miterlimit:10;" d="M96.15,608.85l-28.91,5.48c-1.27,0.24-2.49-0.59-2.74-1.86
		l-0.84-4.43c-0.24-1.27,0.59-2.49,1.86-2.74l28.91-5.48c1.27-0.24,2.49,0.59,2.74,1.86l0.84,4.43
		C98.25,607.38,97.42,608.61,96.15,608.85z"/>
	<path style="fill:#D6DBD9;stroke:#000000;stroke-miterlimit:10;" d="M123.97,603.58l-4.43,0.84c-1.27,0.24-2.49-0.59-2.74-1.86
		l-0.84-4.43c-0.24-1.27,0.59-2.49,1.86-2.74l4.43-0.84c1.27-0.24,2.49,0.59,2.74,1.86l0.84,4.43
		C126.08,602.11,125.24,603.34,123.97,603.58z"/>
	<path style="fill:#D6DBD9;stroke:#000000;stroke-miterlimit:10;" d="M139.13,600.74l-4.43,0.84c-1.27,0.24-2.49-0.59-2.74-1.86
		l-0.84-4.43c-0.24-1.27,0.59-2.49,1.86-2.74l4.43-0.84c1.27-0.24,2.49,0.59,2.74,1.86l0.84,4.43
		C141.24,599.28,140.4,600.5,139.13,600.74z"/>
	<path style="fill:#D6DBD9;stroke:#000000;stroke-miterlimit:10;" d="M152.59,598.19l-4.43,0.84c-1.27,0.24-2.49-0.59-2.74-1.86
		l-0.84-4.43c-0.24-1.27,0.59-2.49,1.86-2.74l4.43-0.84c1.27-0.24,2.49,0.59,2.74,1.86l0.84,4.43
		C154.7,596.73,153.86,597.95,152.59,598.19z"/>
	<path style="fill:#D6DBD9;stroke:#000000;stroke-miterlimit:10;" d="M166.08,595.53l-4.43,0.84c-1.27,0.24-2.49-0.59-2.74-1.86
		l-0.84-4.43c-0.24-1.27,0.59-2.49,1.86-2.74l4.43-0.84c1.27-0.24,2.49,0.59,2.74,1.86l0.84,4.43
		C168.18,594.06,167.35,595.29,166.08,595.53z"/>
	<path style="fill:#D6DBD9;stroke:#000000;stroke-miterlimit:10;" d="M180.19,592.86l-4.43,0.84c-1.27,0.24-2.49-0.59-2.74-1.86
		l-0.84-4.43c-0.24-1.27,0.59-2.49,1.86-2.74l4.43-0.84c1.27-0.24,2.49,0.59,2.74,1.86l0.84,4.43
		C182.3,591.39,181.46,592.61,180.19,592.86z"/>
	<path style="fill:#D6DBD9;stroke:#000000;stroke-miterlimit:10;" d="M193.99,590.24l-4.43,0.84c-1.27,0.24-2.49-0.59-2.74-1.86
		l-0.84-4.43c-0.24-1.27,0.59-2.49,1.86-2.74l4.43-0.84c1.27-0.24,2.49,0.59,2.74,1.86l0.84,4.43
		C196.09,588.78,195.26,590,193.99,590.24z"/>
	<path style="fill:#D6DBD9;stroke:#000000;stroke-miterlimit:10;" d="M205.45,587.07l-4.43,0.84c-1.27,0.24-2.49-0.59-2.74-1.86
		l-0.84-4.43c-0.24-1.27,0.59-2.49,1.86-2.74l4.43-0.84c1.27-0.24,2.49,0.59,2.74,1.86l0.84,4.43
		C207.56,585.61,206.72,586.83,205.45,587.07z"/>
	<path style="fill:#D6DBD9;stroke:#000000;stroke-miterlimit:10;" d="M219.5,584.41l-4.43,0.84c-1.27,0.24-2.49-0.59-2.74-1.86
		l-0.84-4.43c-0.24-1.27,0.59-2.49,1.86-2.74l4.43-0.84c1.27-0.24,2.49,0.59,2.74,1.86l0.84,4.43
		C221.61,582.94,220.77,584.17,219.5,584.41z"/>
	<path style="fill:#D6DBD9;stroke:#000000;stroke-miterlimit:10;" d="M232.45,581.96l-4.43,0.84c-1.27,0.24-2.49-0.59-2.74-1.86
		l-0.84-4.43c-0.24-1.27,0.59-2.49,1.86-2.74l4.43-0.84c1.27-0.24,2.49,0.59,2.74,1.86l0.84,4.43
		C234.55,580.49,233.72,581.72,232.45,581.96z"/>
	<path style="fill:#D6DBD9;stroke:#000000;stroke-miterlimit:10;" d="M258.04,575.82l-17.1,3.24c-1.27,0.24-2.49-0.59-2.74-1.86
		l-0.84-4.43c-0.24-1.27,0.59-2.49,1.86-2.74l17.1-3.24c1.27-0.24,2.49,0.59,2.74,1.86l0.84,4.43
		C260.14,574.36,259.31,575.58,258.04,575.82z"/>
	<path style="fill:#D6DBD9;stroke:#000000;stroke-miterlimit:10;" d="M72.75,626.17l-4.43,0.84c-1.27,0.24-2.49-0.59-2.74-1.86
		l-0.84-4.43c-0.24-1.27,0.59-2.49,1.86-2.74l4.43-0.84c1.27-0.24,2.49,0.59,2.74,1.86l0.84,4.43
		C74.86,624.71,74.03,625.93,72.75,626.17z"/>
	<path style="fill:#D6DBD9;stroke:#000000;stroke-miterlimit:10;" d="M85.7,623.72l-4.43,0.84c-1.27,0.24-2.49-0.59-2.74-1.86
		l-0.84-4.43c-0.24-1.27,0.59-2.49,1.86-2.74l4.43-0.84c1.27-0.24,2.49,0.59,2.74,1.86l0.84,4.43
		C87.8,622.26,86.97,623.48,85.7,623.72z"/>
	<path style="fill:#D6DBD9;stroke:#000000;stroke-miterlimit:10;" d="M99.49,621.11l-4.43,0.84c-1.27,0.24-2.49-0.59-2.74-1.86
		l-0.84-4.43c-0.24-1.27,0.59-2.49,1.86-2.74l4.43-0.84c1.27-0.24,2.49,0.59,2.74,1.86l0.84,4.43
		C101.6,619.64,100.76,620.87,99.49,621.11z"/>
	<path style="fill:#D6DBD9;stroke:#000000;stroke-miterlimit:10;" d="M112.44,618.66l-4.43,0.84c-1.27,0.24-2.49-0.59-2.74-1.86
		l-0.84-4.43c-0.24-1.27,0.59-2.49,1.86-2.74l4.43-0.84c1.27-0.24,2.49,0.59,2.74,1.86l0.84,4.43
		C114.54,617.19,113.71,618.42,112.44,618.66z"/>
	<path style="fill:#D6DBD9;stroke:#000000;stroke-miterlimit:10;" d="M128.03,615.89l-4.43,0.84c-1.27,0.24-2.49-0.59-2.74-1.86
		l-0.84-4.43c-0.24-1.27,0.59-2.49,1.86-2.74l4.43-0.84c1.27-0.24,2.49,0.59,2.74,1.86l0.84,4.43
		C130.13,614.42,129.3,615.65,128.03,615.89z"/>
	<path style="fill:#D6DBD9;stroke:#000000;stroke-miterlimit:10;" d="M181,605.71l-44.13,8.36c-1.27,0.24-2.49-0.59-2.74-1.86
		l-0.84-4.43c-0.24-1.27,0.59-2.49,1.86-2.74l44.13-8.36c1.27-0.24,2.49,0.59,2.74,1.86l0.84,4.43
		C183.11,604.25,182.27,605.47,181,605.71z"/>
	<path style="fill:#D6DBD9;stroke:#000000;stroke-miterlimit:10;" d="M193.95,603.26l-4.43,0.84c-1.27,0.24-2.49-0.59-2.74-1.86
		l-0.84-4.43c-0.24-1.27,0.59-2.49,1.86-2.74l4.43-0.84c1.27-0.24,2.49,0.59,2.74,1.86l0.84,4.43
		C196.05,601.79,195.22,603.02,193.95,603.26z"/>
	<path style="fill:#D6DBD9;stroke:#000000;stroke-miterlimit:10;" d="M207.74,600.65l-4.43,0.84c-1.27,0.24-2.49-0.59-2.74-1.86
		l-0.84-4.43c-0.24-1.27,0.59-2.49,1.86-2.74l4.43-0.84c1.27-0.24,2.49,0.59,2.74,1.86l0.84,4.43
		C209.85,599.18,209.01,600.41,207.74,600.65z"/>
	<path style="fill:#D6DBD9;stroke:#000000;stroke-miterlimit:10;" d="M220.69,598.2l-4.43,0.84c-1.27,0.24-2.49-0.59-2.74-1.86
		l-0.84-4.43c-0.24-1.27,0.59-2.49,1.86-2.74l4.43-0.84c1.27-0.24,2.49,0.59,2.74,1.86l0.84,4.43
		C222.79,596.73,221.96,597.95,220.69,598.2z"/>
	<path style="fill:#D6DBD9;stroke:#000000;stroke-miterlimit:10;" d="M232.63,596.08l-4.43,0.84c-1.27,0.24-2.49-0.59-2.74-1.86
		l-0.84-4.43c-0.24-1.27,0.59-2.49,1.86-2.74l4.43-0.84c1.27-0.24,2.49,0.59,2.74,1.86l0.84,4.43
		C234.74,594.61,233.9,595.84,232.63,596.08z"/>
	<path style="fill:#D6DBD9;stroke:#000000;stroke-miterlimit:10;" d="M246.57,592.81l-4.43,0.84c-1.27,0.24-2.49-0.59-2.74-1.86
		l-0.84-4.43c-0.24-1.27,0.59-2.49,1.86-2.74l4.43-0.84c1.27-0.24,2.49,0.59,2.74,1.86l0.84,4.43
		C248.68,591.35,247.84,592.57,246.57,592.81z"/>
	<path style="fill:#D6DBD9;stroke:#000000;stroke-miterlimit:10;" d="M260.37,590.2l-4.43,0.84c-1.27,0.24-2.49-0.59-2.74-1.86
		l-0.84-4.43c-0.24-1.27,0.59-2.49,1.86-2.74l4.43-0.84c1.27-0.24,2.49,0.59,2.74,1.86l0.84,4.43
		C262.47,588.74,261.64,589.96,260.37,590.2z"/>
</g>
<path style="fill:#D6DBD9;stroke:#000000;stroke-miterlimit:10;" d="M275.53,547.13l-4.43,0.84c-1.27,0.24-2.49-0.59-2.74-1.86
	l-0.84-4.43c-0.24-1.27,0.59-2.49,1.86-2.74l4.43-0.84c1.27-0.24,2.49,0.59,2.74,1.86l0.84,4.43
	C277.64,545.66,276.8,546.88,275.53,547.13z"/>
<path style="fill:#D6DBD9;stroke:#000000;stroke-miterlimit:10;" d="M302.06,542.1l-4.43,0.84c-1.27,0.24-2.49-0.59-2.74-1.86
	l-0.84-4.43c-0.24-1.27,0.59-2.49,1.86-2.74l4.43-0.84c1.27-0.24,2.49,0.59,2.74,1.86l0.84,4.43
	C304.17,540.63,303.33,541.86,302.06,542.1z"/>
<path style="fill:#D6DBD9;stroke:#000000;stroke-miterlimit:10;" d="M288.57,544.66l-4.43,0.84c-1.27,0.24-2.49-0.59-2.74-1.86
	l-0.84-4.43c-0.24-1.27,0.59-2.49,1.86-2.74l4.43-0.84c1.27-0.24,2.49,0.59,2.74,1.86l0.84,4.43
	C290.67,543.19,289.84,544.42,288.57,544.66z"/>
<path style="fill:#D6DBD9;stroke:#000000;stroke-miterlimit:10;" d="M277.95,559.89l-4.43,0.84c-1.27,0.24-2.49-0.59-2.74-1.86
	l-0.84-4.43c-0.24-1.27,0.59-2.49,1.86-2.74l4.43-0.84c1.27-0.24,2.49,0.59,2.74,1.86l0.84,4.43
	C280.05,558.42,279.22,559.65,277.95,559.89z"/>
<path style="fill:#D6DBD9;stroke:#000000;stroke-miterlimit:10;" d="M290.91,557l-4.43,0.84c-1.27,0.24-2.49-0.59-2.74-1.86
	l-0.84-4.43c-0.24-1.27,0.59-2.49,1.86-2.74l4.43-0.84c1.27-0.24,2.49,0.59,2.74,1.86l0.84,4.43
	C293.01,555.53,292.18,556.76,290.91,557z"/>
<path style="fill:#D6DBD9;stroke:#000000;stroke-miterlimit:10;" d="M304.4,554.44l-4.43,0.84c-1.27,0.24-2.49-0.59-2.74-1.86
	l-0.84-4.43c-0.24-1.27,0.59-2.49,1.86-2.74l4.43-0.84c1.27-0.24,2.49,0.59,2.74,1.86l0.84,4.43
	C306.51,552.98,305.67,554.2,304.4,554.44z"/>
<path style="fill:#D6DBD9;stroke:#000000;stroke-miterlimit:10;" d="M280.41,572.49l-4.43,0.84c-1.27,0.24-2.49-0.59-2.74-1.86
	l-0.84-4.43c-0.24-1.27,0.59-2.49,1.86-2.74l4.43-0.84c1.27-0.24,2.49,0.59,2.74,1.86l0.84,4.43
	C282.51,571.03,281.68,572.25,280.41,572.49z"/>
<path style="fill:#D6DBD9;stroke:#000000;stroke-miterlimit:10;" d="M293.15,568.85l-4.43,0.84c-1.27,0.24-2.49-0.59-2.74-1.86
	l-0.84-4.43c-0.24-1.27,0.59-2.49,1.86-2.74l4.43-0.84c1.27-0.24,2.49,0.59,2.74,1.86l0.84,4.43
	C295.26,567.39,294.42,568.61,293.15,568.85z"/>
<path style="fill:#D6DBD9;stroke:#000000;stroke-miterlimit:10;" d="M307.16,566.52l-4.43,0.84c-1.27,0.24-2.49-0.59-2.74-1.86
	l-0.84-4.43c-0.24-1.27,0.59-2.49,1.86-2.74l4.43-0.84c1.27-0.24,2.49,0.59,2.74,1.86l0.84,4.43
	C309.27,565.05,308.43,566.28,307.16,566.52z"/>
<path style="fill:#D6DBD9;stroke:#000000;stroke-miterlimit:10;" d="M298.37,581.43l-20.14,3.81c-1.27,0.24-2.49-0.59-2.74-1.86
	l-0.84-4.43c-0.24-1.27,0.59-2.49,1.86-2.74l20.14-3.81c1.27-0.24,2.49,0.59,2.74,1.86l0.84,4.43
	C300.48,579.97,299.64,581.19,298.37,581.43L298.37,581.43z"/>
<path style="fill:#D6DBD9;stroke:#000000;stroke-miterlimit:10;" d="M309.55,579.14l-4.43,0.84c-1.27,0.24-2.49-0.59-2.74-1.86
	l-0.84-4.43c-0.24-1.27,0.59-2.49,1.86-2.74l4.43-0.84c1.27-0.24,2.49,0.59,2.74,1.86l0.84,4.43
	C311.66,577.67,310.82,578.9,309.55,579.14z"/>
<path style="opacity:0.43;fill:#5B5742;enable-background:new    ;" d="M78.623,529.173c-1.115,2.561,3.337,8.22,9.576,16.146
	c0.837,1.06,3.68,4.622,7.938,8.676c2.33,2.219,4.247,3.798,5.105,4.484c2.307,1.859,6.54,5.358,12.291,8.074
	c5.856,2.77,10.093,4.766,15.74,4.521c2.2-0.097,9.412-0.406,11.435-5.215c1.173-2.784,0.11-5.903-0.274-7.049
	c-5.372-15.869-58.458-37.355-61.802-29.64L78.623,529.173z"/>
<path style="opacity:0.43;fill:#5B5742;enable-background:new    ;" d="M248.79,561.01c3.6,2.06,13.11-2.57,16.91-4.98
	c3.12-1.98,5.84-4.65,6.88-5.7c0.68-0.69,2.09-2.18,3.6-4.23c2.51-3.4,3.27-5.47,5.39-10.11c2.84-6.25,5.29-9.94,6.09-15.99
	c0.17-1.3,0.34-3.25-1.18-4.46c-1.94-1.54-5.52-0.99-6.82-0.82C267.05,516.39,240.38,556.2,248.79,561.01L248.79,561.01z"/>
<path style="fill:#EBE2B3;stroke:#000000;stroke-width:6;stroke-miterlimit:10;" d="M270.596,461.379
	c-1.537,4.232-3.935,10.825-6.894,18.894c-9.554,26.058-11.053,29.622-13.192,37.267c-3.201,11.444-9.894,35.193-3.141,38.859
	c2.162,1.174,5.55,0.483,10.591-2.998c22.086-18.833,22.111-25.746,34.589-49.031c-3.957-11.296-5.914-19.465-6.97-24.98
	c-0.914-4.773-2.615-9.361-3.878-14.053c-2.824-10.488-3.619-14.028-5.233-14.17C275.496,451.081,273.607,452.173,270.596,461.379z"
	/>
<path style="fill:#EBE2B3;stroke:#000000;stroke-width:6;stroke-miterlimit:10;" d="M67.745,470.472
	c5.159-12.826,6.547-17.636,9.691-17.802c2.694-0.142,5.22,3.259,10.272,10.061c2.882,3.88,4.741,7.104,5.622,8.599
	c2.672,4.538,4.513,8.588,9.122,17.377c16.565,34.187,25.269,40.825,37.441,69.788c0.158,22.836-41.275-10.515-45.281-14.419
	c-6.254-5.78-7.412-8.183-13.394-15.822c-2.928-3.739-5.28-6.552-6.858-8.408c-4.361-5.13-5.304-5.821-8.385-9.565
	c-4.115-5.001-6.173-7.502-6.95-9.312C56.498,495.073,59.638,490.627,67.745,470.472z"/>
<path style="fill:#EBE2B3;stroke:#000000;stroke-width:6;stroke-miterlimit:10;" d="M70.17,479.507"/>
</svg>
