<svg width="1444" height="1679" xmlns="http://www.w3.org/2000/svg" xmlns:xlink="http://www.w3.org/1999/xlink" overflow="hidden"><defs><clipPath id="clip0"><rect x="1405" y="439" width="1444" height="1679"/></clipPath></defs><g clip-path="url(#clip0)" transform="translate(-1405 -439)"><path d="M2042.11 704.355 2042.11 704.355 2042.11 704.355ZM2445.26 442.78C2496.03 442.78 2539.6 470.423 2558.2 509.818L2562.7 522.776 2570.95 537.559C2588.3 585.757 2554.92 659.349 2487.55 713.524 2439.43 752.22 2385.35 771.851 2342.58 769.964L2336.75 769.062 2328.75 770.549C2311.72 771.592 2293.71 768.15 2276.05 760.715L2266.15 755.763 2265.69 756.443C2259.02 763.108 2251.09 768.502 2242.27 772.23L2240.61 772.745 2244.58 782.715C2246.18 788.821 2247.02 795.142 2247.02 801.617 2247.02 833.991 2226 862.534 2194.02 879.389L2182.66 884.199 2176.44 897.401C2166.88 917.712 2142.67 926.428 2122.35 916.868L1974.1 847.086C1953.79 837.526 1945.07 813.311 1954.63 793L1973.06 753.856C1980.23 738.622 1995.64 729.912 2011.47 730.541 2016.74 730.752 2022.06 731.999 2027.14 734.389L2037.55 739.29 2041.78 735.298 2047.6 731.549 2042.11 704.355 2047.9 675.683C2059.08 649.244 2085.26 630.693 2115.78 630.693L2170.21 630.693 2166.43 612.417C2161 568.342 2174.49 528.095 2206.14 507.201 2237.79 486.306 2280.11 489.71 2318.5 512.028L2329.02 519.344 2332.32 509.818C2350.93 470.423 2394.49 442.78 2445.26 442.78Z" stroke="#000000" stroke-width="6.875" stroke-miterlimit="8" fill="#DE0000" fill-rule="evenodd"/><path d="M2238.34 1794.32C2255.07 1787.66 2294.06 1846.17 2325.44 1924.99L2336.2 1955.81 2338.61 1956.7C2350.05 1961.6 2362.35 1967.51 2374.97 1974.27 2425.44 2001.28 2461.85 2031.58 2456.3 2041.94 2450.75 2052.31 2405.34 2038.82 2354.88 2011.81L2352.08 2010.16 2356.73 2029.45C2361.53 2057.46 2360.32 2076.45 2351.96 2079.78 2341.5 2083.94 2322.35 2062.65 2301.8 2026.85L2301.75 2026.75 2285.27 2049.43C2249.12 2093.81 2210 2121.79 2197.88 2111.91 2185.75 2102.04 2205.23 2058.06 2241.38 2013.68 2250.41 2002.58 2259.64 1992.51 2268.58 1983.8L2277.15 1976.5 2264.86 1949.1C2233.49 1870.27 2221.62 1800.97 2238.34 1794.32Z" stroke="#000000" stroke-width="6.875" stroke-miterlimit="8" fill="#7C561E" fill-rule="evenodd"/><path d="M2015.01 1802.88C2033.01 1802.37 2049.54 1870.7 2051.95 1955.51L2051.48 1988.15 2053.44 1989.82C2062.5 1998.35 2072.02 2008.12 2081.55 2018.79 2119.68 2061.49 2143.48 2102.45 2134.71 2110.28 2125.94 2118.11 2087.92 2089.85 2049.79 2047.15L2047.73 2044.64 2045.48 2064.36C2040.37 2092.32 2032.71 2109.74 2023.71 2109.99 2012.47 2110.31 2001.79 2083.74 1994.78 2043.06L1994.76 2042.95 1971.5 2058.59C1922.32 2087.87 1875.96 2100.71 1867.97 2087.28 1859.97 2073.84 1893.36 2039.22 1942.55 2009.95 1954.85 2002.63 1966.97 1996.34 1978.35 1991.22L1988.91 1987.31 1986.78 1957.36C1984.38 1872.55 1997.02 1803.38 2015.01 1802.88Z" stroke="#000000" stroke-width="6.875" stroke-miterlimit="8" fill="#7C561E" fill-rule="evenodd"/><path d="M2507.02 1201.5C2618.29 1201.5 2708.5 1291.69 2708.5 1402.94 2708.5 1458.57 2685.95 1508.93 2649.49 1545.38L2644.1 1549.82 2638.3 1556.34C2607.32 1586.88 2559.82 1618.95 2503.13 1645.34 2389.76 1698.1 2282.6 1708.1 2263.78 1667.68 2254.37 1647.46 2268.82 1618.47 2299.8 1587.94L2300.04 1587.73 2271.9 1587.78C2222.56 1586.02 2189.3 1575.12 2185.3 1556.03 2180.72 1534.21 2215.44 1506.84 2272.01 1483.12L2302.49 1471.64 2285.06 1471.01C2223.89 1466.56 2182.25 1451.69 2179.63 1429.55 2177.53 1411.84 2200.8 1392.82 2240.12 1376.4L2261.94 1368.46 2247.04 1365.52C2208.98 1354.94 2184.52 1337.79 2181.96 1316.1 2176.48 1269.82 2272.71 1220.4 2396.89 1205.7 2427.94 1202.03 2457.79 1200.87 2485.2 1201.93L2494.89 1202.72Z" stroke="#000000" stroke-width="6.875" stroke-miterlimit="8" fill="#7C561E" fill-rule="evenodd"/><path d="M1701.97 851.489C1724.13 849.468 1744.37 861.207 1754.24 879.668L1756.05 885.702 1756.91 886.99C1767.25 908.754 1772.59 948.064 1771.74 996.123L1770.82 1014.98 1771.02 1017.12 1770.48 1022.1 1769.92 1033.67C1768.91 1046.64 1767.5 1060.02 1765.67 1073.67 1752.82 1169.24 1723.45 1246.47 1696.16 1261.57L1689.07 1263.14 1683.83 1276.63C1680.42 1283 1676.49 1288.26 1672.05 1292.27L1665 1296.14 1673.73 1320.94C1686.04 1362.15 1685.82 1392.76 1670.17 1403 1638.86 1423.47 1557.66 1354.69 1488.8 1249.37 1419.94 1144.05 1389.5 1042.08 1420.81 1021.61 1424.72 1019.05 1429.41 1017.89 1434.76 1018.02 1453.49 1018.46 1480.28 1034.73 1509.92 1062.41L1518.36 1070.9 1513.6 1033.32C1507.16 956.668 1522.22 897.998 1554.8 889.868 1587.39 881.738 1628.24 926.457 1658.57 997.15L1662.18 1006.66 1653.35 909.867C1650.65 880.321 1672.42 854.184 1701.97 851.489Z" stroke="#000000" stroke-width="6.875" stroke-miterlimit="8" fill="#7C561E" fill-rule="evenodd"/><path d="M2349.49 711.396C2407.11 711.396 2460.63 728.911 2505.03 758.908L2543.2 790.394 2560.2 803.885C2670.18 905.545 2710.01 1136.59 2647.59 1381.76 2589.97 1608.07 2461.6 1782.16 2327.99 1836.46L2321.11 1838.73 2295.53 1848.63C2187.29 1884.05 2040.05 1870.19 1899.01 1801.31 1673.34 1691.09 1549.01 1481.76 1621.29 1333.75 1675.51 1222.75 1824.93 1177.76 1991.45 1208.7L1993.09 1209.06 1998.14 1147.34C2014.91 1006.17 2060.49 888.749 2111.09 842.291L2116.79 837.765 2118.81 834.051C2168.8 760.05 2253.46 711.396 2349.49 711.396Z" stroke="#000000" stroke-width="6.875" stroke-miterlimit="8" fill="#FFC000" fill-rule="evenodd"/><path d="M2082.4 1165.5C2193.46 1165.5 2283.5 1255.69 2283.5 1366.94 2283.5 1422.57 2260.99 1472.93 2224.6 1509.38L2219.23 1513.82 2213.44 1520.34C2182.52 1550.88 2135.1 1582.95 2078.52 1609.34 1965.37 1662.1 1858.41 1672.1 1839.62 1631.68 1830.23 1611.46 1844.66 1582.47 1875.58 1551.94L1875.81 1551.73 1847.73 1551.78C1798.48 1550.02 1765.28 1539.12 1761.29 1520.03 1756.72 1498.21 1791.37 1470.84 1847.83 1447.12L1878.26 1435.64 1860.87 1435.01C1799.8 1430.56 1758.25 1415.69 1755.63 1393.55 1753.54 1375.84 1776.76 1356.82 1816.01 1340.4L1837.79 1332.46 1822.91 1329.52C1784.93 1318.94 1760.51 1301.79 1757.95 1280.1 1752.48 1233.82 1848.53 1184.4 1972.48 1169.7 2003.47 1166.03 2033.27 1164.87 2060.62 1165.93L2070.29 1166.72Z" stroke="#000000" stroke-width="6.875" stroke-miterlimit="8" fill="#7C561E" fill-rule="evenodd"/><path d="M2693.58 1142.84C2721.07 1145.59 2754.99 1171 2779.33 1210.07 2811.77 1262.16 2814.9 1318.83 2786.32 1336.63 2764.88 1349.99 2731.69 1337.69 2702.74 1308.73L2699.18 1304.21 2697.15 1311.95C2683.46 1350.03 2662.81 1374.79 2644.44 1371.54 2619.94 1367.2 2608.76 1314.69 2619.46 1254.25 2624.82 1224.04 2634.63 1197.56 2646.16 1179.18L2652.74 1170.19 2653.28 1167.94C2656.5 1159.31 2661.66 1152.43 2668.81 1147.98 2675.96 1143.53 2684.41 1141.93 2693.58 1142.84Z" stroke="#000000" stroke-width="4.58333" stroke-miterlimit="8" fill="#DE0000" fill-rule="evenodd"/><path d="M2285.5 963.5C2285.5 891.151 2344.15 832.5 2416.5 832.5 2488.85 832.5 2547.5 891.151 2547.5 963.5 2547.5 1035.85 2488.85 1094.5 2416.5 1094.5 2344.15 1094.5 2285.5 1035.85 2285.5 963.5Z" stroke="#000000" stroke-width="6.875" stroke-miterlimit="8" fill="#FFFFFF" fill-rule="evenodd"/><path d="M2398 981C2398 950.624 2422.62 926 2453 926 2483.38 926 2508 950.624 2508 981 2508 1011.38 2483.38 1036 2453 1036 2422.62 1036 2398 1011.38 2398 981Z" fill-rule="evenodd"/><path d="M2424 963.5C2424 955.492 2430.49 949 2438.5 949 2446.51 949 2453 955.492 2453 963.5 2453 971.508 2446.51 978 2438.5 978 2430.49 978 2424 971.508 2424 963.5Z" fill="#FFFFFF" fill-rule="evenodd"/><path d="M2643.5 1126.5 2786.5 1126.5 2643.5 1184.5Z" stroke="#000000" stroke-width="6.875" stroke-miterlimit="8" fill="#ED7D31" fill-rule="evenodd"/><path d="M0 184 0 0 63.9999 184Z" stroke="#000000" stroke-width="6.875" stroke-miterlimit="8" fill="#ED7D31" fill-rule="evenodd" transform="matrix(-1.83697e-16 -1 -1 1.83697e-16 2827.5 1126.5)"/></g></svg>