<?xml version="1.0" encoding="UTF-8"?>
<svg xmlns="http://www.w3.org/2000/svg" xmlns:xlink="http://www.w3.org/1999/xlink" width="140px" height="px" viewBox="0 0 139 107" version="1.1">
<g id="surface1">
<path style="fill-rule:evenodd;fill:rgb(98.431373%,98.431373%,98.431373%);fill-opacity:1;stroke-width:8.02083;stroke-linecap:butt;stroke-linejoin:miter;stroke:rgb(0%,0%,0%);stroke-opacity:1;stroke-miterlimit:8;" d="M 1643.458689 1130.716706 C 1566.968722 1104.694509 1528.505649 1014.287091 1557.571043 928.847547 C 1586.67609 843.368575 1672.246515 795.188084 1748.776135 821.21028 C 1650.437556 859.297313 1593.69461 975.253797 1621.966951 1080.249416 C 1626.844228 1098.267815 1634.061011 1115.261098 1643.458689 1130.716706 Z M 1643.458689 1130.716706 " transform="matrix(0.0985117,0,0,0.0990741,-151.313962,-59.048148)"/>
<path style=" stroke:none;fill-rule:evenodd;fill:rgb(25.098039%,25.098039%,25.098039%);fill-opacity:1;" d="M 11.636719 27.917969 C 12.046875 27.851562 12.429688 27.90625 12.761719 28.089844 L 12.996094 28.367188 L 10.933594 31.136719 C 10.144531 32.46875 9.484375 33.898438 8.972656 35.410156 C 8.464844 36.917969 8.117188 38.457031 7.9375 39.996094 L 7.894531 43.160156 L 7.480469 43.328125 C 7.070312 43.390625 6.6875 43.339844 6.355469 43.15625 C 5.03125 42.414062 5.0625 39.824219 6.421875 37.371094 L 7.21875 36.242188 L 7.101562 36.105469 C 6.617188 34.949219 6.886719 33.03125 7.90625 31.191406 C 8.925781 29.351562 10.402344 28.109375 11.636719 27.917969 Z M 11.636719 27.917969 "/>
<path style="fill-rule:evenodd;fill:rgb(100%,100%,100%);fill-opacity:1;stroke-width:9.16667;stroke-linecap:butt;stroke-linejoin:miter;stroke:rgb(0%,0%,0%);stroke-opacity:1;stroke-miterlimit:8;" d="M 1761.980469 1228.181659 L 1790.292463 1220.572138 C 1810.673926 1215.091706 1831.610527 1227.19597 1837.082593 1247.580023 L 1904.412798 1498.851928 L 1905.64203 1500.705023 C 1918.806711 1516.594334 1936.888321 1528.304322 1957.309437 1534.494451 L 1963.455598 1535.756133 L 1969.086275 1535.401285 C 1981.338944 1537.136098 1991.965855 1545.928446 1995.375984 1558.624124 C 1999.896386 1575.538551 1989.864265 1592.965537 1972.932582 1597.499708 L 1862.14307 1627.149241 C 1845.211387 1631.683411 1827.843525 1621.668808 1823.28347 1604.754381 L 1823.045554 1600.417348 L 1821.181879 1596.711157 L 1734.977012 1274.942757 C 1729.504946 1254.558703 1741.599005 1233.622664 1761.980469 1228.181659 Z M 1761.980469 1228.181659 " transform="matrix(0.0985117,0,0,0.0990741,-151.313962,-59.048148)"/>
<path style="fill-rule:evenodd;fill:rgb(25.098039%,25.098039%,25.098039%);fill-opacity:1;stroke-width:4.58333;stroke-linecap:butt;stroke-linejoin:miter;stroke:rgb(0%,0%,0%);stroke-opacity:1;stroke-miterlimit:8;" d="M 1764.518239 1387.232477 L 1771.933285 1387.863318 C 1793.266412 1391.766647 1811.665243 1402.017815 1824.155828 1418.537967 C 1849.097347 1451.657126 1843.109797 1500.665596 1813.291002 1542.1434 L 1807.779283 1548.688376 Z M 1764.518239 1387.232477 " transform="matrix(0.0985117,0,0,0.0990741,-151.313962,-59.048148)"/>
<path style="fill-rule:evenodd;fill:rgb(100%,100%,100%);fill-opacity:1;stroke-width:9.16667;stroke-linecap:butt;stroke-linejoin:miter;stroke:rgb(0%,0%,0%);stroke-opacity:1;stroke-miterlimit:8;" d="M 2480.367581 1241.074474 L 2508.679575 1233.504381 C 2529.061039 1228.023949 2549.997639 1240.128213 2555.469705 1260.472839 L 2622.79991 1511.744743 L 2624.029142 1513.597839 C 2637.193823 1529.526577 2655.23578 1541.236565 2675.696549 1547.426694 L 2681.84271 1548.688376 L 2687.473387 1548.333528 C 2699.726057 1550.028914 2710.352968 1558.860689 2713.723443 1571.556367 C 2718.283498 1588.470794 2708.211724 1605.858353 2691.319694 1610.392523 L 2580.530182 1640.081484 C 2563.598499 1644.615654 2546.230637 1634.561624 2541.670582 1617.647196 L 2541.393014 1613.310164 L 2539.568992 1609.603972 L 2453.364124 1287.835572 C 2447.892058 1267.490946 2459.986117 1246.554907 2480.367581 1241.074474 Z M 2480.367581 1241.074474 " transform="matrix(0.0985117,0,0,0.0990741,-151.313962,-59.048148)"/>
<path style="fill-rule:evenodd;fill:rgb(98.431373%,98.431373%,98.431373%);fill-opacity:1;stroke-width:9.16667;stroke-linecap:butt;stroke-linejoin:miter;stroke:rgb(0%,0%,0%);stroke-opacity:1;stroke-miterlimit:8;" d="M 2578.388939 894.308995 C 2588.460713 895.255257 2598.215265 897.739194 2607.493986 901.879089 C 2681.84271 934.919393 2698.020993 1060.811624 2643.657205 1183.037091 C 2602.894278 1274.666764 2534.01762 1338.224007 2470.731986 1350.328271 L 2466.211584 1350.564836 L 2456.298421 1353.640187 C 2445.037067 1355.966414 2433.339535 1357.188668 2421.404086 1357.188668 L 1749.212315 1357.188668 C 1665.465912 1357.188668 1595.597937 1297.77132 1579.459308 1218.837325 L 1575.930221 1183.904498 L 1579.459308 1148.971671 C 1584.059015 1126.4191 1593.060167 1105.443633 1605.5111 1087.030958 L 1615.582874 1074.847839 L 1618.874045 1065.779498 C 1663.086752 1006.36215 1854.133234 961.651285 2083.166957 961.651285 C 2205.812612 961.651285 2317.633094 974.465245 2401.776023 995.519568 L 2411.689186 998.673773 L 2423.347066 981.838201 C 2469.819975 923.209404 2527.990417 889.538259 2578.388939 894.308995 Z M 2578.388939 894.308995 " transform="matrix(0.0985117,0,0,0.0990741,-151.313962,-59.048148)"/>
<path style=" stroke:none;fill-rule:evenodd;fill:rgb(25.098039%,25.098039%,25.098039%);fill-opacity:1;" d="M 111.605469 47.753906 L 111.8125 47.773438 L 111.738281 48.488281 C 111.25 51.414062 110.347656 54.460938 109.007812 57.488281 C 108.507812 58.621094 107.960938 59.714844 107.378906 60.757812 L 105.675781 63.507812 L 105.0625 63.019531 C 103.390625 61.402344 102.355469 59.164062 102.355469 56.695312 C 102.355469 51.757812 106.496094 47.753906 111.605469 47.753906 Z M 111.605469 47.753906 "/>
<path style=" stroke:none;fill-rule:evenodd;fill:rgb(25.098039%,25.098039%,25.098039%);fill-opacity:1;" d="M 87.023438 50.832031 C 90.976562 50.832031 94.183594 52.980469 94.183594 55.628906 C 94.183594 58.273438 90.976562 60.421875 87.023438 60.421875 C 86.53125 60.421875 86.046875 60.386719 85.582031 60.324219 L 84.445312 60.089844 L 84.273438 60.875 C 84.101562 61.34375 83.863281 61.828125 83.554688 62.296875 C 82.328125 64.179688 80.480469 65.140625 79.433594 64.449219 C 78.386719 63.757812 78.535156 61.671875 79.765625 59.792969 C 80.070312 59.320312 80.417969 58.910156 80.777344 58.566406 L 81.109375 58.324219 L 81.089844 58.308594 C 80.316406 57.542969 79.867188 56.621094 79.867188 55.628906 C 79.867188 52.980469 83.070312 50.832031 87.023438 50.832031 Z M 87.023438 50.832031 "/>
<path style=" stroke:none;fill-rule:evenodd;fill:rgb(25.098039%,25.098039%,25.098039%);fill-opacity:1;" d="M 62.898438 46.898438 C 63.5625 44.851562 66.472656 43.972656 69.394531 44.9375 C 72.320312 45.898438 74.148438 48.335938 73.484375 50.382812 C 72.820312 52.425781 69.910156 53.304688 66.984375 52.34375 C 64.0625 51.378906 62.234375 48.941406 62.898438 46.898438 Z M 62.898438 46.898438 "/>
<path style=" stroke:none;fill-rule:evenodd;fill:rgb(25.098039%,25.098039%,25.098039%);fill-opacity:1;" d="M 21.574219 40.15625 L 21.371094 41.5 C 20.652344 43.503906 19.148438 45.316406 17.03125 46.464844 L 16.886719 46.527344 L 17.710938 48.699219 C 18.324219 51.34375 17.730469 53.753906 16.03125 54.675781 C 14.328125 55.597656 12 54.773438 10.140625 52.804688 L 9.5625 52.105469 L 9.039062 52.507812 C 8.125 53 7.042969 53.027344 5.941406 52.664062 L 4.972656 52.234375 L 5.082031 51.882812 C 5.511719 50.855469 6.039062 49.878906 6.652344 48.96875 L 7.640625 47.761719 L 7.96875 46.863281 C 9.601562 44.65625 13.269531 42.652344 18.40625 41.011719 Z M 21.574219 40.15625 "/>
<path style=" stroke:none;fill-rule:evenodd;fill:rgb(25.098039%,25.098039%,25.098039%);fill-opacity:1;" d="M 40.585938 60.925781 C 42.980469 61.089844 45.085938 62.066406 46.5625 63.511719 L 47.296875 64.582031 L 50.300781 64.328125 C 51.390625 64.292969 52.515625 64.3125 53.664062 64.390625 C 62.855469 65.023438 70.050781 69.246094 69.742188 73.820312 L 69.34375 75.257812 L 37.417969 75.257812 L 35.160156 74.328125 C 32.75 72.859375 31.238281 70.398438 31.421875 67.71875 C 31.699219 63.636719 35.804688 60.597656 40.585938 60.925781 Z M 40.585938 60.925781 "/>
<path style=" stroke:none;fill-rule:evenodd;fill:rgb(25.098039%,25.098039%,25.098039%);fill-opacity:1;" d="M 29.191406 47.4375 C 30.09375 47.855469 30.675781 48.625 30.738281 49.359375 L 30.730469 49.394531 L 31.699219 49.449219 C 32.316406 49.566406 32.960938 49.777344 33.601562 50.074219 C 36.15625 51.269531 37.65625 53.472656 36.953125 54.996094 C 36.246094 56.519531 33.605469 56.785156 31.050781 55.589844 C 29.132812 54.691406 27.808594 53.230469 27.566406 51.910156 L 27.699219 50.667969 C 26.5 50.105469 25.863281 48.929688 26.273438 48.035156 C 26.6875 47.144531 27.992188 46.875 29.191406 47.4375 Z M 29.191406 47.4375 "/>
<path style=" stroke:none;fill-rule:evenodd;fill:rgb(25.098039%,25.098039%,25.098039%);fill-opacity:1;" d="M 49.375 36.160156 C 52.398438 36.160156 55.355469 36.242188 58.214844 36.394531 L 60.191406 36.550781 L 60.152344 36.714844 C 58.605469 40 54.980469 42.304688 50.753906 42.304688 C 46.53125 42.304688 42.90625 40 41.355469 36.714844 L 41.277344 36.359375 Z M 49.375 36.160156 "/>
<path style="fill-rule:evenodd;fill:rgb(100%,100%,100%);fill-opacity:1;stroke-width:9.16667;stroke-linecap:butt;stroke-linejoin:miter;stroke:rgb(0%,0%,0%);stroke-opacity:1;stroke-miterlimit:8;" d="M 1715.190338 1245.766355 L 1742.550669 1256.254089 C 1762.258037 1263.824182 1772.091895 1285.903621 1764.518239 1305.617407 L 1671.294852 1548.451811 L 1671.215546 1550.659755 C 1672.524084 1571.280374 1680.256351 1591.388435 1693.143463 1608.381717 L 1697.346645 1613.034171 L 1702.144616 1616.070093 C 1711.02681 1624.625876 1714.436938 1638.03125 1709.757925 1650.293224 C 1703.453153 1666.655666 1685.133627 1674.817173 1668.757082 1668.548189 L 1561.694919 1627.425234 C 1545.358026 1621.15625 1537.18958 1602.82243 1543.454699 1586.459988 L 1545.754553 1582.793224 L 1546.4683 1578.732185 L 1665.822786 1267.727512 C 1673.396442 1248.013727 1695.48297 1238.196262 1715.190338 1245.766355 Z M 1715.190338 1245.766355 " transform="matrix(0.0985117,0,0,0.0990741,-151.313962,-59.048148)"/>
<path style=" stroke:none;fill-rule:evenodd;fill:rgb(25.098039%,25.098039%,25.098039%);fill-opacity:1;" d="M 11.902344 86.890625 C 12.605469 87.285156 13.472656 88.246094 14.386719 89.605469 L 14.925781 90.503906 L 13.636719 93.882812 L 13.628906 94.101562 C 13.757812 96.144531 14.519531 98.132812 15.789062 99.820312 L 16.203125 100.28125 L 16.675781 100.578125 C 17.113281 101.003906 17.414062 101.550781 17.550781 102.136719 L 17.582031 102.523438 L 16.855469 103.050781 C 15.816406 103.523438 14.445312 103.699219 12.777344 103.585938 L 10.679688 103.242188 L 10.480469 101.570312 C 10.492188 99.273438 11.125 97.589844 12.378906 97.0625 L 12.46875 97.046875 L 11.304688 93.8125 C 10.175781 90.058594 9.984375 87.167969 10.992188 86.746094 C 11.242188 86.636719 11.550781 86.695312 11.902344 86.890625 Z M 11.902344 86.890625 "/>
<path style="fill-rule:evenodd;fill:rgb(100%,100%,100%);fill-opacity:1;stroke-width:9.16667;stroke-linecap:butt;stroke-linejoin:miter;stroke:rgb(0%,0%,0%);stroke-opacity:1;stroke-miterlimit:8;" d="M 2451.262534 1245.766355 L 2478.662517 1256.254089 C 2498.330233 1263.824182 2508.164091 1285.903621 2500.630087 1305.617407 L 2407.4067 1548.451811 L 2407.327394 1550.659755 C 2408.635932 1571.280374 2416.368199 1591.388435 2429.215659 1608.381717 L 2433.458493 1613.034171 L 2438.216811 1616.070093 C 2447.138658 1624.625876 2450.548786 1638.03125 2445.83012 1650.293224 C 2439.565001 1666.655666 2421.205823 1674.817173 2404.86893 1668.548189 L 2297.806767 1627.425234 C 2281.430221 1621.15625 2273.261775 1602.82243 2279.526894 1586.459988 L 2281.866401 1582.793224 L 2282.540496 1578.732185 L 2401.934634 1267.727512 C 2409.50829 1248.013727 2431.594818 1238.196262 2451.262534 1245.766355 Z M 2451.262534 1245.766355 " transform="matrix(0.0985117,0,0,0.0990741,-151.313962,-59.048148)"/>
<path style=" stroke:none;fill-rule:evenodd;fill:rgb(25.098039%,25.098039%,25.098039%);fill-opacity:1;" d="M 91.335938 78.878906 L 91.464844 78.992188 L 85.636719 94.265625 L 84.457031 94.339844 C 83.222656 94.175781 82.046875 93.539062 81.230469 92.46875 L 79.605469 90.34375 C 77.96875 88.199219 78.367188 85.125 80.5 83.476562 L 85.964844 79.253906 C 87.566406 78.019531 89.683594 77.9375 91.335938 78.878906 Z M 91.335938 78.878906 "/>
<path style=" stroke:none;fill-rule:evenodd;fill:rgb(98.431373%,98.431373%,98.431373%);fill-opacity:1;" d="M 5.910156 63.359375 C 5.910156 59.609375 10.871094 56.570312 16.992188 56.570312 C 23.113281 56.570312 28.074219 59.609375 28.074219 63.359375 C 28.074219 67.105469 23.113281 70.144531 16.992188 70.144531 C 10.871094 70.144531 5.910156 67.105469 5.910156 63.359375 Z M 5.910156 63.359375 "/>
<path style=" stroke:none;fill-rule:evenodd;fill:rgb(98.431373%,98.431373%,98.431373%);fill-opacity:1;" d="M 76.445312 66.628906 C 76.445312 64.847656 81.429688 63.40625 87.578125 63.40625 C 93.726562 63.40625 98.707031 64.847656 98.707031 66.628906 C 98.707031 68.40625 93.726562 69.847656 87.578125 69.847656 C 81.429688 69.847656 76.445312 68.40625 76.445312 66.628906 Z M 76.445312 66.628906 "/>
<path style="fill-rule:evenodd;fill:rgb(25.098039%,25.098039%,25.098039%);fill-opacity:1;stroke-width:4.58333;stroke-linecap:butt;stroke-linejoin:miter;stroke:rgb(0%,0%,0%);stroke-opacity:1;stroke-miterlimit:8;" d="M 2729.346588 790.693341 C 2675.022454 715.899241 2657.733897 635.821846 2690.764557 611.810456 C 2723.795217 587.838493 2794.614855 629.040304 2848.938989 703.834404 C 2903.263124 778.628505 2920.512028 858.7059 2887.521021 882.677862 C 2854.490361 906.689252 2783.670723 865.487442 2729.346588 790.693341 Z M 2729.346588 790.693341 " transform="matrix(0.0985117,0,0,0.0990741,-151.313962,-59.048148)"/>
<path style="fill-rule:evenodd;fill:rgb(0%,0%,0%);fill-opacity:1;stroke-width:4.58333;stroke-linecap:butt;stroke-linejoin:miter;stroke:rgb(5.098039%,5.098039%,5.098039%);stroke-opacity:1;stroke-miterlimit:8;" d="M 2794.495897 782.492407 C 2794.495897 764.828855 2808.810505 750.516647 2826.495588 750.516647 C 2844.180671 750.516647 2858.495279 764.828855 2858.495279 782.492407 C 2858.495279 800.155958 2844.180671 814.507593 2826.495588 814.507593 C 2808.810505 814.507593 2794.495897 800.155958 2794.495897 782.492407 Z M 2794.495897 782.492407 " transform="matrix(0.0985117,0,0,0.0990741,-151.313962,-59.048148)"/>
<path style=" stroke:none;fill-rule:evenodd;fill:rgb(75.294118%,0%,0%);fill-opacity:1;" d="M 125.207031 18.429688 C 125.207031 17.332031 126.113281 16.445312 127.226562 16.445312 C 128.34375 16.445312 129.246094 17.332031 129.246094 18.429688 C 129.246094 19.523438 128.34375 20.410156 127.226562 20.410156 C 126.113281 20.410156 125.207031 19.523438 125.207031 18.429688 Z M 125.207031 18.429688 "/>
<path style=" stroke:none;fill-rule:evenodd;fill:rgb(100%,47.45098%,47.45098%);fill-opacity:1;" d="M 127.277344 17.882812 C 127.277344 17.417969 127.652344 17.039062 128.113281 17.039062 C 128.578125 17.039062 128.953125 17.417969 128.953125 17.882812 C 128.953125 18.347656 128.578125 18.726562 128.113281 18.726562 C 127.652344 18.726562 127.277344 18.347656 127.277344 17.882812 Z M 127.277344 17.882812 "/>
<path style="fill-rule:evenodd;fill:rgb(98.431373%,98.431373%,98.431373%);fill-opacity:1;stroke-width:8.02083;stroke-linecap:butt;stroke-linejoin:miter;stroke:rgb(0%,0%,0%);stroke-opacity:1;stroke-miterlimit:8;" d="M 2625.535943 605.147196 C 2636.99556 604.59521 2648.65344 605.186624 2660.430278 607.000292 C 2732.637759 618.118867 2787.437725 672.410631 2802.624691 739.516355 L 2804.448713 752.921729 L 2817.534088 779.456484 C 2823.997471 789.668224 2831.253906 798.65771 2838.906868 806.227804 L 2843.308313 809.618575 L 2857.186741 814.744159 C 2916.070931 843.486857 2948.625759 910.553154 2931.614771 976.436624 C 2914.603783 1042.359521 2853.697308 1085.296145 2788.230778 1081.984229 L 2787.675641 1081.905374 L 2785.732661 1083.088201 C 2745.762787 1099.766063 2674.269054 1091.328563 2601.902962 1057.775701 L 2578.349286 1045.474299 L 2558.483307 1040.348715 C 2483.182919 1012.473423 2435.282515 934.6434 2447.971364 852.160923 L 2463.515203 751.344626 C 2476.204052 668.901577 2545.318626 609.089953 2625.535943 605.147196 Z M 2625.535943 605.147196 " transform="matrix(0.0985117,0,0,0.0990741,-151.313962,-59.048148)"/>
<path style=" stroke:none;fill-rule:evenodd;fill:rgb(25.098039%,25.098039%,25.098039%);fill-opacity:1;" d="M 92.054688 26.535156 C 90.015625 21.457031 93.921875 15.085938 100.78125 12.296875 C 107.640625 9.511719 114.851562 11.367188 116.890625 16.445312 C 118.929688 21.519531 115.023438 27.890625 108.164062 30.679688 C 101.304688 33.464844 94.09375 31.609375 92.054688 26.535156 Z M 92.054688 26.535156 "/>
<path style="fill-rule:evenodd;fill:rgb(98.431373%,98.431373%,98.431373%);fill-opacity:1;stroke-width:10.3125;stroke-linecap:butt;stroke-linejoin:miter;stroke:rgb(0%,0%,0%);stroke-opacity:1;stroke-miterlimit:8;" d="M 35.469708 466.044451 L 28.803228 462.431547 L 23.693958 450.470188 C 3.775893 391.069462 -4.528708 320.938328 2.430091 246.839264 C 4.733215 222.173017 8.649033 198.218953 13.966596 175.215463 L 33.889451 109.470588 L 35.448989 112.125318 C 175.574843 -163.128362 722.014172 112.113745 35.469708 466.044451 Z M 35.469708 466.044451 " transform="matrix(0.0314364,0.0938942,0.0933612,-0.0316158,61.45652,12.622731)"/>
<path style=" stroke:none;fill-rule:evenodd;fill:rgb(25.098039%,25.098039%,25.098039%);fill-opacity:1;" d="M 88.851562 3.152344 L 89.652344 3.71875 C 90.417969 4.535156 91.023438 5.511719 91.410156 6.628906 C 92.964844 11.085938 90.429688 16.039062 85.75 17.6875 C 84.578125 18.097656 83.386719 18.265625 82.230469 18.214844 L 81.203125 18.074219 L 80.371094 19.050781 C 79.644531 19.648438 78.789062 20.140625 77.828125 20.480469 C 74.464844 21.664062 70.9375 20.585938 69.332031 18.070312 L 69.292969 17.984375 L 70.085938 16.359375 C 70.9375 14.863281 72.019531 13.417969 73.351562 12.050781 L 73.050781 11.988281 L 78.566406 8.039062 C 80.546875 6.8125 82.660156 5.6875 84.890625 4.691406 Z M 88.851562 3.152344 "/>
<path style=" stroke:none;fill-rule:evenodd;fill:rgb(25.098039%,25.098039%,25.098039%);fill-opacity:1;" d="M 78.839844 23.976562 C 79.832031 23.976562 80.683594 24.742188 81.046875 25.835938 L 81.058594 25.898438 L 81.960938 25.277344 C 82.570312 25.015625 83.242188 24.871094 83.949219 24.871094 C 86.769531 24.871094 89.054688 27.199219 89.054688 30.070312 C 89.054688 32.941406 86.769531 35.269531 83.949219 35.269531 C 81.832031 35.269531 80.015625 33.960938 79.242188 32.09375 L 78.839844 30.070312 C 77.519531 30.070312 76.445312 28.707031 76.445312 27.023438 C 76.445312 25.339844 77.519531 23.976562 78.839844 23.976562 Z M 78.839844 23.976562 "/>
<path style=" stroke:none;fill-rule:evenodd;fill:rgb(0%,0%,0%);fill-opacity:1;" d="M 127.574219 32.199219 C 127.574219 29.792969 130.132812 27.839844 133.285156 27.839844 C 136.441406 27.839844 139 29.792969 139 32.199219 C 139 34.605469 136.441406 36.558594 133.285156 36.558594 C 130.132812 36.558594 127.574219 34.605469 127.574219 32.199219 Z M 127.574219 32.199219 "/>
<path style="fill-rule:evenodd;fill:rgb(0%,0%,0%);fill-opacity:1;stroke-width:4.58333;stroke-linecap:butt;stroke-linejoin:miter;stroke:rgb(5.098039%,5.098039%,5.098039%);stroke-opacity:1;stroke-miterlimit:8;" d="M 2607.493986 814.980724 C 2607.493986 797.04118 2621.848246 782.492407 2639.493677 782.492407 C 2657.17876 782.492407 2671.493368 797.04118 2671.493368 814.980724 C 2671.493368 832.959696 2657.17876 847.50847 2639.493677 847.50847 C 2621.848246 847.50847 2607.493986 832.959696 2607.493986 814.980724 Z M 2607.493986 814.980724 " transform="matrix(0.0985117,0,0,0.0990741,-151.313962,-59.048148)"/>
<path style=" stroke:none;fill-rule:evenodd;fill:rgb(75.294118%,0%,0%);fill-opacity:1;" d="M 106.785156 21.648438 C 106.785156 20.527344 107.667969 19.617188 108.757812 19.617188 C 109.84375 19.617188 110.726562 20.527344 110.726562 21.648438 C 110.726562 22.769531 109.84375 23.679688 108.757812 23.679688 C 107.667969 23.679688 106.785156 22.769531 106.785156 21.648438 Z M 106.785156 21.648438 "/>
<path style=" stroke:none;fill-rule:evenodd;fill:rgb(100%,47.45098%,47.45098%);fill-opacity:1;" d="M 108.066406 21.5 C 108.066406 21.0625 108.441406 20.707031 108.90625 20.707031 C 109.367188 20.707031 109.742188 21.0625 109.742188 21.5 C 109.742188 21.9375 109.367188 22.292969 108.90625 22.292969 C 108.441406 22.292969 108.066406 21.9375 108.066406 21.5 Z M 108.066406 21.5 "/>
<path style="fill-rule:evenodd;fill:rgb(100%,27.843137%,27.843137%);fill-opacity:1;stroke-width:5.72917;stroke-linecap:butt;stroke-linejoin:miter;stroke:rgb(75.294118%,0%,0%);stroke-opacity:1;stroke-miterlimit:8;" d="M 2813.330907 973.006425 C 2854.886887 973.006425 2890.534622 988.304322 2905.761241 1010.147196 L 2909.012759 1016.455607 L 2893.984403 1034.671145 C 2866.306851 1062.901285 2827.288641 1078.830023 2786.525714 1076.740362 L 2785.930924 1076.661507 L 2783.987944 1077.844334 C 2779.031362 1079.933995 2773.559296 1081.629381 2767.651051 1082.891063 L 2760.037742 1083.995035 L 2742.392311 1076.77979 C 2724.231396 1065.779498 2713.009695 1050.560456 2713.009695 1033.803738 C 2713.009695 1000.211449 2757.936151 973.006425 2813.330907 973.006425 Z M 2813.330907 973.006425 " transform="matrix(0.0985117,0,0,0.0990741,-151.313962,-59.048148)"/>
<path style=" stroke:none;fill-rule:evenodd;fill:rgb(100%,100%,100%);fill-opacity:1;" d="M 121.761719 37.847656 L 121.589844 43.296875 L 119.296875 38.894531 L 119.367188 38.832031 Z M 121.761719 37.847656 "/>
<path style=" stroke:none;fill-rule:evenodd;fill:rgb(100%,100%,100%);fill-opacity:1;" d="M 127.472656 37.550781 L 128.664062 37.65625 L 130.132812 38.082031 L 128.875 42.800781 Z M 127.472656 37.550781 "/>
</g>
</svg>
