<?xml version="1.0" encoding="UTF-8"?>
<svg xmlns="http://www.w3.org/2000/svg" xmlns:xlink="http://www.w3.org/1999/xlink" width="140px" height="px" viewBox="0 0 139 108" version="1.1">
<g id="surface1">
<path style="fill-rule:evenodd;fill:rgb(98.431373%,98.431373%,98.431373%);fill-opacity:1;stroke-width:8.02083;stroke-linecap:butt;stroke-linejoin:miter;stroke:rgb(0%,0%,0%);stroke-opacity:1;stroke-miterlimit:8;" d="M 1643.454811 1130.732603 C 1566.949753 1104.705621 1528.519672 1014.318866 1557.598696 928.846571 C 1586.67772 843.374277 1672.257644 795.173249 1748.762702 821.200231 C 1650.438512 859.297128 1593.700877 975.239077 1621.990782 1080.251266 C 1626.843862 1098.257849 1634.064299 1115.242224 1643.454811 1130.732603 Z M 1643.454811 1130.732603 " transform="matrix(0.0990028,0,0,0.099356,-152.761396,-59.216191)"/>
<path style=" stroke:none;fill-rule:evenodd;fill:rgb(25.098039%,25.098039%,25.098039%);fill-opacity:1;" d="M 11 27.996094 C 11.414062 27.933594 11.800781 27.984375 12.132812 28.171875 L 12.367188 28.445312 L 10.296875 31.222656 C 9.503906 32.5625 8.839844 33.996094 8.324219 35.507812 C 7.8125 37.023438 7.464844 38.566406 7.28125 40.113281 L 7.238281 43.28125 L 6.824219 43.449219 C 6.414062 43.515625 6.027344 43.464844 5.695312 43.277344 C 4.363281 42.535156 4.394531 39.9375 5.761719 37.476562 L 6.558594 36.34375 L 6.445312 36.207031 C 5.957031 35.050781 6.226562 33.125 7.253906 31.28125 C 8.277344 29.433594 9.761719 28.191406 11 27.996094 Z M 11 27.996094 "/>
<path style="fill-rule:evenodd;fill:rgb(100%,100%,100%);fill-opacity:1;stroke-width:9.16667;stroke-linecap:butt;stroke-linejoin:miter;stroke:rgb(0%,0%,0%);stroke-opacity:1;stroke-miterlimit:8;" d="M 1799.976506 1220.450991 L 1826.569807 1232.835431 C 1845.666479 1241.760091 1853.952226 1264.484556 1845.035184 1283.591978 L 1735.071493 1519.368128 L 1734.834757 1521.53049 C 1734.716389 1542.21054 1741.029339 1562.772642 1752.66884 1580.661277 L 1756.574978 1585.575738 L 1761.11241 1588.956887 C 1769.398156 1598.117441 1771.88388 1611.720667 1766.320594 1623.594003 C 1758.942334 1639.477539 1740.042941 1646.357784 1724.181655 1638.966435 L 1620.215265 1590.490198 C 1604.353979 1583.09885 1597.488647 1564.227322 1604.906362 1548.343786 L 1607.470998 1544.84469 L 1608.457397 1540.834491 L 1749.236174 1238.929362 C 1758.153215 1219.782624 1780.840378 1211.526331 1799.976506 1220.450991 Z M 1799.976506 1220.450991 " transform="matrix(0.0990028,0,0,0.099356,-152.761396,-59.216191)"/>
<path style="fill-rule:evenodd;fill:rgb(25.098039%,25.098039%,25.098039%);fill-opacity:1;stroke-width:4.58333;stroke-linecap:butt;stroke-linejoin:miter;stroke:rgb(0%,0%,0%);stroke-opacity:1;stroke-miterlimit:8;" d="M 1699.679519 1343.941551 L 1704.966614 1349.170537 C 1718.776192 1365.879702 1726.312275 1385.576859 1725.207509 1406.256908 C 1723.037433 1447.617007 1686.974708 1481.349863 1637.457509 1493.930881 L 1629.053395 1495.424877 Z M 1699.679519 1343.941551 " transform="matrix(0.0990028,0,0,0.099356,-152.761396,-59.216191)"/>
<path style="fill-rule:evenodd;fill:rgb(100%,100%,100%);fill-opacity:1;stroke-width:9.16667;stroke-linecap:butt;stroke-linejoin:miter;stroke:rgb(0%,0%,0%);stroke-opacity:1;stroke-miterlimit:8;" d="M 2508.920751 1222.180881 L 2535.474595 1234.565321 C 2554.610724 1243.489981 2562.89647 1266.214446 2553.979429 1285.321868 L 2444.015737 1521.098018 L 2443.779002 1523.26038 C 2443.660634 1543.94043 2449.973584 1564.502532 2461.613085 1582.391168 L 2465.519222 1587.305628 L 2470.056655 1590.686777 C 2478.342401 1599.847331 2480.828125 1613.450557 2475.264838 1625.363209 C 2467.847122 1641.207429 2448.987185 1648.087674 2433.125899 1640.696325 L 2329.15951 1592.220088 C 2313.298224 1584.82874 2306.432891 1565.957212 2313.811151 1550.073676 L 2316.415243 1546.57458 L 2317.362185 1542.564381 L 2458.140962 1240.659252 C 2467.058004 1221.512514 2489.784622 1213.256221 2508.920751 1222.180881 Z M 2508.920751 1222.180881 " transform="matrix(0.0990028,0,0,0.099356,-152.761396,-59.216191)"/>
<path style="fill-rule:evenodd;fill:rgb(98.431373%,98.431373%,98.431373%);fill-opacity:1;stroke-width:9.16667;stroke-linecap:butt;stroke-linejoin:miter;stroke:rgb(0%,0%,0%);stroke-opacity:1;stroke-miterlimit:8;" d="M 2578.363197 894.288086 C 2588.463916 895.231662 2598.209532 897.747866 2607.481677 901.876013 C 2681.856115 934.940502 2698.033049 1060.829319 2643.66277 1183.022461 C 2602.904789 1274.667318 2534.014726 1338.240777 2470.766862 1350.310692 L 2466.229429 1350.585901 L 2456.325989 1353.652525 C 2445.041592 1355.97215 2433.362635 1357.15162 2421.407487 1357.15162 L 1749.196718 1357.15162 C 1665.471223 1357.15162 1595.594762 1297.784939 1579.457284 1218.839048 L 1575.945706 1183.887406 L 1579.457284 1148.97508 C 1584.073629 1126.407878 1593.069582 1105.452619 1605.537657 1087.013563 L 1615.559465 1074.865017 L 1618.873763 1065.783095 C 1663.064411 1006.337782 1854.149505 961.635851 2083.151754 961.635851 C 2205.820256 961.635851 2317.638377 974.492079 2401.797887 995.525969 L 2411.701326 998.671224 L 2423.340827 981.844112 C 2469.819919 923.224429 2528.017424 889.530888 2578.363197 894.288086 Z M 2578.363197 894.288086 " transform="matrix(0.0990028,0,0,0.099356,-152.761396,-59.216191)"/>
<path style=" stroke:none;fill-rule:evenodd;fill:rgb(25.098039%,25.098039%,25.098039%);fill-opacity:1;" d="M 111.46875 47.890625 L 111.675781 47.910156 L 111.605469 48.628906 C 111.113281 51.558594 110.203125 54.617188 108.859375 57.648438 C 108.355469 58.789062 107.808594 59.882812 107.222656 60.929688 L 105.507812 63.6875 L 104.894531 63.199219 C 103.210938 61.574219 102.171875 59.332031 102.171875 56.859375 C 102.171875 51.90625 106.332031 47.890625 111.46875 47.890625 Z M 111.46875 47.890625 "/>
<path style=" stroke:none;fill-rule:evenodd;fill:rgb(25.098039%,25.098039%,25.098039%);fill-opacity:1;" d="M 86.765625 50.976562 C 90.738281 50.976562 93.957031 53.128906 93.957031 55.785156 C 93.957031 58.441406 90.738281 60.59375 86.765625 60.59375 C 86.269531 60.59375 85.78125 60.558594 85.316406 60.496094 L 84.175781 60.261719 L 84 61.046875 C 83.828125 61.519531 83.589844 62.003906 83.277344 62.472656 C 82.042969 64.359375 80.191406 65.328125 79.136719 64.632812 C 78.085938 63.941406 78.234375 61.847656 79.46875 59.960938 C 79.777344 59.492188 80.125 59.074219 80.488281 58.730469 L 80.820312 58.488281 L 80.800781 58.472656 C 80.023438 57.707031 79.570312 56.78125 79.570312 55.785156 C 79.570312 53.128906 82.792969 50.976562 86.765625 50.976562 Z M 86.765625 50.976562 "/>
<path style=" stroke:none;fill-rule:evenodd;fill:rgb(25.098039%,25.098039%,25.098039%);fill-opacity:1;" d="M 62.519531 47.03125 C 63.1875 44.980469 66.109375 44.097656 69.046875 45.0625 C 71.988281 46.027344 73.828125 48.472656 73.15625 50.523438 C 72.488281 52.574219 69.566406 53.457031 66.625 52.492188 C 63.691406 51.527344 61.851562 49.082031 62.519531 47.03125 Z M 62.519531 47.03125 "/>
<path style=" stroke:none;fill-rule:evenodd;fill:rgb(25.098039%,25.098039%,25.098039%);fill-opacity:1;" d="M 20.992188 40.269531 L 20.785156 41.617188 C 20.0625 43.625 18.550781 45.445312 16.421875 46.597656 L 16.277344 46.660156 L 17.105469 48.839844 C 17.722656 51.488281 17.125 53.90625 15.417969 54.832031 C 13.707031 55.757812 11.367188 54.929688 9.5 52.957031 L 8.917969 52.253906 L 8.390625 52.65625 C 7.472656 53.152344 6.386719 53.175781 5.277344 52.8125 L 4.300781 52.382812 L 4.414062 52.03125 C 4.847656 51 5.375 50.023438 5.992188 49.105469 L 6.988281 47.898438 L 7.316406 46.996094 C 8.957031 44.78125 12.644531 42.773438 17.804688 41.128906 Z M 20.992188 40.269531 "/>
<path style=" stroke:none;fill-rule:evenodd;fill:rgb(25.098039%,25.098039%,25.098039%);fill-opacity:1;" d="M 40.097656 61.097656 C 42.5 61.265625 44.621094 62.242188 46.101562 63.691406 L 46.839844 64.765625 L 49.859375 64.511719 C 50.953125 64.476562 52.085938 64.496094 53.238281 64.574219 C 62.476562 65.210938 69.707031 69.445312 69.394531 74.027344 L 69 75.472656 L 36.914062 75.472656 L 34.644531 74.539062 C 32.21875 73.066406 30.703125 70.597656 30.886719 67.910156 C 31.167969 63.820312 35.289062 60.769531 40.097656 61.097656 Z M 40.097656 61.097656 "/>
<path style=" stroke:none;fill-rule:evenodd;fill:rgb(25.098039%,25.098039%,25.098039%);fill-opacity:1;" d="M 28.644531 47.570312 C 29.550781 47.992188 30.136719 48.761719 30.195312 49.5 L 30.191406 49.535156 L 31.164062 49.589844 C 31.785156 49.707031 32.433594 49.917969 33.074219 50.214844 C 35.644531 51.414062 37.152344 53.625 36.441406 55.152344 C 35.734375 56.679688 33.078125 56.945312 30.511719 55.75 C 28.585938 54.847656 27.253906 53.382812 27.011719 52.058594 L 27.144531 50.8125 C 25.9375 50.25 25.296875 49.066406 25.714844 48.171875 C 26.128906 47.277344 27.441406 47.007812 28.644531 47.570312 Z M 28.644531 47.570312 "/>
<path style=" stroke:none;fill-rule:evenodd;fill:rgb(25.098039%,25.098039%,25.098039%);fill-opacity:1;" d="M 48.929688 36.265625 C 51.964844 36.265625 54.9375 36.34375 57.8125 36.496094 L 59.796875 36.65625 L 59.761719 36.820312 C 58.203125 40.113281 54.5625 42.425781 50.316406 42.425781 C 46.070312 42.425781 42.425781 40.113281 40.871094 36.820312 L 40.789062 36.464844 Z M 48.929688 36.265625 "/>
<path style="fill-rule:evenodd;fill:rgb(100%,100%,100%);fill-opacity:1;stroke-width:9.16667;stroke-linecap:butt;stroke-linejoin:miter;stroke:rgb(0%,0%,0%);stroke-opacity:1;stroke-miterlimit:8;" d="M 1708.162545 1277.419416 L 1736.491906 1269.831489 C 1756.890625 1264.366609 1777.802271 1276.475839 1783.286646 1296.841363 L 1850.598471 1548.107892 L 1851.821605 1549.955729 C 1865.039344 1565.878581 1883.070706 1577.555339 1903.50888 1583.767216 L 1909.664006 1585.025318 L 1915.266749 1584.671477 C 1927.537545 1586.401367 1938.151192 1595.20808 1941.544402 1607.907046 C 1946.081835 1624.812789 1936.060027 1642.229637 1919.133431 1646.75094 L 1808.341165 1676.434281 C 1791.414568 1680.955584 1774.014501 1670.930085 1769.516524 1653.985026 L 1769.240333 1649.660301 L 1767.385904 1645.964627 L 1681.174685 1324.205078 C 1675.69031 1303.839554 1687.803282 1282.884295 1708.162545 1277.419416 Z M 1708.162545 1277.419416 " transform="matrix(0.0990028,0,0,0.099356,-152.761396,-59.216191)"/>
<path style=" stroke:none;fill-rule:evenodd;fill:rgb(25.098039%,25.098039%,25.098039%);fill-opacity:1;" d="M 24.90625 89.378906 C 25.707031 89.285156 26.972656 89.546875 28.519531 90.109375 L 29.484375 90.519531 L 30.421875 94.023438 L 30.542969 94.207031 C 31.847656 95.789062 33.636719 96.949219 35.65625 97.566406 L 36.265625 97.691406 L 36.824219 97.65625 C 37.429688 97.742188 37.996094 98.003906 38.453125 98.402344 L 38.707031 98.695312 L 38.421875 99.554688 C 37.855469 100.550781 36.84375 101.511719 35.421875 102.40625 L 33.515625 103.371094 L 32.371094 102.132812 C 31.03125 100.261719 30.554688 98.519531 31.265625 97.351562 L 31.328125 97.285156 L 28.480469 95.351562 C 25.359375 92.972656 23.507812 90.742188 24.078125 89.800781 C 24.222656 89.566406 24.503906 89.425781 24.90625 89.378906 Z M 24.90625 89.378906 "/>
<path style="fill-rule:evenodd;fill:rgb(100%,100%,100%);fill-opacity:1;stroke-width:9.16667;stroke-linecap:butt;stroke-linejoin:miter;stroke:rgb(0%,0%,0%);stroke-opacity:1;stroke-miterlimit:8;" d="M 2406.059128 1277.419416 L 2434.388489 1269.831489 C 2454.787208 1264.366609 2475.698853 1276.475839 2481.183228 1296.841363 L 2548.495054 1548.107892 L 2549.718188 1549.955729 C 2562.89647 1565.878581 2580.967289 1577.555339 2601.366007 1583.767216 L 2607.521133 1585.025318 L 2613.163332 1584.671477 C 2625.394672 1586.401367 2636.047774 1595.20808 2639.440985 1607.907046 C 2643.978417 1624.812789 2633.95661 1642.229637 2617.030013 1646.75094 L 2506.237747 1676.434281 C 2489.311151 1680.955584 2471.911084 1670.930085 2467.373651 1653.985026 L 2467.09746 1649.660301 L 2465.282487 1645.964627 L 2379.071268 1324.205078 C 2373.586893 1303.839554 2385.699865 1282.884295 2406.059128 1277.419416 Z M 2406.059128 1277.419416 " transform="matrix(0.0990028,0,0,0.099356,-152.761396,-59.216191)"/>
<path style=" stroke:none;fill-rule:evenodd;fill:rgb(25.098039%,25.098039%,25.098039%);fill-opacity:1;" d="M 94.914062 78.777344 L 95.089844 78.792969 L 99.320312 94.640625 L 98.40625 95.398438 C 97.304688 96 95.976562 96.175781 94.679688 95.792969 L 92.113281 95.03125 C 89.523438 94.261719 88.042969 91.53125 88.808594 88.929688 L 90.769531 82.265625 C 91.347656 80.316406 93.019531 78.992188 94.914062 78.777344 Z M 94.914062 78.777344 "/>
<path style=" stroke:none;fill-rule:evenodd;fill:rgb(98.431373%,98.431373%,98.431373%);fill-opacity:1;" d="M 5.246094 63.539062 C 5.246094 59.78125 10.234375 56.730469 16.386719 56.730469 C 22.535156 56.730469 27.523438 59.78125 27.523438 63.539062 C 27.523438 67.296875 22.535156 70.34375 16.386719 70.34375 C 10.234375 70.34375 5.246094 67.296875 5.246094 63.539062 Z M 5.246094 63.539062 "/>
<path style=" stroke:none;fill-rule:evenodd;fill:rgb(98.431373%,98.431373%,98.431373%);fill-opacity:1;" d="M 76.132812 66.816406 C 76.132812 65.035156 81.140625 63.585938 87.320312 63.585938 C 93.5 63.585938 98.507812 65.035156 98.507812 66.816406 C 98.507812 68.601562 93.5 70.046875 87.320312 70.046875 C 81.140625 70.046875 76.132812 68.601562 76.132812 66.816406 Z M 76.132812 66.816406 "/>
<path style="fill-rule:evenodd;fill:rgb(25.098039%,25.098039%,25.098039%);fill-opacity:1;stroke-width:4.58333;stroke-linecap:butt;stroke-linejoin:miter;stroke:rgb(0%,0%,0%);stroke-opacity:1;stroke-miterlimit:8;" d="M 2729.361061 790.691262 C 2675.030238 715.873517 2657.748539 635.826787 2690.773156 611.84422 C 2723.797774 587.861654 2794.581722 629.025174 2848.912545 703.842918 C 2903.243368 778.621347 2920.525067 858.707393 2887.50045 882.689959 C 2854.475832 906.672526 2783.691884 865.46969 2729.361061 790.691262 Z M 2729.361061 790.691262 " transform="matrix(0.0990028,0,0,0.099356,-152.761396,-59.216191)"/>
<path style="fill-rule:evenodd;fill:rgb(0%,0%,0%);fill-opacity:1;stroke-width:4.58333;stroke-linecap:butt;stroke-linejoin:miter;stroke:rgb(5.098039%,5.098039%,5.098039%);stroke-opacity:1;stroke-miterlimit:8;" d="M 2794.50281 782.5136 C 2794.50281 764.821542 2808.825315 750.510634 2826.501574 750.510634 C 2844.177833 750.510634 2858.500337 764.821542 2858.500337 782.5136 C 2858.500337 800.166341 2844.177833 814.516565 2826.501574 814.516565 C 2808.825315 814.516565 2794.50281 800.166341 2794.50281 782.5136 Z M 2794.50281 782.5136 " transform="matrix(0.0990028,0,0,0.099356,-152.761396,-59.216191)"/>
<path style=" stroke:none;fill-rule:evenodd;fill:rgb(75.294118%,0%,0%);fill-opacity:1;" d="M 125.140625 18.480469 C 125.140625 17.382812 126.046875 16.492188 127.167969 16.492188 C 128.289062 16.492188 129.199219 17.382812 129.199219 18.480469 C 129.199219 19.578125 128.289062 20.46875 127.167969 20.46875 C 126.046875 20.46875 125.140625 19.578125 125.140625 18.480469 Z M 125.140625 18.480469 "/>
<path style=" stroke:none;fill-rule:evenodd;fill:rgb(100%,47.45098%,47.45098%);fill-opacity:1;" d="M 127.21875 17.933594 C 127.21875 17.46875 127.597656 17.089844 128.058594 17.089844 C 128.523438 17.089844 128.902344 17.46875 128.902344 17.933594 C 128.902344 18.398438 128.523438 18.777344 128.058594 18.777344 C 127.597656 18.777344 127.21875 18.398438 127.21875 17.933594 Z M 127.21875 17.933594 "/>
<path style="fill-rule:evenodd;fill:rgb(98.431373%,98.431373%,98.431373%);fill-opacity:1;stroke-width:8.02083;stroke-linecap:butt;stroke-linejoin:miter;stroke:rgb(0%,0%,0%);stroke-opacity:1;stroke-miterlimit:8;" d="M 2625.51304 605.160554 C 2636.994717 604.610135 2648.673674 605.160554 2660.431542 606.969076 C 2732.635904 618.095414 2787.400742 672.390372 2802.630733 739.541558 L 2804.445706 752.90889 L 2817.505621 779.446976 C 2823.976394 789.669054 2831.275742 798.672345 2838.890737 806.220956 L 2843.309802 809.602105 L 2857.198291 814.713144 C 2916.066547 843.492224 2948.617693 910.525463 2931.612185 976.457863 C 2914.606677 1042.350948 2853.686713 1085.283673 2788.229317 1081.981156 L 2787.676933 1081.902525 L 2785.743593 1083.081995 C 2745.77473 1099.751845 2674.24112 1091.338288 2601.878934 1057.762695 L 2578.323741 1045.496202 L 2558.477406 1040.345848 C 2483.195481 1012.471029 2435.25652 934.625977 2447.961331 852.18099 L 2463.506969 751.375579 C 2476.211781 668.891276 2545.299123 609.092122 2625.51304 605.160554 Z M 2625.51304 605.160554 " transform="matrix(0.0990028,0,0,0.099356,-152.761396,-59.216191)"/>
<path style=" stroke:none;fill-rule:evenodd;fill:rgb(25.098039%,25.098039%,25.098039%);fill-opacity:1;" d="M 91.820312 26.609375 C 89.769531 21.519531 93.699219 15.128906 100.589844 12.332031 C 107.484375 9.539062 114.730469 11.402344 116.78125 16.492188 C 118.828125 21.582031 114.902344 27.972656 108.007812 30.765625 C 101.117188 33.558594 93.867188 31.699219 91.820312 26.609375 Z M 91.820312 26.609375 "/>
<path style="fill-rule:evenodd;fill:rgb(98.431373%,98.431373%,98.431373%);fill-opacity:1;stroke-width:10.3125;stroke-linecap:butt;stroke-linejoin:miter;stroke:rgb(0%,0%,0%);stroke-opacity:1;stroke-miterlimit:8;" d="M 35.424221 466.018758 L 28.830272 462.452123 L 23.706514 450.43862 C 3.762025 391.083324 -4.510978 320.928651 2.410682 246.865014 C 4.759359 222.177053 8.640827 198.221953 13.956408 175.199471 L 33.88428 109.45436 L 35.449941 112.132886 C 175.568214 -163.152492 722.022128 112.137843 35.424221 466.018758 Z M 35.424221 466.018758 " transform="matrix(0.0315931,0.0941614,0.0938267,-0.0317058,61.069907,12.658653)"/>
<path style=" stroke:none;fill-rule:evenodd;fill:rgb(25.098039%,25.098039%,25.098039%);fill-opacity:1;" d="M 88.601562 3.160156 L 89.40625 3.730469 C 90.175781 4.546875 90.785156 5.527344 91.175781 6.648438 C 92.734375 11.117188 90.1875 16.082031 85.484375 17.738281 C 84.308594 18.152344 83.109375 18.320312 81.945312 18.265625 L 80.917969 18.125 L 80.078125 19.105469 C 79.347656 19.703125 78.488281 20.199219 77.523438 20.539062 C 74.140625 21.726562 70.597656 20.644531 68.984375 18.121094 L 68.945312 18.035156 L 69.742188 16.40625 C 70.601562 14.90625 71.6875 13.457031 73.023438 12.085938 L 72.722656 12.023438 L 78.265625 8.0625 C 80.253906 6.832031 82.378906 5.707031 84.621094 4.703125 Z M 88.601562 3.160156 "/>
<path style=" stroke:none;fill-rule:evenodd;fill:rgb(25.098039%,25.098039%,25.098039%);fill-opacity:1;" d="M 78.539062 24.042969 C 79.539062 24.042969 80.394531 24.8125 80.757812 25.910156 L 80.769531 25.972656 L 81.675781 25.351562 C 82.289062 25.085938 82.964844 24.941406 83.671875 24.941406 C 86.507812 24.941406 88.804688 27.273438 88.804688 30.15625 C 88.804688 33.035156 86.507812 35.371094 83.671875 35.371094 C 81.546875 35.371094 79.722656 34.058594 78.945312 32.183594 L 78.539062 30.15625 C 77.210938 30.15625 76.132812 28.789062 76.132812 27.101562 C 76.132812 25.414062 77.210938 24.042969 78.539062 24.042969 Z M 78.539062 24.042969 "/>
<path style=" stroke:none;fill-rule:evenodd;fill:rgb(0%,0%,0%);fill-opacity:1;" d="M 127.515625 32.289062 C 127.515625 29.875 130.085938 27.917969 133.257812 27.917969 C 136.429688 27.917969 139 29.875 139 32.289062 C 139 34.703125 136.429688 36.664062 133.257812 36.664062 C 130.085938 36.664062 127.515625 34.703125 127.515625 32.289062 Z M 127.515625 32.289062 "/>
<path style="fill-rule:evenodd;fill:rgb(0%,0%,0%);fill-opacity:1;stroke-width:4.58333;stroke-linecap:butt;stroke-linejoin:miter;stroke:rgb(5.098039%,5.098039%,5.098039%);stroke-opacity:1;stroke-miterlimit:8;" d="M 2607.481677 814.988354 C 2607.481677 797.060402 2621.843638 782.5136 2639.480441 782.5136 C 2657.1567 782.5136 2671.51866 797.060402 2671.51866 814.988354 C 2671.51866 832.955621 2657.1567 847.502423 2639.480441 847.502423 C 2621.843638 847.502423 2607.481677 832.955621 2607.481677 814.988354 Z M 2607.481677 814.988354 " transform="matrix(0.0990028,0,0,0.099356,-152.761396,-59.216191)"/>
<path style=" stroke:none;fill-rule:evenodd;fill:rgb(75.294118%,0%,0%);fill-opacity:1;" d="M 106.625 21.710938 C 106.625 20.585938 107.511719 19.671875 108.605469 19.671875 C 109.699219 19.671875 110.585938 20.585938 110.585938 21.710938 C 110.585938 22.835938 109.699219 23.746094 108.605469 23.746094 C 107.511719 23.746094 106.625 22.835938 106.625 21.710938 Z M 106.625 21.710938 "/>
<path style=" stroke:none;fill-rule:evenodd;fill:rgb(100%,47.45098%,47.45098%);fill-opacity:1;" d="M 107.914062 21.558594 C 107.914062 21.121094 108.289062 20.765625 108.753906 20.765625 C 109.21875 20.765625 109.597656 21.121094 109.597656 21.558594 C 109.597656 22 109.21875 22.355469 108.753906 22.355469 C 108.289062 22.355469 107.914062 22 107.914062 21.558594 Z M 107.914062 21.558594 "/>
<path style="fill-rule:evenodd;fill:rgb(100%,27.843137%,27.843137%);fill-opacity:1;stroke-width:5.72917;stroke-linecap:butt;stroke-linejoin:miter;stroke:rgb(75.294118%,0%,0%);stroke-opacity:1;stroke-miterlimit:8;" d="M 2813.323291 972.998083 C 2854.870391 972.998083 2890.538557 988.291884 2905.768548 1010.112088 L 2909.003934 1016.441913 L 2893.971223 1034.645074 C 2866.312612 1062.91305 2827.290692 1078.835901 2786.493255 1076.75217 L 2785.940872 1076.673539 L 2784.007531 1077.853009 C 2779.036084 1079.93674 2773.551709 1081.627315 2767.633318 1082.924732 L 2760.057779 1083.986256 L 2742.38152 1076.791486 C 2724.23179 1065.783095 2712.986848 1050.567925 2712.986848 1033.819444 C 2712.986848 1000.204536 2757.927158 972.998083 2813.323291 972.998083 Z M 2813.323291 972.998083 " transform="matrix(0.0990028,0,0,0.099356,-152.761396,-59.216191)"/>
<path style=" stroke:none;fill-rule:evenodd;fill:rgb(100%,100%,100%);fill-opacity:1;" d="M 121.675781 37.953125 L 121.503906 43.417969 L 119.199219 39.003906 L 119.269531 38.945312 Z M 121.675781 37.953125 "/>
<path style=" stroke:none;fill-rule:evenodd;fill:rgb(100%,100%,100%);fill-opacity:1;" d="M 127.417969 37.65625 L 128.613281 37.765625 L 130.089844 38.1875 L 128.824219 42.921875 Z M 127.417969 37.65625 "/>
</g>
</svg>
