<?xml version="1.0" encoding="UTF-8"?>
<svg xmlns="http://www.w3.org/2000/svg" xmlns:xlink="http://www.w3.org/1999/xlink" width="140px" height="px" viewBox="0 0 139 108" version="1.1">
<g id="surface1">
<path style="fill-rule:evenodd;fill:rgb(98.431373%,98.431373%,98.431373%);fill-opacity:1;stroke-width:8.02083;stroke-linecap:butt;stroke-linejoin:miter;stroke:rgb(0%,0%,0%);stroke-opacity:1;stroke-miterlimit:8;" d="M 1643.454811 1130.707465 C 1566.949753 1104.6739 1528.519672 1014.30136 1557.598696 928.829716 C 1586.67772 843.358073 1672.257644 795.172454 1748.762702 821.206019 C 1650.438512 859.276186 1593.700877 975.251013 1621.990782 1080.24783 C 1626.843862 1098.243924 1634.064299 1115.259838 1643.454811 1130.707465 Z M 1643.454811 1130.707465 " transform="matrix(0.0990028,0,0,0.099631,-152.761396,-59.380074)"/>
<path style=" stroke:none;fill-rule:evenodd;fill:rgb(25.098039%,25.098039%,25.098039%);fill-opacity:1;" d="M 11 28.074219 C 11.414062 28.007812 11.800781 28.0625 12.132812 28.246094 L 12.367188 28.523438 L 10.296875 31.308594 C 9.503906 32.652344 8.839844 34.089844 8.324219 35.605469 C 7.8125 37.125 7.464844 38.671875 7.28125 40.222656 L 7.238281 43.402344 L 6.824219 43.570312 C 6.414062 43.636719 6.027344 43.582031 5.695312 43.398438 C 4.363281 42.652344 4.394531 40.046875 5.761719 37.578125 L 6.558594 36.445312 L 6.445312 36.308594 C 5.957031 35.144531 6.226562 33.21875 7.253906 31.367188 C 8.277344 29.515625 9.761719 28.269531 11 28.074219 Z M 11 28.074219 "/>
<path style="fill-rule:evenodd;fill:rgb(100%,100%,100%);fill-opacity:1;stroke-width:9.16667;stroke-linecap:butt;stroke-linejoin:miter;stroke:rgb(0%,0%,0%);stroke-opacity:1;stroke-miterlimit:8;" d="M 1785.732914 1209.396267 L 1813.273156 1219.433304 C 1833.119492 1226.647425 1843.338579 1248.564236 1836.118143 1268.36386 L 1747.145009 1512.820602 L 1747.066097 1515.055411 C 1748.762702 1535.639178 1756.811713 1555.595631 1769.989996 1572.376302 L 1774.330148 1576.924334 L 1779.143772 1579.90408 C 1788.179182 1588.294416 1791.848584 1601.624855 1787.350607 1613.975116 C 1781.353305 1630.44213 1763.164119 1638.91088 1746.671538 1632.912182 L 1638.917379 1593.705006 C 1622.464254 1587.706308 1613.981228 1569.514178 1619.97853 1553.047164 L 1622.227518 1549.322483 L 1622.858813 1545.244936 L 1736.768098 1232.214844 C 1743.988534 1212.41522 1765.886578 1202.182147 1785.732914 1209.396267 Z M 1785.732914 1209.396267 " transform="matrix(0.0990028,0,0,0.099631,-152.761396,-59.380074)"/>
<path style="fill-rule:evenodd;fill:rgb(25.098039%,25.098039%,25.098039%);fill-opacity:1;stroke-width:4.58333;stroke-linecap:butt;stroke-linejoin:miter;stroke:rgb(0%,0%,0%);stroke-opacity:1;stroke-miterlimit:8;" d="M 1696.5625 1341.171586 L 1702.283611 1345.915654 C 1717.474146 1361.363281 1726.706835 1380.300347 1727.456497 1401.001736 C 1728.876911 1442.443721 1695.891749 1479.141638 1647.676596 1496.039931 L 1639.39085 1498.235532 Z M 1696.5625 1341.171586 " transform="matrix(0.0990028,0,0,0.099631,-152.761396,-59.380074)"/>
<path style="fill-rule:evenodd;fill:rgb(100%,100%,100%);fill-opacity:1;stroke-width:9.16667;stroke-linecap:butt;stroke-linejoin:miter;stroke:rgb(0%,0%,0%);stroke-opacity:1;stroke-miterlimit:8;" d="M 2494.124775 1212.454427 L 2521.665018 1222.491464 C 2541.471897 1229.705584 2551.690985 1251.622396 2544.510004 1271.42202 L 2455.536871 1515.878762 L 2455.457959 1518.113571 C 2457.154564 1538.697338 2465.203575 1558.614583 2478.381857 1575.434462 L 2482.72201 1579.982494 L 2487.535634 1582.923032 C 2496.571043 1591.352575 2500.240445 1604.683015 2495.742469 1617.033275 C 2489.745166 1633.500289 2471.55598 1641.969039 2455.063399 1635.970341 L 2347.30924 1596.763166 C 2330.856115 1590.764468 2322.373089 1572.572338 2328.330935 1556.105324 L 2330.619379 1552.380642 L 2331.211219 1548.303096 L 2445.15996 1235.273003 C 2452.380396 1215.47338 2474.27844 1205.240307 2494.124775 1212.454427 Z M 2494.124775 1212.454427 " transform="matrix(0.0990028,0,0,0.099631,-152.761396,-59.380074)"/>
<path style="fill-rule:evenodd;fill:rgb(98.431373%,98.431373%,98.431373%);fill-opacity:1;stroke-width:9.16667;stroke-linecap:butt;stroke-linejoin:miter;stroke:rgb(0%,0%,0%);stroke-opacity:1;stroke-miterlimit:8;" d="M 2578.363197 894.288194 C 2588.463916 895.229167 2598.209532 897.738426 2607.481677 901.855179 C 2681.856115 934.946036 2698.033049 1060.801071 2643.66277 1183.009838 C 2602.904789 1274.676215 2534.014726 1338.231047 2470.766862 1350.346065 L 2466.229429 1350.581308 L 2456.325989 1353.639468 C 2445.041592 1355.952691 2433.362635 1357.168113 2421.407487 1357.168113 L 1749.196718 1357.168113 C 1665.471223 1357.168113 1595.594762 1297.769242 1579.457284 1218.80599 L 1575.945706 1183.911603 L 1579.457284 1148.978009 C 1584.073629 1126.433883 1593.069582 1105.458044 1605.537657 1087.030671 L 1615.559465 1074.83724 L 1618.873763 1065.780382 C 1663.064411 1006.342303 1854.149505 961.646123 2083.151754 961.646123 C 2205.820256 961.646123 2317.638377 974.466869 2401.797887 995.521123 L 2411.701326 998.657697 L 2423.340827 981.837818 C 2469.819919 923.22309 2528.017424 889.544126 2578.363197 894.288194 Z M 2578.363197 894.288194 " transform="matrix(0.0990028,0,0,0.099631,-152.761396,-59.380074)"/>
<path style=" stroke:none;fill-rule:evenodd;fill:rgb(25.098039%,25.098039%,25.098039%);fill-opacity:1;" d="M 111.46875 48.023438 L 111.675781 48.042969 L 111.605469 48.761719 C 111.113281 51.703125 110.203125 54.765625 108.859375 57.808594 C 108.355469 58.953125 107.808594 60.046875 107.222656 61.097656 L 105.507812 63.863281 L 104.894531 63.375 C 103.210938 61.746094 102.171875 59.496094 102.171875 57.015625 C 102.171875 52.046875 106.332031 48.023438 111.46875 48.023438 Z M 111.46875 48.023438 "/>
<path style=" stroke:none;fill-rule:evenodd;fill:rgb(25.098039%,25.098039%,25.098039%);fill-opacity:1;" d="M 86.765625 51.117188 C 90.738281 51.117188 93.957031 53.277344 93.957031 55.941406 C 93.957031 58.601562 90.738281 60.761719 86.765625 60.761719 C 86.269531 60.761719 85.78125 60.726562 85.316406 60.664062 L 84.175781 60.425781 L 84 61.214844 C 83.828125 61.6875 83.589844 62.175781 83.277344 62.648438 C 82.042969 64.539062 80.191406 65.507812 79.136719 64.8125 C 78.085938 64.117188 78.234375 62.019531 79.46875 60.128906 C 79.777344 59.65625 80.125 59.238281 80.488281 58.894531 L 80.820312 58.652344 L 80.800781 58.636719 C 80.023438 57.867188 79.570312 56.9375 79.570312 55.941406 C 79.570312 53.277344 82.792969 51.117188 86.765625 51.117188 Z M 86.765625 51.117188 "/>
<path style=" stroke:none;fill-rule:evenodd;fill:rgb(25.098039%,25.098039%,25.098039%);fill-opacity:1;" d="M 62.519531 47.160156 C 63.1875 45.105469 66.109375 44.222656 69.046875 45.1875 C 71.988281 46.15625 73.828125 48.609375 73.15625 50.664062 C 72.488281 52.722656 69.566406 53.605469 66.625 52.636719 C 63.691406 51.667969 61.851562 49.21875 62.519531 47.160156 Z M 62.519531 47.160156 "/>
<path style=" stroke:none;fill-rule:evenodd;fill:rgb(25.098039%,25.098039%,25.098039%);fill-opacity:1;" d="M 20.992188 40.378906 L 20.785156 41.734375 C 20.0625 43.746094 18.550781 45.570312 16.421875 46.726562 L 16.277344 46.789062 L 17.105469 48.972656 C 17.722656 51.632812 17.125 54.054688 15.417969 54.980469 C 13.707031 55.910156 11.367188 55.082031 9.5 53.101562 L 8.917969 52.398438 L 8.390625 52.800781 C 7.472656 53.300781 6.386719 53.324219 5.277344 52.960938 L 4.300781 52.527344 L 4.414062 52.175781 C 4.847656 51.144531 5.375 50.160156 5.992188 49.242188 L 6.988281 48.03125 L 7.316406 47.125 C 8.957031 44.90625 12.644531 42.890625 17.804688 41.242188 Z M 20.992188 40.378906 "/>
<path style=" stroke:none;fill-rule:evenodd;fill:rgb(25.098039%,25.098039%,25.098039%);fill-opacity:1;" d="M 40.097656 61.269531 C 42.5 61.433594 44.621094 62.414062 46.101562 63.871094 L 46.839844 64.945312 L 49.859375 64.691406 C 50.953125 64.65625 52.085938 64.675781 53.238281 64.753906 C 62.476562 65.390625 69.707031 69.636719 69.394531 74.234375 L 69 75.683594 L 36.914062 75.683594 L 34.644531 74.746094 C 32.21875 73.269531 30.703125 70.792969 30.886719 68.101562 C 31.167969 63.996094 35.289062 60.9375 40.097656 61.269531 Z M 40.097656 61.269531 "/>
<path style=" stroke:none;fill-rule:evenodd;fill:rgb(25.098039%,25.098039%,25.098039%);fill-opacity:1;" d="M 28.644531 47.703125 C 29.550781 48.125 30.136719 48.898438 30.195312 49.636719 L 30.191406 49.671875 L 31.164062 49.726562 C 31.785156 49.847656 32.433594 50.054688 33.074219 50.355469 C 35.644531 51.558594 37.152344 53.773438 36.441406 55.304688 C 35.734375 56.835938 33.078125 57.105469 30.511719 55.902344 C 28.585938 55 27.253906 53.527344 27.011719 52.203125 L 27.144531 50.953125 C 25.9375 50.386719 25.296875 49.203125 25.714844 48.304688 C 26.128906 47.410156 27.441406 47.136719 28.644531 47.703125 Z M 28.644531 47.703125 "/>
<path style=" stroke:none;fill-rule:evenodd;fill:rgb(25.098039%,25.098039%,25.098039%);fill-opacity:1;" d="M 48.929688 36.367188 C 51.964844 36.367188 54.9375 36.445312 57.8125 36.597656 L 59.796875 36.757812 L 59.761719 36.921875 C 58.203125 40.226562 54.5625 42.542969 50.316406 42.542969 C 46.070312 42.542969 42.425781 40.226562 40.871094 36.921875 L 40.789062 36.566406 Z M 48.929688 36.367188 "/>
<path style="fill-rule:evenodd;fill:rgb(100%,100%,100%);fill-opacity:1;stroke-width:9.16667;stroke-linecap:butt;stroke-linejoin:miter;stroke:rgb(0%,0%,0%);stroke-opacity:1;stroke-miterlimit:8;" d="M 1707.215603 1266.325087 L 1736.294627 1262.247541 C 1757.166817 1259.307002 1776.460769 1273.852865 1779.419964 1294.750289 L 1815.601057 1552.341435 L 1816.587455 1554.341001 C 1827.753485 1571.748987 1844.246066 1585.549913 1863.776754 1594.214699 L 1869.695144 1596.214265 L 1875.337343 1596.527922 C 1887.292491 1599.742911 1896.761915 1609.779948 1898.616344 1622.79673 C 1901.023156 1640.126302 1888.94964 1656.162037 1871.589029 1658.592882 L 1758.034847 1674.58941 C 1740.674236 1677.020255 1724.655126 1664.905237 1722.208858 1647.575666 L 1722.445594 1643.223669 L 1721.104092 1639.342159 L 1674.743368 1309.45298 C 1671.784173 1288.594763 1686.343413 1269.265625 1707.215603 1266.325087 Z M 1707.215603 1266.325087 " transform="matrix(0.0990028,0,0,0.099631,-152.761396,-59.380074)"/>
<path style=" stroke:none;fill-rule:evenodd;fill:rgb(25.098039%,25.098039%,25.098039%);fill-opacity:1;" d="M 22.117188 89.410156 C 22.921875 89.414062 24.148438 89.832031 25.613281 90.578125 L 26.523438 91.105469 L 27.027344 94.707031 L 27.125 94.90625 C 28.230469 96.636719 29.859375 98.015625 31.792969 98.875 L 32.382812 99.074219 L 32.941406 99.109375 C 33.53125 99.269531 34.0625 99.597656 34.46875 100.050781 L 34.683594 100.375 L 34.296875 101.191406 C 33.613281 102.117188 32.492188 102.945312 30.972656 103.664062 L 28.960938 104.390625 L 27.976562 103.015625 C 26.875 100.992188 26.613281 99.199219 27.460938 98.121094 L 27.53125 98.066406 L 24.941406 95.789062 C 22.128906 93.042969 20.566406 90.59375 21.242188 89.726562 C 21.414062 89.511719 21.710938 89.40625 22.117188 89.410156 Z M 22.117188 89.410156 "/>
<path style="fill-rule:evenodd;fill:rgb(100%,100%,100%);fill-opacity:1;stroke-width:9.16667;stroke-linecap:butt;stroke-linejoin:miter;stroke:rgb(0%,0%,0%);stroke-opacity:1;stroke-miterlimit:8;" d="M 2405.112185 1266.325087 L 2434.151754 1262.247541 C 2455.063399 1259.307002 2474.357352 1273.852865 2477.277091 1294.750289 L 2513.497639 1552.341435 L 2514.484038 1554.341001 C 2525.650067 1571.748987 2542.142648 1585.549913 2561.63388 1594.214699 L 2567.591727 1596.214265 L 2573.233925 1596.527922 C 2585.189074 1599.742911 2594.658498 1609.779948 2596.473471 1622.79673 C 2598.919739 1640.126302 2586.846223 1656.162037 2569.485612 1658.592882 L 2455.891974 1674.58941 C 2438.570818 1677.020255 2422.512253 1664.905237 2420.105441 1647.575666 L 2420.342176 1643.223669 L 2418.961219 1639.342159 L 2372.600495 1309.45298 C 2369.680755 1288.594763 2384.239996 1269.265625 2405.112185 1266.325087 Z M 2405.112185 1266.325087 " transform="matrix(0.0990028,0,0,0.099631,-152.761396,-59.380074)"/>
<path style=" stroke:none;fill-rule:evenodd;fill:rgb(25.098039%,25.098039%,25.098039%);fill-opacity:1;" d="M 93.40625 78.96875 L 93.578125 79.003906 L 95.851562 95.296875 L 94.851562 95.941406 C 93.6875 96.402344 92.347656 96.417969 91.105469 95.875 L 88.652344 94.804688 C 86.171875 93.722656 85.035156 90.820312 86.113281 88.324219 L 88.871094 81.933594 C 89.675781 80.0625 91.5 78.953125 93.40625 78.96875 Z M 93.40625 78.96875 "/>
<path style=" stroke:none;fill-rule:evenodd;fill:rgb(98.431373%,98.431373%,98.431373%);fill-opacity:1;" d="M 5.246094 63.714844 C 5.246094 59.945312 10.234375 56.890625 16.386719 56.890625 C 22.535156 56.890625 27.523438 59.945312 27.523438 63.714844 C 27.523438 67.484375 22.535156 70.539062 16.386719 70.539062 C 10.234375 70.539062 5.246094 67.484375 5.246094 63.714844 Z M 5.246094 63.714844 "/>
<path style=" stroke:none;fill-rule:evenodd;fill:rgb(98.431373%,98.431373%,98.431373%);fill-opacity:1;" d="M 76.132812 67 C 76.132812 65.214844 81.140625 63.765625 87.320312 63.765625 C 93.5 63.765625 98.507812 65.214844 98.507812 67 C 98.507812 68.789062 93.5 70.238281 87.320312 70.238281 C 81.140625 70.238281 76.132812 68.789062 76.132812 67 Z M 76.132812 67 "/>
<path style="fill-rule:evenodd;fill:rgb(25.098039%,25.098039%,25.098039%);fill-opacity:1;stroke-width:4.58333;stroke-linecap:butt;stroke-linejoin:miter;stroke:rgb(0%,0%,0%);stroke-opacity:1;stroke-miterlimit:8;" d="M 2729.361061 790.663628 C 2675.030238 715.895544 2657.748539 635.795284 2690.773156 611.839699 C 2723.797774 587.844907 2794.581722 629.051649 2848.912545 703.819734 C 2903.243368 778.627025 2920.525067 858.727286 2887.50045 882.68287 C 2854.475832 906.677662 2783.691884 865.47092 2729.361061 790.663628 Z M 2729.361061 790.663628 " transform="matrix(0.0990028,0,0,0.099631,-152.761396,-59.380074)"/>
<path style="fill-rule:evenodd;fill:rgb(0%,0%,0%);fill-opacity:1;stroke-width:4.58333;stroke-linecap:butt;stroke-linejoin:miter;stroke:rgb(5.098039%,5.098039%,5.098039%);stroke-opacity:1;stroke-miterlimit:8;" d="M 2789.491906 778.509404 C 2789.491906 760.826968 2804.051147 746.516348 2822.003597 746.516348 C 2839.956048 746.516348 2854.515288 760.826968 2854.515288 778.509404 C 2854.515288 796.19184 2839.956048 810.502459 2822.003597 810.502459 C 2804.051147 810.502459 2789.491906 796.19184 2789.491906 778.509404 Z M 2789.491906 778.509404 " transform="matrix(0.0990028,0,0,0.099631,-152.761396,-59.380074)"/>
<path style=" stroke:none;fill-rule:evenodd;fill:rgb(100%,100%,100%);fill-opacity:1;" d="M 126.425781 17.734375 C 126.425781 17.292969 126.78125 16.9375 127.21875 16.9375 C 127.65625 16.9375 128.011719 17.292969 128.011719 17.734375 C 128.011719 18.175781 127.65625 18.53125 127.21875 18.53125 C 126.78125 18.53125 126.425781 18.175781 126.425781 17.734375 Z M 126.425781 17.734375 "/>
<path style="fill-rule:evenodd;fill:rgb(98.431373%,98.431373%,98.431373%);fill-opacity:1;stroke-width:8.02083;stroke-linecap:butt;stroke-linejoin:miter;stroke:rgb(0%,0%,0%);stroke-opacity:1;stroke-miterlimit:8;" d="M 2625.51304 605.174479 C 2636.994717 604.586372 2648.673674 605.174479 2660.431542 606.978009 C 2732.635904 618.112847 2787.400742 672.375579 2802.630733 739.537471 L 2804.445706 752.907118 L 2817.505621 779.450376 C 2823.976394 789.644242 2831.275742 798.661892 2838.890737 806.228877 L 2843.309802 809.600694 L 2857.198291 814.736834 C 2916.066547 843.475694 2948.617693 910.519965 2931.612185 976.466435 C 2914.606677 1042.373698 2853.686713 1085.305556 2788.229317 1081.972946 L 2787.676933 1081.894531 L 2785.743593 1083.070747 C 2745.77473 1099.773003 2674.24112 1091.304253 2601.878934 1057.782118 L 2578.323741 1045.471065 L 2558.477406 1040.334925 C 2483.195481 1012.458623 2435.25652 934.632378 2447.961331 852.179688 L 2463.506969 751.378038 C 2476.211781 668.88614 2545.299123 609.095197 2625.51304 605.174479 Z M 2625.51304 605.174479 " transform="matrix(0.0990028,0,0,0.099631,-152.761396,-59.380074)"/>
<path style=" stroke:none;fill-rule:evenodd;fill:rgb(25.098039%,25.098039%,25.098039%);fill-opacity:1;" d="M 91.820312 26.683594 C 89.769531 21.578125 93.699219 15.167969 100.589844 12.367188 C 107.484375 9.566406 114.730469 11.433594 116.78125 16.535156 C 118.828125 21.640625 114.902344 28.050781 108.007812 30.851562 C 101.117188 33.652344 93.867188 31.785156 91.820312 26.683594 Z M 91.820312 26.683594 "/>
<path style="fill-rule:evenodd;fill:rgb(98.431373%,98.431373%,98.431373%);fill-opacity:1;stroke-width:10.3125;stroke-linecap:butt;stroke-linejoin:miter;stroke:rgb(0%,0%,0%);stroke-opacity:1;stroke-miterlimit:8;" d="M 35.429295 466.017049 L 28.811556 462.458425 L 23.690472 450.444022 C 3.783037 391.076249 -4.528014 320.934388 2.426142 246.859809 C 4.74839 222.180747 8.637399 198.223107 13.957745 175.19902 L 33.892815 109.451486 L 35.456831 112.130566 C 175.55536 -163.148163 721.999196 112.145564 35.429295 466.017049 Z M 35.429295 466.017049 " transform="matrix(0.0315931,0.094422,0.0938267,-0.0317935,61.069907,12.693686)"/>
<path style=" stroke:none;fill-rule:evenodd;fill:rgb(25.098039%,25.098039%,25.098039%);fill-opacity:1;" d="M 88.601562 3.167969 L 89.40625 3.742188 C 90.175781 4.5625 90.785156 5.542969 91.175781 6.664062 C 92.734375 11.148438 90.1875 16.128906 85.484375 17.785156 C 84.308594 18.203125 83.109375 18.371094 81.945312 18.316406 L 80.917969 18.175781 L 80.078125 19.15625 C 79.347656 19.757812 78.488281 20.253906 77.523438 20.59375 C 74.140625 21.785156 70.597656 20.703125 68.984375 18.171875 L 68.945312 18.085938 L 69.742188 16.453125 C 70.601562 14.949219 71.6875 13.492188 73.023438 12.121094 L 72.722656 12.054688 L 78.265625 8.082031 C 80.253906 6.851562 82.378906 5.722656 84.621094 4.71875 Z M 88.601562 3.167969 "/>
<path style=" stroke:none;fill-rule:evenodd;fill:rgb(25.098039%,25.098039%,25.098039%);fill-opacity:1;" d="M 78.539062 24.109375 C 79.539062 24.109375 80.394531 24.882812 80.757812 25.980469 L 80.769531 26.042969 L 81.675781 25.421875 C 82.289062 25.15625 82.964844 25.007812 83.671875 25.007812 C 86.507812 25.007812 88.804688 27.351562 88.804688 30.238281 C 88.804688 33.128906 86.507812 35.46875 83.671875 35.46875 C 81.546875 35.46875 79.722656 34.152344 78.945312 32.273438 L 78.539062 30.238281 C 77.210938 30.238281 76.132812 28.867188 76.132812 27.175781 C 76.132812 25.484375 77.210938 24.109375 78.539062 24.109375 Z M 78.539062 24.109375 "/>
<path style=" stroke:none;fill-rule:evenodd;fill:rgb(0%,0%,0%);fill-opacity:1;" d="M 127.515625 32.378906 C 127.515625 29.957031 130.085938 27.996094 133.257812 27.996094 C 136.429688 27.996094 139 29.957031 139 32.378906 C 139 34.800781 136.429688 36.765625 133.257812 36.765625 C 130.085938 36.765625 127.515625 34.800781 127.515625 32.378906 Z M 127.515625 32.378906 "/>
<path style="fill-rule:evenodd;fill:rgb(0%,0%,0%);fill-opacity:1;stroke-width:4.58333;stroke-linecap:butt;stroke-linejoin:miter;stroke:rgb(5.098039%,5.098039%,5.098039%);stroke-opacity:1;stroke-miterlimit:8;" d="M 2611.506183 813.482205 C 2611.506183 795.838976 2625.828687 781.489149 2643.504946 781.489149 C 2661.181205 781.489149 2675.50371 795.838976 2675.50371 813.482205 C 2675.50371 831.164641 2661.181205 845.514468 2643.504946 845.514468 C 2625.828687 845.514468 2611.506183 831.164641 2611.506183 813.482205 Z M 2611.506183 813.482205 " transform="matrix(0.0990028,0,0,0.099631,-152.761396,-59.380074)"/>
<path style=" stroke:none;fill-rule:evenodd;fill:rgb(100%,100%,100%);fill-opacity:1;" d="M 108.707031 21.269531 C 108.707031 20.804688 109.058594 20.425781 109.496094 20.425781 C 109.933594 20.425781 110.289062 20.804688 110.289062 21.269531 C 110.289062 21.738281 109.933594 22.117188 109.496094 22.117188 C 109.058594 22.117188 108.707031 21.738281 108.707031 21.269531 Z M 108.707031 21.269531 "/>
<path style="fill:none;stroke-width:10.3125;stroke-linecap:round;stroke-linejoin:miter;stroke:rgb(0%,0%,0%);stroke-opacity:1;stroke-miterlimit:8;" d="M 2897.995728 1037.433594 C 2864.852743 1041.903212 2831.749213 1046.37283 2795.410297 1039.315538 C 2759.07138 1032.219039 2719.536533 1013.595631 2680.001686 995.011429 " transform="matrix(0.0990028,0,0,0.099631,-152.761396,-59.380074)"/>
</g>
</svg>
