<?xml version="1.0" encoding="UTF-8"?>
<svg xmlns="http://www.w3.org/2000/svg" xmlns:xlink="http://www.w3.org/1999/xlink" width="140px" height="px" viewBox="0 0 139 107" version="1.1">
<g id="surface1">
<path style="fill-rule:evenodd;fill:rgb(98.431373%,98.431373%,98.431373%);fill-opacity:1;stroke-width:8.02083;stroke-linecap:butt;stroke-linejoin:miter;stroke:rgb(0%,0%,0%);stroke-opacity:1;stroke-miterlimit:8;" d="M 1643.454811 1130.710353 C 1566.949753 1104.696992 1528.519672 1014.299577 1557.598696 928.821481 C 1586.67772 843.382739 1672.257644 795.173408 1748.762702 821.226124 C 1650.438512 859.28198 1593.700877 975.259857 1621.990782 1080.257812 C 1626.843862 1098.242845 1634.064299 1115.244013 1643.454811 1130.710353 Z M 1643.454811 1130.710353 " transform="matrix(0.0990028,0,0,0.0992579,-152.761396,-59.157699)"/>
<path style=" stroke:none;fill-rule:evenodd;fill:rgb(25.098039%,25.098039%,25.098039%);fill-opacity:1;" d="M 11 27.96875 C 11.414062 27.90625 11.800781 27.957031 12.132812 28.140625 L 12.367188 28.417969 L 10.296875 31.191406 C 9.503906 32.527344 8.839844 33.964844 8.324219 35.472656 C 7.8125 36.984375 7.464844 38.527344 7.28125 40.070312 L 7.238281 43.238281 L 6.824219 43.40625 C 6.414062 43.472656 6.027344 43.421875 5.695312 43.234375 C 4.363281 42.492188 4.394531 39.898438 5.761719 37.4375 L 6.558594 36.308594 L 6.445312 36.171875 C 5.957031 35.015625 6.226562 33.09375 7.253906 31.25 C 8.277344 29.40625 9.761719 28.164062 11 27.96875 Z M 11 27.96875 "/>
<path style="fill-rule:evenodd;fill:rgb(100%,100%,100%);fill-opacity:1;stroke-width:9.16667;stroke-linecap:butt;stroke-linejoin:miter;stroke:rgb(0%,0%,0%);stroke-opacity:1;stroke-miterlimit:8;" d="M 1803.9221 1209.498175 L 1833.395683 1209.498175 C 1854.583521 1209.498175 1871.786308 1226.578052 1871.786308 1247.672094 L 1871.786308 1507.569582 L 1872.496515 1509.694728 C 1881.137365 1528.427497 1895.617693 1544.405447 1913.846335 1555.66085 L 1919.488534 1558.494378 L 1925.012365 1559.596305 C 1936.454586 1564.436916 1944.503597 1575.692319 1944.503597 1588.797386 C 1944.503597 1606.310164 1930.220549 1620.517158 1912.623201 1620.517158 L 1797.372415 1620.517158 C 1779.775067 1620.517158 1765.492019 1606.310164 1765.492019 1588.797386 L 1766.360049 1584.547094 L 1765.531475 1580.493575 L 1765.531475 1247.672094 C 1765.531475 1226.578052 1782.734263 1209.498175 1803.9221 1209.498175 Z M 1803.9221 1209.498175 " transform="matrix(0.0990028,0,0,0.0992579,-152.761396,-59.157699)"/>
<path style="fill-rule:evenodd;fill:rgb(25.098039%,25.098039%,25.098039%);fill-opacity:1;stroke-width:4.58333;stroke-linecap:butt;stroke-linejoin:miter;stroke:rgb(0%,0%,0%);stroke-opacity:1;stroke-miterlimit:8;" d="M 1764.90018 1363.099007 L 1771.923336 1365.617699 C 1791.49348 1374.905374 1806.644559 1389.545269 1814.377923 1408.750292 C 1829.884105 1447.160339 1811.458183 1492.969042 1771.923336 1525.318487 L 1764.90018 1530.237807 Z M 1764.90018 1363.099007 " transform="matrix(0.0990028,0,0,0.0992579,-152.761396,-59.157699)"/>
<path style="fill-rule:evenodd;fill:rgb(100%,100%,100%);fill-opacity:1;stroke-width:9.16667;stroke-linecap:butt;stroke-linejoin:miter;stroke:rgb(0%,0%,0%);stroke-opacity:1;stroke-miterlimit:8;" d="M 2521.704474 1217.48715 L 2551.020234 1217.48715 C 2572.089703 1217.48715 2589.174123 1234.606381 2589.174123 1255.739778 L 2589.174123 1516.306294 L 2589.88433 1518.392085 C 2598.485724 1537.203563 2612.88714 1553.220867 2630.997415 1564.515625 L 2636.600157 1567.349153 L 2642.123988 1568.451081 C 2653.526754 1573.291691 2661.496853 1584.586449 2661.496853 1597.73087 C 2661.496853 1615.283002 2647.292716 1629.489997 2629.813737 1629.489997 L 2515.194245 1629.489997 C 2497.675809 1629.489997 2483.511129 1615.283002 2483.511129 1597.73087 L 2484.379159 1593.480578 L 2483.550585 1589.427059 L 2483.550585 1255.739778 C 2483.550585 1234.606381 2500.635004 1217.48715 2521.704474 1217.48715 Z M 2521.704474 1217.48715 " transform="matrix(0.0990028,0,0,0.0992579,-152.761396,-59.157699)"/>
<path style="fill-rule:evenodd;fill:rgb(98.431373%,98.431373%,98.431373%);fill-opacity:1;stroke-width:9.16667;stroke-linecap:butt;stroke-linejoin:miter;stroke:rgb(0%,0%,0%);stroke-opacity:1;stroke-miterlimit:8;" d="M 2578.363197 894.307535 C 2588.463916 895.252044 2598.209532 897.731381 2607.481677 901.86361 C 2681.856115 934.921437 2698.033049 1060.816662 2643.66277 1183.012558 C 2602.904789 1274.66932 2534.014726 1338.226928 2470.766862 1350.348131 L 2466.229429 1350.584258 L 2456.325989 1353.653914 C 2445.041592 1355.975832 2433.362635 1357.156469 2421.407487 1357.156469 L 1749.196718 1357.156469 C 1665.471223 1357.156469 1595.594762 1297.770444 1579.457284 1218.825204 L 1575.945706 1183.917713 L 1579.457284 1148.970867 C 1584.073629 1126.420707 1593.069582 1105.444728 1605.537657 1087.026796 L 1615.559465 1074.866238 L 1618.873763 1065.775336 C 1663.064411 1006.349956 1854.149505 961.64318 2083.151754 961.64318 C 2205.820256 961.64318 2317.638377 974.472766 2401.797887 995.527453 L 2411.701326 998.675818 L 2423.340827 981.832068 C 2469.819919 923.233134 2528.017424 889.545634 2578.363197 894.307535 Z M 2578.363197 894.307535 " transform="matrix(0.0990028,0,0,0.0992579,-152.761396,-59.157699)"/>
<path style=" stroke:none;fill-rule:evenodd;fill:rgb(25.098039%,25.098039%,25.098039%);fill-opacity:1;" d="M 111.46875 47.84375 L 111.675781 47.863281 L 111.605469 48.578125 C 111.113281 51.507812 110.203125 54.5625 108.859375 57.59375 C 108.355469 58.730469 107.808594 59.824219 107.222656 60.867188 L 105.507812 63.625 L 104.894531 63.136719 C 103.210938 61.515625 102.171875 59.273438 102.171875 56.800781 C 102.171875 51.851562 106.332031 47.84375 111.46875 47.84375 Z M 111.46875 47.84375 "/>
<path style=" stroke:none;fill-rule:evenodd;fill:rgb(25.098039%,25.098039%,25.098039%);fill-opacity:1;" d="M 86.765625 50.925781 C 90.738281 50.925781 93.957031 53.078125 93.957031 55.730469 C 93.957031 58.382812 90.738281 60.535156 86.765625 60.535156 C 86.269531 60.535156 85.78125 60.5 85.316406 60.4375 L 84.175781 60.199219 L 84 60.984375 C 83.828125 61.457031 83.589844 61.941406 83.277344 62.414062 C 82.042969 64.296875 80.191406 65.261719 79.136719 64.570312 C 78.085938 63.875 78.234375 61.785156 79.46875 59.902344 C 79.777344 59.433594 80.125 59.019531 80.488281 58.671875 L 80.820312 58.433594 L 80.800781 58.417969 C 80.023438 57.648438 79.570312 56.726562 79.570312 55.730469 C 79.570312 53.078125 82.792969 50.925781 86.765625 50.925781 Z M 86.765625 50.925781 "/>
<path style=" stroke:none;fill-rule:evenodd;fill:rgb(25.098039%,25.098039%,25.098039%);fill-opacity:1;" d="M 62.519531 46.984375 C 63.1875 44.9375 66.109375 44.054688 69.046875 45.019531 C 71.988281 45.984375 73.828125 48.425781 73.15625 50.476562 C 72.488281 52.523438 69.566406 53.402344 66.625 52.441406 C 63.691406 51.476562 61.851562 49.035156 62.519531 46.984375 Z M 62.519531 46.984375 "/>
<path style=" stroke:none;fill-rule:evenodd;fill:rgb(25.098039%,25.098039%,25.098039%);fill-opacity:1;" d="M 20.992188 40.230469 L 20.785156 41.578125 C 20.0625 43.582031 18.550781 45.402344 16.421875 46.550781 L 16.277344 46.613281 L 17.105469 48.789062 C 17.722656 51.4375 17.125 53.851562 15.417969 54.777344 C 13.707031 55.703125 11.367188 54.875 9.5 52.902344 L 8.917969 52.199219 L 8.390625 52.605469 C 7.472656 53.101562 6.386719 53.125 5.277344 52.761719 L 4.300781 52.332031 L 4.414062 51.980469 C 4.847656 50.949219 5.375 49.972656 5.992188 49.058594 L 6.988281 47.851562 L 7.316406 46.949219 C 8.957031 44.738281 12.644531 42.730469 17.804688 41.085938 Z M 20.992188 40.230469 "/>
<path style=" stroke:none;fill-rule:evenodd;fill:rgb(25.098039%,25.098039%,25.098039%);fill-opacity:1;" d="M 40.097656 61.039062 C 42.5 61.203125 44.621094 62.183594 46.101562 63.628906 L 46.839844 64.703125 L 49.859375 64.449219 C 50.953125 64.414062 52.085938 64.433594 53.238281 64.511719 C 62.476562 65.144531 69.707031 69.375 69.394531 73.957031 L 69 75.398438 L 36.914062 75.398438 L 34.644531 74.464844 C 32.21875 72.992188 30.703125 70.527344 30.886719 67.84375 C 31.167969 63.753906 35.289062 60.710938 40.097656 61.039062 Z M 40.097656 61.039062 "/>
<path style=" stroke:none;fill-rule:evenodd;fill:rgb(25.098039%,25.098039%,25.098039%);fill-opacity:1;" d="M 28.644531 47.523438 C 29.550781 47.945312 30.136719 48.714844 30.195312 49.449219 L 30.191406 49.484375 L 31.164062 49.539062 C 31.785156 49.660156 32.433594 49.867188 33.074219 50.167969 C 35.644531 51.363281 37.152344 53.574219 36.441406 55.097656 C 35.734375 56.625 33.078125 56.890625 30.511719 55.695312 C 28.585938 54.792969 27.253906 53.328125 27.011719 52.007812 L 27.144531 50.761719 C 25.9375 50.199219 25.296875 49.019531 25.714844 48.125 C 26.128906 47.230469 27.441406 46.960938 28.644531 47.523438 Z M 28.644531 47.523438 "/>
<path style=" stroke:none;fill-rule:evenodd;fill:rgb(25.098039%,25.098039%,25.098039%);fill-opacity:1;" d="M 48.929688 36.230469 C 51.964844 36.230469 54.9375 36.308594 57.8125 36.460938 L 59.796875 36.621094 L 59.761719 36.785156 C 58.203125 40.074219 54.5625 42.382812 50.316406 42.382812 C 46.070312 42.382812 42.425781 40.074219 40.871094 36.785156 L 40.789062 36.425781 Z M 48.929688 36.230469 "/>
<path style="fill-rule:evenodd;fill:rgb(100%,100%,100%);fill-opacity:1;stroke-width:9.16667;stroke-linecap:butt;stroke-linejoin:miter;stroke:rgb(0%,0%,0%);stroke-opacity:1;stroke-miterlimit:8;" d="M 1690.683566 1257.510733 L 1720.038781 1257.510733 C 1741.108251 1257.510733 1758.153215 1274.629965 1758.153215 1295.763362 L 1758.153215 1556.290523 L 1758.863422 1558.415669 C 1767.504272 1577.227147 1781.905688 1593.205096 1800.015962 1604.539209 L 1805.618705 1607.333382 L 1811.142536 1608.474664 C 1822.505845 1613.27592 1830.5154 1624.570678 1830.5154 1637.715099 C 1830.5154 1655.267231 1816.311263 1669.513581 1798.792828 1669.513581 L 1684.173336 1669.513581 C 1666.694357 1669.513581 1652.49022 1655.267231 1652.49022 1637.715099 L 1653.358251 1633.464807 L 1652.529676 1629.411288 L 1652.529676 1295.763362 C 1652.529676 1274.629965 1669.614096 1257.510733 1690.683566 1257.510733 Z M 1690.683566 1257.510733 " transform="matrix(0.0990028,0,0,0.0992579,-152.761396,-59.157699)"/>
<path style=" stroke:none;fill-rule:evenodd;fill:rgb(25.098039%,25.098039%,25.098039%);fill-opacity:1;" d="M 17.285156 88.757812 C 18.085938 88.875 19.242188 89.457031 20.589844 90.402344 L 21.417969 91.050781 L 21.417969 94.679688 L 21.488281 94.886719 C 22.339844 96.753906 23.769531 98.34375 25.5625 99.464844 L 26.117188 99.746094 L 26.667969 99.855469 C 27.230469 100.09375 27.710938 100.496094 28.046875 100.996094 L 28.214844 101.347656 L 27.71875 102.105469 C 26.917969 102.921875 25.691406 103.582031 24.085938 104.082031 L 21.996094 104.519531 L 21.210938 103.023438 C 20.398438 100.867188 20.386719 99.0625 21.375 98.113281 L 21.453125 98.066406 L 19.203125 95.457031 C 16.796875 92.347656 15.585938 89.710938 16.378906 88.949219 C 16.578125 88.757812 16.886719 88.699219 17.285156 88.757812 Z M 17.285156 88.757812 "/>
<path style="fill-rule:evenodd;fill:rgb(100%,100%,100%);fill-opacity:1;stroke-width:9.16667;stroke-linecap:butt;stroke-linejoin:miter;stroke:rgb(0%,0%,0%);stroke-opacity:1;stroke-miterlimit:8;" d="M 2430.719087 1257.510733 L 2460.034847 1257.510733 C 2481.104317 1257.510733 2498.188737 1274.629965 2498.188737 1295.763362 L 2498.188737 1556.290523 L 2498.898943 1558.415669 C 2507.500337 1577.227147 2521.901754 1593.205096 2540.012028 1604.539209 L 2545.614771 1607.333382 L 2551.138602 1608.474664 C 2562.501911 1613.27592 2570.511466 1624.570678 2570.511466 1637.715099 C 2570.511466 1655.267231 2556.307329 1669.513581 2538.82835 1669.513581 L 2424.208858 1669.513581 C 2406.690423 1669.513581 2392.486286 1655.267231 2392.486286 1637.715099 L 2393.354317 1633.464807 L 2392.525742 1629.411288 L 2392.525742 1295.763362 C 2392.525742 1274.629965 2409.649618 1257.510733 2430.719087 1257.510733 Z M 2430.719087 1257.510733 " transform="matrix(0.0990028,0,0,0.0992579,-152.761396,-59.157699)"/>
<path style=" stroke:none;fill-rule:evenodd;fill:rgb(25.098039%,25.098039%,25.098039%);fill-opacity:1;" d="M 94.085938 78.777344 L 94.246094 78.839844 L 94.246094 95.230469 L 93.167969 95.722656 C 91.949219 96.015625 90.621094 95.84375 89.46875 95.136719 L 87.1875 93.738281 C 84.882812 92.320312 84.15625 89.300781 85.566406 86.992188 L 89.179688 81.070312 C 90.238281 79.335938 92.199219 78.492188 94.085938 78.777344 Z M 94.085938 78.777344 "/>
<path style=" stroke:none;fill-rule:evenodd;fill:rgb(98.431373%,98.431373%,98.431373%);fill-opacity:1;" d="M 5.246094 63.476562 C 5.246094 59.71875 10.234375 56.675781 16.386719 56.675781 C 22.535156 56.675781 27.523438 59.71875 27.523438 63.476562 C 27.523438 67.230469 22.535156 70.273438 16.386719 70.273438 C 10.234375 70.273438 5.246094 67.230469 5.246094 63.476562 Z M 5.246094 63.476562 "/>
<path style=" stroke:none;fill-rule:evenodd;fill:rgb(98.431373%,98.431373%,98.431373%);fill-opacity:1;" d="M 76.132812 66.75 C 76.132812 64.96875 81.140625 63.523438 87.320312 63.523438 C 93.5 63.523438 98.507812 64.96875 98.507812 66.75 C 98.507812 68.53125 93.5 69.976562 87.320312 69.976562 C 81.140625 69.976562 76.132812 68.53125 76.132812 66.75 Z M 76.132812 66.75 "/>
<path style="fill-rule:evenodd;fill:rgb(25.098039%,25.098039%,25.098039%);fill-opacity:1;stroke-width:4.58333;stroke-linecap:butt;stroke-linejoin:miter;stroke:rgb(0%,0%,0%);stroke-opacity:1;stroke-miterlimit:8;" d="M 2729.361061 790.686989 C 2675.030238 715.873978 2657.748539 635.826811 2690.773156 611.820532 C 2723.797774 587.853607 2794.581722 629.057827 2848.912545 703.831484 C 2903.243368 778.644495 2920.525067 858.691662 2887.50045 882.697941 C 2854.475832 906.664866 2783.691884 865.5 2729.361061 790.686989 Z M 2729.361061 790.686989 " transform="matrix(0.0990028,0,0,0.0992579,-152.761396,-59.157699)"/>
<path style="fill-rule:evenodd;fill:rgb(0%,0%,0%);fill-opacity:1;stroke-width:4.58333;stroke-linecap:butt;stroke-linejoin:miter;stroke:rgb(5.098039%,5.098039%,5.098039%);stroke-opacity:1;stroke-miterlimit:8;" d="M 2789.491906 778.487077 C 2789.491906 760.816881 2804.051147 746.491822 2822.003597 746.491822 C 2839.956048 746.491822 2854.515288 760.816881 2854.515288 778.487077 C 2854.515288 796.157272 2839.956048 810.482331 2822.003597 810.482331 C 2804.051147 810.482331 2789.491906 796.157272 2789.491906 778.487077 Z M 2789.491906 778.487077 " transform="matrix(0.0990028,0,0,0.0992579,-152.761396,-59.157699)"/>
<path style=" stroke:none;fill-rule:evenodd;fill:rgb(100%,100%,100%);fill-opacity:1;" d="M 126.425781 17.667969 C 126.425781 17.230469 126.78125 16.875 127.21875 16.875 C 127.65625 16.875 128.011719 17.230469 128.011719 17.667969 C 128.011719 18.105469 127.65625 18.460938 127.21875 18.460938 C 126.78125 18.460938 126.425781 18.105469 126.425781 17.667969 Z M 126.425781 17.667969 "/>
<path style="fill-rule:evenodd;fill:rgb(98.431373%,98.431373%,98.431373%);fill-opacity:1;stroke-width:8.02083;stroke-linecap:butt;stroke-linejoin:miter;stroke:rgb(0%,0%,0%);stroke-opacity:1;stroke-miterlimit:8;" d="M 2625.51304 605.169612 C 2636.994717 604.579293 2648.673674 605.169612 2660.431542 606.979921 C 2732.635904 618.117261 2787.400742 672.387193 2802.630733 739.526066 L 2804.445706 752.906615 L 2817.505621 779.47094 C 2823.976394 789.66377 2831.275742 798.675964 2838.890737 806.232039 L 2843.309802 809.61653 L 2857.198291 814.732623 C 2916.066547 843.461449 2948.617693 910.521612 2931.612185 976.440494 C 2914.606677 1042.359375 2853.686713 1085.295196 2788.229317 1081.989413 L 2787.676933 1081.871349 L 2785.743593 1083.051986 C 2745.77473 1099.777672 2674.24112 1091.316443 2601.878934 1057.786361 L 2578.323741 1045.468385 L 2558.477406 1040.352293 C 2483.195481 1012.449912 2435.25652 934.645955 2447.961331 852.158805 L 2463.506969 751.371787 C 2476.211781 668.884638 2545.299123 609.105067 2625.51304 605.169612 Z M 2625.51304 605.169612 " transform="matrix(0.0990028,0,0,0.0992579,-152.761396,-59.157699)"/>
<path style=" stroke:none;fill-rule:evenodd;fill:rgb(25.098039%,25.098039%,25.098039%);fill-opacity:1;" d="M 91.820312 26.582031 C 89.769531 21.496094 93.699219 15.113281 100.589844 12.320312 C 107.484375 9.53125 114.730469 11.390625 116.78125 16.472656 C 118.828125 21.558594 114.902344 27.945312 108.007812 30.734375 C 101.117188 33.527344 93.867188 31.667969 91.820312 26.582031 Z M 91.820312 26.582031 "/>
<path style="fill-rule:evenodd;fill:rgb(98.431373%,98.431373%,98.431373%);fill-opacity:1;stroke-width:10.3125;stroke-linecap:butt;stroke-linejoin:miter;stroke:rgb(0%,0%,0%);stroke-opacity:1;stroke-miterlimit:8;" d="M 35.435716 466.014887 L 28.836977 462.449866 L 23.712261 450.436685 C 3.767809 391.081376 -4.52886 320.934672 2.421094 246.861508 C 4.741942 222.182918 8.63402 198.224245 13.961206 175.197855 L 33.889137 109.452724 L 35.455388 112.131051 C 175.55663 -163.148591 722.003241 112.144202 35.435716 466.014887 Z M 35.435716 466.014887 " transform="matrix(0.0315931,0.0940684,0.0938267,-0.0316745,61.069907,12.646149)"/>
<path style=" stroke:none;fill-rule:evenodd;fill:rgb(25.098039%,25.098039%,25.098039%);fill-opacity:1;" d="M 88.601562 3.15625 L 89.40625 3.726562 C 90.175781 4.542969 90.785156 5.523438 91.175781 6.640625 C 92.734375 11.105469 90.1875 16.066406 85.484375 17.71875 C 84.308594 18.132812 83.109375 18.300781 81.945312 18.25 L 80.917969 18.105469 L 80.078125 19.085938 C 79.347656 19.683594 78.488281 20.175781 77.523438 20.515625 C 74.140625 21.703125 70.597656 20.625 68.984375 18.105469 L 68.945312 18.019531 L 69.742188 16.390625 C 70.601562 14.894531 71.6875 13.441406 73.023438 12.074219 L 72.722656 12.011719 L 78.265625 8.054688 C 80.253906 6.824219 82.378906 5.699219 84.621094 4.699219 Z M 88.601562 3.15625 "/>
<path style=" stroke:none;fill-rule:evenodd;fill:rgb(25.098039%,25.098039%,25.098039%);fill-opacity:1;" d="M 78.539062 24.019531 C 79.539062 24.019531 80.394531 24.789062 80.757812 25.886719 L 80.769531 25.945312 L 81.675781 25.324219 C 82.289062 25.0625 82.964844 24.914062 83.671875 24.914062 C 86.507812 24.914062 88.804688 27.25 88.804688 30.125 C 88.804688 33.003906 86.507812 35.335938 83.671875 35.335938 C 81.546875 35.335938 79.722656 34.023438 78.945312 32.152344 L 78.539062 30.125 C 77.210938 30.125 76.132812 28.757812 76.132812 27.074219 C 76.132812 25.386719 77.210938 24.019531 78.539062 24.019531 Z M 78.539062 24.019531 "/>
<path style=" stroke:none;fill-rule:evenodd;fill:rgb(0%,0%,0%);fill-opacity:1;" d="M 127.515625 32.257812 C 127.515625 29.847656 130.085938 27.890625 133.257812 27.890625 C 136.429688 27.890625 139 29.847656 139 32.257812 C 139 34.671875 136.429688 36.625 133.257812 36.625 C 130.085938 36.625 127.515625 34.671875 127.515625 32.257812 Z M 127.515625 32.257812 "/>
<path style="fill-rule:evenodd;fill:rgb(0%,0%,0%);fill-opacity:1;stroke-width:4.58333;stroke-linecap:butt;stroke-linejoin:miter;stroke:rgb(5.098039%,5.098039%,5.098039%);stroke-opacity:1;stroke-miterlimit:8;" d="M 2611.506183 813.512631 C 2611.506183 795.842436 2625.828687 781.517377 2643.504946 781.517377 C 2661.181205 781.517377 2675.50371 795.842436 2675.50371 813.512631 C 2675.50371 831.182827 2661.181205 845.507886 2643.504946 845.507886 C 2625.828687 845.507886 2611.506183 831.182827 2611.506183 813.512631 Z M 2611.506183 813.512631 " transform="matrix(0.0990028,0,0,0.0992579,-152.761396,-59.157699)"/>
<path style=" stroke:none;fill-rule:evenodd;fill:rgb(100%,100%,100%);fill-opacity:1;" d="M 108.707031 21.191406 C 108.707031 20.726562 109.058594 20.347656 109.496094 20.347656 C 109.933594 20.347656 110.289062 20.726562 110.289062 21.191406 C 110.289062 21.65625 109.933594 22.035156 109.496094 22.035156 C 109.058594 22.035156 108.707031 21.65625 108.707031 21.191406 Z M 108.707031 21.191406 "/>
<path style="fill:none;stroke-width:10.3125;stroke-linecap:round;stroke-linejoin:miter;stroke:rgb(0%,0%,0%);stroke-opacity:1;stroke-miterlimit:8;" d="M 2897.995728 1037.440055 C 2864.852743 1041.926475 2831.749213 1046.37354 2795.410297 1039.28972 C 2759.07138 1032.2059 2719.536533 1013.591195 2680.001686 995.015844 " transform="matrix(0.0990028,0,0,0.0992579,-152.761396,-59.157699)"/>
</g>
</svg>
