<svg width="1404" height="1078" xmlns="http://www.w3.org/2000/svg" xmlns:xlink="http://www.w3.org/1999/xlink" overflow="hidden"><defs><clipPath id="clip0"><rect x="1543" y="596" width="1404" height="1078"/></clipPath></defs><g clip-path="url(#clip0)" transform="translate(-1543 -596)"><path d="M1643.45 1130.72C1566.95 1104.69 1528.5 1014.3 1557.59 928.831 1586.67 843.364 1672.26 795.182 1748.76 821.213 1650.45 859.282 1593.69 975.255 1621.98 1080.25 1626.84 1098.26 1634.06 1115.25 1643.45 1130.72Z" stroke="#000000" stroke-width="8.02083" stroke-miterlimit="8" fill="#FBFBFB" fill-rule="evenodd"/><path d="M1654.12 877.78C1658.3 877.131 1662.19 877.657 1665.55 879.526L1667.92 882.306 1647 910.26C1638.98 923.718 1632.27 938.171 1627.09 953.393 1621.91 968.615 1618.41 984.16 1616.56 999.718L1616.13 1031.62 1611.94 1033.32C1607.77 1033.97 1603.87 1033.45 1600.51 1031.58 1587.09 1024.1 1587.39 997.957 1601.19 973.187L1609.26 961.806 1608.09 960.434C1603.16 948.766 1605.91 929.416 1616.26 910.838 1626.61 892.26 1641.61 879.73 1654.12 877.78Z" fill="#404040" fill-rule="evenodd"/><path d="M1803.92 1209.5 1833.39 1209.5C1854.59 1209.5 1871.77 1226.58 1871.77 1247.66L1871.77 1507.58 1872.48 1509.68C1881.14 1528.44 1895.61 1544.41 1913.83 1555.68L1919.47 1558.49 1925.03 1559.61C1936.47 1564.42 1944.5 1575.68 1944.5 1588.81 1944.5 1606.31 1930.23 1620.5 1912.63 1620.5L1797.37 1620.5C1779.77 1620.5 1765.5 1606.31 1765.5 1588.81L1766.36 1584.55 1765.54 1580.51 1765.54 1247.66C1765.54 1226.58 1782.72 1209.5 1803.92 1209.5Z" stroke="#000000" stroke-width="9.16667" stroke-miterlimit="8" fill="#FFFFFF" fill-rule="evenodd"/><path d="M1764.9 1363.08 1771.91 1365.6C1791.48 1374.91 1806.63 1389.55 1814.38 1408.76 1829.9 1447.18 1811.47 1492.97 1771.91 1525.33L1764.9 1530.22Z" stroke="#000000" stroke-width="4.58333" stroke-miterlimit="8" fill="#404040" fill-rule="evenodd"/><path d="M2521.7 1217.5 2551.02 1217.5C2572.09 1217.5 2589.17 1234.62 2589.17 1255.75L2589.17 1516.31 2589.88 1518.41C2598.5 1537.22 2612.89 1553.22 2631 1564.53L2636.61 1567.34 2642.14 1568.46C2653.52 1573.28 2661.5 1584.57 2661.5 1597.73 2661.5 1615.28 2647.31 1629.5 2629.81 1629.5L2515.19 1629.5C2497.69 1629.5 2483.5 1615.28 2483.5 1597.73L2484.36 1593.47 2483.54 1589.41 2483.54 1255.75C2483.54 1234.62 2500.63 1217.5 2521.7 1217.5Z" stroke="#000000" stroke-width="9.16667" stroke-miterlimit="8" fill="#FFFFFF" fill-rule="evenodd"/><path d="M2578.37 894.29C2588.45 895.24 2598.21 897.729 2607.5 901.863 2681.84 934.937 2698.04 1060.82 2643.67 1183.02 2602.89 1274.68 2534.01 1338.24 2470.75 1350.33L2466.22 1350.58 2456.31 1353.65C2445.03 1355.96 2433.35 1357.17 2421.39 1357.17L1749.21 1357.17C1665.48 1357.17 1595.61 1297.78 1579.46 1218.82L1575.94 1183.9 1579.46 1148.97C1584.07 1126.42 1593.07 1105.45 1605.53 1087.02L1615.57 1074.85 1618.89 1065.78C1663.08 1006.35 1854.15 961.645 2083.15 961.645 2205.83 961.645 2317.62 974.474 2401.78 995.525L2411.69 998.675 2423.35 981.829C2469.82 923.223 2528 889.536 2578.37 894.29Z" stroke="#000000" stroke-width="9.16667" stroke-miterlimit="8" fill="#FBFBFB" fill-rule="evenodd"/><path d="M2668.9 1078 2671 1078.2 2670.28 1085.43C2665.31 1114.93 2656.14 1145.7 2642.55 1176.24 2637.46 1187.7 2631.93 1198.71 2626.02 1209.24L2608.71 1237 2602.5 1232.08C2585.51 1215.75 2575 1193.18 2575 1168.26 2575 1118.41 2617.04 1078 2668.9 1078Z" fill="#404040" fill-rule="evenodd"/><path d="M2419.38 1109.07C2459.51 1109.07 2492.05 1130.74 2492.05 1157.47 2492.05 1184.2 2459.51 1205.87 2419.38 1205.87 2414.37 1205.87 2409.47 1205.53 2404.74 1204.89L2393.23 1202.51 2391.46 1210.42C2389.73 1215.17 2387.3 1220.05 2384.18 1224.79 2371.71 1243.78 2352.98 1253.51 2342.35 1246.53 2331.72 1239.54 2333.21 1218.49 2345.69 1199.51 2348.81 1194.76 2352.31 1190.59 2355.99 1187.12L2359.33 1184.69 2359.13 1184.53C2351.3 1176.81 2346.72 1167.49 2346.72 1157.47 2346.72 1130.74 2379.25 1109.07 2419.38 1109.07Z" fill="#404040" fill-rule="evenodd"/><path d="M2174.48 1069.36C2181.24 1048.72 2210.77 1039.85 2240.44 1049.56 2270.12 1059.27 2288.7 1083.88 2281.94 1104.52 2275.19 1125.16 2245.66 1134.03 2215.98 1124.32 2186.31 1114.61 2167.73 1090 2174.48 1069.36Z" fill="#404040" fill-rule="evenodd"/><path d="M1755.02 1001.3 1752.95 1014.88C1745.65 1035.09 1730.38 1053.4 1708.87 1065L1707.4 1065.63 1715.79 1087.55C1722.01 1114.23 1715.99 1138.55 1698.72 1147.86 1681.45 1157.18 1657.82 1148.85 1638.95 1128.99L1633.08 1121.91 1627.76 1125.97C1618.48 1130.97 1607.51 1131.22 1596.31 1127.56L1586.46 1123.23 1587.57 1119.68C1591.95 1109.32 1597.31 1099.47 1603.54 1090.25L1613.58 1078.08 1616.9 1069.01C1633.48 1046.73 1670.7 1026.51 1722.83 1009.95Z" fill="#404040" fill-rule="evenodd"/><path d="M1948 1210.95C1972.28 1212.62 1993.69 1222.47 2008.67 1237.06L2016.12 1247.87 2046.6 1245.31C2057.67 1244.95 2069.1 1245.14 2080.76 1245.94 2174.05 1252.33 2247.11 1294.94 2243.95 1341.09L2239.93 1355.63 1915.85 1355.63 1892.93 1346.21C1868.45 1331.39 1853.12 1306.55 1854.97 1279.52 1857.8 1238.32 1899.45 1207.63 1948 1210.95Z" fill="#404040" fill-rule="evenodd"/><path d="M1832.34 1074.79C1841.47 1079.04 1847.39 1086.79 1848.01 1094.2L1847.95 1094.56 1857.79 1095.11C1864.06 1096.31 1870.6 1098.41 1877.08 1101.42 1903.02 1113.49 1918.26 1135.74 1911.1 1151.11 1903.95 1166.48 1877.13 1169.16 1851.19 1157.1 1831.73 1148.04 1818.3 1133.27 1815.82 1119.96L1817.17 1107.41 1817.17 1107.41C1805 1101.75 1798.53 1089.86 1802.72 1080.85 1806.91 1071.84 1820.17 1069.13 1832.34 1074.79Z" fill="#404040" fill-rule="evenodd"/><path d="M2037.21 961C2067.89 961 2097.9 961.804 2126.96 963.339L2147 964.942 2146.63 966.59C2130.91 999.74 2094.11 1023 2051.22 1023 2008.33 1023 1971.53 999.74 1955.81 966.59L1955 962.999Z" fill="#404040" fill-rule="evenodd"/><path d="M1690.7 1257.5 1720.02 1257.5C1741.09 1257.5 1758.17 1274.62 1758.17 1295.75L1758.17 1556.31 1758.88 1558.41C1767.5 1577.22 1781.89 1593.22 1800 1604.53L1805.61 1607.34 1811.14 1608.46C1822.52 1613.28 1830.5 1624.57 1830.5 1637.73 1830.5 1655.28 1816.31 1669.5 1798.81 1669.5L1684.19 1669.5C1666.69 1669.5 1652.5 1655.28 1652.5 1637.73L1653.36 1633.47 1652.54 1629.41 1652.54 1295.75C1652.54 1274.62 1669.63 1257.5 1690.7 1257.5Z" stroke="#000000" stroke-width="9.16667" stroke-miterlimit="8" fill="#FFFFFF" fill-rule="evenodd"/><path d="M1717.6 1490.21C1725.67 1491.38 1737.36 1497.27 1750.96 1506.77L1759.33 1513.3 1759.33 1549.87 1760.04 1551.98C1768.66 1570.79 1783.07 1586.79 1801.2 1598.09L1806.81 1600.91 1812.35 1602.03C1818.04 1604.44 1822.89 1608.46 1826.31 1613.53L1828 1617.06 1822.99 1624.67C1814.88 1632.91 1802.49 1639.58 1786.29 1644.6L1765.16 1649 1757.24 1633.94C1749.02 1612.23 1748.92 1594.02 1758.89 1584.47L1759.69 1584.01 1736.95 1557.72C1712.67 1526.4 1700.44 1499.81 1708.44 1492.15 1710.45 1490.23 1713.57 1489.63 1717.6 1490.21Z" fill="#404040" fill-rule="evenodd"/><path d="M2430.7 1257.5 2460.02 1257.5C2481.09 1257.5 2498.17 1274.62 2498.17 1295.75L2498.17 1556.31 2498.88 1558.41C2507.5 1577.22 2521.89 1593.22 2540 1604.53L2545.61 1607.34 2551.14 1608.46C2562.52 1613.28 2570.5 1624.57 2570.5 1637.73 2570.5 1655.28 2556.31 1669.5 2538.81 1669.5L2424.19 1669.5C2406.69 1669.5 2392.5 1655.28 2392.5 1637.73L2393.36 1633.47 2392.54 1629.41 2392.54 1295.75C2392.54 1274.62 2409.63 1257.5 2430.7 1257.5Z" stroke="#000000" stroke-width="9.16667" stroke-miterlimit="8" fill="#FFFFFF" fill-rule="evenodd"/><path d="M2493.32 1389.68 2494.97 1390.28 2494.97 1555.41 2484.07 1560.38C2471.77 1563.34 2458.34 1561.61 2446.7 1554.49L2423.64 1540.38C2400.36 1526.12 2393.04 1495.69 2407.29 1472.41L2443.79 1412.76C2454.48 1395.3 2474.27 1386.81 2493.32 1389.68Z" fill="#404040" fill-rule="evenodd"/><path d="M1596 1235.5C1596 1197.67 1646.37 1167 1708.5 1167 1770.63 1167 1821 1197.67 1821 1235.5 1821 1273.33 1770.63 1304 1708.5 1304 1646.37 1304 1596 1273.33 1596 1235.5Z" fill="#FBFBFB" fill-rule="evenodd"/><path d="M2312 1268.5C2312 1250.55 2362.59 1236 2425 1236 2487.41 1236 2538 1250.55 2538 1268.5 2538 1286.45 2487.41 1301 2425 1301 2362.59 1301 2312 1286.45 2312 1268.5Z" fill="#FBFBFB" fill-rule="evenodd"/><path d="M2729.35 790.683C2675.03 715.886 2657.75 635.809 2690.77 611.827 2723.79 587.845 2794.6 629.039 2848.92 703.836 2903.25 778.634 2920.52 858.71 2887.51 882.692 2854.49 906.675 2783.68 865.481 2729.35 790.683Z" stroke="#000000" stroke-width="4.58333" stroke-miterlimit="8" fill="#404040" fill-rule="evenodd"/><path d="M2789.5 778.5C2789.5 760.827 2804.05 746.5 2822 746.5 2839.95 746.5 2854.5 760.827 2854.5 778.5 2854.5 796.173 2839.95 810.5 2822 810.5 2804.05 810.5 2789.5 796.173 2789.5 778.5Z" stroke="#0D0D0D" stroke-width="4.58333" stroke-miterlimit="8" fill-rule="evenodd"/><path d="M2820 774C2820 769.582 2823.58 766 2828 766 2832.42 766 2836 769.582 2836 774 2836 778.418 2832.42 782 2828 782 2823.58 782 2820 778.418 2820 774Z" fill="#FFFFFF" fill-rule="evenodd"/><path d="M2625.52 605.155C2636.98 604.593 2648.67 605.171 2660.45 606.986 2732.62 618.101 2787.42 672.394 2802.63 739.534L2804.46 752.91 2817.52 779.457C2823.99 789.658 2831.27 798.664 2838.89 806.213L2843.3 809.611 2857.19 814.727C2916.06 843.48 2948.63 910.535 2931.62 976.447 2914.62 1042.36 2853.68 1085.29 2788.24 1081.97L2787.68 1081.89 2785.73 1083.07C2745.77 1099.77 2674.25 1091.32 2601.89 1057.77L2578.33 1045.48 2558.49 1040.35C2483.18 1012.46 2435.27 934.636 2447.98 852.164L2463.5 751.361C2476.21 668.888 2545.31 609.09 2625.52 605.155Z" stroke="#000000" stroke-width="8.02083" stroke-miterlimit="8" fill="#FBFBFB" fill-rule="evenodd"/><path d="M2470.44 863.815C2449.75 812.586 2489.42 748.259 2559.04 720.137 2628.66 692.016 2701.88 710.748 2722.57 761.977 2743.26 813.206 2703.6 877.532 2633.97 905.654 2564.35 933.776 2491.14 915.044 2470.44 863.815Z" fill="#404040" fill-rule="evenodd"/><path d="M35.4459 466.032 28.814 462.439 23.7051 450.453C3.77603 391.076-4.53115 320.925 2.42047 246.86 4.73768 222.171 8.64049 198.217 13.9495 175.221L33.8762 109.462 35.4459 112.124C175.559-163.138 722.002 112.124 35.4459 466.032Z" stroke="#000000" stroke-width="10.3125" stroke-miterlimit="8" fill="#FBFBFB" fill-rule="evenodd" transform="matrix(0.319113 0.947717 0.947717 -0.319113 2159.85 723.407)"/><path d="M0 235.948 8.03166 241.814C18.3034 246.553 29.6278 249.243 41.5477 249.389 89.227 249.972 128.378 209.635 128.994 159.293 129.148 146.708 126.879 134.689 122.644 123.73L117.954 114.327 124.616 103.164C127.986 94.2481 129.909 84.4239 130.036 74.0883 130.478 37.9143 108.762 7.46325 79.4887 0.124147L78.5302 0 65.5543 12.8885C54.0231 25.9067 43.6784 40.9602 34.9214 58.1639L33.3519 55.5024 13.4252 121.261C8.11611 144.257 4.21342 168.212 1.89613 192.9Z" fill="#404040" fill-rule="evenodd" transform="matrix(0.319113 0.947717 0.947717 -0.319113 2214.32 703.108)"/><path d="M2336.32 838C2346.39 838 2355.04 845.745 2358.73 856.784L2358.83 857.394 2367.98 851.144C2374.18 848.488 2381 847.019 2388.16 847.019 2416.79 847.019 2440 870.52 2440 899.509 2440 928.499 2416.79 952 2388.16 952 2366.69 952 2348.26 938.781 2340.39 919.941L2336.32 899.51 2336.32 899.51C2322.89 899.51 2312 885.74 2312 868.755 2312 851.77 2322.89 838 2336.32 838Z" fill="#404040" fill-rule="evenodd"/><path d="M2831 921C2831 896.699 2856.97 877 2889 877 2921.03 877 2947 896.699 2947 921 2947 945.3 2921.03 965 2889 965 2856.97 965 2831 945.3 2831 921Z" fill-rule="evenodd"/><path d="M2611.5 813.5C2611.5 795.827 2625.83 781.5 2643.5 781.5 2661.17 781.5 2675.5 795.827 2675.5 813.5 2675.5 831.173 2661.17 845.5 2643.5 845.5 2625.83 845.5 2611.5 831.173 2611.5 813.5Z" stroke="#0D0D0D" stroke-width="4.58333" stroke-miterlimit="8" fill-rule="evenodd"/><path d="M2641 809.5C2641 804.806 2644.58 801 2649 801 2653.42 801 2657 804.806 2657 809.5 2657 814.195 2653.42 818 2649 818 2644.58 818 2641 814.195 2641 809.5Z" fill="#FFFFFF" fill-rule="evenodd"/><path d="M2898 1037.45C2864.87 1041.91 2831.74 1046.37 2795.41 1039.3 2759.08 1032.22 2719.54 1013.61 2680 995" stroke="#000000" stroke-width="10.3125" stroke-linecap="round" stroke-miterlimit="8" fill="none" fill-rule="evenodd"/></g></svg>