<?xml version="1.0" encoding="UTF-8"?>
<svg xmlns="http://www.w3.org/2000/svg" xmlns:xlink="http://www.w3.org/1999/xlink" width="140px" height="px" viewBox="0 0 139 108" version="1.1">
<g id="surface1">
<path style="fill-rule:evenodd;fill:rgb(98.431373%,98.431373%,98.431373%);fill-opacity:1;stroke-width:8.02083;stroke-linecap:butt;stroke-linejoin:miter;stroke:rgb(0%,0%,0%);stroke-opacity:1;stroke-miterlimit:8;" d="M 1643.454811 1130.712023 C 1566.949753 1104.708984 1528.519672 1014.287543 1557.598696 928.815321 C 1586.67772 843.382378 1672.257644 795.186415 1748.762702 821.228733 C 1650.438512 859.290582 1593.700877 975.243707 1621.990782 1080.237847 C 1626.843862 1098.267144 1634.064299 1115.235894 1643.454811 1130.712023 Z M 1643.454811 1130.712023 " transform="matrix(0.0990028,0,0,0.0994475,-152.761396,-59.270718)"/>
<path style=" stroke:none;fill-rule:evenodd;fill:rgb(25.098039%,25.098039%,25.098039%);fill-opacity:1;" d="M 11 28.023438 C 11.414062 27.957031 11.800781 28.011719 12.132812 28.195312 L 12.367188 28.472656 L 10.296875 31.253906 C 9.503906 32.589844 8.839844 34.027344 8.324219 35.542969 C 7.8125 37.054688 7.464844 38.601562 7.28125 40.148438 L 7.238281 43.320312 L 6.824219 43.492188 C 6.414062 43.554688 6.027344 43.503906 5.695312 43.316406 C 4.363281 42.574219 4.394531 39.972656 5.761719 37.511719 L 6.558594 36.378906 L 6.445312 36.242188 C 5.957031 35.082031 6.226562 33.15625 7.253906 31.308594 C 8.277344 29.460938 9.761719 28.214844 11 28.023438 Z M 11 28.023438 "/>
<path style="fill-rule:evenodd;fill:rgb(100%,100%,100%);fill-opacity:1;stroke-width:9.16667;stroke-linecap:butt;stroke-linejoin:miter;stroke:rgb(0%,0%,0%);stroke-opacity:1;stroke-miterlimit:8;" d="M 1818.836443 1206.08941 L 1847.954924 1209.703125 C 1868.866569 1212.334852 1883.741457 1231.385417 1881.137365 1252.321398 L 1849.020234 1510.466363 L 1849.454249 1512.626736 C 1855.727743 1532.345052 1868.037995 1549.981554 1884.609487 1563.415148 L 1889.857127 1566.871745 L 1895.223134 1568.678602 C 1905.915692 1574.845486 1912.425922 1587.022135 1910.808228 1600.062934 C 1908.677608 1617.463759 1892.816322 1629.797526 1875.416254 1627.637153 L 1761.625337 1613.496528 C 1744.22527 1611.336155 1731.915018 1595.467231 1734.045638 1578.105686 L 1735.426596 1573.981337 L 1735.110949 1569.856988 L 1776.224033 1239.280599 C 1778.828125 1218.344618 1797.924798 1203.496962 1818.836443 1206.08941 Z M 1818.836443 1206.08941 " transform="matrix(0.0990028,0,0,0.0994475,-152.761396,-59.270718)"/>
<path style="fill-rule:evenodd;fill:rgb(25.098039%,25.098039%,25.098039%);fill-opacity:1;stroke-width:4.58333;stroke-linecap:butt;stroke-linejoin:miter;stroke:rgb(0%,0%,0%);stroke-opacity:1;stroke-miterlimit:8;" d="M 1761.388602 1354.448134 L 1768.017199 1357.826172 C 1786.285297 1369.452908 1799.503035 1385.871745 1804.869042 1405.904297 C 1815.522145 1445.930122 1791.572392 1489.098307 1748.328687 1516.31901 L 1740.753147 1520.325521 Z M 1761.388602 1354.448134 " transform="matrix(0.0990028,0,0,0.0994475,-152.761396,-59.270718)"/>
<path style="fill-rule:evenodd;fill:rgb(100%,100%,100%);fill-opacity:1;stroke-width:9.16667;stroke-linecap:butt;stroke-linejoin:miter;stroke:rgb(0%,0%,0%);stroke-opacity:1;stroke-miterlimit:8;" d="M 2442.200764 1258.645399 L 2468.754609 1246.154514 C 2487.851281 1237.198785 2510.5779 1245.368924 2519.573853 1264.458767 L 2630.287208 1499.860894 L 2631.825989 1501.432075 C 2647.608363 1514.787109 2667.454699 1523.114366 2688.642536 1525.588976 L 2694.91603 1525.746094 L 2700.400405 1524.41059 C 2712.750112 1523.939236 2724.784173 1530.734592 2730.386915 1542.597005 C 2737.844087 1558.465929 2731.01821 1577.359375 2715.156924 1584.822483 L 2611.387815 1633.607639 C 2595.526529 1641.070747 2576.627136 1634.275391 2569.20942 1618.406467 L 2568.14411 1614.203559 L 2565.697842 1610.90408 L 2423.89321 1309.433811 C 2414.936713 1290.343967 2423.104092 1267.601128 2442.200764 1258.645399 Z M 2442.200764 1258.645399 " transform="matrix(0.0990028,0,0,0.0994475,-152.761396,-59.270718)"/>
<path style="fill-rule:evenodd;fill:rgb(98.431373%,98.431373%,98.431373%);fill-opacity:1;stroke-width:9.16667;stroke-linecap:butt;stroke-linejoin:miter;stroke:rgb(0%,0%,0%);stroke-opacity:1;stroke-miterlimit:8;" d="M 2578.363197 894.288628 C 2588.463916 895.231337 2598.209532 897.745226 2607.481677 901.869575 C 2681.856115 934.942925 2698.033049 1060.833767 2643.66277 1183.032335 C 2602.904789 1274.671441 2534.014726 1338.225694 2470.766862 1350.323785 L 2466.229429 1350.598741 L 2456.325989 1353.662543 C 2445.041592 1355.940755 2433.362635 1357.15842 2421.407487 1357.15842 L 1749.196718 1357.15842 C 1665.471223 1357.15842 1595.594762 1297.767795 1579.457284 1218.815972 L 1575.945706 1183.896484 L 1579.457284 1148.976997 C 1584.073629 1126.430556 1593.069582 1105.455295 1605.537657 1087.033203 L 1615.559465 1074.856554 L 1618.873763 1065.782986 C 1663.064411 1006.353082 1854.149505 961.652995 2083.151754 961.652995 C 2205.820256 961.652995 2317.638377 974.458116 2401.797887 995.511936 L 2411.701326 998.693576 L 2423.340827 981.842665 C 2469.819919 923.23763 2528.017424 889.535807 2578.363197 894.288628 Z M 2578.363197 894.288628 " transform="matrix(0.0990028,0,0,0.0994475,-152.761396,-59.270718)"/>
<path style=" stroke:none;fill-rule:evenodd;fill:rgb(25.098039%,25.098039%,25.098039%);fill-opacity:1;" d="M 111.46875 47.933594 L 111.675781 47.953125 L 111.605469 48.671875 C 111.113281 51.605469 110.203125 54.667969 108.859375 57.703125 C 108.355469 58.84375 107.808594 59.9375 107.222656 60.984375 L 105.507812 63.746094 L 104.894531 63.257812 C 103.210938 61.632812 102.171875 59.386719 102.171875 56.910156 C 102.171875 51.953125 106.332031 47.933594 111.46875 47.933594 Z M 111.46875 47.933594 "/>
<path style=" stroke:none;fill-rule:evenodd;fill:rgb(25.098039%,25.098039%,25.098039%);fill-opacity:1;" d="M 86.765625 51.023438 C 90.738281 51.023438 93.957031 53.179688 93.957031 55.835938 C 93.957031 58.496094 90.738281 60.648438 86.765625 60.648438 C 86.269531 60.648438 85.78125 60.617188 85.316406 60.550781 L 84.175781 60.316406 L 84 61.101562 C 83.828125 61.574219 83.589844 62.058594 83.277344 62.53125 C 82.042969 64.421875 80.191406 65.386719 79.136719 64.695312 C 78.085938 64 78.234375 61.90625 79.46875 60.015625 C 79.777344 59.546875 80.125 59.128906 80.488281 58.785156 L 80.820312 58.542969 L 80.800781 58.527344 C 80.023438 57.761719 79.570312 56.832031 79.570312 55.835938 C 79.570312 53.179688 82.792969 51.023438 86.765625 51.023438 Z M 86.765625 51.023438 "/>
<path style=" stroke:none;fill-rule:evenodd;fill:rgb(25.098039%,25.098039%,25.098039%);fill-opacity:1;" d="M 62.519531 47.074219 C 63.1875 45.023438 66.109375 44.140625 69.046875 45.105469 C 71.988281 46.070312 73.828125 48.519531 73.15625 50.570312 C 72.488281 52.625 69.566406 53.503906 66.625 52.539062 C 63.691406 51.574219 61.851562 49.128906 62.519531 47.074219 Z M 62.519531 47.074219 "/>
<path style=" stroke:none;fill-rule:evenodd;fill:rgb(25.098039%,25.098039%,25.098039%);fill-opacity:1;" d="M 20.992188 40.304688 L 20.785156 41.65625 C 20.0625 43.667969 18.550781 45.488281 16.421875 46.640625 L 16.277344 46.703125 L 17.105469 48.882812 C 17.722656 51.535156 17.125 53.957031 15.417969 54.882812 C 13.707031 55.808594 11.367188 54.980469 9.5 53.003906 L 8.917969 52.300781 L 8.390625 52.703125 C 7.472656 53.203125 6.386719 53.226562 5.277344 52.863281 L 4.300781 52.433594 L 4.414062 52.078125 C 4.847656 51.046875 5.375 50.070312 5.992188 49.152344 L 6.988281 47.941406 L 7.316406 47.039062 C 8.957031 44.824219 12.644531 42.8125 17.804688 41.167969 Z M 20.992188 40.304688 "/>
<path style=" stroke:none;fill-rule:evenodd;fill:rgb(25.098039%,25.098039%,25.098039%);fill-opacity:1;" d="M 40.097656 61.15625 C 42.5 61.320312 44.621094 62.300781 46.101562 63.75 L 46.839844 64.828125 L 49.859375 64.570312 C 50.953125 64.535156 52.085938 64.554688 53.238281 64.636719 C 62.476562 65.269531 69.707031 69.507812 69.394531 74.097656 L 69 75.542969 L 36.914062 75.542969 L 34.644531 74.605469 C 32.21875 73.132812 30.703125 70.664062 30.886719 67.972656 C 31.167969 63.878906 35.289062 60.824219 40.097656 61.15625 Z M 40.097656 61.15625 "/>
<path style=" stroke:none;fill-rule:evenodd;fill:rgb(25.098039%,25.098039%,25.098039%);fill-opacity:1;" d="M 28.644531 47.613281 C 29.550781 48.039062 30.136719 48.808594 30.195312 49.542969 L 30.191406 49.582031 L 31.164062 49.636719 C 31.785156 49.753906 32.433594 49.964844 33.074219 50.261719 C 35.644531 51.464844 37.152344 53.675781 36.441406 55.203125 C 35.734375 56.734375 33.078125 57 30.511719 55.800781 C 28.585938 54.898438 27.253906 53.429688 27.011719 52.105469 L 27.144531 50.859375 C 25.9375 50.296875 25.296875 49.113281 25.714844 48.21875 C 26.128906 47.320312 27.441406 47.050781 28.644531 47.613281 Z M 28.644531 47.613281 "/>
<path style=" stroke:none;fill-rule:evenodd;fill:rgb(25.098039%,25.098039%,25.098039%);fill-opacity:1;" d="M 48.929688 36.296875 C 51.964844 36.296875 54.9375 36.378906 57.8125 36.53125 L 59.796875 36.691406 L 59.761719 36.855469 C 58.203125 40.152344 54.5625 42.464844 50.316406 42.464844 C 46.070312 42.464844 42.425781 40.152344 40.871094 36.855469 L 40.789062 36.496094 Z M 48.929688 36.296875 "/>
<path style="fill-rule:evenodd;fill:rgb(100%,100%,100%);fill-opacity:1;stroke-width:9.16667;stroke-linecap:butt;stroke-linejoin:miter;stroke:rgb(0%,0%,0%);stroke-opacity:1;stroke-miterlimit:8;" d="M 1728.127248 1251.103733 L 1756.653889 1257.78125 C 1777.210432 1262.61263 1789.954699 1283.155816 1785.101619 1303.699002 L 1725.68098 1556.934028 L 1725.917716 1559.133681 C 1729.981677 1579.40191 1740.358588 1598.256076 1755.430755 1613.378689 L 1760.283835 1617.3852 L 1765.413107 1619.74197 C 1775.395459 1627.04796 1780.564186 1639.813802 1777.565535 1652.618924 C 1773.580486 1669.666233 1756.496066 1680.271701 1739.451102 1676.265191 L 1627.790805 1650.065755 C 1610.745841 1646.059245 1600.17165 1628.972656 1604.1567 1611.925347 L 1605.971673 1607.997396 L 1606.129496 1603.833767 L 1682.20054 1279.542101 C 1687.014164 1258.998915 1707.570706 1246.272352 1728.127248 1251.103733 Z M 1728.127248 1251.103733 " transform="matrix(0.0990028,0,0,0.0994475,-152.761396,-59.270718)"/>
<path style=" stroke:none;fill-rule:evenodd;fill:rgb(25.098039%,25.098039%,25.098039%);fill-opacity:1;" d="M 15.65625 88.328125 C 16.40625 88.621094 17.398438 89.457031 18.496094 90.683594 L 19.15625 91.503906 L 18.328125 95.042969 L 18.347656 95.261719 C 18.753906 97.277344 19.78125 99.148438 21.273438 100.652344 L 21.75 101.054688 L 22.261719 101.289062 C 22.753906 101.648438 23.128906 102.148438 23.34375 102.71875 L 23.429688 103.097656 L 22.773438 103.71875 C 21.804688 104.328125 20.460938 104.695312 18.785156 104.8125 L 16.652344 104.757812 L 16.230469 103.121094 C 15.925781 100.835938 16.328125 99.074219 17.503906 98.375 L 17.59375 98.351562 L 15.996094 95.292969 C 14.363281 91.710938 13.78125 88.863281 14.730469 88.304688 C 14.964844 88.167969 15.277344 88.179688 15.65625 88.328125 Z M 15.65625 88.328125 "/>
<path style="fill-rule:evenodd;fill:rgb(100%,100%,100%);fill-opacity:1;stroke-width:9.16667;stroke-linecap:butt;stroke-linejoin:miter;stroke:rgb(0%,0%,0%);stroke-opacity:1;stroke-miterlimit:8;" d="M 2383.174685 1262.848307 L 2412.372077 1260.138021 C 2433.402091 1258.174045 2451.985836 1273.610894 2453.958633 1294.625434 L 2477.987298 1553.634549 L 2478.894784 1555.677083 C 2489.232239 1573.588542 2505.054069 1588.161241 2524.111286 1597.706163 L 2529.99022 1599.984375 L 2535.592963 1600.573568 C 2547.350832 1604.344401 2556.386241 1614.792752 2557.609375 1627.87283 C 2559.227068 1645.312934 2546.364433 1660.789062 2528.92491 1662.399523 L 2414.739433 1673.004991 C 2397.29991 1674.615451 2381.833183 1661.81033 2380.21549 1644.370226 L 2380.688961 1640.049479 L 2379.505283 1636.082248 L 2348.690198 1304.406033 C 2346.756857 1283.391493 2362.184128 1264.812283 2383.174685 1262.848307 Z M 2383.174685 1262.848307 " transform="matrix(0.0990028,0,0,0.0994475,-152.761396,-59.270718)"/>
<path style=" stroke:none;fill-rule:evenodd;fill:rgb(25.098039%,25.098039%,25.098039%);fill-opacity:1;" d="M 90.65625 78.84375 L 90.824219 78.886719 L 92.335938 95.238281 L 91.308594 95.832031 C 90.121094 96.238281 88.78125 96.191406 87.570312 95.59375 L 85.167969 94.40625 C 82.742188 93.210938 81.742188 90.261719 82.933594 87.828125 L 85.984375 81.585938 C 86.878906 79.757812 88.753906 78.734375 90.65625 78.84375 Z M 90.65625 78.84375 "/>
<path style=" stroke:none;fill-rule:evenodd;fill:rgb(98.431373%,98.431373%,98.431373%);fill-opacity:1;" d="M 5.246094 63.597656 C 5.246094 59.835938 10.234375 56.785156 16.386719 56.785156 C 22.535156 56.785156 27.523438 59.835938 27.523438 63.597656 C 27.523438 67.359375 22.535156 70.410156 16.386719 70.410156 C 10.234375 70.410156 5.246094 67.359375 5.246094 63.597656 Z M 5.246094 63.597656 "/>
<path style=" stroke:none;fill-rule:evenodd;fill:rgb(98.431373%,98.431373%,98.431373%);fill-opacity:1;" d="M 76.132812 66.878906 C 76.132812 65.09375 81.140625 63.644531 87.320312 63.644531 C 93.5 63.644531 98.507812 65.09375 98.507812 66.878906 C 98.507812 68.664062 93.5 70.109375 87.320312 70.109375 C 81.140625 70.109375 76.132812 68.664062 76.132812 66.878906 Z M 76.132812 66.878906 "/>
<path style="fill-rule:evenodd;fill:rgb(25.098039%,25.098039%,25.098039%);fill-opacity:1;stroke-width:4.58333;stroke-linecap:butt;stroke-linejoin:miter;stroke:rgb(0%,0%,0%);stroke-opacity:1;stroke-miterlimit:8;" d="M 2729.361061 790.669271 C 2675.030238 715.881076 2657.748539 635.790148 2690.773156 611.829644 C 2723.797774 587.829861 2794.581722 629.034071 2848.912545 703.822266 C 2903.243368 778.64974 2920.525067 858.701389 2887.50045 882.701172 C 2854.475832 906.661675 2783.691884 865.496745 2729.361061 790.669271 Z M 2729.361061 790.669271 " transform="matrix(0.0990028,0,0,0.0994475,-152.761396,-59.270718)"/>
<path style="fill-rule:evenodd;fill:rgb(0%,0%,0%);fill-opacity:1;stroke-width:4.58333;stroke-linecap:butt;stroke-linejoin:miter;stroke:rgb(5.098039%,5.098039%,5.098039%);stroke-opacity:1;stroke-miterlimit:8;" d="M 2794.50281 782.499132 C 2794.50281 764.823351 2808.825315 750.486328 2826.501574 750.486328 C 2844.177833 750.486328 2858.500337 764.823351 2858.500337 782.499132 C 2858.500337 800.174913 2844.177833 814.511936 2826.501574 814.511936 C 2808.825315 814.511936 2794.50281 800.174913 2794.50281 782.499132 Z M 2794.50281 782.499132 " transform="matrix(0.0990028,0,0,0.0994475,-152.761396,-59.270718)"/>
<path style=" stroke:none;fill-rule:evenodd;fill:rgb(75.294118%,0%,0%);fill-opacity:1;" d="M 125.140625 18.496094 C 125.140625 17.398438 126.046875 16.507812 127.167969 16.507812 C 128.289062 16.507812 129.199219 17.398438 129.199219 18.496094 C 129.199219 19.597656 128.289062 20.484375 127.167969 20.484375 C 126.046875 20.484375 125.140625 19.597656 125.140625 18.496094 Z M 125.140625 18.496094 "/>
<path style=" stroke:none;fill-rule:evenodd;fill:rgb(100%,47.45098%,47.45098%);fill-opacity:1;" d="M 127.21875 17.949219 C 127.21875 17.484375 127.597656 17.105469 128.058594 17.105469 C 128.523438 17.105469 128.902344 17.484375 128.902344 17.949219 C 128.902344 18.417969 128.523438 18.796875 128.058594 18.796875 C 127.597656 18.796875 127.21875 18.417969 127.21875 17.949219 Z M 127.21875 17.949219 "/>
<path style="fill-rule:evenodd;fill:rgb(98.431373%,98.431373%,98.431373%);fill-opacity:1;stroke-width:8.02083;stroke-linecap:butt;stroke-linejoin:miter;stroke:rgb(0%,0%,0%);stroke-opacity:1;stroke-miterlimit:8;" d="M 2625.51304 605.152127 C 2636.994717 604.602214 2648.673674 605.152127 2660.431542 606.998264 C 2732.635904 618.114366 2787.400742 672.398655 2802.630733 739.527344 L 2804.445706 752.921658 L 2817.505621 779.474609 C 2823.976394 789.648003 2831.275742 798.682292 2838.890737 806.223958 L 2843.309802 809.601997 L 2857.198291 814.708333 C 2916.066547 843.460938 2948.617693 910.550347 2931.612185 976.461372 C 2914.606677 1042.372396 2853.686713 1085.304905 2788.229317 1081.966146 L 2787.676933 1081.887587 L 2785.743593 1083.065972 C 2745.77473 1099.759766 2674.24112 1091.31467 2601.878934 1057.769965 L 2578.323741 1045.475477 L 2558.477406 1040.369141 C 2483.195481 1012.441406 2435.25652 934.628689 2447.961331 852.18099 L 2463.506969 751.350477 C 2476.211781 668.902778 2545.299123 609.080078 2625.51304 605.152127 Z M 2625.51304 605.152127 " transform="matrix(0.0990028,0,0,0.0994475,-152.761396,-59.270718)"/>
<path style=" stroke:none;fill-rule:evenodd;fill:rgb(25.098039%,25.098039%,25.098039%);fill-opacity:1;" d="M 91.820312 26.632812 C 89.769531 21.539062 93.699219 15.140625 100.589844 12.34375 C 107.484375 9.546875 114.730469 11.410156 116.78125 16.507812 C 118.828125 21.601562 114.902344 27.996094 108.007812 30.792969 C 101.117188 33.589844 93.867188 31.726562 91.820312 26.632812 Z M 91.820312 26.632812 "/>
<path style="fill-rule:evenodd;fill:rgb(98.431373%,98.431373%,98.431373%);fill-opacity:1;stroke-width:10.3125;stroke-linecap:butt;stroke-linejoin:miter;stroke:rgb(0%,0%,0%);stroke-opacity:1;stroke-miterlimit:8;" d="M 35.450753 466.009824 L 28.824033 462.454224 L 23.701166 450.440421 C 3.793869 391.072601 -4.529042 320.934734 2.403518 246.867426 C 4.743386 222.182432 8.652207 198.218121 13.956991 175.199274 L 33.887331 109.453333 L 35.452443 112.132043 C 175.564478 -163.151234 722.015718 112.140001 35.450753 466.009824 Z M 35.450753 466.009824 " transform="matrix(0.0315931,0.0942481,0.0938267,-0.031735,61.069907,12.670309)"/>
<path style=" stroke:none;fill-rule:evenodd;fill:rgb(25.098039%,25.098039%,25.098039%);fill-opacity:1;" d="M 88.601562 3.164062 L 89.40625 3.734375 C 90.175781 4.550781 90.785156 5.535156 91.175781 6.652344 C 92.734375 11.128906 90.1875 16.097656 85.484375 17.753906 C 84.308594 18.167969 83.109375 18.335938 81.945312 18.285156 L 80.917969 18.140625 L 80.078125 19.121094 C 79.347656 19.722656 78.488281 20.214844 77.523438 20.554688 C 74.140625 21.746094 70.597656 20.664062 68.984375 18.140625 L 68.945312 18.054688 L 69.742188 16.421875 C 70.601562 14.921875 71.6875 13.46875 73.023438 12.097656 L 72.722656 12.035156 L 78.265625 8.070312 C 80.253906 6.839844 82.378906 5.710938 84.621094 4.707031 Z M 88.601562 3.164062 "/>
<path style=" stroke:none;fill-rule:evenodd;fill:rgb(25.098039%,25.098039%,25.098039%);fill-opacity:1;" d="M 78.539062 24.066406 C 79.539062 24.066406 80.394531 24.835938 80.757812 25.933594 L 80.769531 25.996094 L 81.675781 25.375 C 82.289062 25.109375 82.964844 24.964844 83.671875 24.964844 C 86.507812 24.964844 88.804688 27.300781 88.804688 30.183594 C 88.804688 33.066406 86.507812 35.402344 83.671875 35.402344 C 81.546875 35.402344 79.722656 34.089844 78.945312 32.214844 L 78.539062 30.183594 C 77.210938 30.183594 76.132812 28.8125 76.132812 27.125 C 76.132812 25.4375 77.210938 24.066406 78.539062 24.066406 Z M 78.539062 24.066406 "/>
<path style=" stroke:none;fill-rule:evenodd;fill:rgb(0%,0%,0%);fill-opacity:1;" d="M 127.515625 32.320312 C 127.515625 29.902344 130.085938 27.945312 133.257812 27.945312 C 136.429688 27.945312 139 29.902344 139 32.320312 C 139 34.738281 136.429688 36.695312 133.257812 36.695312 C 130.085938 36.695312 127.515625 34.738281 127.515625 32.320312 Z M 127.515625 32.320312 "/>
<path style="fill-rule:evenodd;fill:rgb(0%,0%,0%);fill-opacity:1;stroke-width:4.58333;stroke-linecap:butt;stroke-linejoin:miter;stroke:rgb(5.098039%,5.098039%,5.098039%);stroke-opacity:1;stroke-miterlimit:8;" d="M 2607.481677 814.98329 C 2607.481677 797.032552 2621.843638 782.499132 2639.480441 782.499132 C 2657.1567 782.499132 2671.51866 797.032552 2671.51866 814.98329 C 2671.51866 832.934028 2657.1567 847.506727 2639.480441 847.506727 C 2621.843638 847.506727 2607.481677 832.934028 2607.481677 814.98329 Z M 2607.481677 814.98329 " transform="matrix(0.0990028,0,0,0.0994475,-152.761396,-59.270718)"/>
<path style=" stroke:none;fill-rule:evenodd;fill:rgb(75.294118%,0%,0%);fill-opacity:1;" d="M 106.625 21.730469 C 106.625 20.601562 107.511719 19.691406 108.605469 19.691406 C 109.699219 19.691406 110.585938 20.601562 110.585938 21.730469 C 110.585938 22.855469 109.699219 23.769531 108.605469 23.769531 C 107.511719 23.769531 106.625 22.855469 106.625 21.730469 Z M 106.625 21.730469 "/>
<path style=" stroke:none;fill-rule:evenodd;fill:rgb(100%,47.45098%,47.45098%);fill-opacity:1;" d="M 107.914062 21.582031 C 107.914062 21.140625 108.289062 20.785156 108.753906 20.785156 C 109.21875 20.785156 109.597656 21.140625 109.597656 21.582031 C 109.597656 22.019531 109.21875 22.375 108.753906 22.375 C 108.289062 22.375 107.914062 22.019531 107.914062 21.582031 Z M 107.914062 21.582031 "/>
<path style="fill-rule:evenodd;fill:rgb(100%,27.843137%,27.843137%);fill-opacity:1;stroke-width:5.72917;stroke-linecap:butt;stroke-linejoin:miter;stroke:rgb(75.294118%,0%,0%);stroke-opacity:1;stroke-miterlimit:8;" d="M 2813.323291 973.004774 C 2854.870391 973.004774 2890.538557 988.323785 2905.768548 1010.123915 L 2909.003934 1016.447917 L 2893.971223 1034.673611 C 2866.312612 1062.915582 2827.290692 1078.823785 2786.493255 1076.74197 L 2785.940872 1076.663411 L 2784.007531 1077.841797 C 2779.036084 1079.923611 2773.551709 1081.61263 2767.633318 1082.908854 L 2760.057779 1084.008681 L 2742.38152 1076.78125 C 2724.23179 1065.782986 2712.986848 1050.581814 2712.986848 1033.809462 C 2712.986848 1000.225477 2757.927158 973.004774 2813.323291 973.004774 Z M 2813.323291 973.004774 " transform="matrix(0.0990028,0,0,0.0994475,-152.761396,-59.270718)"/>
<path style=" stroke:none;fill-rule:evenodd;fill:rgb(100%,100%,100%);fill-opacity:1;" d="M 121.675781 37.988281 L 121.503906 43.457031 L 119.199219 39.042969 L 119.269531 38.980469 Z M 121.675781 37.988281 "/>
<path style=" stroke:none;fill-rule:evenodd;fill:rgb(100%,100%,100%);fill-opacity:1;" d="M 127.417969 37.691406 L 128.613281 37.796875 L 130.089844 38.222656 L 128.824219 42.960938 Z M 127.417969 37.691406 "/>
</g>
</svg>
