<?xml version="1.0" encoding="UTF-8"?>
<svg xmlns="http://www.w3.org/2000/svg" xmlns:xlink="http://www.w3.org/1999/xlink" width="140px" height="px" viewBox="0 0 140 108" version="1.1">
<g id="surface1">
<path style="fill-rule:evenodd;fill:rgb(98.431373%,98.431373%,98.431373%);fill-opacity:1;stroke-width:8.02083;stroke-linecap:butt;stroke-linejoin:miter;stroke:rgb(0%,0%,0%);stroke-opacity:1;stroke-miterlimit:8;" d="M 1643.442411 1130.738426 C 1566.935379 1104.674624 1528.50558 1014.312283 1557.572768 928.841797 C 1586.679129 843.371311 1672.274554 795.196325 1748.742411 821.220992 C 1650.454576 859.29919 1593.691295 975.255715 1621.975 1080.254485 C 1626.832589 1098.25651 1634.040625 1115.24103 1643.442411 1130.738426 Z M 1643.442411 1130.738426 " transform="matrix(0.0997151,0,0,0.0998152,-153.860399,-59.489834)"/>
<path style=" stroke:none;fill-rule:evenodd;fill:rgb(25.098039%,25.098039%,25.098039%);fill-opacity:1;" d="M 11.082031 28.125 C 11.496094 28.0625 11.886719 28.113281 12.21875 28.300781 L 12.457031 28.578125 L 10.371094 31.367188 C 9.570312 32.710938 8.902344 34.152344 8.386719 35.671875 C 7.867188 37.191406 7.519531 38.746094 7.335938 40.296875 L 7.292969 43.480469 L 6.875 43.652344 C 6.457031 43.714844 6.070312 43.664062 5.734375 43.476562 C 4.394531 42.730469 4.425781 40.121094 5.800781 37.648438 L 6.605469 36.511719 L 6.492188 36.375 C 6 35.210938 6.273438 33.28125 7.304688 31.425781 C 8.335938 29.570312 9.832031 28.320312 11.082031 28.125 Z M 11.082031 28.125 "/>
<path style="fill-rule:evenodd;fill:rgb(100%,100%,100%);fill-opacity:1;stroke-width:9.16667;stroke-linecap:butt;stroke-linejoin:miter;stroke:rgb(0%,0%,0%);stroke-opacity:1;stroke-miterlimit:8;" d="M 1815.88683 1206.112124 L 1844.562277 1212.217159 C 1865.207031 1216.60026 1878.369531 1236.872106 1873.982031 1257.496166 L 1819.882589 1511.950883 L 1820.156808 1514.142433 C 1824.66183 1534.296875 1835.43471 1552.925058 1850.830134 1567.757161 L 1855.726897 1571.670645 L 1860.897879 1573.901331 C 1871.043973 1580.984737 1876.528348 1593.664424 1873.786161 1606.500651 C 1870.142969 1623.64171 1853.298103 1634.599465 1836.179018 1630.959925 L 1723.984375 1607.087674 C 1706.826116 1603.448134 1695.89654 1586.620153 1699.539732 1569.479094 L 1701.263393 1565.487341 L 1701.302567 1561.378183 L 1770.562388 1235.541522 C 1774.949888 1214.917462 1795.242076 1201.729022 1815.88683 1206.112124 Z M 1815.88683 1206.112124 " transform="matrix(0.0997151,0,0,0.0998152,-153.860399,-59.489834)"/>
<path style="fill-rule:evenodd;fill:rgb(25.098039%,25.098039%,25.098039%);fill-opacity:1;stroke-width:4.58333;stroke-linecap:butt;stroke-linejoin:miter;stroke:rgb(0%,0%,0%);stroke-opacity:1;stroke-miterlimit:8;" d="M 1745.921875 1348.993417 L 1752.26808 1352.906901 C 1769.465513 1366.095341 1781.217746 1383.588614 1784.821763 1403.977865 C 1791.990625 1444.795501 1764.451228 1485.730541 1719.048438 1509.172309 L 1711.174442 1512.49877 Z M 1745.921875 1348.993417 " transform="matrix(0.0997151,0,0,0.0998152,-153.860399,-59.489834)"/>
<path style="fill-rule:evenodd;fill:rgb(100%,100%,100%);fill-opacity:1;stroke-width:9.16667;stroke-linecap:butt;stroke-linejoin:miter;stroke:rgb(0%,0%,0%);stroke-opacity:1;stroke-miterlimit:8;" d="M 2523.60625 1211.356192 L 2552.320871 1217.461227 C 2572.965625 1221.844329 2586.128125 1242.116175 2581.740625 1262.779369 L 2527.641183 1517.194951 L 2527.915402 1519.425637 C 2532.420424 1539.580078 2543.193304 1558.208261 2558.588728 1573.00123 L 2563.485491 1576.914714 L 2568.656473 1579.145399 C 2578.802567 1586.228805 2584.286942 1598.908492 2581.544754 1611.783854 C 2577.901563 1628.924913 2561.056696 1639.843533 2543.937612 1636.203993 L 2431.742969 1612.370877 C 2414.58471 1608.692202 2403.655134 1591.864222 2407.298326 1574.723163 L 2409.021987 1570.731409 L 2409.061161 1566.622251 L 2478.320982 1240.78559 C 2482.708482 1220.161531 2503.00067 1206.97309 2523.60625 1211.356192 Z M 2523.60625 1211.356192 " transform="matrix(0.0997151,0,0,0.0998152,-153.860399,-59.489834)"/>
<path style="fill-rule:evenodd;fill:rgb(98.431373%,98.431373%,98.431373%);fill-opacity:1;stroke-width:9.16667;stroke-linecap:butt;stroke-linejoin:miter;stroke:rgb(0%,0%,0%);stroke-opacity:1;stroke-miterlimit:8;" d="M 2578.371652 894.285735 C 2588.439397 895.224971 2598.19375 897.729601 2607.517188 901.877894 C 2681.830469 934.946832 2698.048549 1060.80447 2643.674888 1183.022569 C 2602.894643 1274.67636 2534.026563 1338.231337 2470.760379 1350.324002 L 2466.216183 1350.597946 L 2456.305134 1353.650463 C 2445.022991 1355.959418 2433.349107 1357.172598 2421.401004 1357.172598 L 1749.2125 1357.172598 C 1665.497433 1357.172598 1595.610826 1297.765914 1579.471094 1218.830946 L 1575.945424 1183.883536 L 1579.471094 1148.97526 C 1584.054464 1126.433594 1593.064509 1105.457321 1605.521875 1087.024812 L 1615.550446 1074.853877 L 1618.880246 1065.774595 C 1663.068638 1006.367911 1854.159933 961.636791 2083.132589 961.636791 C 2205.825893 961.636791 2317.628795 974.473018 2401.774777 995.527561 L 2411.685826 998.658348 L 2423.35971 981.830367 C 2469.820201 923.20638 2527.99375 889.55042 2578.371652 894.285735 Z M 2578.371652 894.285735 " transform="matrix(0.0997151,0,0,0.0998152,-153.860399,-59.489834)"/>
<path style=" stroke:none;fill-rule:evenodd;fill:rgb(25.098039%,25.098039%,25.098039%);fill-opacity:1;" d="M 112.269531 48.109375 L 112.480469 48.132812 L 112.40625 48.851562 C 111.910156 51.796875 110.996094 54.867188 109.640625 57.917969 C 109.132812 59.0625 108.582031 60.160156 107.992188 61.210938 L 106.265625 63.980469 L 105.648438 63.492188 C 103.953125 61.859375 102.90625 59.609375 102.90625 57.121094 C 102.90625 52.144531 107.097656 48.109375 112.269531 48.109375 Z M 112.269531 48.109375 "/>
<path style=" stroke:none;fill-rule:evenodd;fill:rgb(25.098039%,25.098039%,25.098039%);fill-opacity:1;" d="M 87.386719 51.210938 C 91.390625 51.210938 94.632812 53.375 94.632812 56.042969 C 94.632812 58.710938 91.390625 60.875 87.386719 60.875 C 86.890625 60.875 86.398438 60.839844 85.929688 60.777344 L 84.78125 60.539062 L 84.605469 61.328125 C 84.433594 61.800781 84.191406 62.289062 83.878906 62.761719 C 82.636719 64.660156 80.765625 65.628906 79.707031 64.933594 C 78.648438 64.234375 78.796875 62.132812 80.039062 60.238281 C 80.351562 59.765625 80.699219 59.347656 81.066406 59.003906 L 81.402344 58.761719 L 81.378906 58.746094 C 80.601562 57.972656 80.144531 57.042969 80.144531 56.042969 C 80.144531 53.375 83.386719 51.210938 87.386719 51.210938 Z M 87.386719 51.210938 "/>
<path style=" stroke:none;fill-rule:evenodd;fill:rgb(25.098039%,25.098039%,25.098039%);fill-opacity:1;" d="M 62.96875 47.25 C 63.640625 45.1875 66.585938 44.304688 69.546875 45.273438 C 72.503906 46.242188 74.359375 48.699219 73.683594 50.757812 C 73.011719 52.816406 70.066406 53.703125 67.105469 52.734375 C 64.148438 51.765625 62.296875 49.308594 62.96875 47.25 Z M 62.96875 47.25 "/>
<path style=" stroke:none;fill-rule:evenodd;fill:rgb(25.098039%,25.098039%,25.098039%);fill-opacity:1;" d="M 21.140625 40.457031 L 20.933594 41.8125 C 20.207031 43.828125 18.683594 45.65625 16.539062 46.8125 L 16.394531 46.875 L 17.230469 49.0625 C 17.851562 51.726562 17.25 54.15625 15.527344 55.085938 C 13.804688 56.015625 11.449219 55.183594 9.566406 53.199219 L 8.980469 52.492188 L 8.453125 52.898438 C 7.527344 53.398438 6.433594 53.421875 5.316406 53.058594 L 4.332031 52.625 L 4.445312 52.269531 C 4.882812 51.238281 5.414062 50.253906 6.035156 49.332031 L 7.039062 48.117188 L 7.367188 47.214844 C 9.023438 44.988281 12.734375 42.972656 17.933594 41.320312 Z M 21.140625 40.457031 "/>
<path style=" stroke:none;fill-rule:evenodd;fill:rgb(25.098039%,25.098039%,25.098039%);fill-opacity:1;" d="M 40.382812 61.382812 C 42.804688 61.546875 44.941406 62.53125 46.433594 63.988281 L 47.175781 65.066406 L 50.214844 64.8125 C 51.320312 64.773438 52.460938 64.792969 53.621094 64.875 C 62.925781 65.511719 70.210938 69.765625 69.894531 74.371094 L 69.496094 75.824219 L 37.179688 75.824219 L 34.894531 74.882812 C 32.453125 73.402344 30.921875 70.921875 31.109375 68.226562 C 31.390625 64.113281 35.542969 61.050781 40.382812 61.382812 Z M 40.382812 61.382812 "/>
<path style=" stroke:none;fill-rule:evenodd;fill:rgb(25.098039%,25.098039%,25.098039%);fill-opacity:1;" d="M 28.851562 47.789062 C 29.761719 48.214844 30.351562 48.988281 30.414062 49.726562 L 30.40625 49.765625 L 31.390625 49.820312 C 32.015625 49.9375 32.667969 50.148438 33.3125 50.449219 C 35.898438 51.652344 37.417969 53.875 36.707031 55.410156 C 35.992188 56.941406 33.316406 57.210938 30.730469 56.007812 C 28.789062 55.101562 27.453125 53.628906 27.203125 52.300781 L 27.339844 51.046875 C 26.125 50.480469 25.480469 49.292969 25.898438 48.394531 C 26.316406 47.496094 27.636719 47.226562 28.851562 47.789062 Z M 28.851562 47.789062 "/>
<path style=" stroke:none;fill-rule:evenodd;fill:rgb(25.098039%,25.098039%,25.098039%);fill-opacity:1;" d="M 49.28125 36.433594 C 52.339844 36.433594 55.332031 36.511719 58.230469 36.664062 L 60.226562 36.824219 L 60.191406 36.992188 C 58.625 40.300781 54.953125 42.621094 50.675781 42.621094 C 46.402344 42.621094 42.730469 40.300781 41.164062 36.992188 L 41.082031 36.632812 Z M 49.28125 36.433594 "/>
<path style="fill-rule:evenodd;fill:rgb(100%,100%,100%);fill-opacity:1;stroke-width:9.16667;stroke-linecap:butt;stroke-linejoin:miter;stroke:rgb(0%,0%,0%);stroke-opacity:1;stroke-miterlimit:8;" d="M 1708.314732 1253.621817 L 1737.538616 1256.165582 C 1758.535938 1258.004919 1774.088058 1276.515697 1772.246875 1297.531105 L 1749.565067 1556.682002 L 1750.113504 1558.834418 C 1757.047321 1578.284433 1770.013951 1595.464627 1787.093862 1608.300854 L 1792.42154 1611.58818 L 1797.866741 1613.153573 C 1808.757143 1618.94553 1815.730134 1630.881655 1814.594085 1643.952691 C 1813.066295 1661.406829 1797.670871 1674.321325 1780.238393 1672.795067 L 1665.967522 1662.815683 C 1648.535045 1661.289424 1635.607589 1645.909433 1637.135379 1628.455295 L 1638.388951 1624.267867 L 1637.918862 1620.197844 L 1666.946875 1288.334418 C 1668.788058 1267.31901 1687.317411 1251.78248 1708.314732 1253.621817 Z M 1708.314732 1253.621817 " transform="matrix(0.0997151,0,0,0.0998152,-153.860399,-59.489834)"/>
<path style=" stroke:none;fill-rule:evenodd;fill:rgb(25.098039%,25.098039%,25.098039%);fill-opacity:1;" d="M 17.140625 89.050781 C 17.929688 89.238281 19.039062 89.925781 20.308594 90.988281 L 21.082031 91.707031 L 20.765625 95.335938 L 20.816406 95.554688 C 21.511719 97.496094 22.804688 99.210938 24.503906 100.488281 L 25.039062 100.816406 L 25.578125 100.976562 C 26.125 101.265625 26.570312 101.707031 26.867188 102.242188 L 27.003906 102.605469 L 26.4375 103.316406 C 25.5625 104.0625 24.273438 104.621094 22.621094 104.976562 L 20.484375 105.230469 L 19.828125 103.664062 C 19.199219 101.4375 19.347656 99.628906 20.421875 98.769531 L 20.503906 98.730469 L 18.476562 95.921875 C 16.335938 92.601562 15.351562 89.855469 16.210938 89.164062 C 16.429688 88.992188 16.742188 88.960938 17.140625 89.050781 Z M 17.140625 89.050781 "/>
<path style="fill-rule:evenodd;fill:rgb(100%,100%,100%);fill-opacity:1;stroke-width:9.16667;stroke-linecap:butt;stroke-linejoin:miter;stroke:rgb(0%,0%,0%);stroke-opacity:1;stroke-miterlimit:8;" d="M 2430.528571 1253.621817 L 2459.752455 1256.165582 C 2480.749777 1258.004919 2496.301897 1276.515697 2494.460714 1297.531105 L 2471.778906 1556.682002 L 2472.327344 1558.834418 C 2479.261161 1578.284433 2492.22779 1595.464627 2509.268527 1608.300854 L 2514.635379 1611.58818 L 2520.041406 1613.153573 C 2530.970982 1618.94553 2537.943973 1630.881655 2536.807924 1643.952691 C 2535.280134 1661.406829 2519.88471 1674.321325 2502.452232 1672.795067 L 2388.181362 1662.815683 C 2370.748884 1661.289424 2357.821429 1645.909433 2359.349219 1628.455295 L 2360.563616 1624.267867 L 2360.132701 1620.197844 L 2389.160714 1288.334418 C 2391.001897 1267.31901 2409.492076 1251.78248 2430.528571 1253.621817 Z M 2430.528571 1253.621817 " transform="matrix(0.0997151,0,0,0.0998152,-153.860399,-59.489834)"/>
<path style=" stroke:none;fill-rule:evenodd;fill:rgb(25.098039%,25.098039%,25.098039%);fill-opacity:1;" d="M 93.660156 79.359375 L 93.820312 79.433594 L 92.386719 95.851562 L 91.257812 96.253906 C 90.011719 96.441406 88.691406 96.152344 87.597656 95.339844 L 85.429688 93.738281 C 83.242188 92.117188 82.777344 89.027344 84.394531 86.835938 L 88.542969 81.222656 C 89.753906 79.582031 91.792969 78.910156 93.660156 79.359375 Z M 93.660156 79.359375 "/>
<path style=" stroke:none;fill-rule:evenodd;fill:rgb(98.431373%,98.431373%,98.431373%);fill-opacity:1;" d="M 5.285156 63.832031 C 5.285156 60.054688 10.308594 56.996094 16.503906 56.996094 C 22.699219 56.996094 27.722656 60.054688 27.722656 63.832031 C 27.722656 67.609375 22.699219 70.667969 16.503906 70.667969 C 10.308594 70.667969 5.285156 67.609375 5.285156 63.832031 Z M 5.285156 63.832031 "/>
<path style=" stroke:none;fill-rule:evenodd;fill:rgb(98.431373%,98.431373%,98.431373%);fill-opacity:1;" d="M 76.679688 67.125 C 76.679688 65.335938 81.726562 63.882812 87.949219 63.882812 C 94.171875 63.882812 99.214844 65.335938 99.214844 67.125 C 99.214844 68.917969 94.171875 70.371094 87.949219 70.371094 C 81.726562 70.371094 76.679688 68.917969 76.679688 67.125 Z M 76.679688 67.125 "/>
<path style="fill-rule:evenodd;fill:rgb(25.098039%,25.098039%,25.098039%);fill-opacity:1;stroke-width:4.58333;stroke-linecap:butt;stroke-linejoin:miter;stroke:rgb(0%,0%,0%);stroke-opacity:1;stroke-miterlimit:8;" d="M 2729.348661 790.695819 C 2675.014174 715.870009 2657.738393 635.80013 2690.762165 611.810475 C 2723.785938 587.859954 2794.612723 629.029803 2848.908036 703.816479 C 2903.242522 778.642289 2920.518304 858.712167 2887.494531 882.701823 C 2854.470759 906.691479 2783.683147 865.482494 2729.348661 790.695819 Z M 2729.348661 790.695819 " transform="matrix(0.0997151,0,0,0.0998152,-153.860399,-59.489834)"/>
<path style="fill-rule:evenodd;fill:rgb(0%,0%,0%);fill-opacity:1;stroke-width:4.58333;stroke-linecap:butt;stroke-linejoin:miter;stroke:rgb(5.098039%,5.098039%,5.098039%);stroke-opacity:1;stroke-miterlimit:8;" d="M 2789.480915 778.485749 C 2789.480915 760.835938 2804.053683 746.512587 2821.995424 746.512587 C 2839.937165 746.512587 2854.509933 760.835938 2854.509933 778.485749 C 2854.509933 796.174696 2839.937165 810.498047 2821.995424 810.498047 C 2804.053683 810.498047 2789.480915 796.174696 2789.480915 778.485749 Z M 2789.480915 778.485749 " transform="matrix(0.0997151,0,0,0.0998152,-153.860399,-59.489834)"/>
<path style=" stroke:none;fill-rule:evenodd;fill:rgb(100%,100%,100%);fill-opacity:1;" d="M 127.335938 17.765625 C 127.335938 17.324219 127.691406 16.96875 128.132812 16.96875 C 128.574219 16.96875 128.929688 17.324219 128.929688 17.765625 C 128.929688 18.207031 128.574219 18.566406 128.132812 18.566406 C 127.691406 18.566406 127.335938 18.207031 127.335938 17.765625 Z M 127.335938 17.765625 "/>
<path style="fill-rule:evenodd;fill:rgb(98.431373%,98.431373%,98.431373%);fill-opacity:1;stroke-width:8.02083;stroke-linecap:butt;stroke-linejoin:miter;stroke:rgb(0%,0%,0%);stroke-opacity:1;stroke-miterlimit:8;" d="M 2625.537277 605.157552 C 2636.976116 604.609664 2648.689174 605.157552 2660.441406 606.996889 C 2732.639286 618.111183 2787.404688 672.391204 2802.643415 739.546586 L 2804.445424 752.891565 L 2817.529576 779.46412 C 2823.993304 789.639178 2831.279688 798.679326 2838.879464 806.23235 L 2843.306138 809.597946 L 2857.173772 814.724609 C 2916.052455 843.488715 2948.645313 910.526693 2931.604576 976.42976 C 2914.603013 1042.371962 2853.687277 1085.302879 2788.227344 1081.976418 L 2787.678906 1081.898148 L 2785.720201 1083.072193 C 2745.762612 1099.782769 2674.230692 1091.329644 2601.876116 1057.751953 L 2578.332478 1045.463614 L 2558.471205 1040.33695 C 2483.178571 1012.472946 2435.268638 934.633753 2447.961049 852.176649 L 2463.51317 751.365307 C 2476.20558 668.869068 2545.308705 609.071036 2625.537277 605.157552 Z M 2625.537277 605.157552 " transform="matrix(0.0997151,0,0,0.0998152,-153.860399,-59.489834)"/>
<path style=" stroke:none;fill-rule:evenodd;fill:rgb(25.098039%,25.098039%,25.098039%);fill-opacity:1;" d="M 92.480469 26.730469 C 90.417969 21.617188 94.371094 15.199219 101.316406 12.390625 C 108.257812 9.582031 115.558594 11.453125 117.621094 16.566406 C 119.683594 21.679688 115.730469 28.101562 108.785156 30.90625 C 101.84375 33.714844 94.542969 31.84375 92.480469 26.730469 Z M 92.480469 26.730469 "/>
<path style="fill-rule:evenodd;fill:rgb(98.431373%,98.431373%,98.431373%);fill-opacity:1;stroke-width:10.3125;stroke-linecap:butt;stroke-linejoin:miter;stroke:rgb(0%,0%,0%);stroke-opacity:1;stroke-miterlimit:8;" d="M 35.456617 466.046508 L 28.835358 462.447734 L 23.720733 450.44662 C 3.768788 391.069746 -4.535487 320.909248 2.407847 246.854668 C 4.751185 222.173858 8.656391 198.207197 13.963437 175.215244 L 33.855891 109.44905 L 35.461475 112.13257 C 175.550344 -163.125658 722.004034 112.10825 35.456617 466.046508 Z M 35.456617 466.046508 " transform="matrix(0.0318204,0.0945965,0.0945017,-0.0318523,61.509259,12.71715)"/>
<path style=" stroke:none;fill-rule:evenodd;fill:rgb(25.098039%,25.098039%,25.098039%);fill-opacity:1;" d="M 89.238281 3.175781 L 90.046875 3.75 C 90.824219 4.570312 91.4375 5.554688 91.832031 6.675781 C 93.402344 11.167969 90.835938 16.15625 86.097656 17.820312 C 84.914062 18.234375 83.707031 18.402344 82.535156 18.351562 L 81.5 18.207031 L 80.65625 19.191406 C 79.917969 19.796875 79.050781 20.289062 78.078125 20.632812 C 74.675781 21.824219 71.105469 20.742188 69.480469 18.207031 L 69.441406 18.121094 L 70.246094 16.480469 C 71.109375 14.976562 72.203125 13.519531 73.546875 12.140625 L 73.246094 12.078125 L 78.828125 8.097656 C 80.832031 6.863281 82.972656 5.730469 85.230469 4.726562 Z M 89.238281 3.175781 "/>
<path style=" stroke:none;fill-rule:evenodd;fill:rgb(25.098039%,25.098039%,25.098039%);fill-opacity:1;" d="M 79.105469 24.15625 C 80.109375 24.15625 80.972656 24.929688 81.339844 26.03125 L 81.351562 26.089844 L 82.261719 25.46875 C 82.882812 25.203125 83.5625 25.054688 84.273438 25.054688 C 87.128906 25.054688 89.445312 27.402344 89.445312 30.292969 C 89.445312 33.1875 87.128906 35.535156 84.273438 35.535156 C 82.132812 35.535156 80.296875 34.214844 79.511719 32.335938 L 79.105469 30.292969 C 77.765625 30.292969 76.679688 28.921875 76.679688 27.226562 C 76.679688 25.53125 77.765625 24.15625 79.105469 24.15625 Z M 79.105469 24.15625 "/>
<path style=" stroke:none;fill-rule:evenodd;fill:rgb(0%,0%,0%);fill-opacity:1;" d="M 128.433594 32.441406 C 128.433594 30.015625 131.023438 28.046875 134.214844 28.046875 C 137.410156 28.046875 140 30.015625 140 32.441406 C 140 34.867188 137.410156 36.832031 134.214844 36.832031 C 131.023438 36.832031 128.433594 34.867188 128.433594 32.441406 Z M 128.433594 32.441406 "/>
<path style="fill-rule:evenodd;fill:rgb(0%,0%,0%);fill-opacity:1;stroke-width:4.58333;stroke-linecap:butt;stroke-linejoin:miter;stroke:rgb(5.098039%,5.098039%,5.098039%);stroke-opacity:1;stroke-miterlimit:8;" d="M 2611.512946 813.511429 C 2611.512946 795.822483 2625.811496 781.499132 2643.518192 781.499132 C 2661.185714 781.499132 2675.484263 795.822483 2675.484263 813.511429 C 2675.484263 831.161241 2661.185714 845.484592 2643.518192 845.484592 C 2625.811496 845.484592 2611.512946 831.161241 2611.512946 813.511429 Z M 2611.512946 813.511429 " transform="matrix(0.0997151,0,0,0.0998152,-153.860399,-59.489834)"/>
<path style=" stroke:none;fill-rule:evenodd;fill:rgb(100%,100%,100%);fill-opacity:1;" d="M 109.488281 21.308594 C 109.488281 20.84375 109.84375 20.460938 110.285156 20.460938 C 110.726562 20.460938 111.082031 20.84375 111.082031 21.308594 C 111.082031 21.777344 110.726562 22.160156 110.285156 22.160156 C 109.84375 22.160156 109.488281 21.777344 109.488281 21.308594 Z M 109.488281 21.308594 "/>
<path style="fill:none;stroke-width:10.3125;stroke-linecap:round;stroke-linejoin:miter;stroke:rgb(0%,0%,0%);stroke-opacity:1;stroke-miterlimit:8;" d="M 2897.993192 1037.440972 C 2864.851897 1041.902344 2831.749777 1046.363715 2795.396205 1039.319444 C 2759.081808 1032.236039 2719.555134 1013.607856 2679.989286 995.018808 " transform="matrix(0.0997151,0,0,0.0998152,-153.860399,-59.489834)"/>
</g>
</svg>
