<?xml version="1.0" encoding="UTF-8"?>
<svg xmlns="http://www.w3.org/2000/svg" xmlns:xlink="http://www.w3.org/1999/xlink" width="140px" height="px" viewBox="0 0 139 108" version="1.1">
<g id="surface1">
<path style="fill-rule:evenodd;fill:rgb(98.431373%,98.431373%,98.431373%);fill-opacity:1;stroke-width:8.02083;stroke-linecap:butt;stroke-linejoin:miter;stroke:rgb(0%,0%,0%);stroke-opacity:1;stroke-miterlimit:8;" d="M 1643.454811 1130.732603 C 1566.949753 1104.705621 1528.519672 1014.318866 1557.598696 928.846571 C 1586.67772 843.374277 1672.257644 795.173249 1748.762702 821.200231 C 1650.438512 859.297128 1593.700877 975.239077 1621.990782 1080.251266 C 1626.843862 1098.257849 1634.064299 1115.242224 1643.454811 1130.732603 Z M 1643.454811 1130.732603 " transform="matrix(0.0990028,0,0,0.099356,-152.761396,-59.216191)"/>
<path style=" stroke:none;fill-rule:evenodd;fill:rgb(25.098039%,25.098039%,25.098039%);fill-opacity:1;" d="M 11 27.996094 C 11.414062 27.933594 11.800781 27.984375 12.132812 28.171875 L 12.367188 28.445312 L 10.296875 31.222656 C 9.503906 32.5625 8.839844 33.996094 8.324219 35.507812 C 7.8125 37.023438 7.464844 38.566406 7.28125 40.113281 L 7.238281 43.28125 L 6.824219 43.449219 C 6.414062 43.515625 6.027344 43.464844 5.695312 43.277344 C 4.363281 42.535156 4.394531 39.9375 5.761719 37.476562 L 6.558594 36.34375 L 6.445312 36.207031 C 5.957031 35.050781 6.226562 33.125 7.253906 31.28125 C 8.277344 29.433594 9.761719 28.191406 11 27.996094 Z M 11 27.996094 "/>
<path style="fill-rule:evenodd;fill:rgb(100%,100%,100%);fill-opacity:1;stroke-width:9.16667;stroke-linecap:butt;stroke-linejoin:miter;stroke:rgb(0%,0%,0%);stroke-opacity:1;stroke-miterlimit:8;" d="M 1785.811826 1212.548539 L 1815.048674 1209.993019 C 1836.039231 1208.145182 1854.583521 1223.714193 1856.398494 1244.708767 L 1879.085656 1503.877749 L 1879.953687 1505.882849 C 1890.21223 1523.850116 1905.955148 1538.514865 1924.972909 1548.186523 L 1930.812388 1550.466833 L 1936.41513 1551.095884 C 1948.172999 1554.909505 1957.129496 1565.446108 1958.273719 1578.538231 C 1959.8125 1595.994394 1946.870953 1611.366826 1929.43143 1612.900137 L 1815.167041 1622.886321 C 1797.727518 1624.419633 1782.339703 1611.524089 1780.800922 1594.067925 L 1781.313849 1589.7432 L 1780.130171 1585.772316 L 1751.090603 1253.947953 C 1749.275629 1232.914062 1764.821268 1214.396376 1785.811826 1212.548539 Z M 1785.811826 1212.548539 " transform="matrix(0.0990028,0,0,0.099356,-152.761396,-59.216191)"/>
<path style="fill-rule:evenodd;fill:rgb(25.098039%,25.098039%,25.098039%);fill-opacity:1;stroke-width:4.58333;stroke-linecap:butt;stroke-linejoin:miter;stroke:rgb(0%,0%,0%);stroke-opacity:1;stroke-miterlimit:8;" d="M 1760.717851 1369.654008 L 1767.898831 1371.54116 C 1788.218638 1379.129087 1804.592851 1392.378472 1813.983363 1410.856843 C 1832.803844 1447.774269 1818.402428 1494.992405 1781.826776 1530.651729 L 1775.277091 1536.155924 Z M 1760.717851 1369.654008 " transform="matrix(0.0990028,0,0,0.099356,-152.761396,-59.216191)"/>
<path style="fill-rule:evenodd;fill:rgb(100%,100%,100%);fill-opacity:1;stroke-width:9.16667;stroke-linecap:butt;stroke-linejoin:miter;stroke:rgb(0%,0%,0%);stroke-opacity:1;stroke-miterlimit:8;" d="M 2503.712567 1222.652669 L 2532.949415 1220.09715 C 2553.939973 1218.249313 2572.444807 1233.818323 2574.299236 1254.812898 L 2596.986398 1513.942564 L 2597.854429 1515.986979 C 2608.073516 1533.954246 2623.816434 1548.618996 2642.873651 1558.251338 L 2648.713129 1560.570964 L 2654.315872 1561.200014 C 2666.073741 1565.013636 2674.990782 1575.550239 2676.17446 1588.642361 C 2677.673786 1606.098524 2664.771695 1621.470956 2647.332172 1623.004268 L 2533.067783 1632.990451 C 2515.62826 1634.523763 2500.240445 1621.628219 2498.701664 1604.172056 L 2499.175135 1599.847331 L 2498.030913 1595.876447 L 2468.991344 1264.012768 C 2467.136915 1243.018193 2482.682554 1224.500506 2503.712567 1222.652669 Z M 2503.712567 1222.652669 " transform="matrix(0.0990028,0,0,0.099356,-152.761396,-59.216191)"/>
<path style="fill-rule:evenodd;fill:rgb(98.431373%,98.431373%,98.431373%);fill-opacity:1;stroke-width:9.16667;stroke-linecap:butt;stroke-linejoin:miter;stroke:rgb(0%,0%,0%);stroke-opacity:1;stroke-miterlimit:8;" d="M 2578.363197 894.288086 C 2588.463916 895.231662 2598.209532 897.747866 2607.481677 901.876013 C 2681.856115 934.940502 2698.033049 1060.829319 2643.66277 1183.022461 C 2602.904789 1274.667318 2534.014726 1338.240777 2470.766862 1350.310692 L 2466.229429 1350.585901 L 2456.325989 1353.652525 C 2445.041592 1355.97215 2433.362635 1357.15162 2421.407487 1357.15162 L 1749.196718 1357.15162 C 1665.471223 1357.15162 1595.594762 1297.784939 1579.457284 1218.839048 L 1575.945706 1183.887406 L 1579.457284 1148.97508 C 1584.073629 1126.407878 1593.069582 1105.452619 1605.537657 1087.013563 L 1615.559465 1074.865017 L 1618.873763 1065.783095 C 1663.064411 1006.337782 1854.149505 961.635851 2083.151754 961.635851 C 2205.820256 961.635851 2317.638377 974.492079 2401.797887 995.525969 L 2411.701326 998.671224 L 2423.340827 981.844112 C 2469.819919 923.224429 2528.017424 889.530888 2578.363197 894.288086 Z M 2578.363197 894.288086 " transform="matrix(0.0990028,0,0,0.099356,-152.761396,-59.216191)"/>
<path style=" stroke:none;fill-rule:evenodd;fill:rgb(25.098039%,25.098039%,25.098039%);fill-opacity:1;" d="M 111.46875 47.890625 L 111.675781 47.910156 L 111.605469 48.628906 C 111.113281 51.558594 110.203125 54.617188 108.859375 57.648438 C 108.355469 58.789062 107.808594 59.882812 107.222656 60.929688 L 105.507812 63.6875 L 104.894531 63.199219 C 103.210938 61.574219 102.171875 59.332031 102.171875 56.859375 C 102.171875 51.90625 106.332031 47.890625 111.46875 47.890625 Z M 111.46875 47.890625 "/>
<path style=" stroke:none;fill-rule:evenodd;fill:rgb(25.098039%,25.098039%,25.098039%);fill-opacity:1;" d="M 86.765625 50.976562 C 90.738281 50.976562 93.957031 53.128906 93.957031 55.785156 C 93.957031 58.441406 90.738281 60.59375 86.765625 60.59375 C 86.269531 60.59375 85.78125 60.558594 85.316406 60.496094 L 84.175781 60.261719 L 84 61.046875 C 83.828125 61.519531 83.589844 62.003906 83.277344 62.472656 C 82.042969 64.359375 80.191406 65.328125 79.136719 64.632812 C 78.085938 63.941406 78.234375 61.847656 79.46875 59.960938 C 79.777344 59.492188 80.125 59.074219 80.488281 58.730469 L 80.820312 58.488281 L 80.800781 58.472656 C 80.023438 57.707031 79.570312 56.78125 79.570312 55.785156 C 79.570312 53.128906 82.792969 50.976562 86.765625 50.976562 Z M 86.765625 50.976562 "/>
<path style=" stroke:none;fill-rule:evenodd;fill:rgb(25.098039%,25.098039%,25.098039%);fill-opacity:1;" d="M 62.519531 47.03125 C 63.1875 44.980469 66.109375 44.097656 69.046875 45.0625 C 71.988281 46.027344 73.828125 48.472656 73.15625 50.523438 C 72.488281 52.574219 69.566406 53.457031 66.625 52.492188 C 63.691406 51.527344 61.851562 49.082031 62.519531 47.03125 Z M 62.519531 47.03125 "/>
<path style=" stroke:none;fill-rule:evenodd;fill:rgb(25.098039%,25.098039%,25.098039%);fill-opacity:1;" d="M 20.992188 40.269531 L 20.785156 41.617188 C 20.0625 43.625 18.550781 45.445312 16.421875 46.597656 L 16.277344 46.660156 L 17.105469 48.839844 C 17.722656 51.488281 17.125 53.90625 15.417969 54.832031 C 13.707031 55.757812 11.367188 54.929688 9.5 52.957031 L 8.917969 52.253906 L 8.390625 52.65625 C 7.472656 53.152344 6.386719 53.175781 5.277344 52.8125 L 4.300781 52.382812 L 4.414062 52.03125 C 4.847656 51 5.375 50.023438 5.992188 49.105469 L 6.988281 47.898438 L 7.316406 46.996094 C 8.957031 44.78125 12.644531 42.773438 17.804688 41.128906 Z M 20.992188 40.269531 "/>
<path style=" stroke:none;fill-rule:evenodd;fill:rgb(25.098039%,25.098039%,25.098039%);fill-opacity:1;" d="M 40.097656 61.097656 C 42.5 61.265625 44.621094 62.242188 46.101562 63.691406 L 46.839844 64.765625 L 49.859375 64.511719 C 50.953125 64.476562 52.085938 64.496094 53.238281 64.574219 C 62.476562 65.210938 69.707031 69.445312 69.394531 74.027344 L 69 75.472656 L 36.914062 75.472656 L 34.644531 74.539062 C 32.21875 73.066406 30.703125 70.597656 30.886719 67.910156 C 31.167969 63.820312 35.289062 60.769531 40.097656 61.097656 Z M 40.097656 61.097656 "/>
<path style=" stroke:none;fill-rule:evenodd;fill:rgb(25.098039%,25.098039%,25.098039%);fill-opacity:1;" d="M 28.644531 47.570312 C 29.550781 47.992188 30.136719 48.761719 30.195312 49.5 L 30.191406 49.535156 L 31.164062 49.589844 C 31.785156 49.707031 32.433594 49.917969 33.074219 50.214844 C 35.644531 51.414062 37.152344 53.625 36.441406 55.152344 C 35.734375 56.679688 33.078125 56.945312 30.511719 55.75 C 28.585938 54.847656 27.253906 53.382812 27.011719 52.058594 L 27.144531 50.8125 C 25.9375 50.25 25.296875 49.066406 25.714844 48.171875 C 26.128906 47.277344 27.441406 47.007812 28.644531 47.570312 Z M 28.644531 47.570312 "/>
<path style=" stroke:none;fill-rule:evenodd;fill:rgb(25.098039%,25.098039%,25.098039%);fill-opacity:1;" d="M 48.929688 36.265625 C 51.964844 36.265625 54.9375 36.34375 57.8125 36.496094 L 59.796875 36.65625 L 59.761719 36.820312 C 58.203125 40.113281 54.5625 42.425781 50.316406 42.425781 C 46.070312 42.425781 42.425781 40.113281 40.871094 36.820312 L 40.789062 36.464844 Z M 48.929688 36.265625 "/>
<path style="fill-rule:evenodd;fill:rgb(100%,100%,100%);fill-opacity:1;stroke-width:9.16667;stroke-linecap:butt;stroke-linejoin:miter;stroke:rgb(0%,0%,0%);stroke-opacity:1;stroke-miterlimit:8;" d="M 1713.883656 1251.117224 L 1742.213017 1258.70515 C 1762.611736 1264.17003 1774.685252 1285.085974 1769.240333 1305.451497 L 1701.928507 1556.757342 L 1702.046875 1558.959021 C 1705.518997 1579.324544 1715.304069 1598.471282 1729.863309 1614.079608 L 1734.598022 1618.24707 L 1739.648381 1620.763274 C 1749.393997 1628.351201 1754.168165 1641.325376 1750.774955 1653.985026 C 1746.237522 1670.930085 1728.876911 1680.955584 1711.950315 1676.434281 L 1601.158049 1646.75094 C 1584.231452 1642.229637 1574.209645 1624.812789 1578.707621 1607.907046 L 1580.640962 1604.014793 L 1580.917154 1599.886646 L 1667.128372 1278.127098 C 1672.573291 1257.722258 1693.524393 1245.652344 1713.883656 1251.117224 Z M 1713.883656 1251.117224 " transform="matrix(0.0990028,0,0,0.099356,-152.761396,-59.216191)"/>
<path style=" stroke:none;fill-rule:evenodd;fill:rgb(25.098039%,25.098039%,25.098039%);fill-opacity:1;" d="M 13.527344 88.152344 C 14.269531 88.472656 15.234375 89.335938 16.292969 90.597656 L 16.925781 91.4375 L 15.988281 94.941406 L 16.003906 95.164062 C 16.347656 97.1875 17.316406 99.089844 18.757812 100.640625 L 19.222656 101.054688 L 19.726562 101.300781 C 20.207031 101.679688 20.566406 102.191406 20.765625 102.765625 L 20.835938 103.144531 L 20.164062 103.746094 C 19.175781 104.328125 17.820312 104.648438 16.144531 104.710938 L 14.011719 104.589844 L 13.640625 102.945312 C 13.410156 100.652344 13.867188 98.90625 15.0625 98.246094 L 15.152344 98.222656 L 13.648438 95.117188 C 12.128906 91.492188 11.640625 88.632812 12.601562 88.101562 C 12.839844 87.972656 13.15625 87.992188 13.527344 88.152344 Z M 13.527344 88.152344 "/>
<path style="fill-rule:evenodd;fill:rgb(100%,100%,100%);fill-opacity:1;stroke-width:9.16667;stroke-linecap:butt;stroke-linejoin:miter;stroke:rgb(0%,0%,0%);stroke-opacity:1;stroke-miterlimit:8;" d="M 2450.01304 1251.117224 L 2478.342401 1258.70515 C 2498.701664 1264.17003 2510.77518 1285.085974 2505.330261 1305.451497 L 2438.018435 1556.757342 L 2438.136803 1558.959021 C 2441.608925 1579.324544 2451.393997 1598.471282 2465.992693 1614.079608 L 2470.68795 1618.24707 L 2475.738309 1620.763274 C 2485.483925 1628.351201 2490.297549 1641.325376 2486.864883 1653.985026 C 2482.327451 1670.930085 2464.966839 1680.955584 2448.040243 1676.434281 L 2337.247977 1646.75094 C 2320.32138 1642.229637 2310.299573 1624.812789 2314.837005 1607.907046 L 2316.73089 1604.014793 L 2317.007082 1599.886646 L 2403.2183 1278.127098 C 2408.702675 1257.722258 2429.614321 1245.652344 2450.01304 1251.117224 Z M 2450.01304 1251.117224 " transform="matrix(0.0990028,0,0,0.099356,-152.761396,-59.216191)"/>
<path style=" stroke:none;fill-rule:evenodd;fill:rgb(25.098039%,25.098039%,25.098039%);fill-opacity:1;" d="M 92.480469 79.429688 L 92.621094 79.53125 L 88.390625 95.378906 L 87.21875 95.578125 C 85.96875 95.542969 84.730469 95.03125 83.796875 94.050781 L 81.953125 92.101562 C 80.09375 90.136719 80.171875 87.027344 82.132812 85.160156 L 87.152344 80.375 C 88.621094 78.972656 90.730469 78.667969 92.480469 79.429688 Z M 92.480469 79.429688 "/>
<path style=" stroke:none;fill-rule:evenodd;fill:rgb(98.431373%,98.431373%,98.431373%);fill-opacity:1;" d="M 5.246094 63.539062 C 5.246094 59.78125 10.234375 56.730469 16.386719 56.730469 C 22.535156 56.730469 27.523438 59.78125 27.523438 63.539062 C 27.523438 67.296875 22.535156 70.34375 16.386719 70.34375 C 10.234375 70.34375 5.246094 67.296875 5.246094 63.539062 Z M 5.246094 63.539062 "/>
<path style=" stroke:none;fill-rule:evenodd;fill:rgb(98.431373%,98.431373%,98.431373%);fill-opacity:1;" d="M 76.132812 66.816406 C 76.132812 65.035156 81.140625 63.585938 87.320312 63.585938 C 93.5 63.585938 98.507812 65.035156 98.507812 66.816406 C 98.507812 68.601562 93.5 70.046875 87.320312 70.046875 C 81.140625 70.046875 76.132812 68.601562 76.132812 66.816406 Z M 76.132812 66.816406 "/>
<path style="fill-rule:evenodd;fill:rgb(25.098039%,25.098039%,25.098039%);fill-opacity:1;stroke-width:4.58333;stroke-linecap:butt;stroke-linejoin:miter;stroke:rgb(0%,0%,0%);stroke-opacity:1;stroke-miterlimit:8;" d="M 2729.361061 790.691262 C 2675.030238 715.873517 2657.748539 635.826787 2690.773156 611.84422 C 2723.797774 587.861654 2794.581722 629.025174 2848.912545 703.842918 C 2903.243368 778.621347 2920.525067 858.707393 2887.50045 882.689959 C 2854.475832 906.672526 2783.691884 865.46969 2729.361061 790.691262 Z M 2729.361061 790.691262 " transform="matrix(0.0990028,0,0,0.099356,-152.761396,-59.216191)"/>
<path style="fill-rule:evenodd;fill:rgb(0%,0%,0%);fill-opacity:1;stroke-width:4.58333;stroke-linecap:butt;stroke-linejoin:miter;stroke:rgb(5.098039%,5.098039%,5.098039%);stroke-opacity:1;stroke-miterlimit:8;" d="M 2789.491906 778.5034 C 2789.491906 760.811343 2804.051147 746.500434 2822.003597 746.500434 C 2839.956048 746.500434 2854.515288 760.811343 2854.515288 778.5034 C 2854.515288 796.156141 2839.956048 810.506366 2822.003597 810.506366 C 2804.051147 810.506366 2789.491906 796.156141 2789.491906 778.5034 Z M 2789.491906 778.5034 " transform="matrix(0.0990028,0,0,0.099356,-152.761396,-59.216191)"/>
<path style=" stroke:none;fill-rule:evenodd;fill:rgb(100%,100%,100%);fill-opacity:1;" d="M 126.425781 17.683594 C 126.425781 17.246094 126.78125 16.890625 127.21875 16.890625 C 127.65625 16.890625 128.011719 17.246094 128.011719 17.683594 C 128.011719 18.125 127.65625 18.480469 127.21875 18.480469 C 126.78125 18.480469 126.425781 18.125 126.425781 17.683594 Z M 126.425781 17.683594 "/>
<path style="fill-rule:evenodd;fill:rgb(98.431373%,98.431373%,98.431373%);fill-opacity:1;stroke-width:8.02083;stroke-linecap:butt;stroke-linejoin:miter;stroke:rgb(0%,0%,0%);stroke-opacity:1;stroke-miterlimit:8;" d="M 2625.51304 605.160554 C 2636.994717 604.610135 2648.673674 605.160554 2660.431542 606.969076 C 2732.635904 618.095414 2787.400742 672.390372 2802.630733 739.541558 L 2804.445706 752.90889 L 2817.505621 779.446976 C 2823.976394 789.669054 2831.275742 798.672345 2838.890737 806.220956 L 2843.309802 809.602105 L 2857.198291 814.713144 C 2916.066547 843.492224 2948.617693 910.525463 2931.612185 976.457863 C 2914.606677 1042.350948 2853.686713 1085.283673 2788.229317 1081.981156 L 2787.676933 1081.902525 L 2785.743593 1083.081995 C 2745.77473 1099.751845 2674.24112 1091.338288 2601.878934 1057.762695 L 2578.323741 1045.496202 L 2558.477406 1040.345848 C 2483.195481 1012.471029 2435.25652 934.625977 2447.961331 852.18099 L 2463.506969 751.375579 C 2476.211781 668.891276 2545.299123 609.092122 2625.51304 605.160554 Z M 2625.51304 605.160554 " transform="matrix(0.0990028,0,0,0.099356,-152.761396,-59.216191)"/>
<path style=" stroke:none;fill-rule:evenodd;fill:rgb(25.098039%,25.098039%,25.098039%);fill-opacity:1;" d="M 91.820312 26.609375 C 89.769531 21.519531 93.699219 15.128906 100.589844 12.332031 C 107.484375 9.539062 114.730469 11.402344 116.78125 16.492188 C 118.828125 21.582031 114.902344 27.972656 108.007812 30.765625 C 101.117188 33.558594 93.867188 31.699219 91.820312 26.609375 Z M 91.820312 26.609375 "/>
<path style="fill-rule:evenodd;fill:rgb(98.431373%,98.431373%,98.431373%);fill-opacity:1;stroke-width:10.3125;stroke-linecap:butt;stroke-linejoin:miter;stroke:rgb(0%,0%,0%);stroke-opacity:1;stroke-miterlimit:8;" d="M 35.424221 466.018758 L 28.830272 462.452123 L 23.706514 450.43862 C 3.762025 391.083324 -4.510978 320.928651 2.410682 246.865014 C 4.759359 222.177053 8.640827 198.221953 13.956408 175.199471 L 33.88428 109.45436 L 35.449941 112.132886 C 175.568214 -163.152492 722.022128 112.137843 35.424221 466.018758 Z M 35.424221 466.018758 " transform="matrix(0.0315931,0.0941614,0.0938267,-0.0317058,61.069907,12.658653)"/>
<path style=" stroke:none;fill-rule:evenodd;fill:rgb(25.098039%,25.098039%,25.098039%);fill-opacity:1;" d="M 88.601562 3.160156 L 89.40625 3.730469 C 90.175781 4.546875 90.785156 5.527344 91.175781 6.648438 C 92.734375 11.117188 90.1875 16.082031 85.484375 17.738281 C 84.308594 18.152344 83.109375 18.320312 81.945312 18.265625 L 80.917969 18.125 L 80.078125 19.105469 C 79.347656 19.703125 78.488281 20.199219 77.523438 20.539062 C 74.140625 21.726562 70.597656 20.644531 68.984375 18.121094 L 68.945312 18.035156 L 69.742188 16.40625 C 70.601562 14.90625 71.6875 13.457031 73.023438 12.085938 L 72.722656 12.023438 L 78.265625 8.0625 C 80.253906 6.832031 82.378906 5.707031 84.621094 4.703125 Z M 88.601562 3.160156 "/>
<path style=" stroke:none;fill-rule:evenodd;fill:rgb(25.098039%,25.098039%,25.098039%);fill-opacity:1;" d="M 78.539062 24.042969 C 79.539062 24.042969 80.394531 24.8125 80.757812 25.910156 L 80.769531 25.972656 L 81.675781 25.351562 C 82.289062 25.085938 82.964844 24.941406 83.671875 24.941406 C 86.507812 24.941406 88.804688 27.273438 88.804688 30.15625 C 88.804688 33.035156 86.507812 35.371094 83.671875 35.371094 C 81.546875 35.371094 79.722656 34.058594 78.945312 32.183594 L 78.539062 30.15625 C 77.210938 30.15625 76.132812 28.789062 76.132812 27.101562 C 76.132812 25.414062 77.210938 24.042969 78.539062 24.042969 Z M 78.539062 24.042969 "/>
<path style=" stroke:none;fill-rule:evenodd;fill:rgb(0%,0%,0%);fill-opacity:1;" d="M 127.515625 32.289062 C 127.515625 29.875 130.085938 27.917969 133.257812 27.917969 C 136.429688 27.917969 139 29.875 139 32.289062 C 139 34.703125 136.429688 36.664062 133.257812 36.664062 C 130.085938 36.664062 127.515625 34.703125 127.515625 32.289062 Z M 127.515625 32.289062 "/>
<path style="fill-rule:evenodd;fill:rgb(0%,0%,0%);fill-opacity:1;stroke-width:4.58333;stroke-linecap:butt;stroke-linejoin:miter;stroke:rgb(5.098039%,5.098039%,5.098039%);stroke-opacity:1;stroke-miterlimit:8;" d="M 2611.506183 813.494358 C 2611.506183 795.841616 2625.828687 781.491392 2643.504946 781.491392 C 2661.181205 781.491392 2675.50371 795.841616 2675.50371 813.494358 C 2675.50371 831.186415 2661.181205 845.497323 2643.504946 845.497323 C 2625.828687 845.497323 2611.506183 831.186415 2611.506183 813.494358 Z M 2611.506183 813.494358 " transform="matrix(0.0990028,0,0,0.099356,-152.761396,-59.216191)"/>
<path style=" stroke:none;fill-rule:evenodd;fill:rgb(100%,100%,100%);fill-opacity:1;" d="M 108.707031 21.210938 C 108.707031 20.746094 109.058594 20.367188 109.496094 20.367188 C 109.933594 20.367188 110.289062 20.746094 110.289062 21.210938 C 110.289062 21.679688 109.933594 22.058594 109.496094 22.058594 C 109.058594 22.058594 108.707031 21.679688 108.707031 21.210938 Z M 108.707031 21.210938 "/>
<path style="fill:none;stroke-width:10.3125;stroke-linecap:round;stroke-linejoin:miter;stroke:rgb(0%,0%,0%);stroke-opacity:1;stroke-miterlimit:8;" d="M 2897.995728 1037.436487 C 2864.852743 1041.918475 2831.749213 1046.361147 2795.410297 1039.284324 C 2759.07138 1032.207501 2719.536533 1013.611183 2680.001686 995.014865 " transform="matrix(0.0990028,0,0,0.099356,-152.761396,-59.216191)"/>
</g>
</svg>
