<?xml version="1.0" encoding="UTF-8"?><svg id="b" xmlns="http://www.w3.org/2000/svg" width="647.98" height="647.93" viewBox="0 0 647.98 647.93"><g id="c"><g><path d="M.05,23.85C.05,16.53,.11,9.21,0,1.89-.02,.35,.3-.23,1.85,.08c.46,.09,.96,.01,1.44,.01C217.08,.09,430.87,.1,644.66,.03c2.7,0,3.4,.6,3.31,3.31-.22,6.83-.07,13.67-.07,20.51-1.24,.68-2.59,.34-3.88,.34-213.36,.02-426.73,.02-640.09,0-1.29,0-2.64,.33-3.88-.34Z" style="fill:#525252;"/><path d="M498.17,647.93c0-6.94,.06-13.87-.03-20.81-.02-2.04,.43-3,2.75-2.99,14.94,.12,29.89,.11,44.84,.15,.48,7.88,.58,15.77-.05,23.65h-47.51Z" style="fill:#525252;"/><path d="M.05,23.85H647.9v.72H.05v-.72Z"/><path d="M545.68,647.93c.02-7.88,.03-15.76,.05-23.65,1.28,.86,.62,2.17,.63,3.25,.07,6.8,.03,13.6,.04,20.4h-.72Z"/><path d="M264.34,419.8c-.03-7.07-.01-14.13-.14-21.2-.04-2.08,.78-2.67,2.74-2.64,4.79,.1,9.6-.21,14.37,.11,3.55,.24,5.18-.78,4.62-4.45,8.11-.69,16.23-.2,24.35-.27,3.81-.03,7.63-.4,11.43,.27,.03,6.95-.02,13.9,.15,20.84,.06,2.43-.86,3.02-3.13,3-9.47-.1-18.94,.13-28.4-.13-3.53-.1-5.18,.79-4.62,4.46-7.13,.51-14.25,.51-21.38,0Z" style="fill:#525252;"/><path d="M105.76,175.68c.03,6.95-.02,13.9,.15,20.84,.06,2.43-.86,3.02-3.13,3-9.47-.1-18.94,.13-28.4-.13-3.53-.1-5.18,.79-4.62,4.46-7.13,.51-14.25,.51-21.38,0-.03-7.07-.01-14.13-.14-21.2-.04-2.08,.78-2.67,2.74-2.64,4.79,.1,9.6-.21,14.37,.11,3.55,.24,5.18-.78,4.62-4.45,8.11-.69,16.23-.2,24.35-.27,3.81-.03,7.63-.4,11.43,.27Z" style="fill:#525252;"/><path d="M383.77,120.2c-14.96,.03-29.91,.04-44.87,.13-1.98,.01-2.75-.6-2.72-2.65,.12-7.06,.1-14.12,.14-21.18,1.14-.56,2.35-.29,3.53-.3,13.62-.02,27.23,.05,40.85-.07,2.61-.02,3.58,.56,3.44,3.34-.36,6.9,.33,13.82-.37,20.73Z" style="fill:#525252;"/><path d="M167.82,552.09c-14.96,.03-29.91,.04-44.87,.13-1.98,.01-2.75-.6-2.72-2.66,.12-7.06,.1-14.12,.14-21.18,1.14-.56,2.35-.29,3.53-.3,13.62-.02,27.23,.05,40.85-.07,2.61-.02,3.58,.56,3.44,3.34-.36,6.9,.33,13.82-.37,20.73Z" style="fill:#525252;"/><path d="M516.28,491.78c-.03-7.07-.01-14.14-.14-21.2-.04-2.09,.8-2.64,2.75-2.63,12.1,.06,24.2,.06,36.31,0,1.95,0,2.79,.53,2.75,2.63-.13,7.07-.1,14.13-.14,21.2-6.31,.68-12.65,.28-18.97,.27-7.52-.02-15.05,.42-22.56-.27Z" style="fill:#525252;"/><path d="M646.51,539.85c-10.66,.03-21.33,.03-31.99,.14-2.08,.02-2.67-.77-2.64-2.74,.09-6.11,.09-12.22,0-18.33-.03-1.97,.56-2.76,2.64-2.74,10.66,.11,21.33,.1,31.99,.14,.51,7.85,.51,15.69,0,23.54Z" style="fill:#525252;"/><path d="M244.9,59.89c-.03-7.07-.01-14.13-.14-21.2-.04-2.09,.79-2.65,2.74-2.63,7.79,.08,15.57,.08,23.36,0,1.96-.02,2.78,.55,2.74,2.63-.13,7.06-.1,14.13-.14,21.2-9.53,.51-19.05,.51-28.58,0Z" style="fill:#525252;"/><path d="M28.95,491.78c-.03-7.07-.01-14.13-.14-21.2-.04-2.09,.79-2.65,2.74-2.63,7.79,.08,15.57,.08,23.36,0,1.96-.02,2.78,.55,2.74,2.63-.13,7.06-.1,14.13-.14,21.2-9.53,.51-19.05,.51-28.58,0Z" style="fill:#525252;"/><path d="M148.95,96.5c.03,7.07,.01,14.13,.14,21.2,.04,2.09-.79,2.65-2.74,2.63-7.79-.08-15.57-.08-23.36,0-1.96,.02-2.78-.55-2.74-2.63,.13-7.06,.1-14.13,.14-21.2,9.53-.51,19.05-.51,28.58,0Z" style="fill:#525252;"/><path d="M364.9,312.44c.03,7.07,.01,14.13,.14,21.2,.04,2.09-.79,2.65-2.74,2.63-7.79-.08-15.57-.08-23.36,0-1.96,.02-2.78-.55-2.74-2.63,.13-7.06,.1-14.13,.14-21.2,9.53-.51,19.05-.51,28.58,0Z" style="fill:#525252;"/><path d="M396.07,59.89c-.03-7.07-.01-14.13-.14-21.19-.04-2.08,.78-2.67,2.74-2.64,5.39,.09,10.78,.09,16.17,0,1.96-.03,2.78,.55,2.74,2.64-.12,7.06-.1,14.13-.14,21.19-7.13,.51-14.25,.51-21.38,0Z" style="fill:#525252;"/><path d="M180.11,491.78c-.03-7.07-.01-14.13-.14-21.19-.04-2.08,.78-2.67,2.74-2.64,5.39,.09,10.78,.09,16.17,0,1.96-.03,2.78,.55,2.74,2.64-.12,7.06-.1,14.13-.14,21.19-7.13,.51-14.25,.51-21.38,0Z" style="fill:#525252;"/><path d="M180.11,59.89c-.03-7.04-.02-14.09-.13-21.13-.03-2,.63-2.76,2.67-2.7,4.65,.14,9.31,.1,13.97,.13,.69,7.36,.12,14.73,.31,22.09,.04,1.34-.49,1.97-1.87,1.92-4.98-.19-9.98,.39-14.95-.31Z" style="fill:#525252;"/><path d="M396.07,275.84c-.03-7.04-.02-14.09-.13-21.13-.03-2,.63-2.76,2.67-2.7,4.65,.14,9.31,.1,13.97,.13,.69,7.36,.12,14.73,.31,22.09,.04,1.34-.49,1.97-1.87,1.92-4.98-.19-9.98,.39-14.95-.31Z" style="fill:#525252;"/><path d="M383.77,120.2c-.02-6.59-.15-13.18,0-19.77,.07-2.98-1.02-3.94-3.96-3.93-14.5,.09-28.99,.01-43.49,0,.73-1.25,1.94-.63,2.9-.63,14.03-.05,28.06,.03,42.08-.09,2.51-.02,3.27,.63,3.19,3.18-.19,6.23-.04,12.47-.09,18.7,0,.85,.54,1.95-.64,2.54Z"/><path d="M167.82,552.09c-.02-6.59-.15-13.18,0-19.77,.07-2.98-1.02-3.94-3.96-3.93-14.5,.09-28.99,.01-43.49,0,.73-1.25,1.94-.63,2.9-.63,14.03-.05,28.06,.03,42.08-.09,2.51-.02,3.27,.63,3.19,3.18-.19,6.23-.04,12.47-.09,18.7,0,.85,.54,1.95-.64,2.54Z"/><path d="M516.28,491.78c13.84,0,27.69,0,41.53,0-.35,.93-1.16,.65-1.81,.65-12.64,.02-25.27,.02-37.91,0-.65,0-1.47,.28-1.81-.65Z"/><path d="M396.07,275.84c4.31-.02,8.62-.14,12.92-.02,2.64,.07,3.6-.95,3.56-3.57-.1-6.7,0-13.4,.02-20.1,1.45,1.52,.58,3.39,.62,5.06,.13,5.63,.07,11.26,.02,16.9,0,.84,.48,2.32-.94,2.29-5.4-.12-10.85,.89-16.2-.55Z"/><path d="M180.11,59.89c4.31-.02,8.62-.14,12.92-.02,2.64,.07,3.6-.95,3.56-3.57-.1-6.7,0-13.4,.02-20.1,1.45,1.52,.58,3.39,.62,5.06,.13,5.63,.07,11.26,.02,16.9,0,.84,.48,2.32-.94,2.29-5.4-.12-10.85,.89-16.2-.55Z"/><path d="M321.71,391.62c-11.93,0-23.85,0-35.78,0,.34-.93,1.16-.65,1.81-.65,10.72-.02,21.44-.02,32.15,0,.65,0,1.47-.27,1.81,.65Z"/><path d="M105.76,175.68c-11.93,0-23.85,0-35.78,0,.34-.93,1.16-.65,1.81-.65,10.72-.02,21.44-.02,32.15,0,.65,0,1.47-.27,1.81,.65Z"/><path d="M148.95,96.5c-9.53,0-19.05,0-28.58,0,.25-.21,.49-.59,.74-.59,9.03-.03,18.07-.03,27.1,0,.25,0,.49,.39,.74,.59Z"/><path d="M244.9,59.89c9.53,0,19.05,0,28.58,0-.25,.21-.49,.59-.74,.59-9.03,.03-18.07,.03-27.1,0-.25,0-.49-.39-.74-.59Z"/><path d="M28.95,491.78c9.53,0,19.05,0,28.58,0-.25,.21-.49,.59-.74,.59-9.03,.03-18.07,.03-27.1,0-.25,0-.49-.39-.74-.59Z"/><path d="M364.9,312.44c-9.53,0-19.05,0-28.58,0,.25-.21,.49-.59,.74-.59,9.03-.03,18.07-.03,27.1,0,.25,0,.49,.39,.74,.59Z"/><path d="M646.51,539.85c0-7.85,0-15.69,0-23.54,1.25,.72,.62,1.92,.63,2.87,.07,5.93,.07,11.86,0,17.8-.01,.95,.62,2.15-.63,2.87Z"/><path d="M396.07,59.89c7.13,0,14.25,0,21.38,0-3.85,1.47-7.85,.57-11.76,.58-3.19,.01-6.51,.95-9.62-.58Z"/><path d="M180.11,491.78c7.13,0,14.25,0,21.38,0-3.85,1.47-7.85,.57-11.76,.58-3.19,.01-6.51,.95-9.62-.58Z"/><path d="M48.39,203.85c7.13,0,14.25,0,21.38,0-3.85,1.47-7.85,.57-11.76,.58-3.19,.01-6.51,.95-9.62-.58Z"/><path d="M264.34,419.8c7.13,0,14.25,0,21.38,0-3.85,1.47-7.85,.57-11.76,.58-3.19,.01-6.51,.95-9.62-.58Z"/></g></g></svg>