<?xml version="1.0" encoding="UTF-8"?><svg id="b" xmlns="http://www.w3.org/2000/svg" width="803.73" height="352.7" viewBox="0 0 803.73 352.7"><g id="c"><g><path d="M792.91,222.9c1.86,2.3,2.78,5.12,3.72,7.81,2.3,6.57,4.21,13.23,5.51,20.16,1.55,8.28,1.85,16.52,1.39,24.75-.65,11.46-2.78,22.64-7.29,33.41-3.98,9.51-9.41,18-15.79,25.92-3.36,4.17-7.15,8.09-11.63,11.19-.49,.34-1.07,.61-1.45,1.05-3.5,4.04-8.03,4.41-13.09,4.94-4.76,.49-9.26-.31-13.88-.31-224.47,.01-448.94,.01-673.41,.01-1.4,0-2.8,.01-4.2,.02-.03-.19-.06-.39-.09-.58,.24-.32,.56-.55,.94-.69,1.59-.32,3.19-.18,4.78-.18,225.31,0,450.62,0,675.92,0,4.79,.77,9.47-1.07,14.26-.67,1.29,.11,2.17-.78,3.2-1.4,7.75-4.62,13.58-11.22,19.28-18.06,2.69-3.22,4.76-6.84,7.43-10.05,1.85-2.23,1.84-5.23,2.84-7.83,5.28-9.68,7.19-20.3,8.63-31.04,.03-.34,.09-.68,.17-1.02,1.24-1.78,1.54-3.78,1.49-5.91-.08-3.26-.06-6.53,0-9.8,.04-2.03-.25-3.93-1.48-5.6-.09-.33-.14-.67-.18-1.01-1.17-9.84-3.15-19.47-7.21-28.59-.68-1.54-1.47-3.09-1-4.88,.29-.61,.46-1.31,1.16-1.63Z" style="fill:#c5c5c5;"/><path d="M792.91,222.9c0,.58,.02,1.15,.03,1.73-1.83,.94-2.4-.51-3.14-1.66-2.37-3.62-4.2-7.6-7.25-10.76-1.98-6.44-7.34-9.95-12.13-13.95-5.22-5.55-11.05-10.25-18.17-13.17-.18-.08-.38-.14-.54-.25-10.16-6.96-22.06-8.04-33.71-10.01-9.97-1.68-19.91-.91-29.78,.5-2.61,.37-5.13,1.32-7.88,1.14-1.5-.1-2.63-.54-3.71-1.57-5.13-4.88-9.66-10.35-14.99-15.05-4.77-4.21-9.36-8.64-15.3-11.23-1.85-.81-3.48-2-5.04-3.2-5.49-4.22-12.37-4.8-18.5-7.32-5.14-2.11-10.6-2.59-15.98-3.52-2.61-.45-4.8-1.5-6.2-4.09-3.17-5.85-5.76-11.99-8.97-17.82-1.29-2.34-2.93-4.49-4.42-6.71-8.46-12.62-18.94-23.4-30.81-32.8-6.25-4.95-13.22-8.89-20.25-12.67-4.98-2.68-10.41-4.34-15.4-6.99-1.05-.56-2.25-.87-2.79-2.09-.06-.33,.04-.6,.3-.82,13.83,4.78,26.9,10.97,38.66,19.86,9.71,7.34,18.27,15.89,25.92,25.2,8.12,9.88,14.15,21.18,19.1,33,.83,1.98,1.89,2.99,4.1,3.25,9.65,1.16,18.97,3.88,27.94,7.44,6.73,2.67,13.08,6.31,19.04,10.55,9.5,6.76,17.86,14.69,25.08,23.84,.87,1.1,1.95,1.3,3.21,.83,5.89-2.19,11.99-2.91,18.22-2.59,7.95,.41,15.89-.57,23.88,.99,9.97,1.94,19.82,4.3,28.72,9.08,13.12,7.04,24.61,16.23,33.21,28.68,2.73,3.95,5.44,7.88,7.56,12.18Z" style="fill:#b0b0b0;"/><path d="M27.33,202.45c2.26-2.33,4.53-4.65,6.79-6.98,6.16-4.12,12.15-8.51,18.87-11.77,1.72-.84,3.5-1.42,5.26-2.06,2.53-.92,4.31-2.4,4.84-5.17,.81-4.22,2.93-8.03,3.79-12.26,.41-2,1.78-3.75,2.68-5.63,3.93-8.24,8.34-16.23,13.83-23.58,.42-.57,.86-1.1,1.6-1.27,.32,0,.6,.11,.86,.3,.96,1.39,.1,2.43-.68,3.49-6.17,8.43-10.92,17.66-15.1,27.17-1.55,3.53-2.86,7.27-3.63,11.09-1.01,5.02-4.29,7.57-8.76,9.3-13.44,5.2-24.56,13.77-33.69,24.74-7.19,8.63-12.92,18.24-16.01,29.22-2.44,8.66-4.66,17.32-4.32,26.46,.24,6.48-.44,13.04,.74,19.44,1.79,9.63,4.36,19.03,8.76,27.91,4.92,9.93,12.12,17.96,19.91,25.64,3.25,3.2,7.16,5.4,10.62,8.24,.93,.77,2.16,1.25,3.36,1.14,4.93-.45,9.66,1.4,14.56,1.2,.41-.02,.76,.21,1.08,.46,.23,.24,.37,.52,.43,.84,0,.34-.13,.62-.4,.82h.02c-1.84,1.45-4.12,1.42-5.98,.71-2.65-1.01-5.29-1.08-7.94-.87-3.36,.27-5.97-1.22-8.59-2.9-6.62-4.22-12.06-9.82-17.26-15.56-3.37-3.72-6.65-7.63-8.94-12.24-2.67-5.34-6.12-10.33-7.71-16.15-1.94-7.05-4.44-13.92-5.11-21.36-.68-7.59-.47-15.15-.38-22.71,.07-5.64,1.43-11.16,2.99-16.64,1.72-6.05,3.58-12.02,6.27-17.69,2.04-4.3,4.67-8.25,7.51-12.12,2.96-4.04,5.94-7.97,9.76-11.22Z" style="fill:#343434;"/><path d="M27.33,202.45c-4.08,4.37-7.75,9.06-11.2,13.95-3.41,4.83-6.16,10.01-8.23,15.54-2.27,6.08-3.87,12.35-5.54,18.61-.63,2.37-.74,4.75-.86,7.11-.63,12.76-.95,25.43,2.64,38,2.64,9.21,6.38,17.81,11.13,26.05,2.25,3.91,5.15,7.37,8.19,10.63,5.29,5.68,10.71,11.28,17.31,15.55,2.29,1.48,4.58,2.78,7.47,2.69,2.98-.09,5.96-.19,8.87,.94,1.82,.71,3.75,.04,5.61-.33,.02,.22,.04,.44,.06,.66-1.99,.94-4.17,1.13-6.14,.46-2.94-.99-5.89-.95-8.87-.92-1.84,.01-3.67-.18-5.15-1.28-3.42-2.57-7.27-4.53-10.35-7.58-5.74-5.69-11.82-11.12-16.21-17.94-5.24-8.14-9.34-16.82-12.16-26.21-4.53-15.07-4.67-30.41-2.68-45.63,1.41-10.8,4.81-21.39,10.5-30.97,3.72-6.26,7.79-12.26,12.98-17.43,.77-.77,1.45-1.68,2.63-1.89Z" style="fill:#a8a8a8;"/><path d="M405.97,8.74c2.06,.05,4.13,.08,5.94,1.28,8.88,3,17.17,7.12,25.19,12.02,6.63,4.05,12.74,8.76,18.95,13.34,2.76,2.03,5.38,4.43,7.77,6.98,1.04,1.1,2.14,1.63,3.68,1.52,6.38-.48,12.72,.46,19.09,.66,2.92,.09,5.75,1.34,8.76,1.31,5.31-.07,10.23,2.05,15.39,2.88,.97,.16,2.53-.11,2.73,1.61-1.13,1.68-2.91,1.44-4.34,.98-6.9-2.23-14.12-2.41-21.19-3.48-6.09-.93-12.3-1.28-18.5-.98-3.18,.16-5.71-.82-8.1-3.01-9.6-8.77-20.07-16.44-31.43-22.74-7.66-4.25-15.64-7.88-24.27-9.96-2.88-.7-5.73-1.67-8.56-2.56-7.39-2.32-14.91-3.57-22.64-3.8-1.79-.05-3.7-.15-4.2-2.49,.03-.35,.19-.64,.46-.87,5.58,.48,11.17,.85,16.73,1.62,1.79,.25,3.6,.68,5.15,1.34,4.35,1.85,9.56,1.03,13.38,4.38Z" style="fill:#424242;"/><path d="M124.55,101.01c7.79-3.78,15.66-7.22,24.21-9.17,5.26-1.19,10.59-1.83,15.83-3.03,.97-.22,1.97-.37,2.96-.37,9.79-.03,19.63-.53,29.37,.18,5.55,.4,11.35,.58,16.71,2.71,1.33,.53,2.46,.29,3-1.05,2.4-6.04,5.79-11.59,8.75-17.35,.34-.2,.66-.17,.97,.07,1.17,1.2,.58,2.41-.03,3.57-2.46,4.68-4.87,9.37-7.07,14.18-1.44,3.16-3.23,3.86-6.58,3.11-8.29-1.84-16.66-2.9-25.17-2.67-3.99,.11-7.98,.02-11.97,.02-15.47-.01-30.22,3.23-44.31,9.64-2.02,.92-4.12,2.77-6.67,1.13-.21-.33-.21-.65,0-.98Z" style="fill:#5a5a5a;"/><path d="M513.41,50.09c-6.49-1.96-13.08-3.2-19.83-4.06-8.82-1.12-17.63-1.82-26.52-1.73-1.53,.02-2.59-.83-3.64-1.81-10.34-9.64-21.78-17.79-34.14-24.57-4.95-2.72-10.13-5.14-15.57-6.88-.64-.21-1.21-.67-1.81-1.02,3.57-.14,6.55,1.77,9.57,3.14,11.2,5.1,21.57,11.59,31.25,19.22,4,3.15,7.87,6.43,11.63,9.86,1.03,.95,2.21,1.33,3.56,1.26,6-.31,12.01,.06,17.94,.71,10.28,1.13,20.54,2.6,30.53,5.46,.66,.19,1.26,.6,1.88,.91-.09,.12-.17,.24-.26,.35-.49,.51-1.05,.89-1.77,.98-1.22-.18-2.41-.41-2.83-1.83Z" style="fill:#b0b0b0;"/><path d="M226.08,73.05c-.23-.04-.47-.07-.7-.11-.12-1.96,1.57-2.92,2.45-4.3,3.96-6.22,8.39-12.05,13.44-17.47,2.83-3.03,5.12-6.65,8.36-9.3,7.14-5.84,13.66-12.41,21.84-17.03,6.32-3.57,12.26-7.81,18.96-10.7,3.47-1.49,7.01-2.8,10.52-4.18,.23-.23,.48-.26,.75-.08,.19,2.73-2.27,3.13-3.86,3.71-2.9,1.05-5.82,2.15-8.56,3.48-4.7,2.29-9.47,4.55-13.68,7.73-.4,.3-.73,.7-1.16,.94-10.94,6.01-20.03,14.36-28.47,23.34-4.13,4.4-7.8,9.27-11.88,13.74-.83,.9-.5,2.11-.99,3.08-1.28,1.72-2.46,3.51-3.79,5.18-.79,.99-1.48,2.44-3.23,1.96Z" style="fill:#a4a4a4;"/><path d="M84.86,134.03c-6.48,8.02-11.14,17.1-15.57,26.35-2.64,5.51-4.1,11.37-6.04,17.09-.62,1.83-1.51,3.28-3.34,3.91-8.95,3.09-16.68,8.34-24.38,13.65-.39,.27-.94,.3-1.41,.45,4.72-4.55,10.42-7.65,16.05-10.83,2.06-1.17,4.16-2.39,6.53-2.97,3.55-.87,5.47-3.15,6.42-6.72,3.1-11.65,8.24-22.39,14.79-32.51,2.17-3.35,3.99-6.89,7.08-9.53,.3,.41,.39,.79-.12,1.11Z" style="fill:#b3b3b3;"/><path d="M84.86,134.03c.04-.37,.08-.74,.12-1.11,4.01-4.65,7.86-9.47,12.51-13.51,8.29-7.19,17.09-13.64,27.05-18.4,.02,.25,.03,.5,.05,.75,.24,1.7-.88,2.61-2.14,3.23-7.63,3.75-14.21,9.09-20.95,14.14-3.71,2.78-6.94,6.21-9.74,10.01-1.58,2.14-2.88,4.87-6.18,4.98-.24-.03-.49-.07-.73-.1Z" style="fill:#5b5b5b;"/><path d="M405.97,8.74c-10.13-3.58-20.45-6.26-31.27-6.43-1.43-.02-2.73-.49-4.07-.83-.18,.05-.36,.1-.53,.15-8.87,.4-17.73,.27-26.6,.07-.54-.19-1-.46-1.02-1.13,9.06-.6,18.22-.93,27.18,0,7.74,.8,15.68,.99,23.26,3.3,3.33,1.01,6.65,2.06,10.12,2.57,1.32,.2,2.39,.98,2.95,2.29Z" style="fill:#b0b0b0;"/><path d="M342.46,.58c.22,.16,.44,.31,.66,.47,.08,.35,0,.67-.23,.94-3.16,1.93-6.78,1.07-10.17,1.61-7.06,1.14-13.97,2.52-20.68,5.19-3.1,1.23-6.64,2.53-10.26,1.27-.28-.04-.56-.08-.84-.12,3.46-1.79,7.23-2.79,10.93-3.77,7.06-1.88,14.13-3.86,21.48-4.47,3.04-.25,6.2,.29,9.11-1.12Z" style="fill:#a7a7a7;"/><path d="M85.59,134.13c2.96-2.57,4.85-6.05,7.53-8.86,8.03-8.43,17.38-15.15,27.45-20.9,1.38-.79,2.68-1.72,4.01-2.59,4.87-1.22,9.15-3.91,13.87-5.56,7.18-2.52,14.53-4.08,22-5.42,10.65-1.92,21.33-.84,31.99-1.04,7.08-.13,14.08,.95,20.93,2.83,1.48,.4,3.09,.45,3.74-.98,2.8-6.27,6.51-12.1,8.97-18.54,1.8-2.61,3.93-5,5.39-7.85,5.84-8.05,12.04-15.88,19.35-22.57,6.48-5.93,13.01-11.89,20.76-16.4,6.7-3.9,13.19-8.19,20.24-11.41,4.22-1.93,8.59-3.64,13.03-5.09,4.51-1.48,9.09-2.75,13.67-4,5.47-1.49,11.1-2.17,16.7-2.99,10.59-1.54,21.25-1.14,31.89-1.17,1.17,0,2.42-.32,3.45,.56,1.13,.67,2.32,1.22,3.66,1.18,9.52-.29,18.58,2.29,27.57,4.81,10.73,3,21.13,6.99,30.77,12.71,10.91,6.48,21.12,13.9,30.43,22.52,1.6,1.48,3.32,2.12,5.42,2,6.1-.36,12.27-.19,18.2,.82,6.55,1.12,13.34,.65,19.7,3.06,2.21,.83,4.65,1.18,7.08,.86,.97,.23,1.95,.46,2.92,.69,8.92,4.1,18.26,7.18,26.82,12.19,8.53,5,16.44,10.68,23.57,17.48,5.12,4.89,10.02,10.02,14.73,15.31,1.52,1.71,2.73,3.67,4.04,5.52,6.3,8.95,11.45,18.56,15.62,28.68,.88,2.14,2.25,3.07,4.48,3.29,8.05,.78,15.67,3.3,23.36,5.65,7.42,2.27,14.08,6.03,20.51,10.13,10.65,6.8,19.84,15.32,27.46,25.44,1.41,1.87,3.04,1.85,5.04,1.22,3.76-1.19,7.55-2.28,11.56-2.27,6.1,.02,12.2,.05,18.29,0,14.23-.12,27.6,3.76,40.12,9.96,6.11,3.03,12.3,6.59,17.13,11.78,.63,.68,1.47,1.03,2.17,1.57,3.57,3.6,7.24,7.09,10.48,11.01,.95,1.15,1.46,2.53,2.37,3.68,3.05,3.67,5.4,7.79,7.64,11.98,.29,.55,.63,1,1.23,1.23,1.72,5,3.47,9.99,5.17,15,1.08,3.18,2.07,6.39,2.02,9.79-.04,2.8,1.84,5.28,1.28,8.14,.57,.9,.49,1.9,.49,2.89,0,6.16,0,12.32,0,18.48,0,.99,.08,2-.5,2.89-1.53,6.88-1.4,14.04-4.22,20.74-1.44,3.43-2.92,6.86-4.31,10.32-1.27,3.69-3.63,6.79-5.46,10.16-2.2,4.05-5.29,7.4-7.98,11.04-2.82,3.82-6.27,7.26-10.19,10.05-1.78,1.27-3.59,2.55-5.17,4.02-1.51,1.41-2.99,2.05-5.04,1.97-2.97-.11-5.93-.24-8.83,1.01-1.9,.82-3.89-.42-5.85-.71-1.81-.08-3.61-.04-5.4-.04-223.3,0-446.59,0-669.89,0-1.9,0-3.8,.14-5.69-.15-.19-.05-.38-.1-.58-.15-2.56,.75-5.07,.88-7.63-.12-2.19-.85-4.55-.4-6.84-.44-1.72-.03-3.53,.02-4.88-1.1-3.07-2.54-6.75-4.23-9.59-7.09-5.48-5.52-11.36-10.72-15.76-17.17-4.67-6.85-8.63-14.14-11.04-22.16-1-3.34-1.81-6.74-2.76-10.1-3.1-10.97-2.36-22.21-1.88-33.34,.48-11.16,3.87-21.86,8.81-31.8,7.79-15.68,19.2-28.24,34.37-37.33,4.65-2.79,9.53-4.95,14.46-7.1,2.17-.94,3.55-2.44,4.17-4.75,2.41-8.99,5.89-17.57,10.28-25.75,2.39-4.47,5.21-8.71,7.89-13.02,1-1.61,2.13-3.13,3.2-4.69Z"/><path d="M745.53,350.07c2.15,.75,4.28,.82,6.44-.02,.73-.28,1.61-.57,2.33-.43,7.77,1.52,12.41-3.93,17.3-8.16,9.14-7.92,15.39-18.15,21.27-28.58,.29,3.53-2.23,5.92-3.84,8.52-4.7,7.6-10.14,14.68-16.73,20.81-3.07,2.85-6.86,4.79-9.73,7.86-.13,.14-.34,.3-.51,.29-5.52-.33-10.9,1.97-16.46,.88-1.26-.5-2.57-.24-3.86-.24-225.03-.01-450.05-.01-675.08-.03-1.28,0-2.59,.28-3.85-.26,0-.21-.02-.43-.02-.65,0,0,0,0,0,0,1.04-.54,2.16-.28,3.24-.28,225.42-.01,450.83-.01,676.25,0,1.08,0,2.2-.27,3.24,.28Z" style="fill:#424242;"/><path d="M62.81,350.71c1.8-.03,3.6-.1,5.4-.1,223.93,0,447.86,0,671.8,.01,1.87,0,3.81-.41,5.58,.61-2.4,0-4.8,.02-7.2,.02-224.23,0-448.46,0-672.69,0-1,0-2-.04-3-.06,.02-.17,.06-.33,.11-.49Z" style="fill:#a8a8a8;"/><path d="M801.4,281.82c0-8.09,0-16.17,.01-24.26,.19,0,.35,.07,.5,.18,.67,6.76,.14,13.54,.28,20.31,.02,1.17,.31,2.4-.28,3.53-.15,.13-.32,.2-.51,.23Z" style="fill:#3b3b3b;"/><path d="M801.91,281.59c0-7.95,0-15.9,0-23.85,.68,.85,.59,1.87,.59,2.85,.01,6.05,0,12.1,0,18.15,0,.99,.07,2-.59,2.85Z" style="fill:#424242;"/><path d="M771.21,197.19c-5.24-4.48-11.01-8.19-16.84-11.86-6.02-3.79-12.69-5.77-19.3-7.98-14.05-4.68-28.6-3.74-43.05-3.46-3.26,.06-6.72,.72-9.85,2.14-2.16,.98-4.22,.94-5.57-1.19-3.43-5.38-8.14-9.59-12.65-13.95-4.45-4.3-9.34-8.11-14.57-11.44-10.01-6.38-20.73-11-32.35-13.63-3.89-.88-7.74-1.94-11.72-2.25-2.43-.2-3.77-1.46-4.65-3.59-2.88-7.02-6.14-13.92-10.12-20.32-4.4-7.08-9.27-13.92-15.1-20.01-8.8-9.18-18.03-17.91-29-24.39-6.05-3.58-12.24-7.06-19.03-9.36-3.81-1.29-7.79-2.55-11.08-5.12,.56,.05,1.12,.1,1.68,.16,4.96,2.08,9.99,4,14.86,6.27,8.04,3.75,15.75,8.09,22.93,13.37,9.71,7.15,18.17,15.67,25.8,24.87,5.36,6.47,10.06,13.55,13.73,21.25,2.18,4.59,4.43,9.15,6.53,13.78,.7,1.56,2.02,2.07,3.61,2.25,9.88,1.07,19.4,3.84,28.52,7.51,6.88,2.77,13.34,6.6,19.46,10.99,8.26,5.92,15.47,12.88,22.06,20.53,.65,.75,1.21,1.58,1.79,2.39,.93,1.29,2.22,1.84,3.67,1.34,12.45-4.32,25.42-3.06,37.99-2.14,12.54,.91,24.85,4.5,35.89,11.32,6.03,3.73,12.1,7.34,17.11,12.43-.21,.34-.47,.38-.77,.11Z" style="fill:#4c4c4c;"/><path d="M771.21,197.19c.26-.04,.51-.07,.77-.11,3.93,3.35,7.37,7.16,10.64,11.14,.76,.92,1.34,1.96,1.45,3.2-4.03-4.98-8.32-9.72-12.86-14.23Z" style="fill:#3b3b3b;"/><path d="M370.56,2.13c-5.89,0-11.78,.03-17.67,.01-11.3-.02-22.49,1.27-33.43,3.89-16.56,3.96-32.05,10.46-46.46,19.81-9.11,5.91-17.57,12.52-25.03,20.24-5.29,5.47-10.58,11.12-14.72,17.63-.44,.7-.94,1.29-1.78,1.49,1.38-3.53,3.94-6.22,6.46-8.91,4.17-4.43,7.35-9.76,12.07-13.64,7.14-5.87,13.72-12.39,21.88-17.08,6.48-3.73,12.75-7.83,19.51-11.05,3.41-1.62,7.16-2.44,10.4-4.46,7.37-2.02,14.72-4.11,22.12-6.02,4.05-1.04,8.24-1.44,12.41-1.67,2.2-.12,4.36-.29,6.48-.89,9.27-.39,18.53-.43,27.8,.03,0,0,.01-.04,.01-.04-.02,.22-.04,.43-.06,.65Z" style="fill:#404040;"/><path d="M370.61,1.53c-9.27,0-18.53-.02-27.8-.03,.11-.15,.21-.3,.32-.45,7.88,.02,15.77,.02,23.65,.06,1.29,0,2.6-.19,3.83,.42Z" style="fill:#424242;"/><path d="M402.93,341.67c-116.57,0-233.15-.06-349.72,.16-6.11,.01-10.65-1.78-14.91-5.67-8.89-8.11-16.54-17.18-21.82-28.08-4.2-8.68-7.03-17.77-8.1-27.41-1.4-12.68-.75-25.21,3.03-37.39,3.16-10.21,8.1-19.63,14.84-27.99,7.63-9.46,16.64-17.39,27.43-23.09,3.75-1.98,7.53-4.06,11.78-4.91,2.18-.44,3.23-1.64,3.76-3.93,3.57-15.62,10.39-29.8,20.08-42.48,15.49-20.26,35.47-34.1,60-41.53,14.05-4.25,28.35-5.27,42.78-4.42,9.07,.53,18.12,2.19,26.62,5.73,2.03,.84,2.54-.05,3.03-1.46,3.87-11.09,9.56-21.23,16.37-30.73,12.27-17.13,27.48-31.01,45.76-41.61,13.84-8.02,28.53-13.68,44.19-16.74,8.66-1.69,17.43-2.48,26.31-2.61,13.7-.2,27.16,1.26,40.38,4.76,20.23,5.35,38.38,14.85,54.51,28.15,3.61,2.97,7.04,6.16,10.44,9.37,1.12,1.05,2.24,1.45,3.73,1.43,5.1-.07,10.2-.14,15.3,0,15.46,.4,30.33,3.61,44.57,9.67,11.61,4.95,22.61,11,32.27,19.14,12.17,10.26,22.97,21.8,30.72,35.89,3.69,6.72,7.63,13.33,9.7,20.8,.82,2.95,3.54,2.07,5.26,2.26,21.22,2.35,39.63,10.79,55.67,24.77,6.58,5.73,12.39,12.05,16.88,19.55,.63,1.06,1.32,1.26,2.47,.79,11.2-4.54,22.95-5.24,34.85-4.86,10.22,.32,19.99,2.78,29.4,6.62,13.23,5.39,24.3,13.85,33.75,24.49,10.24,11.55,16.39,25.12,19.89,40.05,2.09,8.93,2.12,17.98,1.64,26.98-.49,9.3-3.19,18.2-6.56,26.89-5.2,13.39-14.06,24.1-24.36,33.8-2.62,2.47-5.36,3.72-9.2,3.72-117.57-.12-235.15-.09-352.72-.09Z" style="fill:#fdfdfd;"/><path d="M745.53,350.07c-227.58,0-455.16,0-682.73,0,1.69-.92,3.53-.56,5.3-.56,154.26-.02,308.52-.01,462.79-.01,69.88,0,139.77,0,209.65,.01,1.68,0,3.41-.32,5,.57Z" style="fill:#343434;"/></g></g></svg>