<svg width="144" height="144" xmlns="http://www.w3.org/2000/svg" xmlns:xlink="http://www.w3.org/1999/xlink" overflow="hidden"><defs><clipPath id="clip0"><rect x="179" y="602" width="144" height="144"/></clipPath></defs><g clip-path="url(#clip0)" transform="translate(-179 -602)"><path d="M308 710C308 711.95 305.75 713.75 302 715.1L302 709.7C304.1 709.1 306.2 708.2 308 707.3L308 710ZM296 700.1 296 694.7C298.1 694.1 300.2 693.2 302 692.3L302 695C302 696.95 299.75 698.75 296 700.1ZM296 716.9C294.2 717.35 292.1 717.65 290 717.95L290 712.1C291.95 711.8 294.05 711.5 296 711.2L296 716.9ZM284 697.1C285.95 696.8 288.05 696.5 290 696.2L290 701.9C288.2 702.35 286.1 702.65 284 702.95L284 697.1ZM284 718.7C282.05 718.85 280.1 719 278 719L278 713C279.8 713 281.9 712.85 284 712.7L284 718.7ZM272 704 272 698C273.8 698 275.9 697.85 278 697.7L278 703.7C276.05 703.85 274.1 703.85 272 704ZM272 719C269.9 719 267.95 718.85 266 718.7L266 713C267.05 713 267.95 713 269 713 269.9 713 270.95 713 272 713L272 719ZM260 697.7C261.95 697.85 263.9 698 266 698L266 704C263.9 704 261.95 703.85 260 703.7L260 697.7ZM260 717.95C257.9 717.65 255.8 717.35 254 716.9L254 712.1C255.95 712.4 257.9 712.55 260 712.7L260 717.95ZM248 701.9 248 696.05C249.95 696.35 251.9 696.8 254 696.95L254 702.95C251.9 702.65 249.8 702.35 248 701.9ZM248 715.1C244.25 713.6 242 711.8 242 710L242 709.7C242 709.7 242 709.7 242.15 709.7 242.6 709.85 242.9 710 243.35 710 244.85 710.45 246.35 710.75 248 711.05L248 715.1ZM224 694.7C225.05 694.7 225.95 694.85 227 694.85L227 695C227 697.1 227.45 699.2 228.5 700.85 227 700.85 225.5 700.7 224 700.55L224 694.7ZM218 676.7C219.95 677 221.9 677.45 224 677.6L224 683.6C221.9 683.3 219.8 683 218 682.55L218 676.7ZM218 699.95C215.9 699.65 213.8 699.35 212 698.9L212 693.05C213.95 693.35 215.9 693.8 218 693.95L218 699.95ZM206 675.5 206 672.8C207.8 673.7 209.75 674.45 212 675.05L212 680.6C208.25 679.25 206 677.45 206 675.5ZM206 697.1C202.25 695.6 200 693.8 200 692L200 689.3C201.8 690.2 203.75 690.95 206 691.55L206 697.1ZM200 650.3C201.8 651.2 203.75 651.95 206 652.55L206 658.1C202.25 656.6 200 654.8 200 653L200 650.3ZM218 655.1 218 661.1C215.9 660.8 213.8 660.5 212 660.05L212 654.2C213.95 654.5 215.9 654.8 218 655.1ZM233 629C251.3 629 266 633.05 266 638 266 642.95 251.3 647 233 647 214.7 647 200 642.95 200 638 200 633.05 214.7 629 233 629ZM242 700.1C238.25 698.6 236 696.8 236 695L236 692.3C237.8 693.2 239.75 693.95 242 694.55L242 700.1ZM260 658.1 260 652.7C262.1 652.1 264.2 651.2 266 650.3L266 653C266 654.95 263.75 656.75 260 658.1ZM248 660.95 248 655.1C249.95 654.8 252.05 654.5 254 654.2L254 659.9C252.2 660.35 250.1 660.65 248 660.95ZM236 662 236 656C237.8 656 239.9 655.85 242 655.7L242 661.7C240.05 661.85 238.1 661.85 236 662ZM224 661.7 224 655.7C225.95 655.85 227.9 656 230 656L230 662C227.9 661.85 225.95 661.85 224 661.7ZM302 680C302 684.95 287.3 689 269 689 250.7 689 236 684.95 236 680 236 675.05 250.7 671 269 671 287.3 671 302 675.05 302 680ZM311 684.5 311 680C311 672.95 305.45 667.85 294.65 665 290.6 663.95 285.95 663.05 280.7 662.6 280.85 662 280.85 661.25 280.85 660.5 280.85 656.3 278.9 652.7 274.85 650L274.85 638C274.85 630.95 269.3 625.85 258.5 623 251.45 621.05 242.45 620 232.85 620 220.25 620 190.85 621.8 190.85 638L190.85 653C190.85 657.2 192.8 660.8 196.85 663.5L196.85 666.35C193.25 668.9 190.85 672.35 190.85 677L190.85 692C190.85 699.05 196.4 704.15 207.2 707 214.25 708.95 223.25 710 232.85 710 232.85 717.05 238.4 722.15 249.2 725 256.25 726.95 265.25 728 274.85 728 287.45 728 316.85 726.2 316.85 710L316.85 695C317 690.8 315.05 687.2 311 684.5Z" fill="#FFC000"/></g></svg>