<svg width="96" height="111" xmlns="http://www.w3.org/2000/svg" xmlns:xlink="http://www.w3.org/1999/xlink" overflow="hidden"><defs><clipPath id="clip0"><rect x="776" y="225" width="96" height="111"/></clipPath></defs><g clip-path="url(#clip0)" transform="translate(-776 -225)"><path d="M135.409 46.7045 135.409 46.7045 135.409 46.7045ZM162.141 29.36C165.507 29.36 168.396 31.1929 169.63 33.8051L169.928 34.6644 170.475 35.6446C171.626 38.8405 169.412 43.7203 164.945 47.3125 161.754 49.8784 158.168 51.1801 155.332 51.055L154.946 50.9952 154.415 51.0938C153.286 51.1629 152.092 50.9347 150.921 50.4417L150.264 50.1133 150.234 50.1584C149.792 50.6003 149.266 50.958 148.681 51.2052L148.571 51.2394 148.834 51.9005C148.94 52.3053 148.996 52.7245 148.996 53.1538 148.996 55.3005 147.602 57.1931 145.482 58.3107L144.728 58.6297 144.316 59.5051C143.682 60.8519 142.077 61.4298 140.729 60.7959L130.899 56.1688C129.552 55.5349 128.974 53.9292 129.608 52.5824L130.83 49.9869C131.306 48.9767 132.327 48.3992 133.377 48.4409 133.726 48.4549 134.079 48.5376 134.416 48.696L135.106 49.021 135.387 48.7563 135.773 48.5077 135.409 46.7045 135.793 44.8034C136.534 43.0502 138.27 41.8201 140.294 41.8201L143.903 41.8201 143.652 40.6083C143.292 37.6858 144.187 35.0171 146.285 33.6316 148.384 32.2461 151.19 32.4718 153.736 33.9517L154.433 34.4368 154.652 33.8051C155.886 31.1929 158.774 29.36 162.141 29.36Z" stroke="#000000" stroke-width="0.455869" stroke-miterlimit="8" fill="#DE0000" fill-rule="evenodd" transform="matrix(1.00262 0 0 1 682.593 195.891)"/><path d="M151.896 119.284C153.087 119.201 154.368 123.683 154.759 129.295L154.817 131.459 154.952 131.564C155.575 132.105 156.233 132.726 156.894 133.407 159.536 136.131 161.225 138.78 160.665 139.323 160.105 139.866 157.509 138.097 154.867 135.373L154.724 135.212 154.628 136.525C154.366 138.391 153.906 139.566 153.311 139.607 152.567 139.659 151.786 137.928 151.211 135.252L151.209 135.245 149.711 136.344C146.533 138.418 143.496 139.396 142.93 138.527 142.364 137.659 144.482 135.274 147.66 133.201 148.455 132.682 149.241 132.232 149.981 131.863L150.67 131.574 150.447 129.595C150.056 123.983 150.705 119.367 151.896 119.284Z" stroke="#000000" stroke-width="0.455869" stroke-miterlimit="8" fill="#7C561E" fill-rule="evenodd" transform="matrix(1.00262 0 0 1 682.593 195.891)"/><path d="M133.03 119.535C134.22 119.452 135.502 123.935 135.893 129.546L135.951 131.711 136.086 131.815C136.709 132.356 137.367 132.977 138.027 133.658 140.67 136.383 142.358 139.032 141.799 139.574 141.239 140.117 138.643 138.349 136.001 135.624L135.858 135.464 135.762 136.776C135.5 138.642 135.04 139.817 134.445 139.859 133.701 139.91 132.92 138.179 132.345 135.503L132.343 135.496 130.845 136.596C127.667 138.67 124.63 139.647 124.064 138.779 123.498 137.911 125.615 135.526 128.794 133.452 129.589 132.933 130.375 132.483 131.115 132.114L131.804 131.826 131.581 129.847C131.19 124.235 131.839 119.618 133.03 119.535Z" stroke="#000000" stroke-width="0.455869" stroke-miterlimit="8" fill="#7C561E" fill-rule="evenodd" transform="matrix(1.00262 0 0 1 682.593 195.891)"/><path d="M166.236 79.6694C173.614 79.6694 179.596 85.6497 179.596 93.0265 179.596 96.7152 178.101 100.055 175.683 102.471L175.326 102.766 174.941 103.198C172.887 105.223 169.737 107.35 165.978 109.1 158.461 112.598 151.355 113.261 150.107 110.581 149.483 109.24 150.441 107.318 152.496 105.294L152.512 105.28 150.646 105.283C147.374 105.166 145.169 104.443 144.903 103.178 144.6 101.731 146.902 99.9159 150.653 98.3431L152.674 97.5819 151.518 97.5401C147.462 97.245 144.701 96.259 144.527 94.791 144.388 93.6166 145.931 92.3554 148.538 91.2667L149.985 90.7402 148.997 90.5452C146.474 89.8437 144.852 88.7065 144.682 87.2683 144.319 84.1995 150.699 80.9226 158.934 79.9478 160.992 79.7045 162.972 79.6276 164.789 79.6979L165.432 79.7503Z" stroke="#000000" stroke-width="0.455869" stroke-miterlimit="8" fill="#7C561E" fill-rule="evenodd" transform="matrix(1.00262 0 0 1 682.593 195.891)"/><path d="M112.855 56.4607C114.324 56.3267 115.666 57.1051 116.321 58.3292L116.441 58.7293 116.498 58.8148C117.183 60.2579 117.537 62.8645 117.481 66.0512L117.42 67.3015 117.433 67.4434 117.397 67.7737 117.36 68.5408C117.293 69.4009 117.2 70.2881 117.078 71.1932 116.226 77.5303 114.279 82.6512 112.469 83.6525L111.999 83.7566 111.652 84.6511C111.426 85.0735 111.165 85.4223 110.871 85.6882L110.403 85.9448 110.982 87.5892C111.798 90.3218 111.784 92.3515 110.746 93.0305 108.67 94.3878 103.286 89.8271 98.7197 82.8435 94.1537 75.8599 92.1353 69.0985 94.2114 67.7412 94.4707 67.5714 94.7817 67.4945 95.1364 67.5031 96.3784 67.5323 98.1548 68.6111 100.12 70.4465L100.68 71.0095 100.364 68.5176C99.9371 63.435 100.936 59.5447 103.096 59.0056 105.257 58.4665 107.966 61.4317 109.977 66.1193L110.216 66.7499 109.631 60.3317C109.452 58.3725 110.895 56.6394 112.855 56.4607Z" stroke="#000000" stroke-width="0.455869" stroke-miterlimit="8" fill="#7C561E" fill-rule="evenodd" transform="matrix(1.00262 0 0 1 682.593 195.891)"/><path d="M155.791 47.1714C159.611 47.1714 163.16 48.3328 166.104 50.3219L168.635 52.4096 169.762 53.3042C177.055 60.0451 179.696 75.3653 175.557 91.6221 171.736 106.628 163.224 118.172 154.365 121.772L153.909 121.923 152.213 122.579C145.035 124.928 135.272 124.009 125.92 119.442 110.956 112.133 102.712 98.2529 107.505 88.4386 111.1 81.0784 121.008 78.0952 132.05 80.1468L132.158 80.1707 132.493 76.0781C133.605 66.7174 136.627 58.9314 139.983 55.8508L140.361 55.5507 140.495 55.3045C143.809 50.3976 149.423 47.1714 155.791 47.1714Z" stroke="#000000" stroke-width="0.455869" stroke-miterlimit="8" fill="#FFC000" fill-rule="evenodd" transform="matrix(1.00262 0 0 1 682.593 195.891)"/><path d="M138.08 77.2823C145.444 77.2823 151.415 83.2626 151.415 90.6394 151.415 94.3281 149.922 97.6674 147.509 100.084L147.153 100.379 146.769 100.811C144.719 102.836 141.575 104.963 137.823 106.713 130.32 110.211 123.228 110.874 121.982 108.194 121.359 106.853 122.316 104.931 124.366 102.906L124.382 102.892 122.52 102.896C119.254 102.779 117.053 102.056 116.788 100.791 116.485 99.3437 118.783 97.5288 122.526 95.956L124.544 95.1948 123.391 95.153C119.342 94.8579 116.586 93.8719 116.413 92.4039 116.274 91.2295 117.814 89.9684 120.416 88.8796L121.861 88.3531 120.874 88.1581C118.356 87.4566 116.736 86.3194 116.567 84.8812 116.204 81.8124 122.573 78.5355 130.792 77.5608 132.847 77.3174 134.823 77.2405 136.636 77.3108L137.277 77.3632Z" stroke="#000000" stroke-width="0.455869" stroke-miterlimit="8" fill="#7C561E" fill-rule="evenodd" transform="matrix(1.00262 0 0 1 682.593 195.891)"/><path d="M178.607 75.7797C180.429 75.9621 182.679 77.647 184.292 80.2376 186.444 83.6916 186.651 87.4493 184.756 88.6296 183.334 89.5155 181.134 88.6999 179.214 86.7796L178.978 86.4799 178.843 86.9931C177.936 89.5181 176.566 91.1599 175.348 90.9444 173.724 90.6566 172.982 87.1748 173.692 83.1671 174.047 81.1639 174.698 79.4081 175.462 78.1894L175.899 77.5932 175.934 77.444C176.148 76.8718 176.49 76.4156 176.964 76.1205 177.438 75.8255 177.999 75.7194 178.607 75.7797Z" stroke="#000000" stroke-width="0.303913" stroke-miterlimit="8" fill="#DE0000" fill-rule="evenodd" transform="matrix(1.00262 0 0 1 682.593 195.891)"/><path d="M151.548 63.888C151.548 59.0907 155.436 55.2016 160.234 55.2016 165.031 55.2016 168.92 59.0907 168.92 63.888 168.92 68.6854 165.031 72.5744 160.234 72.5744 155.436 72.5744 151.548 68.6854 151.548 63.888Z" stroke="#000000" stroke-width="0.455869" stroke-miterlimit="8" fill="#FFFFFF" fill-rule="evenodd" transform="matrix(1.00262 0 0 1 682.593 195.891)"/><path d="M159.007 65.0484C159.007 63.0342 160.64 61.4014 162.654 61.4014 164.669 61.4014 166.301 63.0342 166.301 65.0484 166.301 67.0628 164.669 68.6953 162.654 68.6953 160.64 68.6953 159.007 67.0628 159.007 65.0484Z" fill-rule="evenodd" transform="matrix(1.00262 0 0 1 682.593 195.891)"/><path d="M160.731 63.888C160.731 63.357 161.162 62.9265 161.693 62.9265 162.224 62.9265 162.654 63.357 162.654 63.888 162.654 64.419 162.224 64.8495 161.693 64.8495 161.162 64.8495 160.731 64.419 160.731 63.888Z" fill="#FFFFFF" fill-rule="evenodd" transform="matrix(1.00262 0 0 1 682.593 195.891)"/><path d="M175.286 74.6962 184.768 74.6962 175.286 78.5421Z" stroke="#000000" stroke-width="0.455869" stroke-miterlimit="8" fill="#ED7D31" fill-rule="evenodd" transform="matrix(1.00262 0 0 1 682.593 195.891)"/><path d="M0 12.2007 0 0 4.24372 12.2007Z" stroke="#000000" stroke-width="0.455869" stroke-miterlimit="8" fill="#ED7D31" fill-rule="evenodd" transform="matrix(-1.84178e-16 -1 -1.00262 1.83697e-16 870.571 270.587)"/></g></svg>