<svg width="152" height="88" xmlns="http://www.w3.org/2000/svg" xmlns:xlink="http://www.w3.org/1999/xlink" overflow="hidden"><defs><clipPath id="clip0"><rect x="564" y="376" width="152" height="88"/></clipPath></defs><g clip-path="url(#clip0)" transform="translate(-564 -376)"><path d="M261.11 532.678 222.764 532.678C219.278 532.678 216.472 529.872 216.472 526.386L216.472 456.581C216.472 453.095 219.278 450.289 222.764 450.289L261.11 450.289C264.596 450.289 267.402 453.095 267.402 456.581L267.402 526.301C267.487 529.787 264.596 532.678 261.11 532.678Z" stroke="#000000" stroke-width="5.10146" stroke-miterlimit="10" fill="#A6A897" transform="matrix(1.00848 0 0 1 348.476 -71.3066)"/><path d="M306.768 476.392 363.054 476.392 363.054 481.153 306.768 481.153Z" fill="#A2D196" transform="matrix(1.00848 0 0 1 348.476 -71.3066)"/><path d="M306.768 477.327 363.054 477.327 363.054 480.133 306.768 480.133Z" fill="#8BC228" transform="matrix(1.00848 0 0 1 348.476 -71.3066)"/><path d="M304.897 482.003 280.41 482.003C279.39 482.003 278.455 481.153 278.455 480.048L278.455 477.327C278.455 476.307 279.305 475.371 280.41 475.371L304.897 475.371C305.918 475.371 306.853 476.221 306.853 477.327L306.853 480.048C306.768 481.153 305.918 482.003 304.897 482.003Z" stroke="#000000" stroke-width="1.70049" stroke-miterlimit="10" fill="#CBC49C" transform="matrix(1.00848 0 0 1 348.476 -71.3066)"/><path d="M278.115 484.129 276.499 484.129C275.649 484.129 274.969 483.449 274.969 482.598L274.969 474.776C274.969 473.926 275.649 473.246 276.499 473.246L278.115 473.246C278.965 473.246 279.645 473.926 279.645 474.776L279.645 482.598C279.645 483.449 278.965 484.129 278.115 484.129Z" stroke="#000000" stroke-width="1.70049" stroke-miterlimit="10" fill="#CBC49C" transform="matrix(1.00848 0 0 1 348.476 -71.3066)"/><path d="M273.353 486.424 270.548 486.424C269.272 486.424 268.167 485.404 268.167 484.044L268.167 472.65C268.167 471.375 269.187 470.27 270.548 470.27L273.353 470.27C274.629 470.27 275.734 471.29 275.734 472.65L275.734 484.044C275.734 485.319 274.714 486.424 273.353 486.424Z" stroke="#000000" stroke-width="1.70049" stroke-miterlimit="10" fill="#CBC49C" transform="matrix(1.00848 0 0 1 348.476 -71.3066)"/><path d="M247.846 480.643 244.02 480.558C242.915 480.558 242.064 479.622 242.064 478.517L242.149 474.691C242.149 473.586 243.085 472.736 244.19 472.736L248.016 472.82C249.121 472.82 249.972 473.756 249.972 474.861L249.887 478.687C249.887 479.793 248.951 480.643 247.846 480.643Z" stroke="#000000" stroke-width="0.850244" stroke-miterlimit="10" fill="#D6DBD9" transform="matrix(1.00848 0 0 1 348.476 -71.3066)"/><path d="M247.761 491.271 243.935 491.186C242.83 491.186 241.979 490.25 241.979 489.145L242.064 485.319C242.064 484.214 243 483.364 244.105 483.364L247.931 483.449C249.036 483.449 249.887 484.384 249.887 485.489L249.802 489.315C249.717 490.421 248.866 491.356 247.761 491.271Z" stroke="#000000" stroke-width="0.850244" stroke-miterlimit="10" fill="#D6DBD9" transform="matrix(1.00848 0 0 1 348.476 -71.3066)"/><path d="M248.016 501.814 244.19 501.729C243.085 501.729 242.234 500.794 242.234 499.688L242.319 495.862C242.319 494.757 243.255 493.907 244.36 493.907L248.186 493.992C249.291 493.992 250.142 494.927 250.142 496.032L250.057 499.858C250.057 500.964 249.121 501.814 248.016 501.814Z" stroke="#000000" stroke-width="0.850244" stroke-miterlimit="10" fill="#D6DBD9" transform="matrix(1.00848 0 0 1 348.476 -71.3066)"/><path d="M238.153 512.782 220.723 512.612C219.618 512.612 218.768 511.677 218.768 510.571L218.853 506.745C218.853 505.64 219.788 504.79 220.893 504.79L238.323 504.96C239.429 504.96 240.279 505.895 240.279 507L240.194 510.826C240.194 511.932 239.259 512.782 238.153 512.782L238.153 512.782Z" stroke="#000000" stroke-width="0.850244" stroke-miterlimit="10" fill="#D6DBD9" transform="matrix(1.00848 0 0 1 348.476 -71.3066)"/><path d="M247.931 512.782 244.02 512.697C242.915 512.697 242.064 511.762 242.064 510.656L242.149 506.83C242.149 505.725 243.085 504.875 244.19 504.875L248.016 504.96C249.121 504.96 249.972 505.895 249.972 507L249.887 510.826C249.887 511.932 248.951 512.782 247.931 512.782Z" stroke="#000000" stroke-width="0.850244" stroke-miterlimit="10" fill="#D6DBD9" transform="matrix(1.00848 0 0 1 348.476 -71.3066)"/><path d="M236.198 480.643 232.372 480.558C231.266 480.558 230.416 479.622 230.416 478.517L230.501 474.691C230.501 473.586 231.436 472.736 232.542 472.736L236.368 472.82C237.473 472.82 238.323 473.756 238.323 474.861L238.238 478.687C238.153 479.707 237.303 480.643 236.198 480.643Z" stroke="#000000" stroke-width="0.850244" stroke-miterlimit="10" fill="#D6DBD9" transform="matrix(1.00848 0 0 1 348.476 -71.3066)"/><path d="M236.028 491.271 232.202 491.186C231.096 491.186 230.246 490.25 230.246 489.145L230.331 485.319C230.331 484.214 231.266 483.364 232.372 483.364L236.198 483.449C237.303 483.449 238.153 484.384 238.153 485.489L238.068 489.315C238.068 490.421 237.133 491.271 236.028 491.271Z" stroke="#000000" stroke-width="0.850244" stroke-miterlimit="10" fill="#D6DBD9" transform="matrix(1.00848 0 0 1 348.476 -71.3066)"/><path d="M236.283 501.814 232.457 501.729C231.351 501.729 230.501 500.794 230.501 499.688L230.586 495.862C230.586 494.757 231.521 493.907 232.627 493.907L236.453 493.992C237.558 493.992 238.408 494.927 238.408 496.032L238.323 499.858C238.323 500.964 237.388 501.814 236.283 501.814Z" stroke="#000000" stroke-width="0.850244" stroke-miterlimit="10" fill="#D6DBD9" transform="matrix(1.00848 0 0 1 348.476 -71.3066)"/><path d="M223.869 480.813 220.043 480.728C218.938 480.728 218.088 479.793 218.088 478.687L218.173 474.861C218.173 473.756 219.108 472.906 220.213 472.906L224.039 472.991C225.145 472.991 225.995 473.926 225.995 475.031L225.91 478.857C225.91 479.963 224.974 480.813 223.869 480.813Z" stroke="#000000" stroke-width="0.850244" stroke-miterlimit="10" fill="#D6DBD9" transform="matrix(1.00848 0 0 1 348.476 -71.3066)"/><path d="M223.784 491.526 219.958 491.441C218.853 491.441 218.002 490.506 218.002 489.4L218.088 485.574C218.088 484.469 219.023 483.619 220.128 483.619L223.954 483.704C225.06 483.704 225.91 484.639 225.91 485.744L225.825 489.57C225.74 490.676 224.889 491.526 223.784 491.526Z" stroke="#000000" stroke-width="0.850244" stroke-miterlimit="10" fill="#D6DBD9" transform="matrix(1.00848 0 0 1 348.476 -71.3066)"/><path d="M224.039 502.069 220.213 501.984C219.108 501.984 218.258 501.049 218.258 499.943L218.343 496.117C218.343 495.012 219.278 494.162 220.383 494.162L224.209 494.247C225.315 494.247 226.165 495.182 226.165 496.287L226.08 500.113C226.08 501.134 225.145 502.069 224.039 502.069Z" stroke="#000000" stroke-width="0.850244" stroke-miterlimit="10" fill="#D6DBD9" transform="matrix(1.00848 0 0 1 348.476 -71.3066)"/></g></svg>