<svg width="144" height="144" xmlns="http://www.w3.org/2000/svg" xmlns:xlink="http://www.w3.org/1999/xlink" overflow="hidden"><defs><clipPath id="clip0"><rect x="327" y="602" width="144" height="144"/></clipPath></defs><g clip-path="url(#clip0)" transform="translate(-327 -602)"><path d="M399.42 722C405.997 716.807 412.272 711.243 418.215 705.335 426.829 697.128 434.447 687.935 440.91 677.945 446.91 668.285 452.64 655.745 448.695 644.285 445.5 634.805 436.635 626.75 426.45 625.775 413.58 624.5 404.265 635.39 399 645.815 394.185 636.275 386.22 626.435 374.715 625.715 364.5 625.085 354.99 632.27 350.595 641.195 345.09 652.4 349.575 665 355.365 675.065 361.365 685.565 369.345 694.79 377.775 703.325 384.42 710.124 391.511 716.473 399 722.33ZM375 671 379.5 657.5 382.17 649.475C382.86 647.39 383.925 644.6 386.805 645.8 388.545 646.535 388.65 648.335 388.95 649.91L390.195 656.555 393.795 675.755 396.18 688.505 404.88 665.495 406.8 660.425C407.355 658.925 407.925 657.425 409.8 657.26 412.185 657.02 412.89 659.06 413.415 660.86L415.26 667.19 418.92 679.775 422.535 675.8C423.691 674.287 424.992 672.89 426.42 671.63 427.92 670.58 430.695 671.06 432.42 671.06L438 671.06C436.89 673.055 435.66 675.065 434.325 677.06L429.45 677.06C426.255 680.585 423.195 684.335 419.805 687.68 418.742 688.951 416.85 689.119 415.579 688.055 415.329 687.846 415.115 687.598 414.945 687.32 414.619 686.675 414.382 685.989 414.24 685.28L411.735 676.715 409.695 669.695C405.87 679.79 402.195 689.9 398.25 699.95 398.029 700.769 397.551 701.495 396.885 702.02 395.519 702.958 393.652 702.611 392.714 701.246 392.474 700.897 392.311 700.501 392.235 700.085 391.89 698.705 391.71 697.265 391.44 695.885L387.645 675.635 384.81 660.5 380.58 673.205C379.935 675.095 379.425 676.94 376.995 677.06 374.79 677.165 372.57 677.06 370.38 677.06L363.63 677.06C362.31 675.065 361.065 673.055 359.955 671.06Z" fill="#C00000"/></g></svg>