<?xml version="1.0" encoding="iso-8859-1"?>
<!-- Generator: Adobe Illustrator 27.0.0, SVG Export Plug-In . SVG Version: 6.00 Build 0)  -->
<svg version="1.1" id="a" xmlns="http://www.w3.org/2000/svg" xmlns:xlink="http://www.w3.org/1999/xlink" x="0px" y="0px"
	 viewBox="0 0 595.2 841.9" style="enable-background:new 0 0 595.2 841.9;" xml:space="preserve">
<path style="fill:#C5E7FA;stroke:#000000;stroke-width:3;stroke-miterlimit:10;" d="M51.677,414.898
	c-15.605,0.384-28.777,13.437-27.345,28.666c0,0.128,0.143,0.384,0.143,0.512l0,0c0.143,0.128,0.286,0.128,0.43,0.256
	c18.612-0.256,37.367-0.384,55.978-0.64C82.458,427.696,67.855,414.514,51.677,414.898z"/>
<line style="fill:none;stroke:#000000;stroke-width:3;stroke-miterlimit:10;" x1="64.276" y1="417.33" x2="64.276" y2="445.1"/>
<path style="fill:#0081CB;stroke:#000000;stroke-width:0.25;stroke-miterlimit:10;" d="M68.141,425.136l-3.722-2.687
	c-1.432-1.024-1.575-2.815-0.43-4.095l0,0c1.145-1.28,3.15-1.408,4.581-0.384l3.722,2.687c1.432,1.024,1.575,2.815,0.43,4.095l0,0
	C71.577,426.032,69.573,426.16,68.141,425.136z"/>
</svg>
