<svg width="63" height="42" xmlns="http://www.w3.org/2000/svg" xmlns:xlink="http://www.w3.org/1999/xlink" overflow="hidden"><defs><clipPath id="clip0"><rect x="298" y="192" width="63" height="42"/></clipPath></defs><g clip-path="url(#clip0)" transform="translate(-298 -192)"><path d="M43.809 351.729C30.5799 352.054 19.4134 363.12 20.6274 376.03 20.6274 376.139 20.7486 376.356 20.7486 376.464L20.7486 376.464C20.8698 376.573 20.9911 376.573 21.1131 376.681 36.8914 376.464 52.7909 376.356 68.5683 376.139 69.9035 362.578 57.5239 351.403 43.809 351.729Z" stroke="#000000" stroke-width="2.54324" stroke-miterlimit="10" fill="#C5E7FA" transform="matrix(1.0074 0 0 1 284.555 -152.256)"/><path d="M54.4898 353.79 54.4898 377.332" stroke="#000000" stroke-width="2.54324" stroke-miterlimit="10" fill="none" transform="matrix(1.0074 0 0 1 284.555 -152.256)"/><path d="M57.7663 360.408 54.611 358.13C53.397 357.262 53.2758 355.743 54.2465 354.658L54.2465 354.658C55.2171 353.573 56.9169 353.465 58.13 354.333L61.2853 356.611C62.4993 357.479 62.6205 358.997 61.6498 360.082L61.6498 360.082C60.6792 361.167 58.9803 361.276 57.7663 360.408Z" stroke="#000000" stroke-width="0.211937" stroke-miterlimit="10" fill="#0081CB" transform="matrix(1.0074 0 0 1 284.555 -152.256)"/></g></svg>