<svg width="83" height="42" xmlns="http://www.w3.org/2000/svg" xmlns:xlink="http://www.w3.org/1999/xlink" overflow="hidden"><defs><clipPath id="clip0"><rect x="376" y="192" width="83" height="42"/></clipPath></defs><g clip-path="url(#clip0)" transform="translate(-376 -192)"><path d="M15.4799 367.349C16.6921 364.428 20.0653 360.637 26.2259 358.377 30.7639 356.712 34.5313 356.717 37.9138 356.718 39.2761 356.718 44.1083 356.783 50.179 358.45 53.191 359.278 57.2916 360.438 61.8669 363.428 64.8832 365.399 69.1541 367.674 68.7209 369.273 68.6073 369.693 68.0995 370.334 60.1349 371.293 55.5546 371.845 52.7756 372.014 52.7756 372.014 48.898 372.252 44.8517 372.499 40.0772 372.447 38.4046 372.43 15.7689 372.101 15.3324 368.058 15.3061 367.802 15.3747 367.604 15.4799 367.349Z" fill="#F2F091" transform="matrix(1.01046 0 0 1 376 -156.455)"/><path d="M14.3939 370.571C12.628 372.084 11.8422 375.425 13.0231 376.703 13.7606 377.502 15.1238 377.339 15.6926 377.28 20.3586 376.801 25.1501 377.921 29.7618 377.064 43.4097 374.53 67.7867 380.22 69.3711 376.415 69.6085 375.844 69.7323 375.116 69.7323 375.116 69.9934 373.571 69.7789 371.433 68.8667 370.571 67.4188 369.202 64.2482 371.111 60.4978 372.158 58.0283 372.847 54.4745 372.809 47.367 372.735 36.4073 372.62 30.9292 372.416 25.073 371.148 19.8669 370.02 16.593 368.686 14.3939 370.571Z" fill="#EDB67E" transform="matrix(1.01046 0 0 1 376 -156.455)"/><path d="M68.5776 370.129C60.3452 371.955 47.4916 373.889 32.1067 372.45 25.485 371.83 19.7067 370.709 14.8992 369.489" stroke="#000000" stroke-width="1.69549" stroke-miterlimit="10" fill="none" transform="matrix(1.01046 0 0 1 376 -156.455)"/><path d="M12.5178 377.93C12.5153 374.164 13.3359 371.228 14.0082 369.39 14.8678 367.038 16.2047 363.38 19.733 360.609 22.0855 358.762 24.5541 357.997 26.8761 357.255 29.466 356.427 31.5218 356.159 32.3229 356.069 32.3229 356.069 34.6881 355.803 37.1932 355.96 37.1932 355.96 37.2263 355.962 37.2848 355.966 64.7551 357.743 69.5263 370.01 69.5263 370.01 70.1265 371.554 70.6826 373.927 70.1655 377.276 50.9487 377.494 31.7337 377.712 12.5178 377.93Z" stroke="#000000" stroke-width="2.54324" stroke-miterlimit="10" fill="none" transform="matrix(1.01046 0 0 1 376 -156.455)"/><path d="M56.6176 361.39 50.3273 359.297C49.3897 358.985 48.8819 357.972 49.1939 357.034L49.3177 356.662C49.6296 355.725 50.6427 355.217 51.5812 355.529L57.8714 357.622C58.8091 357.934 59.3169 358.947 59.0049 359.885L58.8811 360.257C58.5691 361.195 57.5561 361.703 56.6176 361.39Z" stroke="#000000" stroke-width="0.847747" stroke-miterlimit="10" fill="#403290" transform="matrix(1.01046 0 0 1 376 -156.455)"/></g></svg>