<?xml version="1.0" encoding="iso-8859-1"?>
<!-- Generator: Adobe Illustrator 27.0.0, SVG Export Plug-In . SVG Version: 6.00 Build 0)  -->
<svg version="1.1" id="a" xmlns="http://www.w3.org/2000/svg" xmlns:xlink="http://www.w3.org/1999/xlink" x="0px" y="0px"
	 viewBox="0 0 595.2 841.9" style="enable-background:new 0 0 595.2 841.9;" xml:space="preserve">
<path style="fill:#F2F091;" d="M18.26,433.324c1.43-3.446,5.409-7.917,12.676-10.583c5.353-1.964,9.797-1.958,13.787-1.957
	c1.607,0,7.307,0.076,14.468,2.043c3.553,0.976,8.39,2.345,13.787,5.872c3.558,2.325,8.596,5.008,8.085,6.894
	c-0.134,0.496-0.733,1.252-10.128,2.383c-5.403,0.651-8.681,0.851-8.681,0.851c-4.574,0.28-9.347,0.572-14.979,0.511
	c-1.973-0.021-28.674-0.409-29.189-5.178C18.055,433.858,18.136,433.625,18.26,433.324z"/>
<path style="fill:#EDB67E;" d="M16.979,437.124c-2.083,1.785-3.01,5.726-1.617,7.234c0.87,0.942,2.478,0.75,3.149,0.681
	c5.504-0.565,11.156,0.755,16.596-0.255c16.099-2.99,44.854,3.723,46.723-0.766c0.28-0.673,0.426-1.532,0.426-1.532
	c0.308-1.823,0.055-4.345-1.021-5.362c-1.708-1.614-5.448,0.638-9.872,1.872c-2.913,0.813-7.105,0.769-15.489,0.681
	c-12.928-0.136-19.39-0.376-26.298-1.872C23.435,436.475,19.573,434.901,16.979,437.124z"/>
<path style="fill:#F19CC1;" d="M93.149,437.039"/>
<path style="fill:none;stroke:#000000;stroke-width:2;stroke-miterlimit:10;" d="M80.894,436.603
	c-9.711,2.154-24.873,4.436-43.021,2.738c-7.811-0.731-14.627-2.054-20.298-3.493"/>
<path style="fill:none;stroke:#000000;stroke-width:3;stroke-miterlimit:10;" d="M14.766,445.805
	c-0.003-4.442,0.965-7.905,1.758-10.073c1.014-2.775,2.591-7.09,6.753-10.358c2.775-2.179,5.687-3.082,8.426-3.957
	c3.055-0.977,5.48-1.293,6.425-1.399c0,0,2.79-0.314,5.745-0.128c0,0,0.039,0.002,0.108,0.007
	c32.404,2.096,38.032,16.566,38.032,16.566c0.708,1.821,1.364,4.62,0.754,8.571C60.099,445.291,37.433,445.548,14.766,445.805z"/>
<path style="fill:#403290;stroke:#000000;stroke-miterlimit:10;" d="M66.786,426.295l-7.42-2.469
	c-1.106-0.368-1.705-1.563-1.337-2.67l0.146-0.438c0.368-1.106,1.563-1.705,2.67-1.337l7.42,2.469
	c1.106,0.368,1.705,1.563,1.337,2.67l-0.146,0.438C69.088,426.065,67.893,426.664,66.786,426.295z"/>
</svg>
