<svg width="152" height="89" xmlns="http://www.w3.org/2000/svg" xmlns:xlink="http://www.w3.org/1999/xlink" overflow="hidden"><defs><clipPath id="clip0"><rect x="411" y="253" width="152" height="89"/></clipPath></defs><g clip-path="url(#clip0)" transform="translate(-411 -253)"><path d="M263.325 537.197 224.654 537.197C221.138 537.197 218.308 534.367 218.308 530.851L218.308 460.454C218.308 456.939 221.138 454.109 224.654 454.109L263.325 454.109C266.841 454.109 269.67 456.939 269.67 460.454L269.67 530.766C269.756 534.281 266.841 537.197 263.325 537.197Z" stroke="#000000" stroke-width="5.14474" stroke-miterlimit="10" fill="#A6A897" transform="matrix(1 0 0 1.00294 195.476 -199.434)"/><path d="M309.37 480.433 366.134 480.433 366.134 485.235 309.37 485.235Z" fill="#FFF000" transform="matrix(1 0 0 1.00294 195.476 -199.434)"/><path d="M309.37 481.376 366.134 481.376 366.134 484.206 309.37 484.206Z" fill="#F18A1A" transform="matrix(1 0 0 1.00294 195.476 -199.434)"/><path d="M307.484 486.092 282.789 486.092C281.76 486.092 280.817 485.235 280.817 484.12L280.817 481.376C280.817 480.347 281.675 479.404 282.789 479.404L307.484 479.404C308.513 479.404 309.456 480.262 309.456 481.376L309.456 484.12C309.37 485.235 308.513 486.092 307.484 486.092Z" stroke="#000000" stroke-width="1.71491" stroke-miterlimit="10" fill="#CBC49C" transform="matrix(1 0 0 1.00294 195.476 -199.434)"/><path d="M280.474 488.236 278.845 488.236C277.987 488.236 277.302 487.55 277.302 486.692L277.302 478.804C277.302 477.946 277.987 477.26 278.845 477.26L280.474 477.26C281.332 477.26 282.018 477.946 282.018 478.804L282.018 486.692C282.018 487.55 281.332 488.236 280.474 488.236Z" stroke="#000000" stroke-width="1.71491" stroke-miterlimit="10" fill="#CBC49C" transform="matrix(1 0 0 1.00294 195.476 -199.434)"/><path d="M275.672 490.551 272.843 490.551C271.557 490.551 270.442 489.522 270.442 488.15L270.442 476.66C270.442 475.374 271.471 474.259 272.843 474.259L275.672 474.259C276.959 474.259 278.073 475.288 278.073 476.66L278.073 488.15C278.073 489.436 277.044 490.551 275.672 490.551Z" stroke="#000000" stroke-width="1.71491" stroke-miterlimit="10" fill="#CBC49C" transform="matrix(1 0 0 1.00294 195.476 -199.434)"/><path d="M249.949 484.72 246.09 484.635C244.975 484.635 244.118 483.691 244.118 482.577L244.204 478.718C244.204 477.603 245.147 476.746 246.262 476.746L250.12 476.832C251.235 476.832 252.092 477.775 252.092 478.89L252.007 482.748C252.007 483.863 251.063 484.72 249.949 484.72Z" stroke="#000000" stroke-width="0.857457" stroke-miterlimit="10" fill="#D6DBD9" transform="matrix(1 0 0 1.00294 195.476 -199.434)"/><path d="M249.863 495.439 246.004 495.353C244.89 495.353 244.032 494.41 244.032 493.295L244.118 489.436C244.118 488.322 245.061 487.464 246.176 487.464L250.034 487.55C251.149 487.55 252.007 488.493 252.007 489.608L251.921 493.466C251.835 494.581 250.978 495.524 249.863 495.439Z" stroke="#000000" stroke-width="0.857457" stroke-miterlimit="10" fill="#D6DBD9" transform="matrix(1 0 0 1.00294 195.476 -199.434)"/><path d="M250.12 506.071 246.262 505.985C245.147 505.985 244.289 505.042 244.289 503.927L244.375 500.069C244.375 498.954 245.318 498.097 246.433 498.097L250.292 498.182C251.406 498.182 252.264 499.126 252.264 500.24L252.178 504.099C252.178 505.214 251.235 506.071 250.12 506.071Z" stroke="#000000" stroke-width="0.857457" stroke-miterlimit="10" fill="#D6DBD9" transform="matrix(1 0 0 1.00294 195.476 -199.434)"/><path d="M240.174 517.132 222.596 516.961C221.481 516.961 220.624 516.017 220.624 514.903L220.709 511.044C220.709 509.93 221.653 509.072 222.767 509.072L240.345 509.244C241.46 509.244 242.317 510.187 242.317 511.301L242.232 515.16C242.232 516.275 241.288 517.132 240.174 517.132L240.174 517.132Z" stroke="#000000" stroke-width="0.857457" stroke-miterlimit="10" fill="#D6DBD9" transform="matrix(1 0 0 1.00294 195.476 -199.434)"/><path d="M250.034 517.132 246.09 517.046C244.975 517.046 244.118 516.103 244.118 514.989L244.204 511.13C244.204 510.015 245.147 509.158 246.262 509.158L250.12 509.244C251.235 509.244 252.092 510.187 252.092 511.301L252.007 515.16C252.007 516.275 251.063 517.132 250.034 517.132Z" stroke="#000000" stroke-width="0.857457" stroke-miterlimit="10" fill="#D6DBD9" transform="matrix(1 0 0 1.00294 195.476 -199.434)"/><path d="M238.201 484.72 234.343 484.635C233.228 484.635 232.371 483.691 232.371 482.577L232.457 478.718C232.457 477.603 233.4 476.746 234.514 476.746L238.373 476.832C239.488 476.832 240.345 477.775 240.345 478.89L240.259 482.748C240.174 483.777 239.316 484.72 238.201 484.72Z" stroke="#000000" stroke-width="0.857457" stroke-miterlimit="10" fill="#D6DBD9" transform="matrix(1 0 0 1.00294 195.476 -199.434)"/><path d="M238.03 495.439 234.171 495.353C233.057 495.353 232.199 494.41 232.199 493.295L232.285 489.436C232.285 488.322 233.228 487.464 234.343 487.464L238.201 487.55C239.316 487.55 240.174 488.493 240.174 489.608L240.088 493.466C240.088 494.581 239.145 495.439 238.03 495.439Z" stroke="#000000" stroke-width="0.857457" stroke-miterlimit="10" fill="#D6DBD9" transform="matrix(1 0 0 1.00294 195.476 -199.434)"/><path d="M238.287 506.071 234.429 505.985C233.314 505.985 232.457 505.042 232.457 503.927L232.542 500.069C232.542 498.954 233.485 498.097 234.6 498.097L238.459 498.182C239.573 498.182 240.431 499.126 240.431 500.24L240.345 504.099C240.345 505.214 239.402 506.071 238.287 506.071Z" stroke="#000000" stroke-width="0.857457" stroke-miterlimit="10" fill="#D6DBD9" transform="matrix(1 0 0 1.00294 195.476 -199.434)"/><path d="M225.768 484.892 221.91 484.806C220.795 484.806 219.938 483.863 219.938 482.748L220.023 478.89C220.023 477.775 220.967 476.917 222.081 476.917L225.94 477.003C227.055 477.003 227.912 477.946 227.912 479.061L227.826 482.92C227.826 484.034 226.883 484.892 225.768 484.892Z" stroke="#000000" stroke-width="0.857457" stroke-miterlimit="10" fill="#D6DBD9" transform="matrix(1 0 0 1.00294 195.476 -199.434)"/><path d="M225.683 495.696 221.824 495.61C220.709 495.61 219.852 494.667 219.852 493.552L219.938 489.694C219.938 488.579 220.881 487.721 221.996 487.721L225.854 487.807C226.969 487.807 227.826 488.75 227.826 489.865L227.741 493.724C227.655 494.838 226.797 495.696 225.683 495.696Z" stroke="#000000" stroke-width="0.857457" stroke-miterlimit="10" fill="#D6DBD9" transform="matrix(1 0 0 1.00294 195.476 -199.434)"/><path d="M225.94 506.328 222.081 506.242C220.967 506.242 220.109 505.299 220.109 504.185L220.195 500.326C220.195 499.211 221.138 498.354 222.253 498.354L226.111 498.44C227.226 498.44 228.083 499.383 228.083 500.497L227.998 504.356C227.998 505.385 227.055 506.328 225.94 506.328Z" stroke="#000000" stroke-width="0.857457" stroke-miterlimit="10" fill="#D6DBD9" transform="matrix(1 0 0 1.00294 195.476 -199.434)"/></g></svg>