<?xml version="1.0" encoding="iso-8859-1"?>
<!-- Generator: Adobe Illustrator 27.0.0, SVG Export Plug-In . SVG Version: 6.00 Build 0)  -->
<svg version="1.1" id="a" xmlns="http://www.w3.org/2000/svg" xmlns:xlink="http://www.w3.org/1999/xlink" x="0px" y="0px"
	 viewBox="0 0 595.2 841.9" style="enable-background:new 0 0 595.2 841.9;" xml:space="preserve">
<path style="fill:#A6A897;stroke:#000000;stroke-width:6;stroke-miterlimit:10;" d="M307.1,626.5H262c-4.1,0-7.4-3.3-7.4-7.4V537
	c0-4.1,3.3-7.4,7.4-7.4h45.1c4.1,0,7.4,3.3,7.4,7.4v82C314.6,623.1,311.2,626.5,307.1,626.5z"/>
<rect x="360.8" y="560.3" style="fill:#FFF000;" width="66.2" height="5.6"/>
<rect x="360.8" y="561.4" style="fill:#F18A1A;" width="66.2" height="3.3"/>
<path style="fill:#CBC49C;stroke:#000000;stroke-width:2;stroke-miterlimit:10;" d="M358.6,566.9h-28.8c-1.2,0-2.3-1-2.3-2.3v-3.2
	c0-1.2,1-2.3,2.3-2.3h28.8c1.2,0,2.3,1,2.3,2.3v3.2C360.8,565.9,359.8,566.9,358.6,566.9z"/>
<path style="fill:#CBC49C;stroke:#000000;stroke-width:2;stroke-miterlimit:10;" d="M327.1,569.4h-1.9c-1,0-1.8-0.8-1.8-1.8v-9.2
	c0-1,0.8-1.8,1.8-1.8h1.9c1,0,1.8,0.8,1.8,1.8v9.2C328.9,568.6,328.1,569.4,327.1,569.4z"/>
<path style="fill:#CBC49C;stroke:#000000;stroke-width:2;stroke-miterlimit:10;" d="M321.5,572.1h-3.3c-1.5,0-2.8-1.2-2.8-2.8v-13.4
	c0-1.5,1.2-2.8,2.8-2.8h3.3c1.5,0,2.8,1.2,2.8,2.8v13.4C324.3,570.8,323.1,572.1,321.5,572.1z"/>
<circle style="fill:#FFFFFF;" cx="223.5" cy="456.1" r="5.8"/>
<path style="fill:#D6DBD9;stroke:#000000;stroke-miterlimit:10;" d="M291.5,565.3l-4.5-0.1c-1.3,0-2.3-1.1-2.3-2.4l0.1-4.5
	c0-1.3,1.1-2.3,2.4-2.3l4.5,0.1c1.3,0,2.3,1.1,2.3,2.4l-0.1,4.5C293.9,564.3,292.8,565.3,291.5,565.3z"/>
<path style="fill:#D6DBD9;stroke:#000000;stroke-miterlimit:10;" d="M291.4,577.8l-4.5-0.1c-1.3,0-2.3-1.1-2.3-2.4l0.1-4.5
	c0-1.3,1.1-2.3,2.4-2.3l4.5,0.1c1.3,0,2.3,1.1,2.3,2.4l-0.1,4.5C293.7,576.8,292.7,577.9,291.4,577.8z"/>
<path style="fill:#D6DBD9;stroke:#000000;stroke-miterlimit:10;" d="M291.7,590.2l-4.5-0.1c-1.3,0-2.3-1.1-2.3-2.4l0.1-4.5
	c0-1.3,1.1-2.3,2.4-2.3l4.5,0.1c1.3,0,2.3,1.1,2.3,2.4l-0.1,4.5C294.1,589.2,293,590.2,291.7,590.2z"/>
<path style="fill:#D6DBD9;stroke:#000000;stroke-miterlimit:10;" d="M280.1,603.1l-20.5-0.2c-1.3,0-2.3-1.1-2.3-2.4l0.1-4.5
	c0-1.3,1.1-2.3,2.4-2.3l20.5,0.2c1.3,0,2.3,1.1,2.3,2.4l-0.1,4.5C282.5,602.1,281.4,603.1,280.1,603.1L280.1,603.1z"/>
<path style="fill:#D6DBD9;stroke:#000000;stroke-miterlimit:10;" d="M291.6,603.1L287,603c-1.3,0-2.3-1.1-2.3-2.4l0.1-4.5
	c0-1.3,1.1-2.3,2.4-2.3l4.5,0.1c1.3,0,2.3,1.1,2.3,2.4l-0.1,4.5C293.9,602.1,292.8,603.1,291.6,603.1z"/>
<path style="fill:#D6DBD9;stroke:#000000;stroke-miterlimit:10;" d="M277.8,565.3l-4.5-0.1c-1.3,0-2.3-1.1-2.3-2.4l0.1-4.5
	c0-1.3,1.1-2.3,2.4-2.3l4.5,0.1c1.3,0,2.3,1.1,2.3,2.4l-0.1,4.5C280.1,564.2,279.1,565.3,277.8,565.3z"/>
<path style="fill:#D6DBD9;stroke:#000000;stroke-miterlimit:10;" d="M277.6,577.8l-4.5-0.1c-1.3,0-2.3-1.1-2.3-2.4l0.1-4.5
	c0-1.3,1.1-2.3,2.4-2.3l4.5,0.1c1.3,0,2.3,1.1,2.3,2.4l-0.1,4.5C280,576.8,278.9,577.8,277.6,577.8z"/>
<path style="fill:#D6DBD9;stroke:#000000;stroke-miterlimit:10;" d="M277.9,590.2l-4.5-0.1c-1.3,0-2.3-1.1-2.3-2.4l0.1-4.5
	c0-1.3,1.1-2.3,2.4-2.3l4.5,0.1c1.3,0,2.3,1.1,2.3,2.4l-0.1,4.5C280.3,589.2,279.2,590.2,277.9,590.2z"/>
<path style="fill:#D6DBD9;stroke:#000000;stroke-miterlimit:10;" d="M263.3,565.5l-4.5-0.1c-1.3,0-2.3-1.1-2.3-2.4l0.1-4.5
	c0-1.3,1.1-2.3,2.4-2.3l4.5,0.1c1.3,0,2.3,1.1,2.3,2.4l-0.1,4.5C265.7,564.5,264.6,565.5,263.3,565.5z"/>
<path style="fill:#D6DBD9;stroke:#000000;stroke-miterlimit:10;" d="M263.2,578.1l-4.5-0.1c-1.3,0-2.3-1.1-2.3-2.4l0.1-4.5
	c0-1.3,1.1-2.3,2.4-2.3l4.5,0.1c1.3,0,2.3,1.1,2.3,2.4l-0.1,4.5C265.5,577.1,264.5,578.1,263.2,578.1z"/>
<path style="fill:#D6DBD9;stroke:#000000;stroke-miterlimit:10;" d="M263.5,590.5l-4.5-0.1c-1.3,0-2.3-1.1-2.3-2.4l0.1-4.5
	c0-1.3,1.1-2.3,2.4-2.3l4.5,0.1c1.3,0,2.3,1.1,2.3,2.4l-0.1,4.5C265.9,589.4,264.8,590.5,263.5,590.5z"/>
</svg>
