<svg width="96" height="76" xmlns="http://www.w3.org/2000/svg" xmlns:xlink="http://www.w3.org/1999/xlink" overflow="hidden"><defs><clipPath id="clip0"><rect x="521" y="7" width="96" height="76"/></clipPath></defs><g clip-path="url(#clip0)" transform="translate(-521 -7)"><path d="M7.27263 0C6.24403 0 5.33715 2.48587 4.80161 6.2668L4.68459 7.29551 3.86896 5.76374C2.70963 3.81233 1.62042 2.89178 0.876042 3.4646-0.612692 4.61025-0.158179 11.2955 1.89125 18.3967 2.40361 20.1719 2.96713 21.8052 3.54748 23.2385L5.16262 26.5865 4.97516 26.9625C4.92306 27.1512 4.90707 27.3533 4.93421 27.5597L6.33164 38.1861C6.4402 39.0116 7.1974 39.5928 8.02296 39.4842L9.00755 39.3547C9.83305 39.2462 10.4142 38.489 10.3057 37.6634L8.97828 27.5694 9.17102 25.8243 9.15193 25.1616 9.37972 24.2647C9.91905 21.6925 10.2526 18.139 10.2526 14.214 10.2526 6.36381 8.91842 0 7.27263 0Z" stroke="#000000" stroke-width="0.358662" stroke-miterlimit="8" fill="#7C561E" fill-rule="evenodd" transform="matrix(-0.986157 0.165817 0.164728 0.992671 556.806 37.5)"/><path d="M145.794 122.4 147.525 122.339 147.681 122.398 147.671 122.38 149.341 122.425 150.655 124.691 148.985 124.647 148.286 123.441 148.306 124.004C148.32 124.403 148.007 124.737 147.608 124.751L145.878 124.812C145.48 124.825 145.145 124.513 145.131 124.115L145.097 123.147C145.083 122.748 145.395 122.413 145.794 122.4Z" stroke="#000000" stroke-width="0.179299" stroke-miterlimit="8" fill="#404040" fill-rule="evenodd" transform="matrix(1 0 0 1.00661 407.553 -46.3181)"/><path d="M176.497 84.6224C177.516 84.4816 178.756 86.8194 179.805 90.4911L180.061 91.4942 180.661 89.8652C181.543 87.7739 182.496 86.713 183.313 87.1785 184.946 88.1103 185.411 94.7935 184.351 102.108 184.086 103.937 183.751 105.631 183.372 107.13L183.138 107.855 183.15 107.863C183.736 108.449 184.098 109.257 184.098 110.15 184.098 111.042 183.736 111.851 183.15 112.436L182.652 112.771 182.652 123.011C182.652 123.843 181.977 124.518 181.143 124.518L180.149 124.518C179.316 124.518 178.641 123.843 178.641 123.011L178.641 112.481 178.573 112.436C177.987 111.851 177.625 111.042 177.625 110.15L177.823 109.172 177.73 108.945C176.843 106.471 176.026 102.996 175.488 99.1085 174.413 91.333 174.865 84.8469 176.497 84.6224Z" stroke="#000000" stroke-width="0.537897" stroke-miterlimit="8" fill="#7C561E" fill-rule="evenodd" transform="matrix(1 0 0 1.00661 407.553 -46.3181)"/><path d="M178.882 122.445 180.629 122.445 180.786 122.508 180.777 122.49 182.46 122.592 183.707 124.87 182.022 124.769 181.359 123.557 181.359 124.112C181.359 124.506 181.033 124.825 180.629 124.825L178.882 124.825C178.479 124.825 178.152 124.506 178.152 124.112L178.152 123.158C178.152 122.764 178.479 122.445 178.882 122.445Z" stroke="#000000" stroke-width="0.179299" stroke-miterlimit="8" fill="#404040" fill-rule="evenodd" transform="matrix(1 0 0 1.00661 407.553 -46.3181)"/><path d="M131.912 81.3692C129.262 86.4775 126.612 91.5849 123.962 93.8453 121.312 96.1056 117.337 96.6024 116.012 94.9305 114.687 93.2577 115.349 88.5336 116.012 83.8103" stroke="#000000" stroke-width="3.58598" stroke-miterlimit="8" fill="none" fill-rule="evenodd" transform="matrix(1 0 0 1.00661 407.553 -46.3181)"/><path d="M132.186 81.4083C129.548 86.5166 126.911 91.6241 124.273 93.8844 121.635 96.1447 117.679 96.6416 116.36 94.9696 115.042 93.2968 115.701 88.5727 116.36 83.8494" stroke="#A07737" stroke-width="2.42054" stroke-miterlimit="8" fill="none" fill-rule="evenodd" transform="matrix(1 0 0 1.00661 407.553 -46.3181)"/><path d="M120.052 77.9076C121.418 77.9429 122.891 78.4297 124.179 79.3107L124.716 79.7582 124.576 79.6949C124.336 79.6143 124.09 79.5611 123.842 79.5376 122.849 79.4453 122.003 79.8545 121.436 80.5923L121.322 80.8379 121.155 80.8935 121.148 81.2096 120.815 81.9216 120.752 82.9872 120.577 83.4793C120.025 84.5027 119.21 85.2593 118.338 85.6552L117.619 85.8242 117.605 85.9071 117.556 85.8382 117.014 85.9658C116.575 85.972 116.148 85.8758 115.759 85.6653 114.202 84.8258 113.835 82.4857 114.939 80.4389 115.766 78.9031 117.187 77.969 118.502 77.9519L118.809 78.0254 118.988 77.9766C119.332 77.9208 119.689 77.8981 120.052 77.9076Z" stroke="#000000" stroke-width="0.448248" stroke-miterlimit="8" fill="#603E27" fill-rule="evenodd" transform="matrix(1 0 0 1.00661 407.553 -46.3181)"/><path d="M176.23 61.6919C177.269 61.6919 178.259 61.9029 179.159 62.2841L179.864 62.7605 181.42 63.3203C186.773 66.3341 189.546 75.8112 187.726 86.2733 186.947 90.7564 185.433 94.7842 183.483 98.0037L182.24 99.7539 182.167 99.955C181.862 100.579 181.411 101.183 180.831 101.756L179.77 102.574 179.085 103.261C177.483 104.585 175.772 105.446 174.042 105.738L172.948 105.832 172.52 105.979C168.859 107.015 164.446 107.619 159.696 107.619 151.778 107.619 144.797 105.94 140.676 103.387L139.231 102.273 137.957 103.484C137.042 104.162 136.037 104.537 134.981 104.537 130.758 104.537 127.335 98.5436 127.335 91.1507 127.335 84.6819 129.956 79.2849 133.44 78.0365L134.189 77.9044 134.477 77.7339 158.308 66.7015 158.434 66.2942C159.577 63.5897 162.251 61.6919 165.367 61.6919Z" stroke="#000000" stroke-width="0.537897" stroke-miterlimit="8" fill="#A07737" fill-rule="evenodd" transform="matrix(1 0 0 1.00661 407.553 -46.3181)"/><path d="M157.77 69.488C157.77 65.1824 161.26 61.6919 165.566 61.6919L175.715 61.6919C180.021 61.6919 183.511 65.1824 183.511 69.488L183.511 84.6443C183.511 88.9498 180.021 92.4401 175.715 92.4401L165.566 92.4401C161.26 92.4401 157.77 88.9498 157.77 84.6443Z" stroke="#000000" stroke-width="0.358598" stroke-miterlimit="8" fill="#A07737" fill-rule="evenodd" transform="matrix(1 0 0 1.00661 407.553 -46.3181)"/><path d="M142.249 86.7842C144.876 87.3444 145.68 94.0213 144.043 101.697 143.225 105.535 141.951 108.896 140.554 111.229L140.003 112.027 139.895 112.682 139.662 113.25 141.223 125.891C141.349 126.923 140.617 127.862 139.586 127.989L138.356 128.141C137.325 128.268 136.385 127.535 136.258 126.504L134.692 113.812 133.501 112.399C132.057 110.096 130.716 106.761 129.82 102.94 128.028 95.299 128.696 88.6071 131.313 87.9938 132.621 87.687 134.168 88.9577 135.612 91.261L136.595 93.0363 136.997 92.07C138.64 88.5555 140.606 86.4336 142.249 86.7842Z" stroke="#000000" stroke-width="0.537897" stroke-miterlimit="8" fill="#A07737" fill-rule="evenodd" transform="matrix(1 0 0 1.00661 407.553 -46.3181)"/><path d="M136.679 125.028 138.935 124.897 139.141 124.968 139.127 124.946 141.308 124.953 143.092 127.869 140.91 127.862 139.962 126.311 140.005 127.045C140.035 127.565 139.638 128.011 139.118 128.041L136.862 128.173C136.342 128.203 135.896 127.806 135.865 127.286L135.792 126.025C135.762 125.505 136.159 125.059 136.679 125.028Z" stroke="#000000" stroke-width="0.179299" stroke-miterlimit="8" fill="#404040" fill-rule="evenodd" transform="matrix(1 0 0 1.00661 407.553 -46.3181)"/><path d="M168.404 84.9424C170.907 85.5808 174.139 90.5968 176.098 97.1799 177.217 100.941 177.708 104.502 177.597 107.218L177.496 108.183 177.715 108.809 177.871 109.614 178.078 109.773 178.433 110.391 178.77 110.84C179.256 111.839 179.361 113.022 178.97 114.155 178.58 115.287 177.766 116.154 176.768 116.64L175.868 116.879 172.45 123.84C171.993 124.773 170.865 125.158 169.933 124.7L168.82 124.154C167.887 123.695 167.502 122.569 167.961 121.635L171.228 114.981 170.968 114.637C170.483 113.638 170.378 112.455 170.769 111.322L170.977 110.924 168.178 108.949C166.861 107.846 165.514 106.543 164.206 105.08 158.974 99.2297 156.357 93.0347 158.36 91.243 159.362 90.348 161.329 90.7227 163.699 92.0536L165.412 93.1419 165.302 92.1013C165.062 88.2285 165.773 85.4244 167.382 84.9455 167.704 84.8493 168.047 84.8516 168.404 84.9424Z" stroke="#000000" stroke-width="0.537897" stroke-miterlimit="8" fill="#A07737" fill-rule="evenodd" transform="matrix(1 0 0 1.00661 407.553 -46.3181)"/><path d="M168.267 121.894 170.295 122.889 170.44 123.054 170.439 123.027 172.333 124.107 172.45 127.524 170.555 126.443 170.493 124.626 170.169 125.286C169.94 125.754 169.374 125.947 168.907 125.717L166.879 124.721C166.411 124.492 166.218 123.926 166.448 123.459L167.004 122.325C167.234 121.857 167.799 121.664 168.267 121.894Z" stroke="#000000" stroke-width="0.179299" stroke-miterlimit="8" fill="#404040" fill-rule="evenodd" transform="matrix(1 0 0 1.00661 407.553 -46.3181)"/><path d="M128.957 86.9242C128.635 85.1928 129.778 83.5286 131.509 83.207L178.521 74.4706C180.252 74.1489 181.917 75.2915 182.239 77.0229L184.569 89.5624C184.89 91.2931 183.748 92.958 182.017 93.2796L135.005 102.016C133.273 102.337 131.609 101.195 131.288 99.4637Z" fill="#A07737" fill-rule="evenodd" transform="matrix(1 0 0 1.00661 407.553 -46.3181)"/><path d="M196.779 66.1516 196.934 66.264C198.312 67.0893 200.217 67.5997 202.321 67.5997 203.372 67.5997 204.374 67.4721 205.286 67.2413L206.239 66.8568 206.357 67.3729C206.357 69.7663 204.15 71.7066 201.428 71.7066 198.706 71.7066 196.499 69.7663 196.499 67.3729Z" stroke="#000000" stroke-width="0.537897" stroke-miterlimit="8" fill="#A07737" fill-rule="evenodd" transform="matrix(1 0 0 1.00661 407.553 -46.3181)"/><path d="M206 67.2341C206.314 68.7295 204.248 70.4294 201.383 71.0309 198.52 71.6324 195.943 70.9077 195.63 69.4123 198.091 70.4566 202.218 69.9064 204.846 68.1833 205.297 67.8876 205.686 67.568 206 67.2341Z" fill="#603E27" fill-rule="evenodd" transform="matrix(1 0 0 1.00661 407.553 -46.3181)"/><path d="M13.9025 0C8.99043 2.55982 5.97795 7.2108 5.97795 12.2347L6.04798 13.1729 5.10199 13.7286C3.53054 14.4736 2.09804 14.6004 1.02315 13.9567 0.66487 13.7421 0.363252 13.4521 0.117195 13.0966L0.0925639 13.0426 0 12.2347C0 5.47765 6.22437 0 13.9025 0Z" stroke="#000000" stroke-width="0.538098" stroke-miterlimit="8" fill="#B4B9B8" fill-rule="evenodd" transform="matrix(-0.238873 -0.977079 -0.970666 0.240451 613.838 21.7724)"/><path d="M188.205 61.6137C191.533 61.6137 194.468 62.4335 196.2 63.6802L196.733 64.1574 197.461 64.5133C199.923 66.1519 201.649 69.9882 201.649 74.4593 201.649 75.2045 201.602 75.9321 201.51 76.6348L201.192 78.2514 201.894 79.3874C203.914 83.3056 204.061 87.4109 201.873 90.2447 198.37 94.7787 190.213 94.3421 183.653 89.2691 179.552 86.0988 177.046 81.8676 176.599 78.0335L176.584 76.3626 176.516 76.1418C176.434 75.7408 176.391 75.3257 176.391 74.9004L176.391 69.8284C176.391 68.1276 177.081 66.5878 178.195 65.4732L179.057 64.8915 179.321 64.4765C180.785 62.7941 184.212 61.6137 188.205 61.6137Z" stroke="#000000" stroke-width="0.537897" stroke-miterlimit="8" fill="#A07737" fill-rule="evenodd" transform="matrix(1 0 0 1.00661 407.553 -46.3181)"/><path d="M177.273 66.621 177.99 66.9434C179.371 67.863 180.225 69.1335 180.225 70.5368 180.225 73.3434 176.81 75.6186 172.597 75.6186 168.383 75.6186 164.968 73.3434 164.968 70.5368L164.979 70.4646 166.134 70.5368C170.648 70.5368 174.628 69.1173 176.978 66.9584Z" stroke="#000000" stroke-width="0.537897" stroke-miterlimit="8" fill="#A07737" fill-rule="evenodd" transform="matrix(1 0 0 1.00661 407.553 -46.3181)"/><path d="M174.43 70.0122C174.61 72.2202 172.726 74.1769 170.218 74.3829 167.711 74.5888 165.532 72.9658 165.351 70.7579 167.776 72.7815 171.644 72.6526 173.988 70.47 174.145 70.3245 174.292 70.1717 174.43 70.0122Z" fill="#603E27" fill-rule="evenodd" transform="matrix(1 0 0 1.00661 407.553 -46.3181)"/><path d="M176.9 69.1638C176.9 66.7008 178.932 64.7042 181.438 64.7042 183.944 64.7042 185.976 66.7008 185.976 69.1638 185.976 71.6268 183.944 73.6235 181.438 73.6235 178.932 73.6235 176.9 71.6268 176.9 69.1638Z" fill="#A07737" fill-rule="evenodd" transform="matrix(1 0 0 1.00661 407.553 -46.3181)"/><path d="M166.455 56.1369C169.019 61.0299 173.678 64.0307 178.71 64.0307L179.65 63.9609 180.206 64.9032C180.953 66.4685 181.08 67.8955 180.435 68.9662 180.22 69.323 179.93 69.6235 179.573 69.8686L179.519 69.8931 178.71 69.9853C171.942 69.9853 166.455 63.7852 166.455 56.1369Z" stroke="#000000" stroke-width="0.537897" stroke-miterlimit="8" fill="#B4B9B8" fill-rule="evenodd" transform="matrix(1 0 0 1.00661 407.553 -46.3181)"/><path d="M194.543 72.3325C194.543 70.777 195.804 69.5159 197.359 69.5159 198.915 69.5159 200.176 70.777 200.176 72.3325 200.176 73.8881 198.915 75.1491 197.359 75.1491 195.804 75.1491 194.543 73.8881 194.543 72.3325Z" stroke="#000000" stroke-width="0.358598" stroke-miterlimit="8" fill="#FFFFFF" fill-rule="evenodd" transform="matrix(1 0 0 1.00661 407.553 -46.3181)"/><path d="M197.79 72.8411C197.79 72.3658 198.175 71.9804 198.65 71.9804 199.126 71.9804 199.511 72.3658 199.511 72.8411 199.511 73.3164 199.126 73.7017 198.65 73.7017 198.175 73.7017 197.79 73.3164 197.79 72.8411Z" fill-rule="evenodd" transform="matrix(1 0 0 1.00661 407.553 -46.3181)"/><path d="M184.919 72.5672C184.919 71.0117 186.181 69.7506 187.736 69.7506 189.291 69.7506 190.553 71.0117 190.553 72.5672 190.553 74.1228 189.291 75.3839 187.736 75.3839 186.181 75.3839 184.919 74.1228 184.919 72.5672Z" stroke="#000000" stroke-width="0.358598" stroke-miterlimit="8" fill="#FFFFFF" fill-rule="evenodd" transform="matrix(1 0 0 1.00661 407.553 -46.3181)"/><path d="M187.697 73.2323C187.697 72.757 188.082 72.3716 188.557 72.3716 189.033 72.3716 189.418 72.757 189.418 73.2323 189.418 73.7076 189.033 74.0929 188.557 74.0929 188.082 74.0929 187.697 73.7076 187.697 73.2323Z" fill-rule="evenodd" transform="matrix(1 0 0 1.00661 407.553 -46.3181)"/><path d="M192.823 88.6408C191.506 88.2199 190.19 87.7997 188.764 86.9712 187.338 86.1426 185.801 84.9056 184.264 83.6694" stroke="#000000" stroke-width="0.537897" stroke-linecap="round" stroke-miterlimit="8" fill="none" fill-rule="evenodd" transform="matrix(1 0 0 1.00661 407.553 -46.3181)"/><path d="M189.927 82.4372C189.927 79.7082 192.138 77.4963 194.867 77.4963L204.233 77.4963C206.962 77.4963 209.174 79.7082 209.174 82.4372L209.174 84.2132C209.174 86.9422 206.962 89.154 204.233 89.154L194.867 89.154C192.138 89.154 189.927 86.9422 189.927 84.2132Z" stroke="#000000" stroke-width="0.537897" stroke-miterlimit="8" fill="#543C18" fill-rule="evenodd" transform="matrix(1 0 0 1.00661 407.553 -46.3181)"/><path d="M202.914 83.6381C202.914 82.1477 203.79 80.9389 204.87 80.9389 205.951 80.9389 206.826 82.1477 206.826 83.6381 206.826 85.1286 205.951 86.3374 204.87 86.3374 203.79 86.3374 202.914 85.1286 202.914 83.6381Z" stroke="#000000" stroke-width="0.358598" stroke-miterlimit="8" fill="#3F2708" fill-rule="evenodd" transform="matrix(1 0 0 1.00661 407.553 -46.3181)"/><path d="M195.403 83.8337C195.403 82.3644 196.594 81.1736 198.064 81.1736 199.533 81.1736 200.724 82.3644 200.724 83.8337 200.724 85.3031 199.533 86.4939 198.064 86.4939 196.594 86.4939 195.403 85.3031 195.403 83.8337Z" stroke="#000000" stroke-width="0.358598" stroke-miterlimit="8" fill="#3F2708" fill-rule="evenodd" transform="matrix(1 0 0 1.00661 407.553 -46.3181)"/><path d="M203.144 83.5333C205.161 84.2116 206.247 86.3969 205.568 88.4147 204.89 90.4325 202.705 91.5184 200.687 90.8401 198.669 90.1618 197.583 87.9757 198.262 85.958 198.602 84.9479 199.345 84.1224 200.315 83.6804L200.704 84.5324C199.239 85.2014 198.592 86.932 199.261 88.3975 199.93 89.8637 201.661 90.5091 203.126 89.8402 204.592 89.1712 205.238 87.4406 204.569 85.9752 204.234 85.2413 203.61 84.6787 202.845 84.4213Z" stroke="#000000" stroke-width="0.358598" stroke-linecap="round" stroke-linejoin="round" stroke-miterlimit="10" fill="#FFD966" fill-rule="evenodd" transform="matrix(1 0 0 1.00661 407.553 -46.3181)"/><path d="M183.154 70.1509C182.945 69.4693 184.262 68.4604 186.095 67.8975 187.928 67.3346 189.585 67.4307 189.794 68.1123 188.209 67.8529 185.566 68.5134 183.89 69.5876 183.602 69.7718 183.355 69.9615 183.154 70.1509Z" fill="#603E27" fill-rule="evenodd" transform="matrix(1 0 0 1.00661 407.553 -46.3181)"/><path d="M193.296 68.1703C193.346 67.459 194.937 66.9906 196.85 67.124 198.763 67.2574 200.274 67.9422 200.225 68.6535 198.839 67.8421 196.135 67.5087 194.184 67.9087 193.85 67.9773 193.551 68.0653 193.296 68.1703Z" fill="#603E27" fill-rule="evenodd" transform="matrix(1 0 0 1.00661 407.553 -46.3181)"/></g></svg>