<?xml version="1.0" encoding="iso-8859-1"?>
<!-- Generator: Adobe Illustrator 27.0.0, SVG Export Plug-In . SVG Version: 6.00 Build 0)  -->
<svg version="1.1" id="a" xmlns="http://www.w3.org/2000/svg" xmlns:xlink="http://www.w3.org/1999/xlink" x="0px" y="0px"
	 viewBox="0 0 595.2 841.9" style="enable-background:new 0 0 595.2 841.9;" xml:space="preserve">
<circle style="fill:#FFFFFF;" cx="223.5" cy="456.1" r="5.8"/>
<path style="fill:#EBE2B3;stroke:#000000;stroke-width:6;stroke-miterlimit:10;" d="M261.4,669.9"/>
<path style="fill:#560B16;stroke:#231815;stroke-width:3;stroke-miterlimit:10;" d="M66.1,475.5l-8.3,18.8
	c-2.1,4.9-7.5,7.3-11.9,5.3l-6.7-3c-0.6-0.3-1.2-0.6-1.7-1c-0.6-0.1-1.2-0.2-1.7-0.5l-5-2.2c-3.7-1.6-5.3-6.3-3.5-10.5L63.2,401
	c1.8-4.1,6.3-6.2,10.1-4.5l5,2.2c0.5,0.2,0.9,0.5,1.3,0.8c0.5,0.1,1.1,0.3,1.6,0.5l6.7,3c4.4,1.9,6.2,7.5,4.1,12.3l-8.3,18.8
	c-2.1,4.9-7.5,7.3-11.9,5.3l-2.9-1.3l-10.4,23.5l3.4,1.5C66.4,465.1,68.2,470.6,66.1,475.5z"/>
<polygon style="fill:#93D1D0;" points="46.6,500.4 44.7,499.8 57.9,461.9 59.8,462.6 "/>
<polygon style="fill:#93D1D0;" points="70.4,438.7 68.5,438 81.7,400.2 83.6,400.9 "/>
</svg>
