<svg width="153" height="88" xmlns="http://www.w3.org/2000/svg" xmlns:xlink="http://www.w3.org/1999/xlink" overflow="hidden"><defs><clipPath id="clip0"><rect x="386" y="324" width="153" height="88"/></clipPath></defs><g clip-path="url(#clip0)" transform="translate(-386 -324)"><path d="M261.152 532.764 222.8 532.764C219.314 532.764 216.507 529.958 216.507 526.472L216.507 456.655C216.507 453.169 219.314 450.362 222.8 450.362L261.152 450.362C264.639 450.362 267.445 453.169 267.445 456.655L267.445 526.387C267.53 529.873 264.639 532.764 261.152 532.764Z" stroke="#000000" stroke-width="5.10229" stroke-miterlimit="10" fill="#A6A897" transform="matrix(1.00253 0 0 1 171.713 -123.394)"/><path d="M306.818 476.469 363.113 476.469 363.113 481.231 306.818 481.231Z" fill="#E2A9CB" transform="matrix(1.00253 0 0 1 171.713 -123.394)"/><path d="M306.818 477.405 363.113 477.405 363.113 480.211 306.818 480.211Z" fill="#7E4899" transform="matrix(1.00253 0 0 1 171.713 -123.394)"/><path d="M304.947 482.082 280.456 482.082C279.436 482.082 278.5 481.231 278.5 480.126L278.5 477.405C278.5 476.384 279.351 475.449 280.456 475.449L304.947 475.449C305.967 475.449 306.903 476.299 306.903 477.405L306.903 480.126C306.818 481.231 305.967 482.082 304.947 482.082Z" stroke="#000000" stroke-width="1.70076" stroke-miterlimit="10" fill="#CBC49C" transform="matrix(1.00253 0 0 1 171.713 -123.394)"/><path d="M278.16 484.208 276.544 484.208C275.694 484.208 275.014 483.527 275.014 482.677L275.014 474.853C275.014 474.003 275.694 473.323 276.544 473.323L278.16 473.323C279.01 473.323 279.691 474.003 279.691 474.853L279.691 482.677C279.691 483.527 279.01 484.208 278.16 484.208Z" stroke="#000000" stroke-width="1.70076" stroke-miterlimit="10" fill="#CBC49C" transform="matrix(1.00253 0 0 1 171.713 -123.394)"/><path d="M273.398 486.504 270.592 486.504C269.316 486.504 268.211 485.483 268.211 484.123L268.211 472.727C268.211 471.452 269.231 470.346 270.592 470.346L273.398 470.346C274.673 470.346 275.779 471.367 275.779 472.727L275.779 484.123C275.779 485.398 274.758 486.504 273.398 486.504Z" stroke="#000000" stroke-width="1.70076" stroke-miterlimit="10" fill="#CBC49C" transform="matrix(1.00253 0 0 1 171.713 -123.394)"/><path d="M194.993 387.859C194.993 390.583 192.784 392.791 190.06 392.791 187.336 392.791 185.128 390.583 185.128 387.859 185.128 385.135 187.336 382.927 190.06 382.927 192.784 382.927 194.993 385.135 194.993 387.859Z" fill="#FFFFFF" transform="matrix(1.00253 0 0 1 171.713 -123.394)"/><path d="M247.886 480.721 244.06 480.636C242.954 480.636 242.104 479.701 242.104 478.595L242.189 474.768C242.189 473.663 243.124 472.812 244.23 472.812L248.056 472.897C249.162 472.897 250.012 473.833 250.012 474.938L249.927 478.765C249.927 479.871 248.992 480.721 247.886 480.721Z" stroke="#000000" stroke-width="0.850382" stroke-miterlimit="10" fill="#D6DBD9" transform="matrix(1.00253 0 0 1 171.713 -123.394)"/><path d="M247.801 491.351 243.975 491.266C242.869 491.266 242.019 490.33 242.019 489.225L242.104 485.398C242.104 484.293 243.039 483.442 244.145 483.442L247.971 483.527C249.077 483.527 249.927 484.463 249.927 485.568L249.842 489.395C249.757 490.5 248.907 491.436 247.801 491.351Z" stroke="#000000" stroke-width="0.850382" stroke-miterlimit="10" fill="#D6DBD9" transform="matrix(1.00253 0 0 1 171.713 -123.394)"/><path d="M248.056 501.896 244.23 501.81C243.124 501.81 242.274 500.875 242.274 499.77L242.359 495.943C242.359 494.837 243.294 493.987 244.4 493.987L248.227 494.072C249.332 494.072 250.182 495.007 250.182 496.113L250.097 499.94C250.097 501.045 249.162 501.896 248.056 501.896Z" stroke="#000000" stroke-width="0.850382" stroke-miterlimit="10" fill="#D6DBD9" transform="matrix(1.00253 0 0 1 171.713 -123.394)"/><path d="M238.192 512.865 220.759 512.695C219.654 512.695 218.803 511.76 218.803 510.654L218.888 506.828C218.888 505.722 219.824 504.872 220.929 504.872L238.362 505.042C239.468 505.042 240.318 505.977 240.318 507.083L240.233 510.91C240.233 512.015 239.298 512.865 238.192 512.865L238.192 512.865Z" stroke="#000000" stroke-width="0.850382" stroke-miterlimit="10" fill="#D6DBD9" transform="matrix(1.00253 0 0 1 171.713 -123.394)"/><path d="M247.971 512.865 244.06 512.78C242.954 512.78 242.104 511.845 242.104 510.739L242.189 506.913C242.189 505.807 243.124 504.957 244.23 504.957L248.056 505.042C249.162 505.042 250.012 505.977 250.012 507.083L249.927 510.91C249.927 512.015 248.992 512.865 247.971 512.865Z" stroke="#000000" stroke-width="0.850382" stroke-miterlimit="10" fill="#D6DBD9" transform="matrix(1.00253 0 0 1 171.713 -123.394)"/><path d="M236.236 480.721 232.409 480.636C231.304 480.636 230.454 479.701 230.454 478.595L230.539 474.768C230.539 473.663 231.474 472.812 232.579 472.812L236.406 472.897C237.512 472.897 238.362 473.833 238.362 474.938L238.277 478.765C238.192 479.786 237.342 480.721 236.236 480.721Z" stroke="#000000" stroke-width="0.850382" stroke-miterlimit="10" fill="#D6DBD9" transform="matrix(1.00253 0 0 1 171.713 -123.394)"/><path d="M236.066 491.351 232.239 491.266C231.134 491.266 230.283 490.33 230.283 489.225L230.368 485.398C230.368 484.293 231.304 483.442 232.409 483.442L236.236 483.527C237.342 483.527 238.192 484.463 238.192 485.568L238.107 489.395C238.107 490.5 237.172 491.351 236.066 491.351Z" stroke="#000000" stroke-width="0.850382" stroke-miterlimit="10" fill="#D6DBD9" transform="matrix(1.00253 0 0 1 171.713 -123.394)"/><path d="M236.321 501.896 232.494 501.81C231.389 501.81 230.539 500.875 230.539 499.77L230.624 495.943C230.624 494.837 231.559 493.987 232.665 493.987L236.491 494.072C237.597 494.072 238.447 495.007 238.447 496.113L238.362 499.94C238.362 501.045 237.427 501.896 236.321 501.896Z" stroke="#000000" stroke-width="0.850382" stroke-miterlimit="10" fill="#D6DBD9" transform="matrix(1.00253 0 0 1 171.713 -123.394)"/><path d="M223.906 480.891 220.079 480.806C218.973 480.806 218.123 479.871 218.123 478.765L218.208 474.938C218.208 473.833 219.143 472.983 220.249 472.983L224.076 473.068C225.181 473.068 226.032 474.003 226.032 475.108L225.947 478.935C225.947 480.041 225.011 480.891 223.906 480.891Z" stroke="#000000" stroke-width="0.850382" stroke-miterlimit="10" fill="#D6DBD9" transform="matrix(1.00253 0 0 1 171.713 -123.394)"/><path d="M223.821 491.606 219.994 491.521C218.888 491.521 218.038 490.585 218.038 489.48L218.123 485.653C218.123 484.548 219.058 483.697 220.164 483.697L223.991 483.782C225.096 483.782 225.947 484.718 225.947 485.823L225.861 489.65C225.776 490.755 224.926 491.606 223.821 491.606Z" stroke="#000000" stroke-width="0.850382" stroke-miterlimit="10" fill="#D6DBD9" transform="matrix(1.00253 0 0 1 171.713 -123.394)"/><path d="M224.076 502.151 220.249 502.066C219.143 502.066 218.293 501.13 218.293 500.025L218.378 496.198C218.378 495.092 219.314 494.242 220.419 494.242L224.246 494.327C225.351 494.327 226.202 495.263 226.202 496.368L226.117 500.195C226.117 501.215 225.181 502.151 224.076 502.151Z" stroke="#000000" stroke-width="0.850382" stroke-miterlimit="10" fill="#D6DBD9" transform="matrix(1.00253 0 0 1 171.713 -123.394)"/></g></svg>