<svg width="725" height="423" xmlns="http://www.w3.org/2000/svg" xmlns:xlink="http://www.w3.org/1999/xlink" xml:space="preserve" overflow="hidden"><defs><clipPath id="clip0"><rect x="2051" y="814" width="725" height="423"/></clipPath></defs><g clip-path="url(#clip0)" transform="translate(-2051 -814)"><path d="M2413.74 872C2295.06 872.135 2188.86 941.378 2147 1045.91 2153.36 1046.72 2159.62 1048.09 2165.7 1050 2218.58 921.075 2372.48 856.909 2509.45 906.679 2560.32 925.164 2603.93 957.928 2634.35 1000.53 2635.63 1000.48 2636.91 1000.3 2638.19 1000.3 2644.85 1000.34 2651.48 1000.98 2658 1002.23 2606.5 921.478 2513.8 872.055 2413.74 872Z" stroke="#BDD7EE" stroke-width="27.5" stroke-miterlimit="8" fill="#BDD7EE" fill-rule="evenodd"/><path d="M2562.48 1005.82C2566.92 1001.98 2571.78 998.487 2577 995.392 2505.4 920.03 2373.38 906.866 2282.12 965.988 2249.3 987.25 2224.89 1016.1 2212 1048.86 2218.66 1048.64 2225.34 1049.02 2231.9 1050 2266.84 967.983 2375.68 924.882 2475 953.732 2509.61 963.785 2539.97 981.869 2562.44 1005.82Z" stroke="#FFD966" stroke-width="27.5" stroke-miterlimit="8" fill="#FFE699" fill-rule="evenodd"/><path d="M2537.02 1030.18C2540.68 1026.37 2544.69 1022.91 2549 1019.84 2489.96 945.104 2381.08 932.048 2305.82 990.682 2278.76 1011.77 2258.63 1040.38 2248 1072.87 2253.5 1072.65 2259 1073.03 2264.41 1074 2293.23 992.661 2382.98 949.916 2464.89 978.528 2493.43 988.497 2518.46 1006.43 2536.99 1030.18Z" stroke="#C00000" stroke-width="27.5" stroke-miterlimit="8" fill="#C00000" fill-rule="evenodd"/><path d="M2412.8 891C2314.56 891.118 2226.65 951.803 2192 1043.41 2197.26 1044.13 2202.45 1045.33 2207.48 1047 2251.25 934.01 2378.65 877.774 2492.03 921.393 2534.14 937.593 2570.24 966.307 2595.42 1003.64 2596.48 1003.6 2597.54 1003.45 2598.6 1003.45 2604.11 1003.47 2609.6 1004.04 2615 1005.13 2572.37 934.363 2495.63 891.048 2412.8 891Z" stroke="#70AD47" stroke-width="27.5" stroke-miterlimit="8" fill="#70AD47" fill-rule="evenodd"/><path d="M2412.62 843.76C2533.57 843.92 2641.15 920.566 2680.66 1034.73 2686.98 1035.7 2693.14 1037.49 2699 1040.05 2650.91 882.094 2483.71 792.979 2325.55 841.008 2219.85 873.108 2140.44 960.755 2119 1069 2124.8 1063.14 2131.41 1058.13 2138.61 1054.12 2171.82 930.185 2284.17 843.933 2412.62 843.76Z" stroke="#7030A0" stroke-width="27.5" stroke-miterlimit="8" fill="#7030A0" fill-rule="evenodd"/><path d="M2775.93 1146.6C2775.18 1133.42 2769.16 1121.1 2759.24 1112.43L2759.24 1112.43C2750.66 1104.99 2739.71 1100.88 2728.38 1100.85 2724.16 1068.35 2694.51 1045.44 2662.16 1049.68 2660.62 1049.88 2659.1 1050.14 2657.58 1050.46 2636.25 1018.12 2592.86 1009.27 2560.67 1030.69 2544.01 1041.78 2532.86 1059.5 2530.05 1079.38L2529.16 1079.38C2496.49 1079.37 2470.01 1105.97 2470 1138.79 2470 1168.04 2491.17 1192.94 2519.93 1197.5 2521.15 1197.69 2522.37 1197.85 2524.32 1198L2730.14 1198C2756.9 1196.48 2777.38 1173.49 2775.93 1146.6ZM2729.71 1182.16 2525.06 1182.16 2525.06 1182.16C2501.19 1179.87 2483.69 1158.58 2485.97 1134.59 2488.1 1112.21 2506.81 1095.12 2529.19 1095.12 2531.47 1095.12 2533.76 1095.3 2536.01 1095.66L2544.83 1097.07C2544.88 1097.08 2544.92 1097.04 2544.93 1096.99 2544.93 1096.99 2544.93 1096.99 2544.93 1096.99L2545.08 1089.8C2545.22 1069.83 2555.92 1051.44 2573.17 1041.5 2585.47 1034.66 2599.96 1032.92 2613.53 1036.67 2628.41 1041.09 2640.86 1051.42 2647.99 1065.26L2650.05 1069.08C2650.07 1069.11 2650.1 1069.13 2650.14 1069.12L2654.79 1067.6C2669.84 1062.37 2686.51 1065.56 2698.6 1075.96 2707.86 1084.21 2713.15 1096.06 2713.11 1108.49L2713.11 1118.76C2713.11 1118.81 2713.16 1118.85 2713.2 1118.84 2713.2 1118.84 2713.2 1118.84 2713.2 1118.84L2722.39 1117.14C2731.88 1115.38 2741.65 1118.04 2748.96 1124.37 2762.65 1136.3 2764.13 1157.11 2752.26 1170.87 2746.54 1177.5 2738.43 1181.56 2729.71 1182.16Z" fill-rule="evenodd"/><path d="M2356.93 1185.91C2356.18 1172.8 2350.16 1160.55 2340.25 1151.93L2340.25 1151.93C2331.66 1144.53 2320.71 1140.44 2309.38 1140.41 2305.16 1108.08 2275.51 1085.3 2243.16 1089.52 2241.62 1089.72 2240.1 1089.98 2238.58 1090.3 2217.26 1058.12 2173.87 1049.32 2141.67 1070.63 2125.01 1081.65 2113.87 1099.26 2111.05 1119.02L2110.16 1119.02C2077.49 1119.02 2051.01 1145.47 2051 1178.12 2051 1207.2 2072.17 1231.97 2100.93 1236.51 2102.15 1236.69 2103.37 1236.85 2105.33 1237L2311.14 1237C2337.89 1235.49 2358.37 1212.64 2356.93 1185.91ZM2310.72 1221.28 2106.09 1221.28 2106.09 1221.28C2082.22 1219 2064.71 1197.82 2066.99 1173.97 2069.12 1151.71 2087.83 1134.71 2110.21 1134.71 2112.5 1134.71 2114.78 1134.89 2117.04 1135.25L2125.86 1136.65C2125.9 1136.66 2125.95 1136.62 2125.95 1136.57 2125.95 1136.57 2125.95 1136.57 2125.95 1136.57L2126.1 1129.42C2126.24 1109.56 2136.93 1091.27 2154.17 1081.38 2166.47 1074.58 2180.96 1072.85 2194.53 1076.58 2209.41 1080.98 2221.86 1091.25 2229 1105.02L2231.05 1108.81C2231.07 1108.85 2231.11 1108.86 2231.14 1108.85L2235.79 1107.34C2250.84 1102.14 2267.51 1105.31 2279.6 1115.66 2288.86 1123.87 2294.14 1135.66 2294.09 1148.03L2294.09 1158.25C2294.09 1158.3 2294.13 1158.33 2294.18 1158.33 2294.18 1158.33 2294.18 1158.33 2294.18 1158.33L2303.37 1156.64C2312.86 1154.89 2322.63 1157.53 2329.94 1163.83 2343.62 1175.7 2345.08 1196.41 2333.2 1210.07 2327.49 1216.64 2319.4 1220.68 2310.72 1221.28Z" fill-rule="evenodd"/></g></svg>