<svg width="153" height="91" xmlns="http://www.w3.org/2000/svg" xmlns:xlink="http://www.w3.org/1999/xlink" overflow="hidden"><defs><clipPath id="clip0"><rect x="259" y="398" width="153" height="91"/></clipPath></defs><g clip-path="url(#clip0)" transform="translate(-259 -398)"><path d="M316.784 236.136 277.641 236.136C274.083 236.136 271.218 233.233 271.218 229.626L271.218 157.383C271.218 153.776 274.083 150.872 277.641 150.872L316.784 150.872C320.343 150.872 323.207 153.776 323.207 157.383L323.207 229.537C323.293 233.145 320.343 236.136 316.784 236.136Z" stroke="#000000" stroke-width="5.24641" stroke-miterlimit="8" fill="#A6A897" fill-rule="evenodd" transform="matrix(1 0 0 1.001 -9.2699 249.902)"/><path d="M363.611 177.906 421.246 177.906 421.246 182.956 363.611 182.956Z" fill="#F08110" fill-rule="evenodd" transform="matrix(1 0 0 1.001 -9.2699 249.902)"/><path d="M363.611 178.797 421.246 178.797 421.246 181.768 363.611 181.768Z" fill="#D71427" fill-rule="evenodd" transform="matrix(1 0 0 1.001 -9.2699 249.902)"/><path d="M361.606 183.849 336.502 183.849C335.456 183.849 334.497 182.974 334.497 181.834L334.497 179.031C334.497 177.98 335.37 177.016 336.502 177.016L361.606 177.016C362.652 177.016 363.611 177.893 363.611 179.031L363.611 181.834C363.525 182.974 362.652 183.849 361.606 183.849Z" stroke="#000000" stroke-width="1.74881" stroke-miterlimit="8" fill="#CBC49C" fill-rule="evenodd" transform="matrix(1 0 0 1.001 -9.2699 249.902)"/><path d="M334.131 185.929 332.488 185.929C331.624 185.929 330.932 185.223 330.932 184.341L330.932 176.227C330.932 175.345 331.624 174.639 332.488 174.639L334.131 174.639C334.996 174.639 335.685 175.345 335.685 176.227L335.685 184.341C335.685 185.223 334.996 185.929 334.131 185.929Z" stroke="#000000" stroke-width="1.74881" stroke-miterlimit="8" fill="#CBC49C" fill-rule="evenodd" transform="matrix(1 0 0 1.001 -9.2699 249.902)"/><path d="M329.393 188.306 326.529 188.306C325.227 188.306 324.099 187.255 324.099 185.854L324.099 174.12C324.099 172.807 325.141 171.669 326.529 171.669L329.393 171.669C330.697 171.669 331.823 172.719 331.823 174.12L331.823 185.854C331.823 187.167 330.783 188.306 329.393 188.306Z" stroke="#000000" stroke-width="1.74881" stroke-miterlimit="8" fill="#CBC49C" fill-rule="evenodd" transform="matrix(1 0 0 1.001 -9.2699 249.902)"/><path d="M303.377 182.511 299.494 182.422C298.371 182.422 297.509 181.438 297.509 180.275L297.595 176.249C297.595 175.087 298.546 174.193 299.666 174.193L303.549 174.282C304.669 174.282 305.531 175.266 305.531 176.429L305.444 180.454C305.444 181.618 304.497 182.511 303.377 182.511Z" stroke="#000000" stroke-width="0.874352" stroke-miterlimit="8" fill="#D6DBD9" fill-rule="evenodd" transform="matrix(1 0 0 1.001 -9.2699 249.902)"/><path d="M303.294 193.498 299.268 193.409C298.106 193.409 297.212 192.426 297.212 191.264L297.301 187.241C297.301 186.079 298.285 185.185 299.449 185.185L303.472 185.275C304.636 185.275 305.531 186.257 305.531 187.42L305.441 191.442C305.352 192.604 304.458 193.587 303.294 193.498Z" stroke="#000000" stroke-width="0.874352" stroke-miterlimit="8" fill="#D6DBD9" fill-rule="evenodd" transform="matrix(1 0 0 1.001 -9.2699 249.902)"/><path d="M303.594 204.2 299.568 204.114C298.403 204.114 297.509 203.165 297.509 202.044L297.598 198.163C297.598 197.041 298.582 196.179 299.746 196.179L303.772 196.265C304.933 196.265 305.828 197.214 305.828 198.335L305.739 202.217C305.739 203.338 304.755 204.2 303.594 204.2Z" stroke="#000000" stroke-width="0.874352" stroke-miterlimit="8" fill="#D6DBD9" fill-rule="evenodd" transform="matrix(1 0 0 1.001 -9.2699 249.902)"/><path d="M293.526 215.786 275.472 215.609C274.327 215.609 273.446 214.636 273.446 213.484L273.535 209.503C273.535 208.352 274.503 207.467 275.648 207.467L293.703 207.645C294.847 207.645 295.727 208.618 295.727 209.768L295.64 213.75C295.64 214.9 294.671 215.786 293.526 215.786L293.526 215.786Z" stroke="#000000" stroke-width="0.874352" stroke-miterlimit="8" fill="#D6DBD9" fill-rule="evenodd" transform="matrix(1 0 0 1.001 -9.2699 249.902)"/><path d="M303.463 215.785 299.494 215.696C298.371 215.696 297.509 214.712 297.509 213.549L297.595 209.524C297.595 208.362 298.546 207.467 299.666 207.467L303.549 207.557C304.669 207.557 305.531 208.541 305.531 209.703L305.444 213.728C305.444 214.89 304.497 215.785 303.463 215.785Z" stroke="#000000" stroke-width="0.874352" stroke-miterlimit="8" fill="#D6DBD9" fill-rule="evenodd" transform="matrix(1 0 0 1.001 -9.2699 249.902)"/><path d="M291.491 182.511 287.611 182.422C286.49 182.422 285.627 181.438 285.627 180.275L285.713 176.249C285.713 175.087 286.662 174.193 287.783 174.193L291.664 174.282C292.785 174.282 293.648 175.266 293.648 176.429L293.561 180.454C293.475 181.527 292.613 182.511 291.491 182.511Z" stroke="#000000" stroke-width="0.874352" stroke-miterlimit="8" fill="#D6DBD9" fill-rule="evenodd" transform="matrix(1 0 0 1.001 -9.2699 249.902)"/><path d="M291.195 193.503 287.313 193.414C286.192 193.414 285.33 192.43 285.33 191.268L285.416 187.242C285.416 186.08 286.365 185.185 287.486 185.185L291.367 185.275C292.489 185.275 293.351 186.258 293.351 187.422L293.265 191.446C293.265 192.609 292.316 193.503 291.195 193.503Z" stroke="#000000" stroke-width="0.874352" stroke-miterlimit="8" fill="#D6DBD9" fill-rule="evenodd" transform="matrix(1 0 0 1.001 -9.2699 249.902)"/><path d="M291.492 204.2 287.611 204.114C286.49 204.114 285.627 203.165 285.627 202.044L285.714 198.163C285.714 197.041 286.662 196.179 287.783 196.179L291.664 196.265C292.785 196.265 293.648 197.214 293.648 198.335L293.562 202.217C293.562 203.338 292.613 204.2 291.492 204.2Z" stroke="#000000" stroke-width="0.874352" stroke-miterlimit="8" fill="#D6DBD9" fill-rule="evenodd" transform="matrix(1 0 0 1.001 -9.2699 249.902)"/><path d="M278.718 182.513 274.836 182.426C273.715 182.426 272.852 181.478 272.852 180.356L272.939 176.476C272.939 175.355 273.887 174.492 275.009 174.492L278.89 174.578C280.01 174.578 280.874 175.527 280.874 176.648L280.787 180.529C280.787 181.65 279.838 182.513 278.718 182.513Z" stroke="#000000" stroke-width="0.874352" stroke-miterlimit="8" fill="#D6DBD9" fill-rule="evenodd" transform="matrix(1 0 0 1.001 -9.2699 249.902)"/><path d="M278.717 193.8 274.836 193.71C273.715 193.71 272.852 192.727 272.852 191.564L272.938 187.539C272.938 186.377 273.887 185.482 275.008 185.482L278.89 185.571C280.01 185.571 280.874 186.555 280.874 187.718L280.786 191.743C280.701 192.906 279.838 193.8 278.717 193.8Z" stroke="#000000" stroke-width="0.874352" stroke-miterlimit="8" fill="#D6DBD9" fill-rule="evenodd" transform="matrix(1 0 0 1.001 -9.2699 249.902)"/><path d="M279.014 204.497 275.133 204.412C274.011 204.412 273.149 203.462 273.149 202.341L273.235 198.459C273.235 197.338 274.184 196.476 275.305 196.476L279.187 196.562C280.308 196.562 281.17 197.511 281.17 198.632L281.084 202.513C281.084 203.549 280.135 204.497 279.014 204.497Z" stroke="#000000" stroke-width="0.874352" stroke-miterlimit="8" fill="#D6DBD9" fill-rule="evenodd" transform="matrix(1 0 0 1.001 -9.2699 249.902)"/></g></svg>