<svg width="308" height="256" xmlns="http://www.w3.org/2000/svg" xmlns:xlink="http://www.w3.org/1999/xlink" overflow="hidden"><defs><clipPath id="clip0"><rect x="546" y="96" width="308" height="256"/></clipPath></defs><g clip-path="url(#clip0)" transform="translate(-546 -96)"><path d="M196.008 389.878C196.008 392.616 193.788 394.836 191.05 394.836 188.312 394.836 186.092 392.616 186.092 389.878 186.092 387.14 188.312 384.92 191.05 384.92 193.788 384.92 196.008 387.14 196.008 389.878Z" fill="#FFFFFF" transform="matrix(1.00076 0 0 1 418.571 14.2863)"/><path d="" stroke="#000000" stroke-width="5.12885" stroke-miterlimit="10" fill="none" transform="matrix(1.00076 0 0 1 418.571 14.2863)"/><path d="" stroke="#000000" stroke-width="4.27404" stroke-miterlimit="10" fill="none" transform="matrix(1.00076 0 0 1 418.571 14.2863)"/><path d="M172.586 280.805 277.129 254.22 359.447 323.973 332.948 218.831 402.444 137.966 297.901 163.268 215.754 93.1742C224.644 126.512 233.534 159.764 242.338 193.101 219.088 222.336 195.837 251.57 172.586 280.805Z" stroke="#231815" stroke-width="4.27404" stroke-miterlimit="10" fill="#C7BFB5" transform="matrix(1.00076 0 0 1 418.571 14.2863)"/><path d="M307.43 207.257C307.43 214.955 299.237 221.195 289.131 221.195 279.024 221.195 270.831 214.955 270.831 207.257 270.831 199.559 279.024 193.319 289.131 193.319 299.237 193.319 307.43 199.559 307.43 207.257Z" stroke="#231815" stroke-width="4.27544" stroke-miterlimit="9.9999" fill="#C7BFB5" transform="matrix(0.688382 -0.725349 0.725897 0.687862 358.337 288.629)"/><path d="M298.28 207.257C298.28 211.129 294.184 214.269 289.131 214.269 284.077 214.269 279.981 211.129 279.981 207.257 279.981 203.384 284.077 200.245 289.131 200.245 294.184 200.245 298.28 203.384 298.28 207.257Z" stroke="#231815" stroke-width="4.27544" stroke-miterlimit="9.9999" fill="#C7BFB5" transform="matrix(0.688382 -0.725349 0.725897 0.687862 358.337 288.629)"/><path d="M235.243 123.776 250.544 183.1 281.916 166.944Z" stroke="#231815" stroke-width="1.70962" stroke-miterlimit="10" fill="#76C17F" transform="matrix(1.00076 0 0 1 418.571 14.2863)"/><path d="M205.496 257.212 264.991 242.424 249.091 210.881Z" stroke="#231815" stroke-width="1.70962" stroke-miterlimit="10" fill="#76C17F" transform="matrix(1.00076 0 0 1 418.571 14.2863)"/><path d="M337.991 290.635 322.947 231.226 291.49 247.211Z" stroke="#231815" stroke-width="1.70962" stroke-miterlimit="10" fill="#76C17F" transform="matrix(1.00076 0 0 1 418.571 14.2863)"/><path d="M366.969 157.114 309.099 177.287 327.734 207.291Z" stroke="#231815" stroke-width="1.70962" stroke-miterlimit="10" fill="#76C17F" transform="matrix(1.00076 0 0 1 418.571 14.2863)"/><path d="M378.424 267.812C385.006 257.041 401.589 226.61 390.648 197.546 389.622 194.811 388.34 192.076 386.716 189.255" stroke="#231815" stroke-width="5.12885" stroke-miterlimit="10" fill="none" transform="matrix(1.00076 0 0 1 418.571 14.2863)"/><path d="M409.539 280.035C412.873 265.931 421.164 226.011 415.608 187.887 415.095 184.382 414.497 180.707 413.642 177.031" stroke="#231815" stroke-width="5.12885" stroke-miterlimit="10" fill="none" transform="matrix(1.00076 0 0 1 418.571 14.2863)"/><path d="M176.176 242.937C171.646 231.14 160.961 198.23 177.031 171.646 178.484 169.167 180.279 166.688 182.416 164.209" stroke="#231815" stroke-width="5.12885" stroke-miterlimit="10" fill="none" transform="matrix(1.00076 0 0 1 418.571 14.2863)"/><path d="M143.351 249.177C142.668 234.645 141.898 193.956 154.208 157.456 155.319 154.037 156.686 150.617 158.14 147.113" stroke="#231815" stroke-width="5.12885" stroke-miterlimit="10" fill="none" transform="matrix(1.00076 0 0 1 418.571 14.2863)"/></g></svg>