<?xml version="1.0" encoding="utf-8"?>
<!-- Generator: Adobe Illustrator 27.0.0, SVG Export Plug-In . SVG Version: 6.00 Build 0)  -->
<svg version="1.1" id="a" xmlns="http://www.w3.org/2000/svg" xmlns:xlink="http://www.w3.org/1999/xlink" x="0px" y="0px"
	 viewBox="0 0 595.2 841.9" style="enable-background:new 0 0 595.2 841.9;" xml:space="preserve">
<style type="text/css">
	.st0{fill:#FFFFFF;}
	.st1{fill:#EBE2B3;stroke:#000000;stroke-width:6;stroke-miterlimit:10;}
	.st2{fill:#EBE2B3;stroke:#000000;stroke-width:5;stroke-miterlimit:10;}
	.st3{fill:#C7BFB5;stroke:#231815;stroke-width:5;stroke-miterlimit:10;}
	.st4{fill:#76C17F;stroke:#231815;stroke-width:2;stroke-miterlimit:10;}
	.st5{fill:none;stroke:#231815;stroke-width:6;stroke-miterlimit:10;}
</style>
<circle class="st0" cx="223.5" cy="456.1" r="5.8"/>
<path class="st1" d="M261.4,669.9"/>
<path class="st2" d="M131.7,438.4"/>
<path class="st3" d="M201.9,328.5l122.3-31.1l96.3,81.6l-31-123l81.3-94.6L348.5,191l-96.1-82c10.4,39,20.8,77.9,31.1,116.9
	C256.3,260.1,229.1,294.3,201.9,328.5z"/>
<ellipse transform="matrix(0.6881 -0.7256 0.7256 0.6881 -70.4086 320.9057)" class="st3" cx="338.1" cy="242.4" rx="21.4" ry="16.3"/>
<ellipse transform="matrix(0.6881 -0.7256 0.7256 0.6881 -70.4086 320.9057)" class="st3" cx="338.1" cy="242.4" rx="10.7" ry="8.2"/>
<polygon class="st4" points="275.2,144.8 293.1,214.2 329.8,195.3 "/>
<polygon class="st4" points="240.4,300.9 310,283.6 291.4,246.7 "/>
<polygon class="st4" points="395.4,340 377.8,270.5 341,289.2 "/>
<polygon class="st4" points="429.3,183.8 361.6,207.4 383.4,242.5 "/>
<path class="st5" d="M442.7,313.3c7.7-12.6,27.1-48.2,14.3-82.2c-1.2-3.2-2.7-6.4-4.6-9.7"/>
<path class="st5" d="M479.1,327.6c3.9-16.5,13.6-63.2,7.1-107.8c-0.6-4.1-1.3-8.4-2.3-12.7"/>
<path class="st5" d="M206.1,284.2c-5.3-13.8-17.8-52.3,1-83.4c1.7-2.9,3.8-5.8,6.3-8.7"/>
<path class="st5" d="M167.7,291.5c-0.8-17-1.7-64.6,12.7-107.3c1.3-4,2.9-8,4.6-12.1"/>
</svg>
