<svg width="96" height="74" xmlns="http://www.w3.org/2000/svg" xmlns:xlink="http://www.w3.org/1999/xlink" overflow="hidden"><defs><clipPath id="clip0"><rect x="573" y="193" width="96" height="74"/></clipPath></defs><g clip-path="url(#clip0)" transform="translate(-573 -193)"><path d="M111.882 76.9763C106.674 75.2043 104.056 69.0508 106.036 63.2323 108.016 57.4139 113.843 54.1338 119.051 55.9059 112.358 58.4976 108.494 66.3927 110.42 73.5405 110.751 74.7665 111.242 75.9232 111.882 76.9763Z" stroke="#000000" stroke-width="0.546036" stroke-miterlimit="8" fill="#FBFBFB" fill-rule="evenodd" transform="matrix(1.00439 0 0 1 467.496 152.426)"/><path d="M112.608 59.7569C112.893 59.7127 113.157 59.7485 113.386 59.8757L113.547 60.065 112.123 61.968C111.577 62.8842 111.12 63.8681 110.768 64.9044 110.415 65.9407 110.177 66.9989 110.051 68.0581L110.022 70.2299 109.736 70.3456C109.453 70.3899 109.187 70.3545 108.958 70.2271 108.045 69.7179 108.065 67.9382 109.005 66.2519L109.554 65.4771 109.474 65.3837C109.139 64.5894 109.326 63.2721 110.031 62.0074 110.735 60.7426 111.756 59.8896 112.608 59.7569Z" fill="#404040" fill-rule="evenodd" transform="matrix(1.00439 0 0 1 467.496 152.426)"/><path d="M121.574 82.5478 123.563 82.3735C124.993 82.2482 126.255 83.3068 126.379 84.7365L127.923 102.379 127.983 102.517C128.68 103.739 129.751 104.738 131.047 105.395L131.445 105.552 131.827 105.595C132.627 105.854 133.236 106.571 133.314 107.462 133.418 108.65 132.539 109.698 131.351 109.801L123.573 110.482C122.385 110.586 121.338 109.707 121.233 108.519L121.267 108.225 121.187 107.956 119.211 85.3641C119.086 83.9338 120.143 82.673 121.574 82.5478Z" stroke="#000000" stroke-width="0.624042" stroke-miterlimit="8" fill="#FFFFFF" fill-rule="evenodd" transform="matrix(1.00439 0 0 1 467.496 152.426)"/><path d="M119.864 93.242 120.354 93.3714C121.736 93.8867 122.851 94.7894 123.491 96.0468 124.771 98.5602 123.793 101.775 121.302 104.204L120.856 104.577Z" stroke="#000000" stroke-width="0.312021" stroke-miterlimit="8" fill="#404040" fill-rule="evenodd" transform="matrix(1.00439 0 0 1 467.496 152.426)"/><path d="M170.446 83.2354 172.435 83.0611C173.865 82.9358 175.126 83.9937 175.251 85.424L176.795 103.066 176.855 103.204C177.551 104.426 178.623 105.425 179.919 106.083L180.316 106.24 180.698 106.283C181.499 106.542 182.107 107.258 182.186 108.15 182.289 109.338 181.41 110.385 180.222 110.489L172.445 111.17C171.257 111.274 170.209 110.395 170.105 109.207L170.138 108.913 170.059 108.643 168.082 86.0517C167.957 84.6214 169.015 83.3606 170.446 83.2354Z" stroke="#000000" stroke-width="0.624042" stroke-miterlimit="8" fill="#FFFFFF" fill-rule="evenodd" transform="matrix(1.00439 0 0 1 467.496 152.426)"/><path d="M175.528 60.8808C176.215 60.9455 176.879 61.1149 177.511 61.3964 182.572 63.648 183.675 72.2177 179.974 80.5368 177.198 86.7767 172.508 91.1037 168.202 91.9268L167.894 91.9438 167.219 92.1528C166.451 92.3101 165.656 92.3924 164.842 92.3924L119.081 92.3924C113.381 92.3924 108.625 88.3493 107.525 82.9739L107.286 80.5967 107.525 78.2187C107.839 76.6836 108.452 75.256 109.3 74.0014L109.984 73.1729 110.21 72.5554C113.218 68.5096 126.225 65.4662 141.815 65.4662 150.167 65.4662 157.777 66.3395 163.507 67.7726L164.181 67.9871 164.975 66.8402C168.139 62.8505 172.099 60.5572 175.528 60.8808Z" stroke="#000000" stroke-width="0.624042" stroke-miterlimit="8" fill="#FBFBFB" fill-rule="evenodd" transform="matrix(1.00439 0 0 1 467.496 152.426)"/><path d="M181.691 73.3873 181.834 73.4009 181.785 73.8931C181.447 75.9014 180.823 77.9961 179.898 80.0752 179.551 80.8554 179.175 81.6049 178.772 82.3218L177.594 84.2116 177.171 83.8766C176.014 82.7649 175.299 81.2284 175.299 79.532 175.299 76.1383 178.161 73.3873 181.691 73.3873Z" fill="#404040" fill-rule="evenodd" transform="matrix(1.00439 0 0 1 467.496 152.426)"/><path d="M164.705 75.5025C167.437 75.5025 169.652 76.9777 169.652 78.7974 169.652 80.6171 167.437 82.0923 164.705 82.0923 164.364 82.0923 164.03 82.0692 163.708 82.0256L162.925 81.8636 162.804 82.4021C162.686 82.7255 162.521 83.0577 162.308 83.3804 161.46 84.6732 160.184 85.3355 159.461 84.8604 158.737 84.3845 158.839 82.9515 159.688 81.6594 159.901 81.336 160.139 81.0521 160.389 80.8159L160.617 80.6505 160.603 80.6396C160.07 80.114 159.758 79.4795 159.758 78.7974 159.758 76.9777 161.973 75.5025 164.705 75.5025Z" fill="#404040" fill-rule="evenodd" transform="matrix(1.00439 0 0 1 467.496 152.426)"/><path d="M148.033 72.7991C148.493 71.394 150.503 70.7902 152.523 71.4512 154.544 72.1122 155.808 73.7876 155.348 75.1927 154.889 76.5978 152.878 77.2017 150.858 76.5406 148.838 75.8796 147.573 74.2042 148.033 72.7991Z" fill="#404040" fill-rule="evenodd" transform="matrix(1.00439 0 0 1 467.496 152.426)"/><path d="M119.477 68.1658 119.336 69.0903C118.839 70.4661 117.8 71.7126 116.335 72.5023L116.235 72.5452 116.806 74.0374C117.23 75.8537 116.82 77.5094 115.644 78.1432 114.469 78.7777 112.86 78.2106 111.575 76.8586L111.176 76.3766 110.813 76.653C110.182 76.9934 109.435 77.0104 108.672 76.7612L108.002 76.4664 108.077 76.2248C108.376 75.5195 108.741 74.8489 109.165 74.2212L109.848 73.3927 110.074 72.7753C111.203 71.2585 113.737 69.882 117.286 68.7546Z" fill="#404040" fill-rule="evenodd" transform="matrix(1.00439 0 0 1 467.496 152.426)"/><path d="M132.615 82.4382C134.267 82.5519 135.725 83.2224 136.745 84.2157L137.252 84.9516 139.327 84.7773C140.081 84.7528 140.859 84.7657 141.652 84.8202 148.003 85.2552 152.977 88.156 152.762 91.2978L152.488 92.2876 130.426 92.2876 128.866 91.6463C127.199 90.6374 126.155 88.9464 126.281 87.1062 126.474 84.3014 129.309 82.2122 132.615 82.4382Z" fill="#404040" fill-rule="evenodd" transform="matrix(1.00439 0 0 1 467.496 152.426)"/><path d="M124.741 73.1688C125.362 73.4581 125.765 73.9857 125.807 74.4902L125.803 74.5147 126.473 74.5521C126.9 74.6338 127.345 74.7768 127.786 74.9817 129.552 75.8034 130.59 77.3181 130.102 78.3644 129.616 79.4108 127.79 79.5932 126.024 78.7722 124.699 78.1554 123.785 77.1499 123.616 76.2438L123.708 75.3895 123.708 75.3895C122.879 75.0041 122.439 74.1947 122.724 73.5813 123.01 72.9679 123.912 72.7835 124.741 73.1688Z" fill="#404040" fill-rule="evenodd" transform="matrix(1.00439 0 0 1 467.496 152.426)"/><path d="M138.688 65.4223C140.776 65.4223 142.819 65.477 144.798 65.5815L146.162 65.6906 146.137 65.8028C145.067 68.0596 142.561 69.6431 139.641 69.6431 136.722 69.6431 134.216 68.0596 133.146 65.8028L133.091 65.5583Z" fill="#404040" fill-rule="evenodd" transform="matrix(1.00439 0 0 1 467.496 152.426)"/><path d="M116.678 85.1722 118.606 85.6895C119.994 86.0606 120.816 87.4861 120.445 88.8728L115.861 105.979 115.871 106.129C116.107 107.516 116.772 108.821 117.766 109.882L118.085 110.165 118.429 110.337C119.093 110.854 119.42 111.736 119.188 112.6 118.88 113.752 117.696 114.435 116.544 114.127L109.002 112.106C107.85 111.797 107.167 110.613 107.475 109.461L107.607 109.196 107.624 108.916 113.494 87.0109C113.865 85.6235 115.291 84.8011 116.678 85.1722Z" stroke="#000000" stroke-width="0.624042" stroke-miterlimit="8" fill="#FFFFFF" fill-rule="evenodd" transform="matrix(1.00439 0 0 1 467.496 152.426)"/><path d="M114.345 100.975C114.855 101.193 115.52 101.786 116.247 102.65L116.682 103.226 116.038 105.627 116.048 105.778C116.284 107.165 116.95 108.469 117.943 109.53L118.262 109.814 118.607 109.985C118.938 110.244 119.186 110.594 119.322 110.986L119.371 111.248 118.908 111.659C118.23 112.057 117.298 112.277 116.144 112.321L114.678 112.238 114.422 111.11C114.264 109.539 114.577 108.342 115.401 107.891L115.462 107.875 114.429 105.748C113.383 103.264 113.047 101.303 113.709 100.941 113.874 100.85 114.09 100.866 114.345 100.975Z" fill="#404040" fill-rule="evenodd" transform="matrix(1.00439 0 0 1 467.496 152.426)"/><path d="M166.789 85.1722 168.718 85.6895C170.105 86.0606 170.928 87.4861 170.556 88.8728L165.973 105.979 165.983 106.129C166.218 107.516 166.884 108.821 167.877 109.882L168.196 110.165 168.541 110.337C169.205 110.854 169.531 111.736 169.3 112.6 168.991 113.752 167.807 114.435 166.655 114.127L159.114 112.106C157.962 111.797 157.278 110.613 157.587 109.461L157.718 109.196 157.736 108.916 163.605 87.0109C163.977 85.6235 165.403 84.8011 166.789 85.1722Z" stroke="#000000" stroke-width="0.624042" stroke-miterlimit="8" fill="#FFFFFF" fill-rule="evenodd" transform="matrix(1.00439 0 0 1 467.496 152.426)"/><path d="M168.635 94.9991 168.733 95.0679 165.823 105.926 165.019 106.062C164.157 106.039 163.305 105.689 162.665 105.015L161.398 103.681C160.118 102.334 160.172 100.204 161.52 98.9238L164.972 95.6452C165.982 94.6846 167.433 94.4756 168.635 94.9991Z" fill="#404040" fill-rule="evenodd" transform="matrix(1.00439 0 0 1 467.496 152.426)"/><path d="M108.651 84.1095C108.651 81.5341 112.08 79.4462 116.31 79.4462 120.54 79.4462 123.969 81.5341 123.969 84.1095 123.969 86.6848 120.54 88.7728 116.31 88.7728 112.08 88.7728 108.651 86.6848 108.651 84.1095Z" fill="#FBFBFB" fill-rule="evenodd" transform="matrix(1.00439 0 0 1 467.496 152.426)"/><path d="M157.395 86.356C157.395 85.134 160.839 84.1435 165.087 84.1435 169.336 84.1435 172.78 85.134 172.78 86.356 172.78 87.578 169.336 88.5685 165.087 88.5685 160.839 88.5685 157.395 87.578 157.395 86.356Z" fill="#FBFBFB" fill-rule="evenodd" transform="matrix(1.00439 0 0 1 467.496 152.426)"/><path d="M185.807 53.8275C182.109 48.7356 180.932 43.2841 183.18 41.6515 185.428 40.0189 190.249 42.8233 193.947 47.9152 197.645 53.0073 198.821 58.4586 196.574 60.0913 194.326 61.724 189.505 58.9196 185.807 53.8275Z" stroke="#000000" stroke-width="0.312021" stroke-miterlimit="8" fill="#404040" fill-rule="evenodd" transform="matrix(1.00439 0 0 1 467.496 152.426)"/><path d="M189.902 52.9982C189.902 51.795 190.892 50.8197 192.114 50.8197 193.336 50.8197 194.327 51.795 194.327 52.9982 194.327 54.2013 193.336 55.1766 192.114 55.1766 190.892 55.1766 189.902 54.2013 189.902 52.9982Z" stroke="#0D0D0D" stroke-width="0.312021" stroke-miterlimit="8" fill-rule="evenodd" transform="matrix(1.00439 0 0 1 467.496 152.426)"/><path d="M191.978 52.6918C191.978 52.391 192.222 52.1472 192.523 52.1472 192.823 52.1472 193.067 52.391 193.067 52.6918 193.067 52.9926 192.823 53.2364 192.523 53.2364 192.222 53.2364 191.978 52.9926 191.978 52.6918Z" fill="#FFFFFF" fill-rule="evenodd" transform="matrix(1.00439 0 0 1 467.496 152.426)"/><path d="M178.738 41.1973C179.518 41.159 180.314 41.1984 181.116 41.322 186.029 42.0786 189.76 45.7747 190.795 50.3455L190.92 51.2561 191.809 53.0633C192.25 53.7578 192.745 54.3709 193.264 54.8848L193.564 55.1161 194.51 55.4644C198.517 57.4218 200.735 61.9867 199.577 66.4739 198.419 70.961 194.271 73.8836 189.816 73.6576L189.778 73.6521 189.645 73.7325C186.925 74.8693 182.056 74.2941 177.13 72.0101L175.526 71.1734 174.175 70.8242C169.048 68.9255 165.787 63.6275 166.652 58.013L167.708 51.1506C168.574 45.5361 173.278 41.4652 178.738 41.1973Z" stroke="#000000" stroke-width="0.546036" stroke-miterlimit="8" fill="#FBFBFB" fill-rule="evenodd" transform="matrix(1.00439 0 0 1 467.496 152.426)"/><path d="M168.181 58.8062C166.772 55.3186 169.473 50.9394 174.212 49.025 178.952 47.1106 183.937 48.3858 185.345 51.8733 186.754 55.3608 184.054 59.74 179.313 61.6545 174.574 63.5689 169.59 62.2937 168.181 58.8062Z" fill="#404040" fill-rule="evenodd" transform="matrix(1.00439 0 0 1 467.496 152.426)"/><path d="M2.41414 31.7404 1.96246 31.4957 1.6145 30.6794C0.257177 26.6353-0.308607 21.8575 0.164853 16.8131 0.322673 15.1316 0.588485 13.5001 0.95007 11.9339L2.30723 7.45521 2.41414 7.63652C11.9569-11.111 49.174 7.63652 2.41414 31.7404Z" stroke="#000000" stroke-width="0.702362" stroke-miterlimit="8" fill="#FBFBFB" fill-rule="evenodd" transform="matrix(0.32037 0.947292 0.95145 -0.31897 615.178 201.674)"/><path d="M0 16.0699 0.547019 16.4694C1.2466 16.7922 2.01788 16.9754 2.82972 16.9853 6.07705 17.025 8.74354 14.2778 8.7855 10.8491 8.79598 9.99196 8.64145 9.17337 8.35301 8.42698L8.03359 7.78656 8.48732 7.02627C8.71684 6.41903 8.84781 5.74992 8.85646 5.04599 8.88657 2.58226 7.40754 0.508305 5.4138 0.00845538L5.34852 0 4.46476 0.877807C3.67939 1.76445 2.97484 2.78971 2.37842 3.96141L2.27152 3.78015 0.914361 8.25882C0.55277 9.82502 0.286967 11.4565 0.129141 13.138Z" fill="#404040" fill-rule="evenodd" transform="matrix(0.32037 0.947292 0.95145 -0.31897 618.902 200.292)"/><path d="M159.05 57.0488C159.736 57.0488 160.325 57.576 160.576 58.3275L160.583 58.369 161.206 57.9436C161.628 57.7627 162.092 57.6627 162.579 57.6627 164.528 57.6627 166.109 59.2626 166.109 61.2361 166.109 63.2097 164.528 64.8096 162.579 64.8096 161.118 64.8096 159.863 63.9097 159.327 62.6271L159.05 61.2362 159.05 61.2362C158.136 61.2362 157.395 60.2988 157.395 59.1425 157.395 57.9862 158.136 57.0488 159.05 57.0488Z" fill="#404040" fill-rule="evenodd" transform="matrix(1.00439 0 0 1 467.496 152.426)"/><path d="M192.727 62.6992C192.727 61.0448 194.495 59.7038 196.675 59.7038 198.856 59.7038 200.624 61.0448 200.624 62.6992 200.624 64.3534 198.856 65.6946 196.675 65.6946 194.495 65.6946 192.727 64.3534 192.727 62.6992Z" fill-rule="evenodd" transform="matrix(1.00439 0 0 1 467.496 152.426)"/><path d="M177.784 55.3809C177.784 54.1777 178.759 53.2024 179.962 53.2024 181.165 53.2024 182.141 54.1777 182.141 55.3809 182.141 56.584 181.165 57.5593 179.962 57.5593 178.759 57.5593 177.784 56.584 177.784 55.3809Z" stroke="#0D0D0D" stroke-width="0.312021" stroke-miterlimit="8" fill-rule="evenodd" transform="matrix(1.00439 0 0 1 467.496 152.426)"/><path d="M179.792 55.1086C179.792 54.789 180.036 54.5299 180.337 54.5299 180.638 54.5299 180.881 54.789 180.881 55.1086 180.881 55.4282 180.638 55.6872 180.337 55.6872 180.036 55.6872 179.792 55.4282 179.792 55.1086Z" fill="#FFFFFF" fill-rule="evenodd" transform="matrix(1.00439 0 0 1 467.496 152.426)"/><path d="M197.288 70.6268C195.033 70.9304 192.777 71.234 190.304 70.7527 187.831 70.2707 185.139 69.0038 182.447 67.7369" stroke="#000000" stroke-width="0.702047" stroke-linecap="round" stroke-miterlimit="8" fill="none" fill-rule="evenodd" transform="matrix(1.00439 0 0 1 467.496 152.426)"/></g></svg>