<svg width="650" height="512" xmlns="http://www.w3.org/2000/svg" xmlns:xlink="http://www.w3.org/1999/xlink" xml:space="preserve" overflow="hidden"><g transform="translate(-54 -1263)"><path d="M503.5 1658.5 631.5 1658.5 605.9 1772.5 529.1 1772.5Z" stroke="#FFC000" stroke-width="4.58333" stroke-miterlimit="8" fill="#A5A5A5" fill-rule="evenodd"/><path d="M265.5 1658.5 393.5 1658.5 367.9 1772.5 291.1 1772.5Z" stroke="#FFC000" stroke-width="4.58333" stroke-miterlimit="8" fill="#A5A5A5" fill-rule="evenodd"/><path d="M227.5 1584C227.5 1493.15 333.609 1419.5 464.5 1419.5 595.392 1419.5 701.5 1493.15 701.5 1584 701.5 1674.85 595.392 1748.5 464.5 1748.5 333.609 1748.5 227.5 1674.85 227.5 1584Z" stroke="#A5A5A5" stroke-width="4.58333" stroke-miterlimit="8" fill="#A5A5A5" fill-rule="evenodd"/><path d="M329.5 1475.5 384.761 1343.5 425.5 1475.5Z" stroke="#A5A5A5" stroke-width="4.58333" stroke-miterlimit="8" fill="#A5A5A5" fill-rule="evenodd"/><path d="M425.282 1442.6 501.316 1321.97 519.78 1460.03Z" stroke="#A5A5A5" stroke-width="4.58333" stroke-miterlimit="8" fill="#A5A5A5" fill-rule="evenodd"/><path d="M507.362 1468.6 626.462 1368.25 598.683 1498.5Z" stroke="#A5A5A5" stroke-width="4.58333" stroke-miterlimit="8" fill="#A5A5A5" fill-rule="evenodd"/><path d="M128.891 1514.34C142.83 1464.82 195.182 1437.1 245.823 1452.43 296.463 1467.76 326.215 1520.34 312.275 1569.87 298.336 1619.39 245.984 1647.11 195.344 1631.78 167.797 1623.44 145.118 1603.43 133.58 1577.28L220.583 1542.1Z" stroke="#A5A5A5" stroke-width="4.58333" stroke-miterlimit="8" fill="#A5A5A5" fill-rule="evenodd"/><path d="M178.5 1495C178.5 1491.41 180.962 1488.5 184 1488.5 187.037 1488.5 189.5 1491.41 189.5 1495 189.5 1498.59 187.037 1501.5 184 1501.5 180.962 1501.5 178.5 1498.59 178.5 1495Z" stroke="#000000" stroke-width="4.58333" stroke-miterlimit="8" fill-rule="evenodd"/><path d="M266.5 1658.5 394.5 1658.5 368.9 1772.5 292.1 1772.5Z" stroke="#A5A5A5" stroke-width="4.58333" stroke-miterlimit="8" fill="#A5A5A5" fill-rule="evenodd"/><path d="M504.5 1658.5 631.5 1658.5 606.1 1772.5 529.9 1772.5Z" stroke="#A5A5A5" stroke-width="4.58333" stroke-miterlimit="8" fill="#A5A5A5" fill-rule="evenodd"/><path d="M173.812 1282.46C171.534 1282.06 169.283 1281.4 166.978 1281.25 119.565 1278.2 141.236 1277.73 83.8347 1304.21 79.6585 1321.93 64.1037 1340.78 71.3062 1357.38 90.1182 1400.71 136.649 1397.38 170.395 1400.88 182.544 1392.42 202.129 1390.08 206.841 1375.5 209.847 1366.2 192.983 1361.25 184.062 1358.58 162.669 1352.18 140.023 1352.14 118.003 1348.92 108.892 1350.53 96.1185 1345.84 90.6684 1353.75 85.6146 1361.09 89.8599 1374.42 96.3631 1380.33 110.295 1393 129.772 1396.44 146.477 1404.5 168.876 1400.88 194.08 1405.7 213.675 1393.63 222.594 1388.13 224.316 1368.81 217.092 1361 184.347 1325.61 128.606 1324.76 87.2515 1318.71 77.001 1322.33 56.4999 1318.12 56.4999 1329.58 56.4999 1344.96 73.6922 1356.77 87.2515 1362.21 120.541 1375.56 157.107 1376.71 192.035 1383.96 205.323 1377.51 231.638 1380.12 231.898 1364.63 232.811 1310.4 140.998 1302.67 119.142 1296.96 100.798 1308.08 74.5865 1316.5 123.698 1348.92 147.874 1364.88 178.368 1365.83 205.702 1374.29 237.593 1363.82 275.975 1365.86 301.374 1342.88 311.708 1333.52 294.017 1312.85 283.151 1304.21 272.012 1295.35 255.816 1298.57 242.149 1295.75 235.722 1301.48 194.636 1322.47 219.37 1342.88 226.024 1348.37 236.074 1345.29 244.427 1346.5 251.26 1330.79 271.023 1315.42 264.928 1299.38 237.18 1226.32 137.441 1292.8 112.308 1301.79 116.105 1315.49 112.642 1334.74 123.698 1342.88 173.483 1379.51 187.149 1349.85 218.231 1321.13 199.839 1302.24 178.639 1264.18 144.199 1283.67 130.126 1291.63 124.457 1310.25 114.586 1323.54 120.281 1334.42 120.774 1351.57 131.671 1356.17 205.163 1387.17 203.907 1369.13 243.288 1325.96 237.593 1319.11 234.623 1307.31 226.203 1305.42 194.867 1298.36 207.579 1323.97 210.258 1333.21 225.096 1327.41 253.485 1322.92 243.288 1292.13 240.131 1282.59 225.824 1284.07 217.092 1280.04 203.398 1284.14 142.422 1292.17 147.616 1328.38 149.536 1341.76 169.636 1342.07 180.645 1348.92 206.464 1342.55 260.404 1342.56 254.677 1290.92 253.308 1278.57 233.417 1280.44 222.787 1275.21 215.965 1279.51 160.148 1301.14 181.784 1330.79 188.358 1339.8 203.045 1334.01 213.675 1335.63 230 1323.14 251.801 1316.15 262.65 1298.17 267.143 1290.72 257.454 1279.41 250.121 1275.21 241.432 1270.23 230.38 1274.4 220.509 1274L210.258 1284.88" stroke="#172C51" stroke-width="4.58333" stroke-miterlimit="8" fill="none" fill-rule="evenodd"/></g></svg>