<svg width="654" height="531" xmlns="http://www.w3.org/2000/svg" xmlns:xlink="http://www.w3.org/1999/xlink" xml:space="preserve" overflow="hidden"><g transform="translate(-2270 -1260)"><path d="M2715.42 1675.54 2837.08 1636.28 2847.71 1752.49 2774.72 1776.05Z" stroke="#767171" stroke-width="4.58333" stroke-miterlimit="8" fill="#767171" fill-rule="evenodd"/><path d="M2485.97 1669.85 2611.11 1643.78 2609.3 1760.45 2534.22 1776.1Z" stroke="#767171" stroke-width="4.58333" stroke-miterlimit="8" fill="#767171" fill-rule="evenodd"/><path d="M2447.5 1576C2447.5 1485.15 2553.61 1411.5 2684.5 1411.5 2815.39 1411.5 2921.5 1485.15 2921.5 1576 2921.5 1666.85 2815.39 1740.5 2684.5 1740.5 2553.61 1740.5 2447.5 1666.85 2447.5 1576Z" stroke="#A5A5A5" stroke-width="4.58333" stroke-miterlimit="8" fill="#A5A5A5" fill-rule="evenodd"/><path d="M2549.5 1468.5 2604.76 1335.5 2645.5 1468.5Z" stroke="#A5A5A5" stroke-width="4.58333" stroke-miterlimit="8" fill="#A5A5A5" fill-rule="evenodd"/><path d="M2645.39 1434.99 2721.42 1314.35 2739.89 1452.42Z" stroke="#A5A5A5" stroke-width="4.58333" stroke-miterlimit="8" fill="#A5A5A5" fill-rule="evenodd"/><path d="M2727.47 1460.98 2846.57 1360.63 2818.79 1490.88Z" stroke="#A5A5A5" stroke-width="4.58333" stroke-miterlimit="8" fill="#A5A5A5" fill-rule="evenodd"/><path d="M2349 1506.73C2362.94 1457.2 2415.29 1429.48 2465.93 1444.81 2516.57 1460.14 2546.32 1512.72 2532.38 1562.25 2518.44 1611.78 2466.09 1639.49 2415.45 1624.16 2387.9 1615.82 2365.23 1595.81 2353.69 1569.66L2440.69 1534.49Z" stroke="#A5A5A5" stroke-width="4.58333" stroke-miterlimit="8" fill="#A5A5A5" fill-rule="evenodd"/><path d="M2398.5 1487.5C2398.5 1483.63 2400.96 1480.5 2404 1480.5 2407.04 1480.5 2409.5 1483.63 2409.5 1487.5 2409.5 1491.37 2407.04 1494.5 2404 1494.5 2400.96 1494.5 2398.5 1491.37 2398.5 1487.5Z" stroke="#000000" stroke-width="4.58333" stroke-miterlimit="8" fill-rule="evenodd"/><path d="M2484.53 1643.78 2603.48 1690.61 2537.98 1787.18 2466.61 1759.08Z" stroke="#A5A5A5" stroke-width="4.58333" stroke-miterlimit="8" fill="#A5A5A5" fill-rule="evenodd"/><path d="M2725.2 1643.87 2844.2 1690.56 2778.81 1787.21 2707.41 1759.19Z" stroke="#A5A5A5" stroke-width="4.58333" stroke-miterlimit="8" fill="#A5A5A5" fill-rule="evenodd"/><path d="M2356.59 1306.68C2351.35 1306.27 2345.34 1303.28 2340.85 1305.44 2300.46 1324.92 2309.49 1345.67 2342.42 1376.99 2351.41 1385.54 2368.67 1385.22 2381.79 1389.33 2402.78 1384.81 2425.77 1384.09 2444.77 1375.76 2487.23 1357.16 2483.48 1337.58 2440.05 1321.48 2414.62 1312.06 2385.46 1310.79 2358.17 1305.44 2339.8 1305.85 2320.67 1302.57 2303.06 1306.68 2297.93 1307.87 2296.28 1315.93 2299.91 1319.01 2310.78 1328.24 2325.88 1334.27 2340.85 1338.75 2355.28 1343.07 2371.29 1342.86 2386.51 1344.92 2384.94 1342.04 2385.02 1338.12 2381.79 1336.28 2335.88 1310.24 2344.06 1318.31 2290.46 1330.12 2298.33 1343.69 2299.52 1361.23 2314.08 1370.83 2376.54 1412 2414.57 1391.66 2485.71 1380.7 2487.81 1369.18 2497.89 1356.83 2492.01 1346.15 2477.62 1320.04 2414.26 1323.16 2392.81 1321.48 2377.06 1325.59 2356.06 1323.74 2345.57 1333.82 2339.34 1339.81 2350.25 1350.18 2358.17 1354.79 2370.16 1361.77 2386.51 1362.19 2400.68 1365.89 2418 1363.43 2440.89 1368.76 2452.64 1358.49 2461.07 1351.13 2451.22 1336.54 2441.62 1330.12 2413.49 1311.3 2343.34 1313.08 2314.08 1311.61 2309.36 1315.72 2296.41 1319.15 2299.91 1323.95 2315.73 1345.64 2395.53 1338.58 2405.41 1338.75 2412.23 1333.82 2429.53 1330.64 2425.88 1323.95 2417.35 1308.36 2340.18 1311.7 2336.12 1311.61 2315.65 1319.84 2289.76 1322.65 2274.72 1336.28 2268.4 1342 2276.68 1354.64 2285.74 1357.26 2310.44 1364.39 2338.22 1360.55 2364.47 1362.19 2379.69 1354.38 2401.01 1351.09 2410.13 1338.75 2415.45 1331.55 2407.66 1320.25 2399.11 1315.31 2385.47 1307.44 2366.57 1307.91 2350.3 1304.21 2344.3 1306.2 2265.15 1321.91 2301.48 1351.09 2318.76 1364.96 2348.72 1362.6 2372.34 1368.36 2402.26 1361.78 2446.51 1369.68 2462.09 1348.62 2511.66 1281.62 2429.45 1282.66 2397.53 1279.54 2396.39 1280.31 2352.92 1301.5 2377.06 1312.85 2390.19 1319.01 2407.51 1315.31 2422.73 1316.55 2433.22 1309.97 2451.05 1307.04 2454.22 1296.81 2461.6 1272.97 2384.95 1263.88 2383.36 1263.5 2364.47 1270.08 2340.75 1271.37 2326.68 1283.24 2317.33 1291.13 2316.29 1305.51 2321.95 1315.31 2348.38 1361.03 2390.08 1350.23 2443.2 1353.56 2451.59 1341.22 2470.68 1330.41 2468.39 1316.55 2461.8 1276.73 2386.99 1283.79 2361.32 1282 2339.8 1291.05 2312.77 1294.69 2296.76 1309.14 2285.96 1318.9 2280.74 1336.16 2288.89 1347.39 2321.47 1392.25 2401.63 1384.52 2451.07 1388.1 2465.24 1381.93 2486.1 1380.86 2493.58 1369.59 2515.46 1336.63 2488.74 1323.69 2466.82 1305.44 2455.27 1314.9 2432.64 1320.73 2432.17 1333.82 2431.29 1358.68 2507.53 1347.57 2510.9 1347.39 2513.53 1342.04 2521.03 1336.8 2518.78 1331.35 2506.49 1301.67 2491.7 1301.64 2462.09 1291.87 2459.47 1293.93 2453.57 1295.18 2454.22 1298.04 2458.97 1319.16 2492.49 1318.59 2510.9 1322.71 2515.63 1322.3 2524.71 1325.19 2525.08 1321.48 2525.66 1315.57 2518.59 1310.18 2512.48 1306.68 2496.56 1297.55 2477.84 1291.87 2460.52 1284.47 2457.79 1284.6 2396.6 1280.56 2429.02 1309.14 2438.84 1317.8 2457.37 1315.72 2471.54 1319.01 2492.01 1315.72 2514.57 1316.93 2532.95 1309.14 2538.57 1306.77 2533.72 1298.29 2529.8 1294.34 2525.48 1289.99 2517.52 1288.82 2510.9 1286.94 2505.87 1285.51 2495.16 1284.47 2495.16 1284.47" stroke="#172C51" stroke-width="4.58333" stroke-miterlimit="8" fill="none" fill-rule="evenodd"/></g></svg>