<svg width="578" height="460" xmlns="http://www.w3.org/2000/svg" xmlns:xlink="http://www.w3.org/1999/xlink" xml:space="preserve" overflow="hidden"><g transform="translate(-126 -1315)"><path d="M503.5 1658.5 631.5 1658.5 605.9 1772.5 529.1 1772.5Z" stroke="#FFC000" stroke-width="4.58333" stroke-miterlimit="8" fill="#A5A5A5" fill-rule="evenodd"/><path d="M265.5 1658.5 393.5 1658.5 367.9 1772.5 291.1 1772.5Z" stroke="#FFC000" stroke-width="4.58333" stroke-miterlimit="8" fill="#A5A5A5" fill-rule="evenodd"/><path d="M227.5 1584C227.5 1493.15 333.609 1419.5 464.5 1419.5 595.392 1419.5 701.5 1493.15 701.5 1584 701.5 1674.85 595.392 1748.5 464.5 1748.5 333.609 1748.5 227.5 1674.85 227.5 1584Z" stroke="#A5A5A5" stroke-width="4.58333" stroke-miterlimit="8" fill="#A5A5A5" fill-rule="evenodd"/><path d="M329.5 1475.5 384.761 1343.5 425.5 1475.5Z" stroke="#A5A5A5" stroke-width="4.58333" stroke-miterlimit="8" fill="#A5A5A5" fill-rule="evenodd"/><path d="M425.282 1442.6 501.316 1321.97 519.78 1460.03Z" stroke="#A5A5A5" stroke-width="4.58333" stroke-miterlimit="8" fill="#A5A5A5" fill-rule="evenodd"/><path d="M507.362 1468.6 626.462 1368.25 598.683 1498.5Z" stroke="#A5A5A5" stroke-width="4.58333" stroke-miterlimit="8" fill="#A5A5A5" fill-rule="evenodd"/><path d="M128.891 1514.34C142.83 1464.82 195.182 1437.1 245.823 1452.43 296.463 1467.76 326.215 1520.34 312.275 1569.87 298.336 1619.39 245.984 1647.11 195.344 1631.78 167.797 1623.44 145.118 1603.43 133.58 1577.28L220.583 1542.1Z" stroke="#A5A5A5" stroke-width="4.58333" stroke-miterlimit="8" fill="#A5A5A5" fill-rule="evenodd"/><path d="M178.5 1495C178.5 1491.41 180.962 1488.5 184 1488.5 187.037 1488.5 189.5 1491.41 189.5 1495 189.5 1498.59 187.037 1501.5 184 1501.5 180.962 1501.5 178.5 1498.59 178.5 1495Z" stroke="#000000" stroke-width="4.58333" stroke-miterlimit="8" fill-rule="evenodd"/><path d="M266.5 1658.5 394.5 1658.5 368.9 1772.5 292.1 1772.5Z" stroke="#A5A5A5" stroke-width="4.58333" stroke-miterlimit="8" fill="#A5A5A5" fill-rule="evenodd"/><path d="M504.5 1658.5 631.5 1658.5 606.1 1772.5 529.9 1772.5Z" stroke="#A5A5A5" stroke-width="4.58333" stroke-miterlimit="8" fill="#A5A5A5" fill-rule="evenodd"/></g></svg>