<svg width="579" height="483" xmlns="http://www.w3.org/2000/svg" xmlns:xlink="http://www.w3.org/1999/xlink" xml:space="preserve" overflow="hidden"><g transform="translate(-1641 -1325)"><path d="M2012.8 1675.48 2139.88 1661.64 2126.79 1777.6 2050.54 1785.9Z" stroke="#767171" stroke-width="4.58333" stroke-miterlimit="8" fill="#767171" fill-rule="evenodd"/><path d="M1776.41 1673.82 1903.79 1663.05 1887.91 1778.65 1811.48 1785.11Z" stroke="#767171" stroke-width="4.58333" stroke-miterlimit="8" fill="#767171" fill-rule="evenodd"/><path d="M1743.5 1594C1743.5 1503.15 1849.61 1429.5 1980.5 1429.5 2111.39 1429.5 2217.5 1503.15 2217.5 1594 2217.5 1684.85 2111.39 1758.5 1980.5 1758.5 1849.61 1758.5 1743.5 1684.85 1743.5 1594Z" stroke="#A5A5A5" stroke-width="4.58333" stroke-miterlimit="8" fill="#A5A5A5" fill-rule="evenodd"/><path d="M1845.5 1485.5 1900.76 1353.5 1941.5 1485.5Z" stroke="#A5A5A5" stroke-width="4.58333" stroke-miterlimit="8" fill="#A5A5A5" fill-rule="evenodd"/><path d="M1940.99 1452.85 2017.02 1332.22 2035.49 1470.28Z" stroke="#A5A5A5" stroke-width="4.58333" stroke-miterlimit="8" fill="#A5A5A5" fill-rule="evenodd"/><path d="M2023.07 1478.85 2142.17 1378.5 2114.39 1508.75Z" stroke="#A5A5A5" stroke-width="4.58333" stroke-miterlimit="8" fill="#A5A5A5" fill-rule="evenodd"/><path d="M1644.6 1524.59C1658.54 1475.06 1710.89 1447.35 1761.53 1462.68 1812.17 1478.01 1841.92 1530.59 1827.98 1580.11 1814.04 1629.64 1761.69 1657.36 1711.05 1642.03 1683.5 1633.69 1660.82 1613.68 1649.29 1587.53L1736.29 1552.35Z" stroke="#A5A5A5" stroke-width="4.58333" stroke-miterlimit="8" fill="#A5A5A5" fill-rule="evenodd"/><path d="M1694.5 1505C1694.5 1501.41 1696.96 1498.5 1700 1498.5 1703.04 1498.5 1705.5 1501.41 1705.5 1505 1705.5 1508.59 1703.04 1511.5 1700 1511.5 1696.96 1511.5 1694.5 1508.59 1694.5 1505Z" stroke="#000000" stroke-width="4.58333" stroke-miterlimit="8" fill-rule="evenodd"/><path d="M1779.35 1668.51 1905.17 1691.06 1859.93 1798.62 1784.43 1785.09Z" stroke="#A5A5A5" stroke-width="4.58333" stroke-miterlimit="8" fill="#A5A5A5" fill-rule="evenodd"/><path d="M2017.15 1667.53 2140.35 1701.63 2085.34 1804.54 2011.42 1784.08Z" stroke="#A5A5A5" stroke-width="4.58333" stroke-miterlimit="8" fill="#A5A5A5" fill-rule="evenodd"/></g></svg>