<?xml version="1.0" encoding="UTF-8"?><svg id="b" xmlns="http://www.w3.org/2000/svg" width="647.27" height="647.91" viewBox="0 0 647.27 647.91"><g id="c"><g><path d="M66.27,647.91c0-6.94,.06-13.87-.03-20.81-.03-2.04,.43-3,2.75-2.99,14.94,.12,29.89,.11,44.83,.15,.48,7.88,.58,15.77-.05,23.65h-47.51Z" style="fill:#525252;"/><path d="M36.04,.05c-.04,7.94-.07,15.87-.11,23.81-7.94,.7-15.89,.22-23.84,.27-4.01,.02-8.05,.49-12.05-.32C.05,16.61,.12,9.41,0,2.21-.03,.4,.41-.01,2.21,0,13.49,.1,24.76,.05,36.04,.05Z" style="fill:#525252;"/><path d="M467.93,.05c-.04,7.94-.07,15.87-.11,23.81-8.11,.69-16.23,.2-24.35,.27-3.81,.03-7.63,.4-11.43-.27-.04-7.94-.07-15.87-.11-23.81,12,0,23.99,0,35.99,0Z" style="fill:#525252;"/><path d="M.05,23.8c11.96,.02,23.92,.03,35.88,.05-.87,1.28-2.17,.63-3.25,.63-10.88,.06-21.75,.03-32.63,.03v-.72Z"/><path d="M113.78,647.91c.02-7.88,.03-15.76,.05-23.65,1.28,.86,.62,2.17,.63,3.25,.07,6.8,.03,13.6,.04,20.4h-.72Z"/><path d="M113.83,215.89c-14.98,.03-29.96,.04-44.94,.14-2.07,.01-2.67-.76-2.64-2.74,.09-6.11,.09-12.23,0-18.34-.03-1.97,.57-2.75,2.64-2.74,14.98,.1,29.96,.1,44.94,.14,.51,7.85,.51,15.69,0,23.54Z" style="fill:#525252;"/><path d="M329.78,215.89c-14.98,.03-29.96,.04-44.94,.14-2.07,.01-2.67-.76-2.64-2.74,.09-6.11,.09-12.23,0-18.34-.03-1.97,.57-2.75,2.64-2.74,14.98,.1,29.96,.1,44.94,.14,.51,7.85,.51,15.69,0,23.54Z" style="fill:#525252;"/><path d="M599.7,552.06c-14.96,.03-29.91,.04-44.87,.13-1.98,.01-2.75-.6-2.72-2.66,.12-7.06,.1-14.12,.14-21.18,1.14-.56,2.35-.29,3.53-.3,13.62-.02,27.23,.05,40.85-.07,2.61-.02,3.58,.56,3.44,3.34-.36,6.9,.33,13.83-.37,20.73Z" style="fill:#525252;"/><path d="M545.72,431.85c-14.98,.03-29.96,.04-44.94,.14-2.07,.01-2.67-.76-2.64-2.74,.09-6.11,.09-12.23,0-18.34-.03-1.97,.57-2.75,2.64-2.74,14.98,.1,29.96,.1,44.94,.14,.51,7.85,.51,15.69,0,23.54Z" style="fill:#525252;"/><path d="M329.78,431.85c-14.98,.03-29.96,.04-44.94,.14-2.07,.01-2.67-.76-2.64-2.74,.09-6.11,.09-12.23,0-18.34-.03-1.97,.57-2.75,2.64-2.74,14.98,.1,29.96,.1,44.94,.14,.51,7.85,.51,15.69,0,23.54Z" style="fill:#525252;"/><path d="M167.82,336.11c-14.96,.03-29.91,.04-44.87,.13-1.98,.01-2.75-.6-2.72-2.66,.12-7.06,.1-14.12,.14-21.18,1.14-.56,2.35-.29,3.53-.3,13.62-.02,27.23,.05,40.85-.07,2.61-.02,3.58,.56,3.44,3.34-.36,6.9,.33,13.83-.37,20.73Z" style="fill:#525252;"/><path d="M545.72,215.89c-14.98,.03-29.96,.04-44.94,.14-2.07,.01-2.67-.76-2.64-2.74,.09-6.11,.09-12.23,0-18.34-.03-1.97,.57-2.75,2.64-2.74,14.98,.1,29.96,.1,44.94,.14,.51,7.85,.51,15.69,0,23.54Z" style="fill:#525252;"/><path d="M516.26,275.8c-.03-7.07-.01-14.14-.14-21.2-.04-2.09,.8-2.64,2.75-2.63,12.1,.06,24.2,.06,36.3,0,1.95,0,2.79,.53,2.75,2.63-.13,7.07-.1,14.14-.14,21.2-6.31,.68-12.65,.28-18.97,.27-7.52-.02-15.05,.42-22.56-.27Z" style="fill:#525252;"/><path d="M84.38,59.85c-.03-7.07-.01-14.14-.14-21.2-.04-2.09,.8-2.64,2.75-2.63,12.1,.06,24.2,.06,36.3,0,1.95,0,2.79,.53,2.75,2.63-.13,7.07-.1,14.14-.14,21.2-6.31,.68-12.65,.28-18.97,.27-7.52-.02-15.05,.42-22.56-.27Z" style="fill:#525252;"/><path d="M300.32,59.85c-.03-7.07-.01-14.14-.14-21.2-.04-2.09,.8-2.64,2.75-2.63,12.1,.06,24.2,.06,36.3,0,1.95,0,2.79,.53,2.75,2.63-.13,7.07-.1,14.14-.14,21.2-6.31,.68-12.65,.28-18.97,.27-7.52-.02-15.05,.42-22.56-.27Z" style="fill:#525252;"/><path d="M516.26,59.85c-.03-7.07-.01-14.14-.14-21.2-.04-2.09,.8-2.64,2.75-2.63,12.1,.06,24.2,.06,36.3,0,1.95,0,2.79,.53,2.75,2.63-.13,7.07-.1,14.14-.14,21.2-6.31,.68-12.65,.28-18.97,.27-7.52-.02-15.05,.42-22.56-.27Z" style="fill:#525252;"/><path d="M84.38,491.75c-.03-7.07-.01-14.14-.14-21.2-.04-2.09,.8-2.64,2.75-2.63,12.1,.06,24.2,.06,36.3,0,1.95,0,2.79,.53,2.75,2.63-.13,7.07-.1,14.14-.14,21.2-6.31,.68-12.65,.28-18.97,.27-7.52-.02-15.05,.42-22.56-.27Z" style="fill:#525252;"/><path d="M300.32,275.8c-.03-7.07-.01-14.14-.14-21.2-.04-2.09,.8-2.64,2.75-2.63,12.1,.06,24.2,.06,36.3,0,1.95,0,2.79,.53,2.75,2.63-.13,7.07-.1,14.14-.14,21.2-6.31,.68-12.65,.28-18.97,.27-7.52-.02-15.05,.42-22.56-.27Z" style="fill:#525252;"/><path d="M216.1,239.81c-.03-7.07-.01-14.14-.14-21.2-.04-2.09,.79-2.64,2.75-2.63,10.18,.07,20.37,.07,30.55,0,1.96-.01,2.79,.54,2.75,2.63-.13,7.07-.1,14.13-.14,21.2-8.11,.69-16.23,.2-24.35,.27-3.81,.03-7.63,.4-11.43-.27Z" style="fill:#525252;"/><path d="M214.61,107.92c-10.66,.03-21.33,.03-31.99,.14-2.08,.02-2.67-.77-2.64-2.74,.09-6.11,.09-12.22,0-18.33-.03-1.97,.56-2.76,2.64-2.74,10.66,.11,21.33,.1,31.99,.14,.51,7.85,.51,15.69,0,23.54Z" style="fill:#525252;"/><path d="M214.61,539.82c-10.66,.03-21.33,.03-31.99,.14-2.08,.02-2.67-.77-2.64-2.74,.09-6.11,.09-12.22,0-18.33-.03-1.97,.56-2.76,2.64-2.74,10.66,.11,21.33,.1,31.99,.14,.51,7.85,.51,15.69,0,23.54Z" style="fill:#525252;"/><path d="M430.55,107.92c-10.66,.03-21.33,.03-31.99,.14-2.08,.02-2.67-.77-2.64-2.74,.09-6.11,.09-12.22,0-18.33-.03-1.97,.56-2.76,2.64-2.74,10.66,.11,21.33,.1,31.99,.14,.51,7.85,.51,15.69,0,23.54Z" style="fill:#525252;"/><path d="M646.49,107.92c-10.66,.03-21.33,.03-31.99,.14-2.08,.02-2.67-.77-2.64-2.74,.09-6.11,.09-12.22,0-18.33-.03-1.97,.56-2.76,2.64-2.74,10.66,.11,21.33,.1,31.99,.14,.51,7.85,.51,15.69,0,23.54Z" style="fill:#525252;"/><path d="M646.49,323.87c-10.66,.03-21.33,.03-31.99,.14-2.08,.02-2.67-.77-2.64-2.74,.09-6.11,.09-12.22,0-18.33-.03-1.97,.56-2.76,2.64-2.74,10.66,.11,21.33,.1,31.99,.14,.51,7.85,.51,15.69,0,23.54Z" style="fill:#525252;"/><path d="M430.55,323.87c-10.66,.03-21.33,.03-31.99,.14-2.08,.02-2.67-.77-2.64-2.74,.09-6.11,.09-12.22,0-18.33-.03-1.97,.56-2.76,2.64-2.74,10.66,.11,21.33,.1,31.99,.14,.51,7.85,.51,15.69,0,23.54Z" style="fill:#525252;"/><path d="M460.84,491.75c-.03-7.07-.01-14.13-.14-21.2-.04-2.09,.79-2.65,2.74-2.63,7.79,.08,15.57,.08,23.36,0,1.96-.02,2.78,.55,2.74,2.63-.13,7.06-.1,14.13-.14,21.2-9.53,.51-19.05,.51-28.58,0Z" style="fill:#525252;"/><path d="M28.95,275.8c-.03-7.07-.01-14.13-.14-21.2-.04-2.09,.79-2.65,2.74-2.63,7.79,.08,15.57,.08,23.36,0,1.96-.02,2.78,.55,2.74,2.63-.13,7.06-.1,14.13-.14,21.2-9.53,.51-19.05,.51-28.58,0Z" style="fill:#525252;"/><path d="M203.81,35.93c-7.07,.03-14.13,.01-21.2,.14-2.08,.04-2.66-.78-2.64-2.74,.09-6.11,.09-12.22,0-18.33-.03-1.96,.55-2.78,2.64-2.74,7.06,.13,14.13,.1,21.2,.14,.51,7.85,.51,15.69,0,23.54Z" style="fill:#525252;"/><path d="M330.92,318.23c3.1,.37,7.98-1.66,10.38,.81,2.21,2.27,.54,7.08,.65,10.77,.09,3.23-.06,6.47,.04,9.71,.06,1.89-.68,2.5-2.52,2.48-6.23-.07-12.47-.1-18.7,.01-2.15,.04-2.6-.9-2.58-2.8,.08-6.11,.09-12.23,0-18.34-.03-2.05,.71-2.74,2.71-2.67,3.11,.12,6.23,.03,10.02,.03Z" style="fill:#525252;"/><path d="M635.7,35.93c-7.07,.03-14.13,.01-21.2,.14-2.08,.04-2.66-.78-2.64-2.74,.09-6.11,.09-12.22,0-18.33-.03-1.96,.55-2.78,2.64-2.74,7.06,.13,14.13,.1,21.2,.14,.51,7.85,.51,15.69,0,23.54Z" style="fill:#525252;"/><path d="M276.41,372.32c7.07-.03,14.13-.01,21.2-.14,2.08-.04,2.66,.78,2.64,2.74-.09,6.11-.09,12.22,0,18.33,.03,1.96-.55,2.78-2.64,2.74-7.06-.13-14.13-.1-21.2-.14-.51-7.85-.51-15.69,0-23.54Z" style="fill:#525252;"/><path d="M126.01,114.98c-.37,3.1,1.66,7.99-.81,10.38-2.27,2.2-7.08,.54-10.77,.64-3.23,.09-6.47-.06-9.71,.04-1.9,.06-2.5-.7-2.48-2.53,.07-6.23,.1-12.47-.01-18.7-.04-2.16,.91-2.6,2.81-2.57,6.11,.08,12.23,.09,18.34,0,2.05-.03,2.74,.72,2.66,2.72-.12,3.11-.03,6.23-.03,10.02Z" style="fill:#525252;"/><path d="M557.9,114.5c0,3-.07,6,.03,8.99,.06,1.81-.53,2.58-2.45,2.55-6.35-.08-12.71-.07-19.06-.01-1.73,.02-2.28-.71-2.27-2.36,.05-6.35,.05-12.71,0-19.06-.01-1.65,.53-2.38,2.27-2.36,6.35,.06,12.71,.07,19.06-.01,1.92-.03,2.51,.74,2.46,2.55-.09,3.23-.03,6.47-.03,9.71Z" style="fill:#525252;"/><path d="M60.46,156.36c7.07-.03,14.13-.01,21.2-.14,2.08-.04,2.66,.78,2.64,2.74-.09,6.11-.09,12.22,0,18.33,.03,1.96-.55,2.78-2.64,2.74-7.06-.13-14.13-.1-21.2-.14-.51-7.85-.51-15.69,0-23.54Z" style="fill:#525252;"/><path d="M492.35,156.36c7.07-.03,14.13-.01,21.2-.14,2.08-.04,2.66,.78,2.64,2.74-.09,6.11-.09,12.22,0,18.33,.03,1.96-.55,2.78-2.64,2.74-7.06-.13-14.13-.1-21.2-.14-.51-7.85-.51-15.69,0-23.54Z" style="fill:#525252;"/><path d="M419.75,251.89c-7.07,.03-14.13,.01-21.2,.14-2.08,.04-2.66-.78-2.64-2.74,.09-6.11,.09-12.22,0-18.33-.03-1.96,.55-2.78,2.64-2.74,7.06,.13,14.13,.1,21.2,.14,.51,7.85,.51,15.69,0,23.54Z" style="fill:#525252;"/><path d="M180.11,275.8c-.03-7.07-.01-14.13-.14-21.2-.04-2.08,.78-2.67,2.74-2.64,5.39,.09,10.78,.09,16.17,0,1.96-.03,2.78,.55,2.74,2.64-.13,7.06-.1,14.13-.14,21.2-7.13,.51-14.25,.51-21.38,0Z" style="fill:#525252;"/><path d="M612,491.75c-.03-7.07-.01-14.13-.14-21.2-.04-2.08,.78-2.67,2.74-2.64,5.39,.09,10.78,.09,16.17,0,1.96-.03,2.78,.55,2.74,2.64-.12,7.06-.1,14.13-.14,21.2-7.13,.51-14.25,.51-21.38,0Z" style="fill:#525252;"/><path d="M167.82,336.11c-.02-6.59-.15-13.18,0-19.77,.07-2.98-1.02-3.94-3.96-3.93-14.5,.09-28.99,.01-43.49,0,.73-1.25,1.94-.63,2.9-.63,14.03-.05,28.06,.03,42.08-.09,2.51-.02,3.27,.63,3.19,3.18-.19,6.23-.04,12.47-.09,18.7,0,.85,.54,1.95-.64,2.54Z"/><path d="M599.7,552.06c-.02-6.59-.15-13.18,0-19.77,.07-2.98-1.02-3.94-3.96-3.93-14.5,.09-28.99,.01-43.49,0,.73-1.25,1.94-.63,2.9-.63,14.03-.05,28.06,.03,42.08-.09,2.51-.02,3.27,.63,3.19,3.18-.19,6.23-.04,12.47-.09,18.7,0,.85,.54,1.95-.64,2.54Z"/><path d="M300.32,275.8c13.84,0,27.69,0,41.53,0-.35,.93-1.16,.65-1.81,.65-12.64,.02-25.27,.02-37.91,0-.65,0-1.47,.28-1.81-.65Z"/><path d="M516.26,275.8c13.84,0,27.69,0,41.53,0-.35,.93-1.16,.65-1.81,.65-12.64,.02-25.27,.02-37.91,0-.65,0-1.47,.28-1.81-.65Z"/><path d="M516.26,59.85c13.84,0,27.69,0,41.53,0-.35,.93-1.16,.65-1.81,.65-12.64,.02-25.27,.02-37.91,0-.65,0-1.47,.28-1.81-.65Z"/><path d="M84.38,491.75c13.84,0,27.69,0,41.53,0-.35,.93-1.16,.65-1.81,.65-12.64,.02-25.27,.02-37.91,0-.65,0-1.47,.28-1.81-.65Z"/><path d="M300.32,59.85c13.84,0,27.69,0,41.53,0-.35,.93-1.16,.65-1.81,.65-12.64,.02-25.27,.02-37.91,0-.65,0-1.47,.28-1.81-.65Z"/><path d="M84.38,59.85c13.84,0,27.69,0,41.53,0-.35,.93-1.16,.65-1.81,.65-12.64,.02-25.27,.02-37.91,0-.65,0-1.47,.28-1.81-.65Z"/><path d="M216.1,239.81c11.92,0,23.85,0,35.77,0-.34,.93-1.16,.65-1.81,.65-10.72,.02-21.44,.02-32.15,0-.65,0-1.47,.27-1.81-.65Z"/><path d="M432.05,23.85c11.92,0,23.85,0,35.77,0-.34,.93-1.16,.65-1.81,.65-10.72,.02-21.44,.02-32.15,0-.65,0-1.47,.27-1.81-.65Z"/><path d="M28.95,275.8c9.53,0,19.05,0,28.58,0-.25,.21-.49,.59-.74,.59-9.03,.03-18.06,.03-27.1,0-.25,0-.49-.39-.74-.59Z"/><path d="M460.84,491.75c9.53,0,19.05,0,28.58,0-.25,.21-.49,.59-.74,.59-9.03,.03-18.06,.03-27.1,0-.25,0-.49-.39-.74-.59Z"/><path d="M646.49,107.92c0-7.85,0-15.69,0-23.54,1.25,.72,.62,1.92,.63,2.87,.07,5.93,.07,11.86,0,17.8-.01,.95,.62,2.15-.63,2.87Z"/><path d="M419.75,251.89c0-7.85,0-15.69,0-23.54,1.25,.72,.62,1.92,.63,2.87,.07,5.93,.07,11.86,0,17.8-.01,.95,.62,2.15-.63,2.87Z"/><path d="M276.41,372.32c0,7.85,0,15.69,0,23.54-1.25-.72-.62-1.92-.63-2.87-.07-5.93-.07-11.86,0-17.8,.01-.95-.62-2.15,.63-2.87Z"/><path d="M430.55,107.92c0-7.85,0-15.69,0-23.54,1.25,.72,.62,1.92,.63,2.87,.07,5.93,.07,11.86,0,17.8-.01,.95,.62,2.15-.63,2.87Z"/><path d="M329.78,431.85c0-7.85,0-15.69,0-23.54,1.25,.72,.62,1.92,.63,2.87,.07,5.93,.07,11.86,0,17.8-.01,.95,.62,2.15-.63,2.87Z"/><path d="M214.61,107.92c0-7.85,0-15.69,0-23.54,1.25,.72,.62,1.92,.63,2.87,.07,5.93,.07,11.86,0,17.8-.01,.95,.62,2.15-.63,2.87Z"/><path d="M545.72,431.85c0-7.85,0-15.69,0-23.54,1.25,.72,.62,1.92,.63,2.87,.07,5.93,.07,11.86,0,17.8-.01,.95,.62,2.15-.63,2.87Z"/><path d="M203.81,35.93c0-7.85,0-15.69,0-23.54,1.25,.72,.62,1.92,.63,2.87,.07,5.93,.07,11.86,0,17.8-.01,.95,.62,2.15-.63,2.87Z"/><path d="M635.7,35.93c0-7.85,0-15.69,0-23.54,1.25,.72,.62,1.92,.63,2.87,.07,5.93,.07,11.86,0,17.8-.01,.95,.62,2.15-.63,2.87Z"/><path d="M545.72,215.89c0-7.85,0-15.69,0-23.54,1.25,.72,.62,1.92,.63,2.87,.07,5.93,.07,11.86,0,17.8-.01,.95,.62,2.15-.63,2.87Z"/><path d="M329.78,215.89c0-7.85,0-15.69,0-23.54,1.25,.72,.62,1.92,.63,2.87,.07,5.93,.07,11.86,0,17.8-.01,.95,.62,2.15-.63,2.87Z"/><path d="M113.83,215.89c0-7.85,0-15.69,0-23.54,1.25,.72,.62,1.92,.63,2.87,.07,5.93,.07,11.86,0,17.8-.01,.95,.62,2.15-.63,2.87Z"/><path d="M492.35,156.36c0,7.85,0,15.69,0,23.54-1.25-.72-.62-1.92-.63-2.87-.07-5.93-.07-11.86,0-17.8,.01-.95-.62-2.15,.63-2.87Z"/><path d="M214.61,539.82c0-7.85,0-15.69,0-23.54,1.25,.72,.62,1.92,.63,2.87,.07,5.93,.07,11.86,0,17.8-.01,.95,.62,2.15-.63,2.87Z"/><path d="M430.55,323.87c0-7.85,0-15.69,0-23.54,1.25,.72,.62,1.92,.63,2.87,.07,5.93,.07,11.86,0,17.8-.01,.95,.62,2.15-.63,2.87Z"/><path d="M60.46,156.36c0,7.85,0,15.69,0,23.54-1.25-.72-.62-1.92-.63-2.87-.07-5.93-.07-11.86,0-17.8,.01-.95-.62-2.15,.63-2.87Z"/><path d="M646.49,323.87c0-7.85,0-15.69,0-23.54,1.25,.72,.62,1.92,.63,2.87,.07,5.93,.07,11.86,0,17.8-.01,.95,.62,2.15-.63,2.87Z"/><path d="M180.11,275.8c7.13,0,14.25,0,21.38,0-3.85,1.47-7.85,.57-11.76,.58-3.19,.01-6.51,.95-9.62-.58Z"/><path d="M612,491.75c7.13,0,14.25,0,21.38,0-3.85,1.47-7.85,.57-11.76,.58-3.19,.01-6.51,.95-9.62-.58Z"/></g></g></svg>