<?xml version="1.0" encoding="UTF-8"?><svg id="b" xmlns="http://www.w3.org/2000/svg" width="1295.93" height="168.67" viewBox="0 0 1295.93 168.67"><g id="c"><g><path d="M1295.93,.9V23.93c-1.24,.67-2.59,.34-3.89,.34-429.05,.02-858.1,.02-1287.15,0-5.01,0-4.46,.55-4.48-4.36-.02-5.52,.08-11.04-.05-16.55C.31,1.2,.92,.22,3.19,.53c.82,.11,1.68,.02,2.52,.02,428.45,0,856.9,0,1285.35,.02,1.62,0,3.3-.38,4.88,.34Z" style="fill:#525252;"/><path d="M1295.93,.9c-429.3,0-858.6,0-1287.9,0C-.11,.91,.84,.04,.77,8.28c-.03,4.08,.08,8.16-.03,12.23-.06,2.41,.79,3.61,3.33,3.43,1.43-.1,2.88,0,4.32,0,429.18,0,858.36,0,1287.54,0v.72H.05C.05,17.1,.1,9.54,0,1.98-.02,.44,.3-.14,1.85,.17c.46,.09,.96,.01,1.44,.01,429.8,0,859.6,0,1289.41,.04,1.05,0,2.44-.83,3.24,.68Z"/><path d="M647.98,168.59c-70.66,0-141.32-.03-211.98,.08-3.34,0-4.21-.91-4.07-4.14,.26-5.98,.14-11.99,.04-17.98-.03-1.87,.52-2.68,2.43-2.43,.71,.09,1.44,.01,2.16,.01,141.2,0,282.39,.02,423.59-.09,3.8,0,4.83,.99,4.62,4.69-.32,5.62-.19,11.27-.03,16.9,.07,2.33-.6,3.06-2.98,3.02-7.91-.14-15.83-.05-23.75-.05-63.34,0-126.68,0-190.02,0Z"/><path d="M648.4,167.88c-69.93,0-139.87,0-209.8,0q-5.87,0-5.87-5.89c0-4.44,.14-8.88-.05-13.31-.13-3.05,1.13-4.15,4.01-3.85,.83,.09,1.68,.01,2.52,.01,139.39,0,278.78,0,418.16,0,.84,0,1.69,.09,2.52-.01,3.16-.39,4.25,.96,4.13,4.1-.2,5.03-.19,10.08,0,15.11,.11,3.05-1.13,3.89-4.01,3.88-16.55-.09-33.11-.04-49.66-.04-53.98,0-107.96,0-161.94,0Z" style="fill:#525252;"/></g></g></svg>