<?xml version="1.0" encoding="UTF-8"?><svg id="b" xmlns="http://www.w3.org/2000/svg" width="828.46" height="466.69" viewBox="0 0 828.46 466.69"><g id="c"><g><path d="M358.31,215.49c.58-.19,1.17-.38,1.75-.56,.15,.12,.29,.25,.44,.37,.21,.32,.36,.67,.45,1.05,.21,11.48,.5,22.96-.14,34.44-.14,.37-.36,.67-.67,.91-.4-.03-.7-.22-.9-.57-.77-1.38-.57-2.91-.58-4.39-.02-8.27,0-16.54-.01-24.81,0-4.73-.03-4.74-4.89-4.76-2.79,0-5.59,.08-8.37-.06-1.83-.09-2.82,.52-2.82,2.49-.02,9.47-.01,18.93,0,28.39,0,1.93,.95,2.63,2.77,2.63,3.49,0,6.98-.03,10.47,.02,1.28,.02,2.62-.12,3.7,.83,1.06,1.01,.92,2.34,.93,3.61,.02,3.36,0,6.72,.01,10.07,0,1.07-.18,2.21,.85,2.99,2.42,.95,4.93,.31,7.38,.48,2.86,.2,5.76-.39,8.59,.46,.34,.18,.6,.44,.78,.77,.61,1.43,.47,2.94,.48,4.43,.02,8.78-.02,17.57,.02,26.35,.01,3.65,.27,3.81,3.93,3.93,4.18,.14,8.38-.43,12.55,.36,.35,.14,.63,.37,.87,.66,1.09,4.29,.25,8.65,.53,12.98,.08,1.24-.39,2.62,.88,3.56,2.83,.87,5.73,.24,8.58,.42,2.66,.17,5.36-.38,7.98,.47,.34,.18,.6,.45,.78,.79,.62,1.53,.46,3.14,.46,4.72,.02,14.44,0,28.87,.01,43.31,0,4.43,.16,4.54,4.47,4.6,3.78,.06,7.57-.21,11.35,.18,.39,.09,.75,.24,1.09,.44,.32,.25,.55,.57,.7,.94,.29,.75,.36,1.55,.36,2.34,0,16.99,.12,33.97-.05,50.96,.18,4.69,.11,9.38,.05,14.07-.05,3.79-1.04,4.78-4.87,4.83-7.69,.11-15.38,.04-23.08,.04-18.78,0-37.56,0-56.35,0-1.2,0-2.4,.03-3.6-.04-3.4-.21-4.42-1.17-4.5-4.64-.15-6.09-.04-12.18-.05-18.27,0-2.9,.02-5.79,0-8.69-.04-4.04-.27-4.26-4.21-4.31-4.19-.06-8.39,.12-12.58-.09-5.93-.11-11.88,.52-17.79-.38-.36-.17-.64-.43-.84-.77-.68-1.51-.51-3.13-.51-4.71-.02-14.44,0-28.88-.01-43.32,0-4.58-.1-4.58-4.68-4.69-3.97-.1-7.97,.46-11.91-.41-.36-.17-.64-.42-.85-.76-.74-1.61-.53-3.33-.54-5.01-.02-14.37,0-28.74-.01-43.11,0-4.46-.14-4.56-4.48-4.6-2.7-.02-5.39,.08-8.08-.05-1.99,.08-1.71,1.59-1.72,2.83-.03,3.38,.04,6.76-.03,10.13-.09,4.08-1.33,5.51-5.31,5.57-9.74,.15-19.49,.1-29.23,.02-1.3-.01-2.58-.21-3.72-.91-.32-.21-.54-.5-.68-.85-.21-3.98,0-7.97-.06-11.96-.07-3.92-.3-4.16-4.33-4.21-2.9-.04-5.8,.11-8.69-.07-3.28-.2-4.22-1.19-4.34-4.46-.1-2.89,0-5.79-.04-8.68-.04-3.84-.3-4.11-4.05-4.16-3.1-.04-6.2,.1-9.29-.07-1.4-.08-3.13,.14-3.55-1.9,4.89-.02,9.78,.01,14.67-.06,2.6-.04,3.88,.94,3.78,3.71-.13,3.69,.05,7.39-.06,11.08-.06,1.95,.64,2.67,2.59,2.62,3.69-.1,7.39,.03,11.09-.04,2.61-.05,3.86,.97,3.77,3.73-.13,3.99,.05,7.99-.07,11.98-.05,1.67,.4,2.31,2.13,2.3,10.39-.05,20.78-.05,31.17,0,1.82,0,2.53-.83,2.53-2.53,0-3.99,.03-7.99-.02-11.98-.02-1.83-.56-2.81-2.9-2.61-3.97,.34-7.99,.02-11.98,.16-3,.1-3.72-1.39-3.71-4.06,.06-15.27,.03-30.55,.03-45.82,0-.9,0-1.8-.06-2.69-.09-1.19-.56-1.59-1.94-1.52-3.89,.2-7.79,.04-11.68,.17-2.69,.09-3.77-1.02-3.74-3.72,.08-9.48,.04-18.97,.02-28.45,0-3.83-.12-3.87-4-3.81-3.5,.06-6.99-.07-10.49,.04-2.52,.08-3.57-.81-3.54-3.47,.12-8.98,0-17.97,.08-26.95,.02-2.12-.27-4.13-1.04-6.08-1.19-1.33-.95-2.98-.96-4.54-.03-8.74,0-17.48-.02-26.22-.01-4-.2-4.1-4.23-4.21-3.06-.08-6.16,.42-9.19-.47-3.25-.89-3.99-3.08-3.92-6.27,.2-8.63,.06-17.26,.08-25.89,0-1.28-.13-2.59,.33-3.83,.17-.37,.44-.65,.79-.85,.92-.45,1.91-.5,2.9-.51,9.62-.04,19.23-.03,28.85,0,.89,0,1.79,.04,2.64,.36,1.54,.74,1.51,2.17,1.53,3.56,.04,3.55,0,7.11,.02,10.66,0,1.08-.14,2.21,.91,2.96,3.75,.95,7.56,.21,11.32,.44,1.67,.1,3.41-.25,4.96,.72,.89,.99,.76,2.22,.77,3.4,.03,3.48,0,6.96,.02,10.45,0,1.08-.16,2.23,.92,2.98,3.75,.93,7.55,.21,11.32,.43,1.67,.1,3.41-.25,4.96,.72,.89,.99,.77,2.22,.78,3.4,.03,3.48,0,6.96,.02,10.44,0,1.08-.17,2.22,.9,2.98,2.73,.9,5.53,.26,8.29,.44,2.47,.16,4.97-.32,7.4,.43,1.47,.85,1.36,2.31,1.37,3.69,.04,3.48,0,6.96,.02,10.45,0,1.08-.15,2.22,.92,2.98,3.84,.94,7.74,.2,11.6,.43,1.57,.1,3.21-.23,4.64,.73,.97,1.18,.89,2.6,.9,3.98,.03,3.38,.06,6.77,0,10.15-.05,2.31,.95,3.21,3.22,3.14,3.38-.1,6.77-.03,10.16-.03,1.83,0,2.76-.73,2.75-2.65-.01-3.38,.01-6.77-.01-10.15-.02-1.89-.97-2.66-2.78-2.69-2.89-.05-5.78,.09-8.66-.09-1.11-.07-2.72,.5-3-1.44,4.7-1.07,9.44-.53,14.15-.28,1.73,.09,1.92,1.73,1.91,3.22-.03,4.98-.04,9.96-.05,14.94,.5,4.47,.07,8.96,.23,13.43,.04,1.16-.33,2.44,.88,3.29,4.98,.77,9.96,.48,14.94,.11,1.12-.36,1.07-1.31,1.07-2.2,.03-3.37-.02-6.73,.02-10.1,.02-1.76-.66-2.48-2.45-2.45-3.47,.05-6.93,.09-10.4-.03-1.38-.05-3.11,.27-3.5-1.82,4.77-.02,9.54-.02,14.3-.07,2.46-.03,3.64,1,3.57,3.59-.11,3.87,.02,7.75-.06,11.63-.03,1.25,.16,2.14,1.53,2.4,4.64,.02,9.29-.2,13.93,.12Z" style="fill:#46e372;"/><path d="M360.14,251.37c.02-10.68,.03-21.36,.06-32.04,0-1.29,.12-2.59,.19-3.88,1.65-.97,3.48-.62,5.26-.77,3.52-.31,8,1.59,10.32-.95,2.14-2.35,.47-6.7,.69-10.16,.04-.69-.02-1.4,.02-2.09,.06-1.22-.35-1.85-1.71-1.78-3.49,.17-6.98,.03-10.47,.09-1.86,.03-2.71,.91-2.75,2.74-.07,3.09,.06,6.18-.07,9.26-.05,1.2,.28,2.67-1.35,3.27,0,0-.26-.14-.26-.14,0-4.59,.06-9.18,0-13.76-.03-2.41,1.02-3.45,3.42-3.42,3.99,.06,7.99-.08,11.98,.04,2.35,.07,3.24-.95,3.21-3.19-.05-3.99,.06-7.98-.02-11.97-.05-2.46,1.12-3.45,3.44-3.43,4.67,.03,9.35,.05,14.02,.07,4.44-.94,8.94-.34,13.42-.49,3.47-.11,3.68-.27,3.71-3.81,.02-2.99,.01-5.98-.01-8.98-.01-1.85-.86-2.73-2.73-2.74-3.29-.02-6.59,0-9.88-.01-2-.01-2.91,.9-2.92,2.89-.02,3.19,.09,6.39-.07,9.57-.05,1.1,.58,2.68-1.32,3.06-.55-5.07-.14-10.15-.21-15.22-.03-2.1,1.48-2.32,3.09-2.32,4.97,.02,9.95,.05,14.92,.08,4.44-.95,8.94-.34,13.41-.49,3.47-.12,3.68-.27,3.7-3.81,.02-2.79,0-5.58-.01-8.37-.01-1.84-.84-2.74-2.72-2.75-3.29-.02-6.58,.02-9.87-.02-2.23-.03-2.96,1.12-2.95,3.17,.02,2.99,.1,5.98-.06,8.97-.05,1.03,.37,2.46-1.3,2.81-.55-4.77-.17-9.55-.2-14.33-.01-2.07,1.42-2.63,3.25-2.62,3.6,.02,7.19,0,10.79,0q4.5,0,4.51-4.65c0-3.49,.08-6.99-.02-10.48-.06-2.46,1.11-3.45,3.43-3.44,4.68,.04,9.36,.06,14.04,.08,4.33-.98,8.73-.36,13.1-.49,3.82-.12,3.98-.2,3.99-4.12,0-2.69,0-5.38-.01-8.07-.01-1.84-.83-2.75-2.71-2.76-3.39-.02-6.78-.02-10.16,0-1.91,.01-2.63,1.03-2.65,2.82-.04,2.99,.07,5.98-.06,8.96-.05,1.14,.46,2.66-1.3,3.16-.55-4.77-.16-9.55-.2-14.33-.02-2.12,1.52-2.61,3.28-2.62,4.1-.03,8.19-.09,12.29,0,1.83,.04,2.45-.62,2.41-2.43-.09-3.89,.02-7.79-.03-11.68-.03-2.77,1.21-3.99,4.01-3.91,3.79,.11,7.6-.11,11.39,.07,2.57,.12,3.31-.91,3.23-3.31-.13-3.89,.05-7.79-.06-11.68-.07-2.57,1.05-3.64,3.55-3.63,9.79,.03,19.59-.11,29.37,.1,2.39,.05,3.04-.81,3.06-2.8,.03-3.59,0-7.19,.03-10.78,.02-3.57,.33-3.84,4-3.89,4.49-.06,8.99-.14,13.48-.21,.29-.22,.61-.4,.96-.53,3.86-.61,7.75-.2,11.62-.28,4.41-.08,4.34-.04,4.45-4.56,.09-3.97-.44-7.95,.39-11.9,.28-.52,.69-.9,1.22-1.16,.94-.39,1.94-.39,2.93-.39,9.61-.02,19.22-.02,28.83,0,.99,0,1.98,.01,2.93,.37,.37,.15,.67,.39,.91,.7,1.05,5.82,.78,11.65,.16,17.49-.17,.35-.43,.62-.78,.81-4.04,1-8.14,.35-12.22,.47-4.41,.13-4.5,.14-4.53,4.56-.02,3.19,.09,6.39-.05,9.58-.13,3.01-.8,3.69-3.78,3.81-3.59,.14-7.19,.11-10.78,.02-2.4-.06-3.45,.83-3.39,3.3,.09,3.59,.09,7.19-.02,10.78-.05,1.5-.1,3.07-1.95,3.65-3.95,.56-7.93,.17-11.9,.26-3.88,.09-4.08,.21-4.09,4.01-.03,8.44,0,16.87-.01,25.31,0,1.39,.05,2.78-.14,4.16-.04,.38-.13,.74-.26,1.09-.16,.35-.41,.63-.74,.83-1.05,.52-2.18,.44-3.3,.49-3.19,.15-6.38,.03-9.57,.07-3.67,.05-3.92,.27-3.95,3.9-.08,9.37,.09,18.74-.08,28.11-.34,3.29-.79,3.78-3.98,3.9-3.49,.13-6.98,0-10.47,.06-3.11,.06-3.42,.33-3.44,3.46-.05,9.07,0,18.14-.02,27.21,0,1.19,.05,2.4-.3,3.56-.13,.37-.33,.69-.61,.98-1.03,.68-2.2,.61-3.35,.63-3.09,.18-6.18,.06-9.26,.08-4.34,.04-4.45,.12-4.45,4.59-.01,8.17,0,16.34,0,24.5,0,1.2,.02,2.39-.1,3.58,.03,2.32-1.35,3.15-3.42,3.23-3.19,.12-6.38,.04-9.58,.06-4.85,.03-4.87,.02-4.87,4.76,0,13.86,0,27.72,0,41.57q0,7.58-7.66,7.59c-2.49,0-4.99,0-7.48,.02-1.79,.01-2.81,.69-2.82,2.63-.04,9.57-.03,19.14,0,28.71,0,1.92,.95,2.64,2.77,2.65,3.69,.02,7.38-.08,11.07,.05,3.22,.12,3.67,.6,4.04,3.85,.18,10.03,.06,20.06,.06,30.09,0,.8-.07,1.59-.35,2.34-.15,.36-.38,.65-.68,.89-3.8,1.22-7.71,.48-11.58,.58-5.38,.14-5.31,.04-5.41,5.42-.07,3.77,.49,7.57-.43,11.32-.18,.35-.44,.62-.79,.8-5.35,.94-10.73,.46-16.1,.31-.61-.02-1.12-.4-1.59-.79l.05,.05c-1.13-1.25-.86-2.81-.87-4.28-.02-14.75,0-29.5-.03-44.25,0-1.35,.38-2.83-.85-3.92-3.78-1.19-7.66-.26-11.47-.54-1.65-.12-3.39,.26-4.82-.97l.05,.05c-1.11-1.24-.94-2.78-.96-4.25-.03-3.18-.09-6.37,.01-9.55,.08-2.47-.98-3.28-3.37-3.3-4.47-.03-8.95,.42-13.4-.3-.33-.17-.64-.38-.93-.62l.05,.05c-1.16-1.34-.96-2.98-.97-4.55-.02-8.84,0-17.68-.02-26.52-.01-3.7-.23-3.9-3.85-3.94-3.08-.03-6.16,.01-9.24-.02-1.39-.01-2.81,.04-3.95-.97l.05,.05c-.95-1.06-.94-2.37-.96-3.67-.03-3.09,0-6.18-.02-9.27-.02-3.94-.15-4.07-3.97-4.11-2.99-.02-5.98,.05-8.97-.03-1.26-.03-2.64,.16-3.53-1.12Z" style="fill:#46e372;"/><path d="M541.19,125.77c-.52,1.03-.39,2.13-.39,3.23,0,9.78-.06,19.57,.04,29.35,.03,2.85-1.08,3.98-3.91,3.87-3.49-.13-7,.09-10.49-.07-2.41-.11-3.09,.84-3.07,3.14,.1,9.08,.04,18.17,.04,27.26,0,5.07-.53,5.58-5.73,5.59-3.3,0-6.6,.1-9.89-.03-2.19-.09-3.1,.35-3.05,2.91,.19,9.88,.09,19.77,.07,29.65,0,3.49-.52,3.99-3.99,4.01-3.6,.03-7.2,.13-10.79-.03-2.51-.12-3.26,.8-3.25,3.27,.09,15.17,.05,30.35,.04,45.53,0,4.76-.4,5.15-5.09,5.17-3.3,0-6.6,.09-9.89-.02-2.24-.07-3.02,.95-3.02,3.05,.03,9.48,.02,18.97,.02,28.45,0,1.71,.49,2.89,2.54,2.89,10.39,.01,20.77,.06,31.16,.14,1.88,.01,1.43-1.33,1.44-2.29,.06-4.09,.12-8.19,0-12.28-.07-2.54,.86-3.66,3.48-3.57,3.99,.12,8.01-.2,11.98,.12,2.61,.21,3.14-.95,3.14-3.02,.02-3.69,.09-7.39,0-11.08-.06-2.43,.9-3.45,3.36-3.39,3.89,.1,7.8-.07,11.69,.06,2.21,.08,3.05-.71,3-2.93-.1-3.99,.07-7.99-.05-11.98-.09-2.77,1.17-3.77,3.78-3.72,3.8,.07,7.61-.16,11.38,.11,1.88,.13,2.28-.43,2.27-2.05-.04-3.79-.02-7.59,0-11.38,.02-3.42,.58-4.01,4.01-4.02,9.59-.03,19.18-.08,28.77,.03,2.46,.03,3.37-.69,3.25-3.21-.18-3.58-.06-7.19-.04-10.78,.02-3.76,.28-4.01,4.16-4.02,3.8-.01,7.59-.07,11.39,.01,1.79,.04,2.49-.62,2.46-2.44-.08-4.29,.03-8.59-.03-12.88-.03-2.11,.91-3.23,3-3.24,10.29-.03,20.58-.02,30.87,0,.45,0,.91,.34,1.36,.52-.62,1.99-2.35,1.43-3.66,1.44-8.37,.09-16.74,.03-25.11,.05-4.7,.01-4.87,.18-4.89,4.86,0,2.69-.01,5.38,.02,8.07,.02,1.74,.84,2.52,2.57,2.53,9.47,.04,18.94,.04,28.4,0,1.79,0,2.46-.91,2.47-2.6,.02-3.39,0-6.77,.01-10.16,0-1.51,.04-3,.96-4.29l-.07,.06c1.2-.86,2.59-.93,4-.93,3.38-.01,6.77-.04,10.15,0,2.17,.03,3.04-.93,2.98-3.06-.07-2.98-.05-5.97,0-8.95,.03-1.96-.73-2.94-2.8-2.92-3.28,.04-6.57,.01-9.85,0-2.01,0-2.86,.95-2.88,2.91-.02,2.98,.08,5.97-.07,8.95-.06,1.14,.45,2.66-1.33,3.14-.04-4.68-.05-9.36-.14-14.04-.04-2.19,.99-3.04,3.11-3,3.39,.06,6.79,.04,10.18,0,5.37-.05,4.65,.55,4.7-4.56,.04-3.29-.01-6.58,.02-9.87,.03-3.15,.89-4.1,4.11-4.11,9.88-.05,19.77-.11,29.64,.08,1.9,.04,2.24-.5,2.23-2.08-.03-4.19,.06-8.38-.03-12.57-.05-2.36,.77-3.46,3.28-3.45,15.87,.06,31.74,.03,47.61,.02,.79,0,1.61-.09,2.24,.57-.44,2.02-2.17,1.39-3.35,1.42-5.29,.15-10.58,.06-15.88,.06-9.39,0-18.77-.03-28.16,.02-3.8,.02-4.13,.37-4.2,4.07-.04,2.59-.05,5.19,0,7.78,.06,3.28,.32,3.57,3.65,3.58,10.39,.04,20.77,.02,31.16,.01,4.49,0,8.99-.05,13.48,.02,2.31,.03,3.22-.92,3.16-3.2-.08-3.29-.02-6.59-.02-9.88,0-1.42,.13-2.79,.97-4l-.06,.07c1.16-1,2.57-.99,3.97-.99,15.36-.02,30.71-.04,46.07,.01,4.2,.01,4.88,.73,4.94,4.86,.05,3.49,.03,6.98,0,10.46-.01,1.3-.05,2.6-.96,3.68l.06-.05c-1.33,1.22-2.99,.92-4.55,.93-8.66,.04-17.32,0-25.97,.02-4.47,0-4.54,.09-4.56,4.45-.01,2.98,.01,5.97-.01,8.95-.01,1.3-.03,2.6-.94,3.67l.05-.05c-1.42,1.29-3.19,.93-4.84,.94-14.34,.03-28.67,.01-43.01,.02q-5.2,0-5.21,5.33c0,2.69,.02,5.37-.01,8.06-.01,1.3-.04,2.6-.94,3.68l.05-.05c-1.33,1.22-2.99,.93-4.55,.93-8.86,.04-17.73,0-26.59,.03-3.7,.01-3.9,.23-3.93,3.87-.03,3.18,.03,6.37-.03,9.55-.02,1.27,.11,2.62-.93,3.65l.05-.06c-1.17,.97-2.58,.91-3.97,.93-3.48,.03-6.96,.02-10.43,.01-1.87,0-2.7,.81-2.69,2.68,0,3.47,.02,6.95-.01,10.43-.01,1.39,.05,2.8-.92,3.97l.05-.05c-1.23,1.15-2.78,.9-4.25,.92-3.28,.06-6.56,.07-9.84,0-2.14-.04-3.07,.82-3.02,2.99,.06,3.38,.03,6.76,0,10.13-.01,1.39,.05,2.8-.92,3.97l.05-.05c-1.23,1.15-2.78,.9-4.25,.92-3.28,.06-6.56,.07-9.84,0-2.14-.04-3.07,.81-3.03,2.98,.06,3.38,.03,6.75,0,10.13-.01,1.39,.06,2.8-.94,3.96l.05-.05c-1.15,1-2.57,.92-3.95,.93-3.27,.03-6.54,.08-9.81-.01-2.39-.07-3.43,.84-3.36,3.29,.1,3.26,.04,6.54,.01,9.8,0,1.19,.05,2.38-.4,3.52-.16,.34-.4,.62-.71,.83-3.01,1.04-6.12,.37-9.18,.54-1.29,.07-2.59,0-3.88,.02-3.66,.04-3.78,.17-3.81,3.95-.02,2.98,.01,5.97-.01,8.95,0,1.29,.08,2.59-.46,3.83-.18,.34-.45,.6-.79,.78-4.04,.99-8.14,.34-12.21,.46-4.36,.13-4.46,.15-4.49,4.6-.02,3.19,.1,6.38-.06,9.57-.15,2.95-.86,3.66-3.84,3.78-3.49,.14-6.98,0-10.48,.06-3.25,.05-3.57,.34-3.59,3.65-.06,9.17,.01,18.35-.04,27.52-.01,2.25,0,4.6-3.23,4.65-3.68,.22-7.36,.04-11.04,.1-3.45,.06-3.67,.25-3.69,3.79-.07,9.25,.09,18.5-.08,27.75-.03,1.14,.04,2.31-.57,3.35-.24,.31-.55,.54-.91,.69-3.66,.75-7.37,.29-11.05,.35-5.35,.09-5.36,.03-5.36,5.25,0,14.08,.01,28.15-.02,42.23,0,1.66,.34,3.44-1.04,4.82-18.02,0-36.03-.02-54.05-.03-.98-1.31-.74-2.86-.75-4.33-.03-8.67,0-17.33-.03-26-.01-3.68-.27-3.84-3.88-3.98-4.27-.16-8.57,.51-12.81-.46-.36-.19-.63-.46-.82-.82-.62-1.43-.49-2.94-.49-4.43-.01-14.77-.02-29.54,0-44.31,0-1.67-.25-3.43,1-4.86l-.05,.05c1.14-1.03,2.56-.95,3.95-.96,3.47-.04,6.95-.02,10.42-.01,1.88,0,2.69-.82,2.68-2.69,0-3.47-.02-6.94,.01-10.41,.02-1.38-.06-2.8,.97-3.94l-.05,.05c1.06-.95,2.37-.95,3.67-.97,3.09-.03,6.18,0,9.27-.02,3.96-.02,4.07-.13,4.1-3.97,.03-3.29-.07-6.58,.04-9.87,.11-3.33,.8-4,4.12-4.1,3.19-.1,6.38,0,9.57-.04,1.19-.01,2.41,.13,3.49-.54,1.18-1.01,.85-2.38,.86-3.65,.03-2.79-.07-5.59,.03-8.38,.08-2.08-.83-2.85-2.81-2.87-4.9-.04-9.79,0-14.68-.02-4.4-.02-8.79,.11-13.19-.06-3.73-.15-5.29-1.65-5.36-5.4-.16-9.18-.15-18.37,0-27.55,.06-3.93,1.56-5.26,5.59-5.42,2.79-.11,5.59,0,8.39-.05,3.54-.07,3.91-.39,3.92-4.02,.05-13.28,.01-26.55,.02-39.83,0-1.7-.05-3.4,.03-5.09,.18-3.57,1.38-4.78,5.02-4.92,3.09-.12,6.19,.01,9.29-.06,3.22-.07,3.59-.4,3.62-3.67,.07-8.88,0-17.77,.04-26.65,0-1.57-.27-3.23,.88-4.59l.08-.07c1.05-1.31,2.53-1.48,4.06-1.5,2.9-.05,5.79,0,8.69-.03,4.42-.05,4.84-.42,4.86-4.77,.04-7.79,0-15.57,.01-23.36,0-1.1-.04-2.2,.05-3.29,.25-3.07,1.4-4.27,4.51-4.46,2.99-.18,5.99-.02,8.99-.08,3.44-.07,3.8-.37,3.82-3.79,.05-8.68,0-17.37,.03-26.05,0-1.58-.21-3.23,.96-4.57l-.04,.05c.38-.39,.77-.33,1.16,0Z" style="fill:#46e372;"/><path d="M161.81,377.83c-4.72,1.15-9.52,.53-14.29,.61-2.28,.04-3.39-1.11-3.4-3.53-.01-5.17,.32-10.35-.36-15.5-1.01-1.39-.95-3.01-.95-4.6,0-8.68,.01-17.37,0-26.05-.01-4.15-.2-4.32-4.45-4.34-2.4-.01-4.8,.03-7.19-.01-1.82-.03-2.74,.55-2.71,2.58,.13,9.18,.08,18.37,.03,27.55-.01,2.43,.89,3.44,3.34,3.36,2.79-.09,5.6-.13,8.39,.05,1.02,.07,2.49-.36,2.72,1.4-4.81,1.16-9.67,.51-14.51,.38-1.73-.05-1.67-1.68-1.67-3,0-8.48,0-16.97,0-25.45,0-.6,0-1.2,0-1.8q-.03-5.52-5.33-5.51c-3.3,0-6.59-.05-9.89,0-2.21,.04-3.39-.87-3.41-3.15-.04-4.19-.16-8.38-.14-12.57,0-1.79-.24-2.58-2.48-2.38-3.86,.34-7.78,0-11.68,.14-2.76,.1-3.8-1.25-3.82-3.77-.03-4.69-.06-9.37-.08-14.06,2.05,.17,1.86,1.82,1.94,3.13,.18,3.09,.11,6.19,.06,9.28-.04,2.4,.95,3.46,3.38,3.39,2.89-.08,5.79-.06,8.69,0,2,.04,2.93-.74,2.89-2.81-.06-3.29-.05-6.59,0-9.88,.03-2.06-.92-2.85-2.91-2.84-3.3,.02-6.59,0-9.89,0-1.51,0-3-.05-4.32-.93l.04,.05c-.99-1.17-.9-2.59-.91-3.97-.04-3.48,0-6.96-.02-10.43,0-1.86-.84-2.7-2.72-2.69-3.08,.02-6.17,.03-9.25,0-1.81-.03-2.45,.8-2.4,2.55,.1,3.58,.08,7.16,.01,10.73-.02,1.25,.21,2.64-1.1,3.51-1.2-.72-.79-1.92-.8-2.93-.06-3.77-.07-7.54-.01-11.3,.03-2.23-.32-3.39-3.18-3.09-4.02,.42-8.12,.12-12.19,.09-.72,0-1.66,.25-1.93-.86,.88-1.31,2.28-1.07,3.53-1.1,2.99-.08,5.99-.07,8.98-.02,2.08,.03,3.17-.68,3.11-2.94-.08-3.29-.03-6.58-.02-9.87,0-1.86-.78-2.73-2.69-2.72-3.29,.02-6.59,.06-9.88-.02-1.83-.04-2.46,.74-2.41,2.51,.11,3.39,.08,6.78,.01,10.17-.02,1.25,.21,2.65-1.1,3.53-1.29-.53-.79-1.68-.81-2.57-.06-3.87-.06-7.73-.02-11.6,.02-1.8-.05-2.83-2.56-2.57-3.93,.41-7.93,.13-11.9,.09-.8,0-1.86,.39-2.23-.85,.87-1.31,2.26-1.1,3.51-1.13,3.08-.08,6.17-.07,9.25-.02,2.05,.03,2.85-.86,2.83-2.86-.04-3.28-.04-6.56,.01-9.84,.02-1.38-.09-2.82,1-3.94,1.05-.74,2.26-.75,3.46-.76,9.59-.04,19.18-.04,28.77,.01,1.34,0,2.87-.24,3.74,1.27l-.06-.09c1.25,1.66,.92,3.6,.95,5.47,.04,2.58-.02,5.17,.02,7.76,.06,3.25,.3,3.52,3.65,3.54,8.95,.04,17.91,0,26.87,.03,1.56,0,3.22-.29,4.54,.94l-.06-.05c.91,1.08,.88,2.36,.86,3.67-.05,3.37-.02,6.74-.02,10.12,0,1.09-.11,2.22,1,2.93,1.35,.5,2.75,.35,4.13,.36,9.41,.1,18.82-.19,28.24,.15,1.88,.15,2.51,1.4,2.64,3.05,.17,2.09,.08,4.19,.09,6.28q0,8.49,8.64,8.49c7.39,0,14.78-.02,22.17,.02,1.47,0,3.03-.23,4.26,.94l-.07-.05c.99,1.16,.94,2.58,.95,3.98,.02,3.09-.01,6.18,.02,9.27,.03,3.64,.2,3.8,3.95,3.83,3.29,.03,6.58-.06,9.87,.04,3.34,.1,4.01,.78,4.12,4.09,.1,3.09,.02,6.18,.03,9.27q.02,4.57,4.72,4.58c2.89,0,5.78-.03,8.68,.02,1.28,.02,2.62-.08,3.65,.96l-.04-.05c.89,.96,.88,2.15,.87,3.35-.02,3.47,0,6.94,0,10.4,0,1.09-.11,2.21,1,2.92,1.26,.47,2.57,.35,3.86,.36,8.68,.01,17.36-.02,26.05,.02,4.53,.02,5.11,.64,5.17,5.23,.04,3.29,.03,6.58,.01,9.87,0,2.02,.88,2.87,2.89,2.85,3.39-.03,6.79-.03,10.18,0,1.39,.02,2.82-.05,3.97,.98l-.05-.05c1.24,1.44,.98,3.19,.99,4.86,.02,14.47,0,28.94,.02,43.42,0,4.62,.08,4.68,4.67,4.69,2.9,.01,5.79-.02,8.69,.02,1.3,.01,2.61,.02,3.67,.98l-.05-.05c1.03,1.14,1,2.55,1,3.94,.02,15.2,.02,30.39,0,45.59,0,1.28,.1,2.61-.8,3.7-17.93,.04-35.87,.08-53.8,.1-6.08,0-12.15-.05-18.23-.08-1.06-1.01-.97-2.34-.99-3.62-.05-3.27-.04-6.55-.01-9.82,.01-1.94-.7-2.96-2.78-2.93-3.18,.05-6.36,.06-9.53-.01-1.76-.04-2.17,.74-2.09,2.36,.17,3.47,.1,6.95,.04,10.42-.02,1.25,.19,2.64-1.14,3.48-1.18-3.36-.42-6.82-.49-10.22-.14-6.45-.04-6.45-6.46-6.46-2.79,0-5.59-.1-8.38,.03-2.89,.13-3.86-1.16-3.83-3.94,.1-8.87,.06-17.74,.01-26.61,0-1.98-.25-3.95-.39-5.93-.9-1.2-.92-2.6-.93-4-.01-3.39-.02-6.79,0-10.18,.01-2.01-.85-2.9-2.88-2.87-3.09,.05-6.19,0-9.29,.02-1.42,0-2.26,.52-2.22,2.11,.1,3.59,.05,7.18,.04,10.78,0,1.94,.94,2.64,2.77,2.64,3,0,6-.11,8.98,.07,.99,.06,2.48-.4,2.67,1.39-4.79,1.15-9.64,.48-14.47,.38-1.53-.03-1.68-1.42-1.67-2.7,.01-3.98-.04-7.96,0-11.94,.03-2.39-.53-3.58-3.44-3.27-3.74,.4-7.56,.07-11.34,.11-2.26,.02-3.22-1.05-3.23-3.29-.01-4.56-.13-9.13-.21-13.69,1.99-.03,1.77,1.55,1.86,2.72,.2,2.87,.02,5.76,.1,8.64,.09,3.18,.44,3.53,3.7,3.58,2.59,.04,5.17-.03,7.76,.02,1.99,.03,2.91-.79,2.88-2.83-.04-3.28-.04-6.56,0-9.84,.03-2.02-.85-2.88-2.85-2.87-3.38,.02-6.76,0-10.14,0-1.41,0-2.79-.08-4.02-.87-1.08-1.13-.94-2.56-.96-3.94-.04-3.48,0-6.96-.02-10.44,0-1.85-.81-2.73-2.7-2.73-3.28,0-6.56,.02-9.85,0-1.77-.02-2.5,.73-2.45,2.52,.11,3.48,.07,6.96,.03,10.44-.03,2.28,.98,3.22,3.22,3.2,3.28-.02,6.56-.05,9.85,.03,.8,.02,1.59,.08,2.31,.48,.32,.2,.51,.48,.57,.85Z" style="fill:#46e372;"/><path d="M323.63,413.33c5.09,0,10.19,.09,15.28-.04,2.09-.05,2.76,.61,2.74,2.72-.09,9.88,.03,19.76-.09,29.63-.03,2.64,.61,3.7,3.5,3.69,27.86-.09,55.72-.09,83.57,0,2.82,0,3.66-.92,3.55-3.64-.18-4.78-.05-9.58-.06-14.37,.7-.63,1.54-.9,2.46-.93,4.37-.12,8.74-.12,13.11,0,.92,.02,1.76,.3,2.46,.92l-.05-.04c.95,1.05,.98,2.36,.98,3.66,.03,9.35,.04,18.71,0,28.06,0,1.29,.02,2.62-1.11,3.57-21.33,.03-42.67,.08-64,.08-20.74,0-41.47-.05-62.21-.08-1.19-1.06-1.1-2.51-1.1-3.89-.03-15.13-.03-30.27,0-45.4,0-1.39-.05-2.81,.99-3.95Z" style="fill:#34e165;"/><path d="M809.86,179.74c0-5.17-.08-10.35,.02-15.52,.03-1.82-.3-2.58-2.39-2.57-17.22,.09-34.43,.06-51.65,.06,1.24-4.51,.52-9.12,.52-13.68,0-2.85,.84-3.77,3.75-3.76,21.55,.11,43.11,.11,64.66,0,2.95-.02,3.74,.98,3.69,3.79-.14,9.37-.15,18.75,0,28.12,.05,2.83-.95,3.62-3.65,3.54-4.98-.16-9.97,0-14.95,.02Z"/><path d="M719.93,215.69c-.02-5.18,.08-10.35-.11-15.52-.08-2.22,.74-2.56,2.72-2.55,17.13,.08,34.26,.05,51.39,.05,1.02,5.42,.33,10.89,.39,16.33,.02,1.68-1.46,1.61-2.67,1.61-4.88,0-9.77,0-14.65,0-12.36,.02-24.71,.04-37.07,.07Z"/><path d="M323.63,413.33c.05,10.57,.12,21.13,.15,31.7,.02,7.18-.02,14.36-.03,21.54-5.99,0-11.97-.02-17.96-.02,0-16.76,0-33.51,0-50.27,0-.99-.12-1.98-.19-2.97,6.01,0,12.02,.01,18.03,.02Z" style="fill:#000100;"/><path d="M521.97,466.57c-.02-16.97,0-33.94-.08-50.91,0-1.8,.44-2.43,2.33-2.37,5.29,.17,10.58,.15,15.87,.2,.53,1.52,.57,3.1,.57,4.69,0,14.91,0,29.81-.02,44.72,0,1.25,.36,2.61-.67,3.7-6,0-12-.01-17.99-.02Z"/><path d="M755.9,161.65c-.01,5.29-.08,10.57,0,15.85,.03,1.67-.43,2.21-2.16,2.21-16.29-.06-32.57-.05-48.86-.01-1.58,0-2.29-.27-2.21-2.13,.18-4.09,.2-8.19,.02-12.28-.11-2.59,.94-3.2,3.34-3.19,15.19,.08,30.37,.05,45.56,.02,1.16,0,2.39,.36,3.49-.35,.27-.04,.54-.08,.82-.12Z"/><path d="M36.53,195.45c-.21,.73-.42,1.46-.63,2.19-1.02,1.06-2.37,.94-3.65,.96-2.69,.06-5.39,.02-8.08,.02q-5.35,0-5.36,5.5c0,2.69,0,5.38-.04,8.07-.04,2.37-1.18,3.42-3.51,3.42-3.99,0-7.98,0-11.97,0-2.03,0-2.84-.98-2.84-2.95,0-9.87-.03-19.74,.03-29.61,.02-2.59,.89-3.33,3.82-3.36,5.49-.06,10.97-.02,16.46-.02,3.89,0,7.78-.02,11.67,0,3.6,.02,3.94,.19,4.17,3.84,.25,3.97,.32,7.95-.07,11.93Z" style="fill:#010101;"/><path d="M126.36,269.41c-1.08-1.39-.47-3-.5-4.49-.11-4.47-.07-8.94-.09-13.41,2.23,.62,4.5,.69,6.79,.68,8.89-.04,17.78,.07,26.67-.06,2.9-.04,3.95,1.1,3.86,3.89-.12,3.49,.09,6.99-.06,10.48-.1,2.41,.89,3.1,3.17,3.08,9.49-.08,18.98,.05,28.46-.08,2.86-.04,3.98,.88,3.83,3.79-.18,3.58-.03,7.18-.05,10.78,0,1.18,.12,2.41-.67,3.45-11.07,0-22.14-.06-33.21,.06-2.26,.03-2.89-.58-2.8-2.82,.18-4.38,0-8.77,.08-13.15,.03-1.45-.29-2.3-1.91-2.16-1.64-2.36-.85-5.03-.9-7.56-.12-5.77-.04-5.78-5.68-5.78-7.39,0-14.78-.02-22.18,0-3.66,.01-3.83,.22-3.87,3.94-.02,2,.03,3.99-.03,5.99-.03,1.19,.04,2.42-.92,3.36Z" style="fill:#010101;"/><path d="M541.19,125.77c-.39,0-.77,0-1.16,0,.02-.21,.04-.42,.06-.64,.76-1.91,2.25-2.64,4.22-2.68,2.58-.06,5.17,.02,7.75-.05,3.34-.09,3.8-.51,3.83-3.84,.06-8.14,0-16.28,.03-24.42,0-1.46-.23-3.01,.92-4.24,1.54-.24,1.06-1.45,1.06-2.35,.03-4.49,.11-8.98-.03-13.46-.06-1.9,.58-2.36,2.38-2.31,4.49,.12,8.98-.03,13.47,.08,1.67,.04,2.27-.43,2.22-2.17-.12-3.99,.15-7.99-.1-11.96-.19-2.98,.5-4.18,3.8-3.96,4.77,.32,9.58,.08,14.37,.08,.63,5.26,.19,10.54,.25,15.8,.02,1.86-1.45,2.15-2.96,2.16-3.7,.02-7.39,.06-11.09-.01-2.41-.05-3.42,.89-3.33,3.38,.14,3.89,.05,7.79,.03,11.68-.01,2.95-.47,3.46-3.47,3.51-3.9,.07-7.79-.02-11.69,.03-3.05,.04-3.41,.42-3.42,3.52-.01,9.58-.09,19.17,.06,28.75,.04,2.48-.89,3.13-3.11,3.09-4.39-.1-8.79,.04-13.19-.07-.3,.03-.6,.05-.9,.08Z" style="fill:#030303;"/><path d="M683.96,233.67c-.02-5.27,.04-10.54-.11-15.81-.06-1.94,.65-2.28,2.4-2.27,11.25,.07,22.49,.04,33.74,.05,.97,5.51,.28,11.06,.37,16.6,.02,1.31-.96,1.92-2.21,1.92-11.03,0-22.07-.02-33.1-.06-.36,0-.73-.28-1.09-.43Z"/><path d="M89.86,233.92c-1.53-.68-3.14-.29-4.7-.29-10.46-.05-20.91-.04-31.37-.05-.12-.14-.24-.27-.37-.41-.91-5.58-.62-11.17-.18-16.76,.14-.35,.37-.63,.69-.84,10.94,.02,21.87,.12,32.81,0,2.9-.03,3.98,.97,3.75,3.82-.39,4.83,.66,9.73-.63,14.52Z" style="fill:#010101;"/><path d="M773.89,197.71c0-5.17,.09-10.34-.08-15.5-.07-2.17,.67-2.6,2.69-2.58,11.14,.1,22.28,.06,33.42,.06,1.04,5.32,.45,10.68,.35,16.02-.04,1.92-1.97,1.92-3.5,1.92-9.87,0-19.73,0-29.6,.02-1.09,0-2.18,.04-3.28,.06Z" style="fill:#010101;"/><path d="M233.7,323.49c-5.19,0-10.38-.09-15.57,.02-1.83,.04-2.42-.48-2.36-2.35,.14-4.29-.07-8.58,.09-12.87,.08-2.15-.38-2.98-2.74-2.86-4.28,.21-8.59-.05-12.88,.11-2.02,.07-2.51-.62-2.47-2.54,.09-5.18-.02-10.36-.06-15.55,.46,.07,.92,.14,1.38,.22,.81,1.28,2.13,.84,3.24,.86,3.78,.06,7.57,.13,11.35,0,2.38-.08,3.16,.89,3.09,3.17-.12,3.78,.04,7.56-.05,11.34-.04,2.06,.86,2.9,2.84,2.88,3.98-.02,7.97,.01,11.95,0,1.29,0,2.57,.17,2.55,1.79-.08,5.25,.55,10.53-.37,15.76Z" style="fill:#000101;"/><path d="M449.96,466.57c.05-11.76,.09-23.53,.14-35.29,4.98,0,9.97,.17,14.95-.04,2.48-.1,2.93,.78,2.91,3.03-.11,10.76-.04,21.51-.04,32.27-5.99,0-11.97,.02-17.96,.03Z"/><path d="M125.83,251.56c-11.09,0-22.17-.06-33.26,.07-2.29,.03-2.86-.62-2.78-2.83,.16-4.98,.03-9.98,.02-14.97,11.17,.78,22.36,.23,33.53,.35,2.33,.02,3.29,.92,3.13,3.2-.33,4.72,.7,9.51-.64,14.19Z" style="fill:#010101;"/><path d="M542.09,125.7c4.23-.84,8.5-.3,12.75-.32,2.43,0,3.3-.69,3.26-3.22-.13-9.47,.03-18.94-.1-28.41-.04-2.87,.95-3.95,3.83-3.81,3.68,.17,7.39-.08,11.07,.08,2.91,.13,3.89-1.09,3.78-3.9-.16-3.88,.02-7.77-.05-11.66-.04-2.14,.84-3.1,3.02-3.06,3.59,.07,7.19-.11,10.77,.05,2.67,.12,3.8-.7,3.67-3.55-.21-4.67-.08-9.36-.09-14.04,0,0,0,0,0,0,1.05-1.32,2.53-1.48,4.06-1.51,3.2-.06,6.4-.07,9.59-.01,2.38,.05,3.48-.88,3.42-3.34-.07-2.99-.09-5.99,.02-8.98,.13-3.7,1.83-5.43,5.58-5.58,3.39-.14,6.8-.12,10.19,0,2.02,.06,2.9-.56,2.89-2.69-.05-8.99-.04-17.97,0-26.96,0-2.03-.7-2.8-2.81-2.79-9.39,.08-18.78,.09-28.17,0-2.49-.02-3.42,.94-3.34,3.36,.1,2.99,0,5.99,.03,8.98,.01,.97-.15,2.08,1.2,2.4,3.77,.45,7.54,.11,11.31,.21,4.31,.12,5.02,.72,4.95,5.1-.08,4.44,.57,8.92-.45,13.33-.52,1-1.47,1.31-2.47,1.35-4.62,.22-9.25,.19-13.87,.02-.81-.03-1.53-.36-2.14-.89l.05,.05c-1.04-1.15-.94-2.58-.95-3.97-.04-3.09-.03-6.18-.01-9.27,.01-1.88-.79-2.67-2.7-2.66-9.17,.07-18.35,.05-27.52,.01-2.47,0-3.36,1.07-3.3,3.44,.08,2.89,.04,5.78,0,8.67-.02,1.28,.09,2.62-.88,3.68-.25,.28-.5,.56-.75,.84-2.73,1.42-5.67,.66-8.5,.71-8.06,.16-7.19-.64-7.26,7.22-.02,1.99,.04,3.98-.04,5.97-.05,1.2-.13,2.41-1.31,3.15-.24,.02-.48,.04-.72,.05,1.05-4.74,.31-9.53,.5-14.3,.13-3.45,.59-4.02,4-4.05,3.7-.04,7.41-.22,11.08,.09,2.13,.18,2.36-.64,2.33-2.29-.04-3.49-.01-6.99,0-10.48,.01-4.35,.35-4.69,4.85-4.7,9.09,0,18.18,0,27.27,0,3.85,0,3.86-.01,3.86-3.99,0-3.59,.06-7.19-.01-10.78-.05-2.28,.88-3.25,3.2-3.24,10.29,.05,20.58,.05,30.87,0,2.46,0,3.35,1.17,3.34,3.51-.04,9.78-.05,19.57,0,29.35,.02,2.59-1.11,3.58-3.63,3.53-3.89-.08-7.79,.05-11.69-.04-2.46-.06-3.4,.99-3.32,3.41,.11,3.59-.07,7.19,.05,10.78,.09,2.76-1.24,3.8-3.79,3.79-4,0-7.99,.08-11.99-.02-1.84-.04-2.37,.57-2.29,2.42,.16,3.89-.05,7.79,.08,11.68,.09,2.8-.97,4.04-3.85,3.93-3.59-.13-7.19,.05-10.79-.06-2.07-.06-2.87,.69-2.81,2.78,.1,3.99-.02,7.99,.03,11.98,.04,2.65-1.23,3.85-3.82,3.84-3.9-.01-7.8,.11-11.69-.03-2.34-.09-3.16,.71-3.13,3.08,.1,9.38,.05,18.77,.04,28.15,0,3.98-.18,4.26-4.29,4.12-4.14-.15-8.33,.7-12.42-.51Z" style="fill:#46e372;"/><path d="M647.98,215.57c-.03,5.28-.12,10.56-.06,15.83,.02,1.66-.41,2.24-2.16,2.23-10.28-.08-20.57-.06-30.85-.01-1.63,0-2.28-.4-2.22-2.18,.14-4.09,.14-8.18,.02-12.27-.07-2.33,.79-3.17,3.14-3.15,9.68,.08,19.37,.04,29.05,.02,.77,0,1.61,.23,2.29-.37,.26-.04,.51-.07,.77-.11Z" style="fill:#010101;"/><path d="M234.29,125.61c-1.1-4.58-.14-9.23-.52-13.83-.11-1.37,.75-2.95-.68-4.12-1.1-1.13-.87-2.57-.93-3.94-.14-3.26,.26-6.54-.3-9.79-.33-1.17-1.21-1.47-2.3-1.46-9.65,.05-19.3-.22-28.94,.16-1.45,.55-1.36,1.83-1.38,3.01-.05,2.79,.01,5.58-.03,8.37-.02,1.28,.12,2.62-.93,3.65l.08,.26c-.18,.02-.36,.03-.53,.05-.3-.2-.52-.48-.66-.82-.62-5.42-.36-10.86-.15-16.29,.08-.34,.23-.66,.43-.95,.44-.41,.9-.48,1.39-.1,1.42,.57,2.91,.6,4.42,.59,9.19-.01,18.38,.07,27.57-.05,2.7-.03,3.81,.85,3.69,3.62-.16,3.79,.2,7.61-.14,11.37-.22,2.42,.75,2.99,2.73,3,4,.02,8,.15,11.99-.03,2.66-.12,3.53,.88,3.42,3.46-.16,3.69,0,7.39-.05,11.08-.03,2.03,.86,2.9,2.88,2.88,4.2-.04,8.39,.07,12.59-.03,2.35-.05,3.21,.94,3.16,3.22-.09,3.59-.02,7.19-.02,10.78q.01,4.58,4.75,4.59c3.1,0,6.2,.1,9.29-.02,2.43-.1,3.46,.83,3.38,3.31-.12,3.99,.13,8-.12,11.97-.12,1.87,.47,2.14,2.05,2.12,4.1-.06,8.2,.13,12.29-.05,2.82-.13,3.98,.71,3.81,3.69-.23,4.18-.02,8.38-.15,12.57-.05,1.52,.49,1.97,1.86,1.8,3.93,.87,7.91,.34,11.86,.34,2.57,0,3.61,.77,3.5,3.43-.17,3.98-.09,7.98-.02,11.97,.03,1.57-.3,2.31-2.11,2.26-4.39-.12-8.79-.14-13.18,0-1.96,.06-2.57-.5-2.54-2.49,.08-5.28-.07-10.56-.12-15.84-1.71-.66-1.39-2.2-1.47-3.51-.22-3.62,.29-7.27-.33-10.88-.19-.46-.46-1-.96-1.02-4.37-.19-8.75-.78-13.07,.33-1.32,3.39-.34,6.91-.64,10.35-.14,1.65,.39,3.42-.9,4.86-1.06-4.98-.13-10.02-.48-15.01-.07-.98,.66-2.23-.72-2.91-1.75-2.95-.54-6.18-.9-9.26-.21-1.81,.54-3.79-.99-5.35-2.54-1.23-5.24-.4-7.85-.59-1.47-.11-2.95-.04-4.42,0-1.75,.02-1.75,1.25-1.75,2.5,0,2.99,.03,5.98-.01,8.97-.02,1.27,.18,2.63-.86,3.67-1.06-3.04-.27-6.18-.44-9.26-.16-2.85-.11-5.71-.15-8.56-1.03-1.15-.9-2.58-.92-3.96-.04-2.98,.02-5.96-.04-8.94-.03-1.77-.79-2.81-2.66-2.87-3.78-.13-7.56,.04-11.34-.11-1.48-.06-1.53,.9-1.52,1.97,.02,3.38,.04,6.76,0,10.14-.02,1.27,.14,2.62-.9,3.65-1.14-2.23-.35-4.6-.46-6.89-.17-3.65-.1-7.31-.13-10.97-1.63-.86-1.45-2.45-1.51-3.9-.13-3.26,.17-6.52-.21-9.77-.18-.69-.43-1.45-1.25-1.46-4.3-.08-8.63-.72-12.89,.39-1.33,3.23-.32,6.59-.63,9.86-.15,1.62,.36,3.36-.91,4.77Z" style="fill:#050605;"/><path d="M201.31,143.63c3.99,.03,7.99,.16,11.98,.06,1.87-.04,2.59,.37,2.56,2.43-.13,11.17-.11,22.35-.13,33.52-.28,0-.56-.02-.85-.03-4.47,.13-8.95,0-13.42,.08-2.13,.04-2.91-.72-2.88-2.97,.12-9.34,.05-18.68,.05-28.02,0-.89,.08-1.79-.05-2.68-.44-3.02-.34-3.11,2.74-2.4Z" style="fill:#010101;"/><path d="M142.93,359.34c-1.41-.77-2.92-.23-4.38-.36-3.54-.33-8.12,1.56-10.36-.79-2.19-2.3-.6-6.84-.67-10.4-.15-7.67-.07-15.34-.26-23.01-.03-1.26,.41-1.3,1.25-1.3,4.59-.01,9.18,.03,13.77-.03,2.07-.03,1.51,1.42,1.52,2.48,0,11.16-.02,22.32-.04,33.48-.28-.02-.55-.04-.83-.07Z" style="fill:#010101;"/><path d="M201.31,143.63c-2.64-.37-2.57,.97-2.53,3.15,.2,9.67,.2,19.35,.03,29.02-.05,2.88,.95,3.52,3.61,3.51,4.15-.02,8.33-.55,12.46,.31-5.01,1.19-10.07,.51-15.1,.36-1.92-.06-1.63-1.94-1.64-3.31-.01-9.48,0-18.96-.01-28.44,0-3.75-.02-3.64-3.76-3.45-3.39,.17-6.79-.02-10.18,.07-2.63,.07-3.48-1.22-3.47-3.68,.06-9.58,.03-19.16,.02-28.74,0-4.22-.02-4.2-4.26-4.15-3.49,.04-6.99-.04-10.48,.02-2.19,.04-3.3-.69-3.28-3.11,.08-10.28,.07-20.56,0-30.83-.01-2.24,.97-3.02,3.06-3.01,9.99,.03,19.97,.04,29.96-.01,2.31-.01,3.25,.93,3.2,3.22-.1,5.09-.08,10.17-.12,15.26-.39,.02-.77,.05-1.15,.08-.76-3.95-.16-7.94-.28-11.91-.14-4.37-.23-4.58-4.55-4.59-8.18-.02-16.36-.03-24.53,0-3.5,.01-3.78,.28-3.8,3.72-.04,8.47-.03,16.94,0,25.41,.01,3.43,.28,3.66,3.81,3.7,2.39,.03,4.79-.07,7.18,.02,2.48,.1,3.36-1.03,3.31-3.41-.08-3.19-.08-6.38,.01-9.57,.1-3.54,.79-4.28,4.2-4.38,3.89-.11,7.78-.07,11.67,0,1.09,.02,2.21,.05,3.05,.93,0,5.98,0,11.96,0,17.94-1.16,1.02-2.58,.93-3.97,.95-2.99,.03-5.99,.02-8.98,.01-1.59,0-2.36,.62-2.34,2.31,.1,9.57,.03,19.14,.04,28.71,0,2.17,.97,3.05,3.08,3.03,2.59-.02,5.19,.05,7.78-.01,3.04-.07,3.4-.4,3.42-3.54,.06-8.97,0-17.94,.03-26.92,0-1.58-.2-3.22,.89-4.59,.23,.06,.45,.13,.68,.19-.01,10.66,.2,21.33-.19,31.98-.11,2.94,2.67,2.07,3.14,3.74Z" style="fill:#46e372;"/><path d="M36.53,195.45c-.8-4.04-.18-8.12-.35-12.18-.1-2.46-1.02-3.22-3.44-3.19-9.38,.11-18.77,.11-28.15,0-2.67-.03-3.74,.81-3.7,3.61,.13,9.48,.11,18.95,0,28.43-.02,2.37,.82,3.18,3.14,3.1,3.79-.13,7.59-.15,11.38,.02,2.08,.09,2.51-.75,2.47-2.6-.1-4.29,.05-8.58-.07-12.87-.05-1.75,.56-2.18,2.21-2.15,5.29,.09,10.58,.03,15.87,.02,0,0-.06-.05-.06-.05,.43,.55,.8,1.16,.81,1.87,.08,5.2,.49,10.41-.24,15.6-.14,.35-.36,.63-.65,.87-3.78,1.2-7.68,.43-11.52,.58-3.72,.15-3.72,.05-3.7,3.86,.02,3.08,.08,6.15-.01,9.23-.07,2.34,.96,3.12,3.2,3.14,3.76,.03,7.54-.33,11.3,.25,.35,.12,.64,.32,.88,.59-.02,.18-.03,.36-.05,.53-4.64,1.05-9.34,.47-14.02,.59-2.26,.06-3.26-1.11-3.25-3.32,.02-4.19-.02-8.38,0-12.57,.01-2-.36-3.01-2.9-2.79-4.16,.36-8.37,.1-12.57,.1-2.1,0-3.12-1.07-3.12-3.14,0-10.17,0-20.34,0-30.52,0-2.15,1.3-3.18,3.18-3.19,10.38-.07,20.76-.05,31.13-.02,1.33,0,2.49,.72,2.5,2.09,.06,4.71,.67,9.43-.29,14.12Z" style="fill:#46e372;"/><path d="M629.98,287.56c-.02-5.36,0-10.72-.11-16.07-.03-1.63,.57-1.99,2.07-1.97,5.36,.08,10.72,.04,16.09,.04,.88,5.55,.31,11.13,.31,16.7,0,1.69-1.51,1.86-2.89,1.86-5.16,0-10.33,.22-15.47-.55Z" style="fill:#010101;"/><path d="M647.99,269.6c-.03-5.36,0-10.72-.12-16.08-.03-1.61,.54-2.01,2.06-1.99,5.36,.08,10.73,.04,16.09,.04,.89,5.41,.28,10.85,.35,16.28,.02,1.66-1.38,1.67-2.61,1.67-5.26,.02-10.51,.05-15.77,.07Z" style="fill:#020202;"/><path d="M611.99,305.54c-.03-5.36,0-10.72-.12-16.07-.03-1.61,.55-2,2.06-1.98,5.36,.07,10.72,.02,16.08,.02-.49,1.14,.33,2,.64,2.97,1.06,4.39,.36,8.84,.42,13.27,.01,1.19-.95,1.53-2.01,1.77-4.71,1.07-9.46,.5-14.2,.43-.92-.01-2,.23-2.88-.4Z"/><path d="M35.81,215.65c.01-6.02,.02-12.04,.03-18.06,5.08,1.26,10.25,.54,15.37,.6,2.4,.03,3.49,.71,3.29,3.23-.38,4.71,.65,9.47-.57,14.15,0,0-.09,.03-.09,.03-.62,.54-1.35,.87-2.16,.9-4.67,.15-9.34,.2-14.01-.03-.7-.03-1.36-.27-1.87-.82Z" style="fill:#020202;"/><path d="M665.97,251.63c-.02-5.36,0-10.72-.11-16.08-.03-1.61,.53-2.01,2.05-1.99,5.36,.08,10.73,.04,16.09,.04-.06,4.66-.12,9.33-.17,13.99-.04,3.71-.24,3.93-3.86,3.96-4.67,.03-9.34,.05-14.01,.07Z"/><path d="M611.99,305.54c4.96-.65,9.95-.26,14.93-.26,2.72,0,4.03-.73,3.83-3.75-.25-3.67-.07-7.37-.08-11.05,1.38,.07,1.17,1.11,1.18,1.97,.02,3.49,0,6.98,0,10.48,0,2.03-.9,3.07-3,3.32-4.68,.58-9.37,.47-14.04,.16-1.67-.11-1.7,.2-1.64,1.69,.17,4.28,.02,8.58,.11,12.87,.04,2.03-.54,3.08-2.8,3.31-4.59,.48-9.16,.38-13.74,.11-1.36-.08-1.67-.03-1.6,1.47,.19,3.98,0,7.98,.15,11.96,.1,2.8-.82,4.15-3.83,4.45-3.6,.35-7.18,.31-10.76,.23-2.26-.05-2.91,.68-2.88,2.9,.11,9.38,.05,18.76,.04,28.13,0,4.07-.59,4.91-4.72,5.28-3.66,.33-7.37,.35-11.05,.23-2.3-.08-2.88,.74-2.85,2.92,.1,9.48-.02,18.96,.08,28.43,.03,2.44-.63,3.6-3.28,3.81-4.97,.39-9.92,.15-14.75,.13,0,16.84,0,33.67,0,50.49,0,.88,.11,1.93-1.33,1.76,.05-11.34,.11-22.68,.15-34.02,.02-6.37-.01-12.73-.02-19.09,0,0,.01-.09,.01-.09,1.02-1.03,2.35-.98,3.64-1,3.09-.04,6.19,.04,9.28-.04,3.47-.09,4.02-.61,4.04-4.05,.06-8.08,.01-16.16,.02-24.23,0-1.1,0-2.19,.06-3.29,.12-2.42,1.41-3.6,3.8-3.69,3.39-.13,6.79,.03,10.18-.09,3.9-.14,4.52-.75,4.53-4.61,.04-8.78-.01-17.55,.03-26.33,.02-4.73,.84-5.49,5.63-5.58,2.69-.05,5.4,.15,8.08-.14,3.03-.33,3.58-.93,3.65-3.96,.07-3.09,0-6.18,.03-9.27,.02-1.3,0-2.61,.98-3.66l-.03,.05c1.04-.98,2.35-.95,3.64-.97,3.07-.04,6.15,.04,9.22-.03,3.68-.09,4.13-.55,4.17-4.16,.04-3.07-.01-6.14,.02-9.22,.01-1.29-.01-2.6,.97-3.64l-.04,.05Z" style="fill:#b9b9b9;"/><path d="M35.85,234.09c.16-.1,.19-.22,.07-.37,.35-.2-.18-.12,.2-.21,5.91-1.38,11.82-1.54,17.71,.12,0,0-.05-.05-.05-.05,.02,4.96-.09,9.93,.11,14.88,.09,2.37-.83,2.79-2.94,2.73-4.55-.13-9.11-.01-13.67,0-1.18-1.23-.69-2.78-.8-4.22-.32-4.29,.68-8.64-.64-12.88Z" style="fill:#010101;"/><path d="M73.4,287.25c.02-5.27,.14-10.55-.02-15.82-.04-1.37-.12-1.94,1.46-1.91,4.39,.08,8.78,.1,13.17-.01,1.8-.05,1.85,.87,1.84,2.21-.05,5.28-.05,10.57-.06,15.85-4.91,1.04-9.88,.42-14.83,.45-.52,0-1.04-.5-1.56-.77Z" style="fill:#010101;"/><path d="M89.74,287.52c5.28,0,10.55,.04,15.83-.03,1.54-.02,2.35,.19,2.3,2.06-.13,4.47-.08,8.96-.02,13.43,.02,1.5-.43,2.14-2.04,2.11-4.08-.09-8.17-.08-12.25-.02-1.91,.03-2.7-.78-2.67-2.68,.06-3.78,.04-7.56-.01-11.35-.01-1.02,.39-2.26-.97-2.86-.05-.22-.11-.45-.16-.67Z" style="fill:#020202;"/><path d="M648.11,214.78c1.38-2.92,.51-6.02,.58-9.02,.15-7.07,.05-7.07,7.19-7.07,2.69,0,5.39,.05,8.08-.02,1.41-.04,1.95,.49,1.94,1.92-.05,4.39-.09,8.78,.02,13.16,.04,1.73-.76,1.92-2.16,1.9-5.28-.05-10.57-.02-15.85-.01,.07-.29,.13-.57,.2-.86Z" style="fill:#020202;"/><path d="M161.81,377.83l.13-.25-.17-.22-.05,.05c5.18,0,10.37,.05,15.55-.06,1.82-.04,2.67,.29,2.59,2.4-.17,4.28-.12,8.57-.02,12.86,.05,1.86-.63,2.41-2.43,2.35-3.59-.12-7.18-.12-10.77,0-2.29,.07-3.28-.72-3.18-3.1,.13-3.38,.08-6.78,0-10.17-.02-.97,.52-2.25-.93-2.8-.23-.35-.47-.7-.71-1.05Z" style="fill:#020202;"/><path d="M196.87,413.27c-3.72-.85-7.5-.23-11.24-.35-4.14-.12-4.13-.04-4.16-4.03-.03-4.08,.01-8.16-.23-12.23-.08-1.3,.45-1.28,1.26-1.29,4.58-.01,9.17,.04,13.75-.04,1.76-.03,1.56,1.08,1.55,2.17-.03,5.27-.05,10.55-.08,15.82-.28-.02-.57-.03-.85-.05Z" style="fill:#020202;"/><path d="M217.25,466.46c.45-5.63,.17-11.27,.12-17.17,4.87,0,9.84,.05,14.8-.03,1.69-.03,1.64,.94,1.63,2.1-.03,5.07-.03,10.14-.04,15.22-5.5,.08-11,.28-16.5-.12Z" style="fill:#010101;"/><path d="M324.22,215.43c-.73-5.95-.7-11.9,.01-17.85,.26,.08,.52,.15,.79,.23,1.06,1.32,2.55,.8,3.86,.83,3.48,.08,6.96,.04,10.45,.03,1.38,0,2.74,.12,2.75,1.92,.04,4.57,0,9.14-.04,13.72,0,.62-.28,1.15-1.04,1.2-1.59-2.25-.84-4.82-.87-7.25-.11-7.76,.54-7.3-7.3-7.3-.8,0-1.59,0-2.39,0-5.31-.03-5.19-.03-5.36,5.45-.09,3.01,.87,6.16-.86,9.03Z" style="fill:#030504;"/><path d="M358.31,215.49c-4.65,.14-9.3,.4-13.94-.12,4.65-.32,9.3-.53,13.94,.12Z" style="fill:#46e372;"/><path d="M287.66,359.44c-5.18,0-10.36-.09-15.54,.02-1.82,.04-2.42-.49-2.36-2.34,.13-4.28-.12-8.57,.1-12.84,.13-2.48-.78-2.89-3.02-2.88-10.85,.06-21.71-.06-32.56-.11-.66-4.55-.11-9.12-.29-13.67-.05-1.31,.81-1.7,1.86-1.9,1.18-.23,2.38-.18,3.58-.18,8.87,0,17.73,.02,26.6-.01,5.74-.02,7.4-1.69,7.47-7.52,.04-3.28,.14-6.57-.12-9.85-.07-.89-.19-1.8,.48-2.55,3.98-.03,7.96,0,11.94-.13,1.59-.05,2.03,.51,2.02,2.04-.08,17.31-.11,34.62-.15,51.93Z"/><path d="M305.65,413.36c-5.08,0-10.16-.12-15.24,.02-2.09,.06-2.67-.56-2.66-2.66,.09-16.02,.05-32.05,.04-48.07,0-1.09-.11-2.18-.18-3.26,5.38,0,10.76,.06,16.14,0,1.54-.02,2.07,.42,2.06,2.01-.09,17.32-.12,34.64-.17,51.97Z" style="fill:#000100;"/><path d="M450.15,431.33c-6.01,0-12.02,0-18.02,0-.07-2.68-.2-5.35-.2-8.03-.02-14.23-.01-28.45,0-42.68,0-1.09,.13-2.17,.2-3.26,6.01,0,12.02,0,18.03,0-.08,1.08-.23,2.17-.23,3.25-.01,15.82-.01,31.64,0,47.46,0,1.08,.15,2.17,.23,3.25Z" style="fill:#000101;"/><path d="M414.13,323.44c5.8,.08,11.6,.16,17.4,.24,.44,.62,.29,1.34,.29,2.02,0,16.49,0,32.98,0,49.47,0,.68,.15,1.4-.29,2.03-5.28,.06-10.56,.1-15.84,.2-1.22,.02-1.81-.31-1.8-1.66,.16-17.43-.27-34.87,.23-52.3Z"/><path d="M269.79,278.36c0,7.78-.14,15.56,.07,23.34,.08,2.88-.91,3.57-3.56,3.4-3.38-.21-6.79-.16-10.18-.02-2.48,.11-3.31-.82-3.3-3.3,.08-15.46,.04-30.92,.04-46.38,0-3.84-.01-3.84,3.8-3.84,3.39,0,6.79,.13,10.18-.05,2.28-.12,3.07,.45,3.02,2.9-.17,7.98-.06,15.96-.06,23.94Z"/><path d="M377.54,269.52c5.38,0,10.77,.02,16.15,.01,1.16,0,2.15-.05,2.13,1.63-.18,11.45,.28,22.9-.25,34.35-5.07,0-10.14-.12-15.2,.03-2.15,.06-2.63-.67-2.61-2.7,.1-10.03,.05-20.06,.03-30.09,0-1.08-.16-2.16-.25-3.23Z" style="fill:#000100;"/><path d="M359.57,251.58c-5.19,0-10.39-.06-15.58,.03-1.67,.03-2.24-.45-2.23-2.18,.07-10.48,.05-20.96,.02-31.44,0-1.59,.25-2.2,2.16-2.09,4.48,.27,8.98,.14,13.48,.13,1.29,0,2.42,.02,2.39,1.8-.17,11.26,.36,22.53-.28,33.79l.05-.05Z" style="fill:#030504;"/><path d="M216.37,179.67c5.59,0,10.58,.04,15.56-.03,1.42-.02,1.9,.43,1.89,1.87-.05,10.47-.06,20.94,0,31.42,.01,1.93-.8,2.33-2.51,2.29-3.49-.1-6.99-.17-10.48,.02-2.59,.14-3.48-.67-3.43-3.35,.15-9.07,.05-18.15,.06-27.23,0-1.59,.08-3.19-1.1-4.98Z" style="fill:#020202;"/><path d="M235.47,215.63c4.78,0,9.75,.04,14.72-.02,1.4-.02,1.62,.65,1.62,1.82-.03,10.56-.04,21.11,0,31.67,0,1.55-.56,2.1-2.11,2.06-3.79-.08-7.58-.1-11.36,0-2.26,.06-2.91-.96-2.9-3.07,.07-9.06,.03-18.12,.03-27.19,0-1.67,0-3.33,0-5.27Z" style="fill:#010101;"/><path d="M198.27,107.65c.02-4.57,.05-9.15,.04-13.72,0-1.28,0-2.48,1.81-2.3,2.95,.64,5.94,.23,8.9,.26,6.47,.08,12.95,.02,19.42,.03,1.69,0,3.42-.05,4.62,1.48,0,4.75,.01,9.5,.02,14.26-11.6,0-23.21,0-34.81,0Z" style="fill:#010101;"/><path d="M396.16,305.69c5.34-.07,10.69-.08,16.03-.22,1.9-.05,1.69,1.12,1.72,2.32,.15,5.23-.35,10.47,.27,15.7-6-.08-12.01-.16-18.01-.25-.49-5.85-.48-11.7,0-17.55Z"/><path d="M360.14,251.37c5.07,.07,10.15,.23,15.22,.15,2-.03,2.54,.61,2.48,2.54-.18,5.17-.18,10.34-.25,15.51-5.8-.08-11.6-.15-17.39-.23-.48-5.87-.54-11.75,.04-17.62-.01-.12-.04-.24-.1-.35Z"/><path d="M252.27,143.57c0-4.99,.04-9.97-.02-14.96-.01-1.35,.19-1.83,1.79-1.74,3.98,.2,7.98,.15,11.97,.06,2.59-.06,3.84,.74,3.7,3.62-.2,4.38-.05,8.77-.05,13.16-5.8-.04-11.59-.09-17.39-.13Z" style="fill:#030303;"/><path d="M360.32,215.07c1.11-4.09,.32-8.26,.48-12.39,.15-3.96,.06-3.98,4.03-3.99,3.68-.01,7.36,.07,11.04-.06,1.44-.05,1.96,.36,1.95,1.78-.04,4.47-.06,8.95,.02,13.42,.02,1.47-.57,1.86-1.94,1.83-5.17-.11-10.34-.13-15.51-.19,.03-.14,0-.27-.07-.4Z" style="fill:#030303;"/><path d="M305.01,164.1c0,4.05,0,8.1,.02,12.15,0,1.07-.24,2.2,.58,3.12-5.79,.57-11.58,.34-17.37,.13,0-4.61-.01-9.22,.02-13.83,0-.94-.33-1.99,.58-2.75,3.84,.65,7.71,.18,11.57,.26,1.61,.03,3.15,.16,4.6,.92Z" style="fill:#010201;"/><path d="M270.26,161.53c0-4.63,.12-9.26-.05-13.89-.08-2.07,.64-2.56,2.46-2.09,3.22,.63,6.47,.1,9.7,.29,1.16,.07,2.36-.29,3.48,.28,1.67,.29,1.17,1.62,1.18,2.61,.04,4.28,.02,8.56,.02,12.84-5.59,.16-11.19,.27-16.78-.05Z" style="fill:#010202;"/><path d="M324.22,215.43c0-4.37,.07-8.73-.02-13.1-.04-2.04,.08-2.94,2.74-2.47,3.28,.57,6.73,.16,10.1,.19,3.66,.03,3.95,.31,3.95,3.85,0,3.87,0,7.74,0,11.61-5.59,.15-11.19,.29-16.78-.07Z"/><path d="M251.05,111.38c0,3.74,.02,7.47,0,11.21,0,1.09-.02,2.17,.62,3.13-5.8-.04-11.59-.07-17.39-.11,0-4.42-.01-8.83,.02-13.25,0-.94-.34-1.99,.59-2.75,4.05,.63,8.12,.16,12.18,.27,1.54,.04,2.99,.12,3.98,1.51Z" style="fill:#010101;"/><path d="M273.85,305.59c1.1,4.83,.63,9.73,.52,14.59-.08,3.59-2.18,6.42-6.67,6.34-10.19-.19-20.38,0-30.57-.11-2.23-.02-2.98,.63-2.89,2.88,.16,3.99,.05,7.99,.05,11.98-1.1-2.64-.3-5.39-.45-8.08-.18-3.24-.13-6.5-.18-9.76,5.63,.95,11.31,.34,16.96,.44,5.67,.11,11.34-.04,17,.05,2.78,.04,3.98-1.01,3.87-3.88-.16-4.07,.24-8.17-.16-12.21-.25-2.55,.74-2.56,2.52-2.25Z" style="fill:#000101;"/><path d="M431.53,377.2c0-17.84,0-35.68,0-53.52,.77,.98,.36,2.12,.36,3.17,.03,15.77,.02,31.54,.03,47.31,0,1.08,.16,2.17,.24,3.25-.21-.07-.42-.14-.63-.21Z" style="fill:#000101;"/><path d="M396.16,305.69c0,5.85,0,11.7,0,17.55-.83-4.23-.11-8.5-.36-12.74-.1-1.68,.3-3.38-.27-5.03,.21,.07,.42,.15,.63,.22Z" style="fill:#000100;"/><path d="M360.24,251.72c-.01,5.87-.03,11.75-.04,17.62-.91-4.01-.17-8.08-.4-12.11-.11-1.88-.15-3.77-.22-5.65,0,0-.05,.05-.05,.05,.24,.03,.48,.06,.72,.09Z" style="fill:#030504;"/><path d="M504.01,197.7c.01,10.88-.04,21.76,.09,32.63,.03,2.62-.84,3.57-3.45,3.46-3.59-.16-7.2,.09-10.79-.08-2.86-.14-3.87,.93-3.85,3.81,.1,15.17,.05,30.35,.04,45.52q0,4.62-4.69,4.63c-3.3,0-6.59,.03-9.89,0-2.24-.02-3.37,1.08-3.38,3.26-.02,9.88-.02,19.77,0,29.65,0,2.61,1.54,3.35,3.92,3.34,9.59-.05,19.18,.07,28.77-.08,2.53-.04,3.35,.72,3.15,3.2-.37,4.72,.49,9.49-.47,14.2-1.61-2.13-.88-4.6-.92-6.92-.16-7.51,.77-6.88-6.93-6.91-7.76-.03-15.53,0-23.29-.01-1.48,0-3.01,.12-4.27-.95,.16-2.33-.69-3.23-3.24-3.07-4.28,.27-8.59,.02-12.88,.1-1.55,.03-2.07-.46-2.06-2.03,.06-10.68,.06-21.36,0-32.04-.01-1.69,.71-1.96,2.15-1.94,4.19,.07,8.4-.19,12.58,.1,2.91,.2,3.38-.9,3.36-3.5-.11-15.77,.02-31.54-.13-47.31-.02-2.69,.71-3.39,3.31-3.25,4.08,.23,8.19-.05,12.28,.11,1.95,.08,2.75-.55,2.63-2.45,2.35-1.62,5.02-.86,7.55-.92,6.74-.14,6.5,.58,6.51-6.5,0-7.26-.02-14.52,.02-21.78,0-1.47-.22-3.02,.94-4.25,.98-.02,1.96-.03,2.94-.05Z"/><path d="M468.06,326.46c10.86,0,21.73,.06,32.59-.05,2.25-.02,2.96,.66,2.87,2.89-.16,3.98-.04,7.97-.04,11.95-4.77,.06-9.54,.28-14.3,.13-2.51-.08-3.52,.4-3.34,3.19,.28,4.16-.01,8.35,.11,12.52,.05,1.82-.49,2.4-2.34,2.36-5.17-.11-10.35-.02-15.52-.02-.29-10.99-.25-21.98-.02-32.98Z"/><path d="M540.07,125.73c0,10.65-.1,21.3,.03,31.95,.03,2.74-.81,3.81-3.58,3.62-2.68-.18-5.38-.04-8.07-.04q-5.79,0-5.79,5.64c0,8.66,0,17.33,0,25.99,0,3.94-.36,4.22-4.25,4.33-4.77,.14-9.56-.47-14.31,.41-.06-11.34-.08-22.67-.2-34.01-.02-1.68,.67-1.97,2.12-1.94,4.28,.07,8.57-.17,12.84,.1,2.56,.16,3.37-.76,3.21-3.07,1.19-1.27,2.77-1.46,4.38-1.51,1.89-.06,3.78-.01,5.66-.04,3.77-.05,3.98-.23,3.99-4.12,.03-7.65-.01-15.3,.02-22.94,0-1.46-.22-3.01,.93-4.24,1.01-.04,2.01-.08,3.02-.12Z"/><path d="M504.44,89.81c-4.89,0-9.79-.05-14.68,.03-1.69,.03-2.51-.28-2.43-2.28,.17-4.08,.13-8.18,.03-12.27-.05-2.15,.68-3.06,2.94-3.04,9.79,.07,19.58,.06,29.36,0,1.68-.01,2.3,.55,2.26,2.24-.08,4.39-.1,8.78,.01,13.17,.04,1.72-.54,2.21-2.22,2.18-5.09-.09-10.19-.03-15.28-.03Z" style="fill:#010101;"/><path d="M558.67,35.82c.03-4.67,.1-9.35,.09-14.02,0-1.76,.43-2.85,2.48-2.85,10.35,.02,20.71,.01,31.06-.08,1.81-.02,1.58,1.05,1.6,2.13,.05,4.97,.09,9.94,.14,14.91-11.79-.03-23.57-.06-35.36-.09Z" style="fill:#010101;"/><path d="M556.84,89.91c0,9.94-.09,19.88,.05,29.82,.04,2.8-1.01,3.76-3.65,3.65-2.58-.1-5.18,.09-7.76-.06-2.1-.12-3.91,.29-5.39,1.82-.06-11.22-.09-22.43-.19-33.65-.02-1.61,.8-1.72,2.04-1.7,4.97,.07,9.93,.08,14.9,.12Z"/><path d="M501.08,197.75c0,10.03-.07,20.06,.05,30.08,.03,2.62-.84,3.53-3.44,3.41-3.87-.17-7.75-.04-11.62-.04-.05-10.53-.07-21.06-.17-31.58-.02-1.6,.55-2.03,2.07-1.99,4.37,.11,8.74,.09,13.12,.13Z"/><path d="M537.05,125.85c0,9.72-.08,19.45,.06,29.17,.04,2.53-.79,3.21-3.22,3.14-3.94-.11-7.93-.41-11.83,.54-.05-10.32-.06-20.65-.17-30.97-.02-1.58,.51-2.05,2.05-2.01,4.37,.12,8.74,.09,13.11,.13Z"/><path d="M595.81,17.79c-1.02,.13-1.09-.48-1.08-1.28,.03-4.39,.07-8.77,.02-13.16-.02-1.85,.85-2.4,2.57-2.4,10.18,.04,20.35,.05,30.53,0,2.07-.01,2.81,.82,2.8,2.86-.06,9.57-.07,19.14,0,28.71,.02,2.24-.88,3-3.03,2.94-3.89-.09-7.78-.01-11.67-.01-2.67,0-4.06,1.12-3.95,3.99,.13,3.38-.12,6.79,.07,10.17,.16,2.86-.86,3.87-3.75,3.87-4.77-.01-9.57-.52-14.32,.38,0-6-.01-12-.02-18,5.21,0,10.43,.03,15.64,0,.83,0,1.8,.35,2.43-.59,1.15-2.14,3.19-2.56,5.33-2.66,2.79-.14,5.58-.04,8.37-.07,1.88-.02,2.68-.88,2.68-2.74,0-7.77,.01-15.54,0-23.3,0-1.93-.95-2.63-2.77-2.63-8.47,0-16.94-.06-25.41,.03-2.86,.03-3.36,.66-3.48,3.65-.09,2.29,0,4.58-.05,6.87-.03,1.19,.04,2.42-.91,3.36Z" style="fill:#020202;"/><path d="M468.13,359.39c-.51,5.14-.2,10.29-.17,15.43,.01,2.13-.66,2.66-2.69,2.61-5.05-.13-10.11-.03-15.17-.02-.06-5.46-.08-10.92-.2-16.38-.04-1.69,.96-1.63,2.12-1.62,5.37,.01,10.74,0,16.12-.02Z"/><path d="M396.3,178.75c1.13-4.07,.32-8.22,.47-12.32,.16-4.28,.04-4.29,4.27-4.3,3.49,0,6.98,.08,10.47-.04,1.85-.06,2.46,.66,2.44,2.43-.07,4.38-.02,8.77-.02,13.15,0,1,.13,2.08-1.42,2.01-5.46-.24-10.95,.5-16.39-.43,.09-.16,.15-.33,.2-.51Z" style="fill:#050505;"/><path d="M540.82,53.7c1.19-4.32,.36-8.72,.52-13.08,.16-4.28,.04-4.37,4.35-4.27,4.08,.09,8.17-.44,12.23,.31,0,4.95-.08,9.9,.02,14.85,.04,1.75-.35,2.47-2.28,2.4-4.95-.18-9.9-.15-14.85-.2Z" style="fill:#020202;"/><path d="M414.3,160.79c1.14-3.86,.34-7.8,.48-11.7,.15-4.31,.04-4.31,4.3-4.32,3.38,0,6.77,.07,10.15-.03,1.84-.06,2.76,.4,2.71,2.46-.11,4.17-.03,8.35-.03,12.53,0,1.02,.1,2.06-1.44,1.99-5.45-.24-10.93,.49-16.36-.42,.09-.16,.15-.33,.19-.5Z" style="fill:#020202;"/><path d="M450.29,124.86c1.14-3.86,.34-7.81,.48-11.71,.15-4.32,.04-4.32,4.3-4.33,3.48,0,6.97,.07,10.45-.03,1.85-.06,2.45,.67,2.42,2.45-.08,4.18-.02,8.36-.02,12.54,0,1.02,.11,2.06-1.44,1.99-5.46-.23-10.94,.48-16.38-.41,.08-.16,.14-.32,.19-.49Z" style="fill:#020202;"/><path d="M449.91,135.8c-.29,2.24,1.24,5.91-.62,7.49-1.59,1.35-5.14,.46-7.82,.43-2.57-.03-5.88,1.07-7.52-.46-1.66-1.55-.42-4.88-.52-7.43-.09-2.29,.05-4.58-.03-6.87-.08-2.09,.85-2.83,2.87-2.78,3.79,.08,7.58,.07,11.36,0,1.67-.04,2.36,.58,2.3,2.25-.07,2.29-.02,4.58-.02,7.38Z" style="fill:#020202;"/><path d="M476.99,107.78c-2.29-.22-5.85,1.17-7.62-.53-1.78-1.71-.54-5.29-.54-8.05,0-9.86-1.07-8.21,8.45-8.36,1.8-.03,3.61,.13,5.39-.04,2.4-.22,3.43,.51,3.3,3.11-.2,3.98-.1,7.98-.03,11.97,.02,1.4-.41,1.98-1.87,1.91-2.19-.1-4.39-.02-7.07-.02Z" style="fill:#020202;"/><path d="M395.82,189.27c-.11,2.67,1.24,6.17-.39,7.8-1.76,1.77-5.29,.5-8.04,.54-2.68,.04-6.19,1.14-7.78-.46-1.26-1.27-.2-4.84-.19-7.38,.01-2.29,.08-4.59-.01-6.88-.09-2.09,.84-2.84,2.85-2.8,3.69,.07,7.39,.09,11.07-.02,1.75-.05,2.6,.43,2.52,2.32-.1,2.29-.02,4.58-.02,6.88Z" style="fill:#030403;"/><path d="M531.17,71.73c-2.59,0-5.85,.92-7.55-.31-1.18-.86-.24-4.66-.24-7.15,0-2.39,.03-4.79,0-7.18-.02-1.49,.65-2.19,2.16-2.18,4.29,0,8.59,0,12.88-.08,1.31-.03,1.49,.66,1.49,1.67,0,4.59-.04,9.18,.02,13.77,.02,1.43-.72,1.61-1.87,1.59-2.3-.04-4.59-.01-6.89-.01,0-.04,0-.07,0-.11Z" style="fill:#010201;"/><path d="M594.05,323.46c.02,4.79-.06,9.58,.09,14.36,.08,2.56-1.12,3.36-3.41,3.34-3.59-.03-7.19,.13-10.78-.01-2.53-.1-3.29,.96-3.27,3.37,.08,9.68,.04,19.36,.02,29.04,0,3.7-.44,4.13-4.14,4.17-3,.03-5.99,0-8.99,0q-5.46,0-5.46,5.6c0,8.78-.09,17.56,.05,26.34,.04,2.65-.85,3.46-3.42,3.45-4.88-.01-9.78-.41-14.65,.27-.01-1.02-.03-2.04-.04-3.06,2.35-1.63,5.02-.86,7.54-.92,7.57-.16,7.06,.75,7.08-7.12,.02-6.86-.02-13.72,.02-20.57,0-1.47-.22-3.02,.94-4.24,1.72,.12,2.36-.49,2.33-2.39-.11-10.17,.07-20.35-.13-30.52-.05-2.78,.83-3.32,3.35-3.19,4.18,.2,8.38-.02,12.57,.09,1.72,.05,2.23-.51,2.19-2.2-.11-4.39,.07-8.78-.08-13.16-.07-2.04,.45-2.76,2.61-2.7,5.19,.16,10.38,.05,15.57,.05Z" style="fill:#010101;"/><path d="M684.36,197.65c-5.09,0-10.18-.06-15.26,.03-1.76,.03-2.48-.43-2.41-2.34,.14-3.98,.11-7.97,.02-11.96-.05-2.27,.84-3.28,3.16-3.27,9.98,.04,19.95,.03,29.93-.02,1.53,0,2.12,.47,2.1,2.05-.07,4.58-.08,9.17,0,13.76,.03,1.56-.67,1.78-1.98,1.77-5.19-.05-10.37-.02-15.56-.02Z" style="fill:#010101;"/><path d="M576.32,269.54c-5.19,0-10.39-.04-15.58,.02-1.49,.02-2.09-.34-2.03-2.01,.15-4.09,.1-8.18,.05-12.27-.03-1.91,.75-2.69,2.67-2.68,10.29,.02,20.57,.01,30.86-.07,1.5-.01,1.62,.71,1.62,1.83-.01,4.49-.06,8.98,.03,13.47,.03,1.61-.77,1.75-2.03,1.74-5.19-.04-10.39-.02-15.58-.02Z" style="fill:#010101;"/><path d="M555.64,377.49c0,9.78-.09,19.57,.06,29.35,.04,2.83-.93,3.68-3.65,3.55-3.99-.19-7.99-.05-11.99-.05-.04-10.32-.06-20.64-.16-30.97-.02-1.57,.49-2.05,2.04-2.01,4.57,.12,9.14,.1,13.7,.13Z"/><path d="M612.04,305.49c.02,4.99-.04,9.98,.11,14.97,.06,2.18-.92,2.73-2.86,2.77-5.09,.11-10.19-.35-15.27,.28-.03-5.36-.02-10.71-.13-16.07-.04-1.62,.56-2,2.07-1.98,5.36,.08,10.72,.03,16.09,.03Z" style="fill:#020202;"/><path d="M504.79,314.81c0-8.88,0-8.94,8.9-8.84,2.64,.03,6-1.23,7.72,.62,1.57,1.68,.5,4.95,.46,7.51-.04,3.05,1.35,7.11-.6,8.85-1.69,1.51-5.68,.54-8.65,.49-2.56-.04-5.94,1.13-7.43-.56-1.25-1.42-.35-4.71-.41-7.18,0-.3,0-.6,0-.9Z" style="fill:#010201;"/><path d="M602.69,251.57c-2.26-.34-5.94,1.27-7.52-.66-1.34-1.63-.38-5.14-.41-7.82-.02-2.1,.02-4.19,0-6.29-.02-1.5,.66-2.17,2.17-2.17,4.5,0,8.99,0,13.49-.08,1.32-.03,1.48,.66,1.48,1.66,0,4.59-.04,9.19,.02,13.78,.02,1.43-.7,1.62-1.86,1.6-2.3-.04-4.6-.01-7.37-.01Z" style="fill:#020202;"/><path d="M557.91,279.5c-.26,2.25,1.2,5.81-.57,7.55-1.62,1.59-5.14,.48-7.81,.43-2.66-.05-6.19,1.22-7.72-.59-1.3-1.53-.4-4.94-.43-7.51-.03-2.3,.03-4.59,0-6.89-.03-1.77,.75-2.53,2.53-2.51,4,.04,7.99,.05,11.99-.02,1.61-.03,2.09,.66,2.04,2.15-.07,2.29-.02,4.59-.02,7.39Z" style="fill:#020202;"/><path d="M522.96,305.49c.79-4.8,.42-9.29,.37-13.75-.03-2.51,.84-3.34,3.29-3.23,3.68,.16,7.37,.1,11.05,.01,1.67-.04,2.31,.52,2.27,2.23-.08,4.28-.07,8.56,0,12.84,.02,1.38-.37,1.95-1.84,1.93-4.97-.07-9.94-.03-15.13-.03Z" style="fill:#010201;"/><path d="M198.88,413.34c5.03,0,10.1,.03,15.18-.02,1.26-.01,1.77,.35,1.76,1.68-.04,10.66-.05,21.31,0,31.97,0,1.71-.89,1.91-2.26,1.89-3.89-.05-7.78-.11-11.66,.01-2.43,.08-3.06-1-3.04-3.24,.08-9.16,.03-18.32,.03-27.49,0-1.48,0-2.97,0-4.81Z"/><path d="M126.36,269.41c0-3.88,.08-7.77-.03-11.64-.05-1.87,.45-2.66,2.49-2.64,9.56,.09,19.12,.09,28.68,0,2.08-.02,2.51,.84,2.46,2.67-.1,3.88-.03,7.76-.03,11.64-11.19-.01-22.38-.02-33.58-.03Z" style="fill:#000100;"/><path d="M161.77,377.37c-4.57,.06-9.15,.07-13.72,.19-2.26,.06-3.23-.8-3.2-3.15,.07-4.57,.02-9.15-.2-13.72-.06-1.32,.52-1.26,1.31-1.26,4.78-.02,9.56,.03,14.34-.04,1.5-.02,1.53,.82,1.52,1.9-.05,5.37-.07,10.74-.1,16.12,0,0,.05-.05,.05-.05Z" style="fill:#020202;"/><path d="M54.81,268.69c.03-5.06,.12-10.12,.04-15.18-.02-1.29-.06-1.99,1.56-1.96,4.58,.09,9.16,.06,13.73,0,1.3-.02,1.73,.42,1.72,1.71-.06,4.57-.09,9.15,0,13.73,.04,1.76-.67,2.18-2.3,2.16-4.77-.07-9.53,0-14.3,.01-.15-.15-.31-.31-.46-.46Z" style="fill:#010101;"/><path d="M117.25,305.49c2.29,0,4.59,.06,6.88-.03,1.31-.05,1.73,.45,1.71,1.73-.06,4.59-.06,9.17,0,13.76,.02,1.51-.46,2.14-2.05,2.1-4.09-.09-8.18-.07-12.27-.02-1.94,.03-2.65-.84-2.63-2.72,.04-4.49,.08-8.98-.1-13.46-.06-1.51,.71-1.35,1.58-1.36,2.29-.02,4.59,0,6.88-.01Z" style="fill:#020202;"/><path d="M53.84,233.62c-5.97,.03-11.94,.06-17.92,.09,0,0-.14-.16-.14-.16-.58-.61-.82-1.36-.84-2.16-.15-4.45-.13-8.89-.02-13.34,.02-.91,.3-1.75,.92-2.45l-.05,.05c6.01-.02,12.03-.03,18.04-.05,0,6.01,0,12.02,0,18.02Z" style="fill:#46e372;"/><path d="M595.81,17.79c0-3.78,.06-7.57-.02-11.35-.06-2.57,1.09-3.55,3.61-3.53,9.17,.06,18.33,.05,27.5,0,1.7,0,2.54,.37,2.52,2.3-.08,8.66-.08,17.33,0,25.99,.02,1.93-.8,2.38-2.51,2.31-2.49-.09-4.99,.1-7.47-.06-2.69-.18-5.13,.36-7.38,1.82-.05-4.96-.18-9.91-.11-14.87,.03-1.88-.42-2.59-2.45-2.54-4.56,.12-9.13-.03-13.69-.08Z" style="fill:#010101;"/><path d="M233.06,93.4c-1.9-.97-3.91-1.24-6.04-1.22-7.94,.06-15.88,.04-23.81,0-1.05,0-2.21,.39-3.1-.56,9.68,0,19.37-.02,29.05,0,1.54,0,3.3-.33,3.9,1.78Z" style="fill:#030303;"/><path d="M251.05,111.38c-2.19-1.58-4.71-1.06-7.15-1.23-3-.21-6.08,.72-9.01-.55,4.29,0,8.58-.03,12.87,0,1.38,0,2.89-.09,3.3,1.78Z" style="fill:#030303;"/><path d="M305.01,164.1c-4.31-1.04-8.7-.44-13.06-.62-1.05-.04-2.21,.39-3.11-.57,4.13,0,8.27,0,12.4-.02,1.39,0,2.78-.04,3.76,1.2Z" style="fill:#030303;"/><path d="M285.84,146.13c-3.46,0-6.92,.02-10.39-.01-.95,0-2,.32-2.79-.56,3.47,0,6.93-.04,10.39,0,.95,0,2.01-.32,2.78,.58Z" style="fill:#030303;"/><path d="M197.72,89.83c-5.09,0-10.18,.08-15.26-.06-2.03-.06-2.8,.43-2.71,2.6,.17,4.18,0,8.37,.07,12.56,.03,1.72-.38,2.53-2.33,2.46-3.78-.14-7.58-.11-11.37-.02-1.87,.04-2.69-.53-2.68-2.55,.07-9.97,.07-19.93,0-29.9-.01-1.9,.59-2.67,2.57-2.66,9.87,.06,19.75,.03,29.62,.03,1.14,0,2.44,.03,2.42,1.53-.07,5.36,.62,10.74-.4,16.07,0,0,.06-.05,.06-.05Z" style="fill:#010101;"/><path d="M197.67,107.72c.04,11.35,.05,22.71,.16,34.06,.01,1.67-.84,2.08-2.17,2.09-3.99,.03-7.97,0-11.96,0-2.18,0-2.22-1.5-2.22-3.09,.01-9.66,.01-19.32,0-28.99,0-4.01-.03-4.01,3.99-4.01,4.09,0,8.17,0,12.26,0,0,0-.05-.05-.05-.05Z" style="fill:#010101;"/><path d="M35.86,215.6c-.02,5.98-.04,11.97-.07,17.95-4.59,.07-9.18,.12-13.76,.2-1.52,.03-2.47-.41-2.51-2.17-.12-4.98,.29-9.97-.23-14.95-.18-1.7,1.25-.95,1.88-.96,4.89-.09,9.79-.06,14.68-.07Z" style="fill:#010101;"/></g></g></svg>