<svg width="804" height="999" xmlns="http://www.w3.org/2000/svg" xmlns:xlink="http://www.w3.org/1999/xlink" xml:space="preserve" overflow="hidden"><defs><clipPath id="clip0"><path d="M1471.79 770.27 1259.84 786.665 1277.13 1010.23 1489.08 993.837Z" fill-rule="evenodd" clip-rule="evenodd"/></clipPath><clipPath id="clip1"><path d="M1471.79 770.27 1259.84 786.665 1277.13 1010.23 1489.08 993.837Z" fill-rule="evenodd" clip-rule="evenodd"/></clipPath><clipPath id="clip2"><path d="M1471.79 770.27 1259.84 786.665 1277.13 1010.23 1489.08 993.837Z" fill-rule="evenodd" clip-rule="evenodd"/></clipPath><clipPath id="clip3"><path d="M1424.96 852.116 1306.76 851.007 1305.62 972.905 1423.82 974.014Z" fill-rule="evenodd" clip-rule="evenodd"/></clipPath><clipPath id="clip4"><path d="M1424.96 852.116 1306.76 851.007 1305.62 972.905 1423.82 974.014Z" fill-rule="evenodd" clip-rule="evenodd"/></clipPath><clipPath id="clip5"><path d="M1424.96 852.116 1306.76 851.007 1305.62 972.905 1423.82 974.014Z" fill-rule="evenodd" clip-rule="evenodd"/></clipPath></defs><g transform="translate(-1007 -418)"><path d="M1518.91 571.442 1807.68 748.263 1785.47 784.531 1496.71 607.71Z" stroke="#000000" stroke-width="4.58333" stroke-miterlimit="8" fill-rule="evenodd"/><path d="M1509.32 453.171C1529.05 420.941 1571.18 410.812 1603.41 430.548L1655.8 462.631C1688.03 482.366 1698.16 524.493 1678.42 556.722L1546.81 771.659C1527.07 803.889 1484.95 814.017 1452.72 794.282L1400.32 762.199C1368.09 742.464 1357.97 700.337 1377.7 668.108Z" stroke="#A6A6A6" stroke-width="4.58333" stroke-miterlimit="8" fill="#A6A6A6" fill-rule="evenodd"/><path d="M1409.7 959.424 1547.37 813.731 1500.48 966.613 1616.69 967.803 1552.92 1040.57 1661.72 1092.08 1554.36 1138.34 1638.71 1245.4 1517 1205.4 1514.98 1363.77 1432.96 1231.89 1375.8 1380.92 1338.69 1223.96 1238.62 1405.36 1260.42 1226.47 1169.5 1265.95 1218.88 1164.38 1070.13 1148.64 1183.34 1089.18 1108.47 973.756 1236.07 973.678 1162.41 791.896 1315.14 952.712 1370.46 841.934Z" stroke="#8FAADC" stroke-width="4.58333" stroke-miterlimit="8" fill="#8FAADC" fill-rule="evenodd"/><g clip-path="url(#clip0)"><g clip-path="url(#clip1)"><g clip-path="url(#clip2)"><path d="M55.0396-8015.05C62.9577-8020.12 74.9179-8032.7 68.7762-8042.51 66.2834-8046.35 62.5646-8048.77 60.0631-8049.15 51.644-8050.2 42.6164-8048.01 42.2291-8039.86 39.614-8042.13 33.5887-8050.14 31.5036-8052.85 35.0477-8058.79 36.5213-8064 38.8743-8070.32 40.4381-8080.37 33.382-8073.17 29.4855-8072.65 28.74-8072.56 28.1314-8073.2 28.2828-8073.96 29.1302-8078.1 33.2509-8084.65 29.2729-8084.59 26.8471-8084.59 22.8837-8082.61 20.5365-8082.03 18.7979-8081.59 17.6738-8081.74 16.4595-8083.43 15.2451-8085.14 21.9489-8092.07 15.4897-8091.4-6.10969-8082.76-23.9204-8083.63-42.0252-8075.33-60.13-8067.03-80.3695-8051.54-78.6222-8037.47-94.0129-8043.41-106.978-8035.46-111.358-8024.8-114.969-8016.01-112.747-8005.38-101.238-7999.21-96.2407-7996.88-90.396-7997.52-84.9299-7998.65-84.9299-7993.88-85.5385-7990.09-89.202-7984.27-98.9257-7961.93-107.444-7938.52-104.613-7913.97-104.587-7911.32-102.682-7906.1-100.364-7905.64-98.8005-7905.32-96.9716-7908.96-95.7019-7910.3-93.0897-7913.44-89.9184-7909.75-90.7717-7906.72-91.0454-7899.14-85.8531-7898.27-83.4272-7898.27-79.2832-7898.04-77.5534-7905.61-76.1964-7905.35-74.8364-7905.11-74.7257-7902.58-74.6908-7902.49-70.905-7892.5-66.1029-7896.26-60.3718-7896.9-58.0653-7897.16-54.7134-7896.12-52.1653-7893.9-50.0831-7891.98-48.6183-7889.71-45.9508-7888.46-39.6897-7885.28-34.7478-7890.93-28.7662-7891.6-23.2389-7892.01-17.7728-7890.09-12.4727-7888.81-6.2815-7887.29-0.0407701-7886.51 6.31645-7887.2 14.4472-7888.11 30.7348-7890.96 35.534-7893.99 40.9652-7890.35 44.9723-7892.68 47.1593-7899.26 47.4156-7900.02 48.298-7900.43 49.0464-7900.11 52.0547-7898.77 57.4596-7898.94 58.9943-7901.79 60.8027-7905.52 64.1808-7911.26 68.0656-7910.39 68.3365-7910.33 68.5957-7910.21 68.8286-7910.06 72.4601-7906.98 77.1486-7909.34 77.6786-7913.82 83.1972-7935.55 72.7309-7968.54 63.3946-7995.92 61.3531-8001.65 57.71-8009.43 55.0396-8015.05Z" fill="#FFFFFF" transform="matrix(-0.997022 0.0771216 0.0771216 0.997022 1974.65 8857.17)"/><path d="M10.0819-7883.42C0.829962-7883.62-7.90357-7885.95-15.5829-7891.72-15.8217-7891.83-15.9382-7892.13-15.8596-7892.39-15.813-7892.65-15.5887-7892.85-15.3179-7892.85-11.2671-7891.66-7.48713-7890-3.26743-7889.42 4.60411-7888.31 12.7843-7888.75 20.3676-7891.25 23.7427-7892.33 26.984-7894.22 30.5513-7894.48 32.9306-7898.04 37.6366-7897.05 40.9535-7895.45 40.971-7895.48 41.0089-7895.53 41.0234-7895.53 41.0118-7895.53 40.9768-7895.48 40.9652-7895.5 42.0835-7900.11 44.3112-7907.01 49.9608-7904.79 50.5316-7904.5 50.9917-7904.07 51.2596-7903.48 51.679-7902.32 52.8235-7901.62 54.0437-7901.71 56.0618-7901.62 56.5248-7903.98 57.1101-7905.55L57.1101-7905.55C58.8341-7912.74 65.0836-7914.46 71.4583-7911.84L71.4612-7911.84C75.0315-7910.15 75.081-7913.44 75.7246-7916.62 79.7667-7941.14 70.7565-7962.69 64.2536-7986.51 61.391-7995.57 58.1032-8005.15 53.901-8016.68 53.7466-8017.06 54.3844-8017.32 54.5737-8016.97 63.0364-8002.76 71.5224-7981.53 76.7846-7964.17 81.0043-7949.73 84.892-7935.9 83.5204-7920.96 81.7906-7908.64 80.154-7901.33 65.8932-7905.93 64.8186-7905.93 64.4924-7905.26 64.1459-7904.3 62.2763-7896.64 56.0589-7891.95 48.5251-7896.15L48.5193-7896.12 48.5193-7896.12C47.4709-7889.71 42.2291-7886.65 36.3494-7889.85 35.8544-7887.18 32.3074-7886.62 30.6183-7888.54 24.6717-7884.55 17.0972-7883.59 10.0819-7883.42Z" fill="#4472C4" transform="matrix(-0.997022 0.0771216 0.0771216 0.997022 1974.65 8857.17)"/><path d="M-50.3161-7886.51C-52.4303-7886.51-53.435-7888.6-54.23-7890.26-55.2056-7892.65-57.0927-7894.51-59.3088-7895.77-62.8587-7888.43-74.2656-7891.92-76.9506-7898.53-84.6183-7891.11-93.5353-7897.4-93.18-7907.09-99.0451-7900.31-104.788-7902.93-107.208-7910.88-109.013-7917.84-109.156-7925.7-108.178-7933.77-106.101-7950.92-98.9781-7969.15-91.9191-7982.26-90.0582-7985.55-86.1006-7991.72-85.4716-7991.34-84.8396-7990.96-88.573-7983.25-89.8631-7979.29-96.2116-7962.28-108.344-7927.39-99.8255-7910.09-98.585-7911.4-96.3513-7913.06-95.0846-7914.38-89.1991-7918.19-86.9713-7908.81-86.5316-7904.62-85.7191-7900.02-80.8937-7901.94-79.7608-7906.13-79.3502-7907.59-78.0252-7908.81-76.4555-7908.75-74.3879-7908.84-73.1532-7906.95-72.6698-7905.14-71.6854-7902.58-70.4332-7899.76-68.0482-7898.8-65.1069-7897.11-60.1097-7902.9-59.2215-7897.81-54.5387-7898.15-48.5543-7894.78-47.4797-7890.17-47.0749-7888.4-48.4465-7886.48-50.3161-7886.51Z" fill="#4472C4" transform="matrix(-0.997022 0.0771216 0.0771216 0.997022 1974.65 8857.17)"/><path d="M-93.6693-7993.76C-110.059-7993.56-120.05-8012.43-113.734-8026.73-108.812-8040.68-90.6086-8047.34-78.2553-8038.75-75.7945-8036.98-72.3931-8033.95-71.9242-8031.21-80.4044-8038.99-96.2319-8040.33-104.267-8030.74-117.427-8015.89-104.31-7994.31-85.0056-8001.54-84.1873-8001.77-83.2583-8001.42-82.903-8000.63-82.1342-7996-89.9912-7993.64-93.6693-7993.76Z" fill="#4472C4" transform="matrix(-0.997022 0.0771216 0.0771216 0.997022 1974.65 8857.17)"/><path d="M-86.6277-8012.83C-89.8893-8013.42-87.2159-8018.14-85.591-8019.36-90.2504-8019.91-94.971-8019.1-99.345-8017.47L-98.9169-8017.23C-98.2035-8016.71-100.929-8016.91-101.022-8016.82-101.812-8016.56-102.385-8017.61-101.832-8018.19-96.2844-8024.69-86.4966-8027.16-78.3805-8024.95-76.042-8024.08-74.3326-8021.63-75.7566-8019.5-78.0514-8016.97-81.6945-8018.6-84.5251-8019.15-85.0027-8017.41-85.2211-8015.63-85.4424-8013.83-85.5065-8013.24-86.0307-8012.81-86.6277-8012.83L-86.6277-8012.83Z" fill="#4472C4" transform="matrix(-0.997022 0.0771216 0.0771216 0.997022 1974.65 8857.17)"/><path d="M59.8621-8015.86C57.4858-8015.72 55.4124-8017.09 56.6209-8019.62 58.0828-8023.46 62.7685-8024.86 64.6351-8028.59 71.5893-8041.11 61.3619-8049.79 48.7727-8046.12 46.7662-8045.74 45.1208-8045.31 43.7317-8043.47 43.6356-8043.3 43.3648-8043.32 43.3211-8043.53 42.96-8050.23 56.3355-8052.06 61.3298-8050.78 78.7823-8047.02 75.1334-8019.74 59.8621-8015.86L59.8621-8015.86Z" fill="#4472C4" transform="matrix(-0.997022 0.0771216 0.0771216 0.997022 1974.65 8857.17)"/><path d="M53.2108-8017.09C48.1611-8017.26 46.6381-8022.97 45.5052-8026.87 42.6834-8037.3 35.7787-8045.65 28.7779-8053.6 28.5798-8053.95 28.7749-8054.54 29.2351-8054.48 37.7764-8051.27 44.7481-8042.39 48.8804-8034.21 51.6004-8037.18 55.3978-8038.9 59.4894-8039.19 63.8489-8039.45 63.9537-8033.8 59.7194-8034.09 56.1928-8034.53 52.8992-8033.6 49.757-8032.38 51.5043-8028.91 52.0867-8024.95 54.7338-8021.98 56.5889-8020.44 55.6803-8017.23 53.2108-8017.09Z" fill="#4472C4" transform="matrix(-0.997022 0.0771216 0.0771216 0.997022 1974.65 8857.17)"/><path d="M-76.3827-8039.6C-81.3334-8040.44-78.5901-8046.56-77.1894-8049.38-72.0145-8059.4-64.1022-8066.62-54.8532-8072.01-41.5884-8079.76-25.5745-8083.77-10.9497-8086.92-0.888205-8089.05 9.37129-8091.81 19.2639-8095.1 25.1959-8093.73 19.7269-8088.52 19.7298-8084.88L30.7261-8087.5C32.8286-8088.08 35.0448-8085.99 34.3779-8083.86 34.3779-8083.86 32.6801-8077.57 32.6801-8077.57 35.8515-8078.5 42.9192-8080.83 42.3281-8075.21 41.5069-8070.76 40.1148-8066.36 38.4491-8062.17 37.2202-8059.23 35.7961-8055.35 32.4384-8054.51 26.6054-8055.29 35.7903-8068.43 35.7379-8072.39 32.948-8071.89 30.8193-8069.71 28.1925-8069.04 26.3316-8069.07 24.8115-8071.02 25.2891-8072.83 25.2891-8072.83 27.3625-8080.57 27.3625-8080.57 19.1357-8079.12 11.5001-8073.61 14.0802-8087.24-3.49749-8081.85-23.3933-8079.29-40.8691-8072.68-54.594-8067.5-66.828-8059.84-75.279-8046.38-76.0333-8045.01-77.1486-8043.5-76.9448-8041.87-76.7235-8041.14-75.5994-8040.35-74.7752-8040.47-74.9587-8039.89-75.7887-8039.6-76.3827-8039.6Z" fill="#4472C4" transform="matrix(-0.997022 0.0771216 0.0771216 0.997022 1974.65 8857.17)"/></g></g></g><g clip-path="url(#clip3)"><g clip-path="url(#clip4)"><g clip-path="url(#clip5)"><path d="M-5987.96-1411.51C-6006.65-1411.52-6013.97-1412.18-5990.55-1418.5L-5990.55-1418.5C-5977.43-1423.65-5972.45-1411.78-5987.96-1411.51Z" transform="matrix(-0.999956 -0.00938246 -0.00938247 0.999957 -4650.96 2320.8)"/><path d="M-5985.97-1459.2C-5990.33-1459.17-6004.1-1463.47-6001.85-1469.26-6001.26-1470.68-5999.86-1471.92-5998.23-1471.8-5994.02-1470.19-5990.1-1465.04-5984.75-1465.42-5980.57-1465.5-5977.69-1469.82-5978.84-1473.89-5979.95-1478.3-5984.71-1481.5-5986.19-1482.39-5988.7-1488.73-5976.47-1483.45-5975.22-1480.19-5969.2-1472-5975.51-1458.68-5985.97-1459.2Z" transform="matrix(-0.999956 -0.00938246 -0.00938247 0.999957 -4650.96 2320.8)"/><path d="M-6028.23-1488.9C-6028.74-1488.91-6029.3-1489.04-6029.78-1489.25-6031.26-1489.27-6032.73-1489.96-6033.81-1490.98-6035.58-1491.49-6036.24-1493.58-6036.24-1495.26-6037.02-1498.58-6036.02-1502.23-6035.32-1505.63-6067.49-1505.99-6036.39-1510.75-6026.93-1512.31-6002.33-1515.61-5981.17-1515.01-5957.12-1515.84-5952.54-1516.22-5950.5-1510.13-5953.31-1506.99-5955.75-1504.26-5959.92-1505.69-5963.14-1505.36-5959.15-1486.07-5977.4-1485.19-5974.29-1504.22-5974.44-1504.55-5974.66-1505.02-5974.74-1505.37-5990.58-1505.38-6007.32-1505.27-6023.13-1505.34-6021.5-1501.84-6021.73-1497.34-6023.39-1493.9-6023.68-1492.41-6024.35-1490.63-6025.9-1489.9-6026.49-1489.26-6027.34-1488.89-6028.23-1488.9Z" transform="matrix(-0.999956 -0.00938246 -0.00938247 0.999957 -4650.96 2320.8)"/></g></g></g><path d="M1646.59 962.947 1702.44 937.003 1682.54 988.517 1735.46 979.016 1704.64 1002.96 1772.54 1025.3 1704.39 1031.56 1715.81 1054 1688.21 1055.57 1711.4 1096.01 1659.66 1067.04 1655.02 1095.77 1623 1071.43 1607.31 1095.57 1588.76 1075.07 1566.78 1091.61 1555.96 1072.37 1511.97 1093.35 1520.06 1062.3 1475.23 1044.15 1508.94 1030.15 1472.51 993.859 1527.59 998.225 1500.93 956.699 1557.11 969.722 1557.66 928.004 1602.73 969.632 1630.83 933.492Z" stroke="#8FAADC" stroke-width="4.58333" stroke-miterlimit="8" fill="#8FAADC" fill-rule="evenodd"/><path d="M1192.49 986.19 1250.69 966.052 1225.66 1015.28 1279.27 1011.2 1246.18 1031.9 1311.46 1061.02 1243.02 1060.32 1252.11 1083.8 1224.49 1082.56 1243.45 1125.15 1194.93 1091.07 1187.39 1119.18 1158.01 1091.71 1139.95 1114.14 1123.57 1091.86 1100.03 1106.08 1091.22 1085.84 1045.32 1102.25 1056.53 1072.18 1013.78 1049.57 1048.73 1039.07 1016.17 999.261 1070.53 1009.2 1048.22 965.18 1102.79 983.842 1107.58 942.396 1148.18 988.385 1179.81 955.287Z" stroke="#8FAADC" stroke-width="4.58333" stroke-miterlimit="8" fill="#8FAADC" fill-rule="evenodd"/><path d="M1312.63 1041.12C1311.07 1026 1322.1 1012.48 1337.25 1010.92 1352.4 1009.36 1365.94 1020.36 1367.5 1035.48 1369.05 1050.61 1358.03 1064.13 1342.88 1065.69 1327.73 1067.25 1314.18 1056.25 1312.63 1041.12Z" stroke="#FFC000" stroke-width="4.58333" stroke-miterlimit="8" fill="#FFC000" fill-rule="evenodd"/><path d="M1303.32 1122.87C1301.77 1107.71 1312.79 1094.17 1327.94 1092.61 1343.09 1091.05 1356.63 1102.07 1358.19 1117.22 1359.75 1132.38 1348.73 1145.92 1333.58 1147.48 1318.43 1149.04 1304.88 1138.02 1303.32 1122.87Z" stroke="#FFC000" stroke-width="4.58333" stroke-miterlimit="8" fill="#FFC000" fill-rule="evenodd"/><path d="M1301.36 1207.44C1299.8 1192.29 1310.82 1178.75 1325.97 1177.19 1341.12 1175.63 1354.67 1186.65 1356.23 1201.8 1357.79 1216.95 1346.77 1230.5 1331.62 1232.06 1316.46 1233.61 1302.92 1222.6 1301.36 1207.44Z" stroke="#FFC000" stroke-width="4.58333" stroke-miterlimit="8" fill="#FFC000" fill-rule="evenodd"/></g></svg>