<svg width="1227" height="965" xmlns="http://www.w3.org/2000/svg" xmlns:xlink="http://www.w3.org/1999/xlink" overflow="hidden"><defs><clipPath id="clip0"><rect x="1450" y="677" width="1227" height="965"/></clipPath></defs><g clip-path="url(#clip0)" transform="translate(-1450 -677)"><path d="M92.9366 0C79.7922 0 68.2032 31.7668 61.3596 80.0831L59.8641 93.229 49.4412 73.6545C34.6262 48.7176 20.7073 36.9539 11.1949 44.2739-7.82956 58.9142-2.02136 144.345 24.1682 235.09 30.7156 257.776 37.9168 278.647 45.3331 296.963L65.9729 339.747 63.5773 344.552C62.9115 346.964 62.7072 349.547 63.054 352.184L80.9117 487.978C82.299 498.527 91.9752 505.954 102.525 504.567L115.107 502.912C125.656 501.525 133.083 491.849 131.696 481.299L114.733 352.308 117.196 330.008 116.952 321.539 119.863 310.078C126.755 277.208 131.017 231.798 131.017 181.64 131.017 81.3228 113.968 0 92.9366 0Z" stroke="#000000" stroke-width="4.58333" stroke-miterlimit="8" fill="#7C561E" fill-rule="evenodd" transform="matrix(-0.986334 0.164758 0.164758 0.986334 1907.65 1064.27)"/><path d="M1863.43 1564.42 1885.55 1563.65 1887.55 1564.4 1887.42 1564.17 1908.77 1564.74 1925.56 1593.71 1904.21 1593.14 1895.28 1577.73 1895.53 1584.92C1895.71 1590.02 1891.72 1594.3 1886.62 1594.48L1864.5 1595.25C1859.41 1595.42 1855.13 1591.43 1854.95 1586.34L1854.52 1573.97C1854.34 1568.87 1858.33 1564.59 1863.43 1564.42Z" stroke="#000000" stroke-width="2.29167" stroke-miterlimit="8" fill="#404040" fill-rule="evenodd"/><path d="M2255.85 1081.58C2268.88 1079.78 2284.73 1109.66 2298.13 1156.59L2301.41 1169.41 2309.07 1148.59C2320.34 1121.86 2332.53 1108.3 2342.97 1114.25 2363.84 1126.16 2369.78 1211.58 2356.24 1305.07 2352.85 1328.44 2348.57 1350.1 2343.72 1369.26L2340.73 1378.52 2340.88 1378.63C2348.37 1386.11 2353 1396.44 2353 1407.85 2353 1419.26 2348.37 1429.59 2340.88 1437.07L2334.52 1441.35 2334.52 1572.23C2334.52 1582.87 2325.89 1591.5 2315.24 1591.5L2302.53 1591.5C2291.88 1591.5 2283.25 1582.87 2283.25 1572.23L2283.25 1437.65 2282.39 1437.07C2274.9 1429.59 2270.27 1419.26 2270.27 1407.85L2272.8 1395.36 2271.61 1392.45C2260.28 1360.83 2249.83 1316.42 2242.96 1266.73 2229.22 1167.35 2234.99 1084.45 2255.85 1081.58Z" stroke="#000000" stroke-width="6.875" stroke-miterlimit="8" fill="#7C561E" fill-rule="evenodd"/><path d="M2286.33 1565 2308.67 1565 2310.67 1565.81 2310.55 1565.58 2332.07 1566.88 2348 1596 2326.47 1594.7 2318 1579.21 2318 1586.31C2318 1591.34 2313.83 1595.42 2308.67 1595.42L2286.33 1595.42C2281.18 1595.42 2277 1591.34 2277 1586.31L2277 1574.11C2277 1569.08 2281.18 1565 2286.33 1565Z" stroke="#000000" stroke-width="2.29167" stroke-miterlimit="8" fill="#404040" fill-rule="evenodd"/><path d="M1686 1040C1652.13 1105.29 1618.26 1170.57 1584.39 1199.46 1550.52 1228.35 1499.71 1234.7 1482.78 1213.33 1465.84 1191.95 1474.31 1131.57 1482.78 1071.2" stroke="#000000" stroke-width="45.8333" stroke-miterlimit="8" fill="none" fill-rule="evenodd"/><path d="M1689.5 1040.5C1655.79 1105.79 1622.08 1171.07 1588.37 1199.96 1554.65 1228.85 1504.09 1235.2 1487.23 1213.83 1470.38 1192.45 1478.8 1132.07 1487.23 1071.7" stroke="#A07737" stroke-width="30.9375" stroke-miterlimit="8" fill="none" fill-rule="evenodd"/><path d="M1534.42 995.756C1551.88 996.208 1570.7 1002.43 1587.16 1013.69L1594.03 1019.41 1592.24 1018.6C1589.17 1017.57 1586.03 1016.89 1582.86 1016.59 1570.17 1015.41 1559.35 1020.64 1552.11 1030.07L1550.65 1033.21 1548.51 1033.92 1548.42 1037.96 1544.17 1047.06 1543.36 1060.68 1541.12 1066.97C1534.07 1080.05 1523.65 1089.72 1512.51 1094.78L1503.32 1096.94 1503.14 1098 1502.51 1097.12 1495.58 1098.75C1489.98 1098.83 1484.52 1097.6 1479.55 1094.91 1459.64 1084.18 1454.95 1054.27 1469.06 1028.11 1479.64 1008.48 1497.79 996.541 1514.6 996.322L1518.53 997.262 1520.82 996.638C1525.21 995.925 1529.77 995.635 1534.42 995.756Z" stroke="#000000" stroke-width="5.72917" stroke-miterlimit="8" fill="#603E27" fill-rule="evenodd"/><path d="M2252.44 788.5C2265.72 788.5 2278.37 791.196 2289.87 796.069L2298.89 802.158 2318.78 809.313C2387.19 847.833 2422.63 968.962 2399.37 1102.68 2389.41 1159.98 2370.07 1211.46 2345.14 1252.61L2329.26 1274.98 2328.32 1277.55C2324.42 1285.53 2318.66 1293.24 2311.24 1300.57L2297.69 1311.02 2288.93 1319.81C2268.45 1336.73 2246.59 1347.73 2224.48 1351.46L2210.49 1352.66 2205.02 1354.55C2158.23 1367.78 2101.83 1375.5 2041.11 1375.5 1939.91 1375.5 1850.69 1354.04 1798.01 1321.41L1779.55 1307.18 1763.26 1322.66C1751.57 1331.32 1738.72 1336.11 1725.22 1336.11 1671.25 1336.11 1627.5 1259.51 1627.5 1165.02 1627.5 1082.34 1661 1013.36 1705.53 997.404L1715.1 995.715 1718.78 993.536 2023.38 852.529 2024.99 847.323C2039.59 812.756 2073.77 788.5 2113.6 788.5Z" stroke="#000000" stroke-width="6.875" stroke-miterlimit="8" fill="#A07737" fill-rule="evenodd"/><path d="M2016.5 888.144C2016.5 833.112 2061.11 788.5 2116.14 788.5L2245.86 788.5C2300.89 788.5 2345.5 833.112 2345.5 888.144L2345.5 1081.86C2345.5 1136.89 2300.89 1181.5 2245.86 1181.5L2116.14 1181.5C2061.11 1181.5 2016.5 1136.89 2016.5 1081.86Z" stroke="#000000" stroke-width="4.58333" stroke-miterlimit="8" fill="#A07737" fill-rule="evenodd"/><path d="M1818.12 1109.21C1851.7 1116.37 1861.97 1201.71 1841.05 1299.82 1830.59 1348.87 1814.31 1391.83 1796.45 1421.64L1789.41 1431.85 1788.03 1440.22 1785.06 1447.48 1805 1609.05C1806.62 1622.23 1797.26 1634.24 1784.08 1635.86L1768.36 1637.8C1755.18 1639.43 1743.17 1630.06 1741.55 1616.88L1721.53 1454.66 1706.31 1436.6C1687.85 1407.16 1670.71 1364.54 1659.26 1315.7 1636.36 1218.04 1644.9 1132.51 1678.34 1124.67 1695.06 1120.75 1714.83 1136.99 1733.29 1166.43L1745.85 1189.12 1750.99 1176.77C1771.99 1131.85 1797.12 1104.73 1818.12 1109.21Z" stroke="#000000" stroke-width="6.875" stroke-miterlimit="8" fill="#A07737" fill-rule="evenodd"/><path d="M1746.93 1598.02 1775.76 1596.34 1778.4 1597.25 1778.22 1596.96 1806.09 1597.05 1828.89 1634.33 1801.01 1634.23 1788.89 1614.41 1789.44 1623.79C1789.82 1630.44 1784.75 1636.14 1778.1 1636.53L1749.27 1638.21C1742.62 1638.6 1736.92 1633.52 1736.53 1626.87L1735.59 1610.76C1735.21 1604.11 1740.28 1598.41 1746.93 1598.02Z" stroke="#000000" stroke-width="2.29167" stroke-miterlimit="8" fill="#404040" fill-rule="evenodd"/><path d="M2152.42 1085.67C2184.41 1093.83 2225.72 1157.94 2250.75 1242.08 2265.05 1290.15 2271.33 1335.66 2269.91 1370.38L2268.62 1382.72 2271.42 1390.72 2273.42 1401.01 2276.06 1403.03 2280.6 1410.94 2284.91 1416.67C2291.12 1429.44 2292.46 1444.56 2287.46 1459.04 2282.47 1473.51 2272.07 1484.59 2259.31 1490.8L2247.81 1493.86 2204.13 1582.83C2198.28 1594.75 2183.87 1599.67 2171.95 1593.82L2157.73 1586.84C2145.81 1580.98 2140.89 1566.58 2146.75 1554.65L2188.51 1469.6 2185.19 1465.2C2178.98 1452.44 2177.64 1437.31 2182.64 1422.84L2185.3 1417.75 2149.52 1392.51C2132.69 1378.41 2115.47 1361.75 2098.76 1343.06 2031.89 1268.28 1998.44 1189.1 2024.04 1166.2 2036.84 1154.76 2061.98 1159.55 2092.28 1176.56L2114.17 1190.47 2112.77 1177.17C2109.7 1127.67 2118.78 1091.83 2139.35 1085.71 2143.47 1084.48 2147.85 1084.51 2152.42 1085.67Z" stroke="#000000" stroke-width="6.875" stroke-miterlimit="8" fill="#A07737" fill-rule="evenodd"/><path d="M2150.66 1557.96 2176.58 1570.68 2178.43 1572.78 2178.42 1572.44 2202.63 1586.24 2204.12 1629.91 2179.91 1616.1 2179.11 1592.88 2174.97 1601.31C2172.04 1607.29 2164.81 1609.76 2158.84 1606.82L2132.92 1594.09C2126.94 1591.16 2124.47 1583.93 2127.41 1577.96L2134.52 1563.46C2137.46 1557.49 2144.68 1555.02 2150.66 1557.96Z" stroke="#000000" stroke-width="2.29167" stroke-miterlimit="8" fill="#404040" fill-rule="evenodd"/><path d="M1648.23 1111C1644.12 1088.87 1658.73 1067.6 1680.85 1063.49L2281.72 951.827C2303.85 947.715 2325.12 962.32 2329.24 984.449L2359.02 1144.72C2363.13 1166.84 2348.53 1188.12 2326.4 1192.23L1725.53 1303.89C1703.4 1308 1682.13 1293.4 1678.02 1271.27Z" fill="#A07737" fill-rule="evenodd"/><path d="M2515.08 845.5 2517.06 846.937C2534.68 857.485 2559.02 864.009 2585.91 864.009 2599.35 864.009 2612.16 862.378 2623.81 859.428L2635.99 854.514 2637.5 861.11C2637.5 891.701 2609.29 916.5 2574.5 916.5 2539.71 916.5 2511.5 891.701 2511.5 861.11Z" stroke="#000000" stroke-width="6.875" stroke-miterlimit="8" fill="#A07737" fill-rule="evenodd"/><path d="M2632.94 859.336C2636.95 878.449 2610.54 900.176 2573.93 907.864 2537.33 915.551 2504.4 906.289 2500.39 887.176 2531.85 900.523 2584.6 893.491 2618.19 871.468 2623.95 867.689 2628.92 863.604 2632.94 859.336Z" fill="#603E27" fill-rule="evenodd"/><path d="M177.625 0C114.866 32.7055 76.3771 92.1286 76.3771 156.316L77.2718 168.303 65.1855 175.403C45.1079 184.922 26.8056 186.541 13.0722 178.318 8.49469 175.576 4.64108 171.871 1.49734 167.328L1.18264 166.638 0 156.316C0 69.985 79.5255 0 177.625 0Z" stroke="#000000" stroke-width="6.875" stroke-miterlimit="8" fill="#B4B9B8" fill-rule="evenodd" transform="matrix(-0.238962 -0.971029 -0.971029 0.238962 2636.58 864.57)"/><path d="M2405.5 787.5C2448.03 787.5 2485.54 797.978 2507.68 813.913L2514.49 820.012 2523.8 824.56C2555.26 845.504 2577.33 894.536 2577.33 951.683 2577.33 961.208 2576.72 970.507 2575.55 979.488L2571.48 1000.15 2580.46 1014.67C2606.28 1064.75 2608.16 1117.22 2580.19 1153.44 2535.42 1211.39 2431.16 1205.81 2347.31 1140.97 2294.9 1100.45 2262.87 1046.37 2257.15 997.366L2256.97 976.01 2256.1 973.187C2255.05 968.062 2254.5 962.756 2254.5 957.321L2254.5 892.494C2254.5 870.756 2263.31 851.075 2277.55 836.829L2288.57 829.395 2291.95 824.09C2310.66 802.587 2354.46 787.5 2405.5 787.5Z" stroke="#000000" stroke-width="6.875" stroke-miterlimit="8" fill="#A07737" fill-rule="evenodd"/><path d="M2265.77 851.5 2274.94 855.62C2292.59 867.374 2303.5 883.612 2303.5 901.548 2303.5 937.42 2259.85 966.5 2206 966.5 2152.15 966.5 2108.5 937.42 2108.5 901.548L2108.64 900.625 2123.4 901.548C2181.1 901.548 2231.96 883.406 2262 855.812Z" stroke="#000000" stroke-width="6.875" stroke-miterlimit="8" fill="#A07737" fill-rule="evenodd"/><path d="M2229.43 894.843C2231.74 923.064 2207.65 948.074 2175.6 950.706 2143.56 953.338 2115.7 932.594 2113.39 904.374 2144.39 930.238 2193.82 928.591 2223.79 900.695 2225.79 898.835 2227.67 896.882 2229.43 894.843Z" fill="#603E27" fill-rule="evenodd"/><path d="M2261 884C2261 852.52 2286.97 827 2319 827 2351.03 827 2377 852.52 2377 884 2377 915.48 2351.03 941 2319 941 2286.97 941 2261 915.48 2261 884Z" fill="#A07737" fill-rule="evenodd"/><path d="M2127.5 717.5C2160.27 780.038 2219.82 818.392 2284.14 818.392L2296.15 817.5 2303.26 829.544C2312.8 849.551 2314.43 867.789 2306.19 881.474 2303.44 886.035 2299.73 889.875 2295.17 893.008L2294.48 893.321 2284.14 894.5C2197.63 894.5 2127.5 815.254 2127.5 717.5Z" stroke="#000000" stroke-width="6.875" stroke-miterlimit="8" fill="#B4B9B8" fill-rule="evenodd"/><path d="M2486.5 924.5C2486.5 904.618 2502.62 888.5 2522.5 888.5 2542.38 888.5 2558.5 904.618 2558.5 924.5 2558.5 944.382 2542.38 960.5 2522.5 960.5 2502.62 960.5 2486.5 944.382 2486.5 924.5Z" stroke="#000000" stroke-width="4.58333" stroke-miterlimit="8" fill="#FFFFFF" fill-rule="evenodd"/><path d="M2528 931C2528 924.925 2532.92 920 2539 920 2545.08 920 2550 924.925 2550 931 2550 937.075 2545.08 942 2539 942 2532.92 942 2528 937.075 2528 931Z" fill-rule="evenodd"/><path d="M2363.5 927.5C2363.5 907.618 2379.62 891.5 2399.5 891.5 2419.38 891.5 2435.5 907.618 2435.5 927.5 2435.5 947.382 2419.38 963.5 2399.5 963.5 2379.62 963.5 2363.5 947.382 2363.5 927.5Z" stroke="#000000" stroke-width="4.58333" stroke-miterlimit="8" fill="#FFFFFF" fill-rule="evenodd"/><path d="M2399 936C2399 929.925 2403.92 925 2410 925 2416.08 925 2421 929.925 2421 936 2421 942.075 2416.08 947 2410 947 2403.92 947 2399 942.075 2399 936Z" fill-rule="evenodd"/><path d="M2464.52 1132.94C2447.69 1127.56 2430.87 1122.19 2412.64 1111.6 2394.41 1101.01 2374.77 1085.2 2355.13 1069.4" stroke="#000000" stroke-width="6.875" stroke-linecap="round" stroke-miterlimit="8" fill="none" fill-rule="evenodd"/><path d="M2427.5 1053.65C2427.5 1018.77 2455.77 990.5 2490.65 990.5L2610.35 990.5C2645.23 990.5 2673.5 1018.77 2673.5 1053.65L2673.5 1076.35C2673.5 1111.23 2645.23 1139.5 2610.35 1139.5L2490.65 1139.5C2455.77 1139.5 2427.5 1111.23 2427.5 1076.35Z" stroke="#000000" stroke-width="6.875" stroke-miterlimit="8" fill="#543C18" fill-rule="evenodd"/><path d="M2593.5 1069C2593.5 1049.95 2604.69 1034.5 2618.5 1034.5 2632.31 1034.5 2643.5 1049.95 2643.5 1069 2643.5 1088.05 2632.31 1103.5 2618.5 1103.5 2604.69 1103.5 2593.5 1088.05 2593.5 1069Z" stroke="#000000" stroke-width="4.58333" stroke-miterlimit="8" fill="#3F2708" fill-rule="evenodd"/><path d="M2497.5 1071.5C2497.5 1052.72 2512.72 1037.5 2531.5 1037.5 2550.28 1037.5 2565.5 1052.72 2565.5 1071.5 2565.5 1090.28 2550.28 1105.5 2531.5 1105.5 2512.72 1105.5 2497.5 1090.28 2497.5 1071.5Z" stroke="#000000" stroke-width="4.58333" stroke-miterlimit="8" fill="#3F2708" fill-rule="evenodd"/><path d="M2596.43 1067.66C2622.22 1076.33 2636.09 1104.26 2627.42 1130.05 2618.75 1155.84 2590.82 1169.72 2565.03 1161.05 2539.24 1152.38 2525.36 1124.44 2534.03 1098.65 2538.38 1085.74 2547.88 1075.19 2560.27 1069.54L2565.25 1080.43C2546.52 1088.98 2538.26 1111.1 2546.81 1129.83 2555.36 1148.57 2577.48 1156.82 2596.21 1148.27 2614.94 1139.72 2623.2 1117.6 2614.65 1098.87 2610.36 1089.49 2602.39 1082.3 2592.61 1079.01Z" stroke="#000000" stroke-width="4.58333" stroke-linecap="round" stroke-linejoin="round" stroke-miterlimit="10" fill="#FFD966" fill-rule="evenodd"/><path d="M2340.94 896.616C2338.27 887.905 2355.1 875.01 2378.53 867.815 2401.96 860.62 2423.13 861.849 2425.8 870.56 2405.55 867.245 2371.77 875.687 2350.34 889.416 2346.66 891.771 2343.5 894.195 2340.94 896.616Z" fill="#603E27" fill-rule="evenodd"/><path d="M2470.56 871.301C2471.2 862.21 2491.54 856.223 2515.99 857.929 2540.44 859.634 2559.75 868.386 2559.12 877.477 2541.41 867.107 2506.85 862.845 2481.92 867.958 2477.64 868.835 2473.82 869.96 2470.56 871.301Z" fill="#603E27" fill-rule="evenodd"/></g></svg>