<svg width="1227" height="965" xmlns="http://www.w3.org/2000/svg" xmlns:xlink="http://www.w3.org/1999/xlink" overflow="hidden"><defs><clipPath id="clip0"><rect x="1450" y="677" width="1227" height="965"/></clipPath></defs><g clip-path="url(#clip0)" transform="translate(-1450 -677)"><path d="M11.1949 44.2739C-7.82956 58.9142-2.021 144.345 24.1682 235.09 33.9892 269.12 45.2815 299.064 56.5641 322.429L67.6818 343.309 62.5852 358.041C61.1005 368.512 63.6098 379.548 70.4653 388.669 77.3205 397.79 87.2241 403.269 97.6939 404.754L105.349 404.361 183.978 508.977C190.371 517.483 202.448 519.196 210.954 512.803L221.098 505.178C229.604 498.785 231.316 486.708 224.924 478.203L144.068 370.624 144.406 369.645C145.891 359.175 143.382 348.139 136.527 339.018 133.099 334.457 128.909 330.807 124.268 328.112L117.069 325.621 116.952 321.539 119.864 310.078C126.755 277.208 131.017 231.798 131.017 181.64 131.017 81.3228 113.968 0 92.9366 0 79.7922 0 68.2032 31.7668 61.3596 80.0831L59.8641 93.229 49.4412 73.6545C34.6265 48.7176 20.7073 36.9539 11.1949 44.2739Z" stroke="#000000" stroke-width="6.875" stroke-miterlimit="8" fill="#7C561E" fill-rule="evenodd" transform="matrix(-0.852084 0.523406 0.523406 0.852084 2247.36 1032.32)"/><path d="M2310.56 1550.64 2332.59 1552.71 2334.48 1553.71 2334.38 1553.46 2355.48 1556.77 2368.43 1587.65 2347.32 1584.34 2340.44 1567.92 2339.77 1575.09C2339.29 1580.17 2334.78 1583.9 2329.7 1583.42L2307.67 1581.35C2302.59 1580.88 2298.86 1576.37 2299.34 1571.29L2300.5 1558.97C2300.97 1553.89 2305.48 1550.16 2310.56 1550.64Z" stroke="#000000" stroke-width="2.29167" stroke-miterlimit="8" fill="#404040" fill-rule="evenodd"/><path d="M92.9366 0C79.7922 0 68.2032 31.7668 61.3596 80.0831L59.8641 93.229 49.4415 73.6545C34.6262 48.7176 20.7069 36.9539 11.1949 44.2739-7.82956 58.9142-2.021 144.345 24.1682 235.09 37.2629 280.463 52.9736 318.573 67.7882 343.509L72.2741 349.201 69.5667 354.4C68.8583 356.8 68.6085 359.379 68.9088 362.022L84.3647 498.109C85.5654 508.681 95.1089 516.278 105.681 515.078L118.29 513.646C128.863 512.445 136.46 502.901 135.259 492.329L119.803 356.242C119.503 353.598 118.681 351.141 117.452 348.961L115.372 346.523 117.196 330.008 116.952 321.539 119.863 310.078C126.755 277.208 131.017 231.798 131.017 181.64 131.017 81.3228 113.968 0 92.9366 0Z" stroke="#000000" stroke-width="6.875" stroke-miterlimit="8" fill="#7C561E" fill-rule="evenodd" transform="matrix(-0.98909 0.14731 0.14731 0.98909 1911.1 1064.9)"/><path d="M1856.22 1575.51 1878.34 1574.74 1880.35 1575.49 1880.21 1575.26 1901.56 1575.83 1918.36 1604.8 1897 1604.22 1888.07 1588.82 1888.32 1596.01C1888.5 1601.11 1884.51 1605.39 1879.41 1605.57L1857.3 1606.34C1852.2 1606.51 1847.92 1602.52 1847.74 1597.42L1847.31 1585.06C1847.13 1579.96 1851.13 1575.68 1856.22 1575.51Z" stroke="#000000" stroke-width="2.29167" stroke-miterlimit="8" fill="#404040" fill-rule="evenodd"/><path d="M1686 1040C1652.13 1105.29 1618.26 1170.57 1584.39 1199.46 1550.52 1228.35 1499.71 1234.7 1482.78 1213.33 1465.84 1191.95 1474.31 1131.57 1482.78 1071.2" stroke="#000000" stroke-width="45.8333" stroke-miterlimit="8" fill="none" fill-rule="evenodd"/><path d="M1689.5 1040.5C1655.79 1105.79 1622.08 1171.07 1588.37 1199.96 1554.65 1228.85 1504.09 1235.2 1487.23 1213.83 1470.38 1192.45 1478.8 1132.07 1487.23 1071.7" stroke="#A07737" stroke-width="30.9375" stroke-miterlimit="8" fill="none" fill-rule="evenodd"/><path d="M1534.42 995.756C1551.88 996.208 1570.7 1002.43 1587.16 1013.69L1594.03 1019.41 1592.24 1018.6C1589.17 1017.57 1586.03 1016.89 1582.86 1016.59 1570.17 1015.41 1559.35 1020.64 1552.11 1030.07L1550.65 1033.21 1548.51 1033.92 1548.42 1037.96 1544.17 1047.06 1543.36 1060.68 1541.12 1066.97C1534.07 1080.05 1523.65 1089.72 1512.51 1094.78L1503.32 1096.94 1503.14 1098 1502.51 1097.12 1495.58 1098.75C1489.98 1098.83 1484.52 1097.6 1479.55 1094.91 1459.64 1084.18 1454.95 1054.27 1469.06 1028.11 1479.64 1008.48 1497.79 996.541 1514.6 996.322L1518.53 997.262 1520.82 996.638C1525.21 995.925 1529.77 995.635 1534.42 995.756Z" stroke="#000000" stroke-width="5.72917" stroke-miterlimit="8" fill="#603E27" fill-rule="evenodd"/><path d="M2252.44 788.5C2265.72 788.5 2278.37 791.196 2289.87 796.069L2298.89 802.158 2318.78 809.313C2387.19 847.833 2422.63 968.962 2399.37 1102.68 2389.41 1159.98 2370.07 1211.46 2345.14 1252.61L2329.26 1274.98 2328.32 1277.55C2324.42 1285.53 2318.66 1293.24 2311.24 1300.57L2297.69 1311.02 2288.93 1319.81C2268.45 1336.73 2246.59 1347.73 2224.48 1351.46L2210.49 1352.66 2205.02 1354.55C2158.23 1367.78 2101.83 1375.5 2041.11 1375.5 1939.91 1375.5 1850.69 1354.04 1798.01 1321.41L1779.55 1307.18 1763.26 1322.66C1751.57 1331.32 1738.72 1336.11 1725.22 1336.11 1671.25 1336.11 1627.5 1259.51 1627.5 1165.02 1627.5 1082.34 1661 1013.36 1705.53 997.404L1715.1 995.715 1718.78 993.536 2023.38 852.529 2024.99 847.323C2039.59 812.756 2073.77 788.5 2113.6 788.5Z" stroke="#000000" stroke-width="6.875" stroke-miterlimit="8" fill="#A07737" fill-rule="evenodd"/><path d="M2016.5 888.144C2016.5 833.112 2061.11 788.5 2116.14 788.5L2245.86 788.5C2300.89 788.5 2345.5 833.112 2345.5 888.144L2345.5 1081.86C2345.5 1136.89 2300.89 1181.5 2245.86 1181.5L2116.14 1181.5C2061.11 1181.5 2016.5 1136.89 2016.5 1081.86Z" stroke="#000000" stroke-width="4.58333" stroke-miterlimit="8" fill="#A07737" fill-rule="evenodd"/><path d="M1794.57 1098.08C1828.57 1102.88 1844.78 1187.29 1830.76 1286.62 1823.75 1336.29 1810.51 1380.28 1794.77 1411.26L1788.46 1421.94 1787.67 1430.38 1780.11 1453.31 1772.59 1610.65C1771.96 1623.92 1760.69 1634.16 1747.42 1633.52L1731.6 1632.77C1718.34 1632.13 1708.1 1620.87 1708.73 1607.6L1716.58 1443.49 1705.9 1432.48C1685.43 1404.4 1665.35 1363.08 1650.52 1315.17 1620.86 1219.33 1623.41 1133.42 1656.21 1123.26 1672.62 1118.18 1693.48 1133.01 1713.95 1161.08L1728.06 1182.84 1732.32 1170.17C1750.14 1123.89 1773.32 1095.08 1794.57 1098.08Z" stroke="#000000" stroke-width="6.875" stroke-miterlimit="8" fill="#A07737" fill-rule="evenodd"/><path d="M1717.24 1589.92 1745.93 1593.16 1748.38 1594.51 1748.25 1594.19 1775.71 1599.01 1791.84 1639.62 1764.39 1634.79 1755.81 1613.2 1754.75 1622.53C1754.01 1629.15 1748.04 1633.91 1741.42 1633.16L1712.73 1629.93C1706.11 1629.18 1701.35 1623.21 1702.1 1616.6L1703.91 1600.55C1704.65 1593.94 1710.62 1589.18 1717.24 1589.92Z" stroke="#000000" stroke-width="2.29167" stroke-miterlimit="8" fill="#404040" fill-rule="evenodd"/><path d="M2076.94 1088.42C2109.91 1089.94 2163.33 1144.39 2204.84 1221.73 2228.56 1265.92 2243.9 1309.22 2249.53 1343.51L2250.76 1355.85 2255.12 1363.13C2257.58 1368.04 2259.55 1372.74 2261 1377.21L2262.66 1384.68 2264.39 1386.02 2265.92 1387.81 2267.45 1389.19 2267.86 1390.05 2270.62 1393.25 2273.47 1401.92 2276.54 1408.41C2280.04 1422.16 2278.3 1437.25 2270.48 1450.41 2262.66 1463.58 2250.24 1472.33 2236.49 1475.83L2224.61 1476.51 2163.85 1554.82C2155.71 1565.31 2140.61 1567.21 2130.11 1559.07L2117.6 1549.36C2107.11 1541.22 2105.2 1526.12 2113.34 1515.63L2171.43 1440.77 2169.07 1435.78C2167.32 1428.91 2166.88 1421.7 2167.86 1414.56L2170.93 1405.79 2164.3 1403.27C2137.02 1391.4 2106.61 1373.74 2076.39 1351.34 1995.79 1291.61 1947.03 1220.82 1967.48 1193.23 1977.7 1179.43 2003.29 1179.05 2036.4 1189.58L2060.65 1198.78 2056.59 1186.04C2043.59 1138.18 2045.24 1101.24 2064.15 1091.09 2067.93 1089.06 2072.22 1088.2 2076.94 1088.42Z" stroke="#000000" stroke-width="6.875" stroke-miterlimit="8" fill="#A07737" fill-rule="evenodd"/><path d="M2116.51 1519.65 2139.33 1537.35 2140.71 1539.78 2140.77 1539.44 2161.7 1557.85 2154.33 1600.92 2133.41 1582.51 2137.32 1559.6 2131.56 1567.03C2127.48 1572.29 2119.91 1573.24 2114.65 1569.16L2091.83 1551.46C2086.57 1547.38 2085.61 1539.8 2089.7 1534.54L2099.59 1521.78C2103.68 1516.52 2111.25 1515.57 2116.51 1519.65Z" stroke="#000000" stroke-width="2.29167" stroke-miterlimit="8" fill="#404040" fill-rule="evenodd"/><path d="M1642.72 1112.03C1638.61 1089.9 1653.22 1068.63 1675.35 1064.51L2281.72 951.827C2303.85 947.715 2325.12 962.32 2329.24 984.449L2359.02 1144.72C2363.13 1166.84 2348.53 1188.12 2326.4 1192.23L1720.02 1304.92C1697.89 1309.03 1676.62 1294.42 1672.51 1272.29Z" fill="#A07737" fill-rule="evenodd"/><path d="M2515.08 845.5 2517.06 846.937C2534.68 857.485 2559.02 864.009 2585.91 864.009 2599.35 864.009 2612.16 862.378 2623.81 859.428L2635.99 854.514 2637.5 861.11C2637.5 891.701 2609.29 916.5 2574.5 916.5 2539.71 916.5 2511.5 891.701 2511.5 861.11Z" stroke="#000000" stroke-width="6.875" stroke-miterlimit="8" fill="#A07737" fill-rule="evenodd"/><path d="M2632.94 859.336C2636.95 878.449 2610.54 900.176 2573.93 907.864 2537.33 915.551 2504.4 906.289 2500.39 887.176 2531.85 900.523 2584.6 893.491 2618.19 871.468 2623.95 867.689 2628.92 863.604 2632.94 859.336Z" fill="#603E27" fill-rule="evenodd"/><path d="M177.625 0C114.866 32.7055 76.3771 92.1286 76.3771 156.316L77.2718 168.303 65.1855 175.403C45.1079 184.922 26.8056 186.541 13.0722 178.318 8.49469 175.576 4.64108 171.871 1.49734 167.328L1.18264 166.638 0 156.316C0 69.985 79.5255 0 177.625 0Z" stroke="#000000" stroke-width="6.875" stroke-miterlimit="8" fill="#B4B9B8" fill-rule="evenodd" transform="matrix(-0.238962 -0.971029 -0.971029 0.238962 2636.58 864.57)"/><path d="M2405.5 787.5C2448.03 787.5 2485.54 797.978 2507.68 813.913L2514.49 820.012 2523.8 824.56C2555.26 845.504 2577.33 894.536 2577.33 951.683 2577.33 961.208 2576.72 970.507 2575.55 979.488L2571.48 1000.15 2580.46 1014.67C2606.28 1064.75 2608.16 1117.22 2580.19 1153.44 2535.42 1211.39 2431.16 1205.81 2347.31 1140.97 2294.9 1100.45 2262.87 1046.37 2257.15 997.366L2256.97 976.01 2256.1 973.187C2255.05 968.062 2254.5 962.756 2254.5 957.321L2254.5 892.494C2254.5 870.756 2263.31 851.075 2277.55 836.829L2288.57 829.395 2291.95 824.09C2310.66 802.587 2354.46 787.5 2405.5 787.5Z" stroke="#000000" stroke-width="6.875" stroke-miterlimit="8" fill="#A07737" fill-rule="evenodd"/><path d="M2265.77 851.5 2274.94 855.62C2292.59 867.374 2303.5 883.612 2303.5 901.548 2303.5 937.42 2259.85 966.5 2206 966.5 2152.15 966.5 2108.5 937.42 2108.5 901.548L2108.64 900.625 2123.4 901.548C2181.1 901.548 2231.96 883.406 2262 855.812Z" stroke="#000000" stroke-width="6.875" stroke-miterlimit="8" fill="#A07737" fill-rule="evenodd"/><path d="M2229.43 894.843C2231.74 923.064 2207.65 948.074 2175.6 950.706 2143.56 953.338 2115.7 932.594 2113.39 904.374 2144.39 930.238 2193.82 928.591 2223.79 900.695 2225.79 898.835 2227.67 896.882 2229.43 894.843Z" fill="#603E27" fill-rule="evenodd"/><path d="M2261 884C2261 852.52 2286.97 827 2319 827 2351.03 827 2377 852.52 2377 884 2377 915.48 2351.03 941 2319 941 2286.97 941 2261 915.48 2261 884Z" fill="#A07737" fill-rule="evenodd"/><path d="M2127.5 717.5C2160.27 780.038 2219.82 818.392 2284.14 818.392L2296.15 817.5 2303.26 829.544C2312.8 849.551 2314.43 867.789 2306.19 881.474 2303.44 886.035 2299.73 889.875 2295.17 893.008L2294.48 893.321 2284.14 894.5C2197.63 894.5 2127.5 815.254 2127.5 717.5Z" stroke="#000000" stroke-width="6.875" stroke-miterlimit="8" fill="#B4B9B8" fill-rule="evenodd"/><path d="M2427.5 1053.65C2427.5 1018.77 2455.77 990.5 2490.65 990.5L2610.35 990.5C2645.23 990.5 2673.5 1018.77 2673.5 1053.65L2673.5 1076.35C2673.5 1111.23 2645.23 1139.5 2610.35 1139.5L2490.65 1139.5C2455.77 1139.5 2427.5 1111.23 2427.5 1076.35Z" stroke="#000000" stroke-width="6.875" stroke-miterlimit="8" fill="#543C18" fill-rule="evenodd"/><path d="M2593.5 1069C2593.5 1049.95 2604.69 1034.5 2618.5 1034.5 2632.31 1034.5 2643.5 1049.95 2643.5 1069 2643.5 1088.05 2632.31 1103.5 2618.5 1103.5 2604.69 1103.5 2593.5 1088.05 2593.5 1069Z" stroke="#000000" stroke-width="4.58333" stroke-miterlimit="8" fill="#3F2708" fill-rule="evenodd"/><path d="M2497.5 1071.5C2497.5 1052.72 2512.72 1037.5 2531.5 1037.5 2550.28 1037.5 2565.5 1052.72 2565.5 1071.5 2565.5 1090.28 2550.28 1105.5 2531.5 1105.5 2512.72 1105.5 2497.5 1090.28 2497.5 1071.5Z" stroke="#000000" stroke-width="4.58333" stroke-miterlimit="8" fill="#3F2708" fill-rule="evenodd"/><path d="M2596.43 1067.66C2622.22 1076.33 2636.09 1104.26 2627.42 1130.05 2618.75 1155.84 2590.82 1169.72 2565.03 1161.05 2539.24 1152.38 2525.36 1124.44 2534.03 1098.65 2538.38 1085.74 2547.88 1075.19 2560.27 1069.54L2565.25 1080.43C2546.52 1088.98 2538.26 1111.1 2546.81 1129.83 2555.36 1148.57 2577.48 1156.82 2596.21 1148.27 2614.94 1139.72 2623.2 1117.6 2614.65 1098.87 2610.36 1089.49 2602.39 1082.3 2592.61 1079.01Z" stroke="#000000" stroke-width="4.58333" stroke-linecap="round" stroke-linejoin="round" stroke-miterlimit="10" fill="#FFD966" fill-rule="evenodd"/><path d="M2451.36 902.622C2447.36 910.807 2426.26 908.709 2404.24 897.935 2382.22 887.162 2367.62 871.793 2371.63 863.608 2384.13 879.873 2414.56 896.816 2439.58 901.45 2443.88 902.245 2447.84 902.64 2451.36 902.622Z" fill="#3F2708" fill-rule="evenodd"/><path d="M2553.01 850.894C2558 858.518 2545.42 875.582 2524.91 889.006 2504.4 902.431 2483.73 907.133 2478.74 899.508 2499.11 897.064 2529.22 879.565 2545.99 860.422 2548.86 857.138 2551.23 853.929 2553.01 850.894Z" fill="#3F2708" fill-rule="evenodd"/><path d="M2447.71 921.554C2436.68 952.433 2407.75 970.326 2383.09 961.518 2358.43 952.711 2347.38 920.539 2358.41 889.661 2380.79 916.323 2413.5 928.003 2447.71 921.554Z" stroke="#000000" stroke-width="4.58333" stroke-miterlimit="8" fill="#C00000" fill-rule="evenodd"/><path d="M2397 939C2397 932.925 2401.92 928 2408 928 2414.08 928 2419 932.925 2419 939 2419 945.075 2414.08 950 2408 950 2401.92 950 2397 945.075 2397 939Z" fill-rule="evenodd"/><path d="M2560.52 884.996C2574.96 914.439 2567.59 947.649 2544.08 959.174 2520.57 970.699 2489.81 956.173 2475.38 926.731 2510.1 929.291 2541.28 914.007 2560.52 884.996Z" stroke="#000000" stroke-width="4.58333" stroke-miterlimit="8" fill="#C00000" fill-rule="evenodd"/><path d="M2513 939C2513 932.925 2517.93 928 2524 928 2530.08 928 2535 932.925 2535 939 2535 945.075 2530.08 950 2524 950 2517.93 950 2513 945.075 2513 939Z" fill-rule="evenodd"/></g></svg>