<svg width="1227" height="979" xmlns="http://www.w3.org/2000/svg" xmlns:xlink="http://www.w3.org/1999/xlink" overflow="hidden"><defs><clipPath id="clip0"><rect x="1450" y="677" width="1227" height="979"/></clipPath></defs><g clip-path="url(#clip0)" transform="translate(-1450 -677)"><path d="M5.21598 52.9545C-6.05902 80.3552 1.25266 155.689 24.1682 235.09 37.2629 280.463 52.9732 318.572 67.7882 343.509L75.4027 354.796 78.7366 368.266C85.647 382.81 100.77 392.569 117.869 391.826 129.268 391.331 139.388 386.262 146.534 378.467L150.539 371.931 281.286 366.251C291.916 365.789 300.159 356.797 299.697 346.167L299.146 333.488C298.684 322.858 289.692 314.615 279.062 315.077L144.303 320.932 140.95 317.55C137.782 315.158 134.263 313.216 130.491 311.81L119.848 310.138 119.864 310.078C126.755 277.208 131.017 231.798 131.017 181.64 131.017 81.3228 113.968 0 92.9366 0 79.7922 0 68.2032 31.7668 61.3596 80.0831L59.8641 93.229 49.4412 73.6545C34.6265 48.7176 20.7073 36.9539 11.1949 44.2739 8.8166 46.104 6.82664 49.0402 5.21598 52.9545Z" stroke="#000000" stroke-width="6.875" stroke-miterlimit="8" fill="#7C561E" fill-rule="evenodd" transform="matrix(-0.483748 0.875208 0.875208 0.483748 2184.63 1081.59)"/><path d="M2332.5 1474.07 2351.39 1485.6 2352.65 1487.33 2352.66 1487.07 2370.17 1499.31 2368.24 1532.73 2350.73 1520.5 2351.76 1502.72 2348 1508.86C2345.34 1513.22 2339.66 1514.59 2335.3 1511.93L2316.42 1500.4C2312.07 1497.74 2310.69 1492.05 2313.35 1487.69L2319.8 1477.14C2322.46 1472.78 2328.15 1471.41 2332.5 1474.07Z" stroke="#000000" stroke-width="2.29167" stroke-miterlimit="8" fill="#404040" fill-rule="evenodd"/><path d="M92.9366 0C79.7922 0 68.2032 31.7668 61.3596 80.0831L59.8641 93.229 49.4412 73.6545C34.6265 48.7176 20.7073 36.9539 11.1949 44.2739-7.82956 58.9142-2.02136 144.345 24.1682 235.09 37.2629 280.463 52.9736 318.572 67.7882 343.509L71.3242 347.996 71.2153 348.413C71.0583 350.911 71.3885 353.48 72.2687 355.991L117.604 485.232C121.125 495.273 132.119 500.557 142.16 497.035L154.135 492.835C164.175 489.313 169.459 478.318 165.938 468.278L120.603 339.036 116.888 332.791 117.196 330.008 116.952 321.539 119.864 310.078C126.755 277.208 131.017 231.798 131.017 181.64 131.017 81.3228 113.968 0 92.9366 0Z" stroke="#000000" stroke-width="6.875" stroke-miterlimit="8" fill="#7C561E" fill-rule="evenodd" transform="matrix(-0.958101 0.286429 0.286429 0.958101 1882.98 1061.59)"/><path d="M1864.18 1562.01 1886.29 1563.05 1888.23 1563.96 1888.11 1563.72 1909.35 1566.04 1923.72 1596.28 1902.49 1593.96 1894.84 1577.88 1894.5 1585.07C1894.27 1590.17 1889.94 1594.11 1884.84 1593.87L1862.74 1592.83C1857.64 1592.59 1853.7 1588.27 1853.94 1583.17L1854.52 1570.81C1854.76 1565.71 1859.09 1561.78 1864.18 1562.01Z" stroke="#000000" stroke-width="2.29167" stroke-miterlimit="8" fill="#404040" fill-rule="evenodd"/><path d="M1686 1040C1652.13 1105.29 1618.26 1170.57 1584.39 1199.46 1550.52 1228.35 1499.71 1234.7 1482.78 1213.33 1465.84 1191.95 1474.31 1131.57 1482.78 1071.2" stroke="#000000" stroke-width="45.8333" stroke-miterlimit="8" fill="none" fill-rule="evenodd"/><path d="M1689.5 1040.5C1655.79 1105.79 1622.08 1171.07 1588.37 1199.96 1554.65 1228.85 1504.09 1235.2 1487.23 1213.83 1470.38 1192.45 1478.8 1132.07 1487.23 1071.7" stroke="#A07737" stroke-width="30.9375" stroke-miterlimit="8" fill="none" fill-rule="evenodd"/><path d="M1534.42 995.756C1551.88 996.208 1570.7 1002.43 1587.16 1013.69L1594.03 1019.41 1592.24 1018.6C1589.17 1017.57 1586.03 1016.89 1582.86 1016.59 1570.17 1015.41 1559.35 1020.64 1552.11 1030.07L1550.65 1033.21 1548.51 1033.92 1548.42 1037.96 1544.17 1047.06 1543.36 1060.68 1541.12 1066.97C1534.07 1080.05 1523.65 1089.72 1512.51 1094.78L1503.32 1096.94 1503.14 1098 1502.51 1097.12 1495.58 1098.75C1489.98 1098.83 1484.52 1097.6 1479.55 1094.91 1459.64 1084.18 1454.95 1054.27 1469.06 1028.11 1479.64 1008.48 1497.79 996.541 1514.6 996.322L1518.53 997.262 1520.82 996.638C1525.21 995.925 1529.77 995.635 1534.42 995.756Z" stroke="#000000" stroke-width="5.72917" stroke-miterlimit="8" fill="#603E27" fill-rule="evenodd"/><path d="M2252.44 788.5C2265.72 788.5 2278.37 791.196 2289.87 796.069L2298.89 802.158 2318.78 809.313C2387.19 847.833 2422.63 968.962 2399.37 1102.68 2389.41 1159.98 2370.07 1211.46 2345.14 1252.61L2329.26 1274.98 2328.32 1277.55C2324.42 1285.53 2318.66 1293.24 2311.24 1300.57L2297.69 1311.02 2288.93 1319.81C2268.45 1336.73 2246.59 1347.73 2224.48 1351.46L2210.49 1352.66 2205.02 1354.55C2158.23 1367.78 2101.83 1375.5 2041.11 1375.5 1939.91 1375.5 1850.69 1354.04 1798.01 1321.41L1779.55 1307.18 1763.26 1322.66C1751.57 1331.32 1738.72 1336.11 1725.22 1336.11 1671.25 1336.11 1627.5 1259.51 1627.5 1165.02 1627.5 1082.34 1661 1013.36 1705.53 997.404L1715.1 995.715 1718.78 993.536 2023.38 852.529 2024.99 847.323C2039.59 812.756 2073.77 788.5 2113.6 788.5Z" stroke="#000000" stroke-width="6.875" stroke-miterlimit="8" fill="#A07737" fill-rule="evenodd"/><path d="M2016.5 888.144C2016.5 833.112 2061.11 788.5 2116.14 788.5L2245.86 788.5C2300.89 788.5 2345.5 833.112 2345.5 888.144L2345.5 1081.86C2345.5 1136.89 2300.89 1181.5 2245.86 1181.5L2116.14 1181.5C2061.11 1181.5 2016.5 1136.89 2016.5 1081.86Z" stroke="#000000" stroke-width="4.58333" stroke-miterlimit="8" fill="#A07737" fill-rule="evenodd"/><path d="M1823.92 1101.15C1856.62 1111.63 1858.3 1197.57 1827.67 1293.1 1812.36 1340.86 1791.86 1381.98 1771.11 1409.84L1763.08 1419.31 1760.88 1427.49 1753.51 1441.36 1754.48 1445 1765.16 1615.61C1765.99 1628.86 1755.91 1640.28 1742.66 1641.11L1726.85 1642.09C1713.6 1642.92 1702.18 1632.85 1701.35 1619.6L1690.68 1448.99C1690.47 1445.68 1690.94 1442.48 1691.98 1439.53L1693.94 1436.19 1679.93 1415.72C1664.51 1384.58 1651.71 1340.46 1645.21 1290.73 1632.19 1191.26 1649.24 1107.01 1683.3 1102.55 1700.32 1100.33 1718.37 1118.47 1733.8 1149.6L1744.03 1173.44 1750.37 1161.66C1775.76 1119.07 1803.48 1094.59 1823.92 1101.15Z" stroke="#000000" stroke-width="6.875" stroke-miterlimit="8" fill="#A07737" fill-rule="evenodd"/><path d="M1707.86 1601.09 1736.74 1601.15 1739.32 1602.22 1739.16 1601.92 1766.97 1603.69 1787.48 1642.27 1759.66 1640.5 1748.76 1619.98 1748.74 1629.37C1748.72 1636.03 1743.31 1641.42 1736.66 1641.41L1707.78 1641.35C1701.12 1641.34 1695.73 1635.93 1695.75 1629.27L1695.78 1613.12C1695.79 1606.46 1701.2 1601.08 1707.86 1601.09Z" stroke="#000000" stroke-width="2.29167" stroke-miterlimit="8" fill="#404040" fill-rule="evenodd"/><path d="M2158.23 1090.5C2192.57 1090.5 2220.4 1171.88 2220.4 1272.27 2220.4 1322.47 2213.44 1367.91 2202.19 1400.8L2197.44 1412.27 2197.84 1420.75 2197.44 1422.97 2205.51 1427.41C2216.42 1436.49 2223.87 1449.74 2225.26 1465 2226.66 1480.25 2221.75 1494.64 2212.68 1505.55L2203.46 1513.09 2200.24 1612.22C2199.81 1625.5 2188.7 1635.92 2175.43 1635.49L2159.61 1634.97C2146.34 1634.54 2135.93 1623.42 2136.36 1610.14L2139.43 1515.37 2134.6 1512.72C2123.69 1503.64 2116.25 1490.39 2114.85 1475.13 2114.15 1467.5 2115.03 1460.09 2117.22 1453.22L2124.14 1440.59 2117.17 1434.26C2092.99 1409.3 2067.34 1371.17 2045.96 1325.76 2003.2 1234.95 1993.72 1149.46 2024.78 1134.81 2040.31 1127.48 2063.03 1139.25 2087.22 1164.21L2104.23 1183.8 2106.68 1170.64C2117.85 1122.29 2136.77 1090.5 2158.23 1090.5Z" stroke="#000000" stroke-width="6.875" stroke-miterlimit="8" fill="#A07737" fill-rule="evenodd"/><path d="M2141.21 1610.64 2170.07 1611.58 2172.62 1612.73 2172.46 1612.42 2200.21 1615.04 2219.54 1654.23 2191.79 1651.61 2181.51 1630.77 2181.2 1640.16C2180.99 1646.81 2175.42 1652.03 2168.76 1651.82L2139.9 1650.88C2133.24 1650.66 2128.02 1645.09 2128.24 1638.44L2128.76 1622.3C2128.98 1615.65 2134.55 1610.43 2141.21 1610.64Z" stroke="#000000" stroke-width="2.29167" stroke-miterlimit="8" fill="#404040" fill-rule="evenodd"/><path d="M1649.11 1193.74C1636.78 1127.36 1680.59 1063.54 1746.98 1051.2L2201.59 966.719C2267.97 954.382 2331.79 998.197 2344.13 1064.58L2344.13 1064.58C2356.46 1130.97 2312.65 1194.78 2246.26 1207.12L1791.65 1291.6C1725.27 1303.94 1661.45 1260.13 1649.11 1193.74Z" fill="#A07737" fill-rule="evenodd"/><path d="M2515.08 845.5 2517.06 846.937C2534.68 857.485 2559.02 864.009 2585.91 864.009 2599.35 864.009 2612.16 862.378 2623.81 859.428L2635.99 854.514 2637.5 861.11C2637.5 891.701 2609.29 916.5 2574.5 916.5 2539.71 916.5 2511.5 891.701 2511.5 861.11Z" stroke="#000000" stroke-width="6.875" stroke-miterlimit="8" fill="#A07737" fill-rule="evenodd"/><path d="M2632.94 859.336C2636.95 878.449 2610.54 900.176 2573.93 907.864 2537.33 915.551 2504.4 906.289 2500.39 887.176 2531.85 900.523 2584.6 893.491 2618.19 871.468 2623.95 867.689 2628.92 863.604 2632.94 859.336Z" fill="#603E27" fill-rule="evenodd"/><path d="M177.625 0C114.866 32.7055 76.3771 92.1286 76.3771 156.316L77.2718 168.303 65.1855 175.403C45.1079 184.922 26.8056 186.541 13.0722 178.318 8.49469 175.576 4.64108 171.871 1.49734 167.328L1.18264 166.638 0 156.316C0 69.985 79.5255 0 177.625 0Z" stroke="#000000" stroke-width="6.875" stroke-miterlimit="8" fill="#B4B9B8" fill-rule="evenodd" transform="matrix(-0.238962 -0.971029 -0.971029 0.238962 2636.58 864.57)"/><path d="M2405.5 787.5C2448.03 787.5 2485.54 797.978 2507.68 813.913L2514.49 820.012 2523.8 824.56C2555.26 845.504 2577.33 894.536 2577.33 951.683 2577.33 961.208 2576.72 970.507 2575.55 979.488L2571.48 1000.15 2580.46 1014.67C2606.28 1064.75 2608.16 1117.22 2580.19 1153.44 2535.42 1211.39 2431.16 1205.81 2347.31 1140.97 2294.9 1100.45 2262.87 1046.37 2257.15 997.366L2256.97 976.01 2256.1 973.187C2255.05 968.062 2254.5 962.756 2254.5 957.321L2254.5 892.494C2254.5 870.756 2263.31 851.075 2277.55 836.829L2288.57 829.395 2291.95 824.09C2310.66 802.587 2354.46 787.5 2405.5 787.5Z" stroke="#000000" stroke-width="6.875" stroke-miterlimit="8" fill="#A07737" fill-rule="evenodd"/><path d="M2265.77 851.5 2274.94 855.62C2292.59 867.374 2303.5 883.612 2303.5 901.548 2303.5 937.42 2259.85 966.5 2206 966.5 2152.15 966.5 2108.5 937.42 2108.5 901.548L2108.64 900.625 2123.4 901.548C2181.1 901.548 2231.96 883.406 2262 855.812Z" stroke="#000000" stroke-width="6.875" stroke-miterlimit="8" fill="#A07737" fill-rule="evenodd"/><path d="M2229.43 894.843C2231.74 923.064 2207.65 948.074 2175.6 950.706 2143.56 953.338 2115.7 932.594 2113.39 904.374 2144.39 930.238 2193.82 928.591 2223.79 900.695 2225.79 898.835 2227.67 896.882 2229.43 894.843Z" fill="#603E27" fill-rule="evenodd"/><path d="M2261 884C2261 852.52 2286.97 827 2319 827 2351.03 827 2377 852.52 2377 884 2377 915.48 2351.03 941 2319 941 2286.97 941 2261 915.48 2261 884Z" fill="#A07737" fill-rule="evenodd"/><path d="M2127.5 717.5C2160.27 780.038 2219.82 818.392 2284.14 818.392L2296.15 817.5 2303.26 829.544C2312.8 849.551 2314.43 867.789 2306.19 881.474 2303.44 886.035 2299.73 889.875 2295.17 893.008L2294.48 893.321 2284.14 894.5C2197.63 894.5 2127.5 815.254 2127.5 717.5Z" stroke="#000000" stroke-width="6.875" stroke-miterlimit="8" fill="#B4B9B8" fill-rule="evenodd"/><path d="M2427.5 1053.65C2427.5 1018.77 2455.77 990.5 2490.65 990.5L2610.35 990.5C2645.23 990.5 2673.5 1018.77 2673.5 1053.65L2673.5 1076.35C2673.5 1111.23 2645.23 1139.5 2610.35 1139.5L2490.65 1139.5C2455.77 1139.5 2427.5 1111.23 2427.5 1076.35Z" stroke="#000000" stroke-width="6.875" stroke-miterlimit="8" fill="#543C18" fill-rule="evenodd"/><path d="M2593.5 1069C2593.5 1049.95 2604.69 1034.5 2618.5 1034.5 2632.31 1034.5 2643.5 1049.95 2643.5 1069 2643.5 1088.05 2632.31 1103.5 2618.5 1103.5 2604.69 1103.5 2593.5 1088.05 2593.5 1069Z" stroke="#000000" stroke-width="4.58333" stroke-miterlimit="8" fill="#3F2708" fill-rule="evenodd"/><path d="M2497.5 1071.5C2497.5 1052.72 2512.72 1037.5 2531.5 1037.5 2550.28 1037.5 2565.5 1052.72 2565.5 1071.5 2565.5 1090.28 2550.28 1105.5 2531.5 1105.5 2512.72 1105.5 2497.5 1090.28 2497.5 1071.5Z" stroke="#000000" stroke-width="4.58333" stroke-miterlimit="8" fill="#3F2708" fill-rule="evenodd"/><path d="M2596.43 1067.66C2622.22 1076.33 2636.09 1104.26 2627.42 1130.05 2618.75 1155.84 2590.82 1169.72 2565.03 1161.05 2539.24 1152.38 2525.36 1124.44 2534.03 1098.65 2538.38 1085.74 2547.88 1075.19 2560.27 1069.54L2565.25 1080.43C2546.52 1088.98 2538.26 1111.1 2546.81 1129.83 2555.36 1148.57 2577.48 1156.82 2596.21 1148.27 2614.94 1139.72 2623.2 1117.6 2614.65 1098.87 2610.36 1089.49 2602.39 1082.3 2592.61 1079.01Z" stroke="#000000" stroke-width="4.58333" stroke-linecap="round" stroke-linejoin="round" stroke-miterlimit="10" fill="#FFD966" fill-rule="evenodd"/><path d="M2451.36 902.622C2447.36 910.807 2426.26 908.709 2404.24 897.935 2382.22 887.162 2367.62 871.793 2371.63 863.608 2384.13 879.873 2414.56 896.816 2439.58 901.45 2443.88 902.245 2447.84 902.64 2451.36 902.622Z" fill="#3F2708" fill-rule="evenodd"/><path d="M2553.01 850.894C2558 858.518 2545.42 875.582 2524.91 889.006 2504.4 902.431 2483.73 907.133 2478.74 899.508 2499.11 897.064 2529.22 879.565 2545.99 860.422 2548.86 857.138 2551.23 853.929 2553.01 850.894Z" fill="#3F2708" fill-rule="evenodd"/><path d="M2447.71 921.554C2436.68 952.433 2407.75 970.326 2383.09 961.518 2358.43 952.711 2347.38 920.539 2358.41 889.661 2380.79 916.323 2413.5 928.003 2447.71 921.554Z" stroke="#000000" stroke-width="4.58333" stroke-miterlimit="8" fill="#C00000" fill-rule="evenodd"/><path d="M2397 939C2397 932.925 2401.92 928 2408 928 2414.08 928 2419 932.925 2419 939 2419 945.075 2414.08 950 2408 950 2401.92 950 2397 945.075 2397 939Z" fill-rule="evenodd"/><path d="M2560.52 884.996C2574.96 914.439 2567.59 947.649 2544.08 959.174 2520.57 970.699 2489.81 956.173 2475.38 926.731 2510.1 929.291 2541.28 914.007 2560.52 884.996Z" stroke="#000000" stroke-width="4.58333" stroke-miterlimit="8" fill="#C00000" fill-rule="evenodd"/><path d="M2513 939C2513 932.925 2517.93 928 2524 928 2530.08 928 2535 932.925 2535 939 2535 945.075 2530.08 950 2524 950 2517.93 950 2513 945.075 2513 939Z" fill-rule="evenodd"/></g></svg>