<svg width="1227" height="971" xmlns="http://www.w3.org/2000/svg" xmlns:xlink="http://www.w3.org/1999/xlink" overflow="hidden"><defs><clipPath id="clip0"><rect x="1450" y="677" width="1227" height="971"/></clipPath></defs><g clip-path="url(#clip0)" transform="translate(-1450 -677)"><path d="M2218.39 1090.8C2241.96 1086.25 2302.1 1147.2 2352.71 1226.94 2378.02 1266.81 2396.15 1303.83 2405.02 1331.45L2405.41 1332.98 2414.63 1337.72C2427.2 1347.79 2433.21 1364.76 2428.55 1381.23 2425.44 1392.21 2418.18 1400.89 2408.95 1406.04L2401.67 1408.44 2366.03 1534.36C2363.14 1544.6 2352.49 1550.55 2342.25 1547.66L2330.04 1544.2C2319.8 1541.3 2313.85 1530.65 2316.75 1520.42L2353.39 1390.92 2352.72 1390.13C2347.56 1380.9 2345.93 1369.7 2349.03 1358.72L2352.19 1351.76 2345.47 1348.3C2316.29 1331.69 2279.45 1304.79 2241.88 1271.56 2166.75 1205.09 2117.13 1138.44 2131.07 1122.68 2139.78 1112.84 2171.25 1125.21 2211.97 1152.1L2222.81 1159.69 2215.05 1138.91C2206.19 1111.29 2206.6 1093.07 2218.39 1090.8Z" stroke="#000000" stroke-width="6.875" stroke-miterlimit="8" fill="#7C561E" fill-rule="evenodd"/><path d="M2322.47 1514.48 2343.77 1520.51 2345.45 1521.83 2345.39 1521.57 2365.55 1528.65 2372.68 1561.36 2352.53 1554.29 2348.73 1536.89 2346.77 1543.82C2345.38 1548.73 2340.28 1551.58 2335.37 1550.19L2314.07 1544.17C2309.16 1542.78 2306.31 1537.67 2307.7 1532.76L2311.07 1520.85C2312.46 1515.95 2317.56 1513.09 2322.47 1514.48Z" stroke="#000000" stroke-width="2.29167" stroke-miterlimit="8" fill="#404040" fill-rule="evenodd"/><path d="M1804.29 1083.76C1817.08 1080.75 1835.64 1109.02 1853.37 1154.49L1857.83 1166.94 1863.5 1145.5C1872.21 1117.83 1883.06 1103.2 1894 1108.14 1915.87 1118.04 1929.78 1202.53 1925.07 1296.86 1923.89 1320.44 1921.66 1342.41 1918.63 1361.93L1907.84 1410.56 1910.74 1414.56C1911.79 1416.83 1912.42 1419.34 1912.51 1422L1917.27 1558.88C1917.64 1569.51 1909.32 1578.43 1898.69 1578.8L1886.01 1579.24C1875.37 1579.61 1866.45 1571.29 1866.08 1560.66L1861.36 1424.97 1856.25 1410.56 1854.55 1402.26 1849.09 1391.77C1834.85 1361.35 1820.3 1318.12 1808.82 1269.3 1785.84 1171.65 1783.82 1088.58 1804.29 1083.76Z" stroke="#000000" stroke-width="6.875" stroke-miterlimit="8" fill="#7C561E" fill-rule="evenodd"/><path d="M1872.46 1564.39 1894.58 1563.62 1896.58 1564.37 1896.45 1564.14 1917.8 1564.71 1934.59 1593.68 1913.24 1593.1 1904.31 1577.7 1904.56 1584.89C1904.74 1589.99 1900.75 1594.27 1895.65 1594.45L1873.53 1595.22C1868.44 1595.39 1864.16 1591.4 1863.98 1586.3L1863.55 1573.94C1863.37 1568.84 1867.36 1564.56 1872.46 1564.39Z" stroke="#000000" stroke-width="2.29167" stroke-miterlimit="8" fill="#404040" fill-rule="evenodd"/><path d="M1686 1040C1652.13 1105.29 1618.26 1170.57 1584.39 1199.46 1550.52 1228.35 1499.71 1234.7 1482.78 1213.33 1465.84 1191.95 1474.31 1131.57 1482.78 1071.2" stroke="#000000" stroke-width="45.8333" stroke-miterlimit="8" fill="none" fill-rule="evenodd"/><path d="M1689.5 1040.5C1655.79 1105.79 1622.08 1171.07 1588.37 1199.96 1554.65 1228.85 1504.09 1235.2 1487.23 1213.83 1470.38 1192.45 1478.8 1132.07 1487.23 1071.7" stroke="#A07737" stroke-width="30.9375" stroke-miterlimit="8" fill="none" fill-rule="evenodd"/><path d="M1534.42 995.756C1551.88 996.208 1570.7 1002.43 1587.16 1013.69L1594.03 1019.41 1592.24 1018.6C1589.17 1017.57 1586.03 1016.89 1582.86 1016.59 1570.17 1015.41 1559.35 1020.64 1552.11 1030.07L1550.65 1033.21 1548.51 1033.92 1548.42 1037.96 1544.17 1047.06 1543.36 1060.68 1541.12 1066.97C1534.07 1080.05 1523.65 1089.72 1512.51 1094.78L1503.32 1096.94 1503.14 1098 1502.51 1097.12 1495.58 1098.75C1489.98 1098.83 1484.52 1097.6 1479.55 1094.91 1459.64 1084.18 1454.95 1054.27 1469.06 1028.11 1479.64 1008.48 1497.79 996.541 1514.6 996.322L1518.53 997.262 1520.82 996.638C1525.21 995.925 1529.77 995.635 1534.42 995.756Z" stroke="#000000" stroke-width="5.72917" stroke-miterlimit="8" fill="#603E27" fill-rule="evenodd"/><path d="M2252.44 788.5C2265.72 788.5 2278.37 791.196 2289.87 796.069L2298.89 802.158 2318.78 809.313C2387.19 847.833 2422.63 968.962 2399.37 1102.68 2389.41 1159.98 2370.07 1211.46 2345.14 1252.61L2329.26 1274.98 2328.32 1277.55C2324.42 1285.53 2318.66 1293.24 2311.24 1300.57L2297.69 1311.02 2288.93 1319.81C2268.45 1336.73 2246.59 1347.73 2224.48 1351.46L2210.49 1352.66 2205.02 1354.55C2158.23 1367.78 2101.83 1375.5 2041.11 1375.5 1939.91 1375.5 1850.69 1354.04 1798.01 1321.41L1779.55 1307.18 1763.26 1322.66C1751.57 1331.32 1738.72 1336.11 1725.22 1336.11 1671.25 1336.11 1627.5 1259.51 1627.5 1165.02 1627.5 1082.34 1661 1013.36 1705.53 997.404L1715.1 995.715 1718.78 993.536 2023.38 852.529 2024.99 847.323C2039.59 812.756 2073.77 788.5 2113.6 788.5Z" stroke="#000000" stroke-width="6.875" stroke-miterlimit="8" fill="#A07737" fill-rule="evenodd"/><path d="M2016.5 888.144C2016.5 833.112 2061.11 788.5 2116.14 788.5L2245.86 788.5C2300.89 788.5 2345.5 833.112 2345.5 888.144L2345.5 1081.86C2345.5 1136.89 2300.89 1181.5 2245.86 1181.5L2116.14 1181.5C2061.11 1181.5 2016.5 1136.89 2016.5 1081.86Z" stroke="#000000" stroke-width="4.58333" stroke-miterlimit="8" fill="#A07737" fill-rule="evenodd"/><path d="M2116.5 1084.73C2150.03 1077.29 2194.81 1150.66 2216.53 1248.6 2227.39 1297.57 2230.42 1343.41 2226.55 1377.94L2224.39 1390.15 2226.61 1398.33 2227.05 1409.15 2230.45 1411.04 2236.12 1418.19 2241.24 1423.23C2249.27 1434.93 2252.84 1449.69 2250.04 1464.74 2247.24 1479.8 2238.61 1492.29 2226.91 1500.32L2215.99 1505.06 2185.97 1599.52C2181.95 1612.18 2168.43 1619.18 2155.78 1615.16L2140.68 1610.36C2128.02 1606.34 2121.02 1592.82 2125.05 1580.16L2153.74 1489.86 2149.81 1485.99C2141.78 1474.3 2138.21 1459.53 2141.01 1444.48L2148.12 1426.82 2104.9 1391.48C2089.11 1376.22 2073.11 1358.39 2057.76 1338.55 1996.37 1259.22 1968.61 1177.87 1995.77 1156.85 2009.35 1146.34 2034.09 1152.9 2063.1 1172.01L2083.96 1187.44 2083.5 1174.07C2083.95 1124.49 2095.55 1089.37 2116.5 1084.73Z" stroke="#000000" stroke-width="6.875" stroke-miterlimit="8" fill="#A07737" fill-rule="evenodd"/><path d="M2129.41 1582.84 2156.93 1591.59 2159.07 1593.39 2159 1593.05 2185 1603.11 2192.94 1646.08 2166.95 1636.02 2162.72 1613.17 2159.88 1622.12C2157.86 1628.47 2151.08 1631.98 2144.74 1629.96L2117.21 1621.21C2110.87 1619.2 2107.36 1612.42 2109.37 1606.07L2114.26 1590.68C2116.28 1584.34 2123.06 1580.83 2129.41 1582.84Z" stroke="#000000" stroke-width="2.29167" stroke-miterlimit="8" fill="#404040" fill-rule="evenodd"/><path d="M1808.49 1104.2C1842.01 1111.66 1851.51 1197.09 1829.7 1295.01 1818.8 1343.97 1802.14 1386.78 1784.01 1416.42L1776.88 1426.57 1775.43 1434.92 1768.09 1452.39 1772.44 1605.62C1772.82 1618.9 1762.36 1629.96 1749.09 1630.34L1733.25 1630.79C1719.98 1631.16 1708.91 1620.71 1708.54 1607.43L1703.87 1442.81 1693.74 1430.57C1675.55 1400.97 1658.79 1358.19 1647.78 1309.26 1625.76 1211.39 1635.08 1125.94 1668.58 1118.4 1685.33 1114.63 1704.96 1131.05 1723.15 1160.65L1735.51 1183.46 1740.75 1171.16C1762.16 1126.42 1787.54 1099.53 1808.49 1104.2Z" stroke="#000000" stroke-width="6.875" stroke-miterlimit="8" fill="#A07737" fill-rule="evenodd"/><path d="M1715.67 1589.16 1744.53 1590.2 1747.07 1591.36 1746.92 1591.05 1774.66 1593.78 1793.84 1633.04 1766.1 1630.31 1755.9 1609.43 1755.56 1618.82C1755.32 1625.48 1749.73 1630.68 1743.07 1630.43L1714.21 1629.39C1707.56 1629.15 1702.36 1623.56 1702.6 1616.91L1703.19 1600.77C1703.43 1594.12 1709.02 1588.92 1715.67 1589.16Z" stroke="#000000" stroke-width="2.29167" stroke-miterlimit="8" fill="#404040" fill-rule="evenodd"/><path d="M1648.23 1111C1644.12 1088.87 1658.73 1067.6 1680.85 1063.49L2281.72 951.827C2303.85 947.715 2325.12 962.32 2329.24 984.449L2359.02 1144.72C2363.13 1166.84 2348.53 1188.12 2326.4 1192.23L1725.53 1303.89C1703.4 1308 1682.13 1293.4 1678.02 1271.27Z" fill="#A07737" fill-rule="evenodd"/><path d="M2515.08 845.5 2517.06 846.937C2534.68 857.485 2559.02 864.009 2585.91 864.009 2599.35 864.009 2612.16 862.378 2623.81 859.428L2635.99 854.514 2637.5 861.11C2637.5 891.701 2609.29 916.5 2574.5 916.5 2539.71 916.5 2511.5 891.701 2511.5 861.11Z" stroke="#000000" stroke-width="6.875" stroke-miterlimit="8" fill="#A07737" fill-rule="evenodd"/><path d="M2632.94 859.336C2636.95 878.449 2610.54 900.176 2573.93 907.864 2537.33 915.551 2504.4 906.289 2500.39 887.176 2531.85 900.523 2584.6 893.491 2618.19 871.468 2623.95 867.689 2628.92 863.604 2632.94 859.336Z" fill="#603E27" fill-rule="evenodd"/><path d="M177.625 0C114.866 32.7055 76.3771 92.1286 76.3771 156.316L77.2718 168.303 65.1855 175.403C45.1079 184.922 26.8056 186.541 13.0722 178.318 8.49469 175.576 4.64108 171.871 1.49734 167.328L1.18264 166.638 0 156.316C0 69.985 79.5255 0 177.625 0Z" stroke="#000000" stroke-width="6.875" stroke-miterlimit="8" fill="#B4B9B8" fill-rule="evenodd" transform="matrix(-0.238962 -0.971029 -0.971029 0.238962 2636.58 864.57)"/><path d="M2405.5 787.5C2448.03 787.5 2485.54 797.978 2507.68 813.913L2514.49 820.012 2523.8 824.56C2555.26 845.504 2577.33 894.536 2577.33 951.683 2577.33 961.208 2576.72 970.507 2575.55 979.488L2571.48 1000.15 2580.46 1014.67C2606.28 1064.75 2608.16 1117.22 2580.19 1153.44 2535.42 1211.39 2431.16 1205.81 2347.31 1140.97 2294.9 1100.45 2262.87 1046.37 2257.15 997.366L2256.97 976.01 2256.1 973.187C2255.05 968.062 2254.5 962.756 2254.5 957.321L2254.5 892.494C2254.5 870.756 2263.31 851.075 2277.55 836.829L2288.57 829.395 2291.95 824.09C2310.66 802.587 2354.46 787.5 2405.5 787.5Z" stroke="#000000" stroke-width="6.875" stroke-miterlimit="8" fill="#A07737" fill-rule="evenodd"/><path d="M2265.77 851.5 2274.94 855.62C2292.59 867.374 2303.5 883.612 2303.5 901.548 2303.5 937.42 2259.85 966.5 2206 966.5 2152.15 966.5 2108.5 937.42 2108.5 901.548L2108.64 900.625 2123.4 901.548C2181.1 901.548 2231.96 883.406 2262 855.812Z" stroke="#000000" stroke-width="6.875" stroke-miterlimit="8" fill="#A07737" fill-rule="evenodd"/><path d="M2229.43 894.843C2231.74 923.064 2207.65 948.074 2175.6 950.706 2143.56 953.338 2115.7 932.594 2113.39 904.374 2144.39 930.238 2193.82 928.591 2223.79 900.695 2225.79 898.835 2227.67 896.882 2229.43 894.843Z" fill="#603E27" fill-rule="evenodd"/><path d="M2261 884C2261 852.52 2286.97 827 2319 827 2351.03 827 2377 852.52 2377 884 2377 915.48 2351.03 941 2319 941 2286.97 941 2261 915.48 2261 884Z" fill="#A07737" fill-rule="evenodd"/><path d="M2127.5 717.5C2160.27 780.038 2219.82 818.392 2284.14 818.392L2296.15 817.5 2303.26 829.544C2312.8 849.551 2314.43 867.789 2306.19 881.474 2303.44 886.035 2299.73 889.875 2295.17 893.008L2294.48 893.321 2284.14 894.5C2197.63 894.5 2127.5 815.254 2127.5 717.5Z" stroke="#000000" stroke-width="6.875" stroke-miterlimit="8" fill="#B4B9B8" fill-rule="evenodd"/><path d="M2427.5 1053.65C2427.5 1018.77 2455.77 990.5 2490.65 990.5L2610.35 990.5C2645.23 990.5 2673.5 1018.77 2673.5 1053.65L2673.5 1076.35C2673.5 1111.23 2645.23 1139.5 2610.35 1139.5L2490.65 1139.5C2455.77 1139.5 2427.5 1111.23 2427.5 1076.35Z" stroke="#000000" stroke-width="6.875" stroke-miterlimit="8" fill="#543C18" fill-rule="evenodd"/><path d="M2593.5 1069C2593.5 1049.95 2604.69 1034.5 2618.5 1034.5 2632.31 1034.5 2643.5 1049.95 2643.5 1069 2643.5 1088.05 2632.31 1103.5 2618.5 1103.5 2604.69 1103.5 2593.5 1088.05 2593.5 1069Z" stroke="#000000" stroke-width="4.58333" stroke-miterlimit="8" fill="#3F2708" fill-rule="evenodd"/><path d="M2497.5 1071.5C2497.5 1052.72 2512.72 1037.5 2531.5 1037.5 2550.28 1037.5 2565.5 1052.72 2565.5 1071.5 2565.5 1090.28 2550.28 1105.5 2531.5 1105.5 2512.72 1105.5 2497.5 1090.28 2497.5 1071.5Z" stroke="#000000" stroke-width="4.58333" stroke-miterlimit="8" fill="#3F2708" fill-rule="evenodd"/><path d="M2596.43 1067.66C2622.22 1076.33 2636.09 1104.26 2627.42 1130.05 2618.75 1155.84 2590.82 1169.72 2565.03 1161.05 2539.24 1152.38 2525.36 1124.44 2534.03 1098.65 2538.38 1085.74 2547.88 1075.19 2560.27 1069.54L2565.25 1080.43C2546.52 1088.98 2538.26 1111.1 2546.81 1129.83 2555.36 1148.57 2577.48 1156.82 2596.21 1148.27 2614.94 1139.72 2623.2 1117.6 2614.65 1098.87 2610.36 1089.49 2602.39 1082.3 2592.61 1079.01Z" stroke="#000000" stroke-width="4.58333" stroke-linecap="round" stroke-linejoin="round" stroke-miterlimit="10" fill="#FFD966" fill-rule="evenodd"/><path d="M2451.36 902.622C2447.36 910.807 2426.26 908.709 2404.24 897.935 2382.22 887.162 2367.62 871.793 2371.63 863.608 2384.13 879.873 2414.56 896.816 2439.58 901.45 2443.88 902.245 2447.84 902.64 2451.36 902.622Z" fill="#3F2708" fill-rule="evenodd"/><path d="M2553.01 850.894C2558 858.518 2545.42 875.582 2524.91 889.006 2504.4 902.431 2483.73 907.133 2478.74 899.508 2499.11 897.064 2529.22 879.565 2545.99 860.422 2548.86 857.138 2551.23 853.929 2553.01 850.894Z" fill="#3F2708" fill-rule="evenodd"/><path d="M2447.71 921.554C2436.68 952.433 2407.75 970.326 2383.09 961.518 2358.43 952.711 2347.38 920.539 2358.41 889.661 2380.79 916.323 2413.5 928.003 2447.71 921.554Z" stroke="#000000" stroke-width="4.58333" stroke-miterlimit="8" fill="#C00000" fill-rule="evenodd"/><path d="M2397 939C2397 932.925 2401.92 928 2408 928 2414.08 928 2419 932.925 2419 939 2419 945.075 2414.08 950 2408 950 2401.92 950 2397 945.075 2397 939Z" fill-rule="evenodd"/><path d="M2560.52 884.996C2574.96 914.439 2567.59 947.649 2544.08 959.174 2520.57 970.699 2489.81 956.173 2475.38 926.731 2510.1 929.291 2541.28 914.007 2560.52 884.996Z" stroke="#000000" stroke-width="4.58333" stroke-miterlimit="8" fill="#C00000" fill-rule="evenodd"/><path d="M2513 939C2513 932.925 2517.93 928 2524 928 2530.08 928 2535 932.925 2535 939 2535 945.075 2530.08 950 2524 950 2517.93 950 2513 945.075 2513 939Z" fill-rule="evenodd"/></g></svg>