<svg width="1026" height="1536" xmlns="http://www.w3.org/2000/svg" xmlns:xlink="http://www.w3.org/1999/xlink" xml:space="preserve" overflow="hidden"><defs><clipPath id="clip0"><rect x="614" y="1557" width="1026" height="1536"/></clipPath></defs><g clip-path="url(#clip0)" transform="translate(-614 -1557)"><rect x="631" y="2134" width="122" height="265" fill="#F0AB9C"/><rect x="1055" y="1898" width="272" height="556" fill="#E5CFD1"/><rect x="822" y="1898" width="245" height="556" fill="#D8283C"/><path d="M901 1729.5C901 1649.69 969.724 1585 1054.5 1585 1139.28 1585 1208 1649.69 1208 1729.5 1208 1809.31 1139.28 1874 1054.5 1874 969.724 1874 901 1809.31 901 1729.5Z" fill="#2E2C2F" fill-rule="evenodd"/><path d="M916 1806.5C916 1710.68 979.352 1633 1057.5 1633 1135.65 1633 1199 1710.68 1199 1806.5 1199 1902.32 1135.65 1980 1057.5 1980 979.352 1980 916 1902.32 916 1806.5Z" fill="#F0AB9C" fill-rule="evenodd"/><path d="M1427.1 1682.34 1568.53 1714.09 1513.38 1959.81 1371.95 1928.07Z" fill="#F0AB9C" fill-rule="evenodd"/><path d="M614 2429.5C614 2386.7 647.579 2352 689 2352 730.421 2352 764 2386.7 764 2429.5 764 2472.3 730.421 2507 689 2507 647.579 2507 614 2472.3 614 2429.5Z" fill="#F0AB9C" fill-rule="evenodd"/><path d="M823.651 1897.51 972.206 2021.4 764.755 2270.14 616.199 2146.25Z" fill="#D8283C" fill-rule="evenodd"/><path d="M1394.45 1802.08 1532.77 1960.38 1329.64 2137.88 1191.32 1979.58Z" fill="#E5CFD1" fill-rule="evenodd"/><path d="M1418 1649.5C1418 1598.41 1458.29 1557 1508 1557 1557.71 1557 1598 1598.41 1598 1649.5 1598 1700.59 1557.71 1742 1508 1742 1458.29 1742 1418 1700.59 1418 1649.5Z" fill="#F0AB9C" fill-rule="evenodd"/><rect x="1372" y="1580" width="263" height="113" stroke="#625252" stroke-width="10.3125" stroke-miterlimit="8" fill="#AD9CC6"/><rect x="822" y="2454" width="505" height="215" fill="#1E1E20"/><rect x="822" y="2643" width="209" height="396" fill="#1E1E20"/><rect x="1117" y="2640" width="210" height="396" fill="#1E1E20"/><rect x="772" y="2959" width="259" height="134" fill="#1E1E20"/><rect x="1068" y="2959" width="259" height="134" fill="#1E1E20"/><path d="M912.5 1782.5 1199.42 1782.5" stroke="#000000" stroke-width="6.875" stroke-miterlimit="8" fill="none" fill-rule="evenodd"/><path d="M955.5 1763.83C955.5 1758.68 959.679 1754.5 964.834 1754.5L1022.17 1754.5C1027.32 1754.5 1031.5 1758.68 1031.5 1763.83L1031.5 1801.17C1031.5 1806.32 1027.32 1810.5 1022.17 1810.5L964.834 1810.5C959.679 1810.5 955.5 1806.32 955.5 1801.17Z" stroke="#000000" stroke-width="4.58333" stroke-miterlimit="8" fill="#F0AB9C" fill-rule="evenodd"/><path d="M1081.5 1764.67C1081.5 1759.6 1085.6 1755.5 1090.67 1755.5L1148.33 1755.5C1153.4 1755.5 1157.5 1759.6 1157.5 1764.67L1157.5 1801.33C1157.5 1806.4 1153.4 1810.5 1148.33 1810.5L1090.67 1810.5C1085.6 1810.5 1081.5 1806.4 1081.5 1801.33Z" stroke="#000000" stroke-width="4.58333" stroke-miterlimit="8" fill="#F0AB9C" fill-rule="evenodd"/></g></svg>