<svg width="1015" height="1263" xmlns="http://www.w3.org/2000/svg" xmlns:xlink="http://www.w3.org/1999/xlink" xml:space="preserve" overflow="hidden"><g transform="translate(-3249 -690)"><path d="M4023.1 1102.31C4032.17 1072.36 4030.02 1067.57 4035.15 1065.31 4050.25 1058.66 4081.42 1094.56 4097.71 1118.52 4108.2 1133.97 4102.09 1129.13 4123.1 1165.98 4136.88 1190.15 4154.64 1218.75 4164.44 1238.4 4165.27 1240.07 4167.64 1244.92 4171.16 1251.54 4177.1 1262.73 4180.81 1268.47 4192.31 1291.07 4206.16 1318.29 4215.4 1338.39 4232.09 1371.86 4234.13 1375.03 4240.3 1384.48 4240.5 1397.33 4237.08 1475.82 4100.35 1354.07 4087.24 1339.96 4066.72 1319.02 4063.15 1310.56 4043.9 1283.28 4033.03 1267.88 4027.6 1260.18 4021.76 1253.21 4015.48 1245.7 4011.47 1241.69 4006.78 1233.97 4001.07 1224.59 3998.11 1215.9 3996.5 1210 3999.07 1202.19 4002.51 1190.41 4005.06 1175.74 4007.21 1163.43 4006.51 1161.81 4008.21 1151.49 4011.34 1132.5 4015.37 1127.82 4023.1 1102.31Z" stroke="#000000" stroke-width="20.625" stroke-miterlimit="8" fill="#EBE2B3" fill-rule="evenodd"/><path d="M3450.5 1715.5C3453.92 1720.46 3456.74 1724.75 3458.85 1728.07 3466.27 1739.79 3471.15 1749.07 3473.03 1752.69 3477.97 1762.13 3478.42 1764.04 3488.95 1786.7 3505.87 1823.08 3506.57 1822.11 3511.31 1834.76 3517.87 1852.14 3516.19 1852.9 3524.8 1877.84 3532.77 1900.91 3536.91 1912.56 3544.12 1919.91 3545.98 1921.79 3564.3 1939.92 3584.79 1934.49 3598.25 1930.92 3605.55 1919.02 3610.76 1910.49 3613.92 1905.36 3616.18 1900.26 3624.93 1864.76 3629.99 1844.26 3632.54 1833.78 3633.99 1824.24 3634.77 1819.19 3635.18 1815.18 3635.4 1811.71 3636.35 1797.69 3636.95 1788.64 3637.18 1784.75 3637.71 1775.75 3640.43 1762.65 3650.5 1745.65 3583.84 1735.59 3517.17 1725.56 3450.5 1715.5L3450.5 1715.5Z" stroke="#000000" stroke-width="20.625" stroke-miterlimit="8" fill="#EBE2B3" fill-rule="evenodd"/><path d="M3546.86 1739.15C3543.03 1744.63 3552.95 1760.44 3558.05 1766.83 3562.22 1772.08 3567.73 1776.78 3569.92 1778.56 3571.35 1779.75 3574.42 1782.19 3578.6 1784.87 3585.56 1789.32 3589.72 1790.81 3599.13 1794.8 3611.79 1800.16 3619.32 1804.55 3631.41 1806.61 3634.01 1807.06 3637.89 1807.58 3640.18 1805.3 3643.1 1802.4 3641.74 1796.6 3641.3 1794.52 3637.03 1774.14 3555.79 1726.34 3546.86 1739.15L3546.86 1739.15Z" fill="#B4AE8B" fill-rule="evenodd" fill-opacity="0.611765"/><path d="M3839.5 1762.27C3847.71 1782.62 3855.91 1805.76 3863.35 1831.52 3870.67 1856.95 3876.05 1880.76 3880.01 1902.43 3900.58 1957.56 3955.53 1944.28 3962.4 1886.39 3970.16 1860.95 3977.67 1833.82 3984.62 1805.07 3990.88 1779.18 3996.19 1754.21 4000.67 1730.37 4001.29 1718.4 4001.88 1706.43 4002.5 1694.5L3839.58 1762.27 3839.5 1762.27Z" stroke="#000000" stroke-width="20.625" stroke-miterlimit="8" fill="#EBE2B3" fill-rule="evenodd"/><path d="M3303.79 1328.52C3303.36 1312.06 3303.16 1298.64 3303.06 1289.33 3302.95 1280.03 3302.65 1268.7 3302.03 1246.04 3301.68 1233.08 3301.57 1230.17 3300.52 1225.39 3298.26 1215.15 3294.96 1211.02 3292.85 1199.27 3291.68 1192.73 3291.58 1187.73 3291.52 1184.63 3290.98 1157.73 3302.18 1130.97 3312.59 1117.96 3313.64 1116.64 3316.71 1112.94 3320.18 1107.38 3324.65 1100.2 3327.03 1094.39 3328.21 1091.61 3333.21 1079.87 3335.59 1078.49 3344 1062.36 3351.09 1048.77 3356.44 1038.52 3360.38 1025.51 3364.27 1012.7 3363.12 1009.31 3366.23 988.66 3369.06 969.864 3371.73 952.203 3377.93 936.596 3385.93 916.474 3397.95 904.476 3412.63 889.826 3449.03 853.492 3467.65 858.569 3486.15 828.373 3490.58 821.132 3494.98 811.918 3505.59 800.381 3511.77 793.669 3513.44 793.638 3533.7 777.513 3569.7 748.857 3584.36 740.097 3591.08 736.547 3592.19 735.959 3592.75 735.678 3593.36 735.378 3619.74 722.387 3633.01 733.313 3663.39 727.759 3680.54 724.625 3687.13 719.167 3702.47 719.088 3704.62 719.078 3710.92 719.178 3719.72 718.573 3723.23 718.332 3729.11 717.885 3736.18 716.923 3748.21 715.308 3757.25 713.177 3760.04 712.524 3800.18 703.245 3820.45 697.643 3839.01 702.008 3861.31 707.231 3876.3 720.154 3889.91 731.839 3898.53 739.262 3910.39 754.452 3933.79 784.489 3959.81 817.929 3965.82 826.899 3981.18 838.893 3996.54 850.887 3998.47 848.069 4009.26 858.208 4029.97 877.663 4042.6 916.117 4042.6 916.117 4050.19 939.394 4048.33 947.116 4055.31 954.144 4057.04 955.88 4063.75 962.063 4067.81 972.552 4068.3 973.83 4068.62 974.851 4068.92 975.779 4071.46 983.786 4072.91 991.656 4076.17 1007.33 4080.29 1027.16 4081.5 1036.71 4086.48 1065.31 4090.36 1087.51 4092.19 1098.64 4093.49 1103.9 4102.29 1139.54 4115.52 1163.73 4119.82 1172.33 4139.92 1212.47 4137.89 1259.93 4133.87 1354.85 4131.43 1412.42 4130.09 1443.69 4116.31 1484.73 4109.2 1505.9 4105.93 1508.34 4088.23 1556.69 4073.25 1597.59 4070.78 1609 4058.4 1637.42 4044.66 1669.04 4037.78 1684.85 4023.32 1702.34 4017.2 1709.76 4002.94 1725.71 3965.41 1747.98 3939.05 1763.62 3901.8 1786.35 3847.84 1797.13 3818.99 1802.89 3787.4 1801.93 3724.23 1800.02 3712.27 1799.66 3694.99 1798.88 3673.33 1794.76 3669.73 1794.07 3656.09 1791.41 3638.23 1785.98 3617.13 1779.57 3616.54 1777.33 3599.63 1771.95 3572.36 1763.27 3566.7 1766.81 3536.45 1757.91 3527.52 1755.27 3515.46 1751.73 3502.46 1745.57 3478.44 1734.21 3463.12 1719.62 3445.96 1702.34 3401.74 1657.8 3379.36 1635.69 3370.49 1619.86 3363.62 1607.59 3354.2 1579.51 3335.4 1523.32 3323.4 1487.45 3317.8 1469.38 3314.34 1454.9 3307.38 1425.79 3300.59 1383.13 3303.79 1328.52Z" stroke="#000000" stroke-width="20.625" stroke-miterlimit="8" fill="#EBE2B3" fill-rule="evenodd"/><path d="M3559.61 855.485 3572.76 830.667 3690.66 893.12 3677.51 917.939Z" stroke="#000000" stroke-width="10.3139" stroke-miterlimit="8" fill="#595850" fill-rule="evenodd"/><path d="M4004 1942C4004 1948.08 3888.94 1953 3747 1953 3605.06 1953 3490 1948.08 3490 1942 3490 1935.92 3605.06 1931 3747 1931 3888.94 1931 4004 1935.92 4004 1942Z" fill="#5B5742" fill-rule="evenodd" fill-opacity="0.470588"/><path d="M3644.5 979C3644.5 1001.92 3625.92 1020.5 3603 1020.5 3580.08 1020.5 3561.5 1001.92 3561.5 979 3561.5 956.08 3580.08 937.5 3603 937.5 3625.92 937.5 3644.5 956.08 3644.5 979Z" stroke="#000000" stroke-width="20.625" stroke-miterlimit="8" fill="#231815" fill-rule="evenodd"/><path d="M3627 992C3627 1003.05 3618.05 1012 3607 1012 3595.95 1012 3587 1003.05 3587 992 3587 980.954 3595.95 972 3607 972 3618.05 972 3627 980.954 3627 992Z" fill="#FFFFFF" fill-rule="evenodd"/><path d="M3826 1081C3826 1094.81 3799.14 1106 3766 1106 3732.86 1106 3706 1094.81 3706 1081 3706 1067.19 3732.86 1056 3766 1056 3799.14 1056 3826 1067.19 3826 1081Z" stroke="#000000" stroke-width="10.3125" stroke-miterlimit="8" fill="#E73A8F" fill-rule="evenodd"/><path d="M4200.35 1588.41 3289.6 1521.14C3271.69 1519.81 3258.27 1504.24 3259.59 1486.38L3277.9 1238.58C3279.23 1220.68 3294.81 1207.27 3312.68 1208.59L4223.4 1275.85C4241.31 1277.18 4254.73 1292.75 4253.41 1310.61L4235.1 1558.42C4233.81 1576.28 4218.22 1589.73 4200.35 1588.41L4200.35 1588.41Z" stroke="#000000" stroke-width="20.625" stroke-miterlimit="8" fill="#A6A897" fill-rule="evenodd"/><path d="M3549.82 1302.48 3520.91 1300.29C3516.52 1299.96 3513.23 1296.09 3513.52 1291.62L3514.65 1276.03C3514.97 1271.57 3518.78 1268.22 3523.18 1268.52L3552.09 1270.7C3556.48 1271.03 3559.77 1274.9 3559.48 1279.38L3558.35 1294.96C3558.02 1299.47 3554.21 1302.81 3549.82 1302.48Z" stroke="#000000" stroke-width="3.4375" stroke-miterlimit="8" fill="#D6DBD9" fill-rule="evenodd"/><path d="M3688.61 1312.48 3659.07 1310.36C3654.58 1310.04 3651.22 1306.28 3651.52 1301.94L3652.67 1286.81C3653.01 1282.48 3656.89 1279.23 3661.39 1279.52L3690.93 1281.64C3695.42 1281.96 3698.78 1285.71 3698.48 1290.06L3697.33 1305.18C3697 1309.52 3693.1 1312.8 3688.61 1312.48Z" stroke="#000000" stroke-width="3.4375" stroke-miterlimit="8" fill="#D6DBD9" fill-rule="evenodd"/><path d="M3362.61 1288.48 3333.07 1286.36C3328.58 1286.04 3325.22 1282.28 3325.52 1277.94L3326.67 1262.81C3327 1258.48 3330.89 1255.23 3335.39 1255.52L3364.93 1257.64C3369.42 1257.96 3372.78 1261.71 3372.48 1266.06L3371.33 1281.19C3371.03 1285.53 3367.1 1288.8 3362.61 1288.48Z" stroke="#000000" stroke-width="3.4375" stroke-miterlimit="8" fill="#D6DBD9" fill-rule="evenodd"/><path d="M3424.61 1293.48 3395.07 1291.29C3390.58 1290.96 3387.22 1287.09 3387.52 1282.62L3388.67 1267.03C3389.01 1262.57 3392.89 1259.22 3397.39 1259.52L3426.93 1261.7C3431.42 1262.03 3434.78 1265.9 3434.48 1270.38L3433.33 1285.96C3433.02 1290.47 3429.1 1293.81 3424.61 1293.48Z" stroke="#000000" stroke-width="3.4375" stroke-miterlimit="8" fill="#D6DBD9" fill-rule="evenodd"/><path d="M3930.82 1330.48 3901.91 1328.36C3897.52 1328.04 3894.23 1324.28 3894.52 1319.94L3895.65 1304.81C3895.97 1300.48 3899.78 1297.23 3904.18 1297.52L3933.09 1299.64C3937.48 1299.96 3940.77 1303.72 3940.48 1308.06L3939.35 1323.19C3939.06 1327.54 3935.22 1330.77 3930.82 1330.48Z" stroke="#000000" stroke-width="3.4375" stroke-miterlimit="8" fill="#D6DBD9" fill-rule="evenodd"/><path d="M3487.82 1298.48 3458.91 1296.29C3454.52 1295.96 3451.23 1292.09 3451.52 1287.62L3452.65 1272.03C3452.97 1267.57 3456.78 1264.22 3461.18 1264.52L3490.09 1266.7C3494.48 1267.03 3497.77 1270.9 3497.48 1275.38L3496.35 1290.96C3496.06 1295.44 3492.21 1298.81 3487.82 1298.48Z" stroke="#000000" stroke-width="3.4375" stroke-miterlimit="8" fill="#D6DBD9" fill-rule="evenodd"/><path d="M3750.82 1317.48 3721.91 1315.29C3717.52 1314.96 3714.23 1311.09 3714.52 1306.62L3715.65 1291.03C3715.97 1286.57 3719.78 1283.22 3724.18 1283.52L3753.09 1285.7C3757.48 1286.03 3760.77 1289.9 3760.48 1294.38L3759.35 1309.96C3759.03 1314.43 3755.21 1317.81 3750.82 1317.48Z" stroke="#000000" stroke-width="3.4375" stroke-miterlimit="8" fill="#D6DBD9" fill-rule="evenodd"/><path d="M3810.61 1321.48 3781.07 1319.36C3776.58 1319.04 3773.22 1315.28 3773.52 1310.94L3774.67 1295.81C3775 1291.48 3778.89 1288.23 3783.39 1288.52L3812.93 1290.64C3817.42 1290.96 3820.78 1294.71 3820.48 1299.06L3819.33 1314.18C3818.98 1318.55 3815.1 1321.8 3810.61 1321.48Z" stroke="#000000" stroke-width="3.4375" stroke-miterlimit="8" fill="#D6DBD9" fill-rule="evenodd"/><path d="M3870.61 1326.48 3841.07 1324.29C3836.58 1323.96 3833.22 1320.09 3833.52 1315.62L3834.67 1300.03C3835 1295.57 3838.89 1292.22 3843.39 1292.52L3872.93 1294.7C3877.42 1295.03 3880.78 1298.9 3880.48 1303.38L3879.33 1318.96C3879.03 1323.44 3875.1 1326.81 3870.61 1326.48Z" stroke="#000000" stroke-width="3.4375" stroke-miterlimit="8" fill="#D6DBD9" fill-rule="evenodd"/><path d="M3618.82 1307.48 3589.91 1305.29C3585.52 1304.96 3582.23 1301.09 3582.52 1296.62L3583.65 1281.03C3583.97 1276.57 3587.78 1273.22 3592.18 1273.52L3621.09 1275.7C3625.48 1276.03 3628.77 1279.9 3628.48 1284.38L3627.35 1299.96C3627.05 1304.48 3623.21 1307.81 3618.82 1307.48Z" stroke="#000000" stroke-width="3.4375" stroke-miterlimit="8" fill="#D6DBD9" fill-rule="evenodd"/><path d="M4000.61 1333.48 3971.07 1331.36C3966.58 1331.04 3963.22 1327.28 3963.52 1322.94L3964.67 1307.81C3965 1303.48 3968.89 1300.23 3973.39 1300.52L4002.93 1302.64C4007.42 1302.96 4010.78 1306.71 4010.48 1311.06L4009.33 1326.18C4009.03 1330.53 4005.1 1333.8 4000.61 1333.48Z" stroke="#000000" stroke-width="3.4375" stroke-miterlimit="8" fill="#D6DBD9" fill-rule="evenodd"/><path d="M3387.82 1336.48 3328.91 1332.07C3324.52 1331.74 3321.23 1327.9 3321.52 1323.46L3322.65 1307.98C3322.97 1303.55 3326.78 1300.23 3331.19 1300.52L3390.09 1304.93C3394.48 1305.26 3397.77 1309.1 3397.48 1313.54L3396.35 1329.02C3396.05 1333.5 3392.21 1336.81 3387.82 1336.48Z" stroke="#000000" stroke-width="3.4375" stroke-miterlimit="8" fill="#D6DBD9" fill-rule="evenodd"/><path d="M3437.94 1339.48 3422.81 1338.36C3418.48 1338.04 3415.23 1334.29 3415.52 1329.94L3416.63 1314.81C3416.95 1310.48 3420.71 1307.23 3425.06 1307.52L3440.19 1308.63C3444.52 1308.95 3447.77 1312.71 3447.48 1317.05L3446.37 1332.18C3446.04 1336.55 3442.28 1339.8 3437.94 1339.48Z" stroke="#000000" stroke-width="3.4375" stroke-miterlimit="8" fill="#D6DBD9" fill-rule="evenodd"/><path d="M3483.65 1343.48 3468.04 1342.33C3463.57 1342 3460.22 1338.12 3460.52 1333.64L3461.67 1318.04C3462 1313.57 3465.87 1310.22 3470.36 1310.52L3485.96 1311.67C3490.43 1312 3493.78 1315.87 3493.48 1320.35L3492.33 1335.95C3492.04 1340.44 3488.11 1343.81 3483.65 1343.48Z" stroke="#000000" stroke-width="3.4375" stroke-miterlimit="8" fill="#D6DBD9" fill-rule="evenodd"/><path d="M3531.65 1346.48 3516.04 1345.33C3511.57 1345 3508.22 1341.12 3508.52 1336.64L3509.67 1321.04C3510 1316.57 3513.87 1313.22 3518.36 1313.52L3533.96 1314.67C3538.43 1315 3541.78 1318.87 3541.48 1323.35L3540.33 1338.96C3540.04 1343.44 3536.12 1346.81 3531.65 1346.48Z" stroke="#000000" stroke-width="3.4375" stroke-miterlimit="8" fill="#D6DBD9" fill-rule="evenodd"/><path d="M3576.65 1349.48 3561.04 1348.37C3556.57 1348.04 3553.22 1344.29 3553.52 1339.94L3554.67 1324.81C3555 1320.48 3558.87 1317.23 3563.35 1317.52L3578.96 1318.63C3583.43 1318.95 3586.78 1322.71 3586.48 1327.05L3585.33 1342.18C3584.99 1346.56 3581.12 1349.8 3576.65 1349.48L3576.65 1349.48Z" stroke="#000000" stroke-width="3.4375" stroke-miterlimit="8" fill="#D6DBD9" fill-rule="evenodd"/><path d="M3630.65 1354.48 3615.04 1353.33C3610.57 1353 3607.22 1349.12 3607.52 1344.64L3608.67 1329.04C3609 1324.57 3612.87 1321.22 3617.36 1321.52L3632.96 1322.67C3637.43 1323 3640.78 1326.87 3640.48 1331.35L3639.33 1346.95C3639.03 1351.44 3635.12 1354.81 3630.65 1354.48Z" stroke="#000000" stroke-width="3.4375" stroke-miterlimit="8" fill="#D6DBD9" fill-rule="evenodd"/><path d="M3675.94 1357.48 3660.81 1356.36C3656.48 1356.04 3653.23 1352.29 3653.52 1347.94L3654.63 1332.81C3654.95 1328.48 3658.71 1325.23 3663.06 1325.52L3678.19 1326.63C3682.52 1326.95 3685.77 1330.71 3685.48 1335.05L3684.37 1350.18C3684.07 1354.56 3680.28 1357.8 3675.94 1357.48Z" stroke="#000000" stroke-width="3.4375" stroke-miterlimit="8" fill="#D6DBD9" fill-rule="evenodd"/><path d="M3723.94 1361.48 3708.81 1360.33C3704.48 1360 3701.23 1356.12 3701.52 1351.64L3702.63 1336.04C3702.95 1331.57 3706.71 1328.22 3711.06 1328.52L3726.19 1329.67C3730.52 1330 3733.77 1333.87 3733.48 1338.35L3732.37 1353.96C3732.04 1358.47 3728.28 1361.81 3723.94 1361.48Z" stroke="#000000" stroke-width="3.4375" stroke-miterlimit="8" fill="#D6DBD9" fill-rule="evenodd"/><path d="M3766.65 1364.48 3751.04 1363.33C3746.57 1363 3743.22 1359.12 3743.52 1354.64L3744.67 1339.04C3745 1334.57 3748.87 1331.22 3753.36 1331.52L3768.96 1332.67C3773.43 1333 3776.78 1336.87 3776.48 1341.35L3775.33 1356.96C3775 1361.43 3771.12 1364.81 3766.65 1364.48Z" stroke="#000000" stroke-width="3.4375" stroke-miterlimit="8" fill="#D6DBD9" fill-rule="evenodd"/><path d="M3815.65 1367.48 3800.04 1366.36C3795.57 1366.04 3792.22 1362.29 3792.52 1357.94L3793.67 1342.81C3794 1338.48 3797.87 1335.23 3802.36 1335.52L3817.96 1336.63C3822.43 1336.95 3825.78 1340.71 3825.48 1345.05L3824.33 1360.18C3824 1364.52 3820.11 1367.8 3815.65 1367.48Z" stroke="#000000" stroke-width="3.4375" stroke-miterlimit="8" fill="#D6DBD9" fill-rule="evenodd"/><path d="M3860.94 1371.48 3845.81 1370.33C3841.48 1370 3838.23 1366.12 3838.52 1361.64L3839.63 1346.04C3839.95 1341.57 3843.71 1338.22 3848.06 1338.52L3863.19 1339.67C3867.52 1340 3870.77 1343.87 3870.48 1348.35L3869.37 1363.95C3869.08 1368.44 3865.28 1371.81 3860.94 1371.48Z" stroke="#000000" stroke-width="3.4375" stroke-miterlimit="8" fill="#D6DBD9" fill-rule="evenodd"/><path d="M3908.94 1374.48 3893.81 1373.33C3889.48 1373 3886.23 1369.12 3886.52 1364.64L3887.63 1349.04C3887.95 1344.57 3891.71 1341.22 3896.06 1341.52L3911.19 1342.67C3915.52 1343 3918.77 1346.87 3918.48 1351.35L3917.37 1366.95C3917.07 1371.47 3913.28 1374.81 3908.94 1374.48Z" stroke="#000000" stroke-width="3.4375" stroke-miterlimit="8" fill="#D6DBD9" fill-rule="evenodd"/><path d="M3954.65 1377.48 3939.04 1376.36C3934.57 1376.04 3931.22 1372.29 3931.52 1367.94L3932.67 1352.81C3933 1348.48 3936.87 1345.23 3941.36 1345.52L3956.96 1346.63C3961.43 1346.95 3964.78 1350.71 3964.48 1355.05L3963.33 1370.18C3963 1374.56 3959.12 1377.8 3954.65 1377.48Z" stroke="#000000" stroke-width="3.4375" stroke-miterlimit="8" fill="#D6DBD9" fill-rule="evenodd"/><path d="M3995.64 1381.48 3980.04 1380.33C3975.57 1380 3972.22 1376.12 3972.52 1371.64L3973.67 1356.04C3974 1351.57 3977.87 1348.22 3982.35 1348.52L3997.96 1349.67C4002.43 1350 4005.78 1353.87 4005.48 1358.35L4004.33 1373.95C4004.02 1378.47 4000.12 1381.81 3995.64 1381.48Z" stroke="#000000" stroke-width="3.4375" stroke-miterlimit="8" fill="#D6DBD9" fill-rule="evenodd"/><path d="M3497.94 1390.48 3482.81 1389.33C3478.48 1389 3475.23 1385.12 3475.52 1380.64L3476.63 1365.04C3476.95 1360.57 3480.71 1357.22 3485.06 1357.52L3500.19 1358.67C3504.52 1359 3507.77 1362.87 3507.48 1367.35L3506.37 1382.96C3506.05 1387.43 3502.28 1390.81 3497.94 1390.48Z" stroke="#000000" stroke-width="3.4375" stroke-miterlimit="8" fill="#D6DBD9" fill-rule="evenodd"/><path d="M3548.65 1394.48 3533.04 1393.36C3528.57 1393.04 3525.22 1389.29 3525.52 1384.94L3526.67 1369.81C3527 1365.48 3530.87 1362.23 3535.36 1362.52L3550.96 1363.63C3555.43 1363.95 3558.78 1367.71 3558.48 1372.05L3557.33 1387.18C3557 1391.52 3553.12 1394.8 3548.65 1394.48Z" stroke="#000000" stroke-width="3.4375" stroke-miterlimit="8" fill="#D6DBD9" fill-rule="evenodd"/><path d="M3595.65 1398.48 3580.04 1397.33C3575.57 1397 3572.22 1393.12 3572.52 1388.64L3573.67 1373.04C3574 1368.57 3577.87 1365.22 3582.36 1365.52L3597.96 1366.67C3602.43 1367 3605.78 1370.87 3605.48 1375.35L3604.33 1390.95C3604.03 1395.44 3600.11 1398.81 3595.65 1398.48Z" stroke="#000000" stroke-width="3.4375" stroke-miterlimit="8" fill="#D6DBD9" fill-rule="evenodd"/><path d="M3642.64 1401.48 3627.04 1400.33C3622.57 1400 3619.22 1396.12 3619.52 1391.64L3620.67 1376.04C3621 1371.57 3624.87 1368.22 3629.35 1368.52L3644.96 1369.67C3649.43 1370 3652.78 1373.87 3652.48 1378.35L3651.33 1393.96C3650.99 1398.46 3647.12 1401.81 3642.64 1401.48Z" stroke="#000000" stroke-width="3.4375" stroke-miterlimit="8" fill="#D6DBD9" fill-rule="evenodd"/><path d="M3691.65 1405.48 3676.04 1404.33C3671.57 1404 3668.22 1400.12 3668.52 1395.64L3669.67 1380.04C3670 1375.57 3673.87 1372.22 3678.36 1372.52L3693.96 1373.67C3698.43 1374 3701.78 1377.87 3701.48 1382.35L3700.33 1397.95C3700.04 1402.44 3696.11 1405.81 3691.65 1405.48Z" stroke="#000000" stroke-width="3.4375" stroke-miterlimit="8" fill="#D6DBD9" fill-rule="evenodd"/><path d="M3739.94 1408.48 3724.81 1407.33C3720.48 1407 3717.23 1403.12 3717.52 1398.64L3718.63 1383.04C3718.95 1378.57 3722.71 1375.22 3727.06 1375.52L3742.19 1376.67C3746.52 1377 3749.77 1380.87 3749.48 1385.35L3748.37 1400.95C3748.08 1405.44 3744.28 1408.81 3739.94 1408.48Z" stroke="#000000" stroke-width="3.4375" stroke-miterlimit="8" fill="#D6DBD9" fill-rule="evenodd"/><path d="M3780.65 1408.48 3765.04 1407.33C3760.57 1407 3757.22 1403.12 3757.52 1398.64L3758.67 1383.04C3759 1378.57 3762.87 1375.22 3767.36 1375.52L3782.96 1376.67C3787.43 1377 3790.78 1380.87 3790.48 1385.35L3789.33 1400.95C3789.02 1405.47 3785.12 1408.81 3780.65 1408.48Z" stroke="#000000" stroke-width="3.4375" stroke-miterlimit="8" fill="#D6DBD9" fill-rule="evenodd"/><path d="M3829.64 1411.48 3814.04 1410.36C3809.57 1410.04 3806.22 1406.29 3806.52 1401.94L3807.67 1386.81C3808 1382.48 3811.87 1379.23 3816.35 1379.52L3831.96 1380.63C3836.43 1380.95 3839.78 1384.71 3839.48 1389.05L3838.33 1404.18C3838.02 1408.57 3834.11 1411.8 3829.64 1411.48Z" stroke="#000000" stroke-width="3.4375" stroke-miterlimit="8" fill="#D6DBD9" fill-rule="evenodd"/><path d="M3874.94 1415.48 3859.81 1414.33C3855.48 1414 3852.23 1410.12 3852.52 1405.64L3853.63 1390.04C3853.95 1385.57 3857.71 1382.22 3862.06 1382.52L3877.19 1383.67C3881.52 1384 3884.77 1387.87 3884.48 1392.35L3883.37 1407.95C3883.04 1412.46 3879.28 1415.81 3874.94 1415.48Z" stroke="#000000" stroke-width="3.4375" stroke-miterlimit="8" fill="#D6DBD9" fill-rule="evenodd"/><path d="M3922.94 1418.48 3907.81 1417.37C3903.48 1417.04 3900.23 1413.29 3900.52 1408.94L3901.63 1393.81C3901.95 1389.48 3905.71 1386.23 3910.06 1386.52L3925.19 1387.63C3929.52 1387.95 3932.77 1391.71 3932.48 1396.05L3931.37 1411.18C3931.05 1415.52 3927.28 1418.8 3922.94 1418.48Z" stroke="#000000" stroke-width="3.4375" stroke-miterlimit="8" fill="#D6DBD9" fill-rule="evenodd"/><path d="M3404.74 1384.48 3324.97 1378.5C3320.54 1378.16 3317.23 1374.27 3317.52 1369.77L3318.66 1354.08C3318.99 1349.59 3322.82 1346.22 3327.26 1346.52L3407.03 1352.5C3411.46 1352.83 3414.77 1356.73 3414.48 1361.23L3413.34 1376.92C3413.05 1381.42 3409.16 1384.81 3404.74 1384.48Z" stroke="#000000" stroke-width="3.4375" stroke-miterlimit="8" fill="#D6DBD9" fill-rule="evenodd"/><path d="M3470.94 1437.48 3455.81 1436.33C3451.48 1436 3448.23 1432.12 3448.52 1427.64L3449.63 1412.04C3449.95 1407.57 3453.71 1404.22 3458.06 1404.52L3473.19 1405.67C3477.52 1406 3480.77 1409.87 3480.48 1414.35L3479.37 1429.96C3479.05 1434.43 3475.28 1437.81 3470.94 1437.48Z" stroke="#000000" stroke-width="3.4375" stroke-miterlimit="8" fill="#D6DBD9" fill-rule="evenodd"/><path d="M3448.94 1386.48 3433.81 1385.36C3429.48 1385.04 3426.23 1381.29 3426.52 1376.94L3427.63 1361.81C3427.95 1357.48 3431.71 1354.23 3436.06 1354.52L3451.19 1355.63C3455.52 1355.95 3458.77 1359.71 3458.48 1364.05L3457.37 1379.18C3457.08 1383.53 3453.28 1386.8 3448.94 1386.48Z" stroke="#000000" stroke-width="3.4375" stroke-miterlimit="8" fill="#D6DBD9" fill-rule="evenodd"/><path d="M3987.64 1425.48 3949.05 1422.59C3944.57 1422.26 3941.22 1418.35 3941.52 1413.83L3942.67 1398.1C3943 1393.6 3946.88 1390.22 3951.36 1390.52L3989.95 1393.4C3994.43 1393.74 3997.78 1397.64 3997.48 1402.16L3996.33 1417.89C3995.99 1422.44 3992.11 1425.81 3987.64 1425.48L3987.64 1425.48Z" stroke="#000000" stroke-width="3.4375" stroke-miterlimit="8" fill="#D6DBD9" fill-rule="evenodd"/><path d="M3422.75 1432.48 3321.96 1425.04C3317.54 1424.71 3314.23 1420.87 3314.52 1416.43L3315.65 1400.97C3315.98 1396.54 3319.82 1393.23 3324.25 1393.52L3425.04 1400.96C3429.46 1401.29 3432.77 1405.12 3432.48 1409.56L3431.35 1425.02C3431.02 1429.46 3427.17 1432.8 3422.75 1432.48Z" stroke="#000000" stroke-width="3.4375" stroke-miterlimit="8" fill="#D6DBD9" fill-rule="evenodd"/><path d="M3519.65 1439.48 3504.04 1438.33C3499.57 1438 3496.22 1434.12 3496.52 1429.64L3497.67 1414.04C3498 1409.57 3501.87 1406.22 3506.36 1406.52L3521.96 1407.67C3526.43 1408 3529.78 1411.87 3529.48 1416.35L3528.33 1431.96C3528.03 1436.44 3524.11 1439.81 3519.65 1439.48Z" stroke="#000000" stroke-width="3.4375" stroke-miterlimit="8" fill="#D6DBD9" fill-rule="evenodd"/><path d="M3572.65 1443.48 3557.04 1442.36C3552.57 1442.04 3549.22 1438.29 3549.52 1433.94L3550.67 1418.81C3551 1414.48 3554.87 1411.23 3559.36 1411.52L3574.96 1412.63C3579.43 1412.95 3582.78 1416.71 3582.48 1421.05L3581.33 1436.18C3581.02 1440.56 3577.11 1443.8 3572.65 1443.48Z" stroke="#000000" stroke-width="3.4375" stroke-miterlimit="8" fill="#D6DBD9" fill-rule="evenodd"/><path d="M3619.65 1447.48 3604.04 1446.33C3599.57 1446 3596.22 1442.12 3596.52 1437.64L3597.67 1422.04C3598 1417.57 3601.87 1414.22 3606.36 1414.52L3621.96 1415.67C3626.43 1416 3629.78 1419.87 3629.48 1424.35L3628.33 1439.96C3628.03 1444.47 3624.12 1447.81 3619.65 1447.48Z" stroke="#000000" stroke-width="3.4375" stroke-miterlimit="8" fill="#D6DBD9" fill-rule="evenodd"/><path d="M3666.65 1450.48 3651.04 1449.33C3646.57 1449 3643.22 1445.12 3643.52 1440.64L3644.67 1425.04C3645 1420.57 3648.87 1417.22 3653.36 1417.52L3668.96 1418.67C3673.43 1419 3676.78 1422.87 3676.48 1427.35L3675.33 1442.96C3675 1447.43 3671.11 1450.81 3666.65 1450.48Z" stroke="#000000" stroke-width="3.4375" stroke-miterlimit="8" fill="#D6DBD9" fill-rule="evenodd"/><path d="M3715.65 1453.48 3700.04 1452.37C3695.57 1452.05 3692.22 1448.29 3692.52 1443.95L3693.67 1428.81C3694 1424.48 3697.87 1421.23 3702.36 1421.52L3717.96 1422.63C3722.43 1422.95 3725.78 1426.71 3725.48 1431.05L3724.33 1446.19C3724.04 1450.53 3720.13 1453.77 3715.65 1453.48Z" stroke="#000000" stroke-width="3.4375" stroke-miterlimit="8" fill="#D6DBD9" fill-rule="evenodd"/><path d="M3763.94 1457.48 3748.81 1456.33C3744.48 1456 3741.23 1452.12 3741.52 1447.64L3742.63 1432.04C3742.95 1427.57 3746.71 1424.22 3751.06 1424.52L3766.19 1425.67C3770.52 1426 3773.77 1429.87 3773.48 1434.35L3772.37 1449.96C3772.04 1454.47 3768.28 1457.81 3763.94 1457.48Z" stroke="#000000" stroke-width="3.4375" stroke-miterlimit="8" fill="#D6DBD9" fill-rule="evenodd"/><path d="M3804.65 1457.48 3789.04 1456.33C3784.57 1456 3781.22 1452.12 3781.52 1447.64L3782.67 1432.04C3783 1427.57 3786.87 1424.22 3791.35 1424.52L3806.96 1425.67C3811.43 1426 3814.78 1429.87 3814.48 1434.35L3813.33 1449.95C3813.03 1454.47 3809.12 1457.81 3804.65 1457.48Z" stroke="#000000" stroke-width="3.4375" stroke-miterlimit="8" fill="#D6DBD9" fill-rule="evenodd"/><path d="M3853.65 1460.48 3838.04 1459.36C3833.57 1459.04 3830.22 1455.29 3830.52 1450.94L3831.67 1435.81C3832 1431.48 3835.87 1428.23 3840.36 1428.52L3855.96 1429.63C3860.43 1429.95 3863.78 1433.71 3863.48 1438.05L3862.33 1453.18C3862.04 1457.53 3858.12 1460.8 3853.65 1460.48Z" stroke="#000000" stroke-width="3.4375" stroke-miterlimit="8" fill="#D6DBD9" fill-rule="evenodd"/><path d="M3898.94 1464.48 3883.81 1463.33C3879.48 1463 3876.23 1459.12 3876.52 1454.64L3877.63 1439.04C3877.95 1434.57 3881.71 1431.22 3886.06 1431.52L3901.19 1432.67C3905.52 1433 3908.77 1436.87 3908.48 1441.35L3907.37 1456.96C3907.05 1461.43 3903.28 1464.81 3898.94 1464.48Z" stroke="#000000" stroke-width="3.4375" stroke-miterlimit="8" fill="#D6DBD9" fill-rule="evenodd"/><path d="M3989.72 1466.48 3929.98 1462.07C3925.55 1461.74 3922.23 1457.9 3922.52 1453.46L3923.66 1437.98C3923.99 1433.55 3927.83 1430.23 3932.28 1430.52L3992.02 1434.93C3996.45 1435.26 3999.77 1439.1 3999.48 1443.54L3998.34 1459.02C3998.01 1463.49 3994.16 1466.8 3989.72 1466.48Z" stroke="#000000" stroke-width="3.4375" stroke-miterlimit="8" fill="#D6DBD9" fill-rule="evenodd"/><path d="M3329.65 1469.48 3314.04 1468.33C3309.57 1467.99 3306.22 1464.12 3306.52 1459.64L3307.67 1444.04C3308 1439.57 3311.87 1436.22 3316.36 1436.52L3331.96 1437.67C3336.43 1438 3339.78 1441.87 3339.48 1446.35L3338.33 1461.95C3338.03 1466.47 3334.15 1469.82 3329.65 1469.48Z" stroke="#000000" stroke-width="3.4375" stroke-miterlimit="8" fill="#D6DBD9" fill-rule="evenodd"/><path d="M3374.65 1472.48 3359.04 1471.33C3354.57 1471 3351.22 1467.12 3351.52 1462.64L3352.67 1447.04C3353 1442.57 3356.87 1439.22 3361.36 1439.52L3376.96 1440.67C3381.43 1441 3384.78 1444.87 3384.48 1449.35L3383.33 1464.95C3382.99 1469.47 3379.12 1472.81 3374.65 1472.48Z" stroke="#000000" stroke-width="3.4375" stroke-miterlimit="8" fill="#D6DBD9" fill-rule="evenodd"/><path d="M3422.64 1476.48 3407.04 1475.33C3402.57 1475 3399.22 1471.12 3399.52 1466.64L3400.67 1451.04C3401 1446.57 3404.87 1443.22 3409.35 1443.52L3424.96 1444.67C3429.43 1445 3432.78 1448.87 3432.48 1453.35L3431.33 1468.96C3431.03 1473.43 3427.12 1476.81 3422.64 1476.48Z" stroke="#000000" stroke-width="3.4375" stroke-miterlimit="8" fill="#D6DBD9" fill-rule="evenodd"/><path d="M3467.94 1479.48 3452.81 1478.33C3448.48 1478 3445.23 1474.12 3445.52 1469.64L3446.63 1454.04C3446.95 1449.57 3450.71 1446.22 3455.06 1446.52L3470.19 1447.67C3474.52 1448 3477.77 1451.87 3477.48 1456.35L3476.37 1471.96C3476.05 1476.43 3472.28 1479.81 3467.94 1479.48Z" stroke="#000000" stroke-width="3.4375" stroke-miterlimit="8" fill="#D6DBD9" fill-rule="evenodd"/><path d="M3521.95 1484.48 3506.81 1483.33C3502.48 1483 3499.23 1479.12 3499.52 1474.64L3500.63 1459.04C3500.95 1454.57 3504.71 1451.22 3509.05 1451.52L3524.19 1452.67C3528.52 1453 3531.77 1456.87 3531.48 1461.35L3530.37 1476.96C3530.05 1481.43 3526.28 1484.81 3521.95 1484.48Z" stroke="#000000" stroke-width="3.4375" stroke-miterlimit="8" fill="#D6DBD9" fill-rule="evenodd"/><path d="M3706.75 1497.48 3552.96 1486.08C3548.54 1485.75 3545.23 1481.91 3545.52 1477.47L3546.65 1461.98C3546.98 1457.55 3550.82 1454.23 3555.25 1454.52L3709.04 1465.91C3713.46 1466.24 3716.77 1470.08 3716.48 1474.53L3715.35 1490.02C3715.04 1494.5 3711.17 1497.81 3706.75 1497.48Z" stroke="#000000" stroke-width="3.4375" stroke-miterlimit="8" fill="#D6DBD9" fill-rule="evenodd"/><path d="M3752.64 1500.48 3737.04 1499.33C3732.57 1499 3729.22 1495.12 3729.52 1490.64L3730.67 1475.04C3731 1470.57 3734.87 1467.22 3739.35 1467.52L3754.96 1468.67C3759.43 1469 3762.78 1472.87 3762.48 1477.35L3761.33 1492.96C3761 1497.43 3757.11 1500.81 3752.64 1500.48Z" stroke="#000000" stroke-width="3.4375" stroke-miterlimit="8" fill="#D6DBD9" fill-rule="evenodd"/><path d="M3800.65 1504.48 3785.04 1503.33C3780.57 1503 3777.22 1499.12 3777.52 1494.64L3778.67 1479.04C3779 1474.57 3782.87 1471.22 3787.36 1471.52L3802.96 1472.67C3807.43 1473 3810.78 1476.87 3810.48 1481.35L3809.33 1496.96C3809.04 1501.44 3805.12 1504.81 3800.65 1504.48Z" stroke="#000000" stroke-width="3.4375" stroke-miterlimit="8" fill="#D6DBD9" fill-rule="evenodd"/><path d="M3845.65 1507.48 3830.04 1506.33C3825.57 1506 3822.22 1502.13 3822.52 1497.65L3823.67 1482.04C3824 1477.57 3827.87 1474.22 3832.36 1474.52L3847.96 1475.67C3852.43 1476 3855.78 1479.87 3855.48 1484.35L3854.33 1499.96C3854 1504.43 3850.12 1507.78 3845.65 1507.48Z" stroke="#000000" stroke-width="3.4375" stroke-miterlimit="8" fill="#D6DBD9" fill-rule="evenodd"/><path d="M3886.94 1511.48 3871.81 1510.33C3867.48 1510 3864.23 1506.12 3864.52 1501.64L3865.63 1486.04C3865.95 1481.57 3869.71 1478.22 3874.06 1478.52L3889.19 1479.67C3893.52 1480 3896.77 1483.87 3896.48 1488.35L3895.37 1503.96C3895.08 1508.43 3891.28 1511.81 3886.94 1511.48Z" stroke="#000000" stroke-width="3.4375" stroke-miterlimit="8" fill="#D6DBD9" fill-rule="evenodd"/><path d="M3936.65 1512.48 3921.04 1511.33C3916.57 1511 3913.22 1507.12 3913.52 1502.64L3914.67 1487.04C3915 1482.57 3918.87 1479.22 3923.36 1479.52L3938.96 1480.67C3943.43 1481 3946.78 1484.87 3946.48 1489.35L3945.33 1504.96C3945.02 1509.47 3941.11 1512.81 3936.65 1512.48Z" stroke="#000000" stroke-width="3.4375" stroke-miterlimit="8" fill="#D6DBD9" fill-rule="evenodd"/><path d="M3984.64 1516.48 3969.04 1515.33C3964.57 1515 3961.22 1511.12 3961.52 1506.64L3962.67 1491.04C3963 1486.57 3966.87 1483.22 3971.35 1483.52L3986.96 1484.67C3991.43 1485 3994.78 1488.87 3994.48 1493.35L3993.33 1508.95C3992.99 1513.47 3989.11 1516.81 3984.64 1516.48Z" stroke="#000000" stroke-width="3.4375" stroke-miterlimit="8" fill="#D6DBD9" fill-rule="evenodd"/><path d="M4072.95 1386.48 4057.81 1385.33C4053.48 1385 4050.23 1381.13 4050.52 1376.65L4051.63 1361.04C4051.95 1356.57 4055.71 1353.22 4060.05 1353.52L4075.19 1354.67C4079.52 1355 4082.77 1358.87 4082.48 1363.35L4081.37 1378.96C4081.08 1383.44 4077.29 1386.78 4072.95 1386.48Z" stroke="#000000" stroke-width="3.4375" stroke-miterlimit="8" fill="#D6DBD9" fill-rule="evenodd"/><path d="M4165.65 1393.48 4150.04 1392.33C4145.57 1392 4142.22 1388.12 4142.52 1383.64L4143.67 1368.04C4144 1363.57 4147.87 1360.22 4152.35 1360.52L4167.96 1361.67C4172.43 1362 4175.78 1365.87 4175.48 1370.35L4174.33 1385.95C4174.04 1390.44 4170.12 1393.81 4165.65 1393.48Z" stroke="#000000" stroke-width="3.4375" stroke-miterlimit="8" fill="#D6DBD9" fill-rule="evenodd"/><path d="M4118.65 1389.48 4103.04 1388.36C4098.57 1388.04 4095.22 1384.29 4095.52 1379.94L4096.67 1364.81C4097 1360.48 4100.87 1357.23 4105.35 1357.52L4120.96 1358.63C4125.43 1358.95 4128.78 1362.71 4128.48 1367.05L4127.33 1382.18C4127 1386.52 4123.12 1389.8 4118.65 1389.48Z" stroke="#000000" stroke-width="3.4375" stroke-miterlimit="8" fill="#D6DBD9" fill-rule="evenodd"/><path d="M4069.65 1431.48 4054.04 1430.33C4049.57 1430 4046.22 1426.12 4046.52 1421.64L4047.67 1406.04C4048 1401.57 4051.87 1398.22 4056.35 1398.52L4071.96 1399.67C4076.43 1400 4079.78 1403.87 4079.48 1408.35L4078.33 1423.95C4078.01 1428.43 4074.12 1431.81 4069.65 1431.48Z" stroke="#000000" stroke-width="3.4375" stroke-miterlimit="8" fill="#D6DBD9" fill-rule="evenodd"/><path d="M4115.65 1433.48 4100.04 1432.33C4095.57 1432 4092.22 1428.12 4092.52 1423.64L4093.67 1408.04C4094 1403.57 4097.87 1400.22 4102.35 1400.52L4117.96 1401.67C4122.43 1402 4125.78 1405.87 4125.48 1410.35L4124.33 1425.95C4124.01 1430.43 4120.12 1433.81 4115.65 1433.48Z" stroke="#000000" stroke-width="3.4375" stroke-miterlimit="8" fill="#D6DBD9" fill-rule="evenodd"/><path d="M4162.65 1436.48 4147.04 1435.33C4142.57 1435 4139.22 1431.12 4139.52 1426.64L4140.67 1411.04C4141 1406.57 4144.87 1403.22 4149.35 1403.52L4164.96 1404.67C4169.43 1405 4172.78 1408.87 4172.48 1413.35L4171.33 1428.96C4171.03 1433.47 4167.12 1436.81 4162.65 1436.48Z" stroke="#000000" stroke-width="3.4375" stroke-miterlimit="8" fill="#D6DBD9" fill-rule="evenodd"/><path d="M4066.65 1475.48 4051.04 1474.33C4046.57 1474 4043.22 1470.12 4043.52 1465.64L4044.67 1450.04C4045 1445.57 4048.87 1442.22 4053.35 1442.52L4068.96 1443.67C4073.43 1444 4076.78 1447.87 4076.48 1452.35L4075.33 1467.95C4075 1472.46 4071.12 1475.81 4066.65 1475.48Z" stroke="#000000" stroke-width="3.4375" stroke-miterlimit="8" fill="#D6DBD9" fill-rule="evenodd"/><path d="M4112.65 1474.48 4097.04 1473.33C4092.57 1473 4089.22 1469.12 4089.52 1464.64L4090.67 1449.04C4091 1444.57 4094.87 1441.22 4099.35 1441.52L4114.96 1442.67C4119.43 1443 4122.78 1446.87 4122.48 1451.35L4121.33 1466.95C4121.03 1471.47 4117.12 1474.81 4112.65 1474.48Z" stroke="#000000" stroke-width="3.4375" stroke-miterlimit="8" fill="#D6DBD9" fill-rule="evenodd"/><path d="M4160.65 1479.48 4145.04 1478.33C4140.57 1478 4137.22 1474.12 4137.52 1469.64L4138.67 1454.04C4139 1449.57 4142.87 1446.22 4147.35 1446.52L4162.96 1447.67C4167.43 1448 4170.78 1451.87 4170.48 1456.35L4169.33 1471.95C4169.04 1476.44 4165.12 1479.81 4160.65 1479.48Z" stroke="#000000" stroke-width="3.4375" stroke-miterlimit="8" fill="#D6DBD9" fill-rule="evenodd"/><path d="M4118.68 1520.48 4048.01 1515.38C4043.56 1515.06 4040.22 1511.3 4040.52 1506.95L4041.66 1491.82C4041.99 1487.48 4045.85 1484.23 4050.32 1484.52L4120.99 1489.62C4125.44 1489.94 4128.78 1493.7 4128.48 1498.04L4127.34 1513.18C4127.03 1517.56 4123.14 1520.8 4118.68 1520.48L4118.68 1520.48Z" stroke="#000000" stroke-width="3.4375" stroke-miterlimit="8" fill="#D6DBD9" fill-rule="evenodd"/><path d="M4157.65 1523.48 4142.04 1522.33C4137.57 1522 4134.22 1518.12 4134.52 1513.64L4135.67 1498.04C4136 1493.57 4139.87 1490.22 4144.35 1490.52L4159.96 1491.67C4164.43 1492 4167.78 1495.87 4167.48 1500.35L4166.33 1515.95C4166.04 1520.44 4162.12 1523.81 4157.65 1523.48Z" stroke="#000000" stroke-width="3.4375" stroke-miterlimit="8" fill="#D6DBD9" fill-rule="evenodd"/><path d="M3342.58 1160.45C3328.55 1155.88 3302.39 1187.24 3292.53 1202.22 3284.43 1214.49 3278.4 1229.25 3276.18 1235.05 3274.69 1238.85 3271.69 1246.97 3268.96 1257.6 3264.43 1275.25 3264.17 1285.05 3262.27 1307.63 3259.72 1337.98 3255.72 1356.82 3259.65 1383.83 3260.49 1389.63 3262.05 1398.21 3268.35 1401.59 3276.4 1405.88 3287.54 1399.22 3291.58 1396.95 3331.12 1374.6 3375.35 1171.07 3342.58 1160.45L3342.58 1160.45Z" fill="#5B5742" fill-rule="evenodd" fill-opacity="0.431373"/><path d="M3806.28 893.171 3924.18 830.717 3937.33 855.535 3819.43 917.989Z" stroke="#000000" stroke-width="10.3139" stroke-miterlimit="8" fill="#595850" fill-rule="evenodd"/><path d="M3928.5 972.5C3928.5 995.696 3909.92 1014.5 3887 1014.5 3864.08 1014.5 3845.5 995.696 3845.5 972.5 3845.5 949.304 3864.08 930.5 3887 930.5 3909.92 930.5 3928.5 949.304 3928.5 972.5Z" stroke="#000000" stroke-width="20.625" stroke-miterlimit="8" fill="#231815" fill-rule="evenodd"/><path d="M3900 992C3900 1003.05 3891.05 1012 3880 1012 3868.95 1012 3860 1003.05 3860 992 3860 980.954 3868.95 972 3880 972 3891.05 972 3900 980.954 3900 992Z" fill="#FFFFFF" fill-rule="evenodd"/><path d="M3501.47 1081.9C3518.05 1091.7 3528.21 1097.89 3532.56 1109.68 3534 1113.58 3535.66 1120.42 3533.36 1131.64 3528.28 1156.47 3510.28 1171.06 3489.08 1192.08 3474.3 1206.73 3458.48 1225.58 3426.83 1263.28 3409.96 1283.37 3408.37 1286.76 3389.23 1309.56 3369.58 1332.96 3354.68 1349.34 3330.39 1377.8 3328.27 1380.93 3321.97 1390.32 3310.21 1395.53 3236.56 1423.15 3295.16 1249.69 3303.02 1232.1 3306.68 1223.3 3309.82 1216.66 3313 1210.74 3321.95 1194.07 3328.31 1185.48 3338.26 1170.02 3345.85 1158.23 3351.01 1149.05 3361.33 1130.69 3380.3 1096.95 3382.56 1088.97 3393.97 1080.17 3404.96 1071.7 3416.67 1068.45 3424.51 1067.02 3435.8 1064.49 3453 1062.55 3472.19 1067.96 3483.16 1071.07 3490.36 1075.33 3501.47 1081.9Z" stroke="#000000" stroke-width="20.625" stroke-miterlimit="8" fill="#EBE2B3" fill-rule="evenodd"/></g></svg>