<svg width="1034" height="1263" xmlns="http://www.w3.org/2000/svg" xmlns:xlink="http://www.w3.org/1999/xlink" xml:space="preserve" overflow="hidden"><g transform="translate(-2176 -690)"><path d="M2409.2 1706.28C2387.4 1687.19 2381.58 1688.96 2379.85 1690.19 2377.23 1692.07 2378.54 1696.6 2382.77 1727.99 2384.27 1739.17 2384.44 1741.08 2385.7 1749.69 2387.5 1761.9 2388.65 1768.22 2389.81 1775.51 2392.23 1790.58 2392.66 1797.04 2394.92 1815.76 2398.12 1842.37 2399.72 1855.68 2401.56 1864.69 2406.52 1888.93 2415.12 1931 2437.79 1936.04 2441.65 1936.9 2454.35 1938.56 2473.8 1919.49 2477.64 1920.27 2513.24 1852.98 2517.88 1841.69 2532.1 1808.22 2526.45 1797.71 2553.5 1769.65 2525.18 1758.57 2496 1746.37 2466.09 1732.94 2446.51 1724.15 2427.54 1715.24 2409.2 1706.28Z" stroke="#040000" stroke-width="20.625" stroke-miterlimit="8" fill="#E7DFB1" fill-rule="evenodd"/><path d="M2428.86 1737.15C2425.03 1742.63 2434.95 1758.44 2440.05 1764.83 2444.22 1770.09 2449.73 1774.79 2451.92 1776.57 2453.35 1777.75 2456.42 1780.19 2460.6 1782.87 2467.56 1787.32 2471.72 1788.81 2481.13 1792.8 2493.79 1798.16 2501.32 1802.55 2513.41 1804.61 2516.01 1805.06 2519.89 1805.58 2522.18 1803.3 2525.1 1800.39 2523.74 1794.6 2523.3 1792.52 2519.03 1772.14 2437.79 1724.34 2428.86 1737.15L2428.86 1737.15Z" fill="#B2AC8A" fill-rule="evenodd" fill-opacity="0.611765"/><path d="M2982.25 1374.13C2972.86 1386.43 2995.14 1420.44 3006.69 1434.14 3016.14 1445.38 3028.8 1455.32 3033.82 1459.07 3037.1 1461.57 3044.17 1466.72 3053.83 1472.32 3069.89 1481.6 3079.58 1484.58 3101.47 1492.69 3130.88 1503.58 3148.3 1512.69 3176.61 1516.39 3182.68 1517.19 3191.79 1518.07 3197.34 1512.91 3204.39 1506.32 3201.59 1493.7 3200.71 1489.15 3192.04 1444.72 3004.14 1345.39 2982.25 1374.13L2982.25 1374.13Z" fill="#5A5742" fill-rule="evenodd" fill-opacity="0.431373"/><path d="M2975.26 1142.61C2985.37 1128.43 2990.94 1126.86 2994.07 1127.68 3001.5 1129.62 2999.98 1146.33 3011.25 1173.77 3015.07 1183.09 3018.62 1189.74 3021.62 1195.37 3042.34 1229.03 3077.05 1280.1 3101.03 1316.85 3143.63 1373.53 3154.5 1392.03 3187.2 1439.08 3189.68 1441.92 3197.15 1450.38 3199.2 1463.06 3207.16 1541.18 3054.38 1440.48 3039.38 1428.42 3009.16 1405.4 3010.14 1399.03 2962.11 1352.06 2913.58 1304.6 2905.82 1304.5 2902.5 1288.6 2906.48 1269.97 2912.95 1247.58 2923.77 1223.38 2939.67 1187.82 2959.3 1161.05 2975.26 1142.61Z" stroke="#040000" stroke-width="20.625" stroke-miterlimit="8" fill="#E7DFB1" fill-rule="evenodd"/><path d="M2803.5 1771.78C2815.4 1790.13 2827.81 1811.2 2839.97 1834.98 2851.96 1858.46 2861.73 1880.73 2869.7 1901.17 2900.29 1951.18 2951.66 1927.74 2947.45 1869.81 2950.25 1843.46 2952.49 1815.49 2953.86 1786.04 2955.11 1759.53 2955.6 1734.1 2955.48 1709.93 2953.83 1698.1 2952.14 1686.29 2950.5 1674.5L2803.57 1771.77 2803.5 1771.78Z" stroke="#040000" stroke-width="20.625" stroke-miterlimit="8" fill="#E7DFB1" fill-rule="evenodd"/><path d="M2223.79 1328.52C2223.36 1312.06 2223.16 1298.64 2223.06 1289.33 2222.95 1280.03 2222.65 1268.7 2222.03 1246.04 2221.68 1233.08 2221.57 1230.17 2220.52 1225.39 2218.26 1215.15 2214.96 1211.02 2212.85 1199.27 2211.68 1192.73 2211.58 1187.73 2211.52 1184.63 2210.98 1157.73 2222.18 1130.97 2232.58 1117.96 2233.64 1116.64 2236.71 1112.94 2240.18 1107.38 2244.65 1100.2 2247.03 1094.39 2248.21 1091.61 2253.2 1079.87 2255.59 1078.49 2264 1062.36 2271.09 1048.77 2276.44 1038.52 2280.38 1025.51 2284.27 1012.7 2283.12 1009.31 2286.23 988.66 2289.06 969.864 2291.73 952.203 2297.93 936.596 2305.93 916.474 2317.95 904.476 2332.63 889.826 2369.03 853.492 2387.65 858.569 2406.15 828.373 2410.58 821.132 2414.98 811.918 2425.59 800.381 2431.77 793.669 2433.44 793.638 2453.7 777.513 2489.7 748.857 2504.36 740.097 2511.08 736.547 2512.19 735.959 2512.75 735.678 2513.36 735.378 2539.74 722.387 2553.01 733.313 2583.39 727.759 2600.54 724.625 2607.13 719.167 2622.47 719.088 2624.62 719.078 2630.92 719.178 2639.72 718.573 2643.23 718.332 2649.11 717.885 2656.18 716.923 2668.21 715.308 2677.25 713.177 2680.04 712.524 2720.18 703.245 2740.45 697.643 2759.01 702.008 2781.31 707.231 2796.3 720.154 2809.91 731.839 2818.53 739.262 2830.39 754.452 2853.79 784.489 2879.81 817.929 2885.82 826.899 2901.18 838.893 2916.54 850.887 2918.47 848.069 2929.26 858.208 2949.97 877.663 2962.6 916.117 2962.6 916.117 2970.19 939.394 2968.33 947.116 2975.31 954.144 2977.04 955.88 2983.75 962.063 2987.81 972.552 2988.3 973.83 2988.62 974.851 2988.92 975.779 2991.46 983.786 2992.91 991.656 2996.17 1007.33 3000.29 1027.16 3001.5 1036.71 3006.48 1065.31 3010.36 1087.51 3012.19 1098.64 3013.49 1103.9 3022.29 1139.54 3035.52 1163.73 3039.82 1172.33 3059.92 1212.47 3057.89 1259.93 3053.87 1354.85 3051.43 1412.42 3050.09 1443.69 3036.31 1484.73 3029.2 1505.9 3025.93 1508.34 3008.23 1556.69 2993.25 1597.59 2990.78 1609 2978.4 1637.42 2964.66 1669.04 2957.78 1684.85 2943.32 1702.34 2937.2 1709.76 2922.94 1725.71 2885.41 1747.98 2859.05 1763.62 2821.8 1786.35 2767.84 1797.13 2738.99 1802.89 2707.4 1801.93 2644.23 1800.02 2632.27 1799.66 2614.99 1798.88 2593.33 1794.76 2589.73 1794.07 2576.09 1791.41 2558.23 1785.98 2537.13 1779.57 2536.54 1777.33 2519.63 1771.95 2492.36 1763.27 2486.7 1766.81 2456.45 1757.91 2447.52 1755.27 2435.46 1751.73 2422.46 1745.57 2398.44 1734.21 2383.12 1719.62 2365.96 1702.34 2321.74 1657.8 2299.36 1635.69 2290.49 1619.86 2283.62 1607.59 2274.2 1579.51 2255.4 1523.32 2243.4 1487.45 2237.8 1469.38 2234.34 1454.9 2227.38 1425.79 2220.59 1383.13 2223.79 1328.52Z" stroke="#040000" stroke-width="20.625" stroke-miterlimit="8" fill="#E7DFB1" fill-rule="evenodd"/><path d="M2479.28 855.492 2492.43 830.674 2610.34 893.131 2597.19 917.95Z" stroke="#040000" stroke-width="10.3147" stroke-miterlimit="8" fill="#595850" fill-rule="evenodd"/><path d="M2924 1942C2924 1948.08 2808.71 1953 2666.5 1953 2524.29 1953 2409 1948.08 2409 1942 2409 1935.92 2524.29 1931 2666.5 1931 2808.71 1931 2924 1935.92 2924 1942Z" fill="#5A5742" fill-rule="evenodd" fill-opacity="0.470588"/><path d="M2564.5 979C2564.5 1001.92 2545.7 1020.5 2522.5 1020.5 2499.3 1020.5 2480.5 1001.92 2480.5 979 2480.5 956.08 2499.3 937.5 2522.5 937.5 2545.7 937.5 2564.5 956.08 2564.5 979Z" stroke="#040000" stroke-width="20.625" stroke-miterlimit="8" fill="#231815" fill-rule="evenodd"/><path d="M2547 992C2547 1003.05 2537.82 1012 2526.5 1012 2515.18 1012 2506 1003.05 2506 992 2506 980.954 2515.18 972 2526.5 972 2537.82 972 2547 980.954 2547 992Z" fill="#FFFFFF" fill-rule="evenodd"/><path d="M2745 1081C2745 1094.81 2718.14 1106 2685 1106 2651.86 1106 2625 1094.81 2625 1081 2625 1067.19 2651.86 1056 2685 1056 2718.14 1056 2745 1067.19 2745 1081Z" stroke="#040000" stroke-width="10.3125" stroke-miterlimit="8" fill="#D63C86" fill-rule="evenodd"/><path d="M3134.37 1551.03 2221.61 1559.5C2203.66 1559.66 2189 1545.25 2188.83 1527.34L2186.5 1278.76C2186.34 1260.8 2200.75 1246.14 2218.66 1245.97L3131.39 1237.5C3149.34 1237.34 3164 1251.75 3164.17 1269.67L3166.5 1518.24C3166.7 1536.16 3152.29 1550.87 3134.37 1551.03L3134.37 1551.03Z" stroke="#040000" stroke-width="20.625" stroke-miterlimit="8" fill="#A5A796" fill-rule="evenodd"/><path d="M2462.45 1320.24 2432.88 1320.5C2428.39 1320.54 2424.73 1316.97 2424.65 1312.51L2424.5 1296.94C2424.46 1292.48 2428.05 1288.84 2432.55 1288.76L2462.12 1288.5C2466.61 1288.46 2470.27 1292.03 2470.35 1296.49L2470.5 1312.06C2470.53 1316.56 2466.94 1320.2 2462.45 1320.24Z" stroke="#040000" stroke-width="3.4375" stroke-miterlimit="8" fill="#D6DBD9" fill-rule="evenodd"/><path d="M2601.45 1319.24 2571.88 1319.5C2567.39 1319.54 2563.73 1315.97 2563.65 1311.51L2563.5 1295.94C2563.46 1291.48 2567.05 1287.84 2571.55 1287.76L2601.12 1287.5C2605.61 1287.46 2609.27 1291.03 2609.35 1295.49L2609.5 1311.06C2609.54 1315.53 2605.94 1319.2 2601.45 1319.24Z" stroke="#040000" stroke-width="3.4375" stroke-miterlimit="8" fill="#D6DBD9" fill-rule="evenodd"/><path d="M2274.45 1322.24 2244.88 1322.5C2240.39 1322.54 2236.73 1318.97 2236.65 1314.51L2236.5 1298.94C2236.46 1294.48 2240.05 1290.84 2244.55 1290.76L2274.12 1290.5C2278.61 1290.46 2282.27 1294.03 2282.35 1298.49L2282.5 1314.06C2282.57 1318.53 2278.94 1322.2 2274.45 1322.24Z" stroke="#040000" stroke-width="3.4375" stroke-miterlimit="8" fill="#D6DBD9" fill-rule="evenodd"/><path d="M2336.45 1321.24 2306.88 1321.5C2302.39 1321.54 2298.73 1317.97 2298.65 1313.51L2298.5 1297.94C2298.46 1293.48 2302.05 1289.84 2306.55 1289.76L2336.12 1289.5C2340.61 1289.46 2344.27 1293.03 2344.35 1297.49L2344.5 1313.06C2344.57 1317.56 2340.94 1321.2 2336.45 1321.24Z" stroke="#040000" stroke-width="3.4375" stroke-miterlimit="8" fill="#D6DBD9" fill-rule="evenodd"/><path d="M2844.45 1316.24 2814.88 1316.5C2810.39 1316.54 2806.73 1312.97 2806.65 1308.51L2806.5 1292.94C2806.46 1288.48 2810.05 1284.84 2814.55 1284.76L2844.12 1284.5C2848.61 1284.46 2852.27 1288.03 2852.35 1292.49L2852.5 1308.06C2852.57 1312.53 2848.95 1316.16 2844.45 1316.24Z" stroke="#040000" stroke-width="3.4375" stroke-miterlimit="8" fill="#D6DBD9" fill-rule="evenodd"/><path d="M2399.62 1320.25 2370.7 1320.5C2366.3 1320.54 2362.72 1317.08 2362.65 1312.76L2362.5 1297.67C2362.46 1293.35 2365.97 1289.83 2370.37 1289.75L2399.3 1289.5C2403.69 1289.46 2407.28 1292.92 2407.35 1297.24L2407.5 1312.32C2407.57 1316.65 2404.02 1320.21 2399.62 1320.25Z" stroke="#040000" stroke-width="3.4375" stroke-miterlimit="8" fill="#D6DBD9" fill-rule="evenodd"/><path d="M2663.45 1318.24 2633.88 1318.5C2629.39 1318.54 2625.73 1314.97 2625.65 1310.51L2625.5 1294.94C2625.46 1290.48 2629.05 1286.84 2633.55 1286.76L2663.12 1286.5C2667.61 1286.46 2671.27 1290.03 2671.35 1294.49L2671.5 1310.06C2671.54 1314.53 2667.94 1318.2 2663.45 1318.24Z" stroke="#040000" stroke-width="3.4375" stroke-miterlimit="8" fill="#D6DBD9" fill-rule="evenodd"/><path d="M2723.45 1317.25 2693.88 1317.5C2689.39 1317.54 2685.73 1314.09 2685.65 1309.76L2685.5 1294.68C2685.46 1290.35 2689.05 1286.83 2693.55 1286.75L2723.12 1286.5C2727.61 1286.46 2731.27 1289.92 2731.35 1294.24L2731.5 1309.33C2731.53 1313.68 2727.94 1317.21 2723.45 1317.25Z" stroke="#040000" stroke-width="3.4375" stroke-miterlimit="8" fill="#D6DBD9" fill-rule="evenodd"/><path d="M2783.62 1317.24 2754.7 1317.5C2750.3 1317.54 2746.72 1313.97 2746.65 1309.51L2746.5 1293.94C2746.46 1289.48 2749.97 1285.84 2754.37 1285.76L2783.3 1285.5C2787.69 1285.46 2791.28 1289.03 2791.35 1293.49L2791.5 1309.06C2791.57 1313.53 2788.02 1317.2 2783.62 1317.24Z" stroke="#040000" stroke-width="3.4375" stroke-miterlimit="8" fill="#D6DBD9" fill-rule="evenodd"/><path d="M2531.62 1319.24 2502.7 1319.5C2498.3 1319.54 2494.72 1315.98 2494.65 1311.5L2494.5 1295.94C2494.46 1291.48 2497.97 1287.84 2502.37 1287.76L2531.3 1287.5C2535.69 1287.46 2539.28 1291.03 2539.35 1295.49L2539.5 1311.06C2539.56 1315.57 2536.02 1319.2 2531.62 1319.24Z" stroke="#040000" stroke-width="3.4375" stroke-miterlimit="8" fill="#D6DBD9" fill-rule="evenodd"/><path d="M2913.62 1313.25 2884.7 1313.5C2880.3 1313.54 2876.72 1310.08 2876.65 1305.76L2876.5 1290.67C2876.46 1286.35 2879.97 1282.83 2884.37 1282.75L2913.3 1282.5C2917.69 1282.46 2921.28 1285.92 2921.35 1290.24L2921.5 1305.32C2921.57 1309.66 2918.02 1313.21 2913.62 1313.25Z" stroke="#040000" stroke-width="3.4375" stroke-miterlimit="8" fill="#D6DBD9" fill-rule="evenodd"/><path d="M2303.52 1366.96 2243.81 1367.5C2239.36 1367.54 2235.72 1364.01 2235.65 1359.58L2235.5 1344.14C2235.46 1339.72 2239.02 1336.11 2243.48 1336.04L2303.19 1335.5C2307.64 1335.46 2311.28 1338.99 2311.35 1343.42L2311.5 1358.86C2311.56 1363.32 2307.97 1366.93 2303.52 1366.96Z" stroke="#040000" stroke-width="3.4375" stroke-miterlimit="8" fill="#D6DBD9" fill-rule="evenodd"/><path d="M2353.73 1366.35 2338.59 1366.5C2334.26 1366.54 2330.72 1362.96 2330.64 1358.48L2330.5 1342.85C2330.46 1338.38 2333.93 1334.73 2338.27 1334.65L2353.41 1334.5C2357.74 1334.46 2361.28 1338.04 2361.36 1342.52L2361.5 1358.15C2361.53 1362.66 2358.06 1366.31 2353.73 1366.35Z" stroke="#040000" stroke-width="3.4375" stroke-miterlimit="8" fill="#D6DBD9" fill-rule="evenodd"/><path d="M2399.48 1366.35 2383.85 1366.5C2379.38 1366.54 2375.73 1362.96 2375.65 1358.48L2375.5 1342.85C2375.46 1338.38 2379.04 1334.73 2383.52 1334.65L2399.15 1334.5C2403.62 1334.46 2407.27 1338.04 2407.35 1342.52L2407.5 1358.15C2407.57 1362.63 2403.95 1366.31 2399.48 1366.35Z" stroke="#040000" stroke-width="3.4375" stroke-miterlimit="8" fill="#D6DBD9" fill-rule="evenodd"/><path d="M2447.48 1365.35 2431.85 1365.5C2427.38 1365.54 2423.73 1361.96 2423.65 1357.48L2423.5 1341.85C2423.46 1337.38 2427.04 1333.73 2431.52 1333.65L2447.15 1333.5C2451.62 1333.46 2455.27 1337.04 2455.35 1341.52L2455.5 1357.15C2455.57 1361.63 2451.96 1365.31 2447.48 1365.35Z" stroke="#040000" stroke-width="3.4375" stroke-miterlimit="8" fill="#D6DBD9" fill-rule="evenodd"/><path d="M2492.48 1365.35 2476.85 1365.5C2472.38 1365.54 2468.73 1361.96 2468.65 1357.48L2468.5 1341.85C2468.46 1337.38 2472.04 1333.73 2476.52 1333.65L2492.15 1333.5C2496.62 1333.46 2500.27 1337.04 2500.35 1341.52L2500.5 1357.15C2500.53 1361.66 2496.96 1365.31 2492.48 1365.35L2492.48 1365.35Z" stroke="#040000" stroke-width="3.4375" stroke-miterlimit="8" fill="#D6DBD9" fill-rule="evenodd"/><path d="M2547.48 1365.35 2531.85 1365.5C2527.38 1365.54 2523.73 1361.96 2523.65 1357.48L2523.5 1341.85C2523.46 1337.38 2527.04 1333.73 2531.52 1333.65L2547.15 1333.5C2551.62 1333.46 2555.27 1337.04 2555.35 1341.52L2555.5 1357.15C2555.57 1361.63 2551.96 1365.31 2547.48 1365.35Z" stroke="#040000" stroke-width="3.4375" stroke-miterlimit="8" fill="#D6DBD9" fill-rule="evenodd"/><path d="M2592.48 1364.36 2576.85 1364.5C2572.38 1364.54 2568.73 1361.07 2568.65 1356.73L2568.5 1341.59C2568.46 1337.26 2572.04 1333.72 2576.52 1333.64L2592.15 1333.5C2596.62 1333.46 2600.27 1336.93 2600.35 1341.27L2600.5 1356.4C2600.57 1360.78 2596.95 1364.32 2592.48 1364.36Z" stroke="#040000" stroke-width="3.4375" stroke-miterlimit="8" fill="#D6DBD9" fill-rule="evenodd"/><path d="M2640.48 1364.35 2624.85 1364.5C2620.38 1364.54 2616.73 1360.96 2616.65 1356.48L2616.5 1340.85C2616.46 1336.38 2620.04 1332.73 2624.52 1332.65L2640.15 1332.5C2644.62 1332.46 2648.28 1336.04 2648.35 1340.52L2648.5 1356.15C2648.53 1360.66 2644.95 1364.31 2640.48 1364.35Z" stroke="#040000" stroke-width="3.4375" stroke-miterlimit="8" fill="#D6DBD9" fill-rule="evenodd"/><path d="M2683.48 1363.35 2667.85 1363.5C2663.38 1363.54 2659.73 1359.96 2659.65 1355.48L2659.5 1339.85C2659.46 1335.38 2663.04 1331.73 2667.52 1331.65L2683.15 1331.5C2687.62 1331.46 2691.27 1335.04 2691.35 1339.52L2691.5 1355.15C2691.54 1359.63 2687.95 1363.31 2683.48 1363.35Z" stroke="#040000" stroke-width="3.4375" stroke-miterlimit="8" fill="#D6DBD9" fill-rule="evenodd"/><path d="M2732.48 1363.35 2716.85 1363.5C2712.38 1363.54 2708.73 1359.96 2708.65 1355.48L2708.5 1339.85C2708.46 1335.38 2712.04 1331.73 2716.52 1331.65L2732.15 1331.5C2736.62 1331.46 2740.27 1335.04 2740.35 1339.52L2740.5 1355.15C2740.54 1359.63 2736.95 1363.31 2732.48 1363.35Z" stroke="#040000" stroke-width="3.4375" stroke-miterlimit="8" fill="#D6DBD9" fill-rule="evenodd"/><path d="M2777.73 1362.35 2762.59 1362.5C2758.26 1362.54 2754.72 1358.96 2754.64 1354.48L2754.5 1338.85C2754.46 1334.38 2757.93 1330.73 2762.27 1330.65L2777.41 1330.5C2781.74 1330.46 2785.28 1334.04 2785.35 1338.52L2785.5 1354.15C2785.57 1358.63 2782.07 1362.31 2777.73 1362.35Z" stroke="#040000" stroke-width="3.4375" stroke-miterlimit="8" fill="#D6DBD9" fill-rule="evenodd"/><path d="M2826.48 1362.35 2810.85 1362.5C2806.38 1362.54 2802.73 1358.96 2802.65 1354.48L2802.5 1338.85C2802.46 1334.38 2806.04 1330.73 2810.52 1330.65L2826.15 1330.5C2830.62 1330.46 2834.27 1334.04 2834.35 1338.52L2834.5 1354.14C2834.57 1358.66 2830.96 1362.31 2826.48 1362.35Z" stroke="#040000" stroke-width="3.4375" stroke-miterlimit="8" fill="#D6DBD9" fill-rule="evenodd"/><path d="M2871.48 1361.36 2855.85 1361.5C2851.38 1361.54 2847.73 1358.07 2847.65 1353.73L2847.5 1338.59C2847.46 1334.26 2851.04 1330.72 2855.52 1330.65L2871.15 1330.5C2875.62 1330.46 2879.28 1333.93 2879.35 1338.27L2879.5 1353.41C2879.53 1357.78 2875.96 1361.32 2871.48 1361.36Z" stroke="#040000" stroke-width="3.4375" stroke-miterlimit="8" fill="#D6DBD9" fill-rule="evenodd"/><path d="M2913.48 1361.36 2897.85 1361.5C2893.38 1361.54 2889.73 1358.07 2889.65 1353.73L2889.5 1338.59C2889.46 1334.26 2893.04 1330.72 2897.52 1330.64L2913.15 1330.5C2917.62 1330.46 2921.27 1333.93 2921.35 1338.27L2921.5 1353.41C2921.57 1357.78 2917.95 1361.32 2913.48 1361.36Z" stroke="#040000" stroke-width="3.4375" stroke-miterlimit="8" fill="#D6DBD9" fill-rule="evenodd"/><path d="M2417.73 1412.35 2402.59 1412.5C2398.26 1412.54 2394.72 1408.96 2394.64 1404.48L2394.5 1388.85C2394.46 1384.38 2397.93 1380.73 2402.27 1380.65L2417.41 1380.5C2421.74 1380.46 2425.28 1384.04 2425.36 1388.52L2425.5 1404.15C2425.54 1408.63 2422.07 1412.31 2417.73 1412.35Z" stroke="#040000" stroke-width="3.4375" stroke-miterlimit="8" fill="#D6DBD9" fill-rule="evenodd"/><path d="M2468.48 1412.35 2452.85 1412.5C2448.38 1412.54 2444.73 1408.96 2444.65 1404.48L2444.5 1388.85C2444.46 1384.38 2448.04 1380.73 2452.52 1380.65L2468.15 1380.5C2472.62 1380.46 2476.27 1384.04 2476.35 1388.52L2476.5 1404.15C2476.54 1408.63 2472.95 1412.31 2468.48 1412.35Z" stroke="#040000" stroke-width="3.4375" stroke-miterlimit="8" fill="#D6DBD9" fill-rule="evenodd"/><path d="M2515.48 1411.36 2499.85 1411.5C2495.38 1411.54 2491.73 1408.07 2491.65 1403.73L2491.5 1388.59C2491.46 1384.26 2495.04 1380.72 2499.52 1380.64L2515.15 1380.5C2519.62 1380.46 2523.27 1383.93 2523.35 1388.27L2523.5 1403.41C2523.57 1407.75 2519.95 1411.32 2515.48 1411.36Z" stroke="#040000" stroke-width="3.4375" stroke-miterlimit="8" fill="#D6DBD9" fill-rule="evenodd"/><path d="M2562.73 1411.35 2547.59 1411.5C2543.26 1411.54 2539.72 1407.96 2539.64 1403.48L2539.5 1387.85C2539.46 1383.38 2542.93 1379.73 2547.27 1379.65L2562.41 1379.5C2566.74 1379.46 2570.28 1383.04 2570.36 1387.52L2570.5 1403.15C2570.53 1407.66 2567.07 1411.31 2562.73 1411.35Z" stroke="#040000" stroke-width="3.4375" stroke-miterlimit="8" fill="#D6DBD9" fill-rule="evenodd"/><path d="M2612.48 1410.35 2596.85 1410.5C2592.38 1410.54 2588.73 1406.96 2588.65 1402.48L2588.5 1386.85C2588.46 1382.38 2592.04 1378.73 2596.52 1378.65L2612.15 1378.5C2616.62 1378.46 2620.27 1382.04 2620.35 1386.52L2620.5 1402.14C2620.57 1406.63 2616.95 1410.31 2612.48 1410.35Z" stroke="#040000" stroke-width="3.4375" stroke-miterlimit="8" fill="#D6DBD9" fill-rule="evenodd"/><path d="M2660.48 1410.35 2644.85 1410.5C2640.38 1410.54 2636.73 1406.96 2636.65 1402.48L2636.5 1386.85C2636.46 1382.38 2640.04 1378.73 2644.52 1378.65L2660.15 1378.5C2664.62 1378.46 2668.27 1382.04 2668.35 1386.52L2668.5 1402.15C2668.57 1406.63 2664.96 1410.31 2660.48 1410.35Z" stroke="#040000" stroke-width="3.4375" stroke-miterlimit="8" fill="#D6DBD9" fill-rule="evenodd"/><path d="M2701.48 1406.35 2685.85 1406.5C2681.38 1406.54 2677.73 1402.96 2677.65 1398.48L2677.5 1382.85C2677.46 1378.38 2681.04 1374.73 2685.52 1374.65L2701.15 1374.5C2705.62 1374.46 2709.27 1378.04 2709.35 1382.52L2709.5 1398.15C2709.57 1402.66 2705.95 1406.31 2701.48 1406.35Z" stroke="#040000" stroke-width="3.4375" stroke-miterlimit="8" fill="#D6DBD9" fill-rule="evenodd"/><path d="M2750.48 1405.36 2734.85 1405.5C2730.38 1405.54 2726.73 1402.07 2726.65 1397.73L2726.5 1382.59C2726.46 1378.26 2730.04 1374.72 2734.52 1374.64L2750.15 1374.5C2754.62 1374.46 2758.27 1377.93 2758.35 1382.27L2758.5 1397.41C2758.57 1401.79 2754.95 1405.32 2750.48 1405.36Z" stroke="#040000" stroke-width="3.4375" stroke-miterlimit="8" fill="#D6DBD9" fill-rule="evenodd"/><path d="M2795.48 1405.35 2779.85 1405.5C2775.38 1405.54 2771.73 1401.96 2771.65 1397.48L2771.5 1381.85C2771.46 1377.38 2775.04 1373.73 2779.52 1373.65L2795.15 1373.5C2799.62 1373.46 2803.28 1377.04 2803.35 1381.52L2803.5 1397.15C2803.53 1401.66 2799.95 1405.31 2795.48 1405.35Z" stroke="#040000" stroke-width="3.4375" stroke-miterlimit="8" fill="#D6DBD9" fill-rule="evenodd"/><path d="M2843.73 1405.35 2828.59 1405.5C2824.26 1405.54 2820.72 1401.96 2820.64 1397.48L2820.5 1381.85C2820.46 1377.38 2823.93 1373.73 2828.27 1373.65L2843.41 1373.5C2847.74 1373.46 2851.28 1377.04 2851.36 1381.52L2851.5 1397.15C2851.54 1401.63 2848.07 1405.31 2843.73 1405.35Z" stroke="#040000" stroke-width="3.4375" stroke-miterlimit="8" fill="#D6DBD9" fill-rule="evenodd"/><path d="M2324.56 1413.74 2244.77 1414.5C2240.34 1414.54 2236.72 1410.92 2236.65 1406.38L2236.5 1390.56C2236.46 1386.03 2240 1382.34 2244.44 1382.26L2324.23 1381.5C2328.66 1381.46 2332.28 1385.08 2332.35 1389.62L2332.5 1405.44C2332.57 1409.97 2328.99 1413.7 2324.56 1413.74Z" stroke="#040000" stroke-width="3.4375" stroke-miterlimit="8" fill="#D6DBD9" fill-rule="evenodd"/><path d="M2394.48 1461.35 2378.85 1461.5C2374.38 1461.54 2370.73 1457.96 2370.65 1453.48L2370.5 1437.85C2370.46 1433.38 2374.04 1429.73 2378.52 1429.65L2394.15 1429.5C2398.62 1429.46 2402.27 1433.04 2402.35 1437.52L2402.5 1453.15C2402.54 1457.63 2398.95 1461.31 2394.48 1461.35Z" stroke="#040000" stroke-width="3.4375" stroke-miterlimit="8" fill="#D6DBD9" fill-rule="evenodd"/><path d="M2368.48 1412.35 2352.85 1412.5C2348.38 1412.54 2344.73 1408.96 2344.65 1404.48L2344.5 1388.85C2344.46 1384.38 2348.04 1380.73 2352.52 1380.65L2368.15 1380.5C2372.62 1380.46 2376.27 1384.04 2376.35 1388.52L2376.5 1404.15C2376.57 1408.63 2372.95 1412.31 2368.48 1412.35Z" stroke="#040000" stroke-width="3.4375" stroke-miterlimit="8" fill="#D6DBD9" fill-rule="evenodd"/><path d="M2908.47 1406.16 2869.86 1406.5C2865.38 1406.54 2861.73 1402.98 2861.65 1398.53L2861.5 1383C2861.46 1378.55 2865.04 1374.92 2869.53 1374.85L2908.14 1374.5C2912.62 1374.46 2916.27 1378.02 2916.35 1382.47L2916.5 1398C2916.53 1402.49 2912.95 1406.12 2908.47 1406.16L2908.47 1406.16Z" stroke="#040000" stroke-width="3.4375" stroke-miterlimit="8" fill="#D6DBD9" fill-rule="evenodd"/><path d="M2346.5 1460.53 2244.83 1461.5C2240.37 1461.54 2236.72 1457.94 2236.65 1453.43L2236.5 1437.72C2236.46 1433.22 2240.03 1429.55 2244.5 1429.47L2346.17 1428.5C2350.63 1428.46 2354.27 1432.06 2354.35 1436.57L2354.5 1452.28C2354.54 1456.79 2350.96 1460.49 2346.5 1460.53Z" stroke="#040000" stroke-width="3.4375" stroke-miterlimit="8" fill="#D6DBD9" fill-rule="evenodd"/><path d="M2443.48 1459.35 2427.85 1459.5C2423.38 1459.54 2419.73 1455.96 2419.65 1451.48L2419.5 1435.85C2419.46 1431.38 2423.04 1427.73 2427.52 1427.65L2443.15 1427.5C2447.62 1427.46 2451.27 1431.04 2451.35 1435.52L2451.5 1451.15C2451.57 1455.63 2447.95 1459.31 2443.48 1459.35Z" stroke="#040000" stroke-width="3.4375" stroke-miterlimit="8" fill="#D6DBD9" fill-rule="evenodd"/><path d="M2496.48 1458.36 2480.85 1458.5C2476.38 1458.54 2472.73 1455.07 2472.65 1450.73L2472.5 1435.59C2472.46 1431.26 2476.04 1427.72 2480.52 1427.64L2496.15 1427.5C2500.62 1427.46 2504.27 1430.93 2504.35 1435.27L2504.5 1450.41C2504.57 1454.78 2500.95 1458.32 2496.48 1458.36Z" stroke="#040000" stroke-width="3.4375" stroke-miterlimit="8" fill="#D6DBD9" fill-rule="evenodd"/><path d="M2543.48 1458.35 2527.85 1458.5C2523.38 1458.54 2519.73 1454.96 2519.65 1450.48L2519.5 1434.85C2519.46 1430.38 2523.04 1426.73 2527.52 1426.65L2543.15 1426.5C2547.62 1426.46 2551.27 1430.04 2551.35 1434.52L2551.5 1450.15C2551.57 1454.66 2547.95 1458.31 2543.48 1458.35Z" stroke="#040000" stroke-width="3.4375" stroke-miterlimit="8" fill="#D6DBD9" fill-rule="evenodd"/><path d="M2590.73 1457.35 2575.59 1457.5C2571.26 1457.54 2567.72 1453.96 2567.64 1449.48L2567.5 1433.85C2567.46 1429.38 2570.93 1425.73 2575.27 1425.65L2590.41 1425.5C2594.74 1425.46 2598.28 1429.04 2598.36 1433.52L2598.5 1449.15C2598.53 1453.63 2595.06 1457.31 2590.73 1457.35Z" stroke="#040000" stroke-width="3.4375" stroke-miterlimit="8" fill="#D6DBD9" fill-rule="evenodd"/><path d="M2640.48 1457.35 2624.85 1457.5C2620.38 1457.54 2616.73 1453.96 2616.65 1449.48L2616.5 1433.85C2616.46 1429.38 2620.04 1425.73 2624.52 1425.65L2640.15 1425.5C2644.62 1425.46 2648.27 1429.04 2648.35 1433.52L2648.5 1449.15C2648.57 1453.63 2644.96 1457.27 2640.48 1457.35Z" stroke="#040000" stroke-width="3.4375" stroke-miterlimit="8" fill="#D6DBD9" fill-rule="evenodd"/><path d="M2688.48 1456.36 2672.85 1456.5C2668.38 1456.54 2664.73 1453.07 2664.65 1448.73L2664.5 1433.59C2664.46 1429.26 2668.04 1425.72 2672.52 1425.64L2688.15 1425.5C2692.62 1425.46 2696.27 1428.93 2696.35 1433.27L2696.5 1448.41C2696.53 1452.78 2692.96 1456.32 2688.48 1456.36Z" stroke="#040000" stroke-width="3.4375" stroke-miterlimit="8" fill="#D6DBD9" fill-rule="evenodd"/><path d="M2729.48 1453.35 2713.85 1453.5C2709.38 1453.54 2705.73 1449.96 2705.65 1445.48L2705.5 1429.85C2705.46 1425.38 2709.04 1421.73 2713.52 1421.65L2729.15 1421.5C2733.62 1421.46 2737.27 1425.04 2737.35 1429.52L2737.5 1445.15C2737.57 1449.66 2733.96 1453.31 2729.48 1453.35Z" stroke="#040000" stroke-width="3.4375" stroke-miterlimit="8" fill="#D6DBD9" fill-rule="evenodd"/><path d="M2778.48 1452.35 2762.85 1452.5C2758.38 1452.54 2754.73 1448.96 2754.65 1444.48L2754.5 1428.85C2754.46 1424.38 2758.04 1420.73 2762.52 1420.65L2778.15 1420.5C2782.62 1420.46 2786.27 1424.04 2786.35 1428.52L2786.5 1444.15C2786.57 1448.63 2782.96 1452.31 2778.48 1452.35Z" stroke="#040000" stroke-width="3.4375" stroke-miterlimit="8" fill="#D6DBD9" fill-rule="evenodd"/><path d="M2823.48 1452.35 2807.85 1452.5C2803.38 1452.54 2799.73 1448.96 2799.65 1444.48L2799.5 1428.85C2799.46 1424.38 2803.04 1420.73 2807.52 1420.65L2823.15 1420.5C2827.62 1420.46 2831.27 1424.04 2831.35 1428.52L2831.5 1444.15C2831.54 1448.62 2827.96 1452.31 2823.48 1452.35Z" stroke="#040000" stroke-width="3.4375" stroke-miterlimit="8" fill="#D6DBD9" fill-rule="evenodd"/><path d="M2913.55 1446.94 2853.78 1447.5C2849.34 1447.54 2845.72 1444.01 2845.65 1439.58L2845.5 1424.16C2845.46 1419.74 2849.01 1416.13 2853.45 1416.06L2913.22 1415.5C2917.66 1415.46 2921.28 1418.99 2921.35 1423.42L2921.5 1438.84C2921.53 1443.3 2917.98 1446.9 2913.55 1446.94Z" stroke="#040000" stroke-width="3.4375" stroke-miterlimit="8" fill="#D6DBD9" fill-rule="evenodd"/><path d="M2256.48 1504.35 2240.85 1504.5C2236.38 1504.54 2232.73 1500.96 2232.65 1496.48L2232.5 1480.85C2232.46 1476.38 2236.04 1472.73 2240.52 1472.65L2256.15 1472.5C2260.62 1472.46 2264.27 1476.04 2264.35 1480.52L2264.5 1496.15C2264.57 1500.66 2260.99 1504.32 2256.48 1504.35Z" stroke="#040000" stroke-width="3.4375" stroke-miterlimit="8" fill="#D6DBD9" fill-rule="evenodd"/><path d="M2301.48 1504.35 2285.85 1504.5C2281.38 1504.54 2277.73 1500.96 2277.65 1496.48L2277.5 1480.85C2277.46 1476.38 2281.04 1472.73 2285.52 1472.65L2301.15 1472.5C2305.62 1472.46 2309.27 1476.04 2309.35 1480.52L2309.5 1496.15C2309.53 1500.66 2305.95 1504.31 2301.48 1504.35Z" stroke="#040000" stroke-width="3.4375" stroke-miterlimit="8" fill="#D6DBD9" fill-rule="evenodd"/><path d="M2349.73 1503.35 2334.59 1503.5C2330.26 1503.54 2326.72 1499.96 2326.64 1495.48L2326.5 1479.85C2326.46 1475.38 2329.93 1471.73 2334.27 1471.65L2349.41 1471.5C2353.74 1471.46 2357.28 1475.04 2357.35 1479.52L2357.5 1495.15C2357.57 1499.63 2354.06 1503.31 2349.73 1503.35Z" stroke="#040000" stroke-width="3.4375" stroke-miterlimit="8" fill="#D6DBD9" fill-rule="evenodd"/><path d="M2395.48 1503.35 2379.85 1503.5C2375.38 1503.54 2371.73 1499.96 2371.65 1495.48L2371.5 1479.85C2371.46 1475.38 2375.04 1471.73 2379.52 1471.65L2395.15 1471.5C2399.62 1471.46 2403.27 1475.04 2403.35 1479.52L2403.5 1495.15C2403.54 1499.63 2399.95 1503.31 2395.48 1503.35Z" stroke="#040000" stroke-width="3.4375" stroke-miterlimit="8" fill="#D6DBD9" fill-rule="evenodd"/><path d="M2449.48 1503.35 2433.85 1503.5C2429.38 1503.54 2425.73 1499.96 2425.65 1495.48L2425.5 1479.85C2425.46 1475.38 2429.04 1471.73 2433.52 1471.65L2449.15 1471.5C2453.62 1471.46 2457.27 1475.04 2457.35 1479.52L2457.5 1495.15C2457.54 1499.63 2453.96 1503.31 2449.48 1503.35Z" stroke="#040000" stroke-width="3.4375" stroke-miterlimit="8" fill="#D6DBD9" fill-rule="evenodd"/><path d="M2635.52 1501.06 2480.81 1502.5C2476.35 1502.54 2472.72 1498.99 2472.65 1494.55L2472.5 1479.07C2472.46 1474.63 2476.02 1471.01 2480.48 1470.94L2635.19 1469.5C2639.64 1469.46 2643.28 1473.01 2643.35 1477.45L2643.5 1492.93C2643.56 1497.41 2639.97 1501.02 2635.52 1501.06Z" stroke="#040000" stroke-width="3.4375" stroke-miterlimit="8" fill="#D6DBD9" fill-rule="evenodd"/><path d="M2680.48 1500.36 2664.85 1500.5C2660.38 1500.54 2656.73 1497.07 2656.65 1492.73L2656.5 1477.59C2656.46 1473.26 2660.04 1469.72 2664.52 1469.64L2680.15 1469.5C2684.62 1469.46 2688.27 1472.93 2688.35 1477.27L2688.5 1492.41C2688.54 1496.74 2684.95 1500.32 2680.48 1500.36Z" stroke="#040000" stroke-width="3.4375" stroke-miterlimit="8" fill="#D6DBD9" fill-rule="evenodd"/><path d="M2728.48 1500.35 2712.85 1500.5C2708.38 1500.54 2704.73 1496.96 2704.65 1492.48L2704.5 1476.85C2704.46 1472.38 2708.04 1468.73 2712.52 1468.65L2728.15 1468.5C2732.62 1468.46 2736.27 1472.04 2736.35 1476.52L2736.5 1492.15C2736.57 1496.63 2732.95 1500.31 2728.48 1500.35Z" stroke="#040000" stroke-width="3.4375" stroke-miterlimit="8" fill="#D6DBD9" fill-rule="evenodd"/><path d="M2773.73 1499.36 2758.59 1499.5C2754.26 1499.54 2750.72 1496.07 2750.64 1491.73L2750.5 1476.59C2750.46 1472.26 2753.93 1468.72 2758.27 1468.64L2773.41 1468.5C2777.74 1468.46 2781.28 1471.93 2781.36 1476.27L2781.5 1491.41C2781.54 1495.75 2778.07 1499.28 2773.73 1499.36Z" stroke="#040000" stroke-width="3.4375" stroke-miterlimit="8" fill="#D6DBD9" fill-rule="evenodd"/><path d="M2815.48 1500.35 2799.85 1500.5C2795.38 1500.54 2791.73 1496.96 2791.65 1492.48L2791.5 1476.85C2791.46 1472.38 2795.04 1468.73 2799.52 1468.65L2815.15 1468.5C2819.62 1468.46 2823.27 1472.04 2823.35 1476.52L2823.5 1492.15C2823.57 1496.63 2819.95 1500.31 2815.48 1500.35Z" stroke="#040000" stroke-width="3.4375" stroke-miterlimit="8" fill="#D6DBD9" fill-rule="evenodd"/><path d="M2864.48 1497.35 2848.85 1497.5C2844.38 1497.54 2840.73 1493.96 2840.65 1489.48L2840.5 1473.85C2840.46 1469.38 2844.04 1465.73 2848.52 1465.65L2864.15 1465.5C2868.62 1465.46 2872.27 1469.04 2872.35 1473.52L2872.5 1489.15C2872.57 1493.66 2868.95 1497.31 2864.48 1497.35Z" stroke="#040000" stroke-width="3.4375" stroke-miterlimit="8" fill="#D6DBD9" fill-rule="evenodd"/><path d="M2913.48 1497.35 2897.85 1497.5C2893.38 1497.54 2889.73 1493.96 2889.65 1489.48L2889.5 1473.85C2889.46 1469.38 2893.04 1465.73 2897.52 1465.65L2913.15 1465.5C2917.62 1465.46 2921.27 1469.04 2921.35 1473.52L2921.5 1489.15C2921.53 1493.66 2917.95 1497.31 2913.48 1497.35Z" stroke="#040000" stroke-width="3.4375" stroke-miterlimit="8" fill="#D6DBD9" fill-rule="evenodd"/><path d="M2990.48 1360.35 2974.85 1360.5C2970.38 1360.54 2966.73 1356.96 2966.65 1352.48L2966.5 1336.85C2966.46 1332.38 2970.04 1328.73 2974.52 1328.65L2990.14 1328.5C2994.62 1328.46 2998.27 1332.04 2998.35 1336.52L2998.5 1352.15C2998.58 1356.63 2994.96 1360.28 2990.48 1360.35Z" stroke="#040000" stroke-width="3.4375" stroke-miterlimit="8" fill="#D6DBD9" fill-rule="evenodd"/><path d="M3083.48 1359.35 3067.85 1359.5C3063.38 1359.54 3059.73 1355.96 3059.65 1351.48L3059.5 1335.85C3059.46 1331.38 3063.04 1327.73 3067.52 1327.65L3083.14 1327.5C3087.62 1327.46 3091.27 1331.04 3091.35 1335.52L3091.5 1351.15C3091.57 1355.63 3087.96 1359.31 3083.48 1359.35Z" stroke="#040000" stroke-width="3.4375" stroke-miterlimit="8" fill="#D6DBD9" fill-rule="evenodd"/><path d="M3036.48 1360.35 3020.85 1360.5C3016.38 1360.54 3012.73 1356.96 3012.65 1352.48L3012.5 1336.85C3012.46 1332.38 3016.04 1328.73 3020.52 1328.65L3036.15 1328.5C3040.62 1328.46 3044.27 1332.04 3044.35 1336.52L3044.5 1352.15C3044.54 1356.63 3040.96 1360.31 3036.48 1360.35Z" stroke="#040000" stroke-width="3.4375" stroke-miterlimit="8" fill="#D6DBD9" fill-rule="evenodd"/><path d="M2990.73 1405.35 2975.59 1405.5C2971.26 1405.54 2967.72 1401.96 2967.64 1397.48L2967.5 1381.85C2967.46 1377.38 2970.93 1373.73 2975.27 1373.65L2990.41 1373.5C2994.74 1373.46 2998.28 1377.04 2998.36 1381.52L2998.5 1397.15C2998.54 1401.63 2995.07 1405.31 2990.73 1405.35Z" stroke="#040000" stroke-width="3.4375" stroke-miterlimit="8" fill="#D6DBD9" fill-rule="evenodd"/><path d="M3036.48 1403.35 3020.85 1403.5C3016.38 1403.54 3012.73 1399.96 3012.65 1395.48L3012.5 1379.85C3012.46 1375.38 3016.04 1371.73 3020.52 1371.65L3036.15 1371.5C3040.62 1371.46 3044.27 1375.04 3044.35 1379.52L3044.5 1395.15C3044.54 1399.63 3040.96 1403.31 3036.48 1403.35Z" stroke="#040000" stroke-width="3.4375" stroke-miterlimit="8" fill="#D6DBD9" fill-rule="evenodd"/><path d="M3083.48 1402.36 3067.85 1402.5C3063.38 1402.54 3059.73 1399.07 3059.65 1394.73L3059.5 1379.59C3059.46 1375.26 3063.04 1371.72 3067.52 1371.65L3083.14 1371.5C3087.62 1371.46 3091.27 1374.93 3091.35 1379.27L3091.5 1394.41C3091.57 1398.78 3087.95 1402.32 3083.48 1402.36Z" stroke="#040000" stroke-width="3.4375" stroke-miterlimit="8" fill="#D6DBD9" fill-rule="evenodd"/><path d="M2991.48 1449.35 2975.85 1449.5C2971.38 1449.54 2967.73 1445.96 2967.65 1441.48L2967.5 1425.85C2967.46 1421.38 2971.04 1417.73 2975.52 1417.65L2991.15 1417.5C2995.62 1417.46 2999.27 1421.04 2999.35 1425.52L2999.5 1441.15C2999.54 1445.66 2995.96 1449.31 2991.48 1449.35Z" stroke="#040000" stroke-width="3.4375" stroke-miterlimit="8" fill="#D6DBD9" fill-rule="evenodd"/><path d="M3036.73 1444.35 3021.59 1444.5C3017.26 1444.54 3013.72 1440.96 3013.64 1436.48L3013.5 1420.85C3013.46 1416.38 3016.93 1412.73 3021.27 1412.65L3036.41 1412.5C3040.74 1412.46 3044.28 1416.04 3044.36 1420.52L3044.5 1436.15C3044.57 1440.66 3041.07 1444.31 3036.73 1444.35Z" stroke="#040000" stroke-width="3.4375" stroke-miterlimit="8" fill="#D6DBD9" fill-rule="evenodd"/><path d="M3085.48 1445.35 3069.85 1445.5C3065.38 1445.54 3061.73 1441.96 3061.65 1437.48L3061.5 1421.85C3061.46 1417.38 3065.04 1413.73 3069.52 1413.65L3085.14 1413.5C3089.62 1413.46 3093.27 1417.04 3093.35 1421.52L3093.5 1437.15C3093.57 1441.63 3089.95 1445.31 3085.48 1445.35Z" stroke="#040000" stroke-width="3.4375" stroke-miterlimit="8" fill="#D6DBD9" fill-rule="evenodd"/><path d="M3046.61 1489.87 2976.72 1490.5C2972.32 1490.54 2968.72 1487.02 2968.65 1482.6L2968.5 1467.22C2968.46 1462.81 2971.98 1459.21 2976.39 1459.14L3046.28 1458.5C3050.68 1458.46 3054.28 1461.98 3054.35 1466.4L3054.5 1481.79C3054.57 1486.23 3051.01 1489.82 3046.61 1489.87L3046.61 1489.87Z" stroke="#040000" stroke-width="3.4375" stroke-miterlimit="8" fill="#D6DBD9" fill-rule="evenodd"/><path d="M3086.48 1489.35 3070.85 1489.5C3066.38 1489.54 3062.73 1485.96 3062.65 1481.48L3062.5 1465.85C3062.46 1461.38 3066.04 1457.73 3070.52 1457.65L3086.14 1457.5C3090.62 1457.46 3094.27 1461.04 3094.35 1465.52L3094.5 1481.15C3094.58 1485.63 3090.95 1489.31 3086.48 1489.35Z" stroke="#040000" stroke-width="3.4375" stroke-miterlimit="8" fill="#D6DBD9" fill-rule="evenodd"/><path d="M2336.85 1178.04C2322.2 1176.62 2303.49 1212.9 2297.12 1229.66 2291.88 1243.4 2289.19 1259.12 2288.28 1265.27 2287.65 1269.3 2286.48 1277.88 2286.11 1288.84 2285.51 1307.06 2287.38 1316.69 2290.4 1339.15 2294.46 1369.34 2294.63 1388.6 2304.3 1414.11 2306.36 1419.6 2309.73 1427.64 2316.6 1429.58 2325.36 1432.02 2334.78 1423.11 2338.23 1420.01 2371.91 1389.64 2371.05 1181.31 2336.85 1178.04L2336.85 1178.04Z" fill="#5A5742" fill-rule="evenodd" fill-opacity="0.431373"/><path d="M2472.23 1062.88C2490.75 1068.32 2502.15 1071.84 2509.26 1082.2 2511.62 1085.63 2514.92 1091.85 2515.43 1103.28 2516.59 1128.58 2502.67 1147.12 2487.22 1172.66 2476.45 1190.46 2465.7 1212.58 2444.19 1256.84 2432.72 1280.42 2432 1284.1 2418.99 1310.86 2405.63 1338.34 2395.17 1357.84 2378.55 1391.36 2377.25 1394.9 2373.43 1405.53 2363.28 1413.46 2298.47 1458.21 2312.86 1275.84 2316.19 1256.88 2317.58 1247.46 2319.01 1240.26 2320.65 1233.75 2325.26 1215.41 2329.33 1205.53 2335.21 1188.13 2339.69 1174.85 2342.45 1164.69 2347.98 1144.39 2358.14 1107.06 2358.38 1098.78 2367.31 1087.47 2375.91 1076.58 2386.5 1070.57 2393.76 1067.27 2404.12 1062.06 2420.36 1055.98 2440.34 1056.54 2451.77 1056.86 2459.82 1059.23 2472.23 1062.88Z" stroke="#040000" stroke-width="20.625" stroke-miterlimit="8" fill="#E7DFB1" fill-rule="evenodd"/><path d="M2725.95 893.212 2843.86 830.755 2857.01 855.573 2739.1 918.03Z" stroke="#040000" stroke-width="10.3147" stroke-miterlimit="8" fill="#595850" fill-rule="evenodd"/><path d="M2848.5 972.5C2848.5 995.696 2829.7 1014.5 2806.5 1014.5 2783.3 1014.5 2764.5 995.696 2764.5 972.5 2764.5 949.304 2783.3 930.5 2806.5 930.5 2829.7 930.5 2848.5 949.304 2848.5 972.5Z" stroke="#040000" stroke-width="20.625" stroke-miterlimit="8" fill="#231815" fill-rule="evenodd"/><path d="M2819 992C2819 1003.05 2810.05 1012 2799 1012 2787.95 1012 2779 1003.05 2779 992 2779 980.954 2787.95 972 2799 972 2810.05 972 2819 980.954 2819 992Z" fill="#FFFFFF" fill-rule="evenodd"/></g></svg>