<svg xmlns="http://www.w3.org/2000/svg" viewBox="0 0 595.2 841.92" style="enable-background:new 0 0 595.2 841.92" xml:space="preserve"><path style="fill:#ebe2b3;stroke:#000;stroke-width:6;stroke-miterlimit:10" d="M115.6 671.98c.65 1.31 1.18 2.44 1.57 3.31 1.37 3.07 2.2 5.46 2.52 6.39.84 2.43.87 2.9 2.55 8.68 2.7 9.28 2.92 9.08 3.57 12.26.9 4.37.44 4.48 1.53 10.72 1.01 5.77 1.55 8.69 3.06 10.72.39.52 4.25 5.55 9.7 5.11 3.58-.29 5.96-2.8 7.66-4.6 1.03-1.08 1.83-2.19 5.62-10.21 2.19-4.63 3.3-7 4.09-9.19.42-1.16.7-2.09.91-2.9.86-3.27 1.41-5.38 1.64-6.29.53-2.1 1.8-5.08 5.11-8.68-16.51-5.11-33.02-10.21-49.53-15.32zM219.39 684.55c2.21 5.04 4.42 10.77 6.43 17.15 1.98 6.3 3.44 12.2 4.52 17.57 5.54 13.65 20.13 10.29 21.88-4.08 2.03-6.32 3.99-13.06 5.8-20.2 1.63-6.43 3.01-12.63 4.17-18.55.15-2.97.29-5.94.44-8.9l-43.22 17.01h-.02z"/><path style="fill:#ebe2b3;stroke:#000;stroke-width:6;stroke-miterlimit:10" d="M55.8 553.89c-.7-2.81-1.51-7.06-1.53-12.26-.02-5.53.88-7.05 1.02-11.74.28-9.29-3.05-9.82-3.06-17.87 0-9.56 4.66-17.06 6.13-19.4 3.34-5.35 4.67-4.59 8.68-10.72 3.73-5.7 5.45-10.74 7.15-15.83 2.95-8.83 2.25-10.6 4.6-18.89 1.66-5.86 3.77-13.33 8.68-20.94 3.2-4.96 8.6-9.77 19.4-19.4 6.94-6.19 11.94-10.18 15.83-13.28 11.86-9.44 15.76-11.46 17.36-12.26 5.61-2.78 10.66-5.29 17.36-5.11 3.37.09 8.68.42 14.39.37.81-.01 2.64 0 5.02-.15 1.02-.07 2.73-.2 4.79-.48 3.5-.47 6.13-1.09 6.94-1.28 11.68-2.7 17.58-4.33 22.98-3.06 6.49 1.52 10.85 5.28 14.81 8.68 2.51 2.16 5.96 6.58 12.77 15.32 7.57 9.73 9.32 12.34 13.79 15.83s5.03 2.67 8.17 5.62c4.18 3.92 5.75 7.77 9.7 16.85 7.55 17.36 6.93 15.09 7.66 17.36.74 2.33 1.16 4.62 2.11 9.18 1.2 5.77 1.55 8.55 3 16.87 1.13 6.46 1.66 9.7 2.04 11.23 2.56 10.37 6.41 17.41 7.66 19.91 5.85 11.68 5.26 25.49 4.09 53.11-.71 16.75-1.1 25.85-5.11 37.79-2.07 6.16-3.02 6.87-8.17 20.94-4.36 11.9-5.08 15.22-8.68 23.49-4 9.2-6 13.8-10.21 18.89-1.78 2.16-5.93 6.8-16.85 13.28-9.08 5.39-19.3 11.45-34.21 14.3-21.5 4.11-39.46-.99-46.47-3.06-4.37-1.29-5.85-2.07-14.3-4.6-14.37-4.3-18.37-4.53-27.06-7.15-5.2-1.57-7.81-2.3-11.06-3.55-3.27-1.26-10.68-4.17-18.05-9.22-12.53-8.57-19.42-19.48-21.96-24-2-3.57-4.74-11.74-10.21-28.09-3.61-10.79-5.44-16.26-6.13-19.91-1.34-7.07-1.75-13.81-2.55-27.06-.26-4.11-.42-7.48-.52-9.71z"/><path transform="rotate(-62.089 146.151 421.87)" style="fill:#595850;stroke:#000;stroke-width:3.0001;stroke-miterlimit:10.0002" d="M142.06 402.472h8.17v38.811h-8.17z"/><path transform="rotate(-25.702 220.193 422.025)" style="fill:#595850;stroke:#000;stroke-width:3.0001;stroke-miterlimit:10.0004" d="M200.796 417.956h38.811v8.17h-38.811z"/><ellipse style="opacity:.47;fill:#5b5742;enable-background:new" cx="191.57" cy="731.87" rx="68.04" ry="2.68"/><path style="fill:#a6a897;stroke:#000;stroke-width:6;stroke-miterlimit:10" d="m326.42 594.43-260.9 49.41c-5.13.97-10.07-2.4-11.04-7.52l-13.46-71.04c-.97-5.13 2.4-10.07 7.52-11.04l260.89-49.41c5.13-.97 10.07 2.4 11.04 7.52l13.46 71.04c.98 5.12-2.39 10.07-7.51 11.04z"/><circle style="fill:#231815;stroke:#000;stroke-width:6;stroke-miterlimit:10" cx="143.78" cy="452.16" r="12.13"/><circle style="fill:#231815;stroke:#000;stroke-width:6;stroke-miterlimit:10" cx="223.53" cy="452.16" r="12.13"/><circle style="fill:#fff" cx="145.11" cy="456.12" r="5.83"/><circle style="fill:#fff" cx="223.53" cy="456.12" r="5.83"/><ellipse style="fill:#e73a8f;stroke:#000;stroke-width:3;stroke-miterlimit:10" cx="185.96" cy="489.55" rx="21.89" ry="6.38"/><path style="fill:#d6dbd9;stroke:#000;stroke-miterlimit:10" d="m122.17 562.78-8.36 1.58c-1.27.24-2.49-.59-2.74-1.86l-.84-4.43c-.24-1.27.59-2.49 1.86-2.74l8.36-1.58c1.27-.24 2.49.59 2.74 1.86l.84 4.43c.24 1.28-.59 2.5-1.86 2.74zM161.88 555.26l-8.36 1.58c-1.27.24-2.49-.59-2.74-1.86l-.84-4.43c-.24-1.27.59-2.49 1.86-2.74l8.36-1.58c1.27-.24 2.49.59 2.74 1.86l.84 4.43c.24 1.27-.59 2.5-1.86 2.74zM68.5 572.95l-8.36 1.58c-1.27.24-2.49-.59-2.74-1.86l-.84-4.43c-.24-1.27.59-2.49 1.86-2.74l8.36-1.58c1.27-.24 2.49.59 2.74 1.86l.84 4.43c.25 1.27-.59 2.5-1.86 2.74zM86.2 569.59l-8.36 1.58c-1.27.24-2.49-.59-2.74-1.86l-.84-4.43c-.24-1.27.59-2.49 1.86-2.74l8.36-1.58c1.27-.24 2.49.59 2.74 1.86l.84 4.43a2.33 2.33 0 0 1-1.86 2.74zM231.38 542.1l-8.36 1.58c-1.27.24-2.49-.59-2.74-1.86l-.84-4.43c-.24-1.27.59-2.49 1.86-2.74l8.36-1.58c1.27-.24 2.49.59 2.74 1.86l.84 4.43c.25 1.27-.59 2.49-1.86 2.74zM104.4 566.15l-8.36 1.58c-1.27.24-2.49-.59-2.74-1.86l-.84-4.43c-.24-1.27.59-2.49 1.86-2.74l8.36-1.58c1.27-.24 2.49.59 2.74 1.86l.84 4.43c.25 1.27-.59 2.5-1.86 2.74zM179.73 551.88l-8.36 1.58c-1.27.24-2.49-.59-2.74-1.86l-.84-4.43c-.24-1.27.59-2.49 1.86-2.74l8.36-1.58c1.27-.24 2.49.59 2.74 1.86l.84 4.43c.24 1.27-.59 2.5-1.86 2.74zM196.82 548.64l-8.36 1.58c-1.27.24-2.49-.59-2.74-1.86l-.84-4.43c-.24-1.27.59-2.49 1.86-2.74l8.36-1.58c1.27-.24 2.49.59 2.74 1.86l.84 4.43c.24 1.28-.59 2.5-1.86 2.74zM214.11 545.37l-8.36 1.58c-1.27.24-2.49-.59-2.74-1.86l-.84-4.43c-.24-1.27.59-2.49 1.86-2.74l8.36-1.58c1.27-.24 2.49.59 2.74 1.86l.84 4.43c.25 1.27-.59 2.5-1.86 2.74zM142.02 559.02l-8.36 1.58c-1.27.24-2.49-.59-2.74-1.86l-.84-4.43c-.24-1.27.59-2.49 1.86-2.74l8.36-1.58c1.27-.24 2.49.59 2.74 1.86l.84 4.43a2.33 2.33 0 0 1-1.86 2.74zM251.18 537.71l-8.36 1.58c-1.27.24-2.49-.59-2.74-1.86l-.84-4.43c-.24-1.27.59-2.49 1.86-2.74l8.36-1.58c1.27-.24 2.49.59 2.74 1.86l.84 4.43c.25 1.27-.59 2.5-1.86 2.74zM79.19 584.35l-17.02 3.22c-1.27.24-2.49-.59-2.74-1.86l-.84-4.43c-.24-1.27.59-2.49 1.86-2.74l17.02-3.22c1.27-.24 2.49.59 2.74 1.86l.84 4.43a2.33 2.33 0 0 1-1.86 2.74zM93.57 581.59l-4.43.84c-1.27.24-2.49-.59-2.74-1.86l-.84-4.43c-.24-1.27.59-2.49 1.86-2.74l4.43-.84c1.27-.24 2.49.59 2.74 1.86l.84 4.43c.24 1.28-.59 2.5-1.86 2.74zM106.51 579.14l-4.43.84c-1.27.24-2.49-.59-2.74-1.86l-.84-4.43c-.24-1.27.59-2.49 1.86-2.74l4.43-.84c1.27-.24 2.49.59 2.74 1.86l.84 4.43c.25 1.27-.59 2.5-1.86 2.74zM120.3 576.53l-4.43.84c-1.27.24-2.49-.59-2.74-1.86l-.84-4.43c-.24-1.27.59-2.49 1.86-2.74l4.43-.84c1.27-.24 2.49.59 2.74 1.86l.84 4.43c.25 1.27-.59 2.5-1.86 2.74zM133.25 574.07l-4.43.84c-1.27.24-2.49-.59-2.74-1.86l-.84-4.43c-.24-1.27.59-2.49 1.86-2.74l4.43-.84c1.27-.24 2.49.59 2.74 1.86l.84 4.43c.24 1.28-.59 2.5-1.86 2.74zM148.84 571.31l-4.43.84c-1.27.24-2.49-.59-2.74-1.86l-.84-4.43c-.24-1.27.59-2.49 1.86-2.74l4.43-.84c1.27-.24 2.49.59 2.74 1.86l.84 4.43c.25 1.27-.59 2.5-1.86 2.74zM161.78 568.85l-4.43.84c-1.27.24-2.49-.59-2.74-1.86l-.84-4.43c-.24-1.27.59-2.49 1.86-2.74l4.43-.84c1.27-.24 2.49.59 2.74 1.86l.84 4.43a2.33 2.33 0 0 1-1.86 2.74zM175.58 566.24l-4.43.84c-1.27.24-2.49-.59-2.74-1.86l-.84-4.43c-.24-1.27.59-2.49 1.86-2.74l4.43-.84c1.27-.24 2.49.59 2.74 1.86l.84 4.43c.24 1.28-.59 2.5-1.86 2.74zM187.77 563.79l-4.43.84c-1.27.24-2.49-.59-2.74-1.86l-.84-4.43c-.24-1.27.59-2.49 1.86-2.74l4.43-.84c1.27-.24 2.49.59 2.74 1.86l.84 4.43c.24 1.27-.59 2.5-1.86 2.74zM201.82 561.13l-4.43.84c-1.27.24-2.49-.59-2.74-1.86l-.84-4.43c-.24-1.27.59-2.49 1.86-2.74l4.43-.84c1.27-.24 2.49.59 2.74 1.86l.84 4.43c.24 1.27-.59 2.5-1.86 2.74zM214.76 558.68l-4.43.84c-1.27.24-2.49-.59-2.74-1.86l-.84-4.43c-.24-1.27.59-2.49 1.86-2.74l4.43-.84c1.27-.24 2.49.59 2.74 1.86l.84 4.43c.25 1.27-.59 2.5-1.86 2.74zM228.55 556.06l-4.43.84c-1.27.24-2.49-.59-2.74-1.86l-.84-4.43c-.24-1.27.59-2.49 1.86-2.74l4.43-.84c1.27-.24 2.49.59 2.74 1.86l.84 4.43a2.33 2.33 0 0 1-1.86 2.74zM241.5 553.61l-4.43.84c-1.27.24-2.49-.59-2.74-1.86l-.84-4.43c-.24-1.27.59-2.49 1.86-2.74l4.43-.84c1.27-.24 2.49.59 2.74 1.86l.84 4.43c.24 1.28-.59 2.5-1.86 2.74zM253.44 551.49l-4.43.84c-1.27.24-2.49-.59-2.74-1.86l-.84-4.43c-.24-1.27.59-2.49 1.86-2.74l4.43-.84c1.27-.24 2.49.59 2.74 1.86l.84 4.43a2.33 2.33 0 0 1-1.86 2.74zM114.23 591.39l-4.43.84c-1.27.24-2.49-.59-2.74-1.86l-.84-4.43c-.24-1.27.59-2.49 1.86-2.74l4.43-.84c1.27-.24 2.49.59 2.74 1.86l.84 4.43c.24 1.27-.59 2.5-1.86 2.74zM128.72 588.83l-4.43.84c-1.27.24-2.49-.59-2.74-1.86l-.84-4.43c-.24-1.27.59-2.49 1.86-2.74l4.43-.84c1.27-.24 2.49.59 2.74 1.86l.84 4.43c.24 1.27-.59 2.5-1.86 2.74zM142.18 586.28l-4.43.84c-1.27.24-2.49-.59-2.74-1.86l-.84-4.43c-.24-1.27.59-2.49 1.86-2.74l4.43-.84c1.27-.24 2.49.59 2.74 1.86l.84 4.43c.25 1.27-.59 2.5-1.86 2.74zM155.67 583.61l-4.43.84c-1.27.24-2.49-.59-2.74-1.86l-.84-4.43c-.24-1.27.59-2.49 1.86-2.74l4.43-.84c1.27-.24 2.49.59 2.74 1.86l.84 4.43c.24 1.28-.59 2.5-1.86 2.74zM169.78 580.94l-4.43.84c-1.27.24-2.49-.59-2.74-1.86l-.84-4.43c-.24-1.27.59-2.49 1.86-2.74l4.43-.84c1.27-.24 2.49.59 2.74 1.86l.84 4.43c.25 1.27-.59 2.5-1.86 2.74zM183.57 578.33l-4.43.84c-1.27.24-2.49-.59-2.74-1.86l-.84-4.43c-.24-1.27.59-2.49 1.86-2.74l4.43-.84c1.27-.24 2.49.59 2.74 1.86l.84 4.43c.25 1.27-.59 2.5-1.86 2.74zM195.04 575.15l-4.43.84c-1.27.24-2.49-.59-2.74-1.86l-.84-4.43c-.24-1.27.59-2.49 1.86-2.74l4.43-.84c1.27-.24 2.49.59 2.74 1.86l.84 4.43a2.33 2.33 0 0 1-1.86 2.74zM209.09 572.49l-4.43.84c-1.27.24-2.49-.59-2.74-1.86l-.84-4.43c-.24-1.27.59-2.49 1.86-2.74l4.43-.84c1.27-.24 2.49.59 2.74 1.86l.84 4.43a2.33 2.33 0 0 1-1.86 2.74zM222.04 570.04l-4.43.84c-1.27.24-2.49-.59-2.74-1.86l-.84-4.43c-.24-1.27.59-2.49 1.86-2.74l4.43-.84c1.27-.24 2.49.59 2.74 1.86l.84 4.43c.24 1.28-.59 2.5-1.86 2.74zM235.83 567.43l-4.43.84c-1.27.24-2.49-.59-2.74-1.86l-.84-4.43c-.24-1.27.59-2.49 1.86-2.74l4.43-.84c1.27-.24 2.49.59 2.74 1.86l.84 4.43c.24 1.27-.59 2.5-1.86 2.74zM87.57 596.62l-22.86 4.33c-1.27.24-2.49-.59-2.74-1.86l-.84-4.43c-.24-1.27.59-2.49 1.86-2.74l22.86-4.33c1.27-.24 2.49.59 2.74 1.86l.84 4.43c.25 1.27-.59 2.5-1.86 2.74zM110.14 606.67l-4.43.84c-1.27.24-2.49-.59-2.74-1.86l-.84-4.43c-.24-1.27.59-2.49 1.86-2.74l4.43-.84c1.27-.24 2.49.59 2.74 1.86l.84 4.43c.24 1.27-.59 2.5-1.86 2.74zM100.18 594.05l-4.43.84c-1.27.24-2.49-.59-2.74-1.86l-.84-4.43c-.24-1.27.59-2.49 1.86-2.74l4.43-.84c1.27-.24 2.49.59 2.74 1.86l.84 4.43c.25 1.27-.59 2.5-1.86 2.74zM254.32 564.36l-10.95 2.07c-1.27.24-2.49-.59-2.74-1.86l-.84-4.43c-.24-1.27.59-2.49 1.86-2.74l10.95-2.07c1.27-.24 2.49.59 2.74 1.86l.84 4.43c.24 1.28-.59 2.5-1.86 2.74zM96.15 608.85l-28.91 5.48c-1.27.24-2.49-.59-2.74-1.86l-.84-4.43c-.24-1.27.59-2.49 1.86-2.74l28.91-5.48c1.27-.24 2.49.59 2.74 1.86l.84 4.43c.24 1.27-.59 2.5-1.86 2.74zM123.97 603.58l-4.43.84c-1.27.24-2.49-.59-2.74-1.86l-.84-4.43c-.24-1.27.59-2.49 1.86-2.74l4.43-.84c1.27-.24 2.49.59 2.74 1.86l.84 4.43c.25 1.27-.59 2.5-1.86 2.74zM139.13 600.74l-4.43.84c-1.27.24-2.49-.59-2.74-1.86l-.84-4.43c-.24-1.27.59-2.49 1.86-2.74l4.43-.84c1.27-.24 2.49.59 2.74 1.86l.84 4.43a2.33 2.33 0 0 1-1.86 2.74zM152.59 598.19l-4.43.84c-1.27.24-2.49-.59-2.74-1.86l-.84-4.43c-.24-1.27.59-2.49 1.86-2.74l4.43-.84c1.27-.24 2.49.59 2.74 1.86l.84 4.43a2.33 2.33 0 0 1-1.86 2.74zM166.08 595.53l-4.43.84c-1.27.24-2.49-.59-2.74-1.86l-.84-4.43c-.24-1.27.59-2.49 1.86-2.74l4.43-.84c1.27-.24 2.49.59 2.74 1.86l.84 4.43c.24 1.27-.59 2.5-1.86 2.74zM180.19 592.86l-4.43.84c-1.27.24-2.49-.59-2.74-1.86l-.84-4.43c-.24-1.27.59-2.49 1.86-2.74l4.43-.84c1.27-.24 2.49.59 2.74 1.86l.84 4.43c.25 1.27-.59 2.49-1.86 2.74zM193.99 590.24l-4.43.84c-1.27.24-2.49-.59-2.74-1.86l-.84-4.43c-.24-1.27.59-2.49 1.86-2.74l4.43-.84c1.27-.24 2.49.59 2.74 1.86l.84 4.43c.24 1.28-.59 2.5-1.86 2.74zM205.45 587.07l-4.43.84c-1.27.24-2.49-.59-2.74-1.86l-.84-4.43c-.24-1.27.59-2.49 1.86-2.74l4.43-.84c1.27-.24 2.49.59 2.74 1.86l.84 4.43a2.33 2.33 0 0 1-1.86 2.74zM219.5 584.41l-4.43.84c-1.27.24-2.49-.59-2.74-1.86l-.84-4.43c-.24-1.27.59-2.49 1.86-2.74l4.43-.84c1.27-.24 2.49.59 2.74 1.86l.84 4.43c.25 1.27-.59 2.5-1.86 2.74zM232.45 581.96l-4.43.84c-1.27.24-2.49-.59-2.74-1.86l-.84-4.43c-.24-1.27.59-2.49 1.86-2.74l4.43-.84c1.27-.24 2.49.59 2.74 1.86l.84 4.43c.24 1.27-.59 2.5-1.86 2.74zM258.04 575.82l-17.1 3.24c-1.27.24-2.49-.59-2.74-1.86l-.84-4.43c-.24-1.27.59-2.49 1.86-2.74l17.1-3.24c1.27-.24 2.49.59 2.74 1.86l.84 4.43c.24 1.28-.59 2.5-1.86 2.74zM72.75 626.17l-4.43.84c-1.27.24-2.49-.59-2.74-1.86l-.84-4.43c-.24-1.27.59-2.49 1.86-2.74l4.43-.84c1.27-.24 2.49.59 2.74 1.86l.84 4.43c.25 1.28-.58 2.5-1.86 2.74zM85.7 623.72l-4.43.84c-1.27.24-2.49-.59-2.74-1.86l-.84-4.43c-.24-1.27.59-2.49 1.86-2.74l4.43-.84c1.27-.24 2.49.59 2.74 1.86l.84 4.43c.24 1.28-.59 2.5-1.86 2.74zM99.49 621.11l-4.43.84c-1.27.24-2.49-.59-2.74-1.86l-.84-4.43c-.24-1.27.59-2.49 1.86-2.74l4.43-.84c1.27-.24 2.49.59 2.74 1.86l.84 4.43c.25 1.27-.59 2.5-1.86 2.74zM112.44 618.66l-4.43.84c-1.27.24-2.49-.59-2.74-1.86l-.84-4.43c-.24-1.27.59-2.49 1.86-2.74l4.43-.84c1.27-.24 2.49.59 2.74 1.86l.84 4.43c.24 1.27-.59 2.5-1.86 2.74zM128.03 615.89l-4.43.84c-1.27.24-2.49-.59-2.74-1.86l-.84-4.43c-.24-1.27.59-2.49 1.86-2.74l4.43-.84c1.27-.24 2.49.59 2.74 1.86l.84 4.43c.24 1.27-.59 2.5-1.86 2.74zM181 605.71l-44.13 8.36c-1.27.24-2.49-.59-2.74-1.86l-.84-4.43c-.24-1.27.59-2.49 1.86-2.74l44.13-8.36c1.27-.24 2.49.59 2.74 1.86l.84 4.43a2.33 2.33 0 0 1-1.86 2.74zM193.95 603.26l-4.43.84c-1.27.24-2.49-.59-2.74-1.86l-.84-4.43c-.24-1.27.59-2.49 1.86-2.74l4.43-.84c1.27-.24 2.49.59 2.74 1.86l.84 4.43c.24 1.27-.59 2.5-1.86 2.74zM207.74 600.65l-4.43.84c-1.27.24-2.49-.59-2.74-1.86l-.84-4.43c-.24-1.27.59-2.49 1.86-2.74l4.43-.84c1.27-.24 2.49.59 2.74 1.86l.84 4.43c.25 1.27-.59 2.5-1.86 2.74zM220.69 598.2l-4.43.84c-1.27.24-2.49-.59-2.74-1.86l-.84-4.43c-.24-1.27.59-2.49 1.86-2.74l4.43-.84c1.27-.24 2.49.59 2.74 1.86l.84 4.43c.24 1.27-.59 2.49-1.86 2.74zM232.63 596.08l-4.43.84c-1.27.24-2.49-.59-2.74-1.86l-.84-4.43c-.24-1.27.59-2.49 1.86-2.74l4.43-.84c1.27-.24 2.49.59 2.74 1.86l.84 4.43c.25 1.27-.59 2.5-1.86 2.74zM246.57 592.81l-4.43.84c-1.27.24-2.49-.59-2.74-1.86l-.84-4.43c-.24-1.27.59-2.49 1.86-2.74l4.43-.84c1.27-.24 2.49.59 2.74 1.86l.84 4.43a2.33 2.33 0 0 1-1.86 2.74zM260.37 590.2l-4.43.84c-1.27.24-2.49-.59-2.74-1.86l-.84-4.43c-.24-1.27.59-2.49 1.86-2.74l4.43-.84c1.27-.24 2.49.59 2.74 1.86l.84 4.43c.24 1.28-.59 2.5-1.86 2.74zM275.53 547.13l-4.43.84c-1.27.24-2.49-.59-2.74-1.86l-.84-4.43c-.24-1.27.59-2.49 1.86-2.74l4.43-.84c1.27-.24 2.49.59 2.74 1.86l.84 4.43c.25 1.27-.59 2.49-1.86 2.74zM302.06 542.1l-4.43.84c-1.27.24-2.49-.59-2.74-1.86l-.84-4.43c-.24-1.27.59-2.49 1.86-2.74l4.43-.84c1.27-.24 2.49.59 2.74 1.86l.84 4.43c.25 1.27-.59 2.5-1.86 2.74zM288.57 544.66l-4.43.84c-1.27.24-2.49-.59-2.74-1.86l-.84-4.43c-.24-1.27.59-2.49 1.86-2.74l4.43-.84c1.27-.24 2.49.59 2.74 1.86l.84 4.43c.24 1.27-.59 2.5-1.86 2.74zM277.95 559.89l-4.43.84c-1.27.24-2.49-.59-2.74-1.86l-.84-4.43c-.24-1.27.59-2.49 1.86-2.74l4.43-.84c1.27-.24 2.49.59 2.74 1.86l.84 4.43c.24 1.27-.59 2.5-1.86 2.74zM290.91 557l-4.43.84c-1.27.24-2.49-.59-2.74-1.86l-.84-4.43c-.24-1.27.59-2.49 1.86-2.74l4.43-.84c1.27-.24 2.49.59 2.74 1.86l.84 4.43c.24 1.27-.59 2.5-1.86 2.74zM304.4 554.44l-4.43.84c-1.27.24-2.49-.59-2.74-1.86l-.84-4.43c-.24-1.27.59-2.49 1.86-2.74l4.43-.84c1.27-.24 2.49.59 2.74 1.86l.84 4.43a2.33 2.33 0 0 1-1.86 2.74zM280.41 572.49l-4.43.84c-1.27.24-2.49-.59-2.74-1.86l-.84-4.43c-.24-1.27.59-2.49 1.86-2.74l4.43-.84c1.27-.24 2.49.59 2.74 1.86l.84 4.43c.24 1.28-.59 2.5-1.86 2.74zM293.15 568.85l-4.43.84c-1.27.24-2.49-.59-2.74-1.86l-.84-4.43c-.24-1.27.59-2.49 1.86-2.74l4.43-.84c1.27-.24 2.49.59 2.74 1.86l.84 4.43a2.33 2.33 0 0 1-1.86 2.74zM307.16 566.52l-4.43.84c-1.27.24-2.49-.59-2.74-1.86l-.84-4.43c-.24-1.27.59-2.49 1.86-2.74l4.43-.84c1.27-.24 2.49.59 2.74 1.86l.84 4.43c.25 1.27-.59 2.5-1.86 2.74zM298.37 581.43l-20.14 3.81c-1.27.24-2.49-.59-2.74-1.86l-.84-4.43c-.24-1.27.59-2.49 1.86-2.74l20.14-3.81c1.27-.24 2.49.59 2.74 1.86l.84 4.43a2.33 2.33 0 0 1-1.86 2.74zM309.55 579.14l-4.43.84c-1.27.24-2.49-.59-2.74-1.86l-.84-4.43c-.24-1.27.59-2.49 1.86-2.74l4.43-.84c1.27-.24 2.49.59 2.74 1.86l.84 4.43c.25 1.27-.59 2.5-1.86 2.74z"/><path style="opacity:.43;fill:#5b5742;enable-background:new" d="M79.74 531.7c-1.01 2.64 4.04 7.59 11.12 14.52.95.93 4.18 4.03 8.92 7.44 2.59 1.86 4.72 3.15 5.66 3.72 2.55 1.51 7.24 4.38 13.46 6.29 6.35 1.94 10.94 3.35 16.87 2.38 2.32-.38 9.89-1.61 11.72-6.56 1.06-2.86-.26-5.77-.74-6.84-6.68-14.79-63.99-28.89-67.02-20.94l.01-.01z"/><path style="fill:#ebe2b3;stroke:#000;stroke-width:6;stroke-miterlimit:10" d="M72.809 464.273c2.559-4.368 4.13-4.966 5.059-4.809 2.199.372 2.191 5.251 6.158 12.911 1.347 2.602 2.546 4.437 3.56 5.99 6.863 9.217 18.225 23.118 26.114 33.145 13.789 15.323 17.413 20.404 28.09 33.19.791.759 3.171 3.019 4.091 6.639 4.316 22.424-42.496-2.812-47.149-5.92-9.341-5.89-9.221-7.76-24.331-20.13-15.27-12.5-17.52-12.33-18.89-16.85a95.078 95.078 0 0 1 4.475-19.441 95.405 95.405 0 0 1 12.823-24.725z"/><path style="opacity:.43;fill:#5b5742;enable-background:new" d="M227.16 555.6c2.21 3.67 13.91 1.77 18.92.36 4.11-1.15 8.24-3.24 9.83-4.09 1.05-.55 3.25-1.76 5.87-3.57 4.35-3.01 6.27-5.11 10.98-9.7 6.33-6.17 10.79-9.54 15.06-16.21.92-1.43 2.21-3.61 1.47-5.55-.95-2.47-4.66-3.13-5.98-3.4-12.92-2.62-61.32 33.6-56.15 42.16z"/><path style="fill:#ebe2b3;stroke:#000;stroke-width:6;stroke-miterlimit:10" d="M280.07 458.11c-1.42 1.6-3.57 4.14-5.9 7.46-3.52 5.02-5.13 8.49-7.91 13.53-1.05 1.9-3.69 6.14-8.94 14.55-6.1 9.78-9.14 14.67-12.51 19.93-16.02 25.05-21.81 31.52-19.4 34.96.95 1.36 3.41 2.59 10.46 1.25 7.29-1.72 17.34-5.02 27.9-11.65 17.16-10.78 26.65-24.71 31.17-32.54.05-3.22-.36-5.36-2.53-10.96-2.485-6.412-1.21-10.291-4.09-19.4-.894-2.828-2.523-7.057-5.66-11.946l-2.59-5.184z"/></svg>