<?xml version="1.0" encoding="iso-8859-1"?>
<!-- Generator: Adobe Illustrator 27.0.0, SVG Export Plug-In . SVG Version: 6.00 Build 0)  -->
<svg version="1.1" id="&#x5716;&#x5C64;_1" xmlns="http://www.w3.org/2000/svg" xmlns:xlink="http://www.w3.org/1999/xlink" x="0px"
	 y="0px" viewBox="0 0 595.276 841.89" style="enable-background:new 0 0 595.276 841.89;" xml:space="preserve">
<path style="fill:#E7DFB1;stroke:#040000;stroke-width:6;stroke-miterlimit:10;" d="M97.99,651.6c0.38,1.71,0.67,3.17,0.88,4.3
	c0.72,3.96,1.02,6.99,1.13,8.17c0.3,3.08,0.21,3.64,0.57,10.89c0.58,11.64,0.88,11.45,0.78,15.37c-0.13,5.39-0.67,5.41-1.07,13.06
	c-0.37,7.08-0.53,10.66,0.61,13.43c0.3,0.71,3.25,7.59,9.36,8.37c4.02,0.51,7.28-1.89,9.62-3.61c1.41-1.03,2.58-2.16,8.82-10.75
	c3.6-4.96,5.43-7.5,6.87-9.91c0.76-1.27,1.31-2.31,1.75-3.22c1.79-3.67,2.94-6.03,3.42-7.06c1.12-2.36,3.29-5.59,7.86-9.06
	c-16.86-10-33.72-19.99-50.59-29.99l0,0L97.99,651.6z"/>
<path style="opacity:0.61;fill:#B2AC8A;enable-background:new    ;" d="M108.52,674.85c-1.92,1.79,1.12,5.61,2.79,7.08
	c1.37,1.21,3.32,2.18,4.09,2.54c0.51,0.24,1.61,0.73,3.14,1.22c2.55,0.8,4.16,0.95,7.74,1.47c4.82,0.69,7.61,1.44,12.42,1.24
	c1.03-0.04,2.58-0.15,3.66-0.94c1.38-1.01,1.19-2.56,1.15-3.11c-0.44-5.47-30.53-13.69-35-9.49l0,0L108.52,674.85z"/>
<path style="opacity:0.43;fill:#5A5742;enable-background:new    ;" d="M284.1,559.8c-2.73,3.58,3.75,13.47,7.11,17.45
	c2.75,3.27,6.43,6.16,7.9,7.25c0.95,0.73,3.01,2.22,5.82,3.85c4.67,2.7,7.49,3.56,13.86,5.92c8.56,3.17,13.63,5.82,21.87,6.89
	c1.77,0.23,4.42,0.49,6.03-1.01c2.05-1.92,1.24-5.59,0.98-6.91C345.15,580.32,290.47,551.44,284.1,559.8L284.1,559.8L284.1,559.8z"
	/>
<path style="fill:#E7DFB1;stroke:#040000;stroke-width:6;stroke-miterlimit:10;" d="M279.17,494.43c2.83-4.2,4.43-4.7,5.35-4.48
	c2.17,0.51,1.86,5.38,5.34,13.27c1.18,2.68,2.26,4.59,3.18,6.2c6.27,9.63,16.74,24.21,23.99,34.71
	c12.8,16.16,16.1,21.45,25.96,34.88c0.74,0.81,2.98,3.21,3.67,6.88c2.9,22.65-42.24-5.47-46.69-8.86
	c-8.95-6.46-8.72-8.32-23.02-21.61c-14.46-13.43-16.71-13.4-17.8-18c1.01-5.44,2.72-12,5.68-19.12
	C269.18,507.84,274.68,499.91,279.17,494.43L279.17,494.43z"/>
<path style="fill:#E7DFB1;stroke:#040000;stroke-width:6;stroke-miterlimit:10;" d="M222.085,688.358
	c4.01,4.472,8.069,9.157,12.155,14.062c4.669,5.604,9.064,11.125,13.2,16.53c12.27,11.9,25.11,1.56,19.73-14.49
	c-1.12-7.65-2.51-15.71-4.25-24.12c-1.57-7.58-3.27-14.79-5.05-21.61c-1.32-3.22-2.66-6.43-3.98-9.64
	c-12.985,8.919-25.969,17.838-38.954,26.757c0.255,1.617,0.511,3.234,0.766,4.851C217.83,683.252,219.957,685.805,222.085,688.358z"
	/>
<path style="fill:#E7DFB1;stroke:#040000;stroke-width:6;stroke-miterlimit:10;" d="M54.3,548.98c-0.12-4.79-0.18-8.7-0.21-11.4
	c-0.03-2.71-0.12-6.01-0.3-12.6c-0.1-3.77-0.14-4.62-0.44-6.01c-0.66-2.98-1.62-4.18-2.23-7.6c-0.34-1.9-0.37-3.36-0.39-4.26
	c-0.16-7.83,3.1-15.61,6.13-19.4c0.31-0.38,1.2-1.46,2.21-3.08c1.3-2.09,1.99-3.78,2.34-4.59c1.45-3.42,2.15-3.82,4.6-8.51
	c2.06-3.96,3.62-6.94,4.77-10.72c1.13-3.73,0.8-4.71,1.7-10.72c0.82-5.47,1.6-10.61,3.4-15.15c2.33-5.86,5.83-9.35,10.1-13.61
	c10.59-10.57,16.01-9.1,21.39-17.88c1.29-2.11,2.57-4.79,5.66-8.14c1.8-1.95,2.28-1.96,8.18-6.65c10.48-8.34,14.74-10.89,16.7-11.92
	c0.32-0.17,0.49-0.25,0.66-0.34c7.68-3.78,11.54-0.6,20.38-2.22c4.99-0.91,6.91-2.5,11.37-2.52c0.62,0,2.46,0.03,5.02-0.15
	c1.02-0.07,2.73-0.2,4.79-0.48c3.5-0.47,6.13-1.09,6.94-1.28c11.68-2.7,17.58-4.33,22.98-3.06c6.49,1.52,10.85,5.28,14.81,8.68
	c2.51,2.16,5.96,6.58,12.77,15.32c7.57,9.73,9.32,12.34,13.79,15.83s5.03,2.67,8.17,5.62c6.03,5.66,9.7,16.85,9.7,16.85
	c2.21,6.77,1.67,9.02,3.7,11.07c0.5,0.51,2.46,2.3,3.64,5.36c0.14,0.37,0.24,0.67,0.32,0.94c0.74,2.33,1.16,4.62,2.11,9.18
	c1.2,5.77,1.55,8.55,3,16.87c1.13,6.46,1.66,9.7,2.04,11.23c2.56,10.37,6.41,17.41,7.66,19.91c5.85,11.68,5.26,25.49,4.09,53.11
	c-0.71,16.75-1.1,25.85-5.11,37.79c-2.07,6.16-3.02,6.87-8.17,20.94c-4.36,11.9-5.08,15.22-8.68,23.49c-4,9.2-6,13.8-10.21,18.89
	c-1.78,2.16-5.93,6.8-16.85,13.28c-7.67,4.55-18.51,11.16-34.21,14.3c-8.39,1.68-17.59,1.4-35.97,0.84
	c-3.48-0.1-8.51-0.33-14.81-1.53c-1.05-0.2-5.02-0.97-10.21-2.55c-6.14-1.87-6.31-2.52-11.23-4.09c-7.93-2.53-9.58-1.49-18.38-4.09
	c-2.6-0.77-6.11-1.8-9.89-3.59c-6.99-3.31-11.45-7.55-16.44-12.58c-12.87-12.96-19.38-19.39-21.96-24
	c-2-3.57-4.74-11.74-10.21-28.09c-3.49-10.44-5.12-15.69-6.13-19.91c-2.03-8.47-4-20.88-3.07-36.77L54.3,548.98z"/>
<rect x="239.836" y="397.565" transform="matrix(0.4681 -0.8837 0.8837 0.4681 -238.7251 437.339)" style="fill:#595850;stroke:#040000;stroke-width:3.0002;stroke-miterlimit:10.0004;" width="8.17" height="38.812"/>
<ellipse style="opacity:0.47;fill:#5A5742;enable-background:new    ;" cx="183.34" cy="727.47" rx="74.77" ry="3.19"/>
<circle style="fill:#231815;stroke:#040000;stroke-width:6;stroke-miterlimit:10;" cx="237.28" cy="447.25" r="12.13"/>
<circle style="fill:#FFFFFF;" cx="238.61" cy="451.21" r="5.83"/>
<ellipse style="fill:#D63C86;stroke:#040000;stroke-width:3;stroke-miterlimit:10;" cx="265.98" cy="476.69" rx="17.42" ry="7.31"/>
<g>
	<path style="fill:#A5A796;stroke:#040000;stroke-width:6;stroke-miterlimit:10;" d="M324.886,589.739L63.904,638.736
		c-5.13,0.965-10.069-2.411-11.022-7.533l-13.351-71.06c-0.965-5.13,2.411-10.069,7.533-11.022l260.972-48.995
		c5.13-0.965,10.069,2.411,11.032,7.532l13.351,71.06c0.973,5.119-2.401,10.067-7.522,11.03l0,0L324.886,589.739z"/>
	<g>
		<path style="fill:#D6DBD9;stroke:#040000;stroke-miterlimit:10;" d="M120.681,557.762l-8.364,1.571
			c-1.268,0.236-2.492-0.592-2.74-1.868l-0.83-4.433c-0.236-1.268,0.592-2.492,1.868-2.74l8.364-1.571
			c1.268-0.236,2.492,0.592,2.74,1.868l0.83,4.433C122.777,556.302,121.959,557.524,120.681,557.762z"/>
		<path style="fill:#D6DBD9;stroke:#040000;stroke-miterlimit:10;" d="M160.41,550.308l-8.364,1.571
			c-1.268,0.236-2.492-0.592-2.74-1.868l-0.83-4.433c-0.236-1.268,0.592-2.492,1.868-2.74l8.364-1.571
			c1.268-0.236,2.492,0.592,2.74,1.868l0.83,4.433C162.514,548.836,161.688,550.07,160.41,550.308z"/>
		<path style="fill:#D6DBD9;stroke:#040000;stroke-miterlimit:10;" d="M66.999,567.854l-8.364,1.571
			c-1.268,0.236-2.492-0.592-2.74-1.868l-0.83-4.433c-0.236-1.268,0.592-2.492,1.868-2.74l8.364-1.571
			c1.268-0.236,2.492,0.592,2.74,1.868l0.83,4.433C69.113,566.381,68.277,567.617,66.999,567.854z"/>
		<path style="fill:#D6DBD9;stroke:#040000;stroke-miterlimit:10;" d="M84.708,564.516l-8.364,1.571
			c-1.268,0.236-2.492-0.592-2.74-1.868l-0.83-4.433c-0.236-1.268,0.592-2.492,1.868-2.74l8.364-1.571
			c1.268-0.236,2.492,0.592,2.74,1.868l0.83,4.433C86.824,563.053,85.986,564.279,84.708,564.516z"/>
		<path style="fill:#D6DBD9;stroke:#040000;stroke-miterlimit:10;" d="M229.927,537.252l-8.364,1.571
			c-1.268,0.236-2.492-0.592-2.74-1.868l-0.83-4.433c-0.236-1.268,0.592-2.492,1.868-2.74l8.364-1.571
			c1.268-0.236,2.492,0.592,2.74,1.868l0.83,4.433C232.041,535.778,231.204,537.004,229.927,537.252z"/>
		<path style="fill:#D6DBD9;stroke:#040000;stroke-miterlimit:10;" d="M102.913,561.11l-8.364,1.571
			c-1.268,0.236-2.492-0.592-2.74-1.868l-0.83-4.433c-0.236-1.268,0.592-2.492,1.868-2.74l8.364-1.571
			c1.268-0.236,2.492,0.592,2.74,1.868l0.83,4.433C105.027,559.637,104.191,560.873,102.913,561.11z"/>
		<path style="fill:#D6DBD9;stroke:#040000;stroke-miterlimit:10;" d="M178.258,546.955l-8.364,1.571
			c-1.268,0.236-2.492-0.592-2.74-1.868l-0.83-4.433c-0.236-1.268,0.592-2.492,1.868-2.74l8.364-1.571
			c1.268-0.236,2.492,0.592,2.74,1.868l0.83,4.433C180.363,545.483,179.536,546.717,178.258,546.955z"/>
		<path style="fill:#D6DBD9;stroke:#040000;stroke-miterlimit:10;" d="M195.36,543.746l-8.364,1.571
			c-1.268,0.236-2.492-0.592-2.74-1.868l-0.83-4.433c-0.236-1.268,0.592-2.492,1.868-2.74l8.364-1.571
			c1.268-0.236,2.492,0.592,2.74,1.868l0.83,4.433C197.457,542.285,196.638,543.508,195.36,543.746z"/>
		<path style="fill:#D6DBD9;stroke:#040000;stroke-miterlimit:10;" d="M212.65,540.503l-8.364,1.571
			c-1.268,0.236-2.492-0.592-2.74-1.868l-0.83-4.433c-0.236-1.268,0.592-2.492,1.868-2.74l8.364-1.571
			c1.268-0.236,2.492,0.592,2.74,1.868l0.83,4.433C214.764,539.029,213.928,540.265,212.65,540.503z"/>
		<path style="fill:#D6DBD9;stroke:#040000;stroke-miterlimit:10;" d="M140.546,554.04l-8.364,1.571
			c-1.268,0.236-2.492-0.592-2.74-1.868l-0.83-4.433c-0.236-1.268,0.592-2.492,1.868-2.74l8.364-1.571
			c1.268-0.236,2.492,0.592,2.74,1.868l0.83,4.433C142.664,552.586,141.824,553.802,140.546,554.04z"/>
		<path style="fill:#D6DBD9;stroke:#040000;stroke-miterlimit:10;" d="M249.731,532.901l-8.364,1.571
			c-1.268,0.236-2.492-0.592-2.74-1.868l-0.83-4.433c-0.236-1.268,0.592-2.492,1.868-2.74l8.364-1.571
			c1.268-0.236,2.492,0.592,2.74,1.868l0.83,4.433C251.845,531.427,251.009,532.663,249.731,532.901L249.731,532.901z"/>
		<path style="fill:#D6DBD9;stroke:#040000;stroke-miterlimit:10;" d="M77.667,579.27l-17.023,3.195
			c-1.268,0.236-2.492-0.592-2.74-1.868l-0.83-4.433c-0.236-1.268,0.592-2.492,1.868-2.74l17.023-3.195
			c1.268-0.236,2.492,0.592,2.74,1.868l0.83,4.433C79.783,577.806,78.945,579.032,77.667,579.27z"/>
		<path style="fill:#D6DBD9;stroke:#040000;stroke-miterlimit:10;" d="M92.06,576.533l-4.433,0.83
			c-1.268,0.236-2.492-0.592-2.74-1.868l-0.83-4.433c-0.236-1.268,0.592-2.492,1.868-2.74l4.433-0.83
			c1.268-0.236,2.492,0.592,2.74,1.868l0.83,4.433C94.156,575.073,93.338,576.295,92.06,576.533z"/>
		<path style="fill:#D6DBD9;stroke:#040000;stroke-miterlimit:10;" d="M105.003,574.095l-4.433,0.83
			c-1.268,0.236-2.492-0.592-2.74-1.868l-0.83-4.433c-0.236-1.268,0.592-2.492,1.868-2.74l4.433-0.83
			c1.268-0.236,2.492,0.592,2.74,1.868l0.83,4.433C107.117,572.621,106.281,573.857,105.003,574.095z"/>
		<path style="fill:#D6DBD9;stroke:#040000;stroke-miterlimit:10;" d="M118.794,571.516l-4.433,0.83
			c-1.268,0.236-2.492-0.592-2.74-1.868l-0.83-4.433c-0.236-1.268,0.592-2.492,1.868-2.74l4.433-0.83
			c1.268-0.236,2.492,0.592,2.74,1.868l0.83,4.433C120.909,570.042,120.072,571.278,118.794,571.516z"/>
		<path style="fill:#D6DBD9;stroke:#040000;stroke-miterlimit:10;" d="M131.747,569.076l-4.433,0.83
			c-1.268,0.236-2.492-0.592-2.74-1.868l-0.83-4.433c-0.236-1.268,0.592-2.492,1.868-2.74l4.433-0.83
			c1.268-0.236,2.492,0.592,2.74,1.868l0.83,4.433C133.844,567.616,133.025,568.838,131.747,569.076L131.747,569.076
			L131.747,569.076z"/>
		<path style="fill:#D6DBD9;stroke:#040000;stroke-miterlimit:10;" d="M147.339,566.339l-4.433,0.83
			c-1.268,0.236-2.492-0.592-2.74-1.868l-0.83-4.433c-0.236-1.268,0.592-2.492,1.868-2.74l4.433-0.83
			c1.268-0.236,2.492,0.592,2.74,1.868l0.83,4.433C149.453,564.865,148.617,566.101,147.339,566.339z"/>
		<path style="fill:#D6DBD9;stroke:#040000;stroke-miterlimit:10;" d="M160.282,563.901l-4.433,0.83
			c-1.268,0.236-2.492-0.592-2.74-1.868l-0.83-4.433c-0.236-1.268,0.592-2.492,1.868-2.74l4.433-0.83
			c1.268-0.236,2.492,0.592,2.74,1.868l0.83,4.433C162.398,562.437,161.56,563.663,160.282,563.901z"/>
		<path style="fill:#D6DBD9;stroke:#040000;stroke-miterlimit:10;" d="M174.091,561.309l-4.433,0.83
			c-1.268,0.236-2.492-0.592-2.74-1.868l-0.83-4.433c-0.236-1.268,0.592-2.492,1.868-2.74l4.433-0.83
			c1.268-0.236,2.492,0.592,2.74,1.868l0.83,4.433C176.188,559.848,175.369,561.071,174.091,561.309z"/>
		<path style="fill:#D6DBD9;stroke:#040000;stroke-miterlimit:10;" d="M186.285,558.882l-4.433,0.83
			c-1.268,0.236-2.492-0.592-2.74-1.868l-0.83-4.433c-0.236-1.268,0.592-2.492,1.868-2.74l4.433-0.83
			c1.268-0.236,2.492,0.592,2.74,1.868l0.83,4.433C188.389,557.41,187.563,558.644,186.285,558.882z"/>
		<path style="fill:#D6DBD9;stroke:#040000;stroke-miterlimit:10;" d="M200.338,556.236l-4.433,0.83
			c-1.268,0.236-2.492-0.592-2.74-1.868l-0.83-4.433c-0.236-1.268,0.592-2.492,1.868-2.74l4.433-0.83
			c1.268-0.236,2.492,0.592,2.74,1.868l0.83,4.433C202.443,554.764,201.617,555.998,200.338,556.236z"/>
		<path style="fill:#D6DBD9;stroke:#040000;stroke-miterlimit:10;" d="M213.283,553.808l-4.433,0.83
			c-1.268,0.236-2.492-0.592-2.74-1.868l-0.83-4.433c-0.236-1.268,0.592-2.492,1.868-2.74l4.433-0.83
			c1.268-0.236,2.492,0.592,2.74,1.868l0.83,4.433C215.397,552.334,214.561,553.57,213.283,553.808z"/>
		<path style="fill:#D6DBD9;stroke:#040000;stroke-miterlimit:10;" d="M227.071,551.209l-4.433,0.83
			c-1.268,0.236-2.492-0.592-2.74-1.868l-0.83-4.433c-0.236-1.268,0.592-2.492,1.868-2.74l4.433-0.83
			c1.268-0.236,2.492,0.592,2.74,1.868l0.83,4.433C229.187,549.745,228.349,550.971,227.071,551.209z"/>
		<path style="fill:#D6DBD9;stroke:#040000;stroke-miterlimit:10;" d="M240.026,548.779l-4.433,0.83
			c-1.268,0.236-2.492-0.592-2.74-1.868l-0.83-4.433c-0.236-1.268,0.592-2.492,1.868-2.74l4.433-0.83
			c1.268-0.236,2.492,0.592,2.74,1.868l0.83,4.433C242.132,547.317,241.304,548.541,240.026,548.779z"/>
		<path style="fill:#D6DBD9;stroke:#040000;stroke-miterlimit:10;" d="M251.973,546.681l-4.433,0.83
			c-1.268,0.236-2.492-0.592-2.74-1.868l-0.83-4.433c-0.236-1.268,0.592-2.492,1.868-2.74l4.433-0.83
			c1.268-0.236,2.492,0.592,2.74,1.868l0.83,4.433C254.089,545.217,253.251,546.443,251.973,546.681L251.973,546.681z"/>
		<path style="fill:#D6DBD9;stroke:#040000;stroke-miterlimit:10;" d="M112.704,586.365l-4.433,0.83
			c-1.268,0.236-2.492-0.592-2.74-1.868l-0.83-4.433c-0.236-1.268,0.592-2.492,1.868-2.74l4.433-0.83
			c1.268-0.236,2.492,0.592,2.74,1.868l0.83,4.433C114.809,584.893,113.983,586.127,112.704,586.365z"/>
		<path style="fill:#D6DBD9;stroke:#040000;stroke-miterlimit:10;" d="M127.193,583.824l-4.433,0.83
			c-1.268,0.236-2.492-0.592-2.74-1.868l-0.83-4.433c-0.236-1.268,0.592-2.492,1.868-2.74l4.433-0.83
			c1.268-0.236,2.492,0.592,2.74,1.868l0.83,4.433C129.298,582.352,128.471,583.586,127.193,583.824z"/>
		<path style="fill:#D6DBD9;stroke:#040000;stroke-miterlimit:10;" d="M140.658,581.293l-4.433,0.83
			c-1.268,0.236-2.492-0.592-2.74-1.868l-0.83-4.433c-0.236-1.268,0.592-2.492,1.868-2.74l4.433-0.83
			c1.268-0.236,2.492,0.592,2.74,1.868l0.83,4.433C142.772,579.819,141.936,581.055,140.658,581.293z"/>
		<path style="fill:#D6DBD9;stroke:#040000;stroke-miterlimit:10;" d="M154.153,578.645l-4.433,0.83
			c-1.268,0.236-2.492-0.592-2.74-1.868l-0.83-4.433c-0.236-1.268,0.592-2.492,1.868-2.74l4.433-0.83
			c1.268-0.236,2.492,0.592,2.74,1.868l0.83,4.433C156.249,577.184,155.431,578.407,154.153,578.645z"/>
		<path style="fill:#D6DBD9;stroke:#040000;stroke-miterlimit:10;" d="M168.267,575.998l-4.433,0.83
			c-1.268,0.236-2.492-0.592-2.74-1.868l-0.83-4.433c-0.236-1.268,0.592-2.492,1.868-2.74l4.433-0.83
			c1.268-0.236,2.492,0.592,2.74,1.868l0.83,4.433C170.382,574.524,169.546,575.76,168.267,575.998z"/>
		<path style="fill:#D6DBD9;stroke:#040000;stroke-miterlimit:10;" d="M182.057,573.409l-4.433,0.83
			c-1.268,0.236-2.492-0.592-2.74-1.868l-0.83-4.433c-0.236-1.268,0.592-2.492,1.868-2.74l4.433-0.83
			c1.268-0.236,2.492,0.592,2.74,1.868l0.83,4.433C184.171,571.935,183.335,573.171,182.057,573.409z"/>
		<path style="fill:#D6DBD9;stroke:#040000;stroke-miterlimit:10;" d="M193.531,570.247l-4.433,0.83
			c-1.268,0.236-2.492-0.592-2.74-1.868l-0.83-4.433c-0.236-1.268,0.592-2.492,1.868-2.74l4.433-0.83
			c1.268-0.236,2.492,0.592,2.74,1.868l0.83,4.433C195.647,568.784,194.809,570.01,193.531,570.247z"/>
		<path style="fill:#D6DBD9;stroke:#040000;stroke-miterlimit:10;" d="M207.586,567.611l-4.433,0.83
			c-1.268,0.236-2.492-0.592-2.74-1.868l-0.83-4.433c-0.236-1.268,0.592-2.492,1.868-2.74l4.433-0.83
			c1.268-0.236,2.492,0.592,2.74,1.868l0.83,4.433C209.702,566.147,208.864,567.373,207.586,567.611z"/>
		<path style="fill:#D6DBD9;stroke:#040000;stroke-miterlimit:10;" d="M220.541,565.181l-4.433,0.83
			c-1.268,0.236-2.492-0.592-2.74-1.868l-0.83-4.433c-0.236-1.268,0.592-2.492,1.868-2.74l4.433-0.83
			c1.268-0.236,2.492,0.592,2.74,1.868l0.83,4.433C222.637,563.721,221.819,564.943,220.541,565.181z"/>
		<path style="fill:#D6DBD9;stroke:#040000;stroke-miterlimit:10;" d="M234.34,562.591l-4.433,0.83
			c-1.268,0.236-2.492-0.592-2.74-1.868l-0.83-4.433c-0.236-1.268,0.592-2.492,1.868-2.74l4.433-0.83
			c1.268-0.236,2.492,0.592,2.74,1.868l0.83,4.433C236.445,561.119,235.618,562.353,234.34,562.591z"/>
		<path style="fill:#D6DBD9;stroke:#040000;stroke-miterlimit:10;" d="M86.031,591.554L63.17,595.85
			c-1.268,0.236-2.492-0.592-2.74-1.868l-0.83-4.433c-0.236-1.268,0.592-2.492,1.868-2.74l22.861-4.297
			c1.268-0.236,2.492,0.592,2.74,1.868l0.83,4.433C88.145,590.08,87.309,591.316,86.031,591.554z"/>
		<path style="fill:#D6DBD9;stroke:#040000;stroke-miterlimit:10;" d="M108.589,601.633l-4.433,0.83
			c-1.268,0.236-2.492-0.592-2.74-1.868l-0.83-4.433c-0.236-1.268,0.592-2.492,1.868-2.74l4.433-0.83
			c1.268-0.236,2.492,0.592,2.74,1.868l0.83,4.433C110.693,600.161,109.867,601.395,108.589,601.633z"/>
		<path style="fill:#D6DBD9;stroke:#040000;stroke-miterlimit:10;" d="M98.649,589.001l-4.433,0.83
			c-1.268,0.236-2.492-0.592-2.74-1.868l-0.83-4.433c-0.236-1.268,0.592-2.492,1.868-2.74l4.433-0.83
			c1.268-0.236,2.492,0.592,2.74,1.868l0.83,4.433C100.763,587.527,99.927,588.763,98.649,589.001z"/>
		<path style="fill:#D6DBD9;stroke:#040000;stroke-miterlimit:10;" d="M252.833,559.55l-10.95,2.052
			c-1.268,0.236-2.492-0.592-2.74-1.868l-0.83-4.433c-0.236-1.268,0.592-2.492,1.868-2.74l10.95-2.052
			c1.268-0.236,2.492,0.592,2.74,1.868l0.83,4.433C254.93,558.089,254.112,559.312,252.833,559.55L252.833,559.55z"/>
		<path style="fill:#D6DBD9;stroke:#040000;stroke-miterlimit:10;" d="M94.59,603.792l-28.915,5.436
			c-1.268,0.236-2.492-0.592-2.74-1.868l-0.83-4.433c-0.236-1.268,0.592-2.492,1.868-2.74l28.915-5.436
			c1.268-0.236,2.492,0.592,2.74,1.868l0.83,4.433C96.695,602.32,95.869,603.554,94.59,603.792z"/>
		<path style="fill:#D6DBD9;stroke:#040000;stroke-miterlimit:10;" d="M122.426,598.569l-4.433,0.83
			c-1.268,0.236-2.492-0.592-2.74-1.868l-0.83-4.433c-0.236-1.268,0.592-2.492,1.868-2.74l4.433-0.83
			c1.268-0.236,2.492,0.592,2.74,1.868l0.83,4.433C124.54,597.095,123.704,598.331,122.426,598.569z"/>
		<path style="fill:#D6DBD9;stroke:#040000;stroke-miterlimit:10;" d="M137.587,595.755l-4.433,0.83
			c-1.268,0.236-2.492-0.592-2.74-1.868l-0.83-4.433c-0.236-1.268,0.592-2.492,1.868-2.74l4.433-0.83
			c1.268-0.236,2.492,0.592,2.74,1.868l0.83,4.433C139.703,594.292,138.866,595.518,137.587,595.755L137.587,595.755z"/>
		<path style="fill:#D6DBD9;stroke:#040000;stroke-miterlimit:10;" d="M151.052,593.224l-4.433,0.83
			c-1.268,0.236-2.492-0.592-2.74-1.868l-0.83-4.433c-0.236-1.268,0.592-2.492,1.868-2.74l4.433-0.83
			c1.268-0.236,2.492,0.592,2.74,1.868l0.83,4.433C153.168,591.761,152.33,592.987,151.052,593.224z"/>
		<path style="fill:#D6DBD9;stroke:#040000;stroke-miterlimit:10;" d="M164.549,590.586l-4.433,0.83
			c-1.268,0.236-2.492-0.592-2.74-1.868l-0.83-4.433c-0.236-1.268,0.592-2.492,1.868-2.74l4.433-0.83
			c1.268-0.236,2.492,0.592,2.74,1.868l0.83,4.433C166.653,589.114,165.827,590.348,164.549,590.586z"/>
		<path style="fill:#D6DBD9;stroke:#040000;stroke-miterlimit:10;" d="M178.653,587.941l-4.433,0.83
			c-1.268,0.236-2.492-0.592-2.74-1.868l-0.83-4.433c-0.236-1.268,0.592-2.492,1.868-2.74l4.433-0.83
			c1.268-0.236,2.492,0.592,2.74,1.868l0.83,4.433C180.768,586.468,179.93,587.693,178.653,587.941z"/>
		<path style="fill:#D6DBD9;stroke:#040000;stroke-miterlimit:10;" d="M192.461,585.339l-4.433,0.83
			c-1.268,0.236-2.492-0.592-2.74-1.868l-0.83-4.433c-0.236-1.268,0.592-2.492,1.868-2.74l4.433-0.83
			c1.268-0.236,2.492,0.592,2.74,1.868l0.83,4.433C194.557,583.879,193.739,585.101,192.461,585.339z"/>
		<path style="fill:#D6DBD9;stroke:#040000;stroke-miterlimit:10;" d="M203.926,582.189l-4.433,0.83
			c-1.268,0.236-2.492-0.592-2.74-1.868l-0.83-4.433c-0.236-1.268,0.592-2.492,1.868-2.74l4.433-0.83
			c1.268-0.236,2.492,0.592,2.74,1.868l0.83,4.433C206.042,580.725,205.204,581.951,203.926,582.189z"/>
		<path style="fill:#D6DBD9;stroke:#040000;stroke-miterlimit:10;" d="M217.982,579.553l-4.433,0.83
			c-1.268,0.236-2.492-0.592-2.74-1.868l-0.83-4.433c-0.236-1.268,0.592-2.492,1.868-2.74l4.433-0.83
			c1.268-0.236,2.492,0.592,2.74,1.868l0.83,4.433C220.096,578.079,219.26,579.315,217.982,579.553z"/>
		<path style="fill:#D6DBD9;stroke:#040000;stroke-miterlimit:10;" d="M230.936,577.123l-4.433,0.83
			c-1.268,0.236-2.492-0.592-2.74-1.868l-0.83-4.433c-0.236-1.268,0.592-2.492,1.868-2.74l4.433-0.83
			c1.268-0.236,2.492,0.592,2.74,1.868l0.83,4.433C233.041,575.651,232.215,576.885,230.936,577.123z"/>
		<path style="fill:#D6DBD9;stroke:#040000;stroke-miterlimit:10;" d="M256.533,571.019l-17.102,3.21
			c-1.268,0.236-2.492-0.592-2.74-1.868l-0.83-4.433c-0.236-1.268,0.592-2.492,1.868-2.74l17.102-3.21
			c1.268-0.236,2.492,0.592,2.74,1.868l0.83,4.433C258.629,569.558,257.811,570.781,256.533,571.019L256.533,571.019z"/>
		<path style="fill:#D6DBD9;stroke:#040000;stroke-miterlimit:10;" d="M71.169,621.078l-4.433,0.83
			c-1.268,0.236-2.492-0.592-2.74-1.868l-0.83-4.433c-0.236-1.268,0.592-2.492,1.868-2.74l4.433-0.83
			c1.268-0.236,2.492,0.592,2.74,1.868l0.83,4.433C73.285,619.614,72.457,620.839,71.169,621.078z"/>
		<path style="fill:#D6DBD9;stroke:#040000;stroke-miterlimit:10;" d="M84.124,618.648l-4.433,0.83
			c-1.268,0.236-2.492-0.592-2.74-1.868l-0.83-4.433c-0.236-1.268,0.592-2.492,1.868-2.74l4.433-0.83
			c1.268-0.236,2.492,0.592,2.74,1.868l0.83,4.433C86.22,617.188,85.402,618.41,84.124,618.648z"/>
		<path style="fill:#D6DBD9;stroke:#040000;stroke-miterlimit:10;" d="M97.914,616.059l-4.433,0.83
			c-1.268,0.236-2.492-0.592-2.74-1.868l-0.83-4.433c-0.236-1.268,0.592-2.492,1.868-2.74l4.433-0.83
			c1.268-0.236,2.492,0.592,2.74,1.868l0.83,4.433C100.028,614.586,99.192,615.821,97.914,616.059z"/>
		<path style="fill:#D6DBD9;stroke:#040000;stroke-miterlimit:10;" d="M110.868,613.629l-4.433,0.83
			c-1.268,0.236-2.492-0.592-2.74-1.868l-0.83-4.433c-0.236-1.268,0.592-2.492,1.868-2.74l4.433-0.83
			c1.268-0.236,2.492,0.592,2.74,1.868l0.83,4.433C112.973,612.157,112.146,613.391,110.868,613.629z"/>
		<path style="fill:#D6DBD9;stroke:#040000;stroke-miterlimit:10;" d="M126.458,610.882l-4.433,0.83
			c-1.268,0.236-2.492-0.592-2.74-1.868l-0.83-4.433c-0.236-1.268,0.592-2.492,1.868-2.74l4.433-0.83
			c1.268-0.236,2.492,0.592,2.74,1.868l0.83,4.433c0.236,1.268-0.59,2.502-1.858,2.738L126.458,610.882z"/>
		<path style="fill:#D6DBD9;stroke:#040000;stroke-miterlimit:10;" d="M179.45,600.791l-44.14,8.291
			c-1.268,0.236-2.492-0.592-2.74-1.868l-0.83-4.433c-0.236-1.268,0.592-2.492,1.868-2.74l44.14-8.291
			c1.268-0.236,2.492,0.592,2.74,1.868l0.83,4.433C181.566,599.327,180.728,600.553,179.45,600.791L179.45,600.791z"/>
		<path style="fill:#D6DBD9;stroke:#040000;stroke-miterlimit:10;" d="M192.404,598.361l-4.433,0.83
			c-1.268,0.236-2.492-0.592-2.74-1.868l-0.83-4.433c-0.236-1.268,0.592-2.492,1.868-2.74l4.433-0.83
			c1.268-0.236,2.492,0.592,2.74,1.868l0.83,4.433C194.509,596.889,193.682,598.123,192.404,598.361z"/>
		<path style="fill:#D6DBD9;stroke:#040000;stroke-miterlimit:10;" d="M206.194,595.772l-4.433,0.83
			c-1.268,0.236-2.492-0.592-2.74-1.868l-0.83-4.433c-0.236-1.268,0.592-2.492,1.868-2.74l4.433-0.83
			c1.268-0.236,2.492,0.592,2.74,1.868l0.83,4.433C208.308,594.298,207.472,595.534,206.194,595.772z"/>
		<path style="fill:#D6DBD9;stroke:#040000;stroke-miterlimit:10;" d="M219.149,593.342l-4.433,0.83
			c-1.268,0.236-2.492-0.592-2.74-1.868l-0.83-4.433c-0.236-1.268,0.592-2.492,1.868-2.74l4.433-0.83
			c1.268-0.236,2.492,0.592,2.74,1.868l0.83,4.433C221.253,591.87,220.425,593.094,219.149,593.342z"/>
		<path style="fill:#D6DBD9;stroke:#040000;stroke-miterlimit:10;" d="M231.096,591.244l-4.433,0.83
			c-1.268,0.236-2.492-0.592-2.74-1.868l-0.83-4.433c-0.236-1.268,0.592-2.492,1.868-2.74l4.433-0.83
			c1.268-0.236,2.492,0.592,2.74,1.868l0.83,4.433C233.21,589.77,232.374,591.006,231.096,591.244z"/>
		<path style="fill:#D6DBD9;stroke:#040000;stroke-miterlimit:10;" d="M245.041,587.987l-4.433,0.83
			c-1.268,0.236-2.492-0.592-2.74-1.868l-0.83-4.433c-0.236-1.268,0.592-2.492,1.868-2.74l4.433-0.83
			c1.268-0.236,2.492,0.592,2.74,1.868l0.83,4.433C247.157,586.523,246.319,587.749,245.041,587.987z"/>
		<path style="fill:#D6DBD9;stroke:#040000;stroke-miterlimit:10;" d="M258.842,585.406l-4.433,0.83
			c-1.268,0.236-2.492-0.592-2.74-1.868l-0.83-4.433c-0.236-1.268,0.592-2.492,1.868-2.74l4.433-0.83
			c1.268-0.236,2.492,0.592,2.74,1.868l0.83,4.433C260.938,583.946,260.12,585.169,258.842,585.406L258.842,585.406z"/>
	</g>
	<path style="fill:#D6DBD9;stroke:#040000;stroke-miterlimit:10;" d="M274.067,542.359l-4.433,0.83
		c-1.268,0.236-2.492-0.592-2.74-1.868l-0.83-4.433c-0.236-1.268,0.592-2.492,1.868-2.74l4.433-0.83
		c1.268-0.236,2.492,0.592,2.74,1.868l0.83,4.433C276.182,540.885,275.344,542.111,274.067,542.359z"/>
	<path style="fill:#D6DBD9;stroke:#040000;stroke-miterlimit:10;" d="M300.603,537.367l-4.433,0.83
		c-1.268,0.236-2.492-0.592-2.74-1.868l-0.83-4.433c-0.236-1.268,0.592-2.492,1.868-2.74l4.433-0.83
		c1.268-0.236,2.492,0.592,2.74,1.868l0.83,4.433C302.717,535.893,301.881,537.129,300.603,537.367z"/>
	<path style="fill:#D6DBD9;stroke:#040000;stroke-miterlimit:10;" d="M287.109,539.903l-4.433,0.83
		c-1.268,0.236-2.492-0.592-2.74-1.868l-0.83-4.433c-0.236-1.268,0.592-2.492,1.868-2.74l4.433-0.83
		c1.268-0.236,2.492,0.592,2.74,1.868l0.83,4.433C289.213,538.431,288.387,539.665,287.109,539.903z"/>
	<path style="fill:#D6DBD9;stroke:#040000;stroke-miterlimit:10;" d="M276.472,555.115l-4.433,0.83
		c-1.268,0.236-2.492-0.592-2.74-1.868l-0.83-4.433c-0.236-1.268,0.592-2.492,1.868-2.74l4.433-0.83
		c1.268-0.236,2.492,0.592,2.74,1.868l0.83,4.433C278.576,553.643,277.75,554.877,276.472,555.115z"/>
	<path style="fill:#D6DBD9;stroke:#040000;stroke-miterlimit:10;" d="M289.43,552.247l-4.433,0.83
		c-1.268,0.236-2.492-0.592-2.74-1.868l-0.83-4.433c-0.236-1.268,0.592-2.492,1.868-2.74l4.433-0.83
		c1.268-0.236,2.492,0.592,2.74,1.868l0.83,4.433C291.534,550.775,290.708,552.009,289.43,552.247z"/>
	<path style="fill:#D6DBD9;stroke:#040000;stroke-miterlimit:10;" d="M302.924,549.711l-4.433,0.83
		c-1.268,0.236-2.492-0.592-2.74-1.868l-0.83-4.433c-0.236-1.268,0.592-2.492,1.868-2.74l4.433-0.83
		c1.268-0.236,2.492,0.592,2.74,1.868l0.83,4.433C305.04,548.247,304.202,549.473,302.924,549.711z"/>
	<path style="fill:#D6DBD9;stroke:#040000;stroke-miterlimit:10;" d="M278.911,567.722l-4.433,0.83
		c-1.268,0.236-2.492-0.592-2.74-1.868l-0.83-4.433c-0.236-1.268,0.592-2.492,1.868-2.74l4.433-0.83
		c1.268-0.236,2.492,0.592,2.74,1.868l0.83,4.433C281.017,566.26,280.189,567.484,278.911,567.722z"/>
	<path style="fill:#D6DBD9;stroke:#040000;stroke-miterlimit:10;" d="M291.654,564.101l-4.433,0.83
		c-1.268,0.236-2.492-0.592-2.74-1.868l-0.83-4.433c-0.236-1.268,0.592-2.492,1.868-2.74l4.433-0.83
		c1.268-0.236,2.492,0.592,2.74,1.868l0.83,4.433C293.77,562.637,292.932,563.863,291.654,564.101z"/>
	<path style="fill:#D6DBD9;stroke:#040000;stroke-miterlimit:10;" d="M305.667,561.797l-4.433,0.83
		c-1.268,0.236-2.492-0.592-2.74-1.868l-0.83-4.433c-0.236-1.268,0.592-2.492,1.868-2.74l4.433-0.83
		c1.268-0.236,2.492,0.592,2.74,1.868l0.83,4.433C307.781,560.324,306.945,561.559,305.667,561.797z"/>
	<path style="fill:#D6DBD9;stroke:#040000;stroke-miterlimit:10;" d="M296.853,576.694l-20.149,3.783
		c-1.268,0.236-2.492-0.592-2.74-1.868l-0.83-4.433c-0.236-1.268,0.592-2.492,1.868-2.74l20.149-3.783
		c1.268-0.236,2.492,0.592,2.74,1.868l0.83,4.433C298.969,575.23,298.131,576.456,296.853,576.694L296.853,576.694z"/>
	<path style="fill:#D6DBD9;stroke:#040000;stroke-miterlimit:10;" d="M308.037,574.417l-4.433,0.83
		c-1.268,0.236-2.492-0.592-2.74-1.868l-0.83-4.433c-0.236-1.268,0.592-2.492,1.868-2.74l4.433-0.83
		c1.268-0.236,2.492,0.592,2.74,1.868l0.83,4.433C310.151,572.943,309.315,574.179,308.037,574.417z"/>
</g>
<path style="opacity:0.43;fill:#5A5742;enable-background:new    ;" d="M143.25,537.32c-2.49,3.48,3.89,13.47,7.17,17.51
	c2.68,3.32,6.24,6.28,7.65,7.4c0.92,0.75,2.9,2.29,5.6,3.97c4.49,2.8,7.18,3.73,13.26,6.24c8.17,3.37,13.04,6.13,20.85,7.4
	c1.68,0.28,4.19,0.6,5.68-0.85c1.89-1.85,1.03-5.52,0.75-6.84c-2.71-12.9-55.15-42.98-60.96-34.84l0,0V537.32z"/>
<path style="fill:#E7DFB1;stroke:#040000;stroke-width:6;stroke-miterlimit:10;" d="M146.88,463.4c3.4-3.75,5.06-4.01,5.94-3.67
	c2.08,0.82,1.07,5.59,3.38,13.9c0.78,2.82,1.58,4.86,2.26,6.59c4.82,10.43,13.09,26.37,18.75,37.8
	c10.35,17.83,12.85,23.54,20.68,38.25c0.62,0.91,2.48,3.61,2.64,7.34c-0.38,22.83-41.01-11.47-44.93-15.47
	c-7.93-7.68-7.43-9.49-19.68-24.7c-12.38-15.37-14.62-15.66-15.03-20.37c1.78-5.24,4.42-11.49,8.37-18.11
	c5.81-9.73,12.39-16.79,17.63-21.57L146.88,463.4z"/>
</svg>
