<?xml version="1.0" encoding="iso-8859-1"?>
<!-- Generator: Adobe Illustrator 27.0.0, SVG Export Plug-In . SVG Version: 6.00 Build 0)  -->
<svg version="1.1" id="&#x5716;&#x5C64;_1_&#x62F7;&#x8C9D;_2"
	 xmlns="http://www.w3.org/2000/svg" xmlns:xlink="http://www.w3.org/1999/xlink" x="0px" y="0px" viewBox="0 0 595.276 841.89"
	 style="enable-background:new 0 0 595.276 841.89;" xml:space="preserve">
<path style="fill:#EBE2B3;stroke:#000000;stroke-width:6;stroke-miterlimit:10;" d="M263.567,483.04
	c2.633-8.705,2.009-10.098,3.499-10.755c4.384-1.931,13.435,8.502,18.162,15.468c3.048,4.492,1.273,3.084,7.374,13.796
	c4.001,7.023,9.156,15.339,12,21.048c0.243,0.487,0.93,1.896,1.951,3.82c1.726,3.252,2.804,4.921,6.142,11.491
	c4.02,7.912,6.704,13.754,11.548,23.482c0.594,0.922,2.386,3.671,2.443,7.406c-0.994,22.814-40.69-12.576-44.497-16.677
	c-5.956-6.087-6.992-8.545-12.583-16.476c-3.155-4.476-4.731-6.715-6.426-8.741c-1.825-2.182-2.988-3.348-4.35-5.59
	c-1.657-2.728-2.517-5.253-2.985-6.97c0.746-2.269,1.744-5.692,2.486-9.958c0.622-3.578,0.42-4.049,0.914-7.048
	C260.154,491.815,261.324,490.456,263.567,483.04z"/>
<path style="fill:#EBE2B3;stroke:#000000;stroke-width:6;stroke-miterlimit:10;" d="M96.992,661.489
	c0.993,1.439,1.815,2.686,2.429,3.65c2.157,3.402,3.574,6.096,4.121,7.145c1.436,2.74,1.567,3.295,4.629,9.873
	c4.92,10.561,5.123,10.28,6.503,13.952c1.905,5.045,1.417,5.265,3.92,12.506c2.317,6.695,3.521,10.078,5.618,12.211
	c0.541,0.546,5.868,5.808,11.826,4.233c3.914-1.036,6.035-4.492,7.549-6.968c0.919-1.488,1.577-2.968,4.122-13.274
	c1.471-5.951,2.212-8.994,2.635-11.762c0.226-1.466,0.344-2.63,0.409-3.638c0.277-4.07,0.45-6.696,0.517-7.827
	c0.153-2.61,0.945-6.413,3.873-11.349C135.761,667.32,116.378,664.41,96.992,661.489L96.992,661.489z"/>
<path style="opacity:0.61;fill:#B4AE8B;enable-background:new    ;" d="M125.16,668.557c-1.119,1.579,1.778,6.133,3.266,7.976
	c1.218,1.513,2.828,2.867,3.466,3.38c0.417,0.341,1.315,1.045,2.536,1.817c2.03,1.282,3.245,1.71,5.994,2.86
	c3.695,1.545,5.894,2.809,9.424,3.403c0.758,0.129,1.892,0.28,2.561-0.376c0.85-0.838,0.454-2.508,0.327-3.108
	C151.486,678.638,127.767,664.866,125.16,668.557L125.16,668.557z"/>
<path style="fill:#EBE2B3;stroke:#000000;stroke-width:6;stroke-miterlimit:10;" d="M210.028,675.02
	c2.396,5.912,4.788,12.632,6.957,20.112c2.136,7.386,3.704,14.301,4.859,20.594c6,16.01,22.029,12.155,24.033-4.658
	c2.264-7.388,4.454-15.268,6.481-23.617c1.826-7.519,3.376-14.77,4.683-21.694c0.182-3.476,0.352-6.952,0.534-10.417l-47.524,19.68
	L210.028,675.02z"/>
<path style="fill:#EBE2B3;stroke:#000000;stroke-width:6;stroke-miterlimit:10;" d="M54.298,548.867
	c-0.125-4.79-0.183-8.696-0.213-11.403c-0.03-2.708-0.119-6.005-0.297-12.597c-0.102-3.771-0.136-4.618-0.442-6.008
	c-0.656-2.98-1.617-4.182-2.23-7.6c-0.341-1.904-0.37-3.359-0.388-4.261c-0.156-7.827,3.102-15.614,6.13-19.4
	c0.307-0.384,1.199-1.46,2.209-3.079c1.303-2.087,1.994-3.779,2.337-4.586c1.454-3.416,2.149-3.82,4.596-8.511
	c2.063-3.956,3.619-6.937,4.766-10.723c1.13-3.729,0.797-4.715,1.702-10.723c0.824-5.469,1.599-10.608,3.404-15.149
	c2.328-5.855,5.826-9.346,10.096-13.609c10.592-10.572,16.01-9.095,21.393-17.881c1.291-2.107,2.57-4.788,5.659-8.145
	c1.797-1.953,2.283-1.962,8.178-6.654c10.476-8.338,14.741-10.887,16.697-11.92c0.324-0.171,0.487-0.253,0.663-0.34
	c7.678-3.78,11.537-0.601,20.378-2.217c4.989-0.912,6.909-2.5,11.372-2.523c0.625-0.003,2.459,0.026,5.02-0.15
	c1.02-0.07,2.73-0.2,4.79-0.48c3.5-0.47,6.13-1.09,6.94-1.28c11.68-2.7,17.58-4.33,22.98-3.06c6.49,1.52,10.85,5.28,14.81,8.68
	c2.51,2.16,5.96,6.58,12.77,15.32c7.57,9.73,9.32,12.34,13.79,15.83s5.03,2.67,8.17,5.62c6.026,5.661,9.7,16.85,9.7,16.85
	c2.211,6.773,1.67,9.02,3.7,11.065c0.502,0.505,2.457,2.304,3.636,5.356c0.144,0.372,0.238,0.669,0.324,0.939
	c0.74,2.33,1.16,4.62,2.11,9.18c1.2,5.77,1.55,8.55,3,16.87c1.13,6.46,1.66,9.7,2.04,11.23c2.56,10.37,6.41,17.41,7.66,19.91
	c5.85,11.68,5.26,25.49,4.09,53.11c-0.71,16.75-1.1,25.85-5.11,37.79c-2.07,6.16-3.02,6.87-8.17,20.94
	c-4.36,11.9-5.08,15.22-8.68,23.49c-4,9.2-6,13.8-10.21,18.89c-1.78,2.16-5.93,6.8-16.85,13.28
	c-7.669,4.551-18.508,11.164-34.21,14.3c-8.394,1.677-17.586,1.399-35.97,0.843c-3.478-0.105-8.508-0.333-14.809-1.532
	c-1.048-0.2-5.018-0.975-10.213-2.553c-6.142-1.866-6.313-2.519-11.234-4.085c-7.935-2.525-9.581-1.493-18.383-4.085
	c-2.6-0.766-6.108-1.798-9.892-3.589c-6.988-3.306-11.447-7.55-16.439-12.579c-12.867-12.959-19.38-19.394-21.96-24
	c-2-3.57-4.74-11.74-10.21-28.09c-3.492-10.437-5.122-15.694-6.13-19.91C55.343,577.168,53.369,564.756,54.298,548.867z"/>
<rect x="143.821" y="397.451" transform="matrix(0.4681 -0.8837 0.8837 0.4681 -289.6967 352.4323)" style="fill:#595850;stroke:#000000;stroke-width:3.0003;stroke-miterlimit:10.0006;" width="8.17" height="38.813"/>
<ellipse style="opacity:0.47;fill:#5B5742;enable-background:new    ;" cx="183.337" cy="727.36" rx="74.772" ry="3.193"/>
<circle style="fill:#231815;stroke:#000000;stroke-width:6;stroke-miterlimit:10;" cx="141.278" cy="447.137" r="12.13"/>
<circle style="fill:#FFFFFF;" cx="142.608" cy="451.097" r="5.83"/>
<ellipse style="fill:#E73A8F;stroke:#000000;stroke-width:3;stroke-miterlimit:10;" cx="188.8" cy="477.049" rx="17.425" ry="7.311"/>
<g>
	<path style="fill:#A6A897;stroke:#000000;stroke-width:6;stroke-miterlimit:10;" d="M315.03,624.575L50.215,605
		c-5.207-0.386-9.109-4.917-8.726-10.114l5.324-72.108c0.386-5.207,4.917-9.109,10.114-8.726l264.805,19.573
		c5.207,0.386,9.109,4.917,8.726,10.114l-5.324,72.108C324.759,621.046,320.227,624.959,315.03,624.575L315.03,624.575z"/>
	<g>
		<path style="fill:#D6DBD9;stroke:#000000;stroke-miterlimit:10;" d="M125.861,541.299l-8.485-0.63
			c-1.288-0.096-2.253-1.212-2.168-2.503l0.331-4.497c0.096-1.288,1.212-2.253,2.504-2.168l8.485,0.63
			c1.288,0.096,2.253,1.212,2.168,2.503l-0.331,4.497C128.266,540.431,127.149,541.395,125.861,541.299z"/>
		<path style="fill:#D6DBD9;stroke:#000000;stroke-miterlimit:10;" d="M166.167,544.279l-8.485-0.63
			c-1.288-0.096-2.253-1.212-2.168-2.503l0.331-4.497c0.096-1.288,1.212-2.253,2.504-2.168l8.485,0.63
			c1.288,0.096,2.253,1.212,2.168,2.503l-0.331,4.497C168.575,543.401,167.455,544.376,166.167,544.279z"/>
		<path style="fill:#D6DBD9;stroke:#000000;stroke-miterlimit:10;" d="M71.384,537.279l-8.485-0.63
			c-1.288-0.096-2.253-1.212-2.168-2.503l0.331-4.497c0.096-1.288,1.212-2.253,2.504-2.168l8.485,0.63
			c1.288,0.096,2.253,1.212,2.168,2.503l-0.331,4.497C73.802,536.402,72.673,537.374,71.384,537.279z"/>
		<path style="fill:#D6DBD9;stroke:#000000;stroke-miterlimit:10;" d="M89.351,538.599l-8.485-0.63
			c-1.288-0.096-2.253-1.212-2.168-2.504l0.331-4.497c0.096-1.288,1.212-2.253,2.504-2.168l8.485,0.63
			c1.288,0.096,2.253,1.212,2.168,2.503l-0.331,4.497C91.766,537.732,90.641,538.694,89.351,538.599z"/>
		<path style="fill:#D6DBD9;stroke:#000000;stroke-miterlimit:10;" d="M236.709,549.496l-8.485-0.63
			c-1.288-0.096-2.253-1.212-2.168-2.503l0.331-4.497c0.096-1.288,1.212-2.253,2.504-2.168l8.485,0.63
			c1.288,0.096,2.253,1.212,2.168,2.503l-0.331,4.497C239.127,548.62,238,549.582,236.709,549.496z"/>
		<path style="fill:#D6DBD9;stroke:#000000;stroke-miterlimit:10;" d="M107.823,539.971l-8.485-0.63
			c-1.288-0.096-2.253-1.212-2.168-2.503l0.331-4.497c0.096-1.288,1.212-2.253,2.504-2.168l8.485,0.63
			c1.288,0.096,2.253,1.212,2.168,2.503l-0.331,4.497C110.241,539.095,109.111,540.066,107.823,539.971z"/>
		<path style="fill:#D6DBD9;stroke:#000000;stroke-miterlimit:10;" d="M184.284,545.619l-8.485-0.63
			c-1.288-0.096-2.253-1.212-2.168-2.503l0.331-4.497c0.096-1.288,1.212-2.253,2.504-2.168l8.485,0.63
			c1.288,0.096,2.253,1.212,2.168,2.503l-0.331,4.497C186.692,544.741,185.573,545.715,184.284,545.619z"/>
		<path style="fill:#D6DBD9;stroke:#000000;stroke-miterlimit:10;" d="M201.632,546.898l-8.485-0.63
			c-1.288-0.096-2.253-1.212-2.168-2.503l0.331-4.497c0.096-1.288,1.212-2.253,2.504-2.168l8.485,0.63
			c1.288,0.096,2.253,1.212,2.168,2.503l-0.331,4.497C204.037,546.029,202.92,546.994,201.632,546.898z"/>
		<path style="fill:#D6DBD9;stroke:#000000;stroke-miterlimit:10;" d="M219.18,548.2l-8.485-0.63
			c-1.288-0.096-2.253-1.212-2.168-2.503l0.331-4.497c0.096-1.288,1.212-2.253,2.504-2.168l8.485,0.63
			c1.288,0.096,2.253,1.212,2.168,2.503l-0.331,4.497C221.597,547.324,220.469,548.295,219.18,548.2z"/>
		<path style="fill:#D6DBD9;stroke:#000000;stroke-miterlimit:10;" d="M146.009,542.788l-8.485-0.63
			c-1.288-0.096-2.253-1.212-2.168-2.504l0.331-4.497c0.096-1.288,1.212-2.253,2.504-2.168l8.485,0.63
			c1.288,0.096,2.253,1.212,2.168,2.504l-0.331,4.497C148.424,541.922,147.297,542.884,146.009,542.788z"/>
		<path style="fill:#D6DBD9;stroke:#000000;stroke-miterlimit:10;" d="M256.971,550.363l-8.485-0.63
			c-1.288-0.096-2.253-1.212-2.168-2.503l0.331-4.497c0.096-1.288,1.212-2.253,2.504-2.168l8.485,0.63
			c1.288,0.096,2.253,1.212,2.168,2.503l-0.331,4.497C259.389,549.488,258.26,550.459,256.971,550.363z"/>
		<path style="fill:#D6DBD9;stroke:#000000;stroke-miterlimit:10;" d="M78.771,551.05l-17.274-1.281
			c-1.288-0.096-2.253-1.212-2.168-2.503l0.331-4.497c0.096-1.288,1.212-2.253,2.504-2.168l17.274,1.281
			c1.288,0.096,2.253,1.212,2.168,2.503l-0.331,4.497C81.186,550.184,80.06,551.146,78.771,551.05z"/>
		<path style="fill:#D6DBD9;stroke:#000000;stroke-miterlimit:10;" d="M93.376,552.094l-4.497-0.331
			c-1.288-0.096-2.253-1.212-2.168-2.503l0.331-4.497c0.096-1.288,1.212-2.253,2.504-2.168l4.497,0.331
			c1.288,0.096,2.253,1.212,2.168,2.503l-0.331,4.497C95.782,551.225,94.665,552.189,93.376,552.094z"/>
		<path style="fill:#D6DBD9;stroke:#000000;stroke-miterlimit:10;" d="M106.51,553.065l-4.497-0.331
			c-1.288-0.096-2.253-1.212-2.168-2.504l0.331-4.497c0.096-1.288,1.212-2.253,2.504-2.168l4.497,0.331
			c1.288,0.096,2.253,1.212,2.168,2.503l-0.331,4.497C108.928,552.19,107.798,553.161,106.51,553.065z"/>
		<path style="fill:#D6DBD9;stroke:#000000;stroke-miterlimit:10;" d="M120.506,554.102l-4.497-0.331
			c-1.288-0.096-2.253-1.212-2.168-2.503l0.331-4.497c0.096-1.288,1.212-2.253,2.504-2.168l4.497,0.331
			c1.288,0.096,2.253,1.212,2.168,2.503l-0.331,4.497C122.924,553.226,121.796,554.197,120.506,554.102z"/>
		<path style="fill:#D6DBD9;stroke:#000000;stroke-miterlimit:10;" d="M133.653,555.066l-4.497-0.331
			c-1.288-0.096-2.253-1.212-2.168-2.503l0.331-4.497c0.096-1.288,1.212-2.253,2.503-2.168l4.497,0.331
			c1.288,0.096,2.253,1.212,2.168,2.503l-0.331,4.497C136.058,554.198,134.942,555.161,133.653,555.066L133.653,555.066z"/>
		<path style="fill:#D6DBD9;stroke:#000000;stroke-miterlimit:10;" d="M149.427,556.421l-4.497-0.331
			c-1.288-0.096-2.253-1.212-2.168-2.503l0.331-4.497c0.096-1.288,1.212-2.253,2.504-2.168l4.497,0.331
			c1.288,0.096,2.253,1.212,2.168,2.503l-0.331,4.497C151.844,555.546,150.716,556.518,149.427,556.421z"/>
		<path style="fill:#D6DBD9;stroke:#000000;stroke-miterlimit:10;" d="M162.564,557.384l-4.497-0.331
			c-1.288-0.096-2.253-1.212-2.168-2.504l0.331-4.497c0.096-1.288,1.212-2.253,2.504-2.168l4.497,0.331
			c1.288,0.096,2.253,1.212,2.168,2.503l-0.331,4.497C164.979,556.517,163.853,557.479,162.564,557.384z"/>
		<path style="fill:#D6DBD9;stroke:#000000;stroke-miterlimit:10;" d="M176.57,558.422l-4.497-0.331
			c-1.288-0.096-2.253-1.212-2.168-2.503l0.331-4.497c0.096-1.288,1.212-2.253,2.504-2.168l4.497,0.331
			c1.288,0.096,2.253,1.212,2.168,2.503l-0.331,4.497C178.975,557.554,177.859,558.518,176.57,558.422z"/>
		<path style="fill:#D6DBD9;stroke:#000000;stroke-miterlimit:10;" d="M188.979,559.201l-4.497-0.331
			c-1.288-0.096-2.253-1.212-2.168-2.503l0.331-4.497c0.096-1.288,1.212-2.253,2.504-2.168l4.497,0.331
			c1.288,0.096,2.253,1.212,2.168,2.503l-0.331,4.497C191.387,558.322,190.268,559.296,188.979,559.201z"/>
		<path style="fill:#D6DBD9;stroke:#000000;stroke-miterlimit:10;" d="M203.24,560.255l-4.497-0.331
			c-1.288-0.096-2.253-1.212-2.168-2.503l0.331-4.497c0.096-1.288,1.212-2.253,2.504-2.168l4.497,0.331
			c1.288,0.096,2.253,1.212,2.168,2.503l-0.331,4.497C205.648,559.377,204.528,560.352,203.24,560.255z"/>
		<path style="fill:#D6DBD9;stroke:#000000;stroke-miterlimit:10;" d="M216.374,561.226l-4.497-0.331
			c-1.288-0.096-2.253-1.212-2.168-2.503l0.331-4.497c0.096-1.288,1.212-2.253,2.504-2.168l4.497,0.331
			c1.288,0.096,2.253,1.212,2.168,2.503l-0.331,4.497C218.792,560.351,217.663,561.323,216.374,561.226z"/>
		<path style="fill:#D6DBD9;stroke:#000000;stroke-miterlimit:10;" d="M230.373,562.253l-4.497-0.331
			c-1.288-0.096-2.253-1.212-2.168-2.504l0.331-4.497c0.096-1.288,1.212-2.253,2.504-2.168l4.497,0.331
			c1.288,0.096,2.253,1.212,2.168,2.503l-0.331,4.497C232.788,561.387,231.662,562.35,230.373,562.253z"/>
		<path style="fill:#D6DBD9;stroke:#000000;stroke-miterlimit:10;" d="M243.516,563.227l-4.497-0.331
			c-1.288-0.096-2.253-1.212-2.168-2.503l0.331-4.497c0.096-1.288,1.212-2.253,2.504-2.168l4.497,0.331
			c1.288,0.096,2.253,1.212,2.168,2.503l-0.331,4.497C245.923,562.359,244.806,563.323,243.516,563.227z"/>
		<path style="fill:#D6DBD9;stroke:#000000;stroke-miterlimit:10;" d="M255.599,564.26l-4.497-0.331
			c-1.288-0.096-2.253-1.212-2.168-2.503l0.331-4.497c0.096-1.288,1.212-2.253,2.504-2.168l4.497,0.331
			c1.288,0.096,2.253,1.212,2.168,2.503l-0.331,4.497C258.014,563.393,256.888,564.355,255.599,564.26z"/>
		<path style="fill:#D6DBD9;stroke:#000000;stroke-miterlimit:10;" d="M110.808,566.893l-4.497-0.331
			c-1.288-0.096-2.253-1.212-2.168-2.503l0.331-4.497c0.096-1.288,1.212-2.253,2.504-2.168l4.497,0.331
			c1.288,0.096,2.253,1.212,2.168,2.503l-0.331,4.497C113.216,566.014,112.097,566.988,110.808,566.893z"/>
		<path style="fill:#D6DBD9;stroke:#000000;stroke-miterlimit:10;" d="M125.468,568.157l-4.497-0.331
			c-1.288-0.096-2.253-1.212-2.168-2.503l0.331-4.497c0.096-1.288,1.212-2.253,2.504-2.168l4.497,0.331
			c1.288,0.096,2.253,1.212,2.168,2.503l-0.331,4.497C127.876,567.279,126.757,568.253,125.468,568.157z"/>
		<path style="fill:#D6DBD9;stroke:#000000;stroke-miterlimit:10;" d="M139.131,569.166l-4.497-0.331
			c-1.288-0.096-2.253-1.212-2.168-2.503l0.331-4.497c0.096-1.288,1.212-2.253,2.504-2.168l4.497,0.331
			c1.288,0.096,2.253,1.212,2.168,2.503l-0.331,4.497C141.548,568.291,140.419,569.262,139.131,569.166z"/>
		<path style="fill:#D6DBD9;stroke:#000000;stroke-miterlimit:10;" d="M152.852,570.068l-4.497-0.331
			c-1.288-0.096-2.253-1.212-2.168-2.503l0.331-4.497c0.096-1.288,1.212-2.253,2.504-2.168l4.497,0.331
			c1.288,0.096,2.253,1.212,2.168,2.504l-0.331,4.497C155.258,569.198,154.142,570.163,152.852,570.068z"/>
		<path style="fill:#D6DBD9;stroke:#000000;stroke-miterlimit:10;" d="M167.174,571.128l-4.497-0.331
			c-1.288-0.096-2.253-1.212-2.168-2.504l0.331-4.497c0.096-1.288,1.212-2.253,2.504-2.168l4.497,0.331
			c1.288,0.096,2.253,1.212,2.168,2.503l-0.331,4.497C169.592,570.252,168.462,571.224,167.174,571.128z"/>
		<path style="fill:#D6DBD9;stroke:#000000;stroke-miterlimit:10;" d="M181.17,572.164l-4.497-0.331
			c-1.288-0.096-2.253-1.212-2.168-2.503l0.331-4.497c0.096-1.288,1.212-2.253,2.504-2.168l4.497,0.331
			c1.288,0.096,2.253,1.212,2.168,2.503l-0.331,4.497C183.588,571.289,182.459,572.261,181.17,572.164z"/>
		<path style="fill:#D6DBD9;stroke:#000000;stroke-miterlimit:10;" d="M193.072,572.051l-4.497-0.331
			c-1.288-0.096-2.253-1.212-2.168-2.503l0.331-4.497c0.096-1.288,1.212-2.253,2.504-2.168l4.497,0.331
			c1.288,0.096,2.253,1.212,2.168,2.503l-0.331,4.497C195.487,571.185,194.361,572.148,193.072,572.051z"/>
		<path style="fill:#D6DBD9;stroke:#000000;stroke-miterlimit:10;" d="M207.333,573.106l-4.497-0.331
			c-1.288-0.096-2.253-1.212-2.168-2.503l0.331-4.497c0.096-1.288,1.212-2.253,2.504-2.168l4.497,0.331
			c1.288,0.096,2.253,1.212,2.168,2.503l-0.331,4.497C209.748,572.241,208.621,573.202,207.333,573.106z"/>
		<path style="fill:#D6DBD9;stroke:#000000;stroke-miterlimit:10;" d="M220.476,574.08l-4.497-0.331
			c-1.288-0.096-2.253-1.212-2.168-2.503l0.331-4.497c0.096-1.288,1.212-2.253,2.504-2.168l4.497,0.331
			c1.288,0.096,2.253,1.212,2.168,2.503l-0.331,4.497C222.882,573.211,221.765,574.176,220.476,574.08z"/>
		<path style="fill:#D6DBD9;stroke:#000000;stroke-miterlimit:10;" d="M234.473,575.117l-4.497-0.331
			c-1.288-0.096-2.253-1.212-2.168-2.503l0.331-4.497c0.096-1.288,1.212-2.253,2.504-2.168l4.497,0.331
			c1.288,0.096,2.253,1.212,2.168,2.503l-0.331,4.497C236.881,574.238,235.762,575.212,234.473,575.117z"/>
		<path style="fill:#D6DBD9;stroke:#000000;stroke-miterlimit:10;" d="M83.702,565.067l-23.203-1.715
			c-1.288-0.096-2.253-1.212-2.168-2.503l0.331-4.497c0.096-1.288,1.212-2.253,2.504-2.168l23.203,1.715
			c1.288,0.096,2.253,1.212,2.168,2.503l-0.331,4.497C86.119,564.191,84.99,565.163,83.702,565.067z"/>
		<path style="fill:#D6DBD9;stroke:#000000;stroke-miterlimit:10;" d="M102.914,580.6l-4.497-0.331
			c-1.288-0.096-2.253-1.212-2.168-2.503l0.331-4.497c0.096-1.288,1.212-2.253,2.504-2.168l4.497,0.331
			c1.288,0.096,2.253,1.212,2.168,2.503l-0.331,4.497C105.322,579.722,104.203,580.695,102.914,580.6z"/>
		<path style="fill:#D6DBD9;stroke:#000000;stroke-miterlimit:10;" d="M96.547,565.838l-4.497-0.331
			c-1.288-0.096-2.253-1.212-2.168-2.503l0.331-4.497c0.096-1.288,1.212-2.253,2.504-2.168l4.497,0.331
			c1.288,0.096,2.253,1.212,2.168,2.503l-0.331,4.497C98.965,564.961,97.837,565.933,96.547,565.838z"/>
		<path style="fill:#D6DBD9;stroke:#000000;stroke-miterlimit:10;" d="M253.129,576.921l-11.113-0.825
			c-1.288-0.096-2.253-1.212-2.168-2.503l0.331-4.497c0.096-1.288,1.212-2.253,2.504-2.168l11.113,0.825
			c1.288,0.096,2.253,1.212,2.168,2.503l-0.331,4.497C255.535,576.052,254.418,577.017,253.129,576.921L253.129,576.921z"/>
		<path style="fill:#D6DBD9;stroke:#000000;stroke-miterlimit:10;" d="M88.835,579.097l-29.345-2.164
			c-1.288-0.096-2.253-1.212-2.168-2.503l0.331-4.497c0.096-1.288,1.212-2.253,2.504-2.168l29.345,2.164
			c1.288,0.096,2.253,1.212,2.168,2.503l-0.331,4.497C91.244,578.218,90.124,579.192,88.835,579.097z"/>
		<path style="fill:#D6DBD9;stroke:#000000;stroke-miterlimit:10;" d="M117.074,581.183l-4.497-0.331
			c-1.288-0.096-2.253-1.212-2.168-2.503l0.331-4.497c0.096-1.288,1.212-2.253,2.504-2.168l4.497,0.331
			c1.288,0.096,2.253,1.212,2.168,2.503l-0.331,4.497C119.491,580.307,118.362,581.279,117.074,581.183z"/>
		<path style="fill:#D6DBD9;stroke:#000000;stroke-miterlimit:10;" d="M132.453,582.351l-4.497-0.331
			c-1.288-0.096-2.253-1.212-2.168-2.503l0.331-4.497c0.096-1.288,1.212-2.253,2.504-2.168l4.497,0.331
			c1.288,0.096,2.253,1.212,2.168,2.503l-0.331,4.497C134.868,581.484,133.741,582.446,132.453,582.351z"/>
		<path style="fill:#D6DBD9;stroke:#000000;stroke-miterlimit:10;" d="M146.115,583.36l-4.497-0.331
			c-1.288-0.096-2.253-1.212-2.168-2.503l0.331-4.497c0.096-1.288,1.212-2.253,2.504-2.168l4.497,0.331
			c1.288,0.096,2.253,1.212,2.168,2.503l-0.331,4.497C148.53,582.493,147.404,583.455,146.115,583.36z"/>
		<path style="fill:#D6DBD9;stroke:#000000;stroke-miterlimit:10;" d="M159.835,584.27l-4.497-0.331
			c-1.288-0.096-2.253-1.212-2.168-2.503l0.331-4.497c0.096-1.288,1.212-2.253,2.504-2.168l4.497,0.331
			c1.288,0.096,2.253,1.212,2.168,2.503l-0.331,4.497C162.242,583.392,161.123,584.365,159.835,584.27z"/>
		<path style="fill:#D6DBD9;stroke:#000000;stroke-miterlimit:10;" d="M174.155,585.331l-4.497-0.331
			c-1.288-0.096-2.253-1.212-2.168-2.503l0.331-4.497c0.096-1.288,1.212-2.253,2.504-2.168l4.497,0.331
			c1.288,0.096,2.253,1.212,2.168,2.503l-0.331,4.497C176.573,584.454,175.448,585.416,174.155,585.331z"/>
		<path style="fill:#D6DBD9;stroke:#000000;stroke-miterlimit:10;" d="M188.164,586.359l-4.497-0.331
			c-1.288-0.096-2.253-1.212-2.168-2.503l0.331-4.497c0.096-1.288,1.212-2.253,2.504-2.168l4.497,0.331
			c1.288,0.096,2.253,1.212,2.168,2.504l-0.331,4.497C190.57,585.491,189.454,586.456,188.164,586.359z"/>
		<path style="fill:#D6DBD9;stroke:#000000;stroke-miterlimit:10;" d="M200.054,586.254l-4.497-0.331
			c-1.288-0.096-2.253-1.212-2.168-2.503l0.331-4.497c0.096-1.288,1.212-2.253,2.503-2.168l4.497,0.331
			c1.288,0.096,2.253,1.212,2.168,2.503l-0.331,4.497C202.469,585.387,201.343,586.35,200.054,586.254z"/>
		<path style="fill:#D6DBD9;stroke:#000000;stroke-miterlimit:10;" d="M214.315,587.308l-4.497-0.331
			c-1.288-0.096-2.253-1.212-2.168-2.503l0.331-4.497c0.096-1.288,1.212-2.253,2.504-2.168l4.497,0.331
			c1.288,0.096,2.253,1.212,2.168,2.503l-0.331,4.497C216.733,586.433,215.604,587.405,214.315,587.308z"/>
		<path style="fill:#D6DBD9;stroke:#000000;stroke-miterlimit:10;" d="M227.458,588.283l-4.497-0.331
			c-1.288-0.096-2.253-1.212-2.168-2.503l0.331-4.497c0.096-1.288,1.212-2.253,2.504-2.168l4.497,0.331
			c1.288,0.096,2.253,1.212,2.168,2.503l-0.331,4.497C229.866,587.404,228.748,588.378,227.458,588.283z"/>
		<path style="fill:#D6DBD9;stroke:#000000;stroke-miterlimit:10;" d="M253.766,588.953l-17.357-1.281
			c-1.288-0.096-2.253-1.212-2.168-2.503l0.331-4.497c0.096-1.288,1.212-2.253,2.504-2.168l17.357,1.281
			c1.288,0.096,2.253,1.212,2.168,2.503l-0.331,4.497C256.172,588.084,255.055,589.048,253.766,588.953z"/>
		<path style="fill:#D6DBD9;stroke:#000000;stroke-miterlimit:10;" d="M61.759,589.793l-4.497-0.331
			c-1.288-0.096-2.253-1.212-2.168-2.503l0.331-4.497c0.096-1.288,1.212-2.253,2.504-2.168l4.497,0.331
			c1.288,0.096,2.253,1.212,2.168,2.503l-0.331,4.497C64.175,588.927,63.058,589.891,61.759,589.793z"/>
		<path style="fill:#D6DBD9;stroke:#000000;stroke-miterlimit:10;" d="M74.903,590.767l-4.497-0.331
			c-1.288-0.096-2.253-1.212-2.168-2.503l0.331-4.497c0.096-1.288,1.212-2.253,2.504-2.168l4.497,0.331
			c1.288,0.096,2.253,1.212,2.168,2.503l-0.331,4.497C77.308,589.899,76.192,590.863,74.903,590.767z"/>
		<path style="fill:#D6DBD9;stroke:#000000;stroke-miterlimit:10;" d="M88.899,591.804l-4.497-0.331
			c-1.288-0.096-2.253-1.212-2.168-2.503l0.331-4.497c0.096-1.288,1.212-2.253,2.504-2.168l4.497,0.331
			c1.288,0.096,2.253,1.212,2.168,2.503l-0.331,4.497C91.317,590.927,90.188,591.899,88.899,591.804z"/>
		<path style="fill:#D6DBD9;stroke:#000000;stroke-miterlimit:10;" d="M102.043,592.778l-4.497-0.331
			c-1.288-0.096-2.253-1.212-2.168-2.503l0.331-4.497c0.096-1.288,1.212-2.253,2.504-2.168l4.497,0.331
			c1.288,0.096,2.253,1.212,2.168,2.503l-0.331,4.497C104.451,591.899,103.331,592.873,102.043,592.778z"/>
		<path style="fill:#D6DBD9;stroke:#000000;stroke-miterlimit:10;" d="M117.82,594.123l-4.497-0.331
			c-1.288-0.096-2.253-1.212-2.168-2.503l0.331-4.497c0.096-1.288,1.212-2.253,2.503-2.168l4.497,0.331
			c1.288,0.096,2.253,1.212,2.168,2.503l-0.331,4.497C120.228,593.245,119.109,594.219,117.82,594.123z"/>
		<path style="fill:#D6DBD9;stroke:#000000;stroke-miterlimit:10;" d="M171.623,597.954l-44.793-3.309
			c-1.288-0.096-2.253-1.212-2.168-2.503l0.331-4.497c0.096-1.288,1.212-2.253,2.504-2.168l44.793,3.309
			c1.288,0.096,2.253,1.212,2.168,2.504l-0.331,4.497C174.038,597.089,172.912,598.05,171.623,597.954z"/>
		<path style="fill:#D6DBD9;stroke:#000000;stroke-miterlimit:10;" d="M184.767,598.929l-4.497-0.331
			c-1.288-0.096-2.253-1.212-2.168-2.503l0.331-4.497c0.096-1.288,1.212-2.253,2.504-2.168l4.497,0.331
			c1.288,0.096,2.253,1.212,2.168,2.503l-0.331,4.497C187.175,598.05,186.055,599.024,184.767,598.929z"/>
		<path style="fill:#D6DBD9;stroke:#000000;stroke-miterlimit:10;" d="M198.763,599.965l-4.497-0.331
			c-1.288-0.096-2.253-1.212-2.168-2.503l0.331-4.497c0.096-1.288,1.212-2.253,2.504-2.168l4.497,0.331
			c1.288,0.096,2.253,1.212,2.168,2.503l-0.331,4.497C201.181,599.088,200.052,600.06,198.763,599.965z"/>
		<path style="fill:#D6DBD9;stroke:#000000;stroke-miterlimit:10;" d="M211.907,600.939l-4.497-0.331
			c-1.288-0.096-2.253-1.212-2.168-2.503l0.331-4.497c0.096-1.288,1.212-2.253,2.504-2.168l4.497,0.331
			c1.288,0.096,2.253,1.212,2.168,2.503l-0.331,4.497C214.315,600.06,213.198,601.025,211.907,600.939z"/>
		<path style="fill:#D6DBD9;stroke:#000000;stroke-miterlimit:10;" d="M223.989,601.972l-4.497-0.331
			c-1.288-0.096-2.253-1.212-2.168-2.503l0.331-4.497c0.096-1.288,1.212-2.253,2.504-2.168l4.497,0.331
			c1.288,0.096,2.253,1.212,2.168,2.503l-0.331,4.497C226.408,601.095,225.278,602.067,223.989,601.972z"/>
		<path style="fill:#D6DBD9;stroke:#000000;stroke-miterlimit:10;" d="M238.302,602.409l-4.497-0.331
			c-1.288-0.096-2.253-1.212-2.168-2.503l0.331-4.497c0.096-1.288,1.212-2.253,2.504-2.168l4.497,0.331
			c1.288,0.096,2.253,1.212,2.168,2.503l-0.331,4.497C240.717,601.542,239.59,602.504,238.302,602.409z"/>
		<path style="fill:#D6DBD9;stroke:#000000;stroke-miterlimit:10;" d="M252.308,603.447l-4.497-0.331
			c-1.288-0.096-2.253-1.212-2.168-2.503l0.331-4.497c0.096-1.288,1.212-2.253,2.504-2.168l4.497,0.331
			c1.288,0.096,2.253,1.212,2.168,2.503l-0.331,4.497C254.713,602.579,253.596,603.543,252.308,603.447z"/>
	</g>
	<path style="fill:#D6DBD9;stroke:#000000;stroke-miterlimit:10;" d="M278.066,565.746l-4.497-0.331
		c-1.288-0.096-2.253-1.212-2.168-2.503l0.331-4.497c0.096-1.288,1.212-2.253,2.503-2.168l4.497,0.331
		c1.288,0.096,2.253,1.212,2.168,2.503l-0.331,4.497C280.484,564.871,279.358,565.833,278.066,565.746z"/>
	<path style="fill:#D6DBD9;stroke:#000000;stroke-miterlimit:10;" d="M304.996,567.731l-4.497-0.331
		c-1.288-0.096-2.253-1.212-2.168-2.503l0.331-4.497c0.096-1.288,1.212-2.253,2.503-2.168l4.497,0.331
		c1.288,0.096,2.253,1.212,2.168,2.503l-0.331,4.497C307.413,566.856,306.285,567.828,304.996,567.731z"/>
	<path style="fill:#D6DBD9;stroke:#000000;stroke-miterlimit:10;" d="M291.302,566.725l-4.497-0.331
		c-1.288-0.096-2.253-1.212-2.168-2.503l0.331-4.497c0.096-1.288,1.212-2.253,2.503-2.168l4.497,0.331
		c1.288,0.096,2.253,1.212,2.168,2.503l-0.331,4.497C293.71,565.846,292.591,566.82,291.302,566.725z"/>
	<path style="fill:#D6DBD9;stroke:#000000;stroke-miterlimit:10;" d="M277.112,578.699l-4.497-0.331
		c-1.288-0.096-2.253-1.212-2.168-2.503l0.331-4.497c0.096-1.288,1.212-2.253,2.503-2.168l4.497,0.331
		c1.288,0.096,2.253,1.212,2.168,2.503l-0.331,4.497C279.521,577.82,278.401,578.795,277.112,578.699z"/>
	<path style="fill:#D6DBD9;stroke:#000000;stroke-miterlimit:10;" d="M290.379,579.25l-4.497-0.331
		c-1.288-0.096-2.253-1.212-2.168-2.503l0.331-4.497c0.096-1.288,1.212-2.253,2.503-2.168l4.497,0.331
		c1.288,0.096,2.253,1.212,2.168,2.503l-0.331,4.497C292.788,578.372,291.668,579.347,290.379,579.25z"/>
	<path style="fill:#D6DBD9;stroke:#000000;stroke-miterlimit:10;" d="M304.073,580.258l-4.497-0.331
		c-1.288-0.096-2.253-1.212-2.168-2.503l0.331-4.497c0.096-1.288,1.212-2.253,2.503-2.168l4.497,0.331
		c1.288,0.096,2.253,1.212,2.168,2.503l-0.331,4.497C306.488,579.391,305.362,580.353,304.073,580.258z"/>
	<path style="fill:#D6DBD9;stroke:#000000;stroke-miterlimit:10;" d="M276.238,591.507l-4.497-0.331
		c-1.288-0.096-2.253-1.212-2.168-2.503l0.331-4.497c0.096-1.288,1.212-2.253,2.503-2.168l4.497,0.331
		c1.288,0.096,2.253,1.212,2.168,2.503l-0.331,4.497C278.644,590.638,277.527,591.603,276.238,591.507z"/>
	<path style="fill:#D6DBD9;stroke:#000000;stroke-miterlimit:10;" d="M289.486,591.278l-4.497-0.331
		c-1.288-0.096-2.253-1.212-2.168-2.503l0.331-4.497c0.096-1.288,1.212-2.253,2.503-2.168l4.497,0.331
		c1.288,0.096,2.253,1.212,2.168,2.503l-0.331,4.497C291.901,590.411,290.775,591.373,289.486,591.278z"/>
	<path style="fill:#D6DBD9;stroke:#000000;stroke-miterlimit:10;" d="M303.623,592.641l-4.497-0.331
		c-1.288-0.096-2.253-1.212-2.168-2.503l0.331-4.497c0.096-1.288,1.212-2.253,2.503-2.168l4.497,0.331
		c1.288,0.096,2.253,1.212,2.168,2.503l-0.331,4.497C306.04,591.765,304.912,592.737,303.623,592.641z"/>
	<path style="fill:#D6DBD9;stroke:#000000;stroke-miterlimit:10;" d="M291.284,604.778l-20.441-1.515
		c-1.288-0.096-2.253-1.212-2.168-2.503l0.331-4.497c0.096-1.288,1.212-2.253,2.503-2.168l20.441,1.515
		c1.288,0.096,2.253,1.212,2.168,2.503l-0.331,4.497C293.699,603.912,292.572,604.874,291.284,604.778L291.284,604.778z"/>
	<path style="fill:#D6DBD9;stroke:#000000;stroke-miterlimit:10;" d="M302.676,605.45l-4.497-0.331
		c-1.288-0.096-2.253-1.212-2.168-2.503l0.331-4.497c0.096-1.288,1.212-2.253,2.503-2.168l4.497,0.331
		c1.288,0.096,2.253,1.212,2.168,2.503l-0.331,4.497C305.094,604.574,303.965,605.546,302.676,605.45z"/>
</g>
<path style="opacity:0.43;fill:#5B5742;enable-background:new    ;" d="M65.601,500.214c-4.074-1.325-11.669,7.775-14.531,12.122
	c-2.352,3.561-4.103,7.846-4.748,9.53c-0.433,1.103-1.303,3.459-2.096,6.543c-1.315,5.124-1.39,7.968-1.942,14.522
	c-0.741,8.808-1.903,14.276-0.76,22.113c0.242,1.683,0.695,4.175,2.525,5.156c2.336,1.244,5.571-0.688,6.746-1.348
	C62.273,562.367,75.115,503.295,65.601,500.214L65.601,500.214z"/>
<rect x="200.259" y="412.782" transform="matrix(0.8837 -0.4681 0.4681 0.8837 -169.5798 151.3128)" style="fill:#595850;stroke:#000000;stroke-width:3.0003;stroke-miterlimit:10.0006;" width="38.813" height="8.17"/>
<circle style="fill:#231815;stroke:#000000;stroke-width:6;stroke-miterlimit:10;" cx="223.972" cy="445.267" r="12.13"/>
<circle style="fill:#FFFFFF;" cx="221.97" cy="451.097" r="5.83"/>
<path style="fill:#EBE2B3;stroke:#000000;stroke-width:6;stroke-miterlimit:10;" d="M111.676,477.105
	c4.813,2.848,7.761,4.646,9.023,8.069c0.419,1.135,0.901,3.122,0.234,6.379c-1.476,7.214-6.702,11.453-12.856,17.559
	c-4.289,4.255-8.883,9.73-18.07,20.68c-4.898,5.836-5.36,6.822-10.916,13.444c-5.704,6.798-10.029,11.556-17.08,19.824
	c-0.616,0.907-2.443,3.634-5.857,5.148c-21.38,8.023-4.369-42.364-2.088-47.473c1.062-2.556,1.975-4.483,2.898-6.204
	c2.598-4.841,4.444-7.339,7.332-11.828c2.203-3.425,3.701-6.092,6.697-11.424c5.507-9.803,6.162-12.119,9.476-14.676
	c3.19-2.46,6.588-3.405,8.864-3.82c3.277-0.735,8.272-1.299,13.841,0.274C106.358,473.959,108.449,475.197,111.676,477.105z"/>
</svg>
