<?xml version="1.0" encoding="iso-8859-1"?>
<!-- Generator: Adobe Illustrator 27.0.0, SVG Export Plug-In . SVG Version: 6.00 Build 0)  -->
<svg version="1.1" id="&#x5716;&#x5C64;_1" xmlns="http://www.w3.org/2000/svg" xmlns:xlink="http://www.w3.org/1999/xlink" x="0px"
	 y="0px" viewBox="0 0 595.276 841.89" style="enable-background:new 0 0 595.276 841.89;" xml:space="preserve">
<path style="fill:#E7DFB1;stroke:#040000;stroke-width:6;stroke-miterlimit:10;" d="M108.383,658.826
	c-6.318-5.536-8.003-5.023-8.505-4.666c-0.761,0.543-0.379,1.859,0.845,10.964c0.436,3.245,0.485,3.798,0.851,6.298
	c0.519,3.54,0.853,5.373,1.191,7.489c0.699,4.371,0.826,6.247,1.478,11.676c0.928,7.721,1.392,11.581,1.926,14.197
	c1.437,7.032,3.93,19.236,10.5,20.699c1.118,0.249,4.797,0.731,10.433-4.803c1.113,0.228,11.43-19.293,12.775-22.568
	c4.12-9.712,2.484-12.759,10.323-20.901c-8.206-3.215-16.664-6.753-25.332-10.649C119.194,664.011,113.699,661.427,108.383,658.826z
	"/>
<path style="opacity:0.61;fill:#B2AC8A;enable-background:new    ;" d="M114.134,667.969c-1.119,1.579,1.778,6.133,3.266,7.976
	c1.218,1.513,2.828,2.867,3.466,3.38c0.417,0.341,1.315,1.045,2.536,1.817c2.03,1.282,3.246,1.709,5.994,2.859
	c3.695,1.545,5.894,2.809,9.424,3.403c0.758,0.129,1.892,0.28,2.561-0.376c0.85-0.838,0.454-2.508,0.327-3.108
	C140.46,678.051,116.742,664.279,114.134,667.969L114.134,667.969z"/>
<path style="opacity:0.43;fill:#5A5742;enable-background:new    ;" d="M275.243,562.26c-2.734,3.576,3.749,13.465,7.111,17.446
	c2.751,3.269,6.434,6.158,7.896,7.25c0.955,0.727,3.011,2.224,5.823,3.851c4.673,2.7,7.494,3.564,13.862,5.922
	c8.559,3.169,13.63,5.817,21.867,6.891c1.768,0.234,4.419,0.489,6.033-1.01c2.052-1.916,1.237-5.587,0.981-6.908
	C336.293,582.783,281.613,553.904,275.243,562.26L275.243,562.26z"/>
<path style="fill:#E7DFB1;stroke:#040000;stroke-width:6;stroke-miterlimit:10;" d="M273.099,494.759
	c2.936-4.124,4.554-4.58,5.465-4.342c2.157,0.565,1.717,5.425,4.99,13.406c1.111,2.711,2.143,4.645,3.015,6.282
	c6.019,9.789,16.105,24.642,23.074,35.329c12.377,16.485,15.536,21.867,25.038,35.549c0.721,0.826,2.891,3.288,3.487,6.975
	c2.312,22.718-42.08-6.567-46.439-10.075c-8.782-6.695-8.497-8.547-22.451-22.207c-14.102-13.804-16.358-13.834-17.322-18.458
	c1.155-5.416,3.035-11.929,6.18-18.968C262.756,507.909,268.46,500.122,273.099,494.759z"/>
<path style="fill:#E7DFB1;stroke:#040000;stroke-width:6;stroke-miterlimit:10;" d="M222.93,677.828
	c3.477,5.349,7.102,11.491,10.653,18.423c3.502,6.845,6.355,13.336,8.685,19.295c8.934,14.577,23.938,7.746,22.709-9.142
	c0.819-7.683,1.471-15.836,1.873-24.419c0.364-7.729,0.507-15.142,0.474-22.188c-0.482-3.448-0.976-6.893-1.456-10.329
	l-42.917,28.355L222.93,677.828z"/>
<path style="fill:#E7DFB1;stroke:#040000;stroke-width:6;stroke-miterlimit:10;" d="M54.298,548.867
	c-0.125-4.79-0.183-8.696-0.213-11.403c-0.03-2.708-0.119-6.005-0.297-12.597c-0.102-3.771-0.136-4.618-0.442-6.008
	c-0.656-2.98-1.617-4.182-2.23-7.6c-0.341-1.904-0.37-3.359-0.388-4.261c-0.156-7.827,3.102-15.614,6.13-19.4
	c0.307-0.384,1.199-1.46,2.209-3.079c1.303-2.087,1.994-3.779,2.337-4.586c1.454-3.416,2.149-3.82,4.596-8.511
	c2.063-3.956,3.619-6.937,4.766-10.723c1.13-3.729,0.797-4.715,1.702-10.723c0.824-5.469,1.599-10.608,3.404-15.149
	c2.328-5.855,5.826-9.346,10.096-13.609c10.592-10.572,16.01-9.095,21.393-17.881c1.291-2.107,2.57-4.788,5.659-8.145
	c1.797-1.953,2.283-1.962,8.178-6.654c10.476-8.338,14.741-10.887,16.697-11.92c0.324-0.171,0.487-0.253,0.663-0.34
	c7.678-3.78,11.537-0.601,20.378-2.217c4.989-0.912,6.909-2.5,11.372-2.523c0.625-0.003,2.459,0.026,5.02-0.15
	c1.02-0.07,2.73-0.2,4.79-0.48c3.5-0.47,6.13-1.09,6.94-1.28c11.68-2.7,17.58-4.33,22.98-3.06c6.49,1.52,10.85,5.28,14.81,8.68
	c2.51,2.16,5.96,6.58,12.77,15.32c7.57,9.73,9.32,12.34,13.79,15.83s5.03,2.67,8.17,5.62c6.026,5.661,9.7,16.85,9.7,16.85
	c2.211,6.773,1.67,9.02,3.7,11.065c0.502,0.505,2.457,2.304,3.636,5.356c0.144,0.372,0.238,0.669,0.324,0.939
	c0.74,2.33,1.16,4.62,2.11,9.18c1.2,5.77,1.55,8.55,3,16.87c1.13,6.46,1.66,9.7,2.04,11.23c2.56,10.37,6.41,17.41,7.66,19.91
	c5.85,11.68,5.26,25.49,4.09,53.11c-0.71,16.75-1.1,25.85-5.11,37.79c-2.07,6.16-3.02,6.87-8.17,20.94
	c-4.36,11.9-5.08,15.22-8.68,23.49c-4,9.2-6,13.8-10.21,18.89c-1.78,2.16-5.93,6.8-16.85,13.28
	c-7.669,4.551-18.508,11.164-34.21,14.3c-8.394,1.677-17.586,1.399-35.97,0.843c-3.478-0.105-8.508-0.333-14.809-1.532
	c-1.048-0.2-5.018-0.975-10.213-2.553c-6.142-1.866-6.313-2.519-11.234-4.085c-7.935-2.525-9.581-1.493-18.383-4.085
	c-2.6-0.766-6.108-1.798-9.892-3.589c-6.988-3.306-11.447-7.55-16.439-12.579c-12.867-12.959-19.38-19.394-21.96-24
	c-2-3.57-4.74-11.74-10.21-28.09c-3.492-10.437-5.122-15.694-6.13-19.91C55.343,577.168,53.369,564.756,54.298,548.867z"/>
<rect x="143.84" y="397.453" transform="matrix(0.4681 -0.8837 0.8837 0.4681 -289.6888 352.4505)" style="fill:#595850;stroke:#040000;stroke-width:3.0005;stroke-miterlimit:10.001;" width="8.17" height="38.815"/>
<ellipse style="opacity:0.47;fill:#5A5742;enable-background:new    ;" cx="183.337" cy="727.36" rx="74.772" ry="3.193"/>
<circle style="fill:#231815;stroke:#040000;stroke-width:6;stroke-miterlimit:10;" cx="141.278" cy="447.137" r="12.13"/>
<circle style="fill:#FFFFFF;" cx="142.608" cy="451.097" r="5.83"/>
<ellipse style="fill:#D63C86;stroke:#040000;stroke-width:3;stroke-miterlimit:10;" cx="188.8" cy="477.049" rx="17.425" ry="7.311"/>
<g>
	<path style="fill:#A5A796;stroke:#040000;stroke-width:6;stroke-miterlimit:10;" d="M319.17,613.677L53.644,616.14
		c-5.221,0.047-9.486-4.144-9.535-9.355l-0.677-72.301c-0.047-5.221,4.144-9.486,9.355-9.535l265.516-2.464
		c5.221-0.047,9.486,4.144,9.535,9.355l0.677,72.301C328.573,609.353,324.381,613.629,319.17,613.677L319.17,613.677z"/>
	<g>
		<path style="fill:#D6DBD9;stroke:#040000;stroke-miterlimit:10;" d="M123.744,546.383l-8.508,0.076
			c-1.292,0.011-2.346-1.021-2.368-2.315l-0.043-4.509c-0.011-1.292,1.021-2.346,2.316-2.368l8.508-0.076
			c1.292-0.011,2.346,1.021,2.368,2.315l0.043,4.509C126.069,545.318,125.036,546.372,123.744,546.383z"/>
		<path style="fill:#D6DBD9;stroke:#040000;stroke-miterlimit:10;" d="M164.158,546.009l-8.508,0.076
			c-1.292,0.011-2.346-1.021-2.368-2.315l-0.043-4.509c-0.011-1.292,1.021-2.346,2.316-2.368l8.508-0.076
			c1.292-0.011,2.346,1.021,2.368,2.315l0.043,4.509C166.485,544.934,165.45,545.998,164.158,546.009z"/>
		<path style="fill:#D6DBD9;stroke:#040000;stroke-miterlimit:10;" d="M69.121,546.896l-8.508,0.076
			c-1.292,0.011-2.346-1.021-2.368-2.315l-0.043-4.509c-0.011-1.292,1.021-2.346,2.316-2.368l8.508-0.076
			c1.292-0.011,2.346,1.021,2.368,2.315l0.043,4.509C71.458,545.822,70.414,546.884,69.121,546.896z"/>
		<path style="fill:#D6DBD9;stroke:#040000;stroke-miterlimit:10;" d="M87.136,546.721l-8.508,0.076
			c-1.292,0.011-2.346-1.021-2.368-2.315l-0.043-4.509c-0.011-1.292,1.021-2.346,2.316-2.368l8.508-0.076
			c1.292-0.011,2.346,1.021,2.368,2.315l0.043,4.509C89.471,545.657,88.429,546.709,87.136,546.721z"/>
		<path style="fill:#D6DBD9;stroke:#040000;stroke-miterlimit:10;" d="M234.89,545.355l-8.508,0.076
			c-1.292,0.011-2.346-1.021-2.368-2.315l-0.043-4.509c-0.011-1.292,1.021-2.346,2.316-2.368l8.508-0.076
			c1.292-0.011,2.346,1.021,2.368,2.315l0.043,4.509C237.227,544.282,236.184,545.334,234.89,545.355z"/>
		<path style="fill:#D6DBD9;stroke:#040000;stroke-miterlimit:10;" d="M105.658,546.556l-8.508,0.076
			c-1.292,0.011-2.346-1.021-2.368-2.315l-0.043-4.509c-0.011-1.292,1.021-2.346,2.316-2.368l8.508-0.076
			c1.292-0.011,2.346,1.021,2.368,2.315l0.043,4.509C107.995,545.482,106.95,546.544,105.658,546.556z"/>
		<path style="fill:#D6DBD9;stroke:#040000;stroke-miterlimit:10;" d="M182.324,545.841l-8.508,0.076
			c-1.292,0.011-2.346-1.021-2.368-2.315l-0.043-4.509c-0.011-1.292,1.021-2.346,2.316-2.368l8.508-0.076
			c1.292-0.011,2.346,1.021,2.368,2.315l0.043,4.509C184.651,544.766,183.617,545.83,182.324,545.841z"/>
		<path style="fill:#D6DBD9;stroke:#040000;stroke-miterlimit:10;" d="M199.718,545.676l-8.508,0.076
			c-1.292,0.011-2.346-1.021-2.368-2.315l-0.043-4.509c-0.011-1.292,1.021-2.346,2.316-2.368l8.508-0.076
			c1.292-0.011,2.346,1.021,2.368,2.315l0.043,4.509C202.043,544.611,201.01,545.665,199.718,545.676z"/>
		<path style="fill:#D6DBD9;stroke:#040000;stroke-miterlimit:10;" d="M217.314,545.518l-8.508,0.076
			c-1.292,0.011-2.346-1.021-2.368-2.315l-0.043-4.509c-0.011-1.292,1.021-2.346,2.316-2.368l8.508-0.076
			c1.292-0.011,2.346,1.021,2.368,2.315l0.043,4.509C219.65,544.444,218.606,545.506,217.314,545.518z"/>
		<path style="fill:#D6DBD9;stroke:#040000;stroke-miterlimit:10;" d="M143.946,546.195l-8.508,0.076
			c-1.292,0.011-2.346-1.021-2.368-2.316l-0.043-4.509c-0.011-1.292,1.021-2.346,2.316-2.368l8.508-0.076
			c1.292-0.011,2.346,1.021,2.368,2.315l0.043,4.509C146.281,545.132,145.238,546.184,143.946,546.195z"/>
		<path style="fill:#D6DBD9;stroke:#040000;stroke-miterlimit:10;" d="M255.154,544.538l-8.508,0.076
			c-1.292,0.011-2.346-1.021-2.368-2.315l-0.043-4.509c-0.011-1.292,1.021-2.346,2.316-2.368l8.508-0.076
			c1.292-0.011,2.346,1.021,2.368,2.315l0.043,4.509C257.491,543.465,256.447,544.527,255.154,544.538z"/>
		<path style="fill:#D6DBD9;stroke:#040000;stroke-miterlimit:10;" d="M77.625,560.007l-17.321,0.157
			c-1.292,0.011-2.346-1.021-2.368-2.315l-0.043-4.509c-0.011-1.292,1.021-2.346,2.316-2.368l17.321-0.157
			c1.292-0.011,2.346,1.021,2.368,2.315l0.043,4.509C79.96,558.944,78.918,559.996,77.625,560.007z"/>
		<path style="fill:#D6DBD9;stroke:#040000;stroke-miterlimit:10;" d="M92.267,559.836l-4.509,0.043
			c-1.292,0.011-2.346-1.021-2.368-2.315l-0.043-4.509c-0.011-1.292,1.021-2.346,2.316-2.368l4.509-0.043
			c1.292-0.011,2.346,1.021,2.368,2.315l0.043,4.509C94.592,558.77,93.559,559.824,92.267,559.836z"/>
		<path style="fill:#D6DBD9;stroke:#040000;stroke-miterlimit:10;" d="M105.436,559.714l-4.509,0.043
			c-1.292,0.011-2.346-1.021-2.368-2.315l-0.043-4.509c-0.011-1.292,1.021-2.346,2.316-2.368l4.509-0.043
			c1.292-0.011,2.346,1.021,2.368,2.315l0.043,4.509C107.773,558.641,106.728,559.703,105.436,559.714z"/>
		<path style="fill:#D6DBD9;stroke:#040000;stroke-miterlimit:10;" d="M119.47,559.586l-4.509,0.043
			c-1.292,0.011-2.346-1.021-2.368-2.315l-0.043-4.509c-0.011-1.292,1.021-2.346,2.316-2.368l4.509-0.043
			c1.292-0.011,2.346,1.021,2.368,2.315l0.043,4.509C121.807,558.512,120.763,559.574,119.47,559.586z"/>
		<path style="fill:#D6DBD9;stroke:#040000;stroke-miterlimit:10;" d="M132.651,559.456l-4.509,0.043
			c-1.292,0.011-2.346-1.021-2.368-2.315l-0.043-4.509c-0.011-1.292,1.021-2.346,2.315-2.368l4.509-0.043
			c1.292-0.011,2.346,1.021,2.368,2.315l0.043,4.509C134.976,558.391,133.944,559.444,132.651,559.456L132.651,559.456z"/>
		<path style="fill:#D6DBD9;stroke:#040000;stroke-miterlimit:10;" d="M148.483,559.498l-4.509,0.043
			c-1.292,0.011-2.346-1.021-2.368-2.315l-0.043-4.509c-0.011-1.292,1.021-2.346,2.316-2.368l4.509-0.043
			c1.292-0.011,2.346,1.021,2.368,2.315l0.043,4.509C150.82,558.425,149.776,559.487,148.483,559.498z"/>
		<path style="fill:#D6DBD9;stroke:#040000;stroke-miterlimit:10;" d="M161.655,559.367l-4.509,0.043
			c-1.292,0.011-2.346-1.021-2.368-2.316l-0.043-4.509c-0.011-1.292,1.021-2.346,2.316-2.368l4.509-0.043
			c1.292-0.011,2.346,1.021,2.368,2.315l0.043,4.509C163.99,558.303,162.947,559.355,161.655,559.367z"/>
		<path style="fill:#D6DBD9;stroke:#040000;stroke-miterlimit:10;" d="M175.699,559.24l-4.509,0.043
			c-1.292,0.011-2.346-1.021-2.368-2.315l-0.043-4.509c-0.011-1.292,1.021-2.346,2.316-2.368l4.509-0.043
			c1.292-0.011,2.346,1.021,2.368,2.315l0.043,4.509C178.024,558.175,176.991,559.229,175.699,559.24z"/>
		<path style="fill:#D6DBD9;stroke:#040000;stroke-miterlimit:10;" d="M188.13,558.986l-4.509,0.043
			c-1.292,0.011-2.346-1.021-2.368-2.315l-0.043-4.509c-0.011-1.292,1.021-2.346,2.316-2.368l4.509-0.043
			c1.292-0.011,2.346,1.021,2.368,2.315l0.043,4.509C190.457,557.911,189.422,558.974,188.13,558.986z"/>
		<path style="fill:#D6DBD9;stroke:#040000;stroke-miterlimit:10;" d="M202.429,558.854l-4.509,0.043
			c-1.292,0.011-2.346-1.021-2.368-2.315l-0.043-4.509c-0.011-1.292,1.021-2.346,2.316-2.368l4.509-0.043
			c1.292-0.011,2.346,1.021,2.368,2.315l0.043,4.509C204.756,557.779,203.721,558.843,202.429,558.854z"/>
		<path style="fill:#D6DBD9;stroke:#040000;stroke-miterlimit:10;" d="M215.598,558.732l-4.509,0.043
			c-1.292,0.011-2.346-1.021-2.368-2.315l-0.043-4.509c-0.011-1.292,1.021-2.346,2.316-2.368l4.509-0.043
			c1.292-0.011,2.346,1.021,2.368,2.315l0.043,4.509C217.935,557.659,216.891,558.721,215.598,558.732z"/>
		<path style="fill:#D6DBD9;stroke:#040000;stroke-miterlimit:10;" d="M229.634,558.594l-4.509,0.043
			c-1.292,0.011-2.346-1.021-2.368-2.316l-0.043-4.509c-0.011-1.292,1.021-2.346,2.316-2.368l4.509-0.043
			c1.292-0.011,2.346,1.021,2.368,2.315l0.043,4.509C231.969,557.53,230.927,558.583,229.634,558.594z"/>
		<path style="fill:#D6DBD9;stroke:#040000;stroke-miterlimit:10;" d="M242.813,558.474l-4.509,0.043
			c-1.292,0.011-2.346-1.021-2.368-2.315l-0.043-4.509c-0.011-1.292,1.021-2.346,2.316-2.368l4.509-0.043
			c1.292-0.011,2.346,1.021,2.368,2.315l0.043,4.509C245.139,557.409,244.106,558.463,242.813,558.474z"/>
		<path style="fill:#D6DBD9;stroke:#040000;stroke-miterlimit:10;" d="M254.94,558.501l-4.509,0.043
			c-1.292,0.011-2.346-1.021-2.368-2.315l-0.043-4.509c-0.011-1.292,1.021-2.346,2.316-2.368l4.509-0.043
			c1.292-0.011,2.346,1.021,2.368,2.315l0.043,4.509C257.275,557.437,256.232,558.489,254.94,558.501z"/>
		<path style="fill:#D6DBD9;stroke:#040000;stroke-miterlimit:10;" d="M110.866,573.137l-4.509,0.043
			c-1.292,0.011-2.346-1.021-2.368-2.315l-0.043-4.509c-0.011-1.292,1.021-2.346,2.316-2.368l4.509-0.043
			c1.292-0.011,2.346,1.021,2.368,2.315l0.043,4.509C113.193,572.062,112.159,573.125,110.866,573.137z"/>
		<path style="fill:#D6DBD9;stroke:#040000;stroke-miterlimit:10;" d="M125.581,573.181l-4.509,0.043
			c-1.292,0.011-2.346-1.021-2.368-2.315l-0.043-4.509c-0.011-1.292,1.021-2.346,2.316-2.368l4.509-0.043
			c1.292-0.011,2.346,1.021,2.368,2.315l0.043,4.509C127.908,572.106,126.873,573.17,125.581,573.181z"/>
		<path style="fill:#D6DBD9;stroke:#040000;stroke-miterlimit:10;" d="M139.28,573.053l-4.509,0.043
			c-1.292,0.011-2.346-1.021-2.368-2.315l-0.043-4.509c-0.011-1.292,1.021-2.346,2.316-2.368l4.509-0.043
			c1.292-0.011,2.346,1.021,2.368,2.315l0.043,4.509C141.616,571.98,140.572,573.042,139.28,573.053z"/>
		<path style="fill:#D6DBD9;stroke:#040000;stroke-miterlimit:10;" d="M153.029,572.813l-4.509,0.043
			c-1.292,0.011-2.346-1.021-2.368-2.315l-0.043-4.509c-0.011-1.292,1.021-2.346,2.316-2.368l4.509-0.043
			c1.292-0.011,2.346,1.021,2.368,2.315l0.043,4.509C155.354,571.747,154.322,572.801,153.029,572.813z"/>
		<path style="fill:#D6DBD9;stroke:#040000;stroke-miterlimit:10;" d="M167.389,572.682l-4.509,0.043
			c-1.292,0.011-2.346-1.021-2.368-2.316l-0.043-4.509c-0.011-1.292,1.021-2.346,2.316-2.368l4.509-0.043
			c1.292-0.011,2.346,1.021,2.368,2.315l0.043,4.509C169.726,571.608,168.681,572.67,167.389,572.682z"/>
		<path style="fill:#D6DBD9;stroke:#040000;stroke-miterlimit:10;" d="M181.423,572.553l-4.509,0.043
			c-1.292,0.011-2.346-1.021-2.368-2.315l-0.043-4.509c-0.011-1.292,1.021-2.346,2.316-2.368l4.509-0.043
			c1.292-0.011,2.346,1.021,2.368,2.315l0.043,4.509C183.76,571.48,182.716,572.542,181.423,572.553z"/>
		<path style="fill:#D6DBD9;stroke:#040000;stroke-miterlimit:10;" d="M193.275,571.453l-4.509,0.043
			c-1.292,0.011-2.346-1.021-2.368-2.315l-0.043-4.509c-0.011-1.292,1.021-2.346,2.316-2.368l4.509-0.043
			c1.292-0.011,2.346,1.021,2.368,2.315l0.043,4.509C195.61,570.389,194.567,571.442,193.275,571.453z"/>
		<path style="fill:#D6DBD9;stroke:#040000;stroke-miterlimit:10;" d="M207.574,571.321l-4.509,0.043
			c-1.292,0.011-2.346-1.021-2.368-2.315l-0.043-4.509c-0.011-1.292,1.021-2.346,2.316-2.368l4.509-0.043
			c1.292-0.011,2.346,1.021,2.368,2.315l0.043,4.509C209.909,570.258,208.866,571.31,207.574,571.321z"/>
		<path style="fill:#D6DBD9;stroke:#040000;stroke-miterlimit:10;" d="M220.753,571.201l-4.509,0.043
			c-1.292,0.011-2.346-1.021-2.368-2.315l-0.043-4.509c-0.011-1.292,1.021-2.346,2.316-2.368l4.509-0.043
			c1.292-0.011,2.346,1.021,2.368,2.315l0.043,4.509C223.078,570.136,222.045,571.19,220.753,571.201z"/>
		<path style="fill:#D6DBD9;stroke:#040000;stroke-miterlimit:10;" d="M234.787,571.073l-4.509,0.043
			c-1.292,0.011-2.346-1.021-2.368-2.315l-0.043-4.509c-0.011-1.292,1.021-2.346,2.316-2.368l4.509-0.043
			c1.292-0.011,2.346,1.021,2.368,2.315l0.043,4.509C237.114,569.998,236.08,571.061,234.787,571.073z"/>
		<path style="fill:#D6DBD9;stroke:#040000;stroke-miterlimit:10;" d="M83.702,573.567l-23.265,0.216
			c-1.292,0.011-2.346-1.021-2.368-2.315l-0.043-4.509c-0.011-1.292,1.021-2.346,2.316-2.368l23.265-0.216
			c1.292-0.011,2.346,1.021,2.368,2.315l0.043,4.509C86.038,572.493,84.994,573.555,83.702,573.567z"/>
		<path style="fill:#D6DBD9;stroke:#040000;stroke-miterlimit:10;" d="M104.137,587.452l-4.509,0.043
			c-1.292,0.011-2.346-1.021-2.368-2.315l-0.043-4.509c-0.011-1.292,1.021-2.346,2.316-2.368l4.509-0.043
			c1.292-0.011,2.346,1.021,2.368,2.315l0.043,4.509C106.464,586.377,105.429,587.44,104.137,587.452z"/>
		<path style="fill:#D6DBD9;stroke:#040000;stroke-miterlimit:10;" d="M96.567,573.269l-4.509,0.043
			c-1.292,0.011-2.346-1.021-2.368-2.315l-0.043-4.509c-0.011-1.292,1.021-2.346,2.316-2.368l4.509-0.043
			c1.292-0.011,2.346,1.021,2.368,2.315l0.043,4.509C98.904,572.195,97.86,573.257,96.567,573.269z"/>
		<path style="fill:#D6DBD9;stroke:#040000;stroke-miterlimit:10;" d="M253.529,571.323l-11.143,0.1
			c-1.292,0.011-2.346-1.021-2.368-2.315l-0.043-4.509c-0.011-1.292,1.021-2.346,2.316-2.368l11.143-0.1
			c1.292-0.011,2.346,1.021,2.368,2.315l0.043,4.509C255.854,570.258,254.821,571.312,253.529,571.323L253.529,571.323z"/>
		<path style="fill:#D6DBD9;stroke:#040000;stroke-miterlimit:10;" d="M89.982,587.122L60.559,587.4
			c-1.292,0.011-2.346-1.021-2.368-2.315l-0.043-4.509c-0.011-1.292,1.021-2.346,2.316-2.368l29.423-0.278
			c1.292-0.011,2.346,1.021,2.368,2.315l0.043,4.509C92.309,586.047,91.274,587.11,89.982,587.122z"/>
		<path style="fill:#D6DBD9;stroke:#040000;stroke-miterlimit:10;" d="M118.296,586.858l-4.509,0.043
			c-1.292,0.011-2.346-1.021-2.368-2.315l-0.043-4.509c-0.011-1.292,1.021-2.346,2.316-2.368l4.509-0.043
			c1.292-0.011,2.346,1.021,2.368,2.315l0.043,4.509C120.632,585.785,119.588,586.847,118.296,586.858z"/>
		<path style="fill:#D6DBD9;stroke:#040000;stroke-miterlimit:10;" d="M133.719,586.746l-4.509,0.043
			c-1.292,0.011-2.346-1.021-2.368-2.315l-0.043-4.509c-0.011-1.292,1.021-2.346,2.316-2.368l4.509-0.043
			c1.292-0.011,2.346,1.021,2.368,2.315l0.043,4.509C136.054,585.682,135.011,586.734,133.719,586.746z"/>
		<path style="fill:#D6DBD9;stroke:#040000;stroke-miterlimit:10;" d="M147.418,586.618l-4.509,0.043
			c-1.292,0.011-2.346-1.021-2.368-2.315l-0.043-4.509c-0.011-1.292,1.021-2.346,2.316-2.368l4.509-0.043
			c1.292-0.011,2.346,1.021,2.368,2.315l0.043,4.509C149.753,585.554,148.71,586.606,147.418,586.618z"/>
		<path style="fill:#D6DBD9;stroke:#040000;stroke-miterlimit:10;" d="M161.166,586.387l-4.509,0.043
			c-1.292,0.011-2.346-1.021-2.368-2.315l-0.043-4.509c-0.011-1.292,1.021-2.346,2.316-2.368l4.509-0.043
			c1.292-0.011,2.346,1.021,2.368,2.315l0.043,4.509C163.492,585.312,162.458,586.375,161.166,586.387z"/>
		<path style="fill:#D6DBD9;stroke:#040000;stroke-miterlimit:10;" d="M175.525,586.256l-4.509,0.043
			c-1.292,0.011-2.346-1.021-2.368-2.315l-0.043-4.509c-0.011-1.292,1.021-2.346,2.316-2.368l4.509-0.043
			c1.292-0.011,2.346,1.021,2.368,2.315l0.043,4.509C177.862,585.182,176.82,586.234,175.525,586.256z"/>
		<path style="fill:#D6DBD9;stroke:#040000;stroke-miterlimit:10;" d="M189.571,586.119l-4.509,0.043
			c-1.292,0.011-2.346-1.021-2.368-2.315l-0.043-4.509c-0.011-1.292,1.021-2.346,2.316-2.368l4.509-0.043
			c1.292-0.011,2.346,1.021,2.368,2.315l0.043,4.509C191.896,585.054,190.864,586.108,189.571,586.119z"/>
		<path style="fill:#D6DBD9;stroke:#040000;stroke-miterlimit:10;" d="M201.411,585.027l-4.509,0.043
			c-1.292,0.011-2.346-1.021-2.368-2.315l-0.043-4.509c-0.011-1.292,1.021-2.346,2.315-2.368l4.509-0.043
			c1.292-0.011,2.346,1.021,2.368,2.315l0.043,4.509C203.746,583.963,202.704,585.016,201.411,585.027z"/>
		<path style="fill:#D6DBD9;stroke:#040000;stroke-miterlimit:10;" d="M215.71,584.895l-4.509,0.043
			c-1.292,0.011-2.346-1.021-2.368-2.315l-0.043-4.509c-0.011-1.292,1.021-2.346,2.316-2.368l4.509-0.043
			c1.292-0.011,2.346,1.021,2.368,2.315l0.043,4.509C218.047,583.822,217.003,584.884,215.71,584.895z"/>
		<path style="fill:#D6DBD9;stroke:#040000;stroke-miterlimit:10;" d="M228.889,584.776l-4.509,0.043
			c-1.292,0.011-2.346-1.021-2.368-2.315l-0.043-4.509c-0.011-1.292,1.021-2.346,2.316-2.368l4.509-0.043
			c1.292-0.011,2.346,1.021,2.368,2.315l0.043,4.509C231.216,583.7,230.182,584.764,228.889,584.776z"/>
		<path style="fill:#D6DBD9;stroke:#040000;stroke-miterlimit:10;" d="M255.162,583.261l-17.403,0.163
			c-1.292,0.011-2.346-1.021-2.368-2.315l-0.043-4.509c-0.011-1.292,1.021-2.346,2.316-2.368l17.403-0.163
			c1.292-0.011,2.346,1.021,2.368,2.315l0.043,4.509C257.487,582.195,256.454,583.249,255.162,583.261z"/>
		<path style="fill:#D6DBD9;stroke:#040000;stroke-miterlimit:10;" d="M63.886,600.028l-4.509,0.043
			c-1.292,0.011-2.346-1.021-2.368-2.315l-0.043-4.509c-0.011-1.292,1.021-2.346,2.316-2.368l4.509-0.043
			c1.292-0.011,2.346,1.021,2.368,2.315l0.043,4.509C66.222,598.964,65.189,600.018,63.886,600.028z"/>
		<path style="fill:#D6DBD9;stroke:#040000;stroke-miterlimit:10;" d="M77.066,599.908l-4.509,0.043
			c-1.292,0.011-2.346-1.021-2.368-2.315l-0.043-4.509c-0.011-1.292,1.021-2.346,2.316-2.368l4.509-0.043
			c1.292-0.011,2.346,1.021,2.368,2.315l0.043,4.509C79.391,598.843,78.358,599.897,77.066,599.908z"/>
		<path style="fill:#D6DBD9;stroke:#040000;stroke-miterlimit:10;" d="M91.1,599.78l-4.509,0.043
			c-1.292,0.011-2.346-1.021-2.368-2.315l-0.043-4.509c-0.011-1.292,1.021-2.346,2.316-2.368l4.509-0.043
			c1.292-0.011,2.346,1.021,2.368,2.315l0.043,4.509C93.437,598.706,92.392,599.768,91.1,599.78z"/>
		<path style="fill:#D6DBD9;stroke:#040000;stroke-miterlimit:10;" d="M104.279,599.66l-4.509,0.043
			c-1.292,0.011-2.346-1.021-2.368-2.315l-0.043-4.509c-0.011-1.292,1.021-2.346,2.316-2.368l4.509-0.043
			c1.292-0.011,2.346,1.021,2.368,2.315l0.043,4.509C106.606,598.585,105.571,599.648,104.279,599.66z"/>
		<path style="fill:#D6DBD9;stroke:#040000;stroke-miterlimit:10;" d="M120.113,599.692l-4.509,0.043
			c-1.292,0.011-2.346-1.021-2.368-2.315l-0.043-4.509c-0.011-1.292,1.021-2.346,2.315-2.368l4.509-0.043
			c1.292-0.011,2.346,1.021,2.368,2.315l0.043,4.509C122.44,598.617,121.406,599.681,120.113,599.692z"/>
		<path style="fill:#D6DBD9;stroke:#040000;stroke-miterlimit:10;" d="M174.049,599.046l-44.913,0.419
			c-1.292,0.011-2.346-1.021-2.368-2.315l-0.043-4.509c-0.011-1.292,1.021-2.346,2.316-2.368l44.913-0.419
			c1.292-0.011,2.346,1.021,2.368,2.316l0.043,4.509C176.384,597.983,175.341,599.035,174.049,599.046z"/>
		<path style="fill:#D6DBD9;stroke:#040000;stroke-miterlimit:10;" d="M187.228,598.927l-4.509,0.043
			c-1.292,0.011-2.346-1.021-2.368-2.315l-0.043-4.509c-0.011-1.292,1.021-2.346,2.316-2.368l4.509-0.043
			c1.292-0.011,2.346,1.021,2.368,2.315l0.043,4.509C189.555,597.851,188.52,598.915,187.228,598.927z"/>
		<path style="fill:#D6DBD9;stroke:#040000;stroke-miterlimit:10;" d="M201.262,598.798l-4.509,0.043
			c-1.292,0.011-2.346-1.021-2.368-2.315l-0.043-4.509c-0.011-1.292,1.021-2.346,2.316-2.368l4.509-0.043
			c1.292-0.011,2.346,1.021,2.368,2.315l0.043,4.509C203.599,597.724,202.554,598.786,201.262,598.798z"/>
		<path style="fill:#D6DBD9;stroke:#040000;stroke-miterlimit:10;" d="M214.441,598.678l-4.509,0.043
			c-1.292,0.011-2.346-1.021-2.368-2.315l-0.043-4.509c-0.011-1.292,1.021-2.346,2.316-2.368l4.509-0.043
			c1.292-0.011,2.346,1.021,2.368,2.315l0.043,4.509C216.768,597.603,215.735,598.657,214.441,598.678z"/>
		<path style="fill:#D6DBD9;stroke:#040000;stroke-miterlimit:10;" d="M226.568,598.705l-4.509,0.043
			c-1.292,0.011-2.346-1.021-2.368-2.315l-0.043-4.509c-0.011-1.292,1.021-2.346,2.316-2.368l4.509-0.043
			c1.292-0.011,2.346,1.021,2.368,2.315l0.043,4.509C228.905,597.631,227.86,598.693,226.568,598.705z"/>
		<path style="fill:#D6DBD9;stroke:#040000;stroke-miterlimit:10;" d="M240.867,597.953l-4.509,0.043
			c-1.292,0.011-2.346-1.021-2.368-2.315l-0.043-4.509c-0.011-1.292,1.021-2.346,2.316-2.368l4.509-0.043
			c1.292-0.011,2.346,1.021,2.368,2.315l0.043,4.509C243.202,596.889,242.159,597.941,240.867,597.953z"/>
		<path style="fill:#D6DBD9;stroke:#040000;stroke-miterlimit:10;" d="M254.911,597.826l-4.509,0.043
			c-1.292,0.011-2.346-1.021-2.368-2.315l-0.043-4.509c-0.011-1.292,1.021-2.346,2.316-2.368l4.509-0.043
			c1.292-0.011,2.346,1.021,2.368,2.315l0.043,4.509C257.236,596.761,256.203,597.815,254.911,597.826z"/>
	</g>
	<path style="fill:#D6DBD9;stroke:#040000;stroke-miterlimit:10;" d="M277.453,558.118l-4.509,0.043
		c-1.292,0.011-2.346-1.021-2.368-2.315l-0.043-4.509c-0.011-1.292,1.021-2.346,2.315-2.368l4.509-0.043
		c1.292-0.011,2.346,1.021,2.368,2.315l0.043,4.509C279.79,557.045,278.747,558.097,277.453,558.118z"/>
	<path style="fill:#D6DBD9;stroke:#040000;stroke-miterlimit:10;" d="M304.454,557.862l-4.509,0.043
		c-1.292,0.011-2.346-1.021-2.368-2.315l-0.043-4.509c-0.011-1.292,1.021-2.346,2.315-2.368l4.509-0.043
		c1.292-0.011,2.346,1.021,2.368,2.315l0.043,4.509C306.791,556.789,305.747,557.851,304.454,557.862z"/>
	<path style="fill:#D6DBD9;stroke:#040000;stroke-miterlimit:10;" d="M290.724,557.995l-4.509,0.043
		c-1.292,0.011-2.346-1.021-2.368-2.315l-0.043-4.509c-0.011-1.292,1.021-2.346,2.315-2.368l4.509-0.043
		c1.292-0.011,2.346,1.021,2.368,2.315l0.043,4.509C293.051,556.92,292.017,557.983,290.724,557.995z"/>
	<path style="fill:#D6DBD9;stroke:#040000;stroke-miterlimit:10;" d="M277.577,571.105l-4.509,0.043
		c-1.292,0.011-2.346-1.021-2.368-2.315l-0.043-4.509c-0.011-1.292,1.021-2.346,2.315-2.368l4.509-0.043
		c1.292-0.011,2.346,1.021,2.368,2.315l0.043,4.509C279.904,570.03,278.869,571.094,277.577,571.105z"/>
	<path style="fill:#D6DBD9;stroke:#040000;stroke-miterlimit:10;" d="M290.844,570.554l-4.509,0.043
		c-1.292,0.011-2.346-1.021-2.368-2.315l-0.043-4.509c-0.011-1.292,1.021-2.346,2.315-2.368l4.509-0.043
		c1.292-0.011,2.346,1.021,2.368,2.315l0.043,4.509C293.171,569.479,292.136,570.543,290.844,570.554z"/>
	<path style="fill:#D6DBD9;stroke:#040000;stroke-miterlimit:10;" d="M304.574,570.422l-4.509,0.043
		c-1.292,0.011-2.346-1.021-2.368-2.315l-0.043-4.509c-0.011-1.292,1.021-2.346,2.315-2.368l4.509-0.043
		c1.292-0.011,2.346,1.021,2.368,2.315l0.043,4.509C306.909,569.358,305.866,570.41,304.574,570.422z"/>
	<path style="fill:#D6DBD9;stroke:#040000;stroke-miterlimit:10;" d="M277.768,583.942l-4.509,0.043
		c-1.292,0.011-2.346-1.021-2.368-2.315l-0.043-4.509c-0.011-1.292,1.021-2.346,2.315-2.368l4.509-0.043
		c1.292-0.011,2.346,1.021,2.368,2.315l0.043,4.509C280.094,582.876,279.061,583.93,277.768,583.942z"/>
	<path style="fill:#D6DBD9;stroke:#040000;stroke-miterlimit:10;" d="M290.951,582.614l-4.509,0.043
		c-1.292,0.011-2.346-1.021-2.368-2.315l-0.043-4.509c-0.011-1.292,1.021-2.346,2.315-2.368l4.509-0.043
		c1.292-0.011,2.346,1.021,2.368,2.315l0.043,4.509C293.286,581.55,292.244,582.602,290.951,582.614z"/>
	<path style="fill:#D6DBD9;stroke:#040000;stroke-miterlimit:10;" d="M305.153,582.8l-4.509,0.043
		c-1.292,0.011-2.346-1.021-2.368-2.315l-0.043-4.509c-0.011-1.292,1.021-2.346,2.315-2.368l4.509-0.043
		c1.292-0.011,2.346,1.021,2.368,2.315l0.043,4.509C307.489,581.726,306.445,582.788,305.153,582.8z"/>
	<path style="fill:#D6DBD9;stroke:#040000;stroke-miterlimit:10;" d="M293.863,595.919l-20.496,0.186
		c-1.292,0.011-2.346-1.021-2.368-2.315l-0.043-4.509c-0.011-1.292,1.021-2.346,2.315-2.368l20.496-0.186
		c1.292-0.011,2.346,1.021,2.368,2.315l0.043,4.509C296.198,594.855,295.155,595.907,293.863,595.919L293.863,595.919z"/>
	<path style="fill:#D6DBD9;stroke:#040000;stroke-miterlimit:10;" d="M305.272,595.643l-4.509,0.043
		c-1.292,0.011-2.346-1.021-2.368-2.315l-0.043-4.509c-0.011-1.292,1.021-2.346,2.315-2.368l4.509-0.043
		c1.292-0.011,2.346,1.021,2.368,2.315l0.043,4.509C307.609,594.57,306.564,595.632,305.272,595.643z"/>
</g>
<path style="opacity:0.43;fill:#5A5742;enable-background:new    ;" d="M87.414,505.295c-4.264-0.412-9.71,10.116-11.563,14.98
	c-1.525,3.986-2.308,8.548-2.573,10.331c-0.184,1.171-0.523,3.659-0.631,6.841c-0.175,5.287,0.368,8.08,1.248,14.598
	c1.183,8.76,1.232,14.35,4.045,21.753c0.6,1.591,1.582,3.926,3.581,4.488c2.55,0.709,5.29-1.877,6.294-2.777
	C97.618,566.695,97.369,506.244,87.414,505.295L87.414,505.295z"/>
<path style="fill:#E7DFB1;stroke:#040000;stroke-width:6;stroke-miterlimit:10;" d="M126.596,471.592
	c5.363,1.584,8.662,2.606,10.723,5.617c0.684,0.998,1.637,2.807,1.787,6.128c0.334,7.356-3.697,12.745-8.17,20.17
	c-3.118,5.175-6.233,11.607-12.462,24.472c-3.321,6.857-3.528,7.926-7.296,15.706c-3.868,7.987-6.897,13.658-11.712,23.4
	c-0.375,1.03-1.48,4.121-4.42,6.425c-18.768,13.009-14.6-40.008-13.638-45.52c0.404-2.738,0.818-4.83,1.292-6.724
	c1.335-5.33,2.514-8.203,4.216-13.262c1.298-3.86,2.098-6.812,3.699-12.715c2.942-10.852,3.01-13.258,5.598-16.548
	c2.491-3.166,5.555-4.913,7.66-5.872c2.998-1.514,7.703-3.283,13.488-3.12C120.67,469.843,123.001,470.531,126.596,471.592z"/>
<rect x="200.275" y="412.794" transform="matrix(0.8837 -0.4681 0.4681 0.8837 -169.5834 151.3222)" style="fill:#595850;stroke:#040000;stroke-width:3.0005;stroke-miterlimit:10.001;" width="38.815" height="8.17"/>
<circle style="fill:#231815;stroke:#040000;stroke-width:6;stroke-miterlimit:10;" cx="223.972" cy="445.267" r="12.13"/>
<circle style="fill:#FFFFFF;" cx="221.97" cy="451.097" r="5.83"/>
</svg>
