<svg width="2446" height="1266" xmlns="http://www.w3.org/2000/svg" xmlns:xlink="http://www.w3.org/1999/xlink" xml:space="preserve" overflow="hidden"><defs><clipPath id="clip0"><rect x="43" y="1148" width="2446" height="1266"/></clipPath></defs><g clip-path="url(#clip0)" transform="translate(-43 -1148)"><path d="M1190 1815 2489 1815 2489 1835 1190 1835Z" fill="#F08110" fill-rule="evenodd"/><path d="M1190 1819 2489 1819 2489 1831 1190 1831Z" fill="#D71427" fill-rule="evenodd"/><path d="M1182.71 1838.5 1083.29 1838.5C1078.99 1838.5 1075.5 1835.07 1075.5 1830.85L1075.5 1820.15C1075.5 1815.93 1078.99 1812.5 1083.29 1812.5L1182.71 1812.5C1187.01 1812.5 1190.5 1815.93 1190.5 1820.15L1190.5 1830.85C1190.5 1835.07 1187.01 1838.5 1182.71 1838.5Z" stroke="#000000" stroke-width="6.875" stroke-miterlimit="8" fill="#CBC49C" fill-rule="evenodd"/><path d="M1074.28 1847.5 1067.72 1847.5C1064.29 1847.5 1061.5 1844.7 1061.5 1841.24L1061.5 1809.76C1061.5 1806.3 1064.29 1803.5 1067.72 1803.5L1074.28 1803.5C1077.71 1803.5 1080.5 1806.3 1080.5 1809.76L1080.5 1841.24C1080.5 1844.7 1077.71 1847.5 1074.28 1847.5Z" stroke="#000000" stroke-width="6.875" stroke-miterlimit="8" fill="#CBC49C" fill-rule="evenodd"/><path d="M1055.09 1856.5 1043.91 1856.5C1038.71 1856.5 1034.5 1852.24 1034.5 1846.98L1034.5 1801.02C1034.5 1795.76 1038.71 1791.5 1043.91 1791.5L1055.09 1791.5C1060.29 1791.5 1064.5 1795.76 1064.5 1801.02L1064.5 1846.98C1064.5 1852.24 1060.29 1856.5 1055.09 1856.5Z" stroke="#000000" stroke-width="6.875" stroke-miterlimit="8" fill="#CBC49C" fill-rule="evenodd"/><path d="M347.5 2199.5C349.731 2204.01 351.55 2207.9 352.889 2210.9 357.591 2221.47 360.44 2229.7 361.538 2232.9 364.421 2241.26 364.524 2242.88 370.29 2262.78 379.558 2294.73 380.312 2294.05 382.543 2304.99 385.633 2320.04 384.054 2320.42 387.795 2341.9 391.261 2361.77 393.115 2371.82 398.297 2378.81 399.636 2380.6 412.885 2397.92 431.591 2396.41 443.878 2395.41 452.047 2386.77 457.882 2380.57 461.417 2376.85 464.163 2373.03 477.171 2345.42 484.687 2329.47 488.497 2321.31 491.209 2313.77 492.65 2309.78 493.611 2306.58 494.332 2303.79 497.284 2292.53 499.172 2285.27 499.961 2282.13 501.78 2274.9 506.139 2264.64 517.5 2252.25 460.833 2234.65 404.167 2217.09 347.5 2199.5L347.5 2199.5Z" stroke="#000000" stroke-width="20.625" stroke-miterlimit="8" fill="#EBE2B3" fill-rule="evenodd"/><path d="M704.5 2243.1C712.064 2260.46 719.628 2280.2 726.508 2302.17 733.285 2323.88 738.283 2344.2 741.979 2362.7 760.941 2409.72 810.879 2398.15 816.869 2348.64 823.817 2326.87 830.526 2303.66 836.721 2279.06 842.3 2256.91 847.024 2235.55 850.994 2215.16 851.507 2204.93 851.986 2194.7 852.5 2184.5L704.568 2243.1 704.5 2243.1Z" stroke="#000000" stroke-width="20.625" stroke-miterlimit="8" fill="#EBE2B3" fill-rule="evenodd"/><path d="M142.769 1786.54C140.364 1776.88 137.58 1762.28 137.511 1744.41 137.442 1725.4 140.535 1720.18 141.016 1704.06 141.979 1672.13 130.534 1670.31 130.5 1642.64 130.5 1609.79 146.515 1584.01 151.567 1575.97 163.046 1557.58 167.617 1560.19 181.398 1539.12 194.217 1519.53 200.128 1502.21 205.97 1484.72 216.109 1454.37 213.703 1448.29 221.779 1419.8 227.484 1399.66 234.735 1373.98 251.61 1347.83 262.607 1330.78 281.166 1314.25 318.282 1281.16 342.133 1259.88 359.316 1246.17 372.685 1235.51 413.444 1203.07 426.848 1196.13 432.346 1193.38 451.626 1183.82 468.982 1175.2 492.008 1175.82 503.589 1176.13 521.838 1177.26 541.462 1177.09 544.246 1177.05 550.535 1177.09 558.714 1176.57 562.22 1176.33 568.096 1175.89 575.176 1174.92 587.204 1173.31 596.243 1171.18 599.027 1170.52 639.168 1161.24 659.444 1155.64 678.003 1160.01 700.307 1165.23 715.291 1178.15 728.9 1189.84 737.526 1197.26 749.383 1212.45 772.787 1242.49 798.803 1275.93 804.817 1284.9 820.179 1296.9 835.541 1308.89 837.466 1306.07 848.257 1316.21 862.623 1329.68 868.018 1342.92 881.593 1374.12 907.541 1433.79 905.41 1425.98 907.918 1433.79 910.462 1441.79 911.905 1449.66 915.17 1465.34 919.294 1485.17 920.497 1494.72 925.48 1523.31 929.363 1545.52 931.185 1556.65 932.491 1561.91 941.289 1597.55 954.52 1621.75 958.816 1630.34 978.921 1670.48 976.893 1717.94 972.872 1812.87 970.432 1870.43 969.092 1901.71 955.311 1942.75 948.197 1963.92 944.932 1966.36 927.233 2014.71 912.249 2055.61 909.774 2067.02 897.402 2095.44 883.655 2127.06 876.782 2142.87 862.313 2160.36 856.196 2167.79 841.933 2183.74 804.405 2206.01 773.199 2224.53 738.076 2245.36 686.835 2255.15 612.946 2269.28 551.222 2251.75 527.131 2244.64 512.112 2240.2 507.026 2237.52 477.986 2228.83 428.601 2214.05 414.854 2213.26 384.988 2204.25 367.118 2198.86 358.148 2196.35 346.979 2192.05 335.74 2187.72 310.275 2177.72 284.946 2160.36 241.884 2130.91 218.205 2093.42 209.476 2077.88 202.602 2065.61 193.186 2037.53 174.387 1981.34 161.98 1944.26 155.691 1925.46 153.32 1912.91 148.715 1888.61 147.306 1865.45 144.556 1819.91 143.663 1805.79 143.113 1794.21 142.769 1786.54Z" stroke="#000000" stroke-width="20.625" stroke-miterlimit="8" fill="#EBE2B3" fill-rule="evenodd"/><path d="M387.641 1313.65 400.787 1288.83 518.69 1351.29 505.544 1376.1Z" stroke="#000000" stroke-width="10.3139" stroke-miterlimit="8" fill="#595850" fill-rule="evenodd"/><path d="M641.583 1349.41 761.808 1291.55 773.988 1316.85 653.763 1374.72Z" stroke="#000000" stroke-width="10.3139" stroke-miterlimit="8" fill="#595850" fill-rule="evenodd"/><path d="M842 2405C842 2409.97 737.234 2414 608 2414 478.765 2414 374 2409.97 374 2405 374 2400.03 478.765 2396 608 2396 737.234 2396 842 2400.03 842 2405Z" fill="#5B5742" fill-rule="evenodd" fill-opacity="0.470588"/><path d="M664 1572C664 1584.15 630.198 1594 588.5 1594 546.803 1594 513 1584.15 513 1572 513 1559.85 546.803 1550 588.5 1550 630.198 1550 664 1559.85 664 1572Z" stroke="#000000" stroke-width="10.3125" stroke-miterlimit="8" fill="#E73A8F" fill-rule="evenodd"/><path d="M374.443 1384.39C361.047 1394.48 368.857 1429.46 382.452 1451.35 387.313 1459.18 398.06 1476.49 420.114 1483.05 439.028 1488.68 455.07 1483.08 459.638 1481.3 483.134 1472.16 504.776 1446.62 499.774 1428.12 497.521 1419.78 491.081 1417.39 417.469 1392.3 392.906 1383.92 380.501 1379.83 374.443 1384.39Z" stroke="#000000" stroke-width="20.625" stroke-miterlimit="8" fill="#231815" fill-rule="evenodd"/><path d="M747.325 1803.68C754.934 1816.32 795.218 1809.77 812.468 1804.92 826.619 1800.95 840.839 1793.76 846.314 1790.83 849.929 1788.93 857.503 1784.77 866.524 1778.53 881.502 1768.17 888.112 1760.93 904.329 1745.12 926.124 1723.87 941.48 1712.26 956.182 1689.29 959.349 1684.37 963.791 1676.86 961.243 1670.18 957.972 1661.67 945.199 1659.4 940.654 1658.47 896.169 1649.44 729.525 1774.19 747.325 1803.68L747.325 1803.68Z" fill="#5B5742" fill-rule="evenodd" fill-opacity="0.431373"/><path d="M464 1457C464 1468.05 455.046 1477 444 1477 432.954 1477 424 1468.05 424 1457 424 1445.95 432.954 1437 444 1437 455.046 1437 464 1445.95 464 1457Z" fill="#FFFFFF" fill-rule="evenodd"/><path d="M777.557 1384.39C790.953 1394.48 783.144 1429.46 769.548 1451.35 764.688 1459.18 753.941 1476.49 731.886 1483.05 712.972 1488.68 696.931 1483.08 692.362 1481.3 668.866 1472.16 647.224 1446.62 652.226 1428.12 654.479 1419.78 660.919 1417.39 734.531 1392.3 759.094 1383.92 771.499 1379.83 777.557 1384.39Z" stroke="#000000" stroke-width="20.625" stroke-miterlimit="8" fill="#231815" fill-rule="evenodd"/><path d="M738 1457C738 1468.05 729.046 1477 718 1477 706.955 1477 698 1468.05 698 1457 698 1445.95 706.955 1437 718 1437 729.046 1437 738 1445.95 738 1457Z" fill="#FFFFFF" fill-rule="evenodd"/><path d="M913.067 1464.52C910.24 1464.77 912.259 1468.93 893.684 1496.8 893.684 1496.8 885.16 1512.56 878.779 1524 871.464 1537.11 865.883 1546.41 857.734 1559.96 838.289 1592.31 838.347 1590.42 831.428 1602.95 827.244 1610.53 823.515 1617.94 809.506 1650.32 787.043 1702.25 780.095 1704.57 783.2 1712.6 792.112 1735.65 852.184 1743.94 893.68 1720.5 901.661 1715.98 907.733 1710.11 919.987 1698.57 955.906 1664.71 963.804 1656.66 966.023 1645.7 967.005 1640.85 966.703 1638.06 962.905 1616.42 956.555 1580.27 953.381 1562.19 951.555 1554.7 948.56 1542.44 929.184 1463.09 913.067 1464.52Z" stroke="#000000" stroke-width="20.625" stroke-miterlimit="8" fill="#EBE2B3" fill-rule="evenodd"/><path d="M1002.56 2023.17 90.0904 2036.5C72.1508 2036.75 57.4145 2022.41 57.15 2004.49L53.5034 1755.81C53.2458 1737.85 67.5733 1723.1 85.4782 1722.84L997.909 1709.5C1015.85 1709.25 1030.58 1723.59 1030.85 1741.51L1034.5 1990.19C1034.79 2008.12 1020.46 2022.9 1002.56 2023.17Z" stroke="#000000" stroke-width="20.625" stroke-miterlimit="8" fill="#A6A897" fill-rule="evenodd"/><path d="M329.509 1795.08 299.991 1795.5C295.509 1795.56 291.83 1792.03 291.733 1787.59L291.501 1772.09C291.438 1767.66 295.002 1764.01 299.492 1763.92L329.009 1763.5C333.492 1763.44 337.17 1766.97 337.267 1771.41L337.5 1786.91C337.555 1791.38 333.992 1795.02 329.509 1795.08Z" stroke="#000000" stroke-width="3.4375" stroke-miterlimit="8" fill="#D6DBD9" fill-rule="evenodd"/><path d="M468.508 1793.08 438.991 1793.5C434.508 1793.56 430.83 1790.03 430.733 1785.59L430.501 1770.1C430.438 1765.66 434.002 1762.01 438.491 1761.92L468.009 1761.5C472.492 1761.44 476.17 1764.97 476.267 1769.41L476.499 1784.91C476.562 1789.34 472.995 1793.02 468.508 1793.08Z" stroke="#000000" stroke-width="3.4375" stroke-miterlimit="8" fill="#D6DBD9" fill-rule="evenodd"/><path d="M141.508 1798.08 111.991 1798.5C107.508 1798.56 103.83 1795.03 103.733 1790.59L103.501 1775.09C103.438 1770.66 107.002 1767.01 111.491 1766.92L141.008 1766.5C145.491 1766.44 149.169 1769.97 149.266 1774.41L149.498 1789.91C149.595 1794.35 145.99 1798.02 141.508 1798.08Z" stroke="#000000" stroke-width="3.4375" stroke-miterlimit="8" fill="#D6DBD9" fill-rule="evenodd"/><path d="M203.508 1797.08 173.991 1797.5C169.508 1797.56 165.83 1794.03 165.733 1789.59L165.501 1774.09C165.438 1769.66 169.002 1766.01 173.491 1765.92L203.008 1765.5C207.491 1765.44 211.169 1768.97 211.266 1773.41L211.498 1788.91C211.589 1793.39 207.99 1797.02 203.508 1797.08Z" stroke="#000000" stroke-width="3.4375" stroke-miterlimit="8" fill="#D6DBD9" fill-rule="evenodd"/><path d="M711.508 1790.08 681.991 1790.5C677.508 1790.56 673.83 1787.03 673.733 1782.59L673.501 1767.09C673.438 1762.66 677.002 1759.01 681.491 1758.92L711.008 1758.5C715.491 1758.44 719.168 1761.97 719.266 1766.41L719.498 1781.91C719.595 1786.35 715.997 1789.99 711.508 1790.08Z" stroke="#000000" stroke-width="3.4375" stroke-miterlimit="8" fill="#D6DBD9" fill-rule="evenodd"/><path d="M267.507 1796.08 237.991 1796.5C233.509 1796.56 229.831 1793.03 229.733 1788.59L229.501 1773.09C229.439 1768.66 233.002 1765.01 237.491 1764.92L267.008 1764.5C271.491 1764.44 275.168 1767.97 275.266 1772.41L275.498 1787.91C275.595 1792.35 271.99 1796.02 267.507 1796.08Z" stroke="#000000" stroke-width="3.4375" stroke-miterlimit="8" fill="#D6DBD9" fill-rule="evenodd"/><path d="M530.682 1792.08 501.807 1792.5C497.422 1792.56 493.823 1789.03 493.728 1784.59L493.501 1769.09C493.44 1764.66 496.926 1761.01 501.318 1760.92L530.193 1760.5C534.579 1760.44 538.177 1763.97 538.272 1768.41L538.499 1783.91C538.564 1788.35 535.071 1792.02 530.682 1792.08Z" stroke="#000000" stroke-width="3.4375" stroke-miterlimit="8" fill="#D6DBD9" fill-rule="evenodd"/><path d="M590.508 1791.08 560.991 1791.5C556.508 1791.56 552.83 1788.03 552.733 1783.59L552.501 1768.09C552.438 1763.66 556.002 1760.01 560.491 1759.92L590.009 1759.5C594.492 1759.44 598.17 1762.97 598.267 1767.41L598.499 1782.91C598.558 1787.38 594.991 1791.02 590.508 1791.08Z" stroke="#000000" stroke-width="3.4375" stroke-miterlimit="8" fill="#D6DBD9" fill-rule="evenodd"/><path d="M650.681 1791.08 621.807 1791.5C617.421 1791.56 613.823 1788.03 613.728 1783.59L613.501 1768.1C613.44 1763.66 616.926 1760.01 621.318 1759.92L650.193 1759.5C654.578 1759.44 658.176 1762.97 658.271 1767.41L658.498 1782.91C658.594 1787.35 655.067 1791.02 650.681 1791.08Z" stroke="#000000" stroke-width="3.4375" stroke-miterlimit="8" fill="#D6DBD9" fill-rule="evenodd"/><path d="M398.682 1794.08 369.807 1794.5C365.421 1794.56 361.823 1791.03 361.728 1786.59L361.501 1771.1C361.44 1766.66 364.926 1763.01 369.318 1762.92L398.193 1762.5C402.578 1762.44 406.176 1765.97 406.271 1770.41L406.499 1785.91C406.587 1790.39 403.067 1794.02 398.682 1794.08Z" stroke="#000000" stroke-width="3.4375" stroke-miterlimit="8" fill="#D6DBD9" fill-rule="evenodd"/><path d="M780.681 1787.08 751.807 1787.5C747.421 1787.56 743.823 1784.03 743.728 1779.59L743.501 1764.09C743.44 1759.66 746.926 1756.01 751.318 1755.92L780.193 1755.5C784.578 1755.44 788.176 1758.97 788.271 1763.41L788.498 1778.91C788.597 1783.35 785.07 1787.02 780.681 1787.08Z" stroke="#000000" stroke-width="3.4375" stroke-miterlimit="8" fill="#D6DBD9" fill-rule="evenodd"/><path d="M171.568 1842.65 111.927 1843.5C107.478 1843.56 103.828 1840.08 103.731 1835.69L103.501 1820.41C103.439 1816.03 106.975 1812.44 111.431 1812.34L171.072 1811.5C175.521 1811.44 179.171 1814.92 179.268 1819.31L179.498 1834.59C179.591 1839 176.021 1842.59 171.568 1842.65Z" stroke="#000000" stroke-width="3.4375" stroke-miterlimit="8" fill="#D6DBD9" fill-rule="evenodd"/><path d="M221.54 1842.27 205.959 1842.5C201.493 1842.56 197.829 1839.01 197.732 1834.54L197.501 1818.96C197.439 1814.49 200.988 1810.83 205.461 1810.73L221.042 1810.5C225.507 1810.44 229.171 1813.99 229.268 1818.46L229.5 1834.04C229.555 1838.54 226.005 1842.2 221.54 1842.27Z" stroke="#000000" stroke-width="3.4375" stroke-miterlimit="8" fill="#D6DBD9" fill-rule="evenodd"/><path d="M266.539 1841.27 250.958 1841.5C246.493 1841.56 242.829 1838.01 242.732 1833.54L242.501 1817.96C242.439 1813.49 245.988 1809.83 250.46 1809.73L266.041 1809.5C270.507 1809.44 274.17 1812.99 274.267 1817.46L274.499 1833.04C274.595 1837.51 271.004 1841.21 266.539 1841.27Z" stroke="#000000" stroke-width="3.4375" stroke-miterlimit="8" fill="#D6DBD9" fill-rule="evenodd"/><path d="M314.788 1841.27 299.694 1841.5C295.368 1841.56 291.819 1838.01 291.725 1833.54L291.501 1817.96C291.441 1813.49 294.879 1809.83 299.212 1809.73L314.305 1809.5C318.631 1809.44 322.18 1812.99 322.274 1817.46L322.499 1833.04C322.592 1837.51 319.117 1841.21 314.788 1841.27Z" stroke="#000000" stroke-width="3.4375" stroke-miterlimit="8" fill="#D6DBD9" fill-rule="evenodd"/><path d="M360.54 1840.27 344.958 1840.5C340.493 1840.56 336.829 1837.01 336.732 1832.54L336.501 1816.96C336.439 1812.49 339.988 1808.83 344.461 1808.73L360.042 1808.5C364.507 1808.44 368.171 1811.99 368.268 1816.46L368.5 1832.04C368.558 1836.55 365.008 1840.21 360.54 1840.27L360.54 1840.27Z" stroke="#000000" stroke-width="3.4375" stroke-miterlimit="8" fill="#D6DBD9" fill-rule="evenodd"/><path d="M414.539 1840.27 398.958 1840.5C394.493 1840.56 390.829 1837.01 390.732 1832.54L390.501 1816.96C390.439 1812.49 393.988 1808.83 398.46 1808.73L414.041 1808.5C418.506 1808.44 422.17 1811.99 422.267 1816.46L422.499 1832.04C422.595 1836.51 419.004 1840.21 414.539 1840.27Z" stroke="#000000" stroke-width="3.4375" stroke-miterlimit="8" fill="#D6DBD9" fill-rule="evenodd"/><path d="M459.788 1839.27 444.694 1839.5C440.368 1839.56 436.819 1836.01 436.725 1831.54L436.501 1815.96C436.441 1811.49 439.879 1807.83 444.212 1807.73L459.305 1807.5C463.631 1807.44 467.18 1810.99 467.274 1815.46L467.499 1831.04C467.585 1835.55 464.113 1839.2 459.788 1839.27Z" stroke="#000000" stroke-width="3.4375" stroke-miterlimit="8" fill="#D6DBD9" fill-rule="evenodd"/><path d="M508.54 1838.28 492.958 1838.5C488.493 1838.56 484.829 1835.12 484.732 1830.79L484.501 1815.69C484.439 1811.37 487.988 1807.82 492.461 1807.73L508.042 1807.5C512.508 1807.44 516.171 1810.88 516.268 1815.21L516.5 1830.31C516.559 1834.67 513.009 1838.21 508.54 1838.28Z" stroke="#000000" stroke-width="3.4375" stroke-miterlimit="8" fill="#D6DBD9" fill-rule="evenodd"/><path d="M550.789 1837.27 535.694 1837.5C531.368 1837.56 527.819 1834.01 527.725 1829.54L527.501 1813.96C527.441 1809.49 530.879 1805.83 535.212 1805.73L550.306 1805.5C554.632 1805.44 558.182 1808.99 558.275 1813.46L558.5 1829.04C558.56 1833.51 555.115 1837.21 550.789 1837.27Z" stroke="#000000" stroke-width="3.4375" stroke-miterlimit="8" fill="#D6DBD9" fill-rule="evenodd"/><path d="M600.539 1837.27 584.958 1837.5C580.493 1837.56 576.829 1834.01 576.732 1829.54L576.501 1813.96C576.439 1809.49 579.988 1805.83 584.461 1805.73L600.042 1805.5C604.507 1805.44 608.171 1808.99 608.268 1813.46L608.5 1829.04C608.562 1833.51 605.005 1837.21 600.539 1837.27Z" stroke="#000000" stroke-width="3.4375" stroke-miterlimit="8" fill="#D6DBD9" fill-rule="evenodd"/><path d="M645.539 1836.27 629.958 1836.5C625.493 1836.56 621.829 1833.01 621.732 1828.54L621.501 1812.96C621.439 1808.49 624.988 1804.83 629.46 1804.73L645.041 1804.5C649.506 1804.44 653.17 1807.99 653.266 1812.46L653.498 1828.04C653.598 1832.51 650.007 1836.2 645.539 1836.27Z" stroke="#000000" stroke-width="3.4375" stroke-miterlimit="8" fill="#D6DBD9" fill-rule="evenodd"/><path d="M693.539 1835.27 677.958 1835.5C673.493 1835.56 669.829 1832.01 669.732 1827.54L669.501 1811.96C669.439 1807.49 672.988 1803.83 677.46 1803.73L693.041 1803.5C697.506 1803.44 701.17 1806.99 701.267 1811.46L701.499 1827.04C701.588 1831.55 698.004 1835.21 693.539 1835.27Z" stroke="#000000" stroke-width="3.4375" stroke-miterlimit="8" fill="#D6DBD9" fill-rule="evenodd"/><path d="M738.789 1835.27 723.694 1835.5C719.368 1835.56 715.819 1832.01 715.725 1827.54L715.501 1811.96C715.44 1807.49 718.879 1803.83 723.212 1803.73L738.306 1803.5C742.632 1803.44 746.182 1806.99 746.276 1811.46L746.5 1827.04C746.553 1831.54 743.115 1835.2 738.789 1835.27Z" stroke="#000000" stroke-width="3.4375" stroke-miterlimit="8" fill="#D6DBD9" fill-rule="evenodd"/><path d="M780.539 1834.28 764.958 1834.5C760.493 1834.56 756.829 1831.12 756.732 1826.79L756.501 1811.69C756.439 1807.37 759.988 1803.82 764.46 1803.73L780.041 1803.5C784.506 1803.44 788.17 1806.88 788.267 1811.21L788.499 1826.31C788.588 1830.68 785.004 1834.21 780.539 1834.28Z" stroke="#000000" stroke-width="3.4375" stroke-miterlimit="8" fill="#D6DBD9" fill-rule="evenodd"/><path d="M285.54 1887.28 269.959 1887.5C265.493 1887.56 261.829 1884.12 261.732 1879.79L261.501 1864.69C261.439 1860.37 264.988 1856.82 269.461 1856.73L285.042 1856.5C289.507 1856.44 293.171 1859.88 293.268 1864.21L293.5 1879.31C293.562 1883.63 290.005 1887.21 285.54 1887.28Z" stroke="#000000" stroke-width="3.4375" stroke-miterlimit="8" fill="#D6DBD9" fill-rule="evenodd"/><path d="M336.54 1887.27 320.958 1887.5C316.493 1887.56 312.829 1884.01 312.732 1879.54L312.501 1863.96C312.439 1859.49 315.988 1855.83 320.461 1855.73L336.042 1855.5C340.507 1855.44 344.171 1858.99 344.268 1863.46L344.5 1879.04C344.562 1883.51 341.008 1887.21 336.54 1887.27Z" stroke="#000000" stroke-width="3.4375" stroke-miterlimit="8" fill="#D6DBD9" fill-rule="evenodd"/><path d="M383.539 1887.27 367.958 1887.5C363.493 1887.56 359.829 1884.01 359.732 1879.54L359.501 1863.96C359.439 1859.49 362.988 1855.83 367.46 1855.73L383.041 1855.5C387.506 1855.44 391.17 1858.99 391.267 1863.46L391.499 1879.04C391.595 1883.51 388.004 1887.21 383.539 1887.27Z" stroke="#000000" stroke-width="3.4375" stroke-miterlimit="8" fill="#D6DBD9" fill-rule="evenodd"/><path d="M430.54 1885.27 414.959 1885.5C410.493 1885.56 406.829 1882.12 406.732 1877.79L406.501 1862.69C406.439 1858.37 409.988 1854.82 414.461 1854.72L430.042 1854.5C434.507 1854.44 438.171 1857.88 438.268 1862.21L438.5 1877.31C438.559 1881.67 435.009 1885.21 430.54 1885.27Z" stroke="#000000" stroke-width="3.4375" stroke-miterlimit="8" fill="#D6DBD9" fill-rule="evenodd"/><path d="M479.539 1885.27 463.958 1885.5C459.493 1885.56 455.829 1882.01 455.732 1877.54L455.501 1861.96C455.439 1857.49 458.988 1853.83 463.46 1853.73L479.041 1853.5C483.506 1853.44 487.17 1856.99 487.267 1861.46L487.498 1877.04C487.595 1881.51 484.007 1885.21 479.539 1885.27Z" stroke="#000000" stroke-width="3.4375" stroke-miterlimit="8" fill="#D6DBD9" fill-rule="evenodd"/><path d="M528.539 1884.27 512.958 1884.5C508.493 1884.56 504.829 1881.01 504.732 1876.54L504.501 1860.96C504.439 1856.49 507.988 1852.83 512.46 1852.73L528.041 1852.5C532.506 1852.44 536.17 1855.99 536.267 1860.46L536.498 1876.04C536.598 1880.51 533.007 1884.2 528.539 1884.27Z" stroke="#000000" stroke-width="3.4375" stroke-miterlimit="8" fill="#D6DBD9" fill-rule="evenodd"/><path d="M568.539 1880.27 552.958 1880.5C548.493 1880.56 544.829 1877.01 544.732 1872.54L544.501 1856.96C544.439 1852.49 547.988 1848.83 552.46 1848.73L568.041 1848.5C572.506 1848.44 576.17 1851.99 576.267 1856.46L576.499 1872.04C576.592 1876.55 573.007 1880.2 568.539 1880.27Z" stroke="#000000" stroke-width="3.4375" stroke-miterlimit="8" fill="#D6DBD9" fill-rule="evenodd"/><path d="M617.788 1879.27 602.694 1879.5C598.368 1879.56 594.819 1876.01 594.725 1871.54L594.501 1855.96C594.44 1851.49 597.879 1847.83 602.211 1847.73L617.305 1847.5C621.631 1847.44 625.181 1850.99 625.274 1855.46L625.499 1871.04C625.589 1875.55 622.117 1879.2 617.788 1879.27Z" stroke="#000000" stroke-width="3.4375" stroke-miterlimit="8" fill="#D6DBD9" fill-rule="evenodd"/><path d="M663.54 1879.27 647.958 1879.5C643.493 1879.56 639.829 1876.01 639.732 1871.54L639.501 1855.96C639.439 1851.49 642.988 1847.83 647.461 1847.73L663.042 1847.5C667.507 1847.44 671.171 1850.99 671.268 1855.46L671.5 1871.04C671.555 1875.54 668.005 1879.21 663.54 1879.27Z" stroke="#000000" stroke-width="3.4375" stroke-miterlimit="8" fill="#D6DBD9" fill-rule="evenodd"/><path d="M711.54 1878.27 695.958 1878.5C691.493 1878.56 687.829 1875.01 687.732 1870.54L687.501 1854.96C687.439 1850.49 690.988 1846.83 695.461 1846.73L711.042 1846.5C715.507 1846.44 719.171 1849.99 719.268 1854.46L719.5 1870.04C719.562 1874.51 716.005 1878.2 711.54 1878.27Z" stroke="#000000" stroke-width="3.4375" stroke-miterlimit="8" fill="#D6DBD9" fill-rule="evenodd"/><path d="M192.524 1889.32 111.973 1890.5C107.5 1890.56 103.83 1887.01 103.733 1882.53L103.501 1866.92C103.439 1862.45 106.994 1858.77 111.475 1858.68L192.026 1857.5C196.499 1857.44 200.169 1860.99 200.266 1865.47L200.498 1881.08C200.595 1885.56 196.998 1889.26 192.524 1889.32Z" stroke="#000000" stroke-width="3.4375" stroke-miterlimit="8" fill="#D6DBD9" fill-rule="evenodd"/><path d="M262.54 1937.27 246.959 1937.5C242.493 1937.56 238.829 1934.01 238.732 1929.54L238.501 1913.96C238.439 1909.49 241.988 1905.83 246.461 1905.73L262.042 1905.5C266.507 1905.44 270.171 1908.99 270.268 1913.46L270.5 1929.04C270.562 1933.51 267.005 1937.2 262.54 1937.27Z" stroke="#000000" stroke-width="3.4375" stroke-miterlimit="8" fill="#D6DBD9" fill-rule="evenodd"/><path d="M236.539 1888.27 220.958 1888.5C216.493 1888.56 212.829 1885.01 212.732 1880.54L212.501 1864.96C212.439 1860.49 215.988 1856.83 220.46 1856.73L236.041 1856.5C240.506 1856.44 244.17 1859.99 244.267 1864.46L244.498 1880.04C244.595 1884.51 241.004 1888.2 236.539 1888.27Z" stroke="#000000" stroke-width="3.4375" stroke-miterlimit="8" fill="#D6DBD9" fill-rule="evenodd"/><path d="M775.675 1878.96 737.815 1879.5C733.425 1879.56 729.823 1876.05 729.728 1871.62L729.501 1856.19C729.44 1851.77 732.929 1848.14 737.325 1848.05L775.185 1847.5C779.575 1847.44 783.177 1850.95 783.272 1855.38L783.5 1870.81C783.557 1875.27 780.068 1878.89 775.675 1878.96L775.675 1878.96Z" stroke="#000000" stroke-width="3.4375" stroke-miterlimit="8" fill="#D6DBD9" fill-rule="evenodd"/><path d="M214.547 1936.01 112.951 1937.5C108.489 1937.56 104.829 1934.04 104.732 1929.6L104.501 1914.15C104.439 1909.72 107.985 1906.08 112.453 1905.99L214.05 1904.5C218.511 1904.44 222.171 1907.96 222.268 1912.4L222.5 1927.85C222.562 1932.28 219.012 1935.95 214.547 1936.01Z" stroke="#000000" stroke-width="3.4375" stroke-miterlimit="8" fill="#D6DBD9" fill-rule="evenodd"/><path d="M311.539 1934.28 295.958 1934.5C291.493 1934.56 287.829 1931.12 287.732 1926.79L287.501 1911.69C287.439 1907.37 290.988 1903.82 295.46 1903.73L311.041 1903.5C315.506 1903.44 319.17 1906.88 319.267 1911.21L319.498 1926.31C319.595 1930.64 316.004 1934.22 311.539 1934.28Z" stroke="#000000" stroke-width="3.4375" stroke-miterlimit="8" fill="#D6DBD9" fill-rule="evenodd"/><path d="M364.539 1934.27 348.958 1934.5C344.493 1934.56 340.829 1931.01 340.732 1926.54L340.501 1910.96C340.439 1906.49 343.988 1902.83 348.461 1902.73L364.041 1902.5C368.507 1902.44 372.17 1905.99 372.267 1910.46L372.499 1926.04C372.592 1930.55 369.008 1934.2 364.539 1934.27Z" stroke="#000000" stroke-width="3.4375" stroke-miterlimit="8" fill="#D6DBD9" fill-rule="evenodd"/><path d="M411.539 1933.27 395.958 1933.5C391.493 1933.56 387.829 1930.01 387.732 1925.54L387.501 1909.96C387.439 1905.49 390.988 1901.83 395.46 1901.73L411.041 1901.5C415.506 1901.44 419.17 1904.99 419.267 1909.46L419.498 1925.04C419.592 1929.55 416.007 1933.21 411.539 1933.27Z" stroke="#000000" stroke-width="3.4375" stroke-miterlimit="8" fill="#D6DBD9" fill-rule="evenodd"/><path d="M458.54 1932.27 442.958 1932.5C438.493 1932.56 434.829 1929.01 434.732 1924.54L434.501 1908.96C434.439 1904.49 437.988 1900.83 442.461 1900.73L458.042 1900.5C462.507 1900.44 466.171 1903.99 466.268 1908.46L466.5 1924.04C466.562 1928.51 463.005 1932.21 458.54 1932.27Z" stroke="#000000" stroke-width="3.4375" stroke-miterlimit="8" fill="#D6DBD9" fill-rule="evenodd"/><path d="M508.539 1931.27 492.958 1931.5C488.493 1931.56 484.829 1928.01 484.732 1923.54L484.501 1907.96C484.439 1903.49 487.988 1899.83 492.46 1899.73L508.041 1899.5C512.507 1899.44 516.17 1902.99 516.267 1907.46L516.499 1923.04C516.595 1927.51 513.011 1931.17 508.539 1931.27Z" stroke="#000000" stroke-width="3.4375" stroke-miterlimit="8" fill="#D6DBD9" fill-rule="evenodd"/><path d="M556.54 1931.27 540.958 1931.5C536.493 1931.56 532.829 1928.01 532.732 1923.54L532.501 1907.96C532.439 1903.49 535.988 1899.83 540.461 1899.73L556.042 1899.5C560.507 1899.44 564.171 1902.99 564.268 1907.46L564.5 1923.04C564.555 1927.54 561.005 1931.21 556.54 1931.27Z" stroke="#000000" stroke-width="3.4375" stroke-miterlimit="8" fill="#D6DBD9" fill-rule="evenodd"/><path d="M596.788 1927.27 581.694 1927.5C577.368 1927.56 573.819 1924.01 573.725 1919.54L573.501 1903.96C573.44 1899.49 576.879 1895.83 581.212 1895.73L596.306 1895.5C600.631 1895.44 604.181 1898.99 604.274 1903.46L604.499 1919.04C604.586 1923.55 601.114 1927.21 596.788 1927.27Z" stroke="#000000" stroke-width="3.4375" stroke-miterlimit="8" fill="#D6DBD9" fill-rule="evenodd"/><path d="M646.539 1926.27 630.958 1926.5C626.493 1926.56 622.829 1923.01 622.732 1918.54L622.501 1902.96C622.439 1898.49 625.988 1894.83 630.46 1894.73L646.041 1894.5C650.506 1894.44 654.17 1897.99 654.267 1902.46L654.499 1918.04C654.595 1922.51 651.004 1926.21 646.539 1926.27Z" stroke="#000000" stroke-width="3.4375" stroke-miterlimit="8" fill="#D6DBD9" fill-rule="evenodd"/><path d="M691.54 1925.27 675.959 1925.5C671.493 1925.56 667.829 1922.01 667.732 1917.54L667.501 1901.96C667.439 1897.49 670.988 1893.83 675.461 1893.73L691.042 1893.5C695.507 1893.44 699.171 1896.99 699.268 1901.46L699.5 1917.04C699.562 1921.51 696.005 1925.2 691.54 1925.27Z" stroke="#000000" stroke-width="3.4375" stroke-miterlimit="8" fill="#D6DBD9" fill-rule="evenodd"/><path d="M781.598 1919.64 721.896 1920.5C717.464 1920.56 713.827 1917.08 713.731 1912.7L713.501 1897.43C713.439 1893.05 716.963 1889.46 721.402 1889.36L781.104 1888.5C785.537 1888.44 789.173 1891.92 789.27 1896.3L789.499 1911.57C789.558 1915.98 786.034 1919.57 781.598 1919.64Z" stroke="#000000" stroke-width="3.4375" stroke-miterlimit="8" fill="#D6DBD9" fill-rule="evenodd"/><path d="M124.539 1981.27 108.958 1981.5C104.493 1981.56 100.829 1978.01 100.732 1973.54L100.501 1957.96C100.439 1953.49 103.988 1949.83 108.46 1949.73L124.041 1949.5C128.506 1949.44 132.17 1952.99 132.267 1957.46L132.498 1973.04C132.588 1977.55 129.039 1981.21 124.539 1981.27Z" stroke="#000000" stroke-width="3.4375" stroke-miterlimit="8" fill="#D6DBD9" fill-rule="evenodd"/><path d="M169.788 1980.27 154.694 1980.5C150.368 1980.56 146.819 1977.01 146.725 1972.54L146.501 1956.96C146.441 1952.49 149.879 1948.83 154.212 1948.73L169.306 1948.5C173.632 1948.44 177.181 1951.99 177.275 1956.46L177.5 1972.04C177.553 1976.55 174.114 1980.21 169.788 1980.27Z" stroke="#000000" stroke-width="3.4375" stroke-miterlimit="8" fill="#D6DBD9" fill-rule="evenodd"/><path d="M218.539 1979.27 202.958 1979.5C198.493 1979.56 194.829 1976.01 194.732 1971.54L194.501 1955.96C194.439 1951.49 197.988 1947.83 202.46 1947.73L218.041 1947.5C222.506 1947.44 226.17 1950.99 226.267 1955.46L226.499 1971.04C226.595 1975.51 223.008 1979.21 218.539 1979.27Z" stroke="#000000" stroke-width="3.4375" stroke-miterlimit="8" fill="#D6DBD9" fill-rule="evenodd"/><path d="M263.54 1979.27 247.959 1979.5C243.493 1979.56 239.829 1976.01 239.732 1971.54L239.501 1955.96C239.439 1951.49 242.988 1947.83 247.461 1947.73L263.042 1947.5C267.507 1947.44 271.171 1950.99 271.268 1955.46L271.5 1971.04C271.562 1975.51 268.005 1979.21 263.54 1979.27Z" stroke="#000000" stroke-width="3.4375" stroke-miterlimit="8" fill="#D6DBD9" fill-rule="evenodd"/><path d="M317.54 1978.28 301.959 1978.5C297.493 1978.56 293.829 1975.12 293.732 1970.79L293.501 1955.69C293.439 1951.37 296.988 1947.82 301.461 1947.72L317.042 1947.5C321.507 1947.44 325.171 1950.88 325.268 1955.21L325.5 1970.31C325.562 1974.63 322.005 1978.21 317.54 1978.28Z" stroke="#000000" stroke-width="3.4375" stroke-miterlimit="8" fill="#D6DBD9" fill-rule="evenodd"/><path d="M503.568 1975.23 348.927 1977.5C344.478 1977.56 340.828 1974.02 340.732 1969.55L340.501 1953.99C340.439 1949.53 343.975 1945.87 348.431 1945.77L503.073 1943.5C507.521 1943.44 511.171 1946.98 511.268 1951.45L511.499 1967.01C511.588 1971.51 508.017 1975.16 503.568 1975.23Z" stroke="#000000" stroke-width="3.4375" stroke-miterlimit="8" fill="#D6DBD9" fill-rule="evenodd"/><path d="M548.539 1975.27 532.958 1975.5C528.493 1975.56 524.829 1972.01 524.732 1967.54L524.501 1951.96C524.439 1947.49 527.988 1943.83 532.461 1943.73L548.042 1943.5C552.507 1943.44 556.171 1946.99 556.267 1951.46L556.499 1967.04C556.565 1971.51 553.008 1975.21 548.539 1975.27Z" stroke="#000000" stroke-width="3.4375" stroke-miterlimit="8" fill="#D6DBD9" fill-rule="evenodd"/><path d="M596.539 1974.27 580.958 1974.5C576.493 1974.56 572.829 1971.01 572.732 1966.54L572.501 1950.96C572.438 1946.49 575.988 1942.83 580.46 1942.73L596.041 1942.5C600.506 1942.44 604.17 1945.99 604.267 1950.46L604.498 1966.04C604.595 1970.51 601.004 1974.2 596.539 1974.27Z" stroke="#000000" stroke-width="3.4375" stroke-miterlimit="8" fill="#D6DBD9" fill-rule="evenodd"/><path d="M642.54 1973.27 626.958 1973.5C622.493 1973.56 618.829 1970.01 618.732 1965.54L618.501 1949.96C618.439 1945.49 621.988 1941.83 626.461 1941.73L642.042 1941.5C646.507 1941.44 650.171 1944.99 650.268 1949.46L650.5 1965.04C650.562 1969.51 647.012 1973.17 642.54 1973.27Z" stroke="#000000" stroke-width="3.4375" stroke-miterlimit="8" fill="#D6DBD9" fill-rule="evenodd"/><path d="M683.539 1973.27 667.958 1973.5C663.493 1973.56 659.829 1970.01 659.732 1965.54L659.501 1949.96C659.439 1945.49 662.988 1941.83 667.461 1941.73L683.041 1941.5C687.507 1941.44 691.17 1944.99 691.267 1949.46L691.499 1965.04C691.595 1969.51 688.004 1973.2 683.539 1973.27Z" stroke="#000000" stroke-width="3.4375" stroke-miterlimit="8" fill="#D6DBD9" fill-rule="evenodd"/><path d="M732.788 1970.27 717.694 1970.5C713.368 1970.56 709.819 1967.01 709.725 1962.54L709.501 1946.96C709.441 1942.49 712.879 1938.83 717.212 1938.73L732.305 1938.5C736.631 1938.44 740.18 1941.99 740.274 1946.46L740.499 1962.04C740.589 1966.55 737.117 1970.21 732.788 1970.27Z" stroke="#000000" stroke-width="3.4375" stroke-miterlimit="8" fill="#D6DBD9" fill-rule="evenodd"/><path d="M781.54 1970.27 765.959 1970.5C761.493 1970.56 757.829 1967.01 757.732 1962.54L757.501 1946.96C757.439 1942.49 760.988 1938.83 765.461 1938.73L781.042 1938.5C785.507 1938.44 789.171 1941.99 789.268 1946.46L789.5 1962.04C789.559 1966.55 786.009 1970.21 781.54 1970.27Z" stroke="#000000" stroke-width="3.4375" stroke-miterlimit="8" fill="#D6DBD9" fill-rule="evenodd"/><path d="M857.788 1833.27 842.694 1833.5C838.368 1833.56 834.819 1830.01 834.725 1825.54L834.501 1809.96C834.441 1805.49 837.879 1801.83 842.212 1801.73L857.305 1801.5C861.631 1801.44 865.18 1804.99 865.274 1809.46L865.498 1825.04C865.592 1829.52 862.12 1833.17 857.788 1833.27Z" stroke="#000000" stroke-width="3.4375" stroke-miterlimit="8" fill="#D6DBD9" fill-rule="evenodd"/><path d="M950.539 1831.27 934.958 1831.5C930.493 1831.56 926.829 1828.01 926.732 1823.54L926.501 1807.96C926.439 1803.49 929.988 1799.83 934.46 1799.73L950.041 1799.5C954.506 1799.44 958.17 1802.99 958.267 1807.46L958.498 1823.04C958.595 1827.51 955.004 1831.21 950.539 1831.27Z" stroke="#000000" stroke-width="3.4375" stroke-miterlimit="8" fill="#D6DBD9" fill-rule="evenodd"/><path d="M903.54 1832.27 887.959 1832.5C883.493 1832.56 879.829 1829.01 879.732 1824.54L879.501 1808.96C879.439 1804.49 882.988 1800.83 887.461 1800.73L903.042 1800.5C907.508 1800.44 911.171 1803.99 911.268 1808.46L911.5 1824.04C911.562 1828.51 908.005 1832.21 903.54 1832.27Z" stroke="#000000" stroke-width="3.4375" stroke-miterlimit="8" fill="#D6DBD9" fill-rule="evenodd"/><path d="M858.539 1877.27 842.959 1877.5C838.493 1877.56 834.829 1874.01 834.732 1869.54L834.501 1853.96C834.439 1849.49 837.988 1845.83 842.461 1845.73L858.042 1845.5C862.507 1845.44 866.171 1848.99 866.268 1853.46L866.5 1869.04C866.562 1873.51 863.005 1877.2 858.539 1877.27Z" stroke="#000000" stroke-width="3.4375" stroke-miterlimit="8" fill="#D6DBD9" fill-rule="evenodd"/><path d="M904.54 1875.27 888.958 1875.5C884.493 1875.56 880.829 1872.01 880.732 1867.54L880.501 1851.96C880.438 1847.49 883.988 1843.83 888.46 1843.73L904.042 1843.5C908.507 1843.44 912.171 1846.99 912.268 1851.46L912.499 1867.04C912.561 1871.51 909.005 1875.21 904.54 1875.27Z" stroke="#000000" stroke-width="3.4375" stroke-miterlimit="8" fill="#D6DBD9" fill-rule="evenodd"/><path d="M951.539 1874.27 935.958 1874.5C931.493 1874.56 927.829 1871.12 927.733 1866.79L927.501 1851.69C927.439 1847.37 930.988 1843.82 935.46 1843.73L951.041 1843.5C955.506 1843.44 959.17 1846.88 959.267 1851.21L959.498 1866.31C959.588 1870.67 956.004 1874.21 951.539 1874.27Z" stroke="#000000" stroke-width="3.4375" stroke-miterlimit="8" fill="#D6DBD9" fill-rule="evenodd"/><path d="M859.54 1921.28 843.959 1921.5C839.493 1921.56 835.829 1918.12 835.733 1913.79L835.501 1898.69C835.439 1894.37 838.988 1890.82 843.461 1890.73L859.042 1890.5C863.508 1890.44 867.171 1893.88 867.268 1898.21L867.5 1913.31C867.555 1917.67 864.005 1921.21 859.54 1921.28Z" stroke="#000000" stroke-width="3.4375" stroke-miterlimit="8" fill="#D6DBD9" fill-rule="evenodd"/><path d="M904.539 1917.27 888.958 1917.5C884.493 1917.56 880.829 1914.01 880.732 1909.54L880.501 1893.96C880.438 1889.49 883.988 1885.83 888.46 1885.73L904.041 1885.5C908.507 1885.44 912.17 1888.99 912.267 1893.46L912.499 1909.04C912.589 1913.55 909.004 1917.21 904.539 1917.27Z" stroke="#000000" stroke-width="3.4375" stroke-miterlimit="8" fill="#D6DBD9" fill-rule="evenodd"/><path d="M953.539 1917.27 937.958 1917.5C933.493 1917.56 929.829 1914.01 929.732 1909.54L929.501 1893.96C929.439 1889.49 932.988 1885.83 937.46 1885.73L953.041 1885.5C957.506 1885.44 961.17 1888.99 961.267 1893.46L961.499 1909.04C961.595 1913.51 958.004 1917.21 953.539 1917.27Z" stroke="#000000" stroke-width="3.4375" stroke-miterlimit="8" fill="#D6DBD9" fill-rule="evenodd"/><path d="M914.653 1962.47 844.836 1963.5C840.435 1963.56 836.824 1959.99 836.729 1955.49L836.501 1939.81C836.439 1935.31 839.938 1931.62 844.346 1931.53L914.163 1930.5C918.564 1930.44 922.175 1934.01 922.27 1938.51L922.499 1954.19C922.587 1958.73 919.055 1962.41 914.653 1962.47L914.653 1962.47Z" stroke="#000000" stroke-width="3.4375" stroke-miterlimit="8" fill="#D6DBD9" fill-rule="evenodd"/><path d="M954.539 1961.27 938.958 1961.5C934.493 1961.56 930.829 1958.01 930.733 1953.54L930.501 1937.96C930.439 1933.49 933.988 1929.83 938.46 1929.73L954.041 1929.5C958.506 1929.44 962.17 1932.99 962.267 1937.46L962.499 1953.04C962.595 1957.51 959.004 1961.21 954.539 1961.27Z" stroke="#000000" stroke-width="3.4375" stroke-miterlimit="8" fill="#D6DBD9" fill-rule="evenodd"/><path d="M223.443 1716.85C219.967 1725.93 237.348 1742.94 261.715 1766.76 264.984 1769.96 276.101 1780.61 292.415 1792.33 301.329 1798.73 308.66 1803.16 311.895 1805.12 320.671 1810.31 336.813 1820.17 358.22 1826.74 380.075 1833.41 395.872 1838.25 416.282 1834.92 424.266 1833.61 450.32 1829.39 456.618 1812.37 460.267 1802.54 455.723 1792.54 454.071 1788.86 431.081 1738.03 233.837 1689.56 223.409 1716.89L223.443 1716.85Z" fill="#5B5742" fill-rule="evenodd" fill-opacity="0.431373"/><path d="M200.036 1486.08C208.844 1471.09 214.251 1469.04 217.448 1469.57 225.017 1470.85 224.989 1487.6 238.642 1513.89 243.279 1522.82 247.405 1529.12 250.895 1534.45 274.516 1566.09 313.622 1613.8 340.774 1648.22 388.233 1700.81 400.706 1718.25 437.454 1762.14 440.176 1764.75 448.368 1772.5 451.534 1784.93 466.389 1861.9 305.272 1775.28 289.257 1764.61 257.108 1744.39 257.521 1737.97 205.515 1695.51 152.959 1652.61 145.215 1653.19 140.5 1637.68 142.806 1618.81 147.267 1595.97 155.902 1570.95 168.589 1534.19 185.767 1505.83 200.036 1486.08Z" stroke="#000000" stroke-width="20.625" stroke-miterlimit="8" fill="#EBE2B3" fill-rule="evenodd"/><path d="M691.122 2023.56C687.49 2016.98 700.53 2003.77 710.694 1997.34 714.825 1994.73 723.014 1989.69 734.656 1989.51 745.963 1989.32 753.956 1993.82 760.213 1997.34 767.062 2001.2 784.86 2012.75 782.238 2019.62 780.526 2024.11 771.317 2023.41 736.954 2024.94 702.077 2026.49 693.581 2028.01 691.122 2023.56Z" stroke="#000000" stroke-width="20.625" stroke-miterlimit="8" fill="#EBE2B3" fill-rule="evenodd"/></g></svg>