<?xml version="1.0" encoding="iso-8859-1"?>
<!-- Generator: Adobe Illustrator 27.0.0, SVG Export Plug-In . SVG Version: 6.00 Build 0)  -->
<svg version="1.1" id="a" xmlns="http://www.w3.org/2000/svg" xmlns:xlink="http://www.w3.org/1999/xlink" x="0px" y="0px"
	 viewBox="0 0 595.2 841.92" style="enable-background:new 0 0 595.2 841.92;" xml:space="preserve">
<rect x="360.809" y="560.305" style="fill:#E2A9CB;" width="1259.787" height="5.569"/>
<rect x="360.809" y="561.364" style="fill:#7E4899;" width="1259.787" height="3.349"/>
<path style="fill:#CBC49C;stroke:#000000;stroke-width:2;stroke-miterlimit:10;" d="M358.551,566.874h-28.803
	c-1.247,0-2.258-1.011-2.258-2.258v-3.154c0-1.247,1.011-2.258,2.258-2.258h28.803c1.247,0,2.258,1.011,2.258,2.258v3.154
	C360.809,565.863,359.798,566.874,358.551,566.874z"/>
<path style="fill:#CBC49C;stroke:#000000;stroke-width:2;stroke-miterlimit:10;" d="M327.076,569.433h-1.913
	c-1.004,0-1.818-0.814-1.818-1.818v-9.151c0-1.004,0.814-1.818,1.818-1.818h1.913c1.004,0,1.818,0.814,1.818,1.818v9.151
	C328.894,568.619,328.08,569.433,327.076,569.433z"/>
<path style="fill:#CBC49C;stroke:#000000;stroke-width:2;stroke-miterlimit:10;" d="M321.524,572.09h-3.299
	c-1.532,0-2.775-1.242-2.775-2.775v-13.404c0-1.532,1.242-2.775,2.775-2.775h3.299c1.532,0,2.775,1.242,2.775,2.775v13.404
	C324.298,570.848,323.056,572.09,321.524,572.09z"/>
<path style="fill:#EBE2B3;stroke:#000000;stroke-width:6;stroke-miterlimit:10;" d="M115.6,671.98c0.65,1.31,1.18,2.44,1.57,3.31
	c1.37,3.07,2.2,5.46,2.52,6.39c0.84,2.43,0.87,2.9,2.55,8.68c2.7,9.28,2.92,9.08,3.57,12.26c0.9,4.37,0.44,4.48,1.53,10.72
	c1.01,5.77,1.55,8.69,3.06,10.72c0.39,0.52,4.25,5.55,9.7,5.11c3.58-0.29,5.96-2.8,7.66-4.6c1.03-1.08,1.83-2.19,5.62-10.21
	c2.19-4.63,3.3-7,4.09-9.19c0.42-1.16,0.7-2.09,0.91-2.9c0.86-3.27,1.41-5.38,1.64-6.29c0.53-2.1,1.8-5.08,5.11-8.68
	C148.62,682.19,132.11,677.09,115.6,671.98L115.6,671.98z"/>
<path style="fill:#EBE2B3;stroke:#000000;stroke-width:6;stroke-miterlimit:10;" d="M219.39,684.55c2.21,5.04,4.42,10.77,6.43,17.15
	c1.98,6.3,3.44,12.2,4.52,17.57c5.54,13.65,20.13,10.29,21.88-4.08c2.03-6.32,3.99-13.06,5.8-20.2c1.63-6.43,3.01-12.63,4.17-18.55
	c0.15-2.97,0.29-5.94,0.44-8.9l-43.22,17.01H219.39z"/>
<g>
	<path style="fill:#EBE2B3;stroke:#000000;stroke-width:6;stroke-miterlimit:10;" d="M56.151,551.831
		c-0.7-2.81-1.51-7.06-1.53-12.26c-0.02-5.53,0.88-7.05,1.02-11.74c0.28-9.29-3.05-9.82-3.06-17.87c0-9.56,4.66-17.06,6.13-19.4
		c3.34-5.35,4.67-4.59,8.68-10.72c3.73-5.7,5.45-10.74,7.15-15.83c2.95-8.83,2.25-10.6,4.6-18.89c1.66-5.86,3.77-13.33,8.68-20.94
		c3.2-4.96,8.6-9.77,19.4-19.4c6.94-6.19,11.94-10.18,15.83-13.28c11.86-9.44,15.76-11.46,17.36-12.26
		c5.61-2.78,10.66-5.29,17.36-5.11c3.37,0.09,8.68,0.42,14.39,0.37c0.81-0.01,2.64,0,5.02-0.15c1.02-0.07,2.73-0.2,4.79-0.48
		c3.5-0.47,6.13-1.09,6.94-1.28c11.68-2.7,17.58-4.33,22.98-3.06c6.49,1.52,10.85,5.28,14.81,8.68c2.51,2.16,5.96,6.58,12.77,15.32
		c7.57,9.73,9.32,12.34,13.79,15.83s5.03,2.67,8.17,5.62c4.18,3.92,5.75,7.77,9.7,16.85c7.55,17.36,6.93,15.09,7.66,17.36
		c0.74,2.33,1.16,4.62,2.11,9.18c1.2,5.77,1.55,8.55,3,16.87c1.13,6.46,1.66,9.7,2.04,11.23c2.56,10.37,6.41,17.41,7.66,19.91
		c5.85,11.68,5.26,25.49,4.09,53.11c-0.71,16.75-1.1,25.85-5.11,37.79c-2.07,6.16-3.02,6.87-8.17,20.94
		c-4.36,11.9-5.08,15.22-8.68,23.49c-4,9.2-6,13.8-10.21,18.89c-1.78,2.16-5.93,6.8-16.85,13.28c-9.08,5.39-19.3,11.45-34.21,14.3
		c-21.5,4.11-39.46-0.99-46.47-3.06c-4.37-1.29-5.85-2.07-14.3-4.6c-14.37-4.3-18.37-4.53-27.06-7.15c-5.2-1.57-7.81-2.3-11.06-3.55
		c-3.27-1.26-10.68-4.17-18.05-9.22c-12.53-8.57-19.42-19.48-21.96-24c-2-3.57-4.74-11.74-10.21-28.09
		c-3.61-10.79-5.44-16.26-6.13-19.91c-1.34-7.07-1.75-13.81-2.55-27.06C56.411,557.431,56.251,554.061,56.151,551.831z"/>
	
		<rect x="142.43" y="400.415" transform="matrix(0.4681 -0.8837 0.8837 0.4681 -293.0552 352.7798)" style="fill:#595850;stroke:#000000;stroke-width:3.0003;stroke-miterlimit:10.0006;" width="8.17" height="38.813"/>
	
		<rect x="201.175" y="415.92" transform="matrix(0.9011 -0.4337 0.4337 0.9011 -160.326 137.2157)" style="fill:#595850;stroke:#000000;stroke-width:3.0003;stroke-miterlimit:10.0012;" width="38.813" height="8.17"/>
</g>
<ellipse style="opacity:0.47;fill:#5B5742;enable-background:new    ;" cx="191.57" cy="731.87" rx="68.04" ry="2.68"/>
<ellipse style="fill:#E73A8F;stroke:#000000;stroke-width:3;stroke-miterlimit:10;" cx="185.96" cy="489.55" rx="21.89" ry="6.38"/>
<path style="fill:#231815;stroke:#000000;stroke-width:6;stroke-miterlimit:10;" d="M123.476,434.723
	c-3.894,2.95-1.624,13.179,2.328,19.581c1.413,2.289,4.537,7.35,10.948,9.27c5.498,1.647,10.161,0.009,11.489-0.511
	c6.83-2.675,13.121-10.143,11.667-15.554c-0.655-2.438-2.527-3.138-23.925-10.475C128.843,434.585,125.237,433.388,123.476,434.723z
	"/>
<path style="opacity:0.43;fill:#5B5742;enable-background:new    ;" d="M232.194,556.774c2.21,3.67,13.91,1.77,18.92,0.36
	c4.11-1.15,8.24-3.24,9.83-4.09c1.05-0.55,3.25-1.76,5.87-3.57c4.35-3.01,6.27-5.11,10.98-9.7c6.33-6.17,10.79-9.54,15.06-16.21
	c0.92-1.43,2.21-3.61,1.47-5.55c-0.95-2.47-4.66-3.13-5.98-3.4C275.424,511.994,227.024,548.214,232.194,556.774L232.194,556.774z"
	/>
<circle style="fill:#FFFFFF;" cx="143.924" cy="456.12" r="5.83"/>
<path style="fill:#231815;stroke:#000000;stroke-width:6;stroke-miterlimit:10;" d="M240.843,434.723
	c3.894,2.95,1.624,13.179-2.328,19.581c-1.413,2.289-4.537,7.35-10.948,9.27c-5.498,1.647-10.161,0.009-11.489-0.511
	c-6.83-2.675-13.121-10.143-11.667-15.554c0.655-2.438,2.527-3.138,23.925-10.475C235.476,434.585,239.082,433.388,240.843,434.723z
	"/>
<circle style="fill:#FFFFFF;" cx="223.53" cy="456.12" r="5.83"/>
<path style="fill:#EBE2B3;stroke:#000000;stroke-width:6;stroke-miterlimit:10;" d="M280.07,458.11
	c-0.823,0.073-0.235,1.283-5.644,9.397c0,0-2.482,4.585-4.34,7.915c-2.13,3.816-3.755,6.524-6.128,10.468
	c-5.662,9.415-5.645,8.863-7.66,12.511c-1.218,2.206-2.304,4.362-6.383,13.787c-6.541,15.116-8.564,15.79-7.66,18.128
	c2.595,6.708,20.087,9.122,32.17,2.298c2.324-1.313,4.092-3.022,7.66-6.383c10.459-9.854,12.759-12.196,13.405-15.387
	c0.286-1.41,0.198-2.224-0.908-8.521c-1.849-10.523-2.773-15.784-3.305-17.965C290.405,480.79,284.763,457.694,280.07,458.11z"/>
<g>
	<path style="fill:#A6A897;stroke:#000000;stroke-width:6;stroke-miterlimit:10;" d="M306.155,620.603l-265.509,3.875
		c-5.22,0.075-9.508-4.094-9.585-9.304L30,542.877c-0.075-5.22,4.094-9.508,9.304-9.585l265.499-3.876
		c5.22-0.075,9.508,4.094,9.585,9.304l1.061,72.296C315.535,616.228,311.365,620.526,306.155,620.603z"/>
	<g>
		<path style="fill:#D6DBD9;stroke:#000000;stroke-miterlimit:10;" d="M110.374,554.349l-8.507,0.121
			c-1.292,0.018-2.352-1.009-2.38-2.303l-0.067-4.508c-0.018-1.292,1.009-2.352,2.303-2.38l8.507-0.121
			c1.292-0.018,2.352,1.009,2.38,2.303l0.067,4.508C112.693,553.272,111.666,554.331,110.374,554.349z"/>
		<path style="fill:#D6DBD9;stroke:#000000;stroke-miterlimit:10;" d="M150.785,553.76l-8.507,0.121
			c-1.292,0.018-2.352-1.009-2.38-2.303l-0.067-4.508c-0.018-1.292,1.009-2.352,2.303-2.38l8.507-0.121
			c1.292-0.018,2.352,1.009,2.38,2.303l0.067,4.508C153.106,552.672,152.078,553.742,150.785,553.76z"/>
		<path style="fill:#D6DBD9;stroke:#000000;stroke-miterlimit:10;" d="M55.755,555.152l-8.507,0.121
			c-1.292,0.018-2.352-1.009-2.38-2.303l-0.067-4.508c-0.018-1.292,1.009-2.352,2.303-2.38l8.507-0.121
			c1.292-0.018,2.352,1.009,2.38,2.303l0.067,4.508C58.086,554.066,57.047,555.134,55.755,555.152z"/>
		<path style="fill:#D6DBD9;stroke:#000000;stroke-miterlimit:10;" d="M73.769,554.881l-8.507,0.121
			c-1.292,0.018-2.352-1.009-2.38-2.303l-0.067-4.508c-0.018-1.292,1.009-2.352,2.303-2.38l8.507-0.121
			c1.292-0.018,2.352,1.009,2.38,2.303l0.067,4.508C76.098,553.805,75.061,554.863,73.769,554.881z"/>
		<path style="fill:#D6DBD9;stroke:#000000;stroke-miterlimit:10;" d="M221.513,552.73l-8.507,0.121
			c-1.292,0.018-2.352-1.009-2.38-2.303l-0.067-4.508c-0.018-1.292,1.009-2.352,2.303-2.38l8.507-0.121
			c1.292-0.018,2.352,1.009,2.38,2.303l0.067,4.508C223.844,551.644,222.807,552.702,221.513,552.73z"/>
		<path style="fill:#D6DBD9;stroke:#000000;stroke-miterlimit:10;" d="M92.289,554.618l-8.507,0.121
			c-1.292,0.018-2.352-1.009-2.38-2.303l-0.067-4.508c-0.018-1.292,1.009-2.352,2.303-2.38l8.507-0.121
			c1.292-0.018,2.352,1.009,2.38,2.303l0.067,4.508C94.62,553.532,93.581,554.599,92.289,554.618z"/>
		<path style="fill:#D6DBD9;stroke:#000000;stroke-miterlimit:10;" d="M168.95,553.495l-8.507,0.121
			c-1.292,0.018-2.352-1.009-2.38-2.303l-0.067-4.508c-0.018-1.292,1.009-2.352,2.303-2.38l8.507-0.121
			c1.292-0.018,2.352,1.009,2.38,2.303l0.067,4.508C171.272,552.408,170.243,553.477,168.95,553.495z"/>
		<path style="fill:#D6DBD9;stroke:#000000;stroke-miterlimit:10;" d="M186.343,553.238l-8.507,0.121
			c-1.292,0.018-2.352-1.009-2.38-2.303l-0.067-4.508c-0.018-1.292,1.009-2.352,2.303-2.38l8.507-0.121
			c1.292-0.018,2.352,1.009,2.38,2.303l0.067,4.508C188.663,552.16,187.635,553.22,186.343,553.238z"/>
		<path style="fill:#D6DBD9;stroke:#000000;stroke-miterlimit:10;" d="M203.938,552.986l-8.507,0.121
			c-1.292,0.018-2.352-1.009-2.38-2.303l-0.067-4.508c-0.018-1.292,1.009-2.352,2.303-2.38l8.507-0.121
			c1.292-0.018,2.352,1.009,2.38,2.303l0.067,4.508C206.269,551.9,205.23,552.967,203.938,552.986z"/>
		<path style="fill:#D6DBD9;stroke:#000000;stroke-miterlimit:10;" d="M130.575,554.054l-8.507,0.121
			c-1.292,0.018-2.352-1.009-2.38-2.303l-0.067-4.508c-0.018-1.292,1.009-2.352,2.303-2.38l8.507-0.121
			c1.292-0.018,2.352,1.009,2.38,2.303l0.067,4.508C132.904,552.978,131.867,554.035,130.575,554.054z"/>
		<path style="fill:#D6DBD9;stroke:#000000;stroke-miterlimit:10;" d="M241.772,551.805l-8.507,0.121
			c-1.292,0.018-2.352-1.009-2.38-2.303l-0.067-4.508c-0.018-1.292,1.009-2.352,2.303-2.38l8.507-0.121
			c1.292-0.018,2.352,1.009,2.38,2.303l0.067,4.508C244.104,550.719,243.065,551.787,241.772,551.805z"/>
		<path style="fill:#D6DBD9;stroke:#000000;stroke-miterlimit:10;" d="M64.328,568.218l-17.32,0.25
			c-1.292,0.018-2.352-1.009-2.38-2.303l-0.067-4.508c-0.018-1.292,1.009-2.352,2.303-2.38l17.32-0.249
			c1.292-0.018,2.352,1.009,2.38,2.303l0.067,4.508C66.658,567.142,65.621,568.2,64.328,568.218z"/>
		<path style="fill:#D6DBD9;stroke:#000000;stroke-miterlimit:10;" d="M78.969,567.969l-4.508,0.067
			c-1.292,0.018-2.352-1.009-2.38-2.303l-0.067-4.508c-0.018-1.292,1.009-2.352,2.303-2.38l4.508-0.067
			c1.292-0.018,2.352,1.009,2.38,2.303l0.067,4.508C81.288,566.891,80.261,567.95,78.969,567.969z"/>
		<path style="fill:#D6DBD9;stroke:#000000;stroke-miterlimit:10;" d="M92.137,567.777l-4.508,0.067
			c-1.292,0.018-2.352-1.009-2.38-2.303l-0.067-4.508c-0.018-1.292,1.009-2.352,2.303-2.38l4.508-0.067
			c1.292-0.018,2.352,1.009,2.38,2.303l0.067,4.508C94.468,566.691,93.429,567.759,92.137,567.777z"/>
		<path style="fill:#D6DBD9;stroke:#000000;stroke-miterlimit:10;" d="M106.17,567.574l-4.508,0.067
			c-1.292,0.018-2.352-1.009-2.38-2.303l-0.067-4.508c-0.018-1.292,1.009-2.352,2.303-2.38l4.508-0.067
			c1.292-0.018,2.352,1.009,2.38,2.303l0.067,4.508C108.501,566.488,107.463,567.556,106.17,567.574z"/>
		<path style="fill:#D6DBD9;stroke:#000000;stroke-miterlimit:10;" d="M119.35,567.374l-4.508,0.067
			c-1.292,0.018-2.352-1.009-2.38-2.303l-0.067-4.508c-0.018-1.292,1.009-2.352,2.303-2.38l4.508-0.067
			c1.292-0.018,2.352,1.009,2.38,2.303l0.067,4.508C121.67,566.297,120.643,567.356,119.35,567.374L119.35,567.374z"/>
		<path style="fill:#D6DBD9;stroke:#000000;stroke-miterlimit:10;" d="M135.183,567.332l-4.508,0.067
			c-1.292,0.018-2.352-1.009-2.38-2.303l-0.067-4.508c-0.018-1.292,1.009-2.352,2.303-2.38l4.508-0.067
			c1.292-0.018,2.352,1.009,2.38,2.303l0.067,4.508C137.514,566.246,136.475,567.314,135.183,567.332z"/>
		<path style="fill:#D6DBD9;stroke:#000000;stroke-miterlimit:10;" d="M148.353,567.131l-4.508,0.067
			c-1.292,0.018-2.352-1.009-2.38-2.303l-0.067-4.508c-0.018-1.292,1.009-2.352,2.303-2.38l4.508-0.067
			c1.292-0.018,2.352,1.009,2.38,2.303l0.067,4.508C150.682,566.055,149.645,567.112,148.353,567.131z"/>
		<path style="fill:#D6DBD9;stroke:#000000;stroke-miterlimit:10;" d="M162.396,566.929l-4.508,0.067
			c-1.292,0.018-2.352-1.009-2.38-2.303l-0.067-4.508c-0.018-1.292,1.009-2.352,2.303-2.38l4.508-0.067
			c1.292-0.018,2.352,1.009,2.38,2.303l0.067,4.508C164.716,565.852,163.689,566.911,162.396,566.929z"/>
		<path style="fill:#D6DBD9;stroke:#000000;stroke-miterlimit:10;" d="M174.826,566.609l-4.508,0.067
			c-1.292,0.018-2.352-1.009-2.38-2.303l-0.067-4.508c-0.018-1.292,1.009-2.352,2.303-2.38l4.508-0.067
			c1.292-0.018,2.352,1.009,2.38,2.303l0.067,4.508C177.147,565.521,176.118,566.591,174.826,566.609z"/>
		<path style="fill:#D6DBD9;stroke:#000000;stroke-miterlimit:10;" d="M189.124,566.401l-4.508,0.067
			c-1.292,0.018-2.352-1.009-2.38-2.303l-0.067-4.508c-0.018-1.292,1.009-2.352,2.303-2.38l4.508-0.067
			c1.292-0.018,2.352,1.009,2.38,2.303l0.067,4.508C191.445,565.314,190.416,566.383,189.124,566.401z"/>
		<path style="fill:#D6DBD9;stroke:#000000;stroke-miterlimit:10;" d="M202.292,566.21l-4.508,0.067
			c-1.292,0.018-2.352-1.009-2.38-2.303l-0.067-4.508c-0.018-1.292,1.009-2.352,2.303-2.38l4.508-0.067
			c1.292-0.018,2.352,1.009,2.38,2.303l0.067,4.508C204.624,565.124,203.585,566.191,202.292,566.21z"/>
		<path style="fill:#D6DBD9;stroke:#000000;stroke-miterlimit:10;" d="M216.328,565.996l-4.508,0.067
			c-1.292,0.018-2.352-1.009-2.38-2.303l-0.067-4.508c-0.018-1.292,1.009-2.352,2.303-2.38l4.508-0.067
			c1.292-0.018,2.352,1.009,2.38,2.303l0.067,4.508C218.657,564.92,217.62,565.978,216.328,565.996z"/>
		<path style="fill:#D6DBD9;stroke:#000000;stroke-miterlimit:10;" d="M229.506,565.807l-4.508,0.067
			c-1.292,0.018-2.352-1.009-2.38-2.303l-0.067-4.508c-0.018-1.292,1.009-2.352,2.303-2.38l4.508-0.067
			c1.292-0.018,2.352,1.009,2.38,2.303l0.067,4.508C231.825,564.729,230.798,565.788,229.506,565.807z"/>
		<path style="fill:#D6DBD9;stroke:#000000;stroke-miterlimit:10;" d="M241.633,565.768l-4.508,0.067
			c-1.292,0.018-2.352-1.009-2.38-2.303l-0.067-4.508c-0.018-1.292,1.009-2.352,2.303-2.38l4.508-0.067
			c1.292-0.018,2.352,1.009,2.38,2.303l0.067,4.508C243.962,564.693,242.925,565.75,241.633,565.768z"/>
		<path style="fill:#D6DBD9;stroke:#000000;stroke-miterlimit:10;" d="M97.639,581.171l-4.508,0.067
			c-1.292,0.018-2.352-1.009-2.38-2.303l-0.067-4.508c-0.018-1.292,1.009-2.352,2.303-2.38l4.508-0.067
			c1.292-0.018,2.352,1.009,2.38,2.303l0.067,4.508C99.96,580.083,98.931,581.153,97.639,581.171z"/>
		<path style="fill:#D6DBD9;stroke:#000000;stroke-miterlimit:10;" d="M112.353,581.137l-4.508,0.067
			c-1.292,0.018-2.352-1.009-2.38-2.303l-0.067-4.508c-0.018-1.292,1.009-2.352,2.303-2.38l4.508-0.067
			c1.292-0.018,2.352,1.009,2.38,2.303l0.067,4.508C114.674,580.049,113.646,581.119,112.353,581.137z"/>
		<path style="fill:#D6DBD9;stroke:#000000;stroke-miterlimit:10;" d="M126.051,580.936l-4.508,0.067
			c-1.292,0.018-2.352-1.009-2.38-2.303l-0.067-4.508c-0.018-1.292,1.009-2.352,2.303-2.38l4.508-0.067
			c1.292-0.018,2.352,1.009,2.38,2.303l0.067,4.508C128.382,579.85,127.343,580.918,126.051,580.936z"/>
		<path style="fill:#D6DBD9;stroke:#000000;stroke-miterlimit:10;" d="M139.799,580.622l-4.508,0.067
			c-1.292,0.018-2.352-1.009-2.38-2.303l-0.067-4.508c-0.018-1.292,1.009-2.352,2.303-2.38l4.508-0.067
			c1.292-0.018,2.352,1.009,2.38,2.303l0.067,4.508C142.119,579.545,141.092,580.604,139.799,580.622z"/>
		<path style="fill:#D6DBD9;stroke:#000000;stroke-miterlimit:10;" d="M154.158,580.415l-4.508,0.067
			c-1.292,0.018-2.352-1.009-2.38-2.303l-0.067-4.508c-0.018-1.292,1.009-2.352,2.303-2.38l4.508-0.067
			c1.292-0.018,2.352,1.009,2.38,2.303l0.067,4.508C156.489,579.329,155.451,580.397,154.158,580.415z"/>
		<path style="fill:#D6DBD9;stroke:#000000;stroke-miterlimit:10;" d="M168.191,580.212l-4.508,0.067
			c-1.292,0.018-2.352-1.009-2.38-2.303l-0.067-4.508c-0.018-1.292,1.009-2.352,2.303-2.38l4.508-0.067
			c1.292-0.018,2.352,1.009,2.38,2.303l0.067,4.508C170.523,579.126,169.484,580.193,168.191,580.212z"/>
		<path style="fill:#D6DBD9;stroke:#000000;stroke-miterlimit:10;" d="M180.037,579.049l-4.508,0.067
			c-1.292,0.018-2.352-1.009-2.38-2.303l-0.067-4.508c-0.018-1.292,1.009-2.352,2.303-2.38l4.508-0.067
			c1.292-0.018,2.352,1.009,2.38,2.303l0.067,4.508C182.367,577.973,181.33,579.03,180.037,579.049z"/>
		<path style="fill:#D6DBD9;stroke:#000000;stroke-miterlimit:10;" d="M194.335,578.841l-4.508,0.067
			c-1.292,0.018-2.352-1.009-2.38-2.303l-0.067-4.508c-0.018-1.292,1.009-2.352,2.303-2.38l4.508-0.067
			c1.292-0.018,2.352,1.009,2.38,2.303l0.067,4.508C196.665,577.765,195.628,578.822,194.335,578.841z"/>
		<path style="fill:#D6DBD9;stroke:#000000;stroke-miterlimit:10;" d="M207.514,578.651l-4.508,0.067
			c-1.292,0.018-2.352-1.009-2.38-2.303l-0.067-4.508c-0.018-1.292,1.009-2.352,2.303-2.38l4.508-0.067
			c1.292-0.018,2.352,1.009,2.38,2.303l0.067,4.508C209.833,577.573,208.806,578.633,207.514,578.651z"/>
		<path style="fill:#D6DBD9;stroke:#000000;stroke-miterlimit:10;" d="M221.547,578.448l-4.508,0.067
			c-1.292,0.018-2.352-1.009-2.38-2.303l-0.067-4.508c-0.018-1.292,1.009-2.352,2.303-2.38l4.508-0.067
			c1.292-0.018,2.352,1.009,2.38,2.303l0.067,4.508C223.868,577.36,222.839,578.429,221.547,578.448z"/>
		<path style="fill:#D6DBD9;stroke:#000000;stroke-miterlimit:10;" d="M70.477,581.745l-23.264,0.34
			c-1.292,0.018-2.352-1.009-2.38-2.303l-0.067-4.508c-0.018-1.292,1.009-2.352,2.303-2.38l23.264-0.34
			c1.292-0.018,2.352,1.009,2.38,2.303l0.067,4.508C72.808,580.659,71.769,581.727,70.477,581.745z"/>
		<path style="fill:#D6DBD9;stroke:#000000;stroke-miterlimit:10;" d="M90.986,595.522l-4.508,0.067
			c-1.292,0.018-2.352-1.009-2.38-2.303l-0.067-4.508c-0.018-1.292,1.009-2.352,2.303-2.38l4.508-0.067
			c1.292-0.018,2.352,1.009,2.38,2.303l0.067,4.508C93.307,594.434,92.278,595.503,90.986,595.522z"/>
		<path style="fill:#D6DBD9;stroke:#000000;stroke-miterlimit:10;" d="M83.341,581.379l-4.508,0.067
			c-1.292,0.018-2.352-1.009-2.38-2.303l-0.067-4.508c-0.018-1.292,1.009-2.352,2.303-2.38l4.508-0.067
			c1.292-0.018,2.352,1.009,2.38,2.303l0.067,4.508C85.672,580.293,84.633,581.36,83.341,581.379z"/>
		<path style="fill:#D6DBD9;stroke:#000000;stroke-miterlimit:10;" d="M240.289,578.598l-11.143,0.159
			c-1.292,0.018-2.352-1.009-2.38-2.303l-0.067-4.508c-0.018-1.292,1.009-2.352,2.303-2.38l11.143-0.159
			c1.292-0.018,2.352,1.009,2.38,2.303l0.067,4.508C242.609,577.521,241.582,578.58,240.289,578.598L240.289,578.598z"/>
		<path style="fill:#D6DBD9;stroke:#000000;stroke-miterlimit:10;" d="M76.829,595.267l-29.422,0.434
			c-1.292,0.018-2.352-1.009-2.38-2.303l-0.067-4.508c-0.018-1.292,1.009-2.352,2.303-2.38l29.422-0.434
			c1.292-0.018,2.352,1.009,2.38,2.303l0.067,4.508C79.15,594.179,78.122,595.248,76.829,595.267z"/>
		<path style="fill:#D6DBD9;stroke:#000000;stroke-miterlimit:10;" d="M105.141,594.852l-4.508,0.067
			c-1.292,0.018-2.352-1.009-2.38-2.303l-0.067-4.508c-0.018-1.292,1.009-2.352,2.303-2.38l4.508-0.067
			c1.292-0.018,2.352,1.009,2.38,2.303l0.067,4.508C107.472,593.766,106.433,594.834,105.141,594.852z"/>
		<path style="fill:#D6DBD9;stroke:#000000;stroke-miterlimit:10;" d="M120.563,594.658l-4.508,0.067
			c-1.292,0.018-2.352-1.009-2.38-2.303l-0.067-4.508c-0.018-1.292,1.009-2.352,2.303-2.38l4.508-0.067
			c1.292-0.018,2.352,1.009,2.38,2.303l0.067,4.508C122.893,593.582,121.856,594.639,120.563,594.658z"/>
		<path style="fill:#D6DBD9;stroke:#000000;stroke-miterlimit:10;" d="M134.261,594.457l-4.508,0.067
			c-1.292,0.018-2.352-1.009-2.38-2.303l-0.067-4.508c-0.018-1.292,1.009-2.352,2.303-2.38l4.508-0.067
			c1.292-0.018,2.352,1.009,2.38,2.303l0.067,4.508C136.591,593.381,135.554,594.439,134.261,594.457z"/>
		<path style="fill:#D6DBD9;stroke:#000000;stroke-miterlimit:10;" d="M148.008,594.153l-4.508,0.067
			c-1.292,0.018-2.352-1.009-2.38-2.303l-0.067-4.508c-0.018-1.292,1.009-2.352,2.303-2.38l4.508-0.067
			c1.292-0.018,2.352,1.009,2.38,2.303l0.067,4.508C150.329,593.065,149.3,594.135,148.008,594.153z"/>
		<path style="fill:#D6DBD9;stroke:#000000;stroke-miterlimit:10;" d="M162.367,593.946l-4.508,0.067
			c-1.292,0.018-2.352-1.009-2.38-2.303l-0.067-4.508c-0.018-1.292,1.009-2.352,2.303-2.38l4.508-0.067
			c1.292-0.018,2.352,1.009,2.38,2.303l0.067,4.508C164.698,592.86,163.661,593.917,162.367,593.946z"/>
		<path style="fill:#D6DBD9;stroke:#000000;stroke-miterlimit:10;" d="M176.412,593.734l-4.508,0.067
			c-1.292,0.018-2.352-1.009-2.38-2.303l-0.067-4.508c-0.018-1.292,1.009-2.352,2.303-2.38l4.508-0.067
			c1.292-0.018,2.352,1.009,2.38,2.303l0.067,4.508C178.731,592.656,177.704,593.716,176.412,593.734z"/>
		<path style="fill:#D6DBD9;stroke:#000000;stroke-miterlimit:10;" d="M188.246,592.579l-4.508,0.067
			c-1.292,0.018-2.352-1.009-2.38-2.303l-0.067-4.508c-0.018-1.292,1.009-2.352,2.303-2.38l4.508-0.067
			c1.292-0.018,2.352,1.009,2.38,2.303l0.067,4.508C190.575,591.503,189.538,592.561,188.246,592.579z"/>
		<path style="fill:#D6DBD9;stroke:#000000;stroke-miterlimit:10;" d="M202.544,592.371l-4.508,0.067
			c-1.292,0.018-2.352-1.009-2.38-2.303l-0.067-4.508c-0.018-1.292,1.009-2.352,2.303-2.38l4.508-0.067
			c1.292-0.018,2.352,1.009,2.38,2.303l0.067,4.508C204.875,591.285,203.836,592.353,202.544,592.371z"/>
		<path style="fill:#D6DBD9;stroke:#000000;stroke-miterlimit:10;" d="M215.722,592.182l-4.508,0.067
			c-1.292,0.018-2.352-1.009-2.38-2.303l-0.067-4.508c-0.018-1.292,1.009-2.352,2.303-2.38l4.508-0.067
			c1.292-0.018,2.352,1.009,2.38,2.303l0.067,4.508C218.043,591.094,217.014,592.163,215.722,592.182z"/>
		<path style="fill:#D6DBD9;stroke:#000000;stroke-miterlimit:10;" d="M241.986,590.527l-17.402,0.255
			c-1.292,0.018-2.352-1.009-2.38-2.303l-0.067-4.508c-0.018-1.292,1.009-2.352,2.303-2.38l17.402-0.255
			c1.292-0.018,2.352,1.009,2.38,2.303l0.067,4.508C244.306,589.449,243.279,590.509,241.986,590.527z"/>
		<path style="fill:#D6DBD9;stroke:#000000;stroke-miterlimit:10;" d="M50.803,608.311l-4.508,0.067
			c-1.292,0.018-2.352-1.009-2.38-2.303l-0.067-4.508c-0.018-1.292,1.009-2.352,2.303-2.38l4.508-0.067
			c1.292-0.018,2.352,1.009,2.38,2.303l0.067,4.508C53.132,607.235,52.105,608.295,50.803,608.311z"/>
		<path style="fill:#D6DBD9;stroke:#000000;stroke-miterlimit:10;" d="M63.981,608.121l-4.508,0.067
			c-1.292,0.018-2.352-1.009-2.38-2.303l-0.067-4.508c-0.018-1.292,1.009-2.352,2.303-2.38l4.508-0.067
			c1.292-0.018,2.352,1.009,2.38,2.303l0.067,4.508C66.3,607.044,65.273,608.103,63.981,608.121z"/>
		<path style="fill:#D6DBD9;stroke:#000000;stroke-miterlimit:10;" d="M78.014,607.918l-4.508,0.067
			c-1.292,0.018-2.352-1.009-2.38-2.303l-0.067-4.508c-0.018-1.292,1.009-2.352,2.303-2.38l4.508-0.067
			c1.292-0.018,2.352,1.009,2.38,2.303l0.067,4.508C80.345,606.832,79.307,607.9,78.014,607.918z"/>
		<path style="fill:#D6DBD9;stroke:#000000;stroke-miterlimit:10;" d="M91.193,607.728l-4.508,0.067
			c-1.292,0.018-2.352-1.009-2.38-2.303l-0.067-4.508c-0.018-1.292,1.009-2.352,2.303-2.38l4.508-0.067
			c1.292-0.018,2.352,1.009,2.38,2.303l0.067,4.508C93.514,606.641,92.485,607.71,91.193,607.728z"/>
		<path style="fill:#D6DBD9;stroke:#000000;stroke-miterlimit:10;" d="M107.027,607.677l-4.508,0.067
			c-1.292,0.018-2.352-1.009-2.38-2.303l-0.067-4.508c-0.018-1.292,1.009-2.352,2.303-2.38l4.508-0.067
			c1.292-0.018,2.352,1.009,2.38,2.303l0.067,4.508C109.348,606.589,108.319,607.658,107.027,607.677z"/>
		<path style="fill:#D6DBD9;stroke:#000000;stroke-miterlimit:10;" d="M160.958,606.744l-44.91,0.658
			c-1.292,0.018-2.352-1.009-2.38-2.303l-0.067-4.508c-0.018-1.292,1.009-2.352,2.303-2.38l44.91-0.658
			c1.292-0.018,2.352,1.009,2.38,2.303l0.067,4.508C163.287,605.668,162.25,606.725,160.958,606.744z"/>
		<path style="fill:#D6DBD9;stroke:#000000;stroke-miterlimit:10;" d="M174.136,606.554l-4.508,0.067
			c-1.292,0.018-2.352-1.009-2.38-2.303l-0.067-4.508c-0.018-1.292,1.009-2.352,2.303-2.38l4.508-0.067
			c1.292-0.018,2.352,1.009,2.38,2.303l0.067,4.508C176.458,605.466,175.429,606.536,174.136,606.554z"/>
		<path style="fill:#D6DBD9;stroke:#000000;stroke-miterlimit:10;" d="M188.17,606.351l-4.508,0.067
			c-1.292,0.018-2.352-1.009-2.38-2.303l-0.067-4.508c-0.018-1.292,1.009-2.352,2.303-2.38l4.508-0.067
			c1.292-0.018,2.352,1.009,2.38,2.303l0.067,4.508C190.501,605.265,189.462,606.332,188.17,606.351z"/>
		<path style="fill:#D6DBD9;stroke:#000000;stroke-miterlimit:10;" d="M201.348,606.161l-4.508,0.067
			c-1.292,0.018-2.352-1.009-2.38-2.303l-0.067-4.508c-0.018-1.292,1.009-2.352,2.303-2.38l4.508-0.067
			c1.292-0.018,2.352,1.009,2.38,2.303l0.067,4.508C203.669,605.073,202.642,606.133,201.348,606.161z"/>
		<path style="fill:#D6DBD9;stroke:#000000;stroke-miterlimit:10;" d="M213.475,606.123l-4.508,0.067
			c-1.292,0.018-2.352-1.009-2.38-2.303l-0.067-4.508c-0.018-1.292,1.009-2.352,2.303-2.38l4.508-0.067
			c1.292-0.018,2.352,1.009,2.38,2.303l0.067,4.508C215.806,605.037,214.767,606.104,213.475,606.123z"/>
		<path style="fill:#D6DBD9;stroke:#000000;stroke-miterlimit:10;" d="M227.769,605.295l-4.508,0.067
			c-1.292,0.018-2.352-1.009-2.38-2.303l-0.067-4.508c-0.018-1.292,1.009-2.352,2.303-2.38l4.508-0.067
			c1.292-0.018,2.352,1.009,2.38,2.303l0.067,4.508C230.099,604.219,229.062,605.277,227.769,605.295z"/>
		<path style="fill:#D6DBD9;stroke:#000000;stroke-miterlimit:10;" d="M241.812,605.093l-4.508,0.067
			c-1.292,0.018-2.352-1.009-2.38-2.303l-0.067-4.508c-0.018-1.292,1.009-2.352,2.303-2.38l4.508-0.067
			c1.292-0.018,2.352,1.009,2.38,2.303l0.067,4.508C244.132,604.016,243.105,605.075,241.812,605.093z"/>
	</g>
	<path style="fill:#D6DBD9;stroke:#000000;stroke-miterlimit:10;" d="M264.143,565.266l-4.508,0.067
		c-1.292,0.018-2.352-1.009-2.38-2.303l-0.067-4.508c-0.018-1.292,1.009-2.352,2.303-2.38l4.508-0.067
		c1.292-0.018,2.352,1.009,2.38,2.303l0.067,4.508C266.474,564.181,265.437,565.238,264.143,565.266z"/>
	<path style="fill:#D6DBD9;stroke:#000000;stroke-miterlimit:10;" d="M291.143,564.867l-4.508,0.067
		c-1.292,0.018-2.352-1.009-2.38-2.303l-0.067-4.508c-0.018-1.292,1.009-2.352,2.303-2.38l4.508-0.067
		c1.292-0.018,2.352,1.009,2.38,2.303l0.067,4.508C293.474,563.781,292.435,564.849,291.143,564.867z"/>
	<path style="fill:#D6DBD9;stroke:#000000;stroke-miterlimit:10;" d="M277.414,565.072l-4.508,0.067
		c-1.292,0.018-2.352-1.009-2.38-2.303l-0.067-4.508c-0.018-1.292,1.009-2.352,2.303-2.38l4.508-0.067
		c1.292-0.018,2.352,1.009,2.38,2.303l0.067,4.508C279.735,563.985,278.706,565.054,277.414,565.072z"/>
	<path style="fill:#D6DBD9;stroke:#000000;stroke-miterlimit:10;" d="M264.336,578.253l-4.508,0.067
		c-1.292,0.018-2.352-1.009-2.38-2.303l-0.067-4.508c-0.018-1.292,1.009-2.352,2.303-2.38l4.508-0.067
		c1.292-0.018,2.352,1.009,2.38,2.303l0.067,4.508C266.657,577.165,265.628,578.234,264.336,578.253z"/>
	<path style="fill:#D6DBD9;stroke:#000000;stroke-miterlimit:10;" d="M277.6,577.631l-4.508,0.067
		c-1.292,0.018-2.352-1.009-2.38-2.303l-0.067-4.508c-0.018-1.292,1.009-2.352,2.303-2.38l4.508-0.067
		c1.292-0.018,2.352,1.009,2.38,2.303l0.067,4.508C279.921,576.543,278.892,577.613,277.6,577.631z"/>
	<path style="fill:#D6DBD9;stroke:#000000;stroke-miterlimit:10;" d="M291.329,577.425l-4.508,0.067
		c-1.292,0.018-2.352-1.009-2.38-2.303l-0.067-4.508c-0.018-1.292,1.009-2.352,2.303-2.38l4.508-0.067
		c1.292-0.018,2.352,1.009,2.38,2.303l0.067,4.508C293.658,576.349,292.621,577.407,291.329,577.425z"/>
	<path style="fill:#D6DBD9;stroke:#000000;stroke-miterlimit:10;" d="M264.596,591.088l-4.508,0.067
		c-1.292,0.018-2.352-1.009-2.38-2.303l-0.067-4.508c-0.018-1.292,1.009-2.352,2.303-2.38l4.508-0.067
		c1.292-0.018,2.352,1.009,2.38,2.303l0.067,4.508C266.915,590.01,265.888,591.069,264.596,591.088z"/>
	<path style="fill:#D6DBD9;stroke:#000000;stroke-miterlimit:10;" d="M277.772,589.689l-4.508,0.067
		c-1.292,0.018-2.352-1.009-2.38-2.303l-0.067-4.508c-0.018-1.292,1.009-2.352,2.303-2.38l4.508-0.067
		c1.292-0.018,2.352,1.009,2.38,2.303l0.067,4.508C280.101,588.614,279.064,589.671,277.772,589.689z"/>
	<path style="fill:#D6DBD9;stroke:#000000;stroke-miterlimit:10;" d="M291.974,589.8l-4.508,0.067
		c-1.292,0.018-2.352-1.009-2.38-2.303l-0.067-4.508c-0.018-1.292,1.009-2.352,2.303-2.38l4.508-0.067
		c1.292-0.018,2.352,1.009,2.38,2.303l0.067,4.508C294.305,588.714,293.266,589.782,291.974,589.8z"/>
	<path style="fill:#D6DBD9;stroke:#000000;stroke-miterlimit:10;" d="M280.754,602.979l-20.495,0.295
		c-1.292,0.018-2.352-1.009-2.38-2.303l-0.067-4.508c-0.018-1.292,1.009-2.352,2.303-2.38l20.495-0.295
		c1.292-0.018,2.352,1.009,2.38,2.303l0.067,4.508C283.083,601.903,282.046,602.961,280.754,602.979L280.754,602.979z"/>
	<path style="fill:#D6DBD9;stroke:#000000;stroke-miterlimit:10;" d="M292.161,602.643l-4.508,0.067
		c-1.292,0.018-2.352-1.009-2.38-2.303l-0.067-4.508c-0.018-1.292,1.009-2.352,2.303-2.38l4.508-0.067
		c1.292-0.018,2.352,1.009,2.38,2.303l0.067,4.508C294.492,601.557,293.453,602.625,292.161,602.643z"/>
</g>
<path style="opacity:0.43;fill:#5B5742;enable-background:new    ;" d="M79.74,531.7c-1.01,2.64,4.04,7.59,11.12,14.52
	c0.95,0.93,4.18,4.03,8.92,7.44c2.59,1.86,4.72,3.15,5.66,3.72c2.55,1.51,7.24,4.38,13.46,6.29c6.35,1.94,10.94,3.35,16.87,2.38
	c2.32-0.38,9.89-1.61,11.72-6.56c1.06-2.86-0.26-5.77-0.74-6.84c-6.68-14.79-63.99-28.89-67.02-20.94L79.74,531.7z"/>
<path style="fill:#EBE2B3;stroke:#000000;stroke-width:6;stroke-miterlimit:10;" d="M72.809,464.273
	c2.559-4.368,4.13-4.966,5.059-4.809c2.199,0.372,2.191,5.251,6.158,12.911c1.347,2.602,2.546,4.437,3.56,5.99
	c6.863,9.217,18.225,23.118,26.114,33.145c13.789,15.323,17.413,20.404,28.09,33.19c0.791,0.759,3.171,3.019,4.091,6.639
	c4.316,22.424-42.496-2.812-47.149-5.92c-9.341-5.89-9.221-7.76-24.331-20.13c-15.27-12.5-17.52-12.33-18.89-16.85
	c0.67-5.497,1.966-12.151,4.475-19.441C63.672,478.288,68.663,470.026,72.809,464.273z"/>
<path style="fill:#EBE2B3;stroke:#000000;stroke-width:6;stroke-miterlimit:10;" d="M215.528,620.856
	c-1.054-1.914,2.731-5.761,5.681-7.633c1.199-0.761,3.576-2.227,6.955-2.282c3.282-0.053,5.602,1.256,7.418,2.282
	c1.988,1.123,7.154,4.485,6.393,6.486c-0.497,1.307-3.17,1.104-13.144,1.549C218.708,621.71,216.242,622.152,215.528,620.856z"/>
</svg>
