<?xml version="1.0" encoding="UTF-8"?>
<svg xmlns="http://www.w3.org/2000/svg" xmlns:xlink="http://www.w3.org/1999/xlink" width="103px" height="150px" viewBox="0 0 207 299" version="1.1">
<g id="surface1">
<path style=" stroke:none;fill-rule:nonzero;fill:rgb(62.745098%,43.921569%,53.72549%);fill-opacity:1;" d="M 111.660156 54.464844 L 136.214844 54.464844 L 136.214844 75.808594 L 111.660156 75.808594 Z M 111.660156 54.464844 "/>
<path style=" stroke:none;fill-rule:nonzero;fill:rgb(55.686275%,49.803922%,50.980392%);fill-opacity:1;" d="M 105.902344 75.535156 L 141.566406 75.535156 L 141.566406 182.273438 L 105.902344 182.273438 Z M 105.902344 75.535156 "/>
<path style=" stroke:none;fill-rule:nonzero;fill:rgb(21.960784%,20.784314%,13.333333%);fill-opacity:1;" d="M 70.371094 75.398438 L 106.039062 75.398438 L 106.039062 182 L 70.371094 182 Z M 70.371094 75.398438 "/>
<path style=" stroke:none;fill-rule:nonzero;fill:rgb(21.960784%,20.784314%,13.333333%);fill-opacity:1;" d="M 105.761719 98.664062 L 142.800781 98.664062 L 142.800781 112.894531 L 105.761719 112.894531 Z M 105.761719 98.664062 "/>
<path style=" stroke:none;fill-rule:nonzero;fill:rgb(63.921569%,56.470588%,67.058824%);fill-opacity:1;" d="M 74.898438 181.863281 L 172.84375 181.863281 L 172.84375 203.894531 L 74.898438 203.894531 Z M 74.898438 181.863281 "/>
<path style=" stroke:none;fill-rule:nonzero;fill:rgb(63.921569%,56.470588%,67.058824%);fill-opacity:1;" d="M 74.898438 203.894531 L 109.605469 203.894531 L 109.605469 274.914062 L 74.898438 274.914062 Z M 74.898438 203.894531 "/>
<path style=" stroke:none;fill-rule:nonzero;fill:rgb(21.960784%,20.784314%,13.333333%);fill-opacity:1;" d="M 136.214844 274.914062 L 172.84375 274.914062 L 172.84375 299 L 136.214844 299 Z M 136.214844 274.914062 "/>
<path style=" stroke:none;fill-rule:nonzero;fill:rgb(63.529412%,36.862745%,25.098039%);fill-opacity:1;" d="M 94.925781 0 L 180.386719 0 L 180.386719 49.808594 L 94.925781 49.808594 Z M 94.925781 0 "/>
<path style=" stroke:none;fill-rule:nonzero;fill:rgb(62.745098%,43.921569%,53.72549%);fill-opacity:1;" d="M 83.402344 10.949219 L 163.652344 10.949219 L 163.652344 68.148438 L 83.402344 68.148438 Z M 83.402344 10.949219 "/>
<path style=" stroke:none;fill-rule:nonzero;fill:rgb(21.960784%,20.784314%,13.333333%);fill-opacity:1;" d="M 141.429688 75.398438 L 177.09375 75.398438 L 177.09375 182 L 141.429688 182 Z M 141.429688 75.398438 "/>
<path style=" stroke:none;fill-rule:nonzero;fill:rgb(21.960784%,20.784314%,13.333333%);fill-opacity:1;" d="M 104.664062 138.757812 L 141.703125 138.757812 L 141.703125 152.988281 L 104.664062 152.988281 Z M 104.664062 138.757812 "/>
<path style=" stroke:none;fill-rule:nonzero;fill:rgb(21.960784%,20.784314%,13.333333%);fill-opacity:1;" d="M 42.523438 86.484375 L 71.058594 86.484375 L 71.058594 157.640625 L 42.523438 157.640625 Z M 42.523438 86.484375 "/>
<path style=" stroke:none;fill-rule:nonzero;fill:rgb(21.960784%,20.784314%,13.333333%);fill-opacity:1;" d="M 172.570312 83.746094 L 201.101562 83.746094 L 201.101562 154.769531 L 172.570312 154.769531 Z M 172.570312 83.746094 "/>
<path style=" stroke:none;fill-rule:nonzero;fill:rgb(62.745098%,43.921569%,53.72549%);fill-opacity:1;" d="M 171.335938 139.578125 L 207 139.578125 L 207 175.15625 L 171.335938 175.15625 Z M 171.335938 139.578125 "/>
<path style=" stroke:none;fill-rule:nonzero;fill:rgb(63.921569%,56.470588%,67.058824%);fill-opacity:1;" d="M 138.136719 203.894531 L 172.84375 203.894531 L 172.84375 274.914062 L 138.136719 274.914062 Z M 138.136719 203.894531 "/>
<path style=" stroke:none;fill-rule:nonzero;fill:rgb(21.960784%,20.784314%,13.333333%);fill-opacity:1;" d="M 59.671875 274.503906 L 109.605469 274.503906 L 109.605469 298.589844 L 59.671875 298.589844 Z M 59.671875 274.503906 "/>
<path style=" stroke:none;fill-rule:nonzero;fill:rgb(21.960784%,20.784314%,13.333333%);fill-opacity:1;" d="M 34.429688 145.738281 L 70.371094 145.738281 L 70.371094 166.398438 L 34.429688 166.398438 Z M 34.429688 145.738281 "/>
<path style=" stroke:none;fill-rule:nonzero;fill:rgb(62.745098%,43.921569%,53.72549%);fill-opacity:1;" d="M 0 131.914062 L 35.664062 131.914062 L 35.664062 167.496094 L 0 167.496094 Z M 0 131.914062 "/>
</g>
</svg>
