<?xml version="1.0" encoding="UTF-8"?>
<svg xmlns="http://www.w3.org/2000/svg" xmlns:xlink="http://www.w3.org/1999/xlink" width="116px" height="150px" viewBox="0 0 232 299" version="1.1">
<g id="surface1">
<path style=" stroke:none;fill-rule:nonzero;fill:rgb(62.745098%,43.921569%,53.72549%);fill-opacity:1;" d="M 104.285156 54.464844 L 128.8125 54.464844 L 128.8125 75.808594 L 104.285156 75.808594 Z M 104.285156 54.464844 "/>
<path style=" stroke:none;fill-rule:nonzero;fill:rgb(55.686275%,49.803922%,50.980392%);fill-opacity:1;" d="M 98.527344 75.535156 L 134.15625 75.535156 L 134.15625 182.273438 L 98.527344 182.273438 Z M 98.527344 75.535156 "/>
<path style=" stroke:none;fill-rule:nonzero;fill:rgb(21.960784%,20.784314%,13.333333%);fill-opacity:1;" d="M 63.035156 75.398438 L 98.664062 75.398438 L 98.664062 182 L 63.035156 182 Z M 63.035156 75.398438 "/>
<path style=" stroke:none;fill-rule:nonzero;fill:rgb(21.960784%,20.784314%,13.333333%);fill-opacity:1;" d="M 98.390625 98.664062 L 135.390625 98.664062 L 135.390625 112.894531 L 98.390625 112.894531 Z M 98.390625 98.664062 "/>
<path style=" stroke:none;fill-rule:nonzero;fill:rgb(63.921569%,56.470588%,67.058824%);fill-opacity:1;" d="M 67.558594 181.863281 L 165.402344 181.863281 L 165.402344 203.894531 L 67.558594 203.894531 Z M 67.558594 181.863281 "/>
<path style=" stroke:none;fill-rule:nonzero;fill:rgb(63.921569%,56.470588%,67.058824%);fill-opacity:1;" d="M 67.558594 203.894531 L 102.226562 203.894531 L 102.226562 274.914062 L 67.558594 274.914062 Z M 67.558594 203.894531 "/>
<path style=" stroke:none;fill-rule:nonzero;fill:rgb(21.960784%,20.784314%,13.333333%);fill-opacity:1;" d="M 130.730469 274.914062 L 165.402344 274.914062 L 165.402344 299 L 130.730469 299 Z M 130.730469 274.914062 "/>
<path style=" stroke:none;fill-rule:nonzero;fill:rgb(63.529412%,36.862745%,25.098039%);fill-opacity:1;" d="M 73.726562 0 L 159.097656 0 L 159.097656 49.808594 L 73.726562 49.808594 Z M 73.726562 0 "/>
<path style=" stroke:none;fill-rule:nonzero;fill:rgb(62.745098%,43.921569%,53.72549%);fill-opacity:1;" d="M 76.054688 10.949219 L 156.21875 10.949219 L 156.21875 68.148438 L 76.054688 68.148438 Z M 76.054688 10.949219 "/>
<path style=" stroke:none;fill-rule:nonzero;fill:rgb(21.960784%,20.784314%,13.333333%);fill-opacity:1;" d="M 134.019531 75.398438 L 169.648438 75.398438 L 169.648438 182 L 134.019531 182 Z M 134.019531 75.398438 "/>
<path style=" stroke:none;fill-rule:nonzero;fill:rgb(21.960784%,20.784314%,13.333333%);fill-opacity:1;" d="M 97.292969 138.757812 L 134.292969 138.757812 L 134.292969 152.988281 L 97.292969 152.988281 Z M 97.292969 138.757812 "/>
<path style=" stroke:none;fill-rule:nonzero;fill:rgb(21.960784%,20.784314%,13.333333%);fill-opacity:1;" d="M 38.234375 86.484375 L 66.734375 86.484375 L 66.734375 157.503906 L 38.234375 157.503906 Z M 38.234375 86.484375 "/>
<path style=" stroke:none;fill-rule:nonzero;fill:rgb(63.921569%,56.470588%,67.058824%);fill-opacity:1;" d="M 130.730469 203.894531 L 165.402344 203.894531 L 165.402344 274.914062 L 130.730469 274.914062 Z M 130.730469 203.894531 "/>
<path style=" stroke:none;fill-rule:nonzero;fill:rgb(21.960784%,20.784314%,13.333333%);fill-opacity:1;" d="M 67.558594 274.503906 L 102.226562 274.503906 L 102.226562 298.589844 L 67.558594 298.589844 Z M 67.558594 274.503906 "/>
<path style=" stroke:none;fill-rule:nonzero;fill:rgb(21.960784%,20.784314%,13.333333%);fill-opacity:1;" d="M 30.695312 145.738281 L 66.460938 145.738281 L 66.460938 166.398438 L 30.695312 166.398438 Z M 30.695312 145.738281 "/>
<path style=" stroke:none;fill-rule:nonzero;fill:rgb(62.745098%,43.921569%,53.72549%);fill-opacity:1;" d="M 0 135.199219 L 35.628906 135.199219 L 35.628906 170.777344 L 0 170.777344 Z M 0 135.199219 "/>
<path style=" stroke:none;fill-rule:nonzero;fill:rgb(21.960784%,20.784314%,13.333333%);fill-opacity:1;" d="M 193.765625 84.707031 L 165.265625 84.707031 L 165.265625 155.863281 L 193.765625 155.863281 Z M 193.765625 84.707031 "/>
<path style=" stroke:none;fill-rule:nonzero;fill:rgb(21.960784%,20.784314%,13.333333%);fill-opacity:1;" d="M 201.304688 143.957031 L 165.539062 143.957031 L 165.539062 164.757812 L 201.304688 164.757812 Z M 201.304688 143.957031 "/>
<path style=" stroke:none;fill-rule:nonzero;fill:rgb(62.745098%,43.921569%,53.72549%);fill-opacity:1;" d="M 232 133.558594 L 196.371094 133.558594 L 196.371094 169.136719 L 232 169.136719 Z M 232 133.558594 "/>
</g>
</svg>
