<svg width="1693" height="2185" xmlns="http://www.w3.org/2000/svg" xmlns:xlink="http://www.w3.org/1999/xlink" xml:space="preserve" overflow="hidden"><g transform="translate(-1346 -145)"><rect x="2107" y="543" width="179" height="156" fill="#A07089"/><rect x="2065" y="697" width="260" height="780" fill="#8E7F82"/><rect x="1806" y="696" width="260" height="779" fill="#383522"/><rect x="2064" y="866" width="270" height="104" fill="#383522"/><rect x="1839" y="1474" width="714" height="161" fill="#A390AB"/><rect x="1839" y="1635" width="253" height="519" fill="#A390AB"/><rect x="2300" y="2154" width="253" height="176" fill="#383522"/><rect x="1884" y="145" width="623" height="364" fill="#A25E40"/><rect x="1901" y="225" width="585" height="418" fill="#A07089"/><rect x="2324" y="696" width="260" height="779" fill="#383522"/><rect x="2056" y="1159" width="270" height="104" fill="#383522"/><rect x="1625" y="777" width="208" height="519" fill="#383522"/><rect x="2300" y="1635" width="253" height="519" fill="#A390AB"/><rect x="1839" y="2151" width="253" height="176" fill="#383522"/><rect x="1570" y="1210" width="261" height="151" fill="#383522"/><rect x="1346" y="1133" width="260" height="260" fill="#A07089"/><rect x="0" y="0" width="208" height="520" fill="#383522" transform="matrix(-1 0 0 1 2760 764)"/><rect x="0" y="0" width="261" height="152" fill="#383522" transform="matrix(-1 0 0 1 2815 1197)"/><rect x="0" y="0" width="260" height="260" fill="#A07089" transform="matrix(-1 0 0 1 3039 1121)"/></g></svg>