<?xml version="1.0" encoding="UTF-8"?>
<svg xmlns="http://www.w3.org/2000/svg" xmlns:xlink="http://www.w3.org/1999/xlink" width="103px" height="150px" viewBox="0 0 207 299" version="1.1">
<g id="surface1">
<path style=" stroke:none;fill-rule:nonzero;fill:rgb(62.745098%,43.921569%,53.72549%);fill-opacity:1;" d="M 95.339844 54.464844 L 70.921875 54.464844 L 70.921875 75.808594 L 95.339844 75.808594 Z M 95.339844 54.464844 "/>
<path style=" stroke:none;fill-rule:nonzero;fill:rgb(55.686275%,49.803922%,50.980392%);fill-opacity:1;" d="M 101.097656 75.535156 L 65.433594 75.535156 L 65.433594 182.273438 L 101.097656 182.273438 Z M 101.097656 75.535156 "/>
<path style=" stroke:none;fill-rule:nonzero;fill:rgb(21.960784%,20.784314%,13.333333%);fill-opacity:1;" d="M 136.628906 75.398438 L 100.960938 75.398438 L 100.960938 182 L 136.628906 182 Z M 136.628906 75.398438 "/>
<path style=" stroke:none;fill-rule:nonzero;fill:rgb(21.960784%,20.784314%,13.333333%);fill-opacity:1;" d="M 101.238281 98.664062 L 64.199219 98.664062 L 64.199219 112.894531 L 101.238281 112.894531 Z M 101.238281 98.664062 "/>
<path style=" stroke:none;fill-rule:nonzero;fill:rgb(63.921569%,56.470588%,67.058824%);fill-opacity:1;" d="M 132.101562 181.863281 L 34.15625 181.863281 L 34.15625 203.894531 L 132.101562 203.894531 Z M 132.101562 181.863281 "/>
<path style=" stroke:none;fill-rule:nonzero;fill:rgb(63.921569%,56.470588%,67.058824%);fill-opacity:1;" d="M 132.101562 203.894531 L 97.394531 203.894531 L 97.394531 274.914062 L 132.101562 274.914062 Z M 132.101562 203.894531 "/>
<path style=" stroke:none;fill-rule:nonzero;fill:rgb(21.960784%,20.784314%,13.333333%);fill-opacity:1;" d="M 70.921875 274.914062 L 34.15625 274.914062 L 34.15625 299 L 70.921875 299 Z M 70.921875 274.914062 "/>
<path style=" stroke:none;fill-rule:nonzero;fill:rgb(63.529412%,36.862745%,25.098039%);fill-opacity:1;" d="M 112.210938 0 L 26.613281 0 L 26.613281 49.808594 L 112.210938 49.808594 Z M 112.210938 0 "/>
<path style=" stroke:none;fill-rule:nonzero;fill:rgb(62.745098%,43.921569%,53.72549%);fill-opacity:1;" d="M 123.597656 10.949219 L 43.347656 10.949219 L 43.347656 68.148438 L 123.597656 68.148438 Z M 123.597656 10.949219 "/>
<path style=" stroke:none;fill-rule:nonzero;fill:rgb(21.960784%,20.784314%,13.333333%);fill-opacity:1;" d="M 65.570312 75.398438 L 29.90625 75.398438 L 29.90625 182 L 65.570312 182 Z M 65.570312 75.398438 "/>
<path style=" stroke:none;fill-rule:nonzero;fill:rgb(21.960784%,20.784314%,13.333333%);fill-opacity:1;" d="M 102.335938 138.757812 L 65.296875 138.757812 L 65.296875 152.988281 L 102.335938 152.988281 Z M 102.335938 138.757812 "/>
<path style=" stroke:none;fill-rule:nonzero;fill:rgb(21.960784%,20.784314%,13.333333%);fill-opacity:1;" d="M 164.613281 86.484375 L 136.078125 86.484375 L 136.078125 157.640625 L 164.613281 157.640625 Z M 164.613281 86.484375 "/>
<path style=" stroke:none;fill-rule:nonzero;fill:rgb(21.960784%,20.784314%,13.333333%);fill-opacity:1;" d="M 34.429688 83.746094 L 5.898438 83.746094 L 5.898438 154.769531 L 34.429688 154.769531 Z M 34.429688 83.746094 "/>
<path style=" stroke:none;fill-rule:nonzero;fill:rgb(62.745098%,43.921569%,53.72549%);fill-opacity:1;" d="M 35.664062 139.578125 L 0 139.578125 L 0 175.15625 L 35.664062 175.15625 Z M 35.664062 139.578125 "/>
<path style=" stroke:none;fill-rule:nonzero;fill:rgb(63.921569%,56.470588%,67.058824%);fill-opacity:1;" d="M 68.863281 203.894531 L 34.15625 203.894531 L 34.15625 274.914062 L 68.863281 274.914062 Z M 68.863281 203.894531 "/>
<path style=" stroke:none;fill-rule:nonzero;fill:rgb(21.960784%,20.784314%,13.333333%);fill-opacity:1;" d="M 147.328125 274.503906 L 97.394531 274.503906 L 97.394531 298.589844 L 147.328125 298.589844 Z M 147.328125 274.503906 "/>
<path style=" stroke:none;fill-rule:nonzero;fill:rgb(21.960784%,20.784314%,13.333333%);fill-opacity:1;" d="M 172.570312 145.738281 L 136.628906 145.738281 L 136.628906 166.398438 L 172.570312 166.398438 Z M 172.570312 145.738281 "/>
<path style=" stroke:none;fill-rule:nonzero;fill:rgb(62.745098%,43.921569%,53.72549%);fill-opacity:1;" d="M 207 131.914062 L 171.335938 131.914062 L 171.335938 167.496094 L 207 167.496094 Z M 207 131.914062 "/>
</g>
</svg>
