<svg width="1509" height="2185" xmlns="http://www.w3.org/2000/svg" xmlns:xlink="http://www.w3.org/1999/xlink" xml:space="preserve" overflow="hidden"><g transform="translate(-1585 -145)"><rect x="0" y="0" width="178" height="156" fill="#A07089" transform="matrix(-1 0 0 1 2280 543)"/><rect x="0" y="0" width="260" height="780" fill="#8E7F82" transform="matrix(-1 0 0 1 2322 697)"/><rect x="0" y="0" width="260" height="779" fill="#383522" transform="matrix(-1 0 0 1 2581 696)"/><rect x="0" y="0" width="270" height="104" fill="#383522" transform="matrix(-1 0 0 1 2323 866)"/><rect x="0" y="0" width="714" height="161" fill="#A390AB" transform="matrix(-1 0 0 1 2548 1474)"/><rect x="0" y="0" width="253" height="519" fill="#A390AB" transform="matrix(-1 0 0 1 2548 1635)"/><rect x="0" y="0" width="268" height="176" fill="#383522" transform="matrix(-1 0 0 1 2102 2154)"/><rect x="0" y="0" width="624" height="364" fill="#A25E40" transform="matrix(-1 0 0 1 2403 145)"/><rect x="0" y="0" width="585" height="418" fill="#A07089" transform="matrix(-1 0 0 1 2486 225)"/><rect x="0" y="0" width="260" height="779" fill="#383522" transform="matrix(-1 0 0 1 2063 696)"/><rect x="0" y="0" width="270" height="104" fill="#383522" transform="matrix(-1 0 0 1 2331 1159)"/><rect x="0" y="0" width="208" height="520" fill="#383522" transform="matrix(-1 0 0 1 2785 777)"/><rect x="0" y="0" width="208" height="519" fill="#383522" transform="matrix(-1 0 0 1 1836 757)"/><rect x="0" y="0" width="260" height="260" fill="#A07089" transform="matrix(-1 0 0 1 1845 1165)"/><rect x="0" y="0" width="253" height="519" fill="#A390AB" transform="matrix(-1 0 0 1 2087 1635)"/><rect x="0" y="0" width="364" height="176" fill="#383522" transform="matrix(-1 0 0 1 2659 2151)"/><rect x="0" y="0" width="262" height="151" fill="#383522" transform="matrix(-1 0 0 1 2843 1210)"/><rect x="0" y="0" width="260" height="260" fill="#A07089" transform="matrix(-1 0 0 1 3094 1109)"/></g></svg>