<svg width="2792" height="1242" xmlns="http://www.w3.org/2000/svg" xmlns:xlink="http://www.w3.org/1999/xlink" xml:space="preserve" overflow="hidden"><g transform="translate(-741 -321)"><path d="M1991.36 335C2130.82 335 2257.08 390.398 2348.47 479.963L2394.51 481.16C2575.36 481.16 2730.52 588.915 2796.8 742.485L2819.5 795.238C2924.81 805.719 3017.59 857.735 3080.52 934.308L3094.9 954.903 3119.86 948.614C3141.48 944.277 3163.88 942 3186.81 942 3370.27 942 3519 1087.75 3519 1267.55 3519 1379.92 3460.9 1479 3372.54 1537.5L3353.22 1549C3353.22 1549 3353.22 1549 3353.22 1549L3020.39 1549C3020.39 1549 3020.39 1549 3020.39 1549L2780.08 1549 1196.07 1549C1196.07 1549 1196.07 1549 1196.07 1549L951.785 1549 949.786 1548.28C835.318 1500.38 755 1388.24 755 1257.54 755 1126.84 835.318 1014.7 949.785 966.796L972.804 958.461 990.56 902.404C1056.84 748.834 1212.01 641.079 1392.85 641.079 1422.99 641.079 1452.42 644.073 1480.84 649.772L1519.01 659.39 1526.01 637.283C1602.68 459.644 1782.17 335 1991.36 335Z" stroke="#000000" stroke-width="27.5" stroke-miterlimit="8" fill="none" fill-rule="evenodd"/></g></svg>