<svg width="2848" height="1604" xmlns="http://www.w3.org/2000/svg" xmlns:xlink="http://www.w3.org/1999/xlink" xml:space="preserve" overflow="hidden"><defs><clipPath id="clip0"><rect x="777" y="435" width="2848" height="1604"/></clipPath></defs><g clip-path="url(#clip0)" transform="translate(-777 -435)"><path d="M1333.21 1733.61 1333.28 1733.75 1333.19 1733.61ZM2262.87 1732.08 2264.42 1734.16C2265.42 1736.74 2265.66 1739.49 2265.66 1742.21L2265.49 1916.27 2270.78 1914.27C2285.8 1913.85 2300.82 1913.85 2315.84 1914.27L2323.47 1917.12 2322.48 1916.12C2320.34 1911.21 2320.79 1906.02 2320.79 1900.9 2320.76 1850.13 2320.72 1799.36 2320.79 1748.6 2320.79 1745.73 2320.58 1742.78 2320.9 1739.94L2323.65 1733.3 2323.37 1733.58C2304.98 1736.81 2286.49 1735.16 2268.03 1734.64ZM2385.48 1671.36 2366.15 1673.74C2359.49 1673.67 2352.81 1673.12 2346.16 1673.29 2327.67 1673.77 2327.91 1673.43 2327.56 1691.92 2327.32 1704.88 2329.25 1717.94 2326.08 1730.83L2325.53 1731.39 2330.52 1729.1C2332.83 1728.72 2335.25 1728.78 2337.63 1728.77 2349.56 1728.63 2361.52 1728.7 2373.45 1728.73 2379.91 1728.73 2382.7 1725.91 2382.66 1719.49 2382.66 1707.56 2382.59 1695.63 2382.7 1683.71 2382.73 1681.33 2382.68 1678.93 2383.06 1676.62ZM1765.85 1670.69 1769 1678.42C1769.32 1681.26 1769.1 1684.2 1769.12 1687.07 1769.19 1736.81 1769.12 1786.54 1769.19 1836.31 1769.19 1852.19 1769.46 1852.4 1785.24 1852.43 1795.21 1852.47 1805.14 1852.36 1815.11 1852.5 1817.34 1852.52 1819.59 1852.54 1821.72 1852.96L1827.23 1855.63 1826.14 1854.63C1823.8 1849.44 1824.39 1843.88 1824.39 1838.44 1824.32 1788.81 1824.39 1739.18 1824.35 1689.55 1824.35 1673.81 1824.01 1673.81 1808.27 1673.43 1794.62 1673.08 1780.87 1675.01 1767.33 1672.02ZM1580.28 1546.87 1580.41 1547.05 1580.34 1547.01ZM2201.2 1546.82 2202.28 1547.9C2204.41 1553.16 2203.86 1558.7 2203.86 1564.13 2203.93 1613.76 2203.86 1663.36 2203.89 1712.99 2203.89 1728.22 2204.44 1728.59 2219.26 1728.8 2232.25 1729.01 2245.28 1728.08 2258.27 1729.42 2259.61 1729.73 2260.85 1730.24 2262.02 1730.93L2262.55 1731.65 2259.8 1725.03C2259.54 1722.52 2259.76 1719.92 2259.75 1717.39 2259.68 1666.69 2259.75 1615.99 2259.64 1565.3 2259.64 1560.66 2260.95 1555.57 2256.72 1551.82 2243.73 1547.73 2230.39 1550.93 2217.3 1549.97 2214.46 1549.76 2211.55 1549.98 2208.73 1549.73ZM2137.85 1485.57 2139.78 1507.54C2139.65 1514.99 2139.17 1522.45 2139.65 1529.89 2139.93 1534.16 2138.31 1538.9 2142.67 1542.13 2152.4 1545.12 2162.37 1542.96 2172.17 1543.57 2181.31 1544.16 2190.59 1542.27 2199.6 1545.19L2200.67 1546.28 2197.85 1539.8C2197.51 1537.31 2197.64 1534.72 2197.6 1532.2 2197.5 1521.27 2197.29 1510.3 2197.64 1499.37 2197.91 1490.88 2194.27 1488.1 2186.05 1488.03 2170.69 1487.93 2155.29 1489.47 2139.99 1487ZM1085.59 1423.21 1085.67 1423.23 1085.73 1423.38ZM1456.71 1423.17 1456.95 1423.34 1456.75 1423.25ZM2942.52 1423.14 2942.34 1423.31 2942.4 1423.19ZM2075.54 1361.55 2076.47 1362.47C2078.57 1367.39 2078.09 1372.58 2078.12 1377.7 2078.19 1407.88 2078.06 1438.09 2078.19 1468.27 2078.23 1480.81 2079.12 1481.36 2091.7 1481.77 2106.07 1482.26 2120.5 1480.3 2134.84 1483.01L2136.72 1484.44 2133.82 1477.52C2133.49 1474.86 2133.65 1472.1 2133.64 1469.4 2133.57 1439.02 2133.64 1408.63 2133.57 1378.25 2133.53 1365.53 2132.78 1364.84 2120.33 1364.71 2109.75 1364.6 2099.16 1364.74 2088.57 1364.64 2086.18 1364.62 2083.77 1364.65 2081.46 1364.26ZM3004.42 1361.48 3004.25 1361.65 3004.3 1361.53ZM3066.22 1299.74 3066.05 1299.92 3066.1 1299.8ZM1209.44 1299.57 1209.64 1299.74 1209.48 1299.68ZM1085.8 1238.77 1086.01 1239.08 1085.88 1238.99ZM3127.99 1237.98 3127.82 1238.19 3127.9 1238.02ZM1964.21 1181.2C1957.92 1180.89 1954.52 1182.99 1954.52 1189.76 1954.45 1222.31 1954.49 1254.82 1954.52 1287.34 1954.52 1293.97 1957.79 1296.38 1964.04 1296.38 1976.04 1296.38 1988.03 1296.27 2000.03 1296.45 2004.43 1296.51 2009.04 1296.03 2012.75 1299.3 2016.39 1302.77 2015.91 1307.34 2015.94 1311.71 2016.01 1323.25 2015.94 1334.8 2015.98 1346.32 2015.98 1350 2015.36 1353.91 2018.9 1356.59 2027.22 1359.86 2035.85 1357.66 2044.27 1358.24 2054.1 1358.93 2064.07 1356.9 2073.79 1359.83L2074.91 1360.92 2072.32 1355.48C2071.91 1353.34 2071.9 1351.1 2071.87 1348.86 2071.77 1338.24 2071.87 1327.62 2071.8 1317 2071.73 1303.46 2071.28 1303.01 2058.15 1302.87 2047.88 1302.8 2037.6 1303.04 2027.32 1302.77 2025.16 1302.72 2022.89 1302.86 2020.78 1302.46L2015.59 1299.17 2014.91 1300.09C2013.54 1299.99 2012.51 1299.33 2011.82 1298.13 2009.17 1293.39 2009.86 1288.13 2009.83 1283.04 2009.76 1254.62 2009.83 1226.19 2009.79 1197.77 2009.79 1181.51 2009.69 1181.47 1992.98 1181.4 1983.39 1181.4 1973.77 1181.68 1964.21 1181.2ZM899.793 1177.16 880.194 1179.49C873.569 1179.41 866.917 1178.88 860.318 1179.14 847.532 1179.65 847.532 1179.31 847.601 1192.4 847.669 1202.99 847.875 1213.54 847.566 1224.13 847.326 1232.17 850.866 1234.85 858.565 1234.92 871.489 1235.02 884.482 1233.79 897.406 1235.78L899.927 1237.47 897.131 1230.28C896.615 1214.99 896.684 1199.72 897.062 1184.43ZM3251.66 1176.21 3251.49 1176.39 3251.52 1176.28ZM3004.28 1176.01 3004.26 1176.13 3004.04 1176.21ZM2508.87 1115.49 2504.37 1117.04C2502.43 1117.28 2500.44 1117.23 2498.46 1117.27 2487.84 1117.89 2477.22 1117.47 2466.63 1117.54 2451.72 1117.68 2451.34 1117.96 2451.34 1133.32 2451.3 1161.4 2451.34 1189.48 2451.34 1217.53 2451.34 1221.65 2451.41 1225.74 2450.99 1229.83 2451.1 1237.81 2446.35 1240.66 2439.24 1240.94 2428.27 1241.35 2417.31 1241.07 2406.31 1241.14 2389.64 1241.24 2389.57 1241.21 2389.57 1257.5 2389.57 1305.14 2389.57 1352.78 2389.57 1400.38 2389.57 1417.75 2380.79 1426.45 2363.24 1426.47 2354.68 1426.47 2346.09 1426.47 2337.53 1426.54 2331.38 1426.57 2327.87 1428.91 2327.84 1435.58 2327.7 1468.47 2327.73 1501.37 2327.84 1534.26 2327.84 1540.86 2331.1 1543.33 2337.36 1543.37 2350.04 1543.44 2362.73 1543.09 2375.41 1543.54 2386.48 1543.95 2388.02 1545.6 2389.3 1556.77 2389.91 1591.25 2389.5 1625.72 2389.5 1660.2 2389.5 1662.94 2389.26 1665.66 2388.3 1668.24L2387.18 1669.7 2391.86 1667.47C2394 1667.05 2396.24 1667.04 2398.47 1667 2409.09 1666.9 2419.71 1667 2430.34 1666.93 2443.95 1666.86 2444.33 1666.49 2444.43 1653.29 2444.53 1641.98 2444.19 1630.67 2444.57 1619.36 2444.94 1607.92 2447.32 1605.61 2458.73 1605.27 2469.69 1604.93 2480.66 1605.27 2491.62 1605.13 2495.71 1605.1 2499.9 1605.58 2503.62 1603.28 2507.67 1599.81 2506.54 1595.1 2506.57 1590.73 2506.68 1581.14 2506.33 1571.52 2506.68 1561.93 2506.95 1554.78 2503.82 1552.13 2497.02 1552.06 2480.18 1551.93 2463.37 1552.06 2446.56 1551.99 2431.44 1551.93 2416.35 1552.37 2401.22 1551.79 2388.4 1551.27 2383.04 1546.12 2382.8 1533.23 2382.25 1501.68 2382.28 1470.09 2382.8 1438.54 2383.01 1425.03 2388.16 1420.46 2402.01 1419.91 2411.6 1419.53 2421.23 1419.91 2430.85 1419.73 2443.02 1419.49 2444.29 1418.39 2444.33 1405.92 2444.5 1360.27 2444.36 1314.66 2444.39 1269.02 2444.39 1263.17 2444.22 1257.33 2444.5 1251.52 2445.12 1239.25 2449.24 1235.09 2461.75 1234.61 2472.37 1234.2 2483.03 1234.65 2493.68 1234.4 2504.75 1234.16 2506.02 1233.03 2506.13 1221.79 2506.37 1191.27 2506.13 1160.71 2506.26 1130.19 2506.26 1127.49 2506.03 1124.72 2506.29 1122.03ZM3437.13 1114.42 3436.96 1114.59 3436.99 1114.47ZM900.19 1114.11C900.19 1114.11 900.396 1114.28 900.396 1114.28L900.264 1114.28ZM902.565 1106.28 902.596 1106.75 902.527 1106.78ZM3560.8 1052.65 3560.6 1052.82 3560.62 1052.73ZM3375.12 990.644 3375.08 990.809 3374.92 990.885ZM2632.6 868.564 2627.17 869.971C2625.27 870.147 2623.34 870.122 2621.41 870.208 2610.45 870.723 2599.48 870.311 2588.52 870.448 2575.9 870.62 2575.04 871.377 2574.94 883.853 2574.66 916.059 2575.25 948.265 2574.66 980.47 2573.5 991.779 2571.95 993.463 2560.98 993.875 2548.99 994.322 2536.99 993.875 2525 994.082 2514.31 994.288 2513.24 995.216 2513.17 1005.97 2513 1037.15 2513.17 1068.32 2513.1 1099.5 2513.1 1103.59 2513.28 1107.75 2512.07 1111.73L2511.26 1113.04 2515.92 1109.93C2518.3 1109.22 2520.89 1109.05 2523.52 1109.02 2533.49 1108.85 2543.42 1109.02 2553.39 1108.92 2568.58 1108.74 2570.02 1107.47 2570.09 1092.52 2570.23 1065.75 2570.09 1039 2570.13 1012.23 2570.13 1008.45 2569.99 1004.67 2570.3 1000.92 2571.16 990.369 2575.11 986.245 2585.8 985.592 2596.08 984.973 2606.39 985.523 2616.7 985.317 2628.53 985.076 2629.76 984.045 2629.83 972.29 2630 942.456 2629.83 912.587 2629.93 882.753 2629.93 880.038 2629.75 877.262 2630.08 874.59ZM2693.37 561.405 2687.6 563.352C2680.35 564.684 2672.84 563.247 2665.54 563.376 2637.84 563.926 2640.83 561.177 2640.59 588.192 2640.52 595.032 2640.73 601.872 2640.45 608.712 2640.37 610.774 2640.26 612.845 2639.66 614.718L2637.21 617.904 2656.84 616.759C2663.5 616.815 2670.17 617.098 2676.82 616.961 2691.98 616.686 2691.74 616.823 2692.11 601.287 2692.27 594.465 2691.89 587.634 2691.83 580.811ZM2806.3 503.742C2774.78 503.983 2743.23 503.914 2711.71 503.777 2703.22 503.777 2700.16 507.455 2700.36 515.6 2700.64 525.533 2700.5 535.467 2700.36 545.401 2700.33 547.6 2700.41 549.851 2700.08 552.008L2698.11 556.337 2707.72 555.058C2740.75 554.989 2773.78 554.989 2806.81 555.058 2810.22 555.058 2813.62 555.093 2816.89 556.33L2818.72 557.745 2815.61 544.747C2815.48 534.126 2815.51 523.506 2815.58 512.885 2815.61 506.423 2812.86 503.708 2806.3 503.742ZM2835.14 441.839C2826.58 441.771 2823.38 445.071 2823.66 453.388 2824 463.665 2823.66 473.977 2823.76 484.254 2823.79 487.588 2823.24 491.403 2827.88 492.503 2840.84 494.049 2853.8 492.881 2866.76 493.224 2881.57 493.637 2884.01 495.699 2883.77 510.754 2883.5 526.015 2885.73 541.413 2882.23 556.571 2880.44 560.008 2877.17 561.073 2873.74 561.211 2857.86 561.967 2841.94 561.864 2826.06 561.279L2820.02 558.765 2822.44 588.768C2822.39 598.787 2821.63 608.815 2820.56 618.851L2820.52 618.901 2825.1 615.831C2827.48 615.114 2830.07 614.95 2832.7 614.899 2843.7 614.692 2854.69 614.658 2865.66 614.864 2873.84 615.036 2877.62 611.84 2877.41 603.384 2877.17 593.107 2877.1 582.796 2877.48 572.519 2877.93 559.802 2883.77 553.855 2896.66 553.34 2908.31 552.859 2920.04 552.927 2931.69 553.34 2938.63 553.546 2941.66 551.415 2941.62 544.094 2941.45 513.194 2941.48 482.329 2941.62 451.429 2941.62 444.452 2939.22 441.806 2931.96 441.839 2899.69 442.114 2867.41 442.149 2835.14 441.839ZM2829.67 435C2865.04 435.172 2900.41 435.172 2935.78 435 2944.23 435 2947.29 439.022 2947.26 447.064 2947.12 480.679 2947.09 514.329 2947.26 547.944 2947.33 556.846 2943.44 560.249 2934.78 560.077 2921.41 559.802 2908.01 560.249 2894.6 559.939 2886.15 559.733 2882.91 563.342 2883.19 571.66 2883.57 583.999 2882.95 596.372 2883.36 608.712 2883.67 618.198 2879.1 621.773 2870.33 621.738 2856.58 621.738 2842.87 622.013 2829.12 621.67 2822.8 621.532 2820.98 623.629 2821.25 629.988 2821.8 643.358 2821.08 656.763 2821.53 670.133 2821.83 679.757 2818.19 684.019 2808.29 683.641 2795.95 683.195 2783.58 683.813 2771.2 683.435 2764.09 683.228 2761.34 685.807 2761.55 692.99 2761.89 706.704 2761.48 720.453 2761.65 734.167 2761.79 743.275 2757.42 747.4 2748.52 747.365 2735.11 747.331 2721.71 747.743 2708.34 747.262 2700.29 746.953 2697.48 749.703 2697.58 757.848 2697.92 790.089 2697.75 822.363 2697.72 854.603 2697.72 868.283 2697.1 869.245 2682.97 868.764 2668.74 868.249 2654.34 871.17 2640.28 867.011L2640.32 867.011C2654.85 864.124 2669.53 865.98 2684.14 865.911 2692.49 865.911 2695.48 863.54 2695.34 854.844 2694.9 822.294 2695.45 789.745 2695 757.195 2694.86 747.331 2698.27 743.619 2708.17 744.1 2720.82 744.684 2733.57 743.825 2746.22 744.375 2756.22 744.822 2759.59 740.629 2759.21 730.97 2758.66 717.634 2759.28 704.264 2759.04 690.893 2758.9 683.538 2761.92 680.238 2769.42 680.376 2781.76 680.616 2794.13 679.998 2806.44 680.548 2815.61 680.96 2819.5 678.141 2819.05 668.346L2818.75 620.739 2817.88 621.635C2804 625.072 2789.9 622.838 2775.88 623.251 2760.72 623.698 2760.41 623.732 2760.31 638.924 2760.24 649.889 2760.62 660.887 2760.14 671.852 2759.69 682.198 2757.39 684.535 2747.14 684.947 2734.8 685.428 2722.43 685.325 2710.09 685.016 2701.84 684.81 2698.23 687.869 2698.44 696.358 2698.75 708.697 2698.75 721.071 2698.37 733.41 2698.2 738.566 2698.03 743.962 2691.67 745.956 2678.09 747.881 2664.41 746.54 2650.76 746.85 2637.43 747.159 2636.74 747.571 2636.71 760.632 2636.6 789.642 2636.71 818.617 2636.67 847.626 2636.67 852.404 2636.84 857.181 2636.19 861.924 2636.05 863.23 2635.74 864.468 2635.3 865.671L2633.92 867.217 2637.08 867.217 2637.22 867.252C2635.43 870.792 2635.88 874.573 2635.88 878.354 2635.88 911.969 2635.68 945.618 2636.02 979.233 2636.12 989.029 2632.31 992.913 2622.58 992.535 2610.58 992.088 2598.52 992.844 2586.52 992.294 2578.24 991.916 2575.9 995.181 2575.97 1003.09 2576.31 1034.3 2576.11 1065.54 2576.11 1096.78 2576.11 1114.21 2574.29 1115.96 2556.41 1116 2545.07 1116 2533.73 1116.34 2522.42 1115.89 2514.89 1115.58 2511.76 1117.1 2511.94 1125.9 2512.59 1159.85 2512.24 1193.85 2512.18 1227.81 2512.18 1239.8 2510.39 1241.52 2498.46 1241.59 2486.09 1241.69 2473.71 1242.04 2461.37 1241.49 2452.75 1241.07 2450.17 1244.23 2450.2 1252.72 2450.51 1304.87 2450.37 1357.04 2450.34 1409.22 2450.34 1425.58 2448.97 1426.92 2432.84 1426.99 2421.5 1426.99 2410.16 1427.3 2398.85 1426.92 2391.15 1426.68 2388.47 1430.18 2388.47 1437.4 2388.57 1469.99 2388.54 1502.6 2388.54 1535.19 2388.54 1541.06 2390.22 1545.12 2397.27 1545.12 2432.98 1545.15 2468.66 1545.33 2504.37 1545.6 2510.84 1545.64 2509.29 1541.03 2509.32 1537.73 2509.53 1523.67 2509.74 1509.58 2509.32 1495.52 2509.08 1486.79 2512.28 1482.94 2521.28 1483.25 2535 1483.66 2548.82 1482.57 2562.46 1483.66 2571.43 1484.39 2573.26 1480.4 2573.26 1473.28 2573.32 1460.6 2573.56 1447.88 2573.26 1435.2 2573.05 1426.85 2576.35 1423.34 2584.8 1423.55 2598.17 1423.89 2611.61 1423.31 2624.99 1423.76 2632.58 1424.03 2635.47 1421.32 2635.3 1413.69 2634.95 1399.97 2635.54 1386.22 2635.12 1372.51 2634.82 1362.99 2639.15 1359.55 2648.12 1359.72 2661.18 1359.96 2674.27 1359.17 2687.23 1360.1 2693.7 1360.55 2695.07 1358.62 2695.04 1353.05 2694.9 1340.03 2694.97 1326.97 2695.04 1313.94 2695.1 1302.18 2697.03 1300.16 2708.82 1300.12 2741.78 1300.02 2774.74 1299.85 2807.71 1300.23 2816.16 1300.33 2819.29 1297.85 2818.88 1289.19 2818.26 1276.89 2818.67 1264.48 2818.74 1252.14 2818.81 1239.22 2819.7 1238.36 2833.04 1238.32 2846.1 1238.29 2859.13 1238.08 2872.19 1238.36 2878.34 1238.5 2880.75 1236.23 2880.65 1229.97 2880.37 1215.23 2880.75 1200.45 2880.54 1185.7 2880.44 1178.45 2883.67 1174.6 2890.85 1174.56 2926.22 1174.46 2961.59 1174.5 2996.96 1174.56 2998.51 1174.56 3000.09 1175.73 3001.64 1176.35 2999.5 1183.19 2993.56 1181.27 2989.06 1181.3 2960.29 1181.61 2931.52 1181.4 2902.75 1181.47 2886.59 1181.51 2886.01 1182.09 2885.94 1198.18 2885.94 1207.42 2885.9 1216.67 2886.01 1225.92 2886.08 1231.9 2888.89 1234.58 2894.84 1234.61 2927.39 1234.75 2959.94 1234.75 2992.46 1234.61 2998.61 1234.61 3000.91 1231.48 3000.95 1225.67 3001.02 1214.02 3000.95 1202.41 3000.98 1190.75L3004.26 1176.13 3010.65 1173.51C3012.96 1173.08 3015.37 1173.02 3017.79 1173.02 3029.41 1172.98 3041.06 1172.88 3052.68 1173.02 3060.14 1173.12 3063.13 1169.82 3062.92 1162.5 3062.68 1152.26 3062.75 1141.98 3062.92 1131.74 3063.02 1125 3060.41 1121.63 3053.3 1121.7 3042.02 1121.84 3030.71 1121.74 3019.44 1121.7 3012.53 1121.7 3009.61 1124.97 3009.54 1131.7 3009.47 1141.95 3009.82 1152.22 3009.3 1162.47 3009.09 1166.38 3010.85 1171.61 3004.73 1173.26 3004.59 1157.17 3004.56 1141.09 3004.25 1125 3004.11 1117.47 3007.65 1114.55 3014.94 1114.69 3026.59 1114.9 3038.28 1114.83 3049.93 1114.69 3068.39 1114.52 3065.91 1116.58 3066.08 1099.02 3066.22 1087.71 3066.05 1076.4 3066.15 1065.09 3066.25 1054.27 3069.21 1051 3080.28 1050.97 3114.24 1050.79 3148.23 1050.59 3182.16 1051.24 3188.69 1051.38 3189.86 1049.52 3189.82 1044.09 3189.72 1029.69 3190.03 1015.29 3189.72 1000.89 3189.55 992.775 3192.37 988.995 3200.99 989.029 3255.54 989.235 3310.09 989.132 3364.64 989.098 3367.35 989.098 3370.17 988.788 3372.34 991.057 3370.83 998 3364.88 995.835 3360.82 995.938 3342.64 996.453 3324.46 996.144 3306.24 996.144 3273.97 996.144 3241.73 996.041 3209.45 996.212 3196.39 996.281 3195.25 997.484 3195.01 1010.2 3194.88 1019.1 3194.84 1028.04 3195.01 1036.94 3195.22 1048.22 3196.11 1049.21 3207.56 1049.25 3243.27 1049.38 3278.95 1049.32 3314.66 1049.28 3330.1 1049.28 3345.56 1049.11 3361 1049.35 3368.94 1049.45 3372.06 1046.19 3371.86 1038.35 3371.58 1027.04 3371.79 1015.7 3371.79 1004.39L3375.08 990.809 3381.43 987.895C3383.74 987.474 3386.16 987.482 3388.56 987.482 3441.36 987.413 3494.12 987.345 3546.92 987.516 3561.35 987.551 3563.69 990.026 3563.9 1004.22 3564.07 1016.22 3564 1028.21 3563.9 1040.17L3560.62 1052.73 3553.28 1055.81C3550.61 1056.08 3547.84 1055.83 3545.16 1055.85 3515.4 1055.98 3485.63 1055.85 3455.9 1055.92 3440.53 1055.92 3440.29 1056.22 3440.22 1071.21 3440.19 1081.45 3440.26 1091.73 3440.19 1101.97L3436.99 1114.47 3429.11 1117.68C3426.27 1117.93 3423.33 1117.63 3420.49 1117.65 3371.2 1117.75 3321.95 1117.68 3272.66 1117.71 3260.74 1117.71 3254.78 1123.82 3254.75 1136.03 3254.75 1145.28 3254.82 1154.49 3254.72 1163.74L3251.52 1176.28 3244.14 1179.39C3241.47 1179.66 3238.7 1179.41 3236.02 1179.41 3205.57 1179.55 3175.08 1179.41 3144.62 1179.51 3131.91 1179.55 3131.22 1180.3 3131.12 1192.82 3131.01 1203.75 3131.22 1214.71 3131.01 1225.64 3130.98 1227.82 3131.07 1230.07 3130.73 1232.22L3127.9 1238.02 3121.45 1240.8C3119.14 1241.18 3116.73 1241.14 3114.34 1241.18 3102.38 1241.28 3090.42 1241.24 3078.49 1241.21 3072.06 1241.21 3069.21 1243.99 3069.25 1250.42 3069.25 1262.35 3069.31 1274.31 3069.21 1286.27 3069.19 1288.66 3069.24 1291.07 3068.87 1293.38L3066.1 1299.8 3059.23 1302.78C3056.73 1303.07 3054.14 1302.87 3051.61 1302.91 3040.34 1303.11 3029.06 1303.15 3017.79 1302.91 3010.44 1302.77 3007.24 1305.73 3007.41 1313.18 3007.62 1324.8 3007.51 1336.42 3007.41 1348 3007.39 1350.39 3007.44 1352.8 3007.07 1355.11L3004.3 1361.53 2997.43 1364.51C2994.93 1364.8 2992.34 1364.6 2989.81 1364.64 2978.54 1364.84 2967.26 1364.88 2955.99 1364.64 2948.63 1364.5 2945.44 1367.42 2945.57 1374.88 2945.78 1386.5 2945.68 1398.08 2945.57 1409.7 2945.56 1412.09 2945.61 1414.49 2945.24 1416.8L2942.4 1423.19 2936.02 1426.01C2933.72 1426.38 2931.31 1426.32 2928.94 1426.33 2917.7 1426.44 2906.46 1426.61 2895.22 1426.3 2887 1426.06 2883.43 1429.19 2883.67 1437.61 2884.01 1448.81 2883.81 1460.09 2883.7 1471.29 2883.7 1475.38 2883.88 1479.47 2882.33 1483.39 2881.78 1484.56 2880.95 1485.52 2879.89 1486.24 2869.54 1489.82 2858.85 1487.51 2848.34 1488.1 2843.9 1488.34 2839.43 1488.1 2835 1488.17 2822.42 1488.31 2822.01 1488.75 2821.9 1501.74 2821.83 1511.99 2821.94 1522.26 2821.87 1532.51 2821.87 1536.94 2822.14 1541.41 2820.29 1545.67 2819.67 1546.84 2818.74 1547.73 2817.57 1548.35 2803.69 1551.75 2789.59 1549.52 2775.6 1549.93 2760.62 1550.38 2760.27 1550.45 2760.17 1565.74 2760.1 1576.71 2760.51 1587.67 2759.96 1598.64 2759.45 1608.78 2757.01 1611.22 2746.77 1611.63 2734.77 1612.11 2722.77 1611.63 2710.74 1611.83 2699.57 1612.01 2698.47 1613 2698.4 1624.38 2698.2 1655.9 2698.44 1687.45 2698.27 1718.97 2698.23 1726.7 2698.27 1734.78 2687.16 1734.95 2674.52 1735.71 2661.87 1735.09 2649.22 1735.3 2637.36 1735.5 2636.6 1736.16 2636.53 1748.32 2636.29 1780.12 2636.84 1811.91 2636.26 1843.7 2636.16 1847.62 2636.4 1851.64 2634.3 1855.22 2633.47 1856.28 2632.41 1857.07 2631.17 1857.59 2618.59 1860.17 2605.84 1858.59 2593.19 1858.79 2574.8 1859.1 2574.77 1858.9 2574.77 1876.84 2574.77 1925.23 2574.8 1973.59 2574.7 2021.99 2574.7 2027.69 2575.87 2033.81 2571.12 2038.55 2509.19 2038.55 2447.28 2038.48 2385.34 2038.45 2381.97 2033.95 2382.8 2028.62 2382.76 2023.57 2382.66 1993.77 2382.76 1964 2382.66 1934.2 2382.63 1921.55 2381.73 1921 2369.32 1920.52 2354.65 1919.97 2339.87 1922.28 2325.29 1918.94L2324.58 1918.23 2327.03 1923.26C2327.47 1925.4 2327.49 1927.64 2327.49 1929.87 2327.6 1962.01 2327.63 1994.18 2327.49 2026.32 2327.49 2030.75 2327.56 2035.32 2323.68 2038.59 2250.36 2038.69 2177.01 2038.86 2103.7 2038.86 2032.41 2038.86 1961.16 2038.69 1889.87 2038.59 1885.78 2034.94 1886.09 2029.96 1886.09 2025.22 1885.98 1973.21 1885.98 1921.18 1886.09 1869.17 1886.09 1866.78 1886.04 1864.37 1886.45 1862.06L1888.07 1858.61 1859.58 1858.95C1849.38 1859.06 1839.19 1858.83 1829.03 1857.28L1827.74 1856.1 1830.6 1862.15C1831.01 1864.45 1830.99 1866.85 1830.99 1869.24 1831.06 1921.48 1831.06 1973.69 1830.99 2025.94 1830.99 2030.34 1831.33 2034.91 1828.24 2038.66 1766.61 2038.79 1704.95 2038.93 1643.32 2039 1622.42 2039 1601.55 2038.83 1580.66 2038.73 1577.01 2035.25 1577.32 2030.68 1577.25 2026.28 1577.08 2015.04 1577.11 2003.77 1577.22 1992.53 1577.25 1985.86 1574.81 1982.36 1567.66 1982.46 1556.73 1982.63 1545.8 1982.67 1534.91 1982.43 1528.86 1982.29 1527.45 1984.97 1527.72 1990.54 1528.31 2002.46 1528.07 2014.42 1527.86 2026.35 1527.79 2030.65 1528.51 2035.43 1523.94 2038.31 1519.89 2026.76 1522.5 2014.87 1522.26 2003.19 1521.78 1981.02 1522.12 1981.02 1500.05 1980.98 1490.46 1980.98 1480.84 1980.64 1471.25 1981.08 1461.32 1981.53 1457.98 1977.1 1458.08 1967.54 1458.43 1937.06 1458.29 1906.57 1458.12 1876.08 1458.12 1869.28 1457.26 1862.5 1456.78 1855.7 1453.69 1851.57 1453.62 1846.76 1453.58 1841.95 1453.55 1830.3 1453.51 1818.61 1453.58 1806.96 1453.62 1800.05 1450.66 1796.99 1443.68 1797.1 1433.06 1797.27 1422.41 1797.1 1411.75 1797.16 1406.87 1797.16 1403.98 1798.95 1404.12 1804.42 1404.46 1816.76 1404.29 1829.1 1404.26 1841.47 1404.26 1848.14 1407.49 1850.54 1413.78 1850.54 1424.09 1850.54 1434.4 1850.17 1444.64 1850.78 1448.05 1850.99 1453.17 1849.41 1453.82 1855.56 1437.36 1859.51 1420.69 1857.21 1404.09 1856.87 1398.83 1856.76 1398.31 1851.99 1398.35 1847.59 1398.38 1833.91 1398.21 1820.23 1398.35 1806.55 1398.45 1798.33 1396.52 1794.24 1386.52 1795.31 1373.67 1796.68 1360.54 1795.55 1347.54 1795.69 1339.78 1795.76 1336.48 1792.08 1336.44 1784.38 1336.41 1768.71 1335.99 1753 1335.72 1737.32 1342.56 1737.22 1341.8 1742.65 1342.11 1746.67 1342.8 1756.54 1342.18 1766.47 1342.46 1776.37 1342.77 1787.3 1343.97 1788.5 1355.17 1788.67 1364.08 1788.81 1372.94 1788.57 1381.85 1788.74 1388.69 1788.85 1391.85 1786.03 1391.75 1779.02 1391.61 1767.74 1391.61 1756.47 1391.75 1745.2 1391.85 1738.25 1388.82 1735.3 1381.95 1735.33 1370.33 1735.4 1358.71 1735.33 1347.1 1735.33 1342.25 1735.33 1337.51 1735.06 1333.28 1732.34 1329.57 1728.46 1330.05 1723.54 1329.98 1718.8 1329.84 1706.84 1329.98 1694.88 1329.91 1682.91 1329.91 1676.56 1327.13 1673.53 1320.63 1673.53 1309.36 1673.53 1298.08 1673.6 1286.77 1673.53 1280.69 1673.46 1278.18 1676.04 1278.35 1682.19 1278.73 1694.15 1278.59 1706.12 1278.46 1718.08 1278.35 1725.91 1281.82 1729.14 1289.52 1729.08 1300.8 1729.01 1312.07 1728.9 1323.38 1729.18 1326.13 1729.25 1328.85 1729.45 1331.32 1730.83L1333.19 1733.61 1308.72 1736.04C1300.51 1736.04 1292.29 1735.57 1284.09 1735.71 1276.26 1735.85 1272.44 1731.89 1272.41 1723.58 1272.37 1705.81 1273.51 1688 1271.17 1670.3 1267.7 1665.52 1267.9 1659.95 1267.9 1654.49 1267.9 1624.66 1267.94 1594.79 1267.9 1564.95 1267.87 1550.69 1267.22 1550.1 1252.61 1550.04 1244.36 1550 1236.11 1550.14 1227.89 1550 1221.64 1549.9 1218.48 1551.89 1218.58 1558.87 1219.03 1590.42 1218.85 1622.01 1218.68 1653.56 1218.65 1661.91 1221.74 1665.39 1230.16 1665.11 1239.75 1664.8 1249.41 1664.66 1259 1665.28 1262.51 1665.52 1267.56 1664.04 1268.35 1670.09 1251.82 1674.08 1235.11 1671.85 1218.48 1671.4 1212.53 1671.23 1212.74 1665.63 1212.74 1661.09 1212.74 1631.94 1212.74 1602.76 1212.74 1573.61 1212.74 1571.55 1212.74 1569.49 1212.74 1567.43 1212.67 1554.78 1206.56 1548.46 1194.42 1548.49 1183.07 1548.49 1171.76 1548.32 1160.42 1548.49 1152.82 1548.63 1148.77 1545.5 1148.7 1537.66 1148.56 1523.26 1148.15 1508.86 1148.22 1494.46 1148.22 1488.31 1147.39 1485.59 1139.7 1486.28 1126.43 1487.45 1112.95 1486.28 1099.55 1486.76 1090.06 1487.1 1086.49 1482.46 1086.42 1473.8 1086.32 1457.68 1086.21 1441.59 1086.14 1425.47 1093.19 1426.06 1092.54 1431.73 1092.81 1436.23 1093.43 1446.85 1093.19 1457.51 1093.02 1468.13 1092.88 1476.38 1096.28 1480.02 1104.64 1479.78 1114.57 1479.51 1124.54 1479.57 1134.5 1479.78 1141.38 1479.92 1144.58 1477.24 1144.44 1470.12 1144.23 1458.81 1144.27 1447.47 1144.44 1436.16 1144.54 1429.08 1141.28 1426.37 1134.44 1426.4 1123.09 1426.47 1111.78 1426.4 1100.44 1426.4 1097.85 1426.4 1095.27 1426.36 1092.77 1425.94L1085.67 1423.23 1082.9 1416.83C1082.55 1414.51 1082.62 1412.1 1082.6 1409.73 1082.47 1397.77 1082.6 1385.81 1082.53 1373.88 1082.53 1367.49 1079.65 1364.6 1073.18 1364.64 1062.6 1364.71 1051.98 1364.74 1041.39 1364.64 1035.17 1364.53 1032.97 1367.39 1033.14 1373.4 1033.48 1385.71 1033.42 1398.01 1033.18 1410.28 1033.11 1414.58 1033.9 1419.36 1029.39 1422.35 1025.27 1419.87 1026.68 1415.75 1026.65 1412.28 1026.44 1399.32 1026.4 1386.36 1026.61 1373.44 1026.71 1365.77 1025.51 1361.78 1015.68 1362.82 1001.86 1364.26 987.77 1363.23 973.78 1363.12 971.306 1363.12 968.075 1363.98 967.147 1360.17 970.172 1355.67 974.984 1356.49 979.28 1356.39 989.557 1356.11 999.869 1356.15 1010.15 1356.32 1017.3 1356.42 1021.04 1353.98 1020.84 1346.21 1020.56 1334.91 1020.73 1323.6 1020.77 1312.29 1020.77 1305.9 1018.09 1302.91 1011.52 1302.94 1000.21 1303.01 988.87 1303.15 977.562 1302.87 971.271 1302.73 969.106 1305.42 969.278 1311.5 969.656 1323.15 969.553 1334.8 969.312 1346.46 969.244 1350.75 970.034 1355.56 965.531 1358.59 961.097 1356.77 962.816 1352.81 962.747 1349.75 962.541 1336.45 962.541 1323.19 962.678 1309.88 962.747 1303.7 962.506 1300.16 953.879 1301.05 940.371 1302.46 926.622 1301.5 912.976 1301.36 910.226 1301.36 906.583 1302.7 905.311 1298.44 908.302 1293.94 913.079 1294.66 917.376 1294.55 927.962 1294.28 938.583 1294.31 949.17 1294.49 956.216 1294.59 958.966 1291.53 958.897 1284.66 958.76 1273.38 958.76 1262.11 958.932 1250.83 958.966 1248.46 958.889 1246.04 959.271 1243.73L962.055 1237.95 900.499 1238.25 900.399 1238.14 900.259 1239.63C884.31 1243.24 868.155 1241.24 852.069 1241.66 844.301 1241.86 840.864 1237.84 840.898 1230.25 840.967 1215.84 840.829 1201.44 840.898 1187.04 840.932 1180.17 839.66 1176.7 830.93 1177.45 816.631 1178.69 802.16 1177.8 787.724 1177.8 780.506 1177.8 777 1174.12 777 1167 777 1132.05 777 1097.09 777 1062.1 777 1054.71 781.469 1051.17 787.93 1051.14 823.609 1050.9 859.287 1050.97 894.931 1051.07 899.502 1051.07 903.489 1053.54 903.524 1058.25 903.627 1066.35 904.203 1074.45 904.34 1082.54L902.565 1106.28 901.182 1085.84C901.298 1078.86 901.685 1071.86 901.393 1064.89 901.049 1056.43 897.887 1053.82 889.569 1053.92 857.328 1054.3 825.052 1054.3 792.811 1053.92 783.634 1053.82 779.956 1056.71 780.094 1066.33 780.54 1098.91 780.471 1131.46 780.094 1164.05 780.025 1172.19 782.912 1174.98 790.886 1174.7 803.913 1174.26 816.975 1174.19 830.002 1174.77 837.151 1175.08 838.629 1172.19 838.492 1165.83 838.148 1151.09 838.664 1136.34 838.251 1121.6 838.079 1115.58 840.176 1114.11 845.847 1114.21L900.264 1114.28 902.974 1120.53C903.249 1138.41 904.659 1156.31 902.149 1174.15L900.635 1176.18 962.06 1176.01 962.06 1237.93 962.369 1237.29C965.978 1234.75 970.137 1234.71 974.262 1234.68 1007.22 1234.54 1040.19 1234.54 1073.15 1234.71 1075.45 1234.71 1077.92 1234.51 1080.18 1234.95L1085.88 1238.99 1089 1247.9C1089.27 1251.08 1089.01 1254.36 1089.07 1257.57 1089.2 1266.44 1089 1275.34 1089.13 1284.24 1089.34 1295.41 1090.16 1296.34 1101.68 1296.41 1132.44 1296.55 1163.24 1296.41 1194.04 1296.51 1196.72 1296.51 1199.49 1296.26 1202.15 1296.54L1209.48 1299.68 1212.11 1305.58C1212.47 1307.71 1212.43 1309.94 1212.39 1312.19 1212.22 1323.77 1212.32 1335.35 1212.32 1346.97 1212.32 1350.72 1211.95 1354.6 1215.76 1357.04 1220.4 1358.76 1225.21 1358.24 1229.96 1358.28 1262.3 1358.62 1294.65 1357.63 1327.02 1358.79 1333.49 1359.31 1335.65 1363.61 1336.1 1369.28 1336.68 1376.46 1336.37 1383.68 1336.41 1390.86 1336.41 1410.32 1346.31 1420.04 1366.1 1420.04 1391.51 1420.04 1416.91 1419.97 1442.31 1420.11 1444.83 1420.11 1447.44 1419.91 1449.94 1420.22L1456.75 1423.25 1459.61 1429.7C1459.99 1432.02 1459.96 1434.45 1459.97 1436.85 1460.04 1447.47 1459.94 1458.09 1460.04 1468.71 1460.15 1481.22 1460.73 1481.77 1473.62 1481.88 1484.93 1481.98 1496.24 1481.67 1507.55 1482.02 1519.03 1482.36 1521.33 1484.7 1521.71 1496.07 1522.05 1506.69 1521.78 1517.31 1521.81 1527.93 1521.85 1538.41 1527.27 1543.65 1538.03 1543.68 1547.97 1543.68 1557.9 1543.57 1567.87 1543.75 1570.07 1543.78 1572.32 1543.71 1574.46 1544.08L1580.34 1547.01 1582.93 1552.32C1583.3 1554.27 1583.29 1556.33 1583.27 1558.39 1583.2 1570.31 1583.27 1582.24 1583.27 1594.13 1583.27 1597.88 1582.89 1601.73 1586.7 1604.17 1591.04 1605.79 1595.54 1605.37 1599.97 1605.41 1629.81 1605.44 1659.64 1605.34 1689.51 1605.48 1705.08 1605.54 1707.08 1607.68 1707.28 1623.45 1707.42 1634.76 1707.39 1646.07 1707.32 1657.38 1707.32 1664.32 1710.34 1667.24 1717.25 1667.17 1728.9 1667.07 1740.59 1667.07 1752.24 1667.17 1754.63 1667.21 1757.05 1667.16 1759.37 1667.55L1765.46 1670.34 1764.41 1669.41C1761.87 1663.87 1762.59 1657.96 1762.55 1652.19 1762.48 1602.8 1762.55 1553.4 1762.52 1504.01 1762.52 1488.68 1762.04 1488.34 1747.12 1488.2 1737.84 1488.13 1728.59 1488.48 1719.35 1488.03 1712.51 1488.31 1713.47 1493.5 1713.44 1497.76 1713.33 1509.37 1713.57 1520.99 1713.33 1532.58 1713.02 1546.6 1708.76 1551.51 1695.08 1551.72 1661.6 1552.24 1628.09 1552.06 1594.61 1551.79 1590.14 1551.75 1585.74 1551.07 1581.82 1548.66 1580.72 1547.94 1579.97 1546.94 1579.49 1545.74 1578.77 1532.06 1579.49 1518.35 1579.28 1504.63 1579.04 1491.16 1578.25 1490.33 1564.4 1490.16 1554.43 1490.02 1544.46 1490.54 1534.53 1489.92 1523.25 1489.23 1520.02 1485.83 1519.61 1474.59 1519.27 1464.66 1519.61 1454.69 1519.47 1444.76 1519.34 1431.56 1518.44 1430.63 1505.55 1430.46 1494.9 1430.32 1484.24 1430.8 1473.62 1430.22 1468.81 1429.94 1462.86 1430.7 1461.42 1423.69 1478.23 1423.62 1495.03 1423.72 1511.84 1423.48 1520.78 1423.34 1525.18 1426.71 1524.84 1436.23 1524.39 1448.92 1525.01 1461.63 1524.63 1474.32 1524.42 1481.02 1526.83 1483.49 1533.53 1483.32 1546.21 1482.98 1558.93 1483.42 1571.65 1483.18 1580.62 1483.01 1584.92 1486.52 1584.61 1496 1584.16 1509.72 1584.78 1523.47 1584.37 1537.18 1584.2 1542.92 1585.74 1545.12 1591.69 1545.09 1627.4 1544.91 1663.11 1544.91 1698.83 1545.09 1705.08 1545.09 1707.52 1542.23 1707.52 1536.39 1707.52 1522.68 1707.63 1508.93 1707.45 1495.21 1707.39 1488.92 1705.53 1485.56 1697.49 1486.24 1683.84 1487.41 1670.02 1486.31 1656.31 1486.79 1646 1487.14 1643.52 1482.02 1643.56 1472.84 1643.76 1420.35 1643.66 1367.83 1643.66 1315.35 1643.66 1312.26 1643.66 1309.16 1643.45 1306.1 1643.14 1302.01 1641.53 1300.64 1636.79 1300.88 1623.41 1301.57 1610.01 1301.02 1596.64 1301.46 1587.39 1301.77 1583.68 1297.96 1583.78 1288.68 1584.06 1256.09 1583.92 1223.48 1583.85 1190.89 1583.85 1177.73 1583.44 1177.59 1570.1 1177.8 1558.07 1178 1546.08 1177.56 1534.05 1177.93 1525.39 1178.21 1521.78 1175.15 1521.88 1166.01 1522.29 1135.14 1521.88 1104.24 1522.15 1073.38 1522.22 1066.09 1521.23 1059.18 1518.58 1052.48 1514.49 1047.91 1515.31 1042.24 1515.28 1036.87 1515.18 1006.83 1515.28 976.793 1515.21 946.752 1515.18 933.004 1514.52 932.661 1500.67 932.282 1490.15 932.007 1479.5 933.726 1469.08 930.667L1466.99 929.182 1461.18 930.766C1460.12 932.694 1460.22 935.719 1460.28 939.466 1460.97 972.703 1460.97 1005.97 1460.39 1039.21 1460.22 1049.11 1463.65 1051.31 1472.8 1051.28 1487.06 1051.21 1501.43 1049.38 1515.62 1052.34 1498.4 1056.43 1481.01 1054.09 1463.72 1053.58 1457.12 1053.37 1458.12 1046.91 1458.08 1042.2 1458.05 1009.62 1458.08 977.033 1458.05 944.45 1458.05 931.56 1457.98 931.938 1445.13 932.592 1433.47 933.176 1421.79 932.523 1410.14 932.832 1401.1 933.073 1398.17 928.639 1398.21 920.184 1398.41 887.256 1398.31 854.328 1398.28 821.401 1398.28 806.896 1398.21 806.965 1383.63 807.136 1371.64 807.274 1359.61 806.999 1347.61 807.205 1340.08 807.343 1336.27 804.834 1336.34 796.516 1336.61 761.182 1336.58 725.849 1336.34 690.549 1336.3 682.85 1339.67 680.169 1346.86 680.204 1381.19 680.307 1415.5 680.341 1449.84 680.169 1457.78 680.135 1461.01 683.366 1460.83 691.237 1460.49 708.732 1460.56 726.193 1460.42 743.688L1456.71 743.946 1456.71 743.688 1456.44 743.54 1455.16 723.52C1455.3 716.689 1455.71 709.849 1455.51 703.026 1455.03 688.006 1454.72 687.284 1439.87 687.25 1411.75 687.181 1383.63 687.147 1355.55 687.25 1343.52 687.284 1342.56 688.213 1342.49 700.036 1342.35 729.148 1342.39 758.261 1342.49 787.373 1342.53 799.162 1343.45 799.953 1355.59 800.09 1363.8 800.194 1372.05 799.85 1380.27 800.159 1388.79 800.503 1391.81 796.619 1391.64 788.439 1391.37 777.474 1391.37 766.51 1391.68 755.545 1392.02 743.378 1394.39 740.835 1406.11 740.491 1419.48 740.113 1432.86 740.25 1446.23 740.491 1448.1 740.525 1450 740.568 1451.79 740.981L1456.44 743.54 1456.47 743.962 1456.71 743.946 1456.71 805.225 1456.54 805.177 1456.42 805.478 1450.18 808.271C1447.87 808.641 1445.45 808.58 1443.06 808.615 1432.79 808.718 1422.47 808.683 1412.2 808.649 1406.73 808.649 1404.09 810.78 1404.16 816.589 1404.5 849.482 1404.26 882.375 1404.29 915.268 1404.29 922.727 1407.63 925.752 1414.88 925.683 1423.78 925.614 1432.72 925.855 1441.62 925.648 1452.07 925.408 1453.31 924.274 1453.38 913.481 1453.58 882.65 1453.38 851.819 1453.48 820.954 1453.48 818.239 1453.31 815.471 1453.6 812.795L1456.42 805.478 1456.71 805.349 1456.71 805.225 1458.24 805.653 1459.73 804.043C1462.9 802.497 1466.3 802.325 1469.7 802.29 1502.77 802.153 1535.8 802.187 1568.87 802.29 1571.93 802.29 1575.02 802.428 1577.94 803.528 1583.23 806.071 1583.13 810.986 1583.2 815.764 1583.34 827.966 1583.2 840.202 1583.27 852.404 1583.27 856.116 1582.79 860 1586.4 862.578 1599.29 865.843 1612.38 863.299 1625.31 864.09 1631.05 864.433 1637.03 863.231 1642.35 866.565 1645.41 869.967 1644.97 874.195 1645 878.251 1645.1 890.212 1645 902.173 1645.07 914.169 1645.07 917.881 1644.52 921.833 1648.23 924.411 1661.12 927.608 1674.18 925.133 1687.14 925.889 1692.88 926.233 1698.86 925.03 1704.19 928.364 1707.25 931.767 1706.84 935.994 1706.87 940.05 1706.97 952.011 1706.87 963.972 1706.94 975.934 1706.94 979.646 1706.35 983.564 1710.03 986.176 1719.42 989.27 1729.04 987.07 1738.53 987.689 1747.02 988.239 1755.61 986.589 1763.96 989.167 1769.02 992.088 1768.64 997.106 1768.67 1001.85 1768.81 1013.81 1768.67 1025.77 1768.74 1037.77 1768.74 1041.48 1768.22 1045.4 1771.9 1048.01 1785.1 1051.24 1798.51 1048.7 1811.77 1049.49 1817.17 1049.83 1822.81 1048.7 1827.72 1052 1831.06 1056.05 1830.78 1060.93 1830.82 1065.68 1830.92 1077.29 1831.02 1088.95 1830.82 1100.56 1830.64 1108.5 1834.08 1111.6 1841.88 1111.36 1853.5 1111.01 1865.15 1111.25 1876.81 1111.25 1883.1 1111.25 1886.29 1108.74 1886.26 1102.14 1886.22 1090.53 1886.29 1078.88 1886.22 1067.26 1886.16 1060.76 1882.89 1058.12 1876.67 1058.01 1866.74 1057.84 1856.8 1058.32 1846.9 1057.7 1843.09 1057.46 1837.55 1059.42 1836.59 1052.75 1852.75 1049.08 1869.04 1050.93 1885.23 1051.79 1891.17 1052.1 1891.83 1057.74 1891.79 1062.86 1891.69 1079.98 1891.66 1097.09 1891.62 1114.21 1893.34 1129.57 1891.86 1145.01 1892.41 1160.37 1892.55 1164.36 1891.28 1168.76 1895.44 1171.68 1912.55 1174.32 1929.67 1173.33 1946.79 1172.06 1950.64 1170.82 1950.47 1167.55 1950.47 1164.49 1950.57 1152.91 1950.4 1141.36 1950.53 1129.78 1950.6 1123.73 1948.27 1121.26 1942.11 1121.36 1930.19 1121.53 1918.29 1121.67 1906.37 1121.26 1901.62 1121.08 1895.68 1122.18 1894.34 1115 1910.73 1114.93 1927.13 1114.93 1943.49 1114.76 1951.94 1114.66 1956 1118.2 1955.76 1127.1 1955.38 1140.4 1955.83 1153.74 1955.55 1167.07 1955.45 1171.37 1956.1 1174.43 1960.81 1175.32 1976.76 1175.39 1992.74 1174.63 2008.69 1175.73L2008.62 1175.63C2010.62 1174.98 2012.65 1174.32 2014.64 1173.71 2015.15 1174.12 2015.64 1174.56 2016.15 1174.98L2016.31 1175.35 2024.65 1173.11C2027.69 1172.93 2030.79 1173.1 2033.85 1172.85 2045.95 1171.78 2061.35 1178.31 2069.32 1169.58 2076.68 1161.5 2070.94 1146.55 2071.7 1134.66 2071.83 1132.29 2071.63 1129.85 2071.77 1127.48 2071.97 1123.28 2070.56 1121.12 2065.89 1121.36 2053.89 1121.94 2041.9 1121.46 2029.9 1121.67 2023.51 1121.77 2020.58 1124.8 2020.45 1131.09 2020.21 1141.71 2020.65 1152.33 2020.21 1162.91 2020.03 1167.04 2021.17 1172.09 2015.57 1174.15 2015.57 1174.15 2014.67 1173.67 2014.67 1173.67 2014.67 1157.89 2014.88 1142.12 2014.67 1126.38 2014.57 1118.09 2018.18 1114.52 2026.43 1114.62 2040.14 1114.83 2053.89 1114.35 2067.61 1114.76 2075.68 1115 2078.74 1111.49 2078.64 1103.79 2078.47 1090.08 2078.85 1076.37 2078.57 1062.65 2078.4 1054.2 2082.42 1050.79 2090.4 1050.86 2106.45 1050.97 2122.53 1051.03 2138.58 1051.1 2153.85 1047.87 2169.31 1049.93 2184.71 1049.42 2196.64 1049.04 2197.36 1048.49 2197.46 1036.32 2197.53 1026.05 2197.5 1015.77 2197.43 1005.46 2197.4 999.1 2194.47 996.075 2188.05 996.041 2176.74 995.972 2165.4 996.041 2154.09 996.006 2147.21 995.972 2144.08 999.1 2144.05 1005.94 2143.98 1016.9 2144.36 1027.9 2143.81 1038.83 2143.64 1042.61 2145.8 1048.04 2139.27 1049.35 2137.38 1031.92 2138.79 1014.46 2138.55 997.038 2138.45 989.819 2143.64 989.063 2149.17 989.063 2166.25 989.132 2183.37 989.235 2200.45 989.339 2215.72 986.073 2231.18 988.17 2246.55 987.654 2258.47 987.242 2259.2 986.726 2259.27 974.559 2259.33 964.969 2259.27 955.38 2259.23 945.79 2259.2 939.466 2256.34 936.373 2249.88 936.338 2238.57 936.269 2227.26 936.407 2215.96 936.269 2208.29 936.166 2205.78 940.119 2205.82 947.165 2205.89 957.442 2206.16 967.719 2205.61 977.996 2205.44 981.536 2206.88 986.451 2201.14 987.654 2199.25 971.259 2200.56 954.83 2200.45 938.4 2200.42 931.285 2205.34 929.36 2211.63 929.395 2224 929.464 2236.34 929.395 2248.71 929.395 2259.02 929.395 2264.19 924.068 2264.21 913.412 2264.21 901.417 2264.49 889.387 2264.15 877.391 2263.94 868.936 2267.96 865.533 2275.94 865.568 2292.02 865.705 2308.11 865.774 2324.19 865.843 2339.08 862.474 2354.2 864.605 2369.22 864.158 2382.35 863.746 2382.9 863.471 2382.94 849.997 2382.94 840.752 2382.94 831.506 2382.9 822.26 2382.87 815.936 2380.05 812.808 2373.59 812.773 2361.94 812.705 2350.28 812.705 2338.66 812.773 2332.1 812.808 2329.62 816.314 2329.56 822.466 2329.42 832.743 2329.8 843.02 2329.35 853.263 2329.18 857.181 2330.93 862.405 2324.88 864.124 2322.99 847.729 2324.33 831.3 2324.19 814.87 2324.13 807.584 2329.42 805.899 2335.47 805.865 2349.56 805.762 2363.62 805.556 2377.71 805.865 2384 806.002 2386.13 803.734 2386 797.513 2385.69 784.142 2386.06 770.738 2385.89 757.367 2385.79 747.846 2390.05 743.653 2399.68 743.928 2412.7 744.306 2425.8 743.55 2438.83 744.168 2447.66 744.581 2450.2 741.041 2449.93 732.792 2449.48 719.421 2450.1 706.017 2449.72 692.646 2449.48 683.813 2453.33 680.135 2461.92 680.169 2495.57 680.273 2529.26 679.791 2562.87 680.513 2571.09 680.685 2573.32 677.729 2573.39 670.889 2573.5 658.55 2573.39 646.177 2573.5 633.837 2573.56 621.567 2574.63 620.639 2587.24 620.467 2602.68 620.26 2618.15 619.985 2633.58 619.745L2633.66 619.698 2633.48 619.71C2637.08 603.419 2634.54 586.955 2635.19 570.56 2635.64 558.702 2637.22 556.742 2648.94 556.64 2661.66 556.502 2674.41 555.883 2687.03 556.949 2694.35 557.567 2695.14 554.749 2695.04 549.078 2694.9 537.082 2695 525.053 2695.04 513.057 2695.07 498.105 2696.24 496.937 2711.71 496.903 2742.95 496.903 2774.19 496.903 2805.44 496.903 2818.67 496.903 2818.71 496.868 2818.71 483.188 2818.71 470.849 2818.91 458.475 2818.67 446.136 2818.5 438.299 2821.7 434.966 2829.67 435Z" fill="#8ED973" fill-rule="evenodd"/><path d="M1574.75 1979.05C1580.56 1978.94 1580.39 1982.28 1580.36 1986.27 1580.26 2003.69 1580.26 2021.12 1580.22 2038.58 1561.31 2038.86 1542.4 2039.55 1523.49 2038.17L1523.45 2038.17C1525 2018.82 1524.04 1999.43 1523.87 1979.15 1540.61 1979.15 1557.7 1979.32 1574.75 1979.05ZM1460.33 1855.54 1460.33 1855.57 1460.29 1855.57ZM1512.49 1855.5C1516.82 1855.47 1518.57 1856.71 1518.54 1861.28 1518.4 1897.92 1518.37 1934.53 1518.54 1971.18 1518.54 1977.05 1515.48 1977.74 1510.77 1977.67 1497.39 1977.5 1484.02 1977.29 1470.68 1977.71 1462.32 1977.98 1460.16 1974.27 1460.22 1966.57 1460.5 1935.08 1460.33 1903.59 1460.33 1872.07L1460.33 1855.57ZM1451.25 1793.66C1457.3 1793.56 1456.61 1797.38 1456.58 1801.12 1456.48 1819.24 1456.41 1837.39 1456.3 1855.5 1455.34 1855.44 1454.34 1855.4 1453.38 1855.33 1440.59 1852.41 1427.59 1854.54 1414.73 1854.13 1400.5 1853.72 1400.53 1853.99 1400.43 1840.28 1400.33 1826.25 1400.47 1812.23 1399.64 1798.24 1399.37 1793.77 1401.19 1793.84 1403.97 1793.8 1419.72 1793.77 1435.5 1793.94 1451.25 1793.66ZM1332.66 1731.93 1332.52 1732.07 1332.53 1731.93ZM1332.7 1731.89 1332.83 1732.06 1332.52 1732.07 1332.66 1731.93 1332.66 1731.93ZM1385.99 1731.86C1392.25 1731.72 1395.17 1732.86 1394.9 1740.11 1394.31 1754.82 1394.48 1769.57 1394.83 1784.31 1395 1790.71 1392.66 1792.6 1386.47 1792.39 1374.13 1791.98 1361.78 1791.98 1349.44 1792.39 1341.57 1792.63 1338.16 1789.92 1338.51 1781.74 1338.95 1770.12 1338.78 1758.43 1338.51 1746.78 1338.44 1743.44 1340.29 1739.04 1335.31 1737.15 1334.52 1735.95 1333.69 1734.75 1332.87 1733.54L1332.83 1733.51 1333.28 1732.65 1332.83 1732.06ZM1327.64 1670.12C1332.8 1670.05 1332.9 1672.94 1332.87 1676.65L1332.53 1731.93 1285.52 1732.58C1277.75 1732.79 1274.42 1729.83 1274.52 1721.75 1274.76 1706.04 1274.59 1690.3 1273.83 1674.59 1273.63 1670.05 1275.62 1670.26 1278.34 1670.26 1294.77 1670.19 1311.21 1670.36 1327.64 1670.12ZM1265.68 1546.58C1272.8 1546.48 1270.88 1551.46 1270.91 1555.11 1270.91 1593.47 1270.84 1631.83 1270.77 1670.19 1269.81 1670.12 1268.88 1670.05 1267.92 1669.95 1263.07 1667.3 1257.88 1669.16 1252.86 1668.71 1240.69 1667.58 1224.94 1674.08 1217.24 1666 1209.71 1658.09 1215.17 1642.49 1214.93 1630.25 1214.42 1603.88 1214.69 1577.52 1214.04 1551.15 1213.94 1546.82 1215.45 1546.68 1218.34 1546.68 1234.12 1546.65 1249.9 1546.79 1265.68 1546.58ZM2557.17 1485.21C2561.93 1484.94 2566.3 1485.45 2569.25 1488.62 2574.65 1494.4 2570.97 1505.64 2570.84 1514.44 2570.7 1524.92 2575.48 1538.88 2568.77 1544.86 2562.96 1550.05 2549.24 1546.72 2539.03 1546.55 2530.23 1546.41 2518.61 1550.43 2513.49 1544.62 2509.19 1539.74 2512.28 1528.43 2512.08 1519.94 2512.08 1518.91 2512.08 1517.88 2512.08 1516.85L2512.11 1516.88C2512.11 1486.36 2512.11 1486.15 2542.71 1486.49 2547.25 1486.55 2552.41 1485.49 2557.17 1485.21ZM1203.28 1484.74C1207.78 1484.57 1209.23 1486.29 1209.16 1490.69 1208.95 1506.47 1208.95 1522.21 1209.16 1537.99 1209.23 1543.18 1207.58 1545.34 1202.11 1545.21 1188.05 1544.9 1173.98 1544.96 1159.92 1545.14 1153.25 1545.24 1150.81 1542.25 1150.88 1535.79 1151.02 1520.35 1151.15 1504.92 1150.53 1489.52 1150.33 1484.33 1152.97 1484.88 1155.97 1484.84 1163.84 1484.78 1171.75 1484.84 1179.62 1484.81L1179.62 1484.84C1187.5 1484.84 1195.4 1485.05 1203.28 1484.74ZM2587.17 1426.48C2599.82 1427.03 2612.51 1426.82 2625.16 1426.51 2630.9 1426.37 2633.1 1428.3 2632.97 1434.18 2632.69 1448.89 2632.73 1463.6 2632.97 1478.31 2633.04 1483.06 2631.69 1485.02 2626.64 1484.95 2609.55 1484.71 2592.46 1484.84 2574.62 1484.84L2574.58 1484.84C2577.3 1468.34 2576.03 1452.91 2575.86 1437.58 2575.75 1428.95 2578.74 1426.1 2587.17 1426.48ZM2687.84 1362.71C2693.38 1362.61 2695.03 1364.98 2694.86 1370.1 2694.62 1377.97 2694.79 1385.88 2694.79 1395.5L2694.75 1395.5C2693.86 1403.24 2698.88 1415.48 2692.79 1421.46 2687.22 1426.92 2675.12 1423.11 2665.94 1422.93 2656.79 1422.76 2644.66 1427.13 2639.4 1420.91 2634.93 1415.65 2638.02 1403.93 2637.92 1395.09 2637.81 1387.19 2638.02 1379.31 2637.92 1371.41 2637.81 1365.32 2640.5 1362.71 2646.62 1362.78 2660.37 1362.92 2674.09 1362.95 2687.84 1362.71ZM1079.09 1361.16C1085.27 1360.99 1085.45 1364.15 1085.41 1368.76L1085.21 1423.07 1139.46 1422.97C1144.76 1422.9 1147.54 1423.62 1147.37 1430.05 1146.92 1445.42 1147.1 1460.85 1147.3 1476.22 1147.37 1481.37 1145.82 1483.57 1140.29 1483.47 1126.26 1483.16 1112.2 1483.19 1098.17 1483.4 1091.6 1483.5 1088.88 1480.72 1088.99 1474.19 1089.19 1461.19 1089.13 1448.2 1088.95 1435.17 1088.92 1431.67 1090.29 1427.4 1085.62 1425.34L1085.12 1423.25 1059.76 1425.32C1051.25 1425.25 1042.73 1424.74 1034.22 1424.79 1032.43 1424.79 1030.64 1423.07 1028.85 1422.14 1028.92 1404.03 1029.33 1385.88 1028.78 1367.76 1028.65 1363.05 1028.37 1361.1 1033.8 1361.2 1048.9 1361.47 1063.99 1361.54 1079.09 1361.16ZM2812.96 1302.8C2818.12 1302.76 2818.53 1305.24 2818.53 1309.09 2818.5 1324.52 2818.33 1339.95 2818.64 1355.39 2818.74 1360.92 2815.99 1361.4 2811.66 1361.37 2793.81 1361.23 2775.93 1361.3 2758.09 1361.3L2758.05 1361.27C2740.21 1361.27 2722.33 1361.13 2704.48 1361.34 2699.36 1361.4 2697.3 1360.17 2697.5 1354.43 2698.02 1340.37 2697.85 1326.31 2697.68 1312.25 2697.57 1305.68 2700.26 1303 2706.86 1303.04 2742.24 1303.11 2777.58 1303.07 2812.96 1302.8ZM2012.83 1299.53 2012.84 1299.72 2012.66 1299.7C2012.66 1299.7 2012.83 1299.53 2012.83 1299.53ZM2012.83 1299.5 2012.66 1299.67 2012.66 1299.53 2012.8 1299.53ZM970.434 1299.43C986.182 1299.74 1001.93 1299.63 1017.64 1299.43 1022.11 1299.36 1023.59 1300.87 1023.56 1305.3 1023.35 1321.01 1023.25 1336.76 1023.56 1352.5 1023.69 1358.55 1021.25 1359.99 1015.65 1359.93 999.248 1359.69 982.881 1359.93 966.48 1359.96 965.965 1359.44 965.414 1358.89 964.898 1358.38L964.933 1358.34C965.036 1340.95 965.345 1323.56 965.07 1306.16 965.002 1301.73 964.865 1299.32 970.434 1299.43ZM1693.96 1299.29C1701.8 1298.88 1704.52 1300.84 1704.34 1309.26 1703.76 1336.69 1704.14 1364.12 1704.14 1391.55L1704.1 1391.59C1704.1 1418.33 1703.62 1445.07 1704.34 1471.82 1704.62 1481.72 1701.22 1484.09 1692.1 1483.5 1680.48 1482.78 1668.76 1482.95 1657.1 1483.43 1648.57 1483.81 1645.72 1480.62 1645.76 1472.09 1646.03 1418.95 1645.89 1365.8 1645.89 1312.66 1645.89 1299.46 1645.86 1299.46 1658.96 1299.46 1670.61 1299.46 1682.3 1299.91 1693.96 1299.29ZM2014.76 1298.81C2032.19 1299.05 2049.66 1299.6 2067.09 1299.32 2073.96 1299.22 2075.82 1301.42 2075.61 1308.06L2074.76 1361.2 2130.11 1361.23C2134.1 1361.23 2137.5 1361.06 2137.44 1366.84L2136.58 1484.82 2138.6 1485.53C2138.6 1505.64 2138.6 1525.75 2138.6 1545.86 2135.75 1531.32 2138.23 1516.64 2137.37 1502.07L2136.45 1484.91 2084.31 1485.02C2076.92 1485.22 2075.27 1482.71 2075.34 1475.73 2075.68 1441.26 2075.51 1406.78 2075.44 1372.3L2074.6 1361.37 2014.96 1360.58 2014.96 1360.58 2013.4 1339.79C2013.54 1332.84 2013.98 1325.88 2013.59 1318.95L2012.84 1299.72 2015.1 1300.01ZM2875.3 1240.99C2879.84 1240.89 2880.39 1243.26 2880.39 1246.7 2880.39 1262.47 2880.25 1278.29 2880.46 1294.06 2880.53 1298.98 2878.05 1299.63 2874.06 1299.56 2866.15 1299.43 2858.25 1299.53 2848.72 1299.53L2848.72 1299.5C2840.95 1298.33 2828.3 1303.86 2822.87 1297.23 2818.26 1291.62 2821.56 1279.56 2821.46 1270.35 2821.39 1263.13 2821.52 1255.94 2821.46 1248.72 2821.39 1243.57 2823.72 1241.27 2828.92 1241.27 2844.39 1241.27 2859.83 1241.27 2875.3 1240.99ZM961.392 1237.66C961.392 1237.66 961.564 1237.83 961.564 1237.83L961.393 1237.8ZM931.143 1233.7 961.393 1237.8 961.77 1288.81C962.08 1296.95 958.916 1298.4 951.661 1298.19 936.017 1297.74 920.339 1298.16 904.66 1298.19 900.602 1293.96 902.287 1288.63 901.909 1283.68 900.808 1268.94 904.247 1253.98 899.708 1239.41L899.743 1239.41C900.293 1239.07 900.396 1238.65 899.983 1238.14 901.187 1237.45 899.365 1237.72 900.671 1237.42 910.831 1235.04 920.992 1233.72 931.143 1233.7ZM1959.06 1176.88C1974.46 1177.81 1989.93 1177.36 2005.4 1177.33 2009.84 1177.33 2013.72 1177.4 2013.62 1183.52 2013.33 1202.87 2013.64 1222.23 2013.75 1241.59L2012.66 1299.53 1959.23 1299.63C1953.49 1299.74 1951.53 1298.09 1951.56 1292.14 1951.8 1256.11 1951.73 1220.09 1951.63 1184.07 1951.63 1178.6 1952.49 1176.5 1959.06 1176.88ZM1636.71 1175.88C1641.53 1175.82 1642.28 1178.12 1642.28 1182.14 1642.18 1218.44 1642.15 1254.71 1642.28 1291.01 1642.28 1296.33 1640.36 1298.22 1635.03 1298.09 1622 1297.81 1608.97 1297.74 1595.97 1298.09 1588.2 1298.29 1585.96 1294.79 1586 1287.53 1586.24 1256.39 1586.1 1225.25 1586.1 1194.07 1586.1 1188.33 1586.1 1182.62 1586.1 1175.95 1602.54 1175.95 1619.62 1176.09 1636.71 1175.88ZM961.907 1175.75C999.523 1175.82 1037.1 1176.16 1074.72 1175.75 1084.69 1175.64 1088.4 1179.08 1087.61 1188.88 1086.94 1197.18 1087.51 1205.54 1087.69 1213.89L1085.47 1238.52 1142.92 1239.97C1162.14 1239.88 1181.36 1239.51 1200.56 1239.72 1208.57 1239.79 1211.87 1242.88 1211.32 1250.72 1210.76 1258.83 1211.36 1267 1211.53 1275.16L1209.14 1299.33 1220.51 1301.27C1224.41 1301.59 1228.33 1301.64 1232.26 1301.63 1262.83 1301.49 1293.4 1301.87 1323.96 1301.42 1333.93 1301.28 1337.54 1305.2 1337.23 1314.79 1336.82 1326.79 1337.54 1338.82 1337.03 1350.82 1336.69 1359.1 1340.09 1361.47 1347.93 1361.4 1380.56 1361.13 1413.19 1361.58 1445.78 1361.13 1455.62 1360.99 1459.47 1364.15 1458.95 1374.16 1458.33 1386.46 1458.85 1398.84 1458.78 1411.21L1456.52 1422.87 1461.01 1423.59C1463.8 1427.99 1468.34 1426.48 1472.15 1426.54 1485.15 1426.75 1498.18 1426.99 1511.18 1426.54 1519.36 1426.27 1522.04 1429.6 1521.8 1437.44 1521.39 1450.43 1521.94 1463.43 1521.63 1476.42 1521.49 1483.5 1524.59 1486.39 1531.4 1486.32 1545.08 1486.25 1558.8 1486.36 1572.48 1486.32 1576.92 1486.32 1581.32 1486.91 1581.25 1492.47 1581.12 1501.5 1581.59 1510.55 1581.7 1519.59L1579.99 1546.52 1609.01 1548.36C1618.74 1548.29 1628.48 1547.85 1638.19 1548.02 1657.69 1548.4 1677.18 1547.89 1696.64 1548.2 1706.2 1548.33 1710.33 1544.72 1709.95 1534.86 1709.4 1520.87 1710.77 1506.77 1709.4 1492.89 1708.54 1484.12 1711.94 1484.09 1718.06 1485.15L1718.06 1485.19 1718.08 1485.35 1718.1 1485.26C1731.78 1485.15 1745.47 1485.26 1759.15 1484.81 1764.62 1484.64 1766.13 1486.56 1766.1 1491.82L1765.58 1670.12 1820.87 1670.12C1826.16 1670.05 1827.99 1671.57 1827.95 1677.03L1827.37 1855.47 1889.22 1855.54C1889.4 1891.87 1889.64 1928.17 1889.74 1964.51 1889.81 1989.19 1889.67 2013.87 1889.64 2038.55 1869.04 2038.55 1848.48 2038.48 1827.88 2038.48 1827.88 1980.87 1827.88 1923.29 1827.88 1865.68L1827.24 1855.64 1775 1855.71C1767.82 1855.92 1765.82 1853.79 1765.86 1846.57 1766.17 1791.5 1766.03 1736.4 1765.99 1681.33L1765.38 1670.29 1712.11 1670.36C1705.86 1670.5 1703.79 1668.68 1704 1662.32 1704.45 1647.61 1703.59 1632.86 1704.34 1618.18 1704.79 1609.66 1701.66 1608.25 1693.96 1608.28 1656.65 1608.49 1619.31 1608.08 1582.01 1607.9L1581.99 1607.44 1580.05 1594.01C1580.2 1589.36 1580.75 1584.68 1580.5 1580.06L1579.88 1546.72 1526.48 1546.79C1520.19 1546.92 1518.16 1545.14 1518.37 1538.71 1518.85 1523.96 1518.12 1509.22 1518.68 1494.47 1518.95 1487.08 1517.37 1484.22 1509.25 1484.64 1494.54 1485.36 1479.72 1484.47 1464.97 1485.02 1458.02 1485.26 1456.34 1482.88 1456.48 1476.28L1456.27 1423.07 1342.29 1423.28C1334.52 1423.38 1332.35 1421.28 1332.66 1413.58 1333.28 1398.53 1332.66 1383.44 1332.94 1368.38 1333.04 1363.4 1331.94 1360.48 1326.37 1360.96L1326.36 1360.92 1210.91 1360.82 1210.94 1360.82 1210.94 1360.82 1210.91 1360.79 1210.92 1360.74 1210.94 1360.82 1210.94 1360.66 1210.92 1360.74 1208.73 1353.23C1208.78 1350.61 1209.28 1347.95 1209.23 1345.39L1208.92 1299.46 1094.76 1299.7C1086.89 1299.81 1084.93 1297.57 1085.21 1289.97L1085.27 1238.8 1077.41 1237.45C1074.69 1237.49 1071.97 1237.83 1069.29 1237.83 1033.32 1237.66 997.391 1237.69 961.426 1237.66 961.013 1237.17 960.601 1236.73 960.154 1236.25 957.025 1217.07 958.023 1197.85 959.535 1178.63 960.017 1177.43 960.807 1176.47 961.907 1175.75ZM1984.51 1174.02C1992.5 1173.98 2000.49 1174.35 2008.46 1175.47 1992.48 1175.95 1976.49 1176.85 1960.53 1175.06 1968.53 1174.51 1976.52 1174.05 1984.51 1174.02ZM3059.39 1117.65C3064.24 1117.52 3066.09 1119.34 3066.06 1124.25 3065.89 1139.34 3065.75 1154.43 3066.13 1169.49 3066.26 1175.44 3063.51 1176.09 3058.7 1176.02L3004.44 1175.99 3004.24 1230.16C3004.31 1235.87 3002.83 1237.86 2996.81 1237.83 2961.46 1237.55 2926.08 1237.62 2890.74 1237.79 2885.13 1237.79 2882.9 1236.42 2883.1 1230.3 2883.59 1216.24 2883.59 1202.18 2883.17 1188.12 2882.93 1180.11 2885.89 1177.23 2893.97 1177.29 2927.25 1177.57 2960.57 1177.43 2993.85 1177.36 2996.5 1177.36 2999.39 1178.15 3001.73 1176.09L3004.26 1175.73 3004.89 1173.03C3009.64 1162.99 3006.64 1152.34 3006.88 1142.03 3007.4 1117.72 3007.06 1117.72 3031.61 1117.72 3040.86 1117.72 3050.14 1117.89 3059.39 1117.65ZM2068.84 1117.52C2073.79 1117.34 2075.58 1118.75 2075.55 1123.64 2075.41 1139 2075.34 1154.4 2075.61 1169.77 2075.68 1174.82 2073.66 1176.16 2068.94 1176.06 2051.17 1175.68 2033.39 1175.61 2015.62 1175.4 2015.72 1174.92 2015.62 1174.48 2015.38 1174.03 2019.19 1159.97 2016.48 1145.63 2017.03 1131.44 2017.54 1117.83 2017.23 1117.76 2030.88 1117.72 2043.54 1117.69 2056.19 1117.96 2068.84 1117.52ZM2454.28 1114.08 2499.26 1114.52 2499.32 1114.39C2502.69 1114.32 2506.06 1114.29 2509.43 1114.22L2509.43 1114.32C2509.46 1151.72 2509.29 1189.12 2509.74 1226.48 2509.84 1235.49 2506.85 1238.76 2497.88 1238.38 2485.53 1237.83 2473.12 1238.69 2460.78 1238.1 2450.94 1237.62 2447.47 1241.3 2447.54 1251.2 2447.88 1303.35 2447.71 1355.53 2447.68 1407.67 2447.68 1418.26 2442.3 1423.56 2431.55 1423.59 2420.2 1423.59 2408.89 1423.69 2397.54 1423.59 2389.84 1423.52 2385.96 1427.3 2385.92 1434.79 2385.85 1468.76 2385.85 1502.75 2385.92 1536.71 2385.92 1545.69 2391.22 1548.23 2399.4 1548.2 2432.38 1548.02 2465.35 1548.44 2498.32 1547.92 2507.02 1547.78 2509.84 1550.4 2509.15 1558.92 2508.52 1567.03 2508.94 1575.19 2509.11 1583.34L2507.61 1606.61 2507.61 1607.77C2491.21 1607.97 2474.8 1608.73 2458.44 1608.21 2449.81 1607.94 2446.33 1609.59 2446.95 1619.18 2447.92 1633.48 2446.92 1647.88 2447.33 1662.22 2447.5 1668.47 2445.65 1670.47 2439.29 1670.33L2386.06 1670.26 2385.48 1723.16C2385.51 1730.48 2383.21 1732.31 2376.23 1732.13L2324.26 1732.07 2323.48 1743.07C2323.45 1797.45 2323.45 1851.83 2323.48 1906.21L2324.26 1917.24 2375.47 1917.1C2384 1916.76 2385.55 1919.79 2385.48 1927.52 2385.1 1964.51 2385.34 2001.46 2385.34 2038.45 2364.74 2038.45 2344.18 2038.51 2323.59 2038.55L2324.07 1917.41 2262.28 1917.41C2262.04 1908.2 2261.59 1899.02 2261.59 1889.81 2261.52 1840.9 2261.56 1792.01 2261.59 1743.1L2262.27 1732.03 2260.22 1731.34 2260.22 1731.34C2242.06 1731.55 2223.91 1731.69 2205.76 1732.03 2201.56 1732.1 2199.53 1730.97 2199.57 1726.32L2200.36 1546.71 2138.64 1545.86C2136.95 1525.75 2136.99 1505.64 2138.64 1485.53L2138.6 1485.53C2156.97 1485.29 2175.36 1485.26 2193.72 1484.78 2200.25 1484.6 2199.53 1488.62 2199.64 1492.75 2199.89 1501.74 2199.59 1510.74 2199.49 1519.73L2200.56 1546.55 2260.22 1547.37 2260.22 1547.37C2262.87 1550.74 2261.46 1554.66 2261.46 1558.27 2261.56 1612.48 2261.53 1666.69 2261.56 1720.89L2262.37 1731.89 2324.07 1731.89 2323.38 1675.76C2323.24 1669.95 2326.68 1670.16 2330.67 1670.19L2385.92 1670.12 2385.85 1556.93 2385.87 1556.93 2385.85 1556.92 2385.85 1556.93 2385.82 1556.93 2385.83 1556.91 2385.79 1556.89C2386.34 1548.88 2383.41 1545.79 2374.65 1546.34 2359.93 1547.27 2345.11 1546.41 2330.36 1546.68 2325.03 1546.79 2323.24 1545.1 2323.28 1539.71 2323.48 1502.99 2323.48 1466.28 2323.28 1429.57 2323.24 1423.76 2325.72 1422.83 2330.67 1422.9 2345.08 1423.14 2359.55 1422.25 2373.92 1423.24 2383.93 1423.93 2385.55 1420.15 2385.48 1411.21 2385.1 1357 2385.55 1302.8 2385.03 1248.59 2384.96 1239.34 2387.47 1236.93 2396.41 1237.42 2410.44 1238.21 2424.57 1237.24 2438.63 1237.79 2445.34 1238.07 2448.09 1235.9 2447.68 1229.37L2447.74 1229.34 2447.16 1120.92C2447.09 1115.42 2449.05 1113.94 2454.28 1114.08ZM1891.29 1113.91C1892.18 1114.18 1893.07 1114.42 1894 1114.7 1897.65 1119.24 1902.77 1117.45 1907.27 1117.55 1919.24 1117.83 1931.2 1117.69 1943.2 1117.65 1947.95 1117.65 1952.63 1118.07 1952.66 1124.25 1952.8 1139.96 1952.66 1155.67 1952.52 1171.42 1952.52 1173.55 1951.56 1175.37 1948.95 1175.54L1948.91 1175.42 1948.91 1175.54C1929.69 1176.06 1910.44 1176.54 1891.22 1175.3L1891.25 1175.27C1891.25 1160.24 1891.49 1145.26 1891.18 1130.24L1891.28 1129.66ZM3182.62 1053.79C3187.88 1053.79 3189.91 1055.4 3189.84 1060.83 3189.6 1076.58 3189.56 1092.35 3189.84 1108.13 3189.94 1113.49 3187.53 1114.25 3183.03 1114.22 3165.19 1114.04 3147.37 1114.15 3129.53 1114.15 3112.03 1114.15 3094.53 1113.94 3077.06 1114.25 3071.01 1114.35 3068.53 1112.77 3068.77 1106.21 3069.26 1092.53 3069.15 1078.81 3068.84 1065.1 3068.67 1057.29 3071.73 1053.82 3079.71 1053.86 3114.02 1053.99 3148.3 1053.96 3182.62 1053.79ZM2128.87 1053.72C2134.89 1053.55 2137.81 1055.2 2137.54 1061.69 2137.2 1069.56 2137.47 1077.44 2137.47 1085.34L2137.44 1085.34C2137.06 1094.52 2141.7 1106.55 2136.1 1112.15 2130.04 1118.24 2117.91 1113.87 2108.45 1114.01 2099.24 1114.15 2087.17 1117.93 2081.7 1112.43 2077.37 1108.06 2081.01 1095.79 2081.05 1087.06 2081.08 1079.19 2081.32 1071.28 2081.01 1063.41 2080.7 1056.23 2083.9 1053.65 2090.81 1053.79 2103.5 1054.03 2116.22 1054.1 2128.87 1053.72ZM847.858 1052.34C861.233 1052.34 874.608 1052.27 887.983 1052.34 900.361 1052.41 901.53 1053 902.321 1065.54 903.181 1079.19 903.421 1092.87 902.08 1106.55L902.08 1106.59 899.957 1113.97 926.08 1116.52C934.908 1116.47 943.753 1115.9 952.555 1116 960.807 1116.11 964.555 1118.44 963.867 1127.11 962.561 1143.3 966.102 1159.66 961.907 1175.75 961.907 1175.75 961.598 1175.85 961.598 1175.85 959.466 1177.71 956.956 1178.84 954.171 1178.94 938.114 1179.46 922.057 1179.63 906 1178.84L899.776 1176.11 899.537 1237.55C883.755 1237.79 867.973 1237.97 852.225 1238.24 846.999 1238.34 843.733 1236.83 843.595 1230.78 843.183 1213.66 844.592 1196.51 842.804 1179.39 842.495 1176.47 843.569 1175.65 844.992 1175.56 846.415 1175.47 848.185 1176.11 849.268 1176.09L899.605 1175.85 899.708 1114.22 893.975 1117.1C891.826 1117.47 889.565 1117.38 887.364 1117.41 878.115 1117.62 868.832 1117.48 859.583 1117.48 847.319 1117.48 841.177 1123.78 841.153 1136.39 841.153 1145.64 841.153 1154.88 841.016 1164.13 840.878 1172.28 836.959 1175.88 828.947 1175.88 815.228 1175.88 801.509 1175.88 787.79 1175.88 780.811 1175.88 778.026 1172.52 778.026 1165.74 778.026 1131.82 777.923 1097.89 778.129 1063.96 778.198 1055.06 781.189 1052.51 791.263 1052.41 810.14 1052.2 828.982 1052.34 847.858 1052.34ZM1573.93 1052.24C1578.81 1052.17 1580.46 1053.72 1580.43 1058.67 1580.26 1094.66 1580.22 1130.65 1580.43 1166.67 1580.46 1173.31 1577.68 1174.68 1571.8 1174.54 1559.8 1174.2 1547.76 1173.96 1535.76 1174.61 1526.86 1175.09 1523.8 1172.31 1523.97 1163.1 1524.49 1131.92 1524.14 1100.71 1524.18 1069.5 1524.18 1064.03 1524.45 1058.53 1520.39 1052.38L1520.43 1052.34C1539.65 1052.34 1556.81 1052.48 1573.93 1052.24ZM2191.38 991.912C2197.74 991.706 2199.84 994.181 2199.77 1000.27 2199.53 1015.32 2199.7 1030.41 2199.7 1045.47 2199.7 1048.91 2200.15 1052.62 2194.82 1052.38 2176.05 1051.55 2157.17 1054.1 2138.47 1050.9 2138.78 1050.35 2138.98 1049.76 2139.15 1049.15L2139.09 1049.18C2142.97 1035.19 2140.19 1020.92 2140.7 1006.83 2141.25 992.118 2140.84 992.084 2155.38 992.05 2167.38 992.05 2179.38 992.325 2191.38 991.912ZM2252.31 932.272C2258.64 932.066 2261.8 933.647 2261.63 940.728 2261.25 955.062 2261.52 969.431 2261.52 983.799 2261.52 987.306 2261.87 990.881 2256.57 990.64 2237.83 989.815 2218.99 992.324 2200.32 989.196 2200.63 988.646 2200.84 988.062 2200.98 987.478L2200.98 987.443C2204.9 974.174 2202.15 960.631 2202.63 947.225 2203.14 932.41 2202.76 932.41 2217.41 932.375 2229.03 932.375 2240.69 932.616 2252.31 932.272ZM3389.98 930.656C3464.08 931.035 3538.21 931.035 3612.3 930.656 3622.45 930.588 3625.16 934.025 3624.99 943.684 3624.51 975.893 3624.48 1008.14 3624.99 1040.35 3625.16 1050.07 3621.73 1052.79 3612.44 1052.51L3561.26 1052.58 3563.32 1079.92C3563.21 1089.11 3562.62 1098.3 3562.45 1107.48 3562.31 1114.08 3555.68 1114.08 3550.42 1114.08 3516.48 1114.08 3482.58 1114.08 3448.64 1114.15L3437.51 1114.35 3439.41 1142.26C3439.28 1151.62 3438.74 1161 3438.84 1170.35 3438.91 1176.13 3433.82 1175.88 3429.66 1175.88 3412.88 1175.88 3396.07 1175.88 3379.29 1175.88L3252.05 1176.12 3253.81 1204.48C3253.67 1214 3253.15 1223.53 3253.31 1233.05 3253.38 1237.55 3250.01 1239.65 3245.71 1239.65 3207.79 1239.65 3169.83 1239.58 3131.9 1239.44L3128.29 1238.02 3127.71 1285.81C3127.57 1298.57 3126.88 1299.32 3114.44 1299.43L3066.48 1299.67 3068.13 1327.45C3068.02 1336.78 3067.55 1346.12 3067.67 1355.46 3067.74 1361.16 3062.93 1361.2 3058.7 1361.2L3004.62 1361.44 3006.28 1390.01C3006.17 1399.59 3005.68 1409.17 3005.68 1418.74 3005.68 1424.55 3000.49 1425.13 2995.74 1425.13 2986.87 1425.13 2977.99 1425.32 2969.12 1425.18L2942.66 1423.25 2942.73 1428.36C2943.35 1430.01 2944.32 1431.58 2944.86 1433.25L2944.93 1434.09 2944.93 1433.25C2949.67 1433.49 2948.95 1437.06 2948.98 1440.02 2949.05 1452.02 2948.98 1464.01 2948.98 1476.04 2948.98 1483.02 2945.89 1486.6 2938.67 1487.46 2922.58 1489.45 2906.45 1489.07 2890.39 1488.01 2884.65 1487.63 2884.55 1488.69 2884.76 1493.82 2885.34 1508.53 2884.82 1523.31 2885.13 1538.06 2885.27 1545.03 2883.28 1548.64 2875.51 1549.43 2859.72 1551.08 2844.01 1550.74 2828.26 1549.81 2823.59 1549.54 2822.52 1549.71 2822.76 1554.86 2823.42 1568.55 2822.76 1582.3 2823.28 1595.98 2823.62 1605.6 2820.46 1610.24 2810.11 1611.27 2797.73 1612.48 2785.42 1612.34 2773.11 1612.06 2765.34 1611.89 2763.11 1614.4 2763.21 1622.03 2763.59 1654.28 2763.38 1686.52 2763.35 1718.73 2763.35 1732.72 2761.32 1735.61 2747.12 1736.88 2734.54 1738.01 2721.78 1738.08 2709.13 1737.67 2701.22 1737.39 2699.22 1740.21 2699.33 1747.71 2699.67 1780.29 2699.26 1812.88 2699.6 1845.43 2699.7 1853.82 2697.44 1857.81 2688.32 1858.53 2671.24 1859.87 2654.22 1859.05 2637.61 1858.98 2637.61 1916.86 2637.61 1974.72 2637.61 2032.53 2637.61 2034.05 2637.7 2035.71 2637.18 2036.91L2633.11 2038.55 2633.07 2038.65C2612.44 2038.65 2591.81 2038.62 2571.21 2038.58L2571.18 2038.55C2571.11 1980.22 2571.18 1921.88 2570.91 1863.55 2570.91 1857.36 2572.42 1855.2 2578.92 1855.4 2597.11 1855.99 2615.29 1855.92 2633.48 1856.09L2633.48 1856.02 2633.51 1855.74 2633.48 1855.75C2633.45 1852.24 2633.38 1848.73 2633.35 1845.23L2633.38 1845.21 2632.83 1738.8C2632.76 1733.41 2634.51 1731.76 2639.84 1731.89L2686.9 1732.34 2686.91 1732.31C2692.83 1732.72 2695.03 1730.62 2694.93 1724.09 2694.55 1689.13 2695.17 1654.14 2694.48 1619.18 2694.31 1609.62 2697.33 1607.77 2706 1608.21 2720.37 1608.9 2734.81 1608.15 2749.22 1608.52 2755.13 1608.7 2756.88 1606.77 2756.75 1600.96 2756.37 1585.87 2756.99 1570.78 2756.47 1555.72 2756.23 1548.71 2758.02 1546.24 2765.45 1546.44L2818.91 1546.61 2818.46 1491.55C2818.33 1485.98 2820.39 1484.67 2825.58 1484.74L2880.7 1484.84 2880.29 1429.78C2880.18 1424.24 2882.18 1422.9 2887.37 1422.97L2942.55 1423.04 2942.18 1367.97C2942.07 1362.37 2944.14 1361.13 2949.29 1361.2L3004.48 1361.34 3004.07 1306.2C3003.96 1300.66 3005.92 1299.29 3011.15 1299.36L3066.3 1299.5 3065.92 1244.43C3065.82 1238.89 3067.74 1237.52 3072.97 1237.59L3128.15 1237.72 3127.78 1183.62C3127.57 1176.95 3130.01 1175.78 3136.03 1175.82L3251.83 1175.99 3251.45 1122.81C3251.18 1115.18 3254 1114.01 3260.8 1114.04L3437.36 1114.22 3437.09 1061.07C3436.85 1053.61 3439.39 1052.14 3446.34 1052.2L3561.04 1052.41 3561.11 999.234C3561.21 992.977 3560.08 990.365 3552.89 990.399L3375.51 990.605 3375.51 1044.88C3375.61 1050.62 3374.03 1052.48 3368.08 1052.48 3312.07 1052.27 3256.09 1052.31 3200.08 1052.45 3194.65 1052.45 3192.21 1051.52 3192.49 1045.12 3193.1 1031.06 3193.17 1016.97 3192.55 1002.91 3192.18 994.009 3195.79 991.912 3204.04 991.946 3256.27 992.221 3308.46 992.119 3360.69 992.015 3364.68 992.015 3368.91 993.253 3372.69 990.812L3375.32 990.427 3377.79 967.158C3377.71 959.299 3377.09 951.419 3377.09 943.581 3377.09 933.784 3379.98 930.622 3389.98 930.656ZM1459.4 927.739C1460.62 926.669 1463.35 927.202 1468.65 928.422L1468.65 928.456C1482.37 928.56 1496.12 929.006 1509.84 928.663 1516.27 928.525 1518.74 929.935 1518.64 937.016 1518.19 975.412 1518.26 1013.84 1518.19 1052.24 1517.23 1052.24 1516.27 1052.17 1515.27 1052.14 1499.9 1052.58 1484.5 1052.14 1469.13 1052.41 1461.81 1052.55 1459.12 1049.94 1459.23 1042.2 1459.64 1010.1 1459.4 977.99 1459.4 945.884 1459.4 942.825 1459.67 939.731 1459.23 936.672 1458.47 931.481 1458.18 928.809 1459.4 927.739ZM2276.52 868.473C2289.55 868.748 2302.58 868.714 2315.58 868.473 2321.32 868.335 2323.69 870.467 2323.48 876.208L2323.42 901.543 2324.37 915.266C2324.76 920.061 2324.48 924.572 2321.28 927.288 2315.82 931.929 2303.61 928.869 2294.4 928.766 2285.56 928.663 2274.18 932.444 2268.54 927.185 2262.83 921.857 2267.1 910.41 2266.75 901.645 2266.44 893.773 2266.92 885.901 2266.65 878.029 2266.37 870.845 2269.57 868.301 2276.52 868.473ZM2377.09 808.695C2383.45 808.489 2385.51 810.999 2385.41 817.117 2385.13 831.486 2385.34 845.855 2385.34 860.223 2385.34 863.729 2385.72 867.304 2380.39 867.064 2361.61 866.273 2342.77 868.714 2324.07 865.654 2324.34 865.104 2324.55 864.554 2324.72 863.97L2324.72 863.935C2328.64 850.667 2325.89 837.089 2326.37 823.683 2326.89 808.833 2326.51 808.833 2341.16 808.799 2353.12 808.799 2365.12 809.039 2377.09 808.695ZM1414.18 805.224 1456.13 805.224 1456.68 922.097C1456.72 927.838 1453.79 929.248 1449.22 929.282 1435.5 929.385 1421.82 929.282 1408.1 929.282 1400.6 929.282 1400.47 924.125 1400.47 918.66 1400.5 885.454 1400.5 852.248 1400.47 819.008 1400.47 805.224 1400.36 805.224 1414.18 805.224ZM2436.05 746.855C2444.31 746.099 2447.85 748.609 2447.4 757.546 2446.71 771.227 2447.06 784.977 2447.3 798.692 2447.37 803.505 2445.89 805.499 2440.87 805.258 2433.34 804.914 2425.77 805.189 2416.56 805.189L2416.52 805.224C2408.65 804.467 2396.41 809.245 2390.32 803.402 2384.2 797.524 2388.47 785.218 2388.47 775.73 2388.47 741.837 2384.79 747.509 2417.52 746.993 2423.71 746.89 2429.93 747.44 2436.05 746.855ZM1456.08 743.521 1456.3 743.521 1456.27 743.556C1456.27 743.556 1456.06 743.728 1456.06 743.728ZM1460.15 743.453C1465.04 745.412 1470.16 745.515 1475.35 745.481 1506.95 745.447 1538.55 745.722 1570.15 745.309 1579.43 745.206 1583.25 748.231 1582.83 757.752 1582.28 770.781 1583.52 783.911 1582.35 796.836 1581.6 805.155 1584.93 807.114 1591.74 807.149 1605.49 807.218 1619.25 807.664 1632.96 807.046 1642.11 806.633 1645.1 810.071 1644.72 818.939 1644.17 831.623 1644.72 844.342 1644.55 857.026 1644.45 864.004 1647.51 866.995 1654.45 866.926 1668.9 866.789 1683.3 867.167 1697.74 866.823 1705.82 866.651 1708.78 870.054 1708.61 877.892 1708.3 890.232 1708.54 902.607 1708.54 914.947 1708.56 925.442 1714.01 930.701 1724.87 930.725 1735.53 930.725 1746.19 931.069 1756.81 930.657 1765.17 930.313 1768.71 933.51 1768.43 942.035 1768.02 955.75 1768.88 969.534 1768.02 983.181 1767.61 989.609 1769.64 990.537 1775.07 990.469 1789.17 990.262 1803.27 990.915 1817.33 990.296 1827.02 989.85 1831.01 992.737 1830.43 1002.98 1829.64 1017.35 1830.36 1031.79 1829.91 1046.19 1829.74 1051.41 1831.6 1052.96 1836.31 1052.38 1849.82 1055.37 1863.5 1053.55 1877.09 1053.55 1885.92 1053.55 1889.5 1056.19 1889.12 1065.34 1888.54 1079.02 1888.81 1092.77 1889.05 1106.48 1889.15 1111.88 1888.02 1114.42 1881.8 1114.25 1866.7 1113.84 1851.57 1113.77 1836.48 1114.25 1829.74 1114.46 1827.64 1112.53 1827.75 1105.69 1828.02 1087.54 1827.51 1069.39 1827.33 1051.24L1827.16 1051.05 1827.26 1051.31C1807.36 1053.27 1787.45 1052.48 1767.54 1051.76L1767.54 1050.7 1765.87 1025.9C1766.06 1017.29 1766.56 1008.67 1765.96 1000.09 1765.72 996.725 1768.23 992.428 1763.48 990.09L1763.45 989.927 1763.45 990.125C1744.23 990.675 1724.97 991.052 1705.75 989.953L1705.72 989.987 1705.72 989.288 1703.89 974.02C1704.04 968.692 1704.57 963.347 1704.28 958.053 1703.73 948.257 1703.9 938.425 1703.76 928.629L1703.66 928.398 1703.66 928.731C1683.71 928.594 1663.81 928.422 1643.86 928.285L1643.86 928.25 1643.86 927.446 1641.88 916.452C1642.03 912.472 1642.61 908.468 1642.42 904.532 1641.84 891.985 1642.08 879.404 1641.97 866.823L1641.72 866.502 1641.8 866.892C1621.86 866.754 1601.95 866.651 1582.01 866.514L1582.01 866.071 1580.22 842.769C1580.41 834.829 1580.91 826.88 1580.26 818.974 1579.88 814.264 1582.83 808.833 1577.92 804.811L1577.88 804.735 1577.88 804.811 1458.23 804.811 1458.5 805.705C1457.89 805.774 1457.27 805.808 1456.68 805.877L1456.16 805.224 1456.13 805.224 1456.13 805.194 1454.41 803.058C1452.28 784.427 1453.18 765.727 1453.9 747.062 1454.17 745.894 1454.69 744.794 1455.38 743.797 1456.89 742.387 1458.47 742.147 1460.15 743.453ZM1347.27 683.125C1381.21 683.331 1415.18 683.228 1449.12 683.228 1453.04 683.228 1457.51 683.331 1457.44 688.488 1457.32 697.7 1457.85 706.93 1457.98 716.146L1456.08 743.521 1403.84 743.315C1396.86 743.109 1394.21 744.793 1394.52 752.253 1395.1 766.621 1394.52 781.024 1394.76 795.427 1394.86 801.339 1393.45 804.124 1386.75 803.883 1373.75 803.402 1360.68 803.505 1347.65 803.814 1341.22 803.952 1338.4 801.992 1338.44 795.049 1338.68 760.777 1338.68 726.54 1338.44 692.269 1338.4 685.738 1340.47 683.091 1347.27 683.125ZM2462.29 683.091C2495.95 683.332 2529.61 683.297 2563.24 683.091 2569.01 683.057 2571.15 684.982 2571.01 690.791 2570.73 705.881 2570.66 720.972 2571.04 736.062 2571.18 741.975 2569.19 743.659 2563.41 743.556L2510.89 743.453 2460.43 743.556C2454.62 743.659 2451.8 742.594 2452.08 735.718 2452.66 721.694 2452.52 707.6 2452.18 693.541 2452.01 686.15 2454.52 683.022 2462.29 683.091ZM2627.74 623.21C2632.24 623.107 2632.86 625.479 2632.86 628.951 2632.86 644.729 2632.73 660.507 2632.93 676.285 2633 681.2 2630.46 681.819 2626.5 681.75 2618.59 681.613 2610.72 681.716 2602.81 681.716 2602.81 681.578 2602.81 681.475 2602.81 681.338L2602.81 681.303C2593.91 681.303 2582.7 684.466 2576.85 680.238 2572.8 677.281 2576.03 664.219 2576.03 655.66 2576.03 647.444 2576.13 639.195 2576.03 630.979 2575.96 625.857 2578.26 623.451 2583.45 623.485 2598.21 623.485 2612.99 623.485 2627.74 623.21ZM2673.79 559.368C2680.8 559.274 2687.81 559.463 2694.79 560.752 2694.79 577.767 2694.51 594.783 2694.86 611.798 2694.99 617.813 2693.65 620.288 2687.02 620.048 2670 619.429 2652.98 619.532 2635.96 619.361L2635.99 619.326C2640.08 604.476 2637.23 589.351 2637.78 574.364 2638.33 559.652 2637.92 559.342 2652.74 559.687 2659.75 559.841 2666.77 559.463 2673.79 559.368ZM2830.26 438C2865.26 438.137 2900.23 438.172 2935.23 438 2942.35 437.966 2944.89 440.818 2944.86 447.831 2944.65 480.728 2944.62 513.624 2944.86 546.52 2944.93 554.22 2941.83 556.833 2934.44 556.627 2921.06 556.317 2907.69 556.592 2894.31 556.592 2885.13 556.592 2880.35 560.442 2880.73 570.308 2881.18 581.926 2880.32 593.648 2880.97 605.266 2881.52 615.098 2878.02 618.57 2868.08 618.57 2859.88 618.553 2851.65 618.106 2843.44 618.049L2818.88 619.873 2820.04 646.998C2819.96 656.055 2819.63 665.113 2819.74 674.154 2819.81 680.547 2814.75 681.544 2809.56 681.579 2796.84 681.647 2784.15 681.784 2771.43 681.544 2763.14 681.372 2759.67 684.604 2759.98 693.163 2760.46 706.534 2760.15 719.941 2760.08 733.312 2760.05 743.453 2758.47 745.206 2748.15 745.378 2734.74 745.619 2721.37 745.309 2707.96 745.481 2697.47 745.619 2696.23 746.925 2696.2 757.581 2696.16 790.511 2695.89 823.477 2696.4 856.407 2696.54 864.932 2693.34 867.167 2685.71 867.029 2670.62 866.685 2655.49 867.167 2640.36 866.789 2639.33 866.892 2638.3 866.96 2637.27 867.064L2633.41 867.064 2633.52 976.753C2633.62 986.171 2630.73 989.85 2621.21 989.196 2611.99 988.578 2602.71 989.059 2593.46 989.059 2580.19 989.059 2573.55 995.521 2573.55 1008.45 2573.55 1038.21 2573.55 1068.02 2573.55 1097.79 2573.55 1111.33 2572.31 1112.29 2558.94 1112.67 2542.54 1113.15 2526.07 1111.05 2509.74 1114.08 2509.53 1075.1 2509.46 1036.15 2509.05 997.171 2508.98 991.396 2511.35 990.4 2516.34 990.503 2531.06 990.743 2545.81 989.918 2560.49 990.846 2569.29 991.396 2572.07 988.234 2571.52 980.294L2571.6 980.246 2571.49 980.259C2571.32 944.784 2571.28 909.275 2570.91 873.801 2570.84 868.37 2572.66 866.754 2577.95 866.891 2592.98 867.304 2608 867.201 2623.03 867.338L2623.03 867.373 2633.29 866.965 2633.48 864.865 2632.83 749.228C2632.76 743.693 2635.58 743.315 2639.84 743.384L2691.06 743.796 2691.07 743.762C2696.37 742.937 2694.72 738.778 2694.72 735.684 2694.82 720.25 2695.1 704.816 2694.62 689.416 2694.41 682.884 2696.61 681.304 2702.8 681.475 2718.24 681.888 2733.68 681.372 2749.11 681.75 2754.86 681.888 2756.92 680.272 2756.75 674.291 2756.33 660.576 2757.26 646.826 2756.4 633.179 2755.75 622.935 2758.12 618.811 2769.47 619.567 2777.67 620.117 2785.9 620.186 2794.15 620.117L2818.84 619.842 2818.77 558.173 2697.4 557.864 2697.37 557.864C2697.47 541.812 2697.71 525.724 2697.68 509.671 2697.68 503.621 2699.15 499.875 2706.2 499.875 2741.79 499.943 2777.41 499.909 2813 499.6 2819.22 499.531 2818.43 503.209 2818.5 506.921L2818.98 558.002 2872.55 558.002C2875.4 558.002 2878.74 559.205 2880.9 555.974L2880.94 555.942 2880.56 504.858C2880.66 498.396 2879.12 495.955 2872.14 496.127L2825.07 495.852 2825.07 495.852 2825.07 495.887C2821.56 496.333 2821.32 494.237 2821.35 491.487 2821.46 476.396 2821.59 461.34 2821.42 446.25 2821.35 439.891 2824.34 438 2830.26 438Z" fill="#525252" fill-rule="evenodd"/></g></svg>