<?xml version="1.0" encoding="UTF-8"?><svg id="b" xmlns="http://www.w3.org/2000/svg" width="784.34" height="496.49" viewBox="0 0 784.34 496.49"><g id="c"><g><path d="M494.83,205.14c4.22,1.22,8.53,.39,12.79,.56,3.79,.15,4.34,.54,4.41,4.3,.05,3.1,.19,6.21-.03,9.29-.21,2.88,.98,3.66,3.66,3.53,3.39-.17,6.79,.02,10.19-.04,1.89-.03,2.71,.71,2.66,2.67-.09,3.8,.04,7.6-.03,11.39-.04,2.17,.85,3.09,3.03,3.04,3.69-.07,7.39,.06,11.09-.04,2.18-.06,3.08,.73,3.01,2.96-.11,3.7,.04,7.4-.04,11.09-.04,2.18,.88,3.07,3.04,3.03,3.6-.08,7.2,.11,10.79-.05,2.54-.11,3.35,.92,3.25,3.35-.14,3.49,.03,7-.05,10.49-.06,2.31,.98,3.3,3.22,3.29,3.5-.02,7,.1,10.49-.02,2.43-.08,3.47,.82,3.38,3.31-.12,3.39,.05,6.8-.04,10.19-.06,2.15,.7,3.09,2.96,3.01,3.39-.13,6.8,.06,10.19-.05,2.42-.08,3.47,.81,3.39,3.3-.12,3.59,.06,7.2-.04,10.79-.08,2.72,1.08,3.76,3.78,3.66,3.49-.14,6.99,.01,10.49-.03,2.78-.03,4,1.31,3.96,4.04-.05,3.4,.07,6.8-.02,10.2-.05,2.06,.73,2.89,2.81,2.82,3.39-.1,6.8,.08,10.19-.05,2.56-.1,3.66,.81,3.55,3.46-.14,3.49,.04,7-.05,10.49-.06,2.3,.86,3.28,3.19,3.21,3.39-.1,6.8,.1,10.19-.05,2.68-.13,3.85,.78,3.71,3.59-.17,3.39,.06,6.8-.06,10.19-.09,2.5,.98,3.39,3.39,3.31,3.29-.11,6.6,.11,9.89-.06,2.82-.15,4.04,.79,3.88,3.75-.19,3.49,0,7-.05,10.49-.03,2.03,.84,2.93,2.86,2.9,3.4-.04,6.79-.01,10.19,0,3.77,.02,3.95,.19,3.97,3.85,.02,3.4,.07,6.8,0,10.2-.05,2.21,.93,3.05,3.07,3.01,3.6-.06,7.19,.04,10.79-.02,1.92-.04,2.71,.75,2.67,2.67-.07,3.4-.03,6.8,0,10.2,.03,3.99,.8,4.79,4.69,4.82,3.2,.03,6.4,.14,9.59-.03,2.84-.15,4.05,.93,3.94,3.8-.12,2.99-.03,6-.02,9,.02,4.25,.05,4.28,4.45,4.29,3,0,6,.09,8.99-.02,2.15-.08,3.11,.65,3.04,2.92-.11,3.29,.12,6.6-.03,9.89-.12,2.68,.79,3.85,3.6,3.72,3.49-.16,6.99,.06,10.49-.02,2.2-.05,3.05,.9,3,3.05-.08,3.7,.07,7.4-.04,11.09-.07,2.23,.82,3.02,3,2.95,3.59-.11,7.2,.08,10.79-.05,2.52-.09,3.37,.97,3.29,3.39-.12,3.49,.1,7-.06,10.49-.12,2.55,.92,3.33,3.34,3.23,3.59-.14,7.19,.02,10.79-.05,2.19-.04,3.05,.92,3,3.07-.08,3.6-.05,7.2-.02,10.8,.02,2.22-.92,3.38-3.25,3.24-1-.06-2,0-3,0-152.96,0-305.92,0-458.88,0-1.2,0-2.39-.07-3.59-.1-1.49,.18-2.99,.18-4.49,.18-101.32,0-202.64,0-303.96,0q-6.35,0-6.35-6.26c0-2.4,.1-4.8-.03-7.2-.13-2.43,.76-3.47,3.27-3.37,3.29,.13,6.59,0,9.89,.04,2.16,.03,3.09-.9,3.06-3.06-.05-3.6-.05-7.2,0-10.8,.05-2.9,.63-3.49,3.56-3.54,3.4-.06,6.8-.11,10.19,.02,2.43,.09,3.46-.76,3.36-3.28-.14-3.49,.03-7-.06-10.5-.05-2.18,.85-3.09,3.01-3.06,3.6,.05,7.2-.06,10.79,.03,2.48,.07,3.4-1.01,3.32-3.42-.1-3.3-.07-6.6,0-9.9,.05-2.91,.6-3.45,3.56-3.49,3.4-.05,6.8-.05,10.19,0,2.18,.03,3.06-.95,3.03-3.09-.05-3.5,.02-7-.02-10.5-.02-2.28,1-3.27,3.27-3.23,3.2,.05,6.39,.02,9.59,0,4.45-.02,5.12-.71,5.13-5.29,0-3.1,.06-6.2-.01-9.3-.05-2.41,.98-3.47,3.4-3.42,3.3,.07,6.59,.05,9.89,0,2.92-.04,3.45-.56,3.49-3.54,.05-3.3,.06-6.6,0-9.9-.05-2.44,1.06-3.43,3.45-3.37,3.1,.07,6.19,.05,9.29,0,3.19-.04,4.01-.88,4.05-4.15,.03-3.2,.08-6.4-.01-9.6-.07-2.41,.82-3.48,3.33-3.36,3.09,.14,6.19,.07,9.29,.02,3.72-.05,4.17-.51,4.19-4.11,.02-3.3,.02-6.6,0-9.9-.01-2.13,.97-3.1,3.1-3.09,3.5,.02,6.99,.05,10.49-.01,2.85-.05,3.73-.94,3.78-3.81,.06-3.2-.01-6.4,.02-9.6,.04-3.16,.23-3.34,3.48-3.37,3-.03,6,.04,8.99-.02,3.64-.08,4.85-1.31,4.9-4.9,.04-2.8,0-5.6,.01-8.4,.03-3.6,.5-4.05,4.23-4.08,2.9-.02,5.8,.01,8.69,0,3.34-.02,4.01-.59,4.13-3.99,.12-3.4,.11-6.8,0-10.2-.08-2.31,.82-3.28,3.15-3.23,3.39,.08,6.8-.04,10.19,.04,2.33,.06,3.24-.96,3.19-3.24-.08-3.3-.06-6.6,0-9.9,.05-3.01,.69-3.63,3.77-3.67,2.9-.04,5.8,0,8.69-.01,4.17-.01,4.3-.15,4.31-4.47,0-2.7-.02-5.4,0-8.1,.03-3.75,.46-4.19,4.09-4.22,3-.02,6,.01,8.99-.01,3.24-.03,4.73-1.4,4.87-4.68,.13-3.1,.09-6.2,.01-9.3-.06-2.45,1.05-3.45,3.42-3.42,2.9,.04,5.8,.01,8.69,0,4.03-.01,4.07-.05,4.09-3.96,.01-3.2,.04-6.4,0-9.6-.04-2.27,.95-3.28,3.24-3.25,3.5,.05,6.99,.06,10.49,0,2.64-.05,3.6-1,3.65-3.63,.07-3.5,.06-7,0-10.5-.04-2.31,1.07-3.26,3.28-3.25,3.7,0,7.39-.04,11.09,.01,2.17,.03,3.07-.92,3.04-3.07-.05-3.6-.05-7.2,0-10.8,.05-2.94,.6-3.59,3.53-3.5,4.26,.12,8.56-.58,12.79,.44,.86,1.11,.8,2.44,.8,3.73,.03,8.48,.05,16.96,0,25.44-.03,4.15-.74,4.81-4.93,4.9-2.99,.06-5.98,.02-8.97,.03-2.01,0-2.87,.9-2.86,2.91,.02,3.29,.05,6.59-.03,9.88-.04,1.47,.12,3.05-1.36,4.06-4.15,.88-8.35,.26-12.53,.41-3.58,.13-4.12,.6-4.18,4.23-.04,3,.06,6-.04,9-.09,2.88-.69,3.47-3.61,3.55-3.2,.09-6.39-.02-9.59,.05-2.89,.06-3.47,.64-3.54,3.57-.08,3.4-.06,6.8-.02,10.2,.03,2.54-1.18,3.64-3.62,3.69-3.1,.07-6.2,.08-9.29,.02-2.33-.04-3.21,.98-3.17,3.24,.06,3,.07,6-.02,9-.11,3.82-.77,4.46-4.66,4.56-2.9,.07-5.79,0-8.69,.03-3.69,.04-3.94,.28-4,3.88-.05,3.1,.07,6.2-.05,9.3-.13,3.3-.86,4.04-4.13,4.17-3.09,.12-6.2,.1-9.29,.03-2.45-.06-3.49,.99-3.33,3.4,.06,.79,0,1.6,0,2.4-.09,12.28,1.25,10.92-11.16,11.01-1,0-2,.05-3,0-2.26-.1-3.27,.88-3.24,3.19,.05,3.3,.09,6.6-.03,9.9-.12,3.45-.84,4.15-4.34,4.27-2.7,.09-5.39,0-8.09,.04-4.05,.04-4.27,.25-4.32,4.2-.03,2.9,.09,5.8-.06,8.7-.15,2.97-.86,3.69-3.82,3.84-3.39,.17-6.79,.11-10.19,.04-2.45-.05-3.42,1.01-3.33,3.41,.08,2.4,.02,4.8,.01,7.2-.01,6.57-.23,6.79-6.66,6.81-2.2,0-4.4-.04-6.59,.01-3.16,.07-3.44,.34-3.52,3.43-.07,3.1,.07,6.2-.06,9.3-.13,3.14-.85,3.88-3.96,4.01-3.49,.15-6.99,.06-10.49,.05-2.01,0-2.9,.85-2.89,2.87,0,3.5,.1,7-.05,10.49-.13,3.14-.86,3.86-3.98,3.99-3.29,.14-6.59,.06-9.89,.04-2.03,0-2.87,.89-2.86,2.9,0,3.3,.1,6.6-.05,9.89-.14,3.11-.87,3.82-4.02,3.96-2.89,.13-5.79,.01-8.69,.05-3.79,.04-3.98,.24-4.02,4.14-.03,2.8,.06,5.6-.03,8.4-.13,3.78-1.08,4.71-4.92,4.83-3,.09-5.99-.03-8.99,.05-3.08,.08-3.36,.37-3.43,3.53-.05,2.1-.01,4.2-.01,6.3,0,6.77-.17,6.94-6.81,6.95-2.3,0-4.6,.04-6.89,0-2.12-.04-3.12,.84-3.09,3.02,.05,3,.02,6,.01,9,0,2.04,.97,2.9,2.94,2.83,.9-.03,1.8,.01,2.7,.01,222.99,0,445.98,0,668.96,0q5.72,0,5.72-5.77c0-1.9-.07-3.8,.01-5.7,.1-2.4-.88-3.46-3.33-3.41-3.29,.07-6.59,.1-9.89-.03-3.29-.13-4-.85-4.13-4.16-.12-3,.01-6-.05-9-.07-3.24-.36-3.52-3.68-3.58-2.5-.05-5,0-7.49-.02-5-.04-5.54-.57-5.59-5.46-.03-2.9-.06-5.8,0-8.7,.05-2.26-.86-3.28-3.18-3.24-3.39,.05-6.8,.11-10.19-.04-3.12-.14-3.84-.86-3.98-4-.14-3.1,.02-6.2-.07-9.3-.08-3.06-.4-3.37-3.54-3.44-2.8-.06-5.6,.03-8.39-.03-4.04-.09-4.73-.75-4.82-4.71-.08-3.2-.05-6.4-.02-9.6,.02-2.15-.89-3.08-3.04-3.07-3.4,.02-6.8,.09-10.19-.04-3.29-.13-3.99-.85-4.12-4.17-.11-2.8-.01-5.6-.04-8.4-.04-3.96-.24-4.15-4.31-4.19-2.7-.03-5.4,.06-8.09-.04-3.51-.12-4.23-.82-4.34-4.26-.11-3.3-.08-6.6-.02-9.9,.04-2.3-.95-3.24-3.22-3.21-3.2,.05-6.39,.07-9.59-.02-3.78-.1-4.47-.82-4.57-4.67-.07-2.8,.02-5.6-.03-8.4-.06-3.32-.35-3.62-3.59-3.69-3.1-.07-6.2,.09-9.29-.07-2.95-.15-3.69-.88-3.84-3.83-.18-3.49-.08-7-.06-10.49,.01-2.18-.95-3.05-3.08-3.02-3,.04-5.99,.03-8.99,0-4.71-.06-5.25-.62-5.31-5.43-.03-2.4,.01-4.8-.01-7.2-.05-3.88-.26-4.1-4.03-4.15-2.8-.04-5.6,.06-8.39-.04-3.52-.12-4.21-.8-4.32-4.27-.1-3.3-.08-6.6-.02-9.9,.04-2.31-.94-3.24-3.21-3.21-3.2,.04-6.4,.11-9.59-.04-3.11-.15-3.82-.87-3.96-4.03-.12-2.7-.03-5.4-.04-8.1-.03-4.42-.18-4.6-4.5-4.62-7.59-.02-15.19,0-22.78,0-1,0-2-.03-3-.04-2.35-.02-3.27-1.03-3.23-3.51,.14-8.79,.07-17.59,.05-26.39,0-3.98-.36-4.33-4.23-4.37-2.9-.03-5.8,.08-8.69-.05-2.85-.12-3.71-.99-3.82-3.86-.11-3-.08-6-.02-9,.03-1.83-.18-3.58-1.03-5.22-.6-4.78-.27-9.58-.21-14.37,.01-.98-.12-2.33,1.46-2.53Z"/><path d="M494.83,205.14c-1.1,3.26-.3,6.62-.5,9.93-.13,2.27-.07,4.54-.1,6.81-.53,1.21-1.6,1.38-2.74,1.44-1.3,.06-2.6,.04-3.9,.04-52.46,0-104.92,0-157.38,.02-1.57,0-3.21-.38-4.67,.58-1.08,1.18-.73,2.65-.73,4.01-.03,13.77,0,27.54-.02,41.31,0,5.09-.57,5.64-5.69,5.67-2.59,.02-5.19-.02-7.78,.02-1.14,.02-2.51,.14-2.53,1.51-.04,4.33-.93,8.72,.54,12.98,2.99,1.24,6.12,.49,9.17,.55,6.29,.14,6.41,.15,6.41,6.35,0,8.09,.05,16.18-.02,24.27-.03,4.04-.73,4.71-4.71,4.81-3.19,.08-6.39,.06-9.58,.01-2.12-.03-3.12,.78-3.07,2.98,.06,3.19,.03,6.39,.01,9.59-.01,2.02,.9,2.88,2.9,2.88,3.29,0,6.59-.06,9.88,.03,3.79,.1,4.55,.81,4.57,4.66,.07,14.58,.08,29.17,0,43.75-.02,3.67-.8,4.48-4.43,4.45-4.48-.03-8.98,.52-13.43-.39-.37-.17-.65-.43-.87-.77-.68-1.41-.55-2.92-.55-4.41-.02-7.89,0-15.77-.01-23.66,0-4.85-.05-4.89-4.77-4.91-2.29-.01-4.59,.03-6.88-.01-4.39-.08-5.03-.72-5.13-5.03-.02-1,0-2,0-2.99,0-18.57,0-37.13,0-55.7,0-1.99,.05-3.99-.34-5.97-.45-5.21-.1-10.44-.28-15.66,1.12-5.9,1.08-11.81,.05-17.72,.3-5.27-.08-10.54,.23-15.81,.11-.57,.41-1.02,.86-1.38,.98-4.71,.38-9.48,.37-14.21,0-2.54,.77-3.2,3.2-3.07,3.77,.21,7.57,0,11.35,.08,1.67,.04,2.51-.28,2.49-2.25-.12-10.36-.11-20.72-.15-31.08,.11-1.25,1.16-1.34,1.97-1.34,5.62,0,11.27-.76,16.84,.56,50.19,0,100.39,0,150.58-.01,5.46-1.26,10.99-.57,16.5-.54,.6,0,1.14,.28,1.6,.7,1,1.27,.87,2.77,.85,4.24-.04,4.23-.08,8.46-.11,12.69Z" style="fill:#fe0000;"/><path d="M325.41,188.07c-5.25,.03-10.5,.04-15.75,.1-1.05,.01-2.22-.35-3.07,.67-4.2,.02-8.39,.12-12.58,.02-2.17-.06-3.07,.64-2.98,2.91,.14,3.49,.06,7,.02,10.49-.04,3.32-.8,4.1-4.06,4.14-3.5,.05-7,.11-10.49-.01-2.18-.07-3.07,.67-2.99,2.93,.13,3.49,0,7,.04,10.49,.02,2.61-1.19,3.87-3.82,3.85-3.6-.03-7.19,.07-10.79-.03-1.94-.05-2.7,.67-2.65,2.62,.09,3.5-.07,7,.05,10.49,.09,2.87-1.18,3.96-3.96,3.87-3.29-.11-6.59,.03-9.89-.04-1.79-.04-2.55,.67-2.51,2.47,.06,3.1,.07,6.2-.01,9.29-.11,4.21-1.46,5.48-5.63,5.49-3.1,0-6.2,.11-9.29-.03-2.27-.1-2.99,.84-2.91,3,.12,3.39-.04,6.8,.05,10.19,.07,2.71-1.2,3.81-3.81,3.77-3.5-.05-6.99,.05-10.49-.02-1.94-.04-2.69,.78-2.65,2.68,.06,3.5-.07,7,.03,10.49,.08,2.61-1.09,3.6-3.61,3.51-2.99-.1-5.99-.03-8.99-.02q-4.05,0-4.05,4.2c0,3.2-.04,6.4,0,9.59,.03,2.64-1.15,3.83-3.83,3.75-3.39-.1-6.79,.07-10.19-.04-2.24-.08-3.03,.85-2.93,3.02,.12,2.69,.04,5.4,.02,8.09-.04,4.98-1.19,6.11-6.25,6.14-3,.02-5.99,.06-8.99,0-1.67-.04-2.32,.63-2.28,2.3,.07,3.6,0,7.2,.02,10.79,.02,2.59-1.18,3.88-3.82,3.85-3.6-.04-7.19,.06-10.79-.02-1.93-.05-2.7,.7-2.64,2.64,.09,3.1,.03,6.2,.02,9.29-.01,4.77-.26,5.01-5.16,5.02-3.1,0-6.19,.05-9.29-.01-1.79-.04-2.52,.71-2.49,2.5,.06,3.6-.03,7.2,.02,10.79,.04,2.77-1.25,4.02-4.01,3.97-3.4-.06-6.79,.04-10.19-.03-1.8-.04-2.5,.68-2.46,2.48,.08,3.4,.07,6.8,0,10.19-.07,3.34-1.02,4.23-4.34,4.26-3.1,.03-6.2,.13-9.29-.03-2.42-.12-3.47,.63-3.3,3.2,.19,2.89,.05,5.79,.04,8.69,0,5.25-.75,5.97-6.12,5.98-2.9,0-5.8,.13-8.69-.04-2.43-.14-3.15,.84-3.04,3.15,.15,3.29-.02,6.6,.04,9.89,.06,2.8-1.25,4-4.01,3.94-3.39-.07-6.8,.08-10.19-.04-2.12-.08-2.82,.76-2.75,2.81,.11,3.49-.03,7,.04,10.49,.05,2.43-1.01,3.44-3.42,3.39-3.59-.08-7.2,.1-10.79-.06-2.41-.1-3.15,.85-3.07,3.16,.14,3.59-.02,7.2,.05,10.79,.04,2.17-.86,3.08-3.04,3.03-3.59-.08-7.2,.09-10.79-.05-2.31-.09-3.25,.65-3.15,3.06,.15,3.59-.03,7.2,.06,10.79,.05,2.41-.94,3.49-3.38,3.43-3.49-.07-6.99,.05-10.49-.04-1.75-.04-2.56,.48-2.5,2.37,.1,3.5,.09,7,0,10.49-.05,1.89,.6,2.83,2.58,2.68,.99-.07,2,0,3,0,101.69,0,203.38,0,305.07,.03,1.23,0,2.59-.53,3.69,.54-.91,.91-2.08,.54-3.13,.54-102.3,.02-204.59,.02-306.89,.02-.2,0-.4,0-.6,0q-4.97-.07-4.97-4.99c0-3.3,.07-6.6-.02-9.89-.06-2.17,.8-3.09,3-3.04,3.59,.09,7.19-.05,10.79,.04,1.93,.05,2.71-.65,2.66-2.61-.09-3.7,.05-7.4-.04-11.09-.06-2.42,.97-3.5,3.37-3.46,3.4,.05,6.8-.14,10.19,.05,2.69,.16,3.83-.62,3.64-3.5-.23-3.48-.01-6.99-.06-10.49-.03-2.13,.91-3.11,3.07-3.08,3.5,.05,7.01-.18,10.49,.06,2.9,.2,3.64-.98,3.48-3.64-.18-3.19,.04-6.4-.07-9.59-.08-2.42,.83-3.48,3.32-3.4,3.49,.12,6.99-.04,10.49,.04,2.29,.05,3.28-.9,3.23-3.21-.07-3.6,.04-7.2-.02-10.79-.04-2.16,.87-3.09,3.04-3.04,3.59,.08,7.2-.09,10.79,.05,2.8,.11,4.05-.9,3.92-3.81-.15-3.59,.04-7.2-.05-10.79-.07-2.35,.96-3.23,3.23-3.17,3.49,.08,6.99-.05,10.49,.03,2.29,.05,3.31-.97,3.3-3.22-.02-3.6,.07-7.2,0-10.79-.04-2.18,.9-3.08,3.05-3.04,3.5,.07,6.99-.06,10.49,.03,2.17,.06,3.08-.79,3.03-3-.09-3.6,.04-7.2-.03-10.79-.05-2.28,.91-3.3,3.21-3.26,3.4,.06,6.8-.09,10.19,.04,2.61,.1,3.86-.69,3.67-3.58-.22-3.48-.02-6.99-.05-10.49-.02-2.13,.97-3.11,3.1-3.09,3.5,.03,7-.14,10.49,.04,2.82,.15,3.72-.99,3.57-3.69-.17-3.29,.06-6.6-.06-9.89-.09-2.62,1.04-3.58,3.58-3.5,3.39,.11,6.8-.1,10.19,.06,2.8,.13,3.79-1.27,3.82-3.76,.03-3.3,.1-6.6,0-9.89-.07-2.46,1.16-3.47,3.43-3.49,3.3-.03,6.61-.19,9.89,.03,3,.2,3.91-1.13,3.84-3.86-.09-3.3-.03-6.6,0-9.89,.03-3.53,.39-3.88,4.02-3.9,3.2-.02,6.4-.1,9.59,.02,2.07,.08,2.88-.66,2.82-2.76-.11-3.39,0-6.8-.02-10.19-.01-2.46,1.06-3.69,3.63-3.64,3.39,.07,6.79-.06,10.19,.03,2.29,.06,3.27-.83,3.2-3.18-.11-3.5,.01-7-.03-10.49-.03-2.39,1.03-3.45,3.46-3.38,3.39,.09,6.8-.13,10.19,.06,2.94,.16,3.99-1.29,4.04-3.89,.05-3.2,.13-6.4,0-9.59-.11-2.76,1.12-3.78,3.76-3.71,3.39,.09,6.79-.03,10.19,.03,1.79,.03,2.52-.72,2.5-2.5-.05-3.7,.09-7.4-.04-11.09-.09-2.64,1.01-3.56,3.57-3.46,3.49,.13,6.99-.06,10.49,.06,2.37,.08,3.2-.91,3.13-3.2-.11-3.49,.05-7-.04-10.49-.06-2.42,.97-3.5,3.37-3.47,3.5,.04,7-.13,10.49,.04,2.93,.14,3.92-1.09,3.78-3.9-.16-3.29-.05-6.6-.03-9.89,.02-3.58,.28-3.83,4.01-3.85,3.2-.01,6.41-.2,9.59,.06,2.8,.23,3.41-.91,3.27-3.42-.18-3.09-.1-6.2-.01-9.29,.09-3.43,.74-4.04,4.04-4.06,3.4-.02,6.8,.09,10.19-.04,2.18-.08,3.06,.64,2.97,2.91-.14,3.69,.02,7.4-.06,11.09-.03,1.39,.33,2.44,1.54,3.15Z" style="fill:#5b5b5b;"/><path d="M323.88,120.48c0,4.69-.03,9.38,.02,14.07,.02,1.96-.66,2.92-2.79,2.85-3.39-.12-6.79-.14-10.17,0-2.67,.11-4.07-1.21-4.1-3.64-.11-8.98-.11-17.96,0-26.94,.03-2.39,1.32-3.77,4.06-3.61,3.28,.19,6.58,.13,9.87,.02,2.36-.08,3.19,.91,3.14,3.2-.1,4.69-.03,9.38-.03,14.07Z" style="fill:#585858;"/><path d="M323.88,154.16c0-4.6,.08-9.19-.03-13.78-.05-2.12,.53-3.12,2.86-3.02,3.69,.15,7.39,.12,11.08,.02,2.11-.06,3.1,.6,3.08,2.88-.08,9.29-.06,18.58,0,27.87,.01,2.02-.69,2.91-2.79,2.85-3.69-.1-7.39-.12-11.08,.02-2.29,.09-3.21-.66-3.14-3.05,.14-4.59,.04-9.19,.04-13.78Z" style="fill:#585858;"/><path d="M493.74,137.21c0,4.59-.07,9.17,.03,13.76,.05,2.14-.65,3.11-2.91,3.03-3.48-.12-6.97-.06-10.46-.02-2.01,.02-3.09-.57-3.06-2.9,.1-9.27,.07-18.54,.02-27.81-.01-2,.66-2.93,2.76-2.88,3.58,.09,7.17,.11,10.76,0,2.28-.07,2.93,.95,2.89,3.07-.09,4.58-.03,9.17-.03,13.76Z" style="fill:#585858;"/><path d="M323.3,34.08c-.17,.02-.34,.07-.5,.14-4.54,.95-9.1,.63-13.65,.2-1.8-.17-2.53-1.46-2.54-3.14-.05-9.08-.07-18.16,.01-27.23,.02-2.21,1.17-3.51,3.55-3.5,3.59,.02,7.18,.01,10.77,0,1.94,0,3,.8,3.01,2.83,.02,9.48,.04,18.95-.02,28.43,0,.79-.11,1.6-.63,2.27Z" style="fill:#595959;"/><path d="M477.47,170.87c-4.78,.03-9.57,0-14.35,.12-2.22,.06-3.02-.81-2.95-3,.12-3.59,.08-7.19,.02-10.78-.04-2.31,1.03-3.25,3.27-3.23,3.79,.04,7.59,.09,11.38-.03,1.99-.06,2.61,.71,2.57,2.63-.08,4.78,0,9.56,0,14.35l.06-.06Z" style="fill:#5b5b5b;"/><path d="M494.09,188.21c-6.04-.05-12.08-.1-18.11-.16,1.14-.78,1.43-1.85,1.41-3.21-.04-4.66,.04-9.32,.08-13.97,0,0-.06,.06-.06,.06,4.36,.01,8.72,.12,13.08,0,2.49-.07,3.29,.94,3.29,3.34,0,4.65-.36,9.31,.3,13.94Z" style="fill:#595a5a;"/><path d="M459.82,50.87c-.56-1.95-.34-4.04-.35-6.11-.02-7.99,.03-15.98-.03-23.97-.02-2.49,.84-3.66,3.51-3.54,3.79,.16,7.59,.1,11.38,.02,2.56-.05,3.83,.77,3.79,3.62-.12,9.19-.09,18.38-.02,27.57,.02,2.68-1.06,3.81-3.75,3.75-4.46-.1-8.92-.03-13.36-.03,.07,1.03,.21,2.1,.21,3.18,.01,14.38,.01,28.77,0,43.15,0,3.5-1.54,5.1-5.04,5.16-3.19,.05-6.39,0-9.58,.02-2.61,.02-4.04-.91-4.03-3.87,.08-15.18,.07-30.37,0-45.55,0-2.38,.75-3.49,3.27-3.43,4.65,.11,9.3,.03,13.97,.03Z" style="fill:#c7c7c7;"/><path d="M485.37,16.74q-8,0-8-8.06c0-1.6,.11-3.2-.02-4.78-.18-2.16,.69-3.16,2.86-3.14,3.59,.03,7.18,.02,10.76,.01,1.94,0,2.88,.78,2.8,2.89-.13,3.39-.12,6.78,0,10.17,.07,2.24-.86,3.06-3.02,2.93-1.79-.11-3.59-.02-5.38-.02Z" style="fill:#5a5a5a;"/><path d="M323.95,34.16c5.02-1.14,10.1-.52,15.15-.37,1.98,.06,2.35,1.73,2.34,3.53-.04,9.28,.05,18.57-.07,27.85-.03,2.16,.66,2.72,2.7,2.64,3.59-.15,7.18-.02,10.77-.04,2.59-.01,3.86,1.24,3.85,3.84-.02,3.59-.03,7.19,0,10.78,.03,2.66-.95,4.14-3.89,3.95-4.66-.3-9.36,.5-13.99-.56l-.13-.13c-1.06-5.6-.39-11.23-.41-16.64-4.44,0-8.89,.05-13.33-.02-2.08-.03-3.53-1.31-3.55-3.32-.11-10.06-.05-20.12,0-30.19,0-.45,.38-.91,.58-1.36l-.02,.02Z" style="fill:#b9b9b9;"/><path d="M323.3,34.08c.02-9.98,0-19.97,.1-29.95,.02-2.22-.76-3.03-2.97-2.94-3.39,.13-6.78,.08-10.18,.02-2.16-.03-3.06,.96-3.05,3.09,.03,8.89,.04,17.77,0,26.66-.01,2.38,1.15,3.11,3.35,3.1,4.08-.02,8.17,.1,12.25,.16-.27,.61-.79,.97-1.4,.97-3.98,0-7.97,.26-11.95-.15-2.51-.26-3.43-1.66-3.43-4,0-8.99-.03-17.98,.03-26.97,.02-2.53,1.12-4.14,4.01-4.07,3.79,.09,7.59,.04,11.38,.02,1.9-.01,3.1,.72,3.11,2.76,.02,9.59,.03,19.18-.01,28.77,0,.87-.37,1.74-.57,2.61,0,0,.02-.02,.02-.02-.23-.02-.45-.03-.68-.05Z" style="fill:#b9b9b9;"/><path d="M468.46,119.94c-1.99,0-3.98,0-5.97,0-1.93,0-3.01-.87-3.01-2.87,0-3.88,0-7.77,0-11.65,0-1.99,1.01-2.9,2.96-2.9,4.18,0,8.36,0,12.54,0,2.1,0,3.1,1.05,3.09,3.13-.01,3.69-.02,7.37,0,11.06,.01,2.26-1.15,3.25-3.34,3.23-2.09-.02-4.18,0-6.27,0Z" style="fill:#c7c7c7;"/><path d="M340.83,85.79c1.25,5.19,.42,10.45,.47,15.68,.01,1.01-.78,1.65-1.79,1.66-4.57,.04-9.14,.03-13.7-.02-.61,0-1.08-.46-1.31-1.07,1-1.07,2.34-.99,3.62-1.01,2.79-.05,5.58-.03,8.37-.02,1.85,0,2.75-.76,2.73-2.67-.03-2.89,0-5.78-.02-8.67-.01-1.61-.76-2.35-2.37-2.37-2.89-.02-5.78,.01-8.66-.02-1.91-.02-2.67,.88-2.67,2.73,0,2.79,.03,5.58-.02,8.37-.02,1.29,.05,2.62-1.01,3.62-1.1-.11-1.16-.91-1.16-1.75,0-4.2,0-8.39,0-12.59,0-1.17,.27-2.44,1.65-2.44,5.25-.02,10.53-.81,15.74,.44,0,0,.13,.13,.13,.13Z" style="fill:#b9b9b9;"/><path d="M289.33,239.37c-.1,.31-.2,.63-.3,.94-2.57,1.1-5.25,.31-7.87,.39-8.43,.24-7.2-1.11-7.31,7.32-.02,1.8,.04,3.59-.02,5.39-.11,3.45-1.24,4.61-4.74,4.77-2.89,.13-5.78,0-8.67,.06-3.46,.06-3.81,.41-3.87,3.74-.04,2.19-.05,4.39,0,6.58,.07,3.41,.59,3.92,4.08,4.01,2.79,.07,5.58-.02,8.37,.05,1.74,.04,3.4,.31,4.4,2,1.04,3.62,.36,7.32,.51,10.99,.14,3.52,.26,3.72,3.74,3.76,2.79,.03,5.58,.01,8.36,0,1.09,0,2.2-.09,3.16,.62,.99,1,.59,2.27,.59,3.42,.02,20.66,.06,41.32-.04,61.98-.01,2.55,.51,3.57,3.26,3.38,3.57-.25,7.18,.05,10.77-.11,2.17-.1,2.96,.48,2.93,2.8-.13,10.48-.08,20.96-.09,31.44-1.17,1-2.6,.89-3.99,.91-3.09,.04-6.18,0-9.27,.03-1.69,.02-2.6,.71-2.6,2.49,0,3.59-.04,7.18,.02,10.77,.02,1.47,.74,2.19,2.21,2.21,3.39,.06,6.78,.02,10.17,.02,1.78,0,2.48-.9,2.49-2.6,.03-3.29-.01-6.58,.03-9.88,.02-1.39-.09-2.82,.9-3.99,4.99,0,9.98-.04,14.97,.05,1.76,.03,2.45-.44,2.44-2.34-.07-15.48-.07-30.96,0-46.44,0-1.94-.77-2.34-2.49-2.3-4.09,.08-8.19-.05-12.28,.06-1.88,.05-2.69-.43-2.62-2.49,.14-4.09,.16-8.19,0-12.28-.09-2.23,.83-2.67,2.8-2.61,3.89,.12,7.79-.08,11.68,.08,2.16,.09,2.96-.46,2.93-2.8-.13-9.39-.11-18.78-.01-28.17,.02-2.07-.57-2.72-2.69-2.74-4.24-.04-8.52,.6-12.74-.39,.82-1.2,2.1-.99,3.27-1.01,2.7-.05,5.4-.08,8.09,0,1.96,.06,2.67-.78,2.63-2.67-.06-3-.08-6,.01-8.99,.11-3.52,1.65-5.04,5.21-5.12,3.09-.07,6.19-.09,9.29,0,3.63,.11,4.97,1.45,5.18,5.16,.15,2.69,.11,5.4,.04,8.09-.06,2.35,.76,3.55,3.29,3.44,2.59-.11,5.2-.11,7.79,0,2.53,.11,3.34-1.1,3.27-3.44-.07-2.6-.09-5.2,.02-7.79,.17-4.05,1.52-5.43,5.49-5.46,3.89-.02,7.79-.24,11.68,.15,.57,.13,1.07,.37,1.53,.72,.3,.24,.53,.53,.69,.88,.72,3.96,.29,7.96,.29,11.93,0,2.33,.78,3.24,3.14,3.12,2.98-.15,5.98-.1,8.97-.02,2.15,.06,3.11-.76,3.05-2.97-.07-2.99-.07-5.99,0-8.98,.09-3.53,1.24-4.79,4.65-4.82,4.08-.03,8.17-.31,12.25,.2,.36,.13,.65,.35,.89,.64,.19,.57,.15,1.08-.36,1.47-3.3,1.17-6.73,.46-10.09,.57-4.33,.14-4.38,.1-4.41,4.34-.01,2,.04,4-.05,6-.16,3.41-.16,3.4,3.4,3.47,3.79,.07,7.59-.2,11.38,.18,5.82,.8,11.63,.79,17.44-.03,5.32-.31,10.63-.32,15.95,0,6.07,.86,12.13,.82,18.2,.01,5.3-.32,10.61-.31,15.91-.02,5.07,1.05,10.2,.37,15.3,.46,.62,.01,1.12-.33,1.45-.87,1.15-2.81,.37-5.74,.57-8.6,.09-1.29-.03-2.6,.05-3.89,.17-2.76,1.09-3.76,3.87-3.91,3.09-.17,6.19-.1,9.28-.05,2.19,.04,3.02-.92,3.01-3.06-.03-8.59-.03-17.18,0-25.77,0-2.13-.84-3.11-3.02-3.08-3.09,.04-6.19,.1-9.28-.03-2.85-.12-3.72-1.01-3.85-3.86-.13-2.89-.02-5.79-.05-8.69-.04-3.92-.3-4.19-4.34-4.2-6.69-.02-13.38,0-20.07,0-46.63,0-93.26,0-139.88-.03-1.69,0-3.65,.7-5-1.08,1.2-.77,2.53-.39,3.79-.39,53.89-.02,107.78-.02,161.66-.03,1.38,0,2.81,.24,4.09-.55,1.39,1.55,1.33,3.45,1.3,5.36-.04,3.1,.09,6.2-.04,9.3-.09,2.12,.76,2.83,2.81,2.76,3.39-.11,6.8,.08,10.19-.06,2.75-.11,3.71,1.05,3.68,3.74-.09,9.3,.1,18.6-.13,27.89-.06,2.52,.81,2.67,2.8,2.65,9.29-.08,18.58,.04,27.87-.09,2.36-.03,3.14,.6,3.01,3-.2,3.69,.06,7.4-.1,11.09-.09,2.18,.47,3.03,2.8,2.92,3.99-.19,7.99,.02,11.99-.08,1.73-.04,2.24,.58,2.2,2.26-.1,4.1,.11,8.2-.09,12.29-.11,2.34,.72,2.89,2.89,2.79,3.69-.17,7.4,.12,11.08-.1,2.6-.16,3.21,.82,3.09,3.23-.19,3.79,.03,7.6-.09,11.39-.06,1.87,.62,2.42,2.42,2.37,4.09-.11,8.19,.05,12.29-.07,1.9-.06,2.65,.45,2.58,2.49-.15,4.19,.02,8.4-.08,12.59-.04,1.68,.49,2.29,2.21,2.24,3.99-.1,8,.11,11.99-.09,2.33-.11,2.89,.73,2.8,2.91-.16,3.89,.04,7.8-.08,11.69-.06,1.84,.55,2.45,2.38,2.4,4.09-.11,8.2,.08,12.29-.08,2.17-.09,2.72,.68,2.64,2.73-.15,3.79,.16,7.61-.11,11.39-.2,2.8,.87,3.37,3.4,3.23,3.79-.2,7.59,.02,11.39-.08,1.72-.05,2.25,.57,2.21,2.25-.1,4,.07,8-.07,11.99-.07,2.04,.46,2.83,2.63,2.74,4.09-.17,8.19,.03,12.29-.08,1.81-.05,2.46,.49,2.4,2.36-.12,4.19,.04,8.4-.07,12.59-.05,1.87,.62,2.42,2.42,2.37,4.09-.11,8.19,.03,12.29-.06,1.68-.04,2.29,.49,2.25,2.21-.1,4.1,.07,8.2-.07,12.29-.07,2.01,.62,2.56,2.55,2.5,3.99-.13,8,.1,11.98-.09,2.35-.12,2.87,.75,2.79,2.91-.16,3.99,.03,8-.08,11.99-.05,1.85,.59,2.45,2.41,2.4,3.99-.1,7.99,.06,11.99-.07,1.92-.06,2.66,.48,2.58,2.5-.14,3.99,.05,8-.08,11.99-.06,1.92,.47,2.63,2.48,2.56,4.09-.15,8.2,.07,12.28-.09,2.05-.08,2.57,.66,2.52,2.57-.11,4-.1,8,0,11.99,.04,1.75-.44,2.65-2.35,2.45-1.09-.11-2.2-.02-3.29-.02-224.09,0-448.18,0-672.27,0-4.95,0-4.29,.55-4.33-4.27-.03-3.5,.07-7-.04-10.5-.05-1.72,.57-2.24,2.25-2.2,3.89,.1,7.8-.14,11.68,.09,2.63,.16,3.19-.83,3.06-3.22-.19-3.59,.08-7.2-.1-10.79-.11-2.28,.46-3.22,2.94-3.07,3.68,.21,7.4-.12,11.08,.11,2.76,.18,3.43-.88,3.29-3.44-.2-3.69,.09-7.4-.1-11.09-.12-2.34,.74-2.89,2.91-2.79,3.69,.16,7.4-.12,11.08,.1,2.6,.16,3.19-.8,3.06-3.21-.2-3.69,.05-7.4-.09-11.09-.08-2.06,.49-2.83,2.65-2.74,3.89,.16,7.79-.06,11.69,.09,2.15,.08,2.74-.71,2.67-2.76-.14-3.89,.08-7.8-.08-11.69-.09-2.18,.47-3.01,2.81-2.9,4.09,.19,8.19-.01,12.29,.08,1.67,.04,2.28-.47,2.23-2.2-.11-4,.11-8-.09-11.99-.11-2.33,.71-2.89,2.89-2.79,3.89,.17,7.79-.03,11.69,.08,1.83,.05,2.44-.56,2.4-2.39-.11-4.1,.08-8.2-.08-12.29-.09-2.17,.71-2.72,2.74-2.64,3.79,.14,7.61-.16,11.38,.11,2.81,.2,3.35-.88,3.22-3.4-.2-3.79,.02-7.6-.09-11.39-.05-1.71,.55-2.26,2.23-2.22,3.89,.1,7.8-.09,11.69,.08,2.28,.1,3.2-.46,3.06-2.94-.21-3.99,.02-8-.09-11.99-.05-1.8,.48-2.47,2.36-2.41,4.19,.12,8.39-.04,12.59,.07,1.86,.05,2.41-.61,2.36-2.42-.11-4,.05-8-.07-11.99-.06-1.93,.49-2.64,2.5-2.57,3.99,.14,7.99-.06,11.99,.08,2.02,.07,2.55-.65,2.49-2.57-.13-3.89,.13-7.81-.1-11.69-.15-2.61,.81-3.21,3.22-3.09,3.89,.19,7.79-.03,11.69,.08,1.81,.05,2.47-.53,2.41-2.38-.11-3.9,.08-7.8-.08-11.69-.09-2.17,.44-3.04,2.79-2.91,3.69,.2,7.39-.03,11.09,.09,1.91,.06,2.65-.46,2.56-2.51-.17-3.79,.02-7.6-.07-11.39-.06-2.42,.92-3.48,3.37-3.42,3.39,.09,6.81-.18,10.19,.08,2.93,.22,3.59-.98,3.44-3.61-.19-3.29-.02-6.6-.05-9.89-.02-2.48,1-3.62,3.62-3.53,4.59,.16,9.19,.1,13.78,.13Z" style="fill:#a34f1f;"/><path d="M324.69,222.84c1.39,.04,2.78,.11,4.17,.11,53.74,0,107.47,0,161.21,0q4.63,0,4.64,4.7c0,3.2,.07,6.4-.01,9.59-.05,2.04,.78,2.91,2.83,2.87,3.69-.07,7.39,.03,11.09-.03,1.76-.03,2.53,.62,2.52,2.45-.04,9.39-.05,18.79,0,28.18,.01,2.26-1.05,2.98-3.13,2.95-3.4-.05-6.79,.07-10.19-.02-2.32-.06-3.12,.88-3.17,3.2-.09,4.47,.64,8.98-.48,13.42-5.02,.72-10.06,.13-15.08,.3-1.29,.04-1.78-.87-1.78-1.92,0-4.14-.6-8.3,.35-12.41,1.56,.15,1.65,.17,1.8,1.91,.21,2.39,.11,4.79,.08,7.18-.02,2.03,.87,2.9,2.88,2.86,2.49-.05,4.99-.04,7.48,0,2.04,.03,2.87-.91,2.83-2.91-.05-2.39-.1-4.79,.04-7.18,.09-1.56-.37-2.15-2.02-2-2.98,.26-5.98,.11-8.97,.09-1.41,0-2.82-.08-3.82-1.31-.16-.35-.12-.67,.12-.97,1.14-.81,2.47-.68,3.76-.7,2.59-.05,5.19,.03,7.79-.05,1.9-.06,3-.91,3.04-2.9,.08-3.3,.04-6.59,.02-9.89,0-1.91-1.06-2.66-2.83-2.7-2.8-.07-5.59-.02-8.39-.03-2.11-.01-3.11,.97-3.11,3.09-.01,3.2,.02,6.39-.02,9.59-.02,1.29,.13,2.62-.72,3.75-1.37,1.03-2.87,.21-4.29,.25-4.23,.12-8.47-.06-12.7,.18-.38-.09-.64-.32-.79-.68-.08-3.33,0-6.66,0-9.99,0-.98-.04-1.97,.63-2.81,1.39-.38,1.27,.79,1.56,1.53,.1,2.23,0,4.47,.06,6.7,.03,1.02-.25,2.24,1.26,2.56,2.99,.35,5.98,.12,8.97,.15,1.99,.02,2.9-.97,2.96-2.92,.09-2.99-.05-5.99,.08-8.97,.18-3.95,1.56-5.33,5.55-5.44,3.29-.1,6.58-.15,9.87,.03,3.32,.18,4.67,1.53,4.9,4.83,.21,3.08,.09,6.18,.08,9.27,0,2.24,.91,3.34,3.2,3.22,3.17-.16,6.38,.38,9.52-.38,1.05-.58,1.1-1.56,1.1-2.59,0-7.99,0-15.97,0-23.96,0-1.02,0-2.02-1.02-2.63-3.18-.7-6.38-.22-9.57-.33-4.91-.17-6.2-1.41-6.31-6.29-.05-2.4-.09-4.8,0-7.2,.1-2.47-1-3.48-3.39-3.31-.79,.06-1.6,0-2.4,0-51.75,0-103.5,0-155.25,0-.3,0-.6,0-.9,0-4.47,.03-4.61,.13-4.61,4.48-.02,12.7-.02,25.39,0,38.09,0,3.84,.24,4.05,4.08,4.09,1.7,.02,3.4-.07,5.09,.02,2.49,.13,3.37-1.03,3.3-3.41-.08-2.8-.1-5.6,.02-8.4,.17-4,1.54-5.41,5.49-5.55,3.39-.13,6.79-.11,10.19-.01,4.21,.12,5.76,1.68,5.96,5.84,.06,1.2,.02,2.4,.03,3.6,.09,8.98-.91,7.81,7.77,7.93,1.69,.02,3.4-.14,5.08,.26,.55,.21,1.1,.44,1.13,1.16-4.16,.72-8.35,.18-12.53,.3-3.66,.11-4.11,.49-4.13,4.16-.02,3.4-.06,6.79,.02,10.19,.04,1.78-.59,2.52-2.43,2.47-3.79-.09-7.59-.1-11.38,0-1.93,.05-2.69-.63-2.64-2.58,.09-3.49-.05-6.99,.05-10.48,.07-2.61-.95-3.84-3.65-3.77-3.49,.1-6.99,.1-10.48,0-2.7-.07-3.71,1.18-3.64,3.78,.1,3.39-.07,6.79,.05,10.18,.07,2.05-.61,2.84-2.73,2.79-4.08-.1-8.17,.04-12.25,.08-1.38-4.9-.42-9.9-.56-14.86-.04-1.45,1.24-1.6,2.41-1.6,3.2,0,6.39,0,9.59-.01q3.85,0,3.86-4c0-14.29,0-28.58,0-42.86,0-1.49-.15-3.01,.84-4.31Z" style="fill:#faf9f8;"/><path d="M272.95,274.73c-.9-.96-2.04-1.06-3.28-1.05-3.59,.05-7.19-.02-10.78,.01-2.11,.02-3.12-.89-3.08-3.06,.06-3.59,.08-7.19,0-10.79-.05-1.94,.72-2.68,2.65-2.64,3.79,.08,7.59-.07,11.38,.05,2.37,.08,3.2-.93,3.15-3.2-.09-3.79,.02-7.59-.04-11.39-.02-1.69,.47-2.65,2.36-2.6,4.57,.12,9.15,.17,13.73,.24,.21,5.38,.36,10.76-.1,16.13-.74,1.29-2.04,1.08-3.19,1.13-2.39,.1-4.78,.02-7.17,.04-4.66,.04-5.2,.57-5.25,5.13-.04,3.69,0,7.37,.18,11.06-.09,.37-.27,.68-.55,.93Z" style="fill:#f3f3f3;"/><path d="M273.06,273.95c-.79-4.94-.23-9.92-.35-14.88-.04-1.75,1.1-2.13,2.56-2.13,3.28,.01,6.57,0,9.85,0,1.3,0,2.59,0,3.82-.5,.69,.21,.84,.73,.84,1.37,0,4.73-.02,9.47,.03,14.2,0,.89-.41,1.47-.93,2.07-.88,.75-1.94,.94-3.05,.96-3.27,.06-6.53,.07-9.8,0-1.1-.03-2.18-.17-2.97-1.09Z" style="fill:#050505;"/><path d="M273.06,273.95c5.27,.05,10.54,.09,15.82,.14,.67,5.28,.15,10.59,.3,15.89-4.93,1.05-9.9,.36-14.86,.41-1.61,.01-1.34-1.47-1.35-2.5-.04-4.38-.02-8.77-.02-13.15,.04-.26,.07-.52,.11-.78Z" style="fill:#f7f3f2;"/><path d="M459.97,77.1c0,7.28-.07,14.57,.04,21.85,.04,2.61-.93,3.6-3.51,3.49-3.29-.13-6.58-.1-9.87-.01-1.99,.05-2.91-.63-2.91-2.74,.05-15.07,.06-30.14-.01-45.2-.01-2.26,1.23-2.73,2.98-2.75,3.39-.05,6.78,0,10.17-.04,2.22-.02,3.19,.89,3.15,3.25-.11,7.38-.04,14.77-.04,22.15Z" style="fill:#585858;"/><path d="M476.9,34.81c0,4.39-.07,8.79,.03,13.17,.05,2.12-.62,3.13-2.9,3.06-3.59-.11-7.18-.1-10.77,0-1.88,.05-2.66-.5-2.64-2.52,.09-9.18,.08-18.37,0-27.55-.02-1.97,.7-2.64,2.63-2.59,3.69,.1,7.38,.1,11.07,0,1.94-.05,2.65,.71,2.61,2.64-.09,4.59-.03,9.18-.03,13.77Z" style="fill:#5a5a5a;"/><path d="M340.26,51.61c0,4.5-.09,9,.04,13.49,.06,2.17-.67,3.15-2.87,3.11-3.09-.06-6.19,0-9.29-.02-2.47,0-3.66-1.35-3.66-3.74-.02-9.09,.02-18.19-.05-27.28-.01-1.84,.67-2.45,2.46-2.39,3.49,.1,6.99,.12,10.48,0,2.28-.08,2.96,.91,2.92,3.05-.09,4.59-.03,9.19-.03,13.79Z" style="fill:#585858;"/><path d="M341.35,76.89q0-7.92,7.92-7.92,8.25,0,8.25,8.1t-7.97,8.08q-8.19,0-8.19-8.26Z" style="fill:#5b5b5b;"/><path d="M468.66,103.69c8.26-.01,8.29-.01,8.25,8.37-.04,7.61,.93,6.65-6.63,6.71-2.49,.02-4.97-.02-7.46,0-1.49,.01-2.18-.67-2.17-2.17,.02-3.68,.03-7.36,0-11.05-.01-1.45,.73-1.9,2.05-1.88,1.99,.04,3.98,0,5.97,0Z" style="fill:#5d5d5d;"/><path d="M324.47,102c0-4.4,.05-8.8-.04-13.19-.04-1.97,.72-2.65,2.64-2.6,3.59,.1,7.19,.09,10.79,0,1.82-.05,2.49,.63,2.44,2.45-.09,3.6-.1,7.2,0,10.8,.05,1.93-.65,2.68-2.61,2.63-4.39-.1-8.79-.04-13.19-.05,0,0-.03-.03-.03-.03Z" style="fill:#5a5a5a;"/><path d="M374.28,273.36c-.19-.16-.38-.31-.56-.47-.72-.79-.88-1.77-.89-2.78-.05-3.49-.15-6.99,.03-10.47,.17-3.34,1.52-4.76,4.77-4.97,3.58-.23,7.18-.23,10.76,0,3.55,.23,5.16,1.92,5.39,5.54,.18,2.89,.09,5.79,.06,8.68-.02,2.12,.86,3.12,3.02,3.08,2.29-.04,4.59-.07,6.88,.01,2.25,.08,3.29-.81,3.23-3.14-.07-2.59-.07-5.19,.01-7.78,.14-4.65,1.78-6.34,6.34-6.46,3.09-.08,6.18-.11,9.27,.01,4.1,.16,5.76,1.83,5.98,5.9,.1,1.79,.04,3.59,.04,5.39,.02,6.73-.36,6.02,6.22,6.07,1.4,.01,2.8-.1,4.18,.08,1.01,.13,2.32-.06,2.51,1.51-2.51,1.49-5.27,.7-7.9,.75-6.9,.12-6.9,.04-6.9,6.91,0,2.1,.04,4.2-.04,6.3-.07,2.01-.91,3.15-3.12,3.1-3.79-.07-7.59-.11-11.39,.01-2.02,.06-2.66-.9-2.7-2.68-.05-2.5-.02-5-.03-7.5,0-1.3,.05-2.61-.7-3.77-.29-.76-.17-1.49,.2-2.19,.05-.35,.1-.7,.16-1.05,.97-.77,2.07-.55,3.16-.44,3.38,.35,6.78,.14,10.16,.17,1.73,.02,2.55-.77,2.54-2.53-.01-3.39-.01-6.79,0-10.18,0-2.04-1-2.84-2.95-2.83-2.69,.02-5.39-.07-8.08,.03-3.04,.11-3.78,.89-3.89,4.05-.1,2.69,0,5.39-.04,8.08-.02,1.29,.08,2.62-.83,3.71-4.19,.06-8.38,.14-12.56,.18-4.17,.04-4.25,.09-4.27,4.14-.01,3.19-.07,6.39,.01,9.58,.05,2.08-.58,3.16-2.89,3.09-3.89-.12-7.78-.09-11.67,0-1.82,.04-2.49-.66-2.46-2.45,.08-4.59,.05-9.18,.07-13.77,.92-1.24,2.3-1.01,3.56-1.05,2.79-.09,5.58,.03,8.37-.07,2.12-.07,3.39-1.03,3.44-3.26,.07-3.09,.07-6.18,0-9.27-.04-1.96-1.04-2.9-2.97-2.95-2.89-.07-5.78-.02-8.67-.03-2.26,0-3.22,1.16-3.26,3.33-.05,3.19,.01,6.38-.04,9.57-.02,1.29,.07,2.62-.99,3.63-.18-.27-.37-.54-.55-.81Z" style="fill:#faf9f8;"/><path d="M306.56,392.85c.02,4.98,0,9.97,.11,14.95,.04,1.81-.56,2.46-2.4,2.42-4.08-.11-8.17-.09-12.25,0-1.67,.03-2.29-.53-2.25-2.23,.09-4.29,.12-8.58,0-12.86-.06-1.97,.81-2.3,2.5-2.27,4.78,.08,9.56,.04,14.35,.04,0,0-.04-.04-.04-.04Z" style="fill:#fe0000;"/><path d="M374.83,274.16c.06-4.68,.22-9.35,.12-14.03-.06-2.51,.89-3.36,3.33-3.25,3.38,.15,6.77,.11,10.15,.01,2.09-.06,3.15,.56,3.08,2.87-.12,3.68-.09,7.37-.01,11.06,.05,2.35-1.12,3.15-3.3,3.2-4.27,.11-8.55-.31-12.81,.23-.19-.03-.38-.06-.56-.09Z" style="fill:#050505;"/><path d="M255.62,274.28c4.72,.71,9.1,.38,13.47,.34,2.26-.02,2.95,.73,2.88,2.94-.13,3.68-.09,7.38,.09,11.07,.07,1.38-.31,1.78-1.57,1.78-4.39-.02-8.77-.03-13.16,.01-1.3,.01-1.74-.52-1.72-1.78,.04-4.68,.02-9.36,.02-14.34Z"/><path d="M503.88,274.66c1.2,0,2.39,.01,3.59,0q4.07-.07,4.07,4.23c0,3.19-.04,6.38,.02,9.57,.03,1.38-.44,1.97-1.88,1.95-4.08-.06-8.17-.04-12.25,0-1.31,.01-2-.3-1.95-1.84,.11-3.78,.12-7.57,.02-11.36-.05-2.02,.86-2.63,2.71-2.55,1.89,.08,3.78,.02,5.68,.02Z"/><path d="M476.76,290.28c-5.31,0-10.61-.01-15.92-.02-.82-.59-.97-1.47-.99-2.38-.07-3.48-.06-6.96,0-10.44,.03-2.17,1.11-3.31,3.31-3.32,3.68-.02,7.36,0,11.03,0,2.18,0,3.31,.92,3.27,3.23-.06,3.58,0,7.16-.02,10.74,0,.8-.02,1.6-.68,2.2Z" style="fill:#010101;"/><path d="M408.95,274.48c.07,.65,.14,1.3,.21,1.95,.76,4.6,1.1,9.2-.18,13.77-4.76,.06-9.52,.1-14.29,.18-1.29,.02-1.8-.47-1.59-1.78,.55-3.56,.36-7.15,.2-10.71-.12-2.73,.9-3.39,3.44-3.29,4.06,.15,8.13-.06,12.2-.12Z" style="fill:#010101;"/><path d="M340.05,283.09c0,2.35,.91,5.48-.25,6.83-1.28,1.49-4.5,.45-6.86,.44-2.76-.02-6.52,1.21-8.01-.5-1.38-1.59-.42-5.25-.43-8q-.02-7.22,7.13-7.22c1.79,0,3.6,.17,5.37-.04,2.75-.32,3.52,.87,3.26,3.4-.17,1.67-.03,3.38-.03,5.07-.06,0-.12,0-.17,0Z" style="fill:#040404;"/><path d="M374.23,283c0,2.37,.92,5.49-.25,6.89-1.27,1.54-4.51,.4-6.88,.48-2.3,.08-4.6-.02-6.89,.02-1.23,.02-1.69-.3-1.64-1.71,.15-3.79,.14-7.6,.05-11.39-.04-1.85,.43-2.76,2.5-2.68,3.59,.13,7.2,.13,10.79,0,2.07-.07,2.59,.83,2.49,2.68-.11,1.89-.02,3.8-.02,5.7-.05,0-.09,0-.14,0Z" style="fill:#040404;"/><path d="M442.64,290.29c-5.32-.01-10.64-.03-15.96-.04-.54-3.22-.16-6.45-.17-9.68,0-6.57-1.06-6.51,6.42-6.47,2.49,.01,4.99,0,7.48,.01,1.47,0,2.76,.54,2.86,2.05,.3,4.56,.68,9.14-.25,13.68-.04,.17-.25,.3-.38,.45Z" style="fill:#050505;"/><path d="M442.64,290.29c-.02-4.29-.12-8.58-.01-12.87,.05-2.12-.76-2.82-2.8-2.76-3.49,.11-6.98,.1-10.47,0-1.82-.05-2.44,.62-2.44,2.43,.01,4.38-.15,8.77-.24,13.15-5.9,1.06-11.8,1.16-17.7-.04,.06-4.59,.12-9.18,.18-13.77,1.53,.29,1.01,1.51,1.02,2.4,.06,3.09,.08,6.19,0,9.28-.04,1.67,.6,2.31,2.27,2.27,3.69-.08,7.38-.08,11.07,0,1.73,.03,2.25-.77,2.23-2.36-.05-3.49-.04-6.98,0-10.47,.03-3.36,.64-3.95,4.05-4.01,3.89-.06,7.77-.08,11.66-.12,.67-4.06,.16-8.15,.29-12.22,.15-4.57,.87-5.36,5.5-5.4,3.39-.03,6.79-.12,10.18,.04,3.63,.17,4.51,1.64,3.2,5.07-.17,4.4,.82,8.84-.57,13.19-.81,1.5-2.26,1.46-3.65,1.49-3.18,.06-6.37,.12-9.55-.02-1.73-.08-2.27,.49-2.15,2.21,.2,2.88,.1,5.77,.06,8.66-.03,1.95,.69,2.98,2.77,2.96,2.89-.03,5.77-.01,8.66,0,2.01,0,2.87-1,2.92-2.93,.07-2.79,.03-5.58,.03-8.36,0-1.41,.1-2.79,.86-4.03,5.95-.88,11.89-.71,17.84-.04l.02-.04c.09,.15,.2,.3,.26,.46,.03,.08-.04,.19-.06,.28-.04,.39,.41,.81-.07,1.18-.05,4.08-.06,8.16-.16,12.23-.04,1.67,.65,2.29,2.3,2.25,4.67-.09,9.35-.08,14.03-.11-.62,.93-1.6,.68-2.43,.63-4.99-.31-10.04,.78-14.99-.62-.01-4.37-.08-8.75-.01-13.12,.03-1.8-.65-2.5-2.44-2.46-3.68,.07-7.35,.08-11.03,0-1.79-.04-2.48,.64-2.45,2.44,.07,4.37,.02,8.75,.01,13.12-2.55,1.22-5.27,.66-7.9,.61-3.43-.06-6.92,.69-10.29-.57Z" style="fill:#6d6d6d;"/><path d="M460.63,260.9c.31-4.09,.05-4.38-4.03-4.39-3.47-.01-6.95,.09-10.42-.03-2.53-.09-3.6,.81-3.51,3.45,.15,4.16,.04,8.34,.05,12.51,0,.92,.25,2.08-1.27,.98-3.6-1.18-7.29-.39-10.93-.45-2.22-.04-3-.64-2.88-2.9,.17-3.29,.08-6.59,.03-9.88-.04-3.3-1.27-4.61-4.46-4.66-3.69-.06-7.39-.07-11.08,0-2.87,.06-4.17,1.39-4.23,4.28-.07,3.49-.1,6.99,.01,10.48,.06,1.88-.45,2.73-2.5,2.64-3.39-.14-6.79-.12-10.18,0-1.89,.06-2.42-.7-2.37-2.47,.1-3.49,.07-6.99,.01-10.48-.05-3.09-1.32-4.4-4.36-4.46-3.69-.07-7.38,0-11.08-.02-2.64-.01-3.78,1.33-3.76,3.91,.04,4.49,0,8.99,0,13.48-3.99,0-7.99-.07-11.98,.04-1.82,.05-2.48-.57-2.42-2.41,.11-3.59,.06-7.19,.02-10.79-.03-3.02-1.16-4.18-4.12-4.21-3.99-.04-7.99,0-11.98-.01-2.46,0-3.68,1.21-3.68,3.68,0,3.7-.07,7.4,.03,11.09,.05,1.86-.41,2.76-2.48,2.66-3.19-.14-6.39-.09-9.58-.02-1.57,.04-2.38-.34-2.37-2.15,.05-14.79,.04-29.57,0-44.36,0-1.54,.54-2.23,2.1-2.1,.59,.05,1.2,0,1.8,0,53.62,0,107.25,.03,160.87-.07,3.08,0,4.08,.8,3.77,3.83-.26,2.47-.05,4.99-.05,7.49,0,5.08,.49,5.54,5.7,5.55,3.49,0,6.99,.03,10.48,.05,.67,2.44,.25,4.94,.28,7.4,.07,6.87,.01,13.74,.03,20.61,0,1.31,.06,2.6-.9,3.66-3.78,.02-7.57-.06-11.35,.1-2.41,.1-3.15-.89-3.06-3.18,.13-3.48,.01-6.97,.04-10.46,.02-2.62-1.26-3.82-3.85-3.8-3.48,.03-6.97-.01-10.45,.01-3.36,.03-4.27,.91-4.3,4.22-.03,3.39-.01,6.77,0,10.16,0,2.03-.75,3.13-3.02,3.04-3.58-.14-7.17-.06-10.75-.08-1.4-2.06-.74-4.39-.9-6.62-.09-1.17,.25-2.36-.25-3.5-.08-.67,.05-1.41-.69-1.83Z" style="fill:#fefdfd;"/><path d="M349.51,274.01c-2.09,0-4.19-.08-6.27,.02-1.86,.09-2.42-.72-2.38-2.49,.09-3.98,.08-7.97,.01-11.95-.03-1.89,.7-2.72,2.63-2.69,3.98,.07,7.96,.05,11.95,0,1.76-.02,2.53,.7,2.51,2.49-.05,4.18-.05,8.37,0,12.55,.02,1.6-.75,2.09-2.19,2.07-2.09-.04-4.18,0-6.27,0Z" style="fill:#040404;"/><path d="M477.88,273.97s-.03,.04-.02,.04c-1.1-5.12-.3-10.29-.44-15.44-.04-1.26,.99-1.62,2.08-1.62,3.98-.02,7.96,0,11.94-.02,1.6,0,2.36,.69,2.34,2.35-.04,3.98-.04,7.97,0,11.95,.02,2.11-1.22,2.78-3.06,2.78-4.28,0-8.56-.02-12.84-.03Z" style="fill:#050505;"/><path d="M478.01,275.89c-.11-.4-1.08-.85,.07-1.18,4.72,1.15,9.48,.59,14.23,.3,.77-.05,1.51-.69,1.44,.86-.15,3.69-.14,7.39-.11,11.08,.01,1.5-.47,2.18-2.06,2.15-3.59-.07-7.19-.09-10.78,0-1.77,.05-2.22-.75-2.17-2.35,.08-2.7,.05-5.4,0-8.09-.01-.96,.34-2.03-.62-2.79Z" style="fill:#fefdfd;"/><path d="M315.7,289.09q-6.72,0-6.72-6.7,0-7.1,7.22-7.1,6.57,0,6.57,6.55v.3q0,6.95-7.07,6.95Z" style="fill:#fdfbfb;"/><path d="M509.22,272.83c.45-1.43,.63-2.89,.62-4.41-.04-9.09-.03-18.18-.03-27.27,.88,.66,.59,1.62,.59,2.47,.02,8.72,.02,17.44,0,26.16,0,1.15,.29,2.46-1.19,3.05Z" style="fill:#fdfbfb;"/><path d="M461.32,262.73c1.26,3.27-.05,6.84,1.15,10.12-1.31-.51-1.21-1.64-1.2-2.73,.02-2.46,.03-4.92,.05-7.39Z" style="fill:#fdfbfb;"/><path d="M273.73,255.5c.87-3.86,.49-7.74,.42-11.59-.04-2.31,.76-2.96,2.94-2.83,2.89,.16,5.79,.11,8.68,.02,1.71-.05,2.28,.61,2.24,2.28-.09,3.29-.09,6.59,0,9.89,.04,1.68-.58,2.3-2.26,2.26-3.96-.08-7.93-.03-12.02-.03Z" style="fill:#fdfdfd;"/><path d="M409.17,273.49c-.01-4.39,0-8.78-.05-13.17-.03-2.36,.94-3.48,3.4-3.42,3.69,.1,7.39,.06,11.08,.01,1.75-.02,2.56,.65,2.53,2.47-.05,4.09-.08,8.19,.02,12.28,.05,1.9-.78,2.4-2.52,2.36-4.85-.1-9.71,.23-14.53-.61,0,0,.06,.06,.06,.06Z" style="fill:#030303;"/><path d="M391.11,274.99c0,3.93-.07,7.71,.03,11.48,.05,1.87-.43,2.74-2.49,2.65-3.38-.14-6.78-.12-10.17,0-1.86,.06-2.45-.65-2.39-2.45,.11-2.99,.11-5.99,0-8.98-.07-1.81,.55-2.43,2.39-2.44,4.17-.01,8.36,.36,12.62-.27Z" style="fill:#fefdfd;"/><path d="M460.01,274.05c-.05,4.47-.17,8.94-.12,13.4,.02,2.12-.65,3.05-2.93,2.95-3.48-.16-6.97-.17-10.45,0-2.33,.11-2.83-.85-2.82-2.98,.03-4.26,.36-8.54-.26-12.83,5.47-.36,11.08,.53,16.62-.5,0,0-.05-.04-.05-.04Z" style="fill:#fbfafa;"/><path d="M451.52,273.39q-7.62,0-7.62-7.75c0-.9,0-1.8,0-2.7,0-5.42,0-5.44,5.6-5.44,2.59,0,5.19,.1,7.78,.14,1.57,.02,2.32,.65,2.28,2.36-.1,3.69-.07,7.39-.02,11.09,.03,1.67-.68,2.35-2.32,2.3-1.9-.06-3.79-.01-5.69-.01Z" style="fill:#010101;"/></g></g></svg>