<svg width="153" height="89" xmlns="http://www.w3.org/2000/svg" xmlns:xlink="http://www.w3.org/1999/xlink" overflow="hidden"><defs><clipPath id="clip0"><rect x="436" y="206" width="153" height="89"/></clipPath></defs><g clip-path="url(#clip0)" transform="translate(-436 -206)"><path d="M261.814 534.113 223.364 534.113C219.869 534.113 217.055 531.3 217.055 527.805L217.055 457.811C217.055 454.316 219.869 451.503 223.364 451.503L261.814 451.503C265.309 451.503 268.122 454.316 268.122 457.811L268.122 527.719C268.208 531.215 265.309 534.113 261.814 534.113Z" stroke="#000000" stroke-width="5.11521" stroke-miterlimit="10" fill="#A6A897" transform="matrix(1 0 0 1.00865 221.708 -246.39)"/><path d="M307.595 477.676 364.033 477.676 364.033 482.45 307.595 482.45Z" fill="#AAD5F2" transform="matrix(1 0 0 1.00865 221.708 -246.39)"/><path d="M307.595 478.613 364.033 478.613 364.033 481.427 307.595 481.427Z" fill="#2553A4" transform="matrix(1 0 0 1.00865 221.708 -246.39)"/><path d="M305.719 483.302 281.166 483.302C280.143 483.302 279.205 482.45 279.205 481.341L279.205 478.613C279.205 477.59 280.058 476.652 281.166 476.652L305.719 476.652C306.742 476.652 307.68 477.505 307.68 478.613L307.68 481.341C307.595 482.45 306.742 483.302 305.719 483.302Z" stroke="#000000" stroke-width="1.70507" stroke-miterlimit="10" fill="#CBC49C" transform="matrix(1 0 0 1.00865 221.708 -246.39)"/><path d="M278.864 485.434 277.245 485.434C276.392 485.434 275.71 484.752 275.71 483.899L275.71 476.056C275.71 475.203 276.392 474.521 277.245 474.521L278.864 474.521C279.717 474.521 280.399 475.203 280.399 476.056L280.399 483.899C280.399 484.752 279.717 485.434 278.864 485.434Z" stroke="#000000" stroke-width="1.70507" stroke-miterlimit="10" fill="#CBC49C" transform="matrix(1 0 0 1.00865 221.708 -246.39)"/><path d="M274.09 487.735 271.277 487.735C269.998 487.735 268.89 486.712 268.89 485.348L268.89 473.924C268.89 472.646 269.913 471.537 271.277 471.537L274.09 471.537C275.369 471.537 276.477 472.56 276.477 473.924L276.477 485.348C276.477 486.627 275.454 487.735 274.09 487.735Z" stroke="#000000" stroke-width="1.70507" stroke-miterlimit="10" fill="#CBC49C" transform="matrix(1 0 0 1.00865 221.708 -246.39)"/><path d="M195.486 388.841C195.486 391.572 193.273 393.786 190.542 393.786 187.811 393.786 185.597 391.572 185.597 388.841 185.597 386.11 187.811 383.897 190.542 383.897 193.273 383.897 195.486 386.11 195.486 388.841Z" fill="#FFFFFF" transform="matrix(1 0 0 1.00865 221.708 -246.39)"/><path d="M248.514 481.938 244.678 481.853C243.569 481.853 242.717 480.915 242.717 479.807L242.802 475.97C242.802 474.862 243.74 474.01 244.848 474.01L248.685 474.095C249.793 474.095 250.645 475.033 250.645 476.141L250.56 479.977C250.56 481.086 249.622 481.938 248.514 481.938Z" stroke="#000000" stroke-width="0.852535" stroke-miterlimit="10" fill="#D6DBD9" transform="matrix(1 0 0 1.00865 221.708 -246.39)"/><path d="M248.429 492.595 244.592 492.51C243.484 492.51 242.632 491.572 242.632 490.464L242.717 486.627C242.717 485.519 243.655 484.666 244.763 484.666L248.599 484.752C249.708 484.752 250.56 485.689 250.56 486.798L250.475 490.634C250.39 491.742 249.537 492.68 248.429 492.595Z" stroke="#000000" stroke-width="0.852535" stroke-miterlimit="10" fill="#D6DBD9" transform="matrix(1 0 0 1.00865 221.708 -246.39)"/><path d="M248.685 503.166 244.848 503.081C243.74 503.081 242.887 502.143 242.887 501.035L242.973 497.199C242.973 496.09 243.91 495.238 245.019 495.238L248.855 495.323C249.963 495.323 250.816 496.261 250.816 497.369L250.731 501.206C250.731 502.314 249.793 503.166 248.685 503.166Z" stroke="#000000" stroke-width="0.852535" stroke-miterlimit="10" fill="#D6DBD9" transform="matrix(1 0 0 1.00865 221.708 -246.39)"/><path d="M238.795 514.164 221.318 513.994C220.21 513.994 219.357 513.056 219.357 511.947L219.443 508.111C219.443 507.003 220.38 506.15 221.489 506.15L238.966 506.321C240.074 506.321 240.926 507.259 240.926 508.367L240.841 512.203C240.841 513.311 239.903 514.164 238.795 514.164L238.795 514.164Z" stroke="#000000" stroke-width="0.852535" stroke-miterlimit="10" fill="#D6DBD9" transform="matrix(1 0 0 1.00865 221.708 -246.39)"/><path d="M248.599 514.164 244.678 514.079C243.569 514.079 242.717 513.141 242.717 512.033L242.802 508.196C242.802 507.088 243.74 506.235 244.848 506.235L248.685 506.321C249.793 506.321 250.645 507.259 250.645 508.367L250.56 512.203C250.56 513.311 249.622 514.164 248.599 514.164Z" stroke="#000000" stroke-width="0.852535" stroke-miterlimit="10" fill="#D6DBD9" transform="matrix(1 0 0 1.00865 221.708 -246.39)"/><path d="M236.834 481.938 232.998 481.853C231.89 481.853 231.037 480.915 231.037 479.807L231.122 475.97C231.122 474.862 232.06 474.01 233.168 474.01L237.005 474.095C238.113 474.095 238.966 475.033 238.966 476.141L238.88 479.977C238.795 481 237.943 481.938 236.834 481.938Z" stroke="#000000" stroke-width="0.852535" stroke-miterlimit="10" fill="#D6DBD9" transform="matrix(1 0 0 1.00865 221.708 -246.39)"/><path d="M236.664 492.595 232.827 492.51C231.719 492.51 230.867 491.572 230.867 490.464L230.952 486.627C230.952 485.519 231.89 484.666 232.998 484.666L236.834 484.752C237.943 484.752 238.795 485.689 238.795 486.798L238.71 490.634C238.71 491.742 237.772 492.595 236.664 492.595Z" stroke="#000000" stroke-width="0.852535" stroke-miterlimit="10" fill="#D6DBD9" transform="matrix(1 0 0 1.00865 221.708 -246.39)"/><path d="M236.92 503.166 233.083 503.081C231.975 503.081 231.122 502.143 231.122 501.035L231.208 497.199C231.208 496.09 232.145 495.238 233.254 495.238L237.09 495.323C238.198 495.323 239.051 496.261 239.051 497.369L238.966 501.206C238.966 502.314 238.028 503.166 236.92 503.166Z" stroke="#000000" stroke-width="0.852535" stroke-miterlimit="10" fill="#D6DBD9" transform="matrix(1 0 0 1.00865 221.708 -246.39)"/><path d="M224.473 482.109 220.636 482.023C219.528 482.023 218.675 481.086 218.675 479.977L218.761 476.141C218.761 475.033 219.698 474.18 220.807 474.18L224.643 474.265C225.751 474.265 226.604 475.203 226.604 476.311L226.519 480.148C226.519 481.256 225.581 482.109 224.473 482.109Z" stroke="#000000" stroke-width="0.852535" stroke-miterlimit="10" fill="#D6DBD9" transform="matrix(1 0 0 1.00865 221.708 -246.39)"/><path d="M224.387 492.851 220.551 492.765C219.443 492.765 218.59 491.828 218.59 490.719L218.675 486.883C218.675 485.775 219.613 484.922 220.721 484.922L224.558 485.007C225.666 485.007 226.519 485.945 226.519 487.053L226.433 490.89C226.348 491.998 225.496 492.851 224.387 492.851Z" stroke="#000000" stroke-width="0.852535" stroke-miterlimit="10" fill="#D6DBD9" transform="matrix(1 0 0 1.00865 221.708 -246.39)"/><path d="M224.643 503.422 220.807 503.337C219.698 503.337 218.846 502.399 218.846 501.291L218.931 497.454C218.931 496.346 219.869 495.494 220.977 495.494L224.814 495.579C225.922 495.579 226.774 496.517 226.774 497.625L226.689 501.461C226.689 502.484 225.751 503.422 224.643 503.422Z" stroke="#000000" stroke-width="0.852535" stroke-miterlimit="10" fill="#D6DBD9" transform="matrix(1 0 0 1.00865 221.708 -246.39)"/></g></svg>