<svg width="96" height="79" xmlns="http://www.w3.org/2000/svg" xmlns:xlink="http://www.w3.org/1999/xlink" overflow="hidden"><defs><clipPath id="clip0"><rect x="55" y="238" width="96" height="79"/></clipPath></defs><g clip-path="url(#clip0)" transform="translate(-55 -238)"><path d="M55.8836 69.5663C54.3853 67.5329 56.1208 63.7111 59.76 61.0301 63.3987 58.3491 67.563 57.8236 69.0613 59.857 70.5591 61.8899 68.8235 65.7117 65.1848 68.3927 61.5457 71.0742 57.3814 71.5992 55.8836 69.5663Z" stroke="#000000" stroke-width="0.313093" stroke-miterlimit="8" fill="#DA8200" fill-rule="evenodd" transform="matrix(1 0 0 1.0033 11.4175 221.825)"/><path d="M43.6964 51.0512C43.6964 44.5999 47.0405 39.37 51.1651 39.37 55.2897 39.37 58.6338 44.5999 58.6338 51.0512 58.6338 57.5025 55.2897 62.7324 51.1651 62.7324 47.0405 62.7324 43.6964 57.5025 43.6964 51.0512Z" stroke="#000000" stroke-width="0.208729" stroke-miterlimit="8" fill="#DA8200" fill-rule="evenodd" transform="matrix(1 0 0 1.0033 11.4175 221.825)"/><path d="M45.6547 62.8235C45.6547 59.9813 49.8449 57.6774 55.0133 57.6774 60.1817 57.6774 64.3719 59.9813 64.3719 62.8235 64.3719 65.6657 60.1817 67.9696 55.0133 67.9696 49.8449 67.9696 45.6547 65.6657 45.6547 62.8235Z" stroke="#000000" stroke-width="0.208729" stroke-miterlimit="8" fill="#DA8200" fill-rule="evenodd" transform="matrix(1 0 0 1.0033 11.4175 221.825)"/><path d="M47.5555 52.8032C50.1181 49.6978 55.8808 50.2215 60.4276 53.9731 64.9749 57.7243 66.5834 63.283 64.0213 66.3885 61.4587 69.4943 55.6959 68.9706 51.1487 65.219 46.6019 61.4673 44.9933 55.9086 47.5555 52.8032Z" fill="#DA8200" fill-rule="evenodd" transform="matrix(1 0 0 1.0033 11.4175 221.825)"/><path d="M52.6679 49.0019C52.6679 42.5505 57.6123 37.3207 63.7116 37.3207 69.8109 37.3207 74.7552 42.5505 74.7552 49.0019 74.7552 55.4532 69.8109 60.6831 63.7116 60.6831 57.6123 60.6831 52.6679 55.4532 52.6679 49.0019Z" stroke="#000000" stroke-width="0.208729" stroke-miterlimit="8" fill="#FFFFFF" fill-rule="evenodd" transform="matrix(1 0 0 1.0033 11.4175 221.825)"/><path d="M54.8311 39.6205C54.8311 36.5017 58.9498 33.9734 64.0304 33.9734 69.1109 33.9734 73.2296 36.5017 73.2296 39.6205 73.2296 42.7393 69.1109 45.2676 64.0304 45.2676 58.9498 45.2676 54.8311 42.7393 54.8311 39.6205Z" fill="#FFFFFF" fill-rule="evenodd" transform="matrix(1 0 0 1.0033 11.4175 221.825)"/><path d="M118.761 31.5712C124.978 24.2063 132.734 20.5291 136.085 23.3578 139.436 26.1865 137.113 34.45 130.896 41.8147 124.679 49.1795 116.923 52.8569 113.572 50.0279 110.221 47.1994 112.544 38.9359 118.761 31.5712Z" stroke="#000000" stroke-width="0.469639" stroke-miterlimit="8" fill="#DA8200" fill-rule="evenodd" transform="matrix(1 0 0 1.0033 11.4175 221.825)"/><path d="M122.21 33.288C125.991 27.1864 131.117 23.5176 133.66 25.0935 136.204 26.6694 135.201 32.8932 131.421 38.9947 127.64 45.0963 122.514 48.7651 119.97 47.1894 117.427 45.6132 118.43 39.3896 122.21 33.288Z" fill="#F2F2F2" fill-rule="evenodd" transform="matrix(1 0 0 1.0033 11.4175 221.825)"/><path d="M110.778 87.7571C110.778 84.3743 113.102 81.6319 115.97 81.6319 118.837 81.6319 121.161 84.3743 121.161 87.7571 121.161 91.1399 118.837 93.8824 115.97 93.8824 113.102 93.8824 110.778 91.1399 110.778 87.7571Z" stroke="#000000" stroke-width="0.313093" stroke-miterlimit="8" fill="#F2F2F2" fill-rule="evenodd" transform="matrix(1 0 0 1.0033 11.4175 221.825)"/><path d="M80.3567 86.9374C80.3567 83.5546 82.6711 80.8121 85.5256 80.8121 88.3801 80.8121 90.6945 83.5546 90.6945 86.9374 90.6945 90.3202 88.3801 93.0626 85.5256 93.0626 82.6711 93.0626 80.3567 90.3202 80.3567 86.9374Z" stroke="#000000" stroke-width="0.313093" stroke-miterlimit="8" fill="#F2F2F2" fill-rule="evenodd" transform="matrix(1 0 0 1.0033 11.4175 221.825)"/><path d="M64.6679 56.4934C64.6679 38.3717 81.3873 23.6812 102.011 23.6812 122.635 23.6812 139.355 38.3717 139.355 56.4934 139.355 74.615 122.635 89.3055 102.011 89.3055 81.3873 89.3055 64.6679 74.615 64.6679 56.4934Z" stroke="#000000" stroke-width="0.469639" stroke-miterlimit="8" fill="#DA8200" fill-rule="evenodd" transform="matrix(1 0 0 1.0033 11.4175 221.825)"/><path d="M139.309 55.5825C139.309 74.0817 122.6 89.0778 101.989 89.0778 86.666 89.0778 72.9003 80.6719 67.2742 67.8804L101.989 55.5825Z" fill="#F2F2F2" fill-rule="evenodd" transform="matrix(1 0 0 1.0033 11.4175 221.825)"/><path d="M127.97 49.2979C127.97 46.6948 130.162 44.5844 132.865 44.5844 135.569 44.5844 137.761 46.6948 137.761 49.2979 137.761 51.901 135.569 54.0114 132.865 54.0114 130.162 54.0114 127.97 51.901 127.97 49.2979Z" fill="#F2F2F2" fill-rule="evenodd" transform="matrix(1 0 0 1.0033 11.4175 221.825)"/><path d="M129.29 49.5484C129.29 47.5364 131.013 45.9051 133.139 45.9051 135.264 45.9051 136.987 47.5364 136.987 49.5484 136.987 51.5604 135.264 53.1917 133.139 53.1917 131.013 53.1917 129.29 51.5604 129.29 49.5484Z" fill-rule="evenodd" transform="matrix(1 0 0 1.0033 11.4175 221.825)"/><path d="M121.354 59.0796C122.045 54.5643 125.599 51.3618 129.293 51.927 132.986 52.4921 135.42 56.6109 134.728 61.1262 134.038 65.6416 130.483 68.844 126.79 68.2789 123.097 67.7137 120.663 63.595 121.354 59.0796Z" stroke="#000000" stroke-width="0.626186" stroke-miterlimit="8" fill="#F2F2F2" fill-rule="evenodd" transform="matrix(1 0 0 1.0033 11.4175 221.825)"/><path d="M122.509 66.6754C119.023 63.3468 117.734 59.0382 119.63 57.0526 121.526 55.067 125.889 56.1559 129.375 59.4845 132.862 62.8135 134.151 67.1217 132.255 69.1072 130.359 71.0928 125.996 70.004 122.509 66.6754Z" fill="#F2F2F2" fill-rule="evenodd" transform="matrix(1 0 0 1.0033 11.4175 221.825)"/><path d="M100.144 34.8843C100.144 24.6476 104.038 16.3491 108.843 16.3491 113.647 16.3491 117.541 24.6476 117.541 34.8843 117.541 45.1209 113.647 53.4194 108.843 53.4194 104.038 53.4194 100.144 45.1209 100.144 34.8843Z" stroke="#000000" stroke-width="0.469639" stroke-miterlimit="8" fill="#DA8200" fill-rule="evenodd" transform="matrix(1 0 0 1.0033 11.4175 221.825)"/><path d="M103.381 31.9801C102.87 24.8205 105.154 18.8239 108.482 18.5864 111.81 18.3488 114.923 23.9602 115.434 31.1198 115.945 38.2794 113.661 44.2759 110.333 44.5135 107.004 44.7511 103.892 39.1397 103.381 31.9801Z" fill="#F2F2F2" fill-rule="evenodd" transform="matrix(1 0 0 1.0033 11.4175 221.825)"/><path d="M92.3112 46.3605C92.3112 36.8281 99.6005 29.1006 108.592 29.1006 117.584 29.1006 124.873 36.8281 124.873 46.3605 124.873 55.8931 117.584 63.6205 108.592 63.6205 99.6005 63.6205 92.3112 55.8931 92.3112 46.3605Z" fill="#DA8200" fill-rule="evenodd" transform="matrix(1 0 0 1.0033 11.4175 221.825)"/><path d="M107.932 50.277C107.932 47.2336 111.092 44.7666 114.991 44.7666 118.889 44.7666 122.049 47.2336 122.049 50.277 122.049 53.3205 118.889 55.7875 114.991 55.7875 111.092 55.7875 107.932 53.3205 107.932 50.277Z" fill="#F2F2F2" fill-rule="evenodd" transform="matrix(1 0 0 1.0033 11.4175 221.825)"/><path d="M109.389 50.1404C109.389 47.7258 112.07 45.7685 115.378 45.7685 118.685 45.7685 121.366 47.7258 121.366 50.1404 121.366 52.555 118.685 54.5123 115.378 54.5123 112.07 54.5123 109.389 52.555 109.389 50.1404Z" fill-rule="evenodd" transform="matrix(1 0 0 1.0033 11.4175 221.825)"/><path d="M126.695 57.4497C126.695 55.1485 128.886 53.2827 131.59 53.2827 134.294 53.2827 136.486 55.1485 136.486 57.4497 136.486 59.7509 134.294 61.6167 131.59 61.6167 128.886 61.6167 126.695 59.7509 126.695 57.4497Z" fill-rule="evenodd" transform="matrix(1 0 0 1.0033 11.4175 221.825)"/><path d="M116.902 42.63C115.639 40.8335 115.785 38.5549 117.228 37.5405 118.671 36.5261 120.864 37.1601 122.127 38.9566 123.39 40.753 123.244 43.0316 121.802 44.046 120.358 45.0604 118.165 44.4264 116.902 42.63Z" fill="#F2F2F2" fill-rule="evenodd" transform="matrix(1 0 0 1.0033 11.4175 221.825)"/><path d="M125.647 40.0172C126.326 38.2653 128.018 37.2878 129.425 37.834 130.832 38.3801 131.422 40.2429 130.742 41.9949 130.062 43.7468 128.37 44.7243 126.963 44.1781 125.556 43.632 124.967 41.7692 125.647 40.0172Z" fill="#F2F2F2" fill-rule="evenodd" transform="matrix(1 0 0 1.0033 11.4175 221.825)"/><path d="M78.3921 90.6485C76.7558 87.6988 77.4572 84.1826 79.9587 82.7954 82.4598 81.4078 85.8139 82.6748 87.4502 85.6244 89.0864 88.5741 88.3851 92.0903 85.8836 93.478 83.3825 94.8651 80.0284 93.5986 78.3921 90.6485Z" stroke="#000000" stroke-width="0.313093" stroke-miterlimit="8" fill="#F2F2F2" fill-rule="evenodd" transform="matrix(1 0 0 1.0033 11.4175 221.825)"/><path d="M113.994 91.2774C112.357 88.3273 113.059 84.8115 115.56 83.4239 118.061 82.0367 121.416 83.3032 123.052 86.2529 124.688 89.203 123.987 92.7188 121.486 94.1064 118.984 95.4936 115.63 94.2271 113.994 91.2774Z" stroke="#000000" stroke-width="0.313093" stroke-miterlimit="8" fill="#F2F2F2" fill-rule="evenodd" transform="matrix(1 0 0 1.0033 11.4175 221.825)"/><path d="M66.8484 66.9841C65.9681 63.1469 72.2036 58.4421 80.7757 56.4751 89.3479 54.5082 97.0106 56.0243 97.8913 59.8616 98.7716 63.6988 92.5362 68.4041 83.964 70.371 75.3919 72.3375 67.7292 70.8214 66.8484 66.9841Z" fill="#F2F2F2" fill-rule="evenodd" transform="matrix(1 0 0 1.0033 11.4175 221.825)"/><path d="M0 0 5.38219 4.86517" stroke="#000000" stroke-width="0.626186" stroke-miterlimit="8" fill="none" fill-rule="evenodd" transform="matrix(1 0 0 -1.0033 135.698 291.222)"/><path d="M129.29 64.3947 132.581 68.0352" stroke="#000000" stroke-width="0.626186" stroke-miterlimit="8" fill="none" fill-rule="evenodd" transform="matrix(1 0 0 1.0033 11.4175 221.825)"/></g></svg>