<svg width="108" height="108" xmlns="http://www.w3.org/2000/svg" xmlns:xlink="http://www.w3.org/1999/xlink" overflow="hidden"><defs><clipPath id="clip0"><rect x="667" y="138" width="108" height="108"/></clipPath></defs><g clip-path="url(#clip0)" transform="translate(-667 -138)"><path d="M753.287 208.087 748.225 205.163 752.162 204.15C753.4 203.812 754.075 202.575 753.737 201.45 753.4 200.325 752.162 199.538 751.037 199.875L742.713 202.125 739.45 200.212 749.575 197.512C750.812 197.175 751.487 195.938 751.15 194.812 750.812 193.688 749.575 192.9 748.45 193.238L733.938 197.062 729.662 194.587C729.888 193.8 730 193.012 730 192.225 730 191.438 729.888 190.538 729.662 189.863L733.938 187.387 748.45 191.212C748.675 191.212 748.787 191.325 749.013 191.325 750.025 191.325 750.925 190.65 751.15 189.637 751.487 188.4 750.812 187.163 749.575 186.938L739.45 184.238 742.713 182.325 751.037 184.575C751.263 184.575 751.375 184.688 751.6 184.688 752.612 184.688 753.513 184.012 753.737 183 754.075 181.762 753.4 180.525 752.162 180.3L748.225 179.288 753.287 176.363C754.412 175.688 754.75 174.337 754.075 173.325 753.4 172.2 752.05 171.863 751.037 172.538L745.975 175.462 746.987 171.525C747.325 170.288 746.65 169.05 745.412 168.825 744.175 168.488 742.938 169.163 742.713 170.4L740.463 178.725 737.2 180.637 739.9 170.512C740.237 169.275 739.562 168.038 738.325 167.812 737.088 167.475 735.85 168.15 735.625 169.387L731.8 183.9 727.525 186.375C726.4 185.25 724.938 184.35 723.362 184.012L723.362 179.062 733.938 168.488C734.838 167.587 734.838 166.238 733.938 165.337 733.037 164.438 731.688 164.438 730.787 165.337L723.25 171.975 723.25 168.262 729.325 162.188C730.225 161.288 730.225 159.938 729.325 159.038 728.425 158.137 727.075 158.137 726.175 159.038L723.25 161.85 723.25 156C723.25 154.762 722.237 153.75 721 153.75 719.763 153.75 718.75 154.762 718.75 156L718.75 161.85 715.825 158.925C714.925 158.025 713.575 158.025 712.675 158.925 711.775 159.825 711.775 161.175 712.675 162.075L718.75 168.15 718.75 171.863 711.325 164.438C710.425 163.538 709.075 163.538 708.175 164.438 707.275 165.337 707.275 166.688 708.175 167.587L718.75 178.163 718.75 183.113C717.175 183.562 715.713 184.35 714.588 185.475L710.312 183 706.375 168.712C706.037 167.475 704.8 166.8 703.675 167.137 702.438 167.475 701.763 168.712 702.1 169.837L704.8 179.962 701.537 178.05 699.287 169.725C698.95 168.488 697.713 167.812 696.588 168.15 695.35 168.488 694.675 169.725 695.013 170.85L696.025 174.788 690.963 171.863C689.838 171.188 688.487 171.637 687.925 172.65 687.25 173.775 687.7 175.125 688.713 175.688L693.775 178.613 689.838 179.625C688.6 179.962 687.925 181.2 688.263 182.325 688.487 183.337 689.388 184.012 690.4 184.012 690.625 184.012 690.737 184.012 690.963 183.9L699.287 181.65 702.55 183.562 692.425 186.262C691.188 186.6 690.513 187.837 690.85 188.962 691.075 189.975 691.975 190.65 692.987 190.65 693.213 190.65 693.325 190.65 693.55 190.538L708.062 186.712 712.338 189.188C712.112 190.312 712 191.212 712 192 712 192.788 712.112 193.688 712.338 194.363L708.062 196.837 693.55 193.012C692.312 192.675 691.075 193.35 690.85 194.587 690.625 195.825 691.188 197.062 692.425 197.288L702.55 199.988 699.287 201.9 690.963 199.65C689.725 199.312 688.487 199.988 688.263 201.225 688.037 202.462 688.6 203.7 689.838 203.925L693.775 204.938 688.713 207.862C687.588 208.538 687.25 209.888 687.925 210.9 688.375 211.575 689.05 212.025 689.838 212.025 690.175 212.025 690.625 211.913 690.963 211.688L696.025 208.763 695.013 212.7C694.675 213.938 695.35 215.175 696.588 215.4 696.812 215.4 696.925 215.513 697.15 215.513 698.162 215.513 699.062 214.837 699.287 213.825L701.537 205.5 704.8 203.587 702.1 213.712C701.763 214.95 702.438 216.188 703.675 216.413 703.9 216.413 704.013 216.525 704.237 216.525 705.25 216.525 706.15 215.85 706.375 214.837L710.2 200.325 714.475 197.85C715.6 198.975 717.062 199.875 718.638 200.212L718.638 205.163 708.062 215.737C707.162 216.638 707.162 217.987 708.062 218.888 708.963 219.788 710.312 219.788 711.213 218.888L718.638 211.462 718.638 215.175 712.562 221.25C711.662 222.15 711.662 223.5 712.562 224.4 713.463 225.3 714.812 225.3 715.713 224.4L718.638 221.475 718.638 228C718.638 229.237 719.65 230.25 720.888 230.25 722.125 230.25 723.138 229.237 723.138 228L723.138 222.15 726.062 225.075C726.625 225.525 727.188 225.75 727.75 225.75 728.312 225.75 728.875 225.525 729.325 225.075 730.225 224.175 730.225 222.825 729.325 221.925L723.25 215.85 723.25 212.138 730.675 219.562C731.125 219.9 731.688 220.125 732.25 220.125 732.812 220.125 733.375 219.9 733.825 219.45 734.725 218.55 734.725 217.2 733.825 216.3L723.25 205.725 723.25 200.775C724.825 200.325 726.287 199.538 727.412 198.413L731.688 200.887 735.625 215.288C735.85 216.3 736.75 216.975 737.763 216.975 737.987 216.975 738.1 216.975 738.325 216.862 739.562 216.525 740.237 215.288 739.9 214.163L737.2 204.038 740.463 205.95 742.713 214.275C742.938 215.288 743.838 215.962 744.85 215.962 745.075 215.962 745.188 215.962 745.412 215.85 746.65 215.513 747.325 214.275 746.987 213.15L745.975 209.212 751.037 212.138C751.375 212.362 751.825 212.475 752.162 212.475 752.95 212.475 753.737 212.025 754.075 211.35 754.75 210 754.412 208.65 753.287 208.087Z" fill="#5B9BD5"/></g></svg>