<svg width="83" height="103" xmlns="http://www.w3.org/2000/svg" xmlns:xlink="http://www.w3.org/1999/xlink" overflow="hidden"><defs><clipPath id="clip0"><rect x="185" y="278" width="83" height="103"/></clipPath></defs><g clip-path="url(#clip0)" transform="translate(-185 -278)"><path d="M194.995 387.865C194.995 390.589 192.787 392.797 190.063 392.797 187.339 392.797 185.131 390.589 185.131 387.865 185.131 385.141 187.339 382.933 190.063 382.933 192.787 382.933 194.995 385.141 194.995 387.865Z" fill="#FFFFFF" transform="matrix(1.00732 0 0 1 170.576 -53.2851)"/><path d="" stroke="#000000" stroke-width="5.10236" stroke-miterlimit="10" fill="none" transform="matrix(1.00732 0 0 1 170.576 -53.2851)"/><path d="M56.2111 404.362 49.1528 420.35C47.367 424.517 42.7748 426.558 39.0331 424.857L33.3355 422.306C32.8252 422.051 32.315 421.796 31.8898 421.455 31.3795 421.37 30.8693 421.285 30.4441 421.03L26.1921 419.159C23.0457 417.799 21.6851 413.802 23.2158 410.23L53.7449 341.008C55.2756 337.521 59.1024 335.736 62.3339 337.181L66.5859 339.052C67.0111 339.222 67.3512 339.477 67.6914 339.732 68.1166 339.818 68.6268 339.988 69.052 340.158L74.7496 342.709C78.4914 344.325 80.0221 349.087 78.2363 353.169L71.178 369.156C69.3922 373.323 64.8 375.364 61.0583 373.663L58.5922 372.558 49.7481 392.542 52.6394 393.818C56.4662 395.518 57.9969 400.195 56.2111 404.362Z" stroke="#231815" stroke-width="2.55118" stroke-miterlimit="10" fill="#560B16" transform="matrix(1.00732 0 0 1 170.576 -53.2851)"/><path d="M39.6284 425.537 38.0126 425.027 49.2378 392.797 50.8536 393.392Z" fill="#93D1D0" transform="matrix(1.00732 0 0 1 170.576 -53.2851)"/><path d="M59.8678 373.068 58.252 372.473 69.4772 340.328 71.093 340.923Z" fill="#93D1D0" transform="matrix(1.00732 0 0 1 170.576 -53.2851)"/></g></svg>