<svg width="177" height="103" xmlns="http://www.w3.org/2000/svg" xmlns:xlink="http://www.w3.org/1999/xlink" overflow="hidden"><defs><clipPath id="clip0"><rect x="445" y="434" width="177" height="103"/></clipPath></defs><g clip-path="url(#clip0)" transform="translate(-445 -434)"><path d="M587.743 212.331C558.844 212.364 532.985 229.224 522.792 254.678 524.341 254.875 525.865 255.209 527.345 255.674 540.222 224.281 577.696 208.656 611.048 220.775 623.435 225.276 634.054 233.254 641.461 243.628 641.773 243.616 642.084 243.572 642.396 243.572 644.018 243.582 645.632 243.737 647.22 244.042 634.68 224.379 612.107 212.344 587.743 212.331Z" stroke="#BDD7EE" stroke-width="6.69622" stroke-miterlimit="8" fill="#BDD7EE" fill-rule="evenodd" transform="matrix(1.00262 0 0 1 -55.7269 235.792)"/><path d="M623.961 244.916C625.042 243.981 626.225 243.13 627.496 242.377 610.062 224.026 577.915 220.821 555.694 235.217 547.702 240.394 541.758 247.419 538.619 255.396 540.241 255.343 541.868 255.435 543.465 255.674 551.973 235.703 578.475 225.208 602.66 232.233 611.087 234.68 618.48 239.084 623.951 244.916Z" stroke="#FFD966" stroke-width="6.69622" stroke-miterlimit="8" fill="#FFE699" fill-rule="evenodd" transform="matrix(1.00262 0 0 1 -55.7269 235.792)"/><path d="M617.761 250.848C618.653 249.92 619.629 249.077 620.678 248.33 606.302 230.132 579.79 226.953 561.464 241.23 554.875 246.365 549.974 253.331 547.385 261.243 548.725 261.189 550.064 261.282 551.381 261.518 558.399 241.712 580.253 231.303 600.198 238.27 607.147 240.698 613.242 245.065 617.754 250.848Z" stroke="#C00000" stroke-width="6.69622" stroke-miterlimit="8" fill="#C00000" fill-rule="evenodd" transform="matrix(1.00262 0 0 1 -55.7269 235.792)"/><path d="M587.514 216.957C563.593 216.986 542.187 231.763 533.749 254.069 535.03 254.244 536.294 254.537 537.519 254.943 548.177 227.43 579.198 213.737 606.806 224.358 617.06 228.303 625.85 235.295 631.982 244.385 632.24 244.375 632.498 244.339 632.756 244.339 634.098 244.344 635.435 244.483 636.749 244.748 626.369 227.516 607.683 216.969 587.514 216.957Z" stroke="#70AD47" stroke-width="6.69622" stroke-miterlimit="8" fill="#70AD47" fill-rule="evenodd" transform="matrix(1.00262 0 0 1 -55.7269 235.792)"/><path d="M587.47 205.455C616.921 205.494 643.117 224.157 652.737 251.956 654.276 252.192 655.776 252.628 657.203 253.251 645.493 214.789 604.78 193.089 566.269 204.784 540.531 212.601 521.195 233.943 515.974 260.3 517.386 258.873 518.996 257.653 520.749 256.677 528.836 226.499 556.193 205.497 587.47 205.455Z" stroke="#7030A0" stroke-width="6.69622" stroke-miterlimit="8" fill="#7030A0" fill-rule="evenodd" transform="matrix(1.00262 0 0 1 -55.7269 235.792)"/><path d="M675.936 279.196C675.753 275.986 674.287 272.987 671.872 270.875L671.872 270.875C669.782 269.064 667.116 268.063 664.357 268.056 663.33 260.142 656.11 254.563 648.233 255.596 647.858 255.645 647.488 255.708 647.118 255.786 641.924 247.911 631.358 245.756 623.52 250.972 619.463 253.672 616.748 257.987 616.064 262.828L615.847 262.828C607.892 262.825 601.445 269.302 601.442 277.294 601.442 284.416 606.597 290.479 613.6 291.59 613.897 291.636 614.194 291.675 614.669 291.712L664.786 291.712C671.302 291.341 676.289 285.743 675.936 279.196ZM664.681 287.855 614.849 287.855 614.849 287.855C609.037 287.297 604.776 282.113 605.331 276.271 605.849 270.822 610.405 266.66 615.855 266.66 616.41 266.66 616.968 266.704 617.515 266.792L619.663 267.135C619.675 267.138 619.685 267.128 619.687 267.116 619.687 267.116 619.687 267.116 619.687 267.116L619.724 265.365C619.758 260.502 622.363 256.024 626.564 253.604 629.559 251.938 633.087 251.515 636.391 252.428 640.015 253.504 643.046 256.02 644.782 259.39L645.284 260.32C645.289 260.327 645.296 260.332 645.306 260.329L646.438 259.959C650.103 258.686 654.162 259.463 657.106 261.995 659.361 264.004 660.649 266.889 660.639 269.916L660.639 272.417C660.639 272.429 660.651 272.439 660.661 272.436 660.661 272.436 660.661 272.436 660.661 272.436L662.899 272.022C665.21 271.594 667.589 272.241 669.368 273.783 672.702 276.688 673.062 281.755 670.172 285.105 668.779 286.72 666.804 287.708 664.681 287.855Z" fill-rule="evenodd" transform="matrix(1.00262 0 0 1 -55.7269 235.792)"/><path d="M573.91 288.768C573.727 285.575 572.261 282.593 569.848 280.494L569.848 280.494C567.756 278.692 565.09 277.696 562.331 277.689 561.304 269.816 554.084 264.269 546.207 265.297 545.832 265.346 545.462 265.409 545.092 265.487 539.9 257.651 529.335 255.508 521.494 260.697 517.437 263.38 514.725 267.669 514.038 272.48L513.821 272.48C505.866 272.48 499.419 278.921 499.416 286.871 499.416 293.952 504.571 299.983 511.574 301.089 511.871 301.133 512.168 301.172 512.645 301.208L562.76 301.208C569.273 300.84 574.26 295.276 573.91 288.768ZM562.658 297.38 512.83 297.38 512.83 297.38C507.018 296.825 502.754 291.668 503.31 285.86 503.828 280.44 508.384 276.301 513.834 276.301 514.391 276.301 514.946 276.344 515.497 276.432L517.644 276.773C517.654 276.775 517.666 276.766 517.666 276.753 517.666 276.753 517.666 276.753 517.666 276.753L517.703 275.012C517.737 270.177 520.34 265.723 524.538 263.315 527.533 261.659 531.061 261.238 534.365 262.146 537.989 263.217 541.02 265.718 542.759 269.071L543.258 269.994C543.263 270.004 543.273 270.006 543.28 270.004L544.412 269.636C548.077 268.37 552.136 269.142 555.08 271.662 557.335 273.661 558.62 276.532 558.608 279.544L558.608 282.033C558.608 282.045 558.618 282.052 558.63 282.052 558.63 282.052 558.63 282.052 558.63 282.052L560.868 281.64C563.179 281.214 565.558 281.857 567.338 283.391 570.669 286.282 571.024 291.324 568.131 294.651 566.741 296.25 564.771 297.234 562.658 297.38Z" fill-rule="evenodd" transform="matrix(1.00262 0 0 1 -55.7269 235.792)"/></g></svg>