<svg width="96" height="125" xmlns="http://www.w3.org/2000/svg" xmlns:xlink="http://www.w3.org/1999/xlink" overflow="hidden"><defs><clipPath id="clip0"><rect x="322" y="155" width="96" height="125"/></clipPath></defs><g clip-path="url(#clip0)" transform="translate(-322 -155)"><path d="M158.671 98.0725C157.844 97.3574 157.754 96.1082 158.469 95.2821L158.469 95.2821C159.184 94.4553 160.433 94.3645 161.259 95.0795L169.633 102.321C170.459 103.036 170.55 104.286 169.836 105.112L169.836 105.112C169.121 105.939 167.871 106.029 167.045 105.314Z" stroke="#595959" stroke-width="0.515831" stroke-miterlimit="8" fill="#7F7F7F" fill-rule="evenodd" transform="matrix(1.00273 0 0 1 222.013 122.587)"/><path d="M128.939 127.514C128.939 125.649 130.451 124.137 132.315 124.137L164.203 124.137C166.068 124.137 167.58 125.649 167.58 127.514L167.58 127.514C167.58 129.378 166.068 130.89 164.203 130.89L132.315 130.89C130.451 130.89 128.939 129.378 128.939 127.514Z" stroke="#595959" stroke-width="0.515831" stroke-miterlimit="8" fill="#7F7F7F" fill-rule="evenodd" transform="matrix(1.00273 0 0 1 222.013 122.587)"/><path d="M119.256 130.027C112.3 130.808 105.342 131.589 103.081 135.754 100.82 139.919 98.2976 152.111 105.69 155.017 113.082 157.925 130.258 155.56 147.434 153.196" stroke="#595959" stroke-width="2.06333" stroke-linecap="round" stroke-miterlimit="8" fill="none" fill-rule="evenodd" transform="matrix(1.00273 0 0 1 222.013 122.587)"/><path d="M154.848 82.581C159.524 69.4476 164.713 67.2363 166.44 77.6418 168.167 88.047 165.777 107.129 161.103 120.263 156.428 133.396 151.238 135.608 149.512 125.202 149.377 124.393 149.266 123.52 149.18 122.587Z" stroke="#595959" stroke-width="0.773747" stroke-miterlimit="8" fill="#FFFFFF" fill-rule="evenodd" transform="matrix(1.00273 0 0 1 222.013 122.587)"/><path d="M116.82 117.391 164.181 64.5677 149.833 130.653Z" stroke="#595959" stroke-width="0.773747" stroke-miterlimit="8" fill="#7F7F7F" fill-rule="evenodd" transform="matrix(1.00273 0 0 1 222.013 122.587)"/><path d="M129.802 47.494C129.802 39.3722 136.403 32.7881 144.545 32.7881 152.688 32.7881 159.289 39.3722 159.289 47.494 159.289 55.6158 152.688 62.1999 144.545 62.1999 136.403 62.1999 129.802 55.6158 129.802 47.494Z" stroke="#595959" stroke-width="0.773747" stroke-miterlimit="8" fill="#7F7F7F" fill-rule="evenodd" transform="matrix(1.00273 0 0 1 222.013 122.587)"/><path d="M154.331 47.494C155.458 47.494 156.564 47.5591 157.645 47.6847L159.371 47.9872 160.062 48.8276C162.246 50.8039 167.794 52.8691 174.477 53.9985 180.046 54.9397 185.085 55.0082 188.18 54.3403L189.044 54.0787 189.749 54.7544C190.135 55.2397 190.445 55.7703 190.672 56.3455 193.086 62.4807 185.087 71.3648 172.806 76.1885 171.271 76.7917 169.742 77.3027 168.236 77.7236L164.604 78.5369 162.799 79.282C160.197 80.1193 157.335 80.5822 154.331 80.5822 142.318 80.5822 132.578 73.1752 132.578 64.0381 132.578 54.901 142.318 47.494 154.331 47.494Z" stroke="#595959" stroke-width="0.773747" stroke-miterlimit="8" fill="#7F7F7F" fill-rule="evenodd" transform="matrix(1.00273 0 0 1 222.013 122.587)"/><path d="M116.146 57.0978C116.146 48.976 122.748 42.392 130.89 42.392 139.032 42.392 145.633 48.976 145.633 57.0978 145.633 65.2197 139.032 71.8037 130.89 71.8037 122.748 71.8037 116.146 65.2197 116.146 57.0978Z" stroke="#595959" stroke-width="0.773747" stroke-miterlimit="8" fill="#7F7F7F" fill-rule="evenodd" transform="matrix(1.00273 0 0 1 222.013 122.587)"/><path d="M153.471 100.954C152.645 100.239 152.554 98.9893 153.269 98.1633L153.269 98.1633C153.983 97.3364 155.233 97.2457 156.059 97.9607L164.434 105.203C165.26 105.918 165.35 107.167 164.635 107.993L164.635 107.993C163.921 108.82 162.672 108.911 161.845 108.196Z" stroke="#595959" stroke-width="0.515831" stroke-miterlimit="8" fill="#7F7F7F" fill-rule="evenodd" transform="matrix(1.00273 0 0 1 222.013 122.587)"/><path d="M126.988 132.24C126.988 130.376 128.5 128.864 130.365 128.864L162.252 128.864C164.117 128.864 165.629 130.376 165.629 132.24L165.629 132.24C165.629 134.105 164.117 135.617 162.252 135.617L130.365 135.617C128.5 135.617 126.988 134.105 126.988 132.24Z" stroke="#595959" stroke-width="0.515831" stroke-miterlimit="8" fill="#7F7F7F" fill-rule="evenodd" transform="matrix(1.00273 0 0 1 222.013 122.587)"/><path d="M121.811 57.0978C121.811 51.5659 126.296 47.0813 131.828 47.0813 137.36 47.0813 141.844 51.5659 141.844 57.0978 141.844 62.6298 137.36 67.1143 131.828 67.1143 126.296 67.1143 121.811 62.6298 121.811 57.0978Z" stroke="#595959" stroke-width="0.515831" stroke-miterlimit="8" fill="#FF9999" fill-rule="evenodd" transform="matrix(1.00273 0 0 1 222.013 122.587)"/><path d="M161.69 55.6348C161.69 54.1223 162.277 52.8962 163.003 52.8962 163.728 52.8962 164.316 54.1223 164.316 55.6348 164.316 57.1472 163.728 58.3734 163.003 58.3734 162.277 58.3734 161.69 57.1472 161.69 55.6348Z" fill-rule="evenodd" transform="matrix(1.00273 0 0 1 222.013 122.587)"/><path d="M153.887 58.4859C153.887 56.9734 154.475 55.7473 155.2 55.7473 155.925 55.7473 156.513 56.9734 156.513 58.4859 156.513 59.9984 155.925 61.2245 155.2 61.2245 154.475 61.2245 153.887 59.9984 153.887 58.4859Z" fill-rule="evenodd" transform="matrix(1.00273 0 0 1 222.013 122.587)"/><path d="M112.245 118.51C112.245 108.668 121.768 100.69 133.516 100.69 145.263 100.69 154.787 108.668 154.787 118.51 154.787 128.352 145.263 136.33 133.516 136.33 121.768 136.33 112.245 128.352 112.245 118.51Z" stroke="#595959" stroke-width="0.773747" stroke-miterlimit="8" fill="#7F7F7F" fill-rule="evenodd" transform="matrix(1.00273 0 0 1 222.013 122.587)"/><path d="M180.034 71.6234C177.954 74.0512 173.063 76.3776 166.861 77.8887L160.666 71.9132Z" stroke="#7F7F7F" stroke-width="0.343887" stroke-miterlimit="8" fill="#FF9999" fill-rule="evenodd" transform="matrix(1.00273 0 0 1 222.013 122.587)"/><path d="M186.074 56.9853C186.074 54.4369 188.174 52.3709 190.764 52.3709 193.354 52.3709 195.453 54.4369 195.453 56.9853 195.453 59.5337 193.354 61.5996 190.764 61.5996 188.174 61.5996 186.074 59.5337 186.074 56.9853Z" fill-rule="evenodd" transform="matrix(1.00273 0 0 1 222.013 122.587)"/></g></svg>