<svg width="146" height="122" xmlns="http://www.w3.org/2000/svg" xmlns:xlink="http://www.w3.org/1999/xlink" overflow="hidden"><defs><clipPath id="clip0"><rect x="189" y="115" width="146" height="122"/></clipPath></defs><g clip-path="url(#clip0)" transform="translate(-189 -115)"><path d="M92.9829 184.952C92.9829 186.251 91.9299 187.304 90.631 187.304 89.332 187.304 88.279 186.251 88.279 184.952 88.279 183.653 89.332 182.6 90.631 182.6 91.9299 182.6 92.9829 183.653 92.9829 184.952Z" fill="#FFFFFF" transform="matrix(1 0 0 1.00459 128.595 76.0583)"/><path d="" stroke="#000000" stroke-width="2.43305" stroke-miterlimit="10" fill="none" transform="matrix(1 0 0 1.00459 128.595 76.0583)"/><path d="" stroke="#000000" stroke-width="2.02754" stroke-miterlimit="10" fill="none" transform="matrix(1 0 0 1.00459 128.595 76.0583)"/><path d="M81.872 133.209 131.466 120.598 170.516 153.687 157.945 103.81 190.913 65.449 141.319 77.452 102.35 44.2003C106.567 60.0152 110.785 75.7894 114.961 91.6042 103.932 105.473 92.9018 119.341 81.872 133.209Z" stroke="#231815" stroke-width="2.02754" stroke-miterlimit="10" fill="#C7BFB5" transform="matrix(1 0 0 1.00459 128.595 76.0583)"/><path d="M146.104 98.4971C146.104 102.155 142.21 105.121 137.407 105.121 132.604 105.121 128.71 102.155 128.71 98.4971 128.71 94.8388 132.604 91.8731 137.407 91.8731 142.21 91.8731 146.104 94.8388 146.104 98.4971Z" stroke="#231815" stroke-width="2.03187" stroke-miterlimit="9.9999" fill="#C7BFB5" transform="matrix(0.68662 -0.727365 0.72404 0.689773 100.043 206.8)"/><path d="M141.755 98.4971C141.755 100.338 139.808 101.829 137.407 101.829 135.005 101.829 133.059 100.338 133.059 98.4971 133.059 96.6568 135.005 95.1648 137.407 95.1648 139.808 95.1648 141.755 96.6568 141.755 98.4971Z" stroke="#231815" stroke-width="2.03187" stroke-miterlimit="9.9999" fill="#C7BFB5" transform="matrix(0.68662 -0.727365 0.72404 0.689773 100.043 206.8)"/><path d="M111.596 58.7175 118.854 86.8598 133.736 79.1957Z" stroke="#231815" stroke-width="0.811016" stroke-miterlimit="10" fill="#76C17F" transform="matrix(1 0 0 1.00459 128.595 76.0583)"/><path d="M97.4841 122.017 125.707 115.002 118.165 100.039Z" stroke="#231815" stroke-width="0.811016" stroke-miterlimit="10" fill="#76C17F" transform="matrix(1 0 0 1.00459 128.595 76.0583)"/><path d="M160.338 137.873 153.201 109.69 138.278 117.273Z" stroke="#231815" stroke-width="0.811016" stroke-miterlimit="10" fill="#76C17F" transform="matrix(1 0 0 1.00459 128.595 76.0583)"/><path d="M174.084 74.5323 146.632 84.1023 155.472 98.3356Z" stroke="#231815" stroke-width="0.811016" stroke-miterlimit="10" fill="#76C17F" transform="matrix(1 0 0 1.00459 128.595 76.0583)"/><path d="M179.518 127.046C182.641 121.936 190.508 107.5 185.317 93.7129 184.83 92.4152 184.222 91.1176 183.452 89.7794" stroke="#231815" stroke-width="2.43305" stroke-miterlimit="10" fill="none" transform="matrix(1 0 0 1.00459 128.595 76.0583)"/><path d="M194.279 132.844C195.86 126.153 199.794 107.216 197.158 89.1306 196.915 87.468 196.631 85.7243 196.225 83.9807" stroke="#231815" stroke-width="2.43305" stroke-miterlimit="10" fill="none" transform="matrix(1 0 0 1.00459 128.595 76.0583)"/><path d="M83.5752 115.245C81.426 109.649 76.3571 94.0372 83.9807 81.426 84.67 80.25 85.5216 79.074 86.5354 77.898" stroke="#231815" stroke-width="2.43305" stroke-miterlimit="10" fill="none" transform="matrix(1 0 0 1.00459 128.595 76.0583)"/><path d="M68.0037 118.206C67.6792 111.312 67.3143 92.0097 73.1536 74.6945 73.6808 73.0725 74.3296 71.4505 75.0189 69.7879" stroke="#231815" stroke-width="2.43305" stroke-miterlimit="10" fill="none" transform="matrix(1 0 0 1.00459 128.595 76.0583)"/></g></svg>