<svg width="96" height="73" xmlns="http://www.w3.org/2000/svg" xmlns:xlink="http://www.w3.org/1999/xlink" overflow="hidden"><defs><clipPath id="clip0"><rect x="215" y="244" width="96" height="73"/></clipPath></defs><g clip-path="url(#clip0)" transform="translate(-215 -244)"><path d="M191.566 149.348C192.218 137.587 214.027 129.232 240.278 130.687 266.53 132.141 287.283 142.855 286.631 154.617 285.979 166.378 264.169 174.733 237.918 173.278 211.667 171.823 190.913 161.11 191.566 149.348Z" stroke="#000000" stroke-width="0.771028" stroke-miterlimit="8" fill="#FFDC6D" fill-rule="evenodd" transform="matrix(1 0 0 1.00295 23.8972 142.655)"/><path d="M240.168 101.439C265.563 101.439 286.15 119.739 286.15 142.312 286.15 143.723 286.069 145.117 285.912 146.491L285.323 149.924 280.88 152.223C270.548 157.05 258.095 159.869 244.689 159.869 224.581 159.869 206.613 153.526 194.741 143.575L194.232 143.104 194.187 142.312C194.187 119.739 214.773 101.439 240.168 101.439Z" stroke="#000000" stroke-width="0.771028" stroke-miterlimit="8" fill="#2E75B6" fill-rule="evenodd" transform="matrix(1 0 0 1.00295 23.8972 142.655)"/><path d="M243.364 122.86C256.278 122.86 266.748 134.881 266.748 149.71 266.748 151.563 266.584 153.373 266.272 155.121L265.794 156.89 263.501 157.516C257.419 158.826 250.952 159.533 244.247 159.533 236.705 159.533 229.464 158.639 222.732 156.997L220.815 156.444 220.457 155.121C220.145 153.373 219.981 151.563 219.981 149.71 219.981 134.881 230.45 122.86 243.364 122.86Z" stroke="#000000" stroke-width="0.385514" stroke-miterlimit="8" fill="#BDD7EE" fill-rule="evenodd" transform="matrix(1 0 0 1.00295 23.8972 142.655)"/><path d="M198.655 136.828C202.628 136.478 206.962 137.61 210.716 140.307 215.407 143.678 218.081 148.697 218.299 153.565L218.168 155.832 216.584 155.375C208.111 152.541 200.665 148.462 194.74 143.48L194.232 143.007 194.187 142.215C194.187 140.801 194.268 139.405 194.424 138.029L194.446 137.901 195.758 137.367C196.691 137.096 197.661 136.916 198.655 136.828Z" stroke="#000000" stroke-width="0.385514" stroke-miterlimit="8" fill="#BDD7EE" fill-rule="evenodd" transform="matrix(1 0 0 1.00295 23.8972 142.655)"/><path d="M222.077 104.579 222.204 104.726C226.653 110.819 227.975 118.132 225.004 124.259 220.846 132.838 209.651 136.255 198.579 132.936L195.757 131.835 197.689 126.302C201.764 117.74 209.024 110.668 218.149 106.262Z" stroke="#000000" stroke-width="0.385514" stroke-miterlimit="8" fill="#BDD7EE" fill-rule="evenodd" transform="matrix(1 0 0 1.00295 23.8972 142.655)"/><path d="M285.312 136.654 285.575 138.194C285.732 139.573 285.813 140.974 285.813 142.392 285.813 143.809 285.732 145.209 285.575 146.59L284.985 150.039 280.538 152.347C277.953 153.56 275.235 154.646 272.402 155.594L271.121 155.944 271.493 152.206C272.863 145.413 277.486 139.821 283.637 137.181Z" stroke="#000000" stroke-width="0.385514" stroke-miterlimit="8" fill="#BDD7EE" fill-rule="evenodd" transform="matrix(1 0 0 1.00295 23.8972 142.655)"/><path d="M239.823 101.439C247.776 101.439 255.26 103.227 261.791 106.374L262.037 106.507 261.266 108.009C257.528 113.856 251.197 117.701 244.016 117.701 235.4 117.701 228.007 112.164 224.849 104.274L224.692 103.74 226.117 103.277C230.447 102.083 235.05 101.439 239.823 101.439Z" stroke="#000000" stroke-width="0.385514" stroke-miterlimit="8" fill="#BDD7EE" fill-rule="evenodd" transform="matrix(1 0 0 1.00295 23.8972 142.655)"/><path d="M267.004 109.178 269.585 110.9C275.25 115.073 279.774 120.437 282.675 126.563L285.14 133.652 282.986 134.763C277.348 137.006 270.735 135.834 266.313 131.265 260.416 125.171 260.648 115.345 266.831 109.317Z" stroke="#000000" stroke-width="0.385514" stroke-miterlimit="8" fill="#BDD7EE" fill-rule="evenodd" transform="matrix(1 0 0 1.00295 23.8972 142.655)"/></g></svg>