<?xml version="1.0" encoding="iso-8859-1"?>
<!-- Generator: Adobe Illustrator 27.0.0, SVG Export Plug-In . SVG Version: 6.00 Build 0)  -->
<svg version="1.1" id="&#x5716;&#x5C64;_1" xmlns="http://www.w3.org/2000/svg" xmlns:xlink="http://www.w3.org/1999/xlink" x="0px"
	 y="0px" viewBox="0 0 595.2 841.92" style="enable-background:new 0 0 595.2 841.92;" xml:space="preserve">
<path style="fill:#EBE2B3;stroke:#000000;stroke-width:6;stroke-miterlimit:10;" d="M137.574,670.741
	c-1.408,5.685-0.822,8.398,0.079,9.818c2.062,3.252,2.387,3.835,3.035,5.002c0.208,0.375,0.372,0.677,0.489,0.894
	c1.223,2.261,1.329,2.72,3.925,8.151c4.171,8.719,4.355,8.485,5.513,11.518c1.598,4.166,1.162,4.349,3.25,10.329
	c1.933,5.529,2.94,8.323,4.76,10.081c0.469,0.45,5.095,4.786,10.401,3.467c3.485-0.867,5.426-3.73,6.812-5.783
	c0.841-1.233,1.45-2.458,3.888-10.987c1.409-4.924,2.12-7.443,2.544-9.732c0.226-1.213,0.351-2.176,0.427-3.009
	c0.318-3.366,0.518-5.538,0.597-6.473c0.182-2.158,0.951-5.305,3.633-9.394c-6.505,0.006-15.465-0.658-25.68-3.537
	C151.073,678.219,143.11,674.13,137.574,670.741z M240.02,673.1c2.999,4.614,6.11,9.91,9.129,15.879
	c2.977,5.895,5.375,11.48,7.313,16.603c7.683,12.569,21.534,6.885,20.927-7.578c0.977-6.566,1.817-13.534,2.443-20.874
	c0.564-6.609,0.92-12.951,1.103-18.981c-0.046-1.355-0.194-2.843-0.506-4.43c-1.087-5.535-3.647-9.652-5.621-12.212
	C263.212,652.038,251.616,662.569,240.02,673.1z"/>
<path style="fill:#EBE2B3;stroke:#000000;stroke-width:6;stroke-miterlimit:10;" d="M57.387,570.734
	c-1.147-2.659-2.636-6.721-3.5-11.849c-0.918-5.453-0.276-7.099-0.9-11.75c-1.232-9.212-4.604-9.195-5.921-17.136
	c-1.552-9.433,1.828-17.59,2.899-20.138c2.427-5.821,3.863-5.287,6.824-11.987c2.755-6.23,3.634-11.482,4.485-16.781
	c1.477-9.192,0.499-10.825,1.472-19.386c0.687-6.052,1.556-13.765,5.165-22.071c2.352-5.414,6.9-11.037,15.993-22.292
	c5.843-7.235,10.129-11.983,13.464-15.674c10.17-11.24,13.69-13.867,15.139-14.916c5.084-3.654,9.66-6.951,16.3-7.861
	c3.34-0.458,8.633-0.995,14.259-1.971c0.798-0.141,2.605-0.429,4.929-0.963c0.995-0.235,2.661-0.641,4.649-1.251
	c3.377-1.032,5.872-2.071,6.64-2.39c11.087-4.561,16.644-7.127,22.178-6.75c6.651,0.446,11.563,3.448,16.023,6.16
	c2.827,1.724,6.949,5.525,15.088,13.043c9.049,8.372,11.2,10.663,16.177,13.381c4.977,2.718,5.397,1.818,8.974,4.219
	c4.761,3.189,6.935,6.733,12.307,15.052c10.268,15.904,9.288,13.765,10.377,15.886c1.108,2.179,1.895,4.37,3.572,8.716
	c2.121,5.499,2.918,8.185,5.699,16.159c2.164,6.191,3.213,9.302,3.836,10.75c4.21,9.817,9.152,16.138,10.791,18.402
	c7.669,10.575,9.329,24.298,12.658,51.741c2.019,16.643,3.112,25.686,1.093,38.118c-1.042,6.414-1.865,7.269-4.662,21.989
	c-2.37,12.45-2.542,15.843-4.751,24.588c-2.453,9.727-3.68,14.591-7.008,20.297c-1.406,2.42-4.747,7.672-14.47,15.84
	c-7.295,6.127-16.756,14.133-31.434,19.664c0,0-13.145,4.954-43.875,6.606c-4.402,0.237-8.269,0.067-8.269,0.067
	c-3.421-0.15-5.404-0.459-8.141-0.73c-6.784-0.673-7.392-0.044-12.759-0.488c-7.571-0.627-13.465-2.465-17.705-3.814
	c-3.986-1.268-4.803-1.814-9.809-3.701c-10.283-3.875-14.831-4.077-19.307-6.167c-13.755-6.422-22.325-16.069-25.565-20.116
	c-2.553-3.198-6.583-10.815-14.635-26.06c-5.314-10.061-8.008-15.161-9.281-18.651c-2.429-6.657-3.923-13.2-6.91-26.287
	C58.561,576.221,57.849,572.917,57.387,570.734z"/>
<path style="fill:#595850;stroke:#000000;stroke-width:3.0001;stroke-miterlimit:10.0002;" d="M105.414,423.498l2.601-7.745
	l36.791,12.358l-2.601,7.745L105.414,423.498z"/>
<path style="fill:#595850;stroke:#000000;stroke-width:3.0001;stroke-miterlimit:10.0004;" d="M179.973,421.735l31.774-22.286
	l4.691,6.689l-31.774,22.286L179.973,421.735z"/>
<ellipse style="opacity:0.47;fill:#5B5742;enable-background:new    ;" cx="191.57" cy="731.87" rx="68.04" ry="2.68"/>
<path style="fill:#A6A897;stroke:#000000;stroke-width:6;stroke-miterlimit:10;" d="M330.998,566.799L81.582,657.912
	c-4.904,1.79-10.326-0.733-12.114-5.628l-24.815-67.912c-1.79-4.904,0.733-10.326,5.628-12.114l249.407-91.112
	c4.904-1.79,10.326,0.733,12.114,5.628l24.815,67.912C338.414,559.579,335.893,565.011,330.998,566.799L330.998,566.799z"/>
<ellipse transform="matrix(0.9867 -0.1624 0.1624 0.9867 -76.7436 35.2941)" style="fill:#E73A8F;stroke:#000000;stroke-width:2.9998;stroke-miterlimit:9.9996;" cx="177.509" cy="487.058" rx="10.997" ry="19.131"/>
<path style="fill:#D6DBD9;stroke:#000000;stroke-miterlimit:10;" d="M124.32,568.73l-7.993,2.916
	c-1.214,0.443-2.553-0.178-3.006-1.39l-1.548-4.235c-0.443-1.214,0.178-2.553,1.39-3.006l7.993-2.916
	c1.214-0.443,2.553,0.178,3.006,1.39l1.548,4.235C126.155,566.949,125.534,568.287,124.32,568.73z M162.282,554.863l-7.993,2.916
	c-1.214,0.443-2.553-0.178-3.006-1.39l-1.548-4.235c-0.443-1.214,0.178-2.553,1.39-3.006l7.993-2.916
	c1.214-0.443,2.553,0.178,3.006,1.39l1.548,4.235C164.115,553.071,163.496,554.42,162.282,554.863z M73.013,587.479l-7.993,2.916
	c-1.214,0.443-2.553-0.178-3.006-1.39l-1.548-4.235c-0.443-1.214,0.178-2.553,1.39-3.006l7.993-2.916
	c1.214-0.443,2.553,0.178,3.006,1.39l1.548,4.235C74.856,585.686,74.227,587.036,73.013,587.479z M89.932,581.29l-7.993,2.916
	c-1.214,0.443-2.553-0.178-3.006-1.39l-1.548-4.235c-0.443-1.214,0.178-2.553,1.39-3.006l7.993-2.916
	c1.214-0.443,2.553,0.178,3.006,1.391l1.548,4.235c0.45,1.206-0.163,2.548-1.368,2.998C89.947,581.285,89.94,581.287,89.932,581.29z
	 M228.723,530.594l-7.993,2.916c-1.214,0.443-2.553-0.178-3.006-1.391l-1.548-4.235c-0.443-1.214,0.178-2.553,1.39-3.006
	l7.993-2.916c1.214-0.443,2.553,0.178,3.006,1.39l1.548,4.235C230.566,528.801,229.936,530.141,228.723,530.594z M107.332,574.941
	l-7.993,2.916c-1.214,0.443-2.553-0.178-3.006-1.391l-1.548-4.235c-0.443-1.214,0.178-2.553,1.39-3.006l7.993-2.916
	c1.214-0.443,2.553,0.178,3.006,1.39l1.548,4.235C109.176,573.148,108.547,574.498,107.332,574.941z M179.346,548.63l-7.993,2.916
	c-1.214,0.443-2.553-0.178-3.006-1.39l-1.548-4.235c-0.443-1.214,0.178-2.553,1.39-3.006l7.993-2.916
	c1.214-0.443,2.553,0.178,3.006,1.39l1.548,4.235C181.18,546.838,180.56,548.187,179.346,548.63z M195.683,542.658l-7.993,2.916
	c-1.214,0.443-2.553-0.178-3.006-1.39l-1.548-4.235c-0.443-1.214,0.178-2.553,1.39-3.006l7.993-2.916
	c1.214-0.443,2.553,0.178,3.006,1.39l1.548,4.235C197.519,540.876,196.898,542.215,195.683,542.658z M212.213,536.624l-7.993,2.916
	c-1.214,0.443-2.553-0.178-3.006-1.39l-1.548-4.235c-0.443-1.214,0.178-2.553,1.39-3.006l7.993-2.916
	c1.214-0.443,2.553,0.178,3.006,1.391l1.548,4.235C214.056,534.831,213.427,536.181,212.213,536.624z M143.296,561.797l-7.993,2.916
	c-1.214,0.443-2.553-0.178-3.006-1.39l-1.548-4.235c-0.443-1.214,0.178-2.553,1.39-3.006l7.993-2.916
	c1.214-0.443,2.553,0.178,3.006,1.39l1.548,4.235c0.45,1.206-0.163,2.548-1.368,2.998
	C143.31,561.792,143.303,561.795,143.296,561.797z M247.548,523.047l-7.993,2.916c-1.214,0.443-2.553-0.178-3.006-1.39l-1.548-4.235
	c-0.443-1.214,0.178-2.553,1.39-3.006l7.993-2.916c1.214-0.443,2.553,0.178,3.006,1.39l1.548,4.235
	C249.391,521.254,248.762,522.604,247.548,523.047z M85.412,596.992l-16.271,5.941c-1.214,0.443-2.553-0.178-3.006-1.39
	l-1.548-4.235c-0.443-1.214,0.178-2.553,1.39-3.006l16.271-5.941c1.214-0.443,2.553,0.178,3.006,1.39l1.548,4.235
	c0.45,1.206-0.163,2.548-1.368,2.997C85.427,596.987,85.419,596.99,85.412,596.992z M99.153,591.934l-4.235,1.548
	c-1.214,0.443-2.553-0.178-3.006-1.39l-1.548-4.235c-0.443-1.214,0.178-2.553,1.39-3.006l4.235-1.548
	c1.214-0.443,2.553,0.178,3.006,1.39l1.548,4.235C100.988,590.153,100.367,591.491,99.153,591.934z M111.524,587.416l-4.235,1.548
	c-1.214,0.443-2.553-0.178-3.006-1.39l-1.548-4.235c-0.443-1.214,0.178-2.553,1.39-3.006l4.235-1.548
	c1.214-0.443,2.553,0.178,3.006,1.39l1.548,4.235C113.367,585.623,112.738,586.973,111.524,587.416z M124.707,582.602l-4.235,1.548
	c-1.214,0.443-2.553-0.178-3.006-1.39l-1.548-4.235c-0.443-1.214,0.178-2.553,1.39-3.006l4.235-1.548
	c1.214-0.443,2.553,0.178,3.006,1.39l1.548,4.235C126.55,580.808,125.921,582.159,124.707,582.602z M137.086,578.072l-4.235,1.548
	c-1.214,0.443-2.553-0.178-3.006-1.39l-1.548-4.235c-0.443-1.214,0.178-2.553,1.39-3.006l4.235-1.548
	c1.214-0.443,2.553,0.178,3.006,1.39l1.548,4.235C138.921,576.29,138.3,577.629,137.086,578.072L137.086,578.072z M152.021,572.817
	l-4.235,1.548c-1.214,0.443-2.553-0.178-3.006-1.39l-1.548-4.235c-0.443-1.214,0.178-2.553,1.39-3.006l4.235-1.548
	c1.214-0.443,2.553,0.178,3.006,1.39l1.548,4.235C153.864,571.024,153.235,572.374,152.021,572.817z M164.39,568.289l-4.235,1.548
	c-1.214,0.443-2.553-0.178-3.006-1.39l-1.548-4.235c-0.443-1.214,0.178-2.553,1.39-3.006l4.235-1.548
	c1.214-0.443,2.553,0.178,3.006,1.39l1.548,4.235c0.45,1.206-0.163,2.548-1.368,2.998
	C164.404,568.283,164.397,568.286,164.39,568.289z M177.583,563.473l-4.235,1.548c-1.214,0.443-2.553-0.178-3.006-1.391
	l-1.548-4.235c-0.443-1.214,0.178-2.553,1.39-3.006l4.235-1.548c1.214-0.443,2.553,0.178,3.006,1.391l1.548,4.235
	C179.418,561.691,178.797,563.03,177.583,563.473z M189.213,559.076l-4.235,1.548c-1.214,0.443-2.553-0.178-3.006-1.39l-1.548-4.235
	c-0.443-1.214,0.178-2.553,1.39-3.006l4.235-1.548c1.214-0.443,2.553,0.178,3.006,1.39l1.548,4.235
	C191.047,557.285,190.427,558.633,189.213,559.076z M202.645,554.17l-4.235,1.548c-1.214,0.443-2.553-0.178-3.006-1.39l-1.548-4.235
	c-0.443-1.214,0.178-2.553,1.39-3.006l4.235-1.548c1.214-0.443,2.553,0.178,3.006,1.39l1.548,4.235
	C204.478,552.379,203.859,553.727,202.645,554.17z M215.015,549.652l-4.235,1.548c-1.214,0.443-2.553-0.178-3.006-1.39l-1.548-4.235
	c-0.443-1.214,0.178-2.553,1.39-3.006l4.235-1.548c1.214-0.443,2.553,0.178,3.006,1.39l1.548,4.235
	C216.859,547.859,216.23,549.209,215.015,549.652z M228.197,544.828l-4.235,1.548c-1.214,0.443-2.553-0.178-3.006-1.39l-1.548-4.235
	c-0.443-1.214,0.178-2.553,1.39-3.006l4.235-1.548c1.214-0.443,2.553,0.178,3.006,1.39l1.548,4.235
	c0.45,1.206-0.163,2.548-1.368,2.998C228.212,544.823,228.204,544.825,228.197,544.828z M240.578,540.308l-4.235,1.548
	c-1.214,0.443-2.553-0.178-3.006-1.39l-1.548-4.235c-0.443-1.214,0.178-2.553,1.39-3.006l4.235-1.548
	c1.214-0.443,2.553,0.178,3.006,1.39l1.548,4.235C242.413,538.526,241.792,539.865,240.578,540.308z M252.015,536.278l-4.235,1.548
	c-1.214,0.443-2.553-0.178-3.006-1.391l-1.548-4.235c-0.443-1.214,0.178-2.553,1.39-3.006l4.235-1.548
	c1.214-0.443,2.553,0.178,3.006,1.39l1.548,4.235c0.45,1.206-0.163,2.548-1.368,2.998
	C252.03,536.272,252.022,536.275,252.015,536.278z M121.13,598.25l-4.235,1.548c-1.214,0.443-2.553-0.178-3.006-1.391l-1.548-4.235
	c-0.443-1.214,0.178-2.553,1.39-3.006l4.235-1.548c1.214-0.443,2.553,0.178,3.006,1.39l1.548,4.235
	C122.963,596.458,122.344,597.807,121.13,598.25z M135.012,593.371l-4.235,1.548c-1.214,0.443-2.553-0.178-3.006-1.39l-1.548-4.235
	c-0.443-1.214,0.178-2.553,1.39-3.006l4.235-1.548c1.214-0.443,2.553,0.178,3.006,1.39l1.548,4.235
	C136.846,591.58,136.226,592.928,135.012,593.371z M147.879,588.67l-4.235,1.548c-1.214,0.443-2.553-0.178-3.006-1.39l-1.548-4.235
	c-0.443-1.214,0.178-2.553,1.39-3.006l4.235-1.548c1.214-0.443,2.553,0.178,3.006,1.39l1.548,4.235
	C149.723,586.877,149.094,588.227,147.879,588.67z M160.757,583.845l-4.235,1.548c-1.214,0.443-2.553-0.178-3.006-1.39l-1.548-4.235
	c-0.443-1.214,0.178-2.553,1.39-3.006l4.235-1.548c1.214-0.443,2.553,0.178,3.006,1.39l1.548,4.235
	C162.592,582.063,161.971,583.402,160.757,583.845z M174.246,578.92l-4.235,1.548c-1.214,0.443-2.553-0.178-3.006-1.39l-1.548-4.235
	c-0.443-1.214,0.178-2.553,1.39-3.006l4.235-1.548c1.214-0.443,2.553,0.178,3.006,1.39l1.548,4.235
	C176.09,577.127,175.46,578.477,174.246,578.92z M187.43,574.105l-4.235,1.548c-1.214,0.443-2.553-0.178-3.006-1.39l-1.548-4.235
	c-0.443-1.214,0.178-2.553,1.39-3.006l4.235-1.548c1.214-0.443,2.553,0.178,3.006,1.391l1.548,4.235
	C189.273,572.312,188.644,573.662,187.43,574.105z M198.231,569.105l-4.235,1.548c-1.214,0.443-2.553-0.178-3.006-1.39l-1.548-4.235
	c-0.443-1.214,0.178-2.553,1.39-3.006l4.235-1.548c1.214-0.443,2.553,0.178,3.006,1.39l1.548,4.235
	c0.45,1.206-0.163,2.548-1.368,2.997C198.246,569.1,198.238,569.103,198.231,569.105z M211.663,564.199l-4.235,1.548
	c-1.214,0.443-2.553-0.178-3.006-1.39l-1.548-4.235c-0.443-1.214,0.178-2.553,1.39-3.006l4.235-1.548
	c1.214-0.443,2.553,0.178,3.006,1.39l1.548,4.235c0.45,1.206-0.163,2.548-1.368,2.998
	C211.678,564.194,211.67,564.197,211.663,564.199z M224.043,559.679l-4.235,1.548c-1.214,0.443-2.553-0.178-3.006-1.39l-1.548-4.235
	c-0.443-1.214,0.178-2.553,1.39-3.006l4.235-1.548c1.214-0.443,2.553,0.178,3.006,1.39l1.548,4.235
	C225.878,557.898,225.257,559.236,224.043,559.679z M237.227,554.865l-4.235,1.548c-1.214,0.443-2.553-0.178-3.006-1.39
	l-1.548-4.235c-0.443-1.214,0.178-2.553,1.39-3.006l4.235-1.548c1.214-0.443,2.553,0.178,3.006,1.39l1.548,4.235
	C239.06,553.074,238.441,554.422,237.227,554.865z M95.673,607.739l-21.854,7.984c-1.214,0.443-2.553-0.178-3.006-1.391
	l-1.548-4.235c-0.443-1.214,0.178-2.553,1.39-3.006l21.854-7.984c1.214-0.443,2.553,0.178,3.006,1.39l1.548,4.235
	C97.516,605.946,96.887,607.296,95.673,607.739z M119.575,613.991l-4.235,1.548c-1.214,0.443-2.553-0.178-3.006-1.391l-1.548-4.235
	c-0.443-1.214,0.178-2.553,1.39-3.006l4.235-1.548c1.214-0.443,2.553,0.178,3.006,1.39l1.548,4.235
	C121.408,612.2,120.789,613.548,119.575,613.991z M107.698,603.156l-4.235,1.548c-1.214,0.443-2.553-0.178-3.006-1.39l-1.548-4.235
	c-0.443-1.214,0.178-2.553,1.39-3.006l4.235-1.548c1.214-0.443,2.553,0.178,3.006,1.39l1.548,4.235
	C109.542,601.363,108.912,602.713,107.698,603.156z M254.973,548.834l-10.469,3.82c-1.214,0.443-2.553-0.178-3.006-1.39
	l-1.548-4.235c-0.443-1.214,0.178-2.553,1.39-3.006l10.469-3.82c1.214-0.443,2.553,0.178,3.006,1.39l1.548,4.235
	C256.808,547.052,256.187,548.391,254.973,548.834L254.973,548.834z M106.125,618.414l-27.637,10.101
	c-1.214,0.443-2.553-0.178-3.006-1.39l-1.548-4.235c-0.443-1.214,0.178-2.553,1.39-3.006l27.637-10.101
	c1.214-0.443,2.553,0.178,3.006,1.39l1.548,4.235C107.958,616.622,107.339,617.971,106.125,618.414z M132.72,608.697l-4.235,1.548
	c-1.214,0.443-2.553-0.178-3.006-1.39l-1.548-4.235c-0.443-1.214,0.178-2.553,1.39-3.006l4.235-1.548
	c1.214-0.443,2.553,0.178,3.006,1.39l1.548,4.235C134.563,606.904,133.934,608.254,132.72,608.697z M147.218,603.433l-4.235,1.548
	c-1.214,0.443-2.553-0.178-3.006-1.39l-1.548-4.235c-0.443-1.214,0.178-2.553,1.39-3.006l4.235-1.548
	c1.214-0.443,2.553,0.178,3.006,1.39l1.548,4.235c0.45,1.206-0.163,2.548-1.368,2.998
	C147.232,603.428,147.225,603.43,147.218,603.433z M160.085,598.732l-4.235,1.548c-1.214,0.443-2.553-0.178-3.006-1.39l-1.548-4.235
	c-0.443-1.214,0.178-2.553,1.39-3.006l4.235-1.548c1.214-0.443,2.553,0.178,3.006,1.39l1.548,4.235
	c0.45,1.206-0.163,2.548-1.368,2.998C160.1,598.726,160.092,598.729,160.085,598.732z M172.964,593.917l-4.235,1.548
	c-1.214,0.443-2.553-0.178-3.006-1.39l-1.548-4.235c-0.443-1.214,0.178-2.553,1.39-3.006l4.235-1.548
	c1.214-0.443,2.553,0.178,3.006,1.39l1.548,4.235C174.798,592.125,174.178,593.474,172.964,593.917z M186.453,588.991l-4.235,1.548
	c-1.214,0.443-2.553-0.178-3.006-1.39l-1.548-4.235c-0.443-1.214,0.178-2.553,1.39-3.006l4.235-1.548
	c1.214-0.443,2.553,0.178,3.006,1.39l1.548,4.235C188.297,587.198,187.666,588.538,186.453,588.991z M199.645,584.166l-4.235,1.548
	c-1.214,0.443-2.553-0.178-3.006-1.39l-1.548-4.235c-0.443-1.214,0.178-2.553,1.39-3.006l4.235-1.548
	c1.214-0.443,2.553,0.178,3.006,1.39l1.548,4.235C201.48,582.384,200.859,583.722,199.645,584.166z M210.438,579.177l-4.235,1.548
	c-1.214,0.443-2.553-0.178-3.006-1.39l-1.548-4.235c-0.443-1.214,0.178-2.553,1.39-3.006l4.235-1.548
	c1.214-0.443,2.553,0.178,3.006,1.39l1.548,4.235c0.45,1.206-0.163,2.548-1.368,2.998
	C210.453,579.172,210.446,579.174,210.438,579.177z M223.87,574.271l-4.235,1.548c-1.214,0.443-2.553-0.178-3.006-1.39l-1.548-4.235
	c-0.443-1.214,0.178-2.553,1.39-3.006l4.235-1.548c1.214-0.443,2.553,0.178,3.006,1.39l1.548,4.235
	C225.713,572.478,225.084,573.828,223.87,574.271z M236.25,569.751l-4.235,1.548c-1.214,0.443-2.553-0.178-3.006-1.39l-1.548-4.235
	c-0.443-1.214,0.178-2.553,1.39-3.006l4.235-1.548c1.214-0.443,2.553,0.178,3.006,1.39l1.548,4.235
	C238.084,567.96,237.465,569.308,236.25,569.751z M260.504,559.538l-16.347,5.973c-1.214,0.443-2.553-0.178-3.006-1.391
	l-1.548-4.235c-0.443-1.214,0.178-2.553,1.39-3.006l16.347-5.973c1.214-0.443,2.553,0.178,3.006,1.39l1.548,4.235
	C262.339,557.756,261.718,559.095,260.504,559.538z M85.847,639.303l-4.235,1.548c-1.214,0.443-2.553-0.178-3.006-1.39l-1.548-4.235
	c-0.443-1.214,0.178-2.553,1.39-3.006l4.235-1.548c1.214-0.443,2.553,0.178,3.006,1.39l1.548,4.235
	C87.692,637.52,87.071,638.858,85.847,639.303z M98.227,634.783l-4.235,1.548c-1.214,0.443-2.553-0.178-3.006-1.39l-1.548-4.235
	c-0.443-1.214,0.178-2.553,1.39-3.006l4.235-1.548c1.214-0.443,2.553,0.178,3.006,1.39l1.548,4.235
	C100.063,633.001,99.442,634.34,98.227,634.783z M111.411,629.969l-4.235,1.548c-1.214,0.443-2.553-0.178-3.006-1.39l-1.548-4.235
	c-0.443-1.214,0.178-2.553,1.39-3.006l4.235-1.548c1.214-0.443,2.553,0.178,3.006,1.39l1.548,4.235
	C113.254,628.176,112.625,629.526,111.411,629.969z M123.791,625.449l-4.235,1.548c-1.214,0.443-2.553-0.178-3.006-1.39
	l-1.548-4.235c-0.443-1.214,0.178-2.553,1.39-3.006l4.235-1.548c1.214-0.443,2.553,0.178,3.006,1.39l1.548,4.235
	C125.625,623.657,125.005,625.006,123.791,625.449z M138.725,620.184l-4.235,1.548c-1.214,0.443-2.553-0.178-3.006-1.39
	l-1.548-4.235c-0.443-1.214,0.178-2.553,1.39-3.006l4.235-1.548c1.214-0.443,2.553,0.178,3.006,1.39l1.548,4.235
	C140.558,618.393,139.939,619.741,138.725,620.184z M189.339,601.539l-42.187,15.414c-1.214,0.443-2.553-0.178-3.006-1.39
	l-1.548-4.235c-0.443-1.214,0.178-2.553,1.39-3.006l42.187-15.414c1.214-0.443,2.553,0.178,3.006,1.39l1.548,4.235
	c0.45,1.206-0.163,2.548-1.368,2.997C189.354,601.534,189.346,601.537,189.339,601.539z M201.719,597.019l-4.235,1.548
	c-1.214,0.443-2.553-0.178-3.006-1.39l-1.548-4.235c-0.443-1.214,0.178-2.553,1.39-3.006l4.235-1.548
	c1.214-0.443,2.553,0.178,3.006,1.39l1.548,4.235C203.553,595.228,202.934,596.576,201.719,597.019z M214.903,592.205l-4.235,1.548
	c-1.214,0.443-2.553-0.178-3.006-1.39l-1.548-4.235c-0.443-1.214,0.178-2.553,1.39-3.006l4.235-1.548
	c1.214-0.443,2.553,0.178,3.006,1.39l1.548,4.235C216.746,590.412,216.117,591.762,214.903,592.205z M227.283,587.685l-4.235,1.548
	c-1.214,0.443-2.553-0.178-3.006-1.39l-1.548-4.235c-0.443-1.214,0.178-2.553,1.39-3.006l4.235-1.548
	c1.214-0.443,2.553,0.178,3.006,1.39l1.548,4.235C229.117,585.894,228.496,587.232,227.283,587.685z M238.72,583.655l-4.235,1.548
	c-1.214,0.443-2.553-0.178-3.006-1.39l-1.548-4.235c-0.443-1.214,0.178-2.553,1.39-3.006l4.235-1.548
	c1.214-0.443,2.553,0.178,3.006,1.39l1.548,4.235C240.564,581.862,239.935,583.212,238.72,583.655z M251.945,578.165l-4.235,1.548
	c-1.214,0.443-2.553-0.178-3.006-1.39l-1.548-4.235c-0.443-1.214,0.178-2.553,1.39-3.006l4.235-1.548
	c1.214-0.443,2.553,0.178,3.006,1.39l1.548,4.235c0.45,1.206-0.163,2.548-1.368,2.998
	C251.959,578.159,251.952,578.162,251.945,578.165z M265.138,573.349l-4.235,1.548c-1.214,0.443-2.553-0.178-3.006-1.391
	l-1.548-4.235c-0.443-1.214,0.178-2.553,1.39-3.006l4.235-1.548c1.214-0.443,2.553,0.178,3.006,1.391l1.548,4.235
	C266.973,571.567,266.352,572.906,265.138,573.349z M273.104,528.389l-4.235,1.548c-1.214,0.443-2.553-0.178-3.006-1.39
	l-1.548-4.235c-0.443-1.214,0.178-2.553,1.39-3.006l4.235-1.548c1.214-0.443,2.553,0.178,3.006,1.39l1.548,4.235
	C274.947,526.596,274.316,527.936,273.104,528.389z M298.465,519.118l-4.235,1.548c-1.214,0.443-2.553-0.178-3.006-1.39
	l-1.548-4.235c-0.443-1.214,0.178-2.553,1.39-3.006l4.235-1.548c1.214-0.443,2.553,0.178,3.006,1.39l1.548,4.235
	C300.309,517.325,299.679,518.675,298.465,519.118z M285.57,523.835l-4.235,1.548c-1.214,0.443-2.553-0.178-3.006-1.39l-1.548-4.235
	c-0.443-1.214,0.178-2.553,1.39-3.006l4.235-1.548c1.214-0.443,2.553,0.178,3.006,1.39l1.548,4.235
	C287.403,522.043,286.784,523.392,285.57,523.835z M277.564,540.587l-4.235,1.548c-1.214,0.443-2.553-0.178-3.006-1.39l-1.548-4.235
	c-0.443-1.214,0.178-2.553,1.39-3.006l4.235-1.548c1.214-0.443,2.553,0.178,3.006,1.39l1.548,4.235
	C279.397,538.795,278.778,540.144,277.564,540.587z M289.882,535.631l-4.235,1.548c-1.214,0.443-2.553-0.178-3.006-1.39
	l-1.548-4.235c-0.443-1.214,0.178-2.553,1.39-3.006l4.235-1.548c1.214-0.443,2.553,0.178,3.006,1.39l1.548,4.235
	C291.716,533.84,291.097,535.188,289.882,535.631z M302.778,530.915l-4.235,1.548c-1.214,0.443-2.553-0.178-3.006-1.39l-1.548-4.235
	c-0.443-1.214,0.178-2.553,1.39-3.006l4.235-1.548c1.214-0.443,2.553,0.178,3.006,1.39l1.548,4.235
	c0.45,1.206-0.163,2.548-1.368,2.997C302.792,530.909,302.785,530.912,302.778,530.915z M282.037,552.62l-4.235,1.548
	c-1.214,0.443-2.553-0.178-3.006-1.39l-1.548-4.235c-0.443-1.214,0.178-2.553,1.39-3.006l4.235-1.548
	c1.214-0.443,2.553,0.178,3.006,1.39l1.548,4.235C283.872,550.839,283.251,552.177,282.037,552.62z M294.017,546.96l-4.235,1.548
	c-1.214,0.443-2.553-0.178-3.006-1.39l-1.548-4.235c-0.443-1.214,0.178-2.553,1.39-3.006l4.235-1.548
	c1.214-0.443,2.553,0.178,3.006,1.39l1.548,4.235c0.45,1.206-0.163,2.548-1.368,2.998
	C294.031,546.955,294.024,546.957,294.017,546.96z M307.462,542.386l-4.235,1.548c-1.214,0.443-2.553-0.178-3.006-1.39l-1.548-4.235
	c-0.443-1.214,0.178-2.553,1.39-3.006l4.235-1.548c1.214-0.443,2.553,0.178,3.006,1.39l1.548,4.235
	C309.306,540.593,308.677,541.943,307.462,542.386z M301.21,558.526l-19.254,7.029c-1.214,0.443-2.553-0.178-3.006-1.39
	l-1.548-4.235c-0.443-1.214,0.178-2.553,1.39-3.006l19.254-7.029c1.214-0.443,2.553,0.178,3.006,1.39l1.548,4.235
	c0.45,1.206-0.163,2.548-1.368,2.998C301.224,558.52,301.217,558.523,301.21,558.526L301.21,558.526z M311.87,554.451l-4.235,1.548
	c-1.214,0.443-2.553-0.178-3.006-1.391l-1.548-4.235c-0.443-1.214,0.178-2.553,1.39-3.006l4.235-1.548
	c1.214-0.443,2.553,0.178,3.006,1.391l1.548,4.235C313.713,552.658,313.084,554.008,311.87,554.451z"/>
<path style="opacity:0.43;fill:#5B5742;enable-background:new    ;" d="M77.406,544.951c-0.568,2.769,5.219,6.833,13.33,12.522
	c1.088,0.763,4.779,3.298,10.01,5.893c2.858,1.415,5.169,2.342,6.189,2.752c2.761,1.076,7.855,3.146,14.303,4.021
	c6.581,0.883,11.339,1.529,17.033-0.391c2.228-0.752,9.497-3.194,10.499-8.376c0.582-2.994-1.193-5.651-1.841-6.629
	c-8.993-13.509-67.831-18.118-69.531-9.781L77.406,544.951L77.406,544.951z"/>
<path style="fill:#EBE2B3;stroke:#000000;stroke-width:6;stroke-miterlimit:10;" d="M59.62,479.544
	c1.816-4.726,3.269-5.571,4.211-5.567c2.23,0.01,3.014,4.826,8.172,11.74c1.752,2.349,3.233,3.965,4.485,5.333
	c8.268,7.98,21.737,19.852,31.149,28.465c16.094,12.881,20.495,17.306,33.106,28.189c0.904,0.62,3.619,2.464,5.115,5.887
	c7.899,21.426-42.389,4.125-47.485,1.814c-10.173-4.295-10.359-6.16-27.276-15.913c-17.097-9.855-19.289-9.322-21.375-13.56
	c-0.28-6.662,0.142-13.336,1.259-19.91C52.55,496.822,55.461,487.9,59.62,479.544L59.62,479.544z"/>
<path style="opacity:0.43;fill:#5B5742;enable-background:new    ;" d="M226.751,544.6c2.777,3.262,14.013-0.512,18.727-2.717
	c3.869-1.802,7.605-4.535,9.036-5.632c0.947-0.713,2.921-2.264,5.212-4.476c3.804-3.676,5.357-6.06,9.259-11.354
	c5.244-7.116,9.098-11.165,12.228-18.44c0.676-1.56,1.595-3.921,0.549-5.715c-1.338-2.283-5.106-2.332-6.453-2.384
	C262.137,493.395,220.26,536.993,226.751,544.6L226.751,544.6z"/>
<path style="fill:#EBE2B3;stroke:#000000;stroke-width:6;stroke-miterlimit:10;" d="M268.121,446.454
	c-0.774-1.172-3.663-5.359-6.13-4.783c-1.734,0.405-1.88,3.151-3.472,6.461c-2.658,5.525-3.684,9.21-5.608,14.635
	c-0.728,2.045-2.644,6.658-6.459,15.808c-4.431,10.641-6.637,15.959-9.108,21.697c-11.74,27.319-16.403,34.643-13.467,37.646
	c1.158,1.188,3.785,2.002,10.524-0.465c6.914-2.881,16.295-7.769,25.638-16.025c15.182-13.423,22.285-28.709,25.473-37.169
	c-0.473-3.185-1.225-5.23-4.276-10.404c-3.719-6.307-2.324-9.159-7.185-18.479c-1.389-2.663-2.719-4.688-3.514-5.842
	C269.733,448.507,268.927,447.481,268.121,446.454z"/>
<g>
	
		<rect x="122.243" y="443.213" transform="matrix(0.4339 -0.901 0.901 0.4339 -346.0755 374.3814)" style="fill:#231815;stroke:#000000;stroke-width:6.0005;stroke-miterlimit:10.0008;" width="5.264" height="38.732"/>
	
		<rect x="104.685" y="460.246" transform="matrix(0.4787 -0.878 0.878 0.4787 -341.7316 350.2159)" style="fill:#231815;stroke:#000000;stroke-width:5.9999;stroke-miterlimit:9.9999;" width="38.729" height="5.264"/>
</g>
<path style="fill:#F0C785;stroke:#000000;stroke-miterlimit:10;" d="M159.216,524.793l-50.68-11.829
	c-2.961-0.691-4.801-3.651-4.11-6.612l1.212-5.191c0.691-2.961,3.651-4.801,6.612-4.11l50.68,11.829
	c2.961,0.691,4.801,3.651,4.11,6.612l-1.212,5.191C165.137,523.644,162.177,525.484,159.216,524.793z"/>
<path style="fill:#EBAA7A;stroke:#000000;stroke-width:0.5;stroke-miterlimit:10;" d="M139.223,518.451l-13.962-2.988
	c-1.471-0.315-2.409-1.763-2.094-3.234l1.605-7.498c0.315-1.471,1.763-2.409,3.234-2.094l13.962,2.988
	c1.471,0.315,2.409,1.763,2.094,3.234l-1.605,7.498C142.143,517.829,140.695,518.766,139.223,518.451z"/>
<circle style="opacity:0.53;fill:#8B1C67;" cx="205.971" cy="443.122" r="19.881"/>
<circle style="fill:#231815;stroke:#000000;stroke-width:6;stroke-miterlimit:10;" cx="206.375" cy="443.122" r="12.13"/>
<ellipse transform="matrix(0.9867 -0.1624 0.1624 0.9867 -69.8455 39.5557)" style="fill:#FFFFFF;" cx="207.024" cy="446.996" rx="5.83" ry="5.83"/>
<ellipse transform="matrix(0.9867 -0.1624 0.1624 0.9867 -71.2462 41.9425)" style="opacity:0.79;fill:#89D1F0;enable-background:new    ;" cx="220.923" cy="456.757" rx="13.049" ry="3.719"/>
</svg>
