<?xml version="1.0" encoding="iso-8859-1"?>
<!-- Generator: Adobe Illustrator 27.0.0, SVG Export Plug-In . SVG Version: 6.00 Build 0)  -->
<svg version="1.1" id="&#x5716;&#x5C64;_1" xmlns="http://www.w3.org/2000/svg" xmlns:xlink="http://www.w3.org/1999/xlink" x="0px"
	 y="0px" viewBox="0 0 595.2 841.92" style="enable-background:new 0 0 595.2 841.92;" xml:space="preserve">
<path style="fill:#EBE2B3;stroke:#000000;stroke-width:6;stroke-miterlimit:10;" d="M119.872,668.613
	c-1.968,3.445-1.879,5.971-1.787,6.894c0.17,1.715,0.993,4.443,1.268,5.212c0.02,0.056,0.156,0.438,0.337,0.961
	c0.84,2.43,0.87,2.9,2.55,8.68c2.7,9.28,2.92,9.08,3.57,12.26c0.9,4.37,0.44,4.48,1.53,10.72c1.01,5.77,1.55,8.69,3.06,10.72
	c0.39,0.52,4.25,5.55,9.7,5.11c3.58-0.29,5.96-2.8,7.66-4.6c1.03-1.08,1.83-2.19,5.62-10.21c2.19-4.63,3.3-7,4.09-9.19
	c0.42-1.16,0.7-2.09,0.91-2.9c0.86-3.27,1.41-5.38,1.64-6.29c0.53-2.1,1.8-5.08,5.11-8.68c-6.984-1.401-15.492-3.717-24.765-7.66
	C132.158,676.151,125.322,672.224,119.872,668.613z M219.39,684.55c2.21,5.04,4.42,10.77,6.43,17.15c1.98,6.3,3.44,12.2,4.52,17.57
	c5.54,13.65,20.13,10.29,21.88-4.08c2.03-6.32,3.99-13.06,5.8-20.2c1.63-6.43,3.01-12.63,4.17-18.55
	c0.18-1.334,0.279-2.828,0.22-4.454c-0.2-5.539-2.128-9.888-3.644-12.564C245.641,667.798,232.515,676.174,219.39,684.55z"/>
<path style="fill:#EBE2B3;stroke:#000000;stroke-width:6;stroke-miterlimit:10;" d="M55.8,553.89c-0.7-2.81-1.51-7.06-1.53-12.26
	c-0.02-5.53,0.88-7.05,1.02-11.74c0.28-9.29-3.05-9.82-3.06-17.87c0-9.56,4.66-17.06,6.13-19.4c3.34-5.35,4.67-4.59,8.68-10.72
	c3.73-5.7,5.45-10.74,7.15-15.83c2.95-8.83,2.25-10.6,4.6-18.89c1.66-5.86,3.77-13.33,8.68-20.94c3.2-4.96,8.6-9.77,19.4-19.4
	c6.94-6.19,11.94-10.18,15.83-13.28c11.86-9.44,15.76-11.46,17.36-12.26c5.61-2.78,10.66-5.29,17.36-5.11
	c3.37,0.09,8.68,0.42,14.39,0.37c0.81-0.01,2.64,0,5.02-0.15c1.02-0.07,2.73-0.2,4.79-0.48c3.5-0.47,6.13-1.09,6.94-1.28
	c11.68-2.7,17.58-4.33,22.98-3.06c6.49,1.52,10.85,5.28,14.81,8.68c2.51,2.16,5.96,6.58,12.77,15.32
	c7.57,9.73,9.32,12.34,13.79,15.83s5.03,2.67,8.17,5.62c4.18,3.92,5.75,7.77,9.7,16.85c7.55,17.36,6.93,15.09,7.66,17.36
	c0.74,2.33,1.16,4.62,2.11,9.18c1.2,5.77,1.55,8.55,3,16.87c1.13,6.46,1.66,9.7,2.04,11.23c2.56,10.37,6.41,17.41,7.66,19.91
	c5.85,11.68,5.26,25.49,4.09,53.11c-0.71,16.75-1.1,25.85-5.11,37.79c-2.07,6.16-3.02,6.87-8.17,20.94
	c-4.36,11.9-5.08,15.22-8.68,23.49c-4,9.2-6,13.8-10.21,18.89c-1.78,2.16-5.93,6.8-16.85,13.28
	c-8.193,4.862-18.829,11.225-34.21,14.3c0,0-13.775,2.754-44.365-0.605c-4.382-0.481-8.17-1.277-8.17-1.277
	c-3.351-0.704-5.258-1.33-7.915-2.043c-6.585-1.765-7.287-1.243-12.511-2.553c-7.369-1.847-12.886-4.619-16.851-6.638
	c-0.996-0.507-1.791-0.93-2.491-1.33c-2.765-1.578-4.644-3.003-4.998-3.266c-3.954-2.933-16.638-8.438-19.638-9.868
	c-11.398-5.435-17.574-16.172-21.96-24c-2-3.57-4.74-11.74-10.21-28.09c-3.61-10.79-5.44-16.26-6.13-19.91
	c-1.316-6.963-1.728-13.662-2.55-27.06C56.068,559.495,55.902,556.119,55.8,553.89z"/>
<path style="fill:#595850;stroke:#000000;stroke-width:3.0001;stroke-miterlimit:10.0002;" d="M127.094,416.405l3.824-7.22
	l34.296,18.167l-3.824,7.22L127.094,416.405z"/>
<path style="fill:#595850;stroke:#000000;stroke-width:3.0001;stroke-miterlimit:10.0004;" d="M200.95,426.771l34.971-16.832
	l3.543,7.362l-34.971,16.832L200.95,426.771z"/>
<ellipse style="opacity:0.47;fill:#5B5742;enable-background:new    ;" cx="191.57" cy="731.87" rx="68.04" ry="2.68"/>
<path style="fill:#A6A897;stroke:#000000;stroke-width:6;stroke-miterlimit:10;" d="M326.42,594.43l-260.9,49.41
	c-5.13,0.97-10.07-2.4-11.04-7.52l-13.46-71.04c-0.97-5.13,2.4-10.07,7.52-11.04l260.89-49.41c5.13-0.97,10.07,2.4,11.04,7.52
	l13.46,71.04C334.91,588.51,331.54,593.46,326.42,594.43L326.42,594.43z"/>
<circle style="fill:#231815;stroke:#000000;stroke-width:6;stroke-miterlimit:10;" cx="143.78" cy="452.16" r="12.13"/>
<circle style="fill:#231815;stroke:#000000;stroke-width:6;stroke-miterlimit:10;" cx="223.53" cy="452.16" r="12.13"/>
<circle style="fill:#FFFFFF;" cx="145.11" cy="456.12" r="5.83"/>
<circle style="fill:#FFFFFF;" cx="223.53" cy="456.12" r="5.83"/>
<ellipse style="fill:#E73A8F;stroke:#000000;stroke-width:3;stroke-miterlimit:10;" cx="185.474" cy="490.859" rx="13.423" ry="19.131"/>
<path style="fill:#D6DBD9;stroke:#000000;stroke-miterlimit:10;" d="M122.17,562.78l-8.36,1.58c-1.27,0.24-2.49-0.59-2.74-1.86
	l-0.84-4.43c-0.24-1.27,0.59-2.49,1.86-2.74l8.36-1.58c1.27-0.24,2.49,0.59,2.74,1.86l0.84,4.43
	C124.27,561.32,123.44,562.54,122.17,562.78z M161.88,555.26l-8.36,1.58c-1.27,0.24-2.49-0.59-2.74-1.86l-0.84-4.43
	c-0.24-1.27,0.59-2.49,1.86-2.74l8.36-1.58c1.27-0.24,2.49,0.59,2.74,1.86l0.84,4.43C163.98,553.79,163.15,555.02,161.88,555.26z
	 M68.5,572.95l-8.36,1.58c-1.27,0.24-2.49-0.59-2.74-1.86l-0.84-4.43c-0.24-1.27,0.59-2.49,1.86-2.74l8.36-1.58
	c1.27-0.24,2.49,0.59,2.74,1.86l0.84,4.43C70.61,571.48,69.77,572.71,68.5,572.95z M86.2,569.59l-8.36,1.58
	c-1.27,0.24-2.49-0.59-2.74-1.86l-0.84-4.43c-0.24-1.27,0.59-2.49,1.86-2.74l8.36-1.58c1.27-0.24,2.49,0.59,2.74,1.86l0.84,4.43
	c0.248,1.263-0.574,2.487-1.837,2.736C86.215,569.587,86.208,569.589,86.2,569.59z M231.38,542.1l-8.36,1.58
	c-1.27,0.24-2.49-0.59-2.74-1.86l-0.84-4.43c-0.24-1.27,0.59-2.49,1.86-2.74l8.36-1.58c1.27-0.24,2.49,0.59,2.74,1.86l0.84,4.43
	C233.49,540.63,232.65,541.85,231.38,542.1z M104.4,566.15l-8.36,1.58c-1.27,0.24-2.49-0.59-2.74-1.86l-0.84-4.43
	c-0.24-1.27,0.59-2.49,1.86-2.74l8.36-1.58c1.27-0.24,2.49,0.59,2.74,1.86l0.84,4.43C106.51,564.68,105.67,565.91,104.4,566.15z
	 M179.73,551.88l-8.36,1.58c-1.27,0.24-2.49-0.59-2.74-1.86l-0.84-4.43c-0.24-1.27,0.59-2.49,1.86-2.74l8.36-1.58
	c1.27-0.24,2.49,0.59,2.74,1.86l0.84,4.43C181.83,550.41,181,551.64,179.73,551.88z M196.82,548.64l-8.36,1.58
	c-1.27,0.24-2.49-0.59-2.74-1.86l-0.84-4.43c-0.24-1.27,0.59-2.49,1.86-2.74l8.36-1.58c1.27-0.24,2.49,0.59,2.74,1.86l0.84,4.43
	C198.92,547.18,198.09,548.4,196.82,548.64z M214.11,545.37l-8.36,1.58c-1.27,0.24-2.49-0.59-2.74-1.86l-0.84-4.43
	c-0.24-1.27,0.59-2.49,1.86-2.74l8.36-1.58c1.27-0.24,2.49,0.59,2.74,1.86l0.84,4.43C216.22,543.9,215.38,545.13,214.11,545.37z
	 M142.02,559.02l-8.36,1.58c-1.27,0.24-2.49-0.59-2.74-1.86l-0.84-4.43c-0.24-1.27,0.59-2.49,1.86-2.74l8.36-1.58
	c1.27-0.24,2.49,0.59,2.74,1.86l0.84,4.43c0.248,1.263-0.574,2.487-1.837,2.736C142.035,559.017,142.028,559.019,142.02,559.02z
	 M251.18,537.71l-8.36,1.58c-1.27,0.24-2.49-0.59-2.74-1.86l-0.84-4.43c-0.24-1.27,0.59-2.49,1.86-2.74l8.36-1.58
	c1.27-0.24,2.49,0.59,2.74,1.86l0.84,4.43C253.29,536.24,252.45,537.47,251.18,537.71z M79.19,584.35l-17.02,3.22
	c-1.27,0.24-2.49-0.59-2.74-1.86l-0.84-4.43c-0.24-1.27,0.59-2.49,1.86-2.74l17.02-3.22c1.27-0.24,2.49,0.59,2.74,1.86l0.84,4.43
	c0.248,1.263-0.574,2.487-1.837,2.736C79.205,584.347,79.198,584.349,79.19,584.35z M93.57,581.59l-4.43,0.84
	c-1.27,0.24-2.49-0.59-2.74-1.86l-0.84-4.43c-0.24-1.27,0.59-2.49,1.86-2.74l4.43-0.84c1.27-0.24,2.49,0.59,2.74,1.86l0.84,4.43
	C95.67,580.13,94.84,581.35,93.57,581.59z M106.51,579.14l-4.43,0.84c-1.27,0.24-2.49-0.59-2.74-1.86l-0.84-4.43
	c-0.24-1.27,0.59-2.49,1.86-2.74l4.43-0.84c1.27-0.24,2.49,0.59,2.74,1.86l0.84,4.43C108.62,577.67,107.78,578.9,106.51,579.14z
	 M120.3,576.53l-4.43,0.84c-1.27,0.24-2.49-0.59-2.74-1.86l-0.84-4.43c-0.24-1.27,0.59-2.49,1.86-2.74l4.43-0.84
	c1.27-0.24,2.49,0.59,2.74,1.86l0.84,4.43C122.41,575.06,121.57,576.29,120.3,576.53z M133.25,574.07l-4.43,0.84
	c-1.27,0.24-2.49-0.59-2.74-1.86l-0.84-4.43c-0.24-1.27,0.59-2.49,1.86-2.74l4.43-0.84c1.27-0.24,2.49,0.59,2.74,1.86l0.84,4.43
	C135.35,572.61,134.52,573.83,133.25,574.07L133.25,574.07z M148.84,571.31l-4.43,0.84c-1.27,0.24-2.49-0.59-2.74-1.86l-0.84-4.43
	c-0.24-1.27,0.59-2.49,1.86-2.74l4.43-0.84c1.27-0.24,2.49,0.59,2.74,1.86l0.84,4.43C150.95,569.84,150.11,571.07,148.84,571.31z
	 M161.78,568.85l-4.43,0.84c-1.27,0.24-2.49-0.59-2.74-1.86l-0.84-4.43c-0.24-1.27,0.59-2.49,1.86-2.74l4.43-0.84
	c1.27-0.24,2.49,0.59,2.74,1.86l0.84,4.43c0.248,1.263-0.574,2.487-1.837,2.736C161.795,568.847,161.788,568.849,161.78,568.85z
	 M175.58,566.24l-4.43,0.84c-1.27,0.24-2.49-0.59-2.74-1.86l-0.84-4.43c-0.24-1.27,0.59-2.49,1.86-2.74l4.43-0.84
	c1.27-0.24,2.49,0.59,2.74,1.86l0.84,4.43C177.68,564.78,176.85,566,175.58,566.24z M187.77,563.79l-4.43,0.84
	c-1.27,0.24-2.49-0.59-2.74-1.86l-0.84-4.43c-0.24-1.27,0.59-2.49,1.86-2.74l4.43-0.84c1.27-0.24,2.49,0.59,2.74,1.86l0.84,4.43
	C189.87,562.32,189.04,563.55,187.77,563.79z M201.82,561.13l-4.43,0.84c-1.27,0.24-2.49-0.59-2.74-1.86l-0.84-4.43
	c-0.24-1.27,0.59-2.49,1.86-2.74l4.43-0.84c1.27-0.24,2.49,0.59,2.74,1.86l0.84,4.43C203.92,559.66,203.09,560.89,201.82,561.13z
	 M214.76,558.68l-4.43,0.84c-1.27,0.24-2.49-0.59-2.74-1.86l-0.84-4.43c-0.24-1.27,0.59-2.49,1.86-2.74l4.43-0.84
	c1.27-0.24,2.49,0.59,2.74,1.86l0.84,4.43C216.87,557.21,216.03,558.44,214.76,558.68z M228.55,556.06l-4.43,0.84
	c-1.27,0.24-2.49-0.59-2.74-1.86l-0.84-4.43c-0.24-1.27,0.59-2.49,1.86-2.74l4.43-0.84c1.27-0.24,2.49,0.59,2.74,1.86l0.84,4.43
	c0.248,1.263-0.574,2.487-1.837,2.736C228.565,556.057,228.558,556.059,228.55,556.06z M241.5,553.61l-4.43,0.84
	c-1.27,0.24-2.49-0.59-2.74-1.86l-0.84-4.43c-0.24-1.27,0.59-2.49,1.86-2.74l4.43-0.84c1.27-0.24,2.49,0.59,2.74,1.86l0.84,4.43
	C243.6,552.15,242.77,553.37,241.5,553.61z M253.44,551.49l-4.43,0.84c-1.27,0.24-2.49-0.59-2.74-1.86l-0.84-4.43
	c-0.24-1.27,0.59-2.49,1.86-2.74l4.43-0.84c1.27-0.24,2.49,0.59,2.74,1.86l0.84,4.43c0.248,1.263-0.574,2.487-1.837,2.736
	C253.455,551.487,253.448,551.489,253.44,551.49z M114.23,591.39l-4.43,0.84c-1.27,0.24-2.49-0.59-2.74-1.86l-0.84-4.43
	c-0.24-1.27,0.59-2.49,1.86-2.74l4.43-0.84c1.27-0.24,2.49,0.59,2.74,1.86l0.84,4.43C116.33,589.92,115.5,591.15,114.23,591.39z
	 M128.72,588.83l-4.43,0.84c-1.27,0.24-2.49-0.59-2.74-1.86l-0.84-4.43c-0.24-1.27,0.59-2.49,1.86-2.74l4.43-0.84
	c1.27-0.24,2.49,0.59,2.74,1.86l0.84,4.43C130.82,587.36,129.99,588.59,128.72,588.83z M142.18,586.28l-4.43,0.84
	c-1.27,0.24-2.49-0.59-2.74-1.86l-0.84-4.43c-0.24-1.27,0.59-2.49,1.86-2.74l4.43-0.84c1.27-0.24,2.49,0.59,2.74,1.86l0.84,4.43
	C144.29,584.81,143.45,586.04,142.18,586.28z M155.67,583.61l-4.43,0.84c-1.27,0.24-2.49-0.59-2.74-1.86l-0.84-4.43
	c-0.24-1.27,0.59-2.49,1.86-2.74l4.43-0.84c1.27-0.24,2.49,0.59,2.74,1.86l0.84,4.43C157.77,582.15,156.94,583.37,155.67,583.61z
	 M169.78,580.94l-4.43,0.84c-1.27,0.24-2.49-0.59-2.74-1.86l-0.84-4.43c-0.24-1.27,0.59-2.49,1.86-2.74l4.43-0.84
	c1.27-0.24,2.49,0.59,2.74,1.86l0.84,4.43C171.89,579.47,171.05,580.7,169.78,580.94z M183.57,578.33l-4.43,0.84
	c-1.27,0.24-2.49-0.59-2.74-1.86l-0.84-4.43c-0.24-1.27,0.59-2.49,1.86-2.74l4.43-0.84c1.27-0.24,2.49,0.59,2.74,1.86l0.84,4.43
	C185.68,576.86,184.84,578.09,183.57,578.33z M195.04,575.15l-4.43,0.84c-1.27,0.24-2.49-0.59-2.74-1.86l-0.84-4.43
	c-0.24-1.27,0.59-2.49,1.86-2.74l4.43-0.84c1.27-0.24,2.49,0.59,2.74,1.86l0.84,4.43c0.248,1.263-0.574,2.487-1.837,2.736
	C195.055,575.147,195.048,575.149,195.04,575.15z M209.09,572.49l-4.43,0.84c-1.27,0.24-2.49-0.59-2.74-1.86l-0.84-4.43
	c-0.24-1.27,0.59-2.49,1.86-2.74l4.43-0.84c1.27-0.24,2.49,0.59,2.74,1.86l0.84,4.43c0.248,1.263-0.574,2.487-1.837,2.736
	C209.105,572.487,209.098,572.489,209.09,572.49z M222.04,570.04l-4.43,0.84c-1.27,0.24-2.49-0.59-2.74-1.86l-0.84-4.43
	c-0.24-1.27,0.59-2.49,1.86-2.74l4.43-0.84c1.27-0.24,2.49,0.59,2.74,1.86l0.84,4.43C224.14,568.58,223.31,569.8,222.04,570.04z
	 M235.83,567.43l-4.43,0.84c-1.27,0.24-2.49-0.59-2.74-1.86l-0.84-4.43c-0.24-1.27,0.59-2.49,1.86-2.74l4.43-0.84
	c1.27-0.24,2.49,0.59,2.74,1.86l0.84,4.43C237.93,565.96,237.1,567.19,235.83,567.43z M87.57,596.62l-22.86,4.33
	c-1.27,0.24-2.49-0.59-2.74-1.86l-0.84-4.43c-0.24-1.27,0.59-2.49,1.86-2.74l22.86-4.33c1.27-0.24,2.49,0.59,2.74,1.86l0.84,4.43
	C89.68,595.15,88.84,596.38,87.57,596.62z M110.14,606.67l-4.43,0.84c-1.27,0.24-2.49-0.59-2.74-1.86l-0.84-4.43
	c-0.24-1.27,0.59-2.49,1.86-2.74l4.43-0.84c1.27-0.24,2.49,0.59,2.74,1.86l0.84,4.43C112.24,605.2,111.41,606.43,110.14,606.67z
	 M100.18,594.05l-4.43,0.84c-1.27,0.24-2.49-0.59-2.74-1.86l-0.84-4.43c-0.24-1.27,0.59-2.49,1.86-2.74l4.43-0.84
	c1.27-0.24,2.49,0.59,2.74,1.86l0.84,4.43C102.29,592.58,101.45,593.81,100.18,594.05z M254.32,564.36l-10.95,2.07
	c-1.27,0.24-2.49-0.59-2.74-1.86l-0.84-4.43c-0.24-1.27,0.59-2.49,1.86-2.74l10.95-2.07c1.27-0.24,2.49,0.59,2.74,1.86l0.84,4.43
	C256.42,562.9,255.59,564.12,254.32,564.36L254.32,564.36z M96.15,608.85l-28.91,5.48c-1.27,0.24-2.49-0.59-2.74-1.86l-0.84-4.43
	c-0.24-1.27,0.59-2.49,1.86-2.74l28.91-5.48c1.27-0.24,2.49,0.59,2.74,1.86l0.84,4.43C98.25,607.38,97.42,608.61,96.15,608.85z
	 M123.97,603.58l-4.43,0.84c-1.27,0.24-2.49-0.59-2.74-1.86l-0.84-4.43c-0.24-1.27,0.59-2.49,1.86-2.74l4.43-0.84
	c1.27-0.24,2.49,0.59,2.74,1.86l0.84,4.43C126.08,602.11,125.24,603.34,123.97,603.58z M139.13,600.74l-4.43,0.84
	c-1.27,0.24-2.49-0.59-2.74-1.86l-0.84-4.43c-0.24-1.27,0.59-2.49,1.86-2.74l4.43-0.84c1.27-0.24,2.49,0.59,2.74,1.86l0.84,4.43
	c0.248,1.263-0.574,2.487-1.837,2.736C139.145,600.737,139.138,600.739,139.13,600.74z M152.59,598.19l-4.43,0.84
	c-1.27,0.24-2.49-0.59-2.74-1.86l-0.84-4.43c-0.24-1.27,0.59-2.49,1.86-2.74l4.43-0.84c1.27-0.24,2.49,0.59,2.74,1.86l0.84,4.43
	c0.248,1.263-0.574,2.487-1.837,2.736C152.605,598.187,152.598,598.189,152.59,598.19z M166.08,595.53l-4.43,0.84
	c-1.27,0.24-2.49-0.59-2.74-1.86l-0.84-4.43c-0.24-1.27,0.59-2.49,1.86-2.74l4.43-0.84c1.27-0.24,2.49,0.59,2.74,1.86l0.84,4.43
	C168.18,594.06,167.35,595.29,166.08,595.53z M180.19,592.86l-4.43,0.84c-1.27,0.24-2.49-0.59-2.74-1.86l-0.84-4.43
	c-0.24-1.27,0.59-2.49,1.86-2.74l4.43-0.84c1.27-0.24,2.49,0.59,2.74,1.86l0.84,4.43C182.3,591.39,181.46,592.61,180.19,592.86z
	 M193.99,590.24l-4.43,0.84c-1.27,0.24-2.49-0.59-2.74-1.86l-0.84-4.43c-0.24-1.27,0.59-2.49,1.86-2.74l4.43-0.84
	c1.27-0.24,2.49,0.59,2.74,1.86l0.84,4.43C196.09,588.78,195.26,590,193.99,590.24z M205.45,587.07l-4.43,0.84
	c-1.27,0.24-2.49-0.59-2.74-1.86l-0.84-4.43c-0.24-1.27,0.59-2.49,1.86-2.74l4.43-0.84c1.27-0.24,2.49,0.59,2.74,1.86l0.84,4.43
	c0.248,1.263-0.574,2.487-1.837,2.736C205.465,587.067,205.458,587.069,205.45,587.07z M219.5,584.41l-4.43,0.84
	c-1.27,0.24-2.49-0.59-2.74-1.86l-0.84-4.43c-0.24-1.27,0.59-2.49,1.86-2.74l4.43-0.84c1.27-0.24,2.49,0.59,2.74,1.86l0.84,4.43
	C221.61,582.94,220.77,584.17,219.5,584.41z M232.45,581.96l-4.43,0.84c-1.27,0.24-2.49-0.59-2.74-1.86l-0.84-4.43
	c-0.24-1.27,0.59-2.49,1.86-2.74l4.43-0.84c1.27-0.24,2.49,0.59,2.74,1.86l0.84,4.43C234.55,580.49,233.72,581.72,232.45,581.96z
	 M258.04,575.82l-17.1,3.24c-1.27,0.24-2.49-0.59-2.74-1.86l-0.84-4.43c-0.24-1.27,0.59-2.49,1.86-2.74l17.1-3.24
	c1.27-0.24,2.49,0.59,2.74,1.86l0.84,4.43C260.14,574.36,259.31,575.58,258.04,575.82z M72.75,626.17l-4.43,0.84
	c-1.27,0.24-2.49-0.59-2.74-1.86l-0.84-4.43c-0.24-1.27,0.59-2.49,1.86-2.74l4.43-0.84c1.27-0.24,2.49,0.59,2.74,1.86l0.84,4.43
	C74.86,624.71,74.03,625.93,72.75,626.17z M85.7,623.72l-4.43,0.84c-1.27,0.24-2.49-0.59-2.74-1.86l-0.84-4.43
	c-0.24-1.27,0.59-2.49,1.86-2.74l4.43-0.84c1.27-0.24,2.49,0.59,2.74,1.86l0.84,4.43C87.8,622.26,86.97,623.48,85.7,623.72z
	 M99.49,621.11l-4.43,0.84c-1.27,0.24-2.49-0.59-2.74-1.86l-0.84-4.43c-0.24-1.27,0.59-2.49,1.86-2.74l4.43-0.84
	c1.27-0.24,2.49,0.59,2.74,1.86l0.84,4.43C101.6,619.64,100.76,620.87,99.49,621.11z M112.44,618.66l-4.43,0.84
	c-1.27,0.24-2.49-0.59-2.74-1.86l-0.84-4.43c-0.24-1.27,0.59-2.49,1.86-2.74l4.43-0.84c1.27-0.24,2.49,0.59,2.74,1.86l0.84,4.43
	C114.54,617.19,113.71,618.42,112.44,618.66z M128.03,615.89l-4.43,0.84c-1.27,0.24-2.49-0.59-2.74-1.86l-0.84-4.43
	c-0.24-1.27,0.59-2.49,1.86-2.74l4.43-0.84c1.27-0.24,2.49,0.59,2.74,1.86l0.84,4.43C130.13,614.42,129.3,615.65,128.03,615.89z
	 M181,605.71l-44.13,8.36c-1.27,0.24-2.49-0.59-2.74-1.86l-0.84-4.43c-0.24-1.27,0.59-2.49,1.86-2.74l44.13-8.36
	c1.27-0.24,2.49,0.59,2.74,1.86l0.84,4.43c0.248,1.263-0.574,2.487-1.837,2.736C181.015,605.707,181.008,605.709,181,605.71z
	 M193.95,603.26l-4.43,0.84c-1.27,0.24-2.49-0.59-2.74-1.86l-0.84-4.43c-0.24-1.27,0.59-2.49,1.86-2.74l4.43-0.84
	c1.27-0.24,2.49,0.59,2.74,1.86l0.84,4.43C196.05,601.79,195.22,603.02,193.95,603.26z M207.74,600.65l-4.43,0.84
	c-1.27,0.24-2.49-0.59-2.74-1.86l-0.84-4.43c-0.24-1.27,0.59-2.49,1.86-2.74l4.43-0.84c1.27-0.24,2.49,0.59,2.74,1.86l0.84,4.43
	C209.85,599.18,209.01,600.41,207.74,600.65z M220.69,598.2l-4.43,0.84c-1.27,0.24-2.49-0.59-2.74-1.86l-0.84-4.43
	c-0.24-1.27,0.59-2.49,1.86-2.74l4.43-0.84c1.27-0.24,2.49,0.59,2.74,1.86l0.84,4.43C222.79,596.73,221.96,597.95,220.69,598.2z
	 M232.63,596.08l-4.43,0.84c-1.27,0.24-2.49-0.59-2.74-1.86l-0.84-4.43c-0.24-1.27,0.59-2.49,1.86-2.74l4.43-0.84
	c1.27-0.24,2.49,0.59,2.74,1.86l0.84,4.43C234.74,594.61,233.9,595.84,232.63,596.08z M246.57,592.81l-4.43,0.84
	c-1.27,0.24-2.49-0.59-2.74-1.86l-0.84-4.43c-0.24-1.27,0.59-2.49,1.86-2.74l4.43-0.84c1.27-0.24,2.49,0.59,2.74,1.86l0.84,4.43
	c0.248,1.263-0.574,2.487-1.837,2.736C246.585,592.807,246.578,592.809,246.57,592.81z M260.37,590.2l-4.43,0.84
	c-1.27,0.24-2.49-0.59-2.74-1.86l-0.84-4.43c-0.24-1.27,0.59-2.49,1.86-2.74l4.43-0.84c1.27-0.24,2.49,0.59,2.74,1.86l0.84,4.43
	C262.47,588.74,261.64,589.96,260.37,590.2z M275.53,547.13l-4.43,0.84c-1.27,0.24-2.49-0.59-2.74-1.86l-0.84-4.43
	c-0.24-1.27,0.59-2.49,1.86-2.74l4.43-0.84c1.27-0.24,2.49,0.59,2.74,1.86l0.84,4.43C277.64,545.66,276.8,546.88,275.53,547.13z
	 M302.06,542.1l-4.43,0.84c-1.27,0.24-2.49-0.59-2.74-1.86l-0.84-4.43c-0.24-1.27,0.59-2.49,1.86-2.74l4.43-0.84
	c1.27-0.24,2.49,0.59,2.74,1.86l0.84,4.43C304.17,540.63,303.33,541.86,302.06,542.1z M288.57,544.66l-4.43,0.84
	c-1.27,0.24-2.49-0.59-2.74-1.86l-0.84-4.43c-0.24-1.27,0.59-2.49,1.86-2.74l4.43-0.84c1.27-0.24,2.49,0.59,2.74,1.86l0.84,4.43
	C290.67,543.19,289.84,544.42,288.57,544.66z M277.95,559.89l-4.43,0.84c-1.27,0.24-2.49-0.59-2.74-1.86l-0.84-4.43
	c-0.24-1.27,0.59-2.49,1.86-2.74l4.43-0.84c1.27-0.24,2.49,0.59,2.74,1.86l0.84,4.43C280.05,558.42,279.22,559.65,277.95,559.89z
	 M290.91,557l-4.43,0.84c-1.27,0.24-2.49-0.59-2.74-1.86l-0.84-4.43c-0.24-1.27,0.59-2.49,1.86-2.74l4.43-0.84
	c1.27-0.24,2.49,0.59,2.74,1.86l0.84,4.43C293.01,555.53,292.18,556.76,290.91,557z M304.4,554.44l-4.43,0.84
	c-1.27,0.24-2.49-0.59-2.74-1.86l-0.84-4.43c-0.24-1.27,0.59-2.49,1.86-2.74l4.43-0.84c1.27-0.24,2.49,0.59,2.74,1.86l0.84,4.43
	c0.248,1.263-0.574,2.487-1.837,2.736C304.415,554.437,304.408,554.439,304.4,554.44z M280.41,572.49l-4.43,0.84
	c-1.27,0.24-2.49-0.59-2.74-1.86l-0.84-4.43c-0.24-1.27,0.59-2.49,1.86-2.74l4.43-0.84c1.27-0.24,2.49,0.59,2.74,1.86l0.84,4.43
	C282.51,571.03,281.68,572.25,280.41,572.49z M293.15,568.85l-4.43,0.84c-1.27,0.24-2.49-0.59-2.74-1.86l-0.84-4.43
	c-0.24-1.27,0.59-2.49,1.86-2.74l4.43-0.84c1.27-0.24,2.49,0.59,2.74,1.86l0.84,4.43c0.248,1.263-0.574,2.487-1.837,2.736
	C293.165,568.847,293.158,568.849,293.15,568.85z M307.16,566.52l-4.43,0.84c-1.27,0.24-2.49-0.59-2.74-1.86l-0.84-4.43
	c-0.24-1.27,0.59-2.49,1.86-2.74l4.43-0.84c1.27-0.24,2.49,0.59,2.74,1.86l0.84,4.43C309.27,565.05,308.43,566.28,307.16,566.52z
	 M298.37,581.43l-20.14,3.81c-1.27,0.24-2.49-0.59-2.74-1.86l-0.84-4.43c-0.24-1.27,0.59-2.49,1.86-2.74l20.14-3.81
	c1.27-0.24,2.49,0.59,2.74,1.86l0.84,4.43c0.248,1.263-0.574,2.487-1.837,2.736C298.385,581.427,298.378,581.429,298.37,581.43
	L298.37,581.43z M309.55,579.14l-4.43,0.84c-1.27,0.24-2.49-0.59-2.74-1.86l-0.84-4.43c-0.24-1.27,0.59-2.49,1.86-2.74l4.43-0.84
	c1.27-0.24,2.49,0.59,2.74,1.86l0.84,4.43C311.66,577.67,310.82,578.9,309.55,579.14z"/>
<path style="opacity:0.43;fill:#5B5742;enable-background:new    ;" d="M79.74,531.7c-1.01,2.64,4.04,7.59,11.12,14.52
	c0.95,0.93,4.18,4.03,8.92,7.44c2.59,1.86,4.72,3.15,5.66,3.72c2.55,1.51,7.24,4.38,13.46,6.29c6.35,1.94,10.94,3.35,16.87,2.38
	c2.32-0.38,9.89-1.61,11.72-6.56c1.06-2.86-0.26-5.77-0.74-6.84c-6.68-14.79-63.99-28.89-67.02-20.94L79.74,531.7L79.74,531.7z"/>
<path style="fill:#EBE2B3;stroke:#000000;stroke-width:6;stroke-miterlimit:10;" d="M72.809,464.273
	c2.559-4.368,4.13-4.966,5.059-4.809c2.199,0.372,2.191,5.251,6.158,12.911c1.347,2.602,2.546,4.437,3.56,5.99
	c6.863,9.217,18.225,23.118,26.114,33.145c13.789,15.323,17.413,20.404,28.09,33.19c0.791,0.759,3.171,3.019,4.091,6.639
	c4.316,22.424-42.496-2.812-47.149-5.92c-9.341-5.89-9.221-7.76-24.331-20.13c-15.27-12.5-17.52-12.33-18.89-16.85
	c0.806-6.619,2.306-13.136,4.475-19.441C63.028,480.173,67.348,471.843,72.809,464.273L72.809,464.273z"/>
<path style="opacity:0.43;fill:#5B5742;enable-background:new    ;" d="M227.16,555.6c2.21,3.67,13.91,1.77,18.92,0.36
	c4.11-1.15,8.24-3.24,9.83-4.09c1.05-0.55,3.25-1.76,5.87-3.57c4.35-3.01,6.27-5.11,10.98-9.7c6.33-6.17,10.79-9.54,15.06-16.21
	c0.92-1.43,2.21-3.61,1.47-5.55c-0.95-2.47-4.66-3.13-5.98-3.4C270.39,510.82,221.99,547.04,227.16,555.6L227.16,555.6z"/>
<path style="fill:#EBE2B3;stroke:#000000;stroke-width:6;stroke-miterlimit:10;" d="M284.395,467.239
	c-2.303-6.631-4.088-7.931-5.288-7.902c-1.895,0.046-2.739,3.412-6.638,10.213c-1.832,3.195-1.518,2.23-6.208,9.55
	c-3.9,6.088-5.968,9.786-8.94,14.55c-6.1,9.78-9.14,14.67-12.51,19.93c-16.02,25.05-21.81,31.52-19.4,34.96
	c0.95,1.36,3.41,2.59,10.46,1.25c7.29-1.72,17.34-5.02,27.9-11.65c17.16-10.78,26.65-24.71,31.17-32.54
	c0.05-3.22-0.36-5.36-2.53-10.96c-2.859-7.377-0.494-10.476-4.09-19.4c-1.009-2.505-2.105-4.428-2.831-5.605
	C285.124,468.836,284.76,468.038,284.395,467.239z"/>
</svg>
