<svg width="1404" height="1087" xmlns="http://www.w3.org/2000/svg" xmlns:xlink="http://www.w3.org/1999/xlink" overflow="hidden"><defs><clipPath id="clip0"><rect x="1543" y="596" width="1404" height="1087"/></clipPath></defs><g clip-path="url(#clip0)" transform="translate(-1543 -596)"><path d="M1643.45 1130.72C1566.95 1104.69 1528.5 1014.3 1557.59 928.831 1586.67 843.364 1672.26 795.182 1748.76 821.213 1650.45 859.282 1593.69 975.255 1621.98 1080.25 1626.84 1098.26 1634.06 1115.25 1643.45 1130.72Z" stroke="#000000" stroke-width="8.02083" stroke-miterlimit="8" fill="#FBFBFB" fill-rule="evenodd"/><path d="M1654.12 877.78C1658.3 877.131 1662.19 877.657 1665.55 879.526L1667.92 882.306 1647 910.26C1638.98 923.718 1632.27 938.171 1627.09 953.393 1621.91 968.615 1618.41 984.16 1616.56 999.718L1616.13 1031.62 1611.94 1033.32C1607.77 1033.97 1603.87 1033.45 1600.51 1031.58 1587.09 1024.1 1587.39 997.957 1601.19 973.187L1609.26 961.806 1608.09 960.434C1603.16 948.766 1605.91 929.416 1616.26 910.838 1626.61 892.26 1641.61 879.73 1654.12 877.78Z" fill="#404040" fill-rule="evenodd"/><path d="M1799.97 1220.45 1826.56 1232.84C1845.67 1241.76 1853.94 1264.48 1845.03 1283.59L1735.09 1519.35 1734.84 1521.55C1734.72 1542.22 1741.02 1562.78 1752.68 1580.67L1756.58 1585.59 1761.12 1588.94C1769.41 1598.12 1771.88 1611.71 1766.33 1623.61 1758.93 1639.49 1740.06 1646.36 1724.18 1638.96L1620.23 1590.48C1604.36 1583.08 1597.49 1564.21 1604.89 1548.33L1607.47 1544.84 1608.44 1540.83 1749.22 1238.92C1758.14 1219.8 1780.86 1211.53 1799.97 1220.45Z" stroke="#000000" stroke-width="9.16667" stroke-miterlimit="8" fill="#FFFFFF" fill-rule="evenodd"/><path d="M1699.67 1343.93 1704.96 1349.17C1718.76 1365.89 1726.3 1385.56 1725.21 1406.25 1723.04 1447.63 1686.98 1481.34 1637.46 1493.94L1629.04 1495.41Z" stroke="#000000" stroke-width="4.58333" stroke-miterlimit="8" fill="#404040" fill-rule="evenodd"/><path d="M2508.91 1222.18 2535.49 1234.57C2554.61 1243.49 2562.88 1266.21 2553.96 1285.32L2444.03 1521.08 2443.78 1523.28C2443.66 1543.95 2449.96 1564.52 2461.62 1582.4L2465.52 1587.32 2470.06 1590.67C2478.34 1599.85 2480.82 1613.44 2475.27 1625.35 2467.86 1641.22 2448.99 1648.09 2433.12 1640.69L2329.17 1592.22C2313.29 1584.81 2306.43 1565.94 2313.83 1550.07L2316.41 1546.57 2317.38 1542.56 2458.16 1240.65C2467.07 1221.53 2489.79 1213.26 2508.91 1222.18Z" stroke="#000000" stroke-width="9.16667" stroke-miterlimit="8" fill="#FFFFFF" fill-rule="evenodd"/><path d="M2578.37 894.29C2588.45 895.24 2598.21 897.729 2607.5 901.863 2681.84 934.937 2698.04 1060.82 2643.67 1183.02 2602.89 1274.68 2534.01 1338.24 2470.75 1350.33L2466.22 1350.58 2456.31 1353.65C2445.03 1355.96 2433.35 1357.17 2421.39 1357.17L1749.21 1357.17C1665.48 1357.17 1595.61 1297.78 1579.46 1218.82L1575.94 1183.9 1579.46 1148.97C1584.07 1126.42 1593.07 1105.45 1605.53 1087.02L1615.57 1074.85 1618.89 1065.78C1663.08 1006.35 1854.15 961.645 2083.15 961.645 2205.83 961.645 2317.62 974.474 2401.78 995.525L2411.69 998.675 2423.35 981.829C2469.82 923.223 2528 889.536 2578.37 894.29Z" stroke="#000000" stroke-width="9.16667" stroke-miterlimit="8" fill="#FBFBFB" fill-rule="evenodd"/><path d="M2668.9 1078 2671 1078.2 2670.28 1085.43C2665.31 1114.93 2656.14 1145.7 2642.55 1176.24 2637.46 1187.7 2631.93 1198.71 2626.02 1209.24L2608.71 1237 2602.5 1232.08C2585.51 1215.75 2575 1193.18 2575 1168.26 2575 1118.41 2617.04 1078 2668.9 1078Z" fill="#404040" fill-rule="evenodd"/><path d="M2419.38 1109.07C2459.51 1109.07 2492.05 1130.74 2492.05 1157.47 2492.05 1184.2 2459.51 1205.87 2419.38 1205.87 2414.37 1205.87 2409.47 1205.53 2404.74 1204.89L2393.23 1202.51 2391.46 1210.42C2389.73 1215.17 2387.3 1220.05 2384.18 1224.79 2371.71 1243.78 2352.98 1253.51 2342.35 1246.53 2331.72 1239.54 2333.21 1218.49 2345.69 1199.51 2348.81 1194.76 2352.31 1190.59 2355.99 1187.12L2359.33 1184.69 2359.13 1184.53C2351.3 1176.81 2346.72 1167.49 2346.72 1157.47 2346.72 1130.74 2379.25 1109.07 2419.38 1109.07Z" fill="#404040" fill-rule="evenodd"/><path d="M2174.48 1069.36C2181.24 1048.72 2210.77 1039.85 2240.44 1049.56 2270.12 1059.27 2288.7 1083.88 2281.94 1104.52 2275.19 1125.16 2245.66 1134.03 2215.98 1124.32 2186.31 1114.61 2167.73 1090 2174.48 1069.36Z" fill="#404040" fill-rule="evenodd"/><path d="M1755.02 1001.3 1752.95 1014.88C1745.65 1035.09 1730.38 1053.4 1708.87 1065L1707.4 1065.63 1715.79 1087.55C1722.01 1114.23 1715.99 1138.55 1698.72 1147.86 1681.45 1157.18 1657.82 1148.85 1638.95 1128.99L1633.08 1121.91 1627.76 1125.97C1618.48 1130.97 1607.51 1131.22 1596.31 1127.56L1586.46 1123.23 1587.57 1119.68C1591.95 1109.32 1597.31 1099.47 1603.54 1090.25L1613.58 1078.08 1616.9 1069.01C1633.48 1046.73 1670.7 1026.51 1722.83 1009.95Z" fill="#404040" fill-rule="evenodd"/><path d="M1948 1210.95C1972.28 1212.62 1993.69 1222.47 2008.67 1237.06L2016.12 1247.87 2046.6 1245.31C2057.67 1244.95 2069.1 1245.14 2080.76 1245.94 2174.05 1252.33 2247.11 1294.94 2243.95 1341.09L2239.93 1355.63 1915.85 1355.63 1892.93 1346.21C1868.45 1331.39 1853.12 1306.55 1854.97 1279.52 1857.8 1238.32 1899.45 1207.63 1948 1210.95Z" fill="#404040" fill-rule="evenodd"/><path d="M1832.34 1074.79C1841.47 1079.04 1847.39 1086.79 1848.01 1094.2L1847.95 1094.56 1857.79 1095.11C1864.06 1096.31 1870.6 1098.41 1877.08 1101.42 1903.02 1113.49 1918.26 1135.74 1911.1 1151.11 1903.95 1166.48 1877.13 1169.16 1851.19 1157.1 1831.73 1148.04 1818.3 1133.27 1815.82 1119.96L1817.17 1107.41 1817.17 1107.41C1805 1101.75 1798.53 1089.86 1802.72 1080.85 1806.91 1071.84 1820.17 1069.13 1832.34 1074.79Z" fill="#404040" fill-rule="evenodd"/><path d="M2037.21 961C2067.89 961 2097.9 961.804 2126.96 963.339L2147 964.942 2146.63 966.59C2130.91 999.74 2094.11 1023 2051.22 1023 2008.33 1023 1971.53 999.74 1955.81 966.59L1955 962.999Z" fill="#404040" fill-rule="evenodd"/><path d="M1708.17 1277.43 1736.51 1269.84C1756.88 1264.38 1777.82 1276.47 1783.28 1296.84L1850.6 1548.1 1851.83 1549.95C1865.02 1565.86 1883.07 1577.57 1903.49 1583.77L1909.65 1585.03 1915.28 1584.68C1927.52 1586.39 1938.16 1595.21 1941.56 1607.9 1946.09 1624.82 1936.05 1642.21 1919.13 1646.74L1808.34 1676.43C1791.42 1680.96 1774.03 1670.92 1769.5 1654L1769.23 1649.66 1767.39 1645.97 1681.17 1324.2C1675.71 1303.82 1687.8 1282.89 1708.17 1277.43Z" stroke="#000000" stroke-width="9.16667" stroke-miterlimit="8" fill="#FFFFFF" fill-rule="evenodd"/><path d="M1794.56 1495.59C1802.65 1494.63 1815.46 1497.28 1831.05 1502.93L1840.83 1507.05 1850.28 1542.33 1851.51 1544.18C1864.69 1560.09 1882.74 1571.79 1903.17 1578L1909.32 1579.26 1914.95 1578.91C1921.08 1579.76 1926.79 1582.39 1931.41 1586.39L1933.95 1589.36 1931.08 1597.99C1925.37 1608.03 1915.13 1617.68 1900.78 1626.71L1881.52 1636.42 1869.98 1623.94C1856.43 1605.13 1851.63 1587.6 1858.79 1575.81L1859.44 1575.16 1830.69 1555.69C1799.14 1531.76 1780.46 1509.29 1786.21 1499.83 1787.65 1497.46 1790.52 1496.07 1794.56 1495.59Z" fill="#404040" fill-rule="evenodd"/><path d="M2406.06 1277.43 2434.4 1269.84C2454.77 1264.38 2475.71 1276.47 2481.17 1296.84L2548.49 1548.1 2549.72 1549.95C2562.91 1565.86 2580.95 1577.57 2601.38 1583.77L2607.53 1585.03 2613.17 1584.68C2625.41 1586.39 2636.04 1595.21 2639.44 1607.9 2643.98 1624.82 2633.94 1642.21 2617.02 1646.74L2506.23 1676.43C2489.31 1680.96 2471.92 1670.92 2467.39 1654L2467.11 1649.66 2465.28 1645.97 2379.06 1324.2C2373.6 1303.82 2385.69 1282.89 2406.06 1277.43Z" stroke="#000000" stroke-width="9.16667" stroke-miterlimit="8" fill="#FFFFFF" fill-rule="evenodd"/><path d="M2501.72 1388.88 2503.46 1389.03 2546.2 1548.54 2536.96 1556.17C2525.85 1562.21 2512.43 1564.01 2499.34 1560.14L2473.42 1552.48C2447.24 1544.74 2432.29 1517.24 2440.03 1491.06L2459.85 1424C2465.66 1404.36 2482.58 1391.05 2501.72 1388.88Z" fill="#404040" fill-rule="evenodd"/><path d="M1596 1235.5C1596 1197.67 1646.37 1167 1708.5 1167 1770.63 1167 1821 1197.67 1821 1235.5 1821 1273.33 1770.63 1304 1708.5 1304 1646.37 1304 1596 1273.33 1596 1235.5Z" fill="#FBFBFB" fill-rule="evenodd"/><path d="M2312 1268.5C2312 1250.55 2362.59 1236 2425 1236 2487.41 1236 2538 1250.55 2538 1268.5 2538 1286.45 2487.41 1301 2425 1301 2362.59 1301 2312 1286.45 2312 1268.5Z" fill="#FBFBFB" fill-rule="evenodd"/><path d="M2729.35 790.683C2675.03 715.886 2657.75 635.809 2690.77 611.827 2723.79 587.845 2794.6 629.039 2848.92 703.836 2903.25 778.634 2920.52 858.71 2887.51 882.692 2854.49 906.675 2783.68 865.481 2729.35 790.683Z" stroke="#000000" stroke-width="4.58333" stroke-miterlimit="8" fill="#404040" fill-rule="evenodd"/><path d="M2794.5 782.5C2794.5 764.827 2808.83 750.5 2826.5 750.5 2844.17 750.5 2858.5 764.827 2858.5 782.5 2858.5 800.173 2844.17 814.5 2826.5 814.5 2808.83 814.5 2794.5 800.173 2794.5 782.5Z" stroke="#0D0D0D" stroke-width="4.58333" stroke-miterlimit="8" fill-rule="evenodd"/><path d="M2807 782C2807 770.954 2816.18 762 2827.5 762 2838.82 762 2848 770.954 2848 782 2848 793.046 2838.82 802 2827.5 802 2816.18 802 2807 793.046 2807 782Z" fill="#C00000" fill-rule="evenodd"/><path d="M2828 776.5C2828 771.806 2831.81 768 2836.5 768 2841.19 768 2845 771.806 2845 776.5 2845 781.195 2841.19 785 2836.5 785 2831.81 785 2828 781.195 2828 776.5Z" fill="#FF7979" fill-rule="evenodd"/><path d="M2625.52 605.155C2636.98 604.593 2648.67 605.171 2660.45 606.986 2732.62 618.101 2787.42 672.394 2802.63 739.534L2804.46 752.91 2817.52 779.457C2823.99 789.658 2831.27 798.664 2838.89 806.213L2843.3 809.611 2857.19 814.727C2916.06 843.48 2948.63 910.535 2931.62 976.447 2914.62 1042.36 2853.68 1085.29 2788.24 1081.97L2787.68 1081.89 2785.73 1083.07C2745.77 1099.77 2674.25 1091.32 2601.89 1057.77L2578.33 1045.48 2558.49 1040.35C2483.18 1012.46 2435.27 934.636 2447.98 852.164L2463.5 751.361C2476.21 668.888 2545.31 609.09 2625.52 605.155Z" stroke="#000000" stroke-width="8.02083" stroke-miterlimit="8" fill="#FBFBFB" fill-rule="evenodd"/><path d="M2470.44 863.815C2449.75 812.586 2489.42 748.259 2559.04 720.137 2628.66 692.016 2701.88 710.748 2722.57 761.977 2743.26 813.206 2703.6 877.532 2633.97 905.654 2564.35 933.776 2491.14 915.044 2470.44 863.815Z" fill="#404040" fill-rule="evenodd"/><path d="M35.4459 466.032 28.814 462.439 23.7051 450.453C3.77603 391.076-4.53115 320.925 2.42047 246.86 4.73768 222.171 8.64049 198.217 13.9495 175.221L33.8762 109.462 35.4459 112.124C175.559-163.138 722.002 112.124 35.4459 466.032Z" stroke="#000000" stroke-width="10.3125" stroke-miterlimit="8" fill="#FBFBFB" fill-rule="evenodd" transform="matrix(0.319113 0.947717 0.947717 -0.319113 2159.85 723.407)"/><path d="M0 235.948 8.03166 241.814C18.3034 246.553 29.6278 249.243 41.5477 249.389 89.227 249.972 128.378 209.635 128.994 159.293 129.148 146.708 126.879 134.689 122.644 123.73L117.954 114.327 124.616 103.164C127.986 94.2481 129.909 84.4239 130.036 74.0883 130.478 37.9143 108.762 7.46325 79.4887 0.124147L78.5302 0 65.5543 12.8885C54.0231 25.9067 43.6784 40.9602 34.9214 58.1639L33.3519 55.5024 13.4252 121.261C8.11611 144.257 4.21342 168.212 1.89613 192.9Z" fill="#404040" fill-rule="evenodd" transform="matrix(0.319113 0.947717 0.947717 -0.319113 2214.32 703.108)"/><path d="M2336.32 838C2346.39 838 2355.04 845.745 2358.73 856.784L2358.83 857.394 2367.98 851.144C2374.18 848.488 2381 847.019 2388.16 847.019 2416.79 847.019 2440 870.52 2440 899.509 2440 928.499 2416.79 952 2388.16 952 2366.69 952 2348.26 938.781 2340.39 919.941L2336.32 899.51 2336.32 899.51C2322.89 899.51 2312 885.74 2312 868.755 2312 851.77 2322.89 838 2336.32 838Z" fill="#404040" fill-rule="evenodd"/><path d="M2831 921C2831 896.699 2856.97 877 2889 877 2921.03 877 2947 896.699 2947 921 2947 945.3 2921.03 965 2889 965 2856.97 965 2831 945.3 2831 921Z" fill-rule="evenodd"/><path d="M2607.5 815C2607.5 797.051 2621.83 782.5 2639.5 782.5 2657.17 782.5 2671.5 797.051 2671.5 815 2671.5 832.949 2657.17 847.5 2639.5 847.5 2621.83 847.5 2607.5 832.949 2607.5 815Z" stroke="#0D0D0D" stroke-width="4.58333" stroke-miterlimit="8" fill-rule="evenodd"/><path d="M2620 814.5C2620 803.178 2628.95 794 2640 794 2651.05 794 2660 803.178 2660 814.5 2660 825.822 2651.05 835 2640 835 2628.95 835 2620 825.822 2620 814.5Z" fill="#C00000" fill-rule="evenodd"/><path d="M2633 813C2633 808.582 2636.81 805 2641.5 805 2646.19 805 2650 808.582 2650 813 2650 817.418 2646.19 821 2641.5 821 2636.81 821 2633 817.418 2633 813Z" fill="#FF7979" fill-rule="evenodd"/><path d="M2813.32 973C2854.88 973 2890.53 988.311 2905.76 1010.13L2909 1016.46 2893.98 1034.66C2866.31 1062.91 2827.28 1078.82 2786.51 1076.76L2785.95 1076.67 2784 1077.85C2779.02 1079.93 2773.55 1081.62 2767.65 1082.91L2760.04 1084 2742.38 1076.78C2724.23 1065.78 2713 1050.58 2713 1033.8 2713 1000.22 2757.92 973 2813.32 973Z" stroke="#C00000" stroke-width="5.72917" stroke-miterlimit="8" fill="#FF4747" fill-rule="evenodd"/><path d="M2772 978 2770.28 1033 2747 988.583 2747.69 987.961Z" fill="#FFFFFF" fill-rule="evenodd"/><path d="M2830 975 2842.07 976.086 2857 980.36 2844.22 1028Z" fill="#FFFFFF" fill-rule="evenodd"/></g></svg>