<svg width="1030" height="1259" xmlns="http://www.w3.org/2000/svg" xmlns:xlink="http://www.w3.org/1999/xlink" xml:space="preserve" overflow="hidden"><defs><clipPath id="clip0"><rect x="1053" y="749" width="1030" height="1259"/></clipPath></defs><g clip-path="url(#clip0)" transform="translate(-1053 -749)"><path d="M1984.85 1655.86 1089.61 1476.53C1072.01 1473 1060.62 1455.88 1064.14 1438.32L1112.96 1194.61C1116.49 1177.01 1133.61 1165.62 1151.18 1169.14L2046.39 1348.46C2063.99 1351.99 2075.38 1369.11 2071.86 1386.67L2023.04 1630.38C2019.55 1647.96 2002.42 1659.38 1984.85 1655.86L1984.85 1655.86Z" stroke="#000000" stroke-width="20.625" stroke-miterlimit="8" fill="#A6A897" fill-rule="evenodd"/><path d="M1400.5 1775.5C1401.33 1790.79 1403.87 1799.5 1406.13 1804.68 1410.66 1815.1 1411.65 1817.87 1413.62 1823.39 1414.12 1824.78 1414.51 1825.9 1414.78 1826.7 1417.67 1835.08 1417.77 1836.7 1423.54 1856.62 1432.82 1888.61 1433.57 1887.92 1435.8 1898.89 1438.89 1913.95 1437.31 1914.33 1441.06 1935.84 1444.53 1955.73 1446.38 1965.79 1451.57 1972.79 1452.91 1974.58 1466.17 1991.92 1484.89 1990.41 1497.19 1989.41 1505.36 1980.75 1511.2 1974.55 1514.74 1970.83 1517.48 1967 1530.5 1939.35 1538.03 1923.4 1541.84 1915.23 1544.55 1907.68 1545.99 1903.68 1546.96 1900.47 1547.68 1897.68 1550.72 1885.9 1552.99 1877.39 1553.31 1876 1555.19 1867.77 1562.16 1852.04 1583.5 1819.51 1553.69 1811.72 1523.28 1804.08 1492.29 1796.62 1461.25 1789.16 1430.64 1782.13 1400.5 1775.5Z" stroke="#000000" stroke-width="20.625" stroke-miterlimit="8" fill="#EBE2B3" fill-rule="evenodd"/><path d="M1757.5 1836.57C1765.1 1853.88 1772.7 1873.55 1779.62 1895.46 1786.43 1917.09 1791.45 1937.35 1795.16 1955.79 1814.22 2002.67 1864.4 1991.13 1870.42 1941.78 1877.41 1920.08 1884.15 1896.94 1890.37 1872.42 1895.98 1850.34 1900.73 1829.05 1904.72 1808.72 1905.28 1804.09 1905.6 1798.97 1905.47 1793.43 1905.09 1776.77 1900.82 1763.09 1896.74 1753.5 1850.33 1781.19 1803.91 1808.88 1757.5 1836.57Z" stroke="#000000" stroke-width="20.625" stroke-miterlimit="8" fill="#EBE2B3" fill-rule="evenodd"/><path d="M1195.77 1387.54C1193.36 1377.88 1190.58 1363.28 1190.51 1345.41 1190.44 1326.4 1193.54 1321.18 1194.02 1305.06 1194.98 1273.13 1183.53 1271.31 1183.5 1243.64 1183.5 1210.79 1199.52 1185.01 1204.57 1176.97 1216.05 1158.58 1220.62 1161.19 1234.4 1140.12 1247.22 1120.53 1253.13 1103.21 1258.97 1085.72 1269.11 1055.37 1266.7 1049.29 1274.78 1020.8 1280.48 1000.66 1287.74 974.984 1304.61 948.83 1315.61 931.783 1334.17 915.252 1371.28 882.155 1395.13 860.882 1412.32 847.169 1425.69 836.514 1466.44 804.071 1479.85 797.128 1485.35 794.379 1504.63 784.824 1521.98 776.198 1545.01 776.817 1556.59 777.126 1574.84 778.26 1594.46 778.088 1597.25 778.054 1603.53 778.088 1611.71 777.573 1615.22 777.332 1621.1 776.886 1628.18 775.923 1640.2 774.308 1649.24 772.177 1652.03 771.524 1692.17 762.245 1712.44 756.643 1731 761.007 1753.31 766.231 1768.29 779.154 1781.9 790.839 1790.53 798.263 1802.38 813.453 1825.79 843.491 1851.8 876.932 1857.82 885.902 1873.18 897.896 1888.54 909.891 1890.47 907.073 1901.26 917.211 1915.62 930.683 1921.02 943.916 1934.59 975.122 1960.54 1034.79 1958.41 1026.98 1960.92 1034.79 1963.46 1042.79 1964.9 1050.66 1968.17 1066.34 1972.29 1086.17 1973.5 1095.72 1978.48 1124.31 1982.36 1146.52 1984.18 1157.65 1985.49 1162.91 1994.29 1198.55 2007.52 1222.75 2011.82 1231.34 2031.92 1271.48 2029.89 1318.94 2025.87 1413.87 2023.43 1471.43 2022.09 1502.71 2008.31 1543.75 2001.2 1564.92 1997.93 1567.36 1980.23 1615.71 1965.25 1656.61 1962.77 1668.02 1950.4 1696.44 1936.66 1728.06 1929.78 1743.87 1915.31 1761.36 1909.2 1768.79 1894.93 1784.74 1857.4 1807.01 1826.2 1825.53 1791.08 1846.36 1739.83 1856.15 1665.95 1870.28 1604.22 1852.75 1580.13 1845.64 1565.11 1841.2 1560.03 1838.52 1530.99 1829.83 1517.02 1825.65 1505.9 1822.59 1496.47 1820.14 1459.13 1810.47 1456.37 1811.2 1437.99 1805.25 1426.6 1801.57 1418.94 1798.4 1405.14 1792.65 1378.7 1781.62 1355.6 1772 1337.95 1761.36 1294.28 1735.07 1271.71 1695.36 1262.48 1678.88 1255.6 1666.61 1246.19 1638.53 1227.39 1582.34 1214.98 1545.26 1208.69 1526.46 1206.32 1513.91 1201.71 1489.62 1200.31 1466.45 1197.56 1420.91 1196.66 1406.79 1196.11 1395.21 1195.77 1387.54Z" stroke="#000000" stroke-width="20.625" stroke-miterlimit="8" fill="#EBE2B3" fill-rule="evenodd"/><path d="M1440.12 914.314 1453.26 889.496 1571.17 951.95 1558.02 976.768Z" stroke="#000000" stroke-width="10.3139" stroke-miterlimit="8" fill="#595850" fill-rule="evenodd"/><path d="M1693.8 946.482 1814.02 888.618 1826.2 913.925 1705.98 971.789Z" stroke="#000000" stroke-width="10.3139" stroke-miterlimit="8" fill="#595850" fill-rule="evenodd"/><path d="M1896 1999C1896 2003.97 1791.23 2008 1662 2008 1532.77 2008 1428 2003.97 1428 1999 1428 1994.03 1532.77 1990 1662 1990 1791.23 1990 1896 1994.03 1896 1999Z" fill="#5B5742" fill-rule="evenodd" fill-opacity="0.470588"/><path d="M1539.5 1038C1539.5 1060.92 1520.92 1079.5 1498 1079.5 1475.08 1079.5 1456.5 1060.92 1456.5 1038 1456.5 1015.08 1475.08 996.5 1498 996.5 1520.92 996.5 1539.5 1015.08 1539.5 1038Z" stroke="#000000" stroke-width="20.625" stroke-miterlimit="8" fill="#231815" fill-rule="evenodd"/><path d="M1813.5 1038C1813.5 1060.92 1794.92 1079.5 1772 1079.5 1749.08 1079.5 1730.5 1060.92 1730.5 1038 1730.5 1015.08 1749.08 996.5 1772 996.5 1794.92 996.5 1813.5 1015.08 1813.5 1038Z" stroke="#000000" stroke-width="20.625" stroke-miterlimit="8" fill="#231815" fill-rule="evenodd"/><path d="M1522 1051C1522 1062.05 1513.05 1071 1502 1071 1490.95 1071 1482 1062.05 1482 1051 1482 1039.95 1490.95 1031 1502 1031 1513.05 1031 1522 1039.95 1522 1051Z" fill="#FFFFFF" fill-rule="evenodd"/><path d="M1792 1051C1792 1062.05 1783.05 1071 1772 1071 1760.95 1071 1752 1062.05 1752 1051 1752 1039.95 1760.95 1031 1772 1031 1783.05 1031 1792 1039.95 1792 1051Z" fill="#FFFFFF" fill-rule="evenodd"/><path d="M1718 1166C1718 1178.15 1684.2 1188 1642.5 1188 1600.8 1188 1567 1178.15 1567 1166 1567 1153.85 1600.8 1144 1642.5 1144 1684.2 1144 1718 1153.85 1718 1166Z" stroke="#000000" stroke-width="10.3125" stroke-miterlimit="8" fill="#E73A8F" fill-rule="evenodd"/><path d="M1318.84 1176C1324.22 1168.15 1332.49 1153.36 1330.77 1135.49 1329.6 1123.3 1322.42 1112.65 1308.12 1091.83 1298.04 1077.17 1290.41 1066.06 1277.26 1053.11 1265.65 1041.68 1255.03 1034.57 1233.8 1020.35 1208.84 1003.64 1196.03 995.198 1179.94 991.027 1169.12 988.222 1146.04 982.238 1133.84 994.027 1126.35 1001.26 1126.1 1012.16 1126.01 1016.31 1125.01 1059.95 1257.37 1153.81 1277 1167.6 1290.95 1170.4 1304.9 1173.2 1318.84 1176Z" fill="#5B5742" fill-rule="evenodd" fill-opacity="0.431373"/><path d="M1366.98 1334.58C1364.71 1335.45 1350.14 1340.83 1337.02 1334.35 1328.14 1329.96 1323.89 1322.11 1321.6 1318.01 1311.48 1299.84 1297.07 1284.31 1286.61 1266.33 1282.43 1259.15 1283.65 1261.8 1227.07 1186.21 1208.02 1160.75 1198.43 1148.06 1191.56 1138.51 1173.76 1113.78 1161.58 1095.37 1140.02 1064.91 1137.52 1062.09 1129.99 1053.7 1127.85 1041.07 1119.28 963.176 1272.71 1062.46 1287.79 1074.38 1311.22 1091.91 1316.03 1099.71 1339.18 1123.68 1350.47 1135.38 1359.14 1143.85 1365.59 1149.97 1399.92 1182.51 1414.13 1188.73 1418.38 1207.5 1420.37 1216.27 1419.44 1224.49 1417.66 1231.29 1414.18 1251.17 1409.09 1267.02 1404.92 1278.09 1394.49 1305.75 1386.54 1327.03 1366.98 1334.58Z" stroke="#000000" stroke-width="20.625" stroke-miterlimit="8" fill="#EBE2B3" fill-rule="evenodd"/><path d="M1779.96 1410.58C1790.35 1421 1827.9 1405.1 1843.49 1396.3 1856.28 1389.11 1868.37 1378.76 1872.99 1374.63 1876.05 1371.94 1882.41 1366.1 1889.68 1357.93 1901.75 1344.34 1906.45 1335.77 1918.42 1316.61 1934.52 1290.87 1946.66 1275.99 1955.46 1250.26 1957.36 1244.74 1959.89 1236.42 1955.82 1230.56 1950.62 1223.11 1937.68 1223.94 1933.05 1224.12 1887.72 1225.95 1755.66 1386.27 1779.96 1410.58L1779.96 1410.58Z" fill="#5B5742" fill-rule="evenodd" fill-opacity="0.431373"/><path d="M1959.59 1051.5C1953.93 1051.55 1945.59 1052.43 1937.2 1056.93 1922.01 1065.09 1916.3 1080.01 1906.75 1102.45 1899.32 1119.9 1890.28 1136.67 1883.5 1154.38 1874.46 1177.96 1863.27 1201.21 1842.42 1248.39 1809.59 1322.64 1780.67 1363.78 1790.42 1376.05 1793.58 1380.03 1801.96 1383.72 1828.27 1375.94 1904.87 1353.29 1960.94 1283.45 1990.34 1239.98 1992.97 1225.28 1994.91 1205.11 1992.18 1181.5 1990.35 1165.67 1986.84 1152.07 1983.19 1141.13 1981.28 1131.99 1979.19 1122.67 1976.9 1113.19 1971.63 1091.45 1965.78 1070.87 1959.59 1051.5Z" stroke="#000000" stroke-width="20.625" stroke-miterlimit="8" fill="#EBE2B3" fill-rule="evenodd"/></g></svg>