<svg width="1030" height="1259" xmlns="http://www.w3.org/2000/svg" xmlns:xlink="http://www.w3.org/1999/xlink" xml:space="preserve" overflow="hidden"><defs><clipPath id="clip0"><rect x="-117" y="749" width="1030" height="1259"/></clipPath></defs><g clip-path="url(#clip0)" transform="translate(117 -749)"><path d="M588.5 1836.57C596.102 1853.88 603.703 1873.55 610.617 1895.46 617.427 1917.09 622.449 1937.35 626.164 1955.79 645.219 2002.67 695.403 1991.13 701.423 1941.78 708.405 1920.08 715.147 1896.94 721.373 1872.42 726.979 1850.34 731.726 1829.05 735.716 1808.72 736.284 1804.09 736.6 1798.97 736.473 1793.43 736.087 1776.77 731.815 1763.09 727.743 1753.5 681.329 1781.19 634.914 1808.88 588.5 1836.57Z" stroke="#000000" stroke-width="20.625" stroke-miterlimit="8" fill="#EBE2B3" fill-rule="evenodd"/><path d="M231.5 1775.5C232.328 1790.79 234.873 1799.5 237.126 1804.68 241.663 1815.1 242.653 1817.87 244.625 1823.39 245.123 1824.78 245.507 1825.9 245.782 1826.7 248.667 1835.08 248.771 1836.7 254.541 1856.62 263.815 1888.61 264.571 1887.92 266.804 1898.89 269.895 1913.95 268.315 1914.33 272.059 1935.84 275.528 1955.73 277.383 1965.79 282.57 1972.79 283.909 1974.58 297.168 1991.92 315.888 1990.41 328.185 1989.41 336.36 1980.75 342.199 1974.55 345.737 1970.83 348.485 1967 361.503 1939.35 369.026 1923.4 372.839 1915.23 375.552 1907.68 376.995 1903.68 377.956 1900.47 378.678 1897.68 381.721 1885.9 383.991 1877.39 384.311 1876 386.187 1867.77 393.159 1852.04 414.5 1819.51 384.689 1811.72 354.283 1804.08 323.294 1796.62 292.249 1789.16 261.641 1782.13 231.5 1775.5Z" stroke="#000000" stroke-width="20.625" stroke-miterlimit="8" fill="#EBE2B3" fill-rule="evenodd"/><path d="M814.853 1655.86-80.387 1476.53C-97.9886 1473-109.38 1455.88-105.863 1438.32L-57.0403 1194.61C-53.5087 1177.01-36.3887 1165.62-18.8217 1169.14L876.387 1348.46C893.989 1351.99 905.38 1369.11 901.863 1386.67L853.04 1630.38C849.554 1647.96 832.42 1659.38 814.853 1655.86L814.853 1655.86Z" stroke="#000000" stroke-width="20.625" stroke-miterlimit="8" fill="#A6A897" fill-rule="evenodd"/><path d="M25.7834 1387.54C23.375 1377.88 20.5881 1363.28 20.5191 1345.41 20.4505 1326.4 23.547 1321.18 24.0289 1305.06 24.9923 1273.13 13.5342 1271.31 13.4999 1243.64 13.4999 1210.79 29.5341 1185.01 34.5918 1176.97 46.0842 1158.58 50.6603 1161.19 64.4577 1140.12 77.2917 1120.53 83.2099 1103.21 89.0594 1085.72 99.2098 1055.37 96.801 1049.29 104.887 1020.8 110.598 1000.66 117.859 974.984 134.753 948.83 145.763 931.783 164.344 915.252 201.504 882.155 225.383 860.882 242.587 847.169 255.972 836.514 296.779 804.071 310.198 797.128 315.703 794.379 335.006 784.824 352.382 776.198 375.435 776.817 387.031 777.126 405.301 778.26 424.948 778.088 427.735 778.054 434.032 778.088 442.221 777.573 445.731 777.332 451.614 776.886 458.702 775.923 470.745 774.308 479.794 772.177 482.581 771.524 522.769 762.245 543.07 756.643 561.65 761.007 583.981 766.231 598.983 779.154 612.608 790.839 621.245 798.263 633.115 813.453 656.547 843.491 682.594 876.932 688.615 885.902 703.995 897.896 719.375 909.891 721.302 907.073 732.106 917.211 746.489 930.683 751.891 943.916 765.482 975.122 791.46 1034.79 789.326 1026.98 791.838 1034.79 794.384 1042.79 795.829 1050.66 799.098 1066.34 803.227 1086.17 804.432 1095.72 809.421 1124.31 813.309 1146.52 815.132 1157.65 816.44 1162.91 825.248 1198.55 838.495 1222.75 842.796 1231.34 862.925 1271.48 860.895 1318.94 856.869 1413.87 854.426 1471.43 853.084 1502.71 839.287 1543.75 832.164 1564.92 828.896 1567.36 811.175 1615.71 796.174 1656.61 793.696 1668.02 781.309 1696.44 767.546 1728.06 760.665 1743.87 746.179 1761.36 740.055 1768.79 725.775 1784.74 688.202 1807.01 656.96 1825.53 621.795 1846.36 570.493 1856.15 496.516 1870.28 434.72 1852.75 410.6 1845.64 395.564 1841.2 390.471 1838.52 361.397 1829.83 347.414 1825.65 336.286 1822.59 326.841 1820.14 289.461 1810.47 286.694 1811.2 268.289 1805.25 256.883 1801.57 249.221 1798.4 235.406 1792.65 208.929 1781.62 185.8 1772 168.129 1761.36 124.41 1735.07 101.814 1695.36 92.5692 1678.88 85.6876 1666.61 76.2597 1638.53 57.4385 1582.34 45.0174 1545.26 38.7207 1526.46 36.3467 1513.91 31.7358 1489.62 30.3252 1466.45 27.5726 1420.91 26.6782 1406.79 26.1276 1395.21 25.7834 1387.54Z" stroke="#000000" stroke-width="20.625" stroke-miterlimit="8" fill="#EBE2B3" fill-rule="evenodd"/><path d="M270.788 914.314 283.934 889.496 401.837 951.95 388.691 976.768Z" stroke="#000000" stroke-width="10.3139" stroke-miterlimit="8" fill="#595850" fill-rule="evenodd"/><path d="M524.467 946.482 644.692 888.618 656.872 913.925 536.648 971.789Z" stroke="#000000" stroke-width="10.3139" stroke-miterlimit="8" fill="#595850" fill-rule="evenodd"/><path d="M726 1999C726 2003.97 621.235 2008 492 2008 362.766 2008 258 2003.97 258 1999 258 1994.03 362.766 1990 492 1990 621.235 1990 726 1994.03 726 1999Z" fill="#5B5742" fill-rule="evenodd" fill-opacity="0.470588"/><path d="M370.5 1038C370.5 1060.92 351.696 1079.5 328.5 1079.5 305.304 1079.5 286.5 1060.92 286.5 1038 286.5 1015.08 305.304 996.5 328.5 996.5 351.696 996.5 370.5 1015.08 370.5 1038Z" stroke="#000000" stroke-width="20.625" stroke-miterlimit="8" fill="#231815" fill-rule="evenodd"/><path d="M644.5 1038C644.5 1060.92 625.92 1079.5 603 1079.5 580.08 1079.5 561.5 1060.92 561.5 1038 561.5 1015.08 580.08 996.5 603 996.5 625.92 996.5 644.5 1015.08 644.5 1038Z" stroke="#000000" stroke-width="20.625" stroke-miterlimit="8" fill="#231815" fill-rule="evenodd"/><path d="M353 1051C353 1062.05 344.046 1071 333 1071 321.954 1071 313 1062.05 313 1051 313 1039.95 321.954 1031 333 1031 344.046 1031 353 1039.95 353 1051Z" fill="#FFFFFF" fill-rule="evenodd"/><path d="M622 1051C622 1062.05 613.046 1071 602 1071 590.954 1071 582 1062.05 582 1051 582 1039.95 590.954 1031 602 1031 613.046 1031 622 1039.95 622 1051Z" fill="#FFFFFF" fill-rule="evenodd"/><path d="M548 1166C548 1178.15 514.422 1188 473 1188 431.579 1188 398 1178.15 398 1166 398 1153.85 431.579 1144 473 1144 514.422 1144 548 1153.85 548 1166Z" stroke="#000000" stroke-width="10.3125" stroke-miterlimit="8" fill="#E73A8F" fill-rule="evenodd"/><path d="M141.972 1219.26C139.362 1228.4 136.205 1245.05 143.515 1261.45 148.501 1272.64 158.699 1280.49 178.89 1295.71 193.117 1306.43 203.89 1314.56 220.486 1322.68 235.144 1329.86 247.484 1333.24 272.161 1340.02 301.173 1347.98 316.016 1351.94 332.622 1350.81 343.785 1350.05 367.597 1348.43 375.441 1333.39 380.254 1324.16 377.028 1313.74 375.799 1309.77 362.884 1268.06 207.389 1220.87 184.371 1214 170.233 1215.75 156.103 1217.51 141.972 1219.26Z" fill="#5B5742" fill-rule="evenodd" fill-opacity="0.431373"/><path d="M76.69 1094.13C95.1972 1059.12 92.7999 1071.73 122.283 1095.88 129.797 1101.58 137.418 1107.51 145.121 1113.68 152.35 1119.47 159.349 1125.24 166.125 1130.96 169.683 1136.19 175.459 1143.93 183.781 1152.1 198.716 1166.76 212.821 1172.31 226.444 1181.64 283.773 1220.91 294.422 1230.08 347.362 1269.28 350.621 1271.15 360.415 1276.74 366.452 1288.06 399.257 1359.31 222.433 1313.58 204.366 1307.03 173.172 1297.56 137.099 1273 106.702 1259.88 63.8731 1239.84 48.4364 1238.42 38.4563 1221.95 21.9613 1196.38 37.6869 1181.08 55.6449 1150.26 65.2504 1130.26 62.4413 1123.69 76.69 1094.13Z" stroke="#000000" stroke-width="20.625" stroke-miterlimit="8" fill="#EBE2B3" fill-rule="evenodd"/><path d="M646.038 1427.22C658.184 1435.51 691.904 1412.75 705.49 1401.14 716.642 1391.64 726.511 1379.17 730.246 1374.23 732.728 1371 737.845 1364.06 743.41 1354.63 752.641 1338.98 755.615 1329.66 763.704 1308.55 774.575 1280.17 783.635 1263.23 787.369 1236.25 788.185 1230.46 789.077 1221.8 783.988 1216.81 777.486 1210.46 764.983 1213.73 760.484 1214.78 716.484 1225.18 617.658 1407.92 646.038 1427.22L646.038 1427.22Z" fill="#5B5742" fill-rule="evenodd" fill-opacity="0.431373"/><path d="M791.926 1034.5C780.88 1035.65 764.169 1039.24 750.906 1051.75 739.59 1062.42 735.979 1074.68 726.324 1109.61 719.422 1134.59 715.97 1147.08 710.52 1167.48 700.575 1204.71 693.296 1213.42 677.316 1256.08 656.967 1310.4 633.013 1375.89 650.623 1391 654.474 1394.3 663.366 1396.33 687.646 1383.74 758.323 1347.09 799.968 1268.05 820.5 1219.9 816.556 1202.97 813.155 1183.64 811.219 1162.25 809.988 1148.65 809.493 1135.84 809.503 1123.96 807.987 1114.3 806.323 1104.49 804.504 1094.54 800.69 1073.72 796.461 1053.69 791.926 1034.5Z" stroke="#000000" stroke-width="20.625" stroke-miterlimit="8" fill="#EBE2B3" fill-rule="evenodd"/></g></svg>