<svg width="1030" height="1259" xmlns="http://www.w3.org/2000/svg" xmlns:xlink="http://www.w3.org/1999/xlink" xml:space="preserve" overflow="hidden"><defs><clipPath id="clip0"><rect x="2222" y="749" width="1030" height="1259"/></clipPath></defs><g clip-path="url(#clip0)" transform="translate(-2222 -749)"><path d="M2927.5 1836.57C2935.1 1853.88 2942.7 1873.55 2949.62 1895.46 2956.43 1917.09 2961.45 1937.35 2965.16 1955.79 2984.22 2002.67 3034.4 1991.13 3040.42 1941.78 3047.41 1920.08 3054.15 1896.94 3060.37 1872.42 3065.98 1850.34 3070.73 1829.05 3074.72 1808.72 3075.28 1804.09 3075.6 1798.97 3075.47 1793.43 3075.09 1776.77 3070.82 1763.09 3066.74 1753.5 3020.33 1781.19 2973.91 1808.88 2927.5 1836.57Z" stroke="#000000" stroke-width="20.625" stroke-miterlimit="8" fill="#EBE2B3" fill-rule="evenodd"/><path d="M2570.5 1775.5C2571.33 1790.79 2573.87 1799.5 2576.13 1804.68 2580.66 1815.1 2581.65 1817.87 2583.62 1823.39 2584.12 1824.78 2584.51 1825.9 2584.78 1826.7 2587.67 1835.08 2587.77 1836.7 2593.54 1856.62 2602.82 1888.61 2603.57 1887.92 2605.8 1898.89 2608.9 1913.95 2607.31 1914.33 2611.06 1935.84 2614.53 1955.73 2616.38 1965.79 2621.57 1972.79 2622.91 1974.58 2636.17 1991.92 2654.89 1990.41 2667.19 1989.41 2675.36 1980.75 2681.2 1974.55 2684.74 1970.83 2687.48 1967 2700.5 1939.35 2708.03 1923.4 2711.84 1915.23 2714.55 1907.68 2715.99 1903.68 2716.96 1900.47 2717.68 1897.68 2720.72 1885.9 2722.99 1877.39 2723.31 1876 2725.19 1867.77 2732.16 1852.04 2753.5 1819.51 2723.69 1811.72 2693.28 1804.08 2662.29 1796.62 2631.25 1789.16 2600.64 1782.13 2570.5 1775.5Z" stroke="#000000" stroke-width="20.625" stroke-miterlimit="8" fill="#EBE2B3" fill-rule="evenodd"/><path d="M3153.85 1655.86 2258.61 1476.53C2241.01 1473 2229.62 1455.88 2233.14 1438.32L2281.96 1194.61C2285.49 1177.01 2302.61 1165.62 2320.18 1169.14L3215.39 1348.46C3232.99 1351.99 3244.38 1369.11 3240.86 1386.67L3192.04 1630.38C3188.55 1647.96 3171.42 1659.38 3153.85 1655.86L3153.85 1655.86Z" stroke="#000000" stroke-width="20.625" stroke-miterlimit="8" fill="#A6A897" fill-rule="evenodd"/><path d="M2364.77 1387.54C2362.36 1377.88 2359.58 1363.28 2359.51 1345.41 2359.44 1326.4 2362.54 1321.18 2363.02 1305.06 2363.98 1273.13 2352.53 1271.31 2352.5 1243.64 2352.5 1210.79 2368.52 1185.01 2373.57 1176.97 2385.05 1158.58 2389.62 1161.19 2403.4 1140.12 2416.22 1120.53 2422.13 1103.21 2427.97 1085.72 2438.11 1055.37 2435.7 1049.29 2443.78 1020.8 2449.48 1000.66 2456.74 974.984 2473.61 948.83 2484.61 931.783 2503.17 915.252 2540.28 882.155 2564.13 860.882 2581.32 847.169 2594.69 836.514 2635.44 804.071 2648.85 797.128 2654.35 794.379 2673.63 784.824 2690.98 776.198 2714.01 776.817 2725.59 777.126 2743.84 778.26 2763.46 778.088 2766.25 778.054 2772.54 778.088 2780.71 777.573 2784.22 777.332 2790.1 776.886 2797.18 775.923 2809.2 774.308 2818.24 772.177 2821.03 771.524 2861.17 762.245 2881.44 756.643 2900 761.007 2922.31 766.231 2937.29 779.154 2950.9 790.839 2959.53 798.263 2971.38 813.453 2994.79 843.491 3020.8 876.932 3026.82 885.902 3042.18 897.896 3057.54 909.891 3059.47 907.073 3070.26 917.211 3084.62 930.683 3090.02 943.916 3103.59 975.122 3129.54 1034.79 3127.41 1026.98 3129.92 1034.79 3132.46 1042.79 3133.91 1050.66 3137.17 1066.34 3141.29 1086.17 3142.5 1095.72 3147.48 1124.31 3151.36 1146.52 3153.19 1157.65 3154.49 1162.91 3163.29 1198.55 3176.52 1222.75 3180.82 1231.34 3200.92 1271.48 3198.89 1318.94 3194.87 1413.87 3192.43 1471.43 3191.09 1502.71 3177.31 1543.75 3170.2 1564.92 3166.93 1567.36 3149.23 1615.71 3134.25 1656.61 3131.77 1668.02 3119.4 1696.44 3105.66 1728.06 3098.78 1743.87 3084.31 1761.36 3078.2 1768.79 3063.93 1784.74 3026.4 1807.01 2995.2 1825.53 2960.08 1846.36 2908.83 1856.15 2834.95 1870.28 2773.22 1852.75 2749.13 1845.64 2734.11 1841.2 2729.03 1838.52 2699.99 1829.83 2686.02 1825.65 2674.9 1822.59 2665.47 1820.14 2628.13 1810.47 2625.37 1811.2 2606.99 1805.25 2595.6 1801.57 2587.94 1798.4 2574.14 1792.65 2547.7 1781.62 2524.6 1772 2506.95 1761.36 2463.28 1735.07 2440.71 1695.36 2431.48 1678.88 2424.6 1666.61 2415.19 1638.53 2396.39 1582.34 2383.98 1545.26 2377.69 1526.46 2375.32 1513.91 2370.71 1489.62 2369.31 1466.45 2366.56 1420.91 2365.66 1406.79 2365.11 1395.21 2364.77 1387.54Z" stroke="#000000" stroke-width="20.625" stroke-miterlimit="8" fill="#EBE2B3" fill-rule="evenodd"/><path d="M2609.48 914.319 2622.62 889.501 2740.53 951.956 2727.38 976.775Z" stroke="#000000" stroke-width="10.3143" stroke-miterlimit="8" fill="#595850" fill-rule="evenodd"/><path d="M2863.18 946.522 2983.4 888.657 2995.58 913.964 2875.36 971.829Z" stroke="#000000" stroke-width="10.3143" stroke-miterlimit="8" fill="#595850" fill-rule="evenodd"/><path d="M3065 1999C3065 2003.97 2960.23 2008 2831 2008 2701.77 2008 2597 2003.97 2597 1999 2597 1994.03 2701.77 1990 2831 1990 2960.23 1990 3065 1994.03 3065 1999Z" fill="#5B5742" fill-rule="evenodd" fill-opacity="0.470588"/><path d="M2708.5 1038C2708.5 1060.92 2689.92 1079.5 2667 1079.5 2644.08 1079.5 2625.5 1060.92 2625.5 1038 2625.5 1015.08 2644.08 996.5 2667 996.5 2689.92 996.5 2708.5 1015.08 2708.5 1038Z" stroke="#000000" stroke-width="20.625" stroke-miterlimit="8" fill="#231815" fill-rule="evenodd"/><path d="M2983.5 1038C2983.5 1060.92 2964.7 1079.5 2941.5 1079.5 2918.3 1079.5 2899.5 1060.92 2899.5 1038 2899.5 1015.08 2918.3 996.5 2941.5 996.5 2964.7 996.5 2983.5 1015.08 2983.5 1038Z" stroke="#000000" stroke-width="20.625" stroke-miterlimit="8" fill="#231815" fill-rule="evenodd"/><path d="M2691 1051C2691 1062.05 2682.05 1071 2671 1071 2659.95 1071 2651 1062.05 2651 1051 2651 1039.95 2659.95 1031 2671 1031 2682.05 1031 2691 1039.95 2691 1051Z" fill="#FFFFFF" fill-rule="evenodd"/><path d="M2961 1051C2961 1062.05 2952.05 1071 2941 1071 2929.95 1071 2921 1062.05 2921 1051 2921 1039.95 2929.95 1031 2941 1031 2952.05 1031 2961 1039.95 2961 1051Z" fill="#FFFFFF" fill-rule="evenodd"/><path d="M2887 1166C2887 1178.15 2853.2 1188 2811.5 1188 2769.8 1188 2736 1178.15 2736 1166 2736 1153.85 2769.8 1144 2811.5 1144 2853.2 1144 2887 1153.85 2887 1166Z" stroke="#000000" stroke-width="10.3125" stroke-miterlimit="8" fill="#E73A8F" fill-rule="evenodd"/><path d="M2481.49 1189C2489.02 1183.12 2501.41 1171.48 2505.18 1153.9 2507.75 1141.89 2504.11 1129.55 2496.74 1105.35 2491.54 1088.3 2487.61 1075.38 2478.96 1059.05 2471.31 1044.62 2463.31 1034.63 2447.31 1014.65 2428.49 991.149 2418.79 979.223 2404.66 970.385 2395.16 964.444 2374.89 951.768 2359.64 959.35 2350.28 964.004 2346.74 974.345 2345.4 978.28 2331.22 1019.67 2429.4 1149.26 2444.01 1168.35 2456.5 1175.24 2469 1182.12 2481.49 1189Z" fill="#5B5742" fill-rule="evenodd" fill-opacity="0.431373"/><path d="M2480.06 1355.43C2477.64 1355.58 2462.14 1356.33 2451.6 1346.16 2444.47 1339.29 2442.79 1330.49 2441.85 1325.87 2437.69 1305.43 2428.66 1286.22 2424.12 1265.85 2422.3 1257.72 2422.67 1260.63 2391.6 1171.21 2381.13 1141.09 2375.83 1126.06 2372.17 1114.85 2362.68 1085.81 2356.63 1064.51 2345.3 1028.86 2343.76 1025.41 2339.13 1015.11 2340.9 1002.37 2356.24 925.251 2472.39 1066.58 2483.16 1082.54 2500.19 1106.39 2502.41 1115.3 2517.22 1145.24 2524.45 1159.84 2530.14 1170.56 2534.44 1178.36 2557.3 1219.86 2568.96 1230.11 2567.35 1249.35 2566.6 1258.35 2563.23 1265.93 2559.49 1271.9 2550.18 1289.87 2540.55 1303.5 2533.23 1312.83 2514.96 1336.15 2500.96 1354.11 2480.06 1355.43Z" stroke="#000000" stroke-width="20.625" stroke-miterlimit="8" fill="#EBE2B3" fill-rule="evenodd"/><path d="M2985.04 1427.22C2997.18 1435.51 3030.9 1412.75 3044.49 1401.14 3055.64 1391.64 3065.51 1379.17 3069.25 1374.23 3071.73 1371 3076.84 1364.06 3082.41 1354.63 3091.64 1338.98 3094.61 1329.66 3102.7 1308.55 3113.57 1280.17 3122.63 1263.23 3126.37 1236.25 3127.19 1230.46 3128.08 1221.8 3122.99 1216.81 3116.49 1210.46 3103.98 1213.73 3099.48 1214.78 3055.48 1225.18 2956.66 1407.92 2985.04 1427.22L2985.04 1427.22Z" fill="#5B5742" fill-rule="evenodd" fill-opacity="0.431373"/><path d="M3129.93 1034.5C3118.88 1035.65 3102.17 1039.24 3088.91 1051.75 3077.59 1062.42 3073.98 1074.68 3064.32 1109.61 3057.42 1134.59 3053.97 1147.08 3048.52 1167.48 3038.57 1204.71 3031.3 1213.42 3015.32 1256.08 2994.97 1310.4 2971.01 1375.89 2988.62 1391 2992.47 1394.3 3001.37 1396.33 3025.65 1383.74 3096.32 1347.09 3137.97 1268.05 3158.5 1219.9 3154.56 1202.97 3151.16 1183.64 3149.22 1162.25 3147.99 1148.65 3147.49 1135.84 3147.5 1123.96 3145.99 1114.3 3144.32 1104.49 3142.5 1094.54 3138.69 1073.72 3134.46 1053.69 3129.93 1034.5Z" stroke="#000000" stroke-width="20.625" stroke-miterlimit="8" fill="#EBE2B3" fill-rule="evenodd"/></g></svg>