<svg width="205" height="114" xmlns="http://www.w3.org/2000/svg" xmlns:xlink="http://www.w3.org/1999/xlink" xml:space="preserve" overflow="hidden"><g transform="translate(-597 -1481)"><path d="M696.287 1486.03C642.69 1487.35 597.448 1532.12 602.367 1584.37 602.367 1584.8 602.858 1585.68 602.858 1586.12L602.858 1586.12C603.349 1586.56 603.84 1586.56 604.335 1587 668.26 1586.12 732.677 1585.68 796.6 1584.8 802.009 1529.93 751.853 1484.71 696.287 1486.03Z" stroke="#000000" stroke-width="10.3125" stroke-miterlimit="8" fill="#C5E7FA" fill-rule="evenodd"/><path d="M740 1494 740 1590" stroke="#000000" stroke-width="10.3125" stroke-miterlimit="8" fill="none" fill-rule="evenodd"/><path d="M753.268 1521.18 740.571 1512.05C735.686 1508.57 735.198 1502.48 739.104 1498.13L739.104 1498.13C743.01 1493.77 749.85 1493.34 754.732 1496.82L767.429 1505.95C772.314 1509.44 772.802 1515.52 768.896 1519.87L768.896 1519.87C764.99 1524.23 758.153 1524.66 753.268 1521.18Z" stroke="#000000" stroke-width="0.859285" stroke-miterlimit="8" fill="#0081CB" fill-rule="evenodd"/></g></svg>