<svg width="1227" height="969" xmlns="http://www.w3.org/2000/svg" xmlns:xlink="http://www.w3.org/1999/xlink" overflow="hidden"><defs><clipPath id="clip0"><rect x="1450" y="677" width="1227" height="969"/></clipPath></defs><g clip-path="url(#clip0)" transform="translate(-1450 -677)"><path d="M2233.06 1098.67C2256.73 1094.67 2315.44 1157.01 2364.18 1237.9 2382.46 1268.24 2396.74 1296.88 2406.21 1321.04L2412.08 1337.97 2422.31 1341.34C2442.14 1352.62 2449.07 1377.85 2437.78 1397.69 2432.14 1407.6 2423.01 1414.29 2412.81 1417.09L2405.17 1417.67 2340.43 1531.41C2335.17 1540.66 2323.4 1543.88 2314.16 1538.62L2303.13 1532.34C2293.88 1527.08 2290.65 1515.32 2295.91 1506.07L2362.49 1389.11 2362.03 1388.19C2360.63 1383.09 2360.2 1377.72 2360.83 1372.39L2363.53 1364.19 2354.12 1359.06C2325.33 1341.77 2289.13 1314.02 2252.34 1279.93 2178.77 1211.73 2130.72 1143.94 2145.02 1128.52 2153.96 1118.88 2185.13 1131.97 2225.22 1159.8L2235.88 1167.64 2228.61 1146.69C2220.39 1118.87 2221.23 1100.67 2233.06 1098.67Z" stroke="#000000" stroke-width="6.875" stroke-miterlimit="8" fill="#7C561E" fill-rule="evenodd"/><path d="M2302.89 1501.68 2322.13 1512.62 2323.44 1514.32 2323.45 1514.05 2341.32 1525.74 2340.42 1559.21 2322.55 1547.52 2323.03 1529.72 2319.46 1535.98C2316.94 1540.41 2311.3 1541.96 2306.86 1539.44L2287.63 1528.49C2283.2 1525.97 2281.65 1520.32 2284.17 1515.89L2290.29 1505.14C2292.82 1500.7 2298.46 1499.15 2302.89 1501.68Z" stroke="#000000" stroke-width="2.29167" stroke-miterlimit="8" fill="#404040" fill-rule="evenodd"/><path d="M92.9366 0C79.7922 0 68.2032 31.7668 61.3596 80.0831L59.8641 93.229 49.4415 73.6545C34.6262 48.7176 20.7073 36.9539 11.1949 44.2739-7.82956 58.9142-2.021 144.345 24.1682 235.09 37.2629 280.462 52.9732 318.573 67.7882 343.509L71.064 347.665 70.5678 348.767C69.9969 351.204 69.8944 353.792 70.3444 356.414L93.513 491.402C95.3128 501.889 105.273 508.931 115.76 507.131L128.267 504.985C138.754 503.185 145.796 493.224 143.996 482.738L120.827 347.749C120.377 345.128 119.417 342.721 118.067 340.615L116.236 338.7 117.196 330.008 116.951 321.539 119.864 310.078C126.755 277.208 131.017 231.798 131.017 181.64 131.017 81.3228 113.968 0 92.9366 0Z" stroke="#000000" stroke-width="4.58333" stroke-miterlimit="8" fill="#7C561E" fill-rule="evenodd" transform="matrix(-0.957113 0.289714 0.289714 0.957113 1882.3 1061.56)"/><path d="M1891.03 1568.46 1912.99 1565.72 1915.05 1566.29 1914.9 1566.08 1936.22 1564.75 1955.52 1592.1 1934.2 1593.43 1923.94 1578.88 1924.83 1586.03C1925.46 1591.09 1921.86 1595.71 1916.8 1596.34L1894.84 1599.07C1889.78 1599.7 1885.16 1596.11 1884.53 1591.05L1883 1578.77C1882.37 1573.71 1885.96 1569.09 1891.03 1568.46Z" stroke="#000000" stroke-width="2.29167" stroke-miterlimit="8" fill="#404040" fill-rule="evenodd"/><path d="M1686 1040C1652.13 1105.29 1618.26 1170.57 1584.39 1199.46 1550.52 1228.35 1499.71 1234.7 1482.78 1213.33 1465.84 1191.95 1474.31 1131.57 1482.78 1071.2" stroke="#000000" stroke-width="45.8333" stroke-miterlimit="8" fill="none" fill-rule="evenodd"/><path d="M1689.5 1040.5C1655.79 1105.79 1622.08 1171.07 1588.37 1199.96 1554.65 1228.85 1504.09 1235.2 1487.23 1213.83 1470.38 1192.45 1478.8 1132.07 1487.23 1071.7" stroke="#A07737" stroke-width="30.9375" stroke-miterlimit="8" fill="none" fill-rule="evenodd"/><path d="M1534.42 995.756C1551.88 996.208 1570.7 1002.43 1587.16 1013.69L1594.03 1019.41 1592.24 1018.6C1589.17 1017.57 1586.03 1016.89 1582.86 1016.59 1570.17 1015.41 1559.35 1020.64 1552.11 1030.07L1550.65 1033.21 1548.51 1033.92 1548.42 1037.96 1544.17 1047.06 1543.36 1060.68 1541.12 1066.97C1534.07 1080.05 1523.65 1089.72 1512.51 1094.78L1503.32 1096.94 1503.14 1098 1502.51 1097.12 1495.58 1098.75C1489.98 1098.83 1484.52 1097.6 1479.55 1094.91 1459.64 1084.18 1454.95 1054.27 1469.06 1028.11 1479.64 1008.48 1497.79 996.541 1514.6 996.322L1518.53 997.262 1520.82 996.638C1525.21 995.925 1529.77 995.635 1534.42 995.756Z" stroke="#000000" stroke-width="5.72917" stroke-miterlimit="8" fill="#603E27" fill-rule="evenodd"/><path d="M2252.44 788.5C2265.72 788.5 2278.37 791.196 2289.87 796.069L2298.89 802.158 2318.78 809.313C2387.19 847.833 2422.63 968.962 2399.37 1102.68 2389.41 1159.98 2370.07 1211.46 2345.14 1252.61L2329.26 1274.98 2328.32 1277.55C2324.42 1285.53 2318.66 1293.24 2311.24 1300.57L2297.69 1311.02 2288.93 1319.81C2268.45 1336.73 2246.59 1347.73 2224.48 1351.46L2210.49 1352.66 2205.02 1354.55C2158.23 1367.78 2101.83 1375.5 2041.11 1375.5 1939.91 1375.5 1850.69 1354.04 1798.01 1321.41L1779.55 1307.18 1763.26 1322.66C1751.57 1331.32 1738.72 1336.11 1725.22 1336.11 1671.25 1336.11 1627.5 1259.51 1627.5 1165.02 1627.5 1082.34 1661 1013.36 1705.53 997.404L1715.1 995.715 1718.78 993.536 2023.38 852.529 2024.99 847.323C2039.59 812.756 2073.77 788.5 2113.6 788.5Z" stroke="#000000" stroke-width="6.875" stroke-miterlimit="8" fill="#A07737" fill-rule="evenodd"/><path d="M2016.5 888.144C2016.5 833.112 2061.11 788.5 2116.14 788.5L2245.86 788.5C2300.89 788.5 2345.5 833.112 2345.5 888.144L2345.5 1081.86C2345.5 1136.89 2300.89 1181.5 2245.86 1181.5L2116.14 1181.5C2061.11 1181.5 2016.5 1136.89 2016.5 1081.86Z" stroke="#000000" stroke-width="4.58333" stroke-miterlimit="8" fill="#A07737" fill-rule="evenodd"/><path d="M1809.6 1104.74C1843.07 1112.42 1852.02 1197.91 1829.59 1295.69 1818.37 1344.57 1801.43 1387.28 1783.12 1416.8L1775.92 1426.91 1774.41 1435.25 1766.2 1454.46 1775.97 1605.65C1776.83 1618.91 1766.78 1630.34 1753.53 1631.2L1737.72 1632.22C1724.47 1633.08 1713.03 1623.03 1712.17 1609.78L1701.26 1440.78 1692.76 1430.37C1674.76 1400.65 1658.27 1357.77 1647.58 1308.77 1626.19 1210.76 1636.05 1125.37 1669.6 1118.05 1686.38 1114.38 1705.9 1130.93 1723.9 1160.65L1736.12 1183.53 1741.44 1171.27C1763.13 1126.67 1788.68 1099.94 1809.6 1104.74Z" stroke="#000000" stroke-width="6.875" stroke-miterlimit="8" fill="#A07737" fill-rule="evenodd"/><path d="M1718.96 1591 1747.6 1591 1750.16 1592.07 1750 1591.76 1777.59 1593.48 1798 1632 1770.41 1630.28 1759.55 1609.8 1759.55 1619.19C1759.55 1625.84 1754.2 1631.24 1747.6 1631.24L1718.96 1631.24C1712.35 1631.24 1707 1625.84 1707 1619.19L1707 1603.05C1707 1596.4 1712.35 1591 1718.96 1591Z" stroke="#000000" stroke-width="2.29167" stroke-miterlimit="8" fill="#404040" fill-rule="evenodd"/><path d="M2158.3 1090.5C2192.65 1090.5 2220.5 1171.87 2220.5 1272.26 2220.5 1322.45 2213.54 1367.89 2202.28 1400.78L2197.53 1412.25 2197.93 1420.72 2197.59 1422.57 2207.5 1433.43C2211.25 1439.58 2213.85 1446.58 2214.97 1454.16 2217.21 1469.31 2213.1 1483.94 2204.64 1495.34L2195.84 1503.38 2198.11 1602.53C2198.42 1615.81 2187.9 1626.83 2174.62 1627.13L2158.78 1627.49C2145.5 1627.8 2134.49 1617.27 2134.18 1603.99L2132.01 1509.2 2127.04 1506.82C2115.64 1498.36 2107.47 1485.54 2105.23 1470.39 2104.11 1462.81 2104.58 1455.36 2106.39 1448.38L2114.7 1431.02 2080.55 1387.65C2068.43 1369.33 2056.67 1348.44 2045.98 1325.74 2003.2 1234.94 1993.71 1149.45 2024.79 1134.8 2040.32 1127.48 2063.06 1139.25 2087.26 1164.2L2104.28 1183.79 2106.72 1170.63C2117.9 1122.29 2136.83 1090.5 2158.3 1090.5Z" stroke="#000000" stroke-width="6.875" stroke-miterlimit="8" fill="#A07737" fill-rule="evenodd"/><path d="M2139.04 1604.26 2167.91 1603.6 2170.52 1604.61 2170.35 1604.31 2198.2 1605.39 2219.66 1643.45 2191.81 1642.37 2180.4 1622.13 2180.61 1631.52C2180.76 1638.18 2175.49 1643.7 2168.83 1643.85L2139.96 1644.51C2133.31 1644.66 2127.78 1639.39 2127.63 1632.73L2127.26 1616.59C2127.11 1609.93 2132.38 1604.41 2139.04 1604.26Z" stroke="#000000" stroke-width="2.29167" stroke-miterlimit="8" fill="#404040" fill-rule="evenodd"/><path d="M1648.23 1111C1644.12 1088.87 1658.73 1067.6 1680.85 1063.49L2281.72 951.827C2303.85 947.715 2325.12 962.32 2329.24 984.449L2359.02 1144.72C2363.13 1166.84 2348.53 1188.12 2326.4 1192.23L1725.53 1303.89C1703.4 1308 1682.13 1293.4 1678.02 1271.27Z" fill="#A07737" fill-rule="evenodd"/><path d="M2515.08 845.5 2517.06 846.937C2534.68 857.485 2559.02 864.009 2585.91 864.009 2599.35 864.009 2612.16 862.378 2623.81 859.428L2635.99 854.514 2637.5 861.11C2637.5 891.701 2609.29 916.5 2574.5 916.5 2539.71 916.5 2511.5 891.701 2511.5 861.11Z" stroke="#000000" stroke-width="6.875" stroke-miterlimit="8" fill="#A07737" fill-rule="evenodd"/><path d="M2632.94 859.336C2636.95 878.449 2610.54 900.176 2573.93 907.864 2537.33 915.551 2504.4 906.289 2500.39 887.176 2531.85 900.523 2584.6 893.491 2618.19 871.468 2623.95 867.689 2628.92 863.604 2632.94 859.336Z" fill="#603E27" fill-rule="evenodd"/><path d="M177.625 0C114.866 32.7055 76.3771 92.1286 76.3771 156.316L77.2718 168.303 65.1855 175.403C45.1079 184.922 26.8056 186.541 13.0722 178.318 8.49469 175.576 4.64108 171.871 1.49734 167.328L1.18264 166.638 0 156.316C0 69.985 79.5255 0 177.625 0Z" stroke="#000000" stroke-width="6.875" stroke-miterlimit="8" fill="#B4B9B8" fill-rule="evenodd" transform="matrix(-0.238962 -0.971029 -0.971029 0.238962 2636.58 864.57)"/><path d="M2405.5 787.5C2448.03 787.5 2485.54 797.978 2507.68 813.913L2514.49 820.012 2523.8 824.56C2555.26 845.504 2577.33 894.536 2577.33 951.683 2577.33 961.208 2576.72 970.507 2575.55 979.488L2571.48 1000.15 2580.46 1014.67C2606.28 1064.75 2608.16 1117.22 2580.19 1153.44 2535.42 1211.39 2431.16 1205.81 2347.31 1140.97 2294.9 1100.45 2262.87 1046.37 2257.15 997.366L2256.97 976.01 2256.1 973.187C2255.05 968.062 2254.5 962.756 2254.5 957.321L2254.5 892.494C2254.5 870.756 2263.31 851.075 2277.55 836.829L2288.57 829.395 2291.95 824.09C2310.66 802.587 2354.46 787.5 2405.5 787.5Z" stroke="#000000" stroke-width="6.875" stroke-miterlimit="8" fill="#A07737" fill-rule="evenodd"/><path d="M2265.77 851.5 2274.94 855.62C2292.59 867.374 2303.5 883.612 2303.5 901.548 2303.5 937.42 2259.85 966.5 2206 966.5 2152.15 966.5 2108.5 937.42 2108.5 901.548L2108.64 900.625 2123.4 901.548C2181.1 901.548 2231.96 883.406 2262 855.812Z" stroke="#000000" stroke-width="6.875" stroke-miterlimit="8" fill="#A07737" fill-rule="evenodd"/><path d="M2229.43 894.843C2231.74 923.064 2207.65 948.074 2175.6 950.706 2143.56 953.338 2115.7 932.594 2113.39 904.374 2144.39 930.238 2193.82 928.591 2223.79 900.695 2225.79 898.835 2227.67 896.882 2229.43 894.843Z" fill="#603E27" fill-rule="evenodd"/><path d="M2261 884C2261 852.52 2286.97 827 2319 827 2351.03 827 2377 852.52 2377 884 2377 915.48 2351.03 941 2319 941 2286.97 941 2261 915.48 2261 884Z" fill="#A07737" fill-rule="evenodd"/><path d="M2127.5 717.5C2160.27 780.038 2219.82 818.392 2284.14 818.392L2296.15 817.5 2303.26 829.544C2312.8 849.551 2314.43 867.789 2306.19 881.474 2303.44 886.035 2299.73 889.875 2295.17 893.008L2294.48 893.321 2284.14 894.5C2197.63 894.5 2127.5 815.254 2127.5 717.5Z" stroke="#000000" stroke-width="6.875" stroke-miterlimit="8" fill="#B4B9B8" fill-rule="evenodd"/><path d="M2486.5 924.5C2486.5 904.618 2502.62 888.5 2522.5 888.5 2542.38 888.5 2558.5 904.618 2558.5 924.5 2558.5 944.382 2542.38 960.5 2522.5 960.5 2502.62 960.5 2486.5 944.382 2486.5 924.5Z" stroke="#000000" stroke-width="4.58333" stroke-miterlimit="8" fill="#FFFFFF" fill-rule="evenodd"/><path d="M2528 931C2528 924.925 2532.92 920 2539 920 2545.08 920 2550 924.925 2550 931 2550 937.075 2545.08 942 2539 942 2532.92 942 2528 937.075 2528 931Z" fill-rule="evenodd"/><path d="M2363.5 927.5C2363.5 907.618 2379.62 891.5 2399.5 891.5 2419.38 891.5 2435.5 907.618 2435.5 927.5 2435.5 947.382 2419.38 963.5 2399.5 963.5 2379.62 963.5 2363.5 947.382 2363.5 927.5Z" stroke="#000000" stroke-width="4.58333" stroke-miterlimit="8" fill="#FFFFFF" fill-rule="evenodd"/><path d="M2399 936C2399 929.925 2403.92 925 2410 925 2416.08 925 2421 929.925 2421 936 2421 942.075 2416.08 947 2410 947 2403.92 947 2399 942.075 2399 936Z" fill-rule="evenodd"/><path d="M2464.52 1132.94C2447.69 1127.56 2430.87 1122.19 2412.64 1111.6 2394.41 1101.01 2374.77 1085.2 2355.13 1069.4" stroke="#000000" stroke-width="6.875" stroke-linecap="round" stroke-miterlimit="8" fill="none" fill-rule="evenodd"/><path d="M2427.5 1053.65C2427.5 1018.77 2455.77 990.5 2490.65 990.5L2610.35 990.5C2645.23 990.5 2673.5 1018.77 2673.5 1053.65L2673.5 1076.35C2673.5 1111.23 2645.23 1139.5 2610.35 1139.5L2490.65 1139.5C2455.77 1139.5 2427.5 1111.23 2427.5 1076.35Z" stroke="#000000" stroke-width="6.875" stroke-miterlimit="8" fill="#543C18" fill-rule="evenodd"/><path d="M2593.5 1069C2593.5 1049.95 2604.69 1034.5 2618.5 1034.5 2632.31 1034.5 2643.5 1049.95 2643.5 1069 2643.5 1088.05 2632.31 1103.5 2618.5 1103.5 2604.69 1103.5 2593.5 1088.05 2593.5 1069Z" stroke="#000000" stroke-width="4.58333" stroke-miterlimit="8" fill="#3F2708" fill-rule="evenodd"/><path d="M2497.5 1071.5C2497.5 1052.72 2512.72 1037.5 2531.5 1037.5 2550.28 1037.5 2565.5 1052.72 2565.5 1071.5 2565.5 1090.28 2550.28 1105.5 2531.5 1105.5 2512.72 1105.5 2497.5 1090.28 2497.5 1071.5Z" stroke="#000000" stroke-width="4.58333" stroke-miterlimit="8" fill="#3F2708" fill-rule="evenodd"/><path d="M2596.43 1067.66C2622.22 1076.33 2636.09 1104.26 2627.42 1130.05 2618.75 1155.84 2590.82 1169.72 2565.03 1161.05 2539.24 1152.38 2525.36 1124.44 2534.03 1098.65 2538.38 1085.74 2547.88 1075.19 2560.27 1069.54L2565.25 1080.43C2546.52 1088.98 2538.26 1111.1 2546.81 1129.83 2555.36 1148.57 2577.48 1156.82 2596.21 1148.27 2614.94 1139.72 2623.2 1117.6 2614.65 1098.87 2610.36 1089.49 2602.39 1082.3 2592.61 1079.01Z" stroke="#000000" stroke-width="4.58333" stroke-linecap="round" stroke-linejoin="round" stroke-miterlimit="10" fill="#FFD966" fill-rule="evenodd"/><path d="M2340.94 896.616C2338.27 887.905 2355.1 875.01 2378.53 867.815 2401.96 860.62 2423.13 861.849 2425.8 870.56 2405.55 867.245 2371.77 875.687 2350.34 889.416 2346.66 891.771 2343.5 894.195 2340.94 896.616Z" fill="#603E27" fill-rule="evenodd"/><path d="M2470.56 871.301C2471.2 862.21 2491.54 856.223 2515.99 857.929 2540.44 859.634 2559.75 868.386 2559.12 877.477 2541.41 867.107 2506.85 862.845 2481.92 867.958 2477.64 868.835 2473.82 869.96 2470.56 871.301Z" fill="#603E27" fill-rule="evenodd"/></g></svg>