<svg width="1227" height="962" xmlns="http://www.w3.org/2000/svg" xmlns:xlink="http://www.w3.org/1999/xlink" overflow="hidden"><defs><clipPath id="clip0"><rect x="1450" y="677" width="1227" height="962"/></clipPath></defs><g clip-path="url(#clip0)" transform="translate(-1450 -677)"><path d="M92.9366 0C79.7922 0 68.2032 31.7668 61.3596 80.0831L59.8641 93.229 49.4412 73.6545C34.6265 48.7176 20.7073 36.9539 11.1949 44.2739-7.82956 58.9142-2.021 144.345 24.1682 235.09 30.7156 257.776 37.9168 278.647 45.3331 296.963L52.0862 310.961 51.504 311.668C46.4645 320.964 44.9715 332.184 48.2196 343.122 51.8736 355.427 60.7501 364.756 71.7108 369.407L75.581 370.422 112.705 495.44C115.734 505.64 126.457 511.453 136.658 508.424L148.823 504.812C159.023 501.783 164.836 491.059 161.807 480.859L123.442 351.662 127.252 343.753C129.646 336.162 129.877 327.801 127.441 319.597L120.395 306.319 128.024 252.342C129.952 230.611 131.017 206.719 131.017 181.64 131.017 81.3228 113.968 0 92.9366 0Z" stroke="#000000" stroke-width="6.875" stroke-miterlimit="8" fill="#7C561E" fill-rule="evenodd" transform="matrix(-0.958627 0.284664 0.284664 0.958627 2317.63 1064.96)"/><path d="M2303.2 1565 2325.23 1565 2327.2 1565.81 2327.07 1565.58 2348.3 1566.88 2364 1596 2342.78 1594.7 2334.42 1579.21 2334.42 1586.31C2334.42 1591.34 2330.31 1595.42 2325.23 1595.42L2303.2 1595.42C2298.12 1595.42 2294 1591.34 2294 1586.31L2294 1574.11C2294 1569.08 2298.12 1565 2303.2 1565Z" stroke="#000000" stroke-width="2.29167" stroke-miterlimit="8" fill="#404040" fill-rule="evenodd"/><path d="M92.9366 0C79.7922 0 68.2032 31.7668 61.3596 80.0831L59.8641 93.229 49.4412 73.6545C34.6262 48.7176 20.7073 36.9539 11.1949 44.2739-7.82956 58.9142-2.02136 144.345 24.1682 235.09 30.7156 257.776 37.9168 278.647 45.3331 296.963L65.9729 339.747 63.5773 344.552C62.9115 346.964 62.7072 349.547 63.054 352.184L80.9117 487.978C82.299 498.527 91.9752 505.954 102.525 504.567L115.107 502.912C125.656 501.525 133.083 491.849 131.696 481.299L114.733 352.308 117.196 330.008 116.952 321.539 119.863 310.078C126.755 277.208 131.017 231.798 131.017 181.64 131.017 81.3228 113.968 0 92.9366 0Z" stroke="#000000" stroke-width="6.875" stroke-miterlimit="8" fill="#7C561E" fill-rule="evenodd" transform="matrix(-0.986334 0.164758 0.164758 0.986334 1907.65 1064.27)"/><path d="M1863.43 1564.42 1885.55 1563.65 1887.55 1564.4 1887.42 1564.17 1908.77 1564.74 1925.56 1593.71 1904.21 1593.14 1895.28 1577.73 1895.53 1584.92C1895.71 1590.02 1891.72 1594.3 1886.62 1594.48L1864.5 1595.25C1859.41 1595.42 1855.13 1591.43 1854.95 1586.34L1854.52 1573.97C1854.34 1568.87 1858.33 1564.59 1863.43 1564.42Z" stroke="#000000" stroke-width="2.29167" stroke-miterlimit="8" fill="#404040" fill-rule="evenodd"/><path d="M1686 1040C1652.13 1105.29 1618.26 1170.57 1584.39 1199.46 1550.52 1228.35 1499.71 1234.7 1482.78 1213.33 1465.84 1191.95 1474.31 1131.57 1482.78 1071.2" stroke="#000000" stroke-width="45.8333" stroke-miterlimit="8" fill="none" fill-rule="evenodd"/><path d="M1689.5 1040.5C1655.79 1105.79 1622.08 1171.07 1588.37 1199.96 1554.65 1228.85 1504.09 1235.2 1487.23 1213.83 1470.38 1192.45 1478.8 1132.07 1487.23 1071.7" stroke="#A07737" stroke-width="30.9375" stroke-miterlimit="8" fill="none" fill-rule="evenodd"/><path d="M1534.42 995.756C1551.88 996.208 1570.7 1002.43 1587.16 1013.69L1594.03 1019.41 1592.24 1018.6C1589.17 1017.57 1586.03 1016.89 1582.86 1016.59 1570.17 1015.41 1559.35 1020.64 1552.11 1030.07L1550.65 1033.21 1548.51 1033.92 1548.42 1037.96 1544.17 1047.06 1543.36 1060.68 1541.12 1066.97C1534.07 1080.05 1523.65 1089.72 1512.51 1094.78L1503.32 1096.94 1503.14 1098 1502.51 1097.12 1495.58 1098.75C1489.98 1098.83 1484.52 1097.6 1479.55 1094.91 1459.64 1084.18 1454.95 1054.27 1469.06 1028.11 1479.64 1008.48 1497.79 996.541 1514.6 996.322L1518.53 997.262 1520.82 996.638C1525.21 995.925 1529.77 995.635 1534.42 995.756Z" stroke="#000000" stroke-width="5.72917" stroke-miterlimit="8" fill="#603E27" fill-rule="evenodd"/><path d="M2252.44 788.5C2265.72 788.5 2278.37 791.196 2289.87 796.069L2298.89 802.158 2318.78 809.313C2387.19 847.833 2422.63 968.962 2399.37 1102.68 2389.41 1159.98 2370.07 1211.46 2345.14 1252.61L2329.26 1274.98 2328.32 1277.55C2324.42 1285.53 2318.66 1293.24 2311.24 1300.57L2297.69 1311.02 2288.93 1319.81C2268.45 1336.73 2246.59 1347.73 2224.48 1351.46L2210.49 1352.66 2205.02 1354.55C2158.23 1367.78 2101.83 1375.5 2041.11 1375.5 1939.91 1375.5 1850.69 1354.04 1798.01 1321.41L1779.55 1307.18 1763.26 1322.66C1751.57 1331.32 1738.72 1336.11 1725.22 1336.11 1671.25 1336.11 1627.5 1259.51 1627.5 1165.02 1627.5 1082.34 1661 1013.36 1705.53 997.404L1715.1 995.715 1718.78 993.536 2023.38 852.529 2024.99 847.323C2039.59 812.756 2073.77 788.5 2113.6 788.5Z" stroke="#000000" stroke-width="6.875" stroke-miterlimit="8" fill="#A07737" fill-rule="evenodd"/><path d="M2016.5 888.144C2016.5 833.112 2061.11 788.5 2116.14 788.5L2245.86 788.5C2300.89 788.5 2345.5 833.112 2345.5 888.144L2345.5 1081.86C2345.5 1136.89 2300.89 1181.5 2245.86 1181.5L2116.14 1181.5C2061.11 1181.5 2016.5 1136.89 2016.5 1081.86Z" stroke="#000000" stroke-width="4.58333" stroke-miterlimit="8" fill="#A07737" fill-rule="evenodd"/><path d="M1808.49 1104.2C1842.01 1111.66 1851.51 1197.09 1829.7 1295.01 1818.8 1343.97 1802.14 1386.78 1784.01 1416.42L1776.88 1426.57 1775.43 1434.92 1768.88 1450.51 1761.37 1607.7C1760.73 1620.96 1749.47 1631.2 1736.2 1630.57L1720.38 1629.81C1707.12 1629.18 1696.88 1617.91 1697.51 1604.65L1705.17 1444.38 1693.74 1430.57C1675.55 1400.97 1658.79 1358.19 1647.78 1309.26 1625.76 1211.39 1635.08 1125.94 1668.58 1118.4 1685.33 1114.63 1704.96 1131.05 1723.15 1160.65L1735.51 1183.46 1740.75 1171.16C1762.16 1126.42 1787.54 1099.53 1808.49 1104.2Z" stroke="#000000" stroke-width="6.875" stroke-miterlimit="8" fill="#A07737" fill-rule="evenodd"/><path d="M1706.02 1586.97 1734.71 1590.2 1737.16 1591.55 1737.03 1591.23 1764.48 1596.06 1780.62 1636.66 1753.17 1631.84 1744.59 1610.24 1743.53 1619.58C1742.79 1626.19 1736.82 1630.95 1730.2 1630.21L1701.51 1626.97C1694.89 1626.23 1690.13 1620.26 1690.88 1613.64L1692.68 1597.6C1693.43 1590.98 1699.4 1586.22 1706.02 1586.97Z" stroke="#000000" stroke-width="2.29167" stroke-miterlimit="8" fill="#404040" fill-rule="evenodd"/><path d="M2086.52 1086.82C2119.37 1090 2169.98 1147.07 2207.54 1226.41 2229 1271.75 2242.14 1315.77 2246.03 1350.29L2246.64 1362.68 2250.62 1370.17C2252.83 1375.19 2254.56 1379.99 2255.79 1384.52L2257.58 1395.13 2258.46 1395.7 2260.16 1397.33 2261.81 1398.57 2262.44 1399.54 2265.33 1402.33 2267.38 1407.09 2270.58 1411.97C2277.31 1426.45 2277.77 1443.73 2270.34 1459.27 2263.74 1473.09 2252.16 1482.92 2238.79 1487.65L2227.01 1489.4 2173.56 1572.87C2166.4 1584.05 2151.53 1587.31 2140.35 1580.15L2127.01 1571.61C2115.82 1564.45 2112.56 1549.58 2119.73 1538.39L2170.82 1458.6 2168.03 1453.85C2163.3 1440.47 2163.67 1425.29 2170.27 1411.47L2170.48 1411.2 2157.89 1405.68C2131.24 1392.45 2101.77 1373.27 2072.71 1349.38 1995.23 1285.66 1950.1 1212.5 1971.91 1185.98 1982.82 1172.71 2008.4 1173.62 2040.93 1185.81L2064.69 1196.22 2061.27 1183.29C2050.7 1134.84 2054.21 1098.03 2073.61 1088.85 2077.49 1087.01 2081.82 1086.36 2086.52 1086.82Z" stroke="#000000" stroke-width="6.875" stroke-miterlimit="8" fill="#A07737" fill-rule="evenodd"/><path d="M2123.24 1542.11 2147.56 1557.69 2149.16 1559.98 2149.19 1559.63 2171.69 1576.08 2168.24 1619.64 2145.74 1603.19 2147.57 1580.03 2142.51 1587.94C2138.91 1593.55 2131.46 1595.18 2125.85 1591.59L2101.53 1576.02C2095.92 1572.43 2094.29 1564.97 2097.88 1559.36L2106.59 1545.76C2110.18 1540.16 2117.63 1538.52 2123.24 1542.11Z" stroke="#000000" stroke-width="2.29167" stroke-miterlimit="8" fill="#404040" fill-rule="evenodd"/><path d="M1642.73 1171.1C1632.75 1117.44 1668.17 1065.85 1721.84 1055.87L2224.62 962.44C2278.28 952.466 2329.87 987.887 2339.85 1041.55L2348.41 1087.61C2358.38 1141.28 2322.96 1192.87 2269.29 1202.84L1766.52 1296.27C1712.85 1306.25 1661.26 1270.83 1651.29 1217.16Z" fill="#A07737" fill-rule="evenodd"/><path d="M2515.08 845.5 2517.06 846.937C2534.68 857.485 2559.02 864.009 2585.91 864.009 2599.35 864.009 2612.16 862.378 2623.81 859.428L2635.99 854.514 2637.5 861.11C2637.5 891.701 2609.29 916.5 2574.5 916.5 2539.71 916.5 2511.5 891.701 2511.5 861.11Z" stroke="#000000" stroke-width="6.875" stroke-miterlimit="8" fill="#A07737" fill-rule="evenodd"/><path d="M2632.94 859.336C2636.95 878.449 2610.54 900.176 2573.93 907.864 2537.33 915.551 2504.4 906.289 2500.39 887.176 2531.85 900.523 2584.6 893.491 2618.19 871.468 2623.95 867.689 2628.92 863.604 2632.94 859.336Z" fill="#603E27" fill-rule="evenodd"/><path d="M177.625 0C114.866 32.7055 76.3771 92.1286 76.3771 156.316L77.2718 168.303 65.1855 175.403C45.1079 184.922 26.8056 186.541 13.0722 178.318 8.49469 175.576 4.64108 171.871 1.49734 167.328L1.18264 166.638 0 156.316C0 69.985 79.5255 0 177.625 0Z" stroke="#000000" stroke-width="6.875" stroke-miterlimit="8" fill="#B4B9B8" fill-rule="evenodd" transform="matrix(-0.238962 -0.971029 -0.971029 0.238962 2636.58 864.57)"/><path d="M2405.5 787.5C2448.03 787.5 2485.54 797.978 2507.68 813.913L2514.49 820.012 2523.8 824.56C2555.26 845.504 2577.33 894.536 2577.33 951.683 2577.33 961.208 2576.72 970.507 2575.55 979.488L2571.48 1000.15 2580.46 1014.67C2606.28 1064.75 2608.16 1117.22 2580.19 1153.44 2535.42 1211.39 2431.16 1205.81 2347.31 1140.97 2294.9 1100.45 2262.87 1046.37 2257.15 997.366L2256.97 976.01 2256.1 973.187C2255.05 968.062 2254.5 962.756 2254.5 957.321L2254.5 892.494C2254.5 870.756 2263.31 851.075 2277.55 836.829L2288.57 829.395 2291.95 824.09C2310.66 802.587 2354.46 787.5 2405.5 787.5Z" stroke="#000000" stroke-width="6.875" stroke-miterlimit="8" fill="#A07737" fill-rule="evenodd"/><path d="M2265.77 851.5 2274.94 855.62C2292.59 867.374 2303.5 883.612 2303.5 901.548 2303.5 937.42 2259.85 966.5 2206 966.5 2152.15 966.5 2108.5 937.42 2108.5 901.548L2108.64 900.625 2123.4 901.548C2181.1 901.548 2231.96 883.406 2262 855.812Z" stroke="#000000" stroke-width="6.875" stroke-miterlimit="8" fill="#A07737" fill-rule="evenodd"/><path d="M2229.43 894.843C2231.74 923.064 2207.65 948.074 2175.6 950.706 2143.56 953.338 2115.7 932.594 2113.39 904.374 2144.39 930.238 2193.82 928.591 2223.79 900.695 2225.79 898.835 2227.67 896.882 2229.43 894.843Z" fill="#603E27" fill-rule="evenodd"/><path d="M2261 884C2261 852.52 2286.97 827 2319 827 2351.03 827 2377 852.52 2377 884 2377 915.48 2351.03 941 2319 941 2286.97 941 2261 915.48 2261 884Z" fill="#A07737" fill-rule="evenodd"/><path d="M2127.5 717.5C2160.27 780.038 2219.82 818.392 2284.14 818.392L2296.15 817.5 2303.26 829.544C2312.8 849.551 2314.43 867.789 2306.19 881.474 2303.44 886.035 2299.73 889.875 2295.17 893.008L2294.48 893.321 2284.14 894.5C2197.63 894.5 2127.5 815.254 2127.5 717.5Z" stroke="#000000" stroke-width="6.875" stroke-miterlimit="8" fill="#B4B9B8" fill-rule="evenodd"/><path d="M2427.5 1053.65C2427.5 1018.77 2455.77 990.5 2490.65 990.5L2610.35 990.5C2645.23 990.5 2673.5 1018.77 2673.5 1053.65L2673.5 1076.35C2673.5 1111.23 2645.23 1139.5 2610.35 1139.5L2490.65 1139.5C2455.77 1139.5 2427.5 1111.23 2427.5 1076.35Z" stroke="#000000" stroke-width="6.875" stroke-miterlimit="8" fill="#543C18" fill-rule="evenodd"/><path d="M2593.5 1069C2593.5 1049.95 2604.69 1034.5 2618.5 1034.5 2632.31 1034.5 2643.5 1049.95 2643.5 1069 2643.5 1088.05 2632.31 1103.5 2618.5 1103.5 2604.69 1103.5 2593.5 1088.05 2593.5 1069Z" stroke="#000000" stroke-width="4.58333" stroke-miterlimit="8" fill="#3F2708" fill-rule="evenodd"/><path d="M2497.5 1071.5C2497.5 1052.72 2512.72 1037.5 2531.5 1037.5 2550.28 1037.5 2565.5 1052.72 2565.5 1071.5 2565.5 1090.28 2550.28 1105.5 2531.5 1105.5 2512.72 1105.5 2497.5 1090.28 2497.5 1071.5Z" stroke="#000000" stroke-width="4.58333" stroke-miterlimit="8" fill="#3F2708" fill-rule="evenodd"/><path d="M2596.43 1067.66C2622.22 1076.33 2636.09 1104.26 2627.42 1130.05 2618.75 1155.84 2590.82 1169.72 2565.03 1161.05 2539.24 1152.38 2525.36 1124.44 2534.03 1098.65 2538.38 1085.74 2547.88 1075.19 2560.27 1069.54L2565.25 1080.43C2546.52 1088.98 2538.26 1111.1 2546.81 1129.83 2555.36 1148.57 2577.48 1156.82 2596.21 1148.27 2614.94 1139.72 2623.2 1117.6 2614.65 1098.87 2610.36 1089.49 2602.39 1082.3 2592.61 1079.01Z" stroke="#000000" stroke-width="4.58333" stroke-linecap="round" stroke-linejoin="round" stroke-miterlimit="10" fill="#FFD966" fill-rule="evenodd"/><path d="M2451.36 902.622C2447.36 910.807 2426.26 908.709 2404.24 897.935 2382.22 887.162 2367.62 871.793 2371.63 863.608 2384.13 879.873 2414.56 896.816 2439.58 901.45 2443.88 902.245 2447.84 902.64 2451.36 902.622Z" fill="#3F2708" fill-rule="evenodd"/><path d="M2553.01 850.894C2558 858.518 2545.42 875.582 2524.91 889.006 2504.4 902.431 2483.73 907.133 2478.74 899.508 2499.11 897.064 2529.22 879.565 2545.99 860.422 2548.86 857.138 2551.23 853.929 2553.01 850.894Z" fill="#3F2708" fill-rule="evenodd"/><path d="M2447.71 921.554C2436.68 952.433 2407.75 970.326 2383.09 961.518 2358.43 952.711 2347.38 920.539 2358.41 889.661 2380.79 916.323 2413.5 928.003 2447.71 921.554Z" stroke="#000000" stroke-width="4.58333" stroke-miterlimit="8" fill="#C00000" fill-rule="evenodd"/><path d="M2397 939C2397 932.925 2401.92 928 2408 928 2414.08 928 2419 932.925 2419 939 2419 945.075 2414.08 950 2408 950 2401.92 950 2397 945.075 2397 939Z" fill-rule="evenodd"/><path d="M2560.52 884.996C2574.96 914.439 2567.59 947.649 2544.08 959.174 2520.57 970.699 2489.81 956.173 2475.38 926.731 2510.1 929.291 2541.28 914.007 2560.52 884.996Z" stroke="#000000" stroke-width="4.58333" stroke-miterlimit="8" fill="#C00000" fill-rule="evenodd"/><path d="M2513 939C2513 932.925 2517.93 928 2524 928 2530.08 928 2535 932.925 2535 939 2535 945.075 2530.08 950 2524 950 2517.93 950 2513 945.075 2513 939Z" fill-rule="evenodd"/></g></svg>