<svg width="859" height="671" xmlns="http://www.w3.org/2000/svg" xmlns:xlink="http://www.w3.org/1999/xlink" xml:space="preserve" overflow="hidden"><g transform="translate(-1388 -26)"><path d="M1552.24 150.426C1549.08 134.73 1521.35 114.625 1504.86 103.867 1488.36 93.1086 1467.83 87.4651 1453.27 85.8779 1438.71 84.2906 1426.25 87.8178 1417.47 94.3432 1408.7 100.869 1401.86 114.448 1400.63 125.03 1399.4 135.612 1407.3 149.72 1410.1 157.833 1412.91 165.946 1416.07 176.704 1417.47 173.706 1418.88 170.707 1416.42 150.25 1418.53 139.844 1420.63 129.439 1422.21 116.741 1430.11 111.274 1438 105.807 1454.5 103.338 1465.9 107.041 1477.31 110.745 1489.24 120.797 1498.54 133.495 1507.84 146.193 1517.49 172.471 1521.7 183.229 1525.92 193.987 1518.37 203.158 1523.81 198.043 1529.25 192.929 1555.39 166.122 1552.24 150.426Z" stroke="#7F6000" stroke-width="4.58333" stroke-miterlimit="8" fill="#7F6000" fill-rule="evenodd"/><path d="M163.678 63.8304C160.172 50.4186 126.87 37.4915 106.421 26.9882 85.9717 16.4849 58.7064-4.36001 40.9841 0.8108 23.2617 5.98161 1.64432 51.7112 0.0862862 58.0132-1.47175 64.3151 18.3929 42.9855 31.636 38.6226 44.8791 34.2596 63.5752 20.3631 79.545 31.8359 95.5145 43.3086 113.626 102.127 127.454 107.459 141.281 112.792 167.183 77.2422 163.678 63.8304Z" stroke="#7F6000" stroke-width="4.58333" stroke-miterlimit="8" fill="#7F6000" fill-rule="evenodd" transform="matrix(-1 0 0 1 2100.5 28.5)"/><path d="M2049.81 597.559C1953.82 549.106 1884.81 492.403 1895.65 470.911 1906.5 449.419 1993.11 471.275 2089.1 519.729 2185.09 568.182 2254.11 624.885 2243.26 646.377 2232.41 667.869 2145.8 646.013 2049.81 597.559Z" stroke="#DA9BE9" stroke-width="4.58333" stroke-miterlimit="8" fill="#DA9BE9" fill-rule="evenodd"/><path d="M1551.85 404.431C1625.2 455.69 1673.14 513.731 1658.93 534.068 1644.72 554.405 1573.73 529.338 1500.38 478.079 1427.03 426.819 1379.09 368.779 1393.31 348.442 1407.52 328.104 1478.5 353.172 1551.85 404.431Z" stroke="#9DC3E6" stroke-width="4.58333" stroke-miterlimit="8" fill="#9DC3E6" fill-rule="evenodd"/><path d="M1625.5 524C1625.5 444.747 1697.36 380.5 1786 380.5 1874.64 380.5 1946.5 444.747 1946.5 524 1946.5 603.253 1874.64 667.5 1786 667.5 1697.36 667.5 1625.5 603.253 1625.5 524Z" stroke="#BDD7EE" stroke-width="4.58333" stroke-miterlimit="8" fill="#BDD7EE" fill-rule="evenodd"/><path d="M1790.5 612.5 1765.98 694.5 1686.02 694.5 1661.5 612.5Z" stroke="#BDD7EE" stroke-width="4.58333" stroke-miterlimit="8" fill="#BDD7EE" fill-rule="evenodd"/><path d="M1913.5 612.5 1888.98 694.5 1815.02 694.5 1790.5 612.5Z" stroke="#BDD7EE" stroke-width="4.58333" stroke-miterlimit="8" fill="#BDD7EE" fill-rule="evenodd"/><path d="M1496.51 311.269C1485.03 194.035 1570.76 89.69 1688 78.2093L1822.27 65.0604C1939.5 53.5797 2043.85 139.31 2055.33 256.545L2055.33 256.545C2066.81 373.78 1981.08 478.125 1863.84 489.606L1729.57 502.754C1612.34 514.234 1507.99 428.504 1496.51 311.269Z" stroke="#BDD7EE" stroke-width="4.58333" stroke-miterlimit="8" fill="#BDD7EE" fill-rule="evenodd"/><path d="M1775.07 184.491C1796.64 148.579 1849.23 140.546 1892.52 166.549 1935.82 192.553 1953.44 242.745 1931.87 278.658 1910.3 314.57 1857.72 322.603 1814.42 296.599 1771.12 270.596 1753.51 220.403 1775.07 184.491Z" stroke="#C158DA" stroke-width="4.58333" stroke-miterlimit="8" fill="#C158DA" fill-rule="evenodd"/><path d="M1702.04 182.92C1730.19 183.803 1752.3 207.34 1751.41 235.491 1750.53 263.642 1726.99 285.747 1698.84 284.864 1670.69 283.981 1648.58 260.445 1649.47 232.293 1650.35 204.142 1673.89 182.037 1702.04 182.92Z" stroke="#2F5597" stroke-width="4.58333" stroke-miterlimit="8" fill="#2F5597" fill-rule="evenodd"/><path d="M1828.59 168.206C1856.74 169.089 1878.84 192.625 1877.96 220.777 1877.08 248.928 1853.54 271.033 1825.39 270.15 1797.24 269.267 1775.13 245.73 1776.01 217.579 1776.9 189.428 1800.43 167.323 1828.59 168.206Z" stroke="#2F5597" stroke-width="4.58333" stroke-miterlimit="8" fill="#2F5597" fill-rule="evenodd"/><path d="M1685.68 246.068C1675.93 232.263 1679.22 213.171 1693.02 203.423 1706.83 193.675 1725.92 196.963 1735.67 210.768 1745.42 224.572 1742.13 243.665 1728.32 253.412 1714.52 263.16 1695.43 259.872 1685.68 246.068Z" stroke="#000000" stroke-width="4.58333" stroke-miterlimit="8" fill-rule="evenodd"/><path d="M1787.87 236.06C1778.12 222.256 1781.41 203.163 1795.21 193.416 1809.02 183.668 1828.11 186.956 1837.86 200.76 1847.61 214.565 1844.32 233.657 1830.51 243.405 1816.71 253.153 1797.62 249.865 1787.87 236.06Z" stroke="#000000" stroke-width="4.58333" stroke-miterlimit="8" fill-rule="evenodd"/><path d="M1717.68 216.4C1715.78 213.721 1718.31 208.681 1723.32 205.143 1728.33 201.606 1733.93 200.911 1735.82 203.59 1737.71 206.269 1735.18 211.309 1730.17 214.847 1725.16 218.384 1719.57 219.079 1717.68 216.4Z" stroke="#FFFFFF" stroke-width="4.58333" stroke-miterlimit="8" fill="#FFFFFF" fill-rule="evenodd"/><path d="M1825.11 211.648C1823.74 208.674 1827.58 203.977 1833.68 201.156 1839.79 198.335 1845.85 198.459 1847.23 201.433 1848.6 204.406 1844.76 209.104 1838.66 211.924 1832.55 214.745 1826.49 214.621 1825.11 211.648Z" stroke="#FFFFFF" stroke-width="4.58333" stroke-miterlimit="8" fill="#FFFFFF" fill-rule="evenodd"/><path d="M1706.26 371.234C1702.85 340.193 1730.11 311.732 1767.13 307.666 1804.16 303.599 1836.94 325.466 1840.35 356.507 1809.17 328.516 1755.95 327.994 1721.48 355.342 1715.57 360.034 1710.44 365.385 1706.26 371.234Z" stroke="#000000" stroke-width="4.58333" stroke-miterlimit="8" fill="#FF0000" fill-rule="evenodd"/><path d="M1660.48 274.752 1677.29 282.488 1617.04 413.399 1600.23 405.664Z" stroke="#00B0F0" stroke-width="4.58333" stroke-miterlimit="8" fill="#00B0F0" fill-rule="evenodd"/><path d="M1568.87 407.047C1578.49 386.155 1603.07 376.943 1623.78 386.473 1644.48 396.002 1653.48 420.663 1643.86 441.555 1634.25 462.447 1609.67 471.658 1588.96 462.129 1568.25 452.6 1559.26 427.938 1568.87 407.047Z" stroke="#00B0F0" stroke-width="4.58333" stroke-miterlimit="8" fill="#00B0F0" fill-rule="evenodd"/><path d="M1866.12 249.507 1880.65 238.058 1969.83 351.263 1955.29 362.713Z" stroke="#00B0F0" stroke-width="4.58333" stroke-miterlimit="8" fill="#00B0F0" fill-rule="evenodd"/><path d="M1942.26 391.267C1928.03 373.201 1931 347.121 1948.91 333.016 1966.82 318.911 1992.87 322.123 2007.1 340.189 2021.33 358.255 2018.35 384.335 2000.45 398.44 1982.54 412.544 1956.49 409.333 1942.26 391.267Z" stroke="#00B0F0" stroke-width="4.58333" stroke-miterlimit="8" fill="#00B0F0" fill-rule="evenodd"/></g></svg>