<svg width="838" height="690" xmlns="http://www.w3.org/2000/svg" xmlns:xlink="http://www.w3.org/1999/xlink" xml:space="preserve" overflow="hidden"><g transform="translate(-70 -552)"><path d="M225.235 676.426C222.055 660.73 194.148 640.625 177.546 629.867 160.943 619.109 140.277 613.465 125.617 611.878 110.957 610.291 98.417 613.818 89.5857 620.343 80.7543 626.869 73.8659 640.448 72.6295 651.03 71.3931 661.612 79.3413 675.721 82.1674 683.833 84.9934 691.946 88.1726 702.704 89.5857 699.706 90.9987 696.708 88.526 676.25 90.6455 665.844 92.7649 655.439 94.3546 642.741 102.303 637.274 110.251 631.807 126.854 629.338 138.334 633.041 149.815 636.745 161.826 646.797 171.187 659.495 180.548 672.193 190.263 698.471 194.502 709.229 198.741 719.987 191.146 729.158 196.621 724.044 202.097 718.929 228.414 692.122 225.235 676.426Z" stroke="#7F6000" stroke-width="4.58333" stroke-miterlimit="8" fill="#7F6000" fill-rule="evenodd"/><path d="M164.675 63.8304C161.148 50.4186 127.643 37.4915 107.069 26.9882 86.4958 16.4849 59.0643-4.36001 41.2339 0.8108 23.4035 5.98161 1.65434 51.7112 0.0868121 58.0132-1.48072 64.3151 18.505 42.9855 31.8288 38.6226 45.1526 34.2596 63.9628 20.3631 80.0298 31.8359 96.0967 43.3086 114.319 102.127 128.231 107.459 142.142 112.792 168.202 77.2422 164.675 63.8304Z" stroke="#7F6000" stroke-width="4.58333" stroke-miterlimit="8" fill="#7F6000" fill-rule="evenodd" transform="matrix(-1 0 0 1 773.5 554.5)"/><path d="M767.043 944.098C677.75 1008.76 593.699 1045.08 579.311 1025.21 564.923 1005.34 625.646 936.814 714.939 872.149 804.232 807.484 888.282 771.169 902.671 791.037 917.059 810.905 856.336 879.433 767.043 944.098Z" stroke="#DA9BE9" stroke-width="4.58333" stroke-miterlimit="8" fill="#DA9BE9" fill-rule="evenodd"/><path d="M199.701 1076.33C259.808 1003.2 323.666 956.357 342.332 971.699 360.998 987.041 327.403 1058.76 267.295 1131.89 207.188 1205.02 143.33 1251.86 124.664 1236.52 105.999 1221.18 139.594 1149.46 199.701 1076.33Z" stroke="#9DC3E6" stroke-width="4.58333" stroke-miterlimit="8" fill="#9DC3E6" fill-rule="evenodd"/><path d="M298.5 1050C298.5 970.747 370.358 906.5 459 906.5 547.642 906.5 619.5 970.747 619.5 1050 619.5 1129.25 547.642 1193.5 459 1193.5 370.358 1193.5 298.5 1129.25 298.5 1050Z" stroke="#BDD7EE" stroke-width="4.58333" stroke-miterlimit="8" fill="#BDD7EE" fill-rule="evenodd"/><path d="M169.058 837.216C157.578 719.982 243.308 615.637 360.543 604.156L494.813 591.008C612.048 579.527 716.392 665.258 727.873 782.492L727.872 782.492C739.353 899.727 653.622 1004.07 536.388 1015.55L402.118 1028.7C284.883 1040.18 180.539 954.451 169.058 837.216Z" stroke="#BDD7EE" stroke-width="4.58333" stroke-miterlimit="8" fill="#BDD7EE" fill-rule="evenodd"/><path d="M447.619 710.438C469.187 674.526 521.771 666.493 565.069 692.497 608.367 718.5 625.982 768.692 604.414 804.605 582.846 840.517 530.262 848.55 486.965 822.547 443.667 796.543 426.051 746.351 447.619 710.438Z" stroke="#C158DA" stroke-width="4.58333" stroke-miterlimit="8" fill="#C158DA" fill-rule="evenodd"/><path d="M374.584 708.867C402.736 709.75 424.841 733.287 423.958 761.438 423.075 789.589 399.538 811.695 371.387 810.812 343.236 809.929 321.13 786.392 322.013 758.241 322.896 730.089 346.433 707.984 374.584 708.867Z" stroke="#2F5597" stroke-width="4.58333" stroke-miterlimit="8" fill="#2F5597" fill-rule="evenodd"/><path d="M501.131 694.153C529.282 695.036 551.388 718.573 550.505 746.724 549.622 774.875 526.085 796.98 497.934 796.097 469.782 795.214 447.677 771.678 448.56 743.526 449.443 715.375 472.98 693.27 501.131 694.153Z" stroke="#2F5597" stroke-width="4.58333" stroke-miterlimit="8" fill="#2F5597" fill-rule="evenodd"/><path d="M358.224 772.015C348.477 758.211 351.765 739.118 365.569 729.37 379.373 719.622 398.466 722.911 408.214 736.715 417.962 750.519 414.673 769.612 400.869 779.36 387.065 789.108 367.972 785.819 358.224 772.015Z" stroke="#000000" stroke-width="4.58333" stroke-miterlimit="8" fill-rule="evenodd"/><path d="M460.415 762.008C450.668 748.203 453.956 729.111 467.76 719.363 481.564 709.615 500.657 712.903 510.405 726.708 520.153 740.512 516.865 759.605 503.06 769.353 489.256 779.1 470.163 775.812 460.415 762.008Z" stroke="#000000" stroke-width="4.58333" stroke-miterlimit="8" fill-rule="evenodd"/><path d="M458.5 1139.5 433.979 1221.5 355.021 1221.5 330.5 1139.5Z" stroke="#BDD7EE" stroke-width="4.58333" stroke-miterlimit="8" fill="#BDD7EE" fill-rule="evenodd"/><path d="M586.5 1138.5 561.979 1220.5 488.021 1220.5 463.5 1138.5Z" stroke="#BDD7EE" stroke-width="4.58333" stroke-miterlimit="8" fill="#BDD7EE" fill-rule="evenodd"/><path d="M390.223 742.347C388.331 739.668 390.858 734.628 395.867 731.091 400.876 727.553 406.471 726.858 408.363 729.537 410.255 732.217 407.728 737.256 402.719 740.794 397.709 744.331 392.115 745.027 390.223 742.347Z" stroke="#FFFFFF" stroke-width="4.58333" stroke-miterlimit="8" fill="#FFFFFF" fill-rule="evenodd"/><path d="M497.66 737.595C496.286 734.621 500.123 729.924 506.229 727.103 512.335 724.282 518.399 724.406 519.772 727.38 521.146 730.354 517.31 735.051 511.203 737.872 505.097 740.692 499.033 740.568 497.66 737.595Z" stroke="#FFFFFF" stroke-width="4.58333" stroke-miterlimit="8" fill="#FFFFFF" fill-rule="evenodd"/><path d="M537.722 780.626 546.823 773.517 597.99 839.021 588.89 846.13Z" stroke="#00B0F0" stroke-width="4.58333" stroke-miterlimit="8" fill="#00B0F0" fill-rule="evenodd"/><path d="M570.312 878.833C556.182 860.745 559.262 834.728 577.19 820.724 595.118 806.719 621.106 810.03 635.236 828.118 649.365 846.207 646.286 872.223 628.358 886.228 610.43 900.232 584.442 896.921 570.312 878.833Z" stroke="#00B0F0" stroke-width="4.58333" stroke-miterlimit="8" fill="#00B0F0" fill-rule="evenodd"/><path d="M347.675 811.329 358.323 815.857 325.735 892.499 315.087 887.971Z" stroke="#00B0F0" stroke-width="4.58333" stroke-miterlimit="8" fill="#00B0F0" fill-rule="evenodd"/><path d="M277.403 887.558C286.402 866.393 310.703 856.467 331.679 865.386 352.656 874.306 362.366 898.693 353.367 919.857 344.368 941.022 320.068 950.948 299.091 942.029 278.114 933.109 268.404 908.722 277.403 887.558Z" stroke="#00B0F0" stroke-width="4.58333" stroke-miterlimit="8" fill="#00B0F0" fill-rule="evenodd"/><path d="M381.147 908.38C377.738 877.339 404.99 848.878 442.016 844.811 479.043 840.744 511.822 862.611 515.232 893.652 484.053 865.661 430.834 865.14 396.365 892.488 390.451 897.18 385.327 902.531 381.147 908.38Z" stroke="#000000" stroke-width="4.58333" stroke-miterlimit="8" fill="#FF0000" fill-rule="evenodd"/></g></svg>