<svg width="859" height="671" xmlns="http://www.w3.org/2000/svg" xmlns:xlink="http://www.w3.org/1999/xlink" xml:space="preserve" overflow="hidden"><g transform="translate(-1388 -26)"><path d="M1552.24 150.426C1549.08 134.73 1521.35 114.625 1504.86 103.867 1488.36 93.1086 1467.83 87.4651 1453.27 85.8779 1438.71 84.2906 1426.25 87.8178 1417.47 94.3432 1408.7 100.869 1401.86 114.448 1400.63 125.03 1399.4 135.612 1407.3 149.72 1410.1 157.833 1412.91 165.946 1416.07 176.704 1417.47 173.706 1418.88 170.707 1416.42 150.25 1418.53 139.844 1420.63 129.439 1422.21 116.741 1430.11 111.274 1438 105.807 1454.5 103.338 1465.9 107.041 1477.31 110.745 1489.24 120.797 1498.54 133.495 1507.84 146.193 1517.49 172.471 1521.7 183.229 1525.92 193.987 1518.37 203.158 1523.81 198.043 1529.25 192.929 1555.39 166.122 1552.24 150.426Z" stroke="#7F6000" stroke-width="4.58333" stroke-miterlimit="8" fill="#7F6000" fill-rule="evenodd"/><path d="M163.678 63.8304C160.172 50.4186 126.87 37.4915 106.421 26.9882 85.9717 16.4849 58.7064-4.36001 40.9841 0.8108 23.2617 5.98161 1.64432 51.7112 0.0862862 58.0132-1.47175 64.3151 18.3929 42.9855 31.636 38.6226 44.8791 34.2596 63.5752 20.3631 79.545 31.8359 95.5145 43.3086 113.626 102.127 127.454 107.459 141.281 112.792 167.183 77.2422 163.678 63.8304Z" stroke="#7F6000" stroke-width="4.58333" stroke-miterlimit="8" fill="#7F6000" fill-rule="evenodd" transform="matrix(-1 0 0 1 2100.5 28.5)"/><path d="M2049.81 597.559C1953.82 549.106 1884.81 492.403 1895.65 470.911 1906.5 449.419 1993.11 471.275 2089.1 519.729 2185.09 568.182 2254.11 624.885 2243.26 646.377 2232.41 667.869 2145.8 646.013 2049.81 597.559Z" stroke="#DA9BE9" stroke-width="4.58333" stroke-miterlimit="8" fill="#DA9BE9" fill-rule="evenodd"/><path d="M1551.85 404.431C1625.2 455.69 1673.14 513.731 1658.93 534.068 1644.72 554.405 1573.73 529.338 1500.38 478.079 1427.03 426.819 1379.09 368.779 1393.31 348.442 1407.52 328.104 1478.5 353.172 1551.85 404.431Z" stroke="#9DC3E6" stroke-width="4.58333" stroke-miterlimit="8" fill="#9DC3E6" fill-rule="evenodd"/><path d="M1625.5 524C1625.5 444.747 1697.36 380.5 1786 380.5 1874.64 380.5 1946.5 444.747 1946.5 524 1946.5 603.253 1874.64 667.5 1786 667.5 1697.36 667.5 1625.5 603.253 1625.5 524Z" stroke="#BDD7EE" stroke-width="4.58333" stroke-miterlimit="8" fill="#BDD7EE" fill-rule="evenodd"/><path d="M1790.5 612.5 1765.98 694.5 1686.02 694.5 1661.5 612.5Z" stroke="#BDD7EE" stroke-width="4.58333" stroke-miterlimit="8" fill="#BDD7EE" fill-rule="evenodd"/><path d="M1913.5 612.5 1888.98 694.5 1815.02 694.5 1790.5 612.5Z" stroke="#BDD7EE" stroke-width="4.58333" stroke-miterlimit="8" fill="#BDD7EE" fill-rule="evenodd"/><path d="M1496.51 311.269C1485.03 194.035 1570.76 89.69 1688 78.2093L1822.27 65.0604C1939.5 53.5797 2043.85 139.31 2055.33 256.545L2055.33 256.545C2066.81 373.78 1981.08 478.125 1863.84 489.606L1729.57 502.754C1612.34 514.234 1507.99 428.504 1496.51 311.269Z" stroke="#BDD7EE" stroke-width="4.58333" stroke-miterlimit="8" fill="#BDD7EE" fill-rule="evenodd"/><path d="M1775.07 184.491C1796.64 148.579 1849.23 140.546 1892.52 166.549 1935.82 192.553 1953.44 242.745 1931.87 278.658 1910.3 314.57 1857.72 322.603 1814.42 296.599 1771.12 270.596 1753.51 220.403 1775.07 184.491Z" stroke="#C158DA" stroke-width="4.58333" stroke-miterlimit="8" fill="#C158DA" fill-rule="evenodd"/><path d="M1702.04 182.92C1730.19 183.803 1752.3 207.34 1751.41 235.491 1750.53 263.642 1726.99 285.747 1698.84 284.864 1670.69 283.981 1648.58 260.445 1649.47 232.293 1650.35 204.142 1673.89 182.037 1702.04 182.92Z" stroke="#2F5597" stroke-width="4.58333" stroke-miterlimit="8" fill="#2F5597" fill-rule="evenodd"/><path d="M1828.59 168.206C1856.74 169.089 1878.84 192.625 1877.96 220.777 1877.08 248.928 1853.54 271.033 1825.39 270.15 1797.24 269.267 1775.13 245.73 1776.01 217.579 1776.9 189.428 1800.43 167.323 1828.59 168.206Z" stroke="#2F5597" stroke-width="4.58333" stroke-miterlimit="8" fill="#2F5597" fill-rule="evenodd"/><path d="M1685.68 246.068C1675.93 232.263 1679.22 213.171 1693.02 203.423 1706.83 193.675 1725.92 196.963 1735.67 210.768 1745.42 224.572 1742.13 243.665 1728.32 253.412 1714.52 263.16 1695.43 259.872 1685.68 246.068Z" stroke="#000000" stroke-width="4.58333" stroke-miterlimit="8" fill-rule="evenodd"/><path d="M1787.87 236.06C1778.12 222.256 1781.41 203.163 1795.21 193.416 1809.02 183.668 1828.11 186.956 1837.86 200.76 1847.61 214.565 1844.32 233.657 1830.51 243.405 1816.71 253.153 1797.62 249.865 1787.87 236.06Z" stroke="#000000" stroke-width="4.58333" stroke-miterlimit="8" fill-rule="evenodd"/><path d="M1880.8 359.004 1880.8 359.004C1873.25 361.514 1865.92 364.195 1858.15 366.535 1854.99 367.487 1851.5 368.091 1848.15 368.843 1846.25 369.268 1844.36 369.699 1842.42 370.068 1834.49 371.579 1832.01 371.778 1823.73 373.226 1818.45 374.15 1813.16 375.079 1807.93 376.101 1796.99 378.24 1794.98 379.148 1783.58 381.143 1779.3 381.891 1774.94 382.432 1770.62 383.077L1716.86 386.349C1715.33 386.428 1713.97 386.083 1712.45 386.116 1708.11 386.212 1703.72 386.528 1699.36 386.734 1697.4 386.704 1695.37 386.821 1693.5 386.644 1691.87 386.489 1690.58 385.998 1689.03 385.753 1687.11 385.45 1685.08 385.254 1683.11 385.005 1681.58 384.269 1680.29 383.407 1678.51 382.799 1675.73 381.849 1672.43 381.222 1669.5 380.36 1664.76 378.965 1665.26 378.972 1661.88 377.122 1659.37 373.066 1656.31 370.726 1659.33 366.081 1659.96 365.116 1667.97 361.6 1669.08 361.141 1679.01 357.039 1675.53 358.728 1690.47 355.726 1710.63 351.676 1700.21 353.433 1727.92 350.066L1759.71 346.289C1767.38 345.095 1774.97 343.535 1782.74 342.705 1815.64 339.193 1825.09 338.813 1850.91 337.357 1855.34 337.591 1858.09 337.694 1862.69 338.197 1866.69 338.635 1871.04 338.799 1874.53 339.694 1881.38 341.452 1883.49 341.8 1889.58 344.197 1891.27 344.859 1892.65 345.667 1894.18 346.403 1893.89 348.423 1894.41 350.441 1893.32 352.465 1892.16 354.593 1886.8 356.622 1883.63 358.062 1882.19 360.493 1881.27 358.847 1880.8 359.004Z" stroke="#BDD7EE" stroke-width="4.58333" stroke-miterlimit="8" fill-rule="evenodd"/><path d="M1771.96 358.706C1805.28 355.442 1833.13 361.323 1834.16 371.841L1773.82 377.749Z" fill="#FF0000" fill-rule="evenodd"/><path d="M1771.96 358.706C1805.28 355.442 1833.13 361.323 1834.16 371.841" stroke="#FF0000" stroke-width="2.29167" stroke-miterlimit="8" fill="none" fill-rule="evenodd"/><path d="M1719.35 383.084C1718.3 372.345 1743.9 361.049 1776.54 357.853L1778.44 377.297Z" fill="#FF0000" fill-rule="evenodd"/><path d="M1719.35 383.084C1718.3 372.345 1743.9 361.049 1776.54 357.853" stroke="#FF0000" stroke-width="2.29167" stroke-miterlimit="8" fill="none" fill-rule="evenodd"/><path d="M1717.68 216.4C1715.78 213.721 1718.31 208.681 1723.32 205.143 1728.33 201.606 1733.93 200.911 1735.82 203.59 1737.71 206.269 1735.18 211.309 1730.17 214.847 1725.16 218.384 1719.57 219.079 1717.68 216.4Z" stroke="#FFFFFF" stroke-width="4.58333" stroke-miterlimit="8" fill="#FFFFFF" fill-rule="evenodd"/><path d="M1825.11 211.648C1823.74 208.674 1827.58 203.977 1833.68 201.156 1839.79 198.335 1845.85 198.459 1847.23 201.433 1848.6 204.406 1844.76 209.104 1838.66 211.924 1832.55 214.745 1826.49 214.621 1825.11 211.648Z" stroke="#FFFFFF" stroke-width="4.58333" stroke-miterlimit="8" fill="#FFFFFF" fill-rule="evenodd"/><path d="M1795.97 384.944 1795.97 384.944C1795.64 388.815 1795.37 392.709 1794.99 396.555 1794.88 397.643 1794.5 398.61 1794.5 399.722 1794.5 404.661 1794.79 409.58 1794.99 414.5 1795.38 424.066 1795.07 421.341 1795.97 427.167 1796.13 431.037 1796.35 434.898 1796.46 438.778 1796.68 446.864 1796.53 455.005 1796.95 463.056 1797.03 464.62 1797.37 466.271 1797.93 467.278 1798.45 468.207 1799.25 467.875 1799.89 468.333 1804.72 471.805 1799.95 469.415 1804.79 471.5 1805.77 470.445 1806.92 469.921 1807.73 468.333 1812.29 459.401 1810.04 452.931 1809.2 438.778 1808.98 435.219 1808.82 431.571 1808.22 428.222 1807.97 426.829 1807.27 426.027 1806.75 425.056 1804.97 421.767 1804.84 421.94 1802.83 419.778 1801.65 412.188 1802.34 418.014 1802.83 402.889 1803.01 397.262 1803.15 391.629 1803.32 386 1802.78 377.832 1803.34 380.836 1802.34 376.5L1796.46 376.5 1795.97 384.944Z" stroke="#5B9BD5" stroke-width="4.58333" stroke-miterlimit="8" fill="#5B9BD5" fill-rule="evenodd"/><path d="M1805.79 379.767 1805.79 379.767C1805.5 381.722 1805.26 383.69 1804.93 385.633 1804.83 386.183 1804.5 386.671 1804.5 387.233 1804.5 389.728 1804.75 392.214 1804.93 394.7 1805.27 399.533 1805 398.156 1805.79 401.1 1805.93 403.055 1806.12 405.006 1806.21 406.967 1806.41 411.052 1806.28 415.166 1806.64 419.233 1806.71 420.023 1807.01 420.858 1807.5 421.367 1807.95 421.836 1808.66 421.668 1809.22 421.9 1813.44 423.654 1809.27 422.447 1813.5 423.5 1814.36 422.967 1815.36 422.702 1816.07 421.9 1820.06 417.387 1818.1 414.118 1817.36 406.967 1817.17 405.169 1817.03 403.325 1816.5 401.633 1816.28 400.929 1815.68 400.524 1815.22 400.033 1813.66 398.372 1813.54 398.459 1811.79 397.367 1810.76 393.532 1811.36 396.475 1811.79 388.833 1811.94 385.99 1812.07 383.144 1812.22 380.3 1811.74 376.173 1812.24 377.691 1811.36 375.5L1806.21 375.5 1805.79 379.767Z" stroke="#5B9BD5" stroke-width="4.58333" stroke-miterlimit="8" fill="#5B9BD5" fill-rule="evenodd"/></g></svg>