<svg width="946" height="686" xmlns="http://www.w3.org/2000/svg" xmlns:xlink="http://www.w3.org/1999/xlink" xml:space="preserve" overflow="hidden"><g transform="translate(-1911 -1478)"><path d="M2110.24 1602.43C2107.08 1586.73 2079.35 1566.62 2062.86 1555.87 2046.36 1545.11 2025.83 1539.47 2011.27 1537.88 1996.71 1536.29 1984.25 1539.82 1975.47 1546.34 1966.7 1552.87 1959.86 1566.45 1958.63 1577.03 1957.4 1587.61 1965.3 1601.72 1968.1 1609.83 1970.91 1617.95 1974.07 1628.7 1975.47 1625.71 1976.88 1622.71 1974.42 1602.25 1976.53 1591.84 1978.63 1581.44 1980.21 1568.74 1988.11 1563.27 1996 1557.81 2012.5 1555.34 2023.9 1559.04 2035.31 1562.74 2047.24 1572.8 2056.54 1585.5 2065.84 1598.19 2075.49 1624.47 2079.7 1635.23 2083.92 1645.99 2076.37 1655.16 2081.81 1650.04 2087.25 1644.93 2113.4 1618.12 2110.24 1602.43Z" stroke="#7F6000" stroke-width="4.58333" stroke-miterlimit="8" fill="#7F6000" fill-rule="evenodd"/><path d="M163.677 64.4214C160.172 50.8854 126.869 37.8387 106.42 27.2381 85.9715 16.6376 58.7063-4.40038 40.984 0.818308 23.2616 6.037 1.64432 52.19 0.086286 58.5504-1.47175 64.9107 18.3928 43.3835 31.6359 38.9802 44.879 34.5769 63.5751 20.5517 79.5448 32.1307 95.5143 43.7097 113.626 103.073 127.454 108.454 141.281 113.836 167.183 77.9575 163.677 64.4214Z" stroke="#7F6000" stroke-width="4.58333" stroke-miterlimit="8" fill="#7F6000" fill-rule="evenodd" transform="matrix(-1 0 0 1 2658.5 1480.5)"/><path d="M2664.92 1955.03C2557.93 1965.7 2469.25 1954.93 2466.86 1930.98 2464.47 1907.02 2549.27 1878.95 2656.26 1868.27 2763.26 1857.6 2851.93 1868.36 2854.32 1892.32 2856.71 1916.28 2771.91 1944.35 2664.92 1955.03Z" stroke="#DA9BE9" stroke-width="4.58333" stroke-miterlimit="8" fill="#DA9BE9" fill-rule="evenodd"/><path d="M2071.04 1934.06C2160.22 1926.59 2234.19 1940.57 2236.26 1965.29 2238.33 1990.02 2167.73 2016.12 2078.55 2023.6 1989.38 2031.08 1915.41 2017.1 1913.34 1992.37 1911.26 1967.65 1981.87 1941.54 2071.04 1934.06Z" stroke="#9DC3E6" stroke-width="4.58333" stroke-miterlimit="8" fill="#9DC3E6" fill-rule="evenodd"/><path d="M2184.5 1976.5C2184.5 1896.97 2256.36 1832.5 2345 1832.5 2433.64 1832.5 2505.5 1896.97 2505.5 1976.5 2505.5 2056.03 2433.64 2120.5 2345 2120.5 2256.36 2120.5 2184.5 2056.03 2184.5 1976.5Z" stroke="#BDD7EE" stroke-width="4.58333" stroke-miterlimit="8" fill="#BDD7EE" fill-rule="evenodd"/><path d="M2352.5 2068.5 2327.98 2150.5 2248.02 2150.5 2223.5 2068.5Z" stroke="#BDD7EE" stroke-width="4.58333" stroke-miterlimit="8" fill="#BDD7EE" fill-rule="evenodd"/><path d="M2471.95 2040.47 2491.35 2123.75 2426.79 2160.67 2364.85 2101.71Z" stroke="#BDD7EE" stroke-width="4.58333" stroke-miterlimit="8" fill="#BDD7EE" fill-rule="evenodd"/><path d="M2054.65 1763.61C2043.17 1646.37 2128.9 1542.03 2246.14 1530.55L2380.41 1517.4C2497.64 1505.92 2601.99 1591.65 2613.47 1708.88L2613.47 1708.88C2624.95 1826.12 2539.22 1930.46 2421.98 1941.94L2287.71 1955.09C2170.48 1966.57 2066.13 1880.84 2054.65 1763.61Z" stroke="#BDD7EE" stroke-width="4.58333" stroke-miterlimit="8" fill="#BDD7EE" fill-rule="evenodd"/><path d="M2333.21 1636.83C2354.78 1600.92 2407.37 1592.88 2450.66 1618.89 2493.96 1644.89 2511.58 1695.08 2490.01 1730.99 2468.44 1766.91 2415.86 1774.94 2372.56 1748.94 2329.26 1722.93 2311.65 1672.74 2333.21 1636.83Z" stroke="#C158DA" stroke-width="4.58333" stroke-miterlimit="8" fill="#C158DA" fill-rule="evenodd"/><path d="M2260.18 1635.26C2288.33 1636.14 2310.44 1659.68 2309.55 1687.83 2308.67 1715.98 2285.13 1738.08 2256.98 1737.2 2228.83 1736.32 2206.73 1712.78 2207.61 1684.63 2208.49 1656.48 2232.03 1634.37 2260.18 1635.26Z" stroke="#2F5597" stroke-width="4.58333" stroke-miterlimit="8" fill="#2F5597" fill-rule="evenodd"/><path d="M2386.73 1620.54C2414.88 1621.43 2436.98 1644.96 2436.1 1673.11 2435.22 1701.26 2411.68 1723.37 2383.53 1722.49 2355.38 1721.6 2333.27 1698.07 2334.16 1669.92 2335.04 1641.76 2358.58 1619.66 2386.73 1620.54Z" stroke="#2F5597" stroke-width="4.58333" stroke-miterlimit="8" fill="#2F5597" fill-rule="evenodd"/><path d="M2243.82 1698.4C2234.07 1684.6 2237.36 1665.51 2251.16 1655.76 2264.97 1646.01 2284.06 1649.3 2293.81 1663.1 2303.56 1676.91 2300.27 1696 2286.46 1705.75 2272.66 1715.5 2253.57 1712.21 2243.82 1698.4Z" stroke="#000000" stroke-width="4.58333" stroke-miterlimit="8" fill-rule="evenodd"/><path d="M2346.01 1688.4C2336.26 1674.59 2339.55 1655.5 2353.35 1645.75 2367.16 1636 2386.25 1639.29 2396 1653.1 2405.75 1666.9 2402.46 1685.99 2388.66 1695.74 2374.85 1705.49 2355.76 1702.2 2346.01 1688.4Z" stroke="#000000" stroke-width="4.58333" stroke-miterlimit="8" fill-rule="evenodd"/><path d="M2438.94 1811.34 2438.94 1811.34C2431.39 1813.85 2424.06 1816.53 2416.29 1818.87 2413.13 1819.82 2409.64 1820.43 2406.29 1821.18 2404.39 1821.61 2402.5 1822.04 2400.56 1822.4 2392.63 1823.92 2390.15 1824.12 2381.87 1825.56 2376.59 1826.49 2371.31 1827.42 2366.08 1828.44 2355.13 1830.58 2353.13 1831.48 2341.72 1833.48 2337.44 1834.23 2333.08 1834.77 2328.76 1835.41L2275 1838.69C2273.47 1838.77 2272.11 1838.42 2270.59 1838.45 2266.25 1838.55 2261.86 1838.86 2257.5 1839.07 2255.55 1839.04 2253.51 1839.16 2251.64 1838.98 2250.01 1838.83 2248.72 1838.33 2247.17 1838.09 2245.25 1837.79 2243.22 1837.59 2241.25 1837.34 2239.72 1836.61 2238.43 1835.74 2236.65 1835.14 2233.87 1834.19 2230.57 1833.56 2227.64 1832.7 2222.9 1831.3 2223.4 1831.31 2220.02 1829.46 2217.52 1825.4 2214.45 1823.06 2217.47 1818.42 2218.1 1817.45 2226.11 1813.94 2227.22 1813.48 2237.15 1809.38 2233.67 1811.06 2248.61 1808.06 2268.77 1804.01 2258.35 1805.77 2286.06 1802.4L2317.85 1798.63C2325.52 1797.43 2333.11 1795.87 2340.88 1795.04 2373.78 1791.53 2383.24 1791.15 2409.05 1789.69 2413.49 1789.93 2416.23 1790.03 2420.83 1790.53 2424.83 1790.97 2429.18 1791.14 2432.67 1792.03 2439.52 1793.79 2441.63 1794.14 2447.72 1796.53 2449.41 1797.2 2450.79 1798 2452.32 1798.74 2452.03 1800.76 2452.56 1802.78 2451.46 1804.8 2450.3 1806.93 2444.95 1808.96 2441.77 1810.4 2440.33 1812.83 2439.41 1811.18 2438.94 1811.34Z" stroke="#BDD7EE" stroke-width="4.58333" stroke-miterlimit="8" fill-rule="evenodd"/><path d="M2330.1 1811.04C2363.42 1807.78 2391.27 1813.66 2392.3 1824.18L2331.96 1830.09Z" fill="#FF0000" fill-rule="evenodd"/><path d="M2330.1 1811.04C2363.42 1807.78 2391.27 1813.66 2392.3 1824.18" stroke="#FF0000" stroke-width="2.29167" stroke-miterlimit="8" fill="none" fill-rule="evenodd"/><path d="M2277.49 1835.42C2276.44 1824.68 2302.04 1813.39 2334.68 1810.19L2336.58 1829.63Z" fill="#FF0000" fill-rule="evenodd"/><path d="M2277.49 1835.42C2276.44 1824.68 2302.04 1813.39 2334.68 1810.19" stroke="#FF0000" stroke-width="2.29167" stroke-miterlimit="8" fill="none" fill-rule="evenodd"/><path d="M2275.82 1668.74C2273.93 1666.06 2276.45 1661.02 2281.46 1657.48 2286.47 1653.94 2292.07 1653.25 2293.96 1655.93 2295.85 1658.61 2293.32 1663.65 2288.31 1667.18 2283.3 1670.72 2277.71 1671.42 2275.82 1668.74Z" stroke="#FFFFFF" stroke-width="4.58333" stroke-miterlimit="8" fill="#FFFFFF" fill-rule="evenodd"/><path d="M2383.25 1663.98C2381.88 1661.01 2385.72 1656.31 2391.82 1653.49 2397.93 1650.67 2403.99 1650.8 2405.37 1653.77 2406.74 1656.74 2402.9 1661.44 2396.8 1664.26 2390.69 1667.08 2384.63 1666.96 2383.25 1663.98Z" stroke="#FFFFFF" stroke-width="4.58333" stroke-miterlimit="8" fill="#FFFFFF" fill-rule="evenodd"/><path d="M2353.97 1837.94 2353.97 1837.94C2353.64 1841.81 2353.37 1845.71 2352.99 1849.56 2352.88 1850.64 2352.5 1851.61 2352.5 1852.72 2352.5 1857.66 2352.79 1862.58 2352.99 1867.5 2353.38 1877.07 2353.07 1874.34 2353.97 1880.17 2354.13 1884.04 2354.35 1887.9 2354.46 1891.78 2354.68 1899.86 2354.53 1908.01 2354.95 1916.06 2355.03 1917.62 2355.37 1919.27 2355.93 1920.28 2356.45 1921.21 2357.25 1920.87 2357.89 1921.33 2362.72 1924.81 2357.95 1922.42 2362.79 1924.5 2363.77 1923.44 2364.92 1922.92 2365.73 1921.33 2370.29 1912.4 2368.04 1905.93 2367.2 1891.78 2366.98 1888.22 2366.82 1884.57 2366.22 1881.22 2365.97 1879.83 2365.27 1879.03 2364.75 1878.06 2362.97 1874.77 2362.84 1874.94 2360.83 1872.78 2359.65 1865.19 2360.34 1871.01 2360.83 1855.89 2361.01 1850.26 2361.16 1844.63 2361.32 1839 2360.78 1830.83 2361.34 1833.84 2360.34 1829.5L2354.46 1829.5 2353.97 1837.94Z" stroke="#5B9BD5" stroke-width="4.58333" stroke-miterlimit="8" fill="#5B9BD5" fill-rule="evenodd"/><path d="M2363.79 1831.86 2363.79 1831.86C2363.5 1833.85 2363.26 1835.86 2362.93 1837.84 2362.83 1838.41 2362.5 1838.9 2362.5 1839.48 2362.5 1842.02 2362.75 1844.56 2362.93 1847.1 2363.27 1852.03 2363 1850.63 2363.79 1853.63 2363.93 1855.63 2364.12 1857.62 2364.21 1859.62 2364.41 1863.79 2364.28 1867.99 2364.64 1872.14 2364.71 1872.95 2365.01 1873.8 2365.5 1874.32 2365.95 1874.8 2366.66 1874.63 2367.22 1874.87 2371.44 1876.66 2367.27 1875.42 2371.5 1876.5 2372.36 1875.96 2373.36 1875.69 2374.07 1874.87 2378.06 1870.26 2376.1 1866.92 2375.36 1859.62 2375.17 1857.79 2375.03 1855.91 2374.5 1854.18 2374.28 1853.46 2373.68 1853.05 2373.22 1852.54 2371.66 1850.85 2371.54 1850.94 2369.79 1849.82 2368.76 1845.91 2369.36 1848.91 2369.79 1841.11 2369.94 1838.21 2370.07 1835.3 2370.22 1832.4 2369.74 1828.19 2370.24 1829.74 2369.36 1827.5L2364.21 1827.5 2363.79 1831.86Z" stroke="#5B9BD5" stroke-width="4.58333" stroke-miterlimit="8" fill="#5B9BD5" fill-rule="evenodd"/></g></svg>