<svg width="1029" height="1259" xmlns="http://www.w3.org/2000/svg" xmlns:xlink="http://www.w3.org/1999/xlink" xml:space="preserve" overflow="hidden"><defs><clipPath id="clip0"><rect x="227" y="601" width="1029" height="1259"/></clipPath></defs><g clip-path="url(#clip0)" transform="translate(-227 -601)"><path d="M494.5 1644.77C496.733 1649.27 498.553 1653.16 499.893 1656.15 504.598 1666.7 507.449 1674.92 508.548 1678.12 511.433 1686.47 511.536 1688.09 517.306 1707.96 526.58 1739.87 527.336 1739.18 529.568 1750.12 532.659 1765.14 531.079 1765.52 534.823 1786.98 538.292 1806.82 540.147 1816.86 545.333 1823.84 546.673 1825.62 559.931 1842.92 578.65 1841.41 590.946 1840.41 599.121 1831.78 604.959 1825.59 608.497 1821.88 611.245 1818.06 624.262 1790.48 631.784 1774.56 635.597 1766.42 638.31 1758.89 639.752 1754.9 640.714 1751.7 641.436 1748.91 644.389 1737.67 646.279 1730.42 647.069 1727.29 648.889 1720.07 653.251 1709.82 664.62 1697.44 607.913 1679.87 551.207 1662.34 494.5 1644.77ZM850.985 1687.99C858.576 1705.32 866.166 1725.02 873.07 1746.95 879.871 1768.62 884.885 1788.9 888.595 1807.37 907.623 1854.3 957.735 1842.75 963.746 1793.34 970.718 1771.61 977.45 1748.43 983.666 1723.88 989.265 1701.77 994.005 1680.46 997.989 1660.1 998.505 1649.89 998.985 1639.68 999.5 1629.5L851.054 1687.99 850.985 1687.99Z" stroke="#000000" stroke-width="20.625" stroke-miterlimit="8" fill="#EBE2B3" fill-rule="evenodd"/><path d="M288.769 1239.54C286.363 1229.88 283.58 1215.28 283.511 1197.41 283.442 1178.4 286.535 1173.18 287.016 1157.06 287.979 1125.13 276.534 1123.31 276.5 1095.64 276.5 1062.79 292.515 1037.01 297.567 1028.97 309.046 1010.58 313.616 1013.19 327.397 992.124 340.216 972.534 346.127 955.213 351.97 937.719 362.108 907.372 359.703 901.289 367.779 872.797 373.484 852.658 380.735 826.985 397.61 800.83 408.607 783.783 427.165 767.252 464.282 734.156 488.133 712.882 505.316 699.169 518.685 688.515 559.444 656.071 572.848 649.129 578.346 646.379 597.626 636.825 614.982 628.199 638.008 628.817 649.589 629.126 667.838 630.261 687.462 630.089 690.246 630.054 696.535 630.089 704.714 629.573 708.22 629.333 714.096 628.886 721.176 627.924 733.204 626.308 742.243 624.177 745.027 623.524 785.167 614.245 805.444 608.643 824.003 613.008 846.307 618.232 861.291 631.154 874.9 642.839 883.526 650.263 895.383 665.454 918.787 695.491 944.803 728.932 950.817 737.902 966.179 749.897 981.541 761.891 983.466 759.073 994.257 769.212 1008.62 782.684 1014.02 795.916 1027.59 827.122 1053.54 886.786 1051.41 878.984 1053.92 886.786 1056.46 894.793 1057.91 902.663 1061.17 918.335 1065.29 938.166 1066.5 947.72 1071.48 976.315 1075.36 998.517 1077.19 1009.65 1078.49 1014.91 1087.29 1050.55 1100.52 1074.75 1104.82 1083.34 1124.92 1123.48 1122.89 1170.94 1118.87 1265.87 1116.43 1323.43 1115.09 1354.71 1101.31 1395.75 1094.2 1416.92 1090.93 1419.36 1073.23 1467.71 1058.25 1508.61 1055.77 1520.02 1043.4 1548.44 1029.66 1580.06 1022.78 1595.87 1008.31 1613.37 1002.2 1620.79 987.933 1636.74 950.405 1659.01 919.199 1677.53 884.076 1698.36 832.835 1708.15 758.946 1722.28 697.222 1704.75 673.131 1697.64 658.112 1693.2 653.026 1690.52 623.986 1681.83 574.6 1667.05 560.854 1666.26 530.988 1657.25 513.117 1651.86 504.148 1649.35 492.978 1645.05 481.74 1640.72 456.274 1630.72 430.946 1613.37 387.884 1583.91 364.205 1546.42 355.476 1530.88 348.602 1518.61 339.185 1490.53 320.387 1434.34 307.98 1397.26 301.691 1378.46 299.32 1365.91 294.714 1341.62 293.305 1318.45 290.556 1272.91 289.663 1258.79 289.113 1247.21 288.769 1239.54Z" stroke="#000000" stroke-width="20.625" stroke-miterlimit="8" fill="#EBE2B3" fill-rule="evenodd"/><path d="M533.388 766.181 546.535 741.363 664.428 803.814 651.282 828.631Z" stroke="#000000" stroke-width="10.3129" stroke-miterlimit="8" fill="#595850" fill-rule="evenodd"/><path d="M787.27 801.814 907.483 743.954 919.663 769.26 799.45 827.12Z" stroke="#000000" stroke-width="10.3129" stroke-miterlimit="8" fill="#595850" fill-rule="evenodd"/><path d="M989 1850.5C989 1855.75 884.235 1860 755 1860 625.766 1860 521 1855.75 521 1850.5 521 1845.25 625.766 1841 755 1841 884.235 1841 989 1845.25 989 1850.5Z" fill="#5B5742" fill-rule="evenodd" fill-opacity="0.470588"/><path d="M1219.1 1379.08 322.288 1548.93C304.654 1552.26 287.674 1540.68 284.339 1523.08L238.072 1278.87C234.738 1261.24 246.322 1244.26 263.921 1240.92L1160.7 1071.07C1178.34 1067.74 1195.32 1079.32 1198.65 1096.92L1244.92 1341.13C1248.29 1358.73 1236.7 1375.74 1219.1 1379.08Z" stroke="#000000" stroke-width="20.625" stroke-miterlimit="8" fill="#A6A897" fill-rule="evenodd"/><path d="M632.5 889.5C632.5 912.696 613.92 931.5 591 931.5 568.08 931.5 549.5 912.696 549.5 889.5 549.5 866.304 568.08 847.5 591 847.5 613.92 847.5 632.5 866.304 632.5 889.5Z" stroke="#000000" stroke-width="20.625" stroke-miterlimit="8" fill="#231815" fill-rule="evenodd"/><path d="M907.5 889.5C907.5 912.696 888.696 931.5 865.5 931.5 842.304 931.5 823.5 912.696 823.5 889.5 823.5 866.304 842.304 847.5 865.5 847.5 888.696 847.5 907.5 866.304 907.5 889.5Z" stroke="#000000" stroke-width="20.625" stroke-miterlimit="8" fill="#231815" fill-rule="evenodd"/><path d="M615 903C615 914.046 606.046 923 595 923 583.954 923 575 914.046 575 903 575 891.954 583.954 883 595 883 606.046 883 615 891.954 615 903Z" fill="#FFFFFF" fill-rule="evenodd"/><path d="M885.001 903C885.001 914.046 876.046 923 865 923 853.954 923 845 914.046 845 903 845 891.954 853.954 883 865 883 876.046 883 885.001 891.954 885.001 903Z" fill="#FFFFFF" fill-rule="evenodd"/><path d="M811 1018C811 1030.15 777.198 1040 735.5 1040 693.803 1040 660 1030.15 660 1018 660 1005.85 693.803 996 735.5 996 777.198 996 811 1005.85 811 1018Z" stroke="#000000" stroke-width="10.3125" stroke-miterlimit="8" fill="#E73A8F" fill-rule="evenodd"/><path d="M517.089 1269.76 488.362 1275.19C483.998 1276.01 479.806 1273.16 478.947 1268.8L476.061 1253.58C475.236 1249.22 478.088 1245.03 482.452 1244.17L511.179 1238.75C515.543 1237.92 519.735 1240.77 520.594 1245.13L523.48 1260.35C524.305 1264.74 521.453 1268.93 517.089 1269.76ZM653.539 1243.93 624.813 1249.36C620.449 1250.18 616.256 1247.33 615.397 1242.97L612.511 1227.75C611.686 1223.39 614.538 1219.2 618.902 1218.34L647.629 1212.92C651.992 1212.09 656.185 1214.94 657.044 1219.31L659.93 1234.52C660.755 1238.88 657.903 1243.11 653.539 1243.93ZM332.67 1304.69 303.943 1310.11C299.579 1310.94 295.387 1308.09 294.528 1303.73L291.642 1288.51C290.817 1284.15 293.669 1279.96 298.033 1279.1L326.76 1273.67C331.124 1272.85 335.316 1275.7 336.174 1280.06L339.061 1295.28C339.92 1299.64 337.034 1303.86 332.67 1304.69ZM393.49 1293.15 364.763 1298.57C360.4 1299.4 356.207 1296.55 355.348 1292.19L352.462 1276.97C351.637 1272.61 354.49 1268.42 358.853 1267.56L387.58 1262.13C391.944 1261.31 396.136 1264.16 396.995 1268.52L399.881 1283.74C400.734 1288.08 397.908 1292.28 393.569 1293.13 393.543 1293.14 393.516 1293.14 393.49 1293.15ZM892.352 1198.73 863.626 1204.16C859.262 1204.98 855.07 1202.13 854.211 1197.77L851.325 1182.56C850.5 1178.19 853.352 1174 857.716 1173.15L886.442 1167.72C890.806 1166.9 894.998 1169.75 895.857 1174.11L898.744 1189.32C899.603 1193.68 896.716 1197.87 892.352 1198.73ZM456.028 1281.33 427.302 1286.76C422.938 1287.58 418.746 1284.73 417.887 1280.37L415 1265.16C414.176 1260.8 417.028 1256.6 421.391 1255.75L450.118 1250.32C454.482 1249.5 458.674 1252.35 459.533 1256.71L462.419 1271.92C463.278 1276.28 460.392 1280.51 456.028 1281.33ZM714.875 1232.32 686.148 1237.75C681.784 1238.57 677.592 1235.72 676.733 1231.36L673.846 1216.15C673.022 1211.78 675.874 1207.59 680.238 1206.74L708.964 1201.31C713.328 1200.48 717.52 1203.34 718.379 1207.7L721.266 1222.91C722.09 1227.27 719.239 1231.5 714.875 1232.32ZM773.598 1221.2 744.872 1226.62C740.508 1227.45 736.316 1224.6 735.457 1220.23L732.571 1205.02C731.746 1200.66 734.598 1196.47 738.962 1195.61L767.688 1190.18C772.052 1189.36 776.244 1192.21 777.103 1196.57L779.99 1211.78C780.815 1216.18 777.963 1220.37 773.598 1221.2ZM833.01 1209.96 804.283 1215.39C799.919 1216.21 795.727 1213.36 794.868 1209L791.982 1193.79C791.157 1189.43 794.009 1185.24 798.373 1184.38L827.099 1178.95C831.464 1178.13 835.656 1180.98 836.515 1185.34L839.401 1200.55C840.26 1204.92 837.374 1209.14 833.01 1209.96ZM585.297 1256.85 556.57 1262.27C552.206 1263.1 548.014 1260.25 547.155 1255.88L544.269 1240.67C543.444 1236.31 546.296 1232.12 550.66 1231.26L579.386 1225.83C583.75 1225.01 587.942 1227.86 588.801 1232.22L591.688 1247.43C592.54 1251.77 589.715 1255.98 585.376 1256.83 585.348 1256.84 585.324 1256.84 585.297 1256.85ZM960.388 1183.66 931.662 1189.08C927.298 1189.91 923.106 1187.06 922.247 1182.69L919.361 1167.48C918.536 1163.12 921.388 1158.93 925.752 1158.07L954.478 1152.64C958.842 1151.82 963.034 1154.67 963.893 1159.03L966.779 1174.24C967.639 1178.61 964.752 1182.83 960.388 1183.66ZM369.402 1343.84 310.919 1354.9C306.555 1355.73 302.363 1352.87 301.504 1348.51L298.617 1333.3C297.793 1328.94 300.645 1324.75 305.009 1323.89L363.492 1312.83C367.856 1312 372.048 1314.85 372.907 1319.22L375.794 1334.43C376.647 1338.77 373.82 1342.97 369.482 1343.83 369.455 1343.83 369.429 1343.84 369.402 1343.84ZM418.815 1334.36 403.592 1337.25C399.228 1338.07 395.036 1335.22 394.177 1330.86L391.291 1315.64C390.466 1311.28 393.318 1307.09 397.682 1306.23L412.904 1303.35C417.268 1302.52 421.46 1305.38 422.319 1309.74L425.206 1324.95C426.03 1329.35 423.178 1333.54 418.815 1334.36ZM463.278 1325.95 448.056 1328.83C443.692 1329.66 439.5 1326.81 438.641 1322.44L435.755 1307.23C434.93 1302.87 437.782 1298.68 442.146 1297.82L457.368 1294.93C461.732 1294.11 465.924 1296.96 466.783 1301.32L469.67 1316.54C470.529 1320.9 467.642 1325.12 463.278 1325.95ZM510.663 1316.98 495.441 1319.87C491.077 1320.69 486.885 1317.84 486.026 1313.48L483.14 1298.27C482.315 1293.9 485.167 1289.71 489.531 1288.85L504.753 1285.97C509.117 1285.15 513.309 1288 514.168 1292.36L517.055 1307.57C517.914 1311.93 515.027 1316.16 510.663 1316.98ZM555.162 1308.53 539.939 1311.42C535.575 1312.24 531.383 1309.39 530.524 1305.03L527.638 1289.82C526.813 1285.45 529.665 1281.26 534.029 1280.41L549.251 1277.52C553.615 1276.7 557.807 1279.55 558.666 1283.91L561.553 1299.12C562.377 1303.52 559.526 1307.71 555.162 1308.53ZM608.731 1299.06 593.509 1301.94C589.145 1302.76 584.953 1299.91 584.094 1295.55L581.208 1280.34C580.383 1275.98 583.235 1271.79 587.599 1270.93L602.821 1268.04C607.185 1267.22 611.377 1270.07 612.236 1274.43L615.123 1289.65C615.981 1294.01 613.095 1298.23 608.731 1299.06ZM653.195 1290.61 637.973 1293.49C633.609 1294.32 629.417 1291.47 628.558 1287.1L625.672 1271.89C624.847 1267.53 627.699 1263.34 632.063 1262.48L647.285 1259.59C651.649 1258.77 655.841 1261.62 656.7 1265.98L659.586 1281.2C660.439 1285.53 657.614 1289.74 653.274 1290.59 653.247 1290.6 653.223 1290.6 653.195 1290.61ZM700.614 1281.64 685.392 1284.53C681.028 1285.35 676.836 1282.5 675.977 1278.14L673.091 1262.92C672.266 1258.56 675.118 1254.37 679.482 1253.51L694.704 1250.63C699.068 1249.8 703.26 1252.66 704.119 1257.02L707.006 1272.23C707.83 1276.63 704.978 1280.82 700.614 1281.64ZM742.501 1273.23 727.279 1276.11C722.915 1276.94 718.723 1274.09 717.864 1269.72L714.977 1254.51C714.153 1250.15 717.005 1245.96 721.369 1245.1L736.591 1242.21C740.955 1241.39 745.147 1244.24 746.006 1248.6L748.892 1263.82C749.717 1268.18 746.865 1272.4 742.501 1273.23ZM790.779 1264.09 775.557 1266.98C771.193 1267.8 767.001 1264.95 766.142 1260.59L763.256 1245.37C762.431 1241.01 765.283 1236.82 769.647 1235.96L784.869 1233.08C789.233 1232.25 793.425 1235.1 794.284 1239.47L797.17 1254.68C797.995 1259.04 795.143 1263.27 790.779 1264.09ZM835.243 1255.68 820.021 1258.56C815.657 1259.39 811.465 1256.54 810.606 1252.17L807.719 1236.96C806.895 1232.6 809.747 1228.41 814.111 1227.55L829.333 1224.66C833.697 1223.84 837.889 1226.69 838.748 1231.05L841.635 1246.27C842.493 1250.63 839.607 1254.85 835.243 1255.68ZM882.628 1246.68 867.406 1249.56C863.042 1250.39 858.85 1247.54 857.991 1243.18L855.104 1227.96C854.28 1223.6 857.132 1219.41 861.495 1218.55L876.718 1215.67C881.082 1214.84 885.274 1217.69 886.133 1222.05L889.019 1237.27C889.871 1241.61 887.047 1245.81 882.707 1246.67 882.68 1246.67 882.655 1246.68 882.628 1246.68ZM927.126 1238.26 911.904 1241.15C907.54 1241.97 903.348 1239.12 902.489 1234.76L899.603 1219.55C898.778 1215.18 901.63 1210.99 905.994 1210.14L921.216 1207.25C925.58 1206.43 929.772 1209.28 930.631 1213.64L933.518 1228.85C934.342 1233.25 931.49 1237.44 927.126 1238.26ZM968.154 1230.98 952.932 1233.87C948.568 1234.69 944.376 1231.84 943.517 1227.48L940.63 1212.27C939.806 1207.9 942.658 1203.71 947.022 1202.85L962.244 1199.97C966.608 1199.15 970.8 1202 971.659 1206.36L974.545 1221.57C975.397 1225.91 972.573 1230.11 968.233 1230.97 968.206 1230.97 968.182 1230.98 968.154 1230.98ZM489.805 1368.02 474.584 1370.91C470.22 1371.73 466.027 1368.88 465.168 1364.52L462.282 1349.3C461.457 1344.94 464.309 1340.75 468.673 1339.89L483.895 1337.01C488.259 1336.18 492.451 1339.03 493.311 1343.4L496.197 1358.61C497.022 1362.97 494.17 1367.2 489.805 1368.02ZM539.596 1359.23 524.374 1362.11C520.009 1362.94 515.818 1360.09 514.958 1355.73L512.072 1340.51C511.247 1336.15 514.099 1331.96 518.463 1331.1L533.685 1328.21C538.049 1327.39 542.242 1330.24 543.101 1334.6L545.987 1349.82C546.812 1354.18 543.959 1358.4 539.596 1359.23ZM585.846 1350.47 570.624 1353.36C566.26 1354.18 562.068 1351.33 561.209 1346.97L558.323 1331.75C557.498 1327.39 560.35 1323.2 564.714 1322.34L579.936 1319.46C584.3 1318.63 588.492 1321.48 589.351 1325.84L592.237 1341.06C593.097 1345.42 590.21 1349.65 585.846 1350.47ZM632.2 1341.3 616.978 1344.19C612.614 1345.01 608.422 1342.16 607.563 1337.8L604.677 1322.58C603.852 1318.22 606.704 1314.03 611.068 1313.17L626.29 1310.29C630.654 1309.46 634.846 1312.31 635.705 1316.67L638.592 1331.89C639.416 1336.29 636.564 1340.48 632.2 1341.3ZM680.685 1332.13 665.462 1335.01C661.099 1335.84 656.906 1332.99 656.047 1328.63L653.161 1313.41C652.336 1309.05 655.188 1304.86 659.552 1304L674.774 1301.12C679.138 1300.29 683.33 1303.14 684.19 1307.5L687.076 1322.72C687.935 1327.08 685.049 1331.31 680.685 1332.13ZM728.069 1323.17 712.847 1326.05C708.483 1326.88 704.291 1324.02 703.432 1319.66L700.546 1304.45C699.721 1300.09 702.573 1295.9 706.937 1295.04L722.159 1292.15C726.523 1291.33 730.715 1294.18 731.574 1298.54L734.46 1313.76C735.319 1318.12 732.433 1322.34 728.069 1323.17ZM767.482 1312.24 752.26 1315.13C747.896 1315.95 743.704 1313.1 742.845 1308.74L739.958 1293.53C739.134 1289.16 741.986 1284.97 746.35 1284.12L761.572 1281.23C765.936 1280.41 770.128 1283.26 770.987 1287.62L773.873 1302.83C774.725 1307.17 771.901 1311.38 767.561 1312.23 767.533 1312.23 767.51 1312.24 767.482 1312.24ZM815.76 1303.11 800.538 1305.99C796.174 1306.82 791.982 1303.97 791.123 1299.6L788.237 1284.39C787.412 1280.03 790.264 1275.84 794.628 1274.98L809.85 1272.09C814.214 1271.27 818.406 1274.12 819.265 1278.48L822.151 1293.7C823.003 1298.04 820.179 1302.24 815.839 1303.09 815.812 1303.1 815.788 1303.1 815.76 1303.11ZM860.258 1294.69 845.036 1297.58C840.672 1298.4 836.48 1295.55 835.621 1291.19L832.735 1275.98C831.91 1271.61 834.762 1267.42 839.126 1266.57L854.349 1263.68C858.712 1262.86 862.904 1265.71 863.763 1270.07L866.65 1285.28C867.474 1289.68 864.622 1293.87 860.258 1294.69ZM907.643 1285.73 892.421 1288.61C888.057 1289.44 883.865 1286.59 883.006 1282.23L880.12 1267.01C879.295 1262.65 882.147 1258.46 886.511 1257.6L901.733 1254.72C906.097 1253.89 910.289 1256.74 911.148 1261.1L914.035 1276.32C914.859 1280.68 912.007 1284.91 907.643 1285.73ZM398.198 1385.98 319.647 1400.85C315.283 1401.68 311.091 1398.83 310.232 1394.47L307.345 1379.25C306.521 1374.89 309.372 1370.7 313.736 1369.84L392.287 1354.97C396.651 1354.15 400.843 1357 401.702 1361.36L404.589 1376.57C405.448 1380.93 402.561 1385.16 398.198 1385.98ZM475.752 1420.5 460.529 1423.39C456.166 1424.21 451.973 1421.36 451.114 1417L448.228 1401.78C447.403 1397.42 450.255 1393.23 454.619 1392.37L469.841 1389.49C474.206 1388.66 478.397 1391.51 479.257 1395.87L482.143 1411.09C482.967 1415.45 480.116 1419.68 475.752 1420.5ZM441.527 1377.16 426.305 1380.04C421.942 1380.87 417.749 1378.02 416.89 1373.65L414.004 1358.44C413.179 1354.08 416.031 1349.89 420.395 1349.03L435.617 1346.14C439.981 1345.32 444.173 1348.17 445.032 1352.53L447.919 1367.75C448.778 1372.11 445.891 1376.33 441.527 1377.16ZM971.178 1275.19 933.552 1282.3C929.188 1283.12 924.996 1280.27 924.137 1275.91L921.25 1260.69C920.426 1256.33 923.278 1252.14 927.642 1251.28L965.268 1244.17C969.632 1243.35 973.824 1246.2 974.683 1250.56L977.569 1265.78C978.394 1270.17 975.542 1274.36 971.178 1275.19ZM427.68 1427.99 328.34 1446.81C323.976 1447.63 319.784 1444.78 318.925 1440.42L316.039 1425.21C315.214 1420.84 318.066 1416.65 322.43 1415.79L421.769 1396.97C426.133 1396.15 430.325 1399 431.185 1403.36L434.071 1418.58C434.896 1422.94 432.044 1427.16 427.68 1427.99ZM523.274 1409.89 508.052 1412.77C503.688 1413.6 499.496 1410.75 498.637 1406.38L495.75 1391.17C494.926 1386.81 497.777 1382.62 502.141 1381.76L517.364 1378.87C521.727 1378.05 525.92 1380.9 526.779 1385.26L529.665 1400.48C530.524 1404.84 527.638 1409.06 523.274 1409.89ZM575.366 1400.13 560.144 1403.02C555.78 1403.84 551.588 1400.99 550.729 1396.63L547.842 1381.42C547.018 1377.05 549.87 1372.86 554.234 1372L569.456 1369.12C573.82 1368.3 578.012 1371.15 578.871 1375.51L581.757 1390.72C582.61 1395.06 579.785 1399.26 575.445 1400.12 575.418 1400.12 575.394 1400.13 575.366 1400.13ZM621.617 1391.38 606.395 1394.26C602.031 1395.08 597.839 1392.23 596.98 1387.87L594.093 1372.66C593.269 1368.3 596.121 1364.11 600.485 1363.25L615.707 1360.36C620.071 1359.54 624.263 1362.39 625.122 1366.75L628.008 1381.96C628.86 1386.3 626.036 1390.51 621.696 1391.36 621.668 1391.37 621.645 1391.37 621.617 1391.38ZM667.971 1382.24 652.749 1385.12C648.385 1385.95 644.193 1383.1 643.333 1378.74L640.447 1363.52C639.622 1359.16 642.474 1354.97 646.838 1354.11L662.061 1351.23C666.424 1350.4 670.617 1353.25 671.476 1357.61L674.362 1372.83C675.187 1377.19 672.335 1381.42 667.971 1382.24ZM716.455 1373.07 701.233 1375.95C696.869 1376.78 692.677 1373.93 691.818 1369.57L688.931 1354.35C688.107 1349.99 690.959 1345.8 695.322 1344.94L710.545 1342.06C714.909 1341.23 719.101 1344.08 719.96 1348.44L722.846 1363.66C723.705 1368.02 720.819 1372.21 716.455 1373.07ZM763.874 1364.07 748.652 1366.96C744.288 1367.78 740.096 1364.93 739.237 1360.57L736.35 1345.35C735.526 1340.99 738.378 1336.8 742.742 1335.94L757.964 1333.06C762.328 1332.23 766.52 1335.08 767.379 1339.45L770.266 1354.66C771.09 1359.06 768.238 1363.25 763.874 1364.07ZM803.253 1353.18 788.03 1356.07C783.666 1356.89 779.474 1354.04 778.615 1349.68L775.729 1334.47C774.904 1330.1 777.756 1325.91 782.12 1325.06L797.342 1322.17C801.706 1321.35 805.898 1324.2 806.757 1328.56L809.644 1343.77C810.496 1348.11 807.672 1352.31 803.332 1353.17 803.304 1353.17 803.28 1353.18 803.253 1353.18ZM851.531 1344.05 836.308 1346.93C831.945 1347.76 827.752 1344.91 826.893 1340.54L824.007 1325.33C823.182 1320.97 826.035 1316.78 830.398 1315.92L845.62 1313.03C849.984 1312.21 854.176 1315.06 855.036 1319.42L857.922 1334.64C858.781 1339 855.895 1343.22 851.531 1344.05ZM896.029 1335.63 880.807 1338.52C876.443 1339.34 872.251 1336.49 871.392 1332.13L868.506 1316.91C867.68 1312.55 870.533 1308.36 874.897 1307.5L890.119 1304.62C894.483 1303.8 898.675 1306.65 899.534 1311.01L902.42 1326.22C903.245 1330.58 900.393 1334.81 896.029 1335.63ZM983.961 1314.55 925.202 1325.67C920.838 1326.5 916.646 1323.65 915.787 1319.29L912.901 1304.07C912.076 1299.71 914.928 1295.52 919.292 1294.66L978.05 1283.53C982.414 1282.71 986.606 1285.56 987.465 1289.92L990.352 1305.13C991.176 1309.53 988.324 1313.72 983.961 1314.55ZM347.273 1487.47 332.051 1490.36C327.687 1491.18 323.495 1488.33 322.636 1483.97L319.75 1468.75C318.925 1464.39 321.777 1460.2 326.141 1459.34L341.363 1456.46C345.727 1455.64 349.919 1458.49 350.778 1462.85L353.665 1478.06C354.524 1482.46 351.672 1486.65 347.273 1487.47ZM391.772 1479.06 376.549 1481.94C372.185 1482.77 367.994 1479.92 367.135 1475.56L364.248 1460.34C363.424 1455.98 366.275 1451.79 370.639 1450.93L385.862 1448.05C390.226 1447.22 394.418 1450.07 395.277 1454.43L398.163 1469.65C398.988 1474.04 396.136 1478.23 391.772 1479.06ZM439.157 1470.09 423.934 1472.98C419.57 1473.8 415.378 1470.95 414.519 1466.59L411.633 1451.38C410.808 1447.01 413.66 1442.82 418.024 1441.97L433.246 1439.08C437.61 1438.26 441.802 1441.11 442.661 1445.47L445.548 1460.68C446.407 1465.05 443.521 1469.27 439.157 1470.09ZM483.655 1461.68 468.433 1464.56C464.069 1465.39 459.876 1462.54 459.017 1458.18L456.131 1442.96C455.306 1438.6 458.159 1434.41 462.523 1433.55L477.744 1430.67C482.108 1429.84 486.301 1432.69 487.16 1437.05L490.046 1452.27C490.871 1456.63 488.019 1460.86 483.655 1461.68ZM537.225 1452.17 522.002 1455.05C517.639 1455.88 513.446 1453.03 512.587 1448.66L509.701 1433.45C508.876 1429.09 511.728 1424.9 516.092 1424.04L531.314 1421.15C535.678 1420.33 539.871 1423.18 540.73 1427.54L543.616 1442.76C544.441 1447.12 541.589 1451.34 537.225 1452.17ZM719.239 1417.2 567.6 1445.92C563.237 1446.74 559.044 1443.89 558.185 1439.53L555.299 1424.31C554.474 1419.95 557.326 1415.76 561.69 1414.9L713.328 1386.19C717.692 1385.37 721.884 1388.22 722.743 1392.58L725.63 1407.79C726.482 1412.13 723.657 1416.33 719.318 1417.19 719.29 1417.19 719.266 1417.2 719.239 1417.2ZM763.737 1408.79 748.515 1411.67C744.151 1412.5 739.958 1409.65 739.099 1405.29L736.213 1390.07C735.388 1385.71 738.24 1381.52 742.604 1380.66L757.826 1377.77C762.19 1376.95 766.383 1379.8 767.242 1384.16L770.128 1399.38C770.953 1403.74 768.101 1407.96 763.737 1408.79ZM811.121 1399.82 795.899 1402.71C791.535 1403.53 787.343 1400.68 786.484 1396.32L783.598 1381.11C782.773 1376.74 785.625 1372.55 789.989 1371.7L805.211 1368.81C809.575 1367.99 813.767 1370.84 814.626 1375.2L817.513 1390.41C818.372 1394.78 815.485 1399 811.121 1399.82ZM855.62 1391.41 840.398 1394.29C836.034 1395.12 831.842 1392.27 830.983 1387.91L828.096 1372.69C827.272 1368.33 830.123 1364.14 834.487 1363.28L849.71 1360.4C854.074 1359.57 858.266 1362.42 859.125 1366.78L862.011 1382C862.836 1386.36 859.984 1390.55 855.62 1391.41ZM896.647 1384.13 881.425 1387.01C877.061 1387.84 872.869 1384.99 872.01 1380.63L869.124 1365.41C868.299 1361.05 871.151 1356.86 875.515 1356L890.737 1353.11C895.101 1352.29 899.293 1355.14 900.153 1359.5L903.039 1374.72C903.898 1379.08 901.011 1383.3 896.647 1384.13ZM944.548 1372.9 929.325 1375.78C924.961 1376.61 920.77 1373.76 919.91 1369.39L917.024 1354.18C916.199 1349.82 919.051 1345.63 923.415 1344.77L938.638 1341.88C943.001 1341.06 947.194 1343.91 948.052 1348.27L950.939 1363.49C951.791 1367.82 948.967 1372.03 944.627 1372.88 944.599 1372.89 944.575 1372.89 944.548 1372.9ZM991.967 1363.93 976.745 1366.82C972.38 1367.64 968.189 1364.79 967.329 1360.43L964.443 1345.22C963.618 1340.85 966.47 1336.66 970.834 1335.8L986.057 1332.92C990.421 1332.1 994.613 1334.95 995.472 1339.31L998.358 1354.52C999.183 1358.92 996.331 1363.11 991.967 1363.93ZM1044.06 1216.01 1028.84 1218.89C1024.47 1219.72 1020.28 1216.87 1019.42 1212.51L1016.54 1197.29C1015.71 1192.93 1018.56 1188.74 1022.93 1187.88L1038.15 1185C1042.51 1184.17 1046.7 1187.02 1047.56 1191.38L1050.45 1206.6C1051.31 1210.96 1048.42 1215.15 1044.06 1216.01ZM1135.22 1198.73 1120 1201.62C1115.63 1202.44 1111.44 1199.59 1110.58 1195.23L1107.7 1180.02C1106.87 1175.65 1109.72 1171.46 1114.09 1170.6L1129.31 1167.72C1133.67 1166.9 1137.87 1169.75 1138.73 1174.11L1141.61 1189.32C1142.47 1193.68 1139.58 1197.91 1135.22 1198.73ZM1088.87 1207.53 1073.64 1210.41C1069.28 1211.23 1065.09 1208.38 1064.23 1204.02L1061.34 1188.81C1060.52 1184.45 1063.37 1180.26 1067.73 1179.4L1082.96 1176.51C1087.32 1175.69 1091.51 1178.54 1092.37 1182.9L1095.26 1198.11C1096.08 1202.48 1093.23 1206.7 1088.87 1207.53ZM1052.37 1259.83 1037.15 1262.72C1032.79 1263.54 1028.6 1260.69 1027.74 1256.33L1024.85 1241.12C1024.03 1236.75 1026.88 1232.56 1031.24 1231.7L1046.46 1228.82C1050.83 1228 1055.02 1230.85 1055.88 1235.21L1058.77 1250.42C1059.59 1254.78 1056.74 1259.01 1052.37 1259.83ZM1096.91 1249.91 1081.69 1252.79C1077.32 1253.62 1073.13 1250.77 1072.27 1246.4L1069.38 1231.19C1068.56 1226.83 1071.41 1222.64 1075.78 1221.78L1091 1218.89C1095.36 1218.07 1099.55 1220.92 1100.41 1225.28L1103.3 1240.5C1104.12 1244.86 1101.27 1249.08 1096.91 1249.91ZM1143.26 1241.12 1128.04 1244C1123.68 1244.82 1119.48 1241.97 1118.62 1237.61L1115.74 1222.4C1114.91 1218.04 1117.76 1213.85 1122.13 1212.99L1137.35 1210.1C1141.71 1209.28 1145.91 1212.13 1146.77 1216.49L1149.65 1231.7C1150.5 1236.04 1147.68 1240.25 1143.34 1241.1 1143.31 1241.1 1143.29 1241.11 1143.26 1241.12ZM1060.83 1303.11 1045.61 1305.99C1041.24 1306.82 1037.05 1303.97 1036.19 1299.6L1033.3 1284.39C1032.48 1280.03 1035.33 1275.84 1039.7 1274.98L1054.92 1272.09C1059.28 1271.27 1063.47 1274.12 1064.33 1278.48L1067.22 1293.7C1068.04 1298.09 1065.19 1302.28 1060.83 1303.11ZM1104.6 1290.61 1089.38 1293.49C1085.02 1294.32 1080.83 1291.47 1079.97 1287.1L1077.08 1271.89C1076.26 1267.53 1079.11 1263.34 1083.47 1262.48L1098.69 1259.59C1103.06 1258.77 1107.25 1261.62 1108.11 1265.98L1111 1281.2C1111.85 1285.53 1109.02 1289.74 1104.68 1290.59 1104.66 1290.6 1104.63 1290.6 1104.6 1290.61ZM1152.75 1282.6 1137.52 1285.49C1133.16 1286.31 1128.97 1283.46 1128.11 1279.1L1125.22 1263.89C1124.4 1259.52 1127.25 1255.33 1131.61 1254.48L1146.83 1251.59C1151.2 1250.77 1155.39 1253.62 1156.25 1257.98L1159.14 1273.19C1160 1277.56 1157.11 1281.78 1152.75 1282.6ZM1122.54 1333.81 1053.34 1346.9C1048.97 1347.72 1044.78 1344.87 1043.92 1340.51L1041.04 1325.3C1040.21 1320.93 1043.06 1316.74 1047.43 1315.88L1116.63 1302.8C1120.99 1301.97 1125.19 1304.83 1126.05 1309.19L1128.93 1324.4C1129.78 1328.74 1126.96 1332.94 1122.62 1333.8 1122.59 1333.8 1122.57 1333.81 1122.54 1333.81ZM1160.96 1325.95 1145.74 1328.83C1141.37 1329.66 1137.18 1326.81 1136.32 1322.44L1133.43 1307.23C1132.61 1302.87 1135.46 1298.68 1139.83 1297.82L1155.05 1294.93C1159.41 1294.11 1163.6 1296.96 1164.46 1301.32L1167.35 1316.54C1168.21 1320.9 1165.32 1325.12 1160.96 1325.95Z" stroke="#000000" stroke-width="3.4375" stroke-miterlimit="8" fill="#D6DBD9" fill-rule="evenodd"/><path d="M370.443 1162.85C366.967 1171.93 384.347 1188.94 408.715 1212.76 411.984 1215.96 423.101 1226.61 439.415 1238.33 448.329 1244.73 455.66 1249.16 458.895 1251.12 467.671 1256.31 483.813 1266.17 505.22 1272.74 527.075 1279.41 542.872 1284.25 563.282 1280.92 571.266 1279.61 597.32 1275.39 603.619 1258.37 607.267 1248.54 602.724 1238.54 601.072 1234.86 578.081 1184.03 380.837 1135.56 370.409 1162.89L370.443 1162.85Z" fill="#5B5742" fill-rule="evenodd" fill-opacity="0.431373"/><path d="M347.036 931.129C355.843 916.093 361.251 914.035 364.448 914.575 372.016 915.856 371.989 932.651 385.642 959.019 390.279 967.976 394.405 974.292 397.895 979.638 421.516 1011.37 460.622 1059.22 487.774 1093.73 535.233 1146.48 547.706 1163.97 584.454 1207.98 587.176 1210.6 595.368 1218.38 598.534 1230.84 613.389 1308.03 452.272 1221.16 436.257 1210.46 404.108 1190.18 404.521 1183.75 352.515 1141.17 299.959 1098.14 292.215 1098.72 287.5 1083.16 290.273 1060.38 295.436 1037.94 302.902 1016.24 313.371 985.862 328.241 957.188 347.036 931.129Z" stroke="#000000" stroke-width="20.625" stroke-miterlimit="8" fill="#EBE2B3" fill-rule="evenodd"/><path d="M877.325 1244.68C884.934 1257.32 925.218 1250.77 942.468 1245.92 956.619 1241.95 970.839 1234.76 976.314 1231.83 979.929 1229.93 987.503 1225.77 996.524 1219.53 1011.5 1209.17 1018.11 1201.93 1034.33 1186.12 1056.12 1164.87 1071.48 1153.27 1086.18 1130.29 1089.35 1125.37 1093.79 1117.86 1091.24 1111.18 1087.97 1102.67 1075.2 1100.4 1070.65 1099.47 1026.17 1090.44 859.524 1215.19 877.325 1244.68Z" fill="#5B5742" fill-rule="evenodd" fill-opacity="0.431373"/><path d="M1059.55 910.5C1054.68 915.998 1047.32 924.725 1039.34 936.133 1027.28 953.382 1021.76 965.305 1012.24 982.622 1008.64 989.15 999.597 1003.72 981.612 1032.62 960.715 1066.22 950.301 1083.02 938.757 1101.1 883.877 1187.17 864.042 1209.4 872.298 1221.22 875.553 1225.89 883.98 1230.12 908.131 1225.51 933.104 1219.6 967.533 1208.27 1003.71 1185.48 1062.49 1148.44 1095 1100.58 1110.49 1073.68 1110.66 1062.61 1109.25 1055.26 1101.82 1036.02 1093.31 1013.99 1097.67 1000.66 1087.81 969.359 1084.75 959.642 1079.17 945.111 1068.42 928.313L1059.55 910.5Z" stroke="#000000" stroke-width="20.625" stroke-miterlimit="8" fill="#EBE2B3" fill-rule="evenodd"/></g></svg>