<svg width="1029" height="1260" xmlns="http://www.w3.org/2000/svg" xmlns:xlink="http://www.w3.org/1999/xlink" xml:space="preserve" overflow="hidden"><defs><clipPath id="clip0"><rect x="206" y="618" width="1029" height="1260"/></clipPath></defs><g clip-path="url(#clip0)" transform="translate(-206 -618)"><path d="M489.212 1648.73C486.871 1653.62 483.774 1661.76 483.506 1672.01 483.506 1672.01 483.22 1682.98 486.696 1692.72 486.758 1692.9 487.229 1694.22 487.855 1696.03 490.742 1704.39 490.846 1706.01 496.621 1725.89 505.903 1757.82 506.659 1757.13 508.893 1768.07 511.987 1783.1 510.406 1783.48 514.153 1804.95 517.625 1824.8 519.482 1834.84 524.673 1841.83 526.013 1843.62 539.283 1860.92 558.019 1859.41 570.326 1858.41 578.507 1849.77 584.352 1843.58 587.892 1839.87 590.643 1836.05 603.672 1808.46 611.2 1792.53 615.016 1784.37 617.732 1776.84 619.176 1772.85 620.138 1769.65 620.86 1766.86 623.817 1755.61 625.707 1748.36 626.498 1745.22 628.32 1738 632.686 1727.75 644.065 1715.36 620.792 1711.06 591.261 1703.36 558.93 1689.01 530.163 1676.24 506.93 1661.65 489.212 1648.73ZM830.596 1705.9C838.194 1723.24 845.791 1742.95 852.701 1764.9 859.507 1786.57 864.526 1806.87 868.239 1825.34 887.284 1872.3 937.441 1860.74 943.457 1811.31 950.435 1789.57 957.173 1766.38 963.395 1741.82 968.999 1719.69 973.743 1698.37 977.731 1678 978.264 1673.31 978.569 1668.18 978.487 1662.68 978.24 1645.9 974.503 1631.85 970.642 1621.5 923.958 1649.63 877.277 1677.77 830.596 1705.9Z" stroke="#000000" stroke-width="20.625" stroke-miterlimit="8" fill="#EBE2B3" fill-rule="evenodd"/><path d="M267.769 1256.94C265.363 1247.27 262.58 1232.66 262.511 1214.78 262.442 1195.76 265.535 1190.53 266.016 1174.4 266.979 1142.45 255.534 1140.63 255.5 1112.95 255.5 1080.07 271.515 1054.28 276.567 1046.23 288.046 1027.83 292.616 1030.45 306.397 1009.36 319.216 989.762 325.127 972.43 330.97 954.925 341.108 924.559 338.703 918.472 346.779 889.962 352.484 869.81 359.735 844.121 376.61 817.95 387.607 800.892 406.165 784.351 443.282 751.233 467.133 729.946 484.316 716.224 497.685 705.563 538.444 673.099 551.848 666.152 557.346 663.401 576.626 653.841 593.981 645.209 617.008 645.828 628.589 646.137 646.838 647.272 666.462 647.1 669.246 647.066 675.535 647.1 683.714 646.584 687.22 646.344 693.096 645.897 700.176 644.934 712.204 643.317 721.243 641.185 724.027 640.532 764.167 631.246 784.444 625.641 803.002 630.008 825.307 635.236 840.291 648.166 853.9 659.859 862.526 667.287 874.383 682.488 897.787 712.544 923.803 746.006 929.817 754.982 945.179 766.984 960.541 778.986 962.466 776.166 973.257 786.311 987.622 799.792 993.018 813.032 1006.59 844.258 1032.54 903.959 1030.41 896.153 1032.92 903.959 1035.46 911.972 1036.9 919.847 1040.17 935.529 1044.29 955.372 1045.5 964.933 1050.48 993.545 1054.36 1015.76 1056.18 1026.9 1057.49 1032.17 1066.29 1067.83 1079.52 1092.04 1083.82 1100.64 1103.92 1140.8 1101.89 1188.3 1097.87 1283.28 1095.43 1340.88 1094.09 1372.18 1080.31 1413.24 1073.2 1434.42 1069.93 1436.87 1052.23 1485.25 1037.25 1526.18 1034.77 1537.59 1022.4 1566.04 1008.66 1597.67 1001.78 1613.49 987.313 1631 981.196 1638.43 966.933 1654.38 929.404 1676.67 901.248 1693.39 864.695 1715.27 811.835 1725.85 811.835 1725.85 764.494 1735.32 659.365 1723.77 644.305 1722.11 631.287 1719.37 631.287 1719.37 619.771 1716.95 613.217 1714.8 604.086 1712.35 581.455 1706.28 579.042 1708.07 561.089 1703.57 535.764 1697.22 516.803 1687.68 503.177 1680.74 498.877 1678.55 494.966 1676.36 494.616 1676.17 482.979 1669.69 474.875 1664.12 473.284 1663.05 457.74 1652.53 421.386 1636.69 409.946 1630.99 370.083 1611.16 348.408 1573.34 334.476 1548.46 327.602 1536.18 318.186 1508.08 299.387 1451.86 286.98 1414.75 280.691 1395.94 278.32 1383.39 273.797 1359.44 272.381 1336.4 269.556 1290.33 268.69 1276.21 268.12 1264.6 267.769 1256.94Z" stroke="#000000" stroke-width="20.625" stroke-miterlimit="8" fill="#EBE2B3" fill-rule="evenodd"/><path d="M513 783.743 526.141 759 644 821.258 630.858 846 513 783.743Z" stroke="#000000" stroke-width="10.3129" stroke-miterlimit="8" fill="#595850" fill-rule="evenodd"/><path d="M766 819.744 886.765 762 899 787.256 778.235 845 766 819.744Z" stroke="#000000" stroke-width="10.3129" stroke-miterlimit="8" fill="#595850" fill-rule="evenodd"/><path d="M968 1868.5C968 1873.75 863.235 1878 734 1878 604.766 1878 500 1873.75 500 1868.5 500 1863.25 604.766 1859 734 1859 863.235 1859 968 1863.25 968 1868.5Z" fill="#5B5742" fill-rule="evenodd" fill-opacity="0.470588"/><path d="M1198.1 1396.08 301.288 1565.93C283.654 1569.26 266.674 1557.68 263.339 1540.08L217.072 1295.87C213.738 1278.24 225.322 1261.26 242.921 1257.92L1139.7 1088.07C1157.34 1084.74 1174.32 1096.32 1177.65 1113.92L1223.92 1358.13C1227.29 1375.73 1215.7 1392.74 1198.1 1396.08L1198.1 1396.08Z" stroke="#000000" stroke-width="20.625" stroke-miterlimit="8" fill="#A6A897" fill-rule="evenodd"/><path d="M759 1040C759 1076.45 738.405 1106 713 1106 687.595 1106 667 1076.45 667 1040 667 1003.55 687.595 974 713 974 738.405 974 759 1003.55 759 1040Z" stroke="#000000" stroke-width="10.3125" stroke-miterlimit="8" fill="#E73A8F" fill-rule="evenodd"/><path d="M496.089 1287.76 467.363 1293.19C462.998 1294.01 458.806 1291.16 457.947 1286.8L455.061 1271.58C454.236 1267.22 457.088 1263.03 461.452 1262.17L490.179 1256.75C494.543 1255.92 498.735 1258.77 499.594 1263.13L502.48 1278.35C503.305 1282.74 500.453 1286.93 496.089 1287.76ZM632.539 1261.93 603.813 1267.36C599.449 1268.18 595.256 1265.33 594.397 1260.97L591.511 1245.75C590.686 1241.39 593.539 1237.2 597.903 1236.34L626.629 1230.92C630.993 1230.09 635.185 1232.94 636.044 1237.31L638.93 1252.52C639.755 1256.88 636.903 1261.11 632.539 1261.93ZM311.67 1322.69 282.943 1328.11C278.579 1328.94 274.387 1326.09 273.528 1321.73L270.642 1306.51C269.817 1302.15 272.669 1297.96 277.033 1297.1L305.76 1291.67C310.124 1290.85 314.316 1293.7 315.174 1298.06L318.061 1313.28C318.92 1317.64 316.034 1321.86 311.67 1322.69ZM372.49 1311.15 343.763 1316.57C339.4 1317.4 335.207 1314.55 334.348 1310.19L331.462 1294.97C330.637 1290.61 333.49 1286.42 337.853 1285.56L366.58 1280.13C370.944 1279.31 375.136 1282.16 375.995 1286.52L378.881 1301.74C379.733 1306.08 376.909 1310.28 372.569 1311.13 372.541 1311.14 372.518 1311.14 372.49 1311.15ZM871.352 1216.73 842.626 1222.16C838.262 1222.98 834.07 1220.13 833.211 1215.77L830.325 1200.56C829.5 1196.19 832.352 1192 836.716 1191.15L865.442 1185.72C869.806 1184.9 873.998 1187.75 874.857 1192.11L877.744 1207.32C878.603 1211.68 875.716 1215.87 871.352 1216.73ZM435.028 1299.33 406.302 1304.76C401.938 1305.58 397.746 1302.73 396.887 1298.37L394 1283.16C393.176 1278.79 396.028 1274.6 400.391 1273.75L429.118 1268.32C433.482 1267.5 437.674 1270.35 438.533 1274.71L441.419 1289.92C442.278 1294.28 439.392 1298.51 435.028 1299.33ZM693.875 1250.32 665.148 1255.75C660.784 1256.57 656.592 1253.72 655.733 1249.36L652.847 1234.15C652.022 1229.78 654.874 1225.59 659.238 1224.74L687.964 1219.31C692.328 1218.48 696.52 1221.34 697.379 1225.7L700.266 1240.91C701.09 1245.27 698.239 1249.5 693.875 1250.32ZM752.599 1239.2 723.872 1244.62C719.508 1245.45 715.316 1242.59 714.457 1238.23L711.571 1223.02C710.746 1218.66 713.598 1214.47 717.962 1213.61L746.688 1208.18C751.052 1207.36 755.244 1210.21 756.103 1214.57L758.99 1229.78C759.815 1234.18 756.963 1238.37 752.599 1239.2ZM812.01 1227.96 783.283 1233.39C778.919 1234.21 774.727 1231.36 773.868 1227L770.982 1211.79C770.157 1207.43 773.009 1203.24 777.373 1202.38L806.099 1196.95C810.464 1196.13 814.656 1198.98 815.515 1203.34L818.401 1218.55C819.26 1222.92 816.374 1227.14 812.01 1227.96ZM564.297 1274.85 535.57 1280.27C531.206 1281.1 527.014 1278.25 526.155 1273.88L523.269 1258.67C522.444 1254.31 525.296 1250.12 529.66 1249.26L558.386 1243.83C562.75 1243.01 566.942 1245.86 567.801 1250.22L570.688 1265.43C571.54 1269.77 568.716 1273.98 564.376 1274.83 564.348 1274.84 564.324 1274.84 564.297 1274.85ZM939.388 1201.66 910.662 1207.08C906.298 1207.91 902.106 1205.06 901.247 1200.69L898.361 1185.48C897.536 1181.12 900.388 1176.93 904.752 1176.07L933.478 1170.64C937.842 1169.82 942.034 1172.67 942.893 1177.03L945.78 1192.24C946.639 1196.61 943.752 1200.83 939.388 1201.66ZM348.402 1361.84 289.919 1372.9C285.555 1373.73 281.363 1370.87 280.504 1366.51L277.617 1351.3C276.793 1346.94 279.645 1342.75 284.009 1341.89L342.492 1330.83C346.856 1330 351.048 1332.85 351.907 1337.22L354.794 1352.43C355.646 1356.77 352.821 1360.97 348.481 1361.83 348.454 1361.83 348.43 1361.84 348.402 1361.84ZM397.815 1352.36 382.592 1355.25C378.228 1356.07 374.036 1353.22 373.177 1348.86L370.291 1333.64C369.466 1329.28 372.318 1325.09 376.682 1324.23L391.904 1321.35C396.268 1320.52 400.46 1323.38 401.319 1327.74L404.206 1342.95C405.03 1347.35 402.178 1351.54 397.815 1352.36ZM442.278 1343.95 427.056 1346.83C422.692 1347.66 418.5 1344.81 417.641 1340.44L414.755 1325.23C413.93 1320.87 416.782 1316.68 421.146 1315.82L436.368 1312.93C440.732 1312.11 444.924 1314.96 445.783 1319.32L448.67 1334.54C449.529 1338.9 446.642 1343.12 442.278 1343.95ZM489.663 1334.98 474.441 1337.87C470.077 1338.69 465.885 1335.84 465.026 1331.48L462.14 1316.27C461.315 1311.9 464.167 1307.71 468.531 1306.85L483.753 1303.97C488.117 1303.15 492.309 1306 493.168 1310.36L496.055 1325.57C496.914 1329.93 494.027 1334.16 489.663 1334.98ZM534.162 1326.53 518.939 1329.42C514.575 1330.24 510.383 1327.39 509.524 1323.03L506.638 1307.82C505.813 1303.45 508.665 1299.26 513.029 1298.41L528.251 1295.52C532.615 1294.7 536.807 1297.55 537.666 1301.91L540.553 1317.12C541.377 1321.52 538.526 1325.71 534.162 1326.53L534.162 1326.53ZM587.731 1317.06 572.509 1319.94C568.145 1320.76 563.953 1317.91 563.094 1313.55L560.208 1298.34C559.383 1293.98 562.235 1289.79 566.599 1288.93L581.821 1286.04C586.185 1285.22 590.377 1288.07 591.236 1292.43L594.123 1307.64C594.982 1312.01 592.095 1316.23 587.731 1317.06ZM632.195 1308.61 616.973 1311.49C612.609 1312.32 608.417 1309.47 607.558 1305.1L604.672 1289.89C603.847 1285.53 606.699 1281.34 611.063 1280.48L626.285 1277.59C630.649 1276.77 634.841 1279.62 635.7 1283.98L638.586 1299.2C639.439 1303.53 636.614 1307.74 632.274 1308.59 632.247 1308.6 632.223 1308.6 632.195 1308.61ZM679.614 1299.64 664.392 1302.53C660.028 1303.35 655.836 1300.5 654.977 1296.14L652.091 1280.92C651.266 1276.56 654.118 1272.37 658.482 1271.51L673.704 1268.63C678.068 1267.8 682.26 1270.65 683.119 1275.02L686.006 1290.23C686.83 1294.63 683.978 1298.82 679.614 1299.64ZM721.501 1291.23 706.279 1294.11C701.915 1294.94 697.723 1292.09 696.864 1287.72L693.977 1272.51C693.153 1268.15 696.005 1263.96 700.369 1263.1L715.591 1260.21C719.955 1259.39 724.147 1262.24 725.006 1266.6L727.892 1281.82C728.717 1286.18 725.865 1290.4 721.501 1291.23ZM769.779 1282.09 754.557 1284.98C750.193 1285.8 746.001 1282.95 745.142 1278.59L742.256 1263.37C741.431 1259.01 744.283 1254.82 748.647 1253.96L763.869 1251.08C768.233 1250.25 772.425 1253.1 773.284 1257.47L776.17 1272.68C776.995 1277.04 774.143 1281.27 769.779 1282.09ZM814.243 1273.68 799.021 1276.56C794.657 1277.39 790.465 1274.54 789.606 1270.17L786.719 1254.96C785.895 1250.6 788.747 1246.41 793.111 1245.55L808.333 1242.66C812.697 1241.84 816.889 1244.69 817.748 1249.05L820.635 1264.27C821.494 1268.63 818.607 1272.85 814.243 1273.68ZM861.628 1264.68 846.406 1267.56C842.042 1268.39 837.85 1265.54 836.991 1261.18L834.104 1245.96C833.28 1241.6 836.132 1237.41 840.495 1236.55L855.718 1233.67C860.082 1232.84 864.274 1235.69 865.133 1240.05L868.019 1255.27C868.871 1259.61 866.047 1263.81 861.707 1264.67 861.68 1264.67 861.655 1264.68 861.628 1264.68ZM906.126 1256.26 890.904 1259.15C886.54 1259.97 882.348 1257.12 881.489 1252.76L878.603 1237.55C877.778 1233.18 880.63 1228.99 884.994 1228.14L900.216 1225.25C904.58 1224.43 908.772 1227.28 909.631 1231.64L912.518 1246.85C913.343 1251.25 910.49 1255.44 906.126 1256.26ZM947.154 1248.98 931.932 1251.87C927.568 1252.69 923.376 1249.84 922.517 1245.48L919.63 1230.26C918.806 1225.9 921.658 1221.71 926.022 1220.85L941.244 1217.97C945.608 1217.15 949.8 1220 950.659 1224.36L953.545 1239.57C954.397 1243.91 951.573 1248.11 947.233 1248.97 947.206 1248.97 947.182 1248.98 947.154 1248.98ZM468.806 1386.02 453.584 1388.91C449.22 1389.73 445.027 1386.88 444.168 1382.52L441.282 1367.3C440.457 1362.94 443.309 1358.75 447.673 1357.89L462.895 1355.01C467.259 1354.18 471.451 1357.03 472.311 1361.4L475.197 1376.61C476.022 1380.97 473.17 1385.2 468.806 1386.02ZM518.596 1377.23 503.374 1380.11C499.01 1380.94 494.818 1378.09 493.958 1373.73L491.072 1358.51C490.247 1354.15 493.099 1349.96 497.463 1349.1L512.685 1346.21C517.049 1345.39 521.242 1348.24 522.101 1352.6L524.987 1367.82C525.812 1372.18 522.959 1376.4 518.596 1377.23ZM564.846 1368.47 549.624 1371.35C545.26 1372.18 541.068 1369.33 540.209 1364.97L537.323 1349.75C536.498 1345.39 539.35 1341.2 543.714 1340.34L558.936 1337.46C563.3 1336.63 567.492 1339.48 568.351 1343.84L571.238 1359.06C572.097 1363.42 569.21 1367.65 564.846 1368.47ZM611.2 1359.3 595.978 1362.19C591.614 1363.01 587.422 1360.16 586.563 1355.8L583.677 1340.58C582.852 1336.22 585.704 1332.03 590.068 1331.17L605.29 1328.29C609.654 1327.46 613.846 1330.31 614.705 1334.67L617.592 1349.89C618.416 1354.29 615.564 1358.48 611.2 1359.3ZM659.685 1350.13 644.462 1353.01C640.099 1353.84 635.906 1350.99 635.047 1346.63L632.161 1331.41C631.336 1327.05 634.188 1322.86 638.552 1322L653.774 1319.12C658.138 1318.29 662.33 1321.14 663.19 1325.5L666.076 1340.72C666.935 1345.08 664.049 1349.31 659.685 1350.13ZM707.069 1341.17 691.847 1344.05C687.483 1344.88 683.291 1342.02 682.432 1337.66L679.546 1322.45C678.721 1318.09 681.573 1313.9 685.937 1313.04L701.159 1310.15C705.523 1309.33 709.715 1312.18 710.574 1316.54L713.46 1331.76C714.319 1336.12 711.433 1340.34 707.069 1341.17ZM746.482 1330.24 731.26 1333.13C726.896 1333.95 722.704 1331.1 721.845 1326.74L718.958 1311.53C718.134 1307.16 720.986 1302.97 725.35 1302.12L740.572 1299.23C744.936 1298.41 749.128 1301.26 749.987 1305.62L752.873 1320.83C753.725 1325.17 750.901 1329.37 746.561 1330.23 746.534 1330.23 746.51 1330.24 746.482 1330.24ZM794.76 1321.11 779.538 1323.99C775.174 1324.82 770.982 1321.97 770.123 1317.6L767.237 1302.39C766.412 1298.03 769.264 1293.84 773.628 1292.98L788.85 1290.09C793.214 1289.27 797.406 1292.12 798.265 1296.48L801.151 1311.7C802.004 1316.04 799.179 1320.24 794.839 1321.09 794.812 1321.1 794.788 1321.1 794.76 1321.11ZM839.258 1312.69 824.036 1315.58C819.672 1316.4 815.48 1313.55 814.621 1309.19L811.735 1293.98C810.91 1289.61 813.762 1285.42 818.126 1284.56L833.349 1281.68C837.712 1280.86 841.905 1283.71 842.763 1288.07L845.65 1303.28C846.474 1307.68 843.622 1311.87 839.258 1312.69ZM886.643 1303.73 871.421 1306.61C867.057 1307.44 862.865 1304.59 862.006 1300.23L859.12 1285.01C858.295 1280.65 861.147 1276.46 865.511 1275.6L880.733 1272.72C885.097 1271.89 889.289 1274.74 890.148 1279.1L893.035 1294.32C893.859 1298.68 891.007 1302.91 886.643 1303.73ZM377.198 1403.98 298.647 1418.85C294.283 1419.68 290.091 1416.83 289.232 1412.47L286.345 1397.25C285.521 1392.89 288.372 1388.7 292.736 1387.84L371.287 1372.97C375.651 1372.15 379.843 1375 380.702 1379.36L383.589 1394.57C384.448 1398.93 381.561 1403.16 377.198 1403.98ZM454.752 1438.5 439.529 1441.38C435.166 1442.21 430.973 1439.36 430.115 1435L427.228 1419.78C426.403 1415.42 429.255 1411.23 433.619 1410.37L448.841 1407.49C453.206 1406.66 457.397 1409.51 458.257 1413.87L461.143 1429.09C461.967 1433.45 459.116 1437.68 454.752 1438.5ZM420.528 1395.16 405.305 1398.04C400.942 1398.87 396.749 1396.02 395.89 1391.65L393.004 1376.44C392.179 1372.08 395.031 1367.89 399.395 1367.03L414.617 1364.14C418.981 1363.32 423.173 1366.17 424.032 1370.53L426.919 1385.75C427.778 1390.11 424.892 1394.33 420.528 1395.16ZM950.178 1293.19 912.552 1300.29C908.188 1301.12 903.996 1298.27 903.137 1293.91L900.25 1278.69C899.426 1274.33 902.278 1270.14 906.642 1269.28L944.268 1262.17C948.632 1261.35 952.824 1264.2 953.683 1268.56L956.569 1283.77C957.394 1288.17 954.542 1292.36 950.178 1293.19L950.178 1293.19ZM406.68 1445.99 307.34 1464.81C302.976 1465.63 298.784 1462.78 297.925 1458.42L295.039 1443.21C294.214 1438.84 297.066 1434.65 301.43 1433.79L400.769 1414.97C405.133 1414.15 409.325 1417 410.185 1421.36L413.071 1436.58C413.896 1440.94 411.044 1445.16 406.68 1445.99ZM502.274 1427.89 487.052 1430.77C482.688 1431.6 478.496 1428.75 477.637 1424.38L474.75 1409.17C473.926 1404.81 476.777 1400.62 481.141 1399.76L496.364 1396.87C500.727 1396.05 504.92 1398.9 505.779 1403.26L508.665 1418.48C509.524 1422.84 506.638 1427.06 502.274 1427.89ZM554.366 1418.13 539.144 1421.02C534.78 1421.84 530.588 1418.99 529.729 1414.63L526.842 1399.42C526.018 1395.05 528.87 1390.86 533.234 1390L548.456 1387.12C552.82 1386.3 557.012 1389.15 557.871 1393.51L560.757 1408.72C561.61 1413.06 558.785 1417.26 554.445 1418.12 554.418 1418.12 554.394 1418.13 554.366 1418.13ZM600.617 1409.38 585.395 1412.26C581.031 1413.08 576.839 1410.23 575.98 1405.87L573.093 1390.66C572.269 1386.3 575.121 1382.11 579.485 1381.25L594.707 1378.36C599.071 1377.54 603.263 1380.39 604.122 1384.75L607.008 1399.96C607.86 1404.3 605.036 1408.51 600.696 1409.36 600.668 1409.37 600.645 1409.37 600.617 1409.38ZM646.971 1400.24 631.749 1403.12C627.385 1403.95 623.193 1401.1 622.333 1396.74L619.447 1381.52C618.622 1377.16 621.474 1372.97 625.839 1372.11L641.061 1369.23C645.424 1368.4 649.617 1371.25 650.476 1375.61L653.362 1390.83C654.187 1395.19 651.335 1399.42 646.971 1400.24ZM695.455 1391.07 680.233 1393.95C675.869 1394.78 671.677 1391.93 670.818 1387.57L667.931 1372.35C667.107 1367.99 669.959 1363.8 674.322 1362.94L689.545 1360.06C693.909 1359.23 698.101 1362.08 698.96 1366.44L701.846 1381.66C702.705 1386.02 699.819 1390.21 695.455 1391.07ZM742.874 1382.07 727.652 1384.96C723.288 1385.78 719.096 1382.93 718.237 1378.57L715.35 1363.35C714.526 1358.99 717.378 1354.8 721.742 1353.94L736.964 1351.06C741.328 1350.23 745.52 1353.08 746.379 1357.45L749.266 1372.66C750.09 1377.06 747.238 1381.25 742.874 1382.07ZM782.253 1371.18 767.03 1374.07C762.666 1374.89 758.474 1372.04 757.615 1367.68L754.729 1352.47C753.904 1348.1 756.756 1343.91 761.12 1343.05L776.343 1340.17C780.707 1339.35 784.898 1342.2 785.757 1346.56L788.644 1361.77C789.496 1366.11 786.672 1370.31 782.332 1371.17 782.304 1371.17 782.28 1371.18 782.253 1371.18ZM830.531 1362.05 815.308 1364.93C810.945 1365.76 806.752 1362.91 805.894 1358.54L803.007 1343.33C802.182 1338.97 805.035 1334.78 809.398 1333.92L824.62 1331.03C828.984 1330.21 833.177 1333.06 834.036 1337.42L836.922 1352.64C837.781 1357 834.895 1361.22 830.531 1362.05ZM875.029 1353.63 859.807 1356.52C855.443 1357.34 851.251 1354.49 850.392 1350.13L847.506 1334.91C846.681 1330.55 849.533 1326.36 853.897 1325.5L869.119 1322.62C873.483 1321.8 877.675 1324.65 878.534 1329.01L881.42 1344.22C882.245 1348.58 879.393 1352.81 875.029 1353.63ZM962.961 1332.55 904.202 1343.67C899.838 1344.5 895.646 1341.65 894.787 1337.28L891.901 1322.07C891.076 1317.71 893.928 1313.52 898.292 1312.66L957.051 1301.53C961.414 1300.71 965.606 1303.56 966.465 1307.92L969.352 1323.13C970.176 1327.53 967.324 1331.72 962.961 1332.55ZM326.273 1505.47 311.051 1508.36C306.687 1509.18 302.495 1506.33 301.636 1501.97L298.75 1486.75C297.925 1482.39 300.777 1478.2 305.141 1477.34L320.363 1474.46C324.727 1473.64 328.919 1476.49 329.778 1480.85L332.665 1496.06C333.524 1500.46 330.672 1504.65 326.273 1505.47ZM370.772 1497.06 355.55 1499.94C351.186 1500.77 346.994 1497.92 346.135 1493.56L343.248 1478.34C342.424 1473.98 345.275 1469.79 349.639 1468.93L364.862 1466.04C369.226 1465.22 373.418 1468.07 374.277 1472.43L377.163 1487.65C377.988 1492.04 375.136 1496.23 370.772 1497.06ZM418.157 1488.09 402.934 1490.98C398.57 1491.8 394.378 1488.95 393.519 1484.59L390.633 1469.38C389.808 1465.01 392.66 1460.82 397.024 1459.97L412.246 1457.08C416.61 1456.26 420.802 1459.11 421.661 1463.47L424.548 1478.68C425.407 1483.05 422.521 1487.27 418.157 1488.09ZM462.655 1479.68 447.433 1482.56C443.069 1483.39 438.876 1480.54 438.017 1476.18L435.131 1460.96C434.306 1456.6 437.159 1452.41 441.523 1451.55L456.745 1448.67C461.109 1447.84 465.301 1450.69 466.16 1455.05L469.046 1470.27C469.871 1474.63 467.019 1478.86 462.655 1479.68ZM516.225 1470.17 501.002 1473.05C496.639 1473.88 492.446 1471.02 491.587 1466.66L488.701 1451.45C487.876 1447.09 490.728 1442.9 495.092 1442.04L510.314 1439.15C514.678 1438.33 518.871 1441.18 519.73 1445.54L522.616 1460.76C523.441 1465.12 520.589 1469.34 516.225 1470.17ZM698.239 1435.2 546.6 1463.92C542.237 1464.74 538.044 1461.89 537.185 1457.53L534.299 1442.31C533.474 1437.95 536.326 1433.76 540.69 1432.9L692.328 1404.19C696.692 1403.36 700.884 1406.22 701.743 1410.58L704.63 1425.79C705.482 1430.13 702.657 1434.33 698.318 1435.19 698.29 1435.19 698.266 1435.2 698.239 1435.2ZM742.737 1426.79 727.515 1429.67C723.151 1430.5 718.958 1427.65 718.099 1423.28L715.213 1408.07C714.388 1403.71 717.24 1399.52 721.604 1398.66L736.826 1395.77C741.19 1394.95 745.383 1397.8 746.242 1402.16L749.128 1417.38C749.953 1421.74 747.101 1425.96 742.737 1426.79ZM790.121 1417.82 774.899 1420.71C770.535 1421.53 766.343 1418.68 765.484 1414.32L762.598 1399.11C761.773 1394.74 764.625 1390.55 768.989 1389.7L784.211 1386.81C788.575 1385.99 792.767 1388.84 793.626 1393.2L796.513 1408.41C797.372 1412.78 794.485 1417 790.121 1417.82ZM834.62 1409.41 819.398 1412.29C815.034 1413.12 810.842 1410.27 809.983 1405.91L807.096 1390.69C806.272 1386.33 809.123 1382.14 813.487 1381.28L828.71 1378.4C833.074 1377.57 837.266 1380.42 838.125 1384.78L841.011 1400C841.836 1404.36 838.984 1408.55 834.62 1409.41ZM875.647 1402.13 860.425 1405.01C856.062 1405.84 851.869 1402.99 851.01 1398.63L848.124 1383.41C847.299 1379.05 850.151 1374.86 854.515 1374L869.737 1371.11C874.101 1370.29 878.293 1373.14 879.153 1377.5L882.039 1392.72C882.898 1397.08 880.011 1401.3 875.647 1402.13ZM923.548 1390.9 908.325 1393.78C903.962 1394.61 899.77 1391.76 898.91 1387.39L896.024 1372.18C895.199 1367.82 898.051 1363.63 902.415 1362.77L917.638 1359.88C922.001 1359.06 926.194 1361.91 927.052 1366.27L929.939 1381.49C930.791 1385.82 927.967 1390.03 923.627 1390.88 923.599 1390.89 923.575 1390.89 923.548 1390.9ZM970.967 1381.93 955.745 1384.82C951.38 1385.64 947.189 1382.79 946.329 1378.43L943.443 1363.22C942.618 1358.85 945.47 1354.66 949.834 1353.8L965.057 1350.92C969.421 1350.1 973.613 1352.95 974.472 1357.31L977.358 1372.52C978.183 1376.92 975.331 1381.11 970.967 1381.93ZM1023.06 1234.01 1007.84 1236.89C1003.47 1237.72 999.281 1234.87 998.422 1230.51L995.535 1215.29C994.711 1210.93 997.563 1206.74 1001.93 1205.88L1017.15 1202.99C1021.51 1202.17 1025.7 1205.02 1026.56 1209.38L1029.45 1224.6C1030.31 1228.96 1027.42 1233.15 1023.06 1234.01ZM1114.22 1216.73 1099 1219.62C1094.63 1220.44 1090.44 1217.59 1089.58 1213.23L1086.7 1198.02C1085.87 1193.65 1088.72 1189.46 1093.09 1188.6L1108.31 1185.72C1112.67 1184.9 1116.87 1187.75 1117.73 1192.11L1120.61 1207.32C1121.47 1211.68 1118.58 1215.91 1114.22 1216.73ZM1067.87 1225.53 1052.64 1228.41C1048.28 1229.23 1044.09 1226.38 1043.23 1222.02L1040.34 1206.81C1039.52 1202.45 1042.37 1198.26 1046.73 1197.4L1061.96 1194.51C1066.32 1193.69 1070.51 1196.54 1071.37 1200.9L1074.26 1216.11C1075.08 1220.48 1072.23 1224.7 1067.87 1225.53ZM1031.37 1277.83 1016.15 1280.72C1011.79 1281.54 1007.6 1278.69 1006.74 1274.33L1003.85 1259.12C1003.03 1254.75 1005.88 1250.56 1010.24 1249.7L1025.46 1246.82C1029.83 1246 1034.02 1248.85 1034.88 1253.21L1037.77 1268.42C1038.59 1272.78 1035.74 1277.01 1031.37 1277.83ZM1075.91 1267.91 1060.69 1270.79C1056.32 1271.62 1052.13 1268.77 1051.27 1264.4L1048.38 1249.19C1047.56 1244.83 1050.41 1240.64 1054.78 1239.78L1070 1236.89C1074.36 1236.07 1078.55 1238.92 1079.41 1243.28L1082.3 1258.5C1083.12 1262.86 1080.27 1267.08 1075.91 1267.91ZM1122.26 1259.12 1107.04 1262C1102.68 1262.82 1098.48 1259.97 1097.62 1255.61L1094.74 1240.4C1093.91 1236.03 1096.76 1231.84 1101.13 1230.99L1116.35 1228.1C1120.71 1227.28 1124.91 1230.13 1125.77 1234.49L1128.65 1249.7C1129.5 1254.04 1126.68 1258.25 1122.34 1259.1 1122.31 1259.1 1122.29 1259.11 1122.26 1259.12ZM1039.83 1321.11 1024.61 1323.99C1020.24 1324.82 1016.05 1321.97 1015.19 1317.6L1012.3 1302.39C1011.48 1298.03 1014.33 1293.84 1018.7 1292.98L1033.92 1290.09C1038.28 1289.27 1042.47 1292.12 1043.33 1296.48L1046.22 1311.7C1047.04 1316.09 1044.19 1320.28 1039.83 1321.11ZM1083.6 1308.61 1068.38 1311.49C1064.02 1312.32 1059.83 1309.47 1058.97 1305.1L1056.08 1289.89C1055.26 1285.53 1058.11 1281.34 1062.47 1280.48L1077.69 1277.59C1082.06 1276.77 1086.25 1279.62 1087.11 1283.98L1090 1299.2C1090.85 1303.53 1088.02 1307.74 1083.68 1308.59 1083.66 1308.6 1083.63 1308.6 1083.6 1308.61ZM1131.75 1300.6 1116.52 1303.49C1112.16 1304.31 1107.97 1301.46 1107.11 1297.1L1104.22 1281.89C1103.4 1277.52 1106.25 1273.33 1110.61 1272.48L1125.83 1269.59C1130.2 1268.77 1134.39 1271.62 1135.25 1275.98L1138.14 1291.19C1139 1295.56 1136.11 1299.78 1131.75 1300.6ZM1101.54 1351.81 1032.34 1364.9C1027.97 1365.72 1023.78 1362.87 1022.92 1358.51L1020.04 1343.3C1019.21 1338.93 1022.06 1334.74 1026.43 1333.88L1095.63 1320.8C1099.99 1319.97 1104.19 1322.83 1105.05 1327.19L1107.93 1342.4C1108.78 1346.74 1105.96 1350.94 1101.62 1351.8 1101.59 1351.8 1101.57 1351.81 1101.54 1351.81L1101.54 1351.81ZM1139.96 1343.95 1124.74 1346.83C1120.37 1347.66 1116.18 1344.81 1115.32 1340.44L1112.43 1325.23C1111.61 1320.87 1114.46 1316.68 1118.83 1315.82L1134.05 1312.93C1138.41 1312.11 1142.6 1314.96 1143.46 1319.32L1146.35 1334.54C1147.21 1338.9 1144.32 1343.12 1139.96 1343.95Z" stroke="#000000" stroke-width="3.4375" stroke-miterlimit="8" fill="#D6DBD9" fill-rule="evenodd"/><path d="M349.443 1179.85C345.967 1188.93 363.347 1205.94 387.715 1229.76 390.984 1232.96 402.101 1243.61 418.415 1255.33 427.329 1261.73 434.66 1266.16 437.895 1268.12 446.671 1273.31 462.813 1283.17 484.22 1289.74 506.075 1296.41 521.872 1301.25 542.282 1297.92 550.266 1296.61 576.32 1292.39 582.619 1275.37 586.267 1265.54 581.724 1255.54 580.072 1251.86 557.081 1201.03 359.837 1152.56 349.409 1179.89L349.443 1179.85 349.443 1179.85Z" fill="#5B5742" fill-rule="evenodd" fill-opacity="0.431373"/><path d="M326.845 949.082C335.624 934.089 341.014 932.036 344.201 932.575 351.746 933.852 351.718 950.599 365.328 976.891 369.949 985.822 374.063 992.121 377.541 997.451 401.087 1029.09 440.067 1076.8 467.132 1111.22 514.439 1163.81 526.872 1181.25 563.502 1225.14 566.216 1227.75 574.381 1235.5 577.537 1247.93 592.344 1324.9 431.744 1238.28 415.781 1227.61 383.734 1207.39 384.146 1200.97 332.307 1158.51 279.919 1115.61 272.2 1116.19 267.5 1100.68 270.265 1077.96 275.411 1055.59 282.852 1033.95 293.289 1003.66 308.11 975.065 326.845 949.082L326.845 949.082Z" stroke="#000000" stroke-width="20.625" stroke-miterlimit="8" fill="#EBE2B3" fill-rule="evenodd"/><path d="M856.325 1262.68C863.934 1275.32 904.218 1268.77 921.468 1263.92 935.619 1259.96 949.839 1252.76 955.314 1249.83 958.929 1247.93 966.503 1243.77 975.524 1237.53 990.502 1227.17 997.112 1219.93 1013.33 1204.12 1035.12 1182.87 1050.48 1171.27 1065.18 1148.29 1068.35 1143.37 1072.79 1135.86 1070.24 1129.18 1066.97 1120.67 1054.2 1118.4 1049.65 1117.47 1005.17 1108.44 838.524 1233.19 856.325 1262.68L856.325 1262.68Z" fill="#5B5742" fill-rule="evenodd" fill-opacity="0.431373"/><path d="M1048.56 945.393C1045.73 940.72 1040.25 933.055 1034.04 933.52 1027.37 934.02 1025.03 944.524 1019.04 953.093 1006.93 970.403 1001.39 982.369 991.829 999.748 988.216 1006.3 979.135 1020.92 961.075 1049.92 940.091 1083.64 929.634 1100.51 918.041 1118.64 862.933 1205.02 843.015 1227.33 851.306 1239.2 854.574 1243.89 863.036 1248.13 887.288 1243.51 912.365 1237.58 946.937 1226.2 983.263 1203.33 1042.29 1166.16 1074.94 1118.13 1090.49 1091.13 1090.66 1080.02 1089.25 1072.64 1081.78 1053.33 1072.66 1029.74 1079.12 1021.15 1067.71 986.437 1064.77 977.458 1061.74 970.417 1059.83 966.227 1056.07 959.282 1052.32 952.338 1048.56 945.393Z" stroke="#000000" stroke-width="20.625" stroke-miterlimit="8" fill="#EBE2B3" fill-rule="evenodd"/><path d="M499.735 891.699 511.276 877.762 613.816 962.675 602.275 976.612Z" stroke="#000000" stroke-width="20.6254" stroke-miterlimit="8" fill="#231815" fill-rule="evenodd"/><path d="M502.326 970.41 592.285 872.263 605.624 884.49 515.665 982.636Z" stroke="#000000" stroke-width="20.6261" stroke-miterlimit="8" fill="#231815" fill-rule="evenodd"/><path d="M639.356 1158.06 474.183 1089.76C464.535 1085.77 459.949 1074.72 463.94 1065.08L470.941 1048.17C474.936 1038.53 485.992 1033.95 495.644 1037.94L660.817 1106.24C670.465 1110.23 675.051 1121.28 671.059 1130.92L664.059 1147.82C660.064 1157.47 649.008 1162.05 639.356 1158.06Z" stroke="#000000" stroke-width="3.4375" stroke-miterlimit="8" fill="#F0C785" fill-rule="evenodd"/><path d="M574.6 1125.34 528.943 1107.18C524.13 1105.26 521.76 1099.76 523.65 1094.88L533.271 1070.03C535.16 1065.15 540.591 1062.74 545.4 1064.66L591.057 1082.82C595.87 1084.74 598.24 1090.24 596.351 1095.12L586.729 1119.97C584.843 1124.85 579.413 1127.26 574.6 1125.34Z" stroke="#000000" stroke-width="1.71893" stroke-miterlimit="8" fill="#EBAA7A" fill-rule="evenodd"/><path d="M912 907C912 944.555 881.555 975 844 975 806.444 975 776 944.555 776 907 776 869.445 806.444 839 844 839 881.555 839 912 869.445 912 907Z" fill="#8B1C67" fill-rule="evenodd" fill-opacity="0.529412"/><path d="M886.5 907.5C886.5 930.696 867.696 949.5 844.5 949.5 821.304 949.5 802.5 930.696 802.5 907.5 802.5 884.304 821.304 865.5 844.5 865.5 867.696 865.5 886.5 884.304 886.5 907.5Z" stroke="#000000" stroke-width="20.625" stroke-miterlimit="8" fill="#231815" fill-rule="evenodd"/><path d="M864 920.5C864 931.822 855.046 941 844 941 832.954 941 824 931.822 824 920.5 824 909.178 832.954 900 844 900 855.046 900 864 909.178 864 920.5Z" fill="#FFFFFF" fill-rule="evenodd"/><path d="M931 961.5C931 968.404 910.853 974 886 974 861.147 974 841 968.404 841 961.5 841 954.597 861.147 949 886 949 910.853 949 931 954.597 931 961.5Z" fill="#89D1F0" fill-rule="evenodd" fill-opacity="0.788235"/></g></svg>