<svg width="1065" height="1260" xmlns="http://www.w3.org/2000/svg" xmlns:xlink="http://www.w3.org/1999/xlink" xml:space="preserve" overflow="hidden"><defs><clipPath id="clip0"><rect x="1254" y="846" width="1065" height="1260"/></clipPath></defs><g clip-path="url(#clip0)" transform="translate(-1254 -846)"><path d="M1481.5 1873.5C1482.33 1888.72 1484.87 1897.38 1487.13 1902.54 1491.66 1912.92 1492.65 1915.67 1494.62 1921.17 1495.12 1922.55 1495.51 1923.67 1495.78 1924.46 1498.67 1932.8 1498.77 1934.42 1504.54 1954.25 1513.82 1986.09 1514.57 1985.4 1516.8 1996.31 1519.9 2011.31 1518.32 2011.68 1522.06 2033.09 1525.53 2052.89 1527.38 2062.91 1532.57 2069.87 1533.91 2071.66 1547.17 2088.92 1565.89 2087.41 1578.19 2086.41 1586.36 2077.8 1592.2 2071.62 1595.74 2067.92 1598.49 2064.11 1611.5 2036.59 1619.03 2020.71 1622.84 2012.58 1625.55 2005.06 1626.99 2001.08 1627.96 1997.89 1628.68 1995.11 1631.72 1983.39 1633.99 1974.92 1634.31 1973.53 1636.19 1965.34 1643.16 1949.68 1664.5 1917.3 1634.69 1909.55 1604.28 1901.94 1573.29 1894.53 1542.25 1887.09 1511.64 1880.09 1481.5 1873.5Z" stroke="#000000" stroke-width="20.625" stroke-miterlimit="8" fill="#EBE2B3" fill-rule="evenodd"/><path d="M1838.5 1934.57C1846.1 1951.88 1853.7 1971.55 1860.62 1993.46 1867.43 2015.09 1872.45 2035.35 1876.16 2053.79 1895.22 2100.67 1945.4 2089.13 1951.42 2039.78 1958.41 2018.08 1965.15 1994.94 1971.37 1970.42 1976.98 1948.34 1981.73 1927.05 1985.72 1906.72 1986.28 1902.09 1986.6 1896.97 1986.47 1891.43 1986.09 1874.77 1981.82 1861.09 1977.74 1851.5 1931.33 1879.19 1884.91 1906.88 1838.5 1934.57Z" stroke="#000000" stroke-width="20.625" stroke-miterlimit="8" fill="#EBE2B3" fill-rule="evenodd"/><path d="M1276.77 1485.11C1274.36 1475.45 1271.58 1460.83 1271.51 1442.94 1271.44 1423.91 1274.54 1418.69 1275.02 1402.55 1275.98 1370.6 1264.53 1368.77 1264.5 1341.08 1264.5 1308.19 1280.52 1282.4 1285.57 1274.35 1297.05 1255.94 1301.62 1258.56 1315.4 1237.47 1328.22 1217.86 1334.13 1200.52 1339.97 1183.02 1350.11 1152.64 1347.7 1146.55 1355.78 1118.03 1361.48 1097.88 1368.74 1072.18 1385.61 1046 1396.61 1028.94 1415.17 1012.39 1452.28 979.267 1476.13 957.974 1493.32 944.249 1506.69 933.585 1547.44 901.111 1560.85 894.163 1566.35 891.411 1585.63 881.848 1602.98 873.214 1626.01 873.833 1637.59 874.142 1655.84 875.278 1675.46 875.105 1678.25 875.071 1684.54 875.105 1692.71 874.59 1696.22 874.349 1702.1 873.902 1709.18 872.939 1721.2 871.322 1730.24 869.189 1733.03 868.535 1773.17 859.247 1793.44 853.641 1812 858.009 1834.31 863.238 1849.29 876.172 1862.9 887.868 1871.53 895.298 1883.38 910.503 1906.79 940.568 1932.8 974.039 1938.82 983.017 1954.18 995.022 1969.54 1007.03 1971.47 1004.21 1982.26 1014.35 1996.62 1027.84 2002.02 1041.08 2015.59 1072.32 2041.54 1132.04 2039.41 1124.23 2041.92 1132.04 2044.46 1140.05 2045.9 1147.93 2049.17 1163.61 2053.29 1183.46 2054.5 1193.03 2059.48 1221.65 2063.36 1243.87 2065.19 1255.01 2066.49 1260.28 2075.29 1295.95 2088.52 1320.17 2092.82 1328.77 2112.92 1368.94 2110.89 1416.45 2106.87 1511.46 2104.43 1569.08 2103.09 1600.38 2089.31 1641.46 2082.2 1662.65 2078.93 1665.09 2061.23 1713.49 2046.25 1754.42 2043.77 1765.85 2031.4 1794.29 2017.66 1825.94 2010.78 1841.76 1996.31 1859.27 1990.2 1866.7 1975.93 1882.67 1938.4 1904.96 1907.2 1923.5 1872.08 1944.34 1820.83 1954.15 1746.95 1968.29 1685.22 1950.74 1661.13 1943.62 1646.11 1939.18 1641.03 1936.5 1611.99 1927.8 1598.02 1923.61 1586.9 1920.55 1577.47 1918.1 1540.13 1908.42 1537.37 1909.15 1518.99 1903.2 1507.6 1899.51 1499.94 1896.34 1486.14 1890.58 1459.7 1879.55 1436.6 1869.91 1418.95 1859.27 1375.28 1832.96 1352.71 1793.21 1343.48 1776.72 1336.6 1764.43 1327.19 1736.33 1308.39 1680.09 1295.98 1642.97 1289.69 1624.15 1287.32 1611.6 1282.71 1587.28 1281.31 1564.09 1278.56 1518.51 1277.66 1504.38 1277.11 1492.78 1276.77 1485.11Z" stroke="#000000" stroke-width="20.625" stroke-miterlimit="8" fill="#EBE2B3" fill-rule="evenodd"/><path d="M1521.01 1012.02 1534.16 987.207 1652.06 1049.66 1638.92 1074.48Z" stroke="#000000" stroke-width="10.3139" stroke-miterlimit="8" fill="#595850" fill-rule="evenodd"/><path d="M1774.69 1044.19 1894.92 986.329 1907.1 1011.64 1786.87 1069.5Z" stroke="#000000" stroke-width="10.3139" stroke-miterlimit="8" fill="#595850" fill-rule="evenodd"/><path d="M1976 2096.5C1976 2101.75 1871.46 2106 1742.5 2106 1613.54 2106 1509 2101.75 1509 2096.5 1509 2091.25 1613.54 2087 1742.5 2087 1871.46 2087 1976 2091.25 1976 2096.5Z" fill="#5B5742" fill-rule="evenodd" fill-opacity="0.470588"/><path d="M1620.5 1135.5C1620.5 1158.7 1601.92 1177.5 1579 1177.5 1556.08 1177.5 1537.5 1158.7 1537.5 1135.5 1537.5 1112.3 1556.08 1093.5 1579 1093.5 1601.92 1093.5 1620.5 1112.3 1620.5 1135.5Z" stroke="#000000" stroke-width="20.625" stroke-miterlimit="8" fill="#231815" fill-rule="evenodd"/><path d="M1894.5 1135.5C1894.5 1158.7 1875.92 1177.5 1853 1177.5 1830.08 1177.5 1811.5 1158.7 1811.5 1135.5 1811.5 1112.3 1830.08 1093.5 1853 1093.5 1875.92 1093.5 1894.5 1112.3 1894.5 1135.5Z" stroke="#000000" stroke-width="20.625" stroke-miterlimit="8" fill="#231815" fill-rule="evenodd"/><path d="M1603 1148.5C1603 1159.82 1594.05 1169 1583 1169 1571.95 1169 1563 1159.82 1563 1148.5 1563 1137.18 1571.95 1128 1583 1128 1594.05 1128 1603 1137.18 1603 1148.5Z" fill="#FFFFFF" fill-rule="evenodd"/><path d="M1872 1148.5C1872 1159.82 1863.05 1169 1852 1169 1840.95 1169 1832 1159.82 1832 1148.5 1832 1137.18 1840.95 1128 1852 1128 1863.05 1128 1872 1137.18 1872 1148.5Z" fill="#FFFFFF" fill-rule="evenodd"/><path d="M1799 1263.5C1799 1275.37 1765.2 1285 1723.5 1285 1681.8 1285 1648 1275.37 1648 1263.5 1648 1251.63 1681.8 1242 1723.5 1242 1765.2 1242 1799 1251.63 1799 1263.5Z" stroke="#000000" stroke-width="10.3125" stroke-miterlimit="8" fill="#E73A8F" fill-rule="evenodd"/><path d="M2285.17 1571.73 1408.96 1828.18C1391.73 1833.22 1373.7 1823.34 1368.67 1806.15L1298.82 1567.57C1293.78 1550.34 1303.66 1532.3 1320.85 1527.27L2197.03 1270.82C2214.26 1265.78 2232.29 1275.66 2237.32 1292.85L2307.17 1531.43C2312.24 1548.62 2302.37 1566.69 2285.17 1571.73L2285.17 1571.73Z" stroke="#000000" stroke-width="20.625" stroke-miterlimit="8" fill="#A6A897" fill-rule="evenodd"/><path d="M1575.79 1531.79 1548.02 1540.17C1543.8 1541.44 1539.4 1538.96 1538.13 1534.61L1533.82 1519.42C1532.59 1515.06 1535 1510.52 1539.21 1509.21L1566.98 1500.83C1571.2 1499.56 1575.6 1502.04 1576.86 1506.39L1581.18 1521.58C1582.41 1525.97 1580.01 1530.52 1575.79 1531.79Z" stroke="#000000" stroke-width="3.4375" stroke-miterlimit="8" fill="#D6DBD9" fill-rule="evenodd"/><path d="M1709.67 1492.79 1681.33 1501.17C1677.02 1502.44 1672.52 1499.96 1671.23 1495.61L1666.83 1480.42C1665.57 1476.06 1668.03 1471.52 1672.33 1470.21L1700.67 1461.83C1704.98 1460.56 1709.48 1463.04 1710.77 1467.39L1715.17 1482.58C1716.43 1486.93 1713.98 1491.51 1709.67 1492.79Z" stroke="#000000" stroke-width="3.4375" stroke-miterlimit="8" fill="#D6DBD9" fill-rule="evenodd"/><path d="M1395.66 1584.01 1367.32 1592.17C1363.02 1593.42 1358.52 1590.99 1357.23 1586.75L1352.83 1571.95C1351.57 1567.7 1354.03 1563.27 1358.33 1561.99L1386.67 1553.83C1390.97 1552.58 1395.47 1555.01 1396.76 1559.25L1401.16 1574.05C1402.45 1578.3 1399.96 1582.77 1395.66 1584.01Z" stroke="#000000" stroke-width="3.4375" stroke-miterlimit="8" fill="#D6DBD9" fill-rule="evenodd"/><path d="M1454.78 1567.01 1427.02 1575.17C1422.8 1576.42 1418.4 1573.99 1417.13 1569.75L1412.82 1554.95C1411.59 1550.7 1414 1546.27 1418.21 1544.99L1445.97 1536.83C1450.19 1535.58 1454.59 1538.01 1455.85 1542.25L1460.16 1557.05C1461.43 1561.33 1459 1565.76 1454.78 1567.01Z" stroke="#000000" stroke-width="3.4375" stroke-miterlimit="8" fill="#D6DBD9" fill-rule="evenodd"/><path d="M1942.66 1424.01 1914.32 1432.17C1910.02 1433.42 1905.52 1430.99 1904.23 1426.75L1899.83 1411.95C1898.57 1407.7 1901.03 1403.27 1905.33 1401.99L1933.67 1393.83C1937.97 1392.58 1942.47 1395.01 1943.76 1399.25L1948.16 1414.05C1949.45 1418.3 1946.96 1422.73 1942.66 1424.01Z" stroke="#000000" stroke-width="3.4375" stroke-miterlimit="8" fill="#D6DBD9" fill-rule="evenodd"/><path d="M1516.66 1549.01 1488.32 1557.17C1484.02 1558.42 1479.52 1555.99 1478.23 1551.75L1473.83 1536.95C1472.57 1532.7 1475.03 1528.27 1479.33 1526.99L1507.67 1518.83C1511.97 1517.58 1516.47 1520.01 1517.76 1524.25L1522.16 1539.05C1523.45 1543.29 1520.96 1547.76 1516.66 1549.01Z" stroke="#000000" stroke-width="3.4375" stroke-miterlimit="8" fill="#D6DBD9" fill-rule="evenodd"/><path d="M1769.67 1475.01 1741.33 1483.17C1737.02 1484.42 1732.52 1481.99 1731.23 1477.75L1726.83 1462.95C1725.57 1458.7 1728.03 1454.27 1732.33 1452.99L1760.67 1444.83C1764.98 1443.58 1769.48 1446.01 1770.77 1450.25L1775.17 1465.05C1776.43 1469.3 1773.98 1473.77 1769.67 1475.01Z" stroke="#000000" stroke-width="3.4375" stroke-miterlimit="8" fill="#D6DBD9" fill-rule="evenodd"/><path d="M1826.67 1458.01 1798.33 1466.17C1794.02 1467.42 1789.52 1464.99 1788.23 1460.75L1783.83 1445.95C1782.57 1441.7 1785.03 1437.27 1789.33 1435.99L1817.67 1427.83C1821.98 1426.58 1826.48 1429.01 1827.77 1433.25L1832.17 1448.05C1833.43 1452.33 1830.98 1456.76 1826.67 1458.01Z" stroke="#000000" stroke-width="3.4375" stroke-miterlimit="8" fill="#D6DBD9" fill-rule="evenodd"/><path d="M1884.66 1441.01 1856.32 1449.17C1852.02 1450.42 1847.52 1447.99 1846.23 1443.75L1841.83 1428.95C1840.57 1424.7 1843.03 1420.27 1847.33 1418.99L1875.67 1410.83C1879.97 1409.58 1884.47 1412.01 1885.76 1416.25L1890.16 1431.05C1891.45 1435.3 1888.96 1439.76 1884.66 1441.01Z" stroke="#000000" stroke-width="3.4375" stroke-miterlimit="8" fill="#D6DBD9" fill-rule="evenodd"/><path d="M1642.66 1512.01 1614.32 1520.17C1610.02 1521.42 1605.52 1518.99 1604.23 1514.75L1599.83 1499.95C1598.57 1495.7 1601.03 1491.27 1605.33 1489.99L1633.66 1481.83C1637.97 1480.58 1642.47 1483.01 1643.76 1487.25L1648.16 1502.05C1649.45 1506.33 1646.97 1510.76 1642.66 1512.01Z" stroke="#000000" stroke-width="3.4375" stroke-miterlimit="8" fill="#D6DBD9" fill-rule="evenodd"/><path d="M2008.78 1402.79 1981.02 1411.17C1976.8 1412.44 1972.4 1409.96 1971.13 1405.61L1966.82 1390.42C1965.59 1386.06 1968 1381.52 1972.21 1380.21L1999.97 1371.83C2004.19 1370.56 2008.59 1373.04 2009.85 1377.39L2014.16 1392.58C2015.43 1396.93 2013 1401.52 2008.78 1402.79Z" stroke="#000000" stroke-width="3.4375" stroke-miterlimit="8" fill="#D6DBD9" fill-rule="evenodd"/><path d="M1435.76 1619.7 1379.07 1636.18C1374.83 1637.41 1370.42 1635.01 1369.15 1630.81L1364.82 1616.15C1363.59 1611.95 1366 1607.56 1370.23 1606.3L1426.92 1589.82C1431.15 1588.59 1435.57 1590.99 1436.84 1595.19L1441.16 1609.85C1442.44 1614.08 1439.99 1618.47 1435.76 1619.7Z" stroke="#000000" stroke-width="3.4375" stroke-miterlimit="8" fill="#D6DBD9" fill-rule="evenodd"/><path d="M1484.62 1605.73 1469.46 1610.17C1465.11 1611.44 1460.58 1608.96 1459.27 1604.62L1454.83 1589.46C1453.56 1585.11 1456.04 1580.58 1460.38 1579.27L1475.54 1574.83C1479.89 1573.56 1484.42 1576.04 1485.72 1580.38L1490.17 1595.54C1491.44 1599.92 1488.96 1604.45 1484.62 1605.73Z" stroke="#000000" stroke-width="3.4375" stroke-miterlimit="8" fill="#D6DBD9" fill-rule="evenodd"/><path d="M1527.77 1592.86 1513.04 1597.18C1508.82 1598.41 1504.41 1596 1503.14 1591.78L1498.82 1577.05C1497.59 1572.82 1500 1568.41 1504.22 1567.14L1518.95 1562.82C1523.17 1561.59 1527.58 1564 1528.85 1568.22L1533.16 1582.95C1534.43 1587.18 1532 1591.63 1527.77 1592.86Z" stroke="#000000" stroke-width="3.4375" stroke-miterlimit="8" fill="#D6DBD9" fill-rule="evenodd"/><path d="M1573.77 1578.86 1559.04 1583.18C1554.82 1584.41 1550.41 1582 1549.14 1577.78L1544.82 1563.05C1543.59 1558.82 1546 1554.41 1550.22 1553.14L1564.95 1548.82C1569.17 1547.59 1573.58 1550 1574.85 1554.22L1579.16 1568.95C1580.43 1573.18 1578 1577.63 1573.77 1578.86Z" stroke="#000000" stroke-width="3.4375" stroke-miterlimit="8" fill="#D6DBD9" fill-rule="evenodd"/><path d="M1617.78 1566.73 1603.05 1571.17C1598.82 1572.44 1594.41 1569.96 1593.14 1565.62L1588.82 1550.46C1587.59 1546.11 1590 1541.58 1594.22 1540.28L1608.95 1535.83C1613.18 1534.56 1617.59 1537.04 1618.86 1541.38L1623.17 1556.54C1624.41 1560.92 1622 1565.46 1617.78 1566.73L1617.78 1566.73Z" stroke="#000000" stroke-width="3.4375" stroke-miterlimit="8" fill="#D6DBD9" fill-rule="evenodd"/><path d="M1669.77 1551.86 1655.04 1556.18C1650.82 1557.41 1646.41 1555 1645.14 1550.78L1640.82 1536.05C1639.59 1531.82 1642 1527.41 1646.22 1526.14L1660.95 1521.82C1665.17 1520.59 1669.58 1523 1670.85 1527.22L1675.16 1541.95C1676.43 1546.17 1673.99 1550.62 1669.77 1551.86Z" stroke="#000000" stroke-width="3.4375" stroke-miterlimit="8" fill="#D6DBD9" fill-rule="evenodd"/><path d="M1713.61 1538.86 1698.46 1543.18C1694.11 1544.41 1689.58 1542 1688.27 1537.78L1683.83 1523.05C1682.56 1518.82 1685.04 1514.41 1689.38 1513.14L1704.53 1508.82C1708.88 1507.59 1713.41 1510 1714.71 1514.22L1719.15 1528.95C1720.46 1533.21 1717.95 1537.62 1713.61 1538.86Z" stroke="#000000" stroke-width="3.4375" stroke-miterlimit="8" fill="#D6DBD9" fill-rule="evenodd"/><path d="M1759.78 1525.73 1745.04 1530.17C1740.82 1531.44 1736.41 1528.96 1735.14 1524.62L1730.82 1509.46C1729.59 1505.11 1732 1500.58 1736.22 1499.27L1750.95 1494.83C1755.18 1493.56 1759.59 1496.04 1760.86 1500.38L1765.17 1515.54C1766.41 1519.92 1764 1524.46 1759.78 1525.73Z" stroke="#000000" stroke-width="3.4375" stroke-miterlimit="8" fill="#D6DBD9" fill-rule="evenodd"/><path d="M1800.78 1512.86 1786.05 1517.18C1781.82 1518.41 1777.41 1516 1776.14 1511.78L1771.82 1497.05C1770.59 1492.82 1773 1488.41 1777.22 1487.14L1791.95 1482.82C1796.18 1481.59 1800.59 1484 1801.86 1488.22L1806.18 1502.95C1807.41 1507.18 1805.01 1511.63 1800.78 1512.86Z" stroke="#000000" stroke-width="3.4375" stroke-miterlimit="8" fill="#D6DBD9" fill-rule="evenodd"/><path d="M1847.78 1498.86 1833.05 1503.18C1828.82 1504.41 1824.41 1502 1823.14 1497.78L1818.82 1483.05C1817.59 1478.82 1820 1474.41 1824.22 1473.14L1838.95 1468.82C1843.18 1467.59 1847.59 1470 1848.86 1474.22L1853.18 1488.95C1854.41 1493.18 1852.01 1497.63 1847.78 1498.86Z" stroke="#000000" stroke-width="3.4375" stroke-miterlimit="8" fill="#D6DBD9" fill-rule="evenodd"/><path d="M1891.61 1486.73 1876.46 1491.17C1872.11 1492.44 1867.58 1489.96 1866.27 1485.62L1861.83 1470.46C1860.56 1466.11 1863.04 1461.58 1867.38 1460.27L1882.53 1455.83C1886.88 1454.56 1891.41 1457.04 1892.71 1461.38L1897.15 1476.54C1898.46 1480.88 1895.95 1485.46 1891.61 1486.73Z" stroke="#000000" stroke-width="3.4375" stroke-miterlimit="8" fill="#D6DBD9" fill-rule="evenodd"/><path d="M1937.77 1472.86 1923.04 1477.18C1918.82 1478.41 1914.41 1476 1913.14 1471.78L1908.82 1457.05C1907.59 1452.82 1910 1448.41 1914.22 1447.14L1928.95 1442.82C1933.17 1441.59 1937.58 1444 1938.85 1448.22L1943.16 1462.95C1944.44 1467.21 1941.99 1471.62 1937.77 1472.86Z" stroke="#000000" stroke-width="3.4375" stroke-miterlimit="8" fill="#D6DBD9" fill-rule="evenodd"/><path d="M1980.78 1459.86 1966.04 1464.18C1961.82 1465.41 1957.41 1463 1956.14 1458.78L1951.82 1444.05C1950.59 1439.82 1953 1435.41 1957.22 1434.14L1971.95 1429.82C1976.18 1428.59 1980.59 1431 1981.86 1435.22L1986.17 1449.95C1987.41 1454.21 1985.01 1458.62 1980.78 1459.86Z" stroke="#000000" stroke-width="3.4375" stroke-miterlimit="8" fill="#D6DBD9" fill-rule="evenodd"/><path d="M2021.61 1448.86 2006.46 1453.18C2002.11 1454.41 1997.58 1452 1996.27 1447.78L1991.83 1433.05C1990.56 1428.82 1993.04 1424.41 1997.38 1423.14L2012.53 1418.82C2016.88 1417.59 2021.41 1420 2022.71 1424.22L2027.15 1438.95C2028.46 1443.21 2025.95 1447.62 2021.61 1448.86Z" stroke="#000000" stroke-width="3.4375" stroke-miterlimit="8" fill="#D6DBD9" fill-rule="evenodd"/><path d="M1558.62 1631.86 1543.46 1636.18C1539.11 1637.41 1534.58 1635 1533.27 1630.78L1528.83 1616.05C1527.56 1611.82 1530.04 1607.41 1534.38 1606.14L1549.54 1601.82C1553.89 1600.59 1558.42 1603 1559.73 1607.22L1564.17 1621.95C1565.44 1626.18 1562.96 1630.62 1558.62 1631.86Z" stroke="#000000" stroke-width="3.4375" stroke-miterlimit="8" fill="#D6DBD9" fill-rule="evenodd"/><path d="M1606.78 1618.73 1592.05 1623.17C1587.82 1624.44 1583.41 1621.96 1582.14 1617.62L1577.82 1602.46C1576.59 1598.11 1579 1593.58 1583.22 1592.27L1597.95 1587.83C1602.18 1586.56 1606.59 1589.04 1607.86 1593.38L1612.18 1608.54C1613.41 1612.88 1611.01 1617.45 1606.78 1618.73Z" stroke="#000000" stroke-width="3.4375" stroke-miterlimit="8" fill="#D6DBD9" fill-rule="evenodd"/><path d="M1652.61 1604.86 1637.46 1609.18C1633.11 1610.41 1628.58 1608 1627.27 1603.78L1622.83 1589.05C1621.56 1584.82 1624.04 1580.41 1628.38 1579.14L1643.53 1574.82C1647.88 1573.59 1652.41 1576 1653.71 1580.22L1658.15 1594.95C1659.46 1599.17 1656.95 1603.62 1652.61 1604.86Z" stroke="#000000" stroke-width="3.4375" stroke-miterlimit="8" fill="#D6DBD9" fill-rule="evenodd"/><path d="M1697.62 1591.73 1682.46 1596.17C1678.11 1597.44 1673.58 1594.96 1672.27 1590.62L1667.83 1575.46C1666.56 1571.11 1669.04 1566.58 1673.38 1565.27L1688.54 1560.83C1692.89 1559.56 1697.42 1562.04 1698.73 1566.38L1703.17 1581.54C1704.44 1585.92 1701.96 1590.45 1697.62 1591.73Z" stroke="#000000" stroke-width="3.4375" stroke-miterlimit="8" fill="#D6DBD9" fill-rule="evenodd"/><path d="M1744.77 1577.86 1730.04 1582.18C1725.82 1583.41 1721.41 1581 1720.14 1576.78L1715.82 1562.05C1714.59 1557.82 1717 1553.41 1721.22 1552.14L1735.95 1547.82C1740.17 1546.59 1744.58 1549 1745.85 1553.22L1750.16 1567.95C1751.43 1572.18 1749 1576.63 1744.77 1577.86Z" stroke="#000000" stroke-width="3.4375" stroke-miterlimit="8" fill="#D6DBD9" fill-rule="evenodd"/><path d="M1791.61 1563.86 1776.46 1568.18C1772.11 1569.41 1767.58 1567 1766.27 1562.78L1761.83 1548.05C1760.56 1543.82 1763.04 1539.41 1767.38 1538.14L1782.53 1533.82C1786.88 1532.59 1791.41 1535 1792.72 1539.22L1797.16 1553.95C1798.46 1558.18 1795.95 1562.63 1791.61 1563.86Z" stroke="#000000" stroke-width="3.4375" stroke-miterlimit="8" fill="#D6DBD9" fill-rule="evenodd"/><path d="M1829.61 1549.73 1814.46 1554.17C1810.11 1555.44 1805.58 1552.96 1804.27 1548.62L1799.83 1533.46C1798.56 1529.11 1801.04 1524.58 1805.38 1523.27L1820.53 1518.83C1824.88 1517.56 1829.41 1520.04 1830.71 1524.38L1835.15 1539.54C1836.46 1543.92 1833.95 1548.46 1829.61 1549.73Z" stroke="#000000" stroke-width="3.4375" stroke-miterlimit="8" fill="#D6DBD9" fill-rule="evenodd"/><path d="M1876.77 1535.73 1862.04 1540.17C1857.82 1541.44 1853.41 1538.96 1852.14 1534.62L1847.82 1519.46C1846.59 1515.11 1849 1510.58 1853.22 1509.27L1867.95 1504.83C1872.17 1503.56 1876.58 1506.04 1877.85 1510.38L1882.16 1525.54C1883.44 1529.92 1880.99 1534.46 1876.77 1535.73Z" stroke="#000000" stroke-width="3.4375" stroke-miterlimit="8" fill="#D6DBD9" fill-rule="evenodd"/><path d="M1919.78 1522.86 1905.04 1527.18C1900.82 1528.41 1896.41 1526 1895.14 1521.78L1890.82 1507.05C1889.59 1502.82 1892 1498.41 1896.22 1497.14L1910.95 1492.82C1915.18 1491.59 1919.59 1494 1920.86 1498.22L1925.17 1512.95C1926.41 1517.22 1924.01 1521.63 1919.78 1522.86Z" stroke="#000000" stroke-width="3.4375" stroke-miterlimit="8" fill="#D6DBD9" fill-rule="evenodd"/><path d="M1966.62 1509.73 1951.46 1514.17C1947.11 1515.44 1942.58 1512.96 1941.27 1508.62L1936.83 1493.46C1935.56 1489.11 1938.04 1484.58 1942.38 1483.27L1957.54 1478.83C1961.89 1477.56 1966.42 1480.04 1967.72 1484.38L1972.17 1499.54C1973.44 1503.89 1970.96 1508.46 1966.62 1509.73Z" stroke="#000000" stroke-width="3.4375" stroke-miterlimit="8" fill="#D6DBD9" fill-rule="evenodd"/><path d="M1468.73 1658.89 1392.15 1681.18C1387.89 1682.41 1383.45 1680 1382.17 1675.78L1377.83 1661.02C1376.58 1656.79 1379.01 1652.38 1383.26 1651.11L1459.84 1628.82C1464.1 1627.59 1468.54 1630 1469.81 1634.22L1474.16 1648.98C1475.44 1653.21 1472.98 1657.66 1468.73 1658.89Z" stroke="#000000" stroke-width="3.4375" stroke-miterlimit="8" fill="#D6DBD9" fill-rule="evenodd"/><path d="M1549.62 1685.86 1534.46 1690.18C1530.11 1691.41 1525.58 1689 1524.27 1684.78L1519.83 1670.05C1518.56 1665.82 1521.04 1661.41 1525.38 1660.14L1540.54 1655.82C1544.89 1654.59 1549.42 1657 1550.73 1661.22L1555.17 1675.95C1556.44 1680.18 1553.96 1684.62 1549.62 1685.86Z" stroke="#000000" stroke-width="3.4375" stroke-miterlimit="8" fill="#D6DBD9" fill-rule="evenodd"/><path d="M1510.77 1645.86 1496.04 1650.18C1491.82 1651.41 1487.41 1649 1486.14 1644.78L1481.82 1630.04C1480.59 1625.82 1483 1621.41 1487.22 1620.14L1501.95 1615.82C1506.17 1614.59 1510.58 1617 1511.85 1621.22L1516.17 1635.95C1517.43 1640.17 1514.99 1644.62 1510.77 1645.86Z" stroke="#000000" stroke-width="3.4375" stroke-miterlimit="8" fill="#D6DBD9" fill-rule="evenodd"/><path d="M2028.75 1492.62 1992.12 1503.18C1987.88 1504.41 1983.44 1502.01 1982.17 1497.83L1977.83 1483.21C1976.58 1479.02 1979.01 1474.64 1983.25 1473.39L2019.87 1462.82C2024.12 1461.59 2028.56 1463.99 2029.83 1468.17L2034.17 1482.79C2035.42 1487.01 2033 1491.39 2028.75 1492.62L2028.75 1492.62Z" stroke="#000000" stroke-width="3.4375" stroke-miterlimit="8" fill="#D6DBD9" fill-rule="evenodd"/><path d="M1502.7 1697.94 1405.24 1726.18C1400.96 1727.41 1396.49 1725 1395.2 1720.77L1390.83 1705.99C1389.58 1701.75 1392.02 1697.33 1396.3 1696.06L1493.76 1667.82C1498.04 1666.59 1502.51 1669 1503.8 1673.23L1508.17 1688.01C1509.42 1692.25 1506.99 1696.7 1502.7 1697.94Z" stroke="#000000" stroke-width="3.4375" stroke-miterlimit="8" fill="#D6DBD9" fill-rule="evenodd"/><path d="M1595.77 1670.73 1581.04 1675.17C1576.82 1676.44 1572.41 1673.96 1571.14 1669.62L1566.82 1654.46C1565.59 1650.11 1568 1645.58 1572.22 1644.27L1586.95 1639.83C1591.17 1638.56 1595.58 1641.04 1596.85 1645.38L1601.17 1660.54C1602.43 1664.88 1599.99 1669.46 1595.77 1670.73Z" stroke="#000000" stroke-width="3.4375" stroke-miterlimit="8" fill="#D6DBD9" fill-rule="evenodd"/><path d="M1646.77 1655.86 1632.04 1660.18C1627.82 1661.41 1623.41 1659 1622.14 1654.78L1617.82 1640.05C1616.59 1635.82 1619 1631.41 1623.22 1630.14L1637.95 1625.82C1642.17 1624.59 1646.58 1627 1647.85 1631.22L1652.16 1645.95C1653.44 1650.21 1650.99 1654.62 1646.77 1655.86Z" stroke="#000000" stroke-width="3.4375" stroke-miterlimit="8" fill="#D6DBD9" fill-rule="evenodd"/><path d="M1691.77 1642.73 1677.04 1647.17C1672.82 1648.44 1668.41 1645.96 1667.14 1641.62L1662.82 1626.46C1661.59 1622.11 1664 1617.58 1668.22 1616.27L1682.95 1611.83C1687.17 1610.56 1691.58 1613.04 1692.85 1617.38L1697.16 1632.54C1698.43 1636.91 1695.99 1641.45 1691.77 1642.73Z" stroke="#000000" stroke-width="3.4375" stroke-miterlimit="8" fill="#D6DBD9" fill-rule="evenodd"/><path d="M1736.78 1628.86 1722.05 1633.18C1717.82 1634.41 1713.41 1632 1712.14 1627.78L1707.82 1613.05C1706.59 1608.82 1709 1604.41 1713.22 1603.14L1727.95 1598.82C1732.18 1597.59 1736.59 1600 1737.86 1604.22L1742.18 1618.95C1743.41 1623.18 1741.01 1627.63 1736.78 1628.86Z" stroke="#000000" stroke-width="3.4375" stroke-miterlimit="8" fill="#D6DBD9" fill-rule="evenodd"/><path d="M1784.61 1614.86 1769.46 1619.18C1765.11 1620.41 1760.58 1618 1759.27 1613.78L1754.83 1599.05C1753.56 1594.82 1756.04 1590.41 1760.38 1589.14L1775.53 1584.82C1779.88 1583.59 1784.41 1586 1785.71 1590.22L1790.15 1604.95C1791.46 1609.18 1788.95 1613.59 1784.61 1614.86Z" stroke="#000000" stroke-width="3.4375" stroke-miterlimit="8" fill="#D6DBD9" fill-rule="evenodd"/><path d="M1830.78 1601.73 1816.05 1606.17C1811.82 1607.44 1807.41 1604.96 1806.14 1600.62L1801.82 1585.46C1800.59 1581.11 1803 1576.58 1807.22 1575.28L1821.95 1570.83C1826.18 1569.56 1830.59 1572.04 1831.86 1576.38L1836.17 1591.54C1837.41 1595.92 1835.01 1600.45 1830.78 1601.73Z" stroke="#000000" stroke-width="3.4375" stroke-miterlimit="8" fill="#D6DBD9" fill-rule="evenodd"/><path d="M1868.77 1586.86 1854.04 1591.18C1849.82 1592.41 1845.41 1590 1844.14 1585.78L1839.82 1571.05C1838.59 1566.82 1841 1562.41 1845.22 1561.14L1859.95 1556.82C1864.17 1555.59 1868.58 1558 1869.85 1562.22L1874.16 1576.95C1875.44 1581.21 1872.99 1585.63 1868.77 1586.86Z" stroke="#000000" stroke-width="3.4375" stroke-miterlimit="8" fill="#D6DBD9" fill-rule="evenodd"/><path d="M1915.77 1572.86 1901.04 1577.18C1896.82 1578.41 1892.41 1576 1891.14 1571.78L1886.82 1557.05C1885.59 1552.82 1888 1548.41 1892.22 1547.14L1906.95 1542.82C1911.17 1541.59 1915.58 1544 1916.85 1548.22L1921.16 1562.95C1922.43 1567.18 1920 1571.63 1915.77 1572.86Z" stroke="#000000" stroke-width="3.4375" stroke-miterlimit="8" fill="#D6DBD9" fill-rule="evenodd"/><path d="M1959.78 1559.86 1945.05 1564.18C1940.82 1565.41 1936.41 1563 1935.14 1558.78L1930.82 1544.05C1929.59 1539.82 1932 1535.41 1936.22 1534.14L1950.95 1529.82C1955.18 1528.59 1959.59 1531 1960.86 1535.22L1965.18 1549.95C1966.41 1554.18 1964 1558.62 1959.78 1559.86Z" stroke="#000000" stroke-width="3.4375" stroke-miterlimit="8" fill="#D6DBD9" fill-rule="evenodd"/><path d="M2044.79 1530.28 1988.02 1547.17C1983.8 1548.43 1979.4 1545.98 1978.13 1541.7L1973.82 1526.76C1972.59 1522.47 1975 1518 1979.21 1516.72L2035.98 1499.83C2040.2 1498.57 2044.6 1501.02 2045.87 1505.3L2050.18 1520.24C2051.41 1524.56 2049.01 1529.03 2044.79 1530.28Z" stroke="#000000" stroke-width="3.4375" stroke-miterlimit="8" fill="#D6DBD9" fill-rule="evenodd"/><path d="M1427.77 1764.86 1413.04 1769.18C1408.81 1770.41 1404.41 1768 1403.14 1763.78L1398.82 1749.05C1397.59 1744.82 1400 1740.41 1404.22 1739.14L1418.94 1734.82C1423.17 1733.59 1427.58 1736 1428.84 1740.22L1433.16 1754.95C1434.43 1759.21 1432.02 1763.62 1427.77 1764.86Z" stroke="#000000" stroke-width="3.4375" stroke-miterlimit="8" fill="#D6DBD9" fill-rule="evenodd"/><path d="M1471.78 1751.86 1457.05 1756.18C1452.82 1757.41 1448.41 1755 1447.14 1750.78L1442.82 1736.05C1441.59 1731.82 1444 1727.41 1448.22 1726.14L1462.95 1721.82C1467.18 1720.59 1471.59 1723 1472.86 1727.22L1477.18 1741.95C1478.41 1746.21 1476 1750.63 1471.78 1751.86Z" stroke="#000000" stroke-width="3.4375" stroke-miterlimit="8" fill="#D6DBD9" fill-rule="evenodd"/><path d="M1517.77 1738.86 1503.04 1743.18C1498.82 1744.41 1494.41 1742 1493.14 1737.78L1488.82 1723.05C1487.59 1718.82 1490 1714.41 1494.22 1713.14L1508.95 1708.82C1513.17 1707.59 1517.58 1710 1518.85 1714.22L1523.16 1728.95C1524.43 1733.18 1521.99 1737.63 1517.77 1738.86Z" stroke="#000000" stroke-width="3.4375" stroke-miterlimit="8" fill="#D6DBD9" fill-rule="evenodd"/><path d="M1561.62 1725.86 1546.46 1730.18C1542.11 1731.41 1537.58 1729 1536.27 1724.78L1531.83 1710.05C1530.56 1705.82 1533.04 1701.41 1537.38 1700.14L1552.54 1695.82C1556.89 1694.59 1561.42 1697 1562.73 1701.22L1567.17 1715.95C1568.44 1720.18 1565.96 1724.62 1561.62 1725.86Z" stroke="#000000" stroke-width="3.4375" stroke-miterlimit="8" fill="#D6DBD9" fill-rule="evenodd"/><path d="M1613.78 1710.86 1599.05 1715.18C1594.82 1716.41 1590.41 1714 1589.14 1709.78L1584.82 1695.05C1583.59 1690.82 1586 1686.41 1590.22 1685.14L1604.95 1680.82C1609.18 1679.59 1613.59 1682 1614.86 1686.22L1619.18 1700.95C1620.41 1705.18 1618.01 1709.63 1613.78 1710.86Z" stroke="#000000" stroke-width="3.4375" stroke-miterlimit="8" fill="#D6DBD9" fill-rule="evenodd"/><path d="M1791.7 1659 1643.21 1702.18C1638.94 1703.42 1634.48 1700.99 1633.2 1696.76L1628.83 1681.95C1627.58 1677.7 1630.02 1673.27 1634.28 1672L1782.77 1628.83C1787.05 1627.58 1791.51 1630.01 1792.79 1634.24L1797.16 1649.05C1798.45 1653.33 1795.98 1657.76 1791.7 1659Z" stroke="#000000" stroke-width="3.4375" stroke-miterlimit="8" fill="#D6DBD9" fill-rule="evenodd"/><path d="M1834.78 1645.86 1820.05 1650.18C1815.82 1651.41 1811.41 1649 1810.14 1644.78L1805.82 1630.05C1804.59 1625.82 1807 1621.41 1811.22 1620.14L1825.95 1615.82C1830.18 1614.59 1834.59 1617 1835.86 1621.22L1840.18 1635.95C1841.41 1640.18 1839 1644.62 1834.78 1645.86Z" stroke="#000000" stroke-width="3.4375" stroke-miterlimit="8" fill="#D6DBD9" fill-rule="evenodd"/><path d="M1881.61 1632.73 1866.46 1637.17C1862.11 1638.44 1857.58 1635.96 1856.27 1631.62L1851.83 1616.46C1850.56 1612.11 1853.04 1607.58 1857.38 1606.28L1872.53 1601.83C1876.88 1600.56 1881.41 1603.04 1882.71 1607.38L1887.15 1622.54C1888.46 1626.88 1885.95 1631.45 1881.61 1632.73Z" stroke="#000000" stroke-width="3.4375" stroke-miterlimit="8" fill="#D6DBD9" fill-rule="evenodd"/><path d="M1924.78 1619.86 1910.05 1624.18C1905.82 1625.41 1901.41 1623 1900.14 1618.78L1895.82 1604.05C1894.59 1599.82 1897 1595.41 1901.22 1594.14L1915.96 1589.82C1920.18 1588.59 1924.59 1591 1925.86 1595.22L1930.18 1609.95C1931.41 1614.18 1929 1618.59 1924.78 1619.86Z" stroke="#000000" stroke-width="3.4375" stroke-miterlimit="8" fill="#D6DBD9" fill-rule="evenodd"/><path d="M1964.77 1608.73 1950.04 1613.17C1945.82 1614.44 1941.41 1611.96 1940.14 1607.62L1935.82 1592.46C1934.59 1588.11 1937 1583.58 1941.22 1582.27L1955.95 1577.83C1960.17 1576.56 1964.58 1579.04 1965.85 1583.38L1970.16 1598.54C1971.43 1602.88 1969 1607.45 1964.77 1608.73Z" stroke="#000000" stroke-width="3.4375" stroke-miterlimit="8" fill="#D6DBD9" fill-rule="evenodd"/><path d="M2011.77 1592.73 1997.04 1597.17C1992.82 1598.44 1988.41 1595.96 1987.14 1591.62L1982.82 1576.46C1981.59 1572.11 1984 1567.58 1988.22 1566.28L2002.95 1561.83C2007.17 1560.56 2011.58 1563.04 2012.85 1567.38L2017.16 1582.54C2018.44 1586.92 2015.99 1591.46 2011.77 1592.73Z" stroke="#000000" stroke-width="3.4375" stroke-miterlimit="8" fill="#D6DBD9" fill-rule="evenodd"/><path d="M2057.78 1578.86 2043.05 1583.18C2038.82 1584.41 2034.41 1582 2033.14 1577.78L2028.82 1563.05C2027.59 1558.82 2030 1554.41 2034.22 1553.14L2048.95 1548.82C2053.18 1547.59 2057.59 1550 2058.86 1554.22L2063.18 1568.95C2064.41 1573.21 2062 1577.62 2057.78 1578.86Z" stroke="#000000" stroke-width="3.4375" stroke-miterlimit="8" fill="#D6DBD9" fill-rule="evenodd"/><path d="M2095.61 1426.73 2080.46 1431.17C2076.11 1432.44 2071.58 1429.96 2070.27 1425.62L2065.83 1410.46C2064.56 1406.11 2067.04 1401.58 2071.38 1400.27L2086.53 1395.83C2090.88 1394.56 2095.41 1397.04 2096.71 1401.38L2101.15 1416.54C2102.46 1420.88 2099.95 1425.42 2095.61 1426.73Z" stroke="#000000" stroke-width="3.4375" stroke-miterlimit="8" fill="#D6DBD9" fill-rule="evenodd"/><path d="M2184.61 1400.73 2169.46 1405.17C2165.11 1406.44 2160.58 1403.96 2159.27 1399.62L2154.83 1384.46C2153.56 1380.11 2156.04 1375.58 2160.38 1374.27L2175.53 1369.83C2179.88 1368.56 2184.41 1371.04 2185.72 1375.38L2190.16 1390.54C2191.46 1394.88 2188.95 1399.45 2184.61 1400.73Z" stroke="#000000" stroke-width="3.4375" stroke-miterlimit="8" fill="#D6DBD9" fill-rule="evenodd"/><path d="M2138.78 1413.86 2124.05 1418.18C2119.82 1419.41 2115.41 1417 2114.14 1412.78L2109.82 1398.05C2108.59 1393.82 2111 1389.41 2115.22 1388.14L2129.95 1383.82C2134.18 1382.59 2138.59 1385 2139.86 1389.22L2144.18 1403.95C2145.41 1408.18 2143.01 1412.62 2138.78 1413.86Z" stroke="#000000" stroke-width="3.4375" stroke-miterlimit="8" fill="#D6DBD9" fill-rule="evenodd"/><path d="M2107.78 1469.73 2093.05 1474.17C2088.82 1475.44 2084.41 1472.96 2083.14 1468.62L2078.82 1453.46C2077.59 1449.11 2080 1444.58 2084.22 1443.28L2098.95 1438.83C2103.18 1437.56 2107.59 1440.04 2108.86 1444.38L2113.18 1459.54C2114.41 1463.88 2112.01 1468.46 2107.78 1469.73Z" stroke="#000000" stroke-width="3.4375" stroke-miterlimit="8" fill="#D6DBD9" fill-rule="evenodd"/><path d="M2151.62 1454.86 2136.46 1459.18C2132.11 1460.41 2127.58 1458 2126.27 1453.78L2121.83 1439.05C2120.56 1434.82 2123.04 1430.41 2127.38 1429.14L2142.54 1424.82C2146.89 1423.59 2151.42 1426 2152.73 1430.22L2157.17 1444.95C2158.44 1449.18 2155.97 1453.63 2151.62 1454.86Z" stroke="#000000" stroke-width="3.4375" stroke-miterlimit="8" fill="#D6DBD9" fill-rule="evenodd"/><path d="M2196.77 1441.86 2182.04 1446.18C2177.82 1447.41 2173.41 1445 2172.14 1440.78L2167.82 1426.05C2166.59 1421.82 2169 1417.41 2173.22 1416.14L2187.95 1411.82C2192.17 1410.59 2196.58 1413 2197.85 1417.22L2202.16 1431.95C2203.43 1436.21 2200.99 1440.63 2196.77 1441.86Z" stroke="#000000" stroke-width="3.4375" stroke-miterlimit="8" fill="#D6DBD9" fill-rule="evenodd"/><path d="M2120.78 1511.86 2106.04 1516.18C2101.82 1517.41 2097.41 1515 2096.14 1510.78L2091.82 1496.05C2090.59 1491.82 2093 1487.41 2097.22 1486.14L2111.95 1481.82C2116.18 1480.59 2120.59 1483 2121.86 1487.22L2126.17 1501.95C2127.41 1506.21 2125.01 1510.62 2120.78 1511.86Z" stroke="#000000" stroke-width="3.4375" stroke-miterlimit="8" fill="#D6DBD9" fill-rule="evenodd"/><path d="M2162.77 1494.86 2148.04 1499.18C2143.82 1500.41 2139.41 1498 2138.14 1493.78L2133.82 1479.05C2132.59 1474.82 2135 1470.41 2139.22 1469.14L2153.95 1464.82C2158.17 1463.59 2162.58 1466 2163.85 1470.22L2168.16 1484.95C2169.44 1489.21 2166.99 1493.62 2162.77 1494.86Z" stroke="#000000" stroke-width="3.4375" stroke-miterlimit="8" fill="#D6DBD9" fill-rule="evenodd"/><path d="M2209.77 1482.73 2195.04 1487.17C2190.82 1488.44 2186.41 1485.96 2185.14 1481.62L2180.82 1466.46C2179.59 1462.11 2182 1457.58 2186.22 1456.27L2200.95 1451.83C2205.17 1450.56 2209.58 1453.04 2210.85 1457.38L2215.16 1472.54C2216.43 1476.88 2214 1481.46 2209.77 1482.73Z" stroke="#000000" stroke-width="3.4375" stroke-miterlimit="8" fill="#D6DBD9" fill-rule="evenodd"/><path d="M2184.72 1536.29 2117.17 1556.17C2112.91 1557.43 2108.46 1554.98 2107.18 1550.7L2102.83 1535.75C2101.58 1531.46 2104.01 1526.99 2108.27 1525.71L2175.82 1505.83C2180.08 1504.57 2184.53 1507.02 2185.81 1511.3L2190.16 1526.25C2191.44 1530.57 2188.98 1535.04 2184.72 1536.29L2184.72 1536.29Z" stroke="#000000" stroke-width="3.4375" stroke-miterlimit="8" fill="#D6DBD9" fill-rule="evenodd"/><path d="M2222.61 1524.86 2207.46 1529.18C2203.11 1530.41 2198.58 1528 2197.27 1523.78L2192.83 1509.05C2191.56 1504.82 2194.04 1500.41 2198.38 1499.14L2213.53 1494.82C2217.88 1493.59 2222.41 1496 2223.71 1500.22L2228.15 1514.95C2229.46 1519.18 2226.95 1523.63 2222.61 1524.86Z" stroke="#000000" stroke-width="3.4375" stroke-miterlimit="8" fill="#D6DBD9" fill-rule="evenodd"/><path d="M1358.44 1407.92C1354.98 1417.06 1372.29 1434.21 1396.55 1458.22 1399.81 1461.44 1410.88 1472.18 1427.12 1483.99 1436 1490.43 1443.3 1494.9 1446.52 1496.88 1455.26 1502.11 1471.33 1512.05 1492.64 1518.67 1514.41 1525.39 1530.14 1530.27 1550.46 1526.91 1558.41 1525.59 1584.35 1521.33 1590.62 1504.19 1594.26 1494.28 1589.73 1484.2 1588.09 1480.49 1565.2 1429.25 1368.79 1380.41 1358.41 1407.95L1358.44 1407.92Z" fill="#5B5742" fill-rule="evenodd" fill-opacity="0.431373"/><path d="M1334.85 1177.08C1343.62 1162.09 1349.01 1160.04 1352.2 1160.57 1359.75 1161.85 1359.72 1178.6 1373.33 1204.89 1377.95 1213.82 1382.06 1220.12 1385.54 1225.45 1409.09 1257.09 1448.07 1304.8 1475.13 1339.22 1522.44 1391.81 1534.87 1409.25 1571.5 1453.14 1574.22 1455.75 1582.38 1463.5 1585.54 1475.93 1600.34 1552.9 1439.74 1466.28 1423.78 1455.61 1391.73 1435.39 1392.15 1428.97 1340.31 1386.51 1287.92 1343.61 1280.2 1344.19 1275.5 1328.68 1277.8 1309.81 1282.24 1286.97 1290.85 1261.95 1303.5 1225.19 1320.62 1196.83 1334.85 1177.08Z" stroke="#000000" stroke-width="20.625" stroke-miterlimit="8" fill="#EBE2B3" fill-rule="evenodd"/><path d="M2175.12 1508.62C2195.66 1481.1 2041.94 1341.44 1996.83 1346.11 1992.22 1346.6 1979.3 1347.63 1975.23 1355.75 1972.05 1362.13 1975.74 1369.99 1978.42 1375.18 1990.83 1399.37 2004.98 1412.35 2024.61 1435.5 2039.22 1452.73 2045.1 1460.53 2058.99 1472.25 2067.36 1479.3 2074.5 1484.16 2077.91 1486.38 2083.08 1489.81 2096.52 1498.31 2110.22 1503.6 2126.9 1510.07 2166.34 1520.42 2175.12 1508.62L2175.12 1508.62Z" fill="#5B5742" fill-rule="evenodd" fill-opacity="0.431373"/><path d="M2013.68 1187.22C2012.12 1189.47 2010.56 1191.7 2009 1193.89 2006.49 1198.1 2002.36 1205.4 1998.19 1214.9 1983.66 1247.99 1989.08 1257.47 1977.78 1279.97 1968.51 1298.43 1966.39 1305.62 1965.5 1316.66 1978.37 1344.96 2006.21 1395.81 2061.32 1438.4 2095.24 1464.6 2128.52 1479.23 2152.88 1487.54 2176.55 1494.47 2185.37 1491.07 2189.07 1486.73 2198.45 1475.75 2180.79 1451.68 2134.3 1360.6 2124.52 1341.47 2115.74 1323.72 2098.12 1288.22 2082.94 1257.68 2075.32 1242.29 2072.36 1235.43 2064.52 1217.25 2060.17 1204.84 2049.79 1186.48 2044.69 1177.47 2043.36 1166.74 2036.75 1165.6 2030.75 1164.58 2024.71 1171.38 2021.45 1175.69 2018.95 1179.49 2016.36 1183.33 2013.68 1187.22Z" stroke="#000000" stroke-width="20.625" stroke-miterlimit="8" fill="#EBE2B3" fill-rule="evenodd"/></g></svg>