<svg width="1166" height="1260" xmlns="http://www.w3.org/2000/svg" xmlns:xlink="http://www.w3.org/1999/xlink" xml:space="preserve" overflow="hidden"><defs><clipPath id="clip0"><rect x="2459" y="876" width="1166" height="1260"/></clipPath></defs><g clip-path="url(#clip0)" transform="translate(-2459 -876)"><path d="M2686.5 1903.5C2687.33 1918.72 2689.87 1927.38 2692.13 1932.54 2696.66 1942.92 2697.65 1945.67 2699.62 1951.17 2700.12 1952.55 2700.51 1953.67 2700.78 1954.46 2703.67 1962.8 2703.77 1964.42 2709.54 1984.25 2718.82 2016.09 2719.57 2015.4 2721.8 2026.31 2724.9 2041.31 2723.32 2041.68 2727.06 2063.09 2730.53 2082.89 2732.38 2092.91 2737.57 2099.87 2738.91 2101.66 2752.17 2118.92 2770.89 2117.41 2783.19 2116.41 2791.36 2107.8 2797.2 2101.62 2800.74 2097.92 2803.49 2094.11 2816.5 2066.59 2824.03 2050.71 2827.84 2042.58 2830.55 2035.06 2831.99 2031.08 2832.96 2027.89 2833.68 2025.11 2836.72 2013.39 2838.99 2004.92 2839.31 2003.53 2841.19 1995.34 2848.16 1979.68 2869.5 1947.3 2839.69 1939.55 2809.28 1931.94 2778.29 1924.53 2747.25 1917.09 2716.64 1910.09 2686.5 1903.5Z" stroke="#000000" stroke-width="20.625" stroke-miterlimit="8" fill="#EBE2B3" fill-rule="evenodd"/><path d="M3043.5 1964.57C3051.1 1981.88 3058.7 2001.55 3065.62 2023.46 3072.43 2045.09 3077.45 2065.35 3081.16 2083.79 3100.22 2130.67 3150.4 2119.13 3156.42 2069.78 3163.41 2048.08 3170.15 2024.94 3176.37 2000.42 3181.98 1978.34 3186.73 1957.05 3190.72 1936.72 3191.28 1932.09 3191.6 1926.97 3191.47 1921.43 3191.09 1904.77 3186.81 1891.09 3182.74 1881.5 3136.33 1909.19 3089.91 1936.88 3043.5 1964.57Z" stroke="#000000" stroke-width="20.625" stroke-miterlimit="8" fill="#EBE2B3" fill-rule="evenodd"/><path d="M2481.77 1515.11C2479.36 1505.45 2476.58 1490.83 2476.51 1472.94 2476.44 1453.91 2479.54 1448.69 2480.02 1432.55 2480.98 1400.6 2469.53 1398.77 2469.5 1371.08 2469.5 1338.19 2485.52 1312.4 2490.57 1304.35 2502.05 1285.94 2506.62 1288.56 2520.4 1267.47 2533.22 1247.86 2539.13 1230.52 2544.97 1213.02 2555.11 1182.64 2552.7 1176.55 2560.78 1148.03 2566.48 1127.88 2573.74 1102.18 2590.61 1076 2601.61 1058.94 2620.17 1042.39 2657.28 1009.27 2681.13 987.974 2698.32 974.249 2711.69 963.584 2752.44 931.111 2765.85 924.163 2771.35 921.411 2790.63 911.848 2807.98 903.214 2831.01 903.833 2842.59 904.142 2860.84 905.278 2880.46 905.105 2883.25 905.071 2889.53 905.105 2897.71 904.59 2901.22 904.349 2907.1 903.902 2914.18 902.938 2926.2 901.322 2935.24 899.189 2938.03 898.535 2978.17 889.247 2998.44 883.641 3017 888.009 3039.31 893.238 3054.29 906.172 3067.9 917.868 3076.53 925.298 3088.38 940.503 3111.79 970.568 3137.8 1004.04 3143.82 1013.02 3159.18 1025.02 3174.54 1037.03 3176.47 1034.21 3187.26 1044.35 3201.62 1057.84 3207.02 1071.08 3220.59 1102.32 3246.54 1162.04 3244.41 1154.23 3246.92 1162.04 3249.46 1170.05 3250.9 1177.93 3254.17 1193.61 3258.29 1213.46 3259.5 1223.03 3264.48 1251.65 3268.36 1273.87 3270.19 1285.01 3271.49 1290.28 3280.29 1325.95 3293.52 1350.17 3297.82 1358.77 3317.92 1398.94 3315.89 1446.45 3311.87 1541.46 3309.43 1599.08 3308.09 1630.38 3294.31 1671.46 3287.2 1692.65 3283.93 1695.09 3266.23 1743.49 3251.25 1784.42 3248.77 1795.85 3236.4 1824.29 3222.66 1855.94 3215.78 1871.77 3201.31 1889.27 3195.2 1896.7 3180.93 1912.67 3143.4 1934.96 3112.2 1953.5 3077.08 1974.34 3025.83 1984.15 2951.95 1998.29 2890.22 1980.74 2866.13 1973.62 2851.11 1969.18 2846.03 1966.5 2816.99 1957.8 2803.02 1953.62 2791.9 1950.55 2782.47 1948.1 2745.13 1938.42 2742.37 1939.15 2723.99 1933.2 2712.6 1929.51 2704.94 1926.34 2691.14 1920.58 2664.7 1909.55 2641.6 1899.91 2623.95 1889.27 2580.28 1862.96 2557.71 1823.21 2548.48 1806.72 2541.6 1794.44 2532.19 1766.33 2513.39 1710.09 2500.98 1672.97 2494.69 1654.15 2492.32 1641.6 2487.71 1617.28 2486.31 1594.09 2483.56 1548.51 2482.66 1534.38 2482.11 1522.78 2481.77 1515.11Z" stroke="#000000" stroke-width="20.625" stroke-miterlimit="8" fill="#EBE2B3" fill-rule="evenodd"/><path d="M2726.05 1042.02 2739.19 1017.21 2857.1 1079.66 2843.95 1104.48Z" stroke="#000000" stroke-width="10.3139" stroke-miterlimit="8" fill="#595850" fill-rule="evenodd"/><path d="M2979.73 1074.19 3099.95 1016.33 3112.13 1041.64 2991.91 1099.5Z" stroke="#000000" stroke-width="10.3139" stroke-miterlimit="8" fill="#595850" fill-rule="evenodd"/><path d="M3182 2126.5C3182 2131.75 3077.23 2136 2948 2136 2818.77 2136 2714 2131.75 2714 2126.5 2714 2121.25 2818.77 2117 2948 2117 3077.23 2117 3182 2121.25 3182 2126.5Z" fill="#5B5742" fill-rule="evenodd" fill-opacity="0.470588"/><path d="M2825.5 1165.5C2825.5 1188.7 2806.92 1207.5 2784 1207.5 2761.08 1207.5 2742.5 1188.7 2742.5 1165.5 2742.5 1142.3 2761.08 1123.5 2784 1123.5 2806.92 1123.5 2825.5 1142.3 2825.5 1165.5Z" stroke="#000000" stroke-width="20.625" stroke-miterlimit="8" fill="#231815" fill-rule="evenodd"/><path d="M3099.5 1165.5C3099.5 1188.7 3080.92 1207.5 3058 1207.5 3035.08 1207.5 3016.5 1188.7 3016.5 1165.5 3016.5 1142.3 3035.08 1123.5 3058 1123.5 3080.92 1123.5 3099.5 1142.3 3099.5 1165.5Z" stroke="#000000" stroke-width="20.625" stroke-miterlimit="8" fill="#231815" fill-rule="evenodd"/><path d="M2808 1178.5C2808 1189.82 2799.05 1199 2788 1199 2776.95 1199 2768 1189.82 2768 1178.5 2768 1167.18 2776.95 1158 2788 1158 2799.05 1158 2808 1167.18 2808 1178.5Z" fill="#FFFFFF" fill-rule="evenodd"/><path d="M3078 1178.5C3078 1189.82 3068.82 1199 3057.5 1199 3046.18 1199 3037 1189.82 3037 1178.5 3037 1167.18 3046.18 1158 3057.5 1158 3068.82 1158 3078 1167.18 3078 1178.5Z" fill="#FFFFFF" fill-rule="evenodd"/><path d="M3004 1293.5C3004 1305.37 2970.2 1315 2928.5 1315 2886.8 1315 2853 1305.37 2853 1293.5 2853 1281.63 2886.8 1272 2928.5 1272 2970.2 1272 3004 1281.63 3004 1293.5Z" stroke="#000000" stroke-width="10.3125" stroke-miterlimit="8" fill="#E73A8F" fill-rule="evenodd"/><path d="M3591.17 1594.73 2714.96 1851.19C2697.73 1856.22 2679.7 1846.34 2674.67 1829.15L2604.81 1590.57C2599.78 1573.34 2609.66 1555.3 2626.85 1550.27L3503.03 1293.82C3520.25 1288.78 3538.29 1298.66 3543.32 1315.85L3613.17 1554.43C3618.24 1571.63 3608.36 1589.69 3591.17 1594.73L3591.17 1594.73Z" stroke="#000000" stroke-width="20.625" stroke-miterlimit="8" fill="#A6A897" fill-rule="evenodd"/><path d="M2881.79 1554.79 2854.02 1563.17C2849.8 1564.44 2845.4 1561.96 2844.13 1557.61L2839.82 1542.42C2838.59 1538.06 2841 1533.52 2845.21 1532.21L2872.98 1523.83C2877.2 1522.56 2881.6 1525.04 2882.86 1529.39L2887.18 1544.58C2888.41 1548.97 2886.01 1553.52 2881.79 1554.79Z" stroke="#000000" stroke-width="3.4375" stroke-miterlimit="8" fill="#D6DBD9" fill-rule="evenodd"/><path d="M3015.67 1515.79 2987.33 1524.17C2983.02 1525.44 2978.52 1522.96 2977.23 1518.61L2972.83 1503.42C2971.57 1499.06 2974.03 1494.52 2978.33 1493.21L3006.67 1484.83C3010.98 1483.56 3015.48 1486.04 3016.77 1490.39L3021.17 1505.58C3022.43 1509.93 3019.98 1514.51 3015.67 1515.79Z" stroke="#000000" stroke-width="3.4375" stroke-miterlimit="8" fill="#D6DBD9" fill-rule="evenodd"/><path d="M2701.78 1607.01 2674.02 1615.17C2669.8 1616.42 2665.4 1613.99 2664.13 1609.75L2659.82 1594.95C2658.59 1590.7 2661 1586.27 2665.21 1584.99L2692.97 1576.83C2697.19 1575.58 2701.59 1578.01 2702.85 1582.25L2707.16 1597.05C2708.43 1601.3 2706 1605.77 2701.78 1607.01Z" stroke="#000000" stroke-width="3.4375" stroke-miterlimit="8" fill="#D6DBD9" fill-rule="evenodd"/><path d="M2761.66 1590.01 2733.32 1598.17C2729.01 1599.42 2724.52 1596.99 2723.23 1592.75L2718.83 1577.95C2717.57 1573.7 2720.03 1569.27 2724.33 1567.99L2752.66 1559.83C2756.97 1558.58 2761.46 1561.01 2762.76 1565.25L2767.16 1580.05C2768.45 1584.33 2765.96 1588.76 2761.66 1590.01Z" stroke="#000000" stroke-width="3.4375" stroke-miterlimit="8" fill="#D6DBD9" fill-rule="evenodd"/><path d="M3248.66 1447.01 3220.32 1455.17C3216.02 1456.42 3211.52 1453.99 3210.23 1449.75L3205.83 1434.95C3204.57 1430.7 3207.03 1426.27 3211.33 1424.99L3239.67 1416.83C3243.97 1415.58 3248.47 1418.01 3249.76 1422.25L3254.16 1437.05C3255.45 1441.3 3252.96 1445.73 3248.66 1447.01Z" stroke="#000000" stroke-width="3.4375" stroke-miterlimit="8" fill="#D6DBD9" fill-rule="evenodd"/><path d="M2822.66 1572.01 2794.32 1580.17C2790.02 1581.42 2785.52 1578.99 2784.23 1574.75L2779.83 1559.95C2778.57 1555.7 2781.03 1551.27 2785.33 1549.99L2813.66 1541.83C2817.97 1540.58 2822.47 1543.01 2823.76 1547.25L2828.16 1562.05C2829.45 1566.3 2826.97 1570.77 2822.66 1572.01Z" stroke="#000000" stroke-width="3.4375" stroke-miterlimit="8" fill="#D6DBD9" fill-rule="evenodd"/><path d="M3075.67 1498.01 3047.33 1506.18C3043.02 1507.42 3038.52 1504.99 3037.23 1500.75L3032.83 1485.95C3031.57 1481.7 3034.03 1477.27 3038.33 1475.99L3066.67 1467.83C3070.98 1466.58 3075.48 1469.01 3076.77 1473.25L3081.17 1488.05C3082.43 1492.3 3079.98 1496.77 3075.67 1498.01Z" stroke="#000000" stroke-width="3.4375" stroke-miterlimit="8" fill="#D6DBD9" fill-rule="evenodd"/><path d="M3132.67 1481.01 3104.33 1489.17C3100.02 1490.42 3095.52 1487.99 3094.23 1483.75L3089.83 1468.95C3088.57 1464.7 3091.03 1460.27 3095.33 1458.99L3123.67 1450.83C3127.98 1449.58 3132.48 1452.01 3133.77 1456.25L3138.17 1471.05C3139.43 1475.33 3136.98 1479.76 3132.67 1481.01Z" stroke="#000000" stroke-width="3.4375" stroke-miterlimit="8" fill="#D6DBD9" fill-rule="evenodd"/><path d="M3190.66 1464.01 3162.32 1472.17C3158.02 1473.42 3153.52 1470.99 3152.23 1466.75L3147.83 1451.95C3146.57 1447.7 3149.03 1443.27 3153.33 1441.99L3181.67 1433.83C3185.97 1432.58 3190.47 1435.01 3191.76 1439.25L3196.16 1454.05C3197.45 1458.3 3194.97 1462.76 3190.66 1464.01Z" stroke="#000000" stroke-width="3.4375" stroke-miterlimit="8" fill="#D6DBD9" fill-rule="evenodd"/><path d="M2948.66 1535.01 2920.32 1543.17C2916.02 1544.42 2911.52 1541.99 2910.23 1537.75L2905.83 1522.95C2904.57 1518.7 2907.03 1514.27 2911.33 1512.99L2939.67 1504.83C2943.97 1503.58 2948.47 1506.01 2949.76 1510.25L2954.16 1525.05C2955.45 1529.33 2952.96 1533.76 2948.66 1535.01Z" stroke="#000000" stroke-width="3.4375" stroke-miterlimit="8" fill="#D6DBD9" fill-rule="evenodd"/><path d="M3314.78 1425.79 3287.02 1434.17C3282.8 1435.44 3278.4 1432.96 3277.13 1428.61L3272.82 1413.42C3271.59 1409.06 3274 1404.52 3278.21 1403.21L3305.97 1394.83C3310.19 1393.56 3314.59 1396.04 3315.85 1400.39L3320.17 1415.58C3321.43 1419.93 3319 1424.52 3314.78 1425.79Z" stroke="#000000" stroke-width="3.4375" stroke-miterlimit="8" fill="#D6DBD9" fill-rule="evenodd"/><path d="M2742.69 1642.7 2685.25 1659.18C2680.97 1660.41 2676.49 1658.01 2675.21 1653.81L2670.83 1639.15C2669.57 1634.95 2672.02 1630.56 2676.3 1629.3L2733.73 1612.82C2738.02 1611.59 2742.49 1613.99 2743.78 1618.19L2748.16 1632.85C2749.45 1637.08 2746.97 1641.47 2742.69 1642.7Z" stroke="#000000" stroke-width="3.4375" stroke-miterlimit="8" fill="#D6DBD9" fill-rule="evenodd"/><path d="M2790.62 1628.73 2775.46 1633.17C2771.11 1634.44 2766.58 1631.96 2765.27 1627.62L2760.83 1612.46C2759.56 1608.11 2762.04 1603.58 2766.38 1602.27L2781.54 1597.83C2785.88 1596.56 2790.42 1599.04 2791.72 1603.38L2796.17 1618.54C2797.44 1622.92 2794.96 1627.45 2790.62 1628.73Z" stroke="#000000" stroke-width="3.4375" stroke-miterlimit="8" fill="#D6DBD9" fill-rule="evenodd"/><path d="M2833.77 1615.86 2819.04 1620.18C2814.82 1621.41 2810.41 1619 2809.14 1614.78L2804.82 1600.05C2803.59 1595.82 2806 1591.41 2810.22 1590.14L2824.95 1585.82C2829.17 1584.59 2833.58 1587 2834.85 1591.22L2839.17 1605.95C2840.43 1610.18 2837.99 1614.63 2833.77 1615.86Z" stroke="#000000" stroke-width="3.4375" stroke-miterlimit="8" fill="#D6DBD9" fill-rule="evenodd"/><path d="M2880.61 1601.86 2865.46 1606.18C2861.11 1607.41 2856.58 1605 2855.27 1600.78L2850.83 1586.05C2849.56 1581.82 2852.04 1577.41 2856.38 1576.14L2871.53 1571.82C2875.88 1570.59 2880.41 1573 2881.71 1577.22L2886.15 1591.95C2887.46 1596.18 2884.95 1600.63 2880.61 1601.86Z" stroke="#000000" stroke-width="3.4375" stroke-miterlimit="8" fill="#D6DBD9" fill-rule="evenodd"/><path d="M2923.78 1589.73 2909.05 1594.17C2904.82 1595.44 2900.41 1592.96 2899.14 1588.62L2894.82 1573.46C2893.59 1569.11 2896 1564.58 2900.22 1563.27L2914.95 1558.83C2919.18 1557.56 2923.59 1560.04 2924.86 1564.38L2929.18 1579.54C2930.41 1583.92 2928 1588.46 2923.78 1589.73L2923.78 1589.73Z" stroke="#000000" stroke-width="3.4375" stroke-miterlimit="8" fill="#D6DBD9" fill-rule="evenodd"/><path d="M2975.77 1574.86 2961.04 1579.18C2956.82 1580.41 2952.41 1578 2951.14 1573.78L2946.82 1559.05C2945.59 1554.82 2948 1550.41 2952.22 1549.14L2966.95 1544.82C2971.17 1543.59 2975.58 1546 2976.85 1550.22L2981.17 1564.95C2982.43 1569.17 2979.99 1573.62 2975.77 1574.86Z" stroke="#000000" stroke-width="3.4375" stroke-miterlimit="8" fill="#D6DBD9" fill-rule="evenodd"/><path d="M3019.77 1561.86 3005.04 1566.18C3000.82 1567.41 2996.41 1565 2995.14 1560.78L2990.82 1546.05C2989.59 1541.82 2992 1537.41 2996.22 1536.14L3010.95 1531.82C3015.17 1530.59 3019.58 1533 3020.85 1537.22L3025.16 1551.95C3026.44 1556.21 3023.99 1560.62 3019.77 1561.86Z" stroke="#000000" stroke-width="3.4375" stroke-miterlimit="8" fill="#D6DBD9" fill-rule="evenodd"/><path d="M3065.78 1548.73 3051.04 1553.17C3046.82 1554.44 3042.41 1551.96 3041.14 1547.62L3036.82 1532.46C3035.59 1528.11 3038 1523.58 3042.22 1522.27L3056.95 1517.83C3061.18 1516.56 3065.59 1519.04 3066.86 1523.38L3071.17 1538.54C3072.41 1542.92 3070.01 1547.46 3065.78 1548.73Z" stroke="#000000" stroke-width="3.4375" stroke-miterlimit="8" fill="#D6DBD9" fill-rule="evenodd"/><path d="M3106.78 1535.86 3092.05 1540.18C3087.82 1541.41 3083.41 1539 3082.14 1534.78L3077.82 1520.05C3076.59 1515.82 3079 1511.41 3083.22 1510.14L3097.95 1505.82C3102.18 1504.59 3106.59 1507 3107.86 1511.22L3112.18 1525.95C3113.41 1530.18 3111 1534.62 3106.78 1535.86Z" stroke="#000000" stroke-width="3.4375" stroke-miterlimit="8" fill="#D6DBD9" fill-rule="evenodd"/><path d="M3153.78 1521.86 3139.05 1526.18C3134.82 1527.41 3130.41 1525 3129.14 1520.78L3124.82 1506.05C3123.59 1501.82 3126 1497.41 3130.22 1496.14L3144.95 1491.82C3149.18 1490.59 3153.59 1493 3154.86 1497.22L3159.18 1511.95C3160.41 1516.18 3158 1520.63 3153.78 1521.86Z" stroke="#000000" stroke-width="3.4375" stroke-miterlimit="8" fill="#D6DBD9" fill-rule="evenodd"/><path d="M3197.61 1509.73 3182.46 1514.17C3178.11 1515.44 3173.58 1512.96 3172.27 1508.62L3167.83 1493.46C3166.56 1489.11 3169.04 1484.58 3173.38 1483.27L3188.53 1478.83C3192.88 1477.56 3197.41 1480.04 3198.72 1484.38L3203.16 1499.54C3204.46 1503.88 3201.95 1508.46 3197.61 1509.73Z" stroke="#000000" stroke-width="3.4375" stroke-miterlimit="8" fill="#D6DBD9" fill-rule="evenodd"/><path d="M3243.77 1495.86 3229.04 1500.18C3224.82 1501.41 3220.41 1499 3219.14 1494.78L3214.82 1480.05C3213.59 1475.82 3216 1471.41 3220.22 1470.14L3234.95 1465.82C3239.17 1464.59 3243.58 1467 3244.85 1471.22L3249.16 1485.95C3250.44 1490.21 3247.99 1494.62 3243.77 1495.86Z" stroke="#000000" stroke-width="3.4375" stroke-miterlimit="8" fill="#D6DBD9" fill-rule="evenodd"/><path d="M3286.78 1482.86 3272.05 1487.18C3267.82 1488.41 3263.41 1486 3262.14 1481.78L3257.82 1467.05C3256.59 1462.82 3259 1458.41 3263.22 1457.14L3277.95 1452.82C3282.18 1451.59 3286.59 1454 3287.86 1458.22L3292.18 1472.95C3293.41 1477.21 3291 1481.62 3286.78 1482.86Z" stroke="#000000" stroke-width="3.4375" stroke-miterlimit="8" fill="#D6DBD9" fill-rule="evenodd"/><path d="M3327.61 1471.86 3312.46 1476.18C3308.11 1477.41 3303.58 1475 3302.27 1470.78L3297.83 1456.05C3296.56 1451.82 3299.04 1447.41 3303.38 1446.14L3318.53 1441.82C3322.88 1440.59 3327.41 1443 3328.71 1447.22L3333.15 1461.95C3334.46 1466.21 3331.95 1470.62 3327.61 1471.86Z" stroke="#000000" stroke-width="3.4375" stroke-miterlimit="8" fill="#D6DBD9" fill-rule="evenodd"/><path d="M2864.62 1654.86 2849.46 1659.18C2845.11 1660.41 2840.58 1658 2839.27 1653.78L2834.83 1639.05C2833.56 1634.82 2836.04 1630.41 2840.38 1629.14L2855.54 1624.82C2859.89 1623.59 2864.42 1626 2865.73 1630.22L2870.17 1644.95C2871.44 1649.18 2868.97 1653.62 2864.62 1654.86Z" stroke="#000000" stroke-width="3.4375" stroke-miterlimit="8" fill="#D6DBD9" fill-rule="evenodd"/><path d="M2912.78 1641.73 2898.05 1646.17C2893.82 1647.44 2889.41 1644.96 2888.14 1640.62L2883.82 1625.46C2882.59 1621.11 2885 1616.58 2889.22 1615.28L2903.95 1610.83C2908.18 1609.56 2912.59 1612.04 2913.86 1616.38L2918.18 1631.54C2919.41 1635.88 2917 1640.45 2912.78 1641.73Z" stroke="#000000" stroke-width="3.4375" stroke-miterlimit="8" fill="#D6DBD9" fill-rule="evenodd"/><path d="M2958.61 1627.86 2943.46 1632.18C2939.11 1633.41 2934.58 1631 2933.27 1626.78L2928.83 1612.05C2927.56 1607.82 2930.04 1603.41 2934.38 1602.14L2949.53 1597.82C2953.88 1596.59 2958.41 1599 2959.71 1603.22L2964.15 1617.95C2965.46 1622.18 2962.95 1626.63 2958.61 1627.86Z" stroke="#000000" stroke-width="3.4375" stroke-miterlimit="8" fill="#D6DBD9" fill-rule="evenodd"/><path d="M3003.78 1614.73 2989.04 1619.17C2984.82 1620.44 2980.41 1617.96 2979.14 1613.62L2974.82 1598.46C2973.59 1594.11 2976 1589.58 2980.22 1588.27L2994.95 1583.83C2999.18 1582.56 3003.59 1585.04 3004.86 1589.38L3009.17 1604.54C3010.41 1608.92 3008.01 1613.45 3003.78 1614.73Z" stroke="#000000" stroke-width="3.4375" stroke-miterlimit="8" fill="#D6DBD9" fill-rule="evenodd"/><path d="M3050.77 1600.86 3036.04 1605.18C3031.82 1606.41 3027.41 1604 3026.14 1599.78L3021.82 1585.05C3020.59 1580.82 3023 1576.41 3027.22 1575.14L3041.95 1570.82C3046.17 1569.59 3050.58 1572 3051.85 1576.22L3056.16 1590.95C3057.43 1595.18 3055 1599.63 3050.77 1600.86Z" stroke="#000000" stroke-width="3.4375" stroke-miterlimit="8" fill="#D6DBD9" fill-rule="evenodd"/><path d="M3097.61 1586.86 3082.46 1591.18C3078.11 1592.41 3073.58 1590 3072.27 1585.78L3067.83 1571.05C3066.56 1566.82 3069.04 1562.41 3073.38 1561.14L3088.53 1556.82C3092.88 1555.59 3097.41 1558 3098.71 1562.22L3103.15 1576.95C3104.46 1581.18 3101.95 1585.63 3097.61 1586.86Z" stroke="#000000" stroke-width="3.4375" stroke-miterlimit="8" fill="#D6DBD9" fill-rule="evenodd"/><path d="M3135.61 1572.73 3120.46 1577.17C3116.11 1578.44 3111.58 1575.96 3110.27 1571.62L3105.83 1556.46C3104.56 1552.11 3107.04 1547.58 3111.38 1546.27L3126.53 1541.83C3130.88 1540.56 3135.41 1543.04 3136.71 1547.38L3141.15 1562.54C3142.46 1566.91 3139.95 1571.46 3135.61 1572.73Z" stroke="#000000" stroke-width="3.4375" stroke-miterlimit="8" fill="#D6DBD9" fill-rule="evenodd"/><path d="M3182.77 1558.86 3168.04 1563.18C3163.82 1564.41 3159.41 1562 3158.14 1557.78L3153.82 1543.05C3152.59 1538.82 3155 1534.41 3159.22 1533.14L3173.95 1528.82C3178.17 1527.59 3182.58 1530 3183.85 1534.22L3188.16 1548.95C3189.44 1553.21 3186.99 1557.63 3182.77 1558.86Z" stroke="#000000" stroke-width="3.4375" stroke-miterlimit="8" fill="#D6DBD9" fill-rule="evenodd"/><path d="M3225.78 1545.86 3211.05 1550.18C3206.82 1551.41 3202.41 1549 3201.14 1544.78L3196.82 1530.05C3195.59 1525.82 3198 1521.41 3202.22 1520.14L3216.95 1515.82C3221.18 1514.59 3225.59 1517 3226.86 1521.22L3231.18 1535.95C3232.41 1540.22 3230 1544.63 3225.78 1545.86Z" stroke="#000000" stroke-width="3.4375" stroke-miterlimit="8" fill="#D6DBD9" fill-rule="evenodd"/><path d="M3272.62 1532.73 3257.46 1537.17C3253.11 1538.44 3248.58 1535.96 3247.27 1531.62L3242.83 1516.46C3241.56 1512.11 3244.04 1507.58 3248.38 1506.27L3263.54 1501.83C3267.89 1500.56 3272.42 1503.04 3273.73 1507.38L3278.17 1522.54C3279.44 1526.89 3276.96 1531.46 3272.62 1532.73Z" stroke="#000000" stroke-width="3.4375" stroke-miterlimit="8" fill="#D6DBD9" fill-rule="evenodd"/><path d="M2774.73 1681.89 2698.15 1704.18C2693.89 1705.41 2689.45 1703 2688.18 1698.78L2683.83 1684.02C2682.58 1679.79 2685.01 1675.38 2689.26 1674.11L2765.84 1651.82C2770.1 1650.59 2774.54 1653 2775.81 1657.22L2780.16 1671.98C2781.44 1676.21 2778.98 1680.65 2774.73 1681.89Z" stroke="#000000" stroke-width="3.4375" stroke-miterlimit="8" fill="#D6DBD9" fill-rule="evenodd"/><path d="M2855.78 1708.86 2841.05 1713.18C2836.82 1714.41 2832.41 1712 2831.14 1707.78L2826.82 1693.05C2825.59 1688.82 2828 1684.41 2832.22 1683.14L2846.95 1678.82C2851.18 1677.59 2855.59 1680 2856.86 1684.22L2861.18 1698.95C2862.41 1703.18 2860.01 1707.62 2855.78 1708.86Z" stroke="#000000" stroke-width="3.4375" stroke-miterlimit="8" fill="#D6DBD9" fill-rule="evenodd"/><path d="M2817.61 1668.86 2802.46 1673.18C2798.11 1674.41 2793.58 1672 2792.27 1667.78L2787.83 1653.05C2786.56 1648.82 2789.04 1644.41 2793.38 1643.14L2808.53 1638.82C2812.88 1637.59 2817.41 1640 2818.71 1644.22L2823.15 1658.95C2824.46 1663.17 2821.95 1667.62 2817.61 1668.86Z" stroke="#000000" stroke-width="3.4375" stroke-miterlimit="8" fill="#D6DBD9" fill-rule="evenodd"/><path d="M3334.75 1515.62 3298.12 1526.18C3293.88 1527.41 3289.44 1525.01 3288.17 1520.83L3283.83 1506.21C3282.58 1502.02 3285.01 1497.64 3289.25 1496.39L3325.87 1485.82C3330.12 1484.59 3334.56 1486.99 3335.83 1491.17L3340.17 1505.79C3341.42 1510.01 3339 1514.39 3334.75 1515.62L3334.75 1515.62Z" stroke="#000000" stroke-width="3.4375" stroke-miterlimit="8" fill="#D6DBD9" fill-rule="evenodd"/><path d="M2808.7 1720.94 2711.24 1749.18C2706.96 1750.41 2702.49 1748 2701.2 1743.77L2696.83 1728.99C2695.57 1724.75 2698.02 1720.33 2702.29 1719.06L2799.76 1690.82C2804.04 1689.59 2808.51 1692 2809.79 1696.23L2814.17 1711.01C2815.42 1715.24 2812.99 1719.7 2808.7 1720.94Z" stroke="#000000" stroke-width="3.4375" stroke-miterlimit="8" fill="#D6DBD9" fill-rule="evenodd"/><path d="M2901.77 1693.73 2887.04 1698.17C2882.82 1699.44 2878.41 1696.96 2877.14 1692.62L2872.82 1677.46C2871.59 1673.11 2874 1668.58 2878.22 1667.27L2892.95 1662.83C2897.17 1661.56 2901.58 1664.04 2902.85 1668.38L2907.16 1683.54C2908.43 1687.88 2906 1692.46 2901.77 1693.73Z" stroke="#000000" stroke-width="3.4375" stroke-miterlimit="8" fill="#D6DBD9" fill-rule="evenodd"/><path d="M2952.77 1678.86 2938.04 1683.18C2933.82 1684.41 2929.41 1682 2928.14 1677.78L2923.82 1663.05C2922.59 1658.82 2925 1654.41 2929.22 1653.14L2943.95 1648.82C2948.17 1647.59 2952.58 1650 2953.85 1654.22L2958.16 1668.95C2959.43 1673.21 2956.99 1677.62 2952.77 1678.86Z" stroke="#000000" stroke-width="3.4375" stroke-miterlimit="8" fill="#D6DBD9" fill-rule="evenodd"/><path d="M2997.77 1665.73 2983.04 1670.17C2978.82 1671.44 2974.41 1668.96 2973.14 1664.62L2968.82 1649.46C2967.59 1645.11 2970 1640.58 2974.22 1639.28L2988.95 1634.83C2993.17 1633.56 2997.58 1636.04 2998.85 1640.38L3003.16 1655.54C3004.44 1659.91 3001.99 1664.45 2997.77 1665.73Z" stroke="#000000" stroke-width="3.4375" stroke-miterlimit="8" fill="#D6DBD9" fill-rule="evenodd"/><path d="M3042.78 1651.86 3028.05 1656.18C3023.82 1657.41 3019.41 1655 3018.14 1650.78L3013.82 1636.05C3012.59 1631.82 3015 1627.41 3019.22 1626.14L3033.95 1621.82C3038.18 1620.59 3042.59 1623 3043.86 1627.22L3048.18 1641.95C3049.41 1646.18 3047 1650.63 3042.78 1651.86Z" stroke="#000000" stroke-width="3.4375" stroke-miterlimit="8" fill="#D6DBD9" fill-rule="evenodd"/><path d="M3090.77 1637.86 3076.04 1642.18C3071.82 1643.41 3067.41 1641 3066.14 1636.78L3061.82 1622.05C3060.59 1617.82 3063 1613.41 3067.22 1612.14L3081.95 1607.82C3086.17 1606.59 3090.58 1609 3091.85 1613.22L3096.17 1627.95C3097.43 1632.18 3094.99 1636.59 3090.77 1637.86Z" stroke="#000000" stroke-width="3.4375" stroke-miterlimit="8" fill="#D6DBD9" fill-rule="evenodd"/><path d="M3136.78 1624.73 3122.05 1629.17C3117.82 1630.44 3113.41 1627.96 3112.14 1623.62L3107.82 1608.46C3106.59 1604.11 3109 1599.58 3113.22 1598.27L3127.95 1593.83C3132.18 1592.56 3136.59 1595.04 3137.86 1599.38L3142.17 1614.54C3143.41 1618.92 3141 1623.45 3136.78 1624.73Z" stroke="#000000" stroke-width="3.4375" stroke-miterlimit="8" fill="#D6DBD9" fill-rule="evenodd"/><path d="M3174.77 1609.86 3160.04 1614.18C3155.82 1615.41 3151.41 1613 3150.14 1608.78L3145.82 1594.05C3144.59 1589.82 3147 1585.41 3151.22 1584.14L3165.95 1579.82C3170.17 1578.59 3174.58 1581 3175.85 1585.22L3180.16 1599.95C3181.43 1604.21 3178.99 1608.63 3174.77 1609.86Z" stroke="#000000" stroke-width="3.4375" stroke-miterlimit="8" fill="#D6DBD9" fill-rule="evenodd"/><path d="M3222.61 1595.86 3207.46 1600.18C3203.11 1601.41 3198.58 1599 3197.27 1594.78L3192.83 1580.05C3191.56 1575.82 3194.04 1571.41 3198.38 1570.14L3213.53 1565.82C3217.88 1564.59 3222.41 1567 3223.72 1571.22L3228.16 1585.95C3229.46 1590.18 3226.95 1594.63 3222.61 1595.86Z" stroke="#000000" stroke-width="3.4375" stroke-miterlimit="8" fill="#D6DBD9" fill-rule="evenodd"/><path d="M3265.78 1582.86 3251.05 1587.18C3246.82 1588.41 3242.41 1586 3241.14 1581.78L3236.82 1567.05C3235.59 1562.82 3238 1558.41 3242.22 1557.14L3256.95 1552.82C3261.18 1551.59 3265.59 1554 3266.86 1558.22L3271.18 1572.95C3272.41 1577.18 3270.01 1581.63 3265.78 1582.86Z" stroke="#000000" stroke-width="3.4375" stroke-miterlimit="8" fill="#D6DBD9" fill-rule="evenodd"/><path d="M3351.72 1553.64 3294.21 1570.18C3289.93 1571.41 3285.47 1569.01 3284.19 1564.82L3279.83 1550.19C3278.58 1545.99 3281.02 1541.61 3285.28 1540.36L3342.79 1523.82C3347.07 1522.59 3351.53 1524.99 3352.81 1529.18L3357.17 1543.81C3358.42 1548.04 3355.99 1552.42 3351.72 1553.64Z" stroke="#000000" stroke-width="3.4375" stroke-miterlimit="8" fill="#D6DBD9" fill-rule="evenodd"/><path d="M2733.77 1787.86 2719.04 1792.18C2714.82 1793.41 2710.41 1791 2709.14 1786.78L2704.82 1772.05C2703.59 1767.82 2706 1763.41 2710.22 1762.14L2724.95 1757.82C2729.17 1756.59 2733.58 1759 2734.84 1763.22L2739.16 1777.95C2740.43 1782.21 2738.02 1786.62 2733.77 1787.86Z" stroke="#000000" stroke-width="3.4375" stroke-miterlimit="8" fill="#D6DBD9" fill-rule="evenodd"/><path d="M2777.78 1774.86 2763.04 1779.18C2758.82 1780.41 2754.41 1778 2753.14 1773.78L2748.82 1759.05C2747.59 1754.82 2750 1750.41 2754.22 1749.14L2768.95 1744.82C2773.18 1743.59 2777.59 1746 2778.86 1750.22L2783.17 1764.95C2784.41 1769.22 2782.01 1773.63 2777.78 1774.86Z" stroke="#000000" stroke-width="3.4375" stroke-miterlimit="8" fill="#D6DBD9" fill-rule="evenodd"/><path d="M2823.77 1761.86 2809.04 1766.18C2804.82 1767.41 2800.41 1765 2799.14 1760.78L2794.82 1746.05C2793.59 1741.82 2796 1737.41 2800.22 1736.14L2814.95 1731.82C2819.17 1730.59 2823.58 1733 2824.85 1737.22L2829.16 1751.95C2830.43 1756.18 2828 1760.63 2823.77 1761.86Z" stroke="#000000" stroke-width="3.4375" stroke-miterlimit="8" fill="#D6DBD9" fill-rule="evenodd"/><path d="M2867.62 1748.86 2852.46 1753.18C2848.11 1754.41 2843.58 1752 2842.27 1747.78L2837.83 1733.05C2836.56 1728.82 2839.04 1724.41 2843.38 1723.14L2858.54 1718.82C2862.89 1717.59 2867.42 1720 2868.73 1724.22L2873.17 1738.95C2874.44 1743.18 2871.97 1747.63 2867.62 1748.86Z" stroke="#000000" stroke-width="3.4375" stroke-miterlimit="8" fill="#D6DBD9" fill-rule="evenodd"/><path d="M2919.78 1734.73 2905.05 1739.17C2900.82 1740.44 2896.41 1737.96 2895.14 1733.62L2890.82 1718.46C2889.59 1714.11 2892 1709.58 2896.22 1708.27L2910.95 1703.83C2915.18 1702.56 2919.59 1705.04 2920.86 1709.38L2925.18 1724.54C2926.41 1728.88 2924.01 1733.45 2919.78 1734.73Z" stroke="#000000" stroke-width="3.4375" stroke-miterlimit="8" fill="#D6DBD9" fill-rule="evenodd"/><path d="M3097.7 1682 2949.21 1725.18C2944.94 1726.42 2940.48 1723.99 2939.2 1719.76L2934.83 1704.95C2933.58 1700.7 2936.02 1696.27 2940.28 1695L3088.77 1651.83C3093.05 1650.58 3097.51 1653.01 3098.79 1657.24L3103.16 1672.05C3104.44 1676.33 3101.97 1680.76 3097.7 1682Z" stroke="#000000" stroke-width="3.4375" stroke-miterlimit="8" fill="#D6DBD9" fill-rule="evenodd"/><path d="M3140.78 1668.86 3126.05 1673.18C3121.82 1674.41 3117.41 1672 3116.14 1667.78L3111.82 1653.05C3110.59 1648.82 3113 1644.41 3117.22 1643.14L3131.95 1638.82C3136.18 1637.59 3140.59 1640 3141.86 1644.22L3146.18 1658.95C3147.41 1663.18 3145.01 1667.62 3140.78 1668.86Z" stroke="#000000" stroke-width="3.4375" stroke-miterlimit="8" fill="#D6DBD9" fill-rule="evenodd"/><path d="M3187.61 1655.73 3172.46 1660.17C3168.11 1661.44 3163.58 1658.96 3162.27 1654.62L3157.83 1639.46C3156.56 1635.11 3159.04 1630.58 3163.38 1629.27L3178.53 1624.83C3182.88 1623.56 3187.41 1626.04 3188.72 1630.38L3193.16 1645.54C3194.46 1649.88 3191.95 1654.45 3187.61 1655.73Z" stroke="#000000" stroke-width="3.4375" stroke-miterlimit="8" fill="#D6DBD9" fill-rule="evenodd"/><path d="M3230.78 1642.86 3216.05 1647.18C3211.82 1648.41 3207.41 1646 3206.14 1641.78L3201.82 1627.05C3200.59 1622.82 3203 1618.41 3207.22 1617.14L3221.95 1612.82C3226.18 1611.59 3230.59 1614 3231.86 1618.22L3236.18 1632.95C3237.41 1637.18 3235 1641.59 3230.78 1642.86Z" stroke="#000000" stroke-width="3.4375" stroke-miterlimit="8" fill="#D6DBD9" fill-rule="evenodd"/><path d="M3270.77 1631.73 3256.04 1636.17C3251.82 1637.44 3247.41 1634.96 3246.14 1630.62L3241.82 1615.46C3240.59 1611.11 3243 1606.58 3247.22 1605.27L3261.95 1600.83C3266.17 1599.56 3270.58 1602.04 3271.85 1606.38L3276.16 1621.54C3277.43 1625.88 3275 1630.45 3270.77 1631.73Z" stroke="#000000" stroke-width="3.4375" stroke-miterlimit="8" fill="#D6DBD9" fill-rule="evenodd"/><path d="M3317.77 1615.86 3303.04 1620.18C3298.82 1621.41 3294.41 1619 3293.14 1614.78L3288.82 1600.05C3287.59 1595.82 3290 1591.41 3294.22 1590.14L3308.95 1585.82C3313.17 1584.59 3317.58 1587 3318.85 1591.22L3323.16 1605.95C3324.44 1610.21 3321.99 1614.63 3317.77 1615.86Z" stroke="#000000" stroke-width="3.4375" stroke-miterlimit="8" fill="#D6DBD9" fill-rule="evenodd"/><path d="M3363.78 1601.86 3349.04 1606.18C3344.82 1607.41 3340.41 1605 3339.14 1600.78L3334.82 1586.05C3333.59 1581.82 3336 1577.41 3340.22 1576.14L3354.95 1571.82C3359.18 1570.59 3363.59 1573 3364.86 1577.22L3369.17 1591.95C3370.41 1596.21 3368.01 1600.62 3363.78 1601.86Z" stroke="#000000" stroke-width="3.4375" stroke-miterlimit="8" fill="#D6DBD9" fill-rule="evenodd"/><path d="M3401.61 1449.86 3386.46 1454.18C3382.11 1455.41 3377.58 1453 3376.27 1448.78L3371.83 1434.05C3370.56 1429.82 3373.04 1425.41 3377.38 1424.14L3392.53 1419.82C3396.88 1418.59 3401.41 1421 3402.72 1425.22L3407.16 1439.95C3408.46 1444.17 3405.95 1448.59 3401.61 1449.86Z" stroke="#000000" stroke-width="3.4375" stroke-miterlimit="8" fill="#D6DBD9" fill-rule="evenodd"/><path d="M3490.61 1423.73 3475.46 1428.17C3471.11 1429.44 3466.58 1426.96 3465.27 1422.62L3460.83 1407.46C3459.56 1403.11 3462.04 1398.58 3466.38 1397.27L3481.53 1392.83C3485.88 1391.56 3490.41 1394.04 3491.71 1398.38L3496.15 1413.54C3497.46 1417.88 3494.95 1422.45 3490.61 1423.73Z" stroke="#000000" stroke-width="3.4375" stroke-miterlimit="8" fill="#D6DBD9" fill-rule="evenodd"/><path d="M3445.62 1436.86 3430.46 1441.18C3426.11 1442.41 3421.58 1440 3420.27 1435.78L3415.83 1421.05C3414.56 1416.82 3417.04 1412.41 3421.38 1411.14L3436.54 1406.82C3440.89 1405.59 3445.42 1408 3446.73 1412.22L3451.17 1426.95C3452.44 1431.18 3449.96 1435.62 3445.62 1436.86Z" stroke="#000000" stroke-width="3.4375" stroke-miterlimit="8" fill="#D6DBD9" fill-rule="evenodd"/><path d="M3413.78 1492.73 3399.05 1497.17C3394.82 1498.44 3390.41 1495.96 3389.14 1491.62L3384.82 1476.46C3383.59 1472.11 3386 1467.58 3390.22 1466.27L3404.95 1461.83C3409.18 1460.56 3413.59 1463.04 3414.86 1467.38L3419.18 1482.54C3420.41 1486.88 3418.01 1491.46 3413.78 1492.73Z" stroke="#000000" stroke-width="3.4375" stroke-miterlimit="8" fill="#D6DBD9" fill-rule="evenodd"/><path d="M3457.62 1478.73 3442.46 1483.17C3438.11 1484.44 3433.58 1481.96 3432.27 1477.62L3427.83 1462.46C3426.56 1458.11 3429.04 1453.58 3433.38 1452.28L3448.54 1447.83C3452.89 1446.56 3457.42 1449.04 3458.73 1453.38L3463.17 1468.54C3464.44 1472.89 3461.96 1477.46 3457.62 1478.73Z" stroke="#000000" stroke-width="3.4375" stroke-miterlimit="8" fill="#D6DBD9" fill-rule="evenodd"/><path d="M3502.77 1464.86 3488.04 1469.18C3483.82 1470.41 3479.41 1468 3478.14 1463.78L3473.82 1449.05C3472.59 1444.82 3475 1440.41 3479.22 1439.14L3493.95 1434.82C3498.17 1433.59 3502.58 1436 3503.85 1440.22L3508.16 1454.95C3509.44 1459.21 3506.99 1463.63 3502.77 1464.86Z" stroke="#000000" stroke-width="3.4375" stroke-miterlimit="8" fill="#D6DBD9" fill-rule="evenodd"/><path d="M3426.78 1534.86 3412.05 1539.18C3407.82 1540.41 3403.41 1538 3402.14 1533.78L3397.82 1519.05C3396.59 1514.82 3399 1510.41 3403.22 1509.14L3417.95 1504.82C3422.18 1503.59 3426.59 1506 3427.86 1510.22L3432.17 1524.95C3433.41 1529.22 3431 1533.63 3426.78 1534.86Z" stroke="#000000" stroke-width="3.4375" stroke-miterlimit="8" fill="#D6DBD9" fill-rule="evenodd"/><path d="M3468.77 1517.86 3454.04 1522.18C3449.82 1523.41 3445.41 1521 3444.14 1516.78L3439.82 1502.05C3438.59 1497.82 3441 1493.41 3445.22 1492.14L3459.95 1487.82C3464.17 1486.59 3468.58 1489 3469.85 1493.22L3474.16 1507.95C3475.43 1512.21 3472.99 1516.62 3468.77 1517.86Z" stroke="#000000" stroke-width="3.4375" stroke-miterlimit="8" fill="#D6DBD9" fill-rule="evenodd"/><path d="M3515.77 1505.73 3501.04 1510.17C3496.82 1511.44 3492.41 1508.96 3491.14 1504.62L3486.82 1489.46C3485.59 1485.11 3488 1480.58 3492.22 1479.27L3506.95 1474.83C3511.17 1473.56 3515.58 1476.04 3516.85 1480.38L3521.16 1495.54C3522.43 1499.88 3520 1504.46 3515.77 1505.73Z" stroke="#000000" stroke-width="3.4375" stroke-miterlimit="8" fill="#D6DBD9" fill-rule="evenodd"/><path d="M3490.72 1559.29 3423.17 1579.17C3418.91 1580.43 3414.46 1577.98 3413.18 1573.7L3408.83 1558.75C3407.58 1554.46 3410.01 1549.99 3414.27 1548.71L3481.82 1528.83C3486.08 1527.57 3490.53 1530.02 3491.81 1534.3L3496.16 1549.25C3497.44 1553.57 3494.98 1558.04 3490.72 1559.29L3490.72 1559.29Z" stroke="#000000" stroke-width="3.4375" stroke-miterlimit="8" fill="#D6DBD9" fill-rule="evenodd"/><path d="M3528.77 1547.86 3514.04 1552.18C3509.82 1553.41 3505.41 1551 3504.14 1546.78L3499.82 1532.05C3498.59 1527.82 3501 1523.41 3505.22 1522.14L3519.95 1517.82C3524.17 1516.59 3528.58 1519 3529.85 1523.22L3534.16 1537.95C3535.43 1542.18 3533 1546.63 3528.77 1547.86Z" stroke="#000000" stroke-width="3.4375" stroke-miterlimit="8" fill="#D6DBD9" fill-rule="evenodd"/><path d="M2563.44 1437.92C2559.98 1447.06 2577.29 1464.21 2601.55 1488.22 2604.81 1491.44 2615.88 1502.18 2632.12 1513.99 2641 1520.43 2648.3 1524.9 2651.52 1526.88 2660.26 1532.11 2676.33 1542.05 2697.64 1548.67 2719.41 1555.39 2735.14 1560.27 2755.46 1556.91 2763.41 1555.59 2789.35 1551.33 2795.62 1534.19 2799.26 1524.28 2794.73 1514.2 2793.09 1510.49 2770.2 1459.25 2573.79 1410.41 2563.41 1437.95L2563.44 1437.92Z" fill="#5B5742" fill-rule="evenodd" fill-opacity="0.431373"/><path d="M2540.04 1207.08C2548.84 1192.09 2554.25 1190.04 2557.45 1190.57 2565.02 1191.85 2564.99 1208.6 2578.64 1234.89 2583.28 1243.82 2587.41 1250.12 2590.9 1255.45 2614.52 1287.09 2653.62 1334.8 2680.77 1369.22 2728.23 1421.81 2740.71 1439.25 2777.45 1483.14 2780.18 1485.75 2788.37 1493.5 2791.53 1505.93 2806.39 1582.9 2645.27 1496.28 2629.26 1485.61 2597.11 1465.39 2597.52 1458.97 2545.52 1416.51 2492.96 1373.61 2485.22 1374.19 2480.5 1358.68 2482.81 1339.81 2487.27 1316.97 2495.9 1291.95 2508.59 1255.19 2525.77 1226.83 2540.04 1207.08Z" stroke="#000000" stroke-width="20.625" stroke-miterlimit="8" fill="#EBE2B3" fill-rule="evenodd"/><path d="M3406.6 1534.03C3424.82 1504.88 3260.14 1378.04 3215.56 1386.39 3211.01 1387.26 3198.21 1389.34 3194.82 1397.77 3192.18 1404.4 3196.51 1411.95 3199.6 1416.91 3213.95 1440.04 3229.13 1451.83 3250.59 1473.35 3266.56 1489.35 3273.06 1496.66 3287.87 1507.22 3296.79 1513.57 3304.3 1517.83 3307.89 1519.77 3313.32 1522.77 3327.42 1530.16 3341.5 1534.32 3358.66 1539.41 3398.81 1546.52 3406.6 1534.03L3406.6 1534.03Z" fill="#5B5742" fill-rule="evenodd" fill-opacity="0.431373"/><path d="M3219 1226.92C3217.63 1229.29 3216.25 1231.63 3214.87 1233.94 3212.71 1238.33 3209.19 1245.92 3205.8 1255.72 3194 1289.82 3200.2 1298.81 3190.75 1322.11 3183.01 1341.22 3181.49 1348.54 3181.5 1359.6 3196.66 1386.71 3228.62 1435 3287.13 1472.86 3323.13 1496.15 3357.55 1507.98 3382.55 1514.25 3406.74 1519.2 3415.27 1515.1 3418.61 1510.48 3427.07 1498.79 3407.47 1476.29 3353.6 1389.5 3342.27 1371.27 3332.06 1354.34 3311.55 1320.46 3293.91 1291.33 3285.04 1276.65 3281.52 1270.07 3272.21 1252.63 3266.84 1240.64 3254.98 1223.23 3249.16 1214.68 3246.94 1204.11 3240.26 1203.53 3234.19 1203 3228.71 1210.25 3225.81 1214.81 3223.63 1218.8 3221.36 1222.84 3219 1226.92Z" stroke="#000000" stroke-width="20.625" stroke-miterlimit="8" fill="#EBE2B3" fill-rule="evenodd"/></g></svg>