<svg width="1657" height="1259" xmlns="http://www.w3.org/2000/svg" xmlns:xlink="http://www.w3.org/1999/xlink" xml:space="preserve" overflow="hidden"><defs><clipPath id="clip0"><rect x="2" y="889" width="1657" height="1259"/></clipPath></defs><g clip-path="url(#clip0)" transform="translate(-2 -889)"><path d="M230.5 1915.5C231.328 1930.72 233.873 1939.38 236.127 1944.54 240.664 1954.92 241.653 1957.67 243.625 1963.17 244.123 1964.55 244.508 1965.67 244.782 1966.46 247.668 1974.8 247.771 1976.42 253.541 1996.25 262.815 2028.09 263.571 2027.4 265.804 2038.31 268.895 2053.31 267.315 2053.68 271.059 2075.09 274.529 2094.89 276.383 2104.91 281.57 2111.87 282.909 2113.66 296.168 2130.92 314.888 2129.41 327.185 2128.41 335.36 2119.8 341.2 2113.62 344.737 2109.92 347.485 2106.11 360.503 2078.59 368.026 2062.71 371.839 2054.57 374.552 2047.06 375.995 2043.08 376.957 2039.89 377.678 2037.11 380.721 2025.39 382.991 2016.92 383.311 2015.53 385.187 2007.34 392.159 1991.68 413.5 1959.3 383.689 1951.55 353.283 1943.94 322.294 1936.53 291.249 1929.09 260.641 1922.09 230.5 1915.5Z" stroke="#000000" stroke-width="20.625" stroke-miterlimit="8" fill="#EBE2B3" fill-rule="evenodd"/><path d="M587.5 1976.57C595.101 1993.88 602.703 2013.55 609.617 2035.46 616.427 2057.09 621.449 2077.35 625.164 2095.79 644.219 2142.67 694.403 2131.13 700.423 2081.78 707.405 2060.08 714.147 2036.94 720.373 2012.42 725.979 1990.34 730.726 1969.05 734.716 1948.72 735.283 1944.09 735.6 1938.97 735.473 1933.43 735.087 1916.77 730.815 1903.09 726.743 1893.5 680.329 1921.19 633.914 1948.88 587.5 1976.57Z" stroke="#000000" stroke-width="20.625" stroke-miterlimit="8" fill="#EBE2B3" fill-rule="evenodd"/><path d="M24.7688 1527.54C22.3633 1517.88 19.5797 1503.28 19.5108 1485.41 19.4422 1466.4 22.5351 1461.18 23.0164 1445.06 23.9787 1413.13 12.5341 1411.31 12.4999 1383.64 12.4999 1350.79 28.5151 1325.01 33.5668 1316.97 45.0456 1298.58 49.6164 1301.19 63.3975 1280.12 76.2163 1260.53 82.1275 1243.21 87.9701 1225.72 98.1085 1195.37 95.7026 1189.29 103.779 1160.8 109.484 1140.66 116.735 1114.98 133.61 1088.83 144.607 1071.78 163.165 1055.25 200.282 1022.16 224.133 1000.88 241.316 987.169 254.685 976.515 295.444 944.071 308.848 937.129 314.346 934.379 333.626 924.825 350.982 916.199 374.008 916.817 385.589 917.126 403.838 918.261 423.462 918.089 426.246 918.054 432.535 918.089 440.714 917.573 444.22 917.333 450.096 916.886 457.176 915.924 469.204 914.308 478.243 912.177 481.027 911.525 521.167 902.245 541.444 896.643 560.003 901.008 582.307 906.232 597.291 919.154 610.9 930.839 619.526 938.263 631.383 953.454 654.787 983.492 680.803 1016.93 686.817 1025.9 702.179 1037.9 717.541 1049.89 719.466 1047.07 730.257 1057.21 744.623 1070.68 750.018 1083.92 763.593 1115.12 789.541 1174.79 787.41 1166.98 789.918 1174.79 792.462 1182.79 793.905 1190.66 797.17 1206.34 801.294 1226.17 802.497 1235.72 807.48 1264.31 811.363 1286.52 813.185 1297.65 814.491 1302.91 823.289 1338.55 836.52 1362.75 840.816 1371.34 860.921 1411.48 858.893 1458.94 854.872 1553.87 852.432 1611.43 851.092 1642.71 837.311 1683.75 830.197 1704.92 826.932 1707.36 809.233 1755.71 794.249 1796.61 791.774 1808.02 779.402 1836.44 765.655 1868.06 758.782 1883.87 744.313 1901.37 738.196 1908.79 723.933 1924.74 686.405 1947.01 655.199 1965.53 620.076 1986.36 568.835 1996.15 494.946 2010.28 433.222 1992.75 409.131 1985.64 394.112 1981.2 389.026 1978.52 359.986 1969.83 346.019 1965.65 334.905 1962.59 325.471 1960.14 288.135 1950.47 285.371 1951.2 266.988 1945.25 255.596 1941.57 247.942 1938.4 234.144 1932.65 207.698 1921.62 184.597 1912 166.946 1901.37 123.279 1875.07 100.71 1835.36 91.4757 1818.88 84.6023 1806.61 75.1855 1778.53 56.3866 1722.34 43.9801 1685.26 37.6909 1666.46 35.3196 1653.91 30.7143 1629.62 29.3053 1606.45 26.5559 1560.91 25.6626 1546.79 25.1127 1535.21 24.7688 1527.54Z" stroke="#000000" stroke-width="20.625" stroke-miterlimit="8" fill="#EBE2B3" fill-rule="evenodd"/><path d="M269.608 1054.26 282.754 1029.44 400.657 1091.89 387.511 1116.71Z" stroke="#000000" stroke-width="10.3139" stroke-miterlimit="8" fill="#595850" fill-rule="evenodd"/><path d="M523.288 1086.42 643.512 1028.56 655.692 1053.87 535.468 1111.73Z" stroke="#000000" stroke-width="10.3139" stroke-miterlimit="8" fill="#595850" fill-rule="evenodd"/><path d="M725 2138.5C725 2143.75 620.235 2148 491 2148 361.766 2148 257 2143.75 257 2138.5 257 2133.25 361.766 2129 491 2129 620.235 2129 725 2133.25 725 2138.5Z" fill="#5B5742" fill-rule="evenodd" fill-opacity="0.470588"/><path d="M369.5 1177.5C369.5 1200.7 350.696 1219.5 327.5 1219.5 304.304 1219.5 285.5 1200.7 285.5 1177.5 285.5 1154.3 304.304 1135.5 327.5 1135.5 350.696 1135.5 369.5 1154.3 369.5 1177.5Z" stroke="#000000" stroke-width="20.625" stroke-miterlimit="8" fill="#231815" fill-rule="evenodd"/><path d="M643.5 1177.5C643.5 1200.7 624.696 1219.5 601.5 1219.5 578.304 1219.5 559.5 1200.7 559.5 1177.5 559.5 1154.3 578.304 1135.5 601.5 1135.5 624.696 1135.5 643.5 1154.3 643.5 1177.5Z" stroke="#000000" stroke-width="20.625" stroke-miterlimit="8" fill="#231815" fill-rule="evenodd"/><path d="M352 1191C352 1202.05 342.822 1211 331.5 1211 320.178 1211 311 1202.05 311 1191 311 1179.95 320.178 1171 331.5 1171 342.822 1171 352 1179.95 352 1191Z" fill="#FFFFFF" fill-rule="evenodd"/><path d="M621.001 1191C621.001 1202.05 612.046 1211 601 1211 589.954 1211 581 1202.05 581 1191 581 1179.95 589.954 1171 601 1171 612.046 1171 621.001 1179.95 621.001 1191Z" fill="#FFFFFF" fill-rule="evenodd"/><path d="M547 1306C547 1318.15 513.422 1328 472 1328 430.579 1328 397 1318.15 397 1306 397 1293.85 430.579 1284 472 1284 513.422 1284 547 1293.85 547 1306Z" stroke="#000000" stroke-width="10.3125" stroke-miterlimit="8" fill="#E73A8F" fill-rule="evenodd"/><path d="M1639.95 1330.08 1021.96 2002C1009.81 2015.21 989.263 2016.06 976.068 2003.94L793.003 1835.77C779.787 1823.63 778.935 1803.09 791.06 1789.9L1409.02 1118C1421.17 1104.79 1441.72 1103.94 1454.91 1116.06L1637.98 1284.23C1651.2 1296.33 1652.08 1316.89 1639.95 1330.08L1639.95 1330.08Z" stroke="#000000" stroke-width="20.625" stroke-miterlimit="8" fill="#A6A897" fill-rule="evenodd"/><path d="M1011.39 1662.42 991.722 1683.9C988.734 1687.16 983.7 1687.38 980.425 1684.4L969.086 1673.93C965.838 1670.93 965.623 1665.87 968.591 1662.58L988.263 1641.1C991.251 1637.84 996.285 1637.62 999.56 1640.6L1010.9 1651.07C1014.17 1654.1 1014.38 1659.16 1011.39 1662.42Z" stroke="#000000" stroke-width="3.4375" stroke-miterlimit="8" fill="#D6DBD9" fill-rule="evenodd"/><path d="M1105.4 1560.42 1085.73 1581.9C1082.74 1585.16 1077.7 1585.38 1074.43 1582.4L1063.09 1571.93C1059.84 1568.93 1059.62 1563.87 1062.59 1560.58L1082.27 1539.1C1085.25 1535.84 1090.29 1535.62 1093.57 1538.6L1104.91 1549.07C1108.15 1552.07 1108.39 1557.16 1105.4 1560.42Z" stroke="#000000" stroke-width="3.4375" stroke-miterlimit="8" fill="#D6DBD9" fill-rule="evenodd"/><path d="M884.391 1800.42 864.721 1821.9C861.733 1825.17 856.699 1825.38 853.424 1822.4L842.086 1811.93C838.838 1808.93 838.623 1803.87 841.591 1800.58L861.261 1779.1C864.25 1775.83 869.284 1775.62 872.558 1778.6L883.896 1789.07C887.172 1792.05 887.38 1797.16 884.391 1800.42Z" stroke="#000000" stroke-width="3.4375" stroke-miterlimit="8" fill="#D6DBD9" fill-rule="evenodd"/><path d="M926.385 1755.42 906.717 1776.9C903.729 1780.17 898.696 1780.38 895.422 1777.4L884.086 1766.93C880.838 1763.93 880.623 1758.87 883.59 1755.58L903.258 1734.1C906.246 1730.83 911.279 1730.62 914.553 1733.6L925.89 1744.07C929.185 1747.08 929.372 1752.16 926.385 1755.42Z" stroke="#000000" stroke-width="3.4375" stroke-miterlimit="8" fill="#D6DBD9" fill-rule="evenodd"/><path d="M1270.4 1381.42 1250.73 1402.9C1247.74 1406.17 1242.7 1406.38 1239.43 1403.4L1228.09 1392.93C1224.84 1389.93 1224.62 1384.87 1227.59 1381.58L1247.26 1360.1C1250.25 1356.83 1255.29 1356.62 1258.57 1359.6L1269.91 1370.07C1273.18 1373.05 1273.37 1378.13 1270.4 1381.42Z" stroke="#000000" stroke-width="3.4375" stroke-miterlimit="8" fill="#D6DBD9" fill-rule="evenodd"/><path d="M969.391 1708.42 949.721 1729.9C946.733 1733.17 941.699 1733.38 938.424 1730.4L927.086 1719.93C923.838 1716.93 923.623 1711.87 926.59 1708.58L946.261 1687.1C949.25 1683.83 954.283 1683.62 957.558 1686.6L968.896 1697.07C972.171 1700.05 972.38 1705.15 969.391 1708.42Z" stroke="#000000" stroke-width="3.4375" stroke-miterlimit="8" fill="#D6DBD9" fill-rule="evenodd"/><path d="M1148.36 1514.42 1128.26 1535.9C1125.21 1539.17 1120.07 1539.38 1116.72 1536.4L1105.14 1525.93C1101.82 1522.93 1101.6 1517.87 1104.64 1514.58L1124.73 1493.1C1127.78 1489.83 1132.92 1489.62 1136.27 1492.6L1147.85 1503.07C1151.17 1506.07 1151.41 1511.16 1148.36 1514.42Z" stroke="#000000" stroke-width="3.4375" stroke-miterlimit="8" fill="#D6DBD9" fill-rule="evenodd"/><path d="M1188.39 1470.42 1168.72 1491.9C1165.74 1495.17 1160.7 1495.38 1157.42 1492.4L1146.09 1481.93C1142.84 1478.93 1142.62 1473.87 1145.59 1470.58L1165.26 1449.1C1168.25 1445.83 1173.28 1445.62 1176.56 1448.6L1187.9 1459.07C1191.17 1462.1 1191.38 1467.16 1188.39 1470.42Z" stroke="#000000" stroke-width="3.4375" stroke-miterlimit="8" fill="#D6DBD9" fill-rule="evenodd"/><path d="M1229.39 1425.42 1209.72 1446.9C1206.73 1450.17 1201.7 1450.38 1198.42 1447.4L1187.09 1436.93C1183.84 1433.93 1183.62 1428.87 1186.59 1425.58L1206.26 1404.1C1209.25 1400.83 1214.28 1400.62 1217.56 1403.6L1228.9 1414.07C1232.17 1417.05 1232.38 1422.16 1229.39 1425.42Z" stroke="#000000" stroke-width="3.4375" stroke-miterlimit="8" fill="#D6DBD9" fill-rule="evenodd"/><path d="M1058.38 1611.42 1038.72 1632.9C1035.73 1636.17 1030.7 1636.38 1027.42 1633.4L1016.09 1622.93C1012.84 1619.93 1012.62 1614.87 1015.59 1611.58L1035.26 1590.1C1038.25 1586.84 1043.28 1586.62 1046.55 1589.6L1057.89 1600.07C1061.18 1603.08 1061.37 1608.16 1058.38 1611.42Z" stroke="#000000" stroke-width="3.4375" stroke-miterlimit="8" fill="#D6DBD9" fill-rule="evenodd"/><path d="M1316.35 1328.42 1296.26 1349.9C1293.21 1353.17 1288.07 1353.38 1284.72 1350.4L1273.14 1339.93C1269.82 1336.93 1269.6 1331.87 1272.64 1328.58L1292.72 1307.1C1295.77 1303.83 1300.92 1303.62 1304.26 1306.6L1315.84 1317.07C1319.19 1320.05 1319.4 1325.16 1316.35 1328.42Z" stroke="#000000" stroke-width="3.4375" stroke-miterlimit="8" fill="#D6DBD9" fill-rule="evenodd"/><path d="M937.365 1810.33 896.954 1853.91C893.938 1857.16 888.858 1857.38 885.553 1854.41L874.11 1843.98C870.832 1840.99 870.615 1835.95 873.61 1832.67L914.021 1789.09C917.037 1785.84 922.117 1785.62 925.423 1788.59L936.865 1799.02C940.191 1802.02 940.381 1807.08 937.365 1810.33Z" stroke="#000000" stroke-width="3.4375" stroke-miterlimit="8" fill="#D6DBD9" fill-rule="evenodd"/><path d="M971.38 1773.48 960.89 1784.9C957.882 1788.17 952.814 1788.38 949.518 1785.39L938.103 1774.9C934.833 1771.89 934.617 1766.82 937.604 1763.52L948.094 1752.1C951.102 1748.83 956.17 1748.62 959.467 1751.61L970.881 1762.1C974.171 1765.14 974.388 1770.21 971.38 1773.48Z" stroke="#000000" stroke-width="3.4375" stroke-miterlimit="8" fill="#D6DBD9" fill-rule="evenodd"/><path d="M1002.38 1739.48 991.89 1750.9C988.882 1754.17 983.816 1754.38 980.516 1751.39L969.103 1740.9C965.834 1737.89 965.617 1732.82 968.605 1729.52L979.092 1718.1C982.1 1714.83 987.167 1714.62 990.464 1717.61L1001.88 1728.1C1005.18 1731.09 1005.39 1736.21 1002.38 1739.48Z" stroke="#000000" stroke-width="3.4375" stroke-miterlimit="8" fill="#D6DBD9" fill-rule="evenodd"/><path d="M1034.38 1704.48 1023.89 1715.9C1020.88 1719.17 1015.82 1719.38 1012.52 1716.39L1001.1 1705.9C997.834 1702.89 997.617 1697.82 1000.6 1694.52L1011.09 1683.1C1014.1 1679.83 1019.17 1679.62 1022.46 1682.61L1033.88 1693.1C1037.18 1696.09 1037.39 1701.21 1034.38 1704.48Z" stroke="#000000" stroke-width="3.4375" stroke-miterlimit="8" fill="#D6DBD9" fill-rule="evenodd"/><path d="M1065.38 1670.48 1054.89 1681.9C1051.88 1685.17 1046.81 1685.38 1043.52 1682.39L1032.1 1671.9C1028.83 1668.89 1028.62 1663.82 1031.6 1660.52L1042.09 1649.1C1045.1 1645.83 1050.17 1645.62 1053.47 1648.61L1064.88 1659.1C1068.17 1662.14 1068.39 1667.21 1065.38 1670.48L1065.38 1670.48Z" stroke="#000000" stroke-width="3.4375" stroke-miterlimit="8" fill="#D6DBD9" fill-rule="evenodd"/><path d="M1102.38 1631.48 1091.89 1642.9C1088.88 1646.17 1083.81 1646.38 1080.52 1643.39L1069.1 1632.9C1065.83 1629.89 1065.62 1624.82 1068.6 1621.52L1079.09 1610.1C1082.1 1606.83 1087.17 1606.62 1090.47 1609.61L1101.88 1620.1C1105.18 1623.09 1105.39 1628.21 1102.38 1631.48Z" stroke="#000000" stroke-width="3.4375" stroke-miterlimit="8" fill="#D6DBD9" fill-rule="evenodd"/><path d="M1133.37 1597.48 1122.89 1608.9C1119.88 1612.17 1114.81 1612.38 1111.51 1609.39L1100.1 1598.9C1096.83 1595.89 1096.62 1590.82 1099.6 1587.52L1110.09 1576.1C1113.1 1572.83 1118.16 1572.62 1121.46 1575.61L1132.87 1586.1C1136.19 1589.12 1136.38 1594.21 1133.37 1597.48Z" stroke="#000000" stroke-width="3.4375" stroke-miterlimit="8" fill="#D6DBD9" fill-rule="evenodd"/><path d="M1166.38 1562.48 1155.89 1573.9C1152.88 1577.17 1147.82 1577.38 1144.52 1574.39L1133.1 1563.9C1129.83 1560.89 1129.62 1555.82 1132.6 1552.52L1143.09 1541.1C1146.1 1537.83 1151.17 1537.62 1154.47 1540.61L1165.88 1551.1C1169.17 1554.13 1169.39 1559.21 1166.38 1562.48Z" stroke="#000000" stroke-width="3.4375" stroke-miterlimit="8" fill="#D6DBD9" fill-rule="evenodd"/><path d="M1194.39 1530.48 1183.9 1541.9C1180.89 1545.17 1175.82 1545.38 1172.52 1542.39L1161.1 1531.9C1157.83 1528.89 1157.62 1523.82 1160.61 1520.52L1171.1 1509.1C1174.11 1505.83 1179.17 1505.62 1182.47 1508.61L1193.89 1519.1C1197.16 1522.11 1197.4 1527.2 1194.39 1530.48Z" stroke="#000000" stroke-width="3.4375" stroke-miterlimit="8" fill="#D6DBD9" fill-rule="evenodd"/><path d="M1228.39 1494.48 1217.9 1505.9C1214.89 1509.17 1209.82 1509.38 1206.52 1506.39L1195.1 1495.9C1191.83 1492.89 1191.62 1487.82 1194.61 1484.52L1205.1 1473.1C1208.1 1469.83 1213.17 1469.62 1216.47 1472.61L1227.89 1483.1C1231.16 1486.11 1231.4 1491.21 1228.39 1494.48Z" stroke="#000000" stroke-width="3.4375" stroke-miterlimit="8" fill="#D6DBD9" fill-rule="evenodd"/><path d="M1258.38 1461.48 1247.89 1472.9C1244.88 1476.17 1239.81 1476.38 1236.52 1473.39L1225.1 1462.9C1221.83 1459.89 1221.62 1454.82 1224.6 1451.52L1235.09 1440.1C1238.1 1436.83 1243.17 1436.62 1246.47 1439.61L1257.88 1450.1C1261.17 1453.09 1261.39 1458.2 1258.38 1461.48Z" stroke="#000000" stroke-width="3.4375" stroke-miterlimit="8" fill="#D6DBD9" fill-rule="evenodd"/><path d="M1291.37 1425.48 1280.88 1436.9C1277.88 1440.17 1272.81 1440.38 1269.51 1437.39L1258.1 1426.9C1254.83 1423.89 1254.62 1418.82 1257.6 1415.52L1268.09 1404.1C1271.1 1400.83 1276.16 1400.62 1279.46 1403.61L1290.88 1414.1C1294.19 1417.12 1294.38 1422.21 1291.37 1425.48Z" stroke="#000000" stroke-width="3.4375" stroke-miterlimit="8" fill="#D6DBD9" fill-rule="evenodd"/><path d="M1321.44 1392.48 1311.22 1403.9C1308.29 1407.17 1303.36 1407.38 1300.15 1404.39L1289.04 1393.9C1285.85 1390.89 1285.64 1385.82 1288.55 1382.52L1298.76 1371.1C1301.69 1367.83 1306.63 1367.62 1309.84 1370.61L1320.95 1381.1C1324.15 1384.14 1324.36 1389.21 1321.44 1392.48Z" stroke="#000000" stroke-width="3.4375" stroke-miterlimit="8" fill="#D6DBD9" fill-rule="evenodd"/><path d="M1350.37 1361.48 1339.89 1372.9C1336.88 1376.17 1331.81 1376.38 1328.51 1373.39L1317.1 1362.9C1313.83 1359.89 1313.62 1354.82 1316.6 1351.52L1327.09 1340.1C1330.1 1336.83 1335.16 1336.62 1338.46 1339.61L1349.87 1350.1C1353.19 1353.11 1353.38 1358.21 1350.37 1361.48Z" stroke="#000000" stroke-width="3.4375" stroke-miterlimit="8" fill="#D6DBD9" fill-rule="evenodd"/><path d="M1048.39 1757.48 1037.9 1768.9C1034.89 1772.17 1029.82 1772.38 1026.52 1769.39L1015.1 1758.9C1011.83 1755.89 1011.62 1750.82 1014.6 1747.52L1025.1 1736.1C1028.11 1732.83 1033.17 1732.62 1036.47 1735.61L1047.89 1746.1C1051.16 1749.11 1051.4 1754.21 1048.39 1757.48Z" stroke="#000000" stroke-width="3.4375" stroke-miterlimit="8" fill="#D6DBD9" fill-rule="evenodd"/><path d="M1083.39 1720.48 1072.9 1731.9C1069.89 1735.17 1064.82 1735.38 1061.52 1732.39L1050.1 1721.9C1046.83 1718.89 1046.62 1713.82 1049.6 1710.52L1060.1 1699.1C1063.11 1695.83 1068.17 1695.62 1071.47 1698.61L1082.89 1709.1C1086.16 1712.11 1086.4 1717.21 1083.39 1720.48Z" stroke="#000000" stroke-width="3.4375" stroke-miterlimit="8" fill="#D6DBD9" fill-rule="evenodd"/><path d="M1115.38 1686.48 1104.89 1697.9C1101.88 1701.17 1096.81 1701.38 1093.52 1698.39L1082.1 1687.9C1078.83 1684.89 1078.62 1679.82 1081.6 1676.52L1092.09 1665.1C1095.1 1661.83 1100.17 1661.62 1103.47 1664.61L1114.88 1675.1C1118.18 1678.09 1118.39 1683.21 1115.38 1686.48Z" stroke="#000000" stroke-width="3.4375" stroke-miterlimit="8" fill="#D6DBD9" fill-rule="evenodd"/><path d="M1147.38 1651.48 1136.89 1662.9C1133.88 1666.17 1128.81 1666.38 1125.52 1663.39L1114.1 1652.9C1110.83 1649.89 1110.62 1644.82 1113.6 1641.52L1124.09 1630.1C1127.1 1626.83 1132.17 1626.62 1135.47 1629.61L1146.88 1640.1C1150.17 1643.14 1150.39 1648.21 1147.38 1651.48Z" stroke="#000000" stroke-width="3.4375" stroke-miterlimit="8" fill="#D6DBD9" fill-rule="evenodd"/><path d="M1180.38 1614.48 1169.89 1625.9C1166.88 1629.17 1161.82 1629.38 1158.52 1626.39L1147.1 1615.9C1143.83 1612.89 1143.62 1607.82 1146.6 1604.52L1157.09 1593.1C1160.1 1589.83 1165.17 1589.62 1168.46 1592.61L1179.88 1603.1C1183.18 1606.09 1183.39 1611.21 1180.38 1614.48Z" stroke="#000000" stroke-width="3.4375" stroke-miterlimit="8" fill="#D6DBD9" fill-rule="evenodd"/><path d="M1213.38 1579.48 1202.89 1590.9C1199.88 1594.17 1194.81 1594.38 1191.52 1591.39L1180.1 1580.9C1176.83 1577.89 1176.62 1572.82 1179.6 1569.52L1190.09 1558.1C1193.1 1554.83 1198.17 1554.62 1201.47 1557.61L1212.88 1568.1C1216.18 1571.08 1216.39 1576.21 1213.38 1579.48Z" stroke="#000000" stroke-width="3.4375" stroke-miterlimit="8" fill="#D6DBD9" fill-rule="evenodd"/><path d="M1238.37 1546.48 1227.89 1557.9C1224.88 1561.17 1219.81 1561.38 1216.51 1558.39L1205.1 1547.9C1201.83 1544.89 1201.62 1539.82 1204.6 1536.52L1215.09 1525.1C1218.1 1521.83 1223.16 1521.62 1226.46 1524.61L1237.87 1535.1C1241.19 1538.12 1241.38 1543.21 1238.37 1546.48Z" stroke="#000000" stroke-width="3.4375" stroke-miterlimit="8" fill="#D6DBD9" fill-rule="evenodd"/><path d="M1271.37 1510.48 1260.88 1521.9C1257.88 1525.17 1252.81 1525.38 1249.51 1522.39L1238.1 1511.9C1234.83 1508.89 1234.62 1503.82 1237.6 1500.52L1248.09 1489.1C1251.1 1485.83 1256.16 1485.62 1259.46 1488.61L1270.88 1499.1C1274.19 1502.11 1274.38 1507.2 1271.37 1510.48Z" stroke="#000000" stroke-width="3.4375" stroke-miterlimit="8" fill="#D6DBD9" fill-rule="evenodd"/><path d="M1302.38 1477.48 1291.89 1488.9C1288.88 1492.17 1283.82 1492.38 1280.52 1489.39L1269.1 1478.9C1265.83 1475.89 1265.62 1470.82 1268.6 1467.52L1279.09 1456.1C1282.1 1452.83 1287.17 1452.62 1290.47 1455.61L1301.88 1466.1C1305.17 1469.14 1305.39 1474.21 1302.38 1477.48Z" stroke="#000000" stroke-width="3.4375" stroke-miterlimit="8" fill="#D6DBD9" fill-rule="evenodd"/><path d="M1334.39 1441.48 1323.9 1452.9C1320.89 1456.17 1315.82 1456.38 1312.52 1453.39L1301.1 1442.9C1297.83 1439.89 1297.62 1434.82 1300.61 1431.52L1311.1 1420.1C1314.1 1416.83 1319.17 1416.62 1322.47 1419.61L1333.89 1430.1C1337.16 1433.11 1337.4 1438.21 1334.39 1441.48Z" stroke="#000000" stroke-width="3.4375" stroke-miterlimit="8" fill="#D6DBD9" fill-rule="evenodd"/><path d="M985.393 1826.62 931.689 1885.88C928.705 1889.17 923.678 1889.39 920.407 1886.38L909.083 1875.83C905.839 1872.8 905.624 1867.7 908.588 1864.38L962.292 1805.12C965.276 1801.83 970.303 1801.61 973.574 1804.62L984.898 1815.17C988.169 1818.18 988.381 1823.33 985.393 1826.62Z" stroke="#000000" stroke-width="3.4375" stroke-miterlimit="8" fill="#D6DBD9" fill-rule="evenodd"/><path d="M1068.39 1808.48 1057.9 1819.9C1054.89 1823.17 1049.82 1823.38 1046.52 1820.39L1035.1 1809.9C1031.83 1806.89 1031.62 1801.82 1034.61 1798.52L1045.1 1787.1C1048.11 1783.83 1053.17 1783.62 1056.47 1786.61L1067.89 1797.1C1071.16 1800.11 1071.4 1805.21 1068.39 1808.48Z" stroke="#000000" stroke-width="3.4375" stroke-miterlimit="8" fill="#D6DBD9" fill-rule="evenodd"/><path d="M1015.38 1793.48 1004.89 1804.9C1001.88 1808.17 996.813 1808.38 993.516 1805.39L982.103 1794.9C978.834 1791.89 978.617 1786.82 981.605 1783.52L992.093 1772.1C995.101 1768.83 1000.17 1768.62 1003.46 1771.61L1014.88 1782.1C1018.17 1785.08 1018.39 1790.2 1015.38 1793.48Z" stroke="#000000" stroke-width="3.4375" stroke-miterlimit="8" fill="#D6DBD9" fill-rule="evenodd"/><path d="M1379.36 1395.57 1353.15 1423.89C1350.11 1427.17 1344.99 1427.39 1341.66 1424.39L1330.13 1413.85C1326.83 1410.83 1326.61 1405.74 1329.63 1402.43L1355.83 1374.11C1358.87 1370.83 1363.99 1370.61 1367.32 1373.61L1378.85 1384.15C1382.18 1387.19 1382.4 1392.29 1379.36 1395.57L1379.36 1395.57Z" stroke="#000000" stroke-width="3.4375" stroke-miterlimit="8" fill="#D6DBD9" fill-rule="evenodd"/><path d="M1034.39 1842.45 965.902 1916.9C962.893 1920.17 957.823 1920.38 954.524 1917.4L943.105 1906.91C939.833 1903.91 939.617 1898.84 942.606 1895.55L1011.09 1821.1C1014.1 1817.83 1019.17 1817.62 1022.47 1820.6L1033.89 1831.09C1037.16 1834.09 1037.4 1839.19 1034.39 1842.45Z" stroke="#000000" stroke-width="3.4375" stroke-miterlimit="8" fill="#D6DBD9" fill-rule="evenodd"/><path d="M1100.38 1771.48 1089.89 1782.9C1086.88 1786.17 1081.81 1786.38 1078.52 1783.39L1067.1 1772.9C1063.83 1769.89 1063.62 1764.82 1066.6 1761.52L1077.09 1750.1C1080.1 1746.83 1085.17 1746.62 1088.47 1749.61L1099.88 1760.1C1103.18 1763.08 1103.39 1768.2 1100.38 1771.48Z" stroke="#000000" stroke-width="3.4375" stroke-miterlimit="8" fill="#D6DBD9" fill-rule="evenodd"/><path d="M1136.37 1732.48 1125.88 1743.9C1122.88 1747.17 1117.81 1747.38 1114.51 1744.39L1103.1 1733.9C1099.83 1730.89 1099.62 1725.82 1102.6 1722.52L1113.09 1711.1C1116.1 1707.83 1121.16 1707.62 1124.46 1710.61L1135.87 1721.1C1139.19 1724.12 1139.38 1729.21 1136.37 1732.48Z" stroke="#000000" stroke-width="3.4375" stroke-miterlimit="8" fill="#D6DBD9" fill-rule="evenodd"/><path d="M1168.37 1697.48 1157.88 1708.9C1154.88 1712.17 1149.81 1712.38 1146.51 1709.39L1135.1 1698.9C1131.83 1695.89 1131.62 1690.82 1134.6 1687.52L1145.09 1676.1C1148.1 1672.83 1153.16 1672.62 1156.46 1675.61L1167.87 1686.1C1171.19 1689.12 1171.38 1694.21 1168.37 1697.48Z" stroke="#000000" stroke-width="3.4375" stroke-miterlimit="8" fill="#D6DBD9" fill-rule="evenodd"/><path d="M1200.39 1662.48 1189.9 1673.9C1186.89 1677.17 1181.82 1677.38 1178.52 1674.39L1167.1 1663.9C1163.83 1660.89 1163.62 1655.82 1166.61 1652.52L1177.1 1641.1C1180.11 1637.83 1185.17 1637.62 1188.47 1640.61L1199.89 1651.1C1203.16 1654.11 1203.4 1659.21 1200.39 1662.48Z" stroke="#000000" stroke-width="3.4375" stroke-miterlimit="8" fill="#D6DBD9" fill-rule="evenodd"/><path d="M1233.38 1626.48 1222.89 1637.9C1219.89 1641.17 1214.82 1641.38 1211.52 1638.39L1200.1 1627.9C1196.83 1624.89 1196.62 1619.82 1199.61 1616.52L1210.1 1605.1C1213.1 1601.83 1218.17 1601.62 1221.47 1604.61L1232.89 1615.1C1236.18 1618.09 1236.37 1623.18 1233.38 1626.48Z" stroke="#000000" stroke-width="3.4375" stroke-miterlimit="8" fill="#D6DBD9" fill-rule="evenodd"/><path d="M1266.38 1590.48 1255.89 1601.9C1252.88 1605.17 1247.81 1605.38 1244.52 1602.39L1233.1 1591.9C1229.83 1588.89 1229.62 1583.82 1232.6 1580.52L1243.09 1569.1C1246.1 1565.83 1251.17 1565.62 1254.47 1568.61L1265.88 1579.1C1269.17 1582.14 1269.39 1587.21 1266.38 1590.48Z" stroke="#000000" stroke-width="3.4375" stroke-miterlimit="8" fill="#D6DBD9" fill-rule="evenodd"/><path d="M1291.37 1558.48 1280.88 1569.9C1277.88 1573.17 1272.81 1573.38 1269.51 1570.39L1258.1 1559.9C1254.83 1556.89 1254.62 1551.82 1257.6 1548.52L1268.09 1537.1C1271.1 1533.83 1276.16 1533.62 1279.46 1536.61L1290.88 1547.1C1294.19 1550.12 1294.38 1555.21 1291.37 1558.48Z" stroke="#000000" stroke-width="3.4375" stroke-miterlimit="8" fill="#D6DBD9" fill-rule="evenodd"/><path d="M1324.38 1522.48 1313.89 1533.9C1310.88 1537.17 1305.81 1537.38 1302.52 1534.39L1291.1 1523.9C1287.83 1520.89 1287.62 1515.82 1290.6 1512.52L1301.09 1501.1C1304.1 1497.83 1309.17 1497.62 1312.47 1500.61L1323.88 1511.1C1327.18 1514.08 1327.39 1519.2 1324.38 1522.48Z" stroke="#000000" stroke-width="3.4375" stroke-miterlimit="8" fill="#D6DBD9" fill-rule="evenodd"/><path d="M1355.39 1488.48 1344.89 1499.9C1341.89 1503.17 1336.82 1503.38 1333.52 1500.39L1322.1 1489.9C1318.83 1486.89 1318.62 1481.82 1321.61 1478.52L1332.1 1467.1C1335.1 1463.83 1340.17 1463.62 1343.47 1466.61L1354.89 1477.1C1358.16 1480.11 1358.4 1485.21 1355.39 1488.48Z" stroke="#000000" stroke-width="3.4375" stroke-miterlimit="8" fill="#D6DBD9" fill-rule="evenodd"/><path d="M1413.38 1419.6 1372.89 1463.88C1369.88 1467.17 1364.81 1467.39 1361.52 1464.38L1350.1 1453.84C1346.83 1450.82 1346.62 1445.72 1349.6 1442.4L1390.09 1398.12C1393.1 1394.83 1398.17 1394.61 1401.47 1397.62L1412.88 1408.16C1416.17 1411.21 1416.39 1416.31 1413.38 1419.6Z" stroke="#000000" stroke-width="3.4375" stroke-miterlimit="8" fill="#D6DBD9" fill-rule="evenodd"/><path d="M1005.36 1938.48 994.877 1949.9C991.87 1953.17 986.805 1953.38 983.51 1950.39L972.102 1939.9C968.834 1936.89 968.617 1931.82 971.603 1928.52L982.087 1917.1C985.094 1913.83 990.159 1913.62 993.454 1916.61L1004.86 1927.1C1008.18 1930.11 1008.39 1935.19 1005.36 1938.48Z" stroke="#000000" stroke-width="3.4375" stroke-miterlimit="8" fill="#D6DBD9" fill-rule="evenodd"/><path d="M1036.38 1905.48 1025.89 1916.9C1022.88 1920.17 1017.81 1920.38 1014.52 1917.39L1003.1 1906.9C999.834 1903.89 999.617 1898.82 1002.6 1895.52L1013.09 1884.1C1016.1 1880.83 1021.17 1880.62 1024.47 1883.61L1035.88 1894.1C1039.17 1897.14 1039.39 1902.21 1036.38 1905.48Z" stroke="#000000" stroke-width="3.4375" stroke-miterlimit="8" fill="#D6DBD9" fill-rule="evenodd"/><path d="M1069.38 1869.48 1058.89 1880.9C1055.88 1884.17 1050.81 1884.38 1047.52 1881.39L1036.1 1870.9C1032.83 1867.89 1032.62 1862.82 1035.6 1859.52L1046.09 1848.1C1049.1 1844.83 1054.17 1844.62 1057.47 1847.61L1068.88 1858.1C1072.18 1861.09 1072.39 1866.21 1069.38 1869.48Z" stroke="#000000" stroke-width="3.4375" stroke-miterlimit="8" fill="#D6DBD9" fill-rule="evenodd"/><path d="M1099.39 1836.48 1088.9 1847.9C1085.89 1851.17 1080.82 1851.38 1077.52 1848.39L1066.1 1837.9C1062.83 1834.89 1062.62 1829.82 1065.61 1826.52L1076.1 1815.1C1079.11 1811.83 1084.17 1811.62 1087.47 1814.61L1098.89 1825.1C1102.16 1828.11 1102.4 1833.21 1099.39 1836.48Z" stroke="#000000" stroke-width="3.4375" stroke-miterlimit="8" fill="#D6DBD9" fill-rule="evenodd"/><path d="M1137.39 1796.48 1126.9 1807.9C1123.89 1811.17 1118.82 1811.38 1115.52 1808.39L1104.1 1797.9C1100.83 1794.89 1100.62 1789.82 1103.6 1786.52L1114.1 1775.1C1117.11 1771.83 1122.17 1771.62 1125.47 1774.61L1136.89 1785.1C1140.16 1788.11 1140.4 1793.21 1137.39 1796.48Z" stroke="#000000" stroke-width="3.4375" stroke-miterlimit="8" fill="#D6DBD9" fill-rule="evenodd"/><path d="M1262.37 1660.42 1157.89 1773.9C1154.88 1777.17 1149.81 1777.38 1146.52 1774.4L1135.1 1763.93C1131.83 1760.93 1131.62 1755.87 1134.6 1752.58L1239.09 1639.1C1242.1 1635.84 1247.16 1635.62 1250.46 1638.6L1261.88 1649.07C1265.19 1652.08 1265.38 1657.16 1262.37 1660.42Z" stroke="#000000" stroke-width="3.4375" stroke-miterlimit="8" fill="#D6DBD9" fill-rule="evenodd"/><path d="M1292.39 1626.48 1281.89 1637.9C1278.89 1641.17 1273.82 1641.38 1270.52 1638.39L1259.1 1627.9C1255.83 1624.89 1255.62 1619.82 1258.6 1616.52L1269.1 1605.1C1272.11 1601.83 1277.17 1601.62 1280.48 1604.61L1291.89 1615.1C1295.16 1618.11 1295.4 1623.21 1292.39 1626.48Z" stroke="#000000" stroke-width="3.4375" stroke-miterlimit="8" fill="#D6DBD9" fill-rule="evenodd"/><path d="M1325.38 1591.48 1314.89 1602.9C1311.88 1606.17 1306.82 1606.38 1303.52 1603.39L1292.1 1592.9C1288.83 1589.89 1288.62 1584.82 1291.6 1581.52L1302.09 1570.1C1305.1 1566.83 1310.17 1566.62 1313.46 1569.61L1324.88 1580.1C1328.18 1583.08 1328.39 1588.2 1325.38 1591.48Z" stroke="#000000" stroke-width="3.4375" stroke-miterlimit="8" fill="#D6DBD9" fill-rule="evenodd"/><path d="M1356.39 1557.48 1345.9 1568.9C1342.89 1572.17 1337.82 1572.38 1334.52 1569.39L1323.1 1558.9C1319.83 1555.89 1319.62 1550.82 1322.61 1547.52L1333.1 1536.1C1336.11 1532.83 1341.18 1532.62 1344.48 1535.61L1355.9 1546.1C1359.17 1549.11 1359.38 1554.18 1356.39 1557.48Z" stroke="#000000" stroke-width="3.4375" stroke-miterlimit="8" fill="#D6DBD9" fill-rule="evenodd"/><path d="M1384.38 1527.48 1373.89 1538.9C1370.88 1542.17 1365.81 1542.38 1362.52 1539.39L1351.1 1528.9C1347.83 1525.89 1347.62 1520.82 1350.6 1517.52L1361.09 1506.1C1364.1 1502.83 1369.17 1502.62 1372.47 1505.61L1383.88 1516.1C1387.18 1519.09 1387.39 1524.21 1384.38 1527.48Z" stroke="#000000" stroke-width="3.4375" stroke-miterlimit="8" fill="#D6DBD9" fill-rule="evenodd"/><path d="M1416.37 1489.48 1405.88 1500.9C1402.88 1504.17 1397.81 1504.38 1394.51 1501.39L1383.1 1490.9C1379.83 1487.89 1379.62 1482.82 1382.6 1479.52L1393.09 1468.1C1396.1 1464.83 1401.16 1464.62 1404.46 1467.61L1415.87 1478.1C1419.19 1481.11 1419.38 1486.21 1416.37 1489.48Z" stroke="#000000" stroke-width="3.4375" stroke-miterlimit="8" fill="#D6DBD9" fill-rule="evenodd"/><path d="M1449.38 1454.48 1438.89 1465.9C1435.88 1469.17 1430.82 1469.38 1427.52 1466.39L1416.1 1455.9C1412.83 1452.89 1412.62 1447.82 1415.6 1444.52L1426.09 1433.1C1429.1 1429.83 1434.17 1429.62 1437.47 1432.61L1448.88 1443.1C1452.17 1446.14 1452.39 1451.21 1449.38 1454.48Z" stroke="#000000" stroke-width="3.4375" stroke-miterlimit="8" fill="#D6DBD9" fill-rule="evenodd"/><path d="M1402.39 1304.48 1391.89 1315.9C1388.89 1319.17 1383.82 1319.38 1380.52 1316.39L1369.1 1305.9C1365.83 1302.89 1365.62 1297.82 1368.6 1294.52L1379.1 1283.1C1382.1 1279.83 1387.17 1279.62 1390.47 1282.61L1401.89 1293.1C1405.18 1296.09 1405.37 1301.18 1402.39 1304.48Z" stroke="#000000" stroke-width="3.4375" stroke-miterlimit="8" fill="#D6DBD9" fill-rule="evenodd"/><path d="M1465.38 1236.48 1454.89 1247.9C1451.88 1251.17 1446.81 1251.38 1443.52 1248.39L1432.1 1237.9C1428.83 1234.89 1428.62 1229.82 1431.6 1226.52L1442.09 1215.1C1445.1 1211.83 1450.17 1211.62 1453.47 1214.61L1464.88 1225.1C1468.18 1228.09 1468.39 1233.21 1465.38 1236.48Z" stroke="#000000" stroke-width="3.4375" stroke-miterlimit="8" fill="#D6DBD9" fill-rule="evenodd"/><path d="M1433.39 1270.48 1422.89 1281.9C1419.89 1285.17 1414.82 1285.38 1411.52 1282.39L1400.1 1271.9C1396.83 1268.89 1396.62 1263.82 1399.61 1260.52L1410.1 1249.1C1413.11 1245.83 1418.17 1245.62 1421.47 1248.61L1432.89 1259.1C1436.16 1262.11 1436.4 1267.21 1433.39 1270.48Z" stroke="#000000" stroke-width="3.4375" stroke-miterlimit="8" fill="#D6DBD9" fill-rule="evenodd"/><path d="M1435.39 1334.48 1424.9 1345.9C1421.89 1349.17 1416.82 1349.38 1413.52 1346.39L1402.1 1335.9C1398.83 1332.89 1398.62 1327.82 1401.6 1324.52L1412.1 1313.1C1415.11 1309.83 1420.17 1309.62 1423.47 1312.61L1434.89 1323.1C1438.16 1326.11 1438.4 1331.21 1435.39 1334.48Z" stroke="#000000" stroke-width="3.4375" stroke-miterlimit="8" fill="#D6DBD9" fill-rule="evenodd"/><path d="M1465.39 1300.48 1454.9 1311.9C1451.89 1315.17 1446.82 1315.38 1443.52 1312.39L1432.1 1301.9C1428.83 1298.89 1428.62 1293.82 1431.61 1290.52L1442.1 1279.1C1445.11 1275.83 1450.17 1275.62 1453.47 1278.61L1464.89 1289.1C1468.16 1292.11 1468.4 1297.21 1465.39 1300.48Z" stroke="#000000" stroke-width="3.4375" stroke-miterlimit="8" fill="#D6DBD9" fill-rule="evenodd"/><path d="M1497.37 1265.48 1486.88 1276.9C1483.88 1280.17 1478.81 1280.38 1475.51 1277.39L1464.1 1266.9C1460.83 1263.89 1460.62 1258.82 1463.6 1255.52L1474.09 1244.1C1477.1 1240.83 1482.16 1240.62 1485.46 1243.61L1496.87 1254.1C1500.19 1257.12 1500.38 1262.21 1497.37 1265.48Z" stroke="#000000" stroke-width="3.4375" stroke-miterlimit="8" fill="#D6DBD9" fill-rule="evenodd"/><path d="M1468.38 1364.48 1457.89 1375.9C1454.88 1379.17 1449.81 1379.38 1446.52 1376.39L1435.1 1365.9C1431.83 1362.89 1431.62 1357.82 1434.6 1354.52L1445.09 1343.1C1448.1 1339.83 1453.17 1339.62 1456.47 1342.61L1467.88 1353.1C1471.17 1356.14 1471.39 1361.21 1468.38 1364.48Z" stroke="#000000" stroke-width="3.4375" stroke-miterlimit="8" fill="#D6DBD9" fill-rule="evenodd"/><path d="M1495.37 1328.48 1484.88 1339.9C1481.88 1343.17 1476.81 1343.38 1473.51 1340.39L1462.1 1329.9C1458.83 1326.89 1458.62 1321.82 1461.6 1318.52L1472.09 1307.1C1475.1 1303.83 1480.16 1303.62 1483.46 1306.61L1494.87 1317.1C1498.19 1320.12 1498.38 1325.21 1495.37 1328.48Z" stroke="#000000" stroke-width="3.4375" stroke-miterlimit="8" fill="#D6DBD9" fill-rule="evenodd"/><path d="M1529.38 1292.48 1518.89 1303.9C1515.88 1307.17 1510.81 1307.38 1507.52 1304.39L1496.1 1293.9C1492.83 1290.89 1492.62 1285.82 1495.6 1282.52L1506.09 1271.1C1509.1 1267.83 1514.17 1267.62 1517.47 1270.61L1528.88 1281.1C1532.18 1284.08 1532.39 1289.21 1529.38 1292.48Z" stroke="#000000" stroke-width="3.4375" stroke-miterlimit="8" fill="#D6DBD9" fill-rule="evenodd"/><path d="M1535.38 1352.33 1487.82 1403.91C1484.82 1407.16 1479.76 1407.38 1476.48 1404.41L1465.1 1393.98C1461.84 1390.99 1461.62 1385.95 1464.6 1382.67L1512.16 1331.09C1515.16 1327.84 1520.21 1327.62 1523.5 1330.59L1534.88 1341.02C1538.19 1344.02 1538.38 1349.08 1535.38 1352.33L1535.38 1352.33Z" stroke="#000000" stroke-width="3.4375" stroke-miterlimit="8" fill="#D6DBD9" fill-rule="evenodd"/><path d="M1562.38 1322.48 1551.89 1333.9C1548.88 1337.17 1543.81 1337.38 1540.52 1334.39L1529.1 1323.9C1525.83 1320.89 1525.62 1315.82 1528.6 1312.52L1539.09 1301.1C1542.1 1297.83 1547.17 1297.62 1550.47 1300.61L1561.88 1311.1C1565.18 1314.09 1565.39 1319.21 1562.38 1322.48Z" stroke="#000000" stroke-width="3.4375" stroke-miterlimit="8" fill="#D6DBD9" fill-rule="evenodd"/><path d="M106.443 1450.85C102.967 1459.93 120.347 1476.94 144.715 1500.76 147.984 1503.96 159.101 1514.61 175.415 1526.33 184.329 1532.73 191.66 1537.16 194.895 1539.12 203.671 1544.31 219.813 1554.17 241.22 1560.74 263.075 1567.41 278.872 1572.25 299.282 1568.92 307.266 1567.61 333.32 1563.39 339.619 1546.37 343.267 1536.54 338.724 1526.54 337.072 1522.86 314.081 1472.03 116.837 1423.56 106.409 1450.89L106.443 1450.85Z" fill="#5B5742" fill-rule="evenodd" fill-opacity="0.431373"/><path d="M83.0358 1219.13C91.8435 1204.09 97.2506 1202.03 100.448 1202.58 108.016 1203.86 107.989 1220.65 121.642 1247.02 126.279 1255.98 130.405 1262.29 133.895 1267.64 157.516 1299.37 196.622 1347.22 223.774 1381.73 271.233 1434.48 283.706 1451.97 320.454 1495.98 323.176 1498.6 331.368 1506.38 334.534 1518.84 349.389 1596.03 188.272 1509.16 172.257 1498.46 140.108 1478.18 140.521 1471.75 88.5151 1429.17 35.959 1386.14 28.215 1386.72 23.4999 1371.16 25.806 1352.24 30.2664 1329.33 38.9017 1304.24 51.5885 1267.37 68.7663 1238.93 83.0358 1219.13Z" stroke="#000000" stroke-width="20.625" stroke-miterlimit="8" fill="#EBE2B3" fill-rule="evenodd"/><path d="M950.599 1546.03C968.816 1516.88 804.138 1390.04 759.561 1398.39 755.01 1399.26 742.212 1401.34 738.819 1409.77 736.177 1416.4 740.505 1423.95 743.598 1428.91 757.954 1452.04 773.126 1463.83 794.591 1485.35 810.564 1501.35 817.063 1508.66 831.873 1519.22 840.794 1525.57 848.301 1529.83 851.889 1531.77 857.318 1534.77 871.42 1542.16 885.501 1546.32 902.662 1551.41 942.814 1558.52 950.599 1546.03L950.599 1546.03Z" fill="#5B5742" fill-rule="evenodd" fill-opacity="0.431373"/><path d="M762.999 1238.92C761.626 1241.29 760.249 1243.63 758.869 1245.94 756.715 1250.33 753.191 1257.92 749.801 1267.72 738.003 1301.82 744.198 1310.81 734.754 1334.11 727.008 1353.22 725.486 1360.54 725.5 1371.6 740.66 1398.71 772.618 1447 831.127 1484.86 867.132 1508.15 901.55 1519.98 926.549 1526.25 950.743 1531.2 959.268 1527.1 962.606 1522.48 971.072 1510.79 951.472 1488.29 897.603 1401.5 886.27 1383.27 876.056 1366.34 855.554 1332.46 837.91 1303.33 829.038 1288.65 825.521 1282.07 816.208 1264.63 810.842 1252.64 798.98 1235.23 793.157 1226.68 790.944 1216.11 784.26 1215.53 778.186 1215 772.714 1222.25 769.81 1226.81 767.628 1230.8 765.36 1234.84 762.999 1238.92Z" stroke="#000000" stroke-width="20.625" stroke-miterlimit="8" fill="#EBE2B3" fill-rule="evenodd"/></g></svg>