<svg width="1029" height="1260" xmlns="http://www.w3.org/2000/svg" xmlns:xlink="http://www.w3.org/1999/xlink" xml:space="preserve" overflow="hidden"><defs><clipPath id="clip0"><rect x="9" y="816" width="1029" height="1260"/></clipPath></defs><g clip-path="url(#clip0)" transform="translate(-9 -816)"><path d="M276.5 1843.5C277.328 1858.72 279.873 1867.38 282.126 1872.54 286.664 1882.92 287.653 1885.67 289.625 1891.17 290.123 1892.55 290.507 1893.67 290.782 1894.46 293.667 1902.8 293.771 1904.42 299.541 1924.25 308.815 1956.09 309.571 1955.4 311.804 1966.31 314.895 1981.31 313.315 1981.68 317.059 2003.09 320.528 2022.89 322.383 2032.91 327.57 2039.87 328.909 2041.66 342.168 2058.92 360.888 2057.41 373.185 2056.41 381.36 2047.8 387.199 2041.62 390.737 2037.92 393.485 2034.11 406.503 2006.59 414.026 1990.71 417.839 1982.57 420.552 1975.06 421.995 1971.08 422.957 1967.89 423.678 1965.11 426.721 1953.39 428.991 1944.92 429.311 1943.53 431.187 1935.34 438.159 1919.68 459.5 1887.3 429.689 1879.55 399.283 1871.94 368.294 1864.53 337.249 1857.09 306.641 1850.09 276.5 1843.5Z" stroke="#000000" stroke-width="20.625" stroke-miterlimit="8" fill="#EBE2B3" fill-rule="evenodd"/><path d="M633.5 1904.57C641.102 1921.88 648.703 1941.55 655.617 1963.46 662.427 1985.09 667.449 2005.35 671.164 2023.79 690.219 2070.67 740.403 2059.13 746.423 2009.78 753.405 1988.08 760.146 1964.94 766.372 1940.42 771.979 1918.34 776.726 1897.05 780.716 1876.72 781.283 1872.09 781.6 1866.97 781.472 1861.43 781.087 1844.77 776.815 1831.09 772.742 1821.5 726.328 1849.19 679.914 1876.88 633.5 1904.57Z" stroke="#000000" stroke-width="20.625" stroke-miterlimit="8" fill="#EBE2B3" fill-rule="evenodd"/><path d="M71.7689 1455.11C69.3634 1445.45 66.5798 1430.83 66.5109 1412.94 66.4423 1393.91 69.5352 1388.69 70.0165 1372.55 70.9788 1340.6 59.5342 1338.77 59.5 1311.08 59.5 1278.19 75.5152 1252.39 80.5669 1244.35 92.0457 1225.94 96.6164 1228.56 110.398 1207.47 123.216 1187.86 129.128 1170.52 134.97 1153.01 145.109 1122.64 142.703 1116.55 150.779 1088.03 156.484 1067.88 163.735 1042.18 180.61 1016 191.607 998.94 210.165 982.394 247.282 949.267 271.133 927.974 288.316 914.248 301.685 903.584 342.444 871.111 355.848 864.163 361.346 861.411 380.626 851.847 397.981 843.214 421.008 843.833 432.589 844.142 450.838 845.277 470.462 845.105 473.246 845.071 479.535 845.105 487.714 844.589 491.22 844.349 497.096 843.901 504.176 842.938 516.204 841.321 525.243 839.188 528.027 838.535 568.167 829.247 588.444 823.64 607.002 828.009 629.307 833.237 644.291 846.172 657.9 857.867 666.526 865.298 678.383 880.503 701.787 910.568 727.803 944.038 733.817 953.017 749.179 965.022 764.541 977.027 766.466 974.207 777.257 984.355 791.622 997.839 797.018 1011.08 810.593 1042.32 836.54 1102.04 834.409 1094.23 836.918 1102.04 839.461 1110.05 840.905 1117.93 844.17 1133.61 848.294 1153.46 849.497 1163.03 854.48 1191.65 858.363 1213.87 860.185 1225.01 861.491 1230.28 870.289 1265.95 883.52 1290.17 887.816 1298.77 907.921 1338.94 905.893 1386.45 901.872 1481.46 899.432 1539.08 898.091 1570.38 884.31 1611.46 877.196 1632.65 873.932 1635.09 856.233 1683.49 841.249 1724.42 838.774 1735.85 826.402 1764.29 812.655 1795.94 805.782 1811.76 791.313 1829.27 785.196 1836.7 770.933 1852.67 733.404 1874.96 702.199 1893.5 667.076 1914.34 615.835 1924.15 541.946 1938.29 480.222 1920.74 456.131 1913.62 441.112 1909.18 436.026 1906.5 406.986 1897.8 393.019 1893.62 381.905 1890.55 372.471 1888.1 335.135 1878.42 332.371 1879.15 313.988 1873.2 302.596 1869.51 294.942 1866.34 281.144 1860.58 254.698 1849.55 231.597 1839.91 213.946 1829.27 170.279 1802.96 147.71 1763.21 138.476 1746.72 131.602 1734.43 122.186 1706.33 103.387 1650.09 90.9802 1612.97 84.691 1594.15 82.3197 1581.6 77.7143 1557.28 76.3054 1534.09 73.556 1488.51 72.6627 1474.38 72.1128 1462.78 71.7689 1455.11Z" stroke="#000000" stroke-width="20.625" stroke-miterlimit="8" fill="#EBE2B3" fill-rule="evenodd"/><path d="M315.947 982.02 329.094 957.202 446.994 1019.65 433.847 1044.47Z" stroke="#000000" stroke-width="10.3136" stroke-miterlimit="8" fill="#595850" fill-rule="evenodd"/><path d="M569.609 1014.16 689.831 956.293 702.011 981.6 581.79 1039.46Z" stroke="#000000" stroke-width="10.3136" stroke-miterlimit="8" fill="#595850" fill-rule="evenodd"/><path d="M771 2066.5C771 2071.75 666.458 2076 537.5 2076 408.542 2076 304 2071.75 304 2066.5 304 2061.25 408.542 2057 537.5 2057 666.458 2057 771 2061.25 771 2066.5Z" fill="#5B5742" fill-rule="evenodd" fill-opacity="0.470588"/><path d="M1001.1 1594.08 104.288 1763.93C86.6542 1767.26 69.6737 1755.68 66.3395 1738.08L20.0721 1493.87C16.7379 1476.24 28.3218 1459.26 45.9213 1455.92L942.701 1286.07C960.335 1282.74 977.316 1294.32 980.65 1311.92L1026.92 1556.13C1030.29 1573.73 1018.7 1590.74 1001.1 1594.08L1001.1 1594.08Z" stroke="#000000" stroke-width="20.625" stroke-miterlimit="8" fill="#A6A897" fill-rule="evenodd"/><path d="M415.5 1105.5C415.5 1128.7 396.92 1147.5 374 1147.5 351.08 1147.5 332.5 1128.7 332.5 1105.5 332.5 1082.3 351.08 1063.5 374 1063.5 396.92 1063.5 415.5 1082.3 415.5 1105.5Z" stroke="#000000" stroke-width="20.625" stroke-miterlimit="8" fill="#231815" fill-rule="evenodd"/><path d="M689.5 1105.5C689.5 1128.7 670.92 1147.5 648 1147.5 625.08 1147.5 606.5 1128.7 606.5 1105.5 606.5 1082.3 625.08 1063.5 648 1063.5 670.92 1063.5 689.5 1082.3 689.5 1105.5Z" stroke="#000000" stroke-width="20.625" stroke-miterlimit="8" fill="#231815" fill-rule="evenodd"/><path d="M398 1118.5C398 1129.82 389.046 1139 378 1139 366.954 1139 358 1129.82 358 1118.5 358 1107.18 366.954 1098 378 1098 389.046 1098 398 1107.18 398 1118.5Z" fill="#FFFFFF" fill-rule="evenodd"/><path d="M667 1118.5C667 1129.82 658.046 1139 647 1139 635.954 1139 627 1129.82 627 1118.5 627 1107.18 635.954 1098 647 1098 658.046 1098 667 1107.18 667 1118.5Z" fill="#FFFFFF" fill-rule="evenodd"/><path d="M594 1233.5C594 1245.37 560.198 1255 518.5 1255 476.803 1255 443 1245.37 443 1233.5 443 1221.63 476.803 1212 518.5 1212 560.198 1212 594 1221.63 594 1233.5Z" stroke="#000000" stroke-width="10.3125" stroke-miterlimit="8" fill="#E73A8F" fill-rule="evenodd"/><path d="M299.927 1485.89 271.021 1491.36C266.63 1492.19 262.412 1489.32 261.547 1484.92L258.643 1469.59C257.813 1465.2 260.683 1460.98 265.074 1460.11L293.979 1454.64C298.371 1453.81 302.589 1456.68 303.453 1461.08L306.357 1476.41C307.187 1480.84 304.318 1485.06 299.927 1485.89Z" stroke="#000000" stroke-width="3.4375" stroke-miterlimit="8" fill="#D6DBD9" fill-rule="evenodd"/><path d="M435.926 1459.89 407.021 1465.36C402.63 1466.19 398.412 1463.32 397.547 1458.92L394.643 1443.59C393.813 1439.2 396.683 1434.98 401.074 1434.11L429.979 1428.64C434.371 1427.81 438.589 1430.68 439.453 1435.08L442.358 1450.41C443.187 1454.8 440.318 1459.06 435.926 1459.89Z" stroke="#000000" stroke-width="3.4375" stroke-miterlimit="8" fill="#D6DBD9" fill-rule="evenodd"/><path d="M114.918 1520.89 86.0184 1526.36C81.6281 1527.19 77.4109 1524.32 76.5465 1519.92L73.6427 1504.59C72.813 1500.2 75.6823 1495.98 80.0726 1495.11L108.972 1489.64C113.362 1488.81 117.58 1491.68 118.444 1496.08L121.347 1511.41C122.212 1515.8 119.308 1520.06 114.918 1520.89Z" stroke="#000000" stroke-width="3.4375" stroke-miterlimit="8" fill="#D6DBD9" fill-rule="evenodd"/><path d="M175.918 1508.89 147.018 1514.36C142.628 1515.19 138.411 1512.32 137.546 1507.92L134.643 1492.59C133.813 1488.2 136.682 1483.98 141.073 1483.11L169.972 1477.64C174.362 1476.81 178.58 1479.68 179.444 1484.08L182.348 1499.41C183.212 1503.84 180.308 1508.06 175.918 1508.89Z" stroke="#000000" stroke-width="3.4375" stroke-miterlimit="8" fill="#D6DBD9" fill-rule="evenodd"/><path d="M674.918 1414.89 646.019 1420.36C641.628 1421.19 637.411 1418.32 636.547 1413.92L633.643 1398.59C632.813 1394.2 635.682 1389.98 640.073 1389.11L668.972 1383.64C673.363 1382.81 677.58 1385.68 678.444 1390.08L681.348 1405.41C682.212 1409.8 679.308 1414.02 674.918 1414.89Z" stroke="#000000" stroke-width="3.4375" stroke-miterlimit="8" fill="#D6DBD9" fill-rule="evenodd"/><path d="M238.055 1497.04 209.758 1502.36C205.459 1503.17 201.33 1500.37 200.483 1496.1L197.64 1481.18C196.827 1476.91 199.637 1472.8 203.936 1471.96L232.233 1466.64C236.532 1465.83 240.661 1468.63 241.507 1472.9L244.351 1487.82C245.197 1492.09 242.354 1496.23 238.055 1497.04Z" stroke="#000000" stroke-width="3.4375" stroke-miterlimit="8" fill="#D6DBD9" fill-rule="evenodd"/><path d="M497.063 1448.04 468.76 1453.36C464.46 1454.17 460.33 1451.37 459.484 1447.1L456.64 1432.18C455.828 1427.91 458.637 1423.8 462.937 1422.96L491.24 1417.64C495.54 1416.83 499.67 1419.63 500.517 1423.9L503.36 1438.82C504.173 1443.09 501.363 1447.23 497.063 1448.04Z" stroke="#000000" stroke-width="3.4375" stroke-miterlimit="8" fill="#D6DBD9" fill-rule="evenodd"/><path d="M555.926 1436.89 527.021 1442.36C522.63 1443.19 518.412 1440.32 517.547 1435.92L514.643 1420.59C513.813 1416.2 516.683 1411.98 521.074 1411.11L549.979 1405.64C554.371 1404.81 558.589 1407.68 559.453 1412.08L562.357 1427.41C563.187 1431.84 560.318 1436.06 555.926 1436.89Z" stroke="#000000" stroke-width="3.4375" stroke-miterlimit="8" fill="#D6DBD9" fill-rule="evenodd"/><path d="M615.918 1425.89 587.018 1431.36C582.628 1432.19 578.411 1429.32 577.546 1424.92L574.643 1409.59C573.813 1405.2 576.682 1400.98 581.073 1400.11L609.972 1394.64C614.362 1393.81 618.58 1396.68 619.444 1401.08L622.348 1416.41C623.212 1420.8 620.308 1425.06 615.918 1425.89Z" stroke="#000000" stroke-width="3.4375" stroke-miterlimit="8" fill="#D6DBD9" fill-rule="evenodd"/><path d="M367.918 1472.89 339.018 1478.36C334.628 1479.19 330.411 1476.32 329.546 1471.92L326.643 1456.59C325.813 1452.2 328.682 1447.98 333.073 1447.11L361.972 1441.64C366.362 1440.81 370.58 1443.68 371.444 1448.08L374.348 1463.41C375.212 1467.84 372.308 1472.06 367.918 1472.89Z" stroke="#000000" stroke-width="3.4375" stroke-miterlimit="8" fill="#D6DBD9" fill-rule="evenodd"/><path d="M742.918 1399.89 714.018 1405.36C709.628 1406.19 705.411 1403.32 704.547 1398.92L701.643 1383.59C700.813 1379.2 703.682 1374.98 708.073 1374.11L736.972 1368.64C741.362 1367.81 745.58 1370.68 746.444 1375.08L749.347 1390.41C750.212 1394.8 747.308 1399.06 742.918 1399.89Z" stroke="#000000" stroke-width="3.4375" stroke-miterlimit="8" fill="#D6DBD9" fill-rule="evenodd"/><path d="M151.913 1560.13 93.0286 1571.36C88.6347 1572.19 84.414 1569.3 83.5488 1564.87L80.6427 1549.43C79.8123 1545 82.684 1540.74 87.0779 1539.87L145.962 1528.64C150.356 1527.81 154.577 1530.7 155.442 1535.13L158.348 1550.58C159.213 1555.04 156.306 1559.29 151.913 1560.13Z" stroke="#000000" stroke-width="3.4375" stroke-miterlimit="8" fill="#D6DBD9" fill-rule="evenodd"/><path d="M201.005 1550.49 185.871 1553.36C181.533 1554.18 177.365 1551.34 176.511 1547.01L173.641 1531.87C172.821 1527.53 175.657 1523.36 179.995 1522.51L195.129 1519.64C199.468 1518.82 203.636 1521.66 204.49 1526L207.359 1541.13C208.179 1545.5 205.344 1549.67 201.005 1550.49Z" stroke="#000000" stroke-width="3.4375" stroke-miterlimit="8" fill="#D6DBD9" fill-rule="evenodd"/><path d="M245.806 1541.49 230.232 1544.36C225.767 1545.18 221.478 1542.34 220.598 1538.01L217.645 1522.87C216.801 1518.53 219.72 1514.36 224.185 1513.51L239.759 1510.64C244.224 1509.82 248.513 1512.66 249.392 1517L252.346 1532.13C253.225 1536.47 250.271 1540.67 245.806 1541.49Z" stroke="#000000" stroke-width="3.4375" stroke-miterlimit="8" fill="#D6DBD9" fill-rule="evenodd"/><path d="M292.997 1532.49 277.868 1535.36C273.53 1536.18 269.364 1533.34 268.51 1529.01L265.641 1513.87C264.821 1509.53 267.656 1505.36 271.993 1504.51L287.123 1501.64C291.46 1500.82 295.627 1503.66 296.481 1508L299.35 1523.13C300.204 1527.47 297.335 1531.67 292.997 1532.49Z" stroke="#000000" stroke-width="3.4375" stroke-miterlimit="8" fill="#D6DBD9" fill-rule="evenodd"/><path d="M337.814 1524.49 322.235 1527.36C317.769 1528.18 313.478 1525.34 312.599 1521.01L309.645 1505.87C308.801 1501.53 311.72 1497.36 316.186 1496.51L331.765 1493.64C336.232 1492.82 340.522 1495.66 341.401 1500L344.355 1515.13C345.199 1519.5 342.28 1523.67 337.814 1524.49L337.814 1524.49Z" stroke="#000000" stroke-width="3.4375" stroke-miterlimit="8" fill="#D6DBD9" fill-rule="evenodd"/><path d="M390.997 1515.4 375.868 1518.35C371.53 1519.2 367.364 1516.28 366.51 1511.81L363.641 1496.23C362.821 1491.77 365.656 1487.48 369.993 1486.6L385.123 1483.65C389.46 1482.8 393.627 1485.72 394.481 1490.19L397.35 1505.77C398.203 1510.23 395.335 1514.56 390.997 1515.4Z" stroke="#000000" stroke-width="3.4375" stroke-miterlimit="8" fill="#D6DBD9" fill-rule="evenodd"/><path d="M435.806 1506.49 420.231 1509.36C415.766 1510.18 411.477 1507.34 410.598 1503.01L407.645 1487.87C406.801 1483.53 409.719 1479.36 414.184 1478.51L429.759 1475.64C434.224 1474.82 438.513 1477.66 439.392 1482L442.345 1497.13C443.224 1501.5 440.271 1505.67 435.806 1506.49Z" stroke="#000000" stroke-width="3.4375" stroke-miterlimit="8" fill="#D6DBD9" fill-rule="evenodd"/><path d="M483.005 1497.49 467.871 1500.36C463.532 1501.18 459.365 1498.34 458.511 1494L455.641 1478.87C454.821 1474.53 457.657 1470.36 461.995 1469.51L477.129 1466.64C481.467 1465.82 485.635 1468.66 486.489 1473L489.359 1488.13C490.179 1492.5 487.343 1496.67 483.005 1497.49Z" stroke="#000000" stroke-width="3.4375" stroke-miterlimit="8" fill="#D6DBD9" fill-rule="evenodd"/><path d="M525.005 1489.4 509.871 1492.35C505.532 1493.2 501.365 1490.28 500.511 1485.81L497.641 1470.24C496.821 1465.77 499.657 1461.48 503.995 1460.6L519.129 1457.65C523.468 1456.8 527.635 1459.72 528.489 1464.19L531.359 1479.77C532.179 1484.23 529.343 1488.56 525.005 1489.4Z" stroke="#000000" stroke-width="3.4375" stroke-miterlimit="8" fill="#D6DBD9" fill-rule="evenodd"/><path d="M573.005 1480.4 557.871 1483.36C553.533 1484.2 549.365 1481.28 548.511 1476.81L545.641 1461.24C544.821 1456.77 547.657 1452.48 551.995 1451.6L567.129 1448.65C571.468 1447.8 575.636 1450.72 576.49 1455.19L579.359 1470.77C580.179 1475.23 577.344 1479.56 573.005 1480.4Z" stroke="#000000" stroke-width="3.4375" stroke-miterlimit="8" fill="#D6DBD9" fill-rule="evenodd"/><path d="M617.998 1471.49 602.868 1474.36C598.53 1475.18 594.364 1472.34 593.51 1468L590.641 1452.87C589.821 1448.53 592.656 1444.36 596.994 1443.51L612.123 1440.64C616.46 1439.82 620.627 1442.66 621.481 1447L624.35 1462.13C625.204 1466.47 622.335 1470.67 617.998 1471.49Z" stroke="#000000" stroke-width="3.4375" stroke-miterlimit="8" fill="#D6DBD9" fill-rule="evenodd"/><path d="M664.997 1462.49 649.868 1465.36C645.53 1466.18 641.364 1463.34 640.51 1459L637.641 1443.87C636.822 1439.53 639.656 1435.36 643.994 1434.51L659.123 1431.64C663.461 1430.82 667.627 1433.66 668.481 1438L671.35 1453.13C672.204 1457.5 669.335 1461.67 664.997 1462.49Z" stroke="#000000" stroke-width="3.4375" stroke-miterlimit="8" fill="#D6DBD9" fill-rule="evenodd"/><path d="M710.005 1454.4 694.871 1457.35C690.532 1458.2 686.365 1455.28 685.51 1450.81L682.641 1435.23C681.821 1430.77 684.656 1426.48 688.995 1425.6L704.129 1422.65C708.467 1421.8 712.635 1424.72 713.489 1429.19L716.359 1444.77C717.179 1449.27 714.343 1453.56 710.005 1454.4Z" stroke="#000000" stroke-width="3.4375" stroke-miterlimit="8" fill="#D6DBD9" fill-rule="evenodd"/><path d="M750.998 1446.49 735.868 1449.36C731.53 1450.18 727.364 1447.34 726.51 1443L723.641 1427.87C722.822 1423.53 725.656 1419.36 729.994 1418.51L745.123 1415.64C749.461 1414.82 753.627 1417.66 754.481 1422L757.35 1437.13C758.204 1441.5 755.335 1445.67 750.998 1446.49Z" stroke="#000000" stroke-width="3.4375" stroke-miterlimit="8" fill="#D6DBD9" fill-rule="evenodd"/><path d="M272.005 1584.4 256.871 1587.35C252.532 1588.2 248.365 1585.28 247.51 1580.81L244.641 1565.23C243.821 1560.77 246.657 1556.48 250.995 1555.6L266.129 1552.65C270.467 1551.8 274.635 1554.72 275.489 1559.19L278.359 1574.77C279.179 1579.23 276.343 1583.56 272.005 1584.4Z" stroke="#000000" stroke-width="3.4375" stroke-miterlimit="8" fill="#D6DBD9" fill-rule="evenodd"/><path d="M322.005 1575.49 306.871 1578.36C302.533 1579.18 298.365 1576.34 297.511 1572.01L294.641 1556.87C293.821 1552.53 296.657 1548.36 300.995 1547.51L316.129 1544.64C320.468 1543.82 324.636 1546.66 325.49 1551L328.359 1566.13C329.179 1570.47 326.344 1574.67 322.005 1575.49Z" stroke="#000000" stroke-width="3.4375" stroke-miterlimit="8" fill="#D6DBD9" fill-rule="evenodd"/><path d="M367.997 1566.49 352.868 1569.36C348.53 1570.18 344.364 1567.34 343.51 1563.01L340.641 1547.87C339.821 1543.53 342.656 1539.36 346.994 1538.51L362.123 1535.64C366.46 1534.82 370.627 1537.66 371.481 1542L374.35 1557.13C375.203 1561.47 372.335 1565.67 367.997 1566.49Z" stroke="#000000" stroke-width="3.4375" stroke-miterlimit="8" fill="#D6DBD9" fill-rule="evenodd"/><path d="M414.814 1557.49 399.235 1560.36C394.769 1561.18 390.478 1558.34 389.599 1554.01L386.645 1538.87C385.801 1534.53 388.72 1530.36 393.186 1529.51L408.765 1526.64C413.231 1525.82 417.522 1528.66 418.401 1533L421.355 1548.13C422.199 1552.5 419.28 1556.67 414.814 1557.49Z" stroke="#000000" stroke-width="3.4375" stroke-miterlimit="8" fill="#D6DBD9" fill-rule="evenodd"/><path d="M462.998 1548.4 447.868 1551.35C443.53 1552.2 439.364 1549.28 438.51 1544.81L435.641 1529.23C434.821 1524.77 437.656 1520.48 441.994 1519.6L457.123 1516.65C461.46 1515.8 465.627 1518.72 466.481 1523.19L469.35 1538.77C470.204 1543.23 467.335 1547.56 462.998 1548.4Z" stroke="#000000" stroke-width="3.4375" stroke-miterlimit="8" fill="#D6DBD9" fill-rule="evenodd"/><path d="M510.806 1539.4 495.232 1542.35C490.767 1543.2 486.478 1540.28 485.598 1535.81L482.645 1520.23C481.802 1515.77 484.72 1511.48 489.185 1510.6L504.759 1507.65C509.224 1506.8 513.513 1509.72 514.392 1514.19L517.345 1529.77C518.224 1534.23 515.271 1538.56 510.806 1539.4Z" stroke="#000000" stroke-width="3.4375" stroke-miterlimit="8" fill="#D6DBD9" fill-rule="evenodd"/><path d="M549.998 1528.49 534.868 1531.36C530.53 1532.18 526.364 1529.34 525.51 1525.01L522.641 1509.87C521.821 1505.53 524.656 1501.36 528.994 1500.51L544.123 1497.64C548.46 1496.82 552.627 1499.66 553.481 1504L556.35 1519.13C557.204 1523.5 554.335 1527.67 549.998 1528.49Z" stroke="#000000" stroke-width="3.4375" stroke-miterlimit="8" fill="#D6DBD9" fill-rule="evenodd"/><path d="M597.998 1519.4 582.868 1522.35C578.53 1523.2 574.364 1520.28 573.51 1515.81L570.641 1500.23C569.821 1495.77 572.656 1491.48 576.994 1490.6L592.123 1487.65C596.461 1486.8 600.627 1489.72 601.481 1494.19L604.35 1509.77C605.204 1514.27 602.335 1518.56 597.998 1519.4Z" stroke="#000000" stroke-width="3.4375" stroke-miterlimit="8" fill="#D6DBD9" fill-rule="evenodd"/><path d="M643.005 1510.49 627.871 1513.36C623.533 1514.18 619.365 1511.34 618.511 1507.01L615.641 1491.87C614.821 1487.53 617.657 1483.36 621.995 1482.51L637.129 1479.64C641.467 1478.82 645.635 1481.66 646.489 1486L649.359 1501.13C650.179 1505.5 647.343 1509.67 643.005 1510.49Z" stroke="#000000" stroke-width="3.4375" stroke-miterlimit="8" fill="#D6DBD9" fill-rule="evenodd"/><path d="M690.005 1501.49 674.871 1504.36C670.532 1505.18 666.365 1502.34 665.51 1498L662.641 1482.87C661.821 1478.53 664.656 1474.36 668.995 1473.51L684.129 1470.64C688.467 1469.82 692.635 1472.66 693.489 1477L696.359 1492.13C697.179 1496.47 694.343 1500.67 690.005 1501.49Z" stroke="#000000" stroke-width="3.4375" stroke-miterlimit="8" fill="#D6DBD9" fill-rule="evenodd"/><path d="M180.926 1602.22 102.002 1617.36C97.6177 1618.19 93.4058 1615.29 92.5424 1610.85L89.6423 1595.36C88.8137 1590.92 91.6794 1586.66 96.0641 1585.78L174.988 1570.64C179.373 1569.81 183.585 1572.71 184.448 1577.15L187.348 1592.64C188.211 1597.08 185.311 1601.38 180.926 1602.22Z" stroke="#000000" stroke-width="3.4375" stroke-miterlimit="8" fill="#D6DBD9" fill-rule="evenodd"/><path d="M258.005 1636.49 242.871 1639.36C238.533 1640.18 234.365 1637.34 233.511 1633L230.641 1617.87C229.821 1613.53 232.657 1609.36 236.995 1608.51L252.129 1605.64C256.468 1604.82 260.635 1607.66 261.489 1612L264.359 1627.13C265.179 1631.47 262.344 1635.67 258.005 1636.49Z" stroke="#000000" stroke-width="3.4375" stroke-miterlimit="8" fill="#D6DBD9" fill-rule="evenodd"/><path d="M223.998 1593.4 208.868 1596.35C204.53 1597.2 200.364 1594.28 199.51 1589.81L196.641 1574.23C195.821 1569.77 198.656 1565.48 202.994 1564.6L218.123 1561.65C222.461 1560.8 226.627 1563.72 227.481 1568.19L230.35 1583.77C231.204 1588.23 228.335 1592.56 223.998 1593.4Z" stroke="#000000" stroke-width="3.4375" stroke-miterlimit="8" fill="#D6DBD9" fill-rule="evenodd"/><path d="M753.921 1491.14 716.031 1498.36C711.636 1499.19 707.415 1496.3 706.55 1491.87L703.643 1476.42C702.813 1471.99 705.685 1467.74 710.079 1466.86L747.969 1459.64C752.364 1458.81 756.586 1461.7 757.451 1466.13L760.357 1481.58C761.188 1486.05 758.315 1490.3 753.921 1491.14L753.921 1491.14Z" stroke="#000000" stroke-width="3.4375" stroke-miterlimit="8" fill="#D6DBD9" fill-rule="evenodd"/><path d="M209.985 1644.2 110.91 1663.36C106.558 1664.19 102.377 1661.29 101.52 1656.85L98.6416 1641.37C97.8191 1636.93 100.664 1632.67 105.016 1631.8L204.09 1612.64C208.442 1611.81 212.623 1614.71 213.48 1619.14L216.359 1634.63C217.181 1639.07 214.337 1643.36 209.985 1644.2Z" stroke="#000000" stroke-width="3.4375" stroke-miterlimit="8" fill="#D6DBD9" fill-rule="evenodd"/><path d="M305.997 1625.49 290.868 1628.36C286.53 1629.18 282.364 1626.34 281.51 1622L278.641 1606.87C277.821 1602.53 280.656 1598.36 284.993 1597.51L300.123 1594.64C304.46 1593.82 308.627 1596.66 309.481 1601L312.35 1616.13C313.203 1620.47 310.335 1624.67 305.997 1625.49Z" stroke="#000000" stroke-width="3.4375" stroke-miterlimit="8" fill="#D6DBD9" fill-rule="evenodd"/><path d="M357.997 1616.4 342.868 1619.35C338.53 1620.2 334.364 1617.28 333.51 1612.81L330.641 1597.23C329.821 1592.77 332.656 1588.48 336.993 1587.6L352.123 1584.65C356.46 1583.8 360.627 1586.72 361.481 1591.19L364.35 1606.77C365.204 1611.27 362.335 1615.56 357.997 1616.4Z" stroke="#000000" stroke-width="3.4375" stroke-miterlimit="8" fill="#D6DBD9" fill-rule="evenodd"/><path d="M403.997 1607.49 388.868 1610.36C384.53 1611.18 380.364 1608.34 379.51 1604L376.641 1588.87C375.821 1584.53 378.656 1580.36 382.993 1579.51L398.123 1576.64C402.46 1575.82 406.627 1578.66 407.481 1583L410.35 1598.13C411.203 1602.5 408.335 1606.67 403.997 1607.49Z" stroke="#000000" stroke-width="3.4375" stroke-miterlimit="8" fill="#D6DBD9" fill-rule="evenodd"/><path d="M450.005 1598.49 434.871 1601.36C430.532 1602.18 426.365 1599.34 425.511 1595.01L422.641 1579.87C421.821 1575.53 424.657 1571.36 428.995 1570.51L444.129 1567.64C448.467 1566.82 452.635 1569.66 453.489 1574L456.359 1589.13C457.179 1593.47 454.343 1597.67 450.005 1598.49Z" stroke="#000000" stroke-width="3.4375" stroke-miterlimit="8" fill="#D6DBD9" fill-rule="evenodd"/><path d="M498.998 1589.4 483.868 1592.35C479.53 1593.2 475.364 1590.28 474.51 1585.81L471.641 1570.24C470.822 1565.77 473.656 1561.48 477.994 1560.6L493.123 1557.65C497.461 1556.8 501.627 1559.72 502.481 1564.19L505.35 1579.77C506.204 1584.23 503.335 1588.52 498.998 1589.4Z" stroke="#000000" stroke-width="3.4375" stroke-miterlimit="8" fill="#D6DBD9" fill-rule="evenodd"/><path d="M546.005 1580.4 530.871 1583.36C526.532 1584.2 522.365 1581.28 521.511 1576.81L518.641 1561.24C517.821 1556.77 520.656 1552.48 524.995 1551.6L540.129 1548.65C544.467 1547.8 548.635 1550.72 549.489 1555.19L552.359 1570.77C553.179 1575.27 550.343 1579.56 546.005 1580.4Z" stroke="#000000" stroke-width="3.4375" stroke-miterlimit="8" fill="#D6DBD9" fill-rule="evenodd"/><path d="M585.998 1569.4 570.868 1572.36C566.53 1573.2 562.364 1570.28 561.51 1565.81L558.641 1550.24C557.821 1545.77 560.656 1541.48 564.994 1540.6L580.123 1537.65C584.461 1536.8 588.627 1539.72 589.481 1544.19L592.35 1559.77C593.204 1564.27 590.335 1568.56 585.998 1569.4Z" stroke="#000000" stroke-width="3.4375" stroke-miterlimit="8" fill="#D6DBD9" fill-rule="evenodd"/><path d="M633.997 1560.4 618.868 1563.35C614.53 1564.2 610.364 1561.28 609.51 1556.81L606.641 1541.23C605.821 1536.77 608.656 1532.48 612.993 1531.6L628.123 1528.65C632.46 1527.8 636.627 1530.72 637.481 1535.19L640.35 1550.77C641.203 1555.23 638.335 1559.56 633.997 1560.4Z" stroke="#000000" stroke-width="3.4375" stroke-miterlimit="8" fill="#D6DBD9" fill-rule="evenodd"/><path d="M678.814 1551.49 663.235 1554.36C658.769 1555.18 654.478 1552.34 653.599 1548.01L650.645 1532.87C649.801 1528.53 652.72 1524.36 657.186 1523.51L672.765 1520.64C677.231 1519.82 681.522 1522.66 682.401 1527L685.355 1542.13C686.199 1546.47 683.28 1550.67 678.814 1551.49Z" stroke="#000000" stroke-width="3.4375" stroke-miterlimit="8" fill="#D6DBD9" fill-rule="evenodd"/><path d="M766.945 1530.34 707.986 1541.36C703.607 1542.18 699.401 1539.35 698.538 1535.04L695.642 1519.97C694.815 1515.65 697.676 1511.51 702.055 1510.66L761.014 1499.64C765.393 1498.82 769.6 1501.65 770.461 1505.96L773.358 1521.03C774.185 1525.38 771.323 1529.53 766.945 1530.34Z" stroke="#000000" stroke-width="3.4375" stroke-miterlimit="8" fill="#D6DBD9" fill-rule="evenodd"/><path d="M129.805 1703.49 114.231 1706.36C109.766 1707.18 105.477 1704.34 104.598 1700.01L101.645 1684.87C100.801 1680.53 103.719 1676.36 108.184 1675.51L123.758 1672.64C128.223 1671.82 132.512 1674.66 133.391 1679L136.344 1694.13C137.223 1698.5 134.305 1702.67 129.805 1703.49Z" stroke="#000000" stroke-width="3.4375" stroke-miterlimit="8" fill="#D6DBD9" fill-rule="evenodd"/><path d="M174.005 1695.4 158.871 1698.35C154.532 1699.2 150.365 1696.28 149.511 1691.81L146.641 1676.23C145.821 1671.77 148.657 1667.48 152.995 1666.6L168.129 1663.65C172.467 1662.8 176.635 1665.72 177.489 1670.19L180.359 1685.76C181.179 1690.27 178.343 1694.56 174.005 1695.4Z" stroke="#000000" stroke-width="3.4375" stroke-miterlimit="8" fill="#D6DBD9" fill-rule="evenodd"/><path d="M221.806 1686.49 206.232 1689.36C201.767 1690.18 197.478 1687.34 196.598 1683.01L193.645 1667.87C192.801 1663.53 195.719 1659.36 200.185 1658.51L215.759 1655.64C220.224 1654.82 224.513 1657.66 225.392 1662L228.345 1677.13C229.224 1681.47 226.271 1685.67 221.806 1686.49Z" stroke="#000000" stroke-width="3.4375" stroke-miterlimit="8" fill="#D6DBD9" fill-rule="evenodd"/><path d="M266.005 1677.49 250.871 1680.36C246.533 1681.18 242.365 1678.34 241.511 1674.01L238.641 1658.87C237.821 1654.53 240.657 1650.36 244.995 1649.51L260.129 1646.64C264.468 1645.82 268.636 1648.66 269.49 1653L272.359 1668.13C273.179 1672.47 270.343 1676.67 266.005 1677.49Z" stroke="#000000" stroke-width="3.4375" stroke-miterlimit="8" fill="#D6DBD9" fill-rule="evenodd"/><path d="M319.814 1668.49 304.235 1671.36C299.769 1672.18 295.479 1669.34 294.599 1665.01L291.645 1649.87C290.801 1645.53 293.72 1641.36 298.186 1640.51L313.765 1637.64C318.232 1636.82 322.522 1639.66 323.401 1644L326.355 1659.13C327.199 1663.47 324.28 1667.67 319.814 1668.49Z" stroke="#000000" stroke-width="3.4375" stroke-miterlimit="8" fill="#D6DBD9" fill-rule="evenodd"/><path d="M501.943 1633.65 349.971 1662.36C345.597 1663.18 341.396 1660.33 340.535 1655.97L337.642 1640.76C336.816 1636.4 339.674 1632.21 344.048 1631.35L496.02 1602.64C500.393 1601.82 504.595 1604.67 505.456 1609.03L508.348 1624.24C509.209 1628.64 506.317 1632.83 501.943 1633.65Z" stroke="#000000" stroke-width="3.4375" stroke-miterlimit="8" fill="#D6DBD9" fill-rule="evenodd"/><path d="M546.005 1624.49 530.871 1627.36C526.532 1628.18 522.365 1625.34 521.51 1621.01L518.641 1605.87C517.821 1601.53 520.656 1597.36 524.995 1596.51L540.129 1593.64C544.467 1592.82 548.635 1595.66 549.489 1600L552.359 1615.13C553.179 1619.47 550.343 1623.67 546.005 1624.49Z" stroke="#000000" stroke-width="3.4375" stroke-miterlimit="8" fill="#D6DBD9" fill-rule="evenodd"/><path d="M593.806 1615.49 578.232 1618.36C573.766 1619.18 569.477 1616.34 568.599 1612.01L565.645 1596.87C564.802 1592.53 567.719 1588.36 572.184 1587.51L587.759 1584.64C592.224 1583.82 596.513 1586.66 597.392 1591L600.345 1606.13C601.225 1610.47 598.271 1614.67 593.806 1615.49Z" stroke="#000000" stroke-width="3.4375" stroke-miterlimit="8" fill="#D6DBD9" fill-rule="evenodd"/><path d="M638.005 1607.49 622.871 1610.36C618.532 1611.18 614.365 1608.34 613.511 1604.01L610.641 1588.87C609.821 1584.53 612.657 1580.36 616.995 1579.51L632.129 1576.64C636.468 1575.82 640.635 1578.66 641.489 1583L644.359 1598.13C645.179 1602.47 642.344 1606.64 638.005 1607.49Z" stroke="#000000" stroke-width="3.4375" stroke-miterlimit="8" fill="#D6DBD9" fill-rule="evenodd"/><path d="M678.997 1600.4 663.868 1603.35C659.53 1604.2 655.364 1601.28 654.51 1596.81L651.641 1581.24C650.821 1576.77 653.656 1572.48 657.993 1571.6L673.123 1568.65C677.46 1567.8 681.627 1570.72 682.481 1575.19L685.35 1590.77C686.204 1595.23 683.335 1599.56 678.997 1600.4Z" stroke="#000000" stroke-width="3.4375" stroke-miterlimit="8" fill="#D6DBD9" fill-rule="evenodd"/><path d="M726.998 1588.49 711.868 1591.36C707.53 1592.18 703.364 1589.34 702.51 1585L699.641 1569.87C698.822 1565.53 701.656 1561.36 705.994 1560.51L721.123 1557.64C725.46 1556.82 729.627 1559.66 730.481 1564L733.35 1579.13C734.204 1583.5 731.335 1587.67 726.998 1588.49Z" stroke="#000000" stroke-width="3.4375" stroke-miterlimit="8" fill="#D6DBD9" fill-rule="evenodd"/><path d="M774.814 1579.49 759.235 1582.36C754.769 1583.18 750.479 1580.34 749.599 1576.01L746.645 1560.87C745.801 1556.53 748.72 1552.36 753.186 1551.51L768.765 1548.64C773.232 1547.82 777.522 1550.66 778.401 1555L781.355 1570.13C782.199 1574.5 779.28 1578.67 774.814 1579.49Z" stroke="#000000" stroke-width="3.4375" stroke-miterlimit="8" fill="#D6DBD9" fill-rule="evenodd"/><path d="M826.806 1431.49 811.232 1434.36C806.766 1435.18 802.477 1432.34 801.598 1428.01L798.645 1412.87C797.802 1408.53 800.719 1404.36 805.185 1403.51L820.759 1400.64C825.224 1399.82 829.513 1402.66 830.392 1407L833.345 1422.13C834.224 1426.47 831.271 1430.64 826.806 1431.49Z" stroke="#000000" stroke-width="3.4375" stroke-miterlimit="8" fill="#D6DBD9" fill-rule="evenodd"/><path d="M917.997 1414.49 902.868 1417.36C898.53 1418.18 894.364 1415.34 893.51 1411.01L890.641 1395.87C889.822 1391.53 892.656 1387.36 896.994 1386.51L912.123 1383.64C916.46 1382.82 920.627 1385.66 921.48 1390L924.349 1405.13C925.203 1409.47 922.334 1413.67 917.997 1414.49Z" stroke="#000000" stroke-width="3.4375" stroke-miterlimit="8" fill="#D6DBD9" fill-rule="evenodd"/><path d="M871.814 1423.49 856.235 1426.36C851.769 1427.18 847.479 1424.34 846.599 1420.01L843.645 1404.87C842.802 1400.53 845.72 1396.36 850.186 1395.51L865.765 1392.64C870.231 1391.82 874.522 1394.66 875.401 1399L878.355 1414.13C879.199 1418.47 876.28 1422.67 871.814 1423.49Z" stroke="#000000" stroke-width="3.4375" stroke-miterlimit="8" fill="#D6DBD9" fill-rule="evenodd"/><path d="M835.005 1475.49 819.871 1478.36C815.532 1479.18 811.365 1476.34 810.51 1472.01L807.641 1456.87C806.821 1452.53 809.657 1448.36 813.995 1447.51L829.129 1444.64C833.467 1443.82 837.635 1446.66 838.489 1451L841.359 1466.13C842.179 1470.47 839.343 1474.67 835.005 1475.49Z" stroke="#000000" stroke-width="3.4375" stroke-miterlimit="8" fill="#D6DBD9" fill-rule="evenodd"/><path d="M879.814 1465.49 864.235 1468.36C859.769 1469.18 855.479 1466.34 854.599 1462L851.645 1446.87C850.801 1442.53 853.72 1438.36 858.186 1437.51L873.765 1434.64C878.231 1433.82 882.522 1436.66 883.401 1441L886.355 1456.13C887.199 1460.47 884.28 1464.67 879.814 1465.49Z" stroke="#000000" stroke-width="3.4375" stroke-miterlimit="8" fill="#D6DBD9" fill-rule="evenodd"/><path d="M925.998 1457.4 910.868 1460.35C906.53 1461.2 902.364 1458.28 901.51 1453.81L898.641 1438.23C897.821 1433.77 900.656 1429.48 904.994 1428.6L920.123 1425.65C924.461 1424.8 928.627 1427.72 929.481 1432.19L932.35 1447.77C933.204 1452.27 930.335 1456.56 925.998 1457.4Z" stroke="#000000" stroke-width="3.4375" stroke-miterlimit="8" fill="#D6DBD9" fill-rule="evenodd"/><path d="M843.005 1519.4 827.871 1522.35C823.532 1523.2 819.365 1520.28 818.51 1515.81L815.641 1500.23C814.821 1495.77 817.656 1491.48 821.995 1490.6L837.129 1487.65C841.467 1486.8 845.635 1489.72 846.489 1494.19L849.359 1509.77C850.179 1514.27 847.343 1518.56 843.005 1519.4Z" stroke="#000000" stroke-width="3.4375" stroke-miterlimit="8" fill="#D6DBD9" fill-rule="evenodd"/><path d="M886.997 1506.49 871.868 1509.36C867.53 1510.18 863.364 1507.34 862.51 1503.01L859.641 1487.87C858.821 1483.53 861.656 1479.36 865.993 1478.51L881.123 1475.64C885.461 1474.82 889.627 1477.66 890.481 1482L893.35 1497.13C894.203 1501.5 891.335 1505.67 886.997 1506.49Z" stroke="#000000" stroke-width="3.4375" stroke-miterlimit="8" fill="#D6DBD9" fill-rule="evenodd"/><path d="M934.998 1498.49 919.868 1501.36C915.53 1502.18 911.364 1499.34 910.51 1495.01L907.641 1479.87C906.822 1475.53 909.656 1471.36 913.994 1470.51L929.123 1467.64C933.46 1466.82 937.627 1469.66 938.481 1474L941.35 1489.13C942.204 1493.47 939.335 1497.67 934.998 1498.49Z" stroke="#000000" stroke-width="3.4375" stroke-miterlimit="8" fill="#D6DBD9" fill-rule="evenodd"/><path d="M904.972 1550.09 835.917 1563.36C831.562 1564.19 827.379 1561.3 826.522 1556.88L823.642 1541.45C822.819 1537.03 825.665 1532.78 830.019 1531.91L899.074 1518.64C903.429 1517.81 907.612 1520.7 908.469 1525.12L911.349 1540.55C912.206 1545 909.326 1549.25 904.972 1550.09L904.972 1550.09Z" stroke="#000000" stroke-width="3.4375" stroke-miterlimit="8" fill="#D6DBD9" fill-rule="evenodd"/><path d="M943.806 1541.49 928.231 1544.36C923.766 1545.18 919.477 1542.34 918.598 1538.01L915.645 1522.87C914.801 1518.53 917.719 1514.36 922.184 1513.51L937.759 1510.64C942.224 1509.82 946.513 1512.66 947.392 1517L950.345 1532.13C951.224 1536.47 948.271 1540.67 943.806 1541.49Z" stroke="#000000" stroke-width="3.4375" stroke-miterlimit="8" fill="#D6DBD9" fill-rule="evenodd"/><path d="M153.441 1377.92C149.98 1387.06 167.286 1404.21 191.55 1428.22 194.805 1431.44 205.875 1442.18 222.119 1453.99 230.996 1460.43 238.295 1464.9 241.516 1466.88 250.255 1472.11 266.328 1482.05 287.645 1488.67 309.406 1495.39 325.137 1500.27 345.459 1496.91 353.41 1495.59 379.353 1491.33 385.625 1474.19 389.257 1464.28 384.733 1454.2 383.088 1450.49 360.196 1399.25 163.791 1350.41 153.407 1377.95L153.441 1377.92Z" fill="#5B5742" fill-rule="evenodd" fill-opacity="0.431373"/><path d="M129.845 1147.08C138.625 1132.09 144.014 1130.04 147.201 1130.58 154.746 1131.85 154.718 1148.6 168.328 1174.89 172.949 1183.82 177.063 1190.12 180.541 1195.45 204.087 1227.09 243.067 1274.8 270.132 1309.22 317.439 1361.81 329.872 1379.25 366.502 1423.14 369.216 1425.75 377.381 1433.5 380.537 1445.93 395.344 1522.9 234.744 1436.28 218.781 1425.61 186.734 1405.39 187.146 1398.97 135.307 1356.51 82.9191 1313.61 75.2 1314.19 70.5 1298.68 72.7987 1279.81 77.2448 1256.97 85.8525 1231.95 98.4985 1195.19 115.621 1166.83 129.845 1147.08Z" stroke="#000000" stroke-width="20.625" stroke-miterlimit="8" fill="#EBE2B3" fill-rule="evenodd"/><path d="M952.422 1503.03C975.557 1477.56 836.56 1322.78 791.263 1323 786.634 1323.03 773.688 1322.78 768.839 1330.49 765.053 1336.56 767.946 1344.79 770.094 1350.24 780.041 1375.64 792.826 1390.01 810.051 1415.09 822.867 1433.75 827.939 1442.13 840.594 1455.22 848.218 1463.09 854.826 1468.65 858.001 1471.21 862.794 1475.14 875.322 1484.97 888.41 1491.6 904.356 1499.72 942.527 1513.96 952.422 1503.03L952.422 1503.03Z" fill="#5B5742" fill-rule="evenodd" fill-opacity="0.431373"/><path d="M824.21 1166.97C822.433 1169.06 820.659 1171.12 818.889 1173.15 815.982 1177.08 811.153 1183.93 806.063 1192.96 788.338 1224.41 792.806 1234.38 779.337 1255.62 768.287 1273.05 765.476 1279.98 763.5 1290.87 773.518 1320.27 796.226 1373.55 846.893 1421.32 878.076 1450.71 909.761 1468.53 933.191 1479.18 956.067 1488.4 965.182 1485.89 969.292 1481.94 979.713 1471.95 964.504 1446.29 927.197 1351.18 919.343 1331.21 912.353 1312.7 898.31 1275.67 886.215 1243.83 880.142 1227.78 877.87 1220.67 871.859 1201.83 868.745 1189.07 860.222 1169.8 856.039 1160.34 855.767 1149.54 849.306 1147.76 843.435 1146.15 836.754 1152.31 833.08 1156.28 830.217 1159.82 827.262 1163.38 824.21 1166.97Z" stroke="#000000" stroke-width="20.625" stroke-miterlimit="8" fill="#EBE2B3" fill-rule="evenodd"/></g></svg>