<svg width="972" height="1259" xmlns="http://www.w3.org/2000/svg" xmlns:xlink="http://www.w3.org/1999/xlink" xml:space="preserve" overflow="hidden"><defs><clipPath id="clip0"><rect x="3423" y="988" width="972" height="1259"/></clipPath></defs><g clip-path="url(#clip0)" transform="translate(-3423 -988)"><path d="M3650.5 2015.5C3651.33 2030.72 3653.87 2039.38 3656.13 2044.54 3660.66 2054.92 3661.65 2057.67 3663.62 2063.17 3664.12 2064.55 3664.51 2065.67 3664.78 2066.47 3667.67 2074.8 3667.77 2076.42 3673.54 2096.25 3682.82 2128.09 3683.57 2127.4 3685.8 2138.31 3688.9 2153.31 3687.32 2153.68 3691.06 2175.09 3694.53 2194.89 3696.38 2204.91 3701.57 2211.87 3702.91 2213.66 3716.17 2230.92 3734.89 2229.41 3747.19 2228.41 3755.36 2219.8 3761.2 2213.62 3764.74 2209.92 3767.49 2206.11 3780.5 2178.59 3788.03 2162.71 3791.84 2154.57 3794.55 2147.06 3795.99 2143.08 3796.96 2139.89 3797.68 2137.11 3800.72 2125.39 3802.99 2116.92 3803.31 2115.53 3805.19 2107.34 3812.16 2091.68 3833.5 2059.3 3803.69 2051.55 3773.28 2043.94 3742.29 2036.53 3711.25 2029.09 3680.64 2022.09 3650.5 2015.5Z" stroke="#000000" stroke-width="20.625" stroke-miterlimit="8" fill="#EBE2B3" fill-rule="evenodd"/><path d="M4007.5 2075.93C4015.1 2093.31 4022.7 2113.07 4029.62 2135.07 4036.43 2156.8 4041.45 2177.15 4045.16 2195.67 4064.22 2242.74 4114.4 2231.15 4120.42 2181.6 4127.41 2159.8 4134.15 2136.56 4140.37 2111.93 4145.98 2089.76 4150.73 2068.38 4154.72 2047.96 4155.28 2043.31 4155.6 2038.17 4155.47 2032.6 4155.09 2015.88 4150.82 2002.14 4146.74 1992.5 4100.33 2020.31 4053.91 2048.12 4007.5 2075.93Z" stroke="#000000" stroke-width="20.625" stroke-miterlimit="8" fill="#EBE2B3" fill-rule="evenodd"/><path d="M3445.77 1626.54C3443.36 1616.88 3440.58 1602.28 3440.51 1584.41 3440.44 1565.4 3443.53 1560.18 3444.02 1544.06 3444.98 1512.13 3433.53 1510.31 3433.5 1482.64 3433.5 1449.79 3449.51 1424.01 3454.57 1415.97 3466.05 1397.58 3470.62 1400.19 3484.4 1379.12 3497.22 1359.53 3503.13 1342.21 3508.97 1324.72 3519.11 1294.37 3516.7 1288.29 3524.78 1259.8 3530.48 1239.66 3537.74 1213.98 3554.61 1187.83 3565.61 1170.78 3584.17 1154.25 3621.28 1121.16 3645.13 1099.88 3662.32 1086.17 3675.68 1075.51 3716.44 1043.07 3729.85 1036.13 3735.35 1033.38 3754.63 1023.82 3771.98 1015.2 3795.01 1015.82 3806.59 1016.13 3824.84 1017.26 3844.46 1017.09 3847.25 1017.05 3853.53 1017.09 3861.71 1016.57 3865.22 1016.33 3871.1 1015.89 3878.18 1014.92 3890.2 1013.31 3899.24 1011.18 3902.03 1010.52 3942.17 1001.24 3962.44 995.643 3981 1000.01 4003.31 1005.23 4018.29 1018.15 4031.9 1029.84 4040.53 1037.26 4052.38 1052.45 4075.79 1082.49 4101.8 1115.93 4107.82 1124.9 4123.18 1136.9 4138.54 1148.89 4140.47 1146.07 4151.26 1156.21 4165.62 1169.68 4171.02 1182.92 4184.59 1214.12 4210.54 1273.79 4208.41 1265.98 4210.92 1273.79 4213.46 1281.79 4214.9 1289.66 4218.17 1305.34 4222.29 1325.17 4223.5 1334.72 4228.48 1363.31 4232.36 1385.52 4234.19 1396.65 4235.49 1401.91 4244.29 1437.55 4257.52 1461.75 4261.82 1470.34 4281.92 1510.48 4279.89 1557.94 4275.87 1652.87 4273.43 1710.43 4272.09 1741.71 4258.31 1782.75 4251.2 1803.92 4247.93 1806.36 4230.23 1854.71 4215.25 1895.61 4212.77 1907.02 4200.4 1935.44 4186.66 1967.06 4179.78 1982.87 4165.31 2000.37 4159.2 2007.79 4144.93 2023.74 4107.4 2046.01 4076.2 2064.53 4041.08 2085.36 3989.83 2095.15 3915.95 2109.28 3854.22 2091.75 3830.13 2084.64 3815.11 2080.2 3810.03 2077.52 3780.99 2068.83 3767.02 2064.65 3755.9 2061.59 3746.47 2059.14 3709.13 2049.47 3706.37 2050.2 3687.99 2044.25 3676.6 2040.57 3668.94 2037.4 3655.14 2031.65 3628.7 2020.62 3605.6 2011 3587.95 2000.37 3544.28 1974.07 3521.71 1934.36 3512.48 1917.88 3505.6 1905.61 3496.19 1877.53 3477.39 1821.34 3464.98 1784.26 3458.69 1765.46 3456.32 1752.91 3451.71 1728.62 3450.31 1705.45 3447.56 1659.91 3446.66 1645.79 3446.11 1634.21 3445.77 1626.54Z" stroke="#000000" stroke-width="20.625" stroke-miterlimit="8" fill="#EBE2B3" fill-rule="evenodd"/><path d="M3690.11 1153.79 3703.26 1128.97 3821.17 1191.42 3808.02 1216.24Z" stroke="#000000" stroke-width="10.3143" stroke-miterlimit="8" fill="#595850" fill-rule="evenodd"/><path d="M3943.81 1185.99 4064.04 1128.12 4076.22 1153.43 3955.99 1211.3Z" stroke="#000000" stroke-width="10.3143" stroke-miterlimit="8" fill="#595850" fill-rule="evenodd"/><path d="M4146 2238C4146 2242.97 4041.23 2247 3912 2247 3782.77 2247 3678 2242.97 3678 2238 3678 2233.03 3782.77 2229 3912 2229 4041.23 2229 4146 2233.03 4146 2238Z" fill="#5B5742" fill-rule="evenodd" fill-opacity="0.470588"/><path d="M3789.5 1277C3789.5 1299.92 3770.92 1318.5 3748 1318.5 3725.08 1318.5 3706.5 1299.92 3706.5 1277 3706.5 1254.08 3725.08 1235.5 3748 1235.5 3770.92 1235.5 3789.5 1254.08 3789.5 1277Z" stroke="#000000" stroke-width="20.625" stroke-miterlimit="8" fill="#231815" fill-rule="evenodd"/><path d="M4063.5 1277C4063.5 1299.92 4044.92 1318.5 4022 1318.5 3999.08 1318.5 3980.5 1299.92 3980.5 1277 3980.5 1254.08 3999.08 1235.5 4022 1235.5 4044.92 1235.5 4063.5 1254.08 4063.5 1277Z" stroke="#000000" stroke-width="20.625" stroke-miterlimit="8" fill="#231815" fill-rule="evenodd"/><path d="M3772 1290C3772 1301.05 3763.05 1310 3752 1310 3740.95 1310 3732 1301.05 3732 1290 3732 1278.95 3740.95 1270 3752 1270 3763.05 1270 3772 1278.95 3772 1290Z" fill="#FFFFFF" fill-rule="evenodd"/><path d="M4042 1290C4042 1301.05 4032.82 1310 4021.5 1310 4010.18 1310 4001 1301.05 4001 1290 4001 1278.95 4010.18 1270 4021.5 1270 4032.82 1270 4042 1278.95 4042 1290Z" fill="#FFFFFF" fill-rule="evenodd"/><path d="M3968 1405C3968 1417.15 3934.2 1427 3892.5 1427 3850.8 1427 3817 1417.15 3817 1405 3817 1392.85 3850.8 1383 3892.5 1383 3934.2 1383 3968 1392.85 3968 1405Z" stroke="#000000" stroke-width="10.3125" stroke-miterlimit="8" fill="#E73A8F" fill-rule="evenodd"/><path d="M3527.44 1549.85C3523.97 1558.93 3541.35 1575.94 3565.71 1599.76 3568.98 1602.96 3580.1 1613.61 3596.41 1625.33 3605.33 1631.73 3612.66 1636.16 3615.89 1638.12 3624.67 1643.31 3640.81 1653.17 3662.22 1659.74 3684.07 1666.41 3699.87 1671.25 3720.28 1667.92 3728.27 1666.61 3754.32 1662.39 3760.62 1645.37 3764.27 1635.54 3759.72 1625.54 3758.07 1621.86 3735.08 1571.03 3537.84 1522.56 3527.41 1549.89L3527.44 1549.85Z" fill="#5B5742" fill-rule="evenodd" fill-opacity="0.431373"/><path d="M3504.04 1319.08C3512.84 1304.09 3518.25 1302.04 3521.45 1302.57 3529.02 1303.85 3528.99 1320.6 3542.64 1346.89 3547.28 1355.82 3551.41 1362.12 3554.9 1367.45 3578.52 1399.09 3617.62 1446.8 3644.77 1481.22 3692.23 1533.81 3704.71 1551.25 3741.45 1595.14 3744.18 1597.75 3752.37 1605.5 3755.53 1617.93 3770.39 1694.9 3609.27 1608.28 3593.26 1597.61 3561.11 1577.39 3561.52 1570.97 3509.52 1528.51 3456.96 1485.61 3449.21 1486.19 3444.5 1470.68 3446.81 1451.81 3451.27 1428.97 3459.9 1403.95 3472.59 1367.19 3489.77 1338.83 3504.04 1319.08Z" stroke="#000000" stroke-width="20.625" stroke-miterlimit="8" fill="#EBE2B3" fill-rule="evenodd"/><path d="M4370.6 1646.03C4388.82 1616.88 4224.14 1490.04 4179.56 1498.39 4175.01 1499.26 4162.21 1501.34 4158.82 1509.77 4156.18 1516.4 4160.51 1523.95 4163.6 1528.91 4177.95 1552.04 4193.13 1563.83 4214.59 1585.35 4230.56 1601.35 4237.06 1608.66 4251.87 1619.22 4260.79 1625.57 4268.3 1629.83 4271.89 1631.77 4277.32 1634.77 4291.42 1642.16 4305.5 1646.32 4322.66 1651.41 4362.81 1658.52 4370.6 1646.03L4370.6 1646.03Z" fill="#5B5742" fill-rule="evenodd" fill-opacity="0.431373"/><path d="M4183 1337.99C4181.63 1340.37 4180.25 1342.72 4178.87 1345.04 4176.71 1349.44 4173.19 1357.06 4169.8 1366.89 4158 1401.09 4164.2 1410.11 4154.75 1433.49 4147.01 1452.66 4145.49 1460.01 4145.5 1471.1 4160.66 1498.29 4192.62 1546.74 4251.13 1584.72 4287.13 1608.08 4321.55 1619.95 4346.55 1626.24 4370.74 1631.21 4379.27 1627.1 4382.61 1622.46 4391.07 1610.73 4371.47 1588.16 4317.6 1501.09 4306.27 1482.81 4296.06 1465.82 4275.55 1431.84 4257.91 1402.61 4249.04 1387.88 4245.52 1381.28 4236.21 1363.79 4230.84 1351.76 4218.98 1334.29 4213.16 1325.72 4210.94 1315.11 4204.26 1314.53 4198.19 1313.99 4192.71 1321.27 4189.81 1325.85 4187.63 1329.85 4185.36 1333.9 4183 1337.99Z" stroke="#000000" stroke-width="20.625" stroke-miterlimit="8" fill="#EBE2B3" fill-rule="evenodd"/></g></svg>