<svg width="1645" height="1259" xmlns="http://www.w3.org/2000/svg" xmlns:xlink="http://www.w3.org/1999/xlink" xml:space="preserve" overflow="hidden"><defs><clipPath id="clip0"><rect x="1712" y="889" width="1645" height="1259"/></clipPath></defs><g clip-path="url(#clip0)" transform="translate(-1712 -889)"><path d="M1940.5 1915.5C1941.33 1930.72 1943.87 1939.38 1946.13 1944.54 1950.66 1954.92 1951.65 1957.67 1953.62 1963.17 1954.12 1964.55 1954.51 1965.67 1954.78 1966.46 1957.67 1974.8 1957.77 1976.42 1963.54 1996.25 1972.82 2028.09 1973.57 2027.4 1975.8 2038.31 1978.89 2053.31 1977.32 2053.68 1981.06 2075.09 1984.53 2094.89 1986.38 2104.91 1991.57 2111.87 1992.91 2113.66 2006.17 2130.92 2024.89 2129.41 2037.19 2128.41 2045.36 2119.8 2051.2 2113.62 2054.74 2109.92 2057.48 2106.11 2070.5 2078.59 2078.03 2062.71 2081.84 2054.57 2084.55 2047.06 2085.99 2043.08 2086.96 2039.89 2087.68 2037.11 2090.72 2025.39 2092.99 2016.92 2093.31 2015.53 2095.19 2007.34 2102.16 1991.68 2123.5 1959.3 2093.69 1951.55 2063.28 1943.94 2032.29 1936.53 2001.25 1929.09 1970.64 1922.09 1940.5 1915.5Z" stroke="#000000" stroke-width="20.625" stroke-miterlimit="8" fill="#EBE2B3" fill-rule="evenodd"/><path d="M2297.5 1976.57C2305.1 1993.88 2312.7 2013.55 2319.62 2035.46 2326.43 2057.09 2331.45 2077.35 2335.16 2095.79 2354.22 2142.67 2404.4 2131.13 2410.42 2081.78 2417.41 2060.08 2424.15 2036.94 2430.37 2012.42 2435.98 1990.34 2440.73 1969.05 2444.72 1948.72 2445.28 1944.09 2445.6 1938.97 2445.47 1933.43 2445.09 1916.77 2440.82 1903.09 2436.74 1893.5 2390.33 1921.19 2343.91 1948.88 2297.5 1976.57Z" stroke="#000000" stroke-width="20.625" stroke-miterlimit="8" fill="#EBE2B3" fill-rule="evenodd"/><path d="M1734.78 1527.54C1732.38 1517.88 1729.59 1503.28 1729.52 1485.41 1729.45 1466.4 1732.55 1461.18 1733.03 1445.06 1733.99 1413.13 1722.53 1411.31 1722.5 1383.64 1722.5 1350.79 1738.53 1325.01 1743.59 1316.97 1755.08 1298.58 1759.66 1301.19 1773.46 1280.12 1786.29 1260.53 1792.21 1243.21 1798.06 1225.72 1808.21 1195.37 1805.8 1189.29 1813.89 1160.8 1819.6 1140.66 1826.86 1114.98 1843.75 1088.83 1854.76 1071.78 1873.34 1055.25 1910.5 1022.16 1934.38 1000.88 1951.59 987.169 1964.97 976.515 2005.78 944.071 2019.2 937.129 2024.7 934.379 2044.01 924.825 2061.38 916.199 2084.44 916.817 2096.03 917.126 2114.3 918.261 2133.95 918.089 2136.74 918.054 2143.03 918.089 2151.22 917.573 2154.73 917.333 2160.61 916.886 2167.7 915.924 2179.74 914.308 2188.79 912.177 2191.58 911.525 2231.77 902.245 2252.07 896.643 2270.65 901.008 2292.98 906.232 2307.98 919.154 2321.61 930.839 2330.24 938.263 2342.12 953.454 2365.55 983.492 2391.59 1016.93 2397.61 1025.9 2413 1037.9 2428.38 1049.89 2430.3 1047.07 2441.11 1057.21 2455.49 1070.68 2460.89 1083.92 2474.48 1115.12 2500.46 1174.79 2498.33 1166.98 2500.84 1174.79 2503.38 1182.79 2504.83 1190.66 2508.1 1206.34 2512.23 1226.17 2513.43 1235.72 2518.42 1264.31 2522.31 1286.52 2524.13 1297.65 2525.44 1302.91 2534.25 1338.55 2547.5 1362.75 2551.8 1371.34 2571.92 1411.48 2569.89 1458.94 2565.87 1553.87 2563.43 1611.43 2562.08 1642.71 2548.29 1683.75 2541.16 1704.92 2537.9 1707.36 2520.18 1755.71 2505.17 1796.61 2502.7 1808.02 2490.31 1836.44 2476.55 1868.06 2469.67 1883.87 2455.18 1901.37 2449.05 1908.79 2434.78 1924.74 2397.2 1947.01 2365.96 1965.53 2330.8 1986.36 2279.49 1996.15 2205.52 2010.28 2143.72 1992.75 2119.6 1985.64 2104.56 1981.2 2099.47 1978.52 2070.4 1969.83 2056.41 1965.65 2045.29 1962.59 2035.84 1960.14 1998.46 1950.47 1995.69 1951.2 1977.29 1945.25 1965.88 1941.57 1958.22 1938.4 1944.41 1932.65 1917.93 1921.62 1894.8 1912 1877.13 1901.37 1833.41 1875.07 1810.81 1835.36 1801.57 1818.88 1794.69 1806.61 1785.26 1778.53 1766.44 1722.34 1754.02 1685.26 1747.72 1666.46 1745.35 1653.91 1740.74 1629.62 1739.33 1606.45 1736.57 1560.91 1735.68 1546.79 1735.13 1535.21 1734.78 1527.54Z" stroke="#000000" stroke-width="20.625" stroke-miterlimit="8" fill="#EBE2B3" fill-rule="evenodd"/><path d="M1979.85 1054.26 1992.99 1029.44 2110.9 1091.89 2097.75 1116.71Z" stroke="#000000" stroke-width="10.3139" stroke-miterlimit="8" fill="#595850" fill-rule="evenodd"/><path d="M2233.53 1086.42 2353.75 1028.56 2365.93 1053.87 2245.71 1111.73Z" stroke="#000000" stroke-width="10.3139" stroke-miterlimit="8" fill="#595850" fill-rule="evenodd"/><path d="M2435 2138.5C2435 2143.75 2330.46 2148 2201.5 2148 2072.54 2148 1968 2143.75 1968 2138.5 1968 2133.25 2072.54 2129 2201.5 2129 2330.46 2129 2435 2133.25 2435 2138.5Z" fill="#5B5742" fill-rule="evenodd" fill-opacity="0.470588"/><path d="M2079.5 1177.5C2079.5 1200.7 2060.7 1219.5 2037.5 1219.5 2014.3 1219.5 1995.5 1200.7 1995.5 1177.5 1995.5 1154.3 2014.3 1135.5 2037.5 1135.5 2060.7 1135.5 2079.5 1154.3 2079.5 1177.5Z" stroke="#000000" stroke-width="20.625" stroke-miterlimit="8" fill="#231815" fill-rule="evenodd"/><path d="M2353.5 1177.5C2353.5 1200.7 2334.92 1219.5 2312 1219.5 2289.08 1219.5 2270.5 1200.7 2270.5 1177.5 2270.5 1154.3 2289.08 1135.5 2312 1135.5 2334.92 1135.5 2353.5 1154.3 2353.5 1177.5Z" stroke="#000000" stroke-width="20.625" stroke-miterlimit="8" fill="#231815" fill-rule="evenodd"/><path d="M2062 1191C2062 1202.05 2053.05 1211 2042 1211 2030.95 1211 2022 1202.05 2022 1191 2022 1179.95 2030.95 1171 2042 1171 2053.05 1171 2062 1179.95 2062 1191Z" fill="#FFFFFF" fill-rule="evenodd"/><path d="M2331 1191C2331 1202.05 2322.05 1211 2311 1211 2299.95 1211 2291 1202.05 2291 1191 2291 1179.95 2299.95 1171 2311 1171 2322.05 1171 2331 1179.95 2331 1191Z" fill="#FFFFFF" fill-rule="evenodd"/><path d="M2257 1306C2257 1318.15 2223.42 1328 2182 1328 2140.58 1328 2107 1318.15 2107 1306 2107 1293.85 2140.58 1284 2182 1284 2223.42 1284 2257 1293.85 2257 1306Z" stroke="#000000" stroke-width="10.3125" stroke-miterlimit="8" fill="#E73A8F" fill-rule="evenodd"/><path d="M3344.02 1193.47 2994.57 2036.45C2987.7 2053.03 2968.7 2060.88 2952.15 2054.02L2722.55 1958.91C2705.97 1952.04 2698.12 1933.05 2704.98 1916.5L3054.41 1073.55C3061.29 1056.97 3080.29 1049.12 3096.83 1055.98L3326.43 1151.09C3343 1157.92 3350.88 1176.92 3344.02 1193.47L3344.02 1193.47Z" stroke="#000000" stroke-width="20.625" stroke-miterlimit="8" fill="#A6A897" fill-rule="evenodd"/><path d="M2868.88 1721.53 2857.57 1748.53C2855.85 1752.63 2851.13 1754.57 2846.97 1752.9L2832.52 1746.97C2828.38 1745.27 2826.42 1740.59 2828.11 1736.47L2839.41 1709.47C2841.13 1705.37 2845.86 1703.43 2850.02 1705.1L2864.47 1711.03C2868.63 1712.75 2870.6 1717.43 2868.88 1721.53Z" stroke="#000000" stroke-width="3.4375" stroke-miterlimit="8" fill="#D6DBD9" fill-rule="evenodd"/><path d="M2921.88 1592.53 2910.57 1619.53C2908.86 1623.63 2904.13 1625.57 2899.97 1623.9L2885.52 1617.97C2881.38 1616.27 2879.42 1611.59 2881.11 1607.47L2892.42 1580.47C2894.13 1576.37 2898.86 1574.43 2903.02 1576.1L2917.47 1582.03C2921.61 1583.72 2923.6 1588.42 2921.88 1592.53Z" stroke="#000000" stroke-width="3.4375" stroke-miterlimit="8" fill="#D6DBD9" fill-rule="evenodd"/><path d="M2796.88 1894.53 2785.57 1921.53C2783.86 1925.63 2779.13 1927.57 2774.97 1925.9L2760.52 1919.97C2756.38 1918.27 2754.42 1913.59 2756.11 1909.47L2767.41 1882.47C2769.13 1878.37 2773.86 1876.43 2778.02 1878.1L2792.47 1884.03C2796.63 1885.7 2798.6 1890.43 2796.88 1894.53Z" stroke="#000000" stroke-width="3.4375" stroke-miterlimit="8" fill="#D6DBD9" fill-rule="evenodd"/><path d="M2819.89 1837.53 2808.85 1864.53C2807.18 1868.63 2802.56 1870.57 2798.5 1868.9L2784.4 1862.97C2780.36 1861.27 2778.44 1856.59 2780.09 1852.47L2791.13 1825.47C2792.8 1821.37 2797.42 1819.43 2801.48 1821.1L2815.58 1827.03C2819.67 1828.72 2821.57 1833.43 2819.89 1837.53Z" stroke="#000000" stroke-width="3.4375" stroke-miterlimit="8" fill="#D6DBD9" fill-rule="evenodd"/><path d="M3014.89 1368.53 3003.58 1395.53C3001.86 1399.63 2997.13 1401.57 2992.97 1399.9L2978.52 1393.97C2974.38 1392.27 2972.42 1387.59 2974.11 1383.47L2985.42 1356.47C2987.13 1352.37 2991.86 1350.43 2996.02 1352.1L3010.48 1358.03C3014.64 1359.7 3016.58 1364.41 3014.89 1368.53Z" stroke="#000000" stroke-width="3.4375" stroke-miterlimit="8" fill="#D6DBD9" fill-rule="evenodd"/><path d="M2844.88 1778.53 2833.57 1805.53C2831.86 1809.63 2827.13 1811.57 2822.97 1809.9L2808.52 1803.97C2804.38 1802.27 2802.42 1797.59 2804.11 1793.47L2815.41 1766.47C2817.13 1762.37 2821.86 1760.43 2826.02 1762.1L2840.47 1768.03C2844.63 1769.7 2846.6 1774.43 2844.88 1778.53Z" stroke="#000000" stroke-width="3.4375" stroke-miterlimit="8" fill="#D6DBD9" fill-rule="evenodd"/><path d="M2945.88 1535.53 2934.57 1562.53C2932.86 1566.63 2928.13 1568.57 2923.97 1566.9L2909.52 1560.97C2905.38 1559.27 2903.42 1554.59 2905.11 1550.47L2916.41 1523.47C2918.13 1519.37 2922.86 1517.43 2927.02 1519.1L2941.47 1525.03C2945.61 1526.73 2947.6 1531.43 2945.88 1535.53Z" stroke="#000000" stroke-width="3.4375" stroke-miterlimit="8" fill="#D6DBD9" fill-rule="evenodd"/><path d="M2968.88 1479.53 2957.57 1506.53C2955.85 1510.63 2951.13 1512.57 2946.97 1510.9L2932.52 1504.97C2928.38 1503.27 2926.42 1498.59 2928.11 1494.47L2939.41 1467.47C2941.13 1463.37 2945.86 1461.43 2950.02 1463.1L2964.47 1469.03C2968.63 1470.74 2970.6 1475.43 2968.88 1479.53Z" stroke="#000000" stroke-width="3.4375" stroke-miterlimit="8" fill="#D6DBD9" fill-rule="evenodd"/><path d="M2991.88 1424.53 2980.57 1451.53C2978.86 1455.63 2974.13 1457.57 2969.97 1455.9L2955.52 1449.97C2951.38 1448.27 2949.42 1443.59 2951.11 1439.47L2962.41 1412.47C2964.13 1408.37 2968.86 1406.43 2973.02 1408.1L2987.47 1414.03C2991.62 1415.7 2993.6 1420.43 2991.88 1424.53Z" stroke="#000000" stroke-width="3.4375" stroke-miterlimit="8" fill="#D6DBD9" fill-rule="evenodd"/><path d="M2894.89 1657.53 2883.85 1684.53C2882.18 1688.63 2877.56 1690.57 2873.5 1688.9L2859.4 1682.97C2855.36 1681.27 2853.44 1676.59 2855.09 1672.47L2866.13 1645.47C2867.81 1641.37 2872.42 1639.43 2876.48 1641.1L2890.58 1647.03C2894.67 1648.71 2896.57 1653.43 2894.89 1657.53Z" stroke="#000000" stroke-width="3.4375" stroke-miterlimit="8" fill="#D6DBD9" fill-rule="evenodd"/><path d="M3039.88 1303.53 3028.57 1330.53C3026.86 1334.63 3022.13 1336.57 3017.97 1334.9L3003.52 1328.97C2999.38 1327.27 2997.42 1322.59 2999.11 1318.47L3010.41 1291.47C3012.13 1287.37 3016.86 1285.43 3021.02 1287.1L3035.47 1293.03C3039.63 1294.7 3041.6 1299.43 3039.88 1303.53Z" stroke="#000000" stroke-width="3.4375" stroke-miterlimit="8" fill="#D6DBD9" fill-rule="evenodd"/><path d="M2849.87 1885.54 2826.73 1940.53C2825.01 1944.63 2820.25 1946.57 2816.07 1944.9L2801.55 1938.97C2797.38 1937.27 2795.41 1932.59 2797.11 1928.47L2820.25 1873.47C2821.97 1869.37 2826.73 1867.43 2830.91 1869.1L2845.44 1875.03C2849.65 1876.72 2851.6 1881.43 2849.87 1885.54Z" stroke="#000000" stroke-width="3.4375" stroke-miterlimit="8" fill="#D6DBD9" fill-rule="evenodd"/><path d="M2868.89 1838.85 2863.02 1853.44C2861.33 1857.62 2856.69 1859.59 2852.61 1857.89L2838.43 1851.85C2834.36 1850.12 2832.44 1845.35 2834.09 1841.15L2839.97 1826.56C2841.65 1822.38 2846.29 1820.41 2850.38 1822.11L2864.56 1828.15C2868.65 1829.9 2870.58 1834.68 2868.89 1838.85Z" stroke="#000000" stroke-width="3.4375" stroke-miterlimit="8" fill="#D6DBD9" fill-rule="evenodd"/><path d="M2885.89 1797.38 2880.02 1811.57C2878.33 1815.64 2873.69 1817.56 2869.61 1815.91L2855.43 1810.03C2851.36 1808.34 2849.44 1803.7 2851.09 1799.62L2856.97 1785.43C2858.65 1781.36 2863.29 1779.44 2867.38 1781.1L2881.56 1786.97C2885.64 1788.63 2887.58 1793.32 2885.89 1797.38Z" stroke="#000000" stroke-width="3.4375" stroke-miterlimit="8" fill="#D6DBD9" fill-rule="evenodd"/><path d="M2904.87 1752.38 2898.84 1766.57C2897.11 1770.64 2892.34 1772.56 2888.14 1770.91L2873.56 1765.03C2869.38 1763.34 2867.41 1758.7 2869.11 1754.62L2875.15 1740.43C2876.88 1736.36 2881.65 1734.44 2885.85 1736.1L2900.42 1741.97C2904.62 1743.63 2906.61 1748.32 2904.87 1752.38Z" stroke="#000000" stroke-width="3.4375" stroke-miterlimit="8" fill="#D6DBD9" fill-rule="evenodd"/><path d="M2921.89 1710.38 2916.02 1724.57C2914.33 1728.64 2909.69 1730.56 2905.61 1728.9L2891.43 1723.03C2887.36 1721.34 2885.44 1716.7 2887.09 1712.62L2892.97 1698.43C2894.65 1694.36 2899.29 1692.44 2903.38 1694.1L2917.56 1699.97C2921.65 1701.68 2923.58 1706.32 2921.89 1710.38L2921.89 1710.38Z" stroke="#000000" stroke-width="3.4375" stroke-miterlimit="8" fill="#D6DBD9" fill-rule="evenodd"/><path d="M2942.89 1660.38 2937.02 1674.57C2935.33 1678.64 2930.69 1680.56 2926.61 1678.91L2912.43 1673.03C2908.36 1671.34 2906.44 1666.7 2908.09 1662.62L2913.97 1648.43C2915.65 1644.36 2920.29 1642.44 2924.38 1644.09L2938.56 1649.97C2942.64 1651.63 2944.58 1656.32 2942.89 1660.38Z" stroke="#000000" stroke-width="3.4375" stroke-miterlimit="8" fill="#D6DBD9" fill-rule="evenodd"/><path d="M2960.87 1618.85 2954.84 1633.44C2953.1 1637.62 2948.33 1639.59 2944.14 1637.89L2929.56 1631.85C2925.38 1630.12 2923.41 1625.35 2925.11 1621.15L2931.15 1606.56C2932.88 1602.38 2937.65 1600.41 2941.84 1602.11L2956.42 1608.15C2960.64 1609.87 2962.6 1614.67 2960.87 1618.85Z" stroke="#000000" stroke-width="3.4375" stroke-miterlimit="8" fill="#D6DBD9" fill-rule="evenodd"/><path d="M2978.89 1574.38 2973.02 1588.57C2971.33 1592.64 2966.69 1594.56 2962.61 1592.91L2948.43 1587.03C2944.36 1585.34 2942.44 1580.7 2944.09 1576.62L2949.97 1562.43C2951.65 1558.36 2956.29 1556.44 2960.38 1558.09L2974.56 1563.97C2978.65 1565.67 2980.58 1570.32 2978.89 1574.38Z" stroke="#000000" stroke-width="3.4375" stroke-miterlimit="8" fill="#D6DBD9" fill-rule="evenodd"/><path d="M2994.89 1534.38 2989.02 1548.57C2987.33 1552.64 2982.69 1554.56 2978.61 1552.9L2964.43 1547.03C2960.36 1545.34 2958.44 1540.7 2960.09 1536.62L2965.97 1522.43C2967.65 1518.36 2972.29 1516.44 2976.38 1518.1L2990.56 1523.97C2994.63 1525.66 2996.58 1530.32 2994.89 1534.38Z" stroke="#000000" stroke-width="3.4375" stroke-miterlimit="8" fill="#D6DBD9" fill-rule="evenodd"/><path d="M3013.89 1489.38 3008.02 1503.57C3006.33 1507.64 3001.69 1509.56 2997.61 1507.91L2983.43 1502.03C2979.36 1500.34 2977.44 1495.7 2979.09 1491.62L2984.97 1477.43C2986.65 1473.36 2991.29 1471.44 2995.38 1473.1L3009.56 1478.97C3013.62 1480.66 3015.58 1485.32 3013.89 1489.38Z" stroke="#000000" stroke-width="3.4375" stroke-miterlimit="8" fill="#D6DBD9" fill-rule="evenodd"/><path d="M3030.89 1447.38 3025.02 1461.57C3023.33 1465.64 3018.69 1467.56 3014.61 1465.9L3000.43 1460.03C2996.36 1458.34 2994.44 1453.7 2996.09 1449.62L3001.97 1435.43C3003.65 1431.36 3008.29 1429.44 3012.38 1431.09L3026.56 1436.97C3030.64 1438.63 3032.58 1443.32 3030.89 1447.38Z" stroke="#000000" stroke-width="3.4375" stroke-miterlimit="8" fill="#D6DBD9" fill-rule="evenodd"/><path d="M3049.87 1402.85 3043.84 1417.44C3042.1 1421.62 3037.33 1423.59 3033.14 1421.89L3018.56 1415.85C3014.38 1414.12 3012.41 1409.35 3014.11 1405.15L3020.15 1390.56C3021.88 1386.38 3026.65 1384.41 3030.84 1386.11L3045.42 1392.15C3049.64 1393.87 3051.6 1398.67 3049.87 1402.85Z" stroke="#000000" stroke-width="3.4375" stroke-miterlimit="8" fill="#D6DBD9" fill-rule="evenodd"/><path d="M3066.89 1360.85 3061.02 1375.44C3059.33 1379.62 3054.69 1381.59 3050.61 1379.89L3036.43 1373.85C3032.36 1372.12 3030.44 1367.35 3032.09 1363.15L3037.97 1348.56C3039.65 1344.38 3044.29 1342.41 3048.38 1344.11L3062.56 1350.15C3066.65 1351.9 3068.58 1356.68 3066.89 1360.85Z" stroke="#000000" stroke-width="3.4375" stroke-miterlimit="8" fill="#D6DBD9" fill-rule="evenodd"/><path d="M3083.87 1322.38 3077.83 1336.57C3076.1 1340.64 3071.33 1342.56 3067.14 1340.91L3052.56 1335.03C3048.38 1333.34 3046.41 1328.7 3048.11 1324.62L3054.15 1310.43C3055.88 1306.36 3060.65 1304.44 3064.84 1306.1L3079.42 1311.97C3083.64 1313.65 3085.6 1318.32 3083.87 1322.38Z" stroke="#000000" stroke-width="3.4375" stroke-miterlimit="8" fill="#D6DBD9" fill-rule="evenodd"/><path d="M2935.89 1797.85 2930.02 1812.44C2928.34 1816.62 2923.69 1818.59 2919.61 1816.89L2905.43 1810.85C2901.36 1809.12 2899.44 1804.35 2901.09 1800.15L2906.97 1785.56C2908.65 1781.38 2913.3 1779.41 2917.38 1781.11L2931.56 1787.15C2935.63 1788.88 2937.58 1793.67 2935.89 1797.85Z" stroke="#000000" stroke-width="3.4375" stroke-miterlimit="8" fill="#D6DBD9" fill-rule="evenodd"/><path d="M2955.89 1751.38 2950.02 1765.57C2948.33 1769.64 2943.69 1771.56 2939.61 1769.91L2925.43 1764.03C2921.36 1762.34 2919.44 1757.7 2921.09 1753.62L2926.97 1739.43C2928.65 1735.36 2933.29 1733.44 2937.38 1735.1L2951.56 1740.97C2955.63 1742.66 2957.58 1747.32 2955.89 1751.38Z" stroke="#000000" stroke-width="3.4375" stroke-miterlimit="8" fill="#D6DBD9" fill-rule="evenodd"/><path d="M2973.89 1707.85 2968.02 1722.44C2966.33 1726.62 2961.69 1728.59 2957.61 1726.89L2943.43 1720.85C2939.36 1719.12 2937.44 1714.35 2939.09 1710.15L2944.97 1695.56C2946.65 1691.38 2951.29 1689.41 2955.38 1691.11L2969.56 1697.15C2973.64 1698.86 2975.58 1703.67 2973.89 1707.85Z" stroke="#000000" stroke-width="3.4375" stroke-miterlimit="8" fill="#D6DBD9" fill-rule="evenodd"/><path d="M2991.87 1664.38 2985.84 1678.57C2984.1 1682.64 2979.34 1684.56 2975.14 1682.91L2960.56 1677.03C2956.38 1675.34 2954.41 1670.7 2956.11 1666.62L2962.15 1652.43C2963.88 1648.36 2968.65 1646.44 2972.84 1648.1L2987.42 1653.97C2991.63 1655.68 2993.61 1660.32 2991.87 1664.38Z" stroke="#000000" stroke-width="3.4375" stroke-miterlimit="8" fill="#D6DBD9" fill-rule="evenodd"/><path d="M3010.87 1618.38 3004.84 1632.57C3003.11 1636.64 2998.34 1638.56 2994.14 1636.91L2979.56 1631.03C2975.38 1629.34 2973.41 1624.7 2975.11 1620.62L2981.15 1606.43C2982.88 1602.36 2987.65 1600.44 2991.85 1602.09L3006.42 1607.97C3010.62 1609.63 3012.61 1614.32 3010.87 1618.38Z" stroke="#000000" stroke-width="3.4375" stroke-miterlimit="8" fill="#D6DBD9" fill-rule="evenodd"/><path d="M3028.89 1573.85 3023.02 1588.44C3021.33 1592.62 3016.69 1594.59 3012.61 1592.89L2998.43 1586.85C2994.36 1585.12 2992.44 1580.35 2994.09 1576.15L2999.97 1561.56C3001.65 1557.38 3006.29 1555.41 3010.38 1557.11L3024.56 1563.15C3028.64 1564.85 3030.58 1569.67 3028.89 1573.85Z" stroke="#000000" stroke-width="3.4375" stroke-miterlimit="8" fill="#D6DBD9" fill-rule="evenodd"/><path d="M3041.87 1535.38 3035.84 1549.57C3034.1 1553.64 3029.33 1555.56 3025.14 1553.91L3010.56 1548.03C3006.38 1546.34 3004.41 1541.7 3006.11 1537.62L3012.15 1523.43C3013.88 1519.36 3018.65 1517.44 3022.84 1519.09L3037.42 1524.97C3041.64 1526.64 3043.6 1531.32 3041.87 1535.38Z" stroke="#000000" stroke-width="3.4375" stroke-miterlimit="8" fill="#D6DBD9" fill-rule="evenodd"/><path d="M3059.89 1489.38 3054.02 1503.57C3052.33 1507.64 3047.69 1509.56 3043.61 1507.91L3029.43 1502.03C3025.36 1500.34 3023.44 1495.7 3025.09 1491.62L3030.97 1477.43C3032.65 1473.36 3037.29 1471.44 3041.38 1473.1L3055.56 1478.97C3059.67 1480.65 3061.57 1485.32 3059.89 1489.38Z" stroke="#000000" stroke-width="3.4375" stroke-miterlimit="8" fill="#D6DBD9" fill-rule="evenodd"/><path d="M3077.87 1447.85 3071.84 1462.44C3070.1 1466.62 3065.33 1468.59 3061.14 1466.89L3046.56 1460.85C3042.38 1459.12 3040.41 1454.35 3042.11 1450.15L3048.15 1435.56C3049.88 1431.38 3054.65 1429.41 3058.84 1431.11L3073.42 1437.15C3077.63 1438.9 3079.61 1443.67 3077.87 1447.85Z" stroke="#000000" stroke-width="3.4375" stroke-miterlimit="8" fill="#D6DBD9" fill-rule="evenodd"/><path d="M3095.89 1403.38 3090.02 1417.57C3088.33 1421.64 3083.69 1423.56 3079.61 1421.9L3065.43 1416.03C3061.36 1414.34 3059.44 1409.7 3061.09 1405.62L3066.97 1391.43C3068.65 1387.36 3073.29 1385.44 3077.38 1387.09L3091.56 1392.97C3095.63 1394.66 3097.58 1399.32 3095.89 1403.38Z" stroke="#000000" stroke-width="3.4375" stroke-miterlimit="8" fill="#D6DBD9" fill-rule="evenodd"/><path d="M2900.89 1884.56 2870.29 1958.52C2868.58 1962.63 2863.9 1964.57 2859.78 1962.9L2845.47 1956.96C2841.37 1955.26 2839.43 1950.57 2841.1 1946.44L2871.7 1872.48C2873.4 1868.37 2878.08 1866.43 2882.2 1868.1L2896.52 1874.04C2900.64 1875.71 2902.59 1880.45 2900.89 1884.56Z" stroke="#000000" stroke-width="3.4375" stroke-miterlimit="8" fill="#D6DBD9" fill-rule="evenodd"/><path d="M2971.89 1838.38 2966.02 1852.57C2964.33 1856.64 2959.69 1858.56 2955.61 1856.91L2941.43 1851.03C2937.36 1849.34 2935.44 1844.7 2937.09 1840.62L2942.97 1826.43C2944.65 1822.36 2949.29 1820.44 2953.38 1822.09L2967.56 1827.97C2971.63 1829.65 2973.58 1834.32 2971.89 1838.38Z" stroke="#000000" stroke-width="3.4375" stroke-miterlimit="8" fill="#D6DBD9" fill-rule="evenodd"/><path d="M2916.89 1843.38 2911.02 1857.57C2909.33 1861.64 2904.69 1863.56 2900.61 1861.9L2886.43 1856.03C2882.36 1854.34 2880.44 1849.7 2882.09 1845.62L2887.97 1831.43C2889.65 1827.36 2894.29 1825.44 2898.38 1827.09L2912.56 1832.97C2916.64 1834.63 2918.58 1839.32 2916.89 1843.38Z" stroke="#000000" stroke-width="3.4375" stroke-miterlimit="8" fill="#D6DBD9" fill-rule="evenodd"/><path d="M3121.88 1344.42 3107.24 1379.56C3105.54 1383.64 3100.86 1385.57 3096.75 1383.9L3082.46 1378.02C3078.37 1376.33 3076.43 1371.67 3078.1 1367.58L3092.75 1332.44C3094.44 1328.36 3099.12 1326.43 3103.23 1328.1L3117.52 1333.99C3121.64 1335.7 3123.59 1340.35 3121.88 1344.42L3121.88 1344.42Z" stroke="#000000" stroke-width="3.4375" stroke-miterlimit="8" fill="#D6DBD9" fill-rule="evenodd"/><path d="M2951.89 1882.62 2913.25 1976.5C2911.55 1980.63 2906.87 1982.58 2902.76 1980.9L2888.46 1974.94C2884.37 1973.23 2882.43 1968.52 2884.1 1964.38L2922.74 1870.5C2924.44 1866.37 2929.12 1864.42 2933.23 1866.1L2947.52 1872.06C2951.62 1873.77 2953.59 1878.49 2951.89 1882.62Z" stroke="#000000" stroke-width="3.4375" stroke-miterlimit="8" fill="#D6DBD9" fill-rule="evenodd"/><path d="M2988.89 1792.85 2983.02 1807.44C2981.33 1811.62 2976.69 1813.59 2972.61 1811.89L2958.43 1805.85C2954.36 1804.12 2952.44 1799.35 2954.09 1795.15L2959.97 1780.56C2961.65 1776.38 2966.29 1774.41 2970.38 1776.11L2984.56 1782.15C2988.64 1783.85 2990.58 1788.67 2988.89 1792.85Z" stroke="#000000" stroke-width="3.4375" stroke-miterlimit="8" fill="#D6DBD9" fill-rule="evenodd"/><path d="M3009.87 1743.85 3003.84 1758.44C3002.1 1762.62 2997.33 1764.59 2993.14 1762.89L2978.56 1756.85C2974.38 1755.12 2972.41 1750.35 2974.11 1746.15L2980.15 1731.56C2981.88 1727.38 2986.65 1725.41 2990.84 1727.11L3005.42 1733.15C3009.64 1734.87 3011.6 1739.68 3009.87 1743.85Z" stroke="#000000" stroke-width="3.4375" stroke-miterlimit="8" fill="#D6DBD9" fill-rule="evenodd"/><path d="M3027.87 1700.38 3021.84 1714.57C3020.1 1718.64 3015.33 1720.56 3011.14 1718.91L2996.56 1713.03C2992.38 1711.34 2990.41 1706.7 2992.11 1702.62L2998.15 1688.43C2999.88 1684.36 3004.65 1682.44 3008.84 1684.09L3023.42 1689.97C3027.64 1691.64 3029.6 1696.32 3027.87 1700.38Z" stroke="#000000" stroke-width="3.4375" stroke-miterlimit="8" fill="#D6DBD9" fill-rule="evenodd"/><path d="M3045.88 1656.85 3039.84 1671.44C3038.11 1675.62 3033.34 1677.59 3029.14 1675.89L3014.56 1669.85C3010.38 1668.12 3008.41 1663.35 3010.11 1659.15L3016.15 1644.56C3017.88 1640.38 3022.65 1638.41 3026.85 1640.11L3041.43 1646.15C3045.6 1647.88 3047.61 1652.67 3045.88 1656.85Z" stroke="#000000" stroke-width="3.4375" stroke-miterlimit="8" fill="#D6DBD9" fill-rule="evenodd"/><path d="M3063.9 1611.38 3058.03 1625.57C3056.34 1629.64 3051.7 1631.56 3047.62 1629.9L3033.43 1624.03C3029.36 1622.34 3027.44 1617.7 3029.09 1613.62L3034.97 1599.43C3036.66 1595.36 3041.3 1593.44 3045.38 1595.1L3059.57 1600.97C3063.65 1602.63 3065.56 1607.3 3063.9 1611.38Z" stroke="#000000" stroke-width="3.4375" stroke-miterlimit="8" fill="#D6DBD9" fill-rule="evenodd"/><path d="M3082.89 1566.38 3077.02 1580.57C3075.33 1584.64 3070.69 1586.56 3066.61 1584.9L3052.43 1579.03C3048.36 1577.34 3046.44 1572.7 3048.09 1568.62L3053.97 1554.43C3055.65 1550.36 3060.29 1548.44 3064.38 1550.1L3078.56 1555.97C3082.65 1557.68 3084.58 1562.32 3082.89 1566.38Z" stroke="#000000" stroke-width="3.4375" stroke-miterlimit="8" fill="#D6DBD9" fill-rule="evenodd"/><path d="M3094.89 1527.38 3089.01 1541.57C3087.33 1545.64 3082.69 1547.56 3078.61 1545.9L3064.42 1540.03C3060.36 1538.34 3058.44 1533.7 3060.09 1529.62L3065.97 1515.43C3067.65 1511.36 3072.29 1509.44 3076.37 1511.09L3090.56 1516.97C3094.67 1518.65 3096.57 1523.32 3094.89 1527.38Z" stroke="#000000" stroke-width="3.4375" stroke-miterlimit="8" fill="#D6DBD9" fill-rule="evenodd"/><path d="M3113.89 1482.38 3108.02 1496.57C3106.33 1500.64 3101.69 1502.56 3097.61 1500.9L3083.43 1495.03C3079.36 1493.34 3077.44 1488.7 3079.09 1484.62L3084.97 1470.43C3086.65 1466.36 3091.29 1464.44 3095.38 1466.09L3109.56 1471.97C3113.64 1473.63 3115.58 1478.32 3113.89 1482.38Z" stroke="#000000" stroke-width="3.4375" stroke-miterlimit="8" fill="#D6DBD9" fill-rule="evenodd"/><path d="M3131.88 1440.38 3125.84 1454.57C3124.11 1458.64 3119.34 1460.56 3115.14 1458.91L3100.56 1453.03C3096.38 1451.34 3094.41 1446.7 3096.11 1442.62L3102.15 1428.43C3103.88 1424.36 3108.65 1422.44 3112.85 1424.1L3127.43 1429.97C3131.6 1431.66 3133.61 1436.32 3131.88 1440.38Z" stroke="#000000" stroke-width="3.4375" stroke-miterlimit="8" fill="#D6DBD9" fill-rule="evenodd"/><path d="M3161.89 1355.48 3139.12 1410.55C3137.43 1414.63 3132.78 1416.57 3128.68 1414.9L3114.44 1408.99C3110.36 1407.3 3108.43 1402.63 3110.1 1398.52L3132.86 1343.45C3134.55 1339.37 3139.21 1337.43 3143.31 1339.1L3157.54 1345.01C3161.65 1346.72 3163.58 1351.39 3161.89 1355.48Z" stroke="#000000" stroke-width="3.4375" stroke-miterlimit="8" fill="#D6DBD9" fill-rule="evenodd"/><path d="M2957.86 1982.85 2951.83 1997.44C2950.1 2001.62 2945.33 2003.59 2941.13 2001.89L2926.56 1995.85C2922.38 1994.12 2920.41 1989.35 2922.11 1985.15L2928.15 1970.56C2929.88 1966.38 2934.65 1964.41 2938.84 1966.11L2953.41 1972.15C2957.64 1973.87 2959.62 1978.64 2957.86 1982.85Z" stroke="#000000" stroke-width="3.4375" stroke-miterlimit="8" fill="#D6DBD9" fill-rule="evenodd"/><path d="M2974.89 1940.85 2969.02 1955.44C2967.33 1959.62 2962.69 1961.59 2958.61 1959.89L2944.43 1953.85C2940.36 1952.12 2938.44 1947.35 2940.09 1943.15L2945.97 1928.56C2947.65 1924.38 2952.29 1922.41 2956.38 1924.11L2970.56 1930.15C2974.65 1931.9 2976.58 1936.67 2974.89 1940.85Z" stroke="#000000" stroke-width="3.4375" stroke-miterlimit="8" fill="#D6DBD9" fill-rule="evenodd"/><path d="M2993.87 1896.38 2987.84 1910.57C2986.11 1914.64 2981.34 1916.56 2977.14 1914.91L2962.56 1909.03C2958.38 1907.34 2956.41 1902.7 2958.11 1898.62L2964.15 1884.43C2965.88 1880.36 2970.65 1878.44 2974.85 1880.1L2989.42 1885.97C2993.62 1887.63 2995.61 1892.32 2993.87 1896.38Z" stroke="#000000" stroke-width="3.4375" stroke-miterlimit="8" fill="#D6DBD9" fill-rule="evenodd"/><path d="M3010.89 1854.38 3005.02 1868.57C3003.33 1872.64 2998.69 1874.56 2994.61 1872.91L2980.43 1867.03C2976.36 1865.34 2974.44 1860.7 2976.09 1856.62L2981.97 1842.43C2983.65 1838.36 2988.29 1836.44 2992.38 1838.09L3006.56 1843.97C3010.63 1845.66 3012.58 1850.32 3010.89 1854.38Z" stroke="#000000" stroke-width="3.4375" stroke-miterlimit="8" fill="#D6DBD9" fill-rule="evenodd"/><path d="M3031.89 1804.38 3026.02 1818.57C3024.34 1822.64 3019.69 1824.56 3015.61 1822.91L3001.43 1817.03C2997.36 1815.34 2995.44 1810.7 2997.09 1806.62L3002.97 1792.43C3004.65 1788.36 3009.3 1786.44 3013.38 1788.09L3027.56 1793.97C3031.63 1795.66 3033.58 1800.32 3031.89 1804.38Z" stroke="#000000" stroke-width="3.4375" stroke-miterlimit="8" fill="#D6DBD9" fill-rule="evenodd"/><path d="M3102.88 1632.58 3043.46 1775.52C3041.75 1779.63 3037.04 1781.58 3032.9 1779.9L3018.5 1773.96C3014.37 1772.25 3012.42 1767.56 3014.1 1763.42L3073.52 1620.48C3075.23 1616.37 3079.94 1614.42 3084.09 1616.1L3098.48 1622.04C3102.65 1623.74 3104.59 1628.47 3102.88 1632.58Z" stroke="#000000" stroke-width="3.4375" stroke-miterlimit="8" fill="#D6DBD9" fill-rule="evenodd"/><path d="M3119.89 1591.38 3114.02 1605.57C3112.33 1609.64 3107.69 1611.56 3103.61 1609.91L3089.43 1604.03C3085.36 1602.34 3083.44 1597.7 3085.09 1593.62L3090.97 1579.43C3092.65 1575.36 3097.29 1573.44 3101.38 1575.09L3115.56 1580.97C3119.63 1582.65 3121.58 1587.32 3119.89 1591.38Z" stroke="#000000" stroke-width="3.4375" stroke-miterlimit="8" fill="#D6DBD9" fill-rule="evenodd"/><path d="M3138.87 1546.38 3132.84 1560.57C3131.11 1564.64 3126.34 1566.56 3122.14 1564.9L3107.56 1559.03C3103.38 1557.34 3101.41 1552.7 3103.11 1548.62L3109.15 1534.43C3110.88 1530.36 3115.65 1528.44 3119.85 1530.09L3134.42 1535.97C3138.62 1537.63 3140.61 1542.32 3138.87 1546.38Z" stroke="#000000" stroke-width="3.4375" stroke-miterlimit="8" fill="#D6DBD9" fill-rule="evenodd"/><path d="M3155.91 1504.85 3150.03 1519.44C3148.34 1523.62 3143.7 1525.59 3139.62 1523.89L3125.43 1517.85C3121.36 1516.12 3119.44 1511.35 3121.09 1507.15L3126.97 1492.56C3128.66 1488.38 3133.3 1486.41 3137.38 1488.11L3151.57 1494.15C3155.64 1495.88 3157.56 1500.65 3155.91 1504.85Z" stroke="#000000" stroke-width="3.4375" stroke-miterlimit="8" fill="#D6DBD9" fill-rule="evenodd"/><path d="M3172.87 1466.38 3166.84 1480.57C3165.1 1484.64 3160.34 1486.56 3156.14 1484.91L3141.56 1479.03C3137.38 1477.34 3135.41 1472.7 3137.11 1468.62L3143.15 1454.43C3144.88 1450.36 3149.65 1448.44 3153.84 1450.1L3168.42 1455.97C3172.62 1457.63 3174.61 1462.32 3172.87 1466.38Z" stroke="#000000" stroke-width="3.4375" stroke-miterlimit="8" fill="#D6DBD9" fill-rule="evenodd"/><path d="M3188.89 1420.38 3183.01 1434.57C3181.33 1438.64 3176.69 1440.56 3172.61 1438.91L3158.43 1433.03C3154.36 1431.34 3152.44 1426.7 3154.09 1422.62L3159.97 1408.43C3161.65 1404.36 3166.29 1402.44 3170.37 1404.09L3184.56 1409.97C3188.67 1411.65 3190.58 1416.32 3188.89 1420.38Z" stroke="#000000" stroke-width="3.4375" stroke-miterlimit="8" fill="#D6DBD9" fill-rule="evenodd"/><path d="M3207.89 1375.38 3202.02 1389.57C3200.33 1393.64 3195.69 1395.56 3191.61 1393.91L3177.43 1388.03C3173.36 1386.34 3171.44 1381.7 3173.09 1377.62L3178.97 1363.43C3180.65 1359.36 3185.29 1357.44 3189.38 1359.09L3203.56 1364.97C3207.65 1366.67 3209.58 1371.32 3207.89 1375.38Z" stroke="#000000" stroke-width="3.4375" stroke-miterlimit="8" fill="#D6DBD9" fill-rule="evenodd"/><path d="M3112.89 1250.85 3106.85 1265.44C3105.11 1269.62 3100.34 1271.59 3096.15 1269.89L3081.56 1263.85C3077.38 1262.12 3075.41 1257.35 3077.11 1253.15L3083.15 1238.56C3084.88 1234.38 3089.65 1232.41 3093.85 1234.11L3108.43 1240.15C3112.63 1241.86 3114.59 1246.65 3112.89 1250.85Z" stroke="#000000" stroke-width="3.4375" stroke-miterlimit="8" fill="#D6DBD9" fill-rule="evenodd"/><path d="M3147.89 1165.38 3142.02 1179.57C3140.33 1183.64 3135.69 1185.56 3131.61 1183.91L3117.43 1178.03C3113.36 1176.34 3111.44 1171.7 3113.09 1167.62L3118.97 1153.43C3120.65 1149.36 3125.29 1147.44 3129.38 1149.09L3143.56 1154.97C3147.64 1156.63 3149.58 1161.32 3147.89 1165.38Z" stroke="#000000" stroke-width="3.4375" stroke-miterlimit="8" fill="#D6DBD9" fill-rule="evenodd"/><path d="M3129.89 1208.38 3124.02 1222.57C3122.33 1226.64 3117.69 1228.56 3113.61 1226.9L3099.43 1221.03C3095.36 1219.34 3093.44 1214.7 3095.09 1210.62L3100.97 1196.43C3102.65 1192.36 3107.29 1190.44 3111.38 1192.09L3125.56 1197.97C3129.63 1199.66 3131.58 1204.32 3129.89 1208.38Z" stroke="#000000" stroke-width="3.4375" stroke-miterlimit="8" fill="#D6DBD9" fill-rule="evenodd"/><path d="M3153.88 1267.85 3147.84 1282.44C3146.11 1286.62 3141.34 1288.59 3137.14 1286.89L3122.56 1280.85C3118.38 1279.12 3116.41 1274.35 3118.11 1270.15L3124.15 1255.56C3125.88 1251.38 3130.65 1249.41 3134.85 1251.11L3149.43 1257.15C3153.6 1258.88 3155.61 1263.67 3153.88 1267.85Z" stroke="#000000" stroke-width="3.4375" stroke-miterlimit="8" fill="#D6DBD9" fill-rule="evenodd"/><path d="M3169.89 1225.38 3164.02 1239.57C3162.33 1243.64 3157.69 1245.56 3153.61 1243.9L3139.43 1238.03C3135.36 1236.34 3133.44 1231.7 3135.09 1227.62L3140.97 1213.43C3142.65 1209.36 3147.29 1207.44 3151.38 1209.1L3165.56 1214.97C3169.63 1216.65 3171.58 1221.32 3169.89 1225.38Z" stroke="#000000" stroke-width="3.4375" stroke-miterlimit="8" fill="#D6DBD9" fill-rule="evenodd"/><path d="M3187.89 1181.38 3182.02 1195.57C3180.33 1199.64 3175.69 1201.56 3171.61 1199.9L3157.43 1194.03C3153.36 1192.34 3151.44 1187.7 3153.09 1183.62L3158.97 1169.43C3160.65 1165.36 3165.29 1163.44 3169.38 1165.1L3183.56 1170.97C3187.67 1172.65 3189.57 1177.32 3187.89 1181.38Z" stroke="#000000" stroke-width="3.4375" stroke-miterlimit="8" fill="#D6DBD9" fill-rule="evenodd"/><path d="M3194.87 1284.38 3188.84 1298.57C3187.1 1302.64 3182.34 1304.56 3178.14 1302.9L3163.56 1297.03C3159.38 1295.34 3157.41 1290.7 3159.11 1286.62L3165.15 1272.43C3166.88 1268.36 3171.65 1266.44 3175.84 1268.09L3190.42 1273.97C3194.63 1275.67 3196.61 1280.32 3194.87 1284.38Z" stroke="#000000" stroke-width="3.4375" stroke-miterlimit="8" fill="#D6DBD9" fill-rule="evenodd"/><path d="M3207.89 1241.38 3202.02 1255.57C3200.33 1259.64 3195.69 1261.56 3191.61 1259.9L3177.43 1254.03C3173.36 1252.34 3171.44 1247.7 3173.09 1243.62L3178.97 1229.43C3180.65 1225.36 3185.29 1223.44 3189.38 1225.09L3203.56 1230.97C3207.67 1232.65 3209.57 1237.32 3207.89 1241.38Z" stroke="#000000" stroke-width="3.4375" stroke-miterlimit="8" fill="#D6DBD9" fill-rule="evenodd"/><path d="M3227.89 1196.38 3222.02 1210.57C3220.33 1214.64 3215.69 1216.56 3211.61 1214.9L3197.43 1209.03C3193.36 1207.34 3191.44 1202.7 3193.09 1198.62L3198.97 1184.43C3200.65 1180.36 3205.29 1178.44 3209.38 1180.09L3223.56 1185.97C3227.64 1187.63 3229.58 1192.32 3227.89 1196.38Z" stroke="#000000" stroke-width="3.4375" stroke-miterlimit="8" fill="#D6DBD9" fill-rule="evenodd"/><path d="M3253.89 1249.52 3227.09 1314.53C3225.4 1318.63 3220.75 1320.57 3216.66 1318.9L3202.44 1312.98C3198.36 1311.28 3196.43 1306.6 3198.1 1302.48L3224.89 1237.47C3226.58 1233.37 3231.23 1231.43 3235.33 1233.1L3249.54 1239.02C3253.66 1240.71 3255.58 1245.42 3253.89 1249.52L3253.89 1249.52Z" stroke="#000000" stroke-width="3.4375" stroke-miterlimit="8" fill="#D6DBD9" fill-rule="evenodd"/><path d="M3268.87 1213.38 3262.84 1227.57C3261.11 1231.64 3256.34 1233.56 3252.14 1231.9L3237.56 1226.03C3233.38 1224.34 3231.41 1219.7 3233.11 1215.62L3239.15 1201.43C3240.88 1197.36 3245.65 1195.44 3249.85 1197.1L3264.42 1202.97C3268.62 1204.63 3270.61 1209.32 3268.87 1213.38Z" stroke="#000000" stroke-width="3.4375" stroke-miterlimit="8" fill="#D6DBD9" fill-rule="evenodd"/><path d="M1817.44 1450.85C1813.98 1459.93 1831.29 1476.94 1855.55 1500.76 1858.81 1503.96 1869.88 1514.61 1886.12 1526.33 1895 1532.73 1902.3 1537.16 1905.52 1539.12 1914.26 1544.31 1930.33 1554.17 1951.64 1560.74 1973.41 1567.41 1989.14 1572.25 2009.46 1568.92 2017.41 1567.61 2043.35 1563.39 2049.62 1546.37 2053.26 1536.54 2048.73 1526.54 2047.09 1522.86 2024.2 1472.03 1827.79 1423.56 1817.41 1450.89L1817.44 1450.85Z" fill="#5B5742" fill-rule="evenodd" fill-opacity="0.431373"/><path d="M1793.85 1219.13C1802.62 1204.09 1808.01 1202.03 1811.2 1202.58 1818.75 1203.86 1818.72 1220.65 1832.33 1247.02 1836.95 1255.98 1841.06 1262.29 1844.54 1267.64 1868.09 1299.37 1907.07 1347.22 1934.13 1381.73 1981.44 1434.48 1993.87 1451.97 2030.5 1495.98 2033.22 1498.6 2041.38 1506.38 2044.54 1518.84 2059.34 1596.03 1898.74 1509.16 1882.78 1498.46 1850.73 1478.18 1851.15 1471.75 1799.31 1429.17 1746.92 1386.14 1739.2 1386.72 1734.5 1371.16 1736.8 1352.24 1741.24 1329.33 1749.85 1304.24 1762.5 1267.37 1779.62 1238.93 1793.85 1219.13Z" stroke="#000000" stroke-width="20.625" stroke-miterlimit="8" fill="#EBE2B3" fill-rule="evenodd"/><path d="M2660.6 1546.03C2678.82 1516.88 2514.14 1390.04 2469.56 1398.39 2465.01 1399.26 2452.21 1401.34 2448.82 1409.77 2446.18 1416.4 2450.5 1423.95 2453.6 1428.91 2467.95 1452.04 2483.13 1463.83 2504.59 1485.35 2520.56 1501.35 2527.06 1508.66 2541.87 1519.22 2550.79 1525.57 2558.3 1529.83 2561.89 1531.77 2567.32 1534.77 2581.42 1542.16 2595.5 1546.32 2612.66 1551.41 2652.81 1558.52 2660.6 1546.03L2660.6 1546.03Z" fill="#5B5742" fill-rule="evenodd" fill-opacity="0.431373"/><path d="M2473 1238.92C2471.63 1241.29 2470.25 1243.63 2468.87 1245.94 2466.71 1250.33 2463.19 1257.92 2459.8 1267.72 2448 1301.82 2454.2 1310.81 2444.75 1334.11 2437.01 1353.22 2435.49 1360.54 2435.5 1371.6 2450.66 1398.71 2482.62 1447 2541.13 1484.86 2577.13 1508.15 2611.55 1519.98 2636.55 1526.25 2660.74 1531.2 2669.27 1527.1 2672.61 1522.48 2681.07 1510.79 2661.47 1488.29 2607.6 1401.5 2596.27 1383.27 2586.06 1366.34 2565.55 1332.46 2547.91 1303.33 2539.04 1288.65 2535.52 1282.07 2526.21 1264.63 2520.84 1252.64 2508.98 1235.23 2503.16 1226.68 2500.94 1216.11 2494.26 1215.53 2488.19 1215 2482.71 1222.25 2479.81 1226.81 2477.63 1230.8 2475.36 1234.84 2473 1238.92Z" stroke="#000000" stroke-width="20.625" stroke-miterlimit="8" fill="#EBE2B3" fill-rule="evenodd"/></g></svg>