<svg width="1451" height="1260" xmlns="http://www.w3.org/2000/svg" xmlns:xlink="http://www.w3.org/1999/xlink" xml:space="preserve" overflow="hidden"><defs><clipPath id="clip0"><rect x="3664" y="816" width="1451" height="1260"/></clipPath></defs><g clip-path="url(#clip0)" transform="translate(-3664 -816)"><path d="M3891.5 1843.5C3892.33 1858.72 3894.87 1867.38 3897.13 1872.54 3901.66 1882.92 3902.65 1885.67 3904.62 1891.17 3905.12 1892.55 3905.51 1893.67 3905.78 1894.46 3908.67 1902.8 3908.77 1904.42 3914.54 1924.25 3923.82 1956.09 3924.57 1955.4 3926.8 1966.31 3929.9 1981.31 3928.31 1981.68 3932.06 2003.09 3935.53 2022.89 3937.38 2032.91 3942.57 2039.87 3943.91 2041.66 3957.17 2058.92 3975.89 2057.41 3988.19 2056.41 3996.36 2047.8 4002.2 2041.62 4005.74 2037.92 4008.48 2034.11 4021.5 2006.59 4029.03 1990.71 4032.84 1982.57 4035.55 1975.06 4036.99 1971.08 4037.96 1967.89 4038.68 1965.11 4041.72 1953.39 4043.99 1944.92 4044.31 1943.53 4046.19 1935.34 4053.16 1919.68 4074.5 1887.3 4044.69 1879.55 4014.28 1871.94 3983.29 1864.53 3952.25 1857.09 3921.64 1850.09 3891.5 1843.5Z" stroke="#000000" stroke-width="20.625" stroke-miterlimit="8" fill="#EBE2B3" fill-rule="evenodd"/><path d="M4248.5 1904.57C4256.1 1921.88 4263.7 1941.55 4270.62 1963.46 4277.43 1985.09 4282.45 2005.35 4286.16 2023.79 4305.22 2070.67 4355.4 2059.13 4361.42 2009.78 4368.41 1988.08 4375.15 1964.94 4381.37 1940.42 4386.98 1918.34 4391.73 1897.05 4395.72 1876.72 4396.28 1872.09 4396.6 1866.97 4396.47 1861.43 4396.09 1844.77 4391.82 1831.09 4387.74 1821.5 4341.33 1849.19 4294.91 1876.88 4248.5 1904.57Z" stroke="#000000" stroke-width="20.625" stroke-miterlimit="8" fill="#EBE2B3" fill-rule="evenodd"/><path d="M3686.77 1455.11C3684.36 1445.45 3681.58 1430.83 3681.51 1412.94 3681.44 1393.91 3684.53 1388.69 3685.02 1372.55 3685.98 1340.6 3674.53 1338.77 3674.5 1311.08 3674.5 1278.19 3690.51 1252.39 3695.57 1244.35 3707.05 1225.94 3711.62 1228.56 3725.4 1207.47 3738.22 1187.86 3744.13 1170.52 3749.97 1153.01 3760.11 1122.64 3757.7 1116.55 3765.78 1088.03 3771.48 1067.88 3778.74 1042.18 3795.61 1016 3806.61 998.94 3825.17 982.394 3862.28 949.267 3886.13 927.974 3903.32 914.248 3916.68 903.584 3957.44 871.111 3970.85 864.163 3976.35 861.411 3995.63 851.847 4012.98 843.214 4036.01 843.833 4047.59 844.142 4065.84 845.277 4085.46 845.105 4088.25 845.071 4094.53 845.105 4102.71 844.589 4106.22 844.349 4112.1 843.901 4119.18 842.938 4131.2 841.321 4140.24 839.188 4143.03 838.535 4183.17 829.247 4203.44 823.64 4222 828.009 4244.31 833.237 4259.29 846.172 4272.9 857.867 4281.53 865.298 4293.38 880.503 4316.79 910.568 4342.8 944.038 4348.82 953.017 4364.18 965.022 4379.54 977.027 4381.47 974.207 4392.26 984.355 4406.62 997.839 4412.02 1011.08 4425.59 1042.32 4451.54 1102.04 4449.41 1094.23 4451.92 1102.04 4454.46 1110.05 4455.9 1117.93 4459.17 1133.61 4463.29 1153.46 4464.5 1163.03 4469.48 1191.65 4473.36 1213.87 4475.19 1225.01 4476.49 1230.28 4485.29 1265.95 4498.52 1290.17 4502.82 1298.77 4522.92 1338.94 4520.89 1386.45 4516.87 1481.46 4514.43 1539.08 4513.09 1570.38 4499.31 1611.46 4492.2 1632.65 4488.93 1635.09 4471.23 1683.49 4456.25 1724.42 4453.77 1735.85 4441.4 1764.29 4427.66 1795.94 4420.78 1811.76 4406.31 1829.27 4400.2 1836.7 4385.93 1852.67 4348.4 1874.96 4317.2 1893.5 4282.08 1914.34 4230.83 1924.15 4156.95 1938.29 4095.22 1920.74 4071.13 1913.62 4056.11 1909.18 4051.03 1906.5 4021.99 1897.8 4008.02 1893.62 3996.9 1890.55 3987.47 1888.1 3950.13 1878.42 3947.37 1879.15 3928.99 1873.2 3917.6 1869.51 3909.94 1866.34 3896.14 1860.58 3869.7 1849.55 3846.6 1839.91 3828.95 1829.27 3785.28 1802.96 3762.71 1763.21 3753.48 1746.72 3746.6 1734.43 3737.19 1706.33 3718.39 1650.09 3705.98 1612.97 3699.69 1594.15 3697.32 1581.6 3692.71 1557.28 3691.31 1534.09 3688.56 1488.51 3687.66 1474.38 3687.11 1462.78 3686.77 1455.11Z" stroke="#000000" stroke-width="20.625" stroke-miterlimit="8" fill="#EBE2B3" fill-rule="evenodd"/><path d="M3931.08 982.025 3944.23 957.207 4062.13 1019.66 4048.99 1044.48Z" stroke="#000000" stroke-width="10.3139" stroke-miterlimit="8" fill="#595850" fill-rule="evenodd"/><path d="M4184.76 1014.19 4304.99 956.329 4317.17 981.636 4196.94 1039.5Z" stroke="#000000" stroke-width="10.3139" stroke-miterlimit="8" fill="#595850" fill-rule="evenodd"/><path d="M4387 2066.5C4387 2071.75 4282.23 2076 4153 2076 4023.77 2076 3919 2071.75 3919 2066.5 3919 2061.25 4023.77 2057 4153 2057 4282.23 2057 4387 2061.25 4387 2066.5Z" fill="#5B5742" fill-rule="evenodd" fill-opacity="0.470588"/><path d="M4030.5 1105.5C4030.5 1128.7 4011.92 1147.5 3989 1147.5 3966.08 1147.5 3947.5 1128.7 3947.5 1105.5 3947.5 1082.3 3966.08 1063.5 3989 1063.5 4011.92 1063.5 4030.5 1082.3 4030.5 1105.5Z" stroke="#000000" stroke-width="20.625" stroke-miterlimit="8" fill="#231815" fill-rule="evenodd"/><path d="M4304.5 1105.5C4304.5 1128.7 4285.92 1147.5 4263 1147.5 4240.08 1147.5 4221.5 1128.7 4221.5 1105.5 4221.5 1082.3 4240.08 1063.5 4263 1063.5 4285.92 1063.5 4304.5 1082.3 4304.5 1105.5Z" stroke="#000000" stroke-width="20.625" stroke-miterlimit="8" fill="#231815" fill-rule="evenodd"/><path d="M4013 1118.5C4013 1129.82 4004.05 1139 3993 1139 3981.95 1139 3973 1129.82 3973 1118.5 3973 1107.18 3981.95 1098 3993 1098 4004.05 1098 4013 1107.18 4013 1118.5Z" fill="#FFFFFF" fill-rule="evenodd"/><path d="M4283 1118.5C4283 1129.82 4273.82 1139 4262.5 1139 4251.18 1139 4242 1129.82 4242 1118.5 4242 1107.18 4251.18 1098 4262.5 1098 4273.82 1098 4283 1107.18 4283 1118.5Z" fill="#FFFFFF" fill-rule="evenodd"/><path d="M4209 1233.5C4209 1245.37 4175.2 1255 4133.5 1255 4091.8 1255 4058 1245.37 4058 1233.5 4058 1221.63 4091.8 1212 4133.5 1212 4175.2 1212 4209 1221.63 4209 1233.5Z" stroke="#000000" stroke-width="10.3125" stroke-miterlimit="8" fill="#E73A8F" fill-rule="evenodd"/><path d="M5088 1426.87 4292.96 1875.31C4277.33 1884.12 4257.54 1878.59 4248.74 1862.97L4126.69 1646.37C4117.88 1630.73 4123.41 1610.92 4139.02 1602.12L4934.02 1153.69C4949.65 1144.88 4969.45 1150.41 4978.24 1166.02L5100.29 1382.63C5109.12 1398.23 5103.6 1418.07 5088 1426.87L5088 1426.87Z" stroke="#000000" stroke-width="20.625" stroke-miterlimit="8" fill="#A6A897" fill-rule="evenodd"/><path d="M4388.43 1548.09 4363.05 1562.46C4359.19 1564.64 4354.32 1563.28 4352.12 1559.42L4344.54 1545.9C4342.36 1542.02 4343.72 1537.13 4347.56 1534.91L4372.95 1520.54C4376.8 1518.36 4381.67 1519.72 4383.87 1523.58L4391.46 1537.1C4393.64 1541.01 4392.29 1545.9 4388.43 1548.09Z" stroke="#000000" stroke-width="3.4375" stroke-miterlimit="8" fill="#D6DBD9" fill-rule="evenodd"/><path d="M4509.44 1480.09 4484.05 1494.46C4480.19 1496.64 4475.32 1495.28 4473.12 1491.42L4465.54 1477.9C4463.36 1474.02 4464.72 1469.13 4468.56 1466.91L4493.95 1452.54C4497.81 1450.36 4502.67 1451.72 4504.88 1455.58L4512.46 1469.1C4514.63 1472.98 4513.29 1477.9 4509.44 1480.09Z" stroke="#000000" stroke-width="3.4375" stroke-miterlimit="8" fill="#D6DBD9" fill-rule="evenodd"/><path d="M4224.42 1641.09 4199.04 1655.46C4195.19 1657.64 4190.32 1656.28 4188.12 1652.42L4180.54 1638.9C4178.36 1635.02 4179.72 1630.13 4183.56 1627.91L4208.94 1613.54C4212.79 1611.36 4217.66 1612.72 4219.86 1616.58L4227.45 1630.1C4229.65 1633.96 4228.28 1638.9 4224.42 1641.09Z" stroke="#000000" stroke-width="3.4375" stroke-miterlimit="8" fill="#D6DBD9" fill-rule="evenodd"/><path d="M4278.42 1610.09 4253.04 1624.46C4249.19 1626.64 4244.32 1625.28 4242.12 1621.42L4234.54 1607.9C4232.37 1604.02 4233.72 1599.13 4237.56 1596.91L4262.94 1582.54C4266.79 1580.36 4271.66 1581.72 4273.86 1585.58L4281.44 1599.1C4283.66 1603 4282.27 1607.9 4278.42 1610.09Z" stroke="#000000" stroke-width="3.4375" stroke-miterlimit="8" fill="#D6DBD9" fill-rule="evenodd"/><path d="M4721.42 1361.09 4696.04 1375.46C4692.19 1377.64 4687.32 1376.28 4685.12 1372.42L4677.54 1358.9C4675.36 1355.02 4676.72 1350.13 4680.56 1347.91L4705.94 1333.54C4709.8 1331.36 4714.67 1332.72 4716.87 1336.58L4724.45 1350.1C4726.65 1353.97 4725.27 1358.87 4721.42 1361.09Z" stroke="#000000" stroke-width="3.4375" stroke-miterlimit="8" fill="#D6DBD9" fill-rule="evenodd"/><path d="M4334.42 1579.09 4309.04 1593.46C4305.19 1595.64 4300.32 1594.28 4298.12 1590.42L4290.54 1576.9C4288.36 1573.02 4289.72 1568.13 4293.56 1565.91L4318.94 1551.54C4322.79 1549.36 4327.66 1550.72 4329.86 1554.58L4337.45 1568.1C4339.65 1571.97 4338.28 1576.9 4334.42 1579.09Z" stroke="#000000" stroke-width="3.4375" stroke-miterlimit="8" fill="#D6DBD9" fill-rule="evenodd"/><path d="M4563.44 1450.09 4538.05 1464.46C4534.19 1466.64 4529.32 1465.28 4527.12 1461.42L4519.54 1447.9C4517.36 1444.02 4518.72 1439.13 4522.56 1436.91L4547.95 1422.54C4551.81 1420.36 4556.67 1421.72 4558.88 1425.58L4566.46 1439.1C4568.63 1442.97 4567.29 1447.9 4563.44 1450.09Z" stroke="#000000" stroke-width="3.4375" stroke-miterlimit="8" fill="#D6DBD9" fill-rule="evenodd"/><path d="M4615.43 1420.09 4590.05 1434.46C4586.19 1436.64 4581.32 1435.28 4579.12 1431.42L4571.54 1417.9C4569.36 1414.02 4570.72 1409.13 4574.56 1406.91L4599.95 1392.54C4603.8 1390.36 4608.67 1391.72 4610.87 1395.58L4618.46 1409.1C4620.64 1413.01 4619.29 1417.9 4615.43 1420.09Z" stroke="#000000" stroke-width="3.4375" stroke-miterlimit="8" fill="#D6DBD9" fill-rule="evenodd"/><path d="M4668.42 1390.44 4643.04 1404.48C4639.19 1406.62 4634.32 1405.29 4632.12 1401.51L4624.54 1388.3C4622.36 1384.51 4623.72 1379.73 4627.56 1377.56L4652.94 1363.52C4656.79 1361.38 4661.66 1362.71 4663.86 1366.49L4671.45 1379.7C4673.65 1383.48 4672.28 1388.3 4668.42 1390.44Z" stroke="#000000" stroke-width="3.4375" stroke-miterlimit="8" fill="#D6DBD9" fill-rule="evenodd"/><path d="M4448.42 1514.09 4423.04 1528.46C4419.19 1530.64 4414.32 1529.28 4412.12 1525.42L4404.54 1511.9C4402.37 1508.02 4403.72 1503.13 4407.56 1500.91L4432.94 1486.54C4436.79 1484.36 4441.66 1485.72 4443.86 1489.58L4451.44 1503.1C4453.66 1507 4452.27 1511.9 4448.42 1514.09Z" stroke="#000000" stroke-width="3.4375" stroke-miterlimit="8" fill="#D6DBD9" fill-rule="evenodd"/><path d="M4780.42 1325.09 4755.04 1339.46C4751.19 1341.64 4746.32 1340.28 4744.12 1336.42L4736.54 1322.9C4734.36 1319.02 4735.72 1314.13 4739.56 1311.91L4764.94 1297.54C4768.8 1295.36 4773.66 1296.72 4775.87 1300.58L4783.45 1314.1C4785.65 1317.96 4784.28 1322.9 4780.42 1325.09Z" stroke="#000000" stroke-width="3.4375" stroke-miterlimit="8" fill="#D6DBD9" fill-rule="evenodd"/><path d="M4272.38 1666.14 4220.23 1695.46C4216.34 1697.64 4211.42 1696.28 4209.2 1692.41L4201.55 1678.87C4199.35 1674.98 4200.72 1670.08 4204.6 1667.86L4256.75 1638.54C4260.64 1636.36 4265.56 1637.72 4267.78 1641.59L4275.43 1655.13C4277.67 1659.04 4276.27 1663.95 4272.38 1666.14Z" stroke="#000000" stroke-width="3.4375" stroke-miterlimit="8" fill="#D6DBD9" fill-rule="evenodd"/><path d="M4315.44 1640.89 4302.01 1648.47C4298.17 1650.63 4293.3 1649.28 4291.11 1645.44L4283.53 1632.02C4281.37 1628.17 4282.72 1623.31 4286.56 1621.11L4299.98 1613.53C4303.83 1611.37 4308.69 1612.72 4310.89 1616.56L4318.46 1629.98C4320.64 1633.86 4319.29 1638.73 4315.44 1640.89Z" stroke="#000000" stroke-width="3.4375" stroke-miterlimit="8" fill="#D6DBD9" fill-rule="evenodd"/><path d="M4355.43 1618.89 4342.01 1626.47C4338.16 1628.63 4333.3 1627.28 4331.1 1623.44L4323.53 1610.02C4321.37 1606.17 4322.72 1601.31 4326.55 1599.11L4339.97 1591.53C4343.82 1589.37 4348.68 1590.72 4350.88 1594.56L4358.45 1607.98C4360.65 1611.82 4359.28 1616.72 4355.43 1618.89Z" stroke="#000000" stroke-width="3.4375" stroke-miterlimit="8" fill="#D6DBD9" fill-rule="evenodd"/><path d="M4397.43 1595.66 4384.01 1603.44C4380.16 1605.66 4375.3 1604.28 4373.1 1600.33L4365.53 1586.54C4363.37 1582.59 4364.72 1577.6 4368.55 1575.34L4381.97 1567.56C4385.82 1565.34 4390.68 1566.72 4392.88 1570.67L4400.45 1584.46C4402.65 1588.4 4401.28 1593.43 4397.43 1595.66Z" stroke="#000000" stroke-width="3.4375" stroke-miterlimit="8" fill="#D6DBD9" fill-rule="evenodd"/><path d="M4436.44 1572.89 4423.01 1580.47C4419.17 1582.63 4414.3 1581.28 4412.11 1577.44L4404.53 1564.02C4402.37 1560.17 4403.72 1555.31 4407.56 1553.11L4420.98 1545.53C4424.83 1543.37 4429.69 1544.72 4431.89 1548.56L4439.46 1561.98C4441.64 1565.86 4440.29 1570.72 4436.44 1572.89L4436.44 1572.89Z" stroke="#000000" stroke-width="3.4375" stroke-miterlimit="8" fill="#D6DBD9" fill-rule="evenodd"/><path d="M4484.43 1546.89 4471.01 1554.47C4467.16 1556.63 4462.3 1555.28 4460.1 1551.44L4452.53 1538.02C4450.37 1534.17 4451.72 1529.31 4455.55 1527.11L4468.97 1519.53C4472.82 1517.37 4477.68 1518.72 4479.88 1522.56L4487.45 1535.98C4489.65 1539.82 4488.28 1544.73 4484.43 1546.89Z" stroke="#000000" stroke-width="3.4375" stroke-miterlimit="8" fill="#D6DBD9" fill-rule="evenodd"/><path d="M4524.31 1524.89 4510.53 1532.47C4506.58 1534.63 4501.59 1533.28 4499.33 1529.44L4491.56 1516.02C4489.34 1512.17 4490.72 1507.31 4494.66 1505.11L4508.44 1497.53C4512.4 1495.37 4517.39 1496.72 4519.64 1500.56L4527.42 1513.98C4529.69 1517.85 4528.27 1522.73 4524.31 1524.89Z" stroke="#000000" stroke-width="3.4375" stroke-miterlimit="8" fill="#D6DBD9" fill-rule="evenodd"/><path d="M4566.33 1500.89 4552.54 1508.47C4548.59 1510.63 4543.59 1509.28 4541.34 1505.44L4533.56 1492.02C4531.34 1488.17 4532.72 1483.31 4536.67 1481.11L4550.45 1473.53C4554.4 1471.37 4559.4 1472.72 4561.65 1476.56L4569.43 1489.98C4571.67 1493.86 4570.28 1498.73 4566.33 1500.89Z" stroke="#000000" stroke-width="3.4375" stroke-miterlimit="8" fill="#D6DBD9" fill-rule="evenodd"/><path d="M4603.33 1479.89 4589.54 1487.47C4585.59 1489.63 4580.6 1488.28 4578.34 1484.44L4570.56 1471.02C4568.34 1467.17 4569.72 1462.31 4573.67 1460.11L4587.45 1452.53C4591.41 1450.37 4596.4 1451.72 4598.66 1455.56L4606.44 1468.98C4608.66 1472.83 4607.29 1477.73 4603.33 1479.89Z" stroke="#000000" stroke-width="3.4375" stroke-miterlimit="8" fill="#D6DBD9" fill-rule="evenodd"/><path d="M4645.44 1455.66 4632.02 1463.44C4628.17 1465.66 4623.3 1464.28 4621.11 1460.33L4613.53 1446.54C4611.37 1442.59 4612.72 1437.6 4616.56 1435.34L4629.98 1427.56C4633.83 1425.34 4638.69 1426.72 4640.89 1430.67L4648.46 1444.46C4650.63 1448.41 4649.29 1453.43 4645.44 1455.66Z" stroke="#000000" stroke-width="3.4375" stroke-miterlimit="8" fill="#D6DBD9" fill-rule="evenodd"/><path d="M4685.43 1432.89 4672.01 1440.47C4668.16 1442.63 4663.3 1441.28 4661.1 1437.44L4653.53 1424.02C4651.37 1420.17 4652.72 1415.31 4656.55 1413.11L4669.97 1405.53C4673.82 1403.37 4678.68 1404.72 4680.88 1408.56L4688.45 1421.98C4690.65 1425.82 4689.28 1430.73 4685.43 1432.89Z" stroke="#000000" stroke-width="3.4375" stroke-miterlimit="8" fill="#D6DBD9" fill-rule="evenodd"/><path d="M4727.42 1409.66 4714.01 1417.44C4710.16 1419.66 4705.3 1418.28 4703.1 1414.33L4695.53 1400.54C4693.37 1396.59 4694.72 1391.6 4698.55 1389.34L4711.97 1381.56C4715.82 1379.34 4720.68 1380.72 4722.88 1384.67L4730.44 1398.46C4732.66 1402.43 4731.27 1407.43 4727.42 1409.66Z" stroke="#000000" stroke-width="3.4375" stroke-miterlimit="8" fill="#D6DBD9" fill-rule="evenodd"/><path d="M4766.44 1386.89 4753.01 1394.47C4749.16 1396.63 4744.3 1395.28 4742.1 1391.44L4734.53 1378.02C4732.37 1374.17 4733.72 1369.31 4737.56 1367.11L4750.98 1359.53C4754.83 1357.37 4759.69 1358.72 4761.89 1362.56L4769.46 1375.98C4771.64 1379.86 4770.29 1384.73 4766.44 1386.89Z" stroke="#000000" stroke-width="3.4375" stroke-miterlimit="8" fill="#D6DBD9" fill-rule="evenodd"/><path d="M4803.42 1366.89 4790 1374.47C4786.16 1376.63 4781.3 1375.28 4779.1 1371.44L4771.53 1358.02C4769.37 1354.17 4770.72 1349.31 4774.55 1347.11L4787.97 1339.53C4791.82 1337.37 4796.68 1338.72 4798.87 1342.56L4806.44 1355.98C4808.66 1359.85 4807.27 1364.73 4803.42 1366.89Z" stroke="#000000" stroke-width="3.4375" stroke-miterlimit="8" fill="#D6DBD9" fill-rule="evenodd"/><path d="M4394.33 1650.66 4380.54 1658.44C4376.59 1660.66 4371.6 1659.28 4369.34 1655.33L4361.56 1641.54C4359.34 1637.59 4360.72 1632.6 4364.67 1630.34L4378.45 1622.56C4382.41 1620.34 4387.4 1621.72 4389.66 1625.67L4397.43 1639.46C4399.66 1643.41 4398.28 1648.43 4394.33 1650.66Z" stroke="#000000" stroke-width="3.4375" stroke-miterlimit="8" fill="#D6DBD9" fill-rule="evenodd"/><path d="M4438.44 1625.89 4425.02 1633.47C4421.17 1635.63 4416.3 1634.28 4414.11 1630.44L4406.53 1617.02C4404.37 1613.17 4405.72 1608.31 4409.56 1606.11L4422.98 1598.53C4426.83 1596.37 4431.69 1597.72 4433.89 1601.56L4441.46 1614.98C4443.63 1618.83 4442.29 1623.73 4438.44 1625.89Z" stroke="#000000" stroke-width="3.4375" stroke-miterlimit="8" fill="#D6DBD9" fill-rule="evenodd"/><path d="M4479.43 1602.89 4466.01 1610.47C4462.16 1612.63 4457.3 1611.28 4455.1 1607.44L4447.53 1594.02C4445.37 1590.17 4446.72 1585.31 4450.55 1583.11L4463.97 1575.53C4467.82 1573.37 4472.68 1574.72 4474.88 1578.56L4482.45 1591.98C4484.65 1595.82 4483.28 1600.73 4479.43 1602.89Z" stroke="#000000" stroke-width="3.4375" stroke-miterlimit="8" fill="#D6DBD9" fill-rule="evenodd"/><path d="M4520.44 1579.66 4507.01 1587.44C4503.16 1589.66 4498.3 1588.28 4496.1 1584.33L4488.53 1570.55C4486.37 1566.59 4487.72 1561.6 4491.56 1559.34L4504.98 1551.56C4508.83 1549.34 4513.69 1550.72 4515.89 1554.67L4523.46 1568.45C4525.64 1572.44 4524.29 1577.43 4520.44 1579.66Z" stroke="#000000" stroke-width="3.4375" stroke-miterlimit="8" fill="#D6DBD9" fill-rule="evenodd"/><path d="M4563.43 1554.89 4550.01 1562.47C4546.16 1564.63 4541.3 1563.28 4539.1 1559.44L4531.53 1546.02C4529.37 1542.17 4530.72 1537.31 4534.55 1535.11L4547.97 1527.53C4551.82 1525.37 4556.68 1526.72 4558.88 1530.56L4566.45 1543.98C4568.65 1547.82 4567.28 1552.72 4563.43 1554.89Z" stroke="#000000" stroke-width="3.4375" stroke-miterlimit="8" fill="#D6DBD9" fill-rule="evenodd"/><path d="M4605.43 1531.66 4592.01 1539.44C4588.16 1541.66 4583.3 1540.28 4581.1 1536.33L4573.53 1522.54C4571.37 1518.59 4572.72 1513.6 4576.55 1511.34L4589.97 1503.56C4593.82 1501.34 4598.68 1502.72 4600.88 1506.67L4608.45 1520.46C4610.65 1524.4 4609.28 1529.43 4605.43 1531.66Z" stroke="#000000" stroke-width="3.4375" stroke-miterlimit="8" fill="#D6DBD9" fill-rule="evenodd"/><path d="M4639.42 1508.66 4626.01 1516.44C4622.16 1518.66 4617.3 1517.28 4615.1 1513.33L4607.53 1499.54C4605.37 1495.59 4606.72 1490.6 4610.55 1488.34L4623.97 1480.56C4627.82 1478.34 4632.68 1479.72 4634.88 1483.67L4642.44 1497.46C4644.66 1501.43 4643.27 1506.43 4639.42 1508.66Z" stroke="#000000" stroke-width="3.4375" stroke-miterlimit="8" fill="#D6DBD9" fill-rule="evenodd"/><path d="M4682.31 1484.66 4668.53 1492.44C4664.58 1494.66 4659.59 1493.28 4657.33 1489.33L4649.56 1475.54C4647.34 1471.59 4648.72 1466.6 4652.66 1464.34L4666.44 1456.56C4670.4 1454.34 4675.39 1455.72 4677.64 1459.67L4685.42 1473.46C4687.69 1477.43 4686.27 1482.43 4682.31 1484.66Z" stroke="#000000" stroke-width="3.4375" stroke-miterlimit="8" fill="#D6DBD9" fill-rule="evenodd"/><path d="M4721.44 1461.89 4708.01 1469.47C4704.17 1471.63 4699.3 1470.28 4697.11 1466.44L4689.53 1453.02C4687.37 1449.17 4688.72 1444.31 4692.56 1442.11L4705.98 1434.53C4709.83 1432.37 4714.69 1433.72 4716.89 1437.56L4724.46 1450.98C4726.64 1454.86 4725.29 1459.73 4721.44 1461.89Z" stroke="#000000" stroke-width="3.4375" stroke-miterlimit="8" fill="#D6DBD9" fill-rule="evenodd"/><path d="M4763.44 1438.66 4750.02 1446.44C4746.17 1448.66 4741.3 1447.28 4739.11 1443.33L4731.53 1429.54C4729.37 1425.59 4730.72 1420.6 4734.56 1418.34L4747.98 1410.56C4751.83 1408.34 4756.69 1409.72 4758.89 1413.67L4766.46 1427.46C4768.63 1431.41 4767.29 1436.43 4763.44 1438.66Z" stroke="#000000" stroke-width="3.4375" stroke-miterlimit="8" fill="#D6DBD9" fill-rule="evenodd"/><path d="M4312.42 1697.1 4243.04 1736.46C4239.19 1738.64 4234.32 1737.28 4232.12 1733.41L4224.54 1719.89C4222.37 1716.01 4223.72 1711.11 4227.56 1708.9L4296.94 1669.54C4300.8 1667.36 4305.66 1668.72 4307.87 1672.59L4315.45 1686.11C4317.65 1689.98 4316.28 1694.92 4312.42 1697.1Z" stroke="#000000" stroke-width="3.4375" stroke-miterlimit="8" fill="#D6DBD9" fill-rule="evenodd"/><path d="M4397.44 1704.89 4384.01 1712.47C4380.17 1714.63 4375.3 1713.28 4373.11 1709.44L4365.53 1696.02C4363.37 1692.17 4364.72 1687.31 4368.56 1685.11L4381.98 1677.53C4385.83 1675.37 4390.69 1676.72 4392.89 1680.56L4400.46 1693.98C4402.63 1697.83 4401.29 1702.73 4397.44 1704.89Z" stroke="#000000" stroke-width="3.4375" stroke-miterlimit="8" fill="#D6DBD9" fill-rule="evenodd"/><path d="M4351.43 1674.89 4338.01 1682.47C4334.16 1684.63 4329.3 1683.28 4327.1 1679.44L4319.53 1666.02C4317.37 1662.17 4318.72 1657.31 4322.55 1655.11L4335.97 1647.53C4339.82 1645.37 4344.68 1646.72 4346.88 1650.56L4354.45 1663.98C4356.65 1667.82 4355.28 1672.72 4351.43 1674.89Z" stroke="#000000" stroke-width="3.4375" stroke-miterlimit="8" fill="#D6DBD9" fill-rule="evenodd"/><path d="M4820.42 1407.82 4787.09 1426.47C4783.23 1428.63 4778.35 1427.28 4776.14 1423.45L4768.54 1410.06C4766.36 1406.22 4767.72 1401.37 4771.57 1399.18L4804.9 1380.53C4808.76 1378.37 4813.64 1379.72 4815.85 1383.55L4823.45 1396.94C4825.64 1400.81 4824.29 1405.66 4820.42 1407.82L4820.42 1407.82Z" stroke="#000000" stroke-width="3.4375" stroke-miterlimit="8" fill="#D6DBD9" fill-rule="evenodd"/><path d="M4354.41 1726.95 4266.16 1776.46C4262.28 1778.64 4257.38 1777.28 4255.17 1773.44L4247.54 1759.98C4245.36 1756.13 4246.72 1751.25 4250.59 1749.05L4338.84 1699.54C4342.72 1697.36 4347.61 1698.72 4349.83 1702.56L4357.46 1716.02C4359.64 1719.87 4358.29 1724.77 4354.41 1726.95Z" stroke="#000000" stroke-width="3.4375" stroke-miterlimit="8" fill="#D6DBD9" fill-rule="evenodd"/><path d="M4439.32 1679.66 4425.54 1687.44C4421.58 1689.66 4416.59 1688.28 4414.34 1684.33L4406.56 1670.54C4404.34 1666.59 4405.72 1661.6 4409.66 1659.34L4423.45 1651.56C4427.4 1649.34 4432.39 1650.72 4434.65 1654.67L4442.42 1668.46C4444.68 1672.4 4443.27 1677.43 4439.32 1679.66Z" stroke="#000000" stroke-width="3.4375" stroke-miterlimit="8" fill="#D6DBD9" fill-rule="evenodd"/><path d="M4485.42 1653.66 4472.01 1661.44C4468.16 1663.66 4463.3 1662.28 4461.1 1658.33L4453.53 1644.54C4451.37 1640.59 4452.72 1635.6 4456.55 1633.34L4469.97 1625.56C4473.82 1623.34 4478.68 1624.72 4480.88 1628.67L4488.44 1642.46C4490.66 1646.43 4489.27 1651.43 4485.42 1653.66Z" stroke="#000000" stroke-width="3.4375" stroke-miterlimit="8" fill="#D6DBD9" fill-rule="evenodd"/><path d="M4526.42 1629.89 4513.01 1637.47C4509.16 1639.63 4504.3 1638.28 4502.1 1634.44L4494.53 1621.02C4492.37 1617.17 4493.72 1612.31 4497.55 1610.11L4510.97 1602.53C4514.82 1600.37 4519.68 1601.72 4521.88 1605.56L4529.44 1618.98C4531.66 1622.85 4530.27 1627.73 4526.42 1629.89Z" stroke="#000000" stroke-width="3.4375" stroke-miterlimit="8" fill="#D6DBD9" fill-rule="evenodd"/><path d="M4567.44 1606.89 4554.02 1614.47C4550.17 1616.63 4545.3 1615.28 4543.11 1611.44L4535.53 1598.02C4533.37 1594.17 4534.72 1589.31 4538.56 1587.11L4551.98 1579.53C4555.83 1577.37 4560.69 1578.72 4562.89 1582.56L4570.46 1595.98C4572.63 1599.83 4571.29 1604.73 4567.44 1606.89Z" stroke="#000000" stroke-width="3.4375" stroke-miterlimit="8" fill="#D6DBD9" fill-rule="evenodd"/><path d="M4610.43 1582.89 4597.01 1590.47C4593.16 1592.63 4588.3 1591.28 4586.1 1587.44L4578.53 1574.02C4576.37 1570.17 4577.72 1565.31 4581.55 1563.11L4594.98 1555.53C4598.82 1553.37 4603.68 1554.72 4605.88 1558.56L4613.45 1571.98C4615.65 1575.82 4614.27 1580.69 4610.43 1582.89Z" stroke="#000000" stroke-width="3.4375" stroke-miterlimit="8" fill="#D6DBD9" fill-rule="evenodd"/><path d="M4652.44 1558.89 4639.01 1566.47C4635.16 1568.63 4630.3 1567.28 4628.1 1563.44L4620.53 1550.02C4618.37 1546.17 4619.72 1541.31 4623.56 1539.11L4636.98 1531.53C4640.83 1529.37 4645.69 1530.72 4647.89 1534.56L4655.46 1547.98C4657.64 1551.86 4656.29 1556.73 4652.44 1558.89Z" stroke="#000000" stroke-width="3.4375" stroke-miterlimit="8" fill="#D6DBD9" fill-rule="evenodd"/><path d="M4686.42 1535.89 4673.01 1543.47C4669.16 1545.63 4664.3 1544.28 4662.1 1540.44L4654.53 1527.02C4652.37 1523.17 4653.72 1518.31 4657.55 1516.11L4670.97 1508.53C4674.82 1506.37 4679.68 1507.72 4681.88 1511.56L4689.45 1524.98C4691.66 1528.85 4690.27 1533.73 4686.42 1535.89Z" stroke="#000000" stroke-width="3.4375" stroke-miterlimit="8" fill="#D6DBD9" fill-rule="evenodd"/><path d="M4729.32 1511.89 4715.54 1519.47C4711.58 1521.63 4706.59 1520.28 4704.34 1516.44L4696.56 1503.02C4694.34 1499.17 4695.72 1494.31 4699.66 1492.11L4713.45 1484.53C4717.4 1482.37 4722.39 1483.72 4724.65 1487.56L4732.42 1500.98C4734.68 1504.82 4733.27 1509.73 4729.32 1511.89Z" stroke="#000000" stroke-width="3.4375" stroke-miterlimit="8" fill="#D6DBD9" fill-rule="evenodd"/><path d="M4768.44 1489.66 4755.02 1497.44C4751.17 1499.66 4746.3 1498.28 4744.11 1494.33L4736.53 1480.54C4734.37 1476.59 4735.72 1471.6 4739.56 1469.34L4752.98 1461.56C4756.83 1459.34 4761.69 1460.72 4763.89 1464.67L4771.46 1478.46C4773.63 1482.41 4772.29 1487.43 4768.44 1489.66Z" stroke="#000000" stroke-width="3.4375" stroke-miterlimit="8" fill="#D6DBD9" fill-rule="evenodd"/><path d="M4845.4 1441.06 4793.17 1470.46C4789.29 1472.64 4784.39 1471.28 4782.17 1467.42L4774.54 1453.91C4772.36 1450.04 4773.72 1445.15 4777.59 1442.94L4829.82 1413.54C4833.7 1411.36 4838.6 1412.72 4840.82 1416.58L4848.45 1430.09C4850.65 1433.99 4849.28 1438.88 4845.4 1441.06Z" stroke="#000000" stroke-width="3.4375" stroke-miterlimit="8" fill="#D6DBD9" fill-rule="evenodd"/><path d="M4297.42 1809.66 4284 1817.44C4280.16 1819.66 4275.3 1818.28 4273.1 1814.33L4265.53 1800.54C4263.37 1796.59 4264.72 1791.6 4268.55 1789.34L4281.97 1781.56C4285.82 1779.34 4290.67 1780.72 4292.87 1784.67L4300.44 1798.46C4302.65 1802.43 4301.3 1807.42 4297.42 1809.66Z" stroke="#000000" stroke-width="3.4375" stroke-miterlimit="8" fill="#D6DBD9" fill-rule="evenodd"/><path d="M4336.44 1786.89 4323.01 1794.47C4319.16 1796.63 4314.3 1795.28 4312.1 1791.44L4304.53 1778.02C4302.37 1774.17 4303.72 1769.31 4307.56 1767.11L4320.98 1759.53C4324.83 1757.37 4329.69 1758.72 4331.89 1762.56L4339.46 1775.98C4341.64 1779.86 4340.29 1784.73 4336.44 1786.89Z" stroke="#000000" stroke-width="3.4375" stroke-miterlimit="8" fill="#D6DBD9" fill-rule="evenodd"/><path d="M4378.43 1763.66 4365.01 1771.44C4361.16 1773.66 4356.3 1772.28 4354.1 1768.33L4346.53 1754.55C4344.37 1750.59 4345.72 1745.6 4349.55 1743.34L4362.97 1735.56C4366.82 1733.34 4371.68 1734.72 4373.88 1738.67L4381.45 1752.45C4383.65 1756.4 4382.28 1761.44 4378.43 1763.66Z" stroke="#000000" stroke-width="3.4375" stroke-miterlimit="8" fill="#D6DBD9" fill-rule="evenodd"/><path d="M4418.44 1740.89 4405.02 1748.47C4401.17 1750.63 4396.3 1749.28 4394.11 1745.44L4386.53 1732.02C4384.37 1728.17 4385.72 1723.31 4389.56 1721.11L4402.98 1713.53C4406.83 1711.37 4411.69 1712.72 4413.89 1716.56L4421.46 1729.98C4423.63 1733.83 4422.29 1738.73 4418.44 1740.89Z" stroke="#000000" stroke-width="3.4375" stroke-miterlimit="8" fill="#D6DBD9" fill-rule="evenodd"/><path d="M4465.44 1714.89 4452.02 1722.47C4448.17 1724.63 4443.3 1723.28 4441.11 1719.44L4433.53 1706.02C4431.37 1702.17 4432.72 1697.31 4436.56 1695.11L4449.98 1687.53C4453.83 1685.37 4458.69 1686.72 4460.89 1690.56L4468.46 1703.98C4470.63 1707.83 4469.29 1712.72 4465.44 1714.89Z" stroke="#000000" stroke-width="3.4375" stroke-miterlimit="8" fill="#D6DBD9" fill-rule="evenodd"/><path d="M4627.4 1623.21 4493.1 1699.45C4489.23 1701.65 4484.35 1700.28 4482.14 1696.4L4474.54 1682.82C4472.36 1678.93 4473.72 1674.02 4477.57 1671.79L4611.88 1595.55C4615.75 1593.35 4620.63 1594.72 4622.84 1598.6L4630.44 1612.18C4632.66 1616.09 4631.27 1621.02 4627.4 1623.21Z" stroke="#000000" stroke-width="3.4375" stroke-miterlimit="8" fill="#D6DBD9" fill-rule="evenodd"/><path d="M4666.44 1600.89 4653.02 1608.47C4649.17 1610.63 4644.3 1609.28 4642.11 1605.44L4634.53 1592.02C4632.37 1588.17 4633.72 1583.31 4637.56 1581.11L4650.98 1573.53C4654.83 1571.37 4659.69 1572.72 4661.89 1576.56L4669.46 1589.98C4671.63 1593.83 4670.29 1598.73 4666.44 1600.89Z" stroke="#000000" stroke-width="3.4375" stroke-miterlimit="8" fill="#D6DBD9" fill-rule="evenodd"/><path d="M4708.43 1577.89 4695.01 1585.47C4691.16 1587.63 4686.3 1586.28 4684.1 1582.44L4676.53 1569.02C4674.37 1565.17 4675.72 1560.31 4679.55 1558.11L4692.97 1550.53C4696.82 1548.37 4701.68 1549.72 4703.88 1553.56L4711.45 1566.98C4713.65 1570.82 4712.28 1575.72 4708.43 1577.89Z" stroke="#000000" stroke-width="3.4375" stroke-miterlimit="8" fill="#D6DBD9" fill-rule="evenodd"/><path d="M4748.33 1555.66 4734.54 1563.44C4730.59 1565.66 4725.6 1564.28 4723.34 1560.33L4715.56 1546.54C4713.34 1542.59 4714.72 1537.6 4718.67 1535.34L4732.45 1527.56C4736.41 1525.34 4741.4 1526.72 4743.66 1530.67L4751.44 1544.46C4753.67 1548.41 4752.28 1553.4 4748.33 1555.66Z" stroke="#000000" stroke-width="3.4375" stroke-miterlimit="8" fill="#D6DBD9" fill-rule="evenodd"/><path d="M4784.43 1534.89 4771.01 1542.47C4767.16 1544.63 4762.3 1543.28 4760.1 1539.44L4752.53 1526.02C4750.37 1522.17 4751.72 1517.31 4755.55 1515.11L4768.98 1507.53C4772.82 1505.37 4777.68 1506.72 4779.88 1510.56L4787.45 1523.98C4789.65 1527.82 4788.28 1532.73 4784.43 1534.89Z" stroke="#000000" stroke-width="3.4375" stroke-miterlimit="8" fill="#D6DBD9" fill-rule="evenodd"/><path d="M4826.42 1508.89 4813.01 1516.47C4809.16 1518.63 4804.3 1517.28 4802.1 1513.44L4794.53 1500.02C4792.37 1496.17 4793.72 1491.31 4797.55 1489.11L4810.97 1481.53C4814.82 1479.37 4819.68 1480.72 4821.88 1484.56L4829.44 1497.98C4831.66 1501.85 4830.27 1506.73 4826.42 1508.89Z" stroke="#000000" stroke-width="3.4375" stroke-miterlimit="8" fill="#D6DBD9" fill-rule="evenodd"/><path d="M4868.44 1485.89 4855.01 1493.47C4851.16 1495.63 4846.3 1494.28 4844.1 1490.44L4836.53 1477.02C4834.37 1473.17 4835.72 1468.31 4839.56 1466.11L4852.98 1458.53C4856.83 1456.37 4861.69 1457.72 4863.89 1461.56L4871.46 1474.98C4873.64 1478.87 4872.29 1483.72 4868.44 1485.89Z" stroke="#000000" stroke-width="3.4375" stroke-miterlimit="8" fill="#D6DBD9" fill-rule="evenodd"/><path d="M4870.43 1328.89 4857.01 1336.47C4853.16 1338.63 4848.3 1337.28 4846.1 1333.44L4838.53 1320.02C4836.37 1316.17 4837.72 1311.31 4841.55 1309.11L4854.98 1301.53C4858.82 1299.37 4863.68 1300.72 4865.88 1304.56L4873.45 1317.98C4875.65 1321.82 4874.27 1326.69 4870.43 1328.89Z" stroke="#000000" stroke-width="3.4375" stroke-miterlimit="8" fill="#D6DBD9" fill-rule="evenodd"/><path d="M4951.43 1282.89 4938.01 1290.47C4934.16 1292.63 4929.3 1291.28 4927.1 1287.44L4919.53 1274.02C4917.37 1270.17 4918.72 1265.31 4922.55 1263.11L4935.97 1255.53C4939.82 1253.37 4944.68 1254.72 4946.88 1258.56L4954.45 1271.98C4956.65 1275.82 4955.28 1280.73 4951.43 1282.89Z" stroke="#000000" stroke-width="3.4375" stroke-miterlimit="8" fill="#D6DBD9" fill-rule="evenodd"/><path d="M4910.44 1305.89 4897.02 1313.47C4893.17 1315.63 4888.3 1314.28 4886.11 1310.44L4878.53 1297.02C4876.37 1293.17 4877.72 1288.31 4881.56 1286.11L4894.98 1278.53C4898.83 1276.37 4903.69 1277.72 4905.89 1281.56L4913.46 1294.98C4915.63 1298.83 4914.29 1303.73 4910.44 1305.89Z" stroke="#000000" stroke-width="3.4375" stroke-miterlimit="8" fill="#D6DBD9" fill-rule="evenodd"/><path d="M4892.44 1367.66 4879.02 1375.44C4875.17 1377.66 4870.3 1376.28 4868.11 1372.33L4860.53 1358.54C4858.37 1354.59 4859.72 1349.6 4863.56 1347.34L4876.98 1339.56C4880.83 1337.34 4885.69 1338.72 4887.89 1342.67L4895.46 1356.46C4897.63 1360.41 4896.29 1365.43 4892.44 1367.66Z" stroke="#000000" stroke-width="3.4375" stroke-miterlimit="8" fill="#D6DBD9" fill-rule="evenodd"/><path d="M4931.44 1343.89 4918.02 1351.47C4914.17 1353.63 4909.3 1352.28 4907.11 1348.44L4899.53 1335.02C4897.37 1331.17 4898.72 1326.31 4902.56 1324.11L4915.98 1316.53C4919.83 1314.37 4924.69 1315.72 4926.89 1319.56L4934.46 1332.98C4936.63 1336.83 4935.29 1341.73 4931.44 1343.89Z" stroke="#000000" stroke-width="3.4375" stroke-miterlimit="8" fill="#D6DBD9" fill-rule="evenodd"/><path d="M4972.42 1320.89 4959.01 1328.47C4955.16 1330.63 4950.3 1329.28 4948.1 1325.44L4940.53 1312.02C4938.37 1308.17 4939.72 1303.31 4943.55 1301.11L4956.97 1293.53C4960.82 1291.37 4965.68 1292.72 4967.88 1296.56L4975.44 1309.98C4977.65 1313.85 4976.27 1318.73 4972.42 1320.89Z" stroke="#000000" stroke-width="3.4375" stroke-miterlimit="8" fill="#D6DBD9" fill-rule="evenodd"/><path d="M4914.44 1405.89 4901.01 1413.47C4897.16 1415.63 4892.3 1414.28 4890.1 1410.44L4882.53 1397.02C4880.37 1393.17 4881.72 1388.31 4885.56 1386.11L4898.98 1378.53C4902.83 1376.37 4907.69 1377.72 4909.89 1381.56L4917.46 1394.98C4919.64 1398.86 4918.28 1403.72 4914.44 1405.89Z" stroke="#000000" stroke-width="3.4375" stroke-miterlimit="8" fill="#D6DBD9" fill-rule="evenodd"/><path d="M4951.42 1379.89 4938.01 1387.47C4934.16 1389.63 4929.3 1388.28 4927.1 1384.44L4919.53 1371.02C4917.37 1367.17 4918.72 1362.31 4922.55 1360.11L4935.97 1352.53C4939.82 1350.37 4944.68 1351.72 4946.88 1355.56L4954.44 1368.98C4956.66 1372.85 4955.27 1377.72 4951.42 1379.89Z" stroke="#000000" stroke-width="3.4375" stroke-miterlimit="8" fill="#D6DBD9" fill-rule="evenodd"/><path d="M4994.43 1356.89 4981.01 1364.47C4977.16 1366.63 4972.3 1365.28 4970.1 1361.44L4962.53 1348.02C4960.37 1344.17 4961.72 1339.31 4965.55 1337.11L4978.97 1329.53C4982.82 1327.37 4987.68 1328.72 4989.88 1332.56L4997.45 1345.98C4999.65 1349.82 4998.28 1354.73 4994.43 1356.89Z" stroke="#000000" stroke-width="3.4375" stroke-miterlimit="8" fill="#D6DBD9" fill-rule="evenodd"/><path d="M4982.4 1414.97 4921.1 1449.46C4917.23 1451.64 4912.35 1450.28 4910.14 1446.43L4902.54 1432.97C4900.36 1429.11 4901.72 1424.24 4905.57 1422.03L4966.88 1387.54C4970.75 1385.36 4975.63 1386.72 4977.83 1390.57L4985.44 1404.03C4987.66 1407.91 4986.27 1412.8 4982.4 1414.97L4982.4 1414.97Z" stroke="#000000" stroke-width="3.4375" stroke-miterlimit="8" fill="#D6DBD9" fill-rule="evenodd"/><path d="M5016.43 1395.66 5003.01 1403.44C4999.16 1405.66 4994.3 1404.28 4992.1 1400.33L4984.53 1386.54C4982.37 1382.59 4983.72 1377.6 4987.55 1375.34L5000.97 1367.56C5004.82 1365.34 5009.68 1366.72 5011.88 1370.67L5019.45 1384.46C5021.65 1388.4 5020.28 1393.43 5016.43 1395.66Z" stroke="#000000" stroke-width="3.4375" stroke-miterlimit="8" fill="#D6DBD9" fill-rule="evenodd"/><path d="M3768.44 1377.92C3764.97 1387.06 3782.35 1404.21 3806.71 1428.22 3809.98 1431.44 3821.1 1442.18 3837.41 1453.99 3846.33 1460.43 3853.66 1464.9 3856.89 1466.88 3865.67 1472.11 3881.81 1482.05 3903.22 1488.67 3925.07 1495.39 3940.87 1500.27 3961.28 1496.91 3969.27 1495.59 3995.32 1491.33 4001.62 1474.19 4005.27 1464.28 4000.72 1454.2 3999.07 1450.49 3976.08 1399.25 3778.84 1350.41 3768.41 1377.95L3768.44 1377.92Z" fill="#5B5742" fill-rule="evenodd" fill-opacity="0.431373"/><path d="M3745.04 1147.08C3753.84 1132.09 3759.25 1130.04 3762.45 1130.58 3770.02 1131.85 3769.99 1148.6 3783.64 1174.89 3788.28 1183.82 3792.41 1190.12 3795.9 1195.45 3819.52 1227.09 3858.62 1274.8 3885.77 1309.22 3933.23 1361.81 3945.71 1379.25 3982.45 1423.14 3985.18 1425.75 3993.37 1433.5 3996.53 1445.93 4011.39 1522.9 3850.27 1436.28 3834.26 1425.61 3802.11 1405.39 3802.52 1398.97 3750.52 1356.51 3697.96 1313.61 3690.21 1314.19 3685.5 1298.68 3687.81 1279.81 3692.27 1256.97 3700.9 1231.95 3713.59 1195.19 3730.77 1166.83 3745.04 1147.08Z" stroke="#000000" stroke-width="20.625" stroke-miterlimit="8" fill="#EBE2B3" fill-rule="evenodd"/><path d="M4611.6 1474.03C4629.82 1444.88 4465.14 1318.04 4420.56 1326.39 4416.01 1327.26 4403.21 1329.33 4399.82 1337.77 4397.18 1344.4 4401.51 1351.95 4404.6 1356.91 4418.95 1380.04 4434.13 1391.83 4455.59 1413.35 4471.56 1429.35 4478.06 1436.66 4492.87 1447.22 4501.79 1453.57 4509.3 1457.83 4512.89 1459.77 4518.32 1462.77 4532.42 1470.16 4546.5 1474.31 4563.66 1479.41 4603.81 1486.52 4611.6 1474.03L4611.6 1474.03Z" fill="#5B5742" fill-rule="evenodd" fill-opacity="0.431373"/><path d="M4424 1166.92C4422.63 1169.29 4421.25 1171.63 4419.87 1173.94 4417.71 1178.33 4414.19 1185.93 4410.8 1195.72 4399 1229.82 4405.2 1238.81 4395.75 1262.11 4388.01 1281.22 4386.49 1288.54 4386.5 1299.6 4401.66 1326.71 4433.62 1375 4492.13 1412.86 4528.13 1436.15 4562.55 1447.98 4587.55 1454.25 4611.74 1459.2 4620.27 1455.1 4623.61 1450.48 4632.07 1438.79 4612.47 1416.29 4558.6 1329.5 4547.27 1311.27 4537.06 1294.34 4516.55 1260.46 4498.91 1231.33 4490.04 1216.65 4486.52 1210.07 4477.21 1192.63 4471.84 1180.64 4459.98 1163.23 4454.16 1154.68 4451.94 1144.11 4445.26 1143.53 4439.19 1143 4433.71 1150.25 4430.81 1154.81 4428.63 1158.8 4426.36 1162.84 4424 1166.92Z" stroke="#000000" stroke-width="20.625" stroke-miterlimit="8" fill="#EBE2B3" fill-rule="evenodd"/></g></svg>