<svg width="1004" height="749" xmlns="http://www.w3.org/2000/svg" xmlns:xlink="http://www.w3.org/1999/xlink" xml:space="preserve" overflow="hidden"><g transform="translate(-3289 -946)"><path d="M3469.4 960.641 4265.89 1406.94C4281.55 1415.72 4287.11 1435.5 4278.35 1451.13L4156.78 1667.9C4148 1683.55 4128.2 1689.11 4112.57 1680.35L3316.11 1234.08C3300.45 1225.3 3294.89 1205.51 3303.65 1189.89L3425.22 973.117C3433.95 957.472 3453.77 951.883 3469.4 960.641L3469.4 960.641Z" stroke="#000000" stroke-width="20.625" stroke-miterlimit="8" fill="#A6A897" fill-rule="evenodd"/><path d="M3937.98 1495.53 3963.4 1509.86C3967.26 1512.04 3968.63 1516.93 3966.49 1520.83L3958.94 1534.38C3956.77 1538.26 3951.91 1539.64 3948.02 1537.49L3922.6 1523.15C3918.74 1520.97 3917.37 1516.09 3919.51 1512.18L3927.06 1498.64C3929.25 1494.74 3934.11 1493.35 3937.98 1495.53Z" stroke="#000000" stroke-width="3.4375" stroke-miterlimit="8" fill="#D6DBD9" fill-rule="evenodd"/><path d="M3816.37 1427.53 3842.31 1441.86C3846.25 1444.04 3847.66 1448.93 3845.47 1452.83L3837.76 1466.38C3835.55 1470.26 3830.59 1471.64 3826.63 1469.49L3800.69 1455.15C3796.75 1452.97 3795.34 1448.09 3797.53 1444.18L3805.23 1430.64C3807.45 1426.76 3812.43 1425.35 3816.37 1427.53Z" stroke="#000000" stroke-width="3.4375" stroke-miterlimit="8" fill="#D6DBD9" fill-rule="evenodd"/><path d="M4101.37 1587.53 4127.31 1601.86C4131.25 1604.04 4132.65 1608.93 4130.47 1612.83L4122.77 1626.38C4120.55 1630.26 4115.59 1631.64 4111.63 1629.49L4085.69 1615.15C4081.75 1612.97 4080.34 1608.08 4082.53 1604.18L4090.24 1590.64C4092.42 1586.74 4097.43 1585.35 4101.37 1587.53Z" stroke="#000000" stroke-width="3.4375" stroke-miterlimit="8" fill="#D6DBD9" fill-rule="evenodd"/><path d="M4047.37 1556.53 4073.31 1570.87C4077.25 1573.04 4078.66 1577.93 4076.47 1581.83L4068.76 1595.38C4066.55 1599.26 4061.59 1600.64 4057.63 1598.49L4031.69 1584.15C4027.75 1581.97 4026.34 1577.09 4028.53 1573.19L4036.23 1559.65C4038.44 1555.72 4043.43 1554.36 4047.37 1556.53Z" stroke="#000000" stroke-width="3.4375" stroke-miterlimit="8" fill="#D6DBD9" fill-rule="evenodd"/><path d="M3604.37 1308.52 3630.31 1322.86C3634.25 1325.04 3635.66 1329.93 3633.47 1333.83L3625.77 1347.38C3623.55 1351.26 3618.59 1352.64 3614.63 1350.49L3588.69 1336.15C3584.75 1333.97 3583.35 1329.08 3585.53 1325.18L3593.24 1311.63C3595.42 1307.73 3600.41 1306.37 3604.37 1308.52Z" stroke="#000000" stroke-width="3.4375" stroke-miterlimit="8" fill="#D6DBD9" fill-rule="evenodd"/><path d="M3991.98 1525.53 4017.4 1539.86C4021.26 1542.04 4022.63 1546.93 4020.49 1550.83L4012.94 1564.38C4010.77 1568.26 4005.91 1569.64 4002.02 1567.49L3976.6 1553.15C3972.74 1550.97 3971.37 1546.08 3973.51 1542.18L3981.06 1528.64C3983.2 1524.74 3988.11 1523.35 3991.98 1525.53Z" stroke="#000000" stroke-width="3.4375" stroke-miterlimit="8" fill="#D6DBD9" fill-rule="evenodd"/><path d="M3761.98 1396.53 3787.4 1410.86C3791.26 1413.04 3792.63 1417.93 3790.49 1421.83L3782.94 1435.38C3780.77 1439.26 3775.91 1440.64 3772.02 1438.49L3746.6 1424.15C3742.74 1421.97 3741.37 1417.08 3743.51 1413.18L3751.06 1399.64C3753.23 1395.75 3758.11 1394.35 3761.98 1396.53Z" stroke="#000000" stroke-width="3.4375" stroke-miterlimit="8" fill="#D6DBD9" fill-rule="evenodd"/><path d="M3709.98 1367.53 3735.4 1381.86C3739.26 1384.04 3740.63 1388.93 3738.49 1392.83L3730.94 1406.38C3728.77 1410.26 3723.91 1411.64 3720.02 1409.49L3694.6 1395.15C3690.74 1392.97 3689.37 1388.09 3691.51 1384.18L3699.06 1370.64C3701.25 1366.73 3706.11 1365.35 3709.98 1367.53Z" stroke="#000000" stroke-width="3.4375" stroke-miterlimit="8" fill="#D6DBD9" fill-rule="evenodd"/><path d="M3656.98 1338.53 3682.4 1352.86C3686.26 1355.04 3687.63 1359.93 3685.49 1363.83L3677.94 1377.38C3675.77 1381.26 3670.91 1382.64 3667.02 1380.49L3641.6 1366.15C3637.74 1363.97 3636.37 1359.08 3638.51 1355.18L3646.06 1341.64C3648.2 1337.74 3653.11 1336.35 3656.98 1338.53Z" stroke="#000000" stroke-width="3.4375" stroke-miterlimit="8" fill="#D6DBD9" fill-rule="evenodd"/><path d="M3876.98 1461.54 3902.4 1475.87C3906.26 1478.05 3907.63 1482.93 3905.49 1486.83L3897.94 1500.38C3895.77 1504.26 3890.91 1505.64 3887.02 1503.49L3861.6 1489.15C3857.74 1486.98 3856.37 1482.09 3858.51 1478.19L3866.06 1464.64C3868.22 1460.72 3873.11 1459.36 3876.98 1461.54Z" stroke="#000000" stroke-width="3.4375" stroke-miterlimit="8" fill="#D6DBD9" fill-rule="evenodd"/><path d="M3542.98 1276.53 3568.4 1290.87C3572.26 1293.04 3573.63 1297.93 3571.49 1301.84L3563.94 1315.38C3561.77 1319.26 3556.91 1320.64 3553.02 1318.49L3527.6 1304.15C3523.74 1301.97 3522.37 1297.08 3524.51 1293.18L3532.06 1279.64C3534.2 1275.74 3539.11 1274.35 3542.98 1276.53Z" stroke="#000000" stroke-width="3.4375" stroke-miterlimit="8" fill="#D6DBD9" fill-rule="evenodd"/><path d="M4098.15 1533.54 4150.36 1562.79C4154.26 1564.97 4155.64 1569.88 4153.48 1573.79L4145.86 1587.37C4143.68 1591.26 4138.77 1592.64 4134.85 1590.48L4082.64 1561.23C4078.74 1559.05 4077.36 1554.15 4079.52 1550.24L4087.14 1536.66C4089.32 1532.72 4094.25 1531.35 4098.15 1533.54Z" stroke="#000000" stroke-width="3.4375" stroke-miterlimit="8" fill="#D6DBD9" fill-rule="evenodd"/><path d="M4054.95 1509.53 4068.4 1517.06C4072.26 1519.23 4073.63 1524.08 4071.49 1527.96L4063.95 1541.4C4061.79 1545.26 4056.93 1546.63 4053.05 1544.49L4039.6 1536.96C4035.74 1534.79 4034.37 1529.94 4036.51 1526.06L4044.05 1512.61C4046.23 1508.73 4051.09 1507.36 4054.95 1509.53Z" stroke="#000000" stroke-width="3.4375" stroke-miterlimit="8" fill="#D6DBD9" fill-rule="evenodd"/><path d="M4014.95 1486.55 4028.4 1494.29C4032.26 1496.52 4033.63 1501.5 4031.49 1505.48L4023.95 1519.29C4021.79 1523.25 4016.93 1524.66 4013.05 1522.47L3999.6 1514.72C3995.74 1512.5 3994.37 1507.51 3996.51 1503.54L4004.05 1489.72C4006.19 1485.74 4011.09 1484.33 4014.95 1486.55Z" stroke="#000000" stroke-width="3.4375" stroke-miterlimit="8" fill="#D6DBD9" fill-rule="evenodd"/><path d="M3972.95 1463.52 3986.4 1471.06C3990.26 1473.22 3991.63 1478.08 3989.49 1481.95L3981.95 1495.4C3979.79 1499.26 3974.93 1500.63 3971.05 1498.49L3957.6 1490.96C3953.74 1488.79 3952.37 1483.93 3954.51 1480.06L3962.05 1466.61C3964.18 1462.74 3969.09 1461.36 3972.95 1463.52Z" stroke="#000000" stroke-width="3.4375" stroke-miterlimit="8" fill="#D6DBD9" fill-rule="evenodd"/><path d="M3933.47 1441.52 3947.29 1449.06C3951.25 1451.22 3952.66 1456.08 3950.46 1459.96L3942.72 1473.4C3940.5 1477.26 3935.51 1478.63 3931.53 1476.49L3917.71 1468.96C3913.75 1466.79 3912.34 1461.93 3914.53 1458.06L3922.28 1444.61C3924.52 1440.73 3929.51 1439.36 3933.47 1441.52L3933.47 1441.52Z" stroke="#000000" stroke-width="3.4375" stroke-miterlimit="8" fill="#D6DBD9" fill-rule="evenodd"/><path d="M3885.95 1414.52 3899.4 1422.06C3903.26 1424.22 3904.63 1429.08 3902.49 1432.95L3894.95 1446.41C3892.79 1450.26 3887.93 1451.63 3884.05 1449.49L3870.6 1441.96C3866.74 1439.79 3865.37 1434.94 3867.51 1431.06L3875.05 1417.61C3877.19 1413.73 3882.09 1412.36 3885.95 1414.52Z" stroke="#000000" stroke-width="3.4375" stroke-miterlimit="8" fill="#D6DBD9" fill-rule="evenodd"/><path d="M3846.95 1391.56 3860.4 1399.29C3864.26 1401.52 3865.63 1406.5 3863.49 1410.48L3855.95 1424.29C3853.79 1428.25 3848.93 1429.66 3845.05 1427.47L3831.6 1419.73C3827.74 1417.5 3826.37 1412.52 3828.51 1408.54L3836.05 1394.72C3838.21 1390.72 3843.09 1389.34 3846.95 1391.56Z" stroke="#000000" stroke-width="3.4375" stroke-miterlimit="8" fill="#D6DBD9" fill-rule="evenodd"/><path d="M3804.95 1368.52 3818.4 1376.06C3822.26 1378.22 3823.63 1383.08 3821.49 1386.95L3813.95 1400.41C3811.79 1404.26 3806.93 1405.63 3803.05 1403.49L3789.6 1395.96C3785.74 1393.79 3784.37 1388.94 3786.51 1385.06L3794.05 1371.61C3796.23 1367.73 3801.09 1366.36 3804.95 1368.52Z" stroke="#000000" stroke-width="3.4375" stroke-miterlimit="8" fill="#D6DBD9" fill-rule="evenodd"/><path d="M3766.95 1347.55 3780.4 1355.29C3784.26 1357.51 3785.63 1362.5 3783.49 1366.48L3775.95 1380.29C3773.79 1384.25 3768.93 1385.66 3765.05 1383.47L3751.6 1375.72C3747.74 1373.5 3746.37 1368.51 3748.51 1364.54L3756.05 1350.72C3758.21 1346.76 3763.09 1345.32 3766.95 1347.55Z" stroke="#000000" stroke-width="3.4375" stroke-miterlimit="8" fill="#D6DBD9" fill-rule="evenodd"/><path d="M3723.95 1323.52 3737.4 1331.06C3741.26 1333.22 3742.63 1338.08 3740.49 1341.95L3732.95 1355.4C3730.79 1359.26 3725.93 1360.63 3722.05 1358.49L3708.6 1350.95C3704.74 1348.79 3703.37 1343.93 3705.51 1340.06L3713.05 1326.61C3715.21 1322.75 3720.09 1321.36 3723.95 1323.52Z" stroke="#000000" stroke-width="3.4375" stroke-miterlimit="8" fill="#D6DBD9" fill-rule="evenodd"/><path d="M3684.95 1301.52 3698.4 1309.06C3702.26 1311.22 3703.63 1316.08 3701.49 1319.95L3693.95 1333.4C3691.79 1337.26 3686.93 1338.63 3683.05 1336.49L3669.6 1328.96C3665.74 1326.79 3664.37 1321.93 3666.51 1318.06L3674.05 1304.61C3676.19 1300.74 3681.09 1299.36 3684.95 1301.52Z" stroke="#000000" stroke-width="3.4375" stroke-miterlimit="8" fill="#D6DBD9" fill-rule="evenodd"/><path d="M3642.95 1278.53 3656.4 1286.06C3660.26 1288.23 3661.63 1293.08 3659.49 1296.96L3651.95 1310.41C3649.79 1314.26 3644.93 1315.63 3641.05 1313.49L3627.6 1305.96C3623.74 1303.79 3622.37 1298.94 3624.51 1295.07L3632.05 1281.62C3634.21 1277.71 3639.09 1276.37 3642.95 1278.53Z" stroke="#000000" stroke-width="3.4375" stroke-miterlimit="8" fill="#D6DBD9" fill-rule="evenodd"/><path d="M3602.95 1255.55 3616.4 1263.29C3620.26 1265.52 3621.63 1270.5 3619.49 1274.48L3611.95 1288.29C3609.79 1292.25 3604.93 1293.66 3601.05 1291.47L3587.6 1283.73C3583.74 1281.5 3582.37 1276.52 3584.51 1272.54L3592.05 1258.72C3594.23 1254.74 3599.09 1253.33 3602.95 1255.55Z" stroke="#000000" stroke-width="3.4375" stroke-miterlimit="8" fill="#D6DBD9" fill-rule="evenodd"/><path d="M3566.95 1235.53 3580.4 1243.06C3584.26 1245.23 3585.63 1250.08 3583.49 1253.96L3575.95 1267.41C3573.79 1271.26 3568.93 1272.63 3565.05 1270.49L3551.6 1262.96C3547.74 1260.79 3546.37 1255.94 3548.51 1252.06L3556.05 1238.62C3558.21 1234.72 3563.09 1233.37 3566.95 1235.53Z" stroke="#000000" stroke-width="3.4375" stroke-miterlimit="8" fill="#D6DBD9" fill-rule="evenodd"/><path d="M4021.95 1437.52 4035.4 1445.06C4039.26 1447.22 4040.63 1452.08 4038.49 1455.95L4030.95 1469.4C4028.79 1473.26 4023.93 1474.63 4020.05 1472.49L4006.6 1464.95C4002.74 1462.79 4001.37 1457.93 4003.51 1454.06L4011.05 1440.61C4013.21 1436.75 4018.09 1435.36 4021.95 1437.52Z" stroke="#000000" stroke-width="3.4375" stroke-miterlimit="8" fill="#D6DBD9" fill-rule="evenodd"/><path d="M3977.95 1412.52 3991.4 1420.05C3995.26 1422.22 3996.63 1427.07 3994.49 1430.95L3986.95 1444.4C3984.79 1448.26 3979.93 1449.63 3976.05 1447.49L3962.6 1439.96C3958.74 1437.79 3957.37 1432.94 3959.51 1429.06L3967.05 1415.61C3969.21 1411.75 3974.09 1410.36 3977.95 1412.52Z" stroke="#000000" stroke-width="3.4375" stroke-miterlimit="8" fill="#D6DBD9" fill-rule="evenodd"/><path d="M3936.95 1389.52 3950.4 1397.06C3954.26 1399.23 3955.63 1404.08 3953.49 1407.96L3945.95 1421.4C3943.79 1425.26 3938.93 1426.63 3935.05 1424.49L3921.6 1416.96C3917.74 1414.79 3916.37 1409.94 3918.51 1406.06L3926.05 1392.61C3928.19 1388.74 3933.09 1387.36 3936.95 1389.52Z" stroke="#000000" stroke-width="3.4375" stroke-miterlimit="8" fill="#D6DBD9" fill-rule="evenodd"/><path d="M3895.47 1366.52 3909.29 1374.06C3913.25 1376.22 3914.66 1381.08 3912.47 1384.96L3904.72 1398.4C3902.5 1402.26 3897.51 1403.63 3893.53 1401.49L3879.71 1393.96C3875.75 1391.79 3874.34 1386.93 3876.53 1383.06L3884.28 1369.61C3886.52 1365.73 3891.51 1364.36 3895.47 1366.52Z" stroke="#000000" stroke-width="3.4375" stroke-miterlimit="8" fill="#D6DBD9" fill-rule="evenodd"/><path d="M3852.47 1342.52 3866.29 1350.06C3870.25 1352.23 3871.66 1357.08 3869.47 1360.96L3861.72 1374.4C3859.5 1378.26 3854.51 1379.63 3850.53 1377.49L3836.71 1369.96C3832.75 1367.79 3831.34 1362.94 3833.53 1359.06L3841.28 1345.61C3843.47 1341.73 3848.51 1340.36 3852.47 1342.52Z" stroke="#000000" stroke-width="3.4375" stroke-miterlimit="8" fill="#D6DBD9" fill-rule="evenodd"/><path d="M3810.47 1318.55 3824.29 1326.29C3828.25 1328.52 3829.66 1333.5 3827.46 1337.48L3819.72 1351.29C3817.5 1355.25 3812.51 1356.66 3808.53 1354.47L3794.71 1346.72C3790.75 1344.5 3789.34 1339.51 3791.53 1335.54L3799.28 1321.72C3801.47 1317.74 3806.51 1316.33 3810.47 1318.55Z" stroke="#000000" stroke-width="3.4375" stroke-miterlimit="8" fill="#D6DBD9" fill-rule="evenodd"/><path d="M3772.95 1301.56 3786.4 1309.3C3790.26 1311.52 3791.63 1316.5 3789.49 1320.48L3781.95 1334.29C3779.79 1338.25 3774.93 1339.66 3771.05 1337.47L3757.6 1329.73C3753.74 1327.5 3752.37 1322.52 3754.51 1318.54L3762.05 1304.73C3764.21 1300.72 3769.09 1299.34 3772.95 1301.56Z" stroke="#000000" stroke-width="3.4375" stroke-miterlimit="8" fill="#D6DBD9" fill-rule="evenodd"/><path d="M3729.95 1277.56 3743.4 1285.3C3747.26 1287.52 3748.63 1292.5 3746.49 1296.48L3738.95 1310.3C3736.79 1314.25 3731.93 1315.66 3728.05 1313.47L3714.6 1305.73C3710.74 1303.5 3709.37 1298.52 3711.51 1294.54L3719.05 1280.73C3721.21 1276.72 3726.09 1275.33 3729.95 1277.56Z" stroke="#000000" stroke-width="3.4375" stroke-miterlimit="8" fill="#D6DBD9" fill-rule="evenodd"/><path d="M3690.95 1255.52 3704.4 1263.06C3708.26 1265.22 3709.63 1270.08 3707.49 1273.95L3699.95 1287.41C3697.79 1291.26 3692.93 1292.63 3689.05 1290.49L3675.6 1282.96C3671.74 1280.79 3670.37 1275.94 3672.51 1272.06L3680.05 1258.61C3682.23 1254.73 3687.09 1253.36 3690.95 1255.52Z" stroke="#000000" stroke-width="3.4375" stroke-miterlimit="8" fill="#D6DBD9" fill-rule="evenodd"/><path d="M3648.95 1232.52 3662.4 1240.06C3666.26 1242.22 3667.63 1247.08 3665.49 1250.95L3657.95 1264.4C3655.79 1268.26 3650.93 1269.63 3647.05 1267.49L3633.6 1259.95C3629.74 1257.79 3628.37 1252.93 3630.51 1249.06L3638.05 1235.61C3640.21 1231.75 3645.09 1230.36 3648.95 1232.52Z" stroke="#000000" stroke-width="3.4375" stroke-miterlimit="8" fill="#D6DBD9" fill-rule="evenodd"/><path d="M4103.95 1482.53 4173.4 1521.8C4177.26 1523.98 4178.63 1528.88 4176.49 1532.79L4168.95 1546.37C4166.78 1550.26 4161.93 1551.64 4158.05 1549.48L4088.6 1510.22C4084.74 1508.04 4083.37 1503.13 4085.51 1499.22L4093.05 1485.65C4095.19 1481.74 4100.1 1480.35 4103.95 1482.53Z" stroke="#000000" stroke-width="3.4375" stroke-miterlimit="8" fill="#D6DBD9" fill-rule="evenodd"/><path d="M4065.95 1406.52 4079.4 1414.06C4083.26 1416.22 4084.63 1421.08 4082.49 1424.95L4074.95 1438.4C4072.79 1442.26 4067.93 1443.63 4064.05 1441.49L4050.6 1433.95C4046.74 1431.79 4045.37 1426.93 4047.51 1423.06L4055.05 1409.61C4057.21 1405.75 4062.09 1404.36 4065.95 1406.52Z" stroke="#000000" stroke-width="3.4375" stroke-miterlimit="8" fill="#D6DBD9" fill-rule="evenodd"/><path d="M4064.95 1461.52 4078.4 1469.06C4082.26 1471.23 4083.63 1476.08 4081.49 1479.96L4073.95 1493.4C4071.79 1497.26 4066.93 1498.63 4063.05 1496.49L4049.6 1488.96C4045.74 1486.79 4044.37 1481.94 4046.51 1478.06L4054.05 1464.61C4056.19 1460.74 4061.09 1459.36 4064.95 1461.52Z" stroke="#000000" stroke-width="3.4375" stroke-miterlimit="8" fill="#D6DBD9" fill-rule="evenodd"/><path d="M3593.02 1199.52 3626.39 1218.12C3630.26 1220.28 3631.63 1225.12 3629.49 1228.99L3621.92 1242.41C3619.75 1246.26 3614.87 1247.63 3610.98 1245.49L3577.61 1226.89C3573.74 1224.73 3572.37 1219.89 3574.51 1216.02L3582.08 1202.6C3584.27 1198.73 3589.15 1197.36 3593.02 1199.52L3593.02 1199.52Z" stroke="#000000" stroke-width="3.4375" stroke-miterlimit="8" fill="#D6DBD9" fill-rule="evenodd"/><path d="M4108.06 1431.52 4196.38 1480.93C4200.26 1483.11 4201.64 1487.98 4199.49 1491.87L4191.9 1505.39C4189.73 1509.26 4184.84 1510.64 4180.94 1508.49L4092.62 1459.08C4088.74 1456.91 4087.36 1452.03 4089.51 1448.14L4097.1 1434.63C4099.28 1430.75 4104.18 1429.35 4108.06 1431.52Z" stroke="#000000" stroke-width="3.4375" stroke-miterlimit="8" fill="#D6DBD9" fill-rule="evenodd"/><path d="M4022.95 1384.53 4036.4 1392.06C4040.26 1394.23 4041.63 1399.08 4039.49 1402.96L4031.95 1416.4C4029.79 1420.26 4024.93 1421.63 4021.05 1419.49L4007.6 1411.96C4003.74 1409.79 4002.37 1404.94 4004.51 1401.06L4012.05 1387.61C4014.18 1383.73 4019.09 1382.36 4022.95 1384.53Z" stroke="#000000" stroke-width="3.4375" stroke-miterlimit="8" fill="#D6DBD9" fill-rule="evenodd"/><path d="M3976.95 1358.53 3990.4 1366.06C3994.26 1368.23 3995.63 1373.08 3993.49 1376.96L3985.95 1390.41C3983.79 1394.26 3978.93 1395.63 3975.05 1393.49L3961.6 1385.96C3957.74 1383.79 3956.37 1378.94 3958.51 1375.06L3966.05 1361.61C3968.21 1357.72 3973.09 1356.37 3976.95 1358.53Z" stroke="#000000" stroke-width="3.4375" stroke-miterlimit="8" fill="#D6DBD9" fill-rule="evenodd"/><path d="M3935.95 1334.56 3949.4 1342.3C3953.26 1344.52 3954.63 1349.5 3952.49 1353.48L3944.95 1367.3C3942.79 1371.25 3937.93 1372.66 3934.05 1370.47L3920.6 1362.73C3916.74 1360.5 3915.37 1355.52 3917.51 1351.54L3925.05 1337.73C3927.21 1333.72 3932.09 1332.33 3935.95 1334.56Z" stroke="#000000" stroke-width="3.4375" stroke-miterlimit="8" fill="#D6DBD9" fill-rule="evenodd"/><path d="M3894.47 1312.52 3908.29 1320.06C3912.25 1322.22 3913.66 1327.08 3911.47 1330.95L3903.72 1344.4C3901.5 1348.26 3896.51 1349.63 3892.53 1347.49L3878.71 1339.95C3874.75 1337.79 3873.34 1332.93 3875.53 1329.06L3883.28 1315.61C3885.5 1311.75 3890.51 1310.36 3894.47 1312.52Z" stroke="#000000" stroke-width="3.4375" stroke-miterlimit="8" fill="#D6DBD9" fill-rule="evenodd"/><path d="M3851.47 1288.51 3865.29 1296.05C3869.25 1298.22 3870.66 1303.07 3868.47 1306.95L3860.72 1320.4C3858.5 1324.26 3853.51 1325.63 3849.53 1323.49L3835.71 1315.95C3831.75 1313.79 3830.34 1308.94 3832.54 1305.06L3840.28 1291.6C3842.47 1287.73 3847.49 1286.37 3851.47 1288.51Z" stroke="#000000" stroke-width="3.4375" stroke-miterlimit="8" fill="#D6DBD9" fill-rule="evenodd"/><path d="M3808.95 1264.53 3822.4 1272.06C3826.26 1274.23 3827.63 1279.08 3825.49 1282.95L3817.95 1296.41C3815.79 1300.26 3810.93 1301.63 3807.05 1299.49L3793.6 1291.96C3789.74 1289.79 3788.37 1284.94 3790.51 1281.06L3798.05 1267.61C3800.23 1263.73 3805.09 1262.36 3808.95 1264.53Z" stroke="#000000" stroke-width="3.4375" stroke-miterlimit="8" fill="#D6DBD9" fill-rule="evenodd"/><path d="M3771.95 1247.53 3785.4 1255.06C3789.26 1257.22 3790.63 1262.08 3788.49 1265.96L3780.95 1279.41C3778.79 1283.26 3773.93 1284.63 3770.05 1282.49L3756.6 1274.96C3752.74 1272.79 3751.37 1267.94 3753.51 1264.06L3761.05 1250.61C3763.21 1246.72 3768.09 1245.37 3771.95 1247.53Z" stroke="#000000" stroke-width="3.4375" stroke-miterlimit="8" fill="#D6DBD9" fill-rule="evenodd"/><path d="M3728.95 1223.52 3742.4 1231.06C3746.26 1233.22 3747.63 1238.08 3745.49 1241.95L3737.95 1255.4C3735.79 1259.26 3730.93 1260.63 3727.05 1258.49L3713.6 1250.96C3709.74 1248.79 3708.37 1243.94 3710.51 1240.06L3718.05 1226.61C3720.19 1222.74 3725.09 1221.36 3728.95 1223.52Z" stroke="#000000" stroke-width="3.4375" stroke-miterlimit="8" fill="#D6DBD9" fill-rule="evenodd"/><path d="M3689.95 1201.52 3703.4 1209.06C3707.26 1211.22 3708.63 1216.08 3706.49 1219.95L3698.95 1233.4C3696.79 1237.26 3691.93 1238.63 3688.05 1236.49L3674.6 1228.95C3670.74 1226.79 3669.37 1221.93 3671.51 1218.06L3679.05 1204.61C3681.21 1200.75 3686.09 1199.35 3689.95 1201.52Z" stroke="#000000" stroke-width="3.4375" stroke-miterlimit="8" fill="#D6DBD9" fill-rule="evenodd"/><path d="M3609.08 1160.53 3661.38 1189.85C3665.26 1192.03 3666.64 1196.92 3664.49 1200.82L3656.89 1214.37C3654.71 1218.26 3649.82 1219.64 3645.92 1217.49L3593.63 1188.17C3589.74 1185.99 3588.36 1181.1 3590.51 1177.19L3598.11 1163.64C3600.31 1159.74 3605.2 1158.35 3609.08 1160.53Z" stroke="#000000" stroke-width="3.4375" stroke-miterlimit="8" fill="#D6DBD9" fill-rule="evenodd"/><path d="M4207.95 1437.54 4221.4 1445.07C4225.26 1447.24 4226.63 1452.09 4224.49 1455.96L4216.95 1469.41C4214.79 1473.26 4209.93 1474.63 4206.05 1472.49L4192.6 1464.96C4188.74 1462.8 4187.37 1457.94 4189.51 1454.07L4197.05 1440.63C4199.21 1436.72 4204.06 1435.35 4207.95 1437.54Z" stroke="#000000" stroke-width="3.4375" stroke-miterlimit="8" fill="#D6DBD9" fill-rule="evenodd"/><path d="M4168.47 1415.53 4182.29 1423.06C4186.25 1425.23 4187.66 1430.08 4185.47 1433.95L4177.72 1447.41C4175.5 1451.26 4170.51 1452.63 4166.53 1450.49L4152.71 1442.96C4148.75 1440.8 4147.34 1435.94 4149.54 1432.06L4157.28 1418.61C4159.52 1414.73 4164.51 1413.36 4168.47 1415.53Z" stroke="#000000" stroke-width="3.4375" stroke-miterlimit="8" fill="#D6DBD9" fill-rule="evenodd"/><path d="M4125.95 1391.55 4139.4 1399.29C4143.26 1401.51 4144.63 1406.5 4142.49 1410.48L4134.95 1424.29C4132.79 1428.25 4127.93 1429.66 4124.05 1427.47L4110.6 1419.73C4106.74 1417.5 4105.37 1412.52 4107.51 1408.54L4115.05 1394.72C4117.19 1390.74 4122.09 1389.33 4125.95 1391.55Z" stroke="#000000" stroke-width="3.4375" stroke-miterlimit="8" fill="#D6DBD9" fill-rule="evenodd"/><path d="M4086.95 1369.52 4100.4 1377.06C4104.26 1379.22 4105.63 1384.08 4103.49 1387.95L4095.95 1401.4C4093.79 1405.26 4088.93 1406.63 4085.05 1404.49L4071.6 1396.95C4067.74 1394.79 4066.37 1389.93 4068.51 1386.06L4076.05 1372.61C4078.21 1368.75 4083.09 1367.35 4086.95 1369.52Z" stroke="#000000" stroke-width="3.4375" stroke-miterlimit="8" fill="#D6DBD9" fill-rule="evenodd"/><path d="M4039.95 1342.52 4053.4 1350.06C4057.26 1352.22 4058.63 1357.08 4056.49 1360.95L4048.95 1374.4C4046.79 1378.26 4041.93 1379.63 4038.05 1377.49L4024.6 1369.95C4020.74 1367.79 4019.37 1362.93 4021.51 1359.06L4029.05 1345.61C4031.21 1341.75 4036.09 1340.36 4039.95 1342.52Z" stroke="#000000" stroke-width="3.4375" stroke-miterlimit="8" fill="#D6DBD9" fill-rule="evenodd"/><path d="M3878 1252.53 4012.39 1327.94C4016.26 1330.11 4017.63 1334.99 4015.49 1338.88L4007.93 1352.39C4005.76 1356.26 4000.89 1357.63 3997 1355.49L3862.61 1280.08C3858.74 1277.91 3857.37 1273.03 3859.51 1269.14L3867.07 1255.64C3869.24 1251.72 3874.13 1250.36 3878 1252.53Z" stroke="#000000" stroke-width="3.4375" stroke-miterlimit="8" fill="#D6DBD9" fill-rule="evenodd"/><path d="M3837.95 1230.52 3851.4 1238.05C3855.26 1240.22 3856.63 1245.07 3854.49 1248.95L3846.95 1262.4C3844.79 1266.26 3839.93 1267.63 3836.05 1265.49L3822.6 1257.96C3818.74 1255.79 3817.37 1250.93 3819.51 1247.06L3827.05 1233.61C3829.21 1229.76 3834.09 1228.36 3837.95 1230.52Z" stroke="#000000" stroke-width="3.4375" stroke-miterlimit="8" fill="#D6DBD9" fill-rule="evenodd"/><path d="M3795.95 1206.52 3809.4 1214.06C3813.26 1216.22 3814.63 1221.08 3812.49 1224.95L3804.95 1238.41C3802.79 1242.26 3797.93 1243.63 3794.05 1241.49L3780.6 1233.96C3776.74 1231.79 3775.37 1226.94 3777.51 1223.06L3785.05 1209.61C3787.19 1205.73 3792.09 1204.36 3795.95 1206.52Z" stroke="#000000" stroke-width="3.4375" stroke-miterlimit="8" fill="#D6DBD9" fill-rule="evenodd"/><path d="M3756.47 1184.51 3770.29 1192.05C3774.25 1194.21 3775.66 1199.07 3773.46 1202.95L3765.72 1216.4C3763.5 1220.26 3758.51 1221.63 3754.53 1219.49L3740.71 1211.95C3736.75 1209.79 3735.34 1204.93 3737.53 1201.05L3745.28 1187.6C3747.5 1183.74 3752.49 1182.37 3756.47 1184.51Z" stroke="#000000" stroke-width="3.4375" stroke-miterlimit="8" fill="#D6DBD9" fill-rule="evenodd"/><path d="M3720.47 1163.52 3734.29 1171.06C3738.25 1173.22 3739.66 1178.08 3737.47 1181.95L3729.72 1195.4C3727.5 1199.26 3722.51 1200.63 3718.53 1198.49L3704.71 1190.96C3700.75 1188.79 3699.34 1183.94 3701.53 1180.06L3709.28 1166.61C3711.47 1162.74 3716.51 1161.36 3720.47 1163.52Z" stroke="#000000" stroke-width="3.4375" stroke-miterlimit="8" fill="#D6DBD9" fill-rule="evenodd"/><path d="M3676.47 1141.53 3690.29 1149.06C3694.25 1151.23 3695.66 1156.08 3693.47 1159.96L3685.72 1173.41C3683.5 1177.26 3678.51 1178.63 3674.53 1176.49L3660.71 1168.96C3656.75 1166.79 3655.34 1161.94 3657.53 1158.07L3665.28 1144.62C3667.5 1140.72 3672.51 1139.37 3676.47 1141.53Z" stroke="#000000" stroke-width="3.4375" stroke-miterlimit="8" fill="#D6DBD9" fill-rule="evenodd"/><path d="M3634.47 1117.55 3648.29 1125.29C3652.25 1127.51 3653.66 1132.5 3651.46 1136.48L3643.72 1150.29C3641.5 1154.25 3636.51 1155.66 3632.53 1153.47L3618.71 1145.73C3614.75 1143.51 3613.34 1138.52 3615.53 1134.54L3623.28 1120.72C3625.52 1116.74 3630.51 1115.33 3634.47 1117.55Z" stroke="#000000" stroke-width="3.4375" stroke-miterlimit="8" fill="#D6DBD9" fill-rule="evenodd"/><path d="M3498.95 1197.51 3512.4 1205.05C3516.26 1207.22 3517.63 1212.07 3515.49 1215.95L3507.95 1229.4C3505.79 1233.26 3500.93 1234.63 3497.05 1232.49L3483.6 1224.95C3479.74 1222.79 3478.37 1217.93 3480.51 1214.05L3488.05 1200.6C3490.18 1196.73 3495.07 1195.37 3498.95 1197.51Z" stroke="#000000" stroke-width="3.4375" stroke-miterlimit="8" fill="#D6DBD9" fill-rule="evenodd"/><path d="M3417.95 1152.52 3431.4 1160.06C3435.26 1162.22 3436.63 1167.08 3434.49 1170.95L3426.95 1184.4C3424.79 1188.26 3419.93 1189.63 3416.05 1187.49L3402.6 1179.96C3398.74 1177.79 3397.37 1172.94 3399.51 1169.06L3407.05 1155.61C3409.19 1151.74 3414.09 1150.36 3417.95 1152.52Z" stroke="#000000" stroke-width="3.4375" stroke-miterlimit="8" fill="#D6DBD9" fill-rule="evenodd"/><path d="M3459.47 1175.52 3473.29 1183.06C3477.25 1185.22 3478.66 1190.08 3476.46 1193.95L3468.72 1207.4C3466.5 1211.26 3461.51 1212.63 3457.53 1210.49L3443.71 1202.95C3439.75 1200.79 3438.34 1195.93 3440.53 1192.06L3448.28 1178.61C3450.5 1174.75 3455.51 1173.36 3459.47 1175.52Z" stroke="#000000" stroke-width="3.4375" stroke-miterlimit="8" fill="#D6DBD9" fill-rule="evenodd"/><path d="M3520.95 1158.54 3534.4 1166.29C3538.26 1168.51 3539.63 1173.49 3537.49 1177.48L3529.95 1191.29C3527.79 1195.25 3522.93 1196.66 3519.05 1194.47L3505.6 1186.72C3501.74 1184.5 3500.37 1179.51 3502.51 1175.53L3510.05 1161.72C3512.21 1157.76 3517.09 1156.33 3520.95 1158.54Z" stroke="#000000" stroke-width="3.4375" stroke-miterlimit="8" fill="#D6DBD9" fill-rule="evenodd"/><path d="M3480.95 1137.55 3494.4 1145.29C3498.26 1147.51 3499.63 1152.5 3497.49 1156.48L3489.95 1170.29C3487.79 1174.25 3482.93 1175.66 3479.05 1173.47L3465.6 1165.72C3461.74 1163.5 3460.37 1158.51 3462.51 1154.54L3470.05 1140.72C3472.21 1136.76 3477.09 1135.32 3480.95 1137.55Z" stroke="#000000" stroke-width="3.4375" stroke-miterlimit="8" fill="#D6DBD9" fill-rule="evenodd"/><path d="M3439.47 1114.53 3453.29 1122.06C3457.25 1124.23 3458.66 1129.08 3456.47 1132.96L3448.72 1146.41C3446.5 1150.26 3441.51 1151.63 3437.53 1149.49L3423.71 1141.96C3419.75 1139.79 3418.34 1134.94 3420.54 1131.07L3428.28 1117.62C3430.5 1113.72 3435.51 1112.37 3439.47 1114.53Z" stroke="#000000" stroke-width="3.4375" stroke-miterlimit="8" fill="#D6DBD9" fill-rule="evenodd"/><path d="M3542.47 1120.52 3556.29 1128.06C3560.25 1130.22 3561.66 1135.08 3559.47 1138.95L3551.72 1152.4C3549.5 1156.26 3544.51 1157.63 3540.53 1155.49L3526.71 1147.96C3522.75 1145.79 3521.34 1140.94 3523.53 1137.06L3531.28 1123.61C3533.52 1119.73 3538.51 1118.36 3542.47 1120.52Z" stroke="#000000" stroke-width="3.4375" stroke-miterlimit="8" fill="#D6DBD9" fill-rule="evenodd"/><path d="M3500.95 1101.53 3514.4 1109.06C3518.26 1111.22 3519.63 1116.08 3517.49 1119.96L3509.95 1133.41C3507.79 1137.26 3502.93 1138.63 3499.05 1136.49L3485.6 1128.96C3481.74 1126.8 3480.37 1121.94 3482.51 1118.06L3490.05 1104.62C3492.21 1100.71 3497.09 1099.37 3500.95 1101.53Z" stroke="#000000" stroke-width="3.4375" stroke-miterlimit="8" fill="#D6DBD9" fill-rule="evenodd"/><path d="M3458.95 1076.55 3472.4 1084.29C3476.26 1086.51 3477.63 1091.5 3475.49 1095.48L3467.95 1109.29C3465.79 1113.25 3460.93 1114.66 3457.05 1112.47L3443.6 1104.73C3439.74 1102.5 3438.37 1097.52 3440.51 1093.54L3448.05 1079.72C3450.19 1075.74 3455.09 1074.33 3458.95 1076.55Z" stroke="#000000" stroke-width="3.4375" stroke-miterlimit="8" fill="#D6DBD9" fill-rule="evenodd"/><path d="M3515.02 1057.53 3576.39 1091.95C3580.26 1094.12 3581.63 1099 3579.49 1102.89L3571.92 1116.39C3569.75 1120.26 3564.88 1121.63 3560.98 1119.49L3499.61 1085.07C3495.74 1082.9 3494.37 1078.02 3496.51 1074.14L3504.08 1060.63C3506.24 1056.71 3511.15 1055.36 3515.02 1057.53L3515.02 1057.53Z" stroke="#000000" stroke-width="3.4375" stroke-miterlimit="8" fill="#D6DBD9" fill-rule="evenodd"/><path d="M3480.47 1038.52 3494.29 1046.06C3498.25 1048.22 3499.66 1053.08 3497.46 1056.95L3489.72 1070.41C3487.5 1074.26 3482.51 1075.63 3478.53 1073.49L3464.71 1065.96C3460.75 1063.8 3459.34 1058.94 3461.53 1055.06L3469.28 1041.61C3471.47 1037.74 3476.51 1036.36 3480.47 1038.52Z" stroke="#000000" stroke-width="3.4375" stroke-miterlimit="8" fill="#D6DBD9" fill-rule="evenodd"/></g></svg>