<svg width="1004" height="749" xmlns="http://www.w3.org/2000/svg" xmlns:xlink="http://www.w3.org/1999/xlink" xml:space="preserve" overflow="hidden"><g transform="translate(-3110 -342)"><path d="M3933.6 1076.36 3137.11 630.062C3121.45 621.284 3115.89 601.498 3124.65 585.874L3246.22 369.099C3255 353.451 3274.8 347.89 3290.43 356.647L4086.89 802.923C4102.55 811.701 4108.11 831.488 4099.35 847.112L3977.78 1063.89C3969.05 1079.53 3949.22 1085.12 3933.6 1076.36L3933.6 1076.36Z" stroke="#000000" stroke-width="20.625" stroke-miterlimit="8" fill="#A6A897" fill-rule="evenodd"/><path d="M3466.02 541.468 3440.6 527.136C3436.74 524.957 3435.37 520.068 3437.51 516.167L3445.06 502.623C3447.23 498.743 3452.09 497.362 3455.98 499.514L3481.4 513.847C3485.26 516.023 3486.63 520.915 3484.49 524.816L3476.94 538.36C3474.75 542.264 3469.89 543.648 3466.02 541.468Z" stroke="#000000" stroke-width="3.4375" stroke-miterlimit="8" fill="#D6DBD9" fill-rule="evenodd"/><path d="M3587.02 609.475 3561.6 595.141C3557.74 592.965 3556.37 588.075 3558.51 584.17L3566.06 570.624C3568.23 566.743 3573.09 565.362 3576.98 567.514L3602.4 581.849C3606.26 584.029 3607.63 588.919 3605.49 592.82L3597.94 606.366C3595.77 610.243 3590.89 611.652 3587.02 609.475Z" stroke="#000000" stroke-width="3.4375" stroke-miterlimit="8" fill="#D6DBD9" fill-rule="evenodd"/><path d="M3302.02 449.469 3276.6 435.137C3272.74 432.957 3271.37 428.069 3273.51 424.168L3281.06 410.624C3283.23 406.743 3288.09 405.363 3291.98 407.514L3317.4 421.847C3321.26 424.026 3322.63 428.915 3320.49 432.816L3312.94 446.36C3310.8 450.261 3305.89 451.648 3302.02 449.469Z" stroke="#000000" stroke-width="3.4375" stroke-miterlimit="8" fill="#D6DBD9" fill-rule="evenodd"/><path d="M3356.02 480.465 3330.6 466.134C3326.74 463.955 3325.37 459.066 3327.51 455.166L3335.06 441.623C3337.23 437.743 3342.09 436.363 3345.98 438.514L3371.4 452.846C3375.26 455.021 3376.63 459.913 3374.49 463.814L3366.94 477.356C3364.78 481.284 3359.89 482.641 3356.02 480.465Z" stroke="#000000" stroke-width="3.4375" stroke-miterlimit="8" fill="#D6DBD9" fill-rule="evenodd"/><path d="M3799.02 728.481 3773.6 714.145C3769.74 711.964 3768.37 707.078 3770.51 703.172L3778.06 689.625C3780.23 685.743 3785.09 684.362 3788.98 686.514L3814.4 700.851C3818.26 703.031 3819.63 707.918 3817.49 711.823L3809.94 725.371C3807.8 729.273 3802.91 730.634 3799.02 728.481Z" stroke="#000000" stroke-width="3.4375" stroke-miterlimit="8" fill="#D6DBD9" fill-rule="evenodd"/><path d="M3411.02 511.469 3385.6 497.137C3381.74 494.957 3380.37 490.068 3382.51 486.168L3390.06 472.623C3392.23 468.743 3397.09 467.363 3400.98 469.514L3426.4 483.847C3430.26 486.023 3431.63 490.915 3429.49 494.816L3421.94 508.36C3419.8 512.261 3414.89 513.648 3411.02 511.469Z" stroke="#000000" stroke-width="3.4375" stroke-miterlimit="8" fill="#D6DBD9" fill-rule="evenodd"/><path d="M3641.02 640.474 3615.6 626.139C3611.74 623.96 3610.37 619.07 3612.51 615.169L3620.06 601.623C3622.23 597.743 3627.09 596.362 3630.98 598.514L3656.4 612.849C3660.26 615.028 3661.63 619.918 3659.49 623.819L3651.94 637.361C3649.77 641.245 3644.89 642.653 3641.02 640.474Z" stroke="#000000" stroke-width="3.4375" stroke-miterlimit="8" fill="#D6DBD9" fill-rule="evenodd"/><path d="M3693.02 669.468 3667.6 655.136C3663.74 652.957 3662.37 648.068 3664.51 644.167L3672.06 630.624C3674.23 626.743 3679.09 625.363 3682.98 627.514L3708.4 641.847C3712.26 644.026 3713.63 648.915 3711.49 652.816L3703.94 666.356C3701.75 670.267 3696.89 671.647 3693.02 669.468Z" stroke="#000000" stroke-width="3.4375" stroke-miterlimit="8" fill="#D6DBD9" fill-rule="evenodd"/><path d="M3746.02 698.47 3720.6 684.137C3716.74 681.957 3715.37 677.068 3717.51 673.168L3725.06 659.623C3727.23 655.743 3732.09 654.363 3735.98 656.514L3761.4 670.847C3765.26 673.026 3766.63 677.916 3764.49 681.816L3756.94 695.357C3754.8 699.261 3749.89 700.649 3746.02 698.47Z" stroke="#000000" stroke-width="3.4375" stroke-miterlimit="8" fill="#D6DBD9" fill-rule="evenodd"/><path d="M3526.02 575.463 3500.6 561.133C3496.74 558.954 3495.37 554.069 3497.51 550.165L3505.06 536.622C3507.23 532.743 3512.09 531.363 3515.98 533.514L3541.4 547.845C3545.26 550.024 3546.63 554.909 3544.49 558.813L3536.94 572.355C3534.77 576.283 3529.89 577.642 3526.02 575.463Z" stroke="#000000" stroke-width="3.4375" stroke-miterlimit="8" fill="#D6DBD9" fill-rule="evenodd"/><path d="M3861.02 760.468 3835.6 746.135C3831.74 743.955 3830.37 739.066 3832.51 735.165L3840.06 721.623C3842.23 717.743 3847.09 716.362 3850.98 718.514L3876.4 732.848C3880.26 735.027 3881.63 739.917 3879.49 743.818L3871.94 757.362C3869.8 761.263 3864.89 762.648 3861.02 760.468Z" stroke="#000000" stroke-width="3.4375" stroke-miterlimit="8" fill="#D6DBD9" fill-rule="evenodd"/><path d="M3304.85 503.463 3252.64 474.211C3248.74 472.03 3247.36 467.125 3249.52 463.214L3257.14 449.634C3259.32 445.744 3264.23 444.36 3268.15 446.517L3320.36 475.768C3324.26 477.954 3325.64 482.855 3323.48 486.766L3315.86 500.346C3313.68 504.281 3308.75 505.645 3304.85 503.463Z" stroke="#000000" stroke-width="3.4375" stroke-miterlimit="8" fill="#D6DBD9" fill-rule="evenodd"/><path d="M3349.05 527.477 3335.6 519.941C3331.74 517.78 3330.37 512.921 3332.51 509.047L3340.05 495.595C3342.21 491.742 3347.07 490.37 3350.95 492.507L3364.4 500.044C3368.26 502.208 3369.63 507.064 3367.49 510.938L3359.95 524.389C3357.77 528.267 3352.91 529.638 3349.05 527.477Z" stroke="#000000" stroke-width="3.4375" stroke-miterlimit="8" fill="#D6DBD9" fill-rule="evenodd"/><path d="M3388.05 550.448 3374.6 542.708C3370.74 540.485 3369.37 535.499 3371.51 531.52L3379.05 517.706C3381.21 513.748 3386.07 512.34 3389.95 514.535L3403.4 522.274C3407.26 524.497 3408.63 529.484 3406.49 533.462L3398.95 547.273C3396.82 551.259 3391.91 552.671 3388.05 550.448Z" stroke="#000000" stroke-width="3.4375" stroke-miterlimit="8" fill="#D6DBD9" fill-rule="evenodd"/><path d="M3430.05 573.476 3416.6 565.939C3412.74 563.775 3411.37 558.919 3413.51 555.044L3421.05 541.596C3423.21 537.742 3428.07 536.37 3431.95 538.508L3445.4 546.044C3449.26 548.209 3450.63 553.065 3448.49 556.939L3440.95 570.388C3438.82 574.263 3433.91 575.641 3430.05 573.476Z" stroke="#000000" stroke-width="3.4375" stroke-miterlimit="8" fill="#D6DBD9" fill-rule="evenodd"/><path d="M3470.05 595.477 3456.6 587.94C3452.74 585.775 3451.37 580.919 3453.51 577.045L3461.05 563.596C3463.21 559.742 3468.07 558.37 3471.95 560.508L3485.4 568.044C3489.26 570.209 3490.63 575.065 3488.49 578.939L3480.95 592.389C3478.77 596.267 3473.91 597.638 3470.05 595.477L3470.05 595.477Z" stroke="#000000" stroke-width="3.4375" stroke-miterlimit="8" fill="#D6DBD9" fill-rule="evenodd"/><path d="M3517.05 623.45 3503.6 615.71C3499.74 613.487 3498.37 608.5 3500.51 604.521L3508.05 590.706C3510.21 586.748 3515.07 585.34 3518.95 587.534L3532.4 595.275C3536.26 597.498 3537.63 602.481 3535.49 606.463L3527.95 620.279C3525.81 624.258 3520.91 625.67 3517.05 623.45Z" stroke="#000000" stroke-width="3.4375" stroke-miterlimit="8" fill="#D6DBD9" fill-rule="evenodd"/><path d="M3556.53 645.444 3542.71 637.705C3538.75 635.482 3537.34 630.495 3539.53 626.517L3547.28 612.705C3549.5 608.748 3554.49 607.34 3558.47 609.534L3572.29 617.274C3576.25 619.497 3577.66 624.483 3575.46 628.462L3567.72 642.277C3565.5 646.28 3560.49 647.664 3556.53 645.444Z" stroke="#000000" stroke-width="3.4375" stroke-miterlimit="8" fill="#D6DBD9" fill-rule="evenodd"/><path d="M3598.53 668.477 3584.71 660.941C3580.75 658.776 3579.34 653.921 3581.53 650.047L3589.28 636.595C3591.5 632.742 3596.49 631.37 3600.47 633.507L3614.29 641.044C3618.25 643.208 3619.66 648.06 3617.47 651.938L3609.72 665.389C3607.48 669.267 3602.49 670.638 3598.53 668.477Z" stroke="#000000" stroke-width="3.4375" stroke-miterlimit="8" fill="#D6DBD9" fill-rule="evenodd"/><path d="M3636.05 689.483 3622.6 681.945C3618.74 679.78 3617.37 674.924 3619.51 671.05L3627.05 657.596C3629.21 653.742 3634.07 652.37 3637.95 654.507L3651.4 662.045C3655.26 664.21 3656.63 669.066 3654.49 672.941L3646.95 686.394C3644.79 690.245 3639.91 691.644 3636.05 689.483Z" stroke="#000000" stroke-width="3.4375" stroke-miterlimit="8" fill="#D6DBD9" fill-rule="evenodd"/><path d="M3679.05 713.48 3665.6 705.943C3661.74 703.778 3660.37 698.922 3662.51 695.047L3670.05 681.596C3672.21 677.742 3677.07 676.37 3680.95 678.508L3694.4 686.045C3698.26 688.21 3699.63 693.066 3697.49 696.941L3689.95 710.396C3687.79 714.246 3682.91 715.646 3679.05 713.48Z" stroke="#000000" stroke-width="3.4375" stroke-miterlimit="8" fill="#D6DBD9" fill-rule="evenodd"/><path d="M3718.53 735.476 3704.71 727.94C3700.75 725.775 3699.34 720.919 3701.53 717.045L3709.28 703.596C3711.5 699.742 3716.49 698.37 3720.47 700.507L3734.29 708.044C3738.25 710.209 3739.66 715.065 3737.47 718.939L3729.72 732.392C3727.53 736.263 3722.49 737.641 3718.53 735.476Z" stroke="#000000" stroke-width="3.4375" stroke-miterlimit="8" fill="#D6DBD9" fill-rule="evenodd"/><path d="M3760.53 758.471 3746.71 750.936C3742.75 748.772 3741.34 743.917 3743.53 740.044L3751.28 726.594C3753.5 722.742 3758.49 721.371 3762.47 723.507L3776.29 731.042C3780.25 733.206 3781.66 738.061 3779.47 741.934L3771.72 755.38C3769.5 759.284 3764.49 760.635 3760.53 758.471Z" stroke="#000000" stroke-width="3.4375" stroke-miterlimit="8" fill="#D6DBD9" fill-rule="evenodd"/><path d="M3800.05 781.447 3786.6 773.707C3782.74 771.484 3781.37 766.497 3783.51 762.518L3791.05 748.706C3793.21 744.748 3798.07 743.34 3801.95 745.535L3815.4 753.275C3819.26 755.498 3820.63 760.485 3818.49 764.464L3810.95 778.279C3808.77 782.262 3803.91 783.67 3800.05 781.447Z" stroke="#000000" stroke-width="3.4375" stroke-miterlimit="8" fill="#D6DBD9" fill-rule="evenodd"/><path d="M3836.05 801.471 3822.6 793.935C3818.74 791.771 3817.37 786.916 3819.51 783.042L3827.05 769.595C3829.21 765.742 3834.07 764.37 3837.95 766.507L3851.4 774.043C3855.26 776.207 3856.63 781.063 3854.49 784.936L3846.95 798.383C3844.79 802.285 3839.91 803.635 3836.05 801.471Z" stroke="#000000" stroke-width="3.4375" stroke-miterlimit="8" fill="#D6DBD9" fill-rule="evenodd"/><path d="M3381.53 599.482 3367.71 591.944C3363.75 589.779 3362.34 584.922 3364.53 581.047L3372.28 567.596C3374.5 563.742 3379.49 562.37 3383.47 564.507L3397.29 572.046C3401.25 574.211 3402.66 579.067 3400.46 582.942L3392.72 596.393C3390.5 600.248 3385.49 601.643 3381.53 599.482Z" stroke="#000000" stroke-width="3.4375" stroke-miterlimit="8" fill="#D6DBD9" fill-rule="evenodd"/><path d="M3425.05 624.483 3411.6 616.946C3407.74 614.781 3406.37 609.928 3408.51 606.05L3416.05 592.596C3418.21 588.742 3423.07 587.37 3426.95 589.507L3440.4 597.045C3444.26 599.206 3445.63 604.063 3443.49 607.941L3435.95 621.395C3433.79 625.246 3428.91 626.644 3425.05 624.483Z" stroke="#000000" stroke-width="3.4375" stroke-miterlimit="8" fill="#D6DBD9" fill-rule="evenodd"/><path d="M3466.05 647.476 3452.6 639.94C3448.74 637.775 3447.37 632.919 3449.51 629.045L3457.05 615.596C3459.21 611.742 3464.07 610.37 3467.95 612.507L3481.4 620.044C3485.26 622.209 3486.63 627.065 3484.49 630.939L3476.95 644.388C3474.82 648.263 3469.91 649.641 3466.05 647.476Z" stroke="#000000" stroke-width="3.4375" stroke-miterlimit="8" fill="#D6DBD9" fill-rule="evenodd"/><path d="M3508.05 670.475 3494.6 662.938C3490.74 660.774 3489.37 655.918 3491.51 652.044L3499.05 638.595C3501.21 634.742 3506.07 633.37 3509.95 635.507L3523.4 643.044C3527.26 645.208 3528.63 650.064 3526.49 653.938L3518.95 667.387C3516.77 671.268 3511.91 672.639 3508.05 670.475Z" stroke="#000000" stroke-width="3.4375" stroke-miterlimit="8" fill="#D6DBD9" fill-rule="evenodd"/><path d="M3551.05 694.477 3537.6 686.94C3533.74 684.776 3532.37 679.92 3534.51 676.045L3542.05 662.596C3544.21 658.742 3549.07 657.37 3552.95 659.508L3566.4 667.044C3570.26 669.209 3571.63 674.065 3569.49 677.94L3561.95 691.389C3559.82 695.264 3554.91 696.639 3551.05 694.477Z" stroke="#000000" stroke-width="3.4375" stroke-miterlimit="8" fill="#D6DBD9" fill-rule="evenodd"/><path d="M3593.05 718.476 3579.6 710.939C3575.74 708.775 3574.37 703.919 3576.51 700.044L3584.05 686.595C3586.21 682.741 3591.07 681.37 3594.95 683.507L3608.4 691.044C3612.26 693.209 3613.63 698.064 3611.49 701.939L3603.95 715.391C3601.82 719.263 3596.91 720.641 3593.05 718.476Z" stroke="#000000" stroke-width="3.4375" stroke-miterlimit="8" fill="#D6DBD9" fill-rule="evenodd"/><path d="M3630.05 735.472 3616.6 727.936C3612.74 725.772 3611.37 720.917 3613.51 717.043L3621.05 703.595C3623.21 699.742 3628.07 698.37 3631.95 700.507L3645.4 708.044C3649.26 710.208 3650.63 715.063 3648.49 718.937L3640.95 732.385C3638.79 736.286 3633.91 737.633 3630.05 735.472Z" stroke="#000000" stroke-width="3.4375" stroke-miterlimit="8" fill="#D6DBD9" fill-rule="evenodd"/><path d="M3673.05 759.471 3659.6 751.936C3655.74 749.771 3654.37 744.917 3656.51 741.044L3664.05 727.595C3666.21 723.742 3671.07 722.371 3674.95 724.507L3688.4 732.042C3692.26 734.206 3693.63 739.061 3691.49 742.934L3683.95 756.383C3681.79 760.284 3676.91 761.634 3673.05 759.471Z" stroke="#000000" stroke-width="3.4375" stroke-miterlimit="8" fill="#D6DBD9" fill-rule="evenodd"/><path d="M3712.53 781.477 3698.71 773.941C3694.75 771.776 3693.34 766.921 3695.54 763.047L3703.28 749.595C3705.5 745.742 3710.49 744.37 3714.47 746.507L3728.29 754.044C3732.25 756.208 3733.66 761.064 3731.47 764.938L3723.72 778.39C3721.48 782.267 3716.49 783.638 3712.53 781.477Z" stroke="#000000" stroke-width="3.4375" stroke-miterlimit="8" fill="#D6DBD9" fill-rule="evenodd"/><path d="M3755.05 805.453 3741.6 797.711C3737.74 795.488 3736.37 790.501 3738.51 786.521L3746.05 772.707C3748.21 768.748 3753.07 767.34 3756.95 769.535L3770.4 777.276C3774.26 779.5 3775.63 784.487 3773.49 788.467L3765.95 802.281C3763.79 806.24 3758.91 807.676 3755.05 805.453Z" stroke="#000000" stroke-width="3.4375" stroke-miterlimit="8" fill="#D6DBD9" fill-rule="evenodd"/><path d="M3299.84 554.466 3229.64 515.204C3225.74 513.02 3224.36 508.119 3226.52 504.209L3234.14 490.633C3236.33 486.744 3241.24 485.36 3245.16 487.517L3315.36 526.779C3319.26 528.96 3320.64 533.864 3318.48 537.774L3310.86 551.346C3308.7 555.263 3303.74 556.651 3299.84 554.466Z" stroke="#000000" stroke-width="3.4375" stroke-miterlimit="8" fill="#D6DBD9" fill-rule="evenodd"/><path d="M3337.05 630.482 3323.6 622.944C3319.74 620.779 3318.37 615.922 3320.51 612.047L3328.05 598.596C3330.21 594.741 3335.07 593.37 3338.95 595.507L3352.4 603.046C3356.26 605.21 3357.63 610.067 3355.49 613.942L3347.95 627.393C3345.79 631.248 3340.91 632.643 3337.05 630.482Z" stroke="#000000" stroke-width="3.4375" stroke-miterlimit="8" fill="#D6DBD9" fill-rule="evenodd"/><path d="M3338.53 575.476 3324.71 567.94C3320.75 565.775 3319.34 560.92 3321.54 557.046L3329.28 543.595C3331.5 539.741 3336.49 538.37 3340.47 540.507L3354.29 548.043C3358.25 550.208 3359.66 555.063 3357.47 558.937L3349.72 572.385C3347.53 576.266 3342.49 577.64 3338.53 575.476Z" stroke="#000000" stroke-width="3.4375" stroke-miterlimit="8" fill="#D6DBD9" fill-rule="evenodd"/><path d="M3809.98 837.479 3776.61 818.876C3772.74 816.717 3771.37 811.876 3773.51 808.007L3781.08 794.586C3783.25 790.741 3788.12 789.373 3792.02 791.505L3825.39 810.108C3829.26 812.268 3830.63 817.112 3828.49 820.978L3820.92 834.398C3818.73 838.267 3813.85 839.635 3809.98 837.479L3809.98 837.479Z" stroke="#000000" stroke-width="3.4375" stroke-miterlimit="8" fill="#D6DBD9" fill-rule="evenodd"/><path d="M3294.94 605.476 3206.62 556.068C3202.74 553.894 3201.36 549.02 3203.51 545.126L3211.1 531.613C3213.27 527.743 3218.16 526.365 3222.06 528.512L3310.38 577.92C3314.26 580.094 3315.64 584.971 3313.49 588.862L3305.9 602.371C3303.73 606.245 3298.82 607.65 3294.94 605.476Z" stroke="#000000" stroke-width="3.4375" stroke-miterlimit="8" fill="#D6DBD9" fill-rule="evenodd"/><path d="M3380.05 653.45 3366.6 645.709C3362.74 643.486 3361.37 638.499 3363.51 634.519L3371.05 620.706C3373.21 616.748 3378.07 615.339 3381.95 617.534L3395.4 625.276C3399.26 627.499 3400.63 632.486 3398.49 636.465L3390.95 650.278C3388.81 654.258 3383.91 655.67 3380.05 653.45Z" stroke="#000000" stroke-width="3.4375" stroke-miterlimit="8" fill="#D6DBD9" fill-rule="evenodd"/><path d="M3426.05 679.444 3412.6 671.705C3408.74 669.482 3407.37 664.495 3409.51 660.517L3417.05 646.705C3419.21 642.748 3424.07 641.34 3427.95 643.534L3441.4 651.274C3445.26 653.497 3446.63 658.483 3444.49 662.462L3436.95 676.273C3434.79 680.28 3429.91 681.664 3426.05 679.444Z" stroke="#000000" stroke-width="3.4375" stroke-miterlimit="8" fill="#D6DBD9" fill-rule="evenodd"/><path d="M3467.53 702.443 3453.71 694.704C3449.75 692.482 3448.34 687.496 3450.53 683.518L3458.28 669.705C3460.5 665.748 3465.49 664.34 3469.47 666.534L3483.29 674.273C3487.25 676.496 3488.66 681.482 3486.46 685.459L3478.72 699.269C3476.5 703.279 3471.49 704.665 3467.53 702.443Z" stroke="#000000" stroke-width="3.4375" stroke-miterlimit="8" fill="#D6DBD9" fill-rule="evenodd"/><path d="M3509.05 724.482 3495.6 716.944C3491.74 714.779 3490.37 709.922 3492.51 706.047L3500.05 692.596C3502.21 688.742 3507.07 687.37 3510.95 689.508L3524.4 697.046C3528.26 699.211 3529.63 704.067 3527.49 707.942L3519.95 721.394C3517.79 725.248 3512.91 726.643 3509.05 724.482Z" stroke="#000000" stroke-width="3.4375" stroke-miterlimit="8" fill="#D6DBD9" fill-rule="evenodd"/><path d="M3552.05 749.461 3538.6 741.719C3534.74 739.495 3533.37 734.51 3535.51 730.527L3543.05 716.707C3545.21 712.748 3550.07 711.34 3553.95 713.535L3567.4 721.277C3571.26 723.497 3572.63 728.486 3570.49 732.469L3562.95 746.288C3560.82 750.269 3555.93 751.656 3552.05 749.461Z" stroke="#000000" stroke-width="3.4375" stroke-miterlimit="8" fill="#D6DBD9" fill-rule="evenodd"/><path d="M3594.05 772.477 3580.6 764.941C3576.74 762.776 3575.37 757.921 3577.51 754.047L3585.05 740.595C3587.21 736.742 3592.07 735.37 3595.95 737.508L3609.4 745.044C3613.26 747.208 3614.63 752.064 3612.49 755.938L3604.95 769.389C3602.77 773.267 3597.91 774.638 3594.05 772.477Z" stroke="#000000" stroke-width="3.4375" stroke-miterlimit="8" fill="#D6DBD9" fill-rule="evenodd"/><path d="M3631.05 789.473 3617.6 781.938C3613.74 779.777 3612.37 774.922 3614.51 771.045L3622.05 757.595C3624.21 753.742 3629.07 752.37 3632.95 754.507L3646.4 762.043C3650.26 764.207 3651.63 769.059 3649.49 772.935L3641.95 786.386C3639.79 790.283 3634.91 791.634 3631.05 789.473Z" stroke="#000000" stroke-width="3.4375" stroke-miterlimit="8" fill="#D6DBD9" fill-rule="evenodd"/><path d="M3674.05 813.476 3660.6 805.94C3656.74 803.776 3655.37 798.92 3657.51 795.046L3665.05 781.595C3667.21 777.742 3672.07 776.37 3675.95 778.507L3689.4 786.044C3693.26 788.208 3694.63 793.063 3692.49 796.937L3684.95 810.388C3682.82 814.263 3677.91 815.64 3674.05 813.476Z" stroke="#000000" stroke-width="3.4375" stroke-miterlimit="8" fill="#D6DBD9" fill-rule="evenodd"/><path d="M3714.05 835.48 3700.6 827.943C3696.74 825.778 3695.37 820.921 3697.51 817.047L3705.05 803.596C3707.21 799.742 3712.07 798.37 3715.95 800.508L3729.4 808.045C3733.26 810.21 3734.63 815.067 3732.49 818.941L3724.95 832.392C3722.79 836.246 3717.91 837.645 3714.05 835.48Z" stroke="#000000" stroke-width="3.4375" stroke-miterlimit="8" fill="#D6DBD9" fill-rule="evenodd"/><path d="M3794.92 876.47 3742.63 847.154C3738.74 844.973 3737.36 840.084 3739.51 836.178L3747.11 822.626C3749.29 818.743 3754.18 817.362 3758.08 819.515L3810.38 848.831C3814.26 851.012 3815.64 855.904 3813.49 859.807L3805.89 873.355C3803.69 877.265 3798.8 878.647 3794.92 876.47Z" stroke="#000000" stroke-width="3.4375" stroke-miterlimit="8" fill="#D6DBD9" fill-rule="evenodd"/><path d="M3195.05 599.462 3181.6 591.928C3177.74 589.764 3176.37 584.91 3178.51 581.037L3186.05 567.594C3188.21 563.741 3193.07 562.371 3196.95 564.507L3210.4 572.041C3214.26 574.205 3215.63 579.058 3213.49 582.931L3205.95 596.375C3203.79 600.275 3198.94 601.646 3195.05 599.462Z" stroke="#000000" stroke-width="3.4375" stroke-miterlimit="8" fill="#D6DBD9" fill-rule="evenodd"/><path d="M3235.05 621.475 3221.6 613.939C3217.74 611.775 3216.37 606.923 3218.51 603.046L3226.05 589.595C3228.21 585.741 3233.07 584.37 3236.95 586.507L3250.4 594.043C3254.26 596.204 3255.63 601.059 3253.49 604.936L3245.95 618.387C3243.77 622.268 3238.91 623.639 3235.05 621.475Z" stroke="#000000" stroke-width="3.4375" stroke-miterlimit="8" fill="#D6DBD9" fill-rule="evenodd"/><path d="M3277.05 645.45 3263.6 637.71C3259.74 635.487 3258.37 630.504 3260.51 626.521L3268.05 612.706C3270.21 608.748 3275.07 607.34 3278.95 609.534L3292.4 617.275C3296.26 619.494 3297.63 624.481 3295.49 628.463L3287.95 642.279C3285.82 646.258 3280.91 647.67 3277.05 645.45Z" stroke="#000000" stroke-width="3.4375" stroke-miterlimit="8" fill="#D6DBD9" fill-rule="evenodd"/><path d="M3316.53 667.48 3302.71 659.943C3298.75 657.778 3297.34 652.921 3299.54 649.047L3307.28 635.596C3309.5 631.742 3314.49 630.37 3318.47 632.507L3332.29 640.045C3336.25 642.21 3337.66 647.067 3335.47 650.941L3327.72 664.392C3325.5 668.247 3320.49 669.645 3316.53 667.48Z" stroke="#000000" stroke-width="3.4375" stroke-miterlimit="8" fill="#D6DBD9" fill-rule="evenodd"/><path d="M3364.05 694.48 3350.6 686.943C3346.74 684.778 3345.37 679.921 3347.51 676.047L3355.05 662.596C3357.21 658.742 3362.07 657.37 3365.95 659.508L3379.4 667.046C3383.26 669.21 3384.63 674.067 3382.49 677.941L3374.95 691.392C3372.79 695.246 3367.91 696.645 3364.05 694.48Z" stroke="#000000" stroke-width="3.4375" stroke-miterlimit="8" fill="#D6DBD9" fill-rule="evenodd"/><path d="M3525.88 784.468 3390.63 709.06C3386.74 706.886 3385.36 702.014 3387.52 698.12L3395.13 684.612C3397.31 680.743 3402.21 679.366 3406.12 681.512L3541.37 756.921C3545.26 759.094 3546.64 763.97 3544.48 767.86L3536.88 781.365C3534.7 785.282 3529.77 786.638 3525.88 784.468Z" stroke="#000000" stroke-width="3.4375" stroke-miterlimit="8" fill="#D6DBD9" fill-rule="evenodd"/><path d="M3565.05 806.482 3551.6 798.945C3547.74 796.78 3546.37 791.927 3548.51 788.049L3556.05 774.596C3558.21 770.741 3563.07 769.37 3566.95 771.507L3580.4 779.044C3584.26 781.21 3585.63 786.066 3583.49 789.94L3575.95 803.394C3573.79 807.248 3568.91 808.643 3565.05 806.482Z" stroke="#000000" stroke-width="3.4375" stroke-miterlimit="8" fill="#D6DBD9" fill-rule="evenodd"/><path d="M3607.05 830.478 3593.6 822.942C3589.74 820.78 3588.37 815.925 3590.51 812.047L3598.05 798.595C3600.21 794.741 3605.07 793.37 3608.95 795.507L3622.4 803.044C3626.26 805.208 3627.63 810.06 3625.49 813.938L3617.95 827.39C3615.81 831.265 3610.91 832.639 3607.05 830.478Z" stroke="#000000" stroke-width="3.4375" stroke-miterlimit="8" fill="#D6DBD9" fill-rule="evenodd"/><path d="M3647.05 852.492 3633.6 844.952C3629.74 842.786 3628.37 837.928 3630.51 834.052L3638.05 820.597C3640.21 816.742 3645.07 815.37 3648.95 817.508L3662.4 825.048C3666.26 827.214 3667.63 832.072 3665.49 835.948L3657.95 849.403C3655.79 853.259 3650.93 854.63 3647.05 852.492Z" stroke="#000000" stroke-width="3.4375" stroke-miterlimit="8" fill="#D6DBD9" fill-rule="evenodd"/><path d="M3683.05 873.478 3669.6 865.942C3665.74 863.777 3664.37 858.921 3666.51 855.047L3674.05 841.595C3676.21 837.741 3681.07 836.37 3684.95 838.507L3698.4 846.044C3702.26 848.208 3703.63 853.064 3701.49 856.938L3693.95 870.39C3691.82 874.265 3686.91 875.639 3683.05 873.478Z" stroke="#000000" stroke-width="3.4375" stroke-miterlimit="8" fill="#D6DBD9" fill-rule="evenodd"/><path d="M3727.05 895.471 3713.6 887.936C3709.74 885.775 3708.37 880.921 3710.51 877.044L3718.05 863.594C3720.21 859.741 3725.07 858.37 3728.95 860.507L3742.4 868.042C3746.26 870.206 3747.63 875.057 3745.49 878.934L3737.95 892.383C3735.79 896.285 3730.91 897.635 3727.05 895.471Z" stroke="#000000" stroke-width="3.4375" stroke-miterlimit="8" fill="#D6DBD9" fill-rule="evenodd"/><path d="M3769.05 919.447 3755.6 911.707C3751.74 909.484 3750.37 904.497 3752.51 900.518L3760.05 886.706C3762.21 882.748 3767.07 881.34 3770.95 883.534L3784.4 891.275C3788.26 893.498 3789.63 898.485 3787.49 902.464L3779.95 916.279C3777.77 920.262 3772.91 921.67 3769.05 919.447Z" stroke="#000000" stroke-width="3.4375" stroke-miterlimit="8" fill="#D6DBD9" fill-rule="evenodd"/><path d="M3904.06 839.487 3890.6 831.948C3886.74 829.783 3885.37 824.925 3887.51 821.05L3895.05 807.597C3897.21 803.742 3902.07 802.37 3905.95 804.508L3919.4 812.047C3923.26 814.212 3924.63 819.07 3922.49 822.945L3914.95 836.398C3912.82 840.278 3907.93 841.625 3904.06 839.487Z" stroke="#000000" stroke-width="3.4375" stroke-miterlimit="8" fill="#D6DBD9" fill-rule="evenodd"/><path d="M3985.05 884.476 3971.6 876.94C3967.74 874.775 3966.37 869.92 3968.51 866.046L3976.05 852.595C3978.21 848.741 3983.07 847.37 3986.95 849.507L4000.4 857.043C4004.26 859.208 4005.63 864.063 4003.49 867.937L3995.95 881.385C3993.81 885.265 3988.91 886.64 3985.05 884.476Z" stroke="#000000" stroke-width="3.4375" stroke-miterlimit="8" fill="#D6DBD9" fill-rule="evenodd"/><path d="M3944.05 861.481 3930.6 853.944C3926.74 851.779 3925.37 846.926 3927.51 843.048L3935.05 829.596C3937.21 825.741 3942.07 824.37 3945.95 826.507L3959.4 834.044C3963.26 836.209 3964.63 841.065 3962.49 844.939L3954.95 858.389C3952.79 862.246 3947.91 863.645 3944.05 861.481Z" stroke="#000000" stroke-width="3.4375" stroke-miterlimit="8" fill="#D6DBD9" fill-rule="evenodd"/><path d="M3882.05 878.482 3868.6 870.945C3864.74 868.784 3863.37 863.927 3865.51 860.049L3873.05 846.596C3875.21 842.742 3880.07 841.37 3883.95 843.508L3897.4 851.045C3901.26 853.21 3902.63 858.066 3900.49 861.94L3892.95 875.394C3890.79 879.248 3885.91 880.644 3882.05 878.482Z" stroke="#000000" stroke-width="3.4375" stroke-miterlimit="8" fill="#D6DBD9" fill-rule="evenodd"/><path d="M3923.06 899.481 3909.6 891.944C3905.74 889.779 3904.37 884.923 3906.51 881.048L3914.05 867.596C3916.21 863.742 3921.07 862.37 3924.95 864.507L3938.4 872.045C3942.26 874.206 3943.63 879.062 3941.49 882.939L3933.95 896.393C3931.79 900.247 3926.91 901.645 3923.06 899.481Z" stroke="#000000" stroke-width="3.4375" stroke-miterlimit="8" fill="#D6DBD9" fill-rule="evenodd"/><path d="M3964.05 922.473 3950.6 914.938C3946.74 912.777 3945.37 907.922 3947.51 904.045L3955.05 890.595C3957.21 886.742 3962.07 885.37 3965.95 887.507L3979.4 895.043C3983.26 897.204 3984.63 902.059 3982.49 905.936L3974.95 919.386C3972.79 923.284 3967.91 924.634 3964.05 922.473Z" stroke="#000000" stroke-width="3.4375" stroke-miterlimit="8" fill="#D6DBD9" fill-rule="evenodd"/><path d="M3861.05 916.475 3847.6 908.939C3843.74 906.774 3842.37 901.923 3844.51 898.046L3852.05 884.595C3854.21 880.741 3859.07 879.37 3862.95 881.507L3876.4 889.043C3880.26 891.207 3881.63 896.063 3879.49 899.936L3871.95 913.384C3869.77 917.268 3864.91 918.639 3861.05 916.475Z" stroke="#000000" stroke-width="3.4375" stroke-miterlimit="8" fill="#D6DBD9" fill-rule="evenodd"/><path d="M3902.05 935.472 3888.6 927.937C3884.74 925.776 3883.37 920.921 3885.51 917.044L3893.05 903.595C3895.21 899.742 3900.07 898.371 3903.95 900.507L3917.4 908.043C3921.26 910.207 3922.63 915.062 3920.49 918.935L3912.95 932.385C3910.79 936.286 3905.91 937.633 3902.05 935.472Z" stroke="#000000" stroke-width="3.4375" stroke-miterlimit="8" fill="#D6DBD9" fill-rule="evenodd"/><path d="M3944.53 960.476 3930.71 952.94C3926.75 950.775 3925.34 945.92 3927.54 942.046L3935.28 928.595C3937.5 924.741 3942.49 923.37 3946.47 925.507L3960.29 933.043C3964.25 935.208 3965.66 940.063 3963.47 943.937L3955.72 957.385C3953.53 961.266 3948.49 962.64 3944.53 960.476Z" stroke="#000000" stroke-width="3.4375" stroke-miterlimit="8" fill="#D6DBD9" fill-rule="evenodd"/><path d="M3887.98 980.45 3826.61 945.494C3822.74 943.287 3821.37 938.336 3823.51 934.386L3831.08 920.675C3833.25 916.746 3838.12 915.348 3842.02 917.527L3903.39 952.483C3907.26 954.69 3908.63 959.641 3906.49 963.591L3898.92 977.302C3896.75 981.28 3891.85 982.657 3887.98 980.45L3887.98 980.45Z" stroke="#000000" stroke-width="3.4375" stroke-miterlimit="8" fill="#D6DBD9" fill-rule="evenodd"/><path d="M3923.05 998.476 3909.6 990.94C3905.74 988.775 3904.37 983.919 3906.51 980.045L3914.05 966.595C3916.21 962.742 3921.07 961.37 3924.95 963.507L3938.4 971.044C3942.26 973.209 3943.63 978.065 3941.49 981.939L3933.95 995.392C3931.81 999.263 3926.91 1000.64 3923.05 998.476Z" stroke="#000000" stroke-width="3.4375" stroke-miterlimit="8" fill="#D6DBD9" fill-rule="evenodd"/></g></svg>