<svg width="749" height="1004" xmlns="http://www.w3.org/2000/svg" xmlns:xlink="http://www.w3.org/1999/xlink" xml:space="preserve" overflow="hidden"><g transform="translate(-1851 -1255)"><path d="M2585.36 1435.4 2139.06 2231.89C2130.28 2247.55 2110.5 2253.11 2094.87 2244.35L1878.1 2122.78C1862.45 2114 1856.89 2094.2 1865.65 2078.57L2311.92 1282.11C2320.7 1266.45 2340.49 1260.89 2356.11 1269.65L2572.89 1391.22C2588.53 1399.95 2594.12 1419.77 2585.36 1435.4L2585.36 1435.4Z" stroke="#000000" stroke-width="20.625" stroke-miterlimit="8" fill="#A6A897" fill-rule="evenodd"/><path d="M2050.47 1903.98 2036.14 1929.4C2033.96 1933.26 2029.07 1934.63 2025.17 1932.49L2011.62 1924.94C2007.74 1922.77 2006.36 1917.91 2008.51 1914.02L2022.85 1888.6C2025.03 1884.74 2029.91 1883.37 2033.82 1885.51L2047.36 1893.06C2051.27 1895.25 2052.65 1900.11 2050.47 1903.98Z" stroke="#000000" stroke-width="3.4375" stroke-miterlimit="8" fill="#D6DBD9" fill-rule="evenodd"/><path d="M2118.48 1782.37 2104.14 1808.31C2101.96 1812.25 2097.07 1813.66 2093.17 1811.47L2079.62 1803.76C2075.74 1801.55 2074.36 1796.59 2076.51 1792.63L2090.85 1766.69C2093.03 1762.75 2097.92 1761.34 2101.82 1763.53L2115.37 1771.23C2119.24 1773.45 2120.65 1778.43 2118.48 1782.37Z" stroke="#000000" stroke-width="3.4375" stroke-miterlimit="8" fill="#D6DBD9" fill-rule="evenodd"/><path d="M1959.47 2067.37 1945.14 2093.31C1942.96 2097.25 1938.07 2098.66 1934.17 2096.47L1920.62 2088.76C1916.74 2086.55 1915.36 2081.59 1917.51 2077.63L1931.85 2051.69C1934.02 2047.75 1938.92 2046.34 1942.82 2048.53L1956.36 2056.23C1960.26 2058.42 1961.65 2063.43 1959.47 2067.37Z" stroke="#000000" stroke-width="3.4375" stroke-miterlimit="8" fill="#D6DBD9" fill-rule="evenodd"/><path d="M1989.46 2013.37 1975.13 2039.31C1972.95 2043.25 1968.07 2044.66 1964.17 2042.47L1950.62 2034.77C1946.74 2032.55 1945.36 2027.59 1947.51 2023.63L1961.85 1997.69C1964.02 1993.75 1968.91 1992.34 1972.81 1994.53L1986.36 2002.24C1990.28 2004.44 1991.64 2009.43 1989.46 2013.37Z" stroke="#000000" stroke-width="3.4375" stroke-miterlimit="8" fill="#D6DBD9" fill-rule="evenodd"/><path d="M2237.48 1570.37 2223.14 1596.31C2220.96 1600.25 2216.07 1601.66 2212.17 1599.47L2198.62 1591.77C2194.74 1589.56 2193.36 1584.59 2195.51 1580.63L2209.85 1554.69C2212.03 1550.75 2216.92 1549.35 2220.82 1551.53L2234.37 1559.23C2238.27 1561.42 2239.63 1566.41 2237.48 1570.37Z" stroke="#000000" stroke-width="3.4375" stroke-miterlimit="8" fill="#D6DBD9" fill-rule="evenodd"/><path d="M2020.47 1957.98 2006.14 1983.4C2003.96 1987.26 1999.07 1988.63 1995.17 1986.49L1981.62 1978.94C1977.74 1976.77 1976.36 1971.91 1978.51 1968.02L1992.85 1942.6C1995.03 1938.74 1999.92 1937.37 2003.82 1939.51L2017.36 1947.06C2021.26 1949.2 2022.65 1954.11 2020.47 1957.98Z" stroke="#000000" stroke-width="3.4375" stroke-miterlimit="8" fill="#D6DBD9" fill-rule="evenodd"/><path d="M2149.47 1727.98 2135.14 1753.4C2132.96 1757.26 2128.07 1758.63 2124.17 1756.49L2110.62 1748.94C2106.74 1746.77 2105.36 1741.91 2107.51 1738.02L2121.85 1712.6C2124.03 1708.74 2128.92 1707.37 2132.82 1709.51L2146.36 1717.06C2150.24 1719.23 2151.65 1724.11 2149.47 1727.98Z" stroke="#000000" stroke-width="3.4375" stroke-miterlimit="8" fill="#D6DBD9" fill-rule="evenodd"/><path d="M2178.47 1675.98 2164.14 1701.4C2161.96 1705.26 2157.07 1706.63 2153.17 1704.49L2139.62 1696.94C2135.74 1694.77 2134.36 1689.91 2136.51 1686.02L2150.85 1660.6C2153.03 1656.74 2157.91 1655.37 2161.81 1657.51L2175.36 1665.06C2179.27 1667.25 2180.65 1672.11 2178.47 1675.98Z" stroke="#000000" stroke-width="3.4375" stroke-miterlimit="8" fill="#D6DBD9" fill-rule="evenodd"/><path d="M2208.47 1622.98 2194.14 1648.4C2191.96 1652.26 2187.07 1653.63 2183.17 1651.49L2169.62 1643.94C2165.74 1641.77 2164.36 1636.91 2166.51 1633.02L2180.85 1607.6C2183.03 1603.74 2187.92 1602.37 2191.82 1604.51L2205.36 1612.06C2209.26 1614.2 2210.65 1619.11 2208.47 1622.98Z" stroke="#000000" stroke-width="3.4375" stroke-miterlimit="8" fill="#D6DBD9" fill-rule="evenodd"/><path d="M2084.46 1842.98 2070.13 1868.4C2067.96 1872.26 2063.07 1873.63 2059.17 1871.49L2045.62 1863.94C2041.74 1861.77 2040.36 1856.91 2042.51 1853.02L2056.84 1827.6C2059.02 1823.74 2063.91 1822.37 2067.81 1824.51L2081.35 1832.06C2085.28 1834.22 2086.64 1839.11 2084.46 1842.98Z" stroke="#000000" stroke-width="3.4375" stroke-miterlimit="8" fill="#D6DBD9" fill-rule="evenodd"/><path d="M2269.47 1508.98 2255.14 1534.4C2252.96 1538.26 2248.07 1539.63 2244.17 1537.49L2230.62 1529.94C2226.74 1527.77 2225.36 1522.91 2227.51 1519.02L2241.85 1493.6C2244.03 1489.74 2248.92 1488.37 2252.82 1490.51L2266.36 1498.06C2270.26 1500.2 2271.65 1505.11 2269.47 1508.98Z" stroke="#000000" stroke-width="3.4375" stroke-miterlimit="8" fill="#D6DBD9" fill-rule="evenodd"/><path d="M2012.46 2064.15 1983.21 2116.36C1981.03 2120.26 1976.12 2121.64 1972.21 2119.48L1958.63 2111.86C1954.74 2109.68 1953.36 2104.77 1955.52 2100.85L1984.77 2048.64C1986.95 2044.74 1991.86 2043.36 1995.77 2045.52L2009.35 2053.14C2013.28 2055.32 2014.64 2060.25 2012.46 2064.15Z" stroke="#000000" stroke-width="3.4375" stroke-miterlimit="8" fill="#D6DBD9" fill-rule="evenodd"/><path d="M2037.48 2020.47 2029.94 2034.29C2027.78 2038.25 2022.92 2039.66 2019.05 2037.46L2005.6 2029.72C2001.74 2027.5 2000.37 2022.51 2002.51 2018.53L2010.04 2004.71C2012.2 2000.75 2017.06 1999.34 2020.94 2001.54L2034.39 2009.28C2038.27 2011.52 2039.64 2016.51 2037.48 2020.47Z" stroke="#000000" stroke-width="3.4375" stroke-miterlimit="8" fill="#D6DBD9" fill-rule="evenodd"/><path d="M2059.48 1980.95 2051.94 1994.4C2049.78 1998.26 2044.92 1999.63 2041.05 1997.49L2027.59 1989.95C2023.74 1987.79 2022.37 1982.93 2024.51 1979.05L2032.04 1965.6C2034.21 1961.74 2039.06 1960.37 2042.94 1962.51L2056.39 1970.05C2060.27 1972.18 2061.64 1977.09 2059.48 1980.95Z" stroke="#000000" stroke-width="3.4375" stroke-miterlimit="8" fill="#D6DBD9" fill-rule="evenodd"/><path d="M2082.48 1938.95 2074.94 1952.4C2072.78 1956.26 2067.92 1957.63 2064.05 1955.49L2050.59 1947.95C2046.74 1945.79 2045.37 1940.93 2047.51 1937.05L2055.04 1923.6C2057.21 1919.74 2062.06 1918.37 2065.94 1920.51L2079.39 1928.05C2083.26 1930.19 2084.64 1935.09 2082.48 1938.95Z" stroke="#000000" stroke-width="3.4375" stroke-miterlimit="8" fill="#D6DBD9" fill-rule="evenodd"/><path d="M2105.45 1899.47 2097.71 1913.29C2095.49 1917.25 2090.5 1918.66 2086.52 1916.46L2072.71 1908.72C2068.75 1906.5 2067.34 1901.51 2069.53 1897.53L2077.27 1883.71C2079.5 1879.75 2084.48 1878.34 2088.46 1880.54L2102.28 1888.28C2106.26 1890.52 2107.67 1895.51 2105.45 1899.47L2105.45 1899.47Z" stroke="#000000" stroke-width="3.4375" stroke-miterlimit="8" fill="#D6DBD9" fill-rule="evenodd"/><path d="M2132.48 1851.95 2124.94 1865.4C2122.78 1869.26 2117.92 1870.63 2114.05 1868.49L2100.6 1860.95C2096.74 1858.79 2095.37 1853.93 2097.51 1850.05L2105.04 1836.6C2107.2 1832.74 2112.06 1831.37 2115.94 1833.51L2129.39 1841.05C2133.26 1843.19 2134.64 1848.09 2132.48 1851.95Z" stroke="#000000" stroke-width="3.4375" stroke-miterlimit="8" fill="#D6DBD9" fill-rule="evenodd"/><path d="M2154.47 1812.95 2146.94 1826.4C2144.77 1830.26 2139.92 1831.63 2136.04 1829.49L2122.59 1821.95C2118.74 1819.79 2117.37 1814.93 2119.51 1811.05L2127.04 1797.6C2129.2 1793.74 2134.06 1792.37 2137.94 1794.51L2151.39 1802.05C2155.29 1804.21 2156.63 1809.09 2154.47 1812.95Z" stroke="#000000" stroke-width="3.4375" stroke-miterlimit="8" fill="#D6DBD9" fill-rule="evenodd"/><path d="M2177.48 1770.95 2169.94 1784.4C2167.78 1788.26 2162.92 1789.63 2159.05 1787.49L2145.59 1779.95C2141.74 1777.79 2140.37 1772.93 2142.51 1769.05L2150.04 1755.6C2152.2 1751.74 2157.06 1750.37 2160.94 1752.51L2174.39 1760.05C2178.27 1762.23 2179.64 1767.09 2177.48 1770.95Z" stroke="#000000" stroke-width="3.4375" stroke-miterlimit="8" fill="#D6DBD9" fill-rule="evenodd"/><path d="M2198.48 1732.95 2190.95 1746.4C2188.78 1750.26 2183.92 1751.63 2180.05 1749.49L2166.6 1741.95C2162.74 1739.79 2161.37 1734.93 2163.51 1731.05L2171.05 1717.6C2173.21 1713.74 2178.07 1712.37 2181.94 1714.51L2195.39 1722.05C2199.25 1724.21 2200.64 1729.09 2198.48 1732.95Z" stroke="#000000" stroke-width="3.4375" stroke-miterlimit="8" fill="#D6DBD9" fill-rule="evenodd"/><path d="M2222.48 1689.95 2214.94 1703.4C2212.78 1707.26 2207.92 1708.63 2204.05 1706.49L2190.6 1698.95C2186.74 1696.79 2185.37 1691.93 2187.51 1688.05L2195.04 1674.6C2197.21 1670.74 2202.06 1669.37 2205.94 1671.51L2219.39 1679.05C2223.25 1681.21 2224.65 1686.09 2222.48 1689.95Z" stroke="#000000" stroke-width="3.4375" stroke-miterlimit="8" fill="#D6DBD9" fill-rule="evenodd"/><path d="M2244.48 1650.95 2236.94 1664.4C2234.78 1668.26 2229.92 1669.63 2226.05 1667.49L2212.59 1659.95C2208.74 1657.79 2207.37 1652.93 2209.51 1649.05L2217.04 1635.6C2219.21 1631.74 2224.06 1630.37 2227.94 1632.51L2241.39 1640.05C2245.26 1642.19 2246.64 1647.09 2244.48 1650.95Z" stroke="#000000" stroke-width="3.4375" stroke-miterlimit="8" fill="#D6DBD9" fill-rule="evenodd"/><path d="M2268.47 1608.95 2260.94 1622.4C2258.77 1626.26 2253.92 1627.63 2250.04 1625.49L2236.59 1617.95C2232.74 1615.79 2231.37 1610.93 2233.51 1607.05L2241.04 1593.6C2243.21 1589.74 2248.06 1588.37 2251.93 1590.51L2265.38 1598.05C2269.28 1600.21 2270.64 1605.09 2268.47 1608.95Z" stroke="#000000" stroke-width="3.4375" stroke-miterlimit="8" fill="#D6DBD9" fill-rule="evenodd"/><path d="M2290.47 1568.95 2282.94 1582.4C2280.77 1586.26 2275.92 1587.63 2272.05 1585.49L2258.6 1577.95C2254.74 1575.79 2253.37 1570.93 2255.51 1567.05L2263.04 1553.6C2265.21 1549.74 2270.06 1548.37 2273.94 1550.51L2287.39 1558.05C2291.27 1560.23 2292.64 1565.09 2290.47 1568.95Z" stroke="#000000" stroke-width="3.4375" stroke-miterlimit="8" fill="#D6DBD9" fill-rule="evenodd"/><path d="M2311.44 1532.95 2303.7 1546.4C2301.48 1550.26 2296.5 1551.63 2292.52 1549.49L2278.71 1541.95C2274.75 1539.79 2273.34 1534.93 2275.53 1531.05L2283.27 1517.6C2285.49 1513.74 2290.48 1512.37 2294.46 1514.51L2308.27 1522.05C2312.28 1524.21 2313.67 1529.09 2311.44 1532.95Z" stroke="#000000" stroke-width="3.4375" stroke-miterlimit="8" fill="#D6DBD9" fill-rule="evenodd"/><path d="M2108.48 1987.95 2100.95 2001.4C2098.78 2005.26 2093.92 2006.63 2090.05 2004.49L2076.6 1996.95C2072.74 1994.79 2071.37 1989.93 2073.51 1986.05L2081.05 1972.6C2083.21 1968.74 2088.07 1967.37 2091.94 1969.51L2105.39 1977.05C2109.25 1979.21 2110.64 1984.09 2108.48 1987.95Z" stroke="#000000" stroke-width="3.4375" stroke-miterlimit="8" fill="#D6DBD9" fill-rule="evenodd"/><path d="M2133.48 1943.95 2125.94 1957.4C2123.78 1961.26 2118.92 1962.63 2115.05 1960.49L2101.6 1952.95C2097.74 1950.79 2096.37 1945.93 2098.51 1942.05L2106.04 1928.6C2108.21 1924.74 2113.07 1923.37 2116.94 1925.51L2130.39 1933.05C2134.25 1935.21 2135.64 1940.09 2133.48 1943.95Z" stroke="#000000" stroke-width="3.4375" stroke-miterlimit="8" fill="#D6DBD9" fill-rule="evenodd"/><path d="M2156.48 1902.95 2148.94 1916.4C2146.78 1920.26 2141.92 1921.63 2138.05 1919.49L2124.6 1911.95C2120.74 1909.79 2119.37 1904.93 2121.51 1901.05L2129.04 1887.6C2131.21 1883.74 2136.06 1882.37 2139.94 1884.51L2153.39 1892.05C2157.26 1894.18 2158.64 1899.09 2156.48 1902.95Z" stroke="#000000" stroke-width="3.4375" stroke-miterlimit="8" fill="#D6DBD9" fill-rule="evenodd"/><path d="M2179.48 1861.47 2171.94 1875.29C2169.78 1879.25 2164.92 1880.66 2161.05 1878.47L2147.6 1870.72C2143.74 1868.5 2142.37 1863.51 2144.51 1859.53L2152.04 1845.71C2154.21 1841.75 2159.06 1840.34 2162.94 1842.54L2176.39 1850.28C2180.27 1852.52 2181.64 1857.51 2179.48 1861.47Z" stroke="#000000" stroke-width="3.4375" stroke-miterlimit="8" fill="#D6DBD9" fill-rule="evenodd"/><path d="M2203.48 1818.47 2195.94 1832.29C2193.78 1836.25 2188.92 1837.66 2185.05 1835.47L2171.6 1827.72C2167.74 1825.5 2166.37 1820.51 2168.51 1816.53L2176.04 1802.71C2178.21 1798.75 2183.06 1797.34 2186.94 1799.54L2200.39 1807.28C2204.26 1809.47 2205.64 1814.51 2203.48 1818.47Z" stroke="#000000" stroke-width="3.4375" stroke-miterlimit="8" fill="#D6DBD9" fill-rule="evenodd"/><path d="M2227.48 1775.95 2219.94 1789.4C2217.78 1793.26 2212.92 1794.63 2209.05 1792.49L2195.59 1784.95C2191.74 1782.79 2190.37 1777.93 2192.51 1774.05L2200.04 1760.6C2202.21 1756.74 2207.06 1755.37 2210.94 1757.51L2224.39 1765.05C2228.26 1767.19 2229.64 1772.09 2227.48 1775.95Z" stroke="#000000" stroke-width="3.4375" stroke-miterlimit="8" fill="#D6DBD9" fill-rule="evenodd"/><path d="M2244.47 1738.95 2236.94 1752.4C2234.77 1756.26 2229.92 1757.63 2226.04 1755.49L2212.59 1747.95C2208.74 1745.79 2207.37 1740.93 2209.51 1737.05L2217.04 1723.6C2219.2 1719.74 2224.06 1718.37 2227.93 1720.51L2241.38 1728.05C2245.28 1730.21 2246.63 1735.09 2244.47 1738.95Z" stroke="#000000" stroke-width="3.4375" stroke-miterlimit="8" fill="#D6DBD9" fill-rule="evenodd"/><path d="M2268.47 1695.95 2260.94 1709.4C2258.78 1713.26 2253.92 1714.63 2250.04 1712.49L2236.59 1704.95C2232.74 1702.79 2231.37 1697.93 2233.51 1694.05L2241.04 1680.6C2243.21 1676.74 2248.06 1675.37 2251.94 1677.51L2265.39 1685.05C2269.28 1687.21 2270.63 1692.09 2268.47 1695.95Z" stroke="#000000" stroke-width="3.4375" stroke-miterlimit="8" fill="#D6DBD9" fill-rule="evenodd"/><path d="M2290.48 1656.95 2282.94 1670.4C2280.78 1674.26 2275.92 1675.63 2272.05 1673.49L2258.6 1665.95C2254.74 1663.79 2253.37 1658.93 2255.51 1655.05L2263.04 1641.6C2265.21 1637.74 2270.06 1636.37 2273.94 1638.51L2287.39 1646.05C2291.27 1648.23 2292.64 1653.09 2290.48 1656.95Z" stroke="#000000" stroke-width="3.4375" stroke-miterlimit="8" fill="#D6DBD9" fill-rule="evenodd"/><path d="M2314.48 1614.95 2306.95 1628.4C2304.78 1632.26 2299.92 1633.63 2296.05 1631.49L2282.6 1623.95C2278.74 1621.79 2277.37 1616.93 2279.51 1613.05L2287.04 1599.6C2289.21 1595.74 2294.07 1594.37 2297.94 1596.51L2311.39 1604.05C2315.25 1606.21 2316.64 1611.09 2314.48 1614.95Z" stroke="#000000" stroke-width="3.4375" stroke-miterlimit="8" fill="#D6DBD9" fill-rule="evenodd"/><path d="M2063.47 2069.95 2024.2 2139.4C2022.02 2143.26 2017.12 2144.63 2013.21 2142.49L1999.63 2134.95C1995.74 2132.78 1994.36 2127.93 1996.52 2124.05L2035.78 2054.6C2037.96 2050.74 2042.86 2049.37 2046.77 2051.51L2060.35 2059.05C2064.26 2061.19 2065.65 2066.09 2063.47 2069.95Z" stroke="#000000" stroke-width="3.4375" stroke-miterlimit="8" fill="#D6DBD9" fill-rule="evenodd"/><path d="M2139.48 2031.95 2131.95 2045.4C2129.78 2049.26 2124.92 2050.63 2121.05 2048.49L2107.6 2040.95C2103.74 2038.79 2102.37 2033.93 2104.51 2030.05L2112.05 2016.6C2114.21 2012.74 2119.07 2011.37 2122.94 2013.51L2136.39 2021.05C2140.25 2023.21 2141.64 2028.09 2139.48 2031.95Z" stroke="#000000" stroke-width="3.4375" stroke-miterlimit="8" fill="#D6DBD9" fill-rule="evenodd"/><path d="M2084.48 2030.95 2076.94 2044.4C2074.78 2048.26 2069.92 2049.63 2066.05 2047.49L2052.59 2039.95C2048.74 2037.79 2047.37 2032.93 2049.51 2029.05L2057.04 2015.6C2059.21 2011.74 2064.06 2010.37 2067.94 2012.51L2081.39 2020.05C2085.27 2022.19 2086.64 2027.09 2084.48 2030.95Z" stroke="#000000" stroke-width="3.4375" stroke-miterlimit="8" fill="#D6DBD9" fill-rule="evenodd"/><path d="M2347.46 1559.02 2328.47 1592.39C2326.26 1596.26 2321.32 1597.63 2317.37 1595.49L2303.67 1587.92C2299.75 1585.75 2298.35 1580.88 2300.53 1576.98L2319.52 1543.61C2321.72 1539.74 2326.67 1538.37 2330.61 1540.51L2344.31 1548.08C2348.26 1550.27 2349.66 1555.15 2347.46 1559.02L2347.46 1559.02Z" stroke="#000000" stroke-width="3.4375" stroke-miterlimit="8" fill="#D6DBD9" fill-rule="evenodd"/><path d="M2114.48 2074.06 2065.07 2162.38C2062.89 2166.26 2058.02 2167.64 2054.13 2165.49L2040.61 2157.9C2036.74 2155.73 2035.37 2150.84 2037.51 2146.94L2086.92 2058.62C2089.09 2054.74 2093.97 2053.36 2097.86 2055.51L2111.37 2063.1C2115.25 2065.28 2116.65 2070.18 2114.48 2074.06Z" stroke="#000000" stroke-width="3.4375" stroke-miterlimit="8" fill="#D6DBD9" fill-rule="evenodd"/><path d="M2162.48 1988.95 2154.94 2002.4C2152.78 2006.26 2147.92 2007.63 2144.05 2005.49L2130.6 1997.95C2126.74 1995.79 2125.37 1990.93 2127.51 1987.05L2135.04 1973.6C2137.21 1969.74 2142.06 1968.37 2145.94 1970.51L2159.39 1978.05C2163.26 1980.19 2164.64 1985.09 2162.48 1988.95Z" stroke="#000000" stroke-width="3.4375" stroke-miterlimit="8" fill="#D6DBD9" fill-rule="evenodd"/><path d="M2188.47 1942.95 2180.94 1956.4C2178.77 1960.26 2173.92 1961.63 2170.04 1959.49L2156.59 1951.95C2152.74 1949.79 2151.37 1944.93 2153.51 1941.05L2161.04 1927.6C2163.21 1923.74 2168.06 1922.37 2171.93 1924.51L2185.39 1932.05C2189.29 1934.21 2190.63 1939.09 2188.47 1942.95Z" stroke="#000000" stroke-width="3.4375" stroke-miterlimit="8" fill="#D6DBD9" fill-rule="evenodd"/><path d="M2211.47 1901.95 2203.94 1915.4C2201.77 1919.26 2196.92 1920.63 2193.04 1918.49L2179.59 1910.95C2175.74 1908.79 2174.37 1903.93 2176.51 1900.05L2184.04 1886.6C2186.2 1882.74 2191.06 1881.37 2194.93 1883.51L2208.38 1891.05C2212.28 1893.21 2213.63 1898.09 2211.47 1901.95Z" stroke="#000000" stroke-width="3.4375" stroke-miterlimit="8" fill="#D6DBD9" fill-rule="evenodd"/><path d="M2234.45 1860.47 2226.71 1874.29C2224.49 1878.25 2219.5 1879.66 2215.52 1877.47L2201.71 1869.72C2197.75 1867.5 2196.34 1862.51 2198.53 1858.53L2206.28 1844.71C2208.5 1840.75 2213.49 1839.34 2217.47 1841.53L2231.28 1849.28C2235.24 1851.5 2236.67 1856.51 2234.45 1860.47Z" stroke="#000000" stroke-width="3.4375" stroke-miterlimit="8" fill="#D6DBD9" fill-rule="evenodd"/><path d="M2258.49 1816.95 2250.95 1830.4C2248.78 1834.26 2243.93 1835.63 2240.05 1833.49L2226.6 1825.95C2222.74 1823.79 2221.37 1818.93 2223.51 1815.05L2231.05 1801.6C2233.21 1797.74 2238.07 1796.37 2241.94 1798.51L2255.4 1806.05C2259.27 1808.19 2260.63 1813.07 2258.49 1816.95Z" stroke="#000000" stroke-width="3.4375" stroke-miterlimit="8" fill="#D6DBD9" fill-rule="evenodd"/><path d="M2281.48 1774.95 2273.94 1788.4C2271.78 1792.26 2266.92 1793.63 2263.05 1791.49L2249.59 1783.95C2245.74 1781.79 2244.37 1776.93 2246.51 1773.05L2254.04 1759.6C2256.21 1755.74 2261.06 1754.37 2264.94 1756.51L2278.39 1764.05C2282.27 1766.23 2283.64 1771.09 2281.48 1774.95Z" stroke="#000000" stroke-width="3.4375" stroke-miterlimit="8" fill="#D6DBD9" fill-rule="evenodd"/><path d="M2298.47 1737.95 2290.94 1751.4C2288.77 1755.26 2283.92 1756.63 2280.04 1754.49L2266.59 1746.95C2262.74 1744.79 2261.37 1739.93 2263.51 1736.05L2271.04 1722.6C2273.21 1718.74 2278.06 1717.37 2281.93 1719.51L2295.39 1727.05C2299.29 1729.21 2300.63 1734.09 2298.47 1737.95Z" stroke="#000000" stroke-width="3.4375" stroke-miterlimit="8" fill="#D6DBD9" fill-rule="evenodd"/><path d="M2322.48 1694.95 2314.94 1708.4C2312.78 1712.26 2307.92 1713.63 2304.05 1711.49L2290.6 1703.95C2286.74 1701.79 2285.37 1696.93 2287.51 1693.05L2295.04 1679.6C2297.21 1675.74 2302.06 1674.37 2305.94 1676.51L2319.39 1684.05C2323.26 1686.19 2324.64 1691.09 2322.48 1694.95Z" stroke="#000000" stroke-width="3.4375" stroke-miterlimit="8" fill="#D6DBD9" fill-rule="evenodd"/><path d="M2345.46 1655.95 2337.71 1669.4C2335.49 1673.26 2330.5 1674.63 2326.52 1672.49L2312.71 1664.95C2308.75 1662.79 2307.34 1657.93 2309.53 1654.05L2317.28 1640.6C2319.5 1636.74 2324.49 1635.37 2328.47 1637.51L2342.28 1645.05C2346.24 1647.21 2347.68 1652.09 2345.46 1655.95Z" stroke="#000000" stroke-width="3.4375" stroke-miterlimit="8" fill="#D6DBD9" fill-rule="evenodd"/><path d="M2385.47 1575.08 2356.15 1627.37C2353.97 1631.26 2349.08 1632.64 2345.18 1630.49L2331.63 1622.89C2327.74 1620.71 2326.36 1615.83 2328.51 1611.92L2357.83 1559.63C2360.01 1555.74 2364.9 1554.36 2368.81 1556.51L2382.36 1564.11C2386.27 1566.31 2387.65 1571.2 2385.47 1575.08Z" stroke="#000000" stroke-width="3.4375" stroke-miterlimit="8" fill="#D6DBD9" fill-rule="evenodd"/><path d="M2108.46 2173.95 2100.93 2187.4C2098.77 2191.26 2093.91 2192.63 2090.04 2190.49L2076.59 2182.95C2072.74 2180.79 2071.37 2175.93 2073.51 2172.05L2081.04 2158.6C2083.2 2154.74 2088.06 2153.37 2091.93 2155.51L2105.38 2163.05C2109.28 2165.21 2110.65 2170.06 2108.46 2173.95Z" stroke="#000000" stroke-width="3.4375" stroke-miterlimit="8" fill="#D6DBD9" fill-rule="evenodd"/><path d="M2130.48 2133.95 2122.94 2147.4C2120.77 2151.26 2115.92 2152.63 2112.05 2150.49L2098.59 2142.95C2094.74 2140.79 2093.37 2135.93 2095.51 2132.05L2103.04 2118.6C2105.2 2114.74 2110.06 2113.37 2113.94 2115.51L2127.39 2123.05C2131.27 2125.23 2132.64 2130.09 2130.48 2133.95Z" stroke="#000000" stroke-width="3.4375" stroke-miterlimit="8" fill="#D6DBD9" fill-rule="evenodd"/><path d="M2154.48 2091.95 2146.94 2105.4C2144.78 2109.26 2139.92 2110.63 2136.05 2108.49L2122.6 2100.95C2118.74 2098.79 2117.37 2093.93 2119.51 2090.05L2127.04 2076.6C2129.2 2072.74 2134.06 2071.37 2137.94 2073.51L2151.39 2081.05C2155.26 2083.19 2156.64 2088.09 2154.48 2091.95Z" stroke="#000000" stroke-width="3.4375" stroke-miterlimit="8" fill="#D6DBD9" fill-rule="evenodd"/><path d="M2176.48 2052.95 2168.94 2066.4C2166.78 2070.26 2161.92 2071.63 2158.05 2069.49L2144.6 2061.95C2140.74 2059.79 2139.37 2054.93 2141.51 2051.05L2149.04 2037.6C2151.21 2033.74 2156.06 2032.37 2159.94 2034.51L2173.39 2042.05C2177.25 2044.21 2178.65 2049.09 2176.48 2052.95Z" stroke="#000000" stroke-width="3.4375" stroke-miterlimit="8" fill="#D6DBD9" fill-rule="evenodd"/><path d="M2203.48 2005.95 2195.94 2019.4C2193.78 2023.26 2188.92 2024.63 2185.05 2022.49L2171.6 2014.95C2167.74 2012.79 2166.37 2007.93 2168.51 2004.05L2176.04 1990.6C2178.21 1986.74 2183.06 1985.37 2186.94 1987.51L2200.39 1995.05C2204.25 1997.21 2205.65 2002.09 2203.48 2005.95Z" stroke="#000000" stroke-width="3.4375" stroke-miterlimit="8" fill="#D6DBD9" fill-rule="evenodd"/><path d="M2293.47 1844 2218.06 1978.39C2215.89 1982.26 2211.01 1983.63 2207.12 1981.49L2193.61 1973.93C2189.74 1971.76 2188.37 1966.89 2190.51 1963L2265.92 1828.61C2268.09 1824.74 2272.97 1823.37 2276.86 1825.51L2290.37 1833.07C2294.28 1835.24 2295.64 1840.13 2293.47 1844Z" stroke="#000000" stroke-width="3.4375" stroke-miterlimit="8" fill="#D6DBD9" fill-rule="evenodd"/><path d="M2316.45 1803.95 2308.71 1817.4C2306.49 1821.26 2301.5 1822.63 2297.52 1820.49L2283.71 1812.95C2279.75 1810.79 2278.34 1805.93 2280.53 1802.05L2288.28 1788.6C2290.5 1784.74 2295.49 1783.37 2299.47 1785.51L2313.28 1793.05C2317.24 1795.21 2318.67 1800.09 2316.45 1803.95Z" stroke="#000000" stroke-width="3.4375" stroke-miterlimit="8" fill="#D6DBD9" fill-rule="evenodd"/><path d="M2339.48 1761.95 2331.94 1775.4C2329.78 1779.26 2324.92 1780.63 2321.05 1778.49L2307.6 1770.95C2303.74 1768.79 2302.37 1763.93 2304.51 1760.05L2312.04 1746.6C2314.21 1742.74 2319.06 1741.37 2322.94 1743.51L2336.39 1751.05C2340.26 1753.18 2341.64 1758.09 2339.48 1761.95Z" stroke="#000000" stroke-width="3.4375" stroke-miterlimit="8" fill="#D6DBD9" fill-rule="evenodd"/><path d="M2361.49 1722.48 2353.95 1736.29C2351.79 1740.25 2346.93 1741.66 2343.05 1739.46L2329.6 1731.72C2325.74 1729.5 2324.37 1724.51 2326.51 1720.53L2334.05 1706.71C2336.21 1702.75 2341.07 1701.34 2344.95 1703.54L2358.4 1711.28C2362.26 1713.5 2363.63 1718.49 2361.49 1722.48Z" stroke="#000000" stroke-width="3.4375" stroke-miterlimit="8" fill="#D6DBD9" fill-rule="evenodd"/><path d="M2382.48 1686.47 2374.94 1700.29C2372.78 1704.25 2367.92 1705.66 2364.05 1703.47L2350.59 1695.72C2346.74 1693.5 2345.37 1688.51 2347.51 1684.53L2355.04 1670.71C2357.21 1666.75 2362.06 1665.34 2365.94 1667.54L2379.39 1675.28C2383.26 1677.47 2384.64 1682.51 2382.48 1686.47Z" stroke="#000000" stroke-width="3.4375" stroke-miterlimit="8" fill="#D6DBD9" fill-rule="evenodd"/><path d="M2404.47 1642.48 2396.94 1656.29C2394.77 1660.25 2389.92 1661.66 2386.04 1659.47L2372.59 1651.72C2368.74 1649.5 2367.37 1644.51 2369.51 1640.53L2377.04 1626.71C2379.2 1622.75 2384.06 1621.34 2387.93 1623.54L2401.38 1631.28C2405.28 1633.5 2406.63 1638.52 2404.47 1642.48Z" stroke="#000000" stroke-width="3.4375" stroke-miterlimit="8" fill="#D6DBD9" fill-rule="evenodd"/><path d="M2428.47 1599.95 2420.94 1613.4C2418.77 1617.26 2413.92 1618.63 2410.05 1616.49L2396.59 1608.95C2392.74 1606.79 2391.37 1601.93 2393.51 1598.05L2401.04 1584.6C2403.21 1580.74 2408.06 1579.37 2411.94 1581.51L2425.39 1589.05C2429.27 1591.23 2430.64 1596.09 2428.47 1599.95Z" stroke="#000000" stroke-width="3.4375" stroke-miterlimit="8" fill="#D6DBD9" fill-rule="evenodd"/><path d="M2348.49 1464.95 2340.95 1478.4C2338.79 1482.26 2333.93 1483.63 2330.05 1481.49L2316.6 1473.95C2312.74 1471.79 2311.37 1466.93 2313.51 1463.05L2321.05 1449.6C2323.21 1445.74 2328.07 1444.37 2331.94 1446.51L2345.4 1454.05C2349.28 1456.19 2350.62 1461.07 2348.49 1464.95Z" stroke="#000000" stroke-width="3.4375" stroke-miterlimit="8" fill="#D6DBD9" fill-rule="evenodd"/><path d="M2393.48 1383.95 2385.94 1397.4C2383.78 1401.26 2378.92 1402.63 2375.05 1400.49L2361.6 1392.95C2357.74 1390.79 2356.37 1385.93 2358.51 1382.05L2366.04 1368.6C2368.21 1364.74 2373.06 1363.37 2376.94 1365.51L2390.39 1373.05C2394.26 1375.19 2395.64 1380.09 2393.48 1383.95Z" stroke="#000000" stroke-width="3.4375" stroke-miterlimit="8" fill="#D6DBD9" fill-rule="evenodd"/><path d="M2370.48 1425.47 2362.94 1439.29C2360.78 1443.25 2355.92 1444.66 2352.05 1442.46L2338.6 1434.72C2334.74 1432.5 2333.37 1427.51 2335.51 1423.53L2343.04 1409.71C2345.21 1405.75 2350.07 1404.34 2353.94 1406.54L2367.39 1414.28C2371.25 1416.5 2372.65 1421.51 2370.48 1425.47Z" stroke="#000000" stroke-width="3.4375" stroke-miterlimit="8" fill="#D6DBD9" fill-rule="evenodd"/><path d="M2387.48 1486.95 2379.94 1500.4C2377.78 1504.26 2372.92 1505.63 2369.05 1503.49L2355.6 1495.95C2351.74 1493.79 2350.37 1488.93 2352.51 1485.05L2360.04 1471.6C2362.21 1467.74 2367.07 1466.37 2370.94 1468.51L2384.39 1476.05C2388.25 1478.21 2389.64 1483.09 2387.48 1486.95Z" stroke="#000000" stroke-width="3.4375" stroke-miterlimit="8" fill="#D6DBD9" fill-rule="evenodd"/><path d="M2408.48 1446.95 2400.94 1460.4C2398.78 1464.26 2393.92 1465.63 2390.05 1463.49L2376.6 1455.95C2372.74 1453.79 2371.37 1448.93 2373.51 1445.05L2381.04 1431.6C2383.21 1427.74 2388.07 1426.37 2391.94 1428.51L2405.39 1436.05C2409.25 1438.21 2410.64 1443.09 2408.48 1446.95Z" stroke="#000000" stroke-width="3.4375" stroke-miterlimit="8" fill="#D6DBD9" fill-rule="evenodd"/><path d="M2431.47 1405.47 2423.94 1419.29C2421.77 1423.25 2416.92 1424.66 2413.04 1422.46L2399.59 1414.72C2395.74 1412.5 2394.37 1407.51 2396.51 1403.53L2404.04 1389.71C2406.21 1385.75 2411.06 1384.34 2414.94 1386.54L2428.39 1394.28C2432.28 1396.5 2433.63 1401.51 2431.47 1405.47Z" stroke="#000000" stroke-width="3.4375" stroke-miterlimit="8" fill="#D6DBD9" fill-rule="evenodd"/><path d="M2426.45 1508.47 2418.71 1522.29C2416.48 1526.25 2411.5 1527.66 2407.52 1525.47L2393.71 1517.72C2389.75 1515.5 2388.34 1510.51 2390.53 1506.53L2398.27 1492.71C2400.49 1488.75 2405.48 1487.34 2409.46 1489.53L2423.28 1497.28C2427.26 1499.52 2428.67 1504.51 2426.45 1508.47Z" stroke="#000000" stroke-width="3.4375" stroke-miterlimit="8" fill="#D6DBD9" fill-rule="evenodd"/><path d="M2444.47 1466.95 2436.94 1480.4C2434.78 1484.26 2429.92 1485.63 2426.04 1483.49L2412.59 1475.95C2408.74 1473.79 2407.37 1468.93 2409.51 1465.05L2417.04 1451.6C2419.21 1447.74 2424.06 1446.37 2427.94 1448.51L2441.39 1456.05C2445.29 1458.21 2446.63 1463.09 2444.47 1466.95Z" stroke="#000000" stroke-width="3.4375" stroke-miterlimit="8" fill="#D6DBD9" fill-rule="evenodd"/><path d="M2469.48 1424.95 2461.94 1438.4C2459.78 1442.26 2454.92 1443.63 2451.05 1441.49L2437.59 1433.95C2433.74 1431.79 2432.37 1426.93 2434.51 1423.05L2442.04 1409.6C2444.2 1405.74 2449.06 1404.37 2452.94 1406.51L2466.39 1414.05C2470.26 1416.19 2471.64 1421.09 2469.48 1424.95Z" stroke="#000000" stroke-width="3.4375" stroke-miterlimit="8" fill="#D6DBD9" fill-rule="evenodd"/><path d="M2489.47 1481.02 2455.05 1542.39C2452.88 1546.26 2448 1547.63 2444.11 1545.49L2430.61 1537.92C2426.74 1535.75 2425.37 1530.88 2427.51 1526.98L2461.93 1465.61C2464.1 1461.74 2468.97 1460.37 2472.86 1462.51L2486.37 1470.08C2490.28 1472.24 2491.64 1477.14 2489.47 1481.02L2489.47 1481.02Z" stroke="#000000" stroke-width="3.4375" stroke-miterlimit="8" fill="#D6DBD9" fill-rule="evenodd"/><path d="M2507.48 1446.47 2499.94 1460.29C2497.78 1464.25 2492.92 1465.66 2489.05 1463.46L2475.59 1455.72C2471.74 1453.5 2470.37 1448.51 2472.51 1444.53L2480.04 1430.71C2482.2 1426.75 2487.06 1425.34 2490.94 1427.54L2504.39 1435.28C2508.26 1437.47 2509.64 1442.51 2507.48 1446.47Z" stroke="#000000" stroke-width="3.4375" stroke-miterlimit="8" fill="#D6DBD9" fill-rule="evenodd"/></g></svg>