<svg width="766" height="997" xmlns="http://www.w3.org/2000/svg" xmlns:xlink="http://www.w3.org/1999/xlink" xml:space="preserve" overflow="hidden"><g transform="translate(-3227 -1281)"><path d="M3708.46 2251.65 3242.06 1467.46C3232.9 1452.04 3237.98 1432.13 3253.38 1422.98L3467.05 1296.06C3482.48 1286.9 3502.4 1291.98 3511.55 1307.37L3977.94 2091.52C3987.1 2106.95 3982.02 2126.85 3966.62 2136L3752.95 2262.92C3737.56 2272.1 3717.61 2267.04 3708.46 2251.65L3708.46 2251.65Z" stroke="#000000" stroke-width="20.625" stroke-miterlimit="8" fill="#A6A897" fill-rule="evenodd"/><path d="M3570.44 1555.51 3555.62 1529.93C3553.37 1526.05 3554.61 1521.05 3558.39 1518.71L3571.61 1510.65C3575.4 1508.34 3580.28 1509.61 3582.56 1513.49L3597.38 1539.06C3599.63 1542.94 3598.39 1547.95 3594.61 1550.28L3581.39 1558.34C3577.57 1560.66 3572.69 1559.39 3570.44 1555.51Z" stroke="#000000" stroke-width="3.4375" stroke-miterlimit="8" fill="#D6DBD9" fill-rule="evenodd"/><path d="M3641.44 1674.59 3626.62 1649.53C3624.37 1645.72 3625.61 1640.82 3629.39 1638.53L3642.61 1630.63C3646.4 1628.37 3651.28 1629.61 3653.56 1633.41L3668.38 1658.47C3670.63 1662.28 3669.39 1667.18 3665.61 1669.47L3652.39 1677.37C3648.6 1679.63 3643.69 1678.4 3641.44 1674.59Z" stroke="#000000" stroke-width="3.4375" stroke-miterlimit="8" fill="#D6DBD9" fill-rule="evenodd"/><path d="M3474.44 1393.58 3459.62 1368.52C3457.37 1364.71 3458.61 1359.81 3462.39 1357.52L3475.61 1349.63C3479.4 1347.37 3484.28 1348.61 3486.56 1352.41L3501.38 1377.46C3503.63 1381.27 3502.39 1386.17 3498.61 1388.46L3485.39 1396.36C3481.61 1398.65 3476.69 1397.38 3474.44 1393.58Z" stroke="#000000" stroke-width="3.4375" stroke-miterlimit="8" fill="#D6DBD9" fill-rule="evenodd"/><path d="M3505.8 1446.57 3490.65 1421.52C3488.35 1417.71 3489.61 1412.81 3493.48 1410.52L3507 1402.63C3510.87 1400.37 3515.86 1401.61 3518.2 1405.41L3533.35 1430.46C3535.65 1434.27 3534.39 1439.17 3530.52 1441.46L3517 1449.35C3513.1 1451.65 3508.1 1450.38 3505.8 1446.57Z" stroke="#000000" stroke-width="3.4375" stroke-miterlimit="8" fill="#D6DBD9" fill-rule="evenodd"/><path d="M3765.44 1883.58 3750.62 1858.52C3748.37 1854.72 3749.61 1849.82 3753.39 1847.52L3766.61 1839.63C3770.4 1837.37 3775.28 1838.61 3777.56 1842.41L3792.38 1867.46C3794.63 1871.27 3793.39 1876.17 3789.61 1878.46L3776.39 1886.36C3772.61 1888.65 3767.72 1887.38 3765.44 1883.58Z" stroke="#000000" stroke-width="3.4375" stroke-miterlimit="8" fill="#D6DBD9" fill-rule="evenodd"/><path d="M3538.44 1501.58 3523.62 1476.52C3521.37 1472.71 3522.61 1467.81 3526.39 1465.52L3539.61 1457.63C3543.4 1455.37 3548.28 1456.61 3550.56 1460.41L3565.38 1485.46C3567.63 1489.27 3566.39 1494.17 3562.61 1496.46L3549.39 1504.36C3545.61 1506.65 3540.69 1505.38 3538.44 1501.58Z" stroke="#000000" stroke-width="3.4375" stroke-miterlimit="8" fill="#D6DBD9" fill-rule="evenodd"/><path d="M3672.8 1728.51 3657.65 1702.94C3655.35 1699.05 3656.61 1694.05 3660.48 1691.71L3674 1683.65C3677.87 1681.34 3682.86 1682.61 3685.2 1686.49L3700.35 1712.06C3702.65 1715.95 3701.39 1720.95 3697.52 1723.29L3684 1731.35C3680.12 1733.65 3675.1 1732.4 3672.8 1728.51Z" stroke="#000000" stroke-width="3.4375" stroke-miterlimit="8" fill="#D6DBD9" fill-rule="evenodd"/><path d="M3703.44 1779.59 3688.62 1754.52C3686.37 1750.72 3687.61 1745.81 3691.39 1743.52L3704.61 1735.63C3708.4 1733.37 3713.28 1734.61 3715.56 1738.41L3730.38 1763.47C3732.63 1767.28 3731.39 1772.18 3727.61 1774.47L3714.39 1782.37C3710.57 1784.64 3705.69 1783.39 3703.44 1779.59Z" stroke="#000000" stroke-width="3.4375" stroke-miterlimit="8" fill="#D6DBD9" fill-rule="evenodd"/><path d="M3734.44 1831.58 3719.62 1806.52C3717.37 1802.72 3718.61 1797.82 3722.39 1795.52L3735.61 1787.63C3739.4 1785.37 3744.28 1786.61 3746.56 1790.41L3761.38 1815.46C3763.63 1819.27 3762.39 1824.17 3758.61 1826.46L3745.39 1834.35C3741.61 1836.65 3736.69 1835.38 3734.44 1831.58Z" stroke="#000000" stroke-width="3.4375" stroke-miterlimit="8" fill="#D6DBD9" fill-rule="evenodd"/><path d="M3605.44 1614.57 3590.62 1589.52C3588.37 1585.72 3589.61 1580.81 3593.39 1578.52L3606.61 1570.63C3610.4 1568.37 3615.28 1569.61 3617.56 1573.41L3632.38 1598.46C3634.63 1602.26 3633.39 1607.17 3629.61 1609.46L3616.39 1617.35C3612.58 1619.65 3607.69 1618.38 3605.44 1614.57Z" stroke="#000000" stroke-width="3.4375" stroke-miterlimit="8" fill="#D6DBD9" fill-rule="evenodd"/><path d="M3802.8 1942.58 3787.65 1917.52C3785.35 1913.71 3786.61 1908.81 3790.48 1906.52L3804 1898.63C3807.87 1896.37 3812.86 1897.61 3815.2 1901.41L3830.35 1926.46C3832.65 1930.27 3831.39 1935.17 3827.52 1937.46L3814 1945.36C3810.14 1947.65 3805.1 1946.39 3802.8 1942.58Z" stroke="#000000" stroke-width="3.4375" stroke-miterlimit="8" fill="#D6DBD9" fill-rule="evenodd"/><path d="M3450.14 1441.57 3419.64 1390.53C3417.36 1386.72 3418.61 1381.82 3422.43 1379.53L3435.79 1371.63C3439.62 1369.37 3444.56 1370.61 3446.86 1374.41L3477.36 1425.45C3479.64 1429.25 3478.39 1434.16 3474.57 1436.45L3461.21 1444.35C3457.35 1446.65 3452.41 1445.38 3450.14 1441.57Z" stroke="#000000" stroke-width="3.4375" stroke-miterlimit="8" fill="#D6DBD9" fill-rule="evenodd"/><path d="M3475.72 1484.61 3467.65 1471.41C3465.34 1467.62 3466.61 1462.75 3470.49 1460.47L3484.05 1452.62C3487.94 1450.37 3492.94 1451.61 3495.28 1455.38L3503.35 1468.59C3505.66 1472.37 3504.39 1477.24 3500.51 1479.52L3486.95 1487.37C3483.03 1489.63 3478.03 1488.39 3475.72 1484.61Z" stroke="#000000" stroke-width="3.4375" stroke-miterlimit="8" fill="#D6DBD9" fill-rule="evenodd"/><path d="M3498.72 1523.6 3490.65 1510.4C3488.34 1506.62 3489.61 1501.75 3493.49 1499.47L3507.05 1491.62C3510.94 1489.37 3515.94 1490.61 3518.28 1494.38L3526.35 1507.58C3528.66 1511.37 3527.39 1516.24 3523.51 1518.52L3509.95 1526.37C3506.07 1528.64 3501.03 1527.38 3498.72 1523.6Z" stroke="#000000" stroke-width="3.4375" stroke-miterlimit="8" fill="#D6DBD9" fill-rule="evenodd"/><path d="M3523.47 1565.49 3515.62 1551.94C3513.37 1548.05 3514.61 1543.05 3518.38 1540.71L3531.59 1532.65C3535.37 1530.34 3540.25 1531.61 3542.53 1535.49L3550.38 1549.04C3552.63 1552.93 3551.39 1557.93 3547.62 1560.27L3534.41 1568.33C3530.64 1570.67 3525.72 1569.38 3523.47 1565.49Z" stroke="#000000" stroke-width="3.4375" stroke-miterlimit="8" fill="#D6DBD9" fill-rule="evenodd"/><path d="M3546.47 1604.51 3538.62 1590.95C3536.37 1587.06 3537.61 1582.06 3541.38 1579.71L3554.59 1571.65C3558.37 1569.34 3563.25 1570.61 3565.53 1574.49L3573.38 1588.05C3575.63 1591.93 3574.39 1596.94 3570.62 1599.28L3557.41 1607.34C3553.59 1609.66 3548.72 1608.39 3546.47 1604.51L3546.47 1604.51Z" stroke="#000000" stroke-width="3.4375" stroke-miterlimit="8" fill="#D6DBD9" fill-rule="evenodd"/><path d="M3573.72 1651.5 3565.65 1637.94C3563.34 1634.06 3564.61 1629.05 3568.49 1626.71L3582.05 1618.65C3585.94 1616.34 3590.94 1617.61 3593.28 1621.49L3601.35 1635.04C3603.66 1638.93 3602.39 1643.93 3598.51 1646.27L3584.95 1654.33C3581.07 1656.67 3576.03 1655.38 3573.72 1651.5Z" stroke="#000000" stroke-width="3.4375" stroke-miterlimit="8" fill="#D6DBD9" fill-rule="evenodd"/><path d="M3597.47 1690.49 3589.62 1676.94C3587.37 1673.05 3588.61 1668.05 3592.38 1665.71L3605.59 1657.65C3609.37 1655.34 3614.25 1656.61 3616.53 1660.49L3624.38 1674.04C3626.63 1677.92 3625.39 1682.92 3621.62 1685.26L3608.41 1693.32C3604.61 1695.68 3599.72 1694.38 3597.47 1690.49Z" stroke="#000000" stroke-width="3.4375" stroke-miterlimit="8" fill="#D6DBD9" fill-rule="evenodd"/><path d="M3621.72 1731.61 3613.65 1718.41C3611.34 1714.62 3612.61 1709.75 3616.49 1707.47L3630.05 1699.62C3633.94 1697.37 3638.94 1698.61 3641.28 1702.38L3649.35 1715.59C3651.66 1719.37 3650.39 1724.24 3646.51 1726.52L3632.95 1734.37C3629.03 1736.63 3624.02 1735.4 3621.72 1731.61Z" stroke="#000000" stroke-width="3.4375" stroke-miterlimit="8" fill="#D6DBD9" fill-rule="evenodd"/><path d="M3643.72 1768.51 3635.65 1754.95C3633.34 1751.06 3634.61 1746.06 3638.49 1743.72L3652.05 1735.65C3655.94 1733.34 3660.94 1734.61 3663.28 1738.49L3671.35 1752.05C3673.66 1755.93 3672.39 1760.94 3668.51 1763.28L3654.95 1771.34C3651.06 1773.66 3646.03 1772.4 3643.72 1768.51Z" stroke="#000000" stroke-width="3.4375" stroke-miterlimit="8" fill="#D6DBD9" fill-rule="evenodd"/><path d="M3669.47 1810.61 3661.62 1797.41C3659.37 1793.63 3660.61 1788.75 3664.38 1786.47L3677.59 1778.62C3681.37 1776.37 3686.25 1777.61 3688.53 1781.38L3696.38 1794.59C3698.63 1798.37 3697.39 1803.25 3693.62 1805.53L3680.41 1813.38C3676.63 1815.62 3671.72 1814.4 3669.47 1810.61Z" stroke="#000000" stroke-width="3.4375" stroke-miterlimit="8" fill="#D6DBD9" fill-rule="evenodd"/><path d="M3692.47 1849.49 3684.62 1835.94C3682.37 1832.05 3683.61 1827.05 3687.38 1824.71L3700.59 1816.65C3704.37 1814.34 3709.25 1815.61 3711.53 1819.49L3719.38 1833.04C3721.63 1836.93 3720.39 1841.94 3716.62 1844.28L3703.41 1852.34C3699.64 1854.67 3694.72 1853.38 3692.47 1849.49Z" stroke="#000000" stroke-width="3.4375" stroke-miterlimit="8" fill="#D6DBD9" fill-rule="evenodd"/><path d="M3716.72 1890.6 3708.65 1877.4C3706.34 1873.62 3707.61 1868.75 3711.49 1866.47L3725.05 1858.62C3728.94 1856.37 3733.94 1857.61 3736.28 1861.38L3744.35 1874.58C3746.66 1878.36 3745.39 1883.23 3741.51 1885.51L3727.95 1893.35C3724.04 1895.65 3719.03 1894.38 3716.72 1890.6Z" stroke="#000000" stroke-width="3.4375" stroke-miterlimit="8" fill="#D6DBD9" fill-rule="evenodd"/><path d="M3740.47 1929.61 3732.62 1916.41C3730.37 1912.63 3731.61 1907.75 3735.38 1905.47L3748.59 1897.62C3752.37 1895.37 3757.25 1896.61 3759.53 1900.38L3767.38 1913.58C3769.63 1917.37 3768.39 1922.24 3764.62 1924.52L3751.41 1932.37C3747.59 1934.63 3742.72 1933.39 3740.47 1929.61Z" stroke="#000000" stroke-width="3.4375" stroke-miterlimit="8" fill="#D6DBD9" fill-rule="evenodd"/><path d="M3760.72 1965.6 3752.65 1952.4C3750.34 1948.62 3751.61 1943.75 3755.49 1941.47L3769.05 1933.62C3772.94 1931.37 3777.94 1932.61 3780.28 1936.38L3788.35 1949.58C3790.66 1953.36 3789.39 1958.23 3785.51 1960.51L3771.95 1968.36C3768.04 1970.65 3763.02 1969.38 3760.72 1965.6Z" stroke="#000000" stroke-width="3.4375" stroke-miterlimit="8" fill="#D6DBD9" fill-rule="evenodd"/><path d="M3468.47 1563.51 3460.62 1549.95C3458.37 1546.06 3459.61 1541.06 3463.38 1538.72L3476.59 1530.65C3480.37 1528.34 3485.25 1529.61 3487.53 1533.49L3495.38 1547.05C3497.63 1550.94 3496.39 1555.94 3492.62 1558.28L3479.41 1566.34C3475.63 1568.66 3470.72 1567.4 3468.47 1563.51Z" stroke="#000000" stroke-width="3.4375" stroke-miterlimit="8" fill="#D6DBD9" fill-rule="evenodd"/><path d="M3493.47 1606.61 3485.62 1593.41C3483.37 1589.63 3484.61 1584.75 3488.38 1582.47L3501.59 1574.62C3505.37 1572.37 3510.25 1573.61 3512.53 1577.38L3520.38 1590.59C3522.63 1594.37 3521.39 1599.25 3517.62 1601.53L3504.41 1609.38C3500.62 1611.62 3495.72 1610.4 3493.47 1606.61Z" stroke="#000000" stroke-width="3.4375" stroke-miterlimit="8" fill="#D6DBD9" fill-rule="evenodd"/><path d="M3517.72 1647.49 3509.65 1633.94C3507.34 1630.05 3508.61 1625.05 3512.49 1622.71L3526.05 1614.65C3529.94 1612.34 3534.94 1613.61 3537.28 1617.49L3545.35 1631.04C3547.66 1634.93 3546.39 1639.93 3542.51 1642.27L3528.95 1650.33C3525.07 1652.67 3520.03 1651.38 3517.72 1647.49Z" stroke="#000000" stroke-width="3.4375" stroke-miterlimit="8" fill="#D6DBD9" fill-rule="evenodd"/><path d="M3542.47 1687.61 3534.62 1674.41C3532.37 1670.62 3533.61 1665.75 3537.38 1663.47L3550.59 1655.62C3554.37 1653.37 3559.25 1654.61 3561.53 1658.38L3569.38 1671.59C3571.63 1675.37 3570.39 1680.24 3566.62 1682.52L3553.41 1690.37C3549.6 1692.63 3544.72 1691.39 3542.47 1687.61Z" stroke="#000000" stroke-width="3.4375" stroke-miterlimit="8" fill="#D6DBD9" fill-rule="evenodd"/><path d="M3567.47 1730.5 3559.62 1716.94C3557.37 1713.05 3558.61 1708.05 3562.38 1705.71L3575.59 1697.65C3579.37 1695.34 3584.25 1696.61 3586.53 1700.49L3594.38 1714.04C3596.63 1717.93 3595.39 1722.93 3591.62 1725.27L3578.41 1733.33C3574.64 1735.67 3569.72 1734.38 3567.47 1730.5Z" stroke="#000000" stroke-width="3.4375" stroke-miterlimit="8" fill="#D6DBD9" fill-rule="evenodd"/><path d="M3592.47 1771.6 3584.62 1758.4C3582.37 1754.62 3583.61 1749.75 3587.38 1747.47L3600.59 1739.62C3604.37 1737.37 3609.25 1738.61 3611.53 1742.38L3619.38 1755.58C3621.63 1759.36 3620.39 1764.24 3616.62 1766.52L3603.41 1774.36C3599.64 1776.64 3594.72 1775.39 3592.47 1771.6Z" stroke="#000000" stroke-width="3.4375" stroke-miterlimit="8" fill="#D6DBD9" fill-rule="evenodd"/><path d="M3615.72 1804.6 3607.65 1791.4C3605.34 1787.62 3606.61 1782.75 3610.49 1780.47L3624.05 1772.62C3627.94 1770.37 3632.94 1771.61 3635.28 1775.38L3643.35 1788.58C3645.66 1792.36 3644.39 1797.23 3640.51 1799.51L3626.95 1807.35C3623.04 1809.65 3618.02 1808.38 3615.72 1804.6Z" stroke="#000000" stroke-width="3.4375" stroke-miterlimit="8" fill="#D6DBD9" fill-rule="evenodd"/><path d="M3640.72 1847.49 3632.65 1833.94C3630.34 1830.05 3631.61 1825.05 3635.49 1822.71L3649.05 1814.65C3652.94 1812.34 3657.94 1813.61 3660.28 1817.49L3668.35 1831.04C3670.66 1834.93 3669.39 1839.93 3665.51 1842.27L3651.95 1850.32C3648.04 1852.68 3643.02 1851.38 3640.72 1847.49Z" stroke="#000000" stroke-width="3.4375" stroke-miterlimit="8" fill="#D6DBD9" fill-rule="evenodd"/><path d="M3664.47 1886.51 3656.62 1872.95C3654.37 1869.06 3655.61 1864.06 3659.38 1861.71L3672.59 1853.65C3676.37 1851.34 3681.25 1852.61 3683.53 1856.49L3691.38 1870.04C3693.63 1873.93 3692.39 1878.94 3688.62 1881.28L3675.41 1889.34C3671.59 1891.66 3666.72 1890.39 3664.47 1886.51Z" stroke="#000000" stroke-width="3.4375" stroke-miterlimit="8" fill="#D6DBD9" fill-rule="evenodd"/><path d="M3688.72 1927.61 3680.65 1914.41C3678.34 1910.63 3679.61 1905.75 3683.49 1903.47L3697.05 1895.62C3700.94 1893.37 3705.94 1894.61 3708.28 1898.38L3716.35 1911.59C3718.66 1915.37 3717.39 1920.25 3713.51 1922.53L3699.95 1930.38C3696.06 1932.62 3691.03 1931.4 3688.72 1927.61Z" stroke="#000000" stroke-width="3.4375" stroke-miterlimit="8" fill="#D6DBD9" fill-rule="evenodd"/><path d="M3420.33 1483.55 3379.63 1414.64C3377.37 1410.81 3378.61 1405.88 3382.4 1403.58L3395.68 1395.63C3399.48 1393.36 3404.38 1394.61 3406.67 1398.43L3447.37 1467.34C3449.63 1471.17 3448.39 1476.1 3444.6 1478.41L3431.32 1486.35C3427.53 1488.65 3422.59 1487.39 3420.33 1483.55Z" stroke="#000000" stroke-width="3.4375" stroke-miterlimit="8" fill="#D6DBD9" fill-rule="evenodd"/><path d="M3414.47 1567.62 3406.62 1554.41C3404.37 1550.63 3405.61 1545.75 3409.38 1543.47L3422.59 1535.62C3426.37 1533.37 3431.25 1534.61 3433.53 1538.38L3441.38 1551.59C3443.63 1555.37 3442.39 1560.25 3438.62 1562.53L3425.41 1570.38C3421.63 1572.62 3416.72 1571.4 3414.47 1567.62Z" stroke="#000000" stroke-width="3.4375" stroke-miterlimit="8" fill="#D6DBD9" fill-rule="evenodd"/><path d="M3443.47 1520.6 3435.62 1507.4C3433.37 1503.62 3434.61 1498.75 3438.38 1496.47L3451.59 1488.62C3455.37 1486.37 3460.25 1487.61 3462.53 1491.38L3470.38 1504.58C3472.63 1508.37 3471.39 1513.24 3467.62 1515.52L3454.41 1523.36C3450.64 1525.64 3445.72 1524.38 3443.47 1520.6Z" stroke="#000000" stroke-width="3.4375" stroke-miterlimit="8" fill="#D6DBD9" fill-rule="evenodd"/><path d="M3720.2 1983.57 3700.63 1950.61C3698.36 1946.79 3699.61 1941.86 3703.42 1939.56L3716.75 1931.63C3720.57 1929.36 3725.5 1930.61 3727.8 1934.42L3747.37 1967.39C3749.64 1971.21 3748.39 1976.13 3744.58 1978.43L3731.25 1986.36C3727.39 1988.64 3722.47 1987.39 3720.2 1983.57L3720.2 1983.57Z" stroke="#000000" stroke-width="3.4375" stroke-miterlimit="8" fill="#D6DBD9" fill-rule="evenodd"/><path d="M3390.91 1525.58 3338.64 1438.6C3336.35 1434.78 3337.61 1429.86 3341.46 1427.56L3354.93 1419.63C3358.8 1417.36 3363.77 1418.61 3366.09 1422.42L3418.36 1509.4C3420.65 1513.22 3419.39 1518.14 3415.54 1520.44L3402.07 1528.36C3398.2 1530.63 3393.2 1529.4 3390.91 1525.58Z" stroke="#000000" stroke-width="3.4375" stroke-miterlimit="8" fill="#D6DBD9" fill-rule="evenodd"/><path d="M3440.47 1608.6 3432.62 1595.4C3430.37 1591.62 3431.61 1586.75 3435.38 1584.47L3448.59 1576.62C3452.37 1574.37 3457.25 1575.61 3459.53 1579.38L3467.38 1592.58C3469.63 1596.37 3468.39 1601.24 3464.62 1603.52L3451.41 1611.36C3447.64 1613.64 3442.72 1612.38 3440.47 1608.6Z" stroke="#000000" stroke-width="3.4375" stroke-miterlimit="8" fill="#D6DBD9" fill-rule="evenodd"/><path d="M3467.47 1654.6 3459.62 1641.4C3457.37 1637.62 3458.61 1632.74 3462.38 1630.47L3475.59 1622.62C3479.37 1620.37 3484.25 1621.61 3486.53 1625.38L3494.38 1638.58C3496.63 1642.36 3495.39 1647.23 3491.62 1649.51L3478.41 1657.36C3474.6 1659.65 3469.72 1658.38 3467.47 1654.6Z" stroke="#000000" stroke-width="3.4375" stroke-miterlimit="8" fill="#D6DBD9" fill-rule="evenodd"/><path d="M3491.47 1694.59 3483.62 1681.4C3481.37 1677.62 3482.61 1672.74 3486.38 1670.47L3499.59 1662.62C3503.37 1660.37 3508.25 1661.61 3510.53 1665.38L3518.38 1678.58C3520.63 1682.36 3519.39 1687.23 3515.62 1689.51L3502.41 1697.36C3498.61 1699.65 3493.72 1698.38 3491.47 1694.59Z" stroke="#000000" stroke-width="3.4375" stroke-miterlimit="8" fill="#D6DBD9" fill-rule="evenodd"/><path d="M3515.72 1735.61 3507.65 1722.41C3505.34 1718.63 3506.61 1713.75 3510.49 1711.47L3524.05 1703.62C3527.94 1701.37 3532.94 1702.61 3535.28 1706.38L3543.35 1719.58C3545.66 1723.37 3544.39 1728.24 3540.51 1730.52L3526.95 1738.37C3523.06 1740.62 3518.03 1739.4 3515.72 1735.61Z" stroke="#000000" stroke-width="3.4375" stroke-miterlimit="8" fill="#D6DBD9" fill-rule="evenodd"/><path d="M3541.47 1777.6 3533.62 1764.4C3531.37 1760.62 3532.61 1755.75 3536.38 1753.47L3549.59 1745.62C3553.37 1743.37 3558.25 1744.61 3560.53 1748.38L3568.38 1761.58C3570.63 1765.37 3569.39 1770.24 3565.62 1772.52L3552.41 1780.36C3548.64 1782.64 3543.75 1781.38 3541.47 1777.6Z" stroke="#000000" stroke-width="3.4375" stroke-miterlimit="8" fill="#D6DBD9" fill-rule="evenodd"/><path d="M3565.72 1819.51 3557.65 1805.95C3555.34 1802.06 3556.61 1797.05 3560.49 1794.72L3574.05 1786.65C3577.94 1784.34 3582.94 1785.61 3585.28 1789.49L3593.35 1803.04C3595.66 1806.93 3594.39 1811.94 3590.51 1814.28L3576.95 1822.34C3573.03 1824.66 3568.03 1823.39 3565.72 1819.51Z" stroke="#000000" stroke-width="3.4375" stroke-miterlimit="8" fill="#D6DBD9" fill-rule="evenodd"/><path d="M3589.47 1852.6 3581.62 1839.4C3579.37 1835.62 3580.61 1830.75 3584.38 1828.47L3597.59 1820.62C3601.37 1818.37 3606.25 1819.61 3608.53 1823.38L3616.38 1836.58C3618.63 1840.36 3617.39 1845.23 3613.62 1847.51L3600.41 1855.35C3596.6 1857.65 3591.72 1856.38 3589.47 1852.6Z" stroke="#000000" stroke-width="3.4375" stroke-miterlimit="8" fill="#D6DBD9" fill-rule="evenodd"/><path d="M3614.47 1894.6 3606.62 1881.4C3604.37 1877.62 3605.61 1872.75 3609.38 1870.47L3622.59 1862.62C3626.37 1860.37 3631.25 1861.61 3633.53 1865.38L3641.38 1878.58C3643.63 1882.36 3642.39 1887.24 3638.62 1889.51L3625.41 1897.36C3621.64 1899.64 3616.72 1898.39 3614.47 1894.6Z" stroke="#000000" stroke-width="3.4375" stroke-miterlimit="8" fill="#D6DBD9" fill-rule="evenodd"/><path d="M3637.72 1933.61 3629.65 1920.41C3627.34 1916.63 3628.61 1911.75 3632.49 1909.47L3646.05 1901.62C3649.94 1899.37 3654.94 1900.61 3657.28 1904.39L3665.35 1917.59C3667.66 1921.37 3666.39 1926.25 3662.51 1928.53L3648.95 1936.38C3645.06 1938.62 3640.03 1937.4 3637.72 1933.61Z" stroke="#000000" stroke-width="3.4375" stroke-miterlimit="8" fill="#D6DBD9" fill-rule="evenodd"/><path d="M3688.21 2009.55 3657.63 1957.74C3655.36 1953.89 3656.61 1948.94 3660.42 1946.62L3673.75 1938.64C3677.57 1936.35 3682.49 1937.61 3684.79 1941.45L3715.37 1993.25C3717.64 1997.1 3716.39 2002.06 3712.58 2004.37L3699.25 2012.35C3695.4 2014.65 3690.48 2013.39 3688.21 2009.55Z" stroke="#000000" stroke-width="3.4375" stroke-miterlimit="8" fill="#D6DBD9" fill-rule="evenodd"/><path d="M3307.47 1469.59 3299.62 1456.39C3297.37 1452.61 3298.61 1447.74 3302.38 1445.46L3315.59 1437.62C3319.37 1435.37 3324.25 1436.61 3326.53 1440.38L3334.38 1453.58C3336.63 1457.36 3335.39 1462.23 3331.62 1464.51L3318.41 1472.35C3314.6 1474.64 3309.73 1473.41 3307.47 1469.59Z" stroke="#000000" stroke-width="3.4375" stroke-miterlimit="8" fill="#D6DBD9" fill-rule="evenodd"/><path d="M3330.47 1508.61 3322.62 1495.41C3320.37 1491.62 3321.61 1486.75 3325.38 1484.47L3338.59 1476.62C3342.37 1474.37 3347.25 1475.61 3349.53 1479.38L3357.38 1492.59C3359.63 1496.37 3358.39 1501.24 3354.62 1503.52L3341.41 1511.37C3337.59 1513.63 3332.72 1512.39 3330.47 1508.61Z" stroke="#000000" stroke-width="3.4375" stroke-miterlimit="8" fill="#D6DBD9" fill-rule="evenodd"/><path d="M3355.47 1550.6 3347.62 1537.4C3345.37 1533.62 3346.61 1528.75 3350.38 1526.47L3363.59 1518.62C3367.37 1516.37 3372.25 1517.61 3374.53 1521.38L3382.38 1534.58C3384.63 1538.36 3383.39 1543.24 3379.62 1545.52L3366.41 1553.36C3362.64 1555.64 3357.72 1554.39 3355.47 1550.6Z" stroke="#000000" stroke-width="3.4375" stroke-miterlimit="8" fill="#D6DBD9" fill-rule="evenodd"/><path d="M3378.47 1589.51 3370.62 1575.95C3368.37 1572.06 3369.61 1567.05 3373.38 1564.71L3386.59 1556.65C3390.37 1554.34 3395.25 1555.61 3397.53 1559.49L3405.38 1573.05C3407.63 1576.94 3406.39 1581.95 3402.62 1584.29L3389.41 1592.35C3385.62 1594.65 3380.72 1593.4 3378.47 1589.51Z" stroke="#000000" stroke-width="3.4375" stroke-miterlimit="8" fill="#D6DBD9" fill-rule="evenodd"/><path d="M3405.47 1636.61 3397.62 1623.41C3395.37 1619.63 3396.61 1614.75 3400.38 1612.47L3413.59 1604.62C3417.37 1602.37 3422.25 1603.61 3424.53 1607.38L3432.38 1620.59C3434.63 1624.37 3433.39 1629.25 3429.62 1631.52L3416.41 1639.38C3412.62 1641.62 3407.72 1640.4 3405.47 1636.61Z" stroke="#000000" stroke-width="3.4375" stroke-miterlimit="8" fill="#D6DBD9" fill-rule="evenodd"/><path d="M3500.3 1795.55 3421.63 1662.62C3419.37 1658.8 3420.61 1653.87 3424.41 1651.57L3437.7 1643.63C3441.5 1641.36 3446.41 1642.61 3448.7 1646.43L3527.37 1779.35C3529.63 1783.18 3528.39 1788.11 3524.59 1790.41L3511.3 1798.35C3507.47 1800.66 3502.56 1799.38 3500.3 1795.55Z" stroke="#000000" stroke-width="3.4375" stroke-miterlimit="8" fill="#D6DBD9" fill-rule="evenodd"/><path d="M3523.72 1834.61 3515.65 1821.41C3513.34 1817.62 3514.61 1812.75 3518.49 1810.47L3532.05 1802.62C3535.94 1800.37 3540.94 1801.61 3543.28 1805.38L3551.35 1818.59C3553.66 1822.37 3552.39 1827.25 3548.51 1829.53L3534.95 1837.38C3531.06 1839.62 3526.03 1838.4 3523.72 1834.61Z" stroke="#000000" stroke-width="3.4375" stroke-miterlimit="8" fill="#D6DBD9" fill-rule="evenodd"/><path d="M3548.47 1875.6 3540.62 1862.41C3538.37 1858.62 3539.61 1853.75 3543.38 1851.47L3556.59 1843.62C3560.37 1841.37 3565.25 1842.61 3567.53 1846.38L3575.38 1859.58C3577.63 1863.36 3576.39 1868.24 3572.62 1870.51L3559.41 1878.36C3555.64 1880.64 3550.72 1879.38 3548.47 1875.6Z" stroke="#000000" stroke-width="3.4375" stroke-miterlimit="8" fill="#D6DBD9" fill-rule="evenodd"/><path d="M3571.47 1914.61 3563.62 1901.41C3561.37 1897.63 3562.61 1892.75 3566.38 1890.47L3579.59 1882.62C3583.37 1880.37 3588.25 1881.61 3590.53 1885.39L3598.38 1898.59C3600.63 1902.38 3599.39 1907.25 3595.62 1909.53L3582.41 1917.38C3578.63 1919.62 3573.76 1918.39 3571.47 1914.61Z" stroke="#000000" stroke-width="3.4375" stroke-miterlimit="8" fill="#D6DBD9" fill-rule="evenodd"/><path d="M3592.47 1951.5 3584.62 1937.94C3582.37 1934.06 3583.61 1929.05 3587.38 1926.71L3600.59 1918.65C3604.37 1916.34 3609.25 1917.61 3611.53 1921.49L3619.38 1935.04C3621.63 1938.93 3620.39 1943.93 3616.62 1946.27L3603.41 1954.33C3599.64 1956.67 3594.72 1955.38 3592.47 1951.5Z" stroke="#000000" stroke-width="3.4375" stroke-miterlimit="8" fill="#D6DBD9" fill-rule="evenodd"/><path d="M3619.47 1992.49 3611.62 1978.94C3609.37 1975.05 3610.61 1970.05 3614.38 1967.71L3627.59 1959.65C3631.37 1957.34 3636.25 1958.61 3638.53 1962.49L3646.38 1976.04C3648.63 1979.93 3647.39 1984.93 3643.62 1987.27L3630.41 1995.33C3626.6 1997.68 3621.72 1996.37 3619.47 1992.49Z" stroke="#000000" stroke-width="3.4375" stroke-miterlimit="8" fill="#D6DBD9" fill-rule="evenodd"/><path d="M3644.47 2033.61 3636.62 2020.41C3634.37 2016.62 3635.61 2011.75 3639.38 2009.47L3652.59 2001.62C3656.37 1999.37 3661.25 2000.61 3663.53 2004.38L3671.38 2017.59C3673.63 2021.37 3672.39 2026.24 3668.62 2028.52L3655.41 2036.37C3651.59 2038.63 3646.72 2037.39 3644.47 2033.61Z" stroke="#000000" stroke-width="3.4375" stroke-miterlimit="8" fill="#D6DBD9" fill-rule="evenodd"/><path d="M3800.72 2032.5 3792.65 2018.94C3790.34 2015.06 3791.61 2010.05 3795.49 2007.71L3809.05 1999.65C3812.94 1997.34 3817.94 1998.61 3820.28 2002.49L3828.35 2016.04C3830.66 2019.93 3829.39 2024.93 3825.51 2027.27L3811.95 2035.33C3808.07 2037.68 3803.06 2036.38 3800.72 2032.5Z" stroke="#000000" stroke-width="3.4375" stroke-miterlimit="8" fill="#D6DBD9" fill-rule="evenodd"/><path d="M3848.47 2111.6 3840.62 2098.4C3838.37 2094.62 3839.61 2089.75 3843.38 2087.47L3856.59 2079.62C3860.37 2077.37 3865.25 2078.61 3867.53 2082.38L3875.38 2095.58C3877.63 2099.36 3876.39 2104.24 3872.62 2106.51L3859.41 2114.36C3855.64 2116.64 3850.72 2115.39 3848.47 2111.6Z" stroke="#000000" stroke-width="3.4375" stroke-miterlimit="8" fill="#D6DBD9" fill-rule="evenodd"/><path d="M3824.47 2071.51 3816.62 2057.95C3814.37 2054.06 3815.61 2049.06 3819.38 2046.72L3832.59 2038.65C3836.37 2036.34 3841.25 2037.61 3843.53 2041.49L3851.38 2055.05C3853.63 2058.93 3852.39 2063.94 3848.62 2066.28L3835.41 2074.34C3831.62 2076.66 3826.72 2075.4 3824.47 2071.51Z" stroke="#000000" stroke-width="3.4375" stroke-miterlimit="8" fill="#D6DBD9" fill-rule="evenodd"/><path d="M3762.47 2054.62 3754.62 2041.41C3752.37 2037.63 3753.61 2032.75 3757.38 2030.47L3770.59 2022.62C3774.37 2020.37 3779.25 2021.61 3781.53 2025.38L3789.38 2038.59C3791.63 2042.37 3790.39 2047.24 3786.62 2049.52L3773.41 2057.37C3769.63 2059.62 3764.72 2058.4 3762.47 2054.62Z" stroke="#000000" stroke-width="3.4375" stroke-miterlimit="8" fill="#D6DBD9" fill-rule="evenodd"/><path d="M3787.47 2093.51 3779.62 2079.95C3777.37 2076.06 3778.61 2071.05 3782.38 2068.71L3795.59 2060.65C3799.37 2058.34 3804.25 2059.61 3806.53 2063.49L3814.38 2077.05C3816.63 2080.94 3815.39 2085.94 3811.62 2088.29L3798.41 2096.35C3794.63 2098.65 3789.72 2097.4 3787.47 2093.51Z" stroke="#000000" stroke-width="3.4375" stroke-miterlimit="8" fill="#D6DBD9" fill-rule="evenodd"/><path d="M3811.47 2133.6 3803.62 2120.4C3801.37 2116.62 3802.61 2111.75 3806.38 2109.47L3819.59 2101.62C3823.37 2099.37 3828.25 2100.61 3830.53 2104.38L3838.38 2117.58C3840.63 2121.36 3839.39 2126.23 3835.62 2128.51L3822.41 2136.35C3818.6 2138.65 3813.72 2137.38 3811.47 2133.6Z" stroke="#000000" stroke-width="3.4375" stroke-miterlimit="8" fill="#D6DBD9" fill-rule="evenodd"/><path d="M3724.72 2077.61 3716.65 2064.41C3714.34 2060.62 3715.61 2055.75 3719.49 2053.47L3733.05 2045.62C3736.94 2043.37 3741.94 2044.61 3744.28 2048.38L3752.35 2061.58C3754.66 2065.37 3753.39 2070.24 3749.51 2072.52L3735.95 2080.37C3732.03 2082.63 3727.03 2081.39 3724.72 2077.61Z" stroke="#000000" stroke-width="3.4375" stroke-miterlimit="8" fill="#D6DBD9" fill-rule="evenodd"/><path d="M3751.47 2114.59 3743.62 2101.4C3741.37 2097.62 3742.61 2092.74 3746.38 2090.47L3759.59 2082.62C3763.37 2080.37 3768.25 2081.61 3770.53 2085.38L3778.38 2098.58C3780.63 2102.36 3779.39 2107.24 3775.62 2109.51L3762.41 2117.36C3758.61 2119.64 3753.72 2118.38 3751.47 2114.59Z" stroke="#000000" stroke-width="3.4375" stroke-miterlimit="8" fill="#D6DBD9" fill-rule="evenodd"/><path d="M3775.47 2157.5 3767.62 2143.94C3765.37 2140.06 3766.61 2135.05 3770.38 2132.71L3783.59 2124.65C3787.37 2122.34 3792.25 2123.61 3794.53 2127.49L3802.38 2141.04C3804.63 2144.93 3803.39 2149.93 3799.62 2152.27L3786.41 2160.33C3782.64 2162.67 3777.72 2161.38 3775.47 2157.5Z" stroke="#000000" stroke-width="3.4375" stroke-miterlimit="8" fill="#D6DBD9" fill-rule="evenodd"/><path d="M3716.96 2146.54 3680.64 2085.68C3678.35 2081.85 3679.61 2076.9 3683.46 2074.59L3696.9 2066.64C3700.76 2064.36 3705.72 2065.61 3708.04 2069.44L3744.36 2130.29C3746.65 2134.13 3745.39 2139.07 3741.54 2141.38L3728.1 2149.34C3724.23 2151.66 3719.25 2150.38 3716.96 2146.54L3716.96 2146.54Z" stroke="#000000" stroke-width="3.4375" stroke-miterlimit="8" fill="#D6DBD9" fill-rule="evenodd"/><path d="M3737.47 2179.6 3729.62 2166.4C3727.37 2162.62 3728.61 2157.75 3732.38 2155.47L3745.59 2147.62C3749.37 2145.37 3754.25 2146.61 3756.53 2150.38L3764.38 2163.58C3766.63 2167.36 3765.39 2172.23 3761.62 2174.51L3748.41 2182.36C3744.64 2184.64 3739.72 2183.39 3737.47 2179.6Z" stroke="#000000" stroke-width="3.4375" stroke-miterlimit="8" fill="#D6DBD9" fill-rule="evenodd"/></g></svg>