<svg width="1002" height="346" xmlns="http://www.w3.org/2000/svg" xmlns:xlink="http://www.w3.org/1999/xlink" xml:space="preserve" overflow="hidden"><g transform="translate(-344 -521)"><path d="M1303.48 844.968 390.553 856.498C372.605 856.718 357.889 842.363 357.662 824.45L354.502 575.922C354.282 557.979 368.641 543.266 386.557 543.039L1299.45 531.502C1317.4 531.282 1332.11 545.638 1332.34 563.55L1335.5 812.078C1335.76 829.994 1321.39 844.738 1303.48 844.968L1303.48 844.968Z" stroke="#000000" stroke-width="20.625" stroke-miterlimit="8" fill="#A6A897" fill-rule="evenodd"/><path d="M630.66 616.141 601.765 616.5C597.376 616.554 593.783 613.012 593.698 608.557L593.501 593.035C593.446 588.587 596.942 584.945 601.34 584.858L630.236 584.501C634.624 584.445 638.217 587.988 638.303 592.443L638.5 607.965C638.547 612.448 635.052 616.09 630.66 616.141Z" stroke="#000000" stroke-width="3.4375" stroke-miterlimit="8" fill="#D6DBD9" fill-rule="evenodd"/><path d="M769.486 614.142 739.948 614.499C735.462 614.555 731.789 611.012 731.702 606.557L731.501 591.035C731.445 586.587 735.018 582.945 739.515 582.859L769.052 582.501C773.538 582.446 777.211 585.988 777.298 590.443L777.5 605.965C777.552 610.413 773.972 614.087 769.486 614.142Z" stroke="#000000" stroke-width="3.4375" stroke-miterlimit="8" fill="#D6DBD9" fill-rule="evenodd"/><path d="M442.659 618.141 413.765 618.499C409.376 618.554 405.783 615.013 405.698 610.555L405.501 595.034C405.446 590.586 408.942 586.945 413.34 586.858L442.235 586.501C446.623 586.445 450.217 589.988 450.302 594.442L450.499 609.963C450.584 614.42 447.048 618.086 442.659 618.141Z" stroke="#000000" stroke-width="3.4375" stroke-miterlimit="8" fill="#D6DBD9" fill-rule="evenodd"/><path d="M504.659 617.141 475.765 617.499C471.376 617.554 467.782 614.012 467.698 609.555L467.501 594.034C467.446 589.586 470.942 585.945 475.34 585.858L504.235 585.501C508.623 585.445 512.217 588.988 512.302 593.445L512.499 608.966C512.58 613.451 509.051 617.086 504.659 617.141Z" stroke="#000000" stroke-width="3.4375" stroke-miterlimit="8" fill="#D6DBD9" fill-rule="evenodd"/><path d="M1012.66 611.142 983.765 611.499C979.376 611.555 975.782 608.013 975.698 603.555L975.501 588.034C975.446 583.587 978.942 579.945 983.34 579.859L1012.23 579.501C1016.62 579.445 1020.22 582.988 1020.3 587.445L1020.5 602.966C1020.58 607.42 1017.05 611.052 1012.66 611.142Z" stroke="#000000" stroke-width="3.4375" stroke-miterlimit="8" fill="#D6DBD9" fill-rule="evenodd"/><path d="M568.485 616.153 538.948 616.499C534.462 616.553 530.789 613.121 530.702 608.803L530.501 593.767C530.445 589.459 534.018 585.93 538.514 585.847L568.051 585.501C572.537 585.447 576.21 588.879 576.297 593.193L576.498 608.229C576.585 612.544 572.971 616.099 568.485 616.153Z" stroke="#000000" stroke-width="3.4375" stroke-miterlimit="8" fill="#D6DBD9" fill-rule="evenodd"/><path d="M831.66 613.142 802.765 613.499C798.376 613.555 794.782 610.012 794.697 605.557L794.501 590.035C794.446 585.587 797.941 581.945 802.34 581.859L831.236 581.501C835.624 581.446 839.217 584.988 839.303 589.446L839.5 604.969C839.551 609.413 836.049 613.087 831.66 613.142Z" stroke="#000000" stroke-width="3.4375" stroke-miterlimit="8" fill="#D6DBD9" fill-rule="evenodd"/><path d="M891.66 612.142 862.765 612.499C858.376 612.555 854.782 609.012 854.698 604.557L854.501 589.035C854.446 584.587 857.941 580.945 862.34 580.859L891.236 580.501C895.624 580.446 899.218 583.988 899.303 588.446L899.5 603.969C899.544 608.448 896.049 612.087 891.66 612.142Z" stroke="#000000" stroke-width="3.4375" stroke-miterlimit="8" fill="#D6DBD9" fill-rule="evenodd"/><path d="M952.485 612.142 922.948 612.5C918.462 612.555 914.789 609.012 914.702 604.558L914.501 589.035C914.445 584.587 918.018 580.945 922.514 580.859L952.051 580.501C956.537 580.446 960.21 583.988 960.297 588.443L960.498 603.966C960.585 608.42 956.971 612.09 952.485 612.142Z" stroke="#000000" stroke-width="3.4375" stroke-miterlimit="8" fill="#D6DBD9" fill-rule="evenodd"/><path d="M700.485 615.142 670.948 615.499C666.462 615.555 662.789 612.012 662.702 607.557L662.501 592.035C662.445 587.586 666.018 583.944 670.514 583.858L700.051 583.501C704.537 583.445 708.211 586.988 708.298 591.446L708.499 606.969C708.579 611.451 704.971 615.087 700.485 615.142Z" stroke="#000000" stroke-width="3.4375" stroke-miterlimit="8" fill="#D6DBD9" fill-rule="evenodd"/><path d="M1082.48 608.141 1052.95 608.499C1048.46 608.554 1044.79 605.013 1044.7 600.555L1044.5 585.034C1044.45 580.586 1048.02 576.945 1052.51 576.858L1082.05 576.501C1086.54 576.445 1090.21 579.988 1090.3 584.445L1090.5 599.966C1090.59 604.42 1086.97 608.086 1082.48 608.141Z" stroke="#000000" stroke-width="3.4375" stroke-miterlimit="8" fill="#D6DBD9" fill-rule="evenodd"/><path d="M472.549 662.765 412.882 663.499C408.431 663.554 404.787 660.053 404.7 655.652L404.501 640.314C404.445 635.919 407.99 632.32 412.451 632.235L472.118 631.501C476.569 631.446 480.213 634.947 480.299 639.351L480.499 654.689C480.578 659.122 476.999 662.71 472.549 662.765Z" stroke="#000000" stroke-width="3.4375" stroke-miterlimit="8" fill="#D6DBD9" fill-rule="evenodd"/><path d="M522.515 662.299 506.917 662.5C502.448 662.555 498.788 658.995 498.701 654.518L498.501 638.918C498.445 634.448 502.005 630.788 506.485 630.701L522.083 630.501C526.552 630.445 530.212 634.005 530.299 638.485L530.5 654.085C530.548 658.587 526.988 662.244 522.515 662.299Z" stroke="#000000" stroke-width="3.4375" stroke-miterlimit="8" fill="#D6DBD9" fill-rule="evenodd"/><path d="M567.764 662.299 552.654 662.5C548.324 662.555 544.779 658.995 544.695 654.515L544.501 638.917C544.447 634.448 547.895 630.788 552.235 630.701L567.345 630.501C571.675 630.445 575.221 634.005 575.304 638.481L575.499 654.079C575.582 658.556 572.097 662.243 567.764 662.299Z" stroke="#000000" stroke-width="3.4375" stroke-miterlimit="8" fill="#D6DBD9" fill-rule="evenodd"/><path d="M616.515 661.299 600.917 661.5C596.448 661.555 592.788 657.995 592.701 653.515L592.501 637.917C592.445 633.448 596.005 629.788 600.484 629.701L616.082 629.501C620.552 629.445 624.211 633.005 624.298 637.481L624.499 653.08C624.585 657.559 620.984 661.243 616.515 661.299Z" stroke="#000000" stroke-width="3.4375" stroke-miterlimit="8" fill="#D6DBD9" fill-rule="evenodd"/><path d="M661.516 660.305 645.917 660.499C641.448 660.553 637.788 657.105 637.701 652.765L637.501 637.654C637.445 633.324 641.005 629.779 645.485 629.695L661.083 629.501C665.553 629.447 669.213 632.895 669.299 637.232L669.5 652.342C669.548 656.709 665.989 660.251 661.516 660.305L661.516 660.305Z" stroke="#000000" stroke-width="3.4375" stroke-miterlimit="8" fill="#D6DBD9" fill-rule="evenodd"/><path d="M715.515 660.299 699.917 660.5C695.448 660.555 691.788 656.995 691.701 652.515L691.501 636.917C691.445 632.448 695.005 628.788 699.484 628.701L715.082 628.501C719.552 628.445 723.211 632.005 723.298 636.481L723.499 652.08C723.585 656.559 719.984 660.243 715.515 660.299Z" stroke="#000000" stroke-width="3.4375" stroke-miterlimit="8" fill="#D6DBD9" fill-rule="evenodd"/><path d="M761.515 660.299 745.917 660.5C741.448 660.555 737.787 656.995 737.701 652.518L737.501 636.918C737.445 632.448 741.005 628.788 745.485 628.701L761.083 628.501C765.552 628.445 769.212 632.005 769.299 636.485L769.499 652.085C769.582 656.593 765.988 660.247 761.515 660.299Z" stroke="#000000" stroke-width="3.4375" stroke-miterlimit="8" fill="#D6DBD9" fill-rule="evenodd"/><path d="M809.515 659.299 793.917 659.5C789.448 659.555 785.788 655.995 785.701 651.518L785.501 635.918C785.445 631.448 789.005 627.787 793.485 627.701L809.083 627.501C813.552 627.445 817.212 631.005 817.299 635.485L817.5 651.086C817.548 655.583 813.985 659.244 809.515 659.299Z" stroke="#000000" stroke-width="3.4375" stroke-miterlimit="8" fill="#D6DBD9" fill-rule="evenodd"/><path d="M852.515 658.299 836.917 658.5C832.448 658.555 828.788 654.995 828.701 650.518L828.501 634.918C828.445 630.448 832.005 626.788 836.485 626.701L852.083 626.501C856.552 626.445 860.212 630.006 860.299 634.486L860.5 650.086C860.555 654.556 856.988 658.247 852.515 658.299Z" stroke="#000000" stroke-width="3.4375" stroke-miterlimit="8" fill="#D6DBD9" fill-rule="evenodd"/><path d="M901.515 657.305 885.917 657.5C881.448 657.553 877.788 654.105 877.701 649.765L877.501 634.654C877.445 630.325 881.005 626.779 885.485 626.695L901.083 626.501C905.553 626.447 909.212 629.896 909.299 634.232L909.5 649.343C909.552 653.676 905.985 657.252 901.515 657.305Z" stroke="#000000" stroke-width="3.4375" stroke-miterlimit="8" fill="#D6DBD9" fill-rule="evenodd"/><path d="M946.515 657.299 930.917 657.5C926.448 657.555 922.788 653.995 922.701 649.515L922.501 633.917C922.445 629.448 926.005 625.788 930.484 625.701L946.082 625.501C950.552 625.445 954.211 629.005 954.298 633.482L954.499 649.08C954.585 653.56 950.984 657.244 946.515 657.299Z" stroke="#000000" stroke-width="3.4375" stroke-miterlimit="8" fill="#D6DBD9" fill-rule="evenodd"/><path d="M994.515 656.299 978.917 656.5C974.448 656.555 970.788 652.995 970.701 648.515L970.501 632.918C970.445 628.448 974.005 624.788 978.485 624.702L994.082 624.501C998.552 624.445 1002.21 628.005 1002.3 632.482L1002.5 648.08C1002.58 652.594 998.984 656.247 994.515 656.299Z" stroke="#000000" stroke-width="3.4375" stroke-miterlimit="8" fill="#D6DBD9" fill-rule="evenodd"/><path d="M1040.52 656.299 1024.92 656.5C1020.45 656.555 1016.79 652.995 1016.7 648.518L1016.5 632.918C1016.45 628.448 1020.01 624.788 1024.48 624.701L1040.08 624.501C1044.55 624.445 1048.21 628.006 1048.3 632.486L1048.5 648.086C1048.54 652.587 1044.98 656.247 1040.52 656.299Z" stroke="#000000" stroke-width="3.4375" stroke-miterlimit="8" fill="#D6DBD9" fill-rule="evenodd"/><path d="M1081.51 656.299 1065.92 656.5C1061.45 656.555 1057.79 652.995 1057.7 648.518L1057.5 632.919C1057.45 628.448 1061 624.788 1065.48 624.702L1081.08 624.501C1085.55 624.445 1089.21 628.006 1089.3 632.486L1089.5 648.086C1089.58 652.594 1085.99 656.244 1081.51 656.299Z" stroke="#000000" stroke-width="3.4375" stroke-miterlimit="8" fill="#D6DBD9" fill-rule="evenodd"/><path d="M586.515 708.299 570.917 708.5C566.448 708.555 562.788 704.995 562.701 700.518L562.501 684.918C562.445 680.448 566.005 676.788 570.485 676.701L586.083 676.501C590.552 676.445 594.212 680.005 594.299 684.486L594.5 700.085C594.551 704.552 590.985 708.244 586.515 708.299Z" stroke="#000000" stroke-width="3.4375" stroke-miterlimit="8" fill="#D6DBD9" fill-rule="evenodd"/><path d="M637.515 708.299 621.917 708.5C617.448 708.555 613.788 704.995 613.701 700.515L613.501 684.918C613.445 680.448 617.005 676.788 621.485 676.702L637.083 676.501C641.553 676.445 645.213 680.005 645.299 684.481L645.5 700.08C645.555 704.552 641.988 708.244 637.515 708.299Z" stroke="#000000" stroke-width="3.4375" stroke-miterlimit="8" fill="#D6DBD9" fill-rule="evenodd"/><path d="M684.515 707.299 668.917 707.5C664.448 707.555 660.787 703.995 660.701 699.518L660.501 683.918C660.445 679.448 664.005 675.788 668.485 675.701L684.082 675.501C688.552 675.445 692.211 679.005 692.298 683.485L692.499 699.086C692.585 703.559 688.984 707.244 684.515 707.299Z" stroke="#000000" stroke-width="3.4375" stroke-miterlimit="8" fill="#D6DBD9" fill-rule="evenodd"/><path d="M731.515 706.299 715.917 706.5C711.448 706.555 707.788 702.995 707.701 698.515L707.501 682.917C707.445 678.448 711.005 674.788 715.485 674.701L731.083 674.501C735.552 674.445 739.212 678.005 739.299 682.481L739.5 698.08C739.548 702.587 735.988 706.243 731.515 706.299Z" stroke="#000000" stroke-width="3.4375" stroke-miterlimit="8" fill="#D6DBD9" fill-rule="evenodd"/><path d="M780.764 705.305 765.654 705.5C761.324 705.553 757.779 702.105 757.695 697.765L757.501 682.654C757.447 678.324 760.896 674.779 765.235 674.695L780.345 674.501C784.675 674.447 788.221 677.896 788.304 682.232L788.499 697.343C788.586 701.682 785.097 705.251 780.764 705.305Z" stroke="#000000" stroke-width="3.4375" stroke-miterlimit="8" fill="#D6DBD9" fill-rule="evenodd"/><path d="M829.514 705.299 813.917 705.5C809.448 705.555 805.788 701.995 805.701 697.515L805.501 681.917C805.445 677.448 809.005 673.788 813.484 673.701L829.082 673.501C833.551 673.445 837.211 677.005 837.298 681.481L837.498 697.079C837.585 701.559 833.987 705.247 829.514 705.299Z" stroke="#000000" stroke-width="3.4375" stroke-miterlimit="8" fill="#D6DBD9" fill-rule="evenodd"/><path d="M869.764 701.299 854.654 701.5C850.325 701.555 846.779 697.995 846.695 693.518L846.501 677.918C846.447 673.448 849.896 669.788 854.235 669.701L869.346 669.501C873.675 669.445 877.221 673.006 877.305 677.486L877.499 693.086C877.579 697.594 874.098 701.247 869.764 701.299Z" stroke="#000000" stroke-width="3.4375" stroke-miterlimit="8" fill="#D6DBD9" fill-rule="evenodd"/><path d="M919.515 700.299 903.917 700.5C899.448 700.555 895.788 696.995 895.701 692.515L895.501 676.918C895.445 672.448 899.005 668.788 903.485 668.702L919.083 668.501C923.552 668.445 927.212 672.005 927.298 676.482L927.499 692.08C927.578 696.591 923.984 700.244 919.515 700.299Z" stroke="#000000" stroke-width="3.4375" stroke-miterlimit="8" fill="#D6DBD9" fill-rule="evenodd"/><path d="M964.515 700.299 948.917 700.5C944.448 700.555 940.788 696.995 940.701 692.518L940.501 676.918C940.445 672.448 944.005 668.788 948.485 668.701L964.083 668.501C968.552 668.445 972.212 672.006 972.299 676.486L972.5 692.086C972.548 696.583 968.988 700.244 964.515 700.299Z" stroke="#000000" stroke-width="3.4375" stroke-miterlimit="8" fill="#D6DBD9" fill-rule="evenodd"/><path d="M1012.52 699.299 996.917 699.5C992.448 699.555 988.788 695.995 988.701 691.515L988.501 675.917C988.445 671.448 992.005 667.788 996.485 667.701L1012.08 667.501C1016.55 667.445 1020.21 671.005 1020.3 675.481L1020.5 691.08C1020.55 695.553 1016.99 699.244 1012.52 699.299Z" stroke="#000000" stroke-width="3.4375" stroke-miterlimit="8" fill="#D6DBD9" fill-rule="evenodd"/><path d="M493.587 709.505 413.84 710.5C409.412 710.554 405.785 707.082 405.699 702.717L405.501 687.507C405.446 683.149 408.973 679.58 413.412 679.496L493.159 678.501C497.588 678.447 501.214 681.918 501.3 686.283L501.499 701.493C501.584 705.858 498.016 709.451 493.587 709.505Z" stroke="#000000" stroke-width="3.4375" stroke-miterlimit="8" fill="#D6DBD9" fill-rule="evenodd"/><path d="M563.515 757.299 547.917 757.5C543.448 757.555 539.787 753.995 539.701 749.516L539.501 733.917C539.445 729.448 543.005 725.788 547.485 725.701L563.083 725.501C567.553 725.445 571.213 729.005 571.299 733.482L571.5 749.08C571.552 753.553 567.985 757.244 563.515 757.299Z" stroke="#000000" stroke-width="3.4375" stroke-miterlimit="8" fill="#D6DBD9" fill-rule="evenodd"/><path d="M537.515 708.299 521.917 708.5C517.448 708.555 513.788 704.995 513.701 700.515L513.501 684.918C513.445 680.448 517.005 676.788 521.485 676.702L537.082 676.501C541.552 676.445 545.212 680.005 545.298 684.481L545.499 700.08C545.589 704.559 541.987 708.244 537.515 708.299Z" stroke="#000000" stroke-width="3.4375" stroke-miterlimit="8" fill="#D6DBD9" fill-rule="evenodd"/><path d="M1077.51 700.03 1038.93 700.5C1034.45 700.554 1030.79 697.025 1030.7 692.586L1030.5 677.118C1030.45 672.686 1034.01 669.057 1038.49 668.971L1077.08 668.501C1081.55 668.446 1085.21 671.976 1085.3 676.418L1085.5 691.886C1085.55 696.349 1081.99 699.975 1077.51 700.03L1077.51 700.03Z" stroke="#000000" stroke-width="3.4375" stroke-miterlimit="8" fill="#D6DBD9" fill-rule="evenodd"/><path d="M515.528 756.2 413.904 757.5C409.442 757.555 405.787 754.006 405.701 749.54L405.501 733.991C405.445 729.536 409 725.887 413.473 725.801L515.096 724.501C519.559 724.445 523.213 727.994 523.299 732.46L523.5 748.009C523.552 752.465 519.991 756.144 515.528 756.2Z" stroke="#000000" stroke-width="3.4375" stroke-miterlimit="8" fill="#D6DBD9" fill-rule="evenodd"/><path d="M612.515 755.299 596.917 755.5C592.448 755.555 588.788 751.995 588.701 747.518L588.501 731.918C588.445 727.448 592.005 723.788 596.484 723.701L612.082 723.501C616.552 723.445 620.211 727.006 620.298 731.486L620.499 747.086C620.585 751.559 616.984 755.244 612.515 755.299Z" stroke="#000000" stroke-width="3.4375" stroke-miterlimit="8" fill="#D6DBD9" fill-rule="evenodd"/><path d="M665.515 754.299 649.917 754.5C645.448 754.555 641.788 750.995 641.701 746.515L641.501 730.918C641.445 726.448 645.005 722.788 649.484 722.702L665.083 722.501C669.552 722.445 673.212 726.005 673.298 730.485L673.499 746.083C673.578 750.591 669.984 754.244 665.515 754.299Z" stroke="#000000" stroke-width="3.4375" stroke-miterlimit="8" fill="#D6DBD9" fill-rule="evenodd"/><path d="M712.515 754.299 696.917 754.5C692.448 754.555 688.788 750.995 688.701 746.515L688.501 730.917C688.445 726.448 692.005 722.788 696.484 722.701L712.083 722.501C716.552 722.445 720.212 726.005 720.298 730.481L720.499 746.08C720.582 750.591 716.988 754.244 712.515 754.299Z" stroke="#000000" stroke-width="3.4375" stroke-miterlimit="8" fill="#D6DBD9" fill-rule="evenodd"/><path d="M759.515 753.299 743.917 753.5C739.448 753.555 735.788 749.995 735.701 745.518L735.501 729.918C735.445 725.448 739.005 721.788 743.485 721.701L759.083 721.501C763.553 721.445 767.213 725.006 767.299 729.486L767.5 745.086C767.555 749.552 763.988 753.244 759.515 753.299Z" stroke="#000000" stroke-width="3.4375" stroke-miterlimit="8" fill="#D6DBD9" fill-rule="evenodd"/><path d="M809.514 752.299 793.917 752.5C789.448 752.555 785.788 748.995 785.701 744.515L785.501 728.917C785.445 724.448 789.005 720.788 793.485 720.701L809.082 720.501C813.551 720.445 817.211 724.005 817.298 728.481L817.498 744.079C817.589 748.556 813.994 752.209 809.514 752.299Z" stroke="#000000" stroke-width="3.4375" stroke-miterlimit="8" fill="#D6DBD9" fill-rule="evenodd"/><path d="M857.515 751.305 841.917 751.5C837.448 751.553 833.788 748.105 833.701 743.765L833.501 728.654C833.445 724.324 837.005 720.779 841.485 720.695L857.083 720.501C861.553 720.447 865.212 723.896 865.299 728.235L865.5 743.346C865.545 747.709 861.985 751.252 857.515 751.305Z" stroke="#000000" stroke-width="3.4375" stroke-miterlimit="8" fill="#D6DBD9" fill-rule="evenodd"/><path d="M898.515 747.306 882.917 747.5C878.448 747.553 874.788 744.105 874.701 739.765L874.501 724.654C874.445 720.324 878.005 716.779 882.484 716.695L898.083 716.501C902.552 716.447 906.212 719.896 906.298 724.232L906.499 739.343C906.582 743.716 902.984 747.252 898.515 747.306Z" stroke="#000000" stroke-width="3.4375" stroke-miterlimit="8" fill="#D6DBD9" fill-rule="evenodd"/><path d="M947.515 747.299 931.917 747.5C927.448 747.555 923.788 743.995 923.701 739.518L923.501 723.918C923.445 719.448 927.005 715.787 931.485 715.701L947.083 715.501C951.552 715.445 955.211 719.005 955.298 723.486L955.499 739.086C955.585 743.559 951.984 747.244 947.515 747.299Z" stroke="#000000" stroke-width="3.4375" stroke-miterlimit="8" fill="#D6DBD9" fill-rule="evenodd"/><path d="M992.515 746.299 976.917 746.5C972.448 746.555 968.787 742.995 968.701 738.516L968.501 722.917C968.445 718.448 972.005 714.788 976.485 714.701L992.083 714.501C996.553 714.445 1000.21 718.005 1000.3 722.482L1000.5 738.08C1000.55 742.553 996.988 746.244 992.515 746.299Z" stroke="#000000" stroke-width="3.4375" stroke-miterlimit="8" fill="#D6DBD9" fill-rule="evenodd"/><path d="M1082.58 740.748 1022.85 741.5C1018.42 741.554 1014.79 738.056 1014.7 733.654L1014.5 718.325C1014.45 713.933 1017.98 710.337 1022.42 710.252L1082.15 709.501C1086.58 709.446 1090.21 712.944 1090.3 717.346L1090.5 732.675C1090.54 737.101 1087.01 740.694 1082.58 740.748Z" stroke="#000000" stroke-width="3.4375" stroke-miterlimit="8" fill="#D6DBD9" fill-rule="evenodd"/><path d="M425.515 801.299 409.917 801.5C405.448 801.555 401.788 797.995 401.701 793.518L401.501 777.919C401.445 773.448 405.005 769.788 409.484 769.702L425.083 769.501C429.552 769.445 433.212 773.006 433.298 777.486L433.499 793.086C433.582 797.59 430.022 801.251 425.515 801.299Z" stroke="#000000" stroke-width="3.4375" stroke-miterlimit="8" fill="#D6DBD9" fill-rule="evenodd"/><path d="M470.515 800.299 454.917 800.5C450.448 800.555 446.788 796.995 446.701 792.515L446.501 776.917C446.445 772.448 450.005 768.788 454.485 768.701L470.083 768.501C474.553 768.445 478.212 772.005 478.299 776.482L478.5 792.08C478.548 796.584 474.988 800.244 470.515 800.299Z" stroke="#000000" stroke-width="3.4375" stroke-miterlimit="8" fill="#D6DBD9" fill-rule="evenodd"/><path d="M519.515 799.305 503.917 799.5C499.448 799.554 495.787 796.104 495.701 791.768L495.501 776.655C495.445 772.325 499.005 768.779 503.485 768.695L519.082 768.501C523.552 768.447 527.211 771.896 527.298 776.236L527.499 791.349C527.585 795.682 523.984 799.252 519.515 799.305Z" stroke="#000000" stroke-width="3.4375" stroke-miterlimit="8" fill="#D6DBD9" fill-rule="evenodd"/><path d="M564.515 799.299 548.917 799.5C544.448 799.555 540.788 795.995 540.701 791.515L540.501 775.918C540.445 771.448 544.005 767.788 548.484 767.702L564.083 767.501C568.552 767.445 572.212 771.005 572.299 775.482L572.5 791.08C572.551 795.553 568.985 799.244 564.515 799.299Z" stroke="#000000" stroke-width="3.4375" stroke-miterlimit="8" fill="#D6DBD9" fill-rule="evenodd"/><path d="M618.515 799.299 602.917 799.5C598.448 799.555 594.787 795.995 594.701 791.518L594.501 775.918C594.445 771.448 598.005 767.788 602.485 767.701L618.083 767.501C622.553 767.445 626.213 771.006 626.299 775.486L626.5 791.086C626.552 795.552 622.985 799.244 618.515 799.299Z" stroke="#000000" stroke-width="3.4375" stroke-miterlimit="8" fill="#D6DBD9" fill-rule="evenodd"/><path d="M804.55 796.514 649.88 798.5C645.43 798.556 641.786 794.971 641.7 790.464L641.501 774.759C641.445 770.258 644.989 766.573 649.449 766.486L804.12 764.501C808.57 764.445 812.213 768.029 812.299 772.536L812.499 788.242C812.578 792.784 809 796.459 804.55 796.514Z" stroke="#000000" stroke-width="3.4375" stroke-miterlimit="8" fill="#D6DBD9" fill-rule="evenodd"/><path d="M849.515 795.305 833.917 795.5C829.448 795.553 825.787 792.104 825.701 787.767L825.501 772.655C825.445 768.325 829.005 764.779 833.485 764.695L849.083 764.501C853.553 764.447 857.213 767.896 857.299 772.236L857.5 787.348C857.555 791.675 853.988 795.252 849.515 795.305Z" stroke="#000000" stroke-width="3.4375" stroke-miterlimit="8" fill="#D6DBD9" fill-rule="evenodd"/><path d="M897.514 795.299 881.917 795.5C877.448 795.555 873.788 791.995 873.701 787.515L873.501 771.917C873.445 767.448 877.005 763.788 881.485 763.701L897.082 763.501C901.551 763.445 905.212 767.005 905.298 771.481L905.498 787.08C905.585 791.559 901.987 795.243 897.514 795.299Z" stroke="#000000" stroke-width="3.4375" stroke-miterlimit="8" fill="#D6DBD9" fill-rule="evenodd"/><path d="M942.765 794.299 927.654 794.5C923.325 794.555 919.779 790.995 919.695 786.518L919.501 770.918C919.447 766.448 922.896 762.788 927.235 762.701L942.346 762.501C946.676 762.445 950.221 766.005 950.305 770.485L950.5 786.085C950.55 790.552 947.102 794.212 942.765 794.299Z" stroke="#000000" stroke-width="3.4375" stroke-miterlimit="8" fill="#D6DBD9" fill-rule="evenodd"/><path d="M984.514 794.299 968.917 794.5C964.448 794.555 960.788 790.995 960.701 786.518L960.501 770.918C960.445 766.448 964.005 762.788 968.485 762.702L984.082 762.501C988.551 762.445 992.212 766.005 992.298 770.486L992.498 786.085C992.585 790.559 988.984 794.243 984.514 794.299Z" stroke="#000000" stroke-width="3.4375" stroke-miterlimit="8" fill="#D6DBD9" fill-rule="evenodd"/><path d="M1033.76 791.305 1018.65 791.5C1014.32 791.553 1010.78 788.105 1010.7 783.767L1010.5 768.655C1010.45 764.325 1013.9 760.779 1018.24 760.695L1033.35 760.501C1037.68 760.447 1041.22 763.896 1041.3 768.236L1041.5 783.349C1041.58 787.716 1038.09 791.252 1033.76 791.305Z" stroke="#000000" stroke-width="3.4375" stroke-miterlimit="8" fill="#D6DBD9" fill-rule="evenodd"/><path d="M1082.52 791.299 1066.92 791.5C1062.45 791.555 1058.79 787.995 1058.7 783.518L1058.5 767.918C1058.45 763.448 1062.01 759.787 1066.48 759.701L1082.08 759.501C1086.55 759.445 1090.21 763.005 1090.3 767.486L1090.5 783.086C1090.55 787.587 1086.99 791.244 1082.52 791.299Z" stroke="#000000" stroke-width="3.4375" stroke-miterlimit="8" fill="#D6DBD9" fill-rule="evenodd"/><path d="M1159.51 654.299 1143.92 654.5C1139.45 654.555 1135.79 650.995 1135.7 646.518L1135.5 630.918C1135.45 626.448 1139 622.788 1143.48 622.701L1159.08 622.501C1163.55 622.445 1167.21 626.006 1167.3 630.486L1167.5 646.086C1167.58 650.559 1163.99 654.209 1159.51 654.299Z" stroke="#000000" stroke-width="3.4375" stroke-miterlimit="8" fill="#D6DBD9" fill-rule="evenodd"/><path d="M1251.77 653.299 1236.65 653.5C1232.32 653.555 1228.78 649.995 1228.7 645.518L1228.5 629.918C1228.45 625.448 1231.9 621.788 1236.23 621.702L1251.34 621.501C1255.67 621.445 1259.22 625.005 1259.3 629.486L1259.5 645.086C1259.59 649.559 1256.1 653.247 1251.77 653.299Z" stroke="#000000" stroke-width="3.4375" stroke-miterlimit="8" fill="#D6DBD9" fill-rule="evenodd"/><path d="M1204.52 653.305 1188.92 653.5C1184.45 653.553 1180.79 650.105 1180.7 645.765L1180.5 630.654C1180.45 626.325 1184.01 622.779 1188.48 622.695L1204.08 622.501C1208.55 622.447 1212.21 625.896 1212.3 630.232L1212.5 645.343C1212.55 649.676 1208.98 653.252 1204.52 653.305Z" stroke="#000000" stroke-width="3.4375" stroke-miterlimit="8" fill="#D6DBD9" fill-rule="evenodd"/><path d="M1159.52 699.299 1143.92 699.5C1139.45 699.555 1135.79 695.995 1135.7 691.518L1135.5 675.918C1135.45 671.448 1139.01 667.788 1143.48 667.701L1159.08 667.501C1163.55 667.445 1167.21 671.006 1167.3 675.486L1167.5 691.086C1167.55 695.552 1163.99 699.244 1159.52 699.299Z" stroke="#000000" stroke-width="3.4375" stroke-miterlimit="8" fill="#D6DBD9" fill-rule="evenodd"/><path d="M1205.52 697.299 1189.92 697.5C1185.45 697.555 1181.79 693.995 1181.7 689.515L1181.5 673.918C1181.45 669.448 1185.01 665.788 1189.48 665.702L1205.08 665.501C1209.55 665.445 1213.21 669.005 1213.3 673.481L1213.5 689.08C1213.55 693.552 1209.99 697.244 1205.52 697.299Z" stroke="#000000" stroke-width="3.4375" stroke-miterlimit="8" fill="#D6DBD9" fill-rule="evenodd"/><path d="M1252.52 696.299 1236.92 696.5C1232.45 696.555 1228.79 692.995 1228.7 688.518L1228.5 672.918C1228.45 668.448 1232.01 664.788 1236.48 664.701L1252.08 664.501C1256.55 664.445 1260.21 668.005 1260.3 672.485L1260.5 688.085C1260.58 692.593 1256.99 696.247 1252.52 696.299Z" stroke="#000000" stroke-width="3.4375" stroke-miterlimit="8" fill="#D6DBD9" fill-rule="evenodd"/><path d="M1160.52 743.299 1144.92 743.5C1140.45 743.555 1136.79 739.995 1136.7 735.515L1136.5 719.917C1136.45 715.448 1140.01 711.788 1144.48 711.701L1160.08 711.501C1164.55 711.445 1168.21 715.005 1168.3 719.481L1168.5 735.08C1168.55 739.587 1164.98 743.244 1160.52 743.299Z" stroke="#000000" stroke-width="3.4375" stroke-miterlimit="8" fill="#D6DBD9" fill-rule="evenodd"/><path d="M1205.51 738.299 1189.92 738.5C1185.45 738.555 1181.79 734.995 1181.7 730.518L1181.5 714.918C1181.45 710.448 1185.01 706.788 1189.48 706.701L1205.08 706.501C1209.55 706.445 1213.21 710.005 1213.3 714.486L1213.5 730.085C1213.58 734.59 1209.98 738.243 1205.51 738.299Z" stroke="#000000" stroke-width="3.4375" stroke-miterlimit="8" fill="#D6DBD9" fill-rule="evenodd"/><path d="M1254.52 739.299 1238.92 739.5C1234.45 739.555 1230.79 735.995 1230.7 731.515L1230.5 715.917C1230.45 711.448 1234.01 707.788 1238.48 707.701L1254.08 707.501C1258.55 707.445 1262.21 711.005 1262.3 715.481L1262.5 731.079C1262.59 735.559 1258.99 739.243 1254.52 739.299Z" stroke="#000000" stroke-width="3.4375" stroke-miterlimit="8" fill="#D6DBD9" fill-rule="evenodd"/><path d="M1215.63 783.636 1145.79 784.5C1141.39 784.554 1137.78 781.068 1137.7 776.682L1137.5 761.409C1137.45 757.033 1140.95 753.449 1145.37 753.364L1215.21 752.501C1219.61 752.446 1223.22 755.932 1223.3 760.315L1223.5 775.588C1223.58 780.008 1220.04 783.581 1215.63 783.636L1215.63 783.636Z" stroke="#000000" stroke-width="3.4375" stroke-miterlimit="8" fill="#D6DBD9" fill-rule="evenodd"/><path d="M1255.52 783.299 1239.92 783.5C1235.45 783.555 1231.79 779.995 1231.7 775.518L1231.5 759.918C1231.45 755.448 1235.01 751.788 1239.48 751.701L1255.08 751.501C1259.55 751.445 1263.21 755.005 1263.3 759.482L1263.5 775.082C1263.59 779.559 1259.99 783.247 1255.52 783.299Z" stroke="#000000" stroke-width="3.4375" stroke-miterlimit="8" fill="#D6DBD9" fill-rule="evenodd"/></g></svg>