<svg width="998" height="766" xmlns="http://www.w3.org/2000/svg" xmlns:xlink="http://www.w3.org/1999/xlink" xml:space="preserve" overflow="hidden"><g transform="translate(-346 -1374)"><path d="M1317.63 1658.54 532.637 2124.94C517.199 2134.1 497.271 2129.02 488.117 2113.62L361.065 1899.95C351.897 1884.52 356.976 1864.6 372.382 1855.45L1157.34 1389.06C1172.78 1379.9 1192.71 1384.98 1201.87 1400.38L1328.92 1614.05C1338.11 1629.44 1333.04 1649.39 1317.63 1658.54L1317.63 1658.54Z" stroke="#000000" stroke-width="20.625" stroke-miterlimit="8" fill="#A6A897" fill-rule="evenodd"/><path d="M620.587 1796.56 595.526 1811.38C591.72 1813.63 586.818 1812.39 584.525 1808.61L576.628 1795.39C574.367 1791.6 575.611 1786.72 579.407 1784.44L604.468 1769.62C608.275 1767.37 613.177 1768.61 615.469 1772.39L623.363 1785.61C625.637 1789.43 624.394 1794.31 620.587 1796.56Z" stroke="#000000" stroke-width="3.4375" stroke-miterlimit="8" fill="#D6DBD9" fill-rule="evenodd"/><path d="M739.591 1725.56 714.528 1740.38C710.721 1742.63 705.818 1741.39 703.526 1737.61L695.628 1724.39C693.367 1720.6 694.611 1715.72 698.407 1713.44L723.47 1698.62C727.277 1696.37 732.18 1697.61 734.472 1701.39L742.366 1714.61C744.631 1718.4 743.401 1723.31 739.591 1725.56Z" stroke="#000000" stroke-width="3.4375" stroke-miterlimit="8" fill="#D6DBD9" fill-rule="evenodd"/><path d="M458.577 1892.56 433.519 1907.38C429.714 1909.63 424.812 1908.39 422.521 1904.61L414.628 1891.39C412.368 1887.6 413.611 1882.72 417.406 1880.44L442.463 1865.62C446.269 1863.37 451.171 1864.61 453.462 1868.39L461.358 1881.61C463.646 1885.39 462.382 1890.31 458.577 1892.56Z" stroke="#000000" stroke-width="3.4375" stroke-miterlimit="8" fill="#D6DBD9" fill-rule="evenodd"/><path d="M512.492 1861.2 486.926 1876.35C483.043 1878.65 478.042 1877.39 475.704 1873.52L467.651 1860C465.345 1856.13 466.613 1851.14 470.486 1848.8L496.051 1833.65C499.934 1831.35 504.935 1832.61 507.273 1836.48L515.326 1850C517.678 1853.9 516.378 1858.9 512.492 1861.2Z" stroke="#000000" stroke-width="3.4375" stroke-miterlimit="8" fill="#D6DBD9" fill-rule="evenodd"/><path d="M948.581 1601.56 923.523 1616.38C919.718 1618.63 914.816 1617.39 912.524 1613.61L904.628 1600.39C902.367 1596.6 903.611 1591.72 907.406 1589.44L932.464 1574.62C936.27 1572.37 941.172 1573.61 943.463 1577.39L951.356 1590.61C953.651 1594.39 952.377 1599.28 948.581 1601.56Z" stroke="#000000" stroke-width="3.4375" stroke-miterlimit="8" fill="#D6DBD9" fill-rule="evenodd"/><path d="M566.577 1828.56 541.52 1843.38C537.714 1845.63 532.812 1844.39 530.521 1840.61L522.628 1827.39C520.367 1823.6 521.611 1818.72 525.406 1816.44L550.464 1801.62C554.27 1799.37 559.171 1800.61 561.463 1804.39L569.355 1817.61C571.647 1821.39 570.386 1826.31 566.577 1828.56Z" stroke="#000000" stroke-width="3.4375" stroke-miterlimit="8" fill="#D6DBD9" fill-rule="evenodd"/><path d="M793.592 1693.56 768.526 1708.38C764.719 1710.63 759.816 1709.39 757.523 1705.61L749.628 1692.39C747.367 1688.6 748.611 1683.72 752.407 1681.44L777.473 1666.62C781.28 1664.37 786.183 1665.61 788.476 1669.39L796.371 1682.61C798.629 1686.4 797.399 1691.31 793.592 1693.56Z" stroke="#000000" stroke-width="3.4375" stroke-miterlimit="8" fill="#D6DBD9" fill-rule="evenodd"/><path d="M844.585 1663.2 819.523 1678.35C815.717 1680.65 810.814 1679.39 808.522 1675.52L800.628 1662C798.367 1658.13 799.611 1653.14 803.407 1650.8L828.469 1635.65C832.275 1633.35 837.178 1634.61 839.47 1638.48L847.367 1651.99C849.635 1655.9 848.392 1660.9 844.585 1663.2Z" stroke="#000000" stroke-width="3.4375" stroke-miterlimit="8" fill="#D6DBD9" fill-rule="evenodd"/><path d="M896.577 1632.56 871.519 1647.38C867.714 1649.63 862.812 1648.39 860.521 1644.61L852.628 1631.39C850.367 1627.6 851.611 1622.72 855.406 1620.44L880.463 1605.62C884.269 1603.37 889.171 1604.61 891.463 1608.39L899.358 1621.61C901.647 1625.39 900.383 1630.31 896.577 1632.56Z" stroke="#000000" stroke-width="3.4375" stroke-miterlimit="8" fill="#D6DBD9" fill-rule="evenodd"/><path d="M679.575 1761.2 654.521 1776.35C650.715 1778.65 645.814 1777.39 643.523 1773.52L635.628 1760C633.368 1756.13 634.611 1751.14 638.406 1748.8L663.46 1733.65C667.265 1731.35 672.166 1732.61 674.457 1736.48L682.349 1750C684.654 1753.9 683.38 1758.9 679.575 1761.2Z" stroke="#000000" stroke-width="3.4375" stroke-miterlimit="8" fill="#D6DBD9" fill-rule="evenodd"/><path d="M1007.58 1564.2 982.522 1579.35C978.717 1581.65 973.815 1580.39 971.523 1576.52L963.628 1563C961.368 1559.13 962.611 1554.14 966.406 1551.8L991.462 1536.65C995.268 1534.35 1000.17 1535.61 1002.46 1539.48L1010.35 1553C1012.65 1556.86 1011.39 1561.9 1007.58 1564.2Z" stroke="#000000" stroke-width="3.4375" stroke-miterlimit="8" fill="#D6DBD9" fill-rule="evenodd"/><path d="M506.569 1916.86 455.53 1947.36C451.722 1949.64 446.818 1948.39 444.525 1944.57L436.629 1931.21C434.367 1927.38 435.611 1922.44 439.408 1920.14L490.447 1889.64C494.255 1887.36 499.159 1888.61 501.452 1892.43L509.348 1905.79C511.655 1909.65 510.38 1914.59 506.569 1916.86Z" stroke="#000000" stroke-width="3.4375" stroke-miterlimit="8" fill="#D6DBD9" fill-rule="evenodd"/><path d="M549.609 1891.28 536.407 1899.35C532.623 1901.66 527.748 1900.39 525.47 1896.51L517.622 1882.95C515.374 1879.06 516.61 1874.06 520.384 1871.72L533.587 1863.65C537.371 1861.34 542.245 1862.61 544.524 1866.49L552.371 1880.05C554.63 1883.97 553.393 1888.97 549.609 1891.28Z" stroke="#000000" stroke-width="3.4375" stroke-miterlimit="8" fill="#D6DBD9" fill-rule="evenodd"/><path d="M588.6 1867.53 575.402 1875.38C571.618 1877.63 566.745 1876.39 564.467 1872.62L556.622 1859.41C554.374 1855.63 555.61 1850.75 559.383 1848.47L572.582 1840.62C576.365 1838.37 581.238 1839.61 583.516 1843.38L591.365 1856.59C593.64 1860.36 592.384 1865.28 588.6 1867.53Z" stroke="#000000" stroke-width="3.4375" stroke-miterlimit="8" fill="#D6DBD9" fill-rule="evenodd"/><path d="M630.602 1843.53 617.403 1851.38C613.619 1853.63 608.746 1852.39 606.468 1848.62L598.622 1835.41C596.374 1831.63 597.61 1826.75 601.383 1824.47L614.583 1816.62C618.367 1814.37 623.24 1815.61 625.518 1819.38L633.364 1832.59C635.639 1836.36 634.386 1841.28 630.602 1843.53Z" stroke="#000000" stroke-width="3.4375" stroke-miterlimit="8" fill="#D6DBD9" fill-rule="evenodd"/><path d="M669.504 1820.28 655.945 1828.35C652.058 1830.66 647.052 1829.39 644.712 1825.51L636.652 1811.95C634.344 1808.06 635.613 1803.06 639.489 1800.72L653.048 1792.65C656.935 1790.34 661.941 1791.61 664.281 1795.49L672.341 1809.05C674.66 1812.97 673.391 1817.97 669.504 1820.28L669.504 1820.28Z" stroke="#000000" stroke-width="3.4375" stroke-miterlimit="8" fill="#D6DBD9" fill-rule="evenodd"/><path d="M716.6 1792.53 703.402 1800.38C699.618 1802.63 694.745 1801.39 692.467 1797.62L684.621 1784.41C682.374 1780.63 683.61 1775.75 687.383 1773.47L700.582 1765.62C704.365 1763.37 709.238 1764.61 711.516 1768.38L719.365 1781.59C721.64 1785.36 720.383 1790.28 716.6 1792.53Z" stroke="#000000" stroke-width="3.4375" stroke-miterlimit="8" fill="#D6DBD9" fill-rule="evenodd"/><path d="M755.491 1769.53 741.938 1777.38C738.054 1779.63 733.05 1778.39 730.711 1774.61L722.652 1761.41C720.344 1757.63 721.613 1752.75 725.487 1750.47L739.04 1742.62C742.924 1740.37 747.928 1741.61 750.267 1745.38L758.323 1758.59C760.679 1762.39 759.379 1767.28 755.491 1769.53Z" stroke="#000000" stroke-width="3.4375" stroke-miterlimit="8" fill="#D6DBD9" fill-rule="evenodd"/><path d="M796.61 1745.28 783.409 1753.35C779.625 1755.66 774.751 1754.39 772.472 1750.51L764.622 1736.95C762.374 1733.06 763.61 1728.06 767.384 1725.72L780.585 1717.65C784.369 1715.34 789.243 1716.61 791.521 1720.49L799.368 1734.05C801.63 1737.97 800.397 1742.97 796.61 1745.28Z" stroke="#000000" stroke-width="3.4375" stroke-miterlimit="8" fill="#D6DBD9" fill-rule="evenodd"/><path d="M833.507 1722.53 819.947 1730.38C816.06 1732.63 811.054 1731.39 808.713 1727.61L800.652 1714.41C798.343 1710.63 799.613 1705.75 803.49 1703.47L817.05 1695.62C820.937 1693.37 825.943 1694.61 828.284 1698.38L836.345 1711.59C838.654 1715.37 837.398 1720.28 833.507 1722.53Z" stroke="#000000" stroke-width="3.4375" stroke-miterlimit="8" fill="#D6DBD9" fill-rule="evenodd"/><path d="M875.613 1697.53 862.409 1705.38C858.624 1707.63 853.75 1706.39 851.471 1702.62L843.622 1689.41C841.374 1685.63 842.61 1680.75 846.385 1678.47L859.589 1670.62C863.373 1668.37 868.248 1669.61 870.527 1673.38L878.375 1686.59C880.624 1690.38 879.401 1695.28 875.613 1697.53Z" stroke="#000000" stroke-width="3.4375" stroke-miterlimit="8" fill="#D6DBD9" fill-rule="evenodd"/><path d="M914.601 1674.53 901.402 1682.38C897.619 1684.63 892.746 1683.39 890.467 1679.62L882.621 1666.41C880.374 1662.63 881.61 1657.75 885.383 1655.47L898.582 1647.62C902.366 1645.37 907.239 1646.61 909.517 1650.38L917.363 1663.59C919.641 1667.36 918.385 1672.28 914.601 1674.53Z" stroke="#000000" stroke-width="3.4375" stroke-miterlimit="8" fill="#D6DBD9" fill-rule="evenodd"/><path d="M955.595 1649.53 942.399 1657.38C938.616 1659.63 933.744 1658.39 931.466 1654.62L923.621 1641.41C921.375 1637.63 922.61 1632.75 926.383 1630.47L939.58 1622.62C943.362 1620.37 948.234 1621.61 950.512 1625.38L958.357 1638.58C960.648 1642.39 959.378 1647.28 955.595 1649.53Z" stroke="#000000" stroke-width="3.4375" stroke-miterlimit="8" fill="#D6DBD9" fill-rule="evenodd"/><path d="M994.607 1626.53 981.406 1634.38C977.622 1636.63 972.748 1635.39 970.469 1631.61L962.622 1618.41C960.374 1614.63 961.61 1609.75 965.384 1607.47L978.586 1599.62C982.37 1597.37 987.244 1598.61 989.523 1602.38L997.373 1615.59C999.628 1619.41 998.395 1624.28 994.607 1626.53Z" stroke="#000000" stroke-width="3.4375" stroke-miterlimit="8" fill="#D6DBD9" fill-rule="evenodd"/><path d="M1031.49 1605.53 1017.94 1613.38C1014.05 1615.63 1009.05 1614.39 1006.71 1610.62L998.652 1597.41C996.344 1593.63 997.613 1588.75 1001.49 1586.47L1015.04 1578.62C1018.92 1576.37 1023.93 1577.61 1026.27 1581.38L1034.32 1594.59C1036.68 1598.39 1035.38 1603.28 1031.49 1605.53Z" stroke="#000000" stroke-width="3.4375" stroke-miterlimit="8" fill="#D6DBD9" fill-rule="evenodd"/><path d="M628.508 1898.53 614.948 1906.38C611.06 1908.63 606.054 1907.39 603.713 1903.61L595.652 1890.41C593.343 1886.63 594.613 1881.75 598.49 1879.47L612.05 1871.62C615.937 1869.37 620.944 1870.61 623.285 1874.38L631.346 1887.59C633.655 1891.37 632.395 1896.28 628.508 1898.53Z" stroke="#000000" stroke-width="3.4375" stroke-miterlimit="8" fill="#D6DBD9" fill-rule="evenodd"/><path d="M672.511 1873.28 658.95 1881.35C655.063 1883.66 650.057 1882.39 647.716 1878.51L639.652 1864.95C637.343 1861.06 638.613 1856.06 642.49 1853.72L656.05 1845.65C659.937 1843.34 664.943 1844.61 667.284 1848.49L675.344 1862.05C677.654 1865.94 676.398 1870.97 672.511 1873.28Z" stroke="#000000" stroke-width="3.4375" stroke-miterlimit="8" fill="#D6DBD9" fill-rule="evenodd"/><path d="M712.601 1849.28 699.402 1857.35C695.619 1859.66 690.746 1858.39 688.468 1854.51L680.622 1840.95C678.374 1837.06 679.61 1832.06 683.383 1829.72L696.582 1821.65C700.366 1819.34 705.239 1820.61 707.517 1824.49L715.363 1838.05C717.641 1841.93 716.384 1846.97 712.601 1849.28Z" stroke="#000000" stroke-width="3.4375" stroke-miterlimit="8" fill="#D6DBD9" fill-rule="evenodd"/><path d="M752.608 1824.53 739.406 1832.38C735.622 1834.63 730.748 1833.39 728.469 1829.62L720.622 1816.41C718.374 1812.63 719.61 1807.75 723.384 1805.47L736.586 1797.62C740.37 1795.37 745.244 1796.61 747.523 1800.38L755.374 1813.58C757.629 1817.41 756.392 1822.28 752.608 1824.53Z" stroke="#000000" stroke-width="3.4375" stroke-miterlimit="8" fill="#D6DBD9" fill-rule="evenodd"/><path d="M795.601 1799.53 782.402 1807.38C778.619 1809.63 773.746 1808.39 771.468 1804.62L763.621 1791.41C761.374 1787.63 762.61 1782.75 766.383 1780.47L779.582 1772.62C783.366 1770.37 788.239 1771.61 790.517 1775.38L798.363 1788.59C800.641 1792.36 799.385 1797.28 795.601 1799.53Z" stroke="#000000" stroke-width="3.4375" stroke-miterlimit="8" fill="#D6DBD9" fill-rule="evenodd"/><path d="M836.601 1774.53 823.402 1782.38C819.619 1784.63 814.746 1783.39 812.467 1779.62L804.621 1766.41C802.374 1762.63 803.61 1757.75 807.383 1755.47L820.583 1747.62C824.366 1745.37 829.239 1746.61 831.517 1750.38L839.367 1763.59C841.638 1767.36 840.385 1772.28 836.601 1774.53Z" stroke="#000000" stroke-width="3.4375" stroke-miterlimit="8" fill="#D6DBD9" fill-rule="evenodd"/><path d="M870.49 1751.28 856.936 1759.35C853.051 1761.66 848.048 1760.39 845.708 1756.51L837.651 1742.95C835.344 1739.06 836.613 1734.06 840.487 1731.72L854.041 1723.65C857.926 1721.34 862.93 1722.61 865.269 1726.49L873.326 1740.05C875.68 1743.96 874.375 1748.97 870.49 1751.28Z" stroke="#000000" stroke-width="3.4375" stroke-miterlimit="8" fill="#D6DBD9" fill-rule="evenodd"/><path d="M912.597 1725.53 899.399 1733.38C895.617 1735.63 890.744 1734.39 888.467 1730.62L880.622 1717.41C878.375 1713.63 879.61 1708.75 883.383 1706.47L896.58 1698.62C900.363 1696.37 905.235 1697.61 907.513 1701.38L915.358 1714.59C917.646 1718.39 916.38 1723.28 912.597 1725.53Z" stroke="#000000" stroke-width="3.4375" stroke-miterlimit="8" fill="#D6DBD9" fill-rule="evenodd"/><path d="M951.609 1702.53 938.407 1710.38C934.623 1712.63 929.748 1711.39 927.47 1707.62L919.622 1694.41C917.374 1690.63 918.61 1685.75 922.384 1683.47L935.587 1675.62C939.371 1673.37 944.245 1674.61 946.524 1678.38L954.372 1691.59C956.63 1695.41 955.394 1700.28 951.609 1702.53Z" stroke="#000000" stroke-width="3.4375" stroke-miterlimit="8" fill="#D6DBD9" fill-rule="evenodd"/><path d="M992.613 1678.28 979.409 1686.35C975.625 1688.66 970.75 1687.39 968.471 1683.51L960.622 1669.95C958.374 1666.06 959.61 1661.06 963.385 1658.72L976.589 1650.65C980.373 1648.34 985.248 1649.61 987.527 1653.49L995.38 1667.05C997.621 1670.94 996.398 1675.97 992.613 1678.28Z" stroke="#000000" stroke-width="3.4375" stroke-miterlimit="8" fill="#D6DBD9" fill-rule="evenodd"/><path d="M548.555 1946.67 479.639 1987.37C475.81 1989.63 470.879 1988.39 468.574 1984.6L460.635 1971.32C458.361 1967.52 459.612 1962.62 463.43 1960.33L532.345 1919.63C536.174 1917.37 541.104 1918.61 543.41 1922.4L551.349 1935.68C553.654 1939.47 552.383 1944.41 548.555 1946.67Z" stroke="#000000" stroke-width="3.4375" stroke-miterlimit="8" fill="#D6DBD9" fill-rule="evenodd"/><path d="M632.615 1952.53 619.41 1960.38C615.625 1962.63 610.75 1961.39 608.471 1957.62L600.622 1944.41C598.374 1940.63 599.61 1935.75 603.385 1933.47L616.589 1925.62C620.374 1923.37 625.249 1924.61 627.529 1928.38L635.377 1941.59C637.622 1945.38 636.4 1950.28 632.615 1952.53Z" stroke="#000000" stroke-width="3.4375" stroke-miterlimit="8" fill="#D6DBD9" fill-rule="evenodd"/><path d="M585.602 1923.53 572.404 1931.38C568.621 1933.63 563.748 1932.39 561.47 1928.62L553.621 1915.41C551.374 1911.63 552.61 1906.75 556.383 1904.47L569.581 1896.62C573.364 1894.37 578.237 1895.61 580.515 1899.38L588.36 1912.59C590.642 1916.36 589.385 1921.28 585.602 1923.53Z" stroke="#000000" stroke-width="3.4375" stroke-miterlimit="8" fill="#D6DBD9" fill-rule="evenodd"/><path d="M1048.64 1646.8 1016.25 1666.37C1012.5 1668.64 1007.66 1667.39 1005.4 1663.58L997.613 1650.25C995.383 1646.43 996.609 1641.51 1000.35 1639.2L1032.74 1619.63C1036.5 1617.36 1041.33 1618.61 1043.59 1622.42L1051.38 1635.75C1053.62 1639.61 1052.39 1644.53 1048.64 1646.8L1048.64 1646.8Z" stroke="#000000" stroke-width="3.4375" stroke-miterlimit="8" fill="#D6DBD9" fill-rule="evenodd"/><path d="M590.576 1975.75 503.601 2027.37C499.781 2029.64 494.86 2028.39 492.559 2024.58L484.633 2011.28C482.363 2007.46 483.611 2002.55 487.422 2000.25L574.396 1948.63C578.217 1946.36 583.138 1947.61 585.439 1951.41L593.365 1964.72C595.635 1968.54 594.397 1973.48 590.576 1975.75Z" stroke="#000000" stroke-width="3.4375" stroke-miterlimit="8" fill="#D6DBD9" fill-rule="evenodd"/><path d="M674.496 1926.53 660.94 1934.38C657.054 1936.63 652.049 1935.39 649.71 1931.62L641.652 1918.41C639.344 1914.63 640.613 1909.75 644.488 1907.47L658.044 1899.62C661.93 1897.37 666.934 1898.61 669.274 1902.39L677.332 1915.59C679.672 1919.36 678.381 1924.28 674.496 1926.53Z" stroke="#000000" stroke-width="3.4375" stroke-miterlimit="8" fill="#D6DBD9" fill-rule="evenodd"/><path d="M719.595 1899.53 706.398 1907.38C702.615 1909.63 697.743 1908.39 695.466 1904.62L687.621 1891.41C685.374 1887.63 686.61 1882.75 690.383 1880.47L703.579 1872.62C707.362 1870.37 712.234 1871.61 714.512 1875.38L722.356 1888.59C724.647 1892.39 723.381 1897.28 719.595 1899.53Z" stroke="#000000" stroke-width="3.4375" stroke-miterlimit="8" fill="#D6DBD9" fill-rule="evenodd"/><path d="M760.489 1875.53 746.936 1883.38C743.051 1885.63 738.047 1884.39 735.708 1880.62L727.651 1867.41C725.344 1863.63 726.613 1858.75 730.487 1856.47L744.041 1848.62C747.925 1846.37 752.929 1847.61 755.269 1851.38L763.325 1864.59C765.678 1868.39 764.377 1873.28 760.489 1875.53Z" stroke="#000000" stroke-width="3.4375" stroke-miterlimit="8" fill="#D6DBD9" fill-rule="evenodd"/><path d="M800.614 1850.53 787.411 1858.38C783.627 1860.63 778.753 1859.39 776.474 1855.62L768.622 1842.41C766.374 1838.63 767.61 1833.75 771.385 1831.47L784.588 1823.62C788.372 1821.37 793.246 1822.61 795.525 1826.38L803.373 1839.59C805.625 1843.38 804.399 1848.28 800.614 1850.53Z" stroke="#000000" stroke-width="3.4375" stroke-miterlimit="8" fill="#D6DBD9" fill-rule="evenodd"/><path d="M843.497 1825.53 829.941 1833.38C826.055 1835.63 821.05 1834.39 818.71 1830.62L810.652 1817.41C808.344 1813.63 809.613 1808.75 813.489 1806.47L827.045 1798.62C830.931 1796.37 835.936 1797.61 838.276 1801.38L846.334 1814.59C848.674 1818.36 847.373 1823.24 843.497 1825.53Z" stroke="#000000" stroke-width="3.4375" stroke-miterlimit="8" fill="#D6DBD9" fill-rule="evenodd"/><path d="M884.61 1801.28 871.409 1809.35C867.625 1811.66 862.751 1810.39 860.473 1806.51L852.622 1792.95C850.374 1789.06 851.61 1784.06 855.384 1781.72L868.585 1773.65C872.369 1771.34 877.243 1772.61 879.522 1776.49L887.369 1790.05C889.631 1793.97 888.394 1798.97 884.61 1801.28Z" stroke="#000000" stroke-width="3.4375" stroke-miterlimit="8" fill="#D6DBD9" fill-rule="evenodd"/><path d="M917.595 1777.28 904.398 1785.35C900.615 1787.66 895.743 1786.39 893.466 1782.51L885.621 1768.95C883.374 1765.06 884.61 1760.06 888.383 1757.72L901.579 1749.65C905.362 1747.34 910.234 1748.61 912.512 1752.49L920.356 1766.05C922.647 1769.96 921.381 1774.97 917.595 1777.28Z" stroke="#000000" stroke-width="3.4375" stroke-miterlimit="8" fill="#D6DBD9" fill-rule="evenodd"/><path d="M960.496 1752.28 946.94 1760.35C943.054 1762.66 938.049 1761.39 935.71 1757.51L927.652 1743.95C925.344 1740.06 926.613 1735.06 930.488 1732.72L944.044 1724.65C947.929 1722.34 952.934 1723.61 955.274 1727.49L963.332 1741.05C965.671 1744.93 964.381 1749.98 960.496 1752.28Z" stroke="#000000" stroke-width="3.4375" stroke-miterlimit="8" fill="#D6DBD9" fill-rule="evenodd"/><path d="M999.507 1729.28 985.947 1737.35C982.06 1739.66 977.054 1738.39 974.713 1734.51L966.652 1720.95C964.344 1717.06 965.613 1712.06 969.49 1709.72L983.05 1701.65C986.937 1699.34 991.943 1700.61 994.284 1704.49L1002.34 1718.05C1004.65 1721.94 1003.4 1726.97 999.507 1729.28Z" stroke="#000000" stroke-width="3.4375" stroke-miterlimit="8" fill="#D6DBD9" fill-rule="evenodd"/><path d="M1074.6 1678.79 1023.47 1709.37C1019.67 1711.64 1014.78 1710.39 1012.5 1706.58L1004.63 1693.25C1002.37 1689.43 1003.61 1684.51 1007.4 1682.21L1058.52 1651.63C1062.32 1649.36 1067.21 1650.61 1069.49 1654.42L1077.37 1667.75C1079.63 1671.6 1078.39 1676.52 1074.6 1678.79Z" stroke="#000000" stroke-width="3.4375" stroke-miterlimit="8" fill="#D6DBD9" fill-rule="evenodd"/><path d="M535.485 2059.53 521.935 2067.38C518.051 2069.63 513.049 2068.39 510.709 2064.62L502.651 2051.41C500.344 2047.63 501.613 2042.75 505.487 2040.47L519.037 2032.62C522.921 2030.37 527.923 2031.61 530.262 2035.38L538.317 2048.59C540.67 2052.4 539.404 2057.27 535.485 2059.53Z" stroke="#000000" stroke-width="3.4375" stroke-miterlimit="8" fill="#D6DBD9" fill-rule="evenodd"/><path d="M574.504 2036.53 560.945 2044.38C557.058 2046.63 552.052 2045.39 549.712 2041.62L541.652 2028.41C539.343 2024.63 540.613 2019.75 544.489 2017.47L558.048 2009.62C561.935 2007.37 566.941 2008.61 569.281 2012.38L577.341 2025.59C579.66 2029.41 578.391 2034.28 574.504 2036.53Z" stroke="#000000" stroke-width="3.4375" stroke-miterlimit="8" fill="#D6DBD9" fill-rule="evenodd"/><path d="M615.601 2011.53 602.402 2019.38C598.619 2021.63 593.746 2020.39 591.468 2016.62L583.622 2003.41C581.374 1999.63 582.61 1994.75 586.383 1992.47L599.583 1984.62C603.366 1982.37 608.239 1983.61 610.517 1987.38L618.363 2000.59C620.641 2004.36 619.384 2009.28 615.601 2011.53Z" stroke="#000000" stroke-width="3.4375" stroke-miterlimit="8" fill="#D6DBD9" fill-rule="evenodd"/><path d="M654.615 1988.53 641.41 1996.38C637.625 1998.63 632.75 1997.39 630.471 1993.62L622.622 1980.41C620.374 1976.63 621.61 1971.75 625.385 1969.47L638.589 1961.62C642.374 1959.37 647.249 1960.61 649.528 1964.38L657.377 1977.59C659.622 1981.38 658.4 1986.28 654.615 1988.53Z" stroke="#000000" stroke-width="3.4375" stroke-miterlimit="8" fill="#D6DBD9" fill-rule="evenodd"/><path d="M701.612 1961.53 688.409 1969.38C684.624 1971.63 679.75 1970.39 677.471 1966.61L669.622 1953.41C667.374 1949.63 668.61 1944.75 672.385 1942.47L685.588 1934.62C689.373 1932.37 694.248 1933.61 696.526 1937.39L704.375 1950.59C706.624 1954.37 705.4 1959.28 701.612 1961.53Z" stroke="#000000" stroke-width="3.4375" stroke-miterlimit="8" fill="#D6DBD9" fill-rule="evenodd"/><path d="M860.577 1865.96 728.494 1945.36C724.693 1947.64 719.797 1946.39 717.509 1942.56L709.627 1929.15C707.369 1925.3 708.611 1920.35 712.401 1918.04L844.485 1838.64C848.285 1836.36 853.181 1837.61 855.469 1841.45L863.355 1854.86C865.651 1858.72 864.378 1863.68 860.577 1865.96Z" stroke="#000000" stroke-width="3.4375" stroke-miterlimit="8" fill="#D6DBD9" fill-rule="evenodd"/><path d="M899.614 1843.28 886.411 1851.35C882.627 1853.66 877.753 1852.39 875.474 1848.51L867.622 1834.95C865.374 1831.06 866.61 1826.06 870.385 1823.72L883.588 1815.65C887.372 1813.34 892.246 1814.61 894.525 1818.49L902.373 1832.05C904.625 1835.94 903.399 1840.97 899.614 1843.28Z" stroke="#000000" stroke-width="3.4375" stroke-miterlimit="8" fill="#D6DBD9" fill-rule="evenodd"/><path d="M941.496 1818.53 927.94 1826.38C924.054 1828.63 919.05 1827.39 916.71 1823.61L908.652 1810.41C906.344 1806.63 907.613 1801.75 911.488 1799.47L925.044 1791.62C928.93 1789.37 933.934 1790.61 936.274 1794.39L944.332 1807.59C946.672 1811.36 945.382 1816.28 941.496 1818.53Z" stroke="#000000" stroke-width="3.4375" stroke-miterlimit="8" fill="#D6DBD9" fill-rule="evenodd"/><path d="M980.511 1795.28 966.949 1803.35C963.062 1805.66 958.055 1804.39 955.714 1800.51L947.652 1786.95C945.343 1783.06 946.613 1778.06 950.49 1775.72L964.052 1767.65C967.939 1765.34 972.946 1766.61 975.287 1770.49L983.349 1784.05C985.655 1787.94 984.388 1792.94 980.511 1795.28Z" stroke="#000000" stroke-width="3.4375" stroke-miterlimit="8" fill="#D6DBD9" fill-rule="evenodd"/><path d="M1016.5 1774.53 1002.94 1782.38C999.054 1784.63 994.05 1783.39 991.71 1779.61L983.652 1766.41C981.344 1762.63 982.613 1757.75 986.488 1755.47L1000.04 1747.62C1003.93 1745.37 1008.93 1746.61 1011.27 1750.39L1019.33 1763.59C1021.67 1767.36 1020.38 1772.28 1016.5 1774.53Z" stroke="#000000" stroke-width="3.4375" stroke-miterlimit="8" fill="#D6DBD9" fill-rule="evenodd"/><path d="M1057.6 1747.53 1044.4 1755.38C1040.62 1757.63 1035.74 1756.39 1033.47 1752.62L1025.62 1739.41C1023.37 1735.63 1024.61 1730.75 1028.38 1728.47L1041.58 1720.62C1045.36 1718.37 1050.24 1719.61 1052.51 1723.38L1060.36 1736.59C1062.65 1740.4 1061.38 1745.28 1057.6 1747.53Z" stroke="#000000" stroke-width="3.4375" stroke-miterlimit="8" fill="#D6DBD9" fill-rule="evenodd"/><path d="M1098.61 1722.53 1085.41 1730.38C1081.62 1732.63 1076.75 1731.39 1074.47 1727.62L1066.62 1714.41C1064.37 1710.63 1065.61 1705.75 1069.38 1703.47L1082.59 1695.62C1086.37 1693.37 1091.24 1694.61 1093.52 1698.38L1101.37 1711.59C1103.63 1715.41 1102.39 1720.28 1098.61 1722.53Z" stroke="#000000" stroke-width="3.4375" stroke-miterlimit="8" fill="#D6DBD9" fill-rule="evenodd"/><path d="M1097.5 1565.53 1083.94 1573.38C1080.06 1575.63 1075.05 1574.39 1072.71 1570.62L1064.65 1557.41C1062.34 1553.63 1063.61 1548.75 1067.49 1546.47L1081.04 1538.62C1084.93 1536.37 1089.93 1537.61 1092.27 1541.38L1100.33 1554.59C1102.67 1558.36 1101.37 1563.25 1097.5 1565.53Z" stroke="#000000" stroke-width="3.4375" stroke-miterlimit="8" fill="#D6DBD9" fill-rule="evenodd"/><path d="M1177.5 1518.53 1163.94 1526.38C1160.06 1528.63 1155.05 1527.39 1152.71 1523.62L1144.65 1510.41C1142.34 1506.63 1143.61 1501.75 1147.49 1499.47L1161.04 1491.62C1164.93 1489.37 1169.93 1490.61 1172.27 1494.38L1180.33 1507.59C1182.67 1511.36 1181.39 1516.28 1177.5 1518.53Z" stroke="#000000" stroke-width="3.4375" stroke-miterlimit="8" fill="#D6DBD9" fill-rule="evenodd"/><path d="M1136.61 1542.53 1123.41 1550.38C1119.62 1552.63 1114.75 1551.39 1112.47 1547.62L1104.62 1534.41C1102.37 1530.63 1103.61 1525.75 1107.38 1523.47L1120.59 1515.62C1124.37 1513.37 1129.25 1514.61 1131.53 1518.38L1139.38 1531.59C1141.62 1535.38 1140.4 1540.28 1136.61 1542.53Z" stroke="#000000" stroke-width="3.4375" stroke-miterlimit="8" fill="#D6DBD9" fill-rule="evenodd"/><path d="M1120.51 1604.28 1106.95 1612.35C1103.06 1614.66 1098.05 1613.39 1095.71 1609.51L1087.65 1595.95C1085.34 1592.06 1086.61 1587.06 1090.49 1584.72L1104.05 1576.65C1107.94 1574.34 1112.94 1575.61 1115.29 1579.49L1123.35 1593.05C1125.65 1596.94 1124.4 1601.97 1120.51 1604.28Z" stroke="#000000" stroke-width="3.4375" stroke-miterlimit="8" fill="#D6DBD9" fill-rule="evenodd"/><path d="M1158.61 1579.53 1145.41 1587.38C1141.63 1589.63 1136.75 1588.39 1134.47 1584.62L1126.62 1571.41C1124.37 1567.63 1125.61 1562.75 1129.38 1560.47L1142.59 1552.62C1146.37 1550.37 1151.25 1551.61 1153.52 1555.38L1161.38 1568.59C1163.62 1572.37 1162.4 1577.28 1158.61 1579.53Z" stroke="#000000" stroke-width="3.4375" stroke-miterlimit="8" fill="#D6DBD9" fill-rule="evenodd"/><path d="M1199.49 1555.53 1185.94 1563.38C1182.05 1565.63 1177.05 1564.39 1174.71 1560.62L1166.65 1547.41C1164.34 1543.63 1165.61 1538.75 1169.49 1536.47L1183.04 1528.62C1186.93 1526.37 1191.93 1527.61 1194.27 1531.38L1202.33 1544.59C1204.68 1548.4 1203.37 1553.28 1199.49 1555.53Z" stroke="#000000" stroke-width="3.4375" stroke-miterlimit="8" fill="#D6DBD9" fill-rule="evenodd"/><path d="M1142.61 1642.28 1129.41 1650.35C1125.62 1652.66 1120.75 1651.39 1118.47 1647.51L1110.62 1633.95C1108.37 1630.06 1109.61 1625.06 1113.38 1622.72L1126.59 1614.65C1130.37 1612.34 1135.24 1613.61 1137.52 1617.49L1145.37 1631.05C1147.63 1634.97 1146.39 1639.97 1142.61 1642.28Z" stroke="#000000" stroke-width="3.4375" stroke-miterlimit="8" fill="#D6DBD9" fill-rule="evenodd"/><path d="M1179.59 1615.28 1166.4 1623.35C1162.62 1625.66 1157.74 1624.39 1155.47 1620.51L1147.62 1606.95C1145.37 1603.06 1146.61 1598.06 1150.38 1595.72L1163.58 1587.65C1167.36 1585.34 1172.24 1586.61 1174.51 1590.49L1182.36 1604.05C1184.64 1607.96 1183.38 1612.97 1179.59 1615.28Z" stroke="#000000" stroke-width="3.4375" stroke-miterlimit="8" fill="#D6DBD9" fill-rule="evenodd"/><path d="M1222.49 1591.28 1208.94 1599.35C1205.06 1601.66 1200.05 1600.39 1197.71 1596.51L1189.65 1582.95C1187.34 1579.06 1188.61 1574.06 1192.49 1571.72L1206.04 1563.65C1209.93 1561.34 1214.94 1562.61 1217.28 1566.49L1225.34 1580.05C1227.67 1583.93 1226.38 1588.97 1222.49 1591.28Z" stroke="#000000" stroke-width="3.4375" stroke-miterlimit="8" fill="#D6DBD9" fill-rule="evenodd"/><path d="M1211.54 1649.61 1150.68 1685.37C1146.85 1687.63 1141.9 1686.39 1139.59 1682.6L1131.64 1669.36C1129.36 1665.57 1130.61 1660.68 1134.44 1658.39L1195.3 1622.63C1199.13 1620.37 1204.07 1621.61 1206.38 1625.4L1214.34 1638.64C1216.66 1642.45 1215.38 1647.35 1211.54 1649.61L1211.54 1649.61Z" stroke="#000000" stroke-width="3.4375" stroke-miterlimit="8" fill="#D6DBD9" fill-rule="evenodd"/><path d="M1244.6 1629.28 1231.4 1637.35C1227.62 1639.66 1222.75 1638.39 1220.47 1634.51L1212.62 1620.95C1210.37 1617.06 1211.61 1612.06 1215.38 1609.72L1228.58 1601.65C1232.37 1599.34 1237.24 1600.61 1239.52 1604.49L1247.37 1618.05C1249.64 1621.93 1248.38 1626.98 1244.6 1629.28Z" stroke="#000000" stroke-width="3.4375" stroke-miterlimit="8" fill="#D6DBD9" fill-rule="evenodd"/></g></svg>