<svg width="766" height="998" xmlns="http://www.w3.org/2000/svg" xmlns:xlink="http://www.w3.org/1999/xlink" xml:space="preserve" overflow="hidden"><g transform="translate(-425 -1258)"><path d="M709.544 1284.37 1175.94 2069.36C1185.1 2084.8 1180.02 2104.73 1164.62 2113.88L950.952 2240.94C935.519 2250.1 915.597 2245.02 906.445 2229.62L440.063 1444.65C430.898 1429.22 435.976 1409.29 451.377 1400.13L665.048 1273.08C680.436 1263.89 700.389 1268.96 709.544 1284.37L709.544 1284.37Z" stroke="#000000" stroke-width="20.625" stroke-miterlimit="8" fill="#A6A897" fill-rule="evenodd"/><path d="M847.561 1981.49 862.377 2007.07C864.628 2010.95 863.39 2015.95 859.611 2018.29L846.391 2026.35C842.602 2028.66 837.721 2027.39 835.439 2023.51L820.623 1997.94C818.372 1994.06 819.61 1989.05 823.389 1986.72L836.609 1978.66C840.432 1976.34 845.31 1977.61 847.561 1981.49Z" stroke="#000000" stroke-width="3.4375" stroke-miterlimit="8" fill="#D6DBD9" fill-rule="evenodd"/><path d="M776.561 1862.41 791.377 1887.47C793.628 1891.28 792.39 1896.18 788.61 1898.47L775.391 1906.37C771.601 1908.63 766.721 1907.39 764.439 1903.59L749.623 1878.53C747.372 1874.72 748.61 1869.82 752.389 1867.53L765.609 1859.63C769.398 1857.37 774.31 1858.6 776.561 1862.41Z" stroke="#000000" stroke-width="3.4375" stroke-miterlimit="8" fill="#D6DBD9" fill-rule="evenodd"/><path d="M943.561 2143.42 958.377 2168.48C960.628 2172.28 959.39 2177.18 955.61 2179.48L942.391 2187.37C938.602 2189.63 933.721 2188.39 931.439 2184.59L916.623 2159.54C914.372 2155.73 915.61 2150.83 919.389 2148.54L932.609 2140.65C936.388 2138.35 941.31 2139.62 943.561 2143.42Z" stroke="#000000" stroke-width="3.4375" stroke-miterlimit="8" fill="#D6DBD9" fill-rule="evenodd"/><path d="M911.561 2090.43 926.377 2115.48C928.628 2119.29 927.39 2124.19 923.611 2126.48L910.391 2134.37C906.602 2136.63 901.721 2135.39 899.439 2131.59L884.623 2106.54C882.372 2102.74 883.61 2097.84 887.389 2095.54L900.609 2087.65C904.419 2085.34 909.31 2086.62 911.561 2090.43Z" stroke="#000000" stroke-width="3.4375" stroke-miterlimit="8" fill="#D6DBD9" fill-rule="evenodd"/><path d="M652.561 1653.42 667.377 1678.48C669.628 1682.28 668.39 1687.18 664.611 1689.48L651.391 1697.37C647.602 1699.63 642.721 1698.39 640.44 1694.59L625.623 1669.54C623.373 1665.73 624.61 1660.83 628.39 1658.54L641.609 1650.64C645.388 1648.35 650.279 1649.62 652.561 1653.42Z" stroke="#000000" stroke-width="3.4375" stroke-miterlimit="8" fill="#D6DBD9" fill-rule="evenodd"/><path d="M879.561 2035.42 894.377 2060.48C896.628 2064.29 895.39 2069.19 891.611 2071.48L878.391 2079.37C874.602 2081.63 869.721 2080.39 867.439 2076.59L852.623 2051.54C850.372 2047.73 851.61 2042.83 855.389 2040.54L868.609 2032.64C872.388 2030.35 877.31 2031.62 879.561 2035.42Z" stroke="#000000" stroke-width="3.4375" stroke-miterlimit="8" fill="#D6DBD9" fill-rule="evenodd"/><path d="M744.56 1808.41 759.377 1833.47C761.628 1837.28 760.39 1842.18 756.61 1844.47L743.391 1852.37C739.602 1854.63 734.721 1853.39 732.439 1849.59L717.623 1824.53C715.372 1820.72 716.61 1815.82 720.389 1813.53L733.609 1805.63C737.398 1803.37 742.31 1804.6 744.56 1808.41Z" stroke="#000000" stroke-width="3.4375" stroke-miterlimit="8" fill="#D6DBD9" fill-rule="evenodd"/><path d="M714.199 1757.41 729.351 1782.47C731.654 1786.28 730.387 1791.18 726.522 1793.48L713.002 1801.37C709.127 1803.63 704.135 1802.39 701.802 1798.59L686.649 1773.53C684.347 1769.73 685.613 1764.82 689.478 1762.53L702.998 1754.64C706.908 1752.36 711.896 1753.61 714.199 1757.41Z" stroke="#000000" stroke-width="3.4375" stroke-miterlimit="8" fill="#D6DBD9" fill-rule="evenodd"/><path d="M683.561 1705.42 698.377 1730.48C700.628 1734.28 699.39 1739.18 695.611 1741.48L682.391 1749.37C678.602 1751.63 673.721 1750.39 671.439 1746.59L656.623 1721.54C654.372 1717.73 655.61 1712.83 659.389 1710.54L672.609 1702.65C676.388 1700.35 681.31 1701.62 683.561 1705.42Z" stroke="#000000" stroke-width="3.4375" stroke-miterlimit="8" fill="#D6DBD9" fill-rule="evenodd"/><path d="M812.199 1922.43 827.351 1947.48C829.654 1951.29 828.387 1956.19 824.522 1958.48L811.002 1966.37C807.127 1968.63 802.135 1967.39 799.802 1963.59L784.649 1938.54C782.347 1934.73 783.613 1929.83 787.478 1927.54L800.998 1919.65C804.894 1917.35 809.896 1918.62 812.199 1922.43Z" stroke="#000000" stroke-width="3.4375" stroke-miterlimit="8" fill="#D6DBD9" fill-rule="evenodd"/><path d="M615.199 1594.42 630.351 1619.48C632.654 1623.29 631.387 1628.19 627.522 1630.48L614.002 1638.37C610.127 1640.63 605.135 1639.39 602.802 1635.59L587.649 1610.54C585.347 1606.73 586.613 1601.83 590.478 1599.54L603.998 1591.64C607.863 1589.35 612.896 1590.62 615.199 1594.42Z" stroke="#000000" stroke-width="3.4375" stroke-miterlimit="8" fill="#D6DBD9" fill-rule="evenodd"/><path d="M967.864 2095.43 998.365 2146.47C1000.64 2150.27 999.389 2155.18 995.569 2157.47L982.206 2165.37C978.376 2167.63 973.442 2166.39 971.136 2162.59L940.635 2111.55C938.36 2107.75 939.611 2102.84 943.431 2100.55L956.794 2092.65C960.645 2090.34 965.589 2091.62 967.864 2095.43Z" stroke="#000000" stroke-width="3.4375" stroke-miterlimit="8" fill="#D6DBD9" fill-rule="evenodd"/><path d="M942.284 2052.39 950.348 2065.59C952.657 2069.38 951.387 2074.25 947.511 2076.53L933.95 2084.38C930.063 2086.63 925.057 2085.39 922.716 2081.62L914.652 2068.42C912.343 2064.63 913.613 2059.76 917.49 2057.48L931.05 2049.63C934.972 2047.37 939.975 2048.61 942.284 2052.39Z" stroke="#000000" stroke-width="3.4375" stroke-miterlimit="8" fill="#D6DBD9" fill-rule="evenodd"/><path d="M918.527 2013.4 926.378 2026.6C928.627 2030.38 927.39 2035.25 923.616 2037.53L910.412 2045.38C906.628 2047.63 901.753 2046.39 899.474 2042.62L891.622 2029.42C889.374 2025.63 890.61 2020.76 894.385 2018.48L907.588 2010.64C911.363 2008.36 916.278 2009.62 918.527 2013.4Z" stroke="#000000" stroke-width="3.4375" stroke-miterlimit="8" fill="#D6DBD9" fill-rule="evenodd"/><path d="M894.284 1971.51 902.348 1985.06C904.657 1988.94 903.387 1993.95 899.511 1996.29L885.95 2004.35C882.063 2006.66 877.057 2005.39 874.716 2001.51L866.652 1987.96C864.343 1984.07 865.613 1979.07 869.49 1976.73L883.05 1968.67C886.927 1966.33 891.975 1967.62 894.284 1971.51Z" stroke="#000000" stroke-width="3.4375" stroke-miterlimit="8" fill="#D6DBD9" fill-rule="evenodd"/><path d="M871.284 1932.5 879.348 1946.05C881.657 1949.94 880.387 1954.95 876.511 1957.29L862.95 1965.35C859.063 1967.66 854.057 1966.39 851.716 1962.51L843.652 1948.95C841.343 1945.06 842.613 1940.06 846.49 1937.72L860.05 1929.65C863.972 1927.34 868.978 1928.61 871.284 1932.5L871.284 1932.5Z" stroke="#000000" stroke-width="3.4375" stroke-miterlimit="8" fill="#D6DBD9" fill-rule="evenodd"/><path d="M843.526 1885.5 851.378 1899.06C853.627 1902.95 852.39 1907.95 848.616 1910.29L835.412 1918.35C831.628 1920.66 826.753 1919.39 824.474 1915.51L816.622 1901.96C814.374 1898.07 815.61 1893.07 819.385 1890.73L832.588 1882.67C836.362 1880.33 841.278 1881.62 843.526 1885.5Z" stroke="#000000" stroke-width="3.4375" stroke-miterlimit="8" fill="#D6DBD9" fill-rule="evenodd"/><path d="M820.526 1846.51 828.378 1860.06C830.627 1863.95 829.39 1868.95 825.616 1871.29L812.412 1879.35C808.628 1881.66 803.753 1880.39 801.474 1876.51L793.622 1862.96C791.374 1859.08 792.61 1854.07 796.384 1851.74L809.588 1843.68C813.397 1841.32 818.278 1842.62 820.526 1846.51Z" stroke="#000000" stroke-width="3.4375" stroke-miterlimit="8" fill="#D6DBD9" fill-rule="evenodd"/><path d="M796.284 1805.39 804.348 1818.59C806.657 1822.38 805.387 1827.25 801.511 1829.53L787.95 1837.38C784.064 1839.63 779.057 1838.39 776.716 1834.62L768.652 1821.41C766.344 1817.63 767.613 1812.76 771.49 1810.48L785.05 1802.63C788.972 1800.37 793.975 1801.61 796.284 1805.39Z" stroke="#000000" stroke-width="3.4375" stroke-miterlimit="8" fill="#D6DBD9" fill-rule="evenodd"/><path d="M773.526 1768.49 781.378 1782.05C783.626 1785.94 782.39 1790.94 778.616 1793.28L765.412 1801.35C761.628 1803.66 756.753 1802.39 754.474 1798.51L746.622 1784.95C744.374 1781.07 745.61 1776.06 749.385 1773.72L762.588 1765.66C766.376 1763.34 771.282 1764.6 773.526 1768.49Z" stroke="#000000" stroke-width="3.4375" stroke-miterlimit="8" fill="#D6DBD9" fill-rule="evenodd"/><path d="M748.527 1726.39 756.379 1739.59C758.627 1743.37 757.39 1748.25 753.616 1750.53L740.412 1758.38C736.628 1760.63 731.753 1759.39 729.474 1755.62L721.622 1742.41C719.374 1738.63 720.61 1733.75 724.385 1731.47L737.588 1723.62C741.373 1721.38 746.278 1722.6 748.527 1726.39Z" stroke="#000000" stroke-width="3.4375" stroke-miterlimit="8" fill="#D6DBD9" fill-rule="evenodd"/><path d="M725.526 1687.4 733.379 1700.6C735.627 1704.38 734.39 1709.26 730.616 1711.53L717.412 1719.38C713.628 1721.63 708.753 1720.39 706.474 1716.62L698.622 1703.42C696.374 1699.63 697.61 1694.76 701.385 1692.48L714.588 1684.64C718.362 1682.36 723.278 1683.62 725.526 1687.4Z" stroke="#000000" stroke-width="3.4375" stroke-miterlimit="8" fill="#D6DBD9" fill-rule="evenodd"/><path d="M700.526 1646.4 708.378 1659.6C710.627 1663.38 709.39 1668.25 705.616 1670.53L692.412 1678.38C688.628 1680.63 683.753 1679.39 681.474 1675.62L673.622 1662.42C671.374 1658.64 672.61 1653.77 676.385 1651.49L689.588 1643.64C693.393 1641.35 698.278 1642.62 700.526 1646.4Z" stroke="#000000" stroke-width="3.4375" stroke-miterlimit="8" fill="#D6DBD9" fill-rule="evenodd"/><path d="M677.526 1607.39 685.378 1620.59C687.627 1624.38 686.39 1629.25 682.616 1631.53L669.412 1639.38C665.628 1641.63 660.753 1640.39 658.474 1636.62L650.622 1623.42C648.374 1619.63 649.61 1614.76 653.384 1612.48L666.588 1604.63C670.407 1602.37 675.278 1603.61 677.526 1607.39Z" stroke="#000000" stroke-width="3.4375" stroke-miterlimit="8" fill="#D6DBD9" fill-rule="evenodd"/><path d="M656.526 1571.4 664.378 1584.6C666.627 1588.38 665.39 1593.25 661.616 1595.53L648.412 1603.38C644.628 1605.63 639.753 1604.39 637.474 1600.62L629.622 1587.42C627.374 1583.64 628.61 1578.77 632.385 1576.49L645.588 1568.64C649.393 1566.35 654.278 1567.62 656.526 1571.4Z" stroke="#000000" stroke-width="3.4375" stroke-miterlimit="8" fill="#D6DBD9" fill-rule="evenodd"/><path d="M949.526 1973.49 957.378 1987.05C959.626 1990.94 958.39 1995.94 954.616 1998.28L941.412 2006.35C937.628 2008.66 932.753 2007.39 930.474 2003.51L922.622 1989.95C920.374 1986.06 921.61 1981.06 925.385 1978.72L938.588 1970.66C942.373 1968.35 947.278 1969.6 949.526 1973.49Z" stroke="#000000" stroke-width="3.4375" stroke-miterlimit="8" fill="#D6DBD9" fill-rule="evenodd"/><path d="M924.284 1930.39 932.348 1943.59C934.657 1947.38 933.387 1952.25 929.511 1954.53L915.95 1962.38C912.064 1964.63 907.057 1963.39 904.716 1959.62L896.652 1946.41C894.343 1942.63 895.613 1937.75 899.49 1935.47L913.05 1927.62C916.937 1925.38 921.975 1926.6 924.284 1930.39Z" stroke="#000000" stroke-width="3.4375" stroke-miterlimit="8" fill="#D6DBD9" fill-rule="evenodd"/><path d="M900.284 1889.4 908.348 1902.6C910.657 1906.38 909.387 1911.25 905.511 1913.53L891.95 1921.38C888.063 1923.63 883.057 1922.39 880.716 1918.62L872.652 1905.42C870.343 1901.63 871.613 1896.76 875.49 1894.48L889.05 1886.63C892.926 1884.36 897.975 1885.62 900.284 1889.4Z" stroke="#000000" stroke-width="3.4375" stroke-miterlimit="8" fill="#D6DBD9" fill-rule="evenodd"/><path d="M875.526 1849.39 883.378 1862.59C885.627 1866.38 884.39 1871.25 880.616 1873.53L867.412 1881.38C863.628 1883.63 858.753 1882.39 856.474 1878.62L848.622 1865.41C846.374 1861.63 847.61 1856.76 851.384 1854.48L864.588 1846.63C868.407 1844.37 873.278 1845.61 875.526 1849.39Z" stroke="#000000" stroke-width="3.4375" stroke-miterlimit="8" fill="#D6DBD9" fill-rule="evenodd"/><path d="M850.526 1806.5 858.378 1820.06C860.626 1823.95 859.39 1828.95 855.616 1831.29L842.412 1839.35C838.628 1841.66 833.753 1840.39 831.474 1836.51L823.622 1822.96C821.374 1819.07 822.61 1814.07 826.385 1811.73L839.588 1803.67C843.363 1801.33 848.278 1802.62 850.526 1806.5Z" stroke="#000000" stroke-width="3.4375" stroke-miterlimit="8" fill="#D6DBD9" fill-rule="evenodd"/><path d="M825.527 1765.4 833.379 1778.6C835.627 1782.38 834.39 1787.25 830.616 1789.53L817.412 1797.38C813.628 1799.63 808.753 1798.39 806.474 1794.62L798.622 1781.42C796.374 1777.64 797.61 1772.76 801.385 1770.48L814.588 1762.64C818.363 1760.36 823.278 1761.61 825.527 1765.4Z" stroke="#000000" stroke-width="3.4375" stroke-miterlimit="8" fill="#D6DBD9" fill-rule="evenodd"/><path d="M801.526 1731.51 809.379 1745.06C811.627 1748.95 810.39 1753.95 806.616 1756.29L793.412 1764.35C789.628 1766.66 784.753 1765.39 782.474 1761.51L774.622 1747.96C772.374 1744.07 773.61 1739.07 777.385 1736.73L790.588 1728.68C794.393 1726.32 799.278 1727.62 801.526 1731.51Z" stroke="#000000" stroke-width="3.4375" stroke-miterlimit="8" fill="#D6DBD9" fill-rule="evenodd"/><path d="M776.526 1689.51 784.378 1703.06C786.627 1706.95 785.39 1711.95 781.616 1714.29L768.412 1722.35C764.628 1724.66 759.753 1723.39 757.474 1719.51L749.622 1705.96C747.374 1702.07 748.61 1697.07 752.384 1694.73L765.588 1686.68C769.393 1684.32 774.278 1685.62 776.526 1689.51Z" stroke="#000000" stroke-width="3.4375" stroke-miterlimit="8" fill="#D6DBD9" fill-rule="evenodd"/><path d="M753.527 1650.49 761.378 1664.05C763.627 1667.94 762.39 1672.95 758.616 1675.29L745.412 1683.35C741.628 1685.66 736.753 1684.39 734.474 1680.51L726.622 1666.96C724.374 1663.07 725.61 1658.06 729.385 1655.72L742.588 1647.66C746.404 1645.34 751.278 1646.61 753.527 1650.49Z" stroke="#000000" stroke-width="3.4375" stroke-miterlimit="8" fill="#D6DBD9" fill-rule="evenodd"/><path d="M729.284 1609.39 737.348 1622.59C739.657 1626.38 738.387 1631.25 734.511 1633.53L720.95 1641.38C717.063 1643.63 712.057 1642.39 709.716 1638.62L701.652 1625.41C699.343 1621.63 700.613 1616.75 704.49 1614.47L718.05 1606.62C721.937 1604.38 726.975 1605.6 729.284 1609.39Z" stroke="#000000" stroke-width="3.4375" stroke-miterlimit="8" fill="#D6DBD9" fill-rule="evenodd"/><path d="M997.671 2053.45 1038.37 2122.36C1040.63 2126.19 1039.39 2131.12 1035.6 2133.43L1022.32 2141.37C1018.52 2143.64 1013.62 2142.39 1011.33 2138.57L970.628 2069.66C968.368 2065.83 969.611 2060.9 973.405 2058.59L986.676 2050.65C990.47 2048.35 995.411 2049.62 997.671 2053.45Z" stroke="#000000" stroke-width="3.4375" stroke-miterlimit="8" fill="#D6DBD9" fill-rule="evenodd"/><path d="M1003.53 1969.39 1011.38 1982.59C1013.63 1986.37 1012.39 1991.25 1008.62 1993.53L995.412 2001.38C991.628 2003.63 986.753 2002.39 984.474 1998.62L976.622 1985.41C974.374 1981.63 975.61 1976.75 979.385 1974.48L992.588 1966.63C996.376 1964.38 1001.28 1965.6 1003.53 1969.39Z" stroke="#000000" stroke-width="3.4375" stroke-miterlimit="8" fill="#D6DBD9" fill-rule="evenodd"/><path d="M974.526 2016.4 982.378 2029.6C984.627 2033.38 983.39 2038.25 979.616 2040.53L966.412 2048.38C962.628 2050.63 957.753 2049.39 955.474 2045.62L947.622 2032.42C945.374 2028.63 946.61 2023.76 950.384 2021.48L963.588 2013.63C967.363 2011.36 972.278 2012.62 974.526 2016.4Z" stroke="#000000" stroke-width="3.4375" stroke-miterlimit="8" fill="#D6DBD9" fill-rule="evenodd"/><path d="M697.797 1553.43 717.368 1586.39C719.637 1590.22 718.389 1595.14 714.578 1597.44L701.247 1605.37C697.426 1607.64 692.504 1606.39 690.203 1602.58L670.633 1569.61C668.363 1565.79 669.611 1560.87 673.422 1558.57L686.753 1550.64C690.609 1548.36 695.527 1549.61 697.797 1553.43L697.797 1553.43Z" stroke="#000000" stroke-width="3.4375" stroke-miterlimit="8" fill="#D6DBD9" fill-rule="evenodd"/><path d="M1026.75 2011.42 1078.37 2098.4C1080.64 2102.22 1079.39 2107.14 1075.58 2109.44L1062.28 2117.37C1058.46 2119.64 1053.55 2118.39 1051.25 2114.58L999.631 2027.6C997.365 2023.78 998.611 2018.86 1002.42 2016.56L1015.72 2008.64C1019.54 2006.37 1024.48 2007.6 1026.75 2011.42Z" stroke="#000000" stroke-width="3.4375" stroke-miterlimit="8" fill="#D6DBD9" fill-rule="evenodd"/><path d="M977.527 1928.4 985.379 1941.6C987.627 1945.38 986.39 1950.26 982.616 1952.53L969.412 1960.38C965.628 1962.63 960.753 1961.39 958.474 1957.62L950.622 1944.42C948.374 1940.63 949.61 1935.76 953.385 1933.48L966.588 1925.64C970.363 1923.36 975.278 1924.62 977.527 1928.4Z" stroke="#000000" stroke-width="3.4375" stroke-miterlimit="8" fill="#D6DBD9" fill-rule="evenodd"/><path d="M950.526 1882.41 958.378 1895.6C960.626 1899.38 959.39 1904.26 955.616 1906.53L942.412 1914.38C938.628 1916.63 933.753 1915.39 931.474 1911.62L923.622 1898.42C921.374 1894.64 922.61 1889.76 926.385 1887.49L939.588 1879.64C943.393 1877.36 948.278 1878.62 950.526 1882.41Z" stroke="#000000" stroke-width="3.4375" stroke-miterlimit="8" fill="#D6DBD9" fill-rule="evenodd"/><path d="M926.284 1841.51 934.348 1855.06C936.657 1858.94 935.387 1863.95 931.511 1866.29L917.95 1874.35C914.063 1876.66 909.057 1875.39 906.717 1871.51L898.652 1857.96C896.343 1854.07 897.613 1849.07 901.49 1846.73L915.05 1838.67C918.961 1836.32 923.975 1837.62 926.284 1841.51Z" stroke="#000000" stroke-width="3.4375" stroke-miterlimit="8" fill="#D6DBD9" fill-rule="evenodd"/><path d="M901.526 1801.38 909.379 1814.59C911.627 1818.37 910.39 1823.25 906.616 1825.53L893.412 1833.38C889.628 1835.63 884.753 1834.39 882.474 1830.62L874.622 1817.42C872.374 1813.63 873.61 1808.76 877.385 1806.48L890.588 1798.63C894.373 1796.38 899.278 1797.6 901.526 1801.38Z" stroke="#000000" stroke-width="3.4375" stroke-miterlimit="8" fill="#D6DBD9" fill-rule="evenodd"/><path d="M876.526 1759.4 884.378 1772.6C886.627 1776.38 885.39 1781.25 881.616 1783.53L868.412 1791.38C864.628 1793.63 859.753 1792.39 857.474 1788.62L849.622 1775.42C847.374 1771.63 848.61 1766.76 852.385 1764.48L865.588 1756.64C869.363 1754.36 874.247 1755.62 876.526 1759.4Z" stroke="#000000" stroke-width="3.4375" stroke-miterlimit="8" fill="#D6DBD9" fill-rule="evenodd"/><path d="M851.526 1717.39 859.378 1730.59C861.626 1734.38 860.39 1739.25 856.616 1741.53L843.412 1749.38C839.628 1751.63 834.753 1750.39 832.474 1746.62L824.622 1733.42C822.374 1729.63 823.61 1724.76 827.385 1722.48L840.588 1714.63C844.407 1712.37 849.278 1713.6 851.526 1717.39Z" stroke="#000000" stroke-width="3.4375" stroke-miterlimit="8" fill="#D6DBD9" fill-rule="evenodd"/><path d="M828.284 1684.4 836.348 1697.6C838.657 1701.38 837.387 1706.25 833.511 1708.53L819.95 1716.38C816.063 1718.63 811.057 1717.39 808.716 1713.62L800.652 1700.42C798.343 1696.64 799.613 1691.77 803.49 1689.49L817.05 1681.64C820.958 1679.35 825.975 1680.62 828.284 1684.4Z" stroke="#000000" stroke-width="3.4375" stroke-miterlimit="8" fill="#D6DBD9" fill-rule="evenodd"/><path d="M803.284 1642.4 811.348 1655.6C813.657 1659.38 812.387 1664.25 808.511 1666.53L794.95 1674.38C791.064 1676.63 786.057 1675.39 783.716 1671.62L775.652 1658.42C773.343 1654.64 774.613 1649.76 778.49 1647.49L792.05 1639.64C795.926 1637.36 800.975 1638.61 803.284 1642.4Z" stroke="#000000" stroke-width="3.4375" stroke-miterlimit="8" fill="#D6DBD9" fill-rule="evenodd"/><path d="M779.527 1603.39 787.379 1616.59C789.627 1620.38 788.39 1625.25 784.616 1627.53L771.412 1635.38C767.628 1637.63 762.753 1636.39 760.474 1632.62L752.622 1619.41C750.374 1615.63 751.61 1610.75 755.385 1608.47L768.588 1600.62C772.376 1598.38 777.278 1599.6 779.527 1603.39Z" stroke="#000000" stroke-width="3.4375" stroke-miterlimit="8" fill="#D6DBD9" fill-rule="evenodd"/><path d="M729.79 1527.46 760.367 1579.26C762.637 1583.11 761.389 1588.06 757.579 1590.38L744.252 1598.36C740.431 1600.64 735.511 1599.39 733.211 1595.55L702.633 1543.74C700.363 1539.9 701.611 1534.94 705.421 1532.63L718.749 1524.65C722.603 1522.35 727.52 1523.61 729.79 1527.46Z" stroke="#000000" stroke-width="3.4375" stroke-miterlimit="8" fill="#D6DBD9" fill-rule="evenodd"/><path d="M1110.53 2066.51 1118.38 2080.06C1120.63 2083.95 1119.39 2088.95 1115.62 2091.29L1102.41 2099.35C1098.63 2101.66 1093.75 2100.39 1091.47 2096.51L1083.62 2082.97C1081.37 2079.08 1082.61 2074.08 1086.39 2071.74L1099.59 2063.68C1103.39 2061.33 1108.26 2062.6 1110.53 2066.51Z" stroke="#000000" stroke-width="3.4375" stroke-miterlimit="8" fill="#D6DBD9" fill-rule="evenodd"/><path d="M1087.53 2028.39 1095.38 2041.59C1097.63 2045.38 1096.39 2050.25 1092.62 2052.53L1079.41 2060.38C1075.63 2062.63 1070.75 2061.39 1068.47 2057.62L1060.62 2044.42C1058.37 2040.63 1059.61 2035.76 1063.38 2033.48L1076.59 2025.63C1080.41 2023.37 1085.28 2024.61 1087.53 2028.39Z" stroke="#000000" stroke-width="3.4375" stroke-miterlimit="8" fill="#D6DBD9" fill-rule="evenodd"/><path d="M1062.53 1986.4 1070.38 1999.6C1072.63 2003.38 1071.39 2008.25 1067.62 2010.53L1054.41 2018.38C1050.63 2020.63 1045.75 2019.39 1043.47 2015.62L1035.62 2002.42C1033.37 1998.63 1034.61 1993.76 1038.38 1991.48L1051.59 1983.64C1055.36 1981.36 1060.28 1982.61 1062.53 1986.4Z" stroke="#000000" stroke-width="3.4375" stroke-miterlimit="8" fill="#D6DBD9" fill-rule="evenodd"/><path d="M1039.53 1947.38 1047.38 1960.59C1049.63 1964.37 1048.39 1969.25 1044.62 1971.53L1031.41 1979.38C1027.63 1981.63 1022.75 1980.39 1020.47 1976.62L1012.62 1963.42C1010.37 1959.63 1011.61 1954.76 1015.38 1952.48L1028.59 1944.63C1032.37 1942.38 1037.28 1943.6 1039.53 1947.38Z" stroke="#000000" stroke-width="3.4375" stroke-miterlimit="8" fill="#D6DBD9" fill-rule="evenodd"/><path d="M1012.53 1900.39 1020.38 1913.59C1022.63 1917.38 1021.39 1922.25 1017.62 1924.53L1004.41 1932.38C1000.63 1934.63 995.753 1933.39 993.474 1929.62L985.622 1916.41C983.374 1912.63 984.61 1907.75 988.385 1905.47L1001.59 1897.62C1005.37 1895.38 1010.28 1896.6 1012.53 1900.39Z" stroke="#000000" stroke-width="3.4375" stroke-miterlimit="8" fill="#D6DBD9" fill-rule="evenodd"/><path d="M916.964 1741.45 996.361 1874.38C998.644 1878.2 997.388 1883.13 993.555 1885.43L980.145 1893.37C976.301 1895.64 971.351 1894.39 969.036 1890.57L889.64 1757.64C887.356 1753.82 888.612 1748.89 892.445 1746.59L905.855 1738.65C909.72 1736.34 914.681 1737.62 916.964 1741.45Z" stroke="#000000" stroke-width="3.4375" stroke-miterlimit="8" fill="#D6DBD9" fill-rule="evenodd"/><path d="M894.284 1702.39 902.348 1715.59C904.657 1719.37 903.387 1724.25 899.511 1726.53L885.95 1734.38C882.063 1736.63 877.057 1735.39 874.716 1731.62L866.652 1718.41C864.343 1714.63 865.613 1709.75 869.49 1707.47L883.05 1699.62C886.937 1697.38 891.975 1698.6 894.284 1702.39Z" stroke="#000000" stroke-width="3.4375" stroke-miterlimit="8" fill="#D6DBD9" fill-rule="evenodd"/><path d="M869.527 1660.5 877.379 1674.06C879.627 1677.94 878.39 1682.95 874.616 1685.29L861.412 1693.35C857.628 1695.66 852.753 1694.39 850.474 1690.51L842.622 1676.96C840.374 1673.08 841.61 1668.07 845.385 1665.73L858.588 1657.67C862.363 1655.33 867.282 1656.62 869.527 1660.5Z" stroke="#000000" stroke-width="3.4375" stroke-miterlimit="8" fill="#D6DBD9" fill-rule="evenodd"/><path d="M846.284 1621.49 854.348 1635.05C856.657 1638.94 855.387 1643.94 851.511 1646.29L837.95 1654.35C834.064 1656.66 829.057 1655.39 826.716 1651.51L818.652 1637.95C816.343 1634.06 817.613 1629.05 821.49 1626.71L835.05 1618.65C838.937 1616.35 843.943 1617.61 846.284 1621.49Z" stroke="#000000" stroke-width="3.4375" stroke-miterlimit="8" fill="#D6DBD9" fill-rule="evenodd"/><path d="M825.527 1585.5 833.379 1599.06C835.627 1602.94 834.39 1607.95 830.616 1610.29L817.412 1618.35C813.628 1620.66 808.753 1619.39 806.474 1615.51L798.622 1601.96C796.374 1598.07 797.61 1593.07 801.385 1590.73L814.588 1582.67C818.363 1580.33 823.278 1581.62 825.527 1585.5Z" stroke="#000000" stroke-width="3.4375" stroke-miterlimit="8" fill="#D6DBD9" fill-rule="evenodd"/><path d="M798.526 1544.51 806.378 1558.06C808.627 1561.95 807.39 1566.95 803.616 1569.29L790.412 1577.35C786.628 1579.66 781.753 1578.39 779.474 1574.51L771.622 1560.96C769.374 1557.07 770.61 1552.07 774.384 1549.73L787.588 1541.68C791.393 1539.32 796.278 1540.62 798.526 1544.51Z" stroke="#000000" stroke-width="3.4375" stroke-miterlimit="8" fill="#D6DBD9" fill-rule="evenodd"/><path d="M773.526 1503.39 781.378 1516.59C783.626 1520.38 782.39 1525.25 778.616 1527.53L765.412 1535.38C761.628 1537.63 756.753 1536.39 754.474 1532.62L746.622 1519.41C744.374 1515.63 745.61 1510.76 749.385 1508.48L762.588 1500.63C766.407 1498.37 771.278 1499.61 773.526 1503.39Z" stroke="#000000" stroke-width="3.4375" stroke-miterlimit="8" fill="#D6DBD9" fill-rule="evenodd"/><path d="M616.526 1504.5 624.379 1518.06C626.627 1521.94 625.39 1526.95 621.616 1529.29L608.412 1537.35C604.628 1539.66 599.753 1538.39 597.474 1534.51L589.622 1520.96C587.374 1517.07 588.61 1512.07 592.385 1509.73L605.588 1501.67C609.362 1499.33 614.244 1500.63 616.526 1504.5Z" stroke="#000000" stroke-width="3.4375" stroke-miterlimit="8" fill="#D6DBD9" fill-rule="evenodd"/><path d="M569.526 1425.4 577.378 1438.6C579.627 1442.38 578.39 1447.25 574.616 1449.53L561.412 1457.38C557.628 1459.63 552.753 1458.39 550.474 1454.62L542.622 1441.42C540.374 1437.63 541.61 1432.76 545.385 1430.48L558.588 1422.64C562.362 1420.36 567.278 1421.61 569.526 1425.4Z" stroke="#000000" stroke-width="3.4375" stroke-miterlimit="8" fill="#D6DBD9" fill-rule="evenodd"/><path d="M593.527 1465.39 601.379 1478.59C603.627 1482.38 602.39 1487.25 598.616 1489.53L585.412 1497.38C581.628 1499.63 576.753 1498.39 574.474 1494.62L566.622 1481.41C564.374 1477.63 565.61 1472.75 569.385 1470.47L582.588 1462.63C586.373 1460.38 591.278 1461.6 593.527 1465.39Z" stroke="#000000" stroke-width="3.4375" stroke-miterlimit="8" fill="#D6DBD9" fill-rule="evenodd"/><path d="M655.284 1482.39 663.348 1495.59C665.657 1499.38 664.387 1504.25 660.511 1506.53L646.95 1514.38C643.064 1516.63 638.057 1515.39 635.716 1511.62L627.652 1498.41C625.344 1494.63 626.613 1489.75 630.49 1487.47L644.05 1479.62C647.941 1477.38 652.979 1478.6 655.284 1482.39Z" stroke="#000000" stroke-width="3.4375" stroke-miterlimit="8" fill="#D6DBD9" fill-rule="evenodd"/><path d="M630.526 1443.39 638.378 1456.59C640.626 1460.37 639.39 1465.25 635.616 1467.53L622.412 1475.38C618.628 1477.63 613.753 1476.39 611.474 1472.62L603.622 1459.41C601.374 1455.63 602.61 1450.75 606.385 1448.47L619.588 1440.62C623.376 1438.38 628.278 1439.6 630.526 1443.39Z" stroke="#000000" stroke-width="3.4375" stroke-miterlimit="8" fill="#D6DBD9" fill-rule="evenodd"/><path d="M606.527 1402.51 614.379 1416.06C616.627 1419.95 615.39 1424.95 611.616 1427.29L598.412 1435.35C594.628 1437.66 589.753 1436.39 587.474 1432.51L579.622 1418.96C577.374 1415.07 578.61 1410.07 582.385 1407.73L595.588 1399.67C599.393 1397.32 604.278 1398.62 606.527 1402.51Z" stroke="#000000" stroke-width="3.4375" stroke-miterlimit="8" fill="#D6DBD9" fill-rule="evenodd"/><path d="M693.284 1459.39 701.348 1472.59C703.657 1476.38 702.387 1481.25 698.511 1483.53L684.95 1491.38C681.064 1493.63 676.057 1492.39 673.716 1488.62L665.652 1475.41C663.343 1471.63 664.613 1466.76 668.49 1464.48L682.05 1456.63C685.972 1454.37 690.975 1455.61 693.284 1459.39Z" stroke="#000000" stroke-width="3.4375" stroke-miterlimit="8" fill="#D6DBD9" fill-rule="evenodd"/><path d="M666.283 1422.4 674.348 1435.6C676.657 1439.38 675.387 1444.26 671.51 1446.53L657.952 1454.38C654.065 1456.63 649.058 1455.39 646.717 1451.62L638.653 1438.42C636.343 1434.64 637.613 1429.77 641.49 1427.49L655.052 1419.64C658.96 1417.35 663.974 1418.62 666.283 1422.4Z" stroke="#000000" stroke-width="3.4375" stroke-miterlimit="8" fill="#D6DBD9" fill-rule="evenodd"/><path d="M642.284 1379.5 650.348 1393.06C652.657 1396.94 651.387 1401.95 647.511 1404.29L633.95 1412.35C630.064 1414.66 625.057 1413.39 622.716 1409.51L614.652 1395.96C612.344 1392.07 613.613 1387.07 617.49 1384.73L631.05 1376.67C634.926 1374.33 639.975 1375.62 642.284 1379.5Z" stroke="#000000" stroke-width="3.4375" stroke-miterlimit="8" fill="#D6DBD9" fill-rule="evenodd"/><path d="M700.608 1390.46 736.375 1451.31C738.63 1455.15 737.39 1460.09 733.604 1462.4L720.362 1470.36C716.566 1472.64 711.678 1471.39 709.392 1467.56L673.625 1406.71C671.37 1402.87 672.61 1397.93 676.396 1395.62L689.638 1387.66C693.458 1385.34 698.353 1386.62 700.608 1390.46L700.608 1390.46Z" stroke="#000000" stroke-width="3.4375" stroke-miterlimit="8" fill="#D6DBD9" fill-rule="evenodd"/><path d="M680.284 1357.4 688.348 1370.6C690.657 1374.38 689.387 1379.25 685.511 1381.53L671.95 1389.38C668.063 1391.63 663.057 1390.39 660.716 1386.62L652.652 1373.42C650.343 1369.63 651.613 1364.76 655.49 1362.48L669.05 1354.64C672.926 1352.36 677.975 1353.62 680.284 1357.4Z" stroke="#000000" stroke-width="3.4375" stroke-miterlimit="8" fill="#D6DBD9" fill-rule="evenodd"/></g></svg>