<svg width="998" height="766" xmlns="http://www.w3.org/2000/svg" xmlns:xlink="http://www.w3.org/1999/xlink" xml:space="preserve" overflow="hidden"><g transform="translate(-1801 -153)"><path d="M1827.37 634.456 2612.36 168.064C2627.8 158.898 2647.73 163.976 2656.88 179.378L2783.94 393.048C2793.1 408.481 2788.02 428.404 2772.62 437.555L1987.65 903.937C1972.22 913.102 1952.29 908.025 1943.13 892.623L1816.08 678.952C1806.89 663.564 1811.96 643.611 1827.37 634.456L1827.37 634.456Z" stroke="#000000" stroke-width="20.625" stroke-miterlimit="8" fill="#A6A897" fill-rule="evenodd"/><path d="M2524.41 496.439 2549.48 481.623C2553.28 479.372 2558.19 480.61 2560.48 484.389L2568.37 497.609C2570.63 501.398 2569.39 506.279 2565.59 508.561L2540.53 523.377C2536.72 525.628 2531.82 524.39 2529.53 520.611L2521.64 507.391C2519.36 503.571 2520.6 498.69 2524.41 496.439Z" stroke="#000000" stroke-width="3.4375" stroke-miterlimit="8" fill="#D6DBD9" fill-rule="evenodd"/><path d="M2404.49 567.439 2430.07 552.623C2433.95 550.372 2438.95 551.61 2441.29 555.389L2449.35 568.609C2451.66 572.398 2450.39 577.279 2446.51 579.561L2420.94 594.377C2417.05 596.628 2412.05 595.39 2409.71 591.611L2401.65 578.391C2399.35 574.602 2400.6 569.69 2404.49 567.439Z" stroke="#000000" stroke-width="3.4375" stroke-miterlimit="8" fill="#D6DBD9" fill-rule="evenodd"/><path d="M2685.42 400.802 2710.48 385.649C2714.28 383.347 2719.19 384.613 2721.48 388.478L2729.37 401.998C2731.63 405.873 2730.39 410.865 2726.59 413.199L2701.54 428.351C2697.73 430.653 2692.83 429.387 2690.54 425.522L2682.65 412.002C2680.35 408.137 2681.61 403.1 2685.42 400.802Z" stroke="#000000" stroke-width="3.4375" stroke-miterlimit="8" fill="#D6DBD9" fill-rule="evenodd"/><path d="M2632.43 432.44 2657.48 417.623C2661.29 415.373 2666.19 416.61 2668.48 420.39L2676.37 433.609C2678.63 437.398 2677.39 442.279 2673.59 444.561L2648.54 459.377C2644.73 461.628 2639.83 460.39 2637.54 456.611L2629.65 443.391C2627.35 439.578 2628.62 434.69 2632.43 432.44Z" stroke="#000000" stroke-width="3.4375" stroke-miterlimit="8" fill="#D6DBD9" fill-rule="evenodd"/><path d="M2195.5 691.803 2221.07 676.649C2224.95 674.346 2229.96 675.613 2232.3 679.478L2240.35 692.996C2242.66 696.872 2241.39 701.864 2237.51 704.197L2211.94 719.351C2208.06 721.654 2203.06 720.387 2200.72 716.522L2192.67 703.001C2190.33 699.139 2191.63 694.137 2195.5 691.803Z" stroke="#000000" stroke-width="3.4375" stroke-miterlimit="8" fill="#D6DBD9" fill-rule="evenodd"/><path d="M2577.42 464.802 2602.48 449.649C2606.28 447.347 2611.19 448.613 2613.48 452.478L2621.37 465.998C2623.63 469.873 2622.39 474.865 2618.59 477.199L2593.54 492.351C2589.73 494.654 2584.83 493.387 2582.54 489.522L2574.65 476.002C2572.35 472.137 2573.62 467.104 2577.42 464.802Z" stroke="#000000" stroke-width="3.4375" stroke-miterlimit="8" fill="#D6DBD9" fill-rule="evenodd"/><path d="M2351.41 599.439 2376.47 584.623C2380.28 582.372 2385.18 583.61 2387.47 587.389L2395.37 600.609C2397.63 604.398 2396.39 609.279 2392.59 611.56L2367.53 626.377C2363.72 628.628 2358.82 627.39 2356.53 623.61L2348.63 610.391C2346.37 606.598 2347.6 601.69 2351.41 599.439Z" stroke="#000000" stroke-width="3.4375" stroke-miterlimit="8" fill="#D6DBD9" fill-rule="evenodd"/><path d="M2299.41 630.44 2324.48 615.623C2328.28 613.372 2333.19 614.61 2335.48 618.39L2343.37 631.609C2345.63 635.398 2344.39 640.279 2340.59 642.561L2315.53 657.377C2311.72 659.628 2306.82 658.39 2304.53 654.611L2296.64 641.391C2294.36 637.571 2295.6 632.69 2299.41 630.44Z" stroke="#000000" stroke-width="3.4375" stroke-miterlimit="8" fill="#D6DBD9" fill-rule="evenodd"/><path d="M2247.42 660.802 2272.48 645.649C2276.28 643.346 2281.19 644.613 2283.48 648.478L2291.37 661.998C2293.63 665.873 2292.39 670.865 2288.59 673.199L2263.54 688.351C2259.73 690.654 2254.83 689.387 2252.54 685.522L2244.65 672.002C2242.35 668.137 2243.61 663.104 2247.42 660.802Z" stroke="#000000" stroke-width="3.4375" stroke-miterlimit="8" fill="#D6DBD9" fill-rule="evenodd"/><path d="M2464.43 532.44 2489.48 517.623C2493.29 515.373 2498.19 516.61 2500.48 520.39L2508.37 533.609C2510.63 537.399 2509.39 542.279 2505.59 544.561L2480.54 559.377C2476.73 561.628 2471.83 560.39 2469.54 556.611L2461.65 543.391C2459.35 539.578 2460.62 534.69 2464.43 532.44Z" stroke="#000000" stroke-width="3.4375" stroke-miterlimit="8" fill="#D6DBD9" fill-rule="evenodd"/><path d="M2137.42 729.44 2162.48 714.623C2166.29 712.373 2171.19 713.61 2173.48 717.39L2181.37 730.609C2183.63 734.398 2182.39 739.279 2178.59 741.561L2153.54 756.377C2149.73 758.628 2144.83 757.39 2142.54 753.611L2134.64 740.391C2132.35 736.612 2133.62 731.69 2137.42 729.44Z" stroke="#000000" stroke-width="3.4375" stroke-miterlimit="8" fill="#D6DBD9" fill-rule="evenodd"/><path d="M2637.48 376.136 2689.2 345.635C2693.06 343.36 2698.03 344.611 2700.35 348.431L2708.36 361.794C2710.65 365.624 2709.39 370.558 2705.54 372.864L2653.82 403.365C2649.96 405.64 2644.99 404.389 2642.67 400.569L2634.66 387.206C2632.33 383.355 2633.62 378.412 2637.48 376.136Z" stroke="#000000" stroke-width="3.4375" stroke-miterlimit="8" fill="#D6DBD9" fill-rule="evenodd"/><path d="M2594.39 402.474 2607.59 394.622C2611.38 392.374 2616.25 393.61 2618.53 397.385L2626.38 410.588C2628.63 414.373 2627.39 419.248 2623.62 421.526L2610.42 429.378C2606.63 431.626 2601.76 430.39 2599.48 426.616L2591.63 413.412C2589.37 409.594 2590.61 404.722 2594.39 402.474Z" stroke="#000000" stroke-width="3.4375" stroke-miterlimit="8" fill="#D6DBD9" fill-rule="evenodd"/><path d="M2555.5 425.474 2569.06 417.622C2572.94 415.374 2577.95 416.61 2580.29 420.385L2588.35 433.588C2590.66 437.373 2589.39 442.247 2585.51 444.526L2571.96 452.378C2568.07 454.626 2563.07 453.39 2560.73 449.616L2552.67 436.412C2550.33 432.638 2551.62 427.722 2555.5 425.474Z" stroke="#000000" stroke-width="3.4375" stroke-miterlimit="8" fill="#D6DBD9" fill-rule="evenodd"/><path d="M2514.4 450.474 2527.6 442.622C2531.38 440.374 2536.26 441.61 2538.53 445.385L2546.38 458.588C2548.63 462.373 2547.39 467.247 2543.62 469.527L2530.42 477.378C2526.64 479.627 2521.76 478.39 2519.48 474.616L2511.64 461.412C2509.36 457.638 2510.62 452.722 2514.4 450.474Z" stroke="#000000" stroke-width="3.4375" stroke-miterlimit="8" fill="#D6DBD9" fill-rule="evenodd"/><path d="M2475.39 473.474 2488.59 465.622C2492.38 463.373 2497.25 464.61 2499.53 468.385L2507.38 481.588C2509.63 485.373 2508.39 490.248 2504.62 492.527L2491.41 500.378C2487.63 502.627 2482.76 501.39 2480.48 497.616L2472.63 484.412C2470.37 480.594 2471.61 475.722 2475.39 473.474L2475.39 473.474Z" stroke="#000000" stroke-width="3.4375" stroke-miterlimit="8" fill="#D6DBD9" fill-rule="evenodd"/><path d="M2428.4 500.474 2441.6 492.622C2445.38 490.374 2450.25 491.61 2452.53 495.385L2460.38 508.588C2462.63 512.373 2461.39 517.247 2457.62 519.526L2444.42 527.378C2440.63 529.626 2435.76 528.39 2433.48 524.616L2425.64 511.412C2423.36 507.638 2424.62 502.722 2428.4 500.474Z" stroke="#000000" stroke-width="3.4375" stroke-miterlimit="8" fill="#D6DBD9" fill-rule="evenodd"/><path d="M2389.4 523.474 2402.6 515.622C2406.38 513.374 2411.26 514.61 2413.53 518.385L2421.38 531.588C2423.63 535.373 2422.39 540.247 2418.62 542.526L2405.42 550.378C2401.64 552.626 2396.76 551.39 2394.49 547.616L2386.64 534.412C2384.35 530.604 2385.62 525.722 2389.4 523.474Z" stroke="#000000" stroke-width="3.4375" stroke-miterlimit="8" fill="#D6DBD9" fill-rule="evenodd"/><path d="M2347.5 548.474 2361.06 540.622C2364.94 538.373 2369.95 539.61 2372.29 543.384L2380.35 556.588C2382.66 560.373 2381.39 565.247 2377.51 567.526L2363.95 575.378C2360.06 577.627 2355.06 576.39 2352.72 572.616L2344.66 559.412C2342.34 555.593 2343.61 550.722 2347.5 548.474Z" stroke="#000000" stroke-width="3.4375" stroke-miterlimit="8" fill="#D6DBD9" fill-rule="evenodd"/><path d="M2311.39 570.474 2324.59 562.622C2328.37 560.373 2333.25 561.61 2335.53 565.384L2343.38 578.588C2345.63 582.373 2344.39 587.248 2340.62 589.526L2327.41 597.378C2323.63 599.627 2318.75 598.39 2316.47 594.616L2308.62 581.415C2306.38 577.624 2307.6 572.722 2311.39 570.474Z" stroke="#000000" stroke-width="3.4375" stroke-miterlimit="8" fill="#D6DBD9" fill-rule="evenodd"/><path d="M2268.49 595.474 2282.05 587.622C2285.94 585.373 2290.94 586.61 2293.28 590.385L2301.35 603.588C2303.66 607.373 2302.39 612.248 2298.51 614.527L2284.95 622.379C2281.06 624.627 2276.06 623.39 2273.72 619.616L2265.66 606.412C2263.35 602.624 2264.6 597.722 2268.49 595.474Z" stroke="#000000" stroke-width="3.4375" stroke-miterlimit="8" fill="#D6DBD9" fill-rule="evenodd"/><path d="M2230.4 618.717 2243.6 610.652C2247.38 608.343 2252.26 609.613 2254.53 613.49L2262.38 627.05C2264.63 630.937 2263.39 635.943 2259.62 638.284L2246.42 646.348C2242.64 648.657 2237.76 647.387 2235.48 643.511L2227.64 629.95C2225.36 626.074 2226.61 621.026 2230.4 618.717Z" stroke="#000000" stroke-width="3.4375" stroke-miterlimit="8" fill="#D6DBD9" fill-rule="evenodd"/><path d="M2188.4 643.474 2201.6 635.622C2205.38 633.374 2210.26 634.61 2212.53 638.385L2220.38 651.588C2222.63 655.373 2221.39 660.248 2217.62 662.526L2204.42 670.378C2200.64 672.626 2195.77 671.39 2193.49 667.616L2185.64 654.412C2183.35 650.607 2184.62 645.722 2188.4 643.474Z" stroke="#000000" stroke-width="3.4375" stroke-miterlimit="8" fill="#D6DBD9" fill-rule="evenodd"/><path d="M2149.49 666.474 2163.05 658.622C2166.94 656.374 2171.95 657.61 2174.29 661.385L2182.35 674.588C2184.66 678.373 2183.39 683.248 2179.51 685.526L2165.95 693.378C2162.07 695.626 2157.06 694.39 2154.72 690.616L2146.66 677.412C2144.34 673.594 2145.61 668.719 2149.49 666.474Z" stroke="#000000" stroke-width="3.4375" stroke-miterlimit="8" fill="#D6DBD9" fill-rule="evenodd"/><path d="M2113.4 687.474 2126.6 679.622C2130.38 677.374 2135.26 678.61 2137.53 682.385L2145.38 695.588C2147.63 699.373 2146.39 704.248 2142.62 706.526L2129.42 714.378C2125.64 716.626 2120.76 715.39 2118.49 711.616L2110.64 698.412C2108.35 694.607 2109.62 689.722 2113.4 687.474Z" stroke="#000000" stroke-width="3.4375" stroke-miterlimit="8" fill="#D6DBD9" fill-rule="evenodd"/><path d="M2516.39 394.717 2529.59 386.652C2533.38 384.343 2538.25 385.613 2540.53 389.49L2548.38 403.048C2550.63 406.935 2549.39 411.942 2545.62 414.283L2532.41 422.348C2528.63 424.657 2523.75 423.387 2521.47 419.51L2513.63 405.949C2511.38 402.065 2512.6 397.026 2516.39 394.717Z" stroke="#000000" stroke-width="3.4375" stroke-miterlimit="8" fill="#D6DBD9" fill-rule="evenodd"/><path d="M2472.39 420.474 2485.59 412.622C2489.37 410.374 2494.25 411.61 2496.53 415.385L2504.38 428.588C2506.63 432.373 2505.39 437.247 2501.62 439.527L2488.41 447.379C2484.63 449.627 2479.75 448.39 2477.47 444.616L2469.63 431.412C2467.38 427.624 2468.6 422.719 2472.39 420.474Z" stroke="#000000" stroke-width="3.4375" stroke-miterlimit="8" fill="#D6DBD9" fill-rule="evenodd"/><path d="M2432.4 444.474 2445.6 436.622C2449.38 434.373 2454.25 435.61 2456.53 439.385L2464.38 452.588C2466.63 456.373 2465.39 461.248 2461.62 463.526L2448.42 471.379C2444.63 473.627 2439.76 472.39 2437.48 468.616L2429.64 455.415C2427.36 451.638 2428.62 446.722 2432.4 444.474Z" stroke="#000000" stroke-width="3.4375" stroke-miterlimit="8" fill="#D6DBD9" fill-rule="evenodd"/><path d="M2391.39 468.716 2404.59 460.652C2408.38 458.343 2413.25 459.613 2415.53 463.49L2423.38 477.05C2425.63 480.937 2424.39 485.944 2420.62 488.284L2407.41 496.348C2403.63 498.657 2398.76 497.387 2396.48 493.511L2388.63 479.95C2386.37 476.029 2387.6 471.026 2391.39 468.716Z" stroke="#000000" stroke-width="3.4375" stroke-miterlimit="8" fill="#D6DBD9" fill-rule="evenodd"/><path d="M2349.4 493.716 2362.6 485.652C2366.38 483.343 2371.26 484.613 2373.53 488.49L2381.38 502.05C2383.63 505.937 2382.39 510.943 2378.62 513.284L2365.42 521.348C2361.64 523.657 2356.76 522.387 2354.48 518.511L2346.64 504.954C2344.36 501.074 2345.61 496.025 2349.4 493.716Z" stroke="#000000" stroke-width="3.4375" stroke-miterlimit="8" fill="#D6DBD9" fill-rule="evenodd"/><path d="M2307.5 518.475 2321.06 510.622C2324.95 508.374 2329.95 509.61 2332.29 513.385L2340.35 526.586C2342.66 530.371 2341.39 535.246 2337.51 537.525L2323.96 545.378C2320.07 547.627 2315.07 546.39 2312.73 542.615L2304.67 529.411C2302.33 525.639 2303.62 520.723 2307.5 518.475Z" stroke="#000000" stroke-width="3.4375" stroke-miterlimit="8" fill="#D6DBD9" fill-rule="evenodd"/><path d="M2274.4 542.474 2287.6 534.622C2291.38 532.374 2296.26 533.61 2298.53 537.385L2306.38 550.588C2308.63 554.373 2307.39 559.247 2303.62 561.527L2290.42 569.379C2286.64 571.627 2281.76 570.39 2279.49 566.616L2271.64 553.412C2269.35 549.607 2270.62 544.722 2274.4 542.474Z" stroke="#000000" stroke-width="3.4375" stroke-miterlimit="8" fill="#D6DBD9" fill-rule="evenodd"/><path d="M2232.4 567.474 2245.6 559.622C2249.38 557.374 2254.26 558.61 2256.53 562.385L2264.38 575.588C2266.63 579.373 2265.39 584.247 2261.62 586.526L2248.42 594.378C2244.64 596.626 2239.76 595.39 2237.49 591.616L2229.64 578.412C2227.35 574.607 2228.62 569.722 2232.4 567.474Z" stroke="#000000" stroke-width="3.4375" stroke-miterlimit="8" fill="#D6DBD9" fill-rule="evenodd"/><path d="M2193.39 590.474 2206.59 582.622C2210.38 580.374 2215.25 581.61 2217.53 585.385L2225.38 598.588C2227.63 602.373 2226.39 607.247 2222.62 609.526L2209.41 617.378C2205.63 619.626 2200.75 618.39 2198.48 614.616L2190.63 601.416C2188.37 597.594 2189.61 592.722 2193.39 590.474Z" stroke="#000000" stroke-width="3.4375" stroke-miterlimit="8" fill="#D6DBD9" fill-rule="evenodd"/><path d="M2151.49 615.474 2165.05 607.622C2168.94 605.374 2173.95 606.61 2176.29 610.385L2184.35 623.586C2186.66 627.371 2185.39 632.246 2181.51 634.525L2167.95 642.378C2164.06 644.627 2159.06 643.39 2156.72 639.615L2148.66 626.411C2146.35 622.625 2147.6 617.723 2151.49 615.474Z" stroke="#000000" stroke-width="3.4375" stroke-miterlimit="8" fill="#D6DBD9" fill-rule="evenodd"/><path d="M2596.45 346.329 2665.36 305.628C2669.19 303.368 2674.12 304.611 2676.42 308.405L2684.37 321.676C2686.64 325.48 2685.39 330.38 2681.57 332.671L2612.66 373.372C2608.83 375.632 2603.9 374.389 2601.59 370.596L2593.65 357.324C2591.35 353.53 2592.62 348.589 2596.45 346.329Z" stroke="#000000" stroke-width="3.4375" stroke-miterlimit="8" fill="#D6DBD9" fill-rule="evenodd"/><path d="M2511.39 340.716 2524.59 332.652C2528.38 330.343 2533.25 331.613 2535.53 335.49L2543.38 349.05C2545.63 352.937 2544.39 357.943 2540.62 360.284L2527.41 368.348C2523.63 370.657 2518.75 369.387 2516.47 365.511L2508.63 351.95C2506.38 348.06 2507.6 343.026 2511.39 340.716Z" stroke="#000000" stroke-width="3.4375" stroke-miterlimit="8" fill="#D6DBD9" fill-rule="evenodd"/><path d="M2558.4 369.716 2571.6 361.652C2575.38 359.343 2580.25 360.613 2582.53 364.49L2590.38 378.05C2592.63 381.937 2591.39 386.943 2587.62 389.284L2574.42 397.348C2570.63 399.657 2565.76 398.387 2563.48 394.511L2555.64 380.95C2553.36 377.074 2554.62 372.026 2558.4 369.716Z" stroke="#000000" stroke-width="3.4375" stroke-miterlimit="8" fill="#D6DBD9" fill-rule="evenodd"/><path d="M2095.43 647.203 2128.39 627.633C2132.22 625.363 2137.14 626.611 2139.44 630.422L2147.37 643.753C2149.64 647.574 2148.39 652.496 2144.58 654.797L2111.61 674.367C2107.79 676.637 2102.87 675.389 2100.57 671.578L2092.64 658.247C2090.36 654.395 2091.61 649.473 2095.43 647.203L2095.43 647.203Z" stroke="#000000" stroke-width="3.4375" stroke-miterlimit="8" fill="#D6DBD9" fill-rule="evenodd"/><path d="M2554.42 317.254 2641.4 265.631C2645.22 263.365 2650.14 264.611 2652.44 268.415L2660.37 281.722C2662.64 285.536 2661.39 290.449 2657.58 292.746L2570.6 344.369C2566.78 346.635 2561.86 345.389 2559.56 341.585L2551.64 328.278C2549.37 324.464 2550.6 319.52 2554.42 317.254Z" stroke="#000000" stroke-width="3.4375" stroke-miterlimit="8" fill="#D6DBD9" fill-rule="evenodd"/><path d="M2470.4 366.716 2483.6 358.652C2487.38 356.343 2492.25 357.613 2494.53 361.49L2502.38 375.05C2504.63 378.937 2503.39 383.943 2499.62 386.284L2486.42 394.348C2482.64 396.657 2477.76 395.387 2475.49 391.511L2467.64 377.95C2465.36 374.074 2466.61 369.022 2470.4 366.716Z" stroke="#000000" stroke-width="3.4375" stroke-miterlimit="8" fill="#D6DBD9" fill-rule="evenodd"/><path d="M2424.51 393.714 2438.06 385.652C2441.95 383.343 2446.95 384.613 2449.29 388.49L2457.35 402.048C2459.66 405.935 2458.39 410.942 2454.51 413.283L2440.96 421.348C2437.07 423.657 2432.07 422.387 2429.73 418.51L2421.67 404.948C2419.32 401.04 2420.62 396.023 2424.51 393.714Z" stroke="#000000" stroke-width="3.4375" stroke-miterlimit="8" fill="#D6DBD9" fill-rule="evenodd"/><path d="M2384.4 418.474 2397.6 410.622C2401.38 408.374 2406.26 409.61 2408.53 413.385L2416.38 426.588C2418.63 430.373 2417.39 435.247 2413.62 437.527L2400.42 445.378C2396.64 447.627 2391.76 446.39 2389.49 442.616L2381.64 429.412C2379.35 425.607 2380.62 420.722 2384.4 418.474Z" stroke="#000000" stroke-width="3.4375" stroke-miterlimit="8" fill="#D6DBD9" fill-rule="evenodd"/><path d="M2344.38 442.474 2357.59 434.622C2361.37 432.373 2366.25 433.61 2368.53 437.385L2376.38 450.588C2378.63 454.373 2377.39 459.248 2373.62 461.527L2360.41 469.379C2356.63 471.627 2351.75 470.39 2349.47 466.616L2341.62 453.412C2339.38 449.628 2340.6 444.722 2344.38 442.474Z" stroke="#000000" stroke-width="3.4375" stroke-miterlimit="8" fill="#D6DBD9" fill-rule="evenodd"/><path d="M2301.4 467.716 2314.6 459.652C2318.38 457.343 2323.25 458.613 2325.53 462.49L2333.38 476.05C2335.63 479.937 2334.39 484.943 2330.62 487.284L2317.42 495.348C2313.63 497.657 2308.76 496.387 2306.48 492.511L2298.64 478.95C2296.36 475.074 2297.62 470.06 2301.4 467.716Z" stroke="#000000" stroke-width="3.4375" stroke-miterlimit="8" fill="#D6DBD9" fill-rule="evenodd"/><path d="M2260.39 492.474 2273.59 484.622C2277.38 482.374 2282.25 483.61 2284.53 487.385L2292.38 500.588C2294.63 504.373 2293.39 509.247 2289.62 511.527L2276.41 519.378C2272.63 521.626 2267.76 520.39 2265.48 516.616L2257.63 503.416C2255.37 499.594 2256.61 494.722 2260.39 492.474Z" stroke="#000000" stroke-width="3.4375" stroke-miterlimit="8" fill="#D6DBD9" fill-rule="evenodd"/><path d="M2226.51 516.474 2240.06 508.622C2243.95 506.374 2248.95 507.61 2251.29 511.385L2259.35 524.588C2261.66 528.373 2260.39 533.247 2256.51 535.526L2242.96 543.378C2239.07 545.627 2234.07 544.39 2231.73 540.616L2223.67 527.412C2221.32 523.604 2222.62 518.719 2226.51 516.474Z" stroke="#000000" stroke-width="3.4375" stroke-miterlimit="8" fill="#D6DBD9" fill-rule="evenodd"/><path d="M2184.4 541.475 2197.6 533.622C2201.38 531.373 2206.25 532.61 2208.53 536.385L2216.38 549.586C2218.63 553.371 2217.39 558.246 2213.62 560.525L2200.42 568.378C2196.63 570.627 2191.76 569.39 2189.48 565.615L2181.64 552.41C2179.36 548.639 2180.62 543.72 2184.4 541.475Z" stroke="#000000" stroke-width="3.4375" stroke-miterlimit="8" fill="#D6DBD9" fill-rule="evenodd"/><path d="M2145.38 564.474 2158.59 556.622C2162.37 554.374 2167.25 555.61 2169.53 559.385L2177.38 572.588C2179.63 576.373 2178.39 581.247 2174.62 583.527L2161.41 591.379C2157.63 593.627 2152.75 592.39 2150.47 588.616L2142.62 575.412C2140.38 571.628 2141.6 566.722 2145.38 564.474Z" stroke="#000000" stroke-width="3.4375" stroke-miterlimit="8" fill="#D6DBD9" fill-rule="evenodd"/><path d="M2070.4 614.211 2121.53 583.633C2125.33 581.363 2130.22 582.611 2132.5 586.421L2140.37 599.749C2142.63 603.569 2141.39 608.489 2137.6 610.79L2086.48 641.368C2082.68 643.637 2077.79 642.389 2075.51 638.579L2067.63 625.255C2065.37 621.397 2066.61 616.48 2070.4 614.211Z" stroke="#000000" stroke-width="3.4375" stroke-miterlimit="8" fill="#D6DBD9" fill-rule="evenodd"/><path d="M2609.41 233.716 2622.6 225.652C2626.38 223.343 2631.26 224.613 2633.53 228.49L2641.38 242.05C2643.63 245.937 2642.39 250.943 2638.62 253.284L2625.43 261.348C2621.64 263.657 2616.77 262.387 2614.49 258.511L2606.65 244.95C2604.36 241.039 2605.6 236.036 2609.41 233.716Z" stroke="#000000" stroke-width="3.4375" stroke-miterlimit="8" fill="#D6DBD9" fill-rule="evenodd"/><path d="M2570.39 256.716 2583.59 248.652C2587.38 246.343 2592.25 247.613 2594.53 251.49L2602.38 265.05C2604.63 268.937 2603.39 273.943 2599.62 276.284L2586.41 284.348C2582.63 286.657 2577.76 285.387 2575.48 281.511L2567.63 267.95C2565.37 264.028 2566.61 259.026 2570.39 256.716Z" stroke="#000000" stroke-width="3.4375" stroke-miterlimit="8" fill="#D6DBD9" fill-rule="evenodd"/><path d="M2529.4 281.474 2542.6 273.622C2546.38 271.374 2551.25 272.61 2553.53 276.385L2561.38 289.588C2563.63 293.373 2562.39 298.247 2558.62 300.526L2545.42 308.378C2541.64 310.626 2536.76 309.39 2534.48 305.616L2526.64 292.412C2524.36 288.638 2525.61 283.722 2529.4 281.474Z" stroke="#000000" stroke-width="3.4375" stroke-miterlimit="8" fill="#D6DBD9" fill-rule="evenodd"/><path d="M2490.39 304.716 2503.59 296.652C2507.37 294.344 2512.25 295.613 2514.53 299.49L2522.38 313.05C2524.63 316.937 2523.39 321.943 2519.62 324.284L2506.41 332.348C2502.63 334.657 2497.75 333.387 2495.48 329.511L2487.63 315.95C2485.38 312.06 2486.6 307.022 2490.39 304.716Z" stroke="#000000" stroke-width="3.4375" stroke-miterlimit="8" fill="#D6DBD9" fill-rule="evenodd"/><path d="M2442.49 331.716 2456.05 323.652C2459.94 321.343 2464.95 322.613 2467.29 326.49L2475.35 340.05C2477.66 343.937 2476.39 348.943 2472.51 351.284L2458.95 359.348C2455.06 361.657 2450.06 360.387 2447.72 356.511L2439.65 342.95C2437.35 339.06 2438.6 334.022 2442.49 331.716Z" stroke="#000000" stroke-width="3.4375" stroke-miterlimit="8" fill="#D6DBD9" fill-rule="evenodd"/><path d="M2283.45 427.297 2416.38 348.629C2420.2 346.367 2425.13 347.611 2427.43 351.409L2435.37 364.696C2437.64 368.504 2436.39 373.41 2432.57 375.703L2299.64 454.371C2295.82 456.633 2290.89 455.389 2288.59 451.591L2280.65 438.304C2278.34 434.475 2279.62 429.56 2283.45 427.297Z" stroke="#000000" stroke-width="3.4375" stroke-miterlimit="8" fill="#D6DBD9" fill-rule="evenodd"/><path d="M2244.49 450.474 2258.05 442.622C2261.94 440.374 2266.94 441.61 2269.28 445.385L2277.35 458.588C2279.66 462.373 2278.39 467.247 2274.51 469.527L2260.95 477.378C2257.06 479.627 2252.06 478.39 2249.72 474.616L2241.66 461.412C2239.35 457.624 2240.6 452.722 2244.49 450.474Z" stroke="#000000" stroke-width="3.4375" stroke-miterlimit="8" fill="#D6DBD9" fill-rule="evenodd"/><path d="M2203.4 474.716 2216.6 466.652C2220.38 464.343 2225.26 465.613 2227.53 469.49L2235.38 483.05C2237.63 486.937 2236.39 491.944 2232.62 494.284L2219.42 502.348C2215.64 504.657 2210.76 503.387 2208.48 499.511L2200.64 485.95C2198.36 482.074 2199.61 477.026 2203.4 474.716Z" stroke="#000000" stroke-width="3.4375" stroke-miterlimit="8" fill="#D6DBD9" fill-rule="evenodd"/><path d="M2164.39 498.474 2177.59 490.622C2181.37 488.373 2186.25 489.61 2188.53 493.385L2196.38 506.588C2198.63 510.373 2197.39 515.248 2193.62 517.526L2180.41 525.379C2176.63 527.627 2171.75 526.39 2169.47 522.616L2161.62 509.412C2159.37 505.628 2160.61 500.753 2164.39 498.474Z" stroke="#000000" stroke-width="3.4375" stroke-miterlimit="8" fill="#D6DBD9" fill-rule="evenodd"/><path d="M2128.4 518.716 2141.6 510.652C2145.38 508.343 2150.26 509.613 2152.53 513.49L2160.38 527.05C2162.63 530.937 2161.39 535.944 2157.62 538.284L2144.42 546.348C2140.64 548.657 2135.76 547.387 2133.48 543.511L2125.64 529.95C2123.36 526.074 2124.61 521.026 2128.4 518.716Z" stroke="#000000" stroke-width="3.4375" stroke-miterlimit="8" fill="#D6DBD9" fill-rule="evenodd"/><path d="M2087.4 545.716 2100.6 537.652C2104.38 535.343 2109.26 536.613 2111.53 540.49L2119.38 554.05C2121.63 557.937 2120.39 562.944 2116.62 565.284L2103.42 573.348C2099.64 575.657 2094.77 574.387 2092.49 570.511L2084.64 556.95C2082.35 553.039 2083.62 548.022 2087.4 545.716Z" stroke="#000000" stroke-width="3.4375" stroke-miterlimit="8" fill="#D6DBD9" fill-rule="evenodd"/><path d="M2045.5 570.474 2059.06 562.622C2062.94 560.373 2067.95 561.61 2070.29 565.384L2078.35 578.588C2080.66 582.373 2079.39 587.248 2075.51 589.526L2061.95 597.378C2058.07 599.627 2053.06 598.39 2050.72 594.616L2042.66 581.412C2040.34 577.593 2041.61 572.722 2045.5 570.474Z" stroke="#000000" stroke-width="3.4375" stroke-miterlimit="8" fill="#D6DBD9" fill-rule="evenodd"/><path d="M2047.4 727.474 2060.6 719.622C2064.38 717.374 2069.25 718.61 2071.53 722.385L2079.38 735.588C2081.63 739.373 2080.39 744.247 2076.62 746.527L2063.42 754.379C2059.63 756.627 2054.76 755.39 2052.48 751.616L2044.64 738.412C2042.36 734.638 2043.62 729.753 2047.4 727.474Z" stroke="#000000" stroke-width="3.4375" stroke-miterlimit="8" fill="#D6DBD9" fill-rule="evenodd"/><path d="M1967.4 774.716 1980.6 766.652C1984.38 764.343 1989.25 765.613 1991.53 769.49L1999.38 783.05C2001.63 786.937 2000.39 791.943 1996.62 794.284L1983.42 802.348C1979.63 804.657 1974.76 803.387 1972.48 799.511L1964.64 785.95C1962.36 782.074 1963.62 777.026 1967.4 774.716Z" stroke="#000000" stroke-width="3.4375" stroke-miterlimit="8" fill="#D6DBD9" fill-rule="evenodd"/><path d="M2008.39 750.716 2021.59 742.652C2025.38 740.343 2030.25 741.613 2032.53 745.49L2040.38 759.05C2042.63 762.937 2041.39 767.943 2037.62 770.284L2024.41 778.348C2020.63 780.657 2015.75 779.387 2013.47 775.511L2005.62 761.95C2003.38 758.06 2004.6 753.022 2008.39 750.716Z" stroke="#000000" stroke-width="3.4375" stroke-miterlimit="8" fill="#D6DBD9" fill-rule="evenodd"/><path d="M2024.39 689.474 2037.59 681.622C2041.38 679.374 2046.25 680.61 2048.53 684.385L2056.38 697.588C2058.63 701.373 2057.39 706.248 2053.62 708.526L2040.41 716.378C2036.63 718.626 2031.75 717.39 2029.47 713.616L2021.62 700.412C2019.38 696.624 2020.6 691.722 2024.39 689.474Z" stroke="#000000" stroke-width="3.4375" stroke-miterlimit="8" fill="#D6DBD9" fill-rule="evenodd"/><path d="M1986.39 713.716 1999.59 705.652C2003.38 703.343 2008.25 704.613 2010.53 708.49L2018.38 722.05C2020.63 725.937 2019.39 730.943 2015.62 733.284L2002.41 741.348C1998.63 743.657 1993.75 742.387 1991.47 738.511L1983.62 724.953C1981.38 721.063 1982.6 716.025 1986.39 713.716Z" stroke="#000000" stroke-width="3.4375" stroke-miterlimit="8" fill="#D6DBD9" fill-rule="evenodd"/><path d="M1945.41 737.717 1958.6 729.652C1962.38 727.343 1967.26 728.613 1969.53 732.49L1977.38 746.05C1979.63 749.937 1978.39 754.943 1974.62 757.284L1961.42 765.348C1957.64 767.657 1952.77 766.387 1950.49 762.511L1942.64 748.95C1940.35 745.039 1941.62 740.022 1945.41 737.717Z" stroke="#000000" stroke-width="3.4375" stroke-miterlimit="8" fill="#D6DBD9" fill-rule="evenodd"/><path d="M2001.5 651.474 2015.06 643.622C2018.94 641.374 2023.95 642.61 2026.29 646.385L2034.35 659.588C2036.66 663.373 2035.39 668.247 2031.51 670.527L2017.95 678.379C2014.07 680.627 2009.06 679.39 2006.72 675.616L1998.66 662.416C1996.34 658.594 1997.61 653.722 2001.5 651.474Z" stroke="#000000" stroke-width="3.4375" stroke-miterlimit="8" fill="#D6DBD9" fill-rule="evenodd"/><path d="M1964.51 678.474 1978.06 670.622C1981.95 668.374 1986.95 669.61 1989.29 673.385L1997.35 686.588C1999.66 690.373 1998.39 695.247 1994.51 697.526L1980.96 705.378C1977.07 707.626 1972.07 706.39 1969.73 702.616L1961.68 689.412C1959.32 685.604 1960.62 680.722 1964.51 678.474Z" stroke="#000000" stroke-width="3.4375" stroke-miterlimit="8" fill="#D6DBD9" fill-rule="evenodd"/><path d="M1922.4 702.474 1935.6 694.622C1939.38 692.373 1944.25 693.61 1946.53 697.384L1954.38 710.588C1956.63 714.373 1955.39 719.248 1951.62 721.526L1938.42 729.378C1934.64 731.627 1929.76 730.39 1927.48 726.616L1919.64 713.412C1917.36 709.638 1918.61 704.722 1922.4 702.474Z" stroke="#000000" stroke-width="3.4375" stroke-miterlimit="8" fill="#D6DBD9" fill-rule="evenodd"/><path d="M1933.41 643.392 1993.55 607.625C1997.35 605.37 2002.23 606.61 2004.51 610.396L2012.38 623.638C2014.63 627.434 2013.39 632.322 2009.61 634.608L1949.47 670.375C1945.68 672.63 1940.79 671.389 1938.51 667.604L1930.64 654.362C1928.35 650.542 1929.62 645.647 1933.41 643.392L1933.41 643.392Z" stroke="#000000" stroke-width="3.4375" stroke-miterlimit="8" fill="#D6DBD9" fill-rule="evenodd"/><path d="M1899.51 664.474 1913.06 656.622C1916.95 654.374 1921.95 655.61 1924.29 659.385L1932.35 672.588C1934.66 676.373 1933.39 681.247 1929.51 683.527L1915.96 691.379C1912.07 693.627 1907.07 692.39 1904.73 688.616L1896.67 675.412C1894.33 671.638 1895.62 666.719 1899.51 664.474Z" stroke="#000000" stroke-width="3.4375" stroke-miterlimit="8" fill="#D6DBD9" fill-rule="evenodd"/></g></svg>