<svg width="749" height="1004" xmlns="http://www.w3.org/2000/svg" xmlns:xlink="http://www.w3.org/1999/xlink" xml:space="preserve" overflow="hidden"><g transform="translate(-406 -34)"><path d="M420.641 857.599 866.939 61.1077C875.717 45.4511 895.503 39.887 911.127 48.6491L1127.9 170.22C1143.55 179.003 1149.11 198.8 1140.35 214.432L694.079 1010.89C685.301 1026.55 665.514 1032.11 649.89 1023.35L433.117 901.78C417.472 893.049 411.883 873.228 420.641 857.599L420.641 857.599Z" stroke="#000000" stroke-width="20.625" stroke-miterlimit="8" fill="#A6A897" fill-rule="evenodd"/><path d="M955.507 390.024 969.514 364.603C971.644 360.742 976.422 359.368 980.234 361.51L993.47 369.06C997.262 371.229 998.612 376.091 996.509 379.976L982.502 405.397C980.375 409.258 975.594 410.632 971.782 408.491L958.545 400.94C954.73 398.754 953.38 393.889 955.507 390.024Z" stroke="#000000" stroke-width="3.4375" stroke-miterlimit="8" fill="#D6DBD9" fill-rule="evenodd"/><path d="M887.527 511.024 901.861 485.603C904.04 481.742 908.93 480.368 912.831 482.509L926.377 490.06C930.257 492.226 931.638 497.091 929.486 500.976L915.151 526.397C912.972 530.258 908.083 531.632 904.182 529.491L890.636 521.939C886.756 519.771 885.347 514.885 887.527 511.024Z" stroke="#000000" stroke-width="3.4375" stroke-miterlimit="8" fill="#D6DBD9" fill-rule="evenodd"/><path d="M1046.53 226.024 1060.86 200.603C1063.04 196.742 1067.93 195.368 1071.83 197.509L1085.38 205.061C1089.26 207.229 1090.64 212.091 1088.49 215.976L1074.15 241.397C1071.98 245.258 1067.09 246.632 1063.18 244.491L1049.64 236.94C1045.74 234.799 1044.35 229.886 1046.53 226.024Z" stroke="#000000" stroke-width="3.4375" stroke-miterlimit="8" fill="#D6DBD9" fill-rule="evenodd"/><path d="M1016.54 280.024 1030.87 254.603C1033.05 250.742 1037.93 249.368 1041.83 251.509L1055.38 259.06C1059.26 261.229 1060.64 266.094 1058.49 269.976L1044.15 295.397C1041.98 299.258 1037.09 300.632 1033.19 298.491L1019.64 290.94C1015.72 288.778 1014.36 283.889 1016.54 280.024Z" stroke="#000000" stroke-width="3.4375" stroke-miterlimit="8" fill="#D6DBD9" fill-rule="evenodd"/><path d="M768.519 723.024 782.856 697.603C785.036 693.742 789.926 692.368 793.828 694.509L807.376 702.06C811.257 704.229 812.638 709.091 810.486 712.976L796.149 738.397C793.969 742.258 789.079 743.632 785.177 741.491L771.629 733.94C767.727 731.798 766.367 726.91 768.519 723.024Z" stroke="#000000" stroke-width="3.4375" stroke-miterlimit="8" fill="#D6DBD9" fill-rule="evenodd"/><path d="M985.529 335.627 999.863 309.687C1002.04 305.747 1006.93 304.345 1010.83 306.53L1024.38 314.235C1028.26 316.448 1029.64 321.409 1027.49 325.373L1013.15 351.313C1010.98 355.253 1006.08 356.655 1002.18 354.47L988.638 346.765C984.737 344.58 983.353 339.567 985.529 335.627Z" stroke="#000000" stroke-width="3.4375" stroke-miterlimit="8" fill="#D6DBD9" fill-rule="evenodd"/><path d="M856.525 565.024 870.86 539.603C873.039 535.742 877.929 534.368 881.83 536.509L895.376 544.06C899.257 546.226 900.638 551.091 898.486 554.976L884.151 580.397C881.971 584.258 877.081 585.632 873.18 583.491L859.634 575.94C855.757 573.774 854.348 568.885 856.525 565.024Z" stroke="#000000" stroke-width="3.4375" stroke-miterlimit="8" fill="#D6DBD9" fill-rule="evenodd"/><path d="M827.53 617.627 841.863 591.687C844.042 587.747 848.931 586.345 852.832 588.53L866.377 596.235C870.257 598.444 871.637 603.409 869.486 607.373L855.153 633.313C852.973 637.253 848.084 638.655 844.183 636.47L830.639 628.765C826.735 626.531 825.354 621.567 827.53 617.627Z" stroke="#000000" stroke-width="3.4375" stroke-miterlimit="8" fill="#D6DBD9" fill-rule="evenodd"/><path d="M797.529 670.024 811.863 644.603C814.038 640.742 818.931 639.368 822.832 641.509L836.377 649.06C840.257 651.229 841.637 656.091 839.486 659.976L825.152 685.397C822.973 689.258 818.084 690.632 814.183 688.491L800.638 680.939C796.737 678.802 795.353 673.889 797.529 670.024Z" stroke="#000000" stroke-width="3.4375" stroke-miterlimit="8" fill="#D6DBD9" fill-rule="evenodd"/><path d="M921.534 450.025 935.866 424.603C938.045 420.742 942.934 419.368 946.834 421.509L960.377 429.061C964.257 431.229 965.637 436.091 963.486 439.976L949.154 465.397C946.975 469.258 942.087 470.632 938.186 468.491L924.643 460.94C920.719 458.778 919.359 453.886 921.534 450.025Z" stroke="#000000" stroke-width="3.4375" stroke-miterlimit="8" fill="#D6DBD9" fill-rule="evenodd"/><path d="M736.508 785.024 750.515 759.603C752.644 755.742 757.422 754.368 761.234 756.509L774.471 764.06C778.262 766.229 779.612 771.094 777.509 774.976L763.502 800.397C761.372 804.258 756.594 805.632 752.782 803.491L739.546 795.939C735.734 793.802 734.378 788.889 736.508 785.024Z" stroke="#000000" stroke-width="3.4375" stroke-miterlimit="8" fill="#D6DBD9" fill-rule="evenodd"/><path d="M993.522 228.854 1022.28 176.639C1024.42 172.744 1029.24 171.358 1033.09 173.518L1046.44 181.136C1050.26 183.323 1051.62 188.227 1049.5 192.147L1020.75 244.361C1018.6 248.256 1013.78 249.642 1009.94 247.482L996.586 239.865C992.714 237.684 991.374 232.749 993.522 228.854Z" stroke="#000000" stroke-width="3.4375" stroke-miterlimit="8" fill="#D6DBD9" fill-rule="evenodd"/><path d="M968.525 273.054 976.061 259.597C978.225 255.742 983.08 254.37 986.954 256.508L1000.41 264.047C1004.26 266.213 1005.63 271.067 1003.49 274.946L995.957 288.403C993.796 292.258 988.938 293.63 985.064 291.492L971.612 283.953C967.735 281.767 966.36 276.909 968.525 273.054Z" stroke="#000000" stroke-width="3.4375" stroke-miterlimit="8" fill="#D6DBD9" fill-rule="evenodd"/><path d="M946.523 312.054 954.059 298.597C956.22 294.742 961.079 293.37 964.953 295.508L978.405 303.047C982.259 305.209 983.63 310.067 981.493 313.946L973.956 327.403C971.792 331.258 966.936 332.63 963.062 330.492L949.61 322.952C945.736 320.815 944.361 315.909 946.523 312.054Z" stroke="#000000" stroke-width="3.4375" stroke-miterlimit="8" fill="#D6DBD9" fill-rule="evenodd"/><path d="M922.55 354.054 930.29 340.597C932.513 336.742 937.5 335.37 941.479 337.508L955.294 345.047C959.252 347.213 960.66 352.067 958.465 355.946L950.725 369.403C948.506 373.258 943.516 374.63 939.537 372.492L925.721 364.953C921.742 362.815 920.331 357.91 922.55 354.054Z" stroke="#000000" stroke-width="3.4375" stroke-miterlimit="8" fill="#D6DBD9" fill-rule="evenodd"/><path d="M900.553 394.054 908.292 380.597C910.515 376.742 915.502 375.37 919.48 377.508L933.295 385.047C937.252 387.213 938.66 392.067 936.465 395.946L928.726 409.403C926.503 413.258 921.517 414.63 917.539 412.492L903.724 404.953C899.738 402.767 898.33 397.91 900.553 394.054L900.553 394.054Z" stroke="#000000" stroke-width="3.4375" stroke-miterlimit="8" fill="#D6DBD9" fill-rule="evenodd"/><path d="M873.524 441.054 881.06 427.597C883.224 423.742 888.08 422.37 891.954 424.508L905.405 432.047C909.259 434.213 910.63 439.067 908.493 442.946L900.957 456.403C898.792 460.258 893.937 461.63 890.063 459.492L876.611 451.953C872.737 449.815 871.359 444.909 873.524 441.054Z" stroke="#000000" stroke-width="3.4375" stroke-miterlimit="8" fill="#D6DBD9" fill-rule="evenodd"/><path d="M851.529 480.529 859.064 466.707C861.228 462.748 866.083 461.339 869.956 463.535L883.406 471.278C887.259 473.502 888.63 478.491 886.493 482.471L878.958 496.292C876.797 500.252 871.939 501.661 868.066 499.465L854.616 491.722C850.716 489.505 849.365 484.488 851.529 480.529Z" stroke="#000000" stroke-width="3.4375" stroke-miterlimit="8" fill="#D6DBD9" fill-rule="evenodd"/><path d="M827.553 523.051 835.292 509.597C837.515 505.742 842.502 504.37 846.48 506.508L860.295 514.047C864.252 516.213 865.661 521.067 863.466 524.946L855.726 538.403C853.503 542.258 848.517 543.63 844.538 541.492L830.724 533.953C826.738 531.764 825.33 526.906 827.553 523.051Z" stroke="#000000" stroke-width="3.4375" stroke-miterlimit="8" fill="#D6DBD9" fill-rule="evenodd"/><path d="M807.52 560.054 815.057 546.597C817.221 542.742 822.077 541.37 825.952 543.508L839.405 551.047C843.259 553.213 844.63 558.067 842.493 561.946L834.956 575.403C832.791 579.258 827.935 580.63 824.061 578.492L810.608 570.953C806.754 568.787 805.355 563.909 807.52 560.054Z" stroke="#000000" stroke-width="3.4375" stroke-miterlimit="8" fill="#D6DBD9" fill-rule="evenodd"/><path d="M783.517 603.051 791.055 589.597C793.219 585.742 798.076 584.37 801.951 586.508L815.404 594.047C819.259 596.213 820.63 601.067 818.493 604.946L810.955 618.403C808.79 622.259 803.934 623.63 800.059 621.492L786.606 613.953C782.755 611.787 781.356 606.909 783.517 603.051Z" stroke="#000000" stroke-width="3.4375" stroke-miterlimit="8" fill="#D6DBD9" fill-rule="evenodd"/><path d="M761.522 642.529 769.059 628.708C771.223 624.748 776.079 623.339 779.953 625.535L793.405 633.279C797.259 635.502 798.63 640.488 796.493 644.471L788.956 658.293C786.792 662.252 781.936 663.661 778.062 661.465L764.61 653.722C760.736 651.526 759.361 646.488 761.522 642.529Z" stroke="#000000" stroke-width="3.4375" stroke-miterlimit="8" fill="#D6DBD9" fill-rule="evenodd"/><path d="M737.528 685.056 745.063 671.597C747.228 667.742 752.082 666.37 755.956 668.508L769.406 676.048C773.259 678.214 774.63 683.068 772.493 686.948L764.958 700.403C762.794 704.258 757.939 705.63 754.065 703.492L740.615 695.952C736.714 693.797 735.367 688.911 737.528 685.056Z" stroke="#000000" stroke-width="3.4375" stroke-miterlimit="8" fill="#D6DBD9" fill-rule="evenodd"/><path d="M715.523 724.054 723.059 710.597C725.224 706.742 730.079 705.37 733.954 707.508L747.405 715.047C751.259 717.209 752.63 722.067 750.493 725.946L742.956 739.403C740.792 743.258 735.937 744.63 732.062 742.492L718.611 734.953C714.734 732.767 713.362 727.909 715.523 724.054Z" stroke="#000000" stroke-width="3.4375" stroke-miterlimit="8" fill="#D6DBD9" fill-rule="evenodd"/><path d="M694.528 760.054 702.063 746.597C704.227 742.742 709.082 741.37 712.956 743.508L726.406 751.047C730.259 753.213 731.63 758.07 729.493 761.946L721.958 775.403C719.794 779.258 714.939 780.63 711.065 778.492L697.615 770.953C693.714 768.795 692.367 763.909 694.528 760.054Z" stroke="#000000" stroke-width="3.4375" stroke-miterlimit="8" fill="#D6DBD9" fill-rule="evenodd"/><path d="M897.52 305.529 905.057 291.708C907.221 287.748 912.077 286.339 915.952 288.535L929.404 296.278C933.258 298.502 934.63 303.487 932.493 307.471L924.956 321.293C922.795 325.252 917.935 326.661 914.061 324.465L900.608 316.722C896.754 314.498 895.355 309.488 897.52 305.529Z" stroke="#000000" stroke-width="3.4375" stroke-miterlimit="8" fill="#D6DBD9" fill-rule="evenodd"/><path d="M871.547 349.054 879.288 335.597C881.511 331.742 886.498 330.37 890.477 332.508L904.294 340.047C908.252 342.213 909.66 347.067 907.465 350.946L899.724 364.403C897.501 368.258 892.514 369.63 888.535 367.492L874.719 359.953C870.761 357.791 869.324 352.913 871.547 349.054Z" stroke="#000000" stroke-width="3.4375" stroke-miterlimit="8" fill="#D6DBD9" fill-rule="evenodd"/><path d="M848.55 390.529 856.29 376.708C858.513 372.748 863.5 371.339 867.479 373.535L881.294 381.279C885.252 383.499 886.66 388.488 884.465 392.471L876.725 406.293C874.503 410.252 869.516 411.661 865.536 409.465L851.721 401.722C847.742 399.53 846.33 394.492 848.55 390.529Z" stroke="#000000" stroke-width="3.4375" stroke-miterlimit="8" fill="#D6DBD9" fill-rule="evenodd"/><path d="M826.523 432.054 834.059 418.597C836.224 414.742 841.079 413.37 844.953 415.508L858.405 423.047C862.259 425.213 863.63 430.067 861.493 433.946L853.956 447.403C851.795 451.258 846.936 452.63 843.062 450.492L829.611 442.953C825.733 440.767 824.362 435.909 826.523 432.054Z" stroke="#000000" stroke-width="3.4375" stroke-miterlimit="8" fill="#D6DBD9" fill-rule="evenodd"/><path d="M802.524 475.054 810.06 461.597C812.225 457.742 817.08 456.37 820.954 458.508L834.405 466.047C838.259 468.209 839.63 473.067 837.493 476.946L829.957 490.403C827.792 494.258 822.937 495.63 819.063 493.492L805.612 485.953C801.738 483.815 800.36 478.909 802.524 475.054Z" stroke="#000000" stroke-width="3.4375" stroke-miterlimit="8" fill="#D6DBD9" fill-rule="evenodd"/><path d="M778.522 517.056 786.059 503.597C788.224 499.742 793.079 498.37 796.953 500.508L810.405 508.048C814.259 510.214 815.63 515.068 813.492 518.948L805.956 532.403C803.792 536.259 798.936 537.63 795.062 535.492L781.61 527.952C777.736 525.818 776.361 520.911 778.522 517.056Z" stroke="#000000" stroke-width="3.4375" stroke-miterlimit="8" fill="#D6DBD9" fill-rule="evenodd"/><path d="M761.527 554.054 769.062 540.597C771.223 536.742 776.082 535.37 779.955 537.508L793.406 545.047C797.259 547.213 798.63 552.067 796.493 555.946L788.957 569.403C786.793 573.259 781.938 574.63 778.065 572.492L764.615 564.953C760.717 562.794 759.366 557.91 761.527 554.054Z" stroke="#000000" stroke-width="3.4375" stroke-miterlimit="8" fill="#D6DBD9" fill-rule="evenodd"/><path d="M737.53 597.054 745.064 583.597C747.229 579.742 752.083 578.37 755.957 580.508L769.406 588.047C773.259 590.213 774.63 595.07 772.493 598.946L764.958 612.403C762.798 616.258 757.94 617.63 754.066 615.492L740.617 607.952C736.716 605.794 735.366 600.913 737.53 597.054Z" stroke="#000000" stroke-width="3.4375" stroke-miterlimit="8" fill="#D6DBD9" fill-rule="evenodd"/><path d="M715.525 637.054 723.061 623.597C725.226 619.742 730.08 618.37 733.954 620.508L747.405 628.047C751.258 630.213 752.63 635.067 750.493 638.946L742.957 652.403C740.793 656.258 735.937 657.63 732.064 655.492L718.613 647.953C714.732 645.767 713.361 640.909 715.525 637.054Z" stroke="#000000" stroke-width="3.4375" stroke-miterlimit="8" fill="#D6DBD9" fill-rule="evenodd"/><path d="M691.52 679.054 699.057 665.597C701.221 661.742 706.077 660.37 709.952 662.508L723.405 670.047C727.259 672.213 728.63 677.07 726.492 680.946L718.956 694.403C716.791 698.258 711.935 699.63 708.061 697.492L694.608 689.953C690.754 687.791 689.355 682.909 691.52 679.054Z" stroke="#000000" stroke-width="3.4375" stroke-miterlimit="8" fill="#D6DBD9" fill-rule="evenodd"/><path d="M942.532 223.838 981.795 153.643C983.98 149.744 988.88 148.357 992.791 150.519L1006.37 158.142C1010.26 160.332 1011.64 165.24 1009.48 169.162L970.22 239.358C968.039 243.256 963.135 244.643 959.225 242.481L945.648 234.858C941.738 232.7 940.351 227.74 942.532 223.838Z" stroke="#000000" stroke-width="3.4375" stroke-miterlimit="8" fill="#D6DBD9" fill-rule="evenodd"/><path d="M866.52 261.054 874.057 247.597C876.221 243.742 881.077 242.37 884.952 244.508L898.404 252.047C902.259 254.213 903.63 259.07 901.492 262.946L893.956 276.403C891.794 280.258 886.935 281.63 883.061 279.492L869.608 271.953C865.754 269.791 864.355 264.909 866.52 261.054Z" stroke="#000000" stroke-width="3.4375" stroke-miterlimit="8" fill="#D6DBD9" fill-rule="evenodd"/><path d="M921.522 263.054 929.059 249.597C931.223 245.742 936.079 244.37 939.953 246.508L953.405 254.047C957.259 256.213 958.63 261.07 956.492 264.946L948.956 278.403C946.795 282.258 941.936 283.63 938.062 281.492L924.61 273.953C920.736 271.815 919.361 266.909 921.522 263.054Z" stroke="#000000" stroke-width="3.4375" stroke-miterlimit="8" fill="#D6DBD9" fill-rule="evenodd"/><path d="M658.544 733.982 677.534 700.612C679.739 696.743 684.684 695.366 688.63 697.511L702.329 705.079C706.254 707.252 707.651 712.128 705.474 716.018L686.484 749.388C684.28 753.258 679.335 754.634 675.389 752.489L661.689 744.921C657.736 742.727 656.34 737.852 658.544 733.982L658.544 733.982Z" stroke="#000000" stroke-width="3.4375" stroke-miterlimit="8" fill="#D6DBD9" fill-rule="evenodd"/><path d="M891.523 219.115 940.931 131.584C943.106 127.741 947.983 126.373 951.874 128.505L965.387 136.02C969.258 138.179 970.635 143.018 968.488 146.885L919.08 234.416C916.906 238.259 912.028 239.627 908.137 237.495L894.624 229.98C890.753 227.821 889.352 222.959 891.523 219.115Z" stroke="#000000" stroke-width="3.4375" stroke-miterlimit="8" fill="#D6DBD9" fill-rule="evenodd"/><path d="M843.524 304.054 851.06 290.597C853.221 286.742 858.08 285.37 861.954 287.508L875.405 295.047C879.259 297.213 880.63 302.067 878.493 305.946L870.957 319.403C868.792 323.258 863.937 324.63 860.063 322.492L846.611 314.953C842.738 312.815 841.36 307.909 843.524 304.054Z" stroke="#000000" stroke-width="3.4375" stroke-miterlimit="8" fill="#D6DBD9" fill-rule="evenodd"/><path d="M817.529 350.529 825.064 336.708C827.228 332.748 832.083 331.339 835.956 333.535L849.405 341.278C853.258 343.502 854.63 348.487 852.493 352.471L844.958 366.293C842.794 370.252 837.939 371.661 834.066 369.465L820.616 361.722C816.716 359.505 815.365 354.488 817.529 350.529Z" stroke="#000000" stroke-width="3.4375" stroke-miterlimit="8" fill="#D6DBD9" fill-rule="evenodd"/><path d="M794.528 391.529 802.063 377.708C804.224 373.748 809.082 372.339 812.956 374.535L826.406 382.279C830.259 384.499 831.63 389.488 829.493 393.471L821.958 407.292C819.794 411.252 814.939 412.661 811.065 410.465L797.615 402.722C793.714 400.505 792.367 395.488 794.528 391.529Z" stroke="#000000" stroke-width="3.4375" stroke-miterlimit="8" fill="#D6DBD9" fill-rule="evenodd"/><path d="M771.519 433.054 779.056 419.597C781.218 415.742 786.077 414.37 789.951 416.508L803.404 424.047C807.258 426.213 808.63 431.067 806.493 434.946L798.955 448.403C796.791 452.258 791.935 453.63 788.06 451.492L774.608 443.953C770.754 441.791 769.355 436.909 771.519 433.054Z" stroke="#000000" stroke-width="3.4375" stroke-miterlimit="8" fill="#D6DBD9" fill-rule="evenodd"/><path d="M747.512 476.054 755.051 462.597C757.212 458.741 762.073 457.37 765.948 459.508L779.404 467.047C783.258 469.213 784.63 474.067 782.492 477.946L774.954 491.403C772.789 495.258 767.932 496.63 764.057 494.492L750.601 486.952C746.726 484.815 745.374 479.933 747.512 476.054Z" stroke="#000000" stroke-width="3.4375" stroke-miterlimit="8" fill="#D6DBD9" fill-rule="evenodd"/><path d="M724.525 518.054 732.061 504.597C734.222 500.742 739.08 499.37 742.954 501.508L756.405 509.047C760.258 511.213 761.63 516.07 759.493 519.946L751.957 533.403C749.792 537.258 744.937 538.63 741.064 536.492L727.613 528.953C723.732 526.767 722.361 521.909 724.525 518.054Z" stroke="#000000" stroke-width="3.4375" stroke-miterlimit="8" fill="#D6DBD9" fill-rule="evenodd"/><path d="M707.529 555.054 715.064 541.597C717.229 537.742 722.083 536.37 725.956 538.508L739.406 546.047C743.259 548.209 744.63 553.067 742.493 556.946L734.958 570.403C732.794 574.258 727.94 575.63 724.066 573.492L710.616 565.953C706.716 563.794 705.365 558.909 707.529 555.054Z" stroke="#000000" stroke-width="3.4375" stroke-miterlimit="8" fill="#D6DBD9" fill-rule="evenodd"/><path d="M683.522 598.051 691.059 584.597C693.223 580.742 698.079 579.37 701.953 581.508L715.405 589.047C719.259 591.213 720.63 596.067 718.493 599.946L710.956 613.403C708.792 617.258 703.936 618.63 700.062 616.492L686.61 608.953C682.736 606.811 681.361 601.906 683.522 598.051Z" stroke="#000000" stroke-width="3.4375" stroke-miterlimit="8" fill="#D6DBD9" fill-rule="evenodd"/><path d="M660.547 638.051 668.288 624.597C670.511 620.742 675.498 619.37 679.477 621.508L693.294 629.047C697.252 631.213 698.66 636.067 696.465 639.946L688.724 653.403C686.501 657.258 681.515 658.63 677.535 656.492L663.719 648.953C659.761 646.787 658.324 641.906 660.547 638.051Z" stroke="#000000" stroke-width="3.4375" stroke-miterlimit="8" fill="#D6DBD9" fill-rule="evenodd"/><path d="M620.531 718.919 649.847 666.625C652.027 662.743 656.919 661.362 660.822 663.515L674.375 671.106C678.257 673.287 679.638 678.178 677.485 682.08L648.169 734.374C645.992 738.256 641.097 739.638 637.193 737.485L623.641 729.893C619.735 727.692 618.353 722.801 620.531 718.919Z" stroke="#000000" stroke-width="3.4375" stroke-miterlimit="8" fill="#D6DBD9" fill-rule="evenodd"/><path d="M897.538 119.529 905.071 105.707C907.235 101.748 912.089 100.339 915.961 102.535L929.407 110.278C933.259 112.502 934.629 117.487 932.493 121.471L924.96 135.293C922.796 139.252 917.943 140.661 914.071 138.465L900.625 130.722C896.725 128.505 895.354 123.516 897.538 119.529Z" stroke="#000000" stroke-width="3.4375" stroke-miterlimit="8" fill="#D6DBD9" fill-rule="evenodd"/><path d="M875.523 159.054 883.059 145.597C885.224 141.742 890.079 140.37 893.954 142.508L907.405 150.048C911.259 152.213 912.63 157.07 910.493 160.946L902.957 174.403C900.795 178.258 895.937 179.63 892.062 177.492L878.611 169.953C874.733 167.767 873.362 162.909 875.523 159.054Z" stroke="#000000" stroke-width="3.4375" stroke-miterlimit="8" fill="#D6DBD9" fill-rule="evenodd"/><path d="M851.524 201.054 859.06 187.597C861.221 183.742 866.08 182.37 869.954 184.508L883.405 192.047C887.259 194.213 888.63 199.067 886.493 202.946L878.957 216.403C876.793 220.258 871.937 221.63 868.063 219.492L854.612 211.953C850.735 209.815 849.36 204.909 851.524 201.054Z" stroke="#000000" stroke-width="3.4375" stroke-miterlimit="8" fill="#D6DBD9" fill-rule="evenodd"/><path d="M829.518 240.529 837.055 226.708C839.22 222.748 844.076 221.339 847.951 223.535L861.405 231.278C865.259 233.502 866.63 238.491 864.493 242.471L856.955 256.293C854.794 260.252 849.934 261.661 846.06 259.465L832.606 251.722C828.752 249.498 827.357 244.488 829.518 240.529Z" stroke="#000000" stroke-width="3.4375" stroke-miterlimit="8" fill="#D6DBD9" fill-rule="evenodd"/><path d="M802.518 288.054 810.056 274.597C812.22 270.742 817.076 269.37 820.951 271.508L834.404 279.047C838.259 281.213 839.63 286.067 837.492 289.946L829.955 303.403C827.794 307.258 822.934 308.63 819.06 306.492L805.606 298.953C801.753 296.791 800.357 291.91 802.518 288.054Z" stroke="#000000" stroke-width="3.4375" stroke-miterlimit="8" fill="#D6DBD9" fill-rule="evenodd"/><path d="M712.534 449.878 787.941 314.634C790.115 310.744 794.99 309.359 798.881 311.517L812.388 319.125C816.258 321.31 817.635 326.212 815.488 330.123L740.081 465.366C737.908 469.257 733.032 470.641 729.142 468.483L715.634 460.875C711.717 458.697 710.361 453.768 712.534 449.878Z" stroke="#000000" stroke-width="3.4375" stroke-miterlimit="8" fill="#D6DBD9" fill-rule="evenodd"/><path d="M689.547 489.054 697.288 475.597C699.507 471.742 704.498 470.37 708.477 472.508L722.294 480.048C726.252 482.213 727.66 487.07 725.465 490.946L717.724 504.403C715.501 508.258 710.514 509.63 706.535 507.492L692.719 499.953C688.761 497.791 687.324 492.909 689.547 489.054Z" stroke="#000000" stroke-width="3.4375" stroke-miterlimit="8" fill="#D6DBD9" fill-rule="evenodd"/><path d="M666.524 531.054 674.06 517.597C676.225 513.742 681.08 512.37 684.954 514.508L698.405 522.047C702.259 524.213 703.63 529.067 701.493 532.946L693.957 546.403C691.792 550.258 686.937 551.63 683.063 549.492L669.611 541.953C665.737 539.818 664.359 534.913 666.524 531.054Z" stroke="#000000" stroke-width="3.4375" stroke-miterlimit="8" fill="#D6DBD9" fill-rule="evenodd"/><path d="M644.508 571.054 652.047 557.597C654.213 553.742 659.07 552.37 662.946 554.508L676.403 562.047C680.258 564.213 681.63 569.07 679.492 572.946L671.953 586.403C669.787 590.258 664.93 591.63 661.054 589.492L647.597 581.953C643.742 579.791 642.37 574.933 644.508 571.054Z" stroke="#000000" stroke-width="3.4375" stroke-miterlimit="8" fill="#D6DBD9" fill-rule="evenodd"/><path d="M623.524 607.054 631.06 593.597C633.224 589.742 638.08 588.37 641.954 590.508L655.405 598.047C659.259 600.213 660.63 605.067 658.493 608.946L650.957 622.403C648.796 626.258 643.937 627.63 640.063 625.492L626.611 617.953C622.738 615.815 621.36 610.909 623.524 607.054Z" stroke="#000000" stroke-width="3.4375" stroke-miterlimit="8" fill="#D6DBD9" fill-rule="evenodd"/><path d="M601.528 651.054 609.063 637.597C611.227 633.742 616.082 632.37 619.956 634.508L633.406 642.048C637.259 644.213 638.63 649.067 636.493 652.946L628.958 666.404C626.797 670.258 621.939 671.63 618.065 669.492L604.615 661.953C600.714 659.795 599.367 654.909 601.528 651.054Z" stroke="#000000" stroke-width="3.4375" stroke-miterlimit="8" fill="#D6DBD9" fill-rule="evenodd"/><path d="M577.523 693.056 585.059 679.597C587.224 675.742 592.079 674.37 595.953 676.508L609.405 684.048C613.259 686.214 614.63 691.068 612.493 694.948L604.957 708.403C602.792 712.259 597.937 713.63 594.062 711.492L580.611 703.952C576.733 701.773 575.362 696.911 577.523 693.056Z" stroke="#000000" stroke-width="3.4375" stroke-miterlimit="8" fill="#D6DBD9" fill-rule="evenodd"/><path d="M657.512 828.054 665.05 814.597C667.212 810.742 672.072 809.37 675.948 811.508L689.403 819.047C693.258 821.213 694.63 826.067 692.492 829.946L684.953 843.403C682.792 847.258 677.932 848.63 674.056 846.492L660.601 838.952C656.726 836.815 655.374 831.93 657.512 828.054Z" stroke="#000000" stroke-width="3.4375" stroke-miterlimit="8" fill="#D6DBD9" fill-rule="evenodd"/><path d="M612.524 909.054 620.06 895.597C622.225 891.742 627.08 890.37 630.954 892.508L644.405 900.047C648.259 902.213 649.63 907.07 647.493 910.946L639.957 924.403C637.796 928.258 632.937 929.63 629.063 927.492L615.611 919.953C611.737 917.815 610.36 912.909 612.524 909.054Z" stroke="#000000" stroke-width="3.4375" stroke-miterlimit="8" fill="#D6DBD9" fill-rule="evenodd"/><path d="M635.518 868.054 643.055 854.597C645.22 850.742 650.076 849.37 653.951 851.508L667.404 859.047C671.259 861.213 672.63 866.067 670.492 869.946L662.955 883.403C660.791 887.258 655.934 888.63 652.06 886.492L638.606 878.953C634.752 876.791 633.357 871.913 635.518 868.054Z" stroke="#000000" stroke-width="3.4375" stroke-miterlimit="8" fill="#D6DBD9" fill-rule="evenodd"/><path d="M618.52 806.054 626.056 792.597C628.221 788.742 633.077 787.37 636.952 789.508L650.405 797.047C654.259 799.213 655.63 804.067 653.493 807.946L645.956 821.403C643.791 825.258 638.935 826.63 635.061 824.492L621.608 816.952C617.754 814.791 616.355 809.913 618.52 806.054Z" stroke="#000000" stroke-width="3.4375" stroke-miterlimit="8" fill="#D6DBD9" fill-rule="evenodd"/><path d="M597.519 847.054 605.056 833.597C607.221 829.742 612.077 828.37 615.952 830.508L629.404 838.047C633.258 840.213 634.63 845.067 632.493 848.946L624.955 862.403C622.791 866.259 617.935 867.63 614.061 865.492L600.608 857.953C596.754 855.791 595.355 850.91 597.519 847.054Z" stroke="#000000" stroke-width="3.4375" stroke-miterlimit="8" fill="#D6DBD9" fill-rule="evenodd"/><path d="M574.529 888.054 582.064 874.597C584.229 870.742 589.083 869.37 592.956 871.508L606.406 879.047C610.259 881.213 611.63 886.067 609.493 889.946L601.958 903.403C599.794 907.259 594.94 908.63 591.066 906.492L577.616 898.953C573.716 896.794 572.365 891.913 574.529 888.054Z" stroke="#000000" stroke-width="3.4375" stroke-miterlimit="8" fill="#D6DBD9" fill-rule="evenodd"/><path d="M579.551 785.054 587.291 771.597C589.51 767.742 594.5 766.37 598.479 768.508L612.294 776.047C616.252 778.213 617.66 783.067 615.465 786.946L607.725 800.403C605.506 804.259 600.516 805.63 596.537 803.492L582.722 795.953C578.74 793.767 577.331 788.91 579.551 785.054Z" stroke="#000000" stroke-width="3.4375" stroke-miterlimit="8" fill="#D6DBD9" fill-rule="evenodd"/><path d="M561.53 826.529 569.064 812.708C571.229 808.748 576.083 807.339 579.956 809.535L593.405 817.279C597.258 819.502 598.629 824.488 596.493 828.471L588.958 842.293C586.794 846.252 581.939 847.661 578.066 845.465L564.617 837.722C560.716 835.505 559.366 830.488 561.53 826.529Z" stroke="#000000" stroke-width="3.4375" stroke-miterlimit="8" fill="#D6DBD9" fill-rule="evenodd"/><path d="M536.524 868.525 544.06 854.708C546.224 850.748 551.08 849.339 554.954 851.535L568.405 859.278C572.258 861.502 573.63 866.487 571.493 870.471L563.956 884.293C561.792 888.252 556.937 889.661 553.063 887.465L539.611 879.722C535.738 877.523 534.36 872.484 536.524 868.525Z" stroke="#000000" stroke-width="3.4375" stroke-miterlimit="8" fill="#D6DBD9" fill-rule="evenodd"/><path d="M516.532 812.755 550.95 750.66C553.123 746.746 557.997 745.353 561.886 747.523L575.389 755.179C579.258 757.378 580.634 762.307 578.489 766.245L544.071 828.34C541.898 832.255 537.024 833.648 533.135 831.477L519.632 823.821C515.715 821.629 514.363 816.67 516.532 812.755L516.532 812.755Z" stroke="#000000" stroke-width="3.4375" stroke-miterlimit="8" fill="#D6DBD9" fill-rule="evenodd"/><path d="M497.55 847.054 505.29 833.597C507.51 829.742 512.5 828.37 516.479 830.508L530.294 838.047C534.252 840.213 535.66 845.067 533.465 848.946L525.725 862.403C523.506 866.258 518.516 867.63 514.537 865.492L500.721 857.953C496.742 855.815 495.33 850.909 497.55 847.054Z" stroke="#000000" stroke-width="3.4375" stroke-miterlimit="8" fill="#D6DBD9" fill-rule="evenodd"/></g></svg>