<svg width="1002" height="346" xmlns="http://www.w3.org/2000/svg" xmlns:xlink="http://www.w3.org/1999/xlink" xml:space="preserve" overflow="hidden"><g transform="translate(-1670 -1737)"><path d="M1712.53 1759.03 2625.45 1747.5C2643.4 1747.28 2658.11 1761.64 2658.34 1779.55L2661.5 2028.08C2661.72 2046.03 2647.36 2060.73 2629.44 2060.96L1716.55 2072.5C1698.61 2072.72 1683.89 2058.36 1683.66 2040.45L1680.5 1791.92C1680.25 1774.01 1694.61 1759.26 1712.53 1759.03L1712.53 1759.03Z" stroke="#000000" stroke-width="20.625" stroke-miterlimit="8" fill="#A6A897" fill-rule="evenodd"/><path d="M2385.51 1987.86 2415.05 1987.5C2419.54 1987.45 2423.21 1990.99 2423.3 1995.44L2423.5 2010.97C2423.55 2015.41 2419.98 2019.06 2415.49 2019.14L2385.95 2019.5C2381.46 2019.55 2377.79 2016.01 2377.7 2011.55L2377.5 1996.03C2377.45 1991.56 2381.03 1987.91 2385.51 1987.86Z" stroke="#000000" stroke-width="3.4375" stroke-miterlimit="8" fill="#D6DBD9" fill-rule="evenodd"/><path d="M2246.51 1989.86 2276.05 1989.5C2280.54 1989.45 2284.21 1992.99 2284.3 1997.45L2284.5 2012.97C2284.56 2017.41 2280.98 2021.06 2276.49 2021.14L2246.95 2021.5C2242.46 2021.55 2238.79 2018.01 2238.7 2013.56L2238.5 1998.03C2238.45 1993.59 2242.02 1989.91 2246.51 1989.86Z" stroke="#000000" stroke-width="3.4375" stroke-miterlimit="8" fill="#D6DBD9" fill-rule="evenodd"/><path d="M2573.34 1985.86 2602.24 1985.5C2606.62 1985.45 2610.22 1988.99 2610.3 1993.45L2610.5 2008.97C2610.55 2013.41 2607.06 2017.06 2602.66 2017.14L2573.77 2017.5C2569.38 2017.55 2565.78 2014.01 2565.7 2009.56L2565.5 1994.04C2565.42 1989.58 2568.95 1985.91 2573.34 1985.86Z" stroke="#000000" stroke-width="3.4375" stroke-miterlimit="8" fill="#D6DBD9" fill-rule="evenodd"/><path d="M2511.34 1986.86 2540.24 1986.5C2544.62 1986.45 2548.22 1989.99 2548.3 1994.45L2548.5 2009.97C2548.55 2014.41 2545.06 2018.06 2540.66 2018.14L2511.77 2018.5C2507.38 2018.55 2503.78 2015.01 2503.7 2010.55L2503.5 1995.03C2503.42 1990.55 2506.95 1986.91 2511.34 1986.86Z" stroke="#000000" stroke-width="3.4375" stroke-miterlimit="8" fill="#D6DBD9" fill-rule="evenodd"/><path d="M2003.52 1992.86 2033.05 1992.5C2037.54 1992.45 2041.21 1995.99 2041.3 2000.45L2041.5 2015.97C2041.56 2020.41 2037.98 2024.06 2033.49 2024.14L2003.95 2024.5C1999.46 2024.55 1995.79 2021.01 1995.7 2016.55L1995.5 2001.03C1995.41 1996.58 1999.02 1992.95 2003.52 1992.86Z" stroke="#000000" stroke-width="3.4375" stroke-miterlimit="8" fill="#D6DBD9" fill-rule="evenodd"/><path d="M2447.51 1986.86 2477.05 1986.5C2481.54 1986.45 2485.21 1989.99 2485.3 1994.44L2485.5 2009.97C2485.56 2014.41 2481.98 2018.06 2477.49 2018.14L2447.95 2018.5C2443.46 2018.55 2439.79 2015.01 2439.7 2010.56L2439.5 1995.03C2439.41 1990.58 2443.03 1986.91 2447.51 1986.86Z" stroke="#000000" stroke-width="3.4375" stroke-miterlimit="8" fill="#D6DBD9" fill-rule="evenodd"/><path d="M2184.34 1990.86 2213.24 1990.5C2217.62 1990.45 2221.22 1993.99 2221.3 1998.45L2221.5 2013.97C2221.55 2018.41 2218.06 2022.06 2213.66 2022.14L2184.76 2022.5C2180.38 2022.55 2176.78 2019.01 2176.7 2014.56L2176.5 1999.04C2176.45 1994.59 2179.95 1990.91 2184.34 1990.86Z" stroke="#000000" stroke-width="3.4375" stroke-miterlimit="8" fill="#D6DBD9" fill-rule="evenodd"/><path d="M2124.34 1991.86 2153.24 1991.5C2157.62 1991.45 2161.22 1994.99 2161.3 1999.44L2161.5 2014.97C2161.55 2019.41 2158.06 2023.06 2153.66 2023.14L2124.76 2023.5C2120.38 2023.55 2116.78 2020.01 2116.7 2015.56L2116.5 2000.03C2116.45 1995.55 2119.95 1991.91 2124.34 1991.86Z" stroke="#000000" stroke-width="3.4375" stroke-miterlimit="8" fill="#D6DBD9" fill-rule="evenodd"/><path d="M2063.52 1991.86 2093.05 1991.5C2097.54 1991.45 2101.21 1994.99 2101.3 1999.45L2101.5 2014.97C2101.55 2019.41 2097.98 2023.06 2093.49 2023.14L2063.95 2023.5C2059.46 2023.56 2055.79 2020.01 2055.7 2015.56L2055.5 2000.04C2055.42 1995.58 2059.03 1991.91 2063.52 1991.86Z" stroke="#000000" stroke-width="3.4375" stroke-miterlimit="8" fill="#D6DBD9" fill-rule="evenodd"/><path d="M2316.34 1988.86 2345.24 1988.5C2349.62 1988.45 2353.22 1991.99 2353.3 1996.45L2353.5 2011.97C2353.55 2016.41 2350.06 2020.06 2345.66 2020.14L2316.77 2020.5C2312.38 2020.55 2308.78 2017.01 2308.7 2012.56L2308.5 1997.04C2308.42 1992.55 2311.95 1988.91 2316.34 1988.86Z" stroke="#000000" stroke-width="3.4375" stroke-miterlimit="8" fill="#D6DBD9" fill-rule="evenodd"/><path d="M1933.52 1995.86 1963.05 1995.5C1967.54 1995.45 1971.21 1998.99 1971.3 2003.45L1971.5 2018.97C1971.55 2023.41 1967.98 2027.06 1963.49 2027.14L1933.95 2027.5C1929.46 2027.55 1925.79 2024.01 1925.7 2019.55L1925.5 2004.03C1925.41 1999.58 1929.03 1995.91 1933.52 1995.86Z" stroke="#000000" stroke-width="3.4375" stroke-miterlimit="8" fill="#D6DBD9" fill-rule="evenodd"/><path d="M2543.45 1941.24 2603.12 1940.5C2607.57 1940.45 2611.21 1943.95 2611.3 1948.35L2611.5 1963.69C2611.55 1968.08 2608.01 1971.68 2603.55 1971.76L2543.88 1972.5C2539.43 1972.55 2535.79 1969.05 2535.7 1964.65L2535.5 1949.31C2535.42 1944.88 2539 1941.29 2543.45 1941.24Z" stroke="#000000" stroke-width="3.4375" stroke-miterlimit="8" fill="#D6DBD9" fill-rule="evenodd"/><path d="M2493.48 1941.7 2509.08 1941.5C2513.55 1941.45 2517.21 1945.01 2517.3 1949.48L2517.5 1965.08C2517.56 1969.55 2514 1973.21 2509.52 1973.3L2493.92 1973.5C2489.45 1973.55 2485.79 1969.99 2485.7 1965.51L2485.5 1949.91C2485.45 1945.41 2489.02 1941.75 2493.48 1941.7Z" stroke="#000000" stroke-width="3.4375" stroke-miterlimit="8" fill="#D6DBD9" fill-rule="evenodd"/><path d="M2448.49 1941.7 2464.08 1941.5C2468.55 1941.45 2472.21 1945.01 2472.3 1949.48L2472.5 1965.08C2472.55 1969.55 2469 1973.21 2464.52 1973.3L2448.92 1973.5C2444.45 1973.55 2440.79 1969.99 2440.7 1965.51L2440.5 1949.91C2440.42 1945.44 2444.02 1941.76 2448.49 1941.7Z" stroke="#000000" stroke-width="3.4375" stroke-miterlimit="8" fill="#D6DBD9" fill-rule="evenodd"/><path d="M2400.24 1942.7 2415.35 1942.5C2419.68 1942.45 2423.22 1946.01 2423.3 1950.48L2423.5 1966.08C2423.55 1970.55 2420.1 1974.21 2415.77 1974.3L2400.66 1974.5C2396.32 1974.55 2392.78 1971 2392.7 1966.52L2392.5 1950.92C2392.42 1946.44 2395.91 1942.76 2400.24 1942.7Z" stroke="#000000" stroke-width="3.4375" stroke-miterlimit="8" fill="#D6DBD9" fill-rule="evenodd"/><path d="M2354.48 1943.7 2370.08 1943.5C2374.55 1943.45 2378.21 1946.9 2378.3 1951.24L2378.5 1966.35C2378.55 1970.68 2375 1974.22 2370.52 1974.31L2354.92 1974.5C2350.45 1974.55 2346.79 1971.1 2346.7 1966.77L2346.5 1951.66C2346.45 1947.29 2350.02 1943.75 2354.48 1943.7L2354.48 1943.7Z" stroke="#000000" stroke-width="3.4375" stroke-miterlimit="8" fill="#D6DBD9" fill-rule="evenodd"/><path d="M2300.49 1943.7 2316.08 1943.5C2320.55 1943.45 2324.21 1946.9 2324.3 1951.23L2324.5 1966.35C2324.55 1970.68 2321 1974.22 2316.52 1974.31L2300.92 1974.5C2296.45 1974.55 2292.79 1971.1 2292.7 1966.76L2292.5 1951.65C2292.41 1947.32 2296.01 1943.75 2300.49 1943.7Z" stroke="#000000" stroke-width="3.4375" stroke-miterlimit="8" fill="#D6DBD9" fill-rule="evenodd"/><path d="M2255.24 1943.7 2270.35 1943.5C2274.68 1943.45 2278.22 1947.01 2278.3 1951.48L2278.5 1967.08C2278.55 1971.55 2275.1 1975.21 2270.76 1975.3L2255.65 1975.5C2251.33 1975.55 2247.78 1972 2247.7 1967.52L2247.5 1951.92C2247.42 1947.41 2250.91 1943.76 2255.24 1943.7Z" stroke="#000000" stroke-width="3.4375" stroke-miterlimit="8" fill="#D6DBD9" fill-rule="evenodd"/><path d="M2206.48 1944.7 2222.08 1944.5C2226.55 1944.45 2230.21 1948.01 2230.3 1952.48L2230.5 1968.08C2230.56 1972.55 2227 1976.21 2222.52 1976.3L2206.92 1976.5C2202.45 1976.55 2198.79 1972.99 2198.7 1968.51L2198.5 1952.91C2198.46 1948.42 2202.02 1944.76 2206.48 1944.7Z" stroke="#000000" stroke-width="3.4375" stroke-miterlimit="8" fill="#D6DBD9" fill-rule="evenodd"/><path d="M2164.23 1945.7 2179.35 1945.5C2183.68 1945.45 2187.22 1949.01 2187.31 1953.48L2187.5 1969.08C2187.55 1973.55 2184.1 1977.21 2179.76 1977.3L2164.65 1977.5C2160.32 1977.55 2156.78 1974 2156.69 1969.52L2156.5 1953.92C2156.45 1949.45 2159.91 1945.76 2164.23 1945.7Z" stroke="#000000" stroke-width="3.4375" stroke-miterlimit="8" fill="#D6DBD9" fill-rule="evenodd"/><path d="M2114.48 1945.7 2130.08 1945.5C2134.55 1945.45 2138.21 1949.01 2138.3 1953.48L2138.5 1969.08C2138.55 1973.55 2135 1977.21 2130.52 1977.3L2114.92 1977.5C2110.45 1977.56 2106.79 1973.99 2106.7 1969.51L2106.5 1953.92C2106.45 1949.45 2110.01 1945.76 2114.48 1945.7Z" stroke="#000000" stroke-width="3.4375" stroke-miterlimit="8" fill="#D6DBD9" fill-rule="evenodd"/><path d="M2069.49 1946.7 2085.08 1946.5C2089.55 1946.45 2093.21 1950.01 2093.3 1954.48L2093.5 1970.08C2093.55 1974.55 2090 1978.21 2085.52 1978.3L2069.92 1978.5C2065.45 1978.55 2061.79 1974.99 2061.7 1970.51L2061.5 1954.91C2061.42 1950.44 2065.02 1946.76 2069.49 1946.7Z" stroke="#000000" stroke-width="3.4375" stroke-miterlimit="8" fill="#D6DBD9" fill-rule="evenodd"/><path d="M2021.49 1947.69 2037.08 1947.5C2041.55 1947.45 2045.21 1950.9 2045.3 1955.24L2045.5 1970.35C2045.56 1974.68 2042 1978.22 2037.52 1978.31L2021.92 1978.5C2017.45 1978.55 2013.79 1975.1 2013.7 1970.77L2013.5 1955.66C2013.42 1951.28 2017.02 1947.75 2021.49 1947.69Z" stroke="#000000" stroke-width="3.4375" stroke-miterlimit="8" fill="#D6DBD9" fill-rule="evenodd"/><path d="M1976.24 1947.7 1991.35 1947.5C1995.68 1947.45 1999.22 1951.01 1999.31 1955.48L1999.5 1971.08C1999.55 1975.55 1996.1 1979.21 1991.76 1979.3L1976.65 1979.5C1972.32 1979.56 1968.78 1976 1968.7 1971.51L1968.5 1955.91C1968.45 1951.41 1971.9 1947.75 1976.24 1947.7Z" stroke="#000000" stroke-width="3.4375" stroke-miterlimit="8" fill="#D6DBD9" fill-rule="evenodd"/><path d="M1934.49 1947.7 1950.08 1947.5C1954.55 1947.45 1958.21 1951.01 1958.3 1955.48L1958.5 1971.08C1958.55 1975.55 1955 1979.21 1950.52 1979.3L1934.92 1979.5C1930.45 1979.56 1926.79 1976 1926.7 1971.51L1926.5 1955.91C1926.42 1951.41 1930.02 1947.76 1934.49 1947.7Z" stroke="#000000" stroke-width="3.4375" stroke-miterlimit="8" fill="#D6DBD9" fill-rule="evenodd"/><path d="M2429.48 1895.7 2445.08 1895.5C2449.55 1895.45 2453.21 1899.01 2453.3 1903.48L2453.5 1919.08C2453.55 1923.55 2449.99 1927.21 2445.52 1927.3L2429.92 1927.5C2425.45 1927.55 2421.79 1923.99 2421.7 1919.51L2421.5 1903.91C2421.44 1899.45 2425.01 1895.76 2429.48 1895.7Z" stroke="#000000" stroke-width="3.4375" stroke-miterlimit="8" fill="#D6DBD9" fill-rule="evenodd"/><path d="M2378.48 1895.7 2394.08 1895.5C2398.55 1895.45 2402.21 1899.01 2402.3 1903.48L2402.5 1919.08C2402.55 1923.55 2399 1927.21 2394.52 1927.3L2378.92 1927.5C2374.45 1927.55 2370.79 1923.99 2370.7 1919.51L2370.5 1903.91C2370.45 1899.45 2374.02 1895.76 2378.48 1895.7Z" stroke="#000000" stroke-width="3.4375" stroke-miterlimit="8" fill="#D6DBD9" fill-rule="evenodd"/><path d="M2331.49 1896.7 2347.08 1896.5C2351.55 1896.45 2355.21 1900.01 2355.3 1904.48L2355.5 1920.08C2355.55 1924.55 2352 1928.21 2347.52 1928.3L2331.92 1928.5C2327.45 1928.55 2323.79 1925 2323.7 1920.52L2323.5 1904.92C2323.42 1900.44 2327.02 1896.76 2331.49 1896.7Z" stroke="#000000" stroke-width="3.4375" stroke-miterlimit="8" fill="#D6DBD9" fill-rule="evenodd"/><path d="M2284.48 1897.7 2300.08 1897.5C2304.55 1897.45 2308.21 1901.01 2308.3 1905.48L2308.5 1921.08C2308.56 1925.55 2305 1929.21 2300.52 1929.3L2284.92 1929.5C2280.45 1929.55 2276.79 1926 2276.7 1921.52L2276.5 1905.92C2276.46 1901.41 2280.02 1897.76 2284.48 1897.7Z" stroke="#000000" stroke-width="3.4375" stroke-miterlimit="8" fill="#D6DBD9" fill-rule="evenodd"/><path d="M2235.49 1898.69 2251.08 1898.5C2255.55 1898.45 2259.21 1901.9 2259.3 1906.23L2259.5 1921.34C2259.55 1925.68 2256 1929.22 2251.52 1929.31L2235.92 1929.5C2231.45 1929.55 2227.79 1926.1 2227.7 1921.77L2227.5 1906.66C2227.42 1902.32 2231.02 1898.75 2235.49 1898.69Z" stroke="#000000" stroke-width="3.4375" stroke-miterlimit="8" fill="#D6DBD9" fill-rule="evenodd"/><path d="M2186.49 1898.7 2202.08 1898.5C2206.55 1898.45 2210.21 1902.01 2210.3 1906.48L2210.5 1922.08C2210.55 1926.55 2207 1930.21 2202.52 1930.3L2186.92 1930.5C2182.45 1930.55 2178.79 1926.99 2178.7 1922.51L2178.5 1906.91C2178.41 1902.44 2182.02 1898.75 2186.49 1898.7Z" stroke="#000000" stroke-width="3.4375" stroke-miterlimit="8" fill="#D6DBD9" fill-rule="evenodd"/><path d="M2146.49 1902.7 2162.08 1902.5C2166.55 1902.45 2170.21 1906.01 2170.3 1910.49L2170.5 1926.08C2170.55 1930.55 2167 1934.21 2162.52 1934.3L2146.92 1934.5C2142.45 1934.55 2138.79 1931 2138.7 1926.52L2138.5 1910.92C2138.42 1906.41 2142.02 1902.75 2146.49 1902.7Z" stroke="#000000" stroke-width="3.4375" stroke-miterlimit="8" fill="#D6DBD9" fill-rule="evenodd"/><path d="M2097.24 1903.69 2112.35 1903.5C2116.68 1903.45 2120.22 1906.9 2120.31 1911.23L2120.5 1926.35C2120.55 1930.68 2117.1 1934.22 2112.77 1934.31L2097.66 1934.5C2093.33 1934.55 2089.78 1931.1 2089.7 1926.76L2089.5 1911.65C2089.42 1907.29 2092.9 1903.75 2097.24 1903.69Z" stroke="#000000" stroke-width="3.4375" stroke-miterlimit="8" fill="#D6DBD9" fill-rule="evenodd"/><path d="M2051.48 1903.7 2067.08 1903.5C2071.55 1903.45 2075.21 1907.01 2075.3 1911.48L2075.5 1927.08C2075.55 1931.55 2072 1935.21 2067.52 1935.3L2051.92 1935.5C2047.45 1935.56 2043.79 1932 2043.7 1927.52L2043.5 1911.92C2043.46 1907.42 2047.02 1903.76 2051.48 1903.7Z" stroke="#000000" stroke-width="3.4375" stroke-miterlimit="8" fill="#D6DBD9" fill-rule="evenodd"/><path d="M2003.48 1904.7 2019.08 1904.5C2023.55 1904.45 2027.21 1908.01 2027.3 1912.48L2027.5 1928.08C2027.55 1932.55 2024 1936.21 2019.52 1936.3L2003.92 1936.5C1999.45 1936.55 1995.79 1933 1995.7 1928.52L1995.5 1912.92C1995.45 1908.45 1999.02 1904.76 2003.48 1904.7Z" stroke="#000000" stroke-width="3.4375" stroke-miterlimit="8" fill="#D6DBD9" fill-rule="evenodd"/><path d="M2522.5 1894.5 2603.07 1893.5C2607.55 1893.45 2611.21 1896.92 2611.3 1901.28L2611.5 1916.49C2611.56 1920.85 2607.99 1924.42 2603.51 1924.5L2522.93 1925.5C2518.45 1925.55 2514.79 1922.08 2514.7 1917.72L2514.5 1902.51C2514.41 1898.14 2518.02 1894.55 2522.5 1894.5Z" stroke="#000000" stroke-width="3.4375" stroke-miterlimit="8" fill="#D6DBD9" fill-rule="evenodd"/><path d="M2452.48 1846.7 2468.08 1846.5C2472.55 1846.45 2476.21 1850.01 2476.3 1854.48L2476.5 1870.08C2476.55 1874.55 2473 1878.21 2468.52 1878.3L2452.92 1878.5C2448.45 1878.55 2444.79 1874.99 2444.7 1870.51L2444.5 1854.91C2444.45 1850.45 2448.02 1846.76 2452.48 1846.7Z" stroke="#000000" stroke-width="3.4375" stroke-miterlimit="8" fill="#D6DBD9" fill-rule="evenodd"/><path d="M2478.49 1895.69 2494.08 1895.5C2498.55 1895.45 2502.21 1898.9 2502.3 1903.23L2502.5 1918.35C2502.55 1922.68 2499 1926.22 2494.52 1926.31L2478.92 1926.5C2474.45 1926.55 2470.79 1923.1 2470.7 1918.77L2470.5 1903.66C2470.42 1899.32 2474.02 1895.75 2478.49 1895.69Z" stroke="#000000" stroke-width="3.4375" stroke-miterlimit="8" fill="#D6DBD9" fill-rule="evenodd"/><path d="M1939.35 1903.97 1977.23 1903.5C1981.62 1903.45 1985.22 1906.98 1985.3 1911.41L1985.5 1926.88C1985.55 1931.31 1982.06 1934.94 1977.65 1935.03L1939.77 1935.5C1935.38 1935.55 1931.78 1932.02 1931.7 1927.58L1931.5 1912.11C1931.46 1907.65 1934.95 1904.03 1939.35 1903.97L1939.35 1903.97Z" stroke="#000000" stroke-width="3.4375" stroke-miterlimit="8" fill="#D6DBD9" fill-rule="evenodd"/><path d="M2501.4 1847.8 2602.17 1846.5C2606.59 1846.45 2610.22 1849.99 2610.3 1854.46L2610.5 1870.01C2610.55 1874.46 2607.03 1878.11 2602.6 1878.2L2501.83 1879.5C2497.41 1879.55 2493.78 1876.01 2493.7 1871.54L2493.5 1855.99C2493.45 1851.54 2496.98 1847.86 2501.4 1847.8Z" stroke="#000000" stroke-width="3.4375" stroke-miterlimit="8" fill="#D6DBD9" fill-rule="evenodd"/><path d="M2403.49 1848.7 2419.08 1848.5C2423.55 1848.45 2427.21 1852.01 2427.3 1856.48L2427.5 1872.08C2427.55 1876.55 2424 1880.21 2419.52 1880.3L2403.92 1880.5C2399.45 1880.56 2395.79 1877 2395.7 1872.52L2395.5 1856.92C2395.42 1852.44 2399.02 1848.76 2403.49 1848.7Z" stroke="#000000" stroke-width="3.4375" stroke-miterlimit="8" fill="#D6DBD9" fill-rule="evenodd"/><path d="M2350.49 1849.7 2366.08 1849.5C2370.55 1849.45 2374.21 1853.01 2374.3 1857.48L2374.5 1873.08C2374.55 1877.55 2371 1881.21 2366.52 1881.3L2350.92 1881.5C2346.45 1881.55 2342.79 1877.99 2342.7 1873.51L2342.5 1857.91C2342.42 1853.41 2346.01 1849.76 2350.49 1849.7Z" stroke="#000000" stroke-width="3.4375" stroke-miterlimit="8" fill="#D6DBD9" fill-rule="evenodd"/><path d="M2303.49 1849.7 2319.08 1849.5C2323.55 1849.45 2327.21 1853.01 2327.3 1857.48L2327.5 1873.08C2327.55 1877.55 2324 1881.21 2319.52 1881.3L2303.92 1881.5C2299.45 1881.55 2295.79 1878 2295.7 1873.52L2295.5 1857.92C2295.42 1853.41 2299.02 1849.76 2303.49 1849.7Z" stroke="#000000" stroke-width="3.4375" stroke-miterlimit="8" fill="#D6DBD9" fill-rule="evenodd"/><path d="M2256.48 1850.7 2272.08 1850.5C2276.55 1850.45 2280.21 1854.01 2280.3 1858.48L2280.5 1874.08C2280.55 1878.55 2277 1882.21 2272.52 1882.3L2256.92 1882.5C2252.45 1882.55 2248.79 1879 2248.7 1874.52L2248.5 1858.92C2248.45 1854.45 2252.02 1850.76 2256.48 1850.7Z" stroke="#000000" stroke-width="3.4375" stroke-miterlimit="8" fill="#D6DBD9" fill-rule="evenodd"/><path d="M2207.24 1851.7 2222.35 1851.5C2226.68 1851.45 2230.22 1855.01 2230.31 1859.48L2230.5 1875.08C2230.55 1879.55 2227.1 1883.21 2222.77 1883.3L2207.65 1883.5C2203.33 1883.56 2199.78 1879.99 2199.7 1875.51L2199.5 1859.91C2199.42 1855.44 2202.9 1851.79 2207.24 1851.7Z" stroke="#000000" stroke-width="3.4375" stroke-miterlimit="8" fill="#D6DBD9" fill-rule="evenodd"/><path d="M2158.48 1852.69 2174.08 1852.5C2178.55 1852.45 2182.21 1855.9 2182.3 1860.23L2182.5 1875.35C2182.55 1879.68 2179 1883.22 2174.52 1883.31L2158.92 1883.5C2154.45 1883.55 2150.79 1880.1 2150.7 1875.76L2150.5 1860.65C2150.45 1856.29 2154.01 1852.75 2158.48 1852.69Z" stroke="#000000" stroke-width="3.4375" stroke-miterlimit="8" fill="#D6DBD9" fill-rule="evenodd"/><path d="M2118.24 1855.7 2133.35 1855.5C2137.68 1855.45 2141.22 1859.01 2141.31 1863.48L2141.5 1879.08C2141.55 1883.55 2138.1 1887.21 2133.77 1887.3L2118.66 1887.5C2114.33 1887.55 2110.78 1884 2110.7 1879.52L2110.5 1863.92C2110.42 1859.41 2113.91 1855.76 2118.24 1855.7Z" stroke="#000000" stroke-width="3.4375" stroke-miterlimit="8" fill="#D6DBD9" fill-rule="evenodd"/><path d="M2068.49 1856.7 2084.08 1856.5C2088.55 1856.45 2092.21 1860.01 2092.3 1864.48L2092.5 1880.08C2092.55 1884.55 2089 1888.21 2084.52 1888.3L2068.92 1888.5C2064.45 1888.55 2060.79 1884.99 2060.7 1880.51L2060.5 1864.91C2060.42 1860.44 2064.02 1856.76 2068.49 1856.7Z" stroke="#000000" stroke-width="3.4375" stroke-miterlimit="8" fill="#D6DBD9" fill-rule="evenodd"/><path d="M2023.48 1857.7 2039.08 1857.5C2043.55 1857.45 2047.21 1860.9 2047.3 1865.24L2047.5 1880.35C2047.55 1884.68 2044 1888.22 2039.52 1888.31L2023.92 1888.5C2019.45 1888.55 2015.79 1885.1 2015.7 1880.77L2015.5 1865.66C2015.45 1861.32 2019.02 1857.75 2023.48 1857.7Z" stroke="#000000" stroke-width="3.4375" stroke-miterlimit="8" fill="#D6DBD9" fill-rule="evenodd"/><path d="M1933.42 1863.25 1993.15 1862.5C1997.58 1862.45 2001.21 1865.94 2001.3 1870.35L2001.5 1885.67C2001.55 1890.07 1998.02 1893.66 1993.58 1893.75L1933.85 1894.5C1929.42 1894.55 1925.79 1891.06 1925.7 1886.65L1925.5 1871.33C1925.45 1866.9 1928.98 1863.31 1933.42 1863.25Z" stroke="#000000" stroke-width="3.4375" stroke-miterlimit="8" fill="#D6DBD9" fill-rule="evenodd"/><path d="M2590.49 1802.7 2606.08 1802.5C2610.55 1802.45 2614.21 1806.01 2614.3 1810.48L2614.5 1826.08C2614.55 1830.55 2611 1834.21 2606.52 1834.3L2590.92 1834.5C2586.45 1834.55 2582.79 1830.99 2582.7 1826.51L2582.5 1810.91C2582.42 1806.41 2585.98 1802.75 2590.49 1802.7Z" stroke="#000000" stroke-width="3.4375" stroke-miterlimit="8" fill="#D6DBD9" fill-rule="evenodd"/><path d="M2545.48 1803.7 2561.08 1803.5C2565.55 1803.45 2569.21 1807.01 2569.3 1811.49L2569.5 1827.08C2569.55 1831.55 2566 1835.21 2561.52 1835.3L2545.92 1835.5C2541.45 1835.56 2537.79 1832 2537.7 1827.52L2537.5 1811.92C2537.46 1807.41 2541.01 1803.76 2545.48 1803.7Z" stroke="#000000" stroke-width="3.4375" stroke-miterlimit="8" fill="#D6DBD9" fill-rule="evenodd"/><path d="M2497.24 1803.7 2512.35 1803.5C2516.68 1803.45 2520.22 1807.01 2520.31 1811.48L2520.5 1827.08C2520.55 1831.55 2517.1 1835.21 2512.77 1835.3L2497.66 1835.5C2493.32 1835.55 2489.78 1831.99 2489.7 1827.51L2489.5 1811.91C2489.41 1807.44 2492.9 1803.76 2497.24 1803.7Z" stroke="#000000" stroke-width="3.4375" stroke-miterlimit="8" fill="#D6DBD9" fill-rule="evenodd"/><path d="M2451.48 1804.7 2467.08 1804.5C2471.55 1804.45 2475.21 1808.01 2475.3 1812.48L2475.5 1828.08C2475.55 1832.55 2471.99 1836.21 2467.52 1836.3L2451.92 1836.5C2447.45 1836.56 2443.79 1833 2443.7 1828.52L2443.5 1812.92C2443.45 1808.45 2447.02 1804.76 2451.48 1804.7Z" stroke="#000000" stroke-width="3.4375" stroke-miterlimit="8" fill="#D6DBD9" fill-rule="evenodd"/><path d="M2397.48 1804.7 2413.08 1804.5C2417.55 1804.45 2421.21 1808.01 2421.3 1812.48L2421.5 1828.08C2421.55 1832.55 2418 1836.21 2413.52 1836.3L2397.92 1836.5C2393.45 1836.56 2389.79 1833 2389.7 1828.52L2389.5 1812.92C2389.45 1808.45 2393.01 1804.76 2397.48 1804.7Z" stroke="#000000" stroke-width="3.4375" stroke-miterlimit="8" fill="#D6DBD9" fill-rule="evenodd"/><path d="M2212.4 1807.49 2366.17 1805.5C2370.59 1805.44 2374.22 1809.03 2374.3 1813.54L2374.5 1829.24C2374.55 1833.74 2371.03 1837.43 2366.6 1837.51L2212.83 1839.5C2208.41 1839.56 2204.79 1835.97 2204.7 1831.46L2204.5 1815.76C2204.42 1811.22 2207.98 1807.54 2212.4 1807.49Z" stroke="#000000" stroke-width="3.4375" stroke-miterlimit="8" fill="#D6DBD9" fill-rule="evenodd"/><path d="M2166.48 1808.69 2182.08 1808.5C2186.55 1808.45 2190.21 1811.9 2190.3 1816.24L2190.5 1831.35C2190.55 1835.68 2187 1839.22 2182.52 1839.31L2166.92 1839.5C2162.45 1839.55 2158.79 1836.1 2158.7 1831.77L2158.5 1816.66C2158.45 1812.32 2162.02 1808.75 2166.48 1808.69Z" stroke="#000000" stroke-width="3.4375" stroke-miterlimit="8" fill="#D6DBD9" fill-rule="evenodd"/><path d="M2118.49 1808.7 2134.08 1808.5C2138.55 1808.45 2142.21 1812.01 2142.3 1816.48L2142.5 1832.08C2142.55 1836.55 2139 1840.21 2134.52 1840.3L2118.92 1840.5C2114.45 1840.55 2110.79 1837 2110.7 1832.52L2110.5 1816.92C2110.42 1812.44 2114.02 1808.75 2118.49 1808.7Z" stroke="#000000" stroke-width="3.4375" stroke-miterlimit="8" fill="#D6DBD9" fill-rule="evenodd"/><path d="M2073.24 1809.69 2088.35 1809.5C2092.68 1809.45 2096.22 1812.9 2096.3 1817.23L2096.5 1832.34C2096.55 1836.68 2093.1 1840.22 2088.76 1840.31L2073.65 1840.5C2069.32 1840.55 2065.78 1837.1 2065.69 1832.76L2065.5 1817.65C2065.45 1813.32 2068.9 1809.78 2073.24 1809.69Z" stroke="#000000" stroke-width="3.4375" stroke-miterlimit="8" fill="#D6DBD9" fill-rule="evenodd"/><path d="M2031.49 1809.7 2047.08 1809.5C2051.55 1809.45 2055.21 1813.01 2055.3 1817.48L2055.5 1833.08C2055.55 1837.55 2052 1841.21 2047.52 1841.3L2031.92 1841.5C2027.45 1841.55 2023.79 1837.99 2023.7 1833.51L2023.5 1817.91C2023.42 1813.44 2027.02 1809.76 2031.49 1809.7Z" stroke="#000000" stroke-width="3.4375" stroke-miterlimit="8" fill="#D6DBD9" fill-rule="evenodd"/><path d="M1982.49 1811.7 1998.08 1811.5C2002.55 1811.45 2006.21 1815.01 2006.3 1819.48L2006.5 1835.08C2006.55 1839.55 2003 1843.21 1998.52 1843.3L1982.92 1843.5C1978.45 1843.55 1974.79 1839.99 1974.7 1835.51L1974.5 1819.92C1974.42 1815.41 1978.01 1811.76 1982.49 1811.7Z" stroke="#000000" stroke-width="3.4375" stroke-miterlimit="8" fill="#D6DBD9" fill-rule="evenodd"/><path d="M1934.24 1812.7 1949.35 1812.5C1953.68 1812.45 1957.22 1816.01 1957.31 1820.48L1957.5 1836.08C1957.55 1840.55 1954.1 1844.21 1949.77 1844.3L1934.65 1844.5C1930.32 1844.55 1926.78 1840.99 1926.69 1836.52L1926.5 1820.92C1926.46 1816.41 1929.91 1812.76 1934.24 1812.7Z" stroke="#000000" stroke-width="3.4375" stroke-miterlimit="8" fill="#D6DBD9" fill-rule="evenodd"/><path d="M1857.24 1949.7 1872.35 1949.5C1876.68 1949.45 1880.22 1953.01 1880.31 1957.48L1880.5 1973.08C1880.55 1977.55 1877.1 1981.21 1872.77 1981.3L1857.65 1981.5C1853.32 1981.55 1849.78 1977.99 1849.7 1973.52L1849.5 1957.92C1849.41 1953.44 1852.9 1949.79 1857.24 1949.7Z" stroke="#000000" stroke-width="3.4375" stroke-miterlimit="8" fill="#D6DBD9" fill-rule="evenodd"/><path d="M1764.49 1950.7 1780.08 1950.5C1784.55 1950.45 1788.21 1954.01 1788.3 1958.48L1788.5 1974.08C1788.55 1978.55 1785 1982.21 1780.52 1982.3L1764.92 1982.5C1760.45 1982.56 1756.79 1979 1756.7 1974.52L1756.5 1958.92C1756.42 1954.44 1760.02 1950.75 1764.49 1950.7Z" stroke="#000000" stroke-width="3.4375" stroke-miterlimit="8" fill="#D6DBD9" fill-rule="evenodd"/><path d="M1811.48 1949.7 1827.08 1949.5C1831.55 1949.45 1835.21 1953.01 1835.3 1957.48L1835.5 1973.08C1835.55 1977.55 1832 1981.21 1827.52 1981.3L1811.92 1981.5C1807.45 1981.55 1803.79 1978 1803.7 1973.52L1803.5 1957.92C1803.45 1953.45 1807.01 1949.76 1811.48 1949.7Z" stroke="#000000" stroke-width="3.4375" stroke-miterlimit="8" fill="#D6DBD9" fill-rule="evenodd"/><path d="M1856.48 1904.7 1872.08 1904.5C1876.55 1904.45 1880.21 1908.01 1880.3 1912.48L1880.5 1928.08C1880.56 1932.55 1877 1936.21 1872.52 1936.3L1856.92 1936.5C1852.45 1936.55 1848.79 1932.99 1848.7 1928.52L1848.5 1912.92C1848.45 1908.45 1852.02 1904.76 1856.48 1904.7Z" stroke="#000000" stroke-width="3.4375" stroke-miterlimit="8" fill="#D6DBD9" fill-rule="evenodd"/><path d="M1810.48 1906.7 1826.08 1906.5C1830.55 1906.45 1834.21 1910.01 1834.3 1914.48L1834.5 1930.08C1834.55 1934.55 1831 1938.21 1826.52 1938.3L1810.92 1938.5C1806.45 1938.55 1802.79 1934.99 1802.7 1930.51L1802.5 1914.91C1802.45 1910.45 1806.02 1906.76 1810.48 1906.7Z" stroke="#000000" stroke-width="3.4375" stroke-miterlimit="8" fill="#D6DBD9" fill-rule="evenodd"/><path d="M1763.49 1907.7 1779.08 1907.5C1783.55 1907.45 1787.21 1911.01 1787.3 1915.48L1787.5 1931.08C1787.55 1935.55 1784 1939.21 1779.52 1939.3L1763.92 1939.5C1759.45 1939.55 1755.79 1936 1755.7 1931.52L1755.5 1915.92C1755.42 1911.41 1759.02 1907.75 1763.49 1907.7Z" stroke="#000000" stroke-width="3.4375" stroke-miterlimit="8" fill="#D6DBD9" fill-rule="evenodd"/><path d="M1855.48 1860.7 1871.08 1860.5C1875.55 1860.45 1879.21 1864.01 1879.3 1868.48L1879.5 1884.08C1879.55 1888.55 1876 1892.21 1871.52 1892.3L1855.92 1892.5C1851.45 1892.55 1847.79 1889 1847.7 1884.52L1847.5 1868.92C1847.46 1864.41 1851.02 1860.76 1855.48 1860.7Z" stroke="#000000" stroke-width="3.4375" stroke-miterlimit="8" fill="#D6DBD9" fill-rule="evenodd"/><path d="M1810.49 1865.7 1826.08 1865.5C1830.55 1865.45 1834.21 1869.01 1834.3 1873.48L1834.5 1889.08C1834.55 1893.55 1831 1897.21 1826.52 1897.3L1810.92 1897.5C1806.45 1897.56 1802.79 1894 1802.7 1889.52L1802.5 1873.92C1802.42 1869.41 1806.01 1865.76 1810.49 1865.7Z" stroke="#000000" stroke-width="3.4375" stroke-miterlimit="8" fill="#D6DBD9" fill-rule="evenodd"/><path d="M1761.49 1864.7 1777.08 1864.5C1781.55 1864.45 1785.21 1868.01 1785.3 1872.48L1785.5 1888.08C1785.55 1892.55 1782 1896.21 1777.52 1896.3L1761.92 1896.5C1757.45 1896.55 1753.79 1892.99 1753.7 1888.51L1753.5 1872.91C1753.42 1868.44 1757.02 1864.76 1761.49 1864.7Z" stroke="#000000" stroke-width="3.4375" stroke-miterlimit="8" fill="#D6DBD9" fill-rule="evenodd"/><path d="M1800.37 1819.39 1870.21 1818.5C1874.61 1818.44 1878.22 1822.04 1878.3 1826.56L1878.5 1842.31C1878.55 1846.83 1875.05 1850.52 1870.63 1850.61L1800.79 1851.5C1796.39 1851.56 1792.78 1847.96 1792.7 1843.44L1792.5 1827.69C1792.42 1823.13 1795.96 1819.45 1800.37 1819.39L1800.37 1819.39Z" stroke="#000000" stroke-width="3.4375" stroke-miterlimit="8" fill="#D6DBD9" fill-rule="evenodd"/><path d="M1761.24 1820.7 1776.35 1820.5C1780.68 1820.45 1784.22 1824.01 1784.31 1828.48L1784.5 1844.08C1784.55 1848.55 1781.1 1852.21 1776.77 1852.3L1761.65 1852.5C1757.33 1852.55 1753.78 1849 1753.7 1844.52L1753.5 1828.92C1753.42 1824.44 1756.9 1820.75 1761.24 1820.7Z" stroke="#000000" stroke-width="3.4375" stroke-miterlimit="8" fill="#D6DBD9" fill-rule="evenodd"/></g></svg>