<svg width="346" height="1002" xmlns="http://www.w3.org/2000/svg" xmlns:xlink="http://www.w3.org/1999/xlink" xml:space="preserve" overflow="hidden"><g transform="translate(-2055 -193)"><path d="M2378.97 235.524 2390.5 1148.45C2390.72 1166.4 2376.36 1181.11 2358.45 1181.34L2109.92 1184.5C2091.98 1184.72 2077.27 1170.36 2077.04 1152.44L2065.5 239.554C2065.28 221.603 2079.64 206.89 2097.55 206.663L2346.08 203.504C2363.99 203.242 2378.74 217.607 2378.97 235.524L2378.97 235.524Z" stroke="#000000" stroke-width="20.625" stroke-miterlimit="8" fill="#A6A897" fill-rule="evenodd"/><path d="M2150.14 908.34 2150.5 937.235C2150.55 941.624 2147.01 945.218 2142.56 945.303L2127.03 945.499C2122.59 945.554 2118.94 942.059 2118.86 937.66L2118.5 908.765C2118.45 904.376 2121.99 900.783 2126.45 900.698L2141.97 900.5C2146.45 900.453 2150.09 903.952 2150.14 908.34Z" stroke="#000000" stroke-width="3.4375" stroke-miterlimit="8" fill="#D6DBD9" fill-rule="evenodd"/><path d="M2148.14 769.34 2148.5 798.235C2148.55 802.624 2145.01 806.217 2140.55 806.302L2125.03 806.5C2120.59 806.554 2116.94 803.059 2116.86 798.66L2116.5 769.765C2116.45 765.376 2119.99 761.782 2124.45 761.697L2139.97 761.501C2144.41 761.45 2148.09 764.951 2148.14 769.34Z" stroke="#000000" stroke-width="3.4375" stroke-miterlimit="8" fill="#D6DBD9" fill-rule="evenodd"/><path d="M2152.14 1095.52 2152.5 1125.05C2152.55 1129.54 2149.01 1133.21 2144.56 1133.3L2129.03 1133.5C2124.59 1133.56 2120.94 1129.98 2120.86 1125.49L2120.5 1095.95C2120.45 1091.46 2123.99 1087.79 2128.45 1087.7L2143.97 1087.5C2148.42 1087.41 2152.09 1091.03 2152.14 1095.52Z" stroke="#000000" stroke-width="3.4375" stroke-miterlimit="8" fill="#D6DBD9" fill-rule="evenodd"/><path d="M2151.14 1033.52 2151.5 1063.05C2151.55 1067.54 2148.01 1071.21 2143.55 1071.3L2128.03 1071.5C2123.59 1071.56 2119.94 1067.98 2119.86 1063.49L2119.5 1033.95C2119.45 1029.46 2122.99 1025.79 2127.45 1025.7L2142.97 1025.5C2147.45 1025.42 2151.09 1029.03 2151.14 1033.52Z" stroke="#000000" stroke-width="3.4375" stroke-miterlimit="8" fill="#D6DBD9" fill-rule="evenodd"/><path d="M2145.14 526.338 2145.5 555.235C2145.55 559.624 2142.01 563.218 2137.55 563.303L2122.03 563.5C2117.59 563.554 2113.94 560.058 2113.86 555.663L2113.5 526.766C2113.45 522.377 2116.99 518.783 2121.45 518.699L2136.97 518.502C2141.42 518.413 2145.05 521.942 2145.14 526.338Z" stroke="#000000" stroke-width="3.4375" stroke-miterlimit="8" fill="#D6DBD9" fill-rule="evenodd"/><path d="M2151.14 970.338 2151.5 999.235C2151.55 1003.62 2148.01 1007.22 2143.56 1007.3L2128.03 1007.5C2123.59 1007.55 2119.94 1004.06 2119.86 999.659L2119.5 970.766C2119.45 966.377 2122.99 962.784 2127.45 962.699L2142.97 962.502C2147.42 962.413 2151.09 965.949 2151.14 970.338Z" stroke="#000000" stroke-width="3.4375" stroke-miterlimit="8" fill="#D6DBD9" fill-rule="evenodd"/><path d="M2147.14 706.514 2147.5 736.052C2147.55 740.538 2144.01 744.211 2139.55 744.298L2124.03 744.5C2119.59 744.555 2115.94 740.982 2115.86 736.486L2115.5 706.948C2115.45 702.462 2118.99 698.789 2123.45 698.702L2138.97 698.501C2143.41 698.445 2147.09 702.025 2147.14 706.514Z" stroke="#000000" stroke-width="3.4375" stroke-miterlimit="8" fill="#D6DBD9" fill-rule="evenodd"/><path d="M2146.15 646.514 2146.5 676.052C2146.55 680.537 2143.12 684.211 2138.8 684.298L2123.77 684.499C2119.46 684.555 2115.93 680.982 2115.85 676.486L2115.5 646.948C2115.45 642.462 2118.88 638.789 2123.2 638.702L2138.23 638.5C2142.57 638.452 2146.1 642.024 2146.15 646.514Z" stroke="#000000" stroke-width="3.4375" stroke-miterlimit="8" fill="#D6DBD9" fill-rule="evenodd"/><path d="M2146.14 586.515 2146.5 616.052C2146.55 620.538 2143.01 624.211 2138.56 624.298L2123.03 624.499C2118.59 624.555 2114.94 620.982 2114.86 616.486L2114.5 586.949C2114.45 582.463 2117.99 578.79 2122.45 578.703L2137.97 578.502C2142.42 578.415 2146.09 582.029 2146.14 586.515Z" stroke="#000000" stroke-width="3.4375" stroke-miterlimit="8" fill="#D6DBD9" fill-rule="evenodd"/><path d="M2149.14 838.515 2149.5 868.052C2149.55 872.538 2146.01 876.211 2141.55 876.298L2126.03 876.5C2121.59 876.555 2117.94 872.982 2117.86 868.486L2117.5 838.949C2117.45 834.463 2120.99 830.789 2125.45 830.703L2140.97 830.501C2145.45 830.418 2149.09 834.025 2149.14 838.515Z" stroke="#000000" stroke-width="3.4375" stroke-miterlimit="8" fill="#D6DBD9" fill-rule="evenodd"/><path d="M2142.14 456.341 2142.5 485.236C2142.55 489.624 2139.01 493.218 2134.56 493.303L2119.03 493.5C2114.59 493.554 2110.94 490.059 2110.86 485.66L2110.5 456.766C2110.45 452.377 2113.99 448.784 2118.45 448.699L2133.97 448.502C2138.42 448.413 2142.09 451.949 2142.14 456.341Z" stroke="#000000" stroke-width="3.4375" stroke-miterlimit="8" fill="#D6DBD9" fill-rule="evenodd"/><path d="M2197.74 1066.45 2198.5 1126.12C2198.56 1130.57 2194.95 1134.21 2190.4 1134.3L2174.59 1134.5C2170.05 1134.55 2166.34 1131.01 2166.26 1126.55L2165.5 1066.88C2165.44 1062.43 2169.05 1058.79 2173.6 1058.7L2189.41 1058.5C2193.99 1058.42 2197.69 1062 2197.74 1066.45Z" stroke="#000000" stroke-width="3.4375" stroke-miterlimit="8" fill="#D6DBD9" fill-rule="evenodd"/><path d="M2196.3 1016.24 2196.5 1031.35C2196.55 1035.68 2193 1039.22 2188.52 1039.31L2172.92 1039.5C2168.45 1039.55 2164.79 1036.1 2164.7 1031.76L2164.5 1016.65C2164.45 1012.32 2168.01 1008.78 2172.48 1008.7L2188.08 1008.5C2192.58 1008.45 2196.24 1011.9 2196.3 1016.24Z" stroke="#000000" stroke-width="3.4375" stroke-miterlimit="8" fill="#D6DBD9" fill-rule="evenodd"/><path d="M2196.3 970.485 2196.5 986.083C2196.55 990.553 2193 994.212 2188.52 994.299L2172.92 994.499C2168.45 994.555 2164.79 990.995 2164.7 986.515L2164.5 970.918C2164.45 966.448 2168.01 962.789 2172.49 962.702L2188.08 962.501C2192.56 962.415 2196.24 966.016 2196.3 970.485Z" stroke="#000000" stroke-width="3.4375" stroke-miterlimit="8" fill="#D6DBD9" fill-rule="evenodd"/><path d="M2195.3 922.485 2195.5 938.083C2195.55 942.552 2192 946.212 2187.52 946.299L2171.92 946.499C2167.45 946.555 2163.79 942.995 2163.7 938.515L2163.5 922.918C2163.45 918.448 2167.01 914.789 2171.48 914.702L2187.08 914.501C2191.56 914.415 2195.24 918.016 2195.3 922.485Z" stroke="#000000" stroke-width="3.4375" stroke-miterlimit="8" fill="#D6DBD9" fill-rule="evenodd"/><path d="M2194.31 877.482 2194.5 893.082C2194.55 897.552 2191.1 901.212 2186.76 901.299L2171.65 901.499C2167.32 901.555 2163.78 897.995 2163.69 893.518L2163.5 877.918C2163.45 873.448 2166.9 869.787 2171.24 869.701L2186.35 869.501C2190.71 869.449 2194.25 873.009 2194.31 877.482L2194.31 877.482Z" stroke="#000000" stroke-width="3.4375" stroke-miterlimit="8" fill="#D6DBD9" fill-rule="evenodd"/><path d="M2194.3 822.485 2194.5 838.083C2194.55 842.552 2191.1 846.213 2186.76 846.299L2171.65 846.499C2167.32 846.555 2163.78 842.995 2163.69 838.515L2163.5 822.918C2163.45 818.448 2166.9 814.789 2171.24 814.702L2186.35 814.501C2190.68 814.415 2194.26 818.016 2194.3 822.485Z" stroke="#000000" stroke-width="3.4375" stroke-miterlimit="8" fill="#D6DBD9" fill-rule="evenodd"/><path d="M2194.3 777.486 2194.5 793.083C2194.56 797.553 2191 801.213 2186.52 801.299L2170.92 801.5C2166.45 801.555 2162.79 797.995 2162.7 793.516L2162.5 777.918C2162.45 773.449 2166.01 769.789 2170.49 769.702L2186.08 769.502C2190.59 769.418 2194.24 773.013 2194.3 777.486Z" stroke="#000000" stroke-width="3.4375" stroke-miterlimit="8" fill="#D6DBD9" fill-rule="evenodd"/><path d="M2193.3 729.485 2193.5 745.083C2193.55 749.552 2190 753.212 2185.52 753.299L2169.92 753.499C2165.45 753.555 2161.79 749.995 2161.7 745.515L2161.5 729.917C2161.45 725.448 2165.01 721.788 2169.48 721.701L2185.08 721.5C2189.59 721.455 2193.24 725.015 2193.3 729.485Z" stroke="#000000" stroke-width="3.4375" stroke-miterlimit="8" fill="#D6DBD9" fill-rule="evenodd"/><path d="M2192.3 686.485 2192.5 702.083C2192.55 706.553 2189 710.212 2184.52 710.299L2168.92 710.5C2164.45 710.555 2160.79 706.995 2160.7 702.515L2160.5 686.917C2160.45 682.448 2164 678.788 2168.48 678.701L2184.08 678.501C2188.55 678.449 2192.24 682.015 2192.3 686.485Z" stroke="#000000" stroke-width="3.4375" stroke-miterlimit="8" fill="#D6DBD9" fill-rule="evenodd"/><path d="M2192.3 637.484 2192.5 653.083C2192.56 657.552 2189 661.212 2184.52 661.299L2168.92 661.5C2164.45 661.555 2160.79 657.995 2160.7 653.515L2160.5 637.917C2160.45 633.448 2164.01 629.788 2168.49 629.701L2184.08 629.501C2188.55 629.445 2192.24 633.012 2192.3 637.484Z" stroke="#000000" stroke-width="3.4375" stroke-miterlimit="8" fill="#D6DBD9" fill-rule="evenodd"/><path d="M2191.3 592.485 2191.5 608.083C2191.55 612.552 2188 616.212 2183.52 616.299L2167.92 616.5C2163.45 616.555 2159.79 612.995 2159.7 608.515L2159.5 592.918C2159.45 588.448 2163.01 584.789 2167.48 584.702L2183.08 584.502C2187.56 584.412 2191.24 588.013 2191.3 592.485Z" stroke="#000000" stroke-width="3.4375" stroke-miterlimit="8" fill="#D6DBD9" fill-rule="evenodd"/><path d="M2190.3 544.236 2190.5 559.346C2190.55 563.676 2187.1 567.221 2182.76 567.305L2167.65 567.5C2163.32 567.553 2159.78 564.105 2159.69 559.765L2159.5 544.655C2159.45 540.325 2162.9 536.779 2167.24 536.696L2182.35 536.502C2186.71 536.424 2190.25 539.906 2190.3 544.236Z" stroke="#000000" stroke-width="3.4375" stroke-miterlimit="8" fill="#D6DBD9" fill-rule="evenodd"/><path d="M2190.3 498.485 2190.5 514.083C2190.55 518.552 2187 522.212 2182.52 522.299L2166.92 522.499C2162.45 522.555 2158.79 518.995 2158.7 514.515L2158.5 498.917C2158.45 494.448 2162.01 490.788 2166.48 490.701L2182.08 490.5C2186.59 490.455 2190.24 494.015 2190.3 498.485Z" stroke="#000000" stroke-width="3.4375" stroke-miterlimit="8" fill="#D6DBD9" fill-rule="evenodd"/><path d="M2190.3 457.236 2190.5 472.346C2190.56 476.676 2187 480.221 2182.52 480.305L2166.92 480.5C2162.45 480.553 2158.79 477.105 2158.7 472.765L2158.5 457.655C2158.45 453.325 2162.01 449.78 2166.49 449.696L2182.08 449.502C2186.59 449.421 2190.24 452.903 2190.3 457.236Z" stroke="#000000" stroke-width="3.4375" stroke-miterlimit="8" fill="#D6DBD9" fill-rule="evenodd"/><path d="M2242.3 952.233 2242.5 967.345C2242.56 971.676 2239 975.221 2234.52 975.305L2218.92 975.5C2214.45 975.553 2210.79 972.104 2210.7 967.767L2210.5 952.655C2210.45 948.325 2214.01 944.779 2218.49 944.695L2234.08 944.501C2238.55 944.447 2242.24 947.903 2242.3 952.233Z" stroke="#000000" stroke-width="3.4375" stroke-miterlimit="8" fill="#D6DBD9" fill-rule="evenodd"/><path d="M2242.3 901.484 2242.5 917.083C2242.56 921.552 2239 925.212 2234.52 925.299L2218.92 925.5C2214.45 925.555 2210.79 921.995 2210.7 917.515L2210.5 901.917C2210.45 897.447 2214.01 893.788 2218.48 893.701L2234.08 893.501C2238.55 893.449 2242.25 897.015 2242.3 901.484Z" stroke="#000000" stroke-width="3.4375" stroke-miterlimit="8" fill="#D6DBD9" fill-rule="evenodd"/><path d="M2241.3 854.486 2241.5 870.083C2241.56 874.553 2238 878.213 2233.52 878.299L2217.92 878.499C2213.45 878.555 2209.79 874.996 2209.7 870.515L2209.5 854.918C2209.45 850.449 2213.01 846.789 2217.48 846.702L2233.08 846.502C2237.56 846.415 2241.25 850.013 2241.3 854.486Z" stroke="#000000" stroke-width="3.4375" stroke-miterlimit="8" fill="#D6DBD9" fill-rule="evenodd"/><path d="M2240.3 807.235 2240.5 822.346C2240.56 826.676 2237 830.221 2232.52 830.305L2216.92 830.5C2212.45 830.553 2208.79 827.105 2208.7 822.765L2208.5 807.654C2208.45 803.324 2212.01 799.779 2216.49 799.695L2232.08 799.5C2236.59 799.454 2240.25 802.905 2240.3 807.235Z" stroke="#000000" stroke-width="3.4375" stroke-miterlimit="8" fill="#D6DBD9" fill-rule="evenodd"/><path d="M2240.3 757.483 2240.5 773.082C2240.55 777.552 2237 781.212 2232.52 781.299L2216.92 781.5C2212.45 781.555 2208.79 777.995 2208.7 773.518L2208.5 757.919C2208.45 753.449 2212.01 749.789 2216.49 749.702L2232.08 749.502C2236.56 749.412 2240.24 753.01 2240.3 757.483Z" stroke="#000000" stroke-width="3.4375" stroke-miterlimit="8" fill="#D6DBD9" fill-rule="evenodd"/><path d="M2239.3 709.486 2239.5 725.083C2239.55 729.553 2236 733.212 2231.52 733.299L2215.92 733.499C2211.45 733.555 2207.79 729.995 2207.7 725.516L2207.5 709.918C2207.45 705.449 2211.01 701.789 2215.48 701.702L2231.08 701.502C2235.56 701.415 2239.24 705.016 2239.3 709.486Z" stroke="#000000" stroke-width="3.4375" stroke-miterlimit="8" fill="#D6DBD9" fill-rule="evenodd"/><path d="M2235.3 668.483 2235.5 684.082C2235.55 688.552 2232 692.212 2227.52 692.299L2211.92 692.5C2207.45 692.555 2203.79 688.995 2203.7 684.518L2203.5 668.919C2203.45 664.449 2207.01 660.789 2211.49 660.702L2227.08 660.501C2231.59 660.418 2235.24 664.013 2235.3 668.483Z" stroke="#000000" stroke-width="3.4375" stroke-miterlimit="8" fill="#D6DBD9" fill-rule="evenodd"/><path d="M2234.3 619.483 2234.5 635.083C2234.55 639.552 2231.1 643.212 2226.76 643.299L2211.65 643.5C2207.32 643.555 2203.78 639.995 2203.69 635.518L2203.5 619.919C2203.45 615.449 2206.9 611.789 2211.24 611.702L2226.35 611.502C2230.71 611.415 2234.25 615.01 2234.3 619.483Z" stroke="#000000" stroke-width="3.4375" stroke-miterlimit="8" fill="#D6DBD9" fill-rule="evenodd"/><path d="M2234.3 574.485 2234.5 590.083C2234.55 594.552 2231 598.212 2226.52 598.299L2210.92 598.5C2206.45 598.555 2202.79 594.995 2202.7 590.515L2202.5 574.917C2202.45 570.448 2206.01 566.788 2210.48 566.701L2226.08 566.5C2230.59 566.452 2234.24 570.015 2234.3 574.485Z" stroke="#000000" stroke-width="3.4375" stroke-miterlimit="8" fill="#D6DBD9" fill-rule="evenodd"/><path d="M2233.3 526.235 2233.5 541.346C2233.55 545.676 2229.99 549.221 2225.52 549.305L2209.92 549.5C2205.45 549.553 2201.79 546.105 2201.7 541.765L2201.5 526.654C2201.44 522.324 2205 518.779 2209.48 518.695L2225.08 518.501C2229.55 518.45 2233.24 521.905 2233.3 526.235Z" stroke="#000000" stroke-width="3.4375" stroke-miterlimit="8" fill="#D6DBD9" fill-rule="evenodd"/><path d="M2243.5 1045.41 2244.5 1125.16C2244.55 1129.59 2241.08 1133.21 2236.71 1133.3L2221.51 1133.5C2217.15 1133.55 2213.58 1130.03 2213.5 1125.59L2212.5 1045.84C2212.45 1041.41 2215.92 1037.79 2220.28 1037.7L2235.49 1037.5C2239.86 1037.41 2243.45 1040.98 2243.5 1045.41Z" stroke="#000000" stroke-width="3.4375" stroke-miterlimit="8" fill="#D6DBD9" fill-rule="evenodd"/><path d="M2291.3 975.235 2291.5 990.346C2291.55 994.676 2288 998.221 2283.52 998.306L2267.92 998.5C2263.45 998.553 2259.79 995.105 2259.7 990.765L2259.5 975.654C2259.45 971.325 2263.01 967.779 2267.49 967.695L2283.08 967.501C2287.55 967.447 2291.24 970.902 2291.3 975.235Z" stroke="#000000" stroke-width="3.4375" stroke-miterlimit="8" fill="#D6DBD9" fill-rule="evenodd"/><path d="M2242.31 1001.48 2242.5 1017.08C2242.55 1021.55 2239.1 1025.21 2234.76 1025.3L2219.65 1025.5C2215.32 1025.55 2211.78 1021.99 2211.69 1017.52L2211.5 1001.92C2211.45 997.449 2214.9 993.789 2219.23 993.702L2234.35 993.502C2238.68 993.412 2242.25 997.013 2242.31 1001.48Z" stroke="#000000" stroke-width="3.4375" stroke-miterlimit="8" fill="#D6DBD9" fill-rule="evenodd"/><path d="M2234.03 461.492 2234.5 500.075C2234.55 504.548 2231.02 508.212 2226.58 508.299L2211.12 508.499C2206.69 508.555 2203.06 504.992 2202.97 500.508L2202.5 461.925C2202.45 457.451 2205.98 453.788 2210.42 453.701L2225.88 453.5C2230.35 453.452 2233.98 457.018 2234.03 461.492L2234.03 461.492Z" stroke="#000000" stroke-width="3.4375" stroke-miterlimit="8" fill="#D6DBD9" fill-rule="evenodd"/><path d="M2290.2 1023.47 2291.5 1125.1C2291.55 1129.56 2288.01 1133.21 2283.54 1133.3L2267.99 1133.5C2263.53 1133.55 2259.88 1130 2259.8 1125.53L2258.5 1023.9C2258.45 1019.44 2261.99 1015.79 2266.46 1015.7L2282.01 1015.5C2286.47 1015.45 2290.15 1019.01 2290.2 1023.47Z" stroke="#000000" stroke-width="3.4375" stroke-miterlimit="8" fill="#D6DBD9" fill-rule="evenodd"/><path d="M2289.3 926.483 2289.5 942.082C2289.55 946.552 2286 950.212 2281.52 950.299L2265.92 950.499C2261.45 950.555 2257.79 946.995 2257.7 942.518L2257.5 926.919C2257.45 922.449 2261.01 918.789 2265.48 918.702L2281.08 918.502C2285.56 918.412 2289.25 922.013 2289.3 926.483Z" stroke="#000000" stroke-width="3.4375" stroke-miterlimit="8" fill="#D6DBD9" fill-rule="evenodd"/><path d="M2288.3 873.485 2288.5 889.083C2288.55 893.553 2284.99 897.212 2280.52 897.299L2264.92 897.5C2260.45 897.555 2256.79 893.995 2256.7 889.516L2256.5 873.918C2256.44 869.449 2260 865.788 2264.48 865.702L2280.08 865.502C2284.59 865.422 2288.24 869.016 2288.3 873.485Z" stroke="#000000" stroke-width="3.4375" stroke-miterlimit="8" fill="#D6DBD9" fill-rule="evenodd"/><path d="M2288.3 826.485 2288.5 842.083C2288.55 846.553 2284.99 850.212 2280.52 850.299L2264.92 850.5C2260.45 850.555 2256.79 846.995 2256.7 842.515L2256.5 826.918C2256.44 822.448 2260 818.788 2264.48 818.702L2280.08 818.501C2284.59 818.422 2288.24 822.016 2288.3 826.485Z" stroke="#000000" stroke-width="3.4375" stroke-miterlimit="8" fill="#D6DBD9" fill-rule="evenodd"/><path d="M2287.3 779.235 2287.5 794.346C2287.55 798.676 2284 802.221 2279.52 802.306L2263.92 802.5C2259.45 802.553 2255.79 799.105 2255.7 794.765L2255.5 779.654C2255.44 775.324 2259 771.779 2263.48 771.695L2279.08 771.501C2283.55 771.45 2287.24 774.905 2287.3 779.235Z" stroke="#000000" stroke-width="3.4375" stroke-miterlimit="8" fill="#D6DBD9" fill-rule="evenodd"/><path d="M2286.3 729.483 2286.5 745.083C2286.56 749.552 2283 753.212 2278.52 753.299L2262.92 753.5C2258.45 753.555 2254.79 749.995 2254.7 745.518L2254.5 729.919C2254.45 725.449 2258.01 721.789 2262.49 721.702L2278.08 721.502C2282.56 721.412 2286.21 725.006 2286.3 729.483Z" stroke="#000000" stroke-width="3.4375" stroke-miterlimit="8" fill="#D6DBD9" fill-rule="evenodd"/><path d="M2285.31 681.484 2285.5 697.083C2285.55 701.552 2282.1 705.212 2277.77 705.299L2262.65 705.499C2258.32 705.555 2254.78 701.995 2254.7 697.515L2254.5 681.917C2254.45 677.447 2257.9 673.788 2262.24 673.701L2277.35 673.5C2281.71 673.455 2285.25 677.015 2285.31 681.484Z" stroke="#000000" stroke-width="3.4375" stroke-miterlimit="8" fill="#D6DBD9" fill-rule="evenodd"/><path d="M2282.3 640.483 2282.5 656.082C2282.56 660.552 2279 664.212 2274.52 664.299L2258.92 664.5C2254.45 664.555 2250.79 660.995 2250.7 656.518L2250.5 640.919C2250.45 636.449 2254.01 632.789 2258.49 632.702L2274.08 632.501C2278.59 632.418 2282.24 636.013 2282.3 640.483Z" stroke="#000000" stroke-width="3.4375" stroke-miterlimit="8" fill="#D6DBD9" fill-rule="evenodd"/><path d="M2281.3 591.483 2281.5 607.082C2281.55 611.552 2278 615.212 2273.52 615.299L2257.92 615.499C2253.45 615.555 2249.79 611.995 2249.7 607.518L2249.5 591.919C2249.45 587.449 2253.01 583.789 2257.49 583.702L2273.08 583.502C2277.56 583.408 2281.25 587.01 2281.3 591.483Z" stroke="#000000" stroke-width="3.4375" stroke-miterlimit="8" fill="#D6DBD9" fill-rule="evenodd"/><path d="M2280.31 546.485 2280.5 562.083C2280.55 566.553 2277.1 570.213 2272.76 570.299L2257.65 570.5C2253.32 570.555 2249.78 566.995 2249.69 562.516L2249.5 546.917C2249.45 542.448 2252.9 538.788 2257.24 538.701L2272.35 538.501C2276.68 538.449 2280.26 542.015 2280.31 546.485Z" stroke="#000000" stroke-width="3.4375" stroke-miterlimit="8" fill="#D6DBD9" fill-rule="evenodd"/><path d="M2274.75 455.526 2275.5 516.04C2275.55 520.532 2272.06 524.211 2267.65 524.298L2252.33 524.5C2247.93 524.555 2244.34 520.977 2244.25 516.474L2243.5 455.961C2243.45 451.468 2246.94 447.789 2251.35 447.702L2266.67 447.5C2271.1 447.452 2274.7 451.03 2274.75 455.526Z" stroke="#000000" stroke-width="3.4375" stroke-miterlimit="8" fill="#D6DBD9" fill-rule="evenodd"/><path d="M2335.3 1113.49 2335.5 1129.08C2335.55 1133.55 2332 1137.21 2327.52 1137.3L2311.92 1137.5C2307.45 1137.56 2303.79 1134 2303.7 1129.52L2303.5 1113.92C2303.45 1109.45 2307.01 1105.79 2311.49 1105.7L2327.08 1105.5C2331.59 1105.42 2335.25 1108.98 2335.3 1113.49Z" stroke="#000000" stroke-width="3.4375" stroke-miterlimit="8" fill="#D6DBD9" fill-rule="evenodd"/><path d="M2334.3 1067.48 2334.5 1083.08C2334.55 1087.55 2331 1091.21 2326.52 1091.3L2310.92 1091.5C2306.45 1091.55 2302.79 1088 2302.7 1083.52L2302.5 1067.92C2302.45 1063.45 2306.01 1059.79 2310.49 1059.7L2326.08 1059.5C2330.59 1059.45 2334.24 1063.02 2334.3 1067.48Z" stroke="#000000" stroke-width="3.4375" stroke-miterlimit="8" fill="#D6DBD9" fill-rule="evenodd"/><path d="M2334.3 1019.48 2334.5 1035.08C2334.55 1039.55 2331 1043.21 2326.52 1043.3L2310.92 1043.5C2306.45 1043.55 2302.79 1040 2302.7 1035.52L2302.5 1019.92C2302.45 1015.45 2306.01 1011.79 2310.48 1011.7L2326.08 1011.5C2330.56 1011.41 2334.24 1015.01 2334.3 1019.48Z" stroke="#000000" stroke-width="3.4375" stroke-miterlimit="8" fill="#D6DBD9" fill-rule="evenodd"/><path d="M2333.3 974.482 2333.5 990.082C2333.55 994.552 2330 998.212 2325.52 998.299L2309.92 998.5C2305.45 998.555 2301.79 994.995 2301.7 990.518L2301.5 974.918C2301.45 970.448 2305.01 966.788 2309.48 966.701L2325.08 966.501C2329.55 966.442 2333.24 970.009 2333.3 974.482Z" stroke="#000000" stroke-width="3.4375" stroke-miterlimit="8" fill="#D6DBD9" fill-rule="evenodd"/><path d="M2333.3 920.235 2333.5 935.346C2333.55 939.676 2330 943.221 2325.52 943.306L2309.92 943.5C2305.45 943.553 2301.79 940.105 2301.7 935.765L2301.5 920.654C2301.45 916.324 2305.01 912.779 2309.48 912.695L2325.08 912.501C2329.55 912.451 2333.25 915.906 2333.3 920.235Z" stroke="#000000" stroke-width="3.4375" stroke-miterlimit="8" fill="#D6DBD9" fill-rule="evenodd"/><path d="M2330.51 734.447 2332.5 889.12C2332.56 893.57 2328.97 897.214 2324.46 897.3L2308.76 897.5C2304.26 897.555 2300.57 894.011 2300.49 889.554L2298.5 734.88C2298.45 730.431 2302.03 726.787 2306.54 726.701L2322.24 726.501C2326.78 726.418 2330.46 729.997 2330.51 734.447Z" stroke="#000000" stroke-width="3.4375" stroke-miterlimit="8" fill="#D6DBD9" fill-rule="evenodd"/><path d="M2330.3 689.485 2330.5 705.083C2330.56 709.553 2327 713.213 2322.52 713.299L2306.92 713.5C2302.45 713.555 2298.79 709.995 2298.7 705.516L2298.5 689.917C2298.45 685.448 2302.01 681.788 2306.48 681.702L2322.08 681.501C2326.55 681.445 2330.24 685.012 2330.3 689.485Z" stroke="#000000" stroke-width="3.4375" stroke-miterlimit="8" fill="#D6DBD9" fill-rule="evenodd"/><path d="M2329.3 641.236 2329.5 656.346C2329.56 660.676 2326 664.221 2321.52 664.305L2305.92 664.499C2301.45 664.553 2297.79 661.105 2297.7 656.765L2297.5 641.655C2297.45 637.325 2301.01 633.78 2305.49 633.696L2321.08 633.501C2325.56 633.418 2329.24 636.906 2329.3 641.236Z" stroke="#000000" stroke-width="3.4375" stroke-miterlimit="8" fill="#D6DBD9" fill-rule="evenodd"/><path d="M2328.31 595.482 2328.5 611.082C2328.55 615.552 2325.1 619.213 2320.77 619.299L2305.65 619.5C2301.32 619.555 2297.78 615.995 2297.7 611.518L2297.5 595.918C2297.45 591.448 2300.9 587.788 2305.24 587.701L2320.35 587.501C2324.68 587.445 2328.22 591.005 2328.31 595.482Z" stroke="#000000" stroke-width="3.4375" stroke-miterlimit="8" fill="#D6DBD9" fill-rule="evenodd"/><path d="M2328.3 554.236 2328.5 569.346C2328.55 573.676 2325 577.221 2320.52 577.305L2304.92 577.5C2300.45 577.553 2296.79 574.105 2296.7 569.765L2296.5 554.655C2296.45 550.325 2300.01 546.78 2304.48 546.696L2320.08 546.502C2324.56 546.415 2328.24 549.903 2328.3 554.236Z" stroke="#000000" stroke-width="3.4375" stroke-miterlimit="8" fill="#D6DBD9" fill-rule="evenodd"/><path d="M2326.3 504.485 2326.5 520.083C2326.56 524.552 2323 528.212 2318.52 528.299L2302.92 528.5C2298.45 528.555 2294.79 524.995 2294.7 520.515L2294.5 504.918C2294.45 500.448 2298.01 496.789 2302.49 496.702L2318.08 496.501C2322.59 496.418 2326.25 500.013 2326.3 504.485Z" stroke="#000000" stroke-width="3.4375" stroke-miterlimit="8" fill="#D6DBD9" fill-rule="evenodd"/><path d="M2325.3 456.485 2325.5 472.083C2325.55 476.553 2322 480.212 2317.52 480.299L2301.92 480.5C2297.45 480.555 2293.79 476.995 2293.7 472.515L2293.5 456.917C2293.45 452.448 2297.01 448.788 2301.48 448.701L2317.08 448.5C2321.58 448.452 2325.24 452.015 2325.3 456.485Z" stroke="#000000" stroke-width="3.4375" stroke-miterlimit="8" fill="#D6DBD9" fill-rule="evenodd"/><path d="M2188.3 379.486 2188.5 395.083C2188.56 399.553 2185 403.212 2180.52 403.299L2164.92 403.499C2160.45 403.555 2156.79 399.995 2156.7 395.516L2156.5 379.918C2156.44 375.449 2160 371.789 2164.48 371.702L2180.08 371.502C2184.56 371.415 2188.21 375.009 2188.3 379.486Z" stroke="#000000" stroke-width="3.4375" stroke-miterlimit="8" fill="#D6DBD9" fill-rule="evenodd"/><path d="M2187.3 286.485 2187.5 302.083C2187.56 306.553 2184 310.212 2179.52 310.299L2163.92 310.499C2159.45 310.555 2155.79 306.995 2155.7 302.516L2155.5 286.918C2155.45 282.448 2159.01 278.789 2163.48 278.702L2179.08 278.501C2183.56 278.415 2187.24 282.013 2187.3 286.485Z" stroke="#000000" stroke-width="3.4375" stroke-miterlimit="8" fill="#D6DBD9" fill-rule="evenodd"/><path d="M2188.3 334.235 2188.5 349.346C2188.56 353.676 2185 357.221 2180.52 357.305L2164.92 357.5C2160.45 357.553 2156.79 354.105 2156.7 349.765L2156.5 334.654C2156.44 330.324 2160 326.779 2164.48 326.695L2180.08 326.501C2184.55 326.45 2188.24 329.905 2188.3 334.235Z" stroke="#000000" stroke-width="3.4375" stroke-miterlimit="8" fill="#D6DBD9" fill-rule="evenodd"/><path d="M2233.3 379.235 2233.5 394.346C2233.55 398.676 2229.99 402.221 2225.52 402.305L2209.92 402.5C2205.45 402.553 2201.79 399.105 2201.7 394.765L2201.5 379.654C2201.44 375.325 2205 371.779 2209.48 371.695L2225.08 371.501C2229.55 371.447 2233.24 374.902 2233.3 379.235Z" stroke="#000000" stroke-width="3.4375" stroke-miterlimit="8" fill="#D6DBD9" fill-rule="evenodd"/><path d="M2231.3 333.485 2231.5 349.083C2231.56 353.553 2228 357.212 2223.52 357.299L2207.92 357.5C2203.45 357.555 2199.79 353.995 2199.7 349.515L2199.5 333.917C2199.45 329.448 2203.01 325.788 2207.48 325.701L2223.08 325.501C2227.55 325.445 2231.24 329.012 2231.3 333.485Z" stroke="#000000" stroke-width="3.4375" stroke-miterlimit="8" fill="#D6DBD9" fill-rule="evenodd"/><path d="M2230.3 286.485 2230.5 302.083C2230.56 306.553 2227 310.212 2222.52 310.299L2206.92 310.5C2202.45 310.555 2198.79 306.995 2198.7 302.515L2198.5 286.918C2198.45 282.448 2202.01 278.788 2206.49 278.702L2222.08 278.501C2226.59 278.421 2230.24 282.016 2230.3 286.485Z" stroke="#000000" stroke-width="3.4375" stroke-miterlimit="8" fill="#D6DBD9" fill-rule="evenodd"/><path d="M2277.3 378.485 2277.5 394.083C2277.55 398.552 2273.99 402.212 2269.52 402.299L2253.92 402.499C2249.45 402.555 2245.79 398.995 2245.7 394.515L2245.5 378.917C2245.44 374.448 2249 370.788 2253.48 370.701L2269.08 370.5C2273.58 370.455 2277.24 374.015 2277.3 378.485Z" stroke="#000000" stroke-width="3.4375" stroke-miterlimit="8" fill="#D6DBD9" fill-rule="evenodd"/><path d="M2272.3 332.486 2272.5 348.083C2272.55 352.553 2269 356.213 2264.52 356.299L2248.92 356.5C2244.45 356.555 2240.79 352.996 2240.7 348.516L2240.5 332.918C2240.45 328.448 2244.01 324.789 2248.49 324.702L2264.08 324.501C2268.59 324.418 2272.24 328.013 2272.3 332.486Z" stroke="#000000" stroke-width="3.4375" stroke-miterlimit="8" fill="#D6DBD9" fill-rule="evenodd"/><path d="M2273.3 284.236 2273.5 299.346C2273.55 303.676 2270 307.222 2265.52 307.305L2249.92 307.499C2245.45 307.553 2241.79 304.105 2241.7 299.765L2241.5 284.655C2241.45 280.325 2245.01 276.78 2249.49 276.696L2265.08 276.501C2269.56 276.418 2273.25 279.903 2273.3 284.236Z" stroke="#000000" stroke-width="3.4375" stroke-miterlimit="8" fill="#D6DBD9" fill-rule="evenodd"/><path d="M2318.61 322.457 2319.5 393.113C2319.56 397.566 2315.96 401.213 2311.44 401.299L2295.69 401.5C2291.17 401.555 2287.48 398.008 2287.39 393.543L2286.5 322.889C2286.44 318.435 2290.04 314.787 2294.56 314.701L2310.31 314.501C2314.87 314.422 2318.56 318.004 2318.61 322.457L2318.61 322.457Z" stroke="#000000" stroke-width="3.4375" stroke-miterlimit="8" fill="#D6DBD9" fill-rule="evenodd"/><path d="M2317.3 283.485 2317.5 299.083C2317.56 303.553 2314 307.213 2309.52 307.299L2293.92 307.5C2289.45 307.555 2285.79 303.996 2285.7 299.516L2285.5 283.918C2285.45 279.448 2289.01 275.789 2293.49 275.702L2309.08 275.502C2313.56 275.412 2317.24 279.013 2317.3 283.485Z" stroke="#000000" stroke-width="3.4375" stroke-miterlimit="8" fill="#D6DBD9" fill-rule="evenodd"/></g></svg>