<svg width="2446" height="1266" xmlns="http://www.w3.org/2000/svg" xmlns:xlink="http://www.w3.org/1999/xlink" xml:space="preserve" overflow="hidden"><defs><clipPath id="clip0"><rect x="190" y="1049" width="2446" height="1266"/></clipPath></defs><g clip-path="url(#clip0)" transform="translate(-190 -1049)"><path d="M1337 1716 2636 1716 2636 1736 1337 1736Z" fill="#E2A9CB" fill-rule="evenodd"/><path d="M1337 1720 2636 1720 2636 1732 1337 1732Z" fill="#7E4899" fill-rule="evenodd"/><path d="M1329.71 1739.5 1230.29 1739.5C1225.99 1739.5 1222.5 1736.07 1222.5 1731.85L1222.5 1721.15C1222.5 1716.93 1225.99 1713.5 1230.29 1713.5L1329.71 1713.5C1334.01 1713.5 1337.5 1716.93 1337.5 1721.15L1337.5 1731.85C1337.5 1736.07 1334.01 1739.5 1329.71 1739.5Z" stroke="#000000" stroke-width="6.875" stroke-miterlimit="8" fill="#CBC49C" fill-rule="evenodd"/><path d="M1221.28 1748.5 1214.72 1748.5C1211.29 1748.5 1208.5 1745.7 1208.5 1742.24L1208.5 1710.76C1208.5 1707.3 1211.29 1704.5 1214.72 1704.5L1221.28 1704.5C1224.71 1704.5 1227.5 1707.3 1227.5 1710.76L1227.5 1742.24C1227.5 1745.7 1224.71 1748.5 1221.28 1748.5Z" stroke="#000000" stroke-width="6.875" stroke-miterlimit="8" fill="#CBC49C" fill-rule="evenodd"/><path d="M1202.09 1757.5 1190.91 1757.5C1185.71 1757.5 1181.5 1753.24 1181.5 1747.98L1181.5 1702.02C1181.5 1696.76 1185.71 1692.5 1190.91 1692.5L1202.09 1692.5C1207.29 1692.5 1211.5 1696.76 1211.5 1702.02L1211.5 1747.98C1211.5 1753.24 1207.29 1757.5 1202.09 1757.5Z" stroke="#000000" stroke-width="6.875" stroke-miterlimit="8" fill="#CBC49C" fill-rule="evenodd"/><path d="M494.5 2100.5C496.731 2105.01 498.55 2108.9 499.889 2111.9 504.591 2122.47 507.44 2130.7 508.538 2133.9 511.421 2142.26 511.524 2143.88 517.29 2163.78 526.558 2195.73 527.313 2195.05 529.543 2205.99 532.633 2221.04 531.054 2221.42 534.795 2242.9 538.262 2262.77 540.115 2272.82 545.298 2279.81 546.636 2281.6 559.885 2298.92 578.591 2297.41 590.878 2296.41 599.047 2287.77 604.882 2281.57 608.417 2277.85 611.163 2274.03 624.171 2246.42 631.688 2230.47 635.497 2222.31 638.209 2214.77 639.65 2210.78 640.611 2207.58 641.332 2204.79 644.284 2193.53 646.172 2186.27 646.961 2183.13 648.78 2175.9 653.139 2165.64 664.5 2153.25 607.833 2135.65 551.167 2118.09 494.5 2100.5L494.5 2100.5Z" stroke="#000000" stroke-width="20.625" stroke-miterlimit="8" fill="#EBE2B3" fill-rule="evenodd"/><path d="M851.5 2144.1C859.064 2161.46 866.628 2181.2 873.508 2203.17 880.285 2224.88 885.283 2245.2 888.979 2263.7 907.941 2310.72 957.879 2299.15 963.869 2249.64 970.818 2227.87 977.526 2204.66 983.721 2180.06 989.3 2157.91 994.024 2136.55 997.994 2116.16 998.508 2105.93 998.987 2095.7 999.5 2085.5L851.569 2144.1 851.5 2144.1Z" stroke="#000000" stroke-width="20.625" stroke-miterlimit="8" fill="#EBE2B3" fill-rule="evenodd"/><path d="M289.769 1687.54C287.363 1677.88 284.579 1663.28 284.511 1645.41 284.442 1626.4 287.535 1621.18 288.016 1605.06 288.979 1573.13 277.534 1571.31 277.5 1543.64 277.5 1510.79 293.515 1485.01 298.567 1476.97 310.046 1458.58 314.616 1461.19 328.397 1440.12 341.217 1420.53 347.128 1403.21 352.97 1385.72 363.108 1355.37 360.703 1349.29 368.779 1320.8 374.484 1300.66 381.735 1274.98 398.61 1248.83 409.607 1231.78 428.165 1215.25 465.282 1182.16 489.133 1160.88 506.316 1147.17 519.685 1136.51 560.444 1104.07 573.848 1097.13 579.346 1094.38 598.626 1084.82 615.981 1076.2 639.008 1076.82 650.589 1077.13 668.838 1078.26 688.462 1078.09 691.246 1078.05 697.535 1078.09 705.714 1077.57 709.22 1077.33 715.096 1076.89 722.176 1075.92 734.204 1074.31 743.243 1072.18 746.027 1071.52 786.167 1062.24 806.444 1056.64 825.002 1061.01 847.307 1066.23 862.291 1079.15 875.9 1090.84 884.526 1098.26 896.383 1113.45 919.787 1143.49 945.803 1176.93 951.817 1185.9 967.179 1197.9 982.541 1209.89 984.466 1207.07 995.257 1217.21 1009.62 1230.68 1015.02 1243.92 1028.59 1275.12 1054.54 1334.79 1052.41 1326.98 1054.92 1334.79 1057.46 1342.79 1058.9 1350.66 1062.17 1366.34 1066.29 1386.17 1067.5 1395.72 1072.48 1424.31 1076.36 1446.52 1078.18 1457.65 1079.49 1462.91 1088.29 1498.55 1101.52 1522.75 1105.82 1531.34 1125.92 1571.48 1123.89 1618.94 1119.87 1713.87 1117.43 1771.43 1116.09 1802.71 1102.31 1843.75 1095.2 1864.92 1091.93 1867.36 1074.23 1915.71 1059.25 1956.61 1056.77 1968.02 1044.4 1996.44 1030.66 2028.06 1023.78 2043.87 1009.31 2061.36 1003.2 2068.79 988.933 2084.74 951.404 2107.01 920.199 2125.53 885.076 2146.36 833.835 2156.15 759.945 2170.28 698.222 2152.75 674.131 2145.64 659.112 2141.2 654.026 2138.52 624.986 2129.83 575.6 2115.05 561.854 2114.26 531.988 2105.25 514.117 2099.86 505.148 2097.35 493.978 2093.05 482.74 2088.72 457.274 2078.72 431.946 2061.36 388.884 2031.91 365.205 1994.42 356.475 1978.88 349.602 1966.61 340.186 1938.53 321.387 1882.34 308.98 1845.26 302.691 1826.46 300.32 1813.91 295.714 1789.61 294.305 1766.45 291.556 1720.91 290.663 1706.79 290.113 1695.21 289.769 1687.54Z" stroke="#000000" stroke-width="20.625" stroke-miterlimit="8" fill="#EBE2B3" fill-rule="evenodd"/><path d="M534.535 1214.64 547.682 1189.82 665.585 1252.27 652.438 1277.09Z" stroke="#000000" stroke-width="10.3139" stroke-miterlimit="8" fill="#595850" fill-rule="evenodd"/><path d="M788.477 1250.4 908.702 1192.53 920.882 1217.84 800.658 1275.7Z" stroke="#000000" stroke-width="10.3139" stroke-miterlimit="8" fill="#595850" fill-rule="evenodd"/><path d="M989 2306C989 2310.97 884.235 2315 755 2315 625.766 2315 521 2310.97 521 2306 521 2301.03 625.766 2297 755 2297 884.235 2297 989 2301.03 989 2306Z" fill="#5B5742" fill-rule="evenodd" fill-opacity="0.470588"/><path d="M811 1473C811 1485.15 777.198 1495 735.5 1495 693.803 1495 660 1485.15 660 1473 660 1460.85 693.803 1451 735.5 1451 777.198 1451 811 1460.85 811 1473Z" stroke="#000000" stroke-width="10.3125" stroke-miterlimit="8" fill="#E73A8F" fill-rule="evenodd"/><path d="M521.443 1285.39C508.047 1295.48 515.857 1330.46 529.452 1352.35 534.313 1360.18 545.06 1377.49 567.114 1384.05 586.029 1389.68 602.07 1384.08 606.638 1382.3 630.134 1373.16 651.776 1347.62 646.774 1329.12 644.521 1320.78 638.081 1318.39 564.469 1293.3 539.907 1284.92 527.501 1280.83 521.443 1285.39Z" stroke="#000000" stroke-width="20.625" stroke-miterlimit="8" fill="#231815" fill-rule="evenodd"/><path d="M894.325 1704.68C901.934 1717.32 942.218 1710.77 959.468 1705.92 973.619 1701.95 987.839 1694.76 993.314 1691.83 996.929 1689.93 1004.5 1685.77 1013.52 1679.53 1028.5 1669.17 1035.11 1661.93 1051.33 1646.12 1073.12 1624.87 1088.48 1613.26 1103.18 1590.29 1106.35 1585.37 1110.79 1577.86 1108.24 1571.18 1104.97 1562.67 1092.2 1560.4 1087.65 1559.47 1043.17 1550.44 876.525 1675.19 894.325 1704.68L894.325 1704.68Z" fill="#5B5742" fill-rule="evenodd" fill-opacity="0.431373"/><path d="M611 1358C611 1369.05 602.045 1378 591 1378 579.954 1378 571 1369.05 571 1358 571 1346.95 579.954 1338 591 1338 602.045 1338 611 1346.95 611 1358Z" fill="#FFFFFF" fill-rule="evenodd"/><path d="M924.557 1285.39C937.953 1295.48 930.144 1330.46 916.548 1352.35 911.688 1360.18 900.941 1377.49 878.886 1384.05 859.972 1389.68 843.931 1384.08 839.362 1382.3 815.866 1373.16 794.225 1347.62 799.226 1329.12 801.48 1320.78 807.92 1318.39 881.531 1293.3 906.094 1284.92 918.499 1280.83 924.557 1285.39Z" stroke="#000000" stroke-width="20.625" stroke-miterlimit="8" fill="#231815" fill-rule="evenodd"/><path d="M885.001 1358C885.001 1369.05 876.046 1378 865 1378 853.954 1378 845 1369.05 845 1358 845 1346.95 853.954 1338 865 1338 876.046 1338 885.001 1346.95 885.001 1358Z" fill="#FFFFFF" fill-rule="evenodd"/><path d="M1059.78 1365.52C1056.93 1365.77 1058.96 1369.93 1040.29 1397.8 1040.29 1397.8 1031.72 1413.56 1025.3 1425 1017.95 1438.11 1012.34 1447.41 1004.14 1460.96 984.592 1493.31 984.651 1491.42 977.693 1503.95 973.488 1511.53 969.738 1518.94 955.653 1551.32 933.068 1603.25 926.082 1605.57 929.204 1613.6 938.164 1636.65 998.563 1644.94 1040.28 1621.5 1048.31 1616.98 1054.41 1611.11 1066.73 1599.57 1102.85 1565.71 1110.79 1557.66 1113.02 1546.7 1114.01 1541.85 1113.7 1539.06 1109.88 1517.42 1103.5 1481.27 1100.31 1463.19 1098.47 1455.7 1095.46 1443.44 1075.98 1364.09 1059.78 1365.52Z" stroke="#000000" stroke-width="20.625" stroke-miterlimit="8" fill="#EBE2B3" fill-rule="evenodd"/><path d="M1149.56 1924.17 237.09 1937.5C219.151 1937.75 204.414 1923.41 204.15 1905.49L200.503 1656.81C200.246 1638.85 214.573 1624.1 232.478 1623.84L1144.91 1610.5C1162.85 1610.25 1177.58 1624.59 1177.85 1642.51L1181.5 1891.19C1181.79 1909.12 1167.46 1923.9 1149.56 1924.17Z" stroke="#000000" stroke-width="20.625" stroke-miterlimit="8" fill="#A6A897" fill-rule="evenodd"/><path d="M476.509 1696.08 446.991 1696.5C442.509 1696.56 438.831 1693.03 438.733 1688.59L438.501 1673.09C438.439 1668.66 442.002 1665.01 446.492 1664.92L476.009 1664.5C480.492 1664.44 484.17 1667.97 484.267 1672.41L484.499 1687.91C484.555 1692.38 480.991 1696.02 476.509 1696.08Z" stroke="#000000" stroke-width="3.4375" stroke-miterlimit="8" fill="#D6DBD9" fill-rule="evenodd"/><path d="M615.508 1694.08 585.991 1694.5C581.509 1694.56 577.83 1691.03 577.733 1686.59L577.501 1671.1C577.438 1666.66 581.002 1663.01 585.492 1662.92L615.009 1662.5C619.492 1662.44 623.17 1665.97 623.267 1670.41L623.499 1685.91C623.562 1690.34 619.995 1694.02 615.508 1694.08Z" stroke="#000000" stroke-width="3.4375" stroke-miterlimit="8" fill="#D6DBD9" fill-rule="evenodd"/><path d="M288.508 1699.08 258.991 1699.5C254.509 1699.56 250.83 1696.03 250.733 1691.59L250.501 1676.09C250.439 1671.66 254.002 1668.01 258.491 1667.92L288.008 1667.5C292.491 1667.44 296.169 1670.97 296.266 1675.41L296.498 1690.91C296.596 1695.35 292.99 1699.02 288.508 1699.08Z" stroke="#000000" stroke-width="3.4375" stroke-miterlimit="8" fill="#D6DBD9" fill-rule="evenodd"/><path d="M350.508 1698.08 320.991 1698.5C316.508 1698.56 312.83 1695.03 312.733 1690.59L312.501 1675.09C312.438 1670.66 316.002 1667.01 320.491 1666.92L350.008 1666.5C354.491 1666.44 358.169 1669.97 358.266 1674.41L358.499 1689.91C358.589 1694.39 354.991 1698.02 350.508 1698.08Z" stroke="#000000" stroke-width="3.4375" stroke-miterlimit="8" fill="#D6DBD9" fill-rule="evenodd"/><path d="M858.508 1691.08 828.991 1691.5C824.508 1691.56 820.83 1688.03 820.733 1683.59L820.501 1668.09C820.438 1663.66 824.002 1660.01 828.491 1659.92L858.008 1659.5C862.491 1659.44 866.169 1662.97 866.266 1667.41L866.498 1682.91C866.596 1687.35 862.997 1690.99 858.508 1691.08Z" stroke="#000000" stroke-width="3.4375" stroke-miterlimit="8" fill="#D6DBD9" fill-rule="evenodd"/><path d="M414.508 1697.08 384.991 1697.5C380.508 1697.56 376.83 1694.03 376.733 1689.59L376.501 1674.09C376.438 1669.66 380.002 1666.01 384.491 1665.92L414.008 1665.5C418.491 1665.44 422.168 1668.97 422.266 1673.41L422.498 1688.91C422.595 1693.35 418.99 1697.02 414.508 1697.08Z" stroke="#000000" stroke-width="3.4375" stroke-miterlimit="8" fill="#D6DBD9" fill-rule="evenodd"/><path d="M677.508 1693.08 647.991 1693.5C643.508 1693.56 639.83 1690.03 639.733 1685.59L639.501 1670.09C639.438 1665.66 643.002 1662.01 647.491 1661.92L677.009 1661.5C681.492 1661.44 685.17 1664.97 685.267 1669.41L685.499 1684.91C685.565 1689.35 681.995 1693.02 677.508 1693.08Z" stroke="#000000" stroke-width="3.4375" stroke-miterlimit="8" fill="#D6DBD9" fill-rule="evenodd"/><path d="M737.509 1692.08 707.991 1692.5C703.509 1692.56 699.83 1689.03 699.733 1684.59L699.501 1669.09C699.438 1664.66 703.002 1661.01 707.492 1660.92L737.009 1660.5C741.492 1660.44 745.17 1663.97 745.267 1668.41L745.499 1683.91C745.558 1688.38 741.991 1692.02 737.509 1692.08Z" stroke="#000000" stroke-width="3.4375" stroke-miterlimit="8" fill="#D6DBD9" fill-rule="evenodd"/><path d="M797.681 1692.08 768.806 1692.5C764.421 1692.56 760.823 1689.03 760.728 1684.59L760.501 1669.1C760.44 1664.66 763.925 1661.01 768.318 1660.92L797.193 1660.5C801.578 1660.44 805.176 1663.97 805.271 1668.41L805.498 1683.91C805.593 1688.35 802.066 1692.02 797.681 1692.08Z" stroke="#000000" stroke-width="3.4375" stroke-miterlimit="8" fill="#D6DBD9" fill-rule="evenodd"/><path d="M545.682 1695.08 516.807 1695.5C512.421 1695.56 508.823 1692.03 508.728 1687.59L508.501 1672.1C508.44 1667.66 511.926 1664.01 516.318 1663.92L545.193 1663.5C549.578 1663.44 553.176 1666.97 553.271 1671.41L553.499 1686.91C553.587 1691.39 550.067 1695.02 545.682 1695.08Z" stroke="#000000" stroke-width="3.4375" stroke-miterlimit="8" fill="#D6DBD9" fill-rule="evenodd"/><path d="M927.681 1688.08 898.807 1688.5C894.421 1688.56 890.823 1685.03 890.728 1680.59L890.501 1665.09C890.44 1660.66 893.926 1657.01 898.318 1656.92L927.193 1656.5C931.578 1656.44 935.176 1659.97 935.271 1664.41L935.498 1679.91C935.596 1684.35 932.07 1688.02 927.681 1688.08Z" stroke="#000000" stroke-width="3.4375" stroke-miterlimit="8" fill="#D6DBD9" fill-rule="evenodd"/><path d="M317.673 1743.65 258.816 1744.5C254.426 1744.56 250.824 1741.08 250.728 1736.69L250.501 1721.41C250.44 1717.03 253.93 1713.44 258.327 1713.34L317.183 1712.5C321.574 1712.44 325.176 1715.92 325.271 1720.31L325.499 1735.59C325.59 1740 322.067 1743.59 317.673 1743.65Z" stroke="#000000" stroke-width="3.4375" stroke-miterlimit="8" fill="#D6DBD9" fill-rule="evenodd"/><path d="M368.54 1743.27 352.958 1743.5C348.493 1743.56 344.829 1740.01 344.732 1735.54L344.501 1719.96C344.439 1715.49 347.988 1711.83 352.461 1711.73L368.042 1711.5C372.507 1711.44 376.171 1714.99 376.268 1719.46L376.5 1735.04C376.555 1739.54 373.005 1743.2 368.54 1743.27Z" stroke="#000000" stroke-width="3.4375" stroke-miterlimit="8" fill="#D6DBD9" fill-rule="evenodd"/><path d="M413.539 1742.27 397.958 1742.5C393.493 1742.56 389.829 1739.01 389.732 1734.54L389.501 1718.96C389.439 1714.49 392.988 1710.83 397.46 1710.73L413.041 1710.5C417.506 1710.44 421.17 1713.99 421.267 1718.46L421.498 1734.04C421.595 1738.51 418.004 1742.21 413.539 1742.27Z" stroke="#000000" stroke-width="3.4375" stroke-miterlimit="8" fill="#D6DBD9" fill-rule="evenodd"/><path d="M461.539 1742.27 445.958 1742.5C441.493 1742.56 437.829 1739.01 437.732 1734.54L437.501 1718.96C437.439 1714.49 440.988 1710.83 445.46 1710.73L461.041 1710.5C465.506 1710.44 469.17 1713.99 469.267 1718.46L469.499 1734.04C469.595 1738.51 466.008 1742.21 461.539 1742.27Z" stroke="#000000" stroke-width="3.4375" stroke-miterlimit="8" fill="#D6DBD9" fill-rule="evenodd"/><path d="M507.54 1741.27 491.959 1741.5C487.493 1741.56 483.829 1738.01 483.732 1733.54L483.501 1717.96C483.439 1713.49 486.988 1709.83 491.461 1709.73L507.042 1709.5C511.507 1709.44 515.171 1712.99 515.268 1717.46L515.5 1733.04C515.559 1737.55 512.009 1741.21 507.54 1741.27L507.54 1741.27Z" stroke="#000000" stroke-width="3.4375" stroke-miterlimit="8" fill="#D6DBD9" fill-rule="evenodd"/><path d="M561.539 1741.27 545.958 1741.5C541.493 1741.56 537.829 1738.01 537.732 1733.54L537.501 1717.96C537.439 1713.49 540.988 1709.83 545.46 1709.73L561.041 1709.5C565.506 1709.44 569.17 1712.99 569.267 1717.46L569.499 1733.04C569.595 1737.51 566.004 1741.21 561.539 1741.27Z" stroke="#000000" stroke-width="3.4375" stroke-miterlimit="8" fill="#D6DBD9" fill-rule="evenodd"/><path d="M606.539 1740.27 590.958 1740.5C586.493 1740.56 582.829 1737.01 582.732 1732.54L582.501 1716.96C582.439 1712.49 585.988 1708.83 590.461 1708.73L606.041 1708.5C610.507 1708.44 614.17 1711.99 614.267 1716.46L614.499 1732.04C614.588 1736.55 611.004 1740.2 606.539 1740.27Z" stroke="#000000" stroke-width="3.4375" stroke-miterlimit="8" fill="#D6DBD9" fill-rule="evenodd"/><path d="M655.54 1739.28 639.958 1739.5C635.493 1739.56 631.829 1736.12 631.732 1731.79L631.501 1716.69C631.439 1712.37 634.988 1708.82 639.461 1708.73L655.042 1708.5C659.507 1708.44 663.171 1711.88 663.268 1716.21L663.5 1731.31C663.558 1735.67 660.008 1739.21 655.54 1739.28Z" stroke="#000000" stroke-width="3.4375" stroke-miterlimit="8" fill="#D6DBD9" fill-rule="evenodd"/><path d="M697.54 1738.27 681.958 1738.5C677.493 1738.56 673.829 1735.01 673.732 1730.54L673.501 1714.96C673.439 1710.49 676.988 1706.83 681.461 1706.73L697.042 1706.5C701.507 1706.44 705.171 1709.99 705.268 1714.46L705.5 1730.04C705.562 1734.51 702.005 1738.21 697.54 1738.27Z" stroke="#000000" stroke-width="3.4375" stroke-miterlimit="8" fill="#D6DBD9" fill-rule="evenodd"/><path d="M746.788 1738.27 731.694 1738.5C727.368 1738.56 723.819 1735.01 723.725 1730.54L723.501 1714.96C723.441 1710.49 726.879 1706.83 731.212 1706.73L746.306 1706.5C750.632 1706.44 754.182 1709.99 754.275 1714.46L754.5 1730.04C754.56 1734.51 751.115 1738.21 746.788 1738.27Z" stroke="#000000" stroke-width="3.4375" stroke-miterlimit="8" fill="#D6DBD9" fill-rule="evenodd"/><path d="M792.539 1737.27 776.958 1737.5C772.493 1737.56 768.829 1734.01 768.732 1729.54L768.501 1713.96C768.439 1709.49 771.988 1705.83 776.46 1705.73L792.041 1705.5C796.506 1705.44 800.17 1708.99 800.266 1713.46L800.498 1729.04C800.598 1733.51 797.007 1737.2 792.539 1737.27Z" stroke="#000000" stroke-width="3.4375" stroke-miterlimit="8" fill="#D6DBD9" fill-rule="evenodd"/><path d="M840.539 1736.27 824.958 1736.5C820.493 1736.56 816.829 1733.01 816.732 1728.54L816.501 1712.96C816.439 1708.49 819.988 1704.83 824.46 1704.73L840.041 1704.5C844.506 1704.44 848.17 1707.99 848.267 1712.46L848.498 1728.04C848.588 1732.55 845.004 1736.21 840.539 1736.27Z" stroke="#000000" stroke-width="3.4375" stroke-miterlimit="8" fill="#D6DBD9" fill-rule="evenodd"/><path d="M885.54 1736.27 869.958 1736.5C865.493 1736.56 861.829 1733.01 861.732 1728.54L861.501 1712.96C861.439 1708.49 864.988 1704.83 869.461 1704.73L885.042 1704.5C889.507 1704.44 893.171 1707.99 893.268 1712.46L893.5 1728.04C893.555 1732.54 890.005 1736.2 885.54 1736.27Z" stroke="#000000" stroke-width="3.4375" stroke-miterlimit="8" fill="#D6DBD9" fill-rule="evenodd"/><path d="M927.539 1735.28 911.958 1735.5C907.493 1735.56 903.829 1732.12 903.732 1727.79L903.501 1712.69C903.439 1708.37 906.988 1704.82 911.46 1704.73L927.041 1704.5C931.506 1704.44 935.17 1707.88 935.267 1712.21L935.498 1727.31C935.588 1731.68 932.004 1735.21 927.539 1735.28Z" stroke="#000000" stroke-width="3.4375" stroke-miterlimit="8" fill="#D6DBD9" fill-rule="evenodd"/><path d="M432.54 1788.27 416.958 1788.5C412.493 1788.56 408.829 1785.01 408.732 1780.54L408.501 1764.96C408.439 1760.49 411.988 1756.83 416.461 1756.73L432.042 1756.5C436.507 1756.44 440.171 1759.99 440.268 1764.46L440.499 1780.04C440.562 1784.51 437.005 1788.21 432.54 1788.27Z" stroke="#000000" stroke-width="3.4375" stroke-miterlimit="8" fill="#D6DBD9" fill-rule="evenodd"/><path d="M483.54 1788.27 467.959 1788.5C463.493 1788.56 459.829 1785.01 459.732 1780.54L459.501 1764.96C459.439 1760.49 462.988 1756.83 467.461 1756.73L483.042 1756.5C487.507 1756.44 491.171 1759.99 491.268 1764.46L491.5 1780.04C491.562 1784.51 488.009 1788.21 483.54 1788.27Z" stroke="#000000" stroke-width="3.4375" stroke-miterlimit="8" fill="#D6DBD9" fill-rule="evenodd"/><path d="M530.539 1788.27 514.958 1788.5C510.493 1788.56 506.829 1785.01 506.732 1780.54L506.501 1764.96C506.439 1760.49 509.988 1756.83 514.46 1756.73L530.041 1756.5C534.507 1756.44 538.17 1759.99 538.267 1764.46L538.499 1780.04C538.595 1784.51 535.004 1788.21 530.539 1788.27Z" stroke="#000000" stroke-width="3.4375" stroke-miterlimit="8" fill="#D6DBD9" fill-rule="evenodd"/><path d="M577.54 1786.27 561.958 1786.5C557.493 1786.56 553.829 1783.12 553.732 1778.79L553.501 1763.69C553.439 1759.37 556.988 1755.82 561.461 1755.72L577.042 1755.5C581.507 1755.44 585.171 1758.88 585.268 1763.21L585.5 1778.31C585.558 1782.67 582.008 1786.21 577.54 1786.27Z" stroke="#000000" stroke-width="3.4375" stroke-miterlimit="8" fill="#D6DBD9" fill-rule="evenodd"/><path d="M626.539 1786.27 610.958 1786.5C606.493 1786.56 602.829 1783.01 602.732 1778.54L602.501 1762.96C602.439 1758.49 605.988 1754.83 610.46 1754.73L626.041 1754.5C630.506 1754.44 634.17 1757.99 634.267 1762.46L634.499 1778.04C634.595 1782.51 631.008 1786.21 626.539 1786.27Z" stroke="#000000" stroke-width="3.4375" stroke-miterlimit="8" fill="#D6DBD9" fill-rule="evenodd"/><path d="M674.787 1785.27 659.694 1785.5C655.368 1785.56 651.819 1782.01 651.725 1777.54L651.501 1761.96C651.44 1757.49 654.879 1753.83 659.211 1753.73L674.305 1753.5C678.631 1753.44 682.18 1756.99 682.274 1761.46L682.498 1777.04C682.595 1781.51 679.116 1785.2 674.787 1785.27Z" stroke="#000000" stroke-width="3.4375" stroke-miterlimit="8" fill="#D6DBD9" fill-rule="evenodd"/><path d="M715.539 1781.27 699.958 1781.5C695.493 1781.56 691.829 1778.01 691.732 1773.54L691.501 1757.96C691.439 1753.49 694.988 1749.83 699.46 1749.73L715.041 1749.5C719.506 1749.44 723.17 1752.99 723.267 1757.46L723.499 1773.04C723.592 1777.55 720.008 1781.2 715.539 1781.27Z" stroke="#000000" stroke-width="3.4375" stroke-miterlimit="8" fill="#D6DBD9" fill-rule="evenodd"/><path d="M764.539 1780.27 748.958 1780.5C744.493 1780.56 740.829 1777.01 740.732 1772.54L740.501 1756.96C740.439 1752.49 743.988 1748.83 748.46 1748.73L764.041 1748.5C768.506 1748.44 772.17 1751.99 772.267 1756.46L772.498 1772.04C772.592 1776.55 769.007 1780.2 764.539 1780.27Z" stroke="#000000" stroke-width="3.4375" stroke-miterlimit="8" fill="#D6DBD9" fill-rule="evenodd"/><path d="M810.54 1780.27 794.958 1780.5C790.493 1780.56 786.829 1777.01 786.732 1772.54L786.501 1756.96C786.439 1752.49 789.988 1748.83 794.461 1748.73L810.042 1748.5C814.507 1748.44 818.171 1751.99 818.268 1756.46L818.5 1772.04C818.555 1776.54 815.005 1780.21 810.54 1780.27Z" stroke="#000000" stroke-width="3.4375" stroke-miterlimit="8" fill="#D6DBD9" fill-rule="evenodd"/><path d="M858.54 1779.27 842.959 1779.5C838.493 1779.56 834.829 1776.01 834.732 1771.54L834.501 1755.96C834.439 1751.49 837.988 1747.83 842.461 1747.73L858.042 1747.5C862.507 1747.44 866.171 1750.99 866.268 1755.46L866.5 1771.04C866.562 1775.51 863.005 1779.2 858.54 1779.27Z" stroke="#000000" stroke-width="3.4375" stroke-miterlimit="8" fill="#D6DBD9" fill-rule="evenodd"/><path d="M339.524 1790.32 258.974 1791.5C254.5 1791.56 250.83 1788.01 250.733 1783.53L250.501 1767.92C250.439 1763.45 253.995 1759.77 258.475 1759.68L339.026 1758.5C343.499 1758.44 347.17 1761.99 347.266 1766.47L347.499 1782.08C347.595 1786.56 343.998 1790.26 339.524 1790.32Z" stroke="#000000" stroke-width="3.4375" stroke-miterlimit="8" fill="#D6DBD9" fill-rule="evenodd"/><path d="M409.54 1838.27 393.958 1838.5C389.493 1838.56 385.829 1835.01 385.732 1830.54L385.501 1814.96C385.439 1810.49 388.988 1806.83 393.461 1806.73L409.042 1806.5C413.507 1806.44 417.171 1809.99 417.268 1814.46L417.5 1830.04C417.562 1834.51 414.005 1838.2 409.54 1838.27Z" stroke="#000000" stroke-width="3.4375" stroke-miterlimit="8" fill="#D6DBD9" fill-rule="evenodd"/><path d="M383.539 1789.27 367.958 1789.5C363.493 1789.56 359.829 1786.01 359.732 1781.54L359.501 1765.96C359.439 1761.49 362.988 1757.83 367.46 1757.73L383.041 1757.5C387.506 1757.44 391.17 1760.99 391.267 1765.46L391.499 1781.04C391.595 1785.51 388.004 1789.2 383.539 1789.27Z" stroke="#000000" stroke-width="3.4375" stroke-miterlimit="8" fill="#D6DBD9" fill-rule="evenodd"/><path d="M922.675 1779.96 884.815 1780.5C880.425 1780.56 876.824 1777.05 876.728 1772.62L876.501 1757.19C876.44 1752.77 879.929 1749.14 884.326 1749.05L922.185 1748.5C926.576 1748.44 930.177 1751.95 930.272 1756.38L930.5 1771.81C930.557 1776.27 927.068 1779.89 922.675 1779.96L922.675 1779.96Z" stroke="#000000" stroke-width="3.4375" stroke-miterlimit="8" fill="#D6DBD9" fill-rule="evenodd"/><path d="M360.614 1837.01 259.879 1838.5C255.456 1838.56 251.826 1835.04 251.73 1830.6L251.501 1815.15C251.439 1810.72 254.956 1807.08 259.386 1806.99L360.121 1805.5C364.545 1805.44 368.174 1808.96 368.27 1813.4L368.5 1828.85C368.561 1833.28 365.041 1836.95 360.614 1837.01Z" stroke="#000000" stroke-width="3.4375" stroke-miterlimit="8" fill="#D6DBD9" fill-rule="evenodd"/><path d="M458.539 1835.28 442.958 1835.5C438.493 1835.56 434.829 1832.12 434.732 1827.79L434.501 1812.69C434.439 1808.37 437.988 1804.82 442.46 1804.73L458.041 1804.5C462.506 1804.44 466.17 1807.88 466.267 1812.21L466.499 1827.31C466.595 1831.64 463.004 1835.22 458.539 1835.28Z" stroke="#000000" stroke-width="3.4375" stroke-miterlimit="8" fill="#D6DBD9" fill-rule="evenodd"/><path d="M511.539 1835.27 495.958 1835.5C491.493 1835.56 487.829 1832.01 487.732 1827.54L487.501 1811.96C487.439 1807.49 490.988 1803.83 495.46 1803.73L511.041 1803.5C515.506 1803.44 519.17 1806.99 519.267 1811.46L519.498 1827.04C519.592 1831.55 516.007 1835.2 511.539 1835.27Z" stroke="#000000" stroke-width="3.4375" stroke-miterlimit="8" fill="#D6DBD9" fill-rule="evenodd"/><path d="M558.539 1834.27 542.958 1834.5C538.493 1834.56 534.829 1831.01 534.732 1826.54L534.501 1810.96C534.439 1806.49 537.988 1802.83 542.46 1802.73L558.041 1802.5C562.506 1802.44 566.17 1805.99 566.267 1810.46L566.499 1826.04C566.592 1830.55 563.008 1834.21 558.539 1834.27Z" stroke="#000000" stroke-width="3.4375" stroke-miterlimit="8" fill="#D6DBD9" fill-rule="evenodd"/><path d="M605.54 1833.27 589.959 1833.5C585.493 1833.56 581.829 1830.01 581.732 1825.54L581.501 1809.96C581.439 1805.49 584.988 1801.83 589.461 1801.73L605.042 1801.5C609.507 1801.44 613.171 1804.99 613.268 1809.46L613.5 1825.04C613.562 1829.51 610.005 1833.21 605.54 1833.27Z" stroke="#000000" stroke-width="3.4375" stroke-miterlimit="8" fill="#D6DBD9" fill-rule="evenodd"/><path d="M654.788 1832.27 639.694 1832.5C635.368 1832.56 631.819 1829.01 631.725 1824.54L631.501 1808.96C631.441 1804.49 634.879 1800.83 639.212 1800.73L654.305 1800.5C658.631 1800.44 662.18 1803.99 662.274 1808.46L662.498 1824.04C662.592 1828.51 659.12 1832.17 654.788 1832.27Z" stroke="#000000" stroke-width="3.4375" stroke-miterlimit="8" fill="#D6DBD9" fill-rule="evenodd"/><path d="M703.54 1832.27 687.959 1832.5C683.493 1832.56 679.829 1829.01 679.732 1824.54L679.501 1808.96C679.439 1804.49 682.988 1800.83 687.461 1800.73L703.042 1800.5C707.507 1800.44 711.171 1803.99 711.268 1808.46L711.5 1824.04C711.555 1828.54 708.005 1832.21 703.54 1832.27Z" stroke="#000000" stroke-width="3.4375" stroke-miterlimit="8" fill="#D6DBD9" fill-rule="evenodd"/><path d="M743.788 1828.27 728.694 1828.5C724.368 1828.56 720.819 1825.01 720.725 1820.54L720.501 1804.96C720.441 1800.49 723.879 1796.83 728.212 1796.73L743.305 1796.5C747.631 1796.44 751.18 1799.99 751.274 1804.46L751.499 1820.04C751.585 1824.55 748.113 1828.21 743.788 1828.27Z" stroke="#000000" stroke-width="3.4375" stroke-miterlimit="8" fill="#D6DBD9" fill-rule="evenodd"/><path d="M793.539 1827.27 777.958 1827.5C773.493 1827.56 769.829 1824.01 769.732 1819.54L769.501 1803.96C769.439 1799.49 772.988 1795.83 777.461 1795.73L793.041 1795.5C797.507 1795.44 801.17 1798.99 801.267 1803.46L801.499 1819.04C801.595 1823.51 798.004 1827.21 793.539 1827.27Z" stroke="#000000" stroke-width="3.4375" stroke-miterlimit="8" fill="#D6DBD9" fill-rule="evenodd"/><path d="M838.54 1826.27 822.958 1826.5C818.493 1826.56 814.829 1823.01 814.732 1818.54L814.501 1802.96C814.438 1798.49 817.988 1794.83 822.461 1794.73L838.042 1794.5C842.507 1794.44 846.171 1797.99 846.268 1802.46L846.5 1818.04C846.562 1822.51 843.005 1826.2 838.54 1826.27Z" stroke="#000000" stroke-width="3.4375" stroke-miterlimit="8" fill="#D6DBD9" fill-rule="evenodd"/><path d="M928.598 1820.64 868.896 1821.5C864.463 1821.56 860.827 1818.08 860.73 1813.7L860.501 1798.43C860.439 1794.05 863.962 1790.46 868.402 1790.36L928.104 1789.5C932.537 1789.44 936.173 1792.92 936.269 1797.3L936.499 1812.57C936.557 1816.98 933.034 1820.57 928.598 1820.64Z" stroke="#000000" stroke-width="3.4375" stroke-miterlimit="8" fill="#D6DBD9" fill-rule="evenodd"/><path d="M271.539 1882.27 255.958 1882.5C251.493 1882.56 247.829 1879.01 247.732 1874.54L247.501 1858.96C247.439 1854.49 250.988 1850.83 255.46 1850.73L271.041 1850.5C275.506 1850.44 279.17 1853.99 279.267 1858.46L279.499 1874.04C279.588 1878.55 276.039 1882.21 271.539 1882.27Z" stroke="#000000" stroke-width="3.4375" stroke-miterlimit="8" fill="#D6DBD9" fill-rule="evenodd"/><path d="M316.54 1881.27 300.958 1881.5C296.493 1881.56 292.829 1878.01 292.732 1873.54L292.501 1857.96C292.439 1853.49 295.988 1849.83 300.461 1849.73L316.042 1849.5C320.507 1849.44 324.171 1852.99 324.268 1857.46L324.5 1873.04C324.555 1877.55 321.005 1881.21 316.54 1881.27Z" stroke="#000000" stroke-width="3.4375" stroke-miterlimit="8" fill="#D6DBD9" fill-rule="evenodd"/><path d="M364.788 1880.27 349.694 1880.5C345.368 1880.56 341.819 1877.01 341.725 1872.54L341.501 1856.96C341.44 1852.49 344.879 1848.83 349.212 1848.73L364.305 1848.5C368.631 1848.44 372.181 1851.99 372.274 1856.46L372.499 1872.04C372.592 1876.51 369.117 1880.21 364.788 1880.27Z" stroke="#000000" stroke-width="3.4375" stroke-miterlimit="8" fill="#D6DBD9" fill-rule="evenodd"/><path d="M410.54 1880.27 394.958 1880.5C390.493 1880.56 386.829 1877.01 386.732 1872.54L386.501 1856.96C386.439 1852.49 389.988 1848.83 394.461 1848.73L410.042 1848.5C414.507 1848.44 418.171 1851.99 418.268 1856.46L418.499 1872.04C418.562 1876.51 415.005 1880.21 410.54 1880.27Z" stroke="#000000" stroke-width="3.4375" stroke-miterlimit="8" fill="#D6DBD9" fill-rule="evenodd"/><path d="M464.54 1879.28 448.958 1879.5C444.493 1879.56 440.829 1876.12 440.732 1871.79L440.501 1856.69C440.439 1852.37 443.988 1848.82 448.461 1848.72L464.042 1848.5C468.507 1848.44 472.171 1851.88 472.268 1856.21L472.5 1871.31C472.562 1875.63 469.005 1879.21 464.54 1879.28Z" stroke="#000000" stroke-width="3.4375" stroke-miterlimit="8" fill="#D6DBD9" fill-rule="evenodd"/><path d="M650.569 1876.23 495.927 1878.5C491.478 1878.56 487.828 1875.02 487.731 1870.55L487.501 1854.99C487.439 1850.53 490.975 1846.87 495.431 1846.77L650.073 1844.5C654.521 1844.44 658.172 1847.98 658.268 1852.45L658.499 1868.01C658.588 1872.51 655.017 1876.16 650.569 1876.23Z" stroke="#000000" stroke-width="3.4375" stroke-miterlimit="8" fill="#D6DBD9" fill-rule="evenodd"/><path d="M695.54 1876.27 679.958 1876.5C675.493 1876.56 671.829 1873.01 671.732 1868.54L671.501 1852.96C671.438 1848.49 674.988 1844.83 679.46 1844.73L695.042 1844.5C699.507 1844.44 703.171 1847.99 703.268 1852.46L703.499 1868.04C703.565 1872.51 700.008 1876.21 695.54 1876.27Z" stroke="#000000" stroke-width="3.4375" stroke-miterlimit="8" fill="#D6DBD9" fill-rule="evenodd"/><path d="M743.539 1875.27 727.958 1875.5C723.493 1875.56 719.829 1872.01 719.732 1867.54L719.501 1851.96C719.439 1847.49 722.988 1843.83 727.46 1843.73L743.041 1843.5C747.506 1843.44 751.17 1846.99 751.267 1851.46L751.498 1867.04C751.595 1871.51 748.004 1875.2 743.539 1875.27Z" stroke="#000000" stroke-width="3.4375" stroke-miterlimit="8" fill="#D6DBD9" fill-rule="evenodd"/><path d="M788.789 1874.27 773.694 1874.5C769.368 1874.56 765.819 1871.01 765.725 1866.54L765.501 1850.96C765.441 1846.49 768.879 1842.83 773.212 1842.73L788.306 1842.5C792.632 1842.44 796.182 1845.99 796.275 1850.46L796.5 1866.04C796.56 1870.51 793.121 1874.17 788.789 1874.27Z" stroke="#000000" stroke-width="3.4375" stroke-miterlimit="8" fill="#D6DBD9" fill-rule="evenodd"/><path d="M830.539 1874.27 814.958 1874.5C810.493 1874.56 806.829 1871.01 806.732 1866.54L806.501 1850.96C806.439 1846.49 809.988 1842.83 814.46 1842.73L830.041 1842.5C834.506 1842.44 838.17 1845.99 838.267 1850.46L838.498 1866.04C838.595 1870.51 835.004 1874.2 830.539 1874.27Z" stroke="#000000" stroke-width="3.4375" stroke-miterlimit="8" fill="#D6DBD9" fill-rule="evenodd"/><path d="M879.539 1871.27 863.958 1871.5C859.493 1871.56 855.829 1868.01 855.732 1863.54L855.501 1847.96C855.439 1843.49 858.988 1839.83 863.46 1839.73L879.041 1839.5C883.506 1839.44 887.17 1842.99 887.267 1847.46L887.499 1863.04C887.592 1867.55 884.008 1871.21 879.539 1871.27Z" stroke="#000000" stroke-width="3.4375" stroke-miterlimit="8" fill="#D6DBD9" fill-rule="evenodd"/><path d="M928.54 1871.27 912.958 1871.5C908.493 1871.56 904.829 1868.01 904.732 1863.54L904.501 1847.96C904.439 1843.49 907.988 1839.83 912.461 1839.73L928.042 1839.5C932.507 1839.44 936.171 1842.99 936.268 1847.46L936.5 1863.04C936.558 1867.55 933.008 1871.21 928.54 1871.27Z" stroke="#000000" stroke-width="3.4375" stroke-miterlimit="8" fill="#D6DBD9" fill-rule="evenodd"/><path d="M1004.54 1734.27 988.958 1734.5C984.493 1734.56 980.829 1731.01 980.732 1726.54L980.501 1710.96C980.439 1706.49 983.988 1702.83 988.46 1702.73L1004.04 1702.5C1008.51 1702.44 1012.17 1705.99 1012.27 1710.46L1012.5 1726.04C1012.59 1730.52 1009.01 1734.17 1004.54 1734.27Z" stroke="#000000" stroke-width="3.4375" stroke-miterlimit="8" fill="#D6DBD9" fill-rule="evenodd"/><path d="M1097.54 1732.27 1081.96 1732.5C1077.49 1732.56 1073.83 1729.01 1073.73 1724.54L1073.5 1708.96C1073.44 1704.49 1076.99 1700.83 1081.46 1700.73L1097.04 1700.5C1101.51 1700.44 1105.17 1703.99 1105.27 1708.46L1105.5 1724.04C1105.59 1728.51 1102 1732.21 1097.54 1732.27Z" stroke="#000000" stroke-width="3.4375" stroke-miterlimit="8" fill="#D6DBD9" fill-rule="evenodd"/><path d="M1050.54 1733.27 1034.96 1733.5C1030.49 1733.56 1026.83 1730.01 1026.73 1725.54L1026.5 1709.96C1026.44 1705.49 1029.99 1701.83 1034.46 1701.73L1050.04 1701.5C1054.51 1701.44 1058.17 1704.99 1058.27 1709.46L1058.5 1725.04C1058.56 1729.51 1055.01 1733.21 1050.54 1733.27Z" stroke="#000000" stroke-width="3.4375" stroke-miterlimit="8" fill="#D6DBD9" fill-rule="evenodd"/><path d="M1005.54 1778.27 989.958 1778.5C985.493 1778.56 981.829 1775.01 981.732 1770.54L981.501 1754.96C981.439 1750.49 984.988 1746.83 989.461 1746.73L1005.04 1746.5C1009.51 1746.44 1013.17 1749.99 1013.27 1754.46L1013.5 1770.04C1013.56 1774.51 1010.01 1778.2 1005.54 1778.27Z" stroke="#000000" stroke-width="3.4375" stroke-miterlimit="8" fill="#D6DBD9" fill-rule="evenodd"/><path d="M1051.54 1776.27 1035.96 1776.5C1031.49 1776.56 1027.83 1773.01 1027.73 1768.54L1027.5 1752.96C1027.44 1748.49 1030.99 1744.83 1035.46 1744.73L1051.04 1744.5C1055.51 1744.44 1059.17 1747.99 1059.27 1752.46L1059.5 1768.04C1059.56 1772.51 1056 1776.21 1051.54 1776.27Z" stroke="#000000" stroke-width="3.4375" stroke-miterlimit="8" fill="#D6DBD9" fill-rule="evenodd"/><path d="M1098.54 1775.27 1082.96 1775.5C1078.49 1775.56 1074.83 1772.12 1074.73 1767.79L1074.5 1752.69C1074.44 1748.37 1077.99 1744.82 1082.46 1744.73L1098.04 1744.5C1102.51 1744.44 1106.17 1747.88 1106.27 1752.21L1106.5 1767.31C1106.59 1771.67 1103 1775.21 1098.54 1775.27Z" stroke="#000000" stroke-width="3.4375" stroke-miterlimit="8" fill="#D6DBD9" fill-rule="evenodd"/><path d="M1006.54 1822.28 990.958 1822.5C986.493 1822.56 982.829 1819.12 982.733 1814.79L982.501 1799.69C982.439 1795.37 985.988 1791.82 990.461 1791.73L1006.04 1791.5C1010.51 1791.44 1014.17 1794.88 1014.27 1799.21L1014.5 1814.31C1014.55 1818.67 1011.01 1822.21 1006.54 1822.28Z" stroke="#000000" stroke-width="3.4375" stroke-miterlimit="8" fill="#D6DBD9" fill-rule="evenodd"/><path d="M1051.54 1818.27 1035.96 1818.5C1031.49 1818.56 1027.83 1815.01 1027.73 1810.54L1027.5 1794.96C1027.44 1790.49 1030.99 1786.83 1035.46 1786.73L1051.04 1786.5C1055.51 1786.44 1059.17 1789.99 1059.27 1794.46L1059.5 1810.04C1059.59 1814.55 1056 1818.21 1051.54 1818.27Z" stroke="#000000" stroke-width="3.4375" stroke-miterlimit="8" fill="#D6DBD9" fill-rule="evenodd"/><path d="M1100.54 1818.27 1084.96 1818.5C1080.49 1818.56 1076.83 1815.01 1076.73 1810.54L1076.5 1794.96C1076.44 1790.49 1079.99 1786.83 1084.46 1786.73L1100.04 1786.5C1104.51 1786.44 1108.17 1789.99 1108.27 1794.46L1108.5 1810.04C1108.6 1814.51 1105 1818.21 1100.54 1818.27Z" stroke="#000000" stroke-width="3.4375" stroke-miterlimit="8" fill="#D6DBD9" fill-rule="evenodd"/><path d="M1061.65 1863.47 991.837 1864.5C987.435 1864.56 983.824 1860.99 983.729 1856.49L983.501 1840.81C983.44 1836.31 986.938 1832.62 991.346 1832.53L1061.16 1831.5C1065.56 1831.44 1069.17 1835.01 1069.27 1839.51L1069.5 1855.19C1069.59 1859.73 1066.05 1863.41 1061.65 1863.47L1061.65 1863.47Z" stroke="#000000" stroke-width="3.4375" stroke-miterlimit="8" fill="#D6DBD9" fill-rule="evenodd"/><path d="M1101.54 1862.27 1085.96 1862.5C1081.49 1862.56 1077.83 1859.01 1077.73 1854.54L1077.5 1838.96C1077.44 1834.49 1080.99 1830.83 1085.46 1830.73L1101.04 1830.5C1105.51 1830.44 1109.17 1833.99 1109.27 1838.46L1109.5 1854.04C1109.6 1858.51 1106 1862.21 1101.54 1862.27Z" stroke="#000000" stroke-width="3.4375" stroke-miterlimit="8" fill="#D6DBD9" fill-rule="evenodd"/><path d="M370.443 1617.85C366.967 1626.93 384.347 1643.94 408.715 1667.76 411.984 1670.96 423.101 1681.61 439.415 1693.33 448.329 1699.73 455.66 1704.16 458.895 1706.12 467.671 1711.31 483.813 1721.17 505.22 1727.74 527.075 1734.41 542.872 1739.25 563.282 1735.92 571.266 1734.61 597.32 1730.39 603.619 1713.37 607.267 1703.54 602.724 1693.54 601.072 1689.86 578.081 1639.03 380.837 1590.56 370.409 1617.89L370.443 1617.85Z" fill="#5B5742" fill-rule="evenodd" fill-opacity="0.431373"/><path d="M347.036 1387.08C355.843 1372.09 361.251 1370.04 364.448 1370.57 372.016 1371.85 371.989 1388.6 385.642 1414.89 390.279 1423.82 394.405 1430.12 397.895 1435.45 421.516 1467.09 460.622 1514.8 487.774 1549.22 535.233 1601.81 547.706 1619.25 584.454 1663.14 587.176 1665.75 595.368 1673.5 598.534 1685.93 613.389 1762.9 452.272 1676.28 436.257 1665.61 404.108 1645.39 404.521 1638.97 352.515 1596.51 299.959 1553.61 292.215 1554.19 287.5 1538.68 289.806 1519.81 294.266 1496.97 302.902 1471.95 315.588 1435.19 332.766 1406.83 347.036 1387.08Z" stroke="#000000" stroke-width="20.625" stroke-miterlimit="8" fill="#EBE2B3" fill-rule="evenodd"/><path d="M838.115 1924.56C834.522 1917.98 847.421 1904.77 857.474 1898.34 861.56 1895.73 869.661 1890.69 881.176 1890.51 892.36 1890.32 900.267 1894.82 906.455 1898.34 913.23 1902.2 930.835 1913.75 928.241 1920.62 926.548 1925.11 917.439 1924.41 883.449 1925.94 848.951 1927.49 840.547 1929.01 838.115 1924.56Z" stroke="#000000" stroke-width="20.625" stroke-miterlimit="8" fill="#EBE2B3" fill-rule="evenodd"/></g></svg>