<svg width="1029" height="1266" xmlns="http://www.w3.org/2000/svg" xmlns:xlink="http://www.w3.org/1999/xlink" xml:space="preserve" overflow="hidden"><defs><clipPath id="clip0"><rect x="185" y="1049" width="1029" height="1266"/></clipPath></defs><g clip-path="url(#clip0)" transform="translate(-185 -1049)"><path d="M452.5 2100.5C454.731 2105.01 456.55 2108.9 457.888 2111.9 462.591 2122.47 465.439 2130.7 466.538 2133.9 469.421 2142.26 469.524 2143.88 475.29 2163.78 484.557 2195.73 485.312 2195.05 487.543 2205.99 490.632 2221.04 489.053 2221.42 492.795 2242.9 496.261 2262.77 498.115 2272.82 503.297 2279.81 504.636 2281.6 517.885 2298.92 536.591 2297.41 548.878 2296.41 557.047 2287.77 562.882 2281.57 566.417 2277.85 569.163 2274.03 582.171 2246.42 589.688 2230.47 593.497 2222.31 596.209 2214.77 597.65 2210.78 598.611 2207.58 599.333 2204.79 602.284 2193.53 604.172 2186.27 604.961 2183.13 606.78 2175.9 611.14 2165.64 622.5 2153.25 565.833 2135.65 509.167 2118.09 452.5 2100.5L452.5 2100.5Z" stroke="#000000" stroke-width="20.625" stroke-miterlimit="8" fill="#EBE2B3" fill-rule="evenodd"/><path d="M808.5 2144.1C816.115 2161.46 823.731 2181.2 830.657 2203.17 837.48 2224.88 842.511 2245.2 846.232 2263.7 865.322 2310.72 915.598 2299.15 921.628 2249.64 928.624 2227.87 935.377 2204.66 941.614 2180.06 947.231 2157.91 951.986 2136.55 955.984 2116.16 956.501 2105.93 956.983 2095.7 957.5 2085.5L808.569 2144.1 808.5 2144.1Z" stroke="#000000" stroke-width="20.625" stroke-miterlimit="8" fill="#EBE2B3" fill-rule="evenodd"/><path d="M247.769 1687.54C245.363 1677.88 242.579 1663.28 242.511 1645.41 242.442 1626.4 245.535 1621.18 246.016 1605.06 246.979 1573.13 235.534 1571.31 235.5 1543.64 235.5 1510.79 251.515 1485.01 256.567 1476.97 268.046 1458.58 272.616 1461.19 286.398 1440.12 299.217 1420.53 305.128 1403.21 310.97 1385.72 321.109 1355.37 318.703 1349.29 326.779 1320.8 332.484 1300.66 339.735 1274.98 356.61 1248.83 367.607 1231.78 386.165 1215.25 423.282 1182.16 447.133 1160.88 464.316 1147.17 477.685 1136.51 518.444 1104.07 531.848 1097.13 537.346 1094.38 556.626 1084.82 573.981 1076.2 597.008 1076.82 608.589 1077.13 626.838 1078.26 646.462 1078.09 649.246 1078.05 655.535 1078.09 663.714 1077.57 667.22 1077.33 673.096 1076.89 680.176 1075.92 692.204 1074.31 701.243 1072.18 704.027 1071.52 744.167 1062.24 764.444 1056.64 783.002 1061.01 805.307 1066.23 820.291 1079.15 833.9 1090.84 842.526 1098.26 854.383 1113.45 877.787 1143.49 903.803 1176.93 909.817 1185.9 925.179 1197.9 940.541 1209.89 942.466 1207.07 953.257 1217.21 967.622 1230.68 973.018 1243.92 986.593 1275.12 1012.54 1334.79 1010.41 1326.98 1012.92 1334.79 1015.46 1342.79 1016.9 1350.66 1020.17 1366.34 1024.29 1386.17 1025.5 1395.72 1030.48 1424.31 1034.36 1446.52 1036.18 1457.65 1037.49 1462.91 1046.29 1498.55 1059.52 1522.75 1063.82 1531.34 1083.92 1571.48 1081.89 1618.94 1077.87 1713.87 1075.43 1771.43 1074.09 1802.71 1060.31 1843.75 1053.2 1864.92 1049.93 1867.36 1032.23 1915.71 1017.25 1956.61 1014.77 1968.02 1002.4 1996.44 988.655 2028.06 981.782 2043.87 967.313 2061.36 961.196 2068.79 946.933 2084.74 909.404 2107.01 878.199 2125.53 843.076 2146.36 791.835 2156.15 717.946 2170.28 656.222 2152.75 632.131 2145.64 617.112 2141.2 612.026 2138.52 582.986 2129.83 533.6 2115.05 519.854 2114.26 489.988 2105.25 472.117 2099.86 463.148 2097.35 451.978 2093.05 440.74 2088.72 415.274 2078.72 389.946 2061.36 346.884 2031.91 323.205 1994.42 314.475 1978.88 307.602 1966.61 298.186 1938.53 279.387 1882.34 266.98 1845.26 260.691 1826.46 258.32 1813.91 253.714 1789.61 252.305 1766.45 249.556 1720.91 248.663 1706.79 248.113 1695.21 247.769 1687.54L247.769 1687.54Z" stroke="#000000" stroke-width="20.625" stroke-miterlimit="8" fill="#EBE2B3" fill-rule="evenodd"/><path d="M492.396 1214.63 505.543 1189.81 623.439 1252.26 610.293 1277.08Z" stroke="#000000" stroke-width="10.3132" stroke-miterlimit="8" fill="#595850" fill-rule="evenodd"/><path d="M746.307 1250.32 866.525 1192.46 878.705 1217.76 758.487 1275.63Z" stroke="#000000" stroke-width="10.3132" stroke-miterlimit="8" fill="#595850" fill-rule="evenodd"/><path d="M947 2306C947 2310.97 842.234 2315 713 2315 583.765 2315 479 2310.97 479 2306 479 2301.03 583.765 2297 713 2297 842.234 2297 947 2301.03 947 2306Z" fill="#5B5742" fill-rule="evenodd" fill-opacity="0.470588"/><path d="M1177.1 1834.08 280.288 2003.93C262.654 2007.26 245.674 1995.68 242.34 1978.08L196.072 1733.87C192.738 1716.24 204.322 1699.26 221.921 1695.92L1118.7 1526.07C1136.34 1522.74 1153.32 1534.32 1156.65 1551.92L1202.92 1796.13C1206.29 1813.73 1194.7 1830.74 1177.1 1834.08Z" stroke="#000000" stroke-width="20.625" stroke-miterlimit="8" fill="#A6A897" fill-rule="evenodd"/><path d="M769 1473C769 1485.15 735.198 1495 693.5 1495 651.803 1495 618 1485.15 618 1473 618 1460.85 651.803 1451 693.5 1451 735.198 1451 769 1460.85 769 1473Z" stroke="#000000" stroke-width="10.3125" stroke-miterlimit="8" fill="#E73A8F" fill-rule="evenodd"/><path d="M474.926 1725.04 446.021 1730.36C441.63 1731.17 437.412 1728.37 436.547 1724.1L433.643 1709.18C432.813 1704.91 435.683 1700.8 440.074 1699.96L468.979 1694.64C473.371 1693.83 477.589 1696.63 478.453 1700.9L481.357 1715.82C482.187 1720.13 479.318 1724.23 474.926 1725.04Z" stroke="#000000" stroke-width="3.4375" stroke-miterlimit="8" fill="#D6DBD9" fill-rule="evenodd"/><path d="M611.063 1699.89 582.76 1705.36C578.461 1706.19 574.33 1703.32 573.484 1698.92L570.64 1683.59C569.827 1679.2 572.637 1674.98 576.937 1674.11L605.24 1668.64C609.54 1667.81 613.67 1670.68 614.516 1675.08L617.361 1690.41C618.173 1694.8 615.363 1699.06 611.063 1699.89Z" stroke="#000000" stroke-width="3.4375" stroke-miterlimit="8" fill="#D6DBD9" fill-rule="evenodd"/><path d="M290.055 1760.04 261.758 1765.36C257.459 1766.17 253.329 1763.37 252.483 1759.1L249.64 1744.18C248.827 1739.91 251.637 1735.8 255.936 1734.96L284.233 1729.64C288.532 1728.83 292.661 1731.63 293.508 1735.9L296.351 1750.82C297.197 1755.09 294.354 1759.23 290.055 1760.04Z" stroke="#000000" stroke-width="3.4375" stroke-miterlimit="8" fill="#D6DBD9" fill-rule="evenodd"/><path d="M350.918 1748.89 322.018 1754.36C317.628 1755.19 313.411 1752.32 312.546 1747.92L309.643 1732.59C308.813 1728.2 311.682 1723.98 316.073 1723.11L344.972 1717.64C349.362 1716.81 353.58 1719.68 354.444 1724.08L357.348 1739.41C358.212 1743.84 355.308 1748.06 350.918 1748.89Z" stroke="#000000" stroke-width="3.4375" stroke-miterlimit="8" fill="#D6DBD9" fill-rule="evenodd"/><path d="M849.918 1654.04 821.018 1659.36C816.628 1660.17 812.411 1657.37 811.546 1653.1L808.643 1638.18C807.813 1633.91 810.682 1629.8 815.073 1628.96L843.972 1623.64C848.363 1622.83 852.58 1625.63 853.444 1629.9L856.348 1644.82C857.212 1649.09 854.308 1653.2 849.918 1654.04Z" stroke="#000000" stroke-width="3.4375" stroke-miterlimit="8" fill="#D6DBD9" fill-rule="evenodd"/><path d="M413.918 1736.89 385.018 1742.36C380.628 1743.19 376.411 1740.32 375.547 1735.92L372.643 1720.59C371.813 1716.2 374.682 1711.98 379.073 1711.11L407.972 1705.64C412.362 1704.81 416.58 1707.68 417.444 1712.08L420.348 1727.41C421.212 1731.8 418.308 1736.06 413.918 1736.89Z" stroke="#000000" stroke-width="3.4375" stroke-miterlimit="8" fill="#D6DBD9" fill-rule="evenodd"/><path d="M672.926 1687.89 644.021 1693.36C639.63 1694.19 635.412 1691.32 634.547 1686.92L631.643 1671.59C630.813 1667.2 633.683 1662.98 638.074 1662.11L666.979 1656.64C671.371 1655.81 675.589 1658.68 676.453 1663.08L679.357 1678.41C680.188 1682.8 677.318 1687.06 672.926 1687.89Z" stroke="#000000" stroke-width="3.4375" stroke-miterlimit="8" fill="#D6DBD9" fill-rule="evenodd"/><path d="M731.063 1676.89 702.76 1682.36C698.461 1683.19 694.33 1680.32 693.484 1675.92L690.64 1660.59C689.827 1656.2 692.637 1651.98 696.937 1651.11L725.24 1645.64C729.54 1644.81 733.67 1647.68 734.516 1652.08L737.36 1667.41C738.173 1671.84 735.363 1676.06 731.063 1676.89Z" stroke="#000000" stroke-width="3.4375" stroke-miterlimit="8" fill="#D6DBD9" fill-rule="evenodd"/><path d="M790.918 1665.89 762.018 1671.36C757.628 1672.19 753.411 1669.32 752.546 1664.92L749.643 1649.59C748.813 1645.2 751.682 1640.98 756.073 1640.11L784.972 1634.64C789.362 1633.81 793.58 1636.68 794.444 1641.08L797.348 1656.41C798.212 1660.8 795.308 1665.06 790.918 1665.89Z" stroke="#000000" stroke-width="3.4375" stroke-miterlimit="8" fill="#D6DBD9" fill-rule="evenodd"/><path d="M542.918 1712.89 514.018 1718.36C509.628 1719.19 505.411 1716.32 504.546 1711.92L501.643 1696.59C500.813 1692.2 503.682 1687.98 508.073 1687.11L536.972 1681.64C541.363 1680.81 545.58 1683.68 546.444 1688.08L549.348 1703.41C550.212 1707.84 547.308 1712.06 542.918 1712.89Z" stroke="#000000" stroke-width="3.4375" stroke-miterlimit="8" fill="#D6DBD9" fill-rule="evenodd"/><path d="M918.055 1639.04 889.758 1644.36C885.459 1645.17 881.33 1642.37 880.483 1638.1L877.64 1623.18C876.827 1618.91 879.637 1614.8 883.936 1613.96L912.233 1608.64C916.532 1607.83 920.661 1610.63 921.507 1614.9L924.351 1629.82C925.197 1634.09 922.354 1638.23 918.055 1639.04Z" stroke="#000000" stroke-width="3.4375" stroke-miterlimit="8" fill="#D6DBD9" fill-rule="evenodd"/><path d="M326.997 1799.39 268.868 1810.36C264.53 1811.18 260.364 1808.35 259.51 1804.02L256.641 1788.94C255.821 1784.61 258.656 1780.46 262.994 1779.61L321.123 1768.64C325.46 1767.82 329.627 1770.65 330.481 1774.98L333.35 1790.06C334.203 1794.42 331.335 1798.58 326.997 1799.39Z" stroke="#000000" stroke-width="3.4375" stroke-miterlimit="8" fill="#D6DBD9" fill-rule="evenodd"/><path d="M376.005 1790.4 360.871 1793.35C356.533 1794.2 352.365 1791.28 351.511 1786.81L348.641 1771.23C347.821 1766.77 350.657 1762.48 354.995 1761.6L370.129 1758.65C374.468 1757.8 378.636 1760.72 379.49 1765.19L382.359 1780.76C383.179 1785.27 380.343 1789.56 376.005 1790.4Z" stroke="#000000" stroke-width="3.4375" stroke-miterlimit="8" fill="#D6DBD9" fill-rule="evenodd"/><path d="M420.998 1781.49 405.868 1784.36C401.53 1785.18 397.364 1782.34 396.51 1778.01L393.641 1762.87C392.821 1758.53 395.656 1754.36 399.994 1753.51L415.123 1750.64C419.461 1749.82 423.627 1752.66 424.481 1757L427.35 1772.13C428.204 1776.47 425.335 1780.67 420.998 1781.49Z" stroke="#000000" stroke-width="3.4375" stroke-miterlimit="8" fill="#D6DBD9" fill-rule="evenodd"/><path d="M467.997 1772.49 452.868 1775.36C448.53 1776.18 444.364 1773.34 443.51 1769.01L440.641 1753.87C439.821 1749.53 442.656 1745.36 446.993 1744.51L462.123 1741.64C466.46 1740.82 470.627 1743.66 471.481 1748L474.35 1763.13C475.204 1767.47 472.335 1771.67 467.997 1772.49Z" stroke="#000000" stroke-width="3.4375" stroke-miterlimit="8" fill="#D6DBD9" fill-rule="evenodd"/><path d="M513.005 1764.4 497.871 1767.35C493.532 1768.2 489.365 1765.28 488.511 1760.81L485.641 1745.24C484.821 1740.77 487.656 1736.48 491.995 1735.6L507.129 1732.65C511.468 1731.8 515.635 1734.72 516.489 1739.19L519.359 1754.77C520.179 1759.27 517.344 1763.56 513.005 1764.4L513.005 1764.4Z" stroke="#000000" stroke-width="3.4375" stroke-miterlimit="8" fill="#D6DBD9" fill-rule="evenodd"/><path d="M565.997 1754.49 550.868 1757.36C546.53 1758.18 542.364 1755.34 541.51 1751L538.641 1735.87C537.821 1731.53 540.656 1727.36 544.994 1726.51L560.123 1723.64C564.46 1722.82 568.627 1725.66 569.481 1730L572.35 1745.13C573.203 1749.47 570.335 1753.67 565.997 1754.49Z" stroke="#000000" stroke-width="3.4375" stroke-miterlimit="8" fill="#D6DBD9" fill-rule="evenodd"/><path d="M610.997 1746.49 595.868 1749.36C591.53 1750.18 587.364 1747.34 586.51 1743L583.641 1727.87C582.821 1723.53 585.656 1719.36 589.993 1718.51L605.123 1715.64C609.46 1714.82 613.627 1717.66 614.481 1722L617.35 1737.13C618.203 1741.5 615.335 1745.67 610.997 1746.49Z" stroke="#000000" stroke-width="3.4375" stroke-miterlimit="8" fill="#D6DBD9" fill-rule="evenodd"/><path d="M658.005 1737.49 642.871 1740.36C638.532 1741.18 634.365 1738.34 633.51 1734L630.641 1718.87C629.821 1714.53 632.657 1710.36 636.995 1709.51L652.129 1706.64C656.467 1705.82 660.635 1708.66 661.489 1713L664.359 1728.13C665.179 1732.5 662.343 1736.67 658.005 1737.49Z" stroke="#000000" stroke-width="3.4375" stroke-miterlimit="8" fill="#D6DBD9" fill-rule="evenodd"/><path d="M700.005 1728.49 684.871 1731.36C680.532 1732.18 676.365 1729.34 675.511 1725.01L672.641 1709.87C671.821 1705.53 674.656 1701.36 678.995 1700.51L694.129 1697.64C698.468 1696.82 702.635 1699.66 703.489 1704L706.359 1719.13C707.179 1723.47 704.343 1727.67 700.005 1728.49Z" stroke="#000000" stroke-width="3.4375" stroke-miterlimit="8" fill="#D6DBD9" fill-rule="evenodd"/><path d="M748.814 1719.49 733.235 1722.36C728.769 1723.18 724.479 1720.34 723.599 1716.01L720.645 1700.87C719.801 1696.53 722.72 1692.36 727.186 1691.51L742.765 1688.64C747.231 1687.82 751.522 1690.66 752.401 1695L755.355 1710.13C756.199 1714.47 753.28 1718.67 748.814 1719.49Z" stroke="#000000" stroke-width="3.4375" stroke-miterlimit="8" fill="#D6DBD9" fill-rule="evenodd"/><path d="M792.998 1711.49 777.868 1714.36C773.53 1715.18 769.364 1712.34 768.51 1708L765.641 1692.87C764.821 1688.53 767.656 1684.36 771.994 1683.51L787.123 1680.64C791.46 1679.82 795.627 1682.66 796.481 1687L799.35 1702.13C800.204 1706.47 797.335 1710.67 792.998 1711.49Z" stroke="#000000" stroke-width="3.4375" stroke-miterlimit="8" fill="#D6DBD9" fill-rule="evenodd"/><path d="M839.998 1702.49 824.868 1705.36C820.53 1706.18 816.364 1703.34 815.51 1699L812.641 1683.87C811.822 1679.53 814.656 1675.36 818.994 1674.51L834.123 1671.64C838.461 1670.82 842.627 1673.66 843.481 1678L846.35 1693.13C847.204 1697.5 844.335 1701.67 839.998 1702.49Z" stroke="#000000" stroke-width="3.4375" stroke-miterlimit="8" fill="#D6DBD9" fill-rule="evenodd"/><path d="M885.005 1693.49 869.871 1696.36C865.533 1697.18 861.365 1694.34 860.511 1690.01L857.641 1674.87C856.821 1670.53 859.657 1666.36 863.995 1665.51L879.129 1662.64C883.467 1661.82 887.635 1664.66 888.489 1669L891.359 1684.13C892.179 1688.5 889.343 1692.67 885.005 1693.49Z" stroke="#000000" stroke-width="3.4375" stroke-miterlimit="8" fill="#D6DBD9" fill-rule="evenodd"/><path d="M925.998 1686.49 910.868 1689.36C906.53 1690.18 902.364 1687.34 901.51 1683L898.641 1667.87C897.822 1663.53 900.656 1659.36 904.994 1658.51L920.123 1655.64C924.461 1654.82 928.627 1657.66 929.481 1662L932.35 1677.13C933.204 1681.5 930.335 1685.67 925.998 1686.49Z" stroke="#000000" stroke-width="3.4375" stroke-miterlimit="8" fill="#D6DBD9" fill-rule="evenodd"/><path d="M447.814 1823.49 432.235 1826.36C427.769 1827.18 423.478 1824.34 422.599 1820L419.645 1804.87C418.801 1800.53 421.72 1796.36 426.186 1795.51L441.765 1792.64C446.231 1791.82 450.522 1794.66 451.401 1799L454.355 1814.13C455.199 1818.47 452.28 1822.67 447.814 1823.49Z" stroke="#000000" stroke-width="3.4375" stroke-miterlimit="8" fill="#D6DBD9" fill-rule="evenodd"/><path d="M497.005 1814.49 481.871 1817.36C477.533 1818.18 473.365 1815.34 472.511 1811.01L469.641 1795.87C468.821 1791.53 471.657 1787.36 475.995 1786.51L491.129 1783.64C495.468 1782.82 499.636 1785.66 500.49 1790L503.359 1805.13C504.179 1809.47 501.344 1813.67 497.005 1814.49Z" stroke="#000000" stroke-width="3.4375" stroke-miterlimit="8" fill="#D6DBD9" fill-rule="evenodd"/><path d="M543.806 1806.4 528.232 1809.35C523.767 1810.2 519.478 1807.28 518.598 1802.81L515.645 1787.23C514.801 1782.77 517.72 1778.48 522.185 1777.6L537.759 1774.65C542.224 1773.8 546.513 1776.72 547.392 1781.19L550.345 1796.76C551.224 1801.23 548.271 1805.56 543.806 1806.4Z" stroke="#000000" stroke-width="3.4375" stroke-miterlimit="8" fill="#D6DBD9" fill-rule="evenodd"/><path d="M590.005 1797.4 574.871 1800.35C570.532 1801.2 566.365 1798.28 565.51 1793.81L562.641 1778.24C561.821 1773.77 564.656 1769.48 568.995 1768.6L584.129 1765.65C588.467 1764.8 592.635 1767.72 593.489 1772.19L596.359 1787.77C597.179 1792.27 594.343 1796.56 590.005 1797.4Z" stroke="#000000" stroke-width="3.4375" stroke-miterlimit="8" fill="#D6DBD9" fill-rule="evenodd"/><path d="M637.998 1787.49 622.868 1790.36C618.53 1791.18 614.364 1788.34 613.51 1784L610.641 1768.87C609.821 1764.53 612.656 1760.36 616.994 1759.51L632.123 1756.64C636.46 1755.82 640.627 1758.66 641.481 1763L644.35 1778.13C645.204 1782.47 642.335 1786.67 637.998 1787.49Z" stroke="#000000" stroke-width="3.4375" stroke-miterlimit="8" fill="#D6DBD9" fill-rule="evenodd"/><path d="M685.998 1778.49 670.868 1781.36C666.53 1782.18 662.364 1779.34 661.51 1775.01L658.641 1759.87C657.822 1755.53 660.656 1751.36 664.994 1750.51L680.123 1747.64C684.461 1746.82 688.627 1749.66 689.481 1754L692.35 1769.13C693.204 1773.47 690.335 1777.67 685.998 1778.49Z" stroke="#000000" stroke-width="3.4375" stroke-miterlimit="8" fill="#D6DBD9" fill-rule="evenodd"/><path d="M724.997 1767.49 709.868 1770.36C705.53 1771.18 701.364 1768.34 700.51 1764.01L697.641 1748.87C696.821 1744.53 699.656 1740.36 703.993 1739.51L719.123 1736.64C723.46 1735.82 727.627 1738.66 728.481 1743L731.35 1758.13C732.203 1762.5 729.335 1766.67 724.997 1767.49Z" stroke="#000000" stroke-width="3.4375" stroke-miterlimit="8" fill="#D6DBD9" fill-rule="evenodd"/><path d="M773.806 1758.49 758.232 1761.36C753.767 1762.18 749.478 1759.34 748.598 1755L745.645 1739.87C744.801 1735.53 747.72 1731.36 752.185 1730.51L767.759 1727.64C772.224 1726.82 776.513 1729.66 777.392 1734L780.346 1749.13C781.224 1753.5 778.271 1757.67 773.806 1758.49Z" stroke="#000000" stroke-width="3.4375" stroke-miterlimit="8" fill="#D6DBD9" fill-rule="evenodd"/><path d="M818.005 1750.49 802.871 1753.36C798.533 1754.18 794.365 1751.34 793.511 1747.01L790.641 1731.87C789.821 1727.53 792.657 1723.36 796.995 1722.51L812.129 1719.64C816.468 1718.82 820.636 1721.66 821.49 1726L824.359 1741.13C825.179 1745.5 822.344 1749.67 818.005 1750.49Z" stroke="#000000" stroke-width="3.4375" stroke-miterlimit="8" fill="#D6DBD9" fill-rule="evenodd"/><path d="M865.814 1741.49 850.235 1744.36C845.769 1745.18 841.478 1742.34 840.599 1738L837.645 1722.87C836.801 1718.53 839.72 1714.36 844.186 1713.51L859.765 1710.64C864.231 1709.82 868.522 1712.66 869.401 1717L872.355 1732.13C873.199 1736.47 870.28 1740.67 865.814 1741.49Z" stroke="#000000" stroke-width="3.4375" stroke-miterlimit="8" fill="#D6DBD9" fill-rule="evenodd"/><path d="M355.926 1841.54 277.002 1856.36C272.618 1857.18 268.406 1854.34 267.542 1849.99L264.642 1834.83C263.814 1830.49 266.679 1826.31 271.064 1825.46L349.988 1810.64C354.373 1809.82 358.585 1812.66 359.448 1817.01L362.348 1832.17C363.211 1836.51 360.311 1840.72 355.926 1841.54Z" stroke="#000000" stroke-width="3.4375" stroke-miterlimit="8" fill="#D6DBD9" fill-rule="evenodd"/><path d="M433.005 1876.49 417.871 1879.36C413.533 1880.18 409.365 1877.34 408.511 1873.01L405.641 1857.87C404.821 1853.53 407.657 1849.36 411.995 1848.51L427.129 1845.64C431.468 1844.82 435.636 1847.66 436.49 1852L439.359 1867.13C440.179 1871.47 437.344 1875.67 433.005 1876.49Z" stroke="#000000" stroke-width="3.4375" stroke-miterlimit="8" fill="#D6DBD9" fill-rule="evenodd"/><path d="M398.998 1832.49 383.868 1835.36C379.53 1836.18 375.364 1833.34 374.51 1829.01L371.641 1813.87C370.821 1809.53 373.656 1805.36 377.994 1804.51L393.123 1801.64C397.461 1800.82 401.627 1803.66 402.481 1808L405.35 1823.13C406.204 1827.47 403.335 1831.67 398.998 1832.49Z" stroke="#000000" stroke-width="3.4375" stroke-miterlimit="8" fill="#D6DBD9" fill-rule="evenodd"/><path d="M928.921 1731.14 891.031 1738.36C886.636 1739.19 882.415 1736.3 881.55 1731.87L878.643 1716.42C877.813 1711.99 880.685 1707.74 885.079 1706.86L922.969 1699.64C927.364 1698.81 931.585 1701.7 932.45 1706.13L935.357 1721.58C936.188 1726.04 933.315 1730.3 928.921 1731.14L928.921 1731.14Z" stroke="#000000" stroke-width="3.4375" stroke-miterlimit="8" fill="#D6DBD9" fill-rule="evenodd"/><path d="M384.985 1883.58 285.91 1902.36C281.558 1903.18 277.377 1900.34 276.52 1895.99L273.642 1880.81C272.819 1876.46 275.664 1872.28 280.016 1871.42L379.09 1852.64C383.442 1851.82 387.623 1854.66 388.48 1859.01L391.359 1874.19C392.181 1878.55 389.337 1882.76 384.985 1883.58Z" stroke="#000000" stroke-width="3.4375" stroke-miterlimit="8" fill="#D6DBD9" fill-rule="evenodd"/><path d="M480.997 1865.49 465.868 1868.36C461.53 1869.18 457.364 1866.34 456.51 1862.01L453.641 1846.87C452.821 1842.53 455.656 1838.36 459.993 1837.51L475.123 1834.64C479.46 1833.82 483.627 1836.66 484.481 1841L487.35 1856.13C488.203 1860.47 485.335 1864.67 480.997 1865.49Z" stroke="#000000" stroke-width="3.4375" stroke-miterlimit="8" fill="#D6DBD9" fill-rule="evenodd"/><path d="M532.997 1855.49 517.868 1858.36C513.53 1859.18 509.364 1856.34 508.51 1852L505.641 1836.87C504.822 1832.53 507.656 1828.36 511.994 1827.51L527.123 1824.64C531.46 1823.82 535.627 1826.66 536.481 1831L539.35 1846.13C540.204 1850.5 537.335 1854.67 532.997 1855.49Z" stroke="#000000" stroke-width="3.4375" stroke-miterlimit="8" fill="#D6DBD9" fill-rule="evenodd"/><path d="M578.997 1847.4 563.868 1850.35C559.53 1851.2 555.364 1848.28 554.51 1843.81L551.641 1828.23C550.821 1823.77 553.656 1819.48 557.993 1818.6L573.123 1815.65C577.46 1814.8 581.627 1817.72 582.481 1822.19L585.35 1837.77C586.203 1842.27 583.335 1846.56 578.997 1847.4Z" stroke="#000000" stroke-width="3.4375" stroke-miterlimit="8" fill="#D6DBD9" fill-rule="evenodd"/><path d="M626.005 1837.49 610.871 1840.36C606.532 1841.18 602.365 1838.34 601.51 1834.01L598.641 1818.87C597.821 1814.53 600.657 1810.36 604.995 1809.51L620.129 1806.64C624.467 1805.82 628.635 1808.66 629.489 1813L632.359 1828.13C633.179 1832.47 630.343 1836.67 626.005 1837.49Z" stroke="#000000" stroke-width="3.4375" stroke-miterlimit="8" fill="#D6DBD9" fill-rule="evenodd"/><path d="M673.998 1828.49 658.868 1831.36C654.53 1832.18 650.364 1829.34 649.51 1825.01L646.641 1809.87C645.822 1805.53 648.656 1801.36 652.994 1800.51L668.123 1797.64C672.461 1796.82 676.627 1799.66 677.481 1804L680.35 1819.13C681.204 1823.47 678.335 1827.64 673.998 1828.49Z" stroke="#000000" stroke-width="3.4375" stroke-miterlimit="8" fill="#D6DBD9" fill-rule="evenodd"/><path d="M721.814 1819.49 706.235 1822.36C701.769 1823.18 697.478 1820.34 696.599 1816L693.645 1800.87C692.801 1796.53 695.72 1792.36 700.186 1791.51L715.765 1788.64C720.231 1787.82 724.522 1790.66 725.401 1795L728.355 1810.13C729.199 1814.5 726.28 1818.67 721.814 1819.49Z" stroke="#000000" stroke-width="3.4375" stroke-miterlimit="8" fill="#D6DBD9" fill-rule="evenodd"/><path d="M760.998 1808.49 745.868 1811.36C741.53 1812.18 737.364 1809.34 736.51 1805.01L733.641 1789.87C732.821 1785.53 735.656 1781.36 739.994 1780.51L755.123 1777.64C759.46 1776.82 763.627 1779.66 764.481 1784L767.35 1799.13C768.204 1803.5 765.335 1807.67 760.998 1808.49Z" stroke="#000000" stroke-width="3.4375" stroke-miterlimit="8" fill="#D6DBD9" fill-rule="evenodd"/><path d="M808.997 1799.49 793.868 1802.36C789.53 1803.18 785.364 1800.34 784.51 1796.01L781.641 1780.87C780.821 1776.53 783.656 1772.36 787.993 1771.51L803.123 1768.64C807.46 1767.82 811.627 1770.66 812.481 1775L815.35 1790.13C816.203 1794.47 813.335 1798.67 808.997 1799.49Z" stroke="#000000" stroke-width="3.4375" stroke-miterlimit="8" fill="#D6DBD9" fill-rule="evenodd"/><path d="M854.005 1791.49 838.871 1794.36C834.532 1795.18 830.365 1792.34 829.51 1788.01L826.641 1772.87C825.821 1768.53 828.656 1764.36 832.995 1763.51L848.129 1760.64C852.467 1759.82 856.635 1762.66 857.489 1767L860.359 1782.13C861.179 1786.47 858.343 1790.67 854.005 1791.49Z" stroke="#000000" stroke-width="3.4375" stroke-miterlimit="8" fill="#D6DBD9" fill-rule="evenodd"/><path d="M941.945 1770.34 882.986 1781.36C878.607 1782.18 874.401 1779.35 873.538 1775.04L870.642 1759.97C869.815 1755.65 872.676 1751.51 877.055 1750.66L936.014 1739.64C940.393 1738.82 944.6 1741.65 945.461 1745.96L948.358 1761.03C949.185 1765.38 946.323 1769.53 941.945 1770.34Z" stroke="#000000" stroke-width="3.4375" stroke-miterlimit="8" fill="#D6DBD9" fill-rule="evenodd"/><path d="M304.996 1943.49 289.867 1946.36C285.53 1947.18 281.364 1944.34 280.51 1940.01L277.641 1924.87C276.821 1920.53 279.656 1916.36 283.993 1915.51L299.122 1912.64C303.46 1911.82 307.626 1914.66 308.48 1919L311.348 1934.13C312.202 1938.5 309.368 1942.67 304.996 1943.49Z" stroke="#000000" stroke-width="3.4375" stroke-miterlimit="8" fill="#D6DBD9" fill-rule="evenodd"/><path d="M349.005 1934.49 333.871 1937.36C329.532 1938.18 325.365 1935.34 324.51 1931.01L321.641 1915.87C320.821 1911.53 323.657 1907.36 327.995 1906.51L343.129 1903.64C347.467 1902.82 351.635 1905.66 352.489 1910L355.359 1925.13C356.179 1929.5 353.343 1933.67 349.005 1934.49Z" stroke="#000000" stroke-width="3.4375" stroke-miterlimit="8" fill="#D6DBD9" fill-rule="evenodd"/><path d="M396.998 1925.49 381.868 1928.36C377.53 1929.18 373.364 1926.34 372.51 1922.01L369.641 1906.87C368.821 1902.53 371.656 1898.36 375.994 1897.51L391.123 1894.64C395.46 1893.82 399.627 1896.66 400.481 1901L403.35 1916.13C404.204 1920.47 401.335 1924.67 396.998 1925.49Z" stroke="#000000" stroke-width="3.4375" stroke-miterlimit="8" fill="#D6DBD9" fill-rule="evenodd"/><path d="M441.005 1917.49 425.871 1920.36C421.533 1921.18 417.365 1918.34 416.511 1914.01L413.641 1898.87C412.821 1894.53 415.657 1890.36 419.995 1889.51L435.129 1886.64C439.468 1885.82 443.636 1888.66 444.49 1893L447.359 1908.13C448.179 1912.47 445.343 1916.67 441.005 1917.49Z" stroke="#000000" stroke-width="3.4375" stroke-miterlimit="8" fill="#D6DBD9" fill-rule="evenodd"/><path d="M495.005 1907.49 479.871 1910.36C475.533 1911.18 471.365 1908.34 470.511 1904.01L467.641 1888.87C466.821 1884.53 469.657 1880.36 473.995 1879.51L489.129 1876.64C493.468 1875.82 497.635 1878.66 498.489 1883L501.359 1898.13C502.179 1902.47 499.344 1906.67 495.005 1907.49Z" stroke="#000000" stroke-width="3.4375" stroke-miterlimit="8" fill="#D6DBD9" fill-rule="evenodd"/><path d="M676.943 1872.65 524.971 1901.36C520.597 1902.18 516.396 1899.33 515.535 1894.97L512.642 1879.76C511.816 1875.4 514.674 1871.21 519.048 1870.35L671.02 1841.64C675.393 1840.82 679.595 1843.67 680.456 1848.03L683.348 1863.24C684.209 1867.64 681.317 1871.83 676.943 1872.65Z" stroke="#000000" stroke-width="3.4375" stroke-miterlimit="8" fill="#D6DBD9" fill-rule="evenodd"/><path d="M721.814 1864.49 706.235 1867.36C701.769 1868.18 697.478 1865.34 696.599 1861.01L693.645 1845.87C692.801 1841.53 695.72 1837.36 700.186 1836.51L715.765 1833.64C720.231 1832.82 724.522 1835.66 725.401 1840L728.355 1855.13C729.199 1859.47 726.28 1863.67 721.814 1864.49Z" stroke="#000000" stroke-width="3.4375" stroke-miterlimit="8" fill="#D6DBD9" fill-rule="evenodd"/><path d="M768.997 1855.49 753.868 1858.36C749.53 1859.18 745.364 1856.34 744.51 1852.01L741.641 1836.87C740.822 1832.53 743.656 1828.36 747.993 1827.51L763.123 1824.64C767.46 1823.82 771.627 1826.66 772.481 1831L775.35 1846.13C776.204 1850.47 773.335 1854.67 768.997 1855.49Z" stroke="#000000" stroke-width="3.4375" stroke-miterlimit="8" fill="#D6DBD9" fill-rule="evenodd"/><path d="M813.005 1847.4 797.871 1850.35C793.532 1851.2 789.365 1848.28 788.511 1843.81L785.641 1828.23C784.821 1823.77 787.657 1819.48 791.995 1818.6L807.129 1815.65C811.468 1814.8 815.635 1817.72 816.489 1822.19L819.359 1837.77C820.179 1842.23 817.344 1846.52 813.005 1847.4Z" stroke="#000000" stroke-width="3.4375" stroke-miterlimit="8" fill="#D6DBD9" fill-rule="evenodd"/><path d="M854.806 1839.49 839.231 1842.36C834.766 1843.18 830.477 1840.34 829.599 1836.01L826.645 1820.87C825.802 1816.53 828.719 1812.36 833.184 1811.51L848.759 1808.64C853.224 1807.82 857.513 1810.66 858.392 1815L861.345 1830.13C862.224 1834.47 859.271 1838.67 854.806 1839.49Z" stroke="#000000" stroke-width="3.4375" stroke-miterlimit="8" fill="#D6DBD9" fill-rule="evenodd"/><path d="M901.998 1828.49 886.868 1831.36C882.53 1832.18 878.364 1829.34 877.51 1825L874.641 1809.87C873.822 1805.53 876.656 1801.36 880.994 1800.51L896.123 1797.64C900.46 1796.82 904.627 1799.66 905.481 1804L908.35 1819.13C909.204 1823.5 906.335 1827.67 901.998 1828.49Z" stroke="#000000" stroke-width="3.4375" stroke-miterlimit="8" fill="#D6DBD9" fill-rule="evenodd"/><path d="M950.005 1819.49 934.871 1822.36C930.533 1823.18 926.365 1820.34 925.511 1816.01L922.641 1800.87C921.821 1796.53 924.657 1792.36 928.995 1791.51L944.129 1788.64C948.468 1787.82 952.636 1790.66 953.49 1795L956.359 1810.13C957.179 1814.5 954.344 1818.67 950.005 1819.49Z" stroke="#000000" stroke-width="3.4375" stroke-miterlimit="8" fill="#D6DBD9" fill-rule="evenodd"/><path d="M1002 1671.49 986.868 1674.36C982.53 1675.18 978.364 1672.34 977.51 1668.01L974.641 1652.87C973.822 1648.53 976.656 1644.36 980.994 1643.51L996.123 1640.64C1000.46 1639.82 1004.63 1642.66 1005.48 1647L1008.35 1662.13C1009.2 1666.47 1006.33 1670.64 1002 1671.49Z" stroke="#000000" stroke-width="3.4375" stroke-miterlimit="8" fill="#D6DBD9" fill-rule="evenodd"/><path d="M1093 1654.49 1077.87 1657.36C1073.53 1658.18 1069.36 1655.34 1068.51 1651.01L1065.64 1635.87C1064.82 1631.53 1067.66 1627.36 1071.99 1626.51L1087.12 1623.64C1091.46 1622.82 1095.63 1625.66 1096.48 1630L1099.35 1645.13C1100.2 1649.47 1097.33 1653.67 1093 1654.49Z" stroke="#000000" stroke-width="3.4375" stroke-miterlimit="8" fill="#D6DBD9" fill-rule="evenodd"/><path d="M1047.01 1663.4 1031.87 1666.35C1027.53 1667.2 1023.36 1664.28 1022.51 1659.81L1019.64 1644.23C1018.82 1639.77 1021.66 1635.48 1026 1634.6L1041.13 1631.65C1045.47 1630.8 1049.64 1633.72 1050.49 1638.19L1053.36 1653.77C1054.18 1658.23 1051.34 1662.56 1047.01 1663.4Z" stroke="#000000" stroke-width="3.4375" stroke-miterlimit="8" fill="#D6DBD9" fill-rule="evenodd"/><path d="M1010.01 1715.49 994.871 1718.36C990.532 1719.18 986.365 1716.34 985.51 1712.01L982.641 1696.87C981.821 1692.53 984.657 1688.36 988.995 1687.51L1004.13 1684.64C1008.47 1683.82 1012.64 1686.66 1013.49 1691L1016.36 1706.13C1017.18 1710.47 1014.34 1714.67 1010.01 1715.49Z" stroke="#000000" stroke-width="3.4375" stroke-miterlimit="8" fill="#D6DBD9" fill-rule="evenodd"/><path d="M1055.01 1705.49 1039.87 1708.36C1035.53 1709.18 1031.36 1706.34 1030.51 1702L1027.64 1686.87C1026.82 1682.53 1029.66 1678.36 1034 1677.51L1049.13 1674.64C1053.47 1673.82 1057.64 1676.66 1058.49 1681L1061.36 1696.13C1062.18 1700.47 1059.34 1704.67 1055.01 1705.49Z" stroke="#000000" stroke-width="3.4375" stroke-miterlimit="8" fill="#D6DBD9" fill-rule="evenodd"/><path d="M1101 1696.49 1085.87 1699.36C1081.53 1700.18 1077.36 1697.34 1076.51 1693L1073.64 1677.87C1072.82 1673.53 1075.66 1669.36 1079.99 1668.51L1095.12 1665.64C1099.46 1664.82 1103.63 1667.66 1104.48 1672L1107.35 1687.13C1108.2 1691.5 1105.34 1695.67 1101 1696.49Z" stroke="#000000" stroke-width="3.4375" stroke-miterlimit="8" fill="#D6DBD9" fill-rule="evenodd"/><path d="M1019.01 1758.49 1003.87 1761.36C999.532 1762.18 995.365 1759.34 994.51 1755L991.641 1739.87C990.821 1735.53 993.656 1731.36 997.995 1730.51L1013.13 1727.64C1017.47 1726.82 1021.64 1729.66 1022.49 1734L1025.36 1749.13C1026.18 1753.5 1023.34 1757.67 1019.01 1758.49Z" stroke="#000000" stroke-width="3.4375" stroke-miterlimit="8" fill="#D6DBD9" fill-rule="evenodd"/><path d="M1062.81 1746.49 1047.23 1749.36C1042.77 1750.18 1038.48 1747.34 1037.6 1743L1034.65 1727.87C1033.8 1723.53 1036.72 1719.36 1041.18 1718.51L1056.76 1715.64C1061.22 1714.82 1065.51 1717.66 1066.39 1722L1069.35 1737.13C1070.22 1741.5 1067.27 1745.67 1062.81 1746.49Z" stroke="#000000" stroke-width="3.4375" stroke-miterlimit="8" fill="#D6DBD9" fill-rule="evenodd"/><path d="M1110.81 1738.49 1095.23 1741.36C1090.77 1742.18 1086.48 1739.34 1085.6 1735.01L1082.65 1719.87C1081.8 1715.53 1084.72 1711.36 1089.18 1710.51L1104.76 1707.64C1109.22 1706.82 1113.51 1709.66 1114.39 1714L1117.35 1729.13C1118.22 1733.47 1115.27 1737.67 1110.81 1738.49Z" stroke="#000000" stroke-width="3.4375" stroke-miterlimit="8" fill="#D6DBD9" fill-rule="evenodd"/><path d="M1079.97 1789.39 1010.92 1802.36C1006.56 1803.18 1002.38 1800.35 1001.52 1796.03L998.642 1780.94C997.819 1776.62 1000.66 1772.46 1005.02 1771.61L1074.07 1758.64C1078.43 1757.82 1082.61 1760.65 1083.47 1764.97L1086.35 1780.06C1087.21 1784.42 1084.33 1788.57 1079.97 1789.39L1079.97 1789.39Z" stroke="#000000" stroke-width="3.4375" stroke-miterlimit="8" fill="#D6DBD9" fill-rule="evenodd"/><path d="M1119 1781.49 1103.87 1784.36C1099.53 1785.18 1095.36 1782.34 1094.51 1778.01L1091.64 1762.87C1090.82 1758.53 1093.66 1754.36 1097.99 1753.51L1113.12 1750.64C1117.46 1749.82 1121.63 1752.66 1122.48 1757L1125.35 1772.13C1126.2 1776.47 1123.33 1780.67 1119 1781.49Z" stroke="#000000" stroke-width="3.4375" stroke-miterlimit="8" fill="#D6DBD9" fill-rule="evenodd"/><path d="M479.443 1285.39C466.048 1295.48 473.857 1330.46 487.452 1352.35 492.313 1360.18 503.06 1377.49 525.114 1384.05 544.028 1389.68 560.07 1384.08 564.638 1382.3 588.134 1373.16 609.776 1347.62 604.774 1329.12 602.521 1320.78 596.081 1318.39 522.469 1293.3 497.906 1284.92 485.501 1280.83 479.443 1285.39Z" stroke="#000000" stroke-width="20.625" stroke-miterlimit="8" fill="#231815" fill-rule="evenodd"/><path d="M328.443 1617.85C324.967 1626.93 342.347 1643.94 366.715 1667.76 369.984 1670.96 381.101 1681.61 397.415 1693.33 406.329 1699.73 413.66 1704.16 416.895 1706.12 425.671 1711.31 441.813 1721.17 463.22 1727.74 485.075 1734.41 500.872 1739.25 521.282 1735.92 529.266 1734.61 555.32 1730.39 561.619 1713.37 565.267 1703.54 560.724 1693.54 559.072 1689.86 536.081 1639.03 338.837 1590.56 328.409 1617.89L328.443 1617.85Z" fill="#5B5742" fill-rule="evenodd" fill-opacity="0.431373"/><path d="M305.036 1387.08C313.844 1372.09 319.251 1370.04 322.448 1370.57 330.017 1371.85 329.989 1388.6 343.642 1414.89 348.279 1423.82 352.405 1430.12 355.895 1435.45 379.516 1467.09 418.622 1514.8 445.774 1549.22 493.233 1601.81 505.706 1619.25 542.454 1663.14 545.177 1665.75 553.368 1673.5 556.534 1685.93 571.389 1762.9 410.272 1676.28 394.257 1665.61 362.108 1645.39 362.521 1638.97 310.515 1596.51 257.959 1553.61 250.215 1554.19 245.5 1538.68 247.806 1519.81 252.266 1496.97 260.902 1471.95 273.589 1435.19 290.766 1406.83 305.036 1387.08Z" stroke="#000000" stroke-width="20.625" stroke-miterlimit="8" fill="#EBE2B3" fill-rule="evenodd"/><path d="M835.319 1699.72C842.893 1712.28 882.99 1705.78 900.16 1700.96 914.246 1697.02 928.4 1689.87 933.849 1686.96 937.448 1685.08 944.987 1680.94 953.966 1674.74 968.874 1664.45 975.454 1657.26 991.596 1641.55 1013.29 1620.44 1028.58 1608.91 1043.21 1586.09 1046.36 1581.19 1050.78 1573.74 1048.25 1567.1 1044.99 1558.65 1032.28 1556.39 1027.75 1555.46 983.474 1546.5 817.601 1670.43 835.319 1699.72L835.319 1699.72Z" fill="#5B5742" fill-rule="evenodd" fill-opacity="0.431373"/><path d="M1017.33 1365.5C1012.45 1371 1005.05 1379.73 997.038 1391.13 984.93 1408.38 979.391 1420.3 969.829 1437.62 966.216 1444.15 957.135 1458.72 939.075 1487.62 918.091 1521.22 907.634 1538.02 896.041 1556.1 840.933 1642.17 821.015 1664.4 829.306 1676.22 832.574 1680.89 841.036 1685.12 865.288 1680.51 890.365 1674.6 924.937 1663.27 961.263 1640.48 1020.29 1603.44 1052.94 1555.58 1068.49 1528.68 1068.66 1517.61 1067.25 1510.26 1059.78 1491.02 1051.23 1468.99 1055.62 1455.66 1045.71 1424.36 1042.64 1414.64 1037.03 1400.11 1026.24 1383.31 1023.27 1377.38 1020.3 1371.44 1017.33 1365.5Z" stroke="#000000" stroke-width="20.625" stroke-miterlimit="8" fill="#EBE2B3" fill-rule="evenodd"/><path d="M569 1358C569 1369.05 560.046 1378 549 1378 537.954 1378 529 1369.05 529 1358 529 1346.95 537.954 1338 549 1338 560.046 1338 569 1346.95 569 1358Z" fill="#FFFFFF" fill-rule="evenodd"/><path d="M882.557 1285.39C895.953 1295.48 888.144 1330.46 874.548 1352.35 869.688 1360.18 858.941 1377.49 836.886 1384.05 817.972 1389.68 801.931 1384.08 797.362 1382.3 773.866 1373.16 752.225 1347.62 757.226 1329.12 759.48 1320.78 765.92 1318.39 839.531 1293.3 864.094 1284.92 876.499 1280.83 882.557 1285.39Z" stroke="#000000" stroke-width="20.625" stroke-miterlimit="8" fill="#231815" fill-rule="evenodd"/><path d="M843 1358C843 1369.05 834.046 1378 823 1378 811.954 1378 803 1369.05 803 1358 803 1346.95 811.954 1338 823 1338 834.046 1338 843 1346.95 843 1358Z" fill="#FFFFFF" fill-rule="evenodd"/></g></svg>