<svg width="2447" height="1266" xmlns="http://www.w3.org/2000/svg" xmlns:xlink="http://www.w3.org/1999/xlink" xml:space="preserve" overflow="hidden"><defs><clipPath id="clip0"><rect x="90" y="-464" width="2447" height="1266"/></clipPath></defs><g clip-path="url(#clip0)" transform="translate(-90 464)"><path d="M1237 203 2537 203 2537 222 1237 222Z" fill="#FFDA00" fill-rule="evenodd"/><path d="M1237 206 2537 206 2537 218 1237 218Z" fill="#F08110" fill-rule="evenodd"/><path d="M1229.77 225.5 1131.23 225.5C1126.96 225.5 1123.5 222.073 1123.5 217.846L1123.5 207.154C1123.5 202.927 1126.96 199.5 1131.23 199.5L1229.77 199.5C1234.04 199.5 1237.5 202.927 1237.5 207.154L1237.5 217.846C1237.5 222.073 1234.04 225.5 1229.77 225.5Z" stroke="#000000" stroke-width="6.875" stroke-miterlimit="8" fill="#CBC49C" fill-rule="evenodd"/><path d="M1122.28 234.5 1115.72 234.5C1112.29 234.5 1109.5 231.699 1109.5 228.244L1109.5 196.756C1109.5 193.301 1112.29 190.5 1115.72 190.5L1122.28 190.5C1125.71 190.5 1128.5 193.301 1128.5 196.756L1128.5 228.244C1128.5 231.699 1125.71 234.5 1122.28 234.5Z" stroke="#000000" stroke-width="6.875" stroke-miterlimit="8" fill="#CBC49C" fill-rule="evenodd"/><path d="M1102.78 243.5 1091.22 243.5C1085.85 243.5 1081.5 239.241 1081.5 233.983L1081.5 188.016C1081.5 182.763 1085.85 178.5 1091.22 178.5L1102.78 178.5C1108.15 178.5 1112.5 182.759 1112.5 188.016L1112.5 233.983C1112.5 239.241 1108.15 243.5 1102.78 243.5Z" stroke="#000000" stroke-width="6.875" stroke-miterlimit="8" fill="#CBC49C" fill-rule="evenodd"/><path d="M394.5 587.5C396.744 591.987 398.574 595.858 399.92 598.839 404.651 609.355 407.516 617.542 408.621 620.728 411.521 629.052 411.624 630.662 417.424 650.462 426.746 682.251 427.506 681.565 429.75 692.458 432.857 707.428 431.269 707.805 435.032 729.18 438.519 748.946 440.383 758.949 445.596 765.902 446.943 767.683 460.269 784.914 479.085 783.407 491.445 782.413 499.662 773.815 505.531 767.649 509.087 763.95 511.849 760.147 524.934 732.675 532.495 716.814 536.327 708.696 539.054 701.194 540.504 697.22 541.471 694.034 542.196 691.26 545.165 680.058 547.064 672.83 547.858 669.713 549.688 662.519 554.073 652.311 565.5 639.979 508.5 622.475 451.5 605.005 394.5 587.5L394.5 587.5Z" stroke="#000000" stroke-width="20.625" stroke-miterlimit="8" fill="#EBE2B3" fill-rule="evenodd"/><path d="M751.5 630.096C759.115 647.458 766.731 667.197 773.657 689.174 780.48 710.877 785.511 731.201 789.232 749.7 808.323 796.721 858.598 785.146 864.629 735.644 871.624 713.873 878.377 690.656 884.615 666.06 890.231 643.91 894.987 622.552 898.984 602.159 899.501 591.928 899.983 581.697 900.5 571.5L751.569 630.096 751.5 630.096Z" stroke="#000000" stroke-width="20.625" stroke-miterlimit="8" fill="#EBE2B3" fill-rule="evenodd"/><path d="M190.769 174.542C188.363 164.884 185.579 150.277 185.511 132.406 185.442 113.4 188.535 108.176 189.016 92.0577 189.979 60.1296 178.534 58.3078 178.5 30.6415 178.5-2.21463 194.515-27.9906 199.567-36.033 211.046-54.4201 215.616-51.8081 229.397-72.8758 242.217-92.4659 248.128-109.787 253.97-127.281 264.108-157.628 261.703-163.711 269.779-192.202 275.484-212.342 282.735-238.015 299.61-264.169 310.607-281.216 329.165-297.748 366.282-330.844 390.133-352.118 407.316-365.831 420.685-376.485 461.444-408.929 474.848-415.871 480.346-418.621 499.626-428.175 516.981-436.801 540.008-436.183 551.589-435.873 569.838-434.739 589.462-434.911 592.246-434.946 598.535-434.911 606.714-435.427 610.22-435.667 616.096-436.114 623.176-437.076 635.204-438.692 644.243-440.822 647.027-441.476 687.167-450.755 707.444-456.357 726.002-451.992 748.307-446.768 763.291-433.846 776.9-422.161 785.526-414.737 797.383-399.546 820.787-369.509 846.803-336.068 852.817-327.098 868.179-315.103 883.541-303.109 885.466-305.927 896.257-295.789 910.622-282.316 916.018-269.084 929.593-237.878 955.54-178.214 953.409-186.016 955.918-178.214 958.461-170.207 959.905-162.337 963.17-146.665 967.294-126.834 968.497-117.28 973.48-88.6852 977.363-66.4835 979.185-55.3478 980.491-50.0895 989.289-14.4497 1002.52 9.74554 1006.82 18.3378 1026.92 58.4796 1024.89 105.942 1020.87 200.868 1018.43 258.434 1017.09 289.71 1003.31 330.745 996.196 351.916 992.932 354.356 975.233 402.713 960.249 443.611 957.774 455.021 945.402 483.444 931.655 515.062 924.782 530.872 910.313 548.365 904.196 555.789 889.933 571.736 852.404 594.006 821.199 612.531 786.076 633.358 734.835 643.153 660.945 657.279 599.222 639.751 575.131 632.636 560.112 628.203 555.026 625.522 525.986 616.827 476.6 602.049 462.853 601.258 432.988 592.254 415.117 586.858 406.148 584.349 394.978 580.053 383.74 575.722 358.274 565.721 332.946 548.365 289.884 518.912 266.205 481.416 257.475 465.881 250.602 453.612 241.186 425.533 222.387 369.341 209.98 332.257 203.691 313.458 201.32 300.914 196.714 276.615 195.305 253.451 192.556 207.913 191.663 193.788 191.113 182.205 190.769 174.542Z" stroke="#000000" stroke-width="20.625" stroke-miterlimit="8" fill="#EBE2B3" fill-rule="evenodd"/><path d="M435.214-298.907 448.361-323.725 566.261-261.273 553.114-236.455Z" stroke="#000000" stroke-width="10.3136" stroke-miterlimit="8" fill="#595850" fill-rule="evenodd"/><path d="M689.138-263.182 809.36-321.045 821.54-295.738 701.319-237.875Z" stroke="#000000" stroke-width="10.3136" stroke-miterlimit="8" fill="#595850" fill-rule="evenodd"/><path d="M890 792.5C890 797.747 785.235 802 656 802 526.766 802 422 797.747 422 792.5 422 787.253 526.766 783 656 783 785.235 783 890 787.253 890 792.5Z" fill="#5B5742" fill-rule="evenodd" fill-opacity="0.470588"/><path d="M712-39.9999C712-27.8492 678.198-17.9995 636.5-17.9995 594.803-17.9995 561-27.8492 561-39.9999 561-52.1502 594.803-61.9999 636.5-61.9999 678.198-61.9999 712-52.1502 712-39.9999Z" stroke="#000000" stroke-width="10.3125" stroke-miterlimit="8" fill="#E73A8F" fill-rule="evenodd"/><path d="M422.443-228.587C409.047-218.402 416.857-183.084 430.452-160.979 435.313-153.076 446.06-135.602 468.114-128.973 487.028-123.286 503.07-128.942 507.638-130.737 531.134-139.973 552.776-165.758 547.774-184.441 545.521-192.858 539.081-195.275 465.469-220.608 440.906-229.064 428.501-233.196 422.443-228.587Z" stroke="#000000" stroke-width="20.625" stroke-miterlimit="8" fill="#231815" fill-rule="evenodd"/><path d="M795.325 190.676C802.934 203.316 843.218 196.772 860.468 191.916 874.619 187.955 888.839 180.757 894.314 177.829 897.929 175.935 905.503 171.767 914.524 165.533 929.502 155.166 936.112 147.933 952.329 132.124 974.124 110.873 989.48 99.2651 1004.18 76.2921 1007.35 71.3667 1011.79 63.858 1009.24 57.1763 1005.97 48.6689 993.198 46.3955 988.654 45.4658 944.169 36.4416 777.525 161.193 795.325 190.676L795.325 190.676Z" fill="#5B5742" fill-rule="evenodd" fill-opacity="0.431373"/><path d="M512-155C512-143.954 503.046-135 492-135 480.954-135 472-143.954 472-155 472-166.046 480.954-175 492-175 503.046-175 512-166.046 512-155Z" fill="#FFFFFF" fill-rule="evenodd"/><path d="M825.557-228.587C838.953-218.402 831.144-183.084 817.548-160.979 812.688-153.076 801.941-135.602 779.886-128.973 760.972-123.286 744.931-128.942 740.362-130.737 716.866-139.973 695.225-165.758 700.226-184.441 702.48-192.858 708.92-195.275 782.531-220.608 807.094-229.064 819.499-233.196 825.557-228.587Z" stroke="#000000" stroke-width="20.625" stroke-miterlimit="8" fill="#231815" fill-rule="evenodd"/><path d="M786-155C786-143.954 776.822-135 765.5-135 754.178-135 745-143.954 745-155 745-166.046 754.178-175 765.5-175 776.822-175 786-166.046 786-155Z" fill="#FFFFFF" fill-rule="evenodd"/><path d="M960.066-147.481C957.24-147.23 959.259-143.073 940.684-115.195 940.684-115.195 932.16-99.4422 925.779-88.0013 918.464-74.8907 912.883-65.5866 904.734-52.0359 885.289-19.6888 885.347-21.585 878.427-9.05151 874.244-1.47234 870.515 5.93515 856.506 38.3169 834.043 90.2516 827.095 92.5673 830.2 100.6 839.112 123.647 899.184 131.941 940.68 108.495 948.661 103.984 954.733 98.1124 966.987 86.5651 1002.91 52.7091 1010.8 44.6625 1013.02 33.6991 1014 28.8549 1013.7 26.0583 1009.9 4.42343 1003.55-31.731 1000.38-49.8064 998.554-57.2997 995.56-69.5583 976.183-148.91 960.066-147.481Z" stroke="#000000" stroke-width="20.625" stroke-miterlimit="8" fill="#EBE2B3" fill-rule="evenodd"/><path d="M1049.56 410.208 137.09 423.497C119.151 423.754 104.414 409.457 104.15 391.591L100.503 143.665C100.246 125.764 114.573 111.06 132.478 110.795L1044.91 97.5034C1062.85 97.2463 1077.58 111.543 1077.85 129.409L1081.5 377.332C1081.79 395.205 1067.46 409.944 1049.56 410.208Z" stroke="#000000" stroke-width="20.625" stroke-miterlimit="8" fill="#A6A897" fill-rule="evenodd"/><path d="M376.683 183.084 347.807 183.5C343.422 183.561 339.823 180.032 339.728 175.586L339.501 160.095C339.44 155.655 342.926 152.013 347.318 151.916L376.194 151.501C380.579 151.439 384.177 154.968 384.272 159.415L384.5 174.906C384.554 179.383 381.068 183.022 376.683 183.084Z" stroke="#000000" stroke-width="3.4375" stroke-miterlimit="8" fill="#D6DBD9" fill-rule="evenodd"/><path d="M515.682 181.084 486.807 181.499C482.421 181.561 478.823 178.032 478.728 173.586L478.501 158.095C478.44 153.655 481.926 150.013 486.318 149.917L515.194 149.501C519.579 149.439 523.177 152.968 523.272 157.415L523.499 172.905C523.561 177.345 520.071 181.022 515.682 181.084Z" stroke="#000000" stroke-width="3.4375" stroke-miterlimit="8" fill="#D6DBD9" fill-rule="evenodd"/><path d="M189.508 186.083 159.991 186.499C155.509 186.561 151.83 183.032 151.733 178.586L151.501 163.095C151.439 158.655 155.002 155.012 159.491 154.916L189.008 154.501C193.491 154.439 197.169 157.968 197.266 162.414L197.498 177.905C197.596 182.352 193.99 186.022 189.508 186.083Z" stroke="#000000" stroke-width="3.4375" stroke-miterlimit="8" fill="#D6DBD9" fill-rule="evenodd"/><path d="M251.508 185.083 221.991 185.499C217.508 185.561 213.83 182.032 213.733 177.586L213.501 162.095C213.438 157.655 217.002 154.013 221.491 153.916L251.008 153.501C255.491 153.439 259.169 156.968 259.266 161.415L259.499 176.905C259.589 181.386 255.991 185.022 251.508 185.083Z" stroke="#000000" stroke-width="3.4375" stroke-miterlimit="8" fill="#D6DBD9" fill-rule="evenodd"/><path d="M758.681 177.083 729.807 177.499C725.421 177.561 721.823 174.032 721.728 169.585L721.501 154.095C721.44 149.655 724.926 146.013 729.318 145.916L758.193 145.501C762.578 145.439 766.176 148.968 766.271 153.414L766.498 168.905C766.593 173.351 763.073 176.987 758.681 177.083Z" stroke="#000000" stroke-width="3.4375" stroke-miterlimit="8" fill="#D6DBD9" fill-rule="evenodd"/><path d="M314.681 184.083 285.806 184.499C281.421 184.561 277.823 181.032 277.728 176.586L277.501 161.095C277.44 156.655 280.926 153.013 285.318 152.916L314.192 152.501C318.578 152.439 322.176 155.968 322.271 160.415L322.498 175.905C322.593 180.352 319.066 184.018 314.681 184.083Z" stroke="#000000" stroke-width="3.4375" stroke-miterlimit="8" fill="#D6DBD9" fill-rule="evenodd"/><path d="M578.508 180.083 548.991 180.499C544.508 180.561 540.83 177.032 540.733 172.586L540.501 157.095C540.438 152.655 544.002 149.013 548.491 148.916L578.009 148.501C582.492 148.439 586.17 151.968 586.267 156.414L586.499 171.905C586.565 176.348 582.995 180.022 578.508 180.083Z" stroke="#000000" stroke-width="3.4375" stroke-miterlimit="8" fill="#D6DBD9" fill-rule="evenodd"/><path d="M638.509 179.083 608.991 179.499C604.509 179.561 600.83 176.032 600.733 171.586L600.501 156.095C600.438 151.655 604.002 148.013 608.492 147.917L638.009 147.501C642.492 147.439 646.17 150.968 646.267 155.414L646.499 170.905C646.558 175.379 642.991 179.022 638.509 179.083Z" stroke="#000000" stroke-width="3.4375" stroke-miterlimit="8" fill="#D6DBD9" fill-rule="evenodd"/><path d="M698.507 178.084 668.991 178.499C664.508 178.561 660.83 175.032 660.733 170.586L660.501 155.095C660.438 150.655 664.002 147.013 668.491 146.917L698.008 146.501C702.491 146.439 706.168 149.968 706.266 154.415L706.498 169.905C706.595 174.352 702.99 178.018 698.507 178.084Z" stroke="#000000" stroke-width="3.4375" stroke-miterlimit="8" fill="#D6DBD9" fill-rule="evenodd"/><path d="M446.508 182.084 416.991 182.499C412.508 182.561 408.83 179.032 408.733 174.586L408.501 159.095C408.438 154.655 412.002 151.013 416.491 150.917L446.008 150.501C450.491 150.439 454.169 153.968 454.266 158.415L454.498 173.905C454.589 178.386 450.991 182.018 446.508 182.084Z" stroke="#000000" stroke-width="3.4375" stroke-miterlimit="8" fill="#D6DBD9" fill-rule="evenodd"/><path d="M828.681 174.083 799.807 174.499C795.421 174.561 791.823 171.032 791.728 166.586L791.501 151.095C791.44 146.655 794.926 143.013 799.318 142.916L828.193 142.501C832.578 142.439 836.176 145.968 836.271 150.415L836.498 165.905C836.596 170.352 833.07 174.022 828.681 174.083Z" stroke="#000000" stroke-width="3.4375" stroke-miterlimit="8" fill="#D6DBD9" fill-rule="evenodd"/><path d="M218.568 230.625 158.927 231.499C154.478 231.562 150.828 227.972 150.731 223.449L150.501 207.69C150.439 203.174 153.975 199.469 158.431 199.371L218.072 198.501C222.521 198.438 226.171 202.028 226.268 206.551L226.499 222.309C226.591 226.864 223.021 230.562 218.568 230.625Z" stroke="#000000" stroke-width="3.4375" stroke-miterlimit="8" fill="#D6DBD9" fill-rule="evenodd"/><path d="M268.788 229.275 253.694 229.5C249.368 229.56 245.819 226.121 245.725 221.788L245.501 206.694C245.441 202.368 248.879 198.819 253.212 198.725L268.306 198.501C272.632 198.44 276.181 201.879 276.275 206.212L276.5 221.306C276.553 225.666 273.114 229.212 268.788 229.275Z" stroke="#000000" stroke-width="3.4375" stroke-miterlimit="8" fill="#D6DBD9" fill-rule="evenodd"/><path d="M314.539 229.268 298.958 229.5C294.493 229.562 290.829 226.012 290.732 221.54L290.501 205.959C290.439 201.493 293.988 197.829 298.46 197.733L314.041 197.501C318.506 197.439 322.17 200.988 322.267 205.461L322.498 221.042C322.595 225.514 319.004 229.206 314.539 229.268Z" stroke="#000000" stroke-width="3.4375" stroke-miterlimit="8" fill="#D6DBD9" fill-rule="evenodd"/><path d="M362.539 228.268 346.958 228.5C342.493 228.562 338.829 225.012 338.732 220.54L338.501 204.959C338.439 200.493 341.988 196.829 346.46 196.733L362.041 196.501C366.506 196.439 370.17 199.988 370.267 204.461L370.499 220.042C370.595 224.514 367.008 228.206 362.539 228.268Z" stroke="#000000" stroke-width="3.4375" stroke-miterlimit="8" fill="#D6DBD9" fill-rule="evenodd"/><path d="M407.54 227.275 391.959 227.5C387.493 227.56 383.829 224.121 383.732 219.789L383.501 204.694C383.439 200.368 386.988 196.819 391.461 196.725L407.042 196.501C411.507 196.441 415.171 199.879 415.268 204.212L415.5 219.306C415.559 223.669 412.009 227.215 407.54 227.275L407.54 227.275Z" stroke="#000000" stroke-width="3.4375" stroke-miterlimit="8" fill="#D6DBD9" fill-rule="evenodd"/><path d="M462.539 227.268 446.958 227.5C442.493 227.562 438.829 224.012 438.732 219.54L438.501 203.959C438.439 199.493 441.988 195.829 446.46 195.733L462.041 195.501C466.507 195.439 470.17 198.988 470.267 203.461L470.499 219.042C470.595 223.514 467.004 227.206 462.539 227.268Z" stroke="#000000" stroke-width="3.4375" stroke-miterlimit="8" fill="#D6DBD9" fill-rule="evenodd"/><path d="M507.539 227.268 491.958 227.5C487.493 227.562 483.829 224.012 483.732 219.54L483.501 203.959C483.439 199.493 486.988 195.829 491.461 195.733L507.041 195.501C511.507 195.439 515.17 198.988 515.267 203.461L515.499 219.042C515.588 223.549 512.004 227.202 507.539 227.268Z" stroke="#000000" stroke-width="3.4375" stroke-miterlimit="8" fill="#D6DBD9" fill-rule="evenodd"/><path d="M555.54 226.268 539.958 226.5C535.493 226.562 531.829 223.012 531.732 218.54L531.501 202.959C531.439 198.493 534.988 194.829 539.461 194.733L555.042 194.501C559.507 194.439 563.171 197.988 563.268 202.461L563.5 218.042C563.558 222.545 560.008 226.206 555.54 226.268Z" stroke="#000000" stroke-width="3.4375" stroke-miterlimit="8" fill="#D6DBD9" fill-rule="evenodd"/><path d="M598.54 225.268 582.958 225.5C578.493 225.562 574.829 222.012 574.732 217.539L574.501 201.959C574.439 197.493 577.988 193.829 582.461 193.732L598.042 193.501C602.507 193.439 606.171 196.988 606.268 201.461L606.5 217.042C606.562 221.507 603.005 225.206 598.54 225.268Z" stroke="#000000" stroke-width="3.4375" stroke-miterlimit="8" fill="#D6DBD9" fill-rule="evenodd"/><path d="M647.539 224.268 631.959 224.5C627.493 224.562 623.829 221.012 623.732 216.539L623.501 200.958C623.439 196.493 626.988 192.829 631.461 192.732L647.042 192.501C651.507 192.439 655.171 195.988 655.268 200.461L655.5 216.042C655.562 220.511 652.005 224.206 647.539 224.268Z" stroke="#000000" stroke-width="3.4375" stroke-miterlimit="8" fill="#D6DBD9" fill-rule="evenodd"/><path d="M692.788 223.275 677.694 223.5C673.368 223.56 669.819 220.121 669.725 215.788L669.501 200.694C669.441 196.368 672.879 192.819 677.212 192.725L692.305 192.501C696.631 192.441 700.18 195.879 700.274 200.212L700.498 215.306C700.595 219.639 697.116 223.211 692.788 223.275Z" stroke="#000000" stroke-width="3.4375" stroke-miterlimit="8" fill="#D6DBD9" fill-rule="evenodd"/><path d="M741.539 223.268 725.958 223.5C721.493 223.562 717.829 220.012 717.732 215.54L717.501 199.958C717.439 195.493 720.988 191.829 725.46 191.733L741.041 191.501C745.506 191.439 749.17 194.988 749.267 199.461L749.498 215.042C749.588 219.549 746.004 223.206 741.539 223.268Z" stroke="#000000" stroke-width="3.4375" stroke-miterlimit="8" fill="#D6DBD9" fill-rule="evenodd"/><path d="M786.54 222.268 770.958 222.5C766.493 222.562 762.829 219.012 762.732 214.539L762.501 198.958C762.439 194.493 765.988 190.829 770.461 190.732L786.042 190.501C790.507 190.439 794.171 193.988 794.268 198.461L794.5 214.042C794.555 218.542 791.005 222.202 786.54 222.268Z" stroke="#000000" stroke-width="3.4375" stroke-miterlimit="8" fill="#D6DBD9" fill-rule="evenodd"/><path d="M828.539 222.268 812.958 222.5C808.493 222.562 804.829 219.012 804.732 214.539L804.501 198.958C804.439 194.493 807.988 190.829 812.46 190.732L828.041 190.501C832.506 190.439 836.17 193.988 836.267 198.461L836.498 214.042C836.588 218.552 833.004 222.206 828.539 222.268Z" stroke="#000000" stroke-width="3.4375" stroke-miterlimit="8" fill="#D6DBD9" fill-rule="evenodd"/><path d="M333.54 275.268 317.958 275.499C313.493 275.562 309.829 272.012 309.732 267.54L309.501 251.958C309.439 247.493 312.988 243.829 317.461 243.732L333.042 243.501C337.507 243.439 341.171 246.988 341.268 251.461L341.499 267.042C341.562 271.508 338.005 275.206 333.54 275.268Z" stroke="#000000" stroke-width="3.4375" stroke-miterlimit="8" fill="#D6DBD9" fill-rule="evenodd"/><path d="M383.54 275.268 367.959 275.499C363.493 275.562 359.829 272.012 359.732 267.54L359.501 251.958C359.439 247.493 362.988 243.829 367.461 243.732L383.042 243.501C387.507 243.439 391.171 246.988 391.268 251.461L391.5 267.042C391.562 271.508 388.009 275.206 383.54 275.268Z" stroke="#000000" stroke-width="3.4375" stroke-miterlimit="8" fill="#D6DBD9" fill-rule="evenodd"/><path d="M430.539 274.268 414.958 274.5C410.493 274.562 406.829 271.012 406.732 266.54L406.501 250.958C406.439 246.493 409.988 242.829 414.461 242.732L430.041 242.501C434.507 242.439 438.17 245.988 438.267 250.461L438.499 266.042C438.595 270.514 435.004 274.206 430.539 274.268Z" stroke="#000000" stroke-width="3.4375" stroke-miterlimit="8" fill="#D6DBD9" fill-rule="evenodd"/><path d="M478.54 273.268 462.958 273.5C458.493 273.562 454.829 270.012 454.732 265.54L454.501 249.959C454.439 245.493 457.988 241.829 462.461 241.732L478.042 241.501C482.507 241.439 486.171 244.988 486.268 249.461L486.5 265.042C486.558 269.546 483.008 273.206 478.54 273.268Z" stroke="#000000" stroke-width="3.4375" stroke-miterlimit="8" fill="#D6DBD9" fill-rule="evenodd"/><path d="M527.539 272.268 511.958 272.5C507.493 272.562 503.829 269.012 503.732 264.54L503.501 248.959C503.439 244.493 506.988 240.829 511.46 240.733L527.041 240.501C531.506 240.439 535.17 243.988 535.267 248.461L535.499 264.042C535.595 268.514 532.008 272.206 527.539 272.268Z" stroke="#000000" stroke-width="3.4375" stroke-miterlimit="8" fill="#D6DBD9" fill-rule="evenodd"/><path d="M575.539 271.275 559.958 271.5C555.493 271.56 551.829 268.121 551.732 263.789L551.501 248.694C551.439 244.368 554.988 240.819 559.46 240.725L575.041 240.501C579.506 240.441 583.17 243.879 583.267 248.212L583.498 263.306C583.598 267.639 580.007 271.211 575.539 271.275Z" stroke="#000000" stroke-width="3.4375" stroke-miterlimit="8" fill="#D6DBD9" fill-rule="evenodd"/><path d="M616.539 267.275 600.958 267.499C596.493 267.559 592.829 264.121 592.732 259.788L592.501 244.694C592.439 240.368 595.988 236.819 600.46 236.725L616.041 236.501C620.506 236.441 624.17 239.879 624.267 244.212L624.499 259.306C624.592 263.672 621.008 267.211 616.539 267.275Z" stroke="#000000" stroke-width="3.4375" stroke-miterlimit="8" fill="#D6DBD9" fill-rule="evenodd"/><path d="M665.539 267.268 649.958 267.5C645.493 267.562 641.829 264.012 641.732 259.539L641.501 243.958C641.439 239.493 644.988 235.829 649.46 235.732L665.041 235.501C669.506 235.439 673.17 238.988 673.267 243.461L673.498 259.042C673.592 263.549 670.007 267.202 665.539 267.268Z" stroke="#000000" stroke-width="3.4375" stroke-miterlimit="8" fill="#D6DBD9" fill-rule="evenodd"/><path d="M710.788 266.268 695.694 266.5C691.368 266.562 687.819 263.012 687.725 258.539L687.501 242.958C687.441 238.493 690.879 234.829 695.212 234.732L710.306 234.501C714.632 234.439 718.181 237.988 718.275 242.461L718.5 258.042C718.553 262.542 715.114 266.206 710.788 266.268Z" stroke="#000000" stroke-width="3.4375" stroke-miterlimit="8" fill="#D6DBD9" fill-rule="evenodd"/><path d="M759.54 265.275 743.959 265.5C739.493 265.56 735.829 262.121 735.732 257.788L735.501 242.694C735.439 238.368 738.988 234.819 743.461 234.725L759.042 234.501C763.507 234.441 767.171 237.879 767.268 242.212L767.5 257.306C767.562 261.632 764.005 265.211 759.54 265.275Z" stroke="#000000" stroke-width="3.4375" stroke-miterlimit="8" fill="#D6DBD9" fill-rule="evenodd"/><path d="M239.606 277.322 159.886 278.499C155.459 278.562 151.826 275.006 151.73 270.526L151.501 254.918C151.439 250.445 154.959 246.775 159.393 246.678L239.113 245.501C243.54 245.439 247.173 248.994 247.269 253.474L247.499 269.082C247.594 273.562 244.034 277.26 239.606 277.322Z" stroke="#000000" stroke-width="3.4375" stroke-miterlimit="8" fill="#D6DBD9" fill-rule="evenodd"/><path d="M310.54 324.268 294.958 324.5C290.493 324.562 286.829 321.012 286.732 316.54L286.501 300.958C286.439 296.493 289.988 292.829 294.461 292.733L310.042 292.501C314.507 292.439 318.171 295.988 318.268 300.461L318.5 316.042C318.562 320.508 315.005 324.202 310.54 324.268Z" stroke="#000000" stroke-width="3.4375" stroke-miterlimit="8" fill="#D6DBD9" fill-rule="evenodd"/><path d="M283.788 275.275 268.694 275.499C264.368 275.56 260.819 272.121 260.725 267.788L260.501 252.694C260.441 248.368 263.879 244.819 268.212 244.725L283.305 244.501C287.631 244.441 291.18 247.879 291.274 252.212L291.499 267.306C291.592 271.639 288.113 275.211 283.788 275.275Z" stroke="#000000" stroke-width="3.4375" stroke-miterlimit="8" fill="#D6DBD9" fill-rule="evenodd"/><path d="M823.53 265.955 784.969 266.499C780.498 266.561 776.83 263.046 776.733 258.618L776.501 243.19C776.439 238.768 779.993 235.141 784.47 235.045L823.032 234.501C827.503 234.439 831.171 237.954 831.268 242.383L831.5 257.81C831.559 262.269 828.005 265.893 823.53 265.955L823.53 265.955Z" stroke="#000000" stroke-width="3.4375" stroke-miterlimit="8" fill="#D6DBD9" fill-rule="evenodd"/><path d="M261.614 323.012 160.879 324.499C156.456 324.561 152.826 321.04 152.73 316.604L152.501 301.149C152.439 296.719 155.956 293.085 160.386 292.989L261.121 291.501C265.545 291.439 269.174 294.96 269.27 299.397L269.5 314.852C269.561 319.282 266.041 322.946 261.614 323.012Z" stroke="#000000" stroke-width="3.4375" stroke-miterlimit="8" fill="#D6DBD9" fill-rule="evenodd"/><path d="M358.788 322.268 343.694 322.5C339.368 322.562 335.819 319.012 335.725 314.54L335.501 298.958C335.441 294.493 338.879 290.829 343.212 290.733L358.305 290.501C362.631 290.439 366.18 293.988 366.274 298.461L366.499 314.042C366.592 318.514 363.113 322.206 358.788 322.268Z" stroke="#000000" stroke-width="3.4375" stroke-miterlimit="8" fill="#D6DBD9" fill-rule="evenodd"/><path d="M411.788 321.268 396.694 321.5C392.368 321.562 388.819 318.012 388.725 313.54L388.501 297.958C388.441 293.493 391.879 289.829 396.212 289.733L411.305 289.501C415.631 289.439 419.18 292.988 419.274 297.461L419.498 313.042C419.589 317.549 416.117 321.202 411.788 321.268Z" stroke="#000000" stroke-width="3.4375" stroke-miterlimit="8" fill="#D6DBD9" fill-rule="evenodd"/><path d="M459.539 320.275 443.958 320.5C439.493 320.56 435.829 317.121 435.732 312.788L435.501 297.694C435.439 293.368 438.988 289.819 443.46 289.725L459.041 289.501C463.506 289.441 467.17 292.879 467.267 297.212L467.499 312.306C467.592 316.672 464.008 320.215 459.539 320.275Z" stroke="#000000" stroke-width="3.4375" stroke-miterlimit="8" fill="#D6DBD9" fill-rule="evenodd"/><path d="M506.54 319.275 490.959 319.499C486.493 319.56 482.829 316.121 482.732 311.788L482.501 296.694C482.439 292.368 485.988 288.819 490.461 288.725L506.042 288.501C510.507 288.44 514.171 291.879 514.268 296.212L514.5 311.306C514.562 315.632 511.005 319.215 506.54 319.275Z" stroke="#000000" stroke-width="3.4375" stroke-miterlimit="8" fill="#D6DBD9" fill-rule="evenodd"/><path d="M555.539 319.268 539.958 319.499C535.493 319.562 531.829 316.012 531.732 311.54L531.501 295.958C531.439 291.493 534.988 287.829 539.46 287.732L555.041 287.501C559.506 287.439 563.17 290.988 563.267 295.461L563.498 311.042C563.595 315.514 560.011 319.167 555.539 319.268Z" stroke="#000000" stroke-width="3.4375" stroke-miterlimit="8" fill="#D6DBD9" fill-rule="evenodd"/><path d="M603.789 318.268 588.694 318.5C584.368 318.562 580.819 315.012 580.725 310.539L580.501 294.958C580.441 290.493 583.879 286.829 588.212 286.732L603.306 286.501C607.632 286.439 611.182 289.988 611.275 294.461L611.5 310.042C611.553 314.542 608.115 318.206 603.789 318.268Z" stroke="#000000" stroke-width="3.4375" stroke-miterlimit="8" fill="#D6DBD9" fill-rule="evenodd"/><path d="M644.539 314.268 628.958 314.5C624.493 314.562 620.829 311.012 620.732 306.54L620.501 290.959C620.439 286.493 623.988 282.829 628.46 282.733L644.041 282.501C648.506 282.439 652.17 285.988 652.267 290.461L652.498 306.042C652.588 310.549 649.004 314.206 644.539 314.268Z" stroke="#000000" stroke-width="3.4375" stroke-miterlimit="8" fill="#D6DBD9" fill-rule="evenodd"/><path d="M693.539 313.268 677.958 313.5C673.493 313.562 669.829 310.012 669.732 305.54L669.501 289.958C669.439 285.493 672.988 281.829 677.46 281.733L693.041 281.501C697.506 281.439 701.17 284.988 701.267 289.461L701.499 305.042C701.595 309.514 698.004 313.206 693.539 313.268Z" stroke="#000000" stroke-width="3.4375" stroke-miterlimit="8" fill="#D6DBD9" fill-rule="evenodd"/><path d="M739.54 313.268 723.958 313.5C719.493 313.562 715.829 310.012 715.732 305.539L715.501 289.958C715.438 285.493 718.988 281.829 723.461 281.732L739.042 281.501C743.507 281.439 747.171 284.988 747.268 289.461L747.5 305.042C747.562 309.507 744.005 313.202 739.54 313.268Z" stroke="#000000" stroke-width="3.4375" stroke-miterlimit="8" fill="#D6DBD9" fill-rule="evenodd"/><path d="M829.598 307.608 769.896 308.499C765.463 308.562 761.827 304.975 761.73 300.454L761.501 284.706C761.439 280.192 764.962 276.489 769.402 276.391L829.104 275.501C833.537 275.438 837.173 279.026 837.269 283.546L837.499 299.294C837.557 303.842 834.034 307.546 829.598 307.608Z" stroke="#000000" stroke-width="3.4375" stroke-miterlimit="8" fill="#D6DBD9" fill-rule="evenodd"/><path d="M172.539 368.268 156.958 368.5C152.493 368.562 148.829 365.012 148.732 360.54L148.501 344.958C148.439 340.493 151.988 336.829 156.46 336.733L172.041 336.501C176.506 336.439 180.17 339.988 180.267 344.461L180.499 360.042C180.588 364.549 177.039 368.213 172.539 368.268Z" stroke="#000000" stroke-width="3.4375" stroke-miterlimit="8" fill="#D6DBD9" fill-rule="evenodd"/><path d="M217.54 367.275 201.959 367.5C197.493 367.56 193.829 364.121 193.732 359.788L193.501 344.694C193.439 340.368 196.988 336.819 201.461 336.725L217.042 336.501C221.507 336.441 225.171 339.879 225.268 344.212L225.5 359.306C225.555 363.669 222.005 367.215 217.54 367.275Z" stroke="#000000" stroke-width="3.4375" stroke-miterlimit="8" fill="#D6DBD9" fill-rule="evenodd"/><path d="M265.539 367.268 249.958 367.5C245.493 367.562 241.829 364.012 241.732 359.54L241.501 343.958C241.439 339.493 244.988 335.829 249.461 335.733L265.041 335.501C269.507 335.439 273.17 338.988 273.267 343.461L273.499 359.042C273.595 363.514 270.008 367.206 265.539 367.268Z" stroke="#000000" stroke-width="3.4375" stroke-miterlimit="8" fill="#D6DBD9" fill-rule="evenodd"/><path d="M310.789 366.268 295.694 366.5C291.368 366.562 287.819 363.012 287.725 358.54L287.501 342.958C287.44 338.493 290.879 334.829 295.212 334.733L310.306 334.501C314.632 334.439 318.182 337.988 318.276 342.461L318.5 358.042C318.56 362.511 315.115 366.206 310.789 366.268Z" stroke="#000000" stroke-width="3.4375" stroke-miterlimit="8" fill="#D6DBD9" fill-rule="evenodd"/><path d="M365.54 366.268 349.958 366.5C345.493 366.562 341.829 363.012 341.732 358.539L341.501 342.958C341.439 338.493 344.988 334.829 349.461 334.732L365.042 334.501C369.507 334.439 373.171 337.988 373.268 342.461L373.5 358.042C373.562 362.507 370.005 366.202 365.54 366.268Z" stroke="#000000" stroke-width="3.4375" stroke-miterlimit="8" fill="#D6DBD9" fill-rule="evenodd"/><path d="M550.615 363.228 396.877 365.499C392.455 365.561 388.826 362.016 388.73 357.549L388.501 341.988C388.439 337.528 391.955 333.869 396.384 333.772L550.122 331.501C554.545 331.439 558.173 334.984 558.269 339.451L558.499 355.012C558.587 359.514 555.038 363.162 550.615 363.228Z" stroke="#000000" stroke-width="3.4375" stroke-miterlimit="8" fill="#D6DBD9" fill-rule="evenodd"/><path d="M596.54 362.268 580.958 362.5C576.493 362.562 572.829 359.012 572.732 354.54L572.501 338.958C572.438 334.493 575.988 330.829 580.46 330.732L596.042 330.501C600.507 330.439 604.171 333.988 604.268 338.461L604.499 354.042C604.565 358.508 601.008 362.206 596.54 362.268Z" stroke="#000000" stroke-width="3.4375" stroke-miterlimit="8" fill="#D6DBD9" fill-rule="evenodd"/><path d="M644.539 361.275 628.958 361.499C624.493 361.56 620.829 358.121 620.732 353.788L620.501 338.694C620.439 334.368 623.988 330.819 628.46 330.725L644.041 330.501C648.506 330.44 652.17 333.879 652.267 338.212L652.498 353.306C652.595 357.639 649.004 361.211 644.539 361.275Z" stroke="#000000" stroke-width="3.4375" stroke-miterlimit="8" fill="#D6DBD9" fill-rule="evenodd"/><path d="M689.54 361.268 673.958 361.499C669.493 361.561 665.829 358.012 665.732 353.54L665.501 337.959C665.439 333.493 668.988 329.829 673.461 329.733L689.042 329.501C693.507 329.439 697.171 332.988 697.268 337.461L697.5 353.042C697.562 357.508 694.012 361.171 689.54 361.268Z" stroke="#000000" stroke-width="3.4375" stroke-miterlimit="8" fill="#D6DBD9" fill-rule="evenodd"/><path d="M731.539 361.268 715.958 361.5C711.493 361.562 707.829 358.012 707.732 353.54L707.501 337.959C707.439 333.493 710.988 329.829 715.46 329.733L731.041 329.501C735.506 329.439 739.17 332.988 739.267 337.461L739.498 353.042C739.595 357.514 736.004 361.202 731.539 361.268Z" stroke="#000000" stroke-width="3.4375" stroke-miterlimit="8" fill="#D6DBD9" fill-rule="evenodd"/><path d="M780.539 358.268 764.958 358.5C760.493 358.562 756.829 355.012 756.732 350.54L756.501 334.959C756.439 330.493 759.988 326.829 764.46 326.733L780.041 326.501C784.506 326.439 788.17 329.988 788.267 334.461L788.499 350.042C788.592 354.549 785.008 358.206 780.539 358.268Z" stroke="#000000" stroke-width="3.4375" stroke-miterlimit="8" fill="#D6DBD9" fill-rule="evenodd"/><path d="M828.54 357.268 812.958 357.5C808.493 357.562 804.829 354.012 804.732 349.54L804.501 333.958C804.439 329.493 807.988 325.829 812.461 325.733L828.042 325.501C832.507 325.439 836.171 328.988 836.268 333.461L836.5 349.042C836.558 353.545 833.008 357.206 828.54 357.268Z" stroke="#000000" stroke-width="3.4375" stroke-miterlimit="8" fill="#D6DBD9" fill-rule="evenodd"/><path d="M905.539 220.268 889.958 220.499C885.493 220.562 881.829 217.012 881.732 212.54L881.501 196.958C881.439 192.493 884.988 188.829 889.46 188.732L905.041 188.501C909.506 188.439 913.17 191.988 913.267 196.46L913.498 212.042C913.595 216.518 910.011 220.171 905.539 220.268Z" stroke="#000000" stroke-width="3.4375" stroke-miterlimit="8" fill="#D6DBD9" fill-rule="evenodd"/><path d="M998.539 219.268 982.958 219.5C978.493 219.562 974.829 216.012 974.733 211.539L974.501 195.958C974.439 191.493 977.988 187.829 982.46 187.732L998.041 187.501C1002.51 187.439 1006.17 190.988 1006.27 195.461L1006.5 211.042C1006.59 215.514 1003 219.206 998.539 219.268Z" stroke="#000000" stroke-width="3.4375" stroke-miterlimit="8" fill="#D6DBD9" fill-rule="evenodd"/><path d="M951.539 219.276 935.958 219.5C931.493 219.56 927.829 216.121 927.732 211.789L927.501 196.694C927.439 192.368 930.988 188.819 935.461 188.725L951.042 188.501C955.507 188.44 959.171 191.879 959.268 196.212L959.5 211.306C959.562 215.636 956.005 219.215 951.539 219.276Z" stroke="#000000" stroke-width="3.4375" stroke-miterlimit="8" fill="#D6DBD9" fill-rule="evenodd"/><path d="M906.539 265.268 890.958 265.5C886.493 265.562 882.829 262.012 882.732 257.54L882.501 241.958C882.439 237.493 885.988 233.829 890.461 233.733L906.042 233.501C910.507 233.439 914.171 236.988 914.268 241.461L914.5 257.042C914.562 261.507 911.005 265.202 906.539 265.268Z" stroke="#000000" stroke-width="3.4375" stroke-miterlimit="8" fill="#D6DBD9" fill-rule="evenodd"/><path d="M951.539 263.268 935.958 263.5C931.493 263.562 927.829 260.012 927.733 255.54L927.501 239.958C927.439 235.493 930.988 231.829 935.46 231.732L951.042 231.501C955.507 231.439 959.171 234.988 959.268 239.461L959.499 255.042C959.561 259.508 956.005 263.206 951.539 263.268Z" stroke="#000000" stroke-width="3.4375" stroke-miterlimit="8" fill="#D6DBD9" fill-rule="evenodd"/><path d="M998.788 262.268 983.694 262.5C979.368 262.562 975.819 259.012 975.725 254.54L975.501 238.959C975.441 234.493 978.879 230.829 983.212 230.733L998.305 230.501C1002.63 230.439 1006.18 233.988 1006.27 238.461L1006.5 254.042C1006.59 258.549 1003.11 262.206 998.788 262.268Z" stroke="#000000" stroke-width="3.4375" stroke-miterlimit="8" fill="#D6DBD9" fill-rule="evenodd"/><path d="M907.54 309.268 891.958 309.499C887.493 309.561 883.829 306.012 883.733 301.539L883.501 285.958C883.439 281.493 886.988 277.829 891.461 277.733L907.042 277.501C911.507 277.439 915.171 280.988 915.268 285.461L915.5 301.042C915.555 305.542 912.005 309.202 907.54 309.268Z" stroke="#000000" stroke-width="3.4375" stroke-miterlimit="8" fill="#D6DBD9" fill-rule="evenodd"/><path d="M952.539 304.268 936.958 304.5C932.493 304.562 928.829 301.012 928.733 296.54L928.501 280.959C928.439 276.493 931.988 272.829 936.46 272.733L952.041 272.501C956.507 272.439 960.17 275.988 960.267 280.461L960.498 296.042C960.588 300.552 957.004 304.206 952.539 304.268Z" stroke="#000000" stroke-width="3.4375" stroke-miterlimit="8" fill="#D6DBD9" fill-rule="evenodd"/><path d="M1001.54 304.275 985.958 304.5C981.493 304.56 977.829 301.121 977.732 296.789L977.501 281.694C977.439 277.368 980.988 273.819 985.46 273.725L1001.04 273.501C1005.51 273.441 1009.17 276.879 1009.27 281.212L1009.5 296.306C1009.6 300.639 1006 304.215 1001.54 304.275Z" stroke="#000000" stroke-width="3.4375" stroke-miterlimit="8" fill="#D6DBD9" fill-rule="evenodd"/><path d="M962.562 350.473 891.933 351.499C887.481 351.562 883.828 347.99 883.732 343.488L883.501 327.806C883.439 323.312 886.978 319.625 891.437 319.527L962.066 318.501C966.518 318.438 970.171 322.011 970.267 326.512L970.498 342.194C970.588 346.73 967.014 350.411 962.562 350.473L962.562 350.473Z" stroke="#000000" stroke-width="3.4375" stroke-miterlimit="8" fill="#D6DBD9" fill-rule="evenodd"/><path d="M1001.54 349.268 985.958 349.5C981.493 349.562 977.829 346.012 977.733 341.539L977.501 325.959C977.439 321.493 980.988 317.829 985.46 317.732L1001.04 317.501C1005.51 317.439 1009.17 320.988 1009.27 325.461L1009.5 341.042C1009.6 345.514 1006 349.206 1001.54 349.268Z" stroke="#000000" stroke-width="3.4375" stroke-miterlimit="8" fill="#D6DBD9" fill-rule="evenodd"/><path d="M271.441 104.854C267.98 113.928 285.286 130.941 309.55 154.761 312.805 157.958 323.875 168.613 340.119 180.333 348.995 186.727 356.295 191.16 359.516 193.12 368.255 198.31 384.328 208.174 405.645 214.739 427.406 221.407 443.137 226.254 463.459 222.92 471.41 221.614 497.353 217.386 503.624 200.372 507.257 190.542 502.733 180.54 501.088 176.862 478.195 126.026 281.791 77.5624 271.407 104.888L271.441 104.854Z" fill="#5B5742" fill-rule="evenodd" fill-opacity="0.431373"/><path d="M248.036-126.87C256.843-141.906 262.251-143.965 265.448-143.425 273.016-142.144 272.989-125.349 286.642-98.9811 291.279-90.0242 295.405-83.7073 298.895-78.3615 322.516-46.6337 361.622 1.21785 388.774 35.7339 436.233 88.4806 448.706 105.971 485.454 149.984 488.176 152.597 496.368 160.377 499.534 172.838 514.389 250.028 353.272 163.158 337.257 152.46 305.108 132.184 305.521 125.747 253.515 83.1655 200.959 40.1368 193.215 40.7219 188.5 25.1626 190.806 6.2402 195.266-16.6648 203.902-41.7595 216.588-78.6264 233.766-107.067 248.036-126.87Z" stroke="#000000" stroke-width="20.625" stroke-miterlimit="8" fill="#EBE2B3" fill-rule="evenodd"/><path d="M738.121 411.559C734.49 404.985 747.53 391.772 757.694 385.343 761.825 382.729 770.014 377.694 781.656 377.505 792.963 377.323 800.956 381.819 807.213 385.343 814.062 389.2 831.86 400.747 829.238 407.619 827.526 412.108 818.317 411.411 783.954 412.939 749.077 414.491 740.581 416.009 738.121 411.559Z" stroke="#000000" stroke-width="20.625" stroke-miterlimit="8" fill="#EBE2B3" fill-rule="evenodd"/></g></svg>