<svg width="1151" height="1266" xmlns="http://www.w3.org/2000/svg" xmlns:xlink="http://www.w3.org/1999/xlink" xml:space="preserve" overflow="hidden"><defs><clipPath id="clip0"><rect x="3168" y="1049" width="1151" height="1266"/></clipPath></defs><g clip-path="url(#clip0)" transform="translate(-3168 -1049)"><path d="M4307.71 1739.5 4208.29 1739.5C4203.99 1739.5 4200.5 1736.07 4200.5 1731.85L4200.5 1721.15C4200.5 1716.93 4203.99 1713.5 4208.29 1713.5L4307.71 1713.5C4312.01 1713.5 4315.5 1716.93 4315.5 1721.15L4315.5 1731.85C4315.5 1736.07 4312.01 1739.5 4307.71 1739.5Z" stroke="#000000" stroke-width="6.875" stroke-miterlimit="8" fill="#CBC49C" fill-rule="evenodd"/><path d="M4199.28 1748.5 4192.72 1748.5C4189.29 1748.5 4186.5 1745.7 4186.5 1742.24L4186.5 1710.76C4186.5 1707.3 4189.29 1704.5 4192.72 1704.5L4199.28 1704.5C4202.71 1704.5 4205.5 1707.3 4205.5 1710.76L4205.5 1742.24C4205.5 1745.7 4202.71 1748.5 4199.28 1748.5Z" stroke="#000000" stroke-width="6.875" stroke-miterlimit="8" fill="#CBC49C" fill-rule="evenodd"/><path d="M4180.09 1757.5 4168.91 1757.5C4163.71 1757.5 4159.5 1753.24 4159.5 1747.98L4159.5 1702.02C4159.5 1696.76 4163.71 1692.5 4168.91 1692.5L4180.09 1692.5C4185.29 1692.5 4189.5 1696.76 4189.5 1702.02L4189.5 1747.98C4189.5 1753.24 4185.29 1757.5 4180.09 1757.5Z" stroke="#000000" stroke-width="6.875" stroke-miterlimit="8" fill="#CBC49C" fill-rule="evenodd"/><path d="M3472.5 2100.5C3474.73 2105.01 3476.55 2108.9 3477.89 2111.9 3482.59 2122.47 3485.44 2130.7 3486.54 2133.9 3489.42 2142.26 3489.52 2143.88 3495.29 2163.78 3504.56 2195.73 3505.31 2195.05 3507.54 2205.99 3510.63 2221.04 3509.05 2221.42 3512.79 2242.9 3516.26 2262.77 3518.11 2272.82 3523.3 2279.81 3524.64 2281.6 3537.88 2298.92 3556.59 2297.41 3568.88 2296.41 3577.05 2287.77 3582.88 2281.57 3586.42 2277.85 3589.16 2274.03 3602.17 2246.42 3609.69 2230.47 3613.5 2222.31 3616.21 2214.77 3617.65 2210.78 3618.61 2207.58 3619.33 2204.79 3622.28 2193.53 3624.17 2186.27 3624.96 2183.13 3626.78 2175.9 3631.14 2165.64 3642.5 2153.25 3585.83 2135.65 3529.17 2118.09 3472.5 2100.5L3472.5 2100.5Z" stroke="#000000" stroke-width="20.625" stroke-miterlimit="8" fill="#EBE2B3" fill-rule="evenodd"/><path d="M3829.5 2144.1C3837.06 2161.46 3844.63 2181.2 3851.51 2203.17 3858.29 2224.88 3863.28 2245.2 3866.98 2263.7 3885.94 2310.72 3935.88 2299.15 3941.87 2249.64 3948.82 2227.87 3955.53 2204.66 3961.72 2180.06 3967.3 2157.91 3972.02 2136.55 3975.99 2116.16 3976.51 2105.93 3976.99 2095.7 3977.5 2085.5L3829.57 2144.1 3829.5 2144.1Z" stroke="#000000" stroke-width="20.625" stroke-miterlimit="8" fill="#EBE2B3" fill-rule="evenodd"/><path d="M3267.77 1687.54C3265.36 1677.88 3262.58 1663.28 3262.51 1645.41 3262.44 1626.4 3265.54 1621.18 3266.02 1605.06 3266.98 1573.13 3255.53 1571.31 3255.5 1543.64 3255.5 1510.79 3271.52 1485.01 3276.57 1476.97 3288.05 1458.58 3292.62 1461.19 3306.4 1440.12 3319.22 1420.53 3325.13 1403.21 3330.97 1385.72 3341.11 1355.37 3338.7 1349.29 3346.78 1320.8 3352.48 1300.66 3359.74 1274.98 3376.61 1248.83 3387.61 1231.78 3406.17 1215.25 3443.28 1182.16 3467.13 1160.88 3484.32 1147.17 3497.69 1136.51 3538.44 1104.07 3551.85 1097.13 3557.35 1094.38 3576.63 1084.82 3593.98 1076.2 3617.01 1076.82 3628.59 1077.13 3646.84 1078.26 3666.46 1078.09 3669.25 1078.05 3675.54 1078.09 3683.71 1077.57 3687.22 1077.33 3693.1 1076.89 3700.18 1075.92 3712.2 1074.31 3721.24 1072.18 3724.03 1071.52 3764.17 1062.24 3784.44 1056.64 3803 1061.01 3825.31 1066.23 3840.29 1079.15 3853.9 1090.84 3862.53 1098.26 3874.38 1113.45 3897.79 1143.49 3923.8 1176.93 3929.82 1185.9 3945.18 1197.9 3960.54 1209.89 3962.47 1207.07 3973.26 1217.21 3987.62 1230.68 3993.02 1243.92 4006.59 1275.12 4032.54 1334.79 4030.41 1326.98 4032.92 1334.79 4035.46 1342.79 4036.91 1350.66 4040.17 1366.34 4044.29 1386.17 4045.5 1395.72 4050.48 1424.31 4054.36 1446.52 4056.19 1457.65 4057.49 1462.91 4066.29 1498.55 4079.52 1522.75 4083.82 1531.34 4103.92 1571.48 4101.89 1618.94 4097.87 1713.87 4095.43 1771.43 4094.09 1802.71 4080.31 1843.75 4073.2 1864.92 4069.93 1867.36 4052.23 1915.71 4037.25 1956.61 4034.77 1968.02 4022.4 1996.44 4008.66 2028.06 4001.78 2043.87 3987.31 2061.36 3981.2 2068.79 3966.93 2084.74 3929.4 2107.01 3898.2 2125.53 3863.08 2146.36 3811.83 2156.15 3737.95 2170.28 3676.22 2152.75 3652.13 2145.64 3637.11 2141.2 3632.03 2138.52 3602.99 2129.83 3553.6 2115.05 3539.85 2114.26 3509.99 2105.25 3492.12 2099.86 3483.15 2097.35 3471.98 2093.05 3460.74 2088.72 3435.27 2078.72 3409.95 2061.36 3366.88 2031.91 3343.21 1994.42 3334.48 1978.88 3327.6 1966.61 3318.19 1938.53 3299.39 1882.34 3286.98 1845.26 3280.69 1826.46 3278.32 1813.91 3273.71 1789.61 3272.31 1766.45 3269.56 1720.91 3268.66 1706.79 3268.11 1695.21 3267.77 1687.54Z" stroke="#000000" stroke-width="20.625" stroke-miterlimit="8" fill="#EBE2B3" fill-rule="evenodd"/><path d="M3512.57 1214.63 3525.72 1189.81 3643.61 1252.26 3630.47 1277.08Z" stroke="#000000" stroke-width="10.3132" stroke-miterlimit="8" fill="#595850" fill-rule="evenodd"/><path d="M3766.48 1250.32 3886.7 1192.46 3898.88 1217.76 3778.66 1275.63Z" stroke="#000000" stroke-width="10.3132" stroke-miterlimit="8" fill="#595850" fill-rule="evenodd"/><path d="M3967 2306C3967 2310.97 3862.23 2315 3733 2315 3603.77 2315 3499 2310.97 3499 2306 3499 2301.03 3603.77 2297 3733 2297 3862.23 2297 3967 2301.03 3967 2306Z" fill="#5B5742" fill-rule="evenodd" fill-opacity="0.470588"/><path d="M3789 1473C3789 1485.15 3755.2 1495 3713.5 1495 3671.8 1495 3638 1485.15 3638 1473 3638 1460.85 3671.8 1451 3713.5 1451 3755.2 1451 3789 1460.85 3789 1473Z" stroke="#000000" stroke-width="10.3125" stroke-miterlimit="8" fill="#E73A8F" fill-rule="evenodd"/><path d="M3499.44 1285.39C3486.05 1295.48 3493.86 1330.46 3507.45 1352.35 3512.31 1360.18 3523.06 1377.49 3545.11 1384.05 3564.03 1389.68 3580.07 1384.08 3584.64 1382.3 3608.13 1373.16 3629.78 1347.62 3624.77 1329.12 3622.52 1320.78 3616.08 1318.39 3542.47 1293.3 3517.91 1284.92 3505.5 1280.83 3499.44 1285.39Z" stroke="#000000" stroke-width="20.625" stroke-miterlimit="8" fill="#231815" fill-rule="evenodd"/><path d="M3872.33 1704.68C3879.93 1717.32 3920.22 1710.77 3937.47 1705.92 3951.62 1701.95 3965.84 1694.76 3971.31 1691.83 3974.93 1689.93 3982.5 1685.77 3991.52 1679.53 4006.5 1669.17 4013.11 1661.93 4029.33 1646.12 4051.12 1624.87 4066.48 1613.26 4081.18 1590.29 4084.35 1585.37 4088.79 1577.86 4086.24 1571.18 4082.97 1562.67 4070.2 1560.4 4065.65 1559.47 4021.17 1550.44 3854.52 1675.19 3872.33 1704.68L3872.33 1704.68Z" fill="#5B5742" fill-rule="evenodd" fill-opacity="0.431373"/><path d="M3589 1358C3589 1369.05 3580.05 1378 3569 1378 3557.95 1378 3549 1369.05 3549 1358 3549 1346.95 3557.95 1338 3569 1338 3580.05 1338 3589 1346.95 3589 1358Z" fill="#FFFFFF" fill-rule="evenodd"/><path d="M3902.56 1285.39C3915.95 1295.48 3908.14 1330.46 3894.55 1352.35 3889.69 1360.18 3878.94 1377.49 3856.89 1384.05 3837.97 1389.68 3821.93 1384.08 3817.36 1382.3 3793.87 1373.16 3772.22 1347.62 3777.23 1329.12 3779.48 1320.78 3785.92 1318.39 3859.53 1293.3 3884.09 1284.92 3896.5 1280.83 3902.56 1285.39Z" stroke="#000000" stroke-width="20.625" stroke-miterlimit="8" fill="#231815" fill-rule="evenodd"/><path d="M3863 1358C3863 1369.05 3854.05 1378 3843 1378 3831.95 1378 3823 1369.05 3823 1358 3823 1346.95 3831.95 1338 3843 1338 3854.05 1338 3863 1346.95 3863 1358Z" fill="#FFFFFF" fill-rule="evenodd"/><path d="M4038.07 1365.52C4035.24 1365.77 4037.26 1369.93 4018.68 1397.8 4018.68 1397.8 4010.16 1413.56 4003.78 1425 3996.46 1438.11 3990.88 1447.41 3982.73 1460.96 3963.29 1493.31 3963.35 1491.42 3956.43 1503.95 3952.24 1511.53 3948.51 1518.94 3934.51 1551.32 3912.04 1603.25 3905.1 1605.57 3908.2 1613.6 3917.11 1636.65 3977.18 1644.94 4018.68 1621.5 4026.66 1616.98 4032.73 1611.11 4044.99 1599.57 4080.91 1565.71 4088.8 1557.66 4091.02 1546.7 4092.01 1541.85 4091.7 1539.06 4087.9 1517.42 4081.55 1481.27 4078.38 1463.19 4076.55 1455.7 4073.56 1443.44 4054.18 1364.09 4038.07 1365.52Z" stroke="#000000" stroke-width="20.625" stroke-miterlimit="8" fill="#EBE2B3" fill-rule="evenodd"/><path d="M4127.56 1924.17 3215.09 1937.5C3197.15 1937.75 3182.41 1923.41 3182.15 1905.49L3178.5 1656.81C3178.25 1638.85 3192.57 1624.1 3210.48 1623.84L4122.91 1610.5C4140.85 1610.25 4155.58 1624.59 4155.85 1642.51L4159.5 1891.19C4159.79 1909.12 4145.46 1923.9 4127.56 1924.17Z" stroke="#000000" stroke-width="20.625" stroke-miterlimit="8" fill="#A6A897" fill-rule="evenodd"/><path d="M3454.51 1696.08 3424.99 1696.5C3420.51 1696.56 3416.83 1693.03 3416.73 1688.59L3416.5 1673.09C3416.44 1668.66 3420 1665.01 3424.49 1664.92L3454.01 1664.5C3458.49 1664.44 3462.17 1667.97 3462.27 1672.41L3462.5 1687.91C3462.56 1692.38 3458.99 1696.02 3454.51 1696.08Z" stroke="#000000" stroke-width="3.4375" stroke-miterlimit="8" fill="#D6DBD9" fill-rule="evenodd"/><path d="M3593.51 1694.08 3563.99 1694.5C3559.51 1694.56 3555.83 1691.03 3555.73 1686.59L3555.5 1671.1C3555.44 1666.66 3559 1663.01 3563.49 1662.92L3593.01 1662.5C3597.49 1662.44 3601.17 1665.97 3601.27 1670.41L3601.5 1685.91C3601.56 1690.34 3597.99 1694.02 3593.51 1694.08Z" stroke="#000000" stroke-width="3.4375" stroke-miterlimit="8" fill="#D6DBD9" fill-rule="evenodd"/><path d="M3266.51 1699.08 3236.99 1699.5C3232.51 1699.56 3228.83 1696.03 3228.73 1691.59L3228.5 1676.09C3228.44 1671.66 3232 1668.01 3236.49 1667.92L3266.01 1667.5C3270.49 1667.44 3274.17 1670.97 3274.27 1675.41L3274.5 1690.91C3274.6 1695.35 3270.99 1699.02 3266.51 1699.08Z" stroke="#000000" stroke-width="3.4375" stroke-miterlimit="8" fill="#D6DBD9" fill-rule="evenodd"/><path d="M3328.51 1698.08 3298.99 1698.5C3294.51 1698.56 3290.83 1695.03 3290.73 1690.59L3290.5 1675.09C3290.44 1670.66 3294 1667.01 3298.49 1666.92L3328.01 1666.5C3332.49 1666.44 3336.17 1669.97 3336.27 1674.41L3336.5 1689.91C3336.59 1694.39 3332.99 1698.02 3328.51 1698.08Z" stroke="#000000" stroke-width="3.4375" stroke-miterlimit="8" fill="#D6DBD9" fill-rule="evenodd"/><path d="M3836.51 1691.08 3806.99 1691.5C3802.51 1691.56 3798.83 1688.03 3798.73 1683.59L3798.5 1668.09C3798.44 1663.66 3802 1660.01 3806.49 1659.92L3836.01 1659.5C3840.49 1659.44 3844.17 1662.97 3844.27 1667.41L3844.5 1682.91C3844.6 1687.35 3841 1690.99 3836.51 1691.08Z" stroke="#000000" stroke-width="3.4375" stroke-miterlimit="8" fill="#D6DBD9" fill-rule="evenodd"/><path d="M3392.51 1697.08 3362.99 1697.5C3358.51 1697.56 3354.83 1694.03 3354.73 1689.59L3354.5 1674.09C3354.44 1669.66 3358 1666.01 3362.49 1665.92L3392.01 1665.5C3396.49 1665.44 3400.17 1668.97 3400.27 1673.41L3400.5 1688.91C3400.6 1693.35 3396.99 1697.02 3392.51 1697.08Z" stroke="#000000" stroke-width="3.4375" stroke-miterlimit="8" fill="#D6DBD9" fill-rule="evenodd"/><path d="M3655.68 1693.08 3626.81 1693.5C3622.42 1693.56 3618.82 1690.03 3618.73 1685.59L3618.5 1670.09C3618.44 1665.66 3621.93 1662.01 3626.32 1661.92L3655.19 1661.5C3659.58 1661.44 3663.18 1664.97 3663.27 1669.41L3663.5 1684.91C3663.56 1689.35 3660.07 1693.02 3655.68 1693.08Z" stroke="#000000" stroke-width="3.4375" stroke-miterlimit="8" fill="#D6DBD9" fill-rule="evenodd"/><path d="M3715.51 1692.08 3685.99 1692.5C3681.51 1692.56 3677.83 1689.03 3677.73 1684.59L3677.5 1669.09C3677.44 1664.66 3681 1661.01 3685.49 1660.92L3715.01 1660.5C3719.49 1660.44 3723.17 1663.97 3723.27 1668.41L3723.5 1683.91C3723.56 1688.38 3719.99 1692.02 3715.51 1692.08Z" stroke="#000000" stroke-width="3.4375" stroke-miterlimit="8" fill="#D6DBD9" fill-rule="evenodd"/><path d="M3775.68 1692.08 3746.81 1692.5C3742.42 1692.56 3738.82 1689.03 3738.73 1684.59L3738.5 1669.1C3738.44 1664.66 3741.93 1661.01 3746.32 1660.92L3775.19 1660.5C3779.58 1660.44 3783.18 1663.97 3783.27 1668.41L3783.5 1683.91C3783.59 1688.35 3780.07 1692.02 3775.68 1692.08Z" stroke="#000000" stroke-width="3.4375" stroke-miterlimit="8" fill="#D6DBD9" fill-rule="evenodd"/><path d="M3523.68 1695.08 3494.81 1695.5C3490.42 1695.56 3486.82 1692.03 3486.73 1687.59L3486.5 1672.1C3486.44 1667.66 3489.93 1664.01 3494.32 1663.92L3523.19 1663.5C3527.58 1663.44 3531.18 1666.97 3531.27 1671.41L3531.5 1686.91C3531.59 1691.39 3528.07 1695.02 3523.68 1695.08Z" stroke="#000000" stroke-width="3.4375" stroke-miterlimit="8" fill="#D6DBD9" fill-rule="evenodd"/><path d="M3905.68 1688.08 3876.81 1688.5C3872.42 1688.56 3868.82 1685.03 3868.73 1680.59L3868.5 1665.09C3868.44 1660.66 3871.93 1657.01 3876.32 1656.92L3905.19 1656.5C3909.58 1656.44 3913.18 1659.97 3913.27 1664.41L3913.5 1679.91C3913.6 1684.35 3910.07 1688.02 3905.68 1688.08Z" stroke="#000000" stroke-width="3.4375" stroke-miterlimit="8" fill="#D6DBD9" fill-rule="evenodd"/><path d="M3296.57 1743.65 3236.93 1744.5C3232.48 1744.56 3228.83 1741.08 3228.73 1736.69L3228.5 1721.41C3228.44 1717.03 3231.98 1713.44 3236.43 1713.34L3296.07 1712.5C3300.52 1712.44 3304.17 1715.92 3304.27 1720.31L3304.5 1735.59C3304.59 1740 3301.02 1743.59 3296.57 1743.65Z" stroke="#000000" stroke-width="3.4375" stroke-miterlimit="8" fill="#D6DBD9" fill-rule="evenodd"/><path d="M3346.54 1743.27 3330.96 1743.5C3326.49 1743.56 3322.83 1740.01 3322.73 1735.54L3322.5 1719.96C3322.44 1715.49 3325.99 1711.83 3330.46 1711.73L3346.04 1711.5C3350.51 1711.44 3354.17 1714.99 3354.27 1719.46L3354.5 1735.04C3354.55 1739.54 3351.01 1743.2 3346.54 1743.27Z" stroke="#000000" stroke-width="3.4375" stroke-miterlimit="8" fill="#D6DBD9" fill-rule="evenodd"/><path d="M3391.54 1742.27 3375.96 1742.5C3371.49 1742.56 3367.83 1739.01 3367.73 1734.54L3367.5 1718.96C3367.44 1714.49 3370.99 1710.83 3375.46 1710.73L3391.04 1710.5C3395.51 1710.44 3399.17 1713.99 3399.27 1718.46L3399.5 1734.04C3399.59 1738.51 3396 1742.21 3391.54 1742.27Z" stroke="#000000" stroke-width="3.4375" stroke-miterlimit="8" fill="#D6DBD9" fill-rule="evenodd"/><path d="M3439.79 1742.27 3424.69 1742.5C3420.37 1742.56 3416.82 1739.01 3416.72 1734.54L3416.5 1718.96C3416.44 1714.49 3419.88 1710.83 3424.21 1710.73L3439.31 1710.5C3443.63 1710.44 3447.18 1713.99 3447.27 1718.46L3447.5 1734.04C3447.59 1738.51 3444.12 1742.21 3439.79 1742.27Z" stroke="#000000" stroke-width="3.4375" stroke-miterlimit="8" fill="#D6DBD9" fill-rule="evenodd"/><path d="M3485.54 1741.27 3469.96 1741.5C3465.49 1741.56 3461.83 1738.01 3461.73 1733.54L3461.5 1717.96C3461.44 1713.49 3464.99 1709.83 3469.46 1709.73L3485.04 1709.5C3489.51 1709.44 3493.17 1712.99 3493.27 1717.46L3493.5 1733.04C3493.56 1737.55 3490.01 1741.21 3485.54 1741.27L3485.54 1741.27Z" stroke="#000000" stroke-width="3.4375" stroke-miterlimit="8" fill="#D6DBD9" fill-rule="evenodd"/><path d="M3539.54 1741.27 3523.96 1741.5C3519.49 1741.56 3515.83 1738.01 3515.73 1733.54L3515.5 1717.96C3515.44 1713.49 3518.99 1709.83 3523.46 1709.73L3539.04 1709.5C3543.51 1709.44 3547.17 1712.99 3547.27 1717.46L3547.5 1733.04C3547.59 1737.51 3544 1741.21 3539.54 1741.27Z" stroke="#000000" stroke-width="3.4375" stroke-miterlimit="8" fill="#D6DBD9" fill-rule="evenodd"/><path d="M3584.79 1740.27 3569.69 1740.5C3565.37 1740.56 3561.82 1737.01 3561.72 1732.54L3561.5 1716.96C3561.44 1712.49 3564.88 1708.83 3569.21 1708.73L3584.31 1708.5C3588.63 1708.44 3592.18 1711.99 3592.27 1716.46L3592.5 1732.04C3592.59 1736.55 3589.11 1740.2 3584.79 1740.27Z" stroke="#000000" stroke-width="3.4375" stroke-miterlimit="8" fill="#D6DBD9" fill-rule="evenodd"/><path d="M3633.54 1739.28 3617.96 1739.5C3613.49 1739.56 3609.83 1736.12 3609.73 1731.79L3609.5 1716.69C3609.44 1712.37 3612.99 1708.82 3617.46 1708.73L3633.04 1708.5C3637.51 1708.44 3641.17 1711.88 3641.27 1716.21L3641.5 1731.31C3641.56 1735.67 3638.01 1739.21 3633.54 1739.28Z" stroke="#000000" stroke-width="3.4375" stroke-miterlimit="8" fill="#D6DBD9" fill-rule="evenodd"/><path d="M3675.79 1738.27 3660.69 1738.5C3656.37 1738.56 3652.82 1735.01 3652.72 1730.54L3652.5 1714.96C3652.44 1710.49 3655.88 1706.83 3660.21 1706.73L3675.31 1706.5C3679.63 1706.44 3683.18 1709.99 3683.28 1714.46L3683.5 1730.04C3683.56 1734.51 3680.11 1738.21 3675.79 1738.27Z" stroke="#000000" stroke-width="3.4375" stroke-miterlimit="8" fill="#D6DBD9" fill-rule="evenodd"/><path d="M3725.54 1738.27 3709.96 1738.5C3705.49 1738.56 3701.83 1735.01 3701.73 1730.54L3701.5 1714.96C3701.44 1710.49 3704.99 1706.83 3709.46 1706.73L3725.04 1706.5C3729.51 1706.44 3733.17 1709.99 3733.27 1714.46L3733.5 1730.04C3733.56 1734.51 3730.01 1738.21 3725.54 1738.27Z" stroke="#000000" stroke-width="3.4375" stroke-miterlimit="8" fill="#D6DBD9" fill-rule="evenodd"/><path d="M3770.54 1737.27 3754.96 1737.5C3750.49 1737.56 3746.83 1734.01 3746.73 1729.54L3746.5 1713.96C3746.44 1709.49 3749.99 1705.83 3754.46 1705.73L3770.04 1705.5C3774.51 1705.44 3778.17 1708.99 3778.27 1713.46L3778.5 1729.04C3778.6 1733.51 3775.01 1737.2 3770.54 1737.27Z" stroke="#000000" stroke-width="3.4375" stroke-miterlimit="8" fill="#D6DBD9" fill-rule="evenodd"/><path d="M3818.54 1736.27 3802.96 1736.5C3798.49 1736.56 3794.83 1733.01 3794.73 1728.54L3794.5 1712.96C3794.44 1708.49 3797.99 1704.83 3802.46 1704.73L3818.04 1704.5C3822.51 1704.44 3826.17 1707.99 3826.27 1712.46L3826.5 1728.04C3826.59 1732.55 3823 1736.21 3818.54 1736.27Z" stroke="#000000" stroke-width="3.4375" stroke-miterlimit="8" fill="#D6DBD9" fill-rule="evenodd"/><path d="M3863.54 1736.27 3847.96 1736.5C3843.49 1736.56 3839.83 1733.01 3839.73 1728.54L3839.5 1712.96C3839.44 1708.49 3842.99 1704.83 3847.46 1704.73L3863.04 1704.5C3867.51 1704.44 3871.17 1707.99 3871.27 1712.46L3871.5 1728.04C3871.55 1732.54 3868.01 1736.2 3863.54 1736.27Z" stroke="#000000" stroke-width="3.4375" stroke-miterlimit="8" fill="#D6DBD9" fill-rule="evenodd"/><path d="M3905.54 1735.28 3889.96 1735.5C3885.49 1735.56 3881.83 1732.12 3881.73 1727.79L3881.5 1712.69C3881.44 1708.37 3884.99 1704.82 3889.46 1704.73L3905.04 1704.5C3909.51 1704.44 3913.17 1707.88 3913.27 1712.21L3913.5 1727.31C3913.59 1731.68 3910 1735.21 3905.54 1735.28Z" stroke="#000000" stroke-width="3.4375" stroke-miterlimit="8" fill="#D6DBD9" fill-rule="evenodd"/><path d="M3410.54 1788.27 3394.96 1788.5C3390.49 1788.56 3386.83 1785.01 3386.73 1780.54L3386.5 1764.96C3386.44 1760.49 3389.99 1756.83 3394.46 1756.73L3410.04 1756.5C3414.51 1756.44 3418.17 1759.99 3418.27 1764.46L3418.5 1780.04C3418.56 1784.51 3415.01 1788.21 3410.54 1788.27Z" stroke="#000000" stroke-width="3.4375" stroke-miterlimit="8" fill="#D6DBD9" fill-rule="evenodd"/><path d="M3461.54 1788.27 3445.96 1788.5C3441.49 1788.56 3437.83 1785.01 3437.73 1780.54L3437.5 1764.96C3437.44 1760.49 3440.99 1756.83 3445.46 1756.73L3461.04 1756.5C3465.51 1756.44 3469.17 1759.99 3469.27 1764.46L3469.5 1780.04C3469.56 1784.51 3466.01 1788.21 3461.54 1788.27Z" stroke="#000000" stroke-width="3.4375" stroke-miterlimit="8" fill="#D6DBD9" fill-rule="evenodd"/><path d="M3508.54 1788.27 3492.96 1788.5C3488.49 1788.56 3484.83 1785.01 3484.73 1780.54L3484.5 1764.96C3484.44 1760.49 3487.99 1756.83 3492.46 1756.73L3508.04 1756.5C3512.51 1756.44 3516.17 1759.99 3516.27 1764.46L3516.5 1780.04C3516.59 1784.51 3513 1788.21 3508.54 1788.27Z" stroke="#000000" stroke-width="3.4375" stroke-miterlimit="8" fill="#D6DBD9" fill-rule="evenodd"/><path d="M3555.54 1786.27 3539.96 1786.5C3535.49 1786.56 3531.83 1783.12 3531.73 1778.79L3531.5 1763.69C3531.44 1759.37 3534.99 1755.82 3539.46 1755.72L3555.04 1755.5C3559.51 1755.44 3563.17 1758.88 3563.27 1763.21L3563.5 1778.31C3563.56 1782.67 3560.01 1786.21 3555.54 1786.27Z" stroke="#000000" stroke-width="3.4375" stroke-miterlimit="8" fill="#D6DBD9" fill-rule="evenodd"/><path d="M3604.54 1786.27 3588.96 1786.5C3584.49 1786.56 3580.83 1783.01 3580.73 1778.54L3580.5 1762.96C3580.44 1758.49 3583.99 1754.83 3588.46 1754.73L3604.04 1754.5C3608.51 1754.44 3612.17 1757.99 3612.27 1762.46L3612.5 1778.04C3612.59 1782.51 3609.01 1786.21 3604.54 1786.27Z" stroke="#000000" stroke-width="3.4375" stroke-miterlimit="8" fill="#D6DBD9" fill-rule="evenodd"/><path d="M3653.54 1785.27 3637.96 1785.5C3633.49 1785.56 3629.83 1782.01 3629.73 1777.54L3629.5 1761.96C3629.44 1757.49 3632.99 1753.83 3637.46 1753.73L3653.04 1753.5C3657.51 1753.44 3661.17 1756.99 3661.27 1761.46L3661.5 1777.04C3661.6 1781.51 3658.01 1785.2 3653.54 1785.27Z" stroke="#000000" stroke-width="3.4375" stroke-miterlimit="8" fill="#D6DBD9" fill-rule="evenodd"/><path d="M3693.54 1781.27 3677.96 1781.5C3673.49 1781.56 3669.83 1778.01 3669.73 1773.54L3669.5 1757.96C3669.44 1753.49 3672.99 1749.83 3677.46 1749.73L3693.04 1749.5C3697.51 1749.44 3701.17 1752.99 3701.27 1757.46L3701.5 1773.04C3701.59 1777.55 3698.01 1781.2 3693.54 1781.27Z" stroke="#000000" stroke-width="3.4375" stroke-miterlimit="8" fill="#D6DBD9" fill-rule="evenodd"/><path d="M3742.79 1780.27 3727.69 1780.5C3723.37 1780.56 3719.82 1777.01 3719.72 1772.54L3719.5 1756.96C3719.44 1752.49 3722.88 1748.83 3727.21 1748.73L3742.31 1748.5C3746.63 1748.44 3750.18 1751.99 3750.27 1756.46L3750.5 1772.04C3750.59 1776.55 3747.12 1780.2 3742.79 1780.27Z" stroke="#000000" stroke-width="3.4375" stroke-miterlimit="8" fill="#D6DBD9" fill-rule="evenodd"/><path d="M3788.54 1780.27 3772.96 1780.5C3768.49 1780.56 3764.83 1777.01 3764.73 1772.54L3764.5 1756.96C3764.44 1752.49 3767.99 1748.83 3772.46 1748.73L3788.04 1748.5C3792.51 1748.44 3796.17 1751.99 3796.27 1756.46L3796.5 1772.04C3796.55 1776.54 3793.01 1780.21 3788.54 1780.27Z" stroke="#000000" stroke-width="3.4375" stroke-miterlimit="8" fill="#D6DBD9" fill-rule="evenodd"/><path d="M3836.54 1779.27 3820.96 1779.5C3816.49 1779.56 3812.83 1776.01 3812.73 1771.54L3812.5 1755.96C3812.44 1751.49 3815.99 1747.83 3820.46 1747.73L3836.04 1747.5C3840.51 1747.44 3844.17 1750.99 3844.27 1755.46L3844.5 1771.04C3844.56 1775.51 3841.01 1779.2 3836.54 1779.27Z" stroke="#000000" stroke-width="3.4375" stroke-miterlimit="8" fill="#D6DBD9" fill-rule="evenodd"/><path d="M3317.52 1790.32 3236.97 1791.5C3232.5 1791.56 3228.83 1788.01 3228.73 1783.53L3228.5 1767.92C3228.44 1763.45 3231.99 1759.77 3236.47 1759.68L3317.03 1758.5C3321.5 1758.44 3325.17 1761.99 3325.27 1766.47L3325.5 1782.08C3325.6 1786.56 3322 1790.26 3317.52 1790.32Z" stroke="#000000" stroke-width="3.4375" stroke-miterlimit="8" fill="#D6DBD9" fill-rule="evenodd"/><path d="M3387.54 1838.27 3371.96 1838.5C3367.49 1838.56 3363.83 1835.01 3363.73 1830.54L3363.5 1814.96C3363.44 1810.49 3366.99 1806.83 3371.46 1806.73L3387.04 1806.5C3391.51 1806.44 3395.17 1809.99 3395.27 1814.46L3395.5 1830.04C3395.56 1834.51 3392.01 1838.2 3387.54 1838.27Z" stroke="#000000" stroke-width="3.4375" stroke-miterlimit="8" fill="#D6DBD9" fill-rule="evenodd"/><path d="M3361.54 1789.27 3345.96 1789.5C3341.49 1789.56 3337.83 1786.01 3337.73 1781.54L3337.5 1765.96C3337.44 1761.49 3340.99 1757.83 3345.46 1757.73L3361.04 1757.5C3365.51 1757.44 3369.17 1760.99 3369.27 1765.46L3369.5 1781.04C3369.59 1785.51 3366 1789.2 3361.54 1789.27Z" stroke="#000000" stroke-width="3.4375" stroke-miterlimit="8" fill="#D6DBD9" fill-rule="evenodd"/><path d="M3900.67 1779.96 3862.81 1780.5C3858.43 1780.56 3854.82 1777.05 3854.73 1772.62L3854.5 1757.19C3854.44 1752.77 3857.93 1749.14 3862.33 1749.05L3900.19 1748.5C3904.58 1748.44 3908.18 1751.95 3908.27 1756.38L3908.5 1771.81C3908.56 1776.27 3905.07 1779.89 3900.67 1779.96L3900.67 1779.96Z" stroke="#000000" stroke-width="3.4375" stroke-miterlimit="8" fill="#D6DBD9" fill-rule="evenodd"/><path d="M3338.61 1837.01 3237.88 1838.5C3233.46 1838.56 3229.83 1835.04 3229.73 1830.6L3229.5 1815.15C3229.44 1810.72 3232.96 1807.08 3237.39 1806.99L3338.12 1805.5C3342.54 1805.44 3346.17 1808.96 3346.27 1813.4L3346.5 1828.85C3346.56 1833.28 3343.04 1836.95 3338.61 1837.01Z" stroke="#000000" stroke-width="3.4375" stroke-miterlimit="8" fill="#D6DBD9" fill-rule="evenodd"/><path d="M3436.54 1835.28 3420.96 1835.5C3416.49 1835.56 3412.83 1832.12 3412.73 1827.79L3412.5 1812.69C3412.44 1808.37 3415.99 1804.82 3420.46 1804.73L3436.04 1804.5C3440.51 1804.44 3444.17 1807.88 3444.27 1812.21L3444.5 1827.31C3444.59 1831.64 3441 1835.22 3436.54 1835.28Z" stroke="#000000" stroke-width="3.4375" stroke-miterlimit="8" fill="#D6DBD9" fill-rule="evenodd"/><path d="M3489.54 1835.27 3473.96 1835.5C3469.49 1835.56 3465.83 1832.01 3465.73 1827.54L3465.5 1811.96C3465.44 1807.49 3468.99 1803.83 3473.46 1803.73L3489.04 1803.5C3493.51 1803.44 3497.17 1806.99 3497.27 1811.46L3497.5 1827.04C3497.59 1831.55 3494.01 1835.2 3489.54 1835.27Z" stroke="#000000" stroke-width="3.4375" stroke-miterlimit="8" fill="#D6DBD9" fill-rule="evenodd"/><path d="M3536.54 1834.27 3520.96 1834.5C3516.49 1834.56 3512.83 1831.01 3512.73 1826.54L3512.5 1810.96C3512.44 1806.49 3515.99 1802.83 3520.46 1802.73L3536.04 1802.5C3540.51 1802.44 3544.17 1805.99 3544.27 1810.46L3544.5 1826.04C3544.59 1830.55 3541.01 1834.21 3536.54 1834.27Z" stroke="#000000" stroke-width="3.4375" stroke-miterlimit="8" fill="#D6DBD9" fill-rule="evenodd"/><path d="M3583.54 1833.27 3567.96 1833.5C3563.49 1833.56 3559.83 1830.01 3559.73 1825.54L3559.5 1809.96C3559.44 1805.49 3562.99 1801.83 3567.46 1801.73L3583.04 1801.5C3587.51 1801.44 3591.17 1804.99 3591.27 1809.46L3591.5 1825.04C3591.56 1829.51 3588.01 1833.21 3583.54 1833.27Z" stroke="#000000" stroke-width="3.4375" stroke-miterlimit="8" fill="#D6DBD9" fill-rule="evenodd"/><path d="M3633.54 1832.27 3617.96 1832.5C3613.49 1832.56 3609.83 1829.01 3609.73 1824.54L3609.5 1808.96C3609.44 1804.49 3612.99 1800.83 3617.46 1800.73L3633.04 1800.5C3637.51 1800.44 3641.17 1803.99 3641.27 1808.46L3641.5 1824.04C3641.59 1828.51 3638.01 1832.17 3633.54 1832.27Z" stroke="#000000" stroke-width="3.4375" stroke-miterlimit="8" fill="#D6DBD9" fill-rule="evenodd"/><path d="M3681.54 1832.27 3665.96 1832.5C3661.49 1832.56 3657.83 1829.01 3657.73 1824.54L3657.5 1808.96C3657.44 1804.49 3660.99 1800.83 3665.46 1800.73L3681.04 1800.5C3685.51 1800.44 3689.17 1803.99 3689.27 1808.46L3689.5 1824.04C3689.55 1828.54 3686.01 1832.21 3681.54 1832.27Z" stroke="#000000" stroke-width="3.4375" stroke-miterlimit="8" fill="#D6DBD9" fill-rule="evenodd"/><path d="M3721.79 1828.27 3706.69 1828.5C3702.37 1828.56 3698.82 1825.01 3698.72 1820.54L3698.5 1804.96C3698.44 1800.49 3701.88 1796.83 3706.21 1796.73L3721.31 1796.5C3725.63 1796.44 3729.18 1799.99 3729.27 1804.46L3729.5 1820.04C3729.59 1824.55 3726.11 1828.21 3721.79 1828.27Z" stroke="#000000" stroke-width="3.4375" stroke-miterlimit="8" fill="#D6DBD9" fill-rule="evenodd"/><path d="M3771.54 1827.27 3755.96 1827.5C3751.49 1827.56 3747.83 1824.01 3747.73 1819.54L3747.5 1803.96C3747.44 1799.49 3750.99 1795.83 3755.46 1795.73L3771.04 1795.5C3775.51 1795.44 3779.17 1798.99 3779.27 1803.46L3779.5 1819.04C3779.59 1823.51 3776 1827.21 3771.54 1827.27Z" stroke="#000000" stroke-width="3.4375" stroke-miterlimit="8" fill="#D6DBD9" fill-rule="evenodd"/><path d="M3816.54 1826.27 3800.96 1826.5C3796.49 1826.56 3792.83 1823.01 3792.73 1818.54L3792.5 1802.96C3792.44 1798.49 3795.99 1794.83 3800.46 1794.73L3816.04 1794.5C3820.51 1794.44 3824.17 1797.99 3824.27 1802.46L3824.5 1818.04C3824.56 1822.51 3821.01 1826.2 3816.54 1826.27Z" stroke="#000000" stroke-width="3.4375" stroke-miterlimit="8" fill="#D6DBD9" fill-rule="evenodd"/><path d="M3906.6 1820.64 3846.9 1821.5C3842.46 1821.56 3838.83 1818.08 3838.73 1813.7L3838.5 1798.43C3838.44 1794.05 3841.96 1790.46 3846.4 1790.36L3906.1 1789.5C3910.54 1789.44 3914.17 1792.92 3914.27 1797.3L3914.5 1812.57C3914.56 1816.98 3911.03 1820.57 3906.6 1820.64Z" stroke="#000000" stroke-width="3.4375" stroke-miterlimit="8" fill="#D6DBD9" fill-rule="evenodd"/><path d="M3249.54 1882.27 3233.96 1882.5C3229.49 1882.56 3225.83 1879.01 3225.73 1874.54L3225.5 1858.96C3225.44 1854.49 3228.99 1850.83 3233.46 1850.73L3249.04 1850.5C3253.51 1850.44 3257.17 1853.99 3257.27 1858.46L3257.5 1874.04C3257.59 1878.55 3254.04 1882.21 3249.54 1882.27Z" stroke="#000000" stroke-width="3.4375" stroke-miterlimit="8" fill="#D6DBD9" fill-rule="evenodd"/><path d="M3294.79 1881.27 3279.69 1881.5C3275.37 1881.56 3271.82 1878.01 3271.73 1873.54L3271.5 1857.96C3271.44 1853.49 3274.88 1849.83 3279.21 1849.73L3294.31 1849.5C3298.63 1849.44 3302.18 1852.99 3302.28 1857.46L3302.5 1873.04C3302.55 1877.55 3299.11 1881.21 3294.79 1881.27Z" stroke="#000000" stroke-width="3.4375" stroke-miterlimit="8" fill="#D6DBD9" fill-rule="evenodd"/><path d="M3343.54 1880.27 3327.96 1880.5C3323.49 1880.56 3319.83 1877.01 3319.73 1872.54L3319.5 1856.96C3319.44 1852.49 3322.99 1848.83 3327.46 1848.73L3343.04 1848.5C3347.51 1848.44 3351.17 1851.99 3351.27 1856.46L3351.5 1872.04C3351.59 1876.51 3348.01 1880.21 3343.54 1880.27Z" stroke="#000000" stroke-width="3.4375" stroke-miterlimit="8" fill="#D6DBD9" fill-rule="evenodd"/><path d="M3388.54 1880.27 3372.96 1880.5C3368.49 1880.56 3364.83 1877.01 3364.73 1872.54L3364.5 1856.96C3364.44 1852.49 3367.99 1848.83 3372.46 1848.73L3388.04 1848.5C3392.51 1848.44 3396.17 1851.99 3396.27 1856.46L3396.5 1872.04C3396.56 1876.51 3393.01 1880.21 3388.54 1880.27Z" stroke="#000000" stroke-width="3.4375" stroke-miterlimit="8" fill="#D6DBD9" fill-rule="evenodd"/><path d="M3442.54 1879.28 3426.96 1879.5C3422.49 1879.56 3418.83 1876.12 3418.73 1871.79L3418.5 1856.69C3418.44 1852.37 3421.99 1848.82 3426.46 1848.72L3442.04 1848.5C3446.51 1848.44 3450.17 1851.88 3450.27 1856.21L3450.5 1871.31C3450.56 1875.63 3447.01 1879.21 3442.54 1879.28Z" stroke="#000000" stroke-width="3.4375" stroke-miterlimit="8" fill="#D6DBD9" fill-rule="evenodd"/><path d="M3628.57 1876.23 3473.93 1878.5C3469.48 1878.56 3465.83 1875.02 3465.73 1870.55L3465.5 1854.99C3465.44 1850.53 3468.97 1846.87 3473.43 1846.77L3628.07 1844.5C3632.52 1844.44 3636.17 1847.98 3636.27 1852.45L3636.5 1868.01C3636.59 1872.51 3633.02 1876.16 3628.57 1876.23Z" stroke="#000000" stroke-width="3.4375" stroke-miterlimit="8" fill="#D6DBD9" fill-rule="evenodd"/><path d="M3673.54 1876.27 3657.96 1876.5C3653.49 1876.56 3649.83 1873.01 3649.73 1868.54L3649.5 1852.96C3649.44 1848.49 3652.99 1844.83 3657.46 1844.73L3673.04 1844.5C3677.51 1844.44 3681.17 1847.99 3681.27 1852.46L3681.5 1868.04C3681.56 1872.51 3678.01 1876.21 3673.54 1876.27Z" stroke="#000000" stroke-width="3.4375" stroke-miterlimit="8" fill="#D6DBD9" fill-rule="evenodd"/><path d="M3721.54 1875.27 3705.96 1875.5C3701.49 1875.56 3697.83 1872.01 3697.73 1867.54L3697.5 1851.96C3697.44 1847.49 3700.99 1843.83 3705.46 1843.73L3721.04 1843.5C3725.51 1843.44 3729.17 1846.99 3729.27 1851.46L3729.5 1867.04C3729.59 1871.51 3726 1875.2 3721.54 1875.27Z" stroke="#000000" stroke-width="3.4375" stroke-miterlimit="8" fill="#D6DBD9" fill-rule="evenodd"/><path d="M3767.54 1874.27 3751.96 1874.5C3747.49 1874.56 3743.83 1871.01 3743.73 1866.54L3743.5 1850.96C3743.44 1846.49 3746.99 1842.83 3751.46 1842.73L3767.04 1842.5C3771.51 1842.44 3775.17 1845.99 3775.27 1850.46L3775.5 1866.04C3775.56 1870.51 3772.01 1874.17 3767.54 1874.27Z" stroke="#000000" stroke-width="3.4375" stroke-miterlimit="8" fill="#D6DBD9" fill-rule="evenodd"/><path d="M3808.54 1874.27 3792.96 1874.5C3788.49 1874.56 3784.83 1871.01 3784.73 1866.54L3784.5 1850.96C3784.44 1846.49 3787.99 1842.83 3792.46 1842.73L3808.04 1842.5C3812.51 1842.44 3816.17 1845.99 3816.27 1850.46L3816.5 1866.04C3816.6 1870.51 3813 1874.2 3808.54 1874.27Z" stroke="#000000" stroke-width="3.4375" stroke-miterlimit="8" fill="#D6DBD9" fill-rule="evenodd"/><path d="M3857.79 1871.27 3842.69 1871.5C3838.37 1871.56 3834.82 1868.01 3834.72 1863.54L3834.5 1847.96C3834.44 1843.49 3837.88 1839.83 3842.21 1839.73L3857.31 1839.5C3861.63 1839.44 3865.18 1842.99 3865.27 1847.46L3865.5 1863.04C3865.59 1867.55 3862.12 1871.21 3857.79 1871.27Z" stroke="#000000" stroke-width="3.4375" stroke-miterlimit="8" fill="#D6DBD9" fill-rule="evenodd"/><path d="M3906.54 1871.27 3890.96 1871.5C3886.49 1871.56 3882.83 1868.01 3882.73 1863.54L3882.5 1847.96C3882.44 1843.49 3885.99 1839.83 3890.46 1839.73L3906.04 1839.5C3910.51 1839.44 3914.17 1842.99 3914.27 1847.46L3914.5 1863.04C3914.56 1867.55 3911.01 1871.21 3906.54 1871.27Z" stroke="#000000" stroke-width="3.4375" stroke-miterlimit="8" fill="#D6DBD9" fill-rule="evenodd"/><path d="M3982.79 1734.27 3967.69 1734.5C3963.37 1734.56 3959.82 1731.01 3959.73 1726.54L3959.5 1710.96C3959.44 1706.49 3962.88 1702.83 3967.21 1702.73L3982.31 1702.5C3986.63 1702.44 3990.18 1705.99 3990.27 1710.46L3990.5 1726.04C3990.59 1730.52 3987.12 1734.17 3982.79 1734.27Z" stroke="#000000" stroke-width="3.4375" stroke-miterlimit="8" fill="#D6DBD9" fill-rule="evenodd"/><path d="M4075.54 1732.27 4059.96 1732.5C4055.49 1732.56 4051.83 1729.01 4051.73 1724.54L4051.5 1708.96C4051.44 1704.49 4054.99 1700.83 4059.46 1700.73L4075.04 1700.5C4079.51 1700.44 4083.17 1703.99 4083.27 1708.46L4083.5 1724.04C4083.59 1728.51 4080 1732.21 4075.54 1732.27Z" stroke="#000000" stroke-width="3.4375" stroke-miterlimit="8" fill="#D6DBD9" fill-rule="evenodd"/><path d="M4028.54 1733.27 4012.96 1733.5C4008.49 1733.56 4004.83 1730.01 4004.73 1725.54L4004.5 1709.96C4004.44 1705.49 4007.99 1701.83 4012.46 1701.73L4028.04 1701.5C4032.51 1701.44 4036.17 1704.99 4036.27 1709.46L4036.5 1725.04C4036.56 1729.51 4033.01 1733.21 4028.54 1733.27Z" stroke="#000000" stroke-width="3.4375" stroke-miterlimit="8" fill="#D6DBD9" fill-rule="evenodd"/><path d="M3983.54 1778.27 3967.96 1778.5C3963.49 1778.56 3959.83 1775.01 3959.73 1770.54L3959.5 1754.96C3959.44 1750.49 3962.99 1746.83 3967.46 1746.73L3983.04 1746.5C3987.51 1746.44 3991.17 1749.99 3991.27 1754.46L3991.5 1770.04C3991.56 1774.51 3988.01 1778.2 3983.54 1778.27Z" stroke="#000000" stroke-width="3.4375" stroke-miterlimit="8" fill="#D6DBD9" fill-rule="evenodd"/><path d="M4029.54 1776.27 4013.96 1776.5C4009.49 1776.56 4005.83 1773.01 4005.73 1768.54L4005.5 1752.96C4005.44 1748.49 4008.99 1744.83 4013.46 1744.73L4029.04 1744.5C4033.51 1744.44 4037.17 1747.99 4037.27 1752.46L4037.5 1768.04C4037.56 1772.51 4034 1776.21 4029.54 1776.27Z" stroke="#000000" stroke-width="3.4375" stroke-miterlimit="8" fill="#D6DBD9" fill-rule="evenodd"/><path d="M4076.54 1775.27 4060.96 1775.5C4056.49 1775.56 4052.83 1772.12 4052.73 1767.79L4052.5 1752.69C4052.44 1748.37 4055.99 1744.82 4060.46 1744.73L4076.04 1744.5C4080.51 1744.44 4084.17 1747.88 4084.27 1752.21L4084.5 1767.31C4084.59 1771.67 4081 1775.21 4076.54 1775.27Z" stroke="#000000" stroke-width="3.4375" stroke-miterlimit="8" fill="#D6DBD9" fill-rule="evenodd"/><path d="M3984.54 1822.28 3968.96 1822.5C3964.49 1822.56 3960.83 1819.12 3960.73 1814.79L3960.5 1799.69C3960.44 1795.37 3963.99 1791.82 3968.46 1791.73L3984.04 1791.5C3988.51 1791.44 3992.17 1794.88 3992.27 1799.21L3992.5 1814.31C3992.55 1818.67 3989.01 1822.21 3984.54 1822.28Z" stroke="#000000" stroke-width="3.4375" stroke-miterlimit="8" fill="#D6DBD9" fill-rule="evenodd"/><path d="M4029.54 1818.27 4013.96 1818.5C4009.49 1818.56 4005.83 1815.01 4005.73 1810.54L4005.5 1794.96C4005.44 1790.49 4008.99 1786.83 4013.46 1786.73L4029.04 1786.5C4033.51 1786.44 4037.17 1789.99 4037.27 1794.46L4037.5 1810.04C4037.59 1814.55 4034 1818.21 4029.54 1818.27Z" stroke="#000000" stroke-width="3.4375" stroke-miterlimit="8" fill="#D6DBD9" fill-rule="evenodd"/><path d="M4078.54 1818.27 4062.96 1818.5C4058.49 1818.56 4054.83 1815.01 4054.73 1810.54L4054.5 1794.96C4054.44 1790.49 4057.99 1786.83 4062.46 1786.73L4078.04 1786.5C4082.51 1786.44 4086.17 1789.99 4086.27 1794.46L4086.5 1810.04C4086.59 1814.51 4083 1818.21 4078.54 1818.27Z" stroke="#000000" stroke-width="3.4375" stroke-miterlimit="8" fill="#D6DBD9" fill-rule="evenodd"/><path d="M4039.65 1863.47 3969.84 1864.5C3965.44 1864.56 3961.82 1860.99 3961.73 1856.49L3961.5 1840.81C3961.44 1836.31 3964.94 1832.62 3969.35 1832.53L4039.16 1831.5C4043.56 1831.44 4047.18 1835.01 4047.27 1839.51L4047.5 1855.19C4047.59 1859.73 4044.05 1863.41 4039.65 1863.47L4039.65 1863.47Z" stroke="#000000" stroke-width="3.4375" stroke-miterlimit="8" fill="#D6DBD9" fill-rule="evenodd"/><path d="M4079.54 1862.27 4063.96 1862.5C4059.49 1862.56 4055.83 1859.01 4055.73 1854.54L4055.5 1838.96C4055.44 1834.49 4058.99 1830.83 4063.46 1830.73L4079.04 1830.5C4083.51 1830.44 4087.17 1833.99 4087.27 1838.46L4087.5 1854.04C4087.59 1858.51 4084 1862.21 4079.54 1862.27Z" stroke="#000000" stroke-width="3.4375" stroke-miterlimit="8" fill="#D6DBD9" fill-rule="evenodd"/><path d="M3348.44 1617.85C3344.97 1626.93 3362.35 1643.94 3386.71 1667.76 3389.98 1670.96 3401.1 1681.61 3417.42 1693.33 3426.33 1699.73 3433.66 1704.16 3436.89 1706.12 3445.67 1711.31 3461.81 1721.17 3483.22 1727.74 3505.07 1734.41 3520.87 1739.25 3541.28 1735.92 3549.27 1734.61 3575.32 1730.39 3581.62 1713.37 3585.27 1703.54 3580.72 1693.54 3579.07 1689.86 3556.08 1639.03 3358.84 1590.56 3348.41 1617.89L3348.44 1617.85Z" fill="#5B5742" fill-rule="evenodd" fill-opacity="0.431373"/><path d="M3325.04 1387.08C3333.84 1372.09 3339.25 1370.04 3342.45 1370.57 3350.02 1371.85 3349.99 1388.6 3363.64 1414.89 3368.28 1423.82 3372.41 1430.12 3375.9 1435.45 3399.52 1467.09 3438.62 1514.8 3465.77 1549.22 3513.23 1601.81 3525.71 1619.25 3562.45 1663.14 3565.18 1665.75 3573.37 1673.5 3576.53 1685.93 3591.39 1762.9 3430.27 1676.28 3414.26 1665.61 3382.11 1645.39 3382.52 1638.97 3330.52 1596.51 3277.96 1553.61 3270.22 1554.19 3265.5 1538.68 3267.81 1519.81 3272.27 1496.97 3280.9 1471.95 3293.59 1435.19 3310.77 1406.83 3325.04 1387.08Z" stroke="#000000" stroke-width="20.625" stroke-miterlimit="8" fill="#EBE2B3" fill-rule="evenodd"/><path d="M3816.12 1924.56C3812.49 1917.98 3825.53 1904.77 3835.69 1898.34 3839.83 1895.73 3848.01 1890.69 3859.66 1890.51 3870.96 1890.32 3878.96 1894.82 3885.21 1898.34 3892.06 1902.2 3909.86 1913.75 3907.24 1920.62 3905.53 1925.11 3896.32 1924.41 3861.95 1925.94 3827.08 1927.49 3818.58 1929.01 3816.12 1924.56Z" stroke="#000000" stroke-width="20.625" stroke-miterlimit="8" fill="#EBE2B3" fill-rule="evenodd"/></g></svg>