<svg width="2447" height="1267" xmlns="http://www.w3.org/2000/svg" xmlns:xlink="http://www.w3.org/1999/xlink" xml:space="preserve" overflow="hidden"><defs><clipPath id="clip0"><rect x="2694" y="759" width="2447" height="1267"/></clipPath></defs><g clip-path="url(#clip0)" transform="translate(-2694 -759)"><path d="M3842 1427 5141 1427 5141 1446 3842 1446Z" fill="#A2D196" fill-rule="evenodd"/><path d="M3842 1430 5141 1430 5141 1442 3842 1442Z" fill="#8BC228" fill-rule="evenodd"/><path d="M3834.71 1449.5 3735.29 1449.5C3730.99 1449.5 3727.5 1446.07 3727.5 1441.85L3727.5 1431.15C3727.5 1426.93 3730.99 1423.5 3735.29 1423.5L3834.71 1423.5C3839.01 1423.5 3842.5 1426.93 3842.5 1431.15L3842.5 1441.85C3842.5 1446.07 3839.01 1449.5 3834.71 1449.5Z" stroke="#000000" stroke-width="6.875" stroke-miterlimit="8" fill="#CBC49C" fill-rule="evenodd"/><path d="M3726.28 1458.5 3719.72 1458.5C3716.29 1458.5 3713.5 1455.7 3713.5 1452.24L3713.5 1420.76C3713.5 1417.3 3716.29 1414.5 3719.72 1414.5L3726.28 1414.5C3729.71 1414.5 3732.5 1417.3 3732.5 1420.76L3732.5 1452.24C3732.5 1455.7 3729.71 1458.5 3726.28 1458.5Z" stroke="#000000" stroke-width="6.875" stroke-miterlimit="8" fill="#CBC49C" fill-rule="evenodd"/><path d="M3707.09 1467.5 3695.91 1467.5C3690.71 1467.5 3686.5 1463.24 3686.5 1457.98L3686.5 1412.02C3686.5 1406.76 3690.71 1402.5 3695.91 1402.5L3707.09 1402.5C3712.29 1402.5 3716.5 1406.76 3716.5 1412.02L3716.5 1457.98C3716.5 1463.24 3712.29 1467.5 3707.09 1467.5Z" stroke="#000000" stroke-width="6.875" stroke-miterlimit="8" fill="#CBC49C" fill-rule="evenodd"/><path d="M2999.5 1810.5C3001.73 1815.01 3003.55 1818.9 3004.89 1821.9 3009.59 1832.47 3012.44 1840.7 3013.54 1843.9 3016.42 1852.26 3016.52 1853.88 3022.29 1873.78 3031.56 1905.73 3032.31 1905.05 3034.54 1915.99 3037.63 1931.04 3036.05 1931.42 3039.79 1952.9 3043.26 1972.77 3045.11 1982.82 3050.3 1989.81 3051.64 1991.6 3064.88 2008.92 3083.59 2007.41 3095.88 2006.41 3104.05 1997.77 3109.88 1991.57 3113.42 1987.85 3116.16 1984.03 3129.17 1956.42 3136.69 1940.47 3140.5 1932.31 3143.21 1924.77 3144.65 1920.78 3145.61 1917.58 3146.33 1914.79 3149.28 1903.53 3151.17 1896.27 3151.96 1893.13 3153.78 1885.9 3158.14 1875.64 3169.5 1863.25 3112.83 1845.65 3056.17 1828.09 2999.5 1810.5L2999.5 1810.5Z" stroke="#000000" stroke-width="20.625" stroke-miterlimit="8" fill="#EBE2B3" fill-rule="evenodd"/><path d="M3355.5 1854.1C3363.11 1871.46 3370.73 1891.2 3377.66 1913.17 3384.48 1934.88 3389.51 1955.2 3393.23 1973.7 3412.32 2020.72 3462.6 2009.15 3468.63 1959.64 3475.62 1937.87 3482.38 1914.66 3488.61 1890.06 3494.23 1867.91 3498.99 1846.55 3502.98 1826.16 3503.5 1815.93 3503.98 1805.7 3504.5 1795.5L3355.57 1854.1 3355.5 1854.1Z" stroke="#000000" stroke-width="20.625" stroke-miterlimit="8" fill="#EBE2B3" fill-rule="evenodd"/><path d="M2794.77 1397.54C2792.36 1387.88 2789.58 1373.28 2789.51 1355.41 2789.44 1336.4 2792.54 1331.18 2793.02 1315.06 2793.98 1283.13 2782.53 1281.31 2782.5 1253.64 2782.5 1220.79 2798.52 1195.01 2803.57 1186.97 2815.05 1168.58 2819.62 1171.19 2833.4 1150.12 2846.22 1130.53 2852.13 1113.21 2857.97 1095.72 2868.11 1065.37 2865.7 1059.29 2873.78 1030.8 2879.48 1010.66 2886.74 984.985 2903.61 958.831 2914.61 941.784 2933.17 925.253 2970.28 892.156 2994.13 870.882 3011.32 857.169 3024.69 846.515 3065.44 814.071 3078.85 807.129 3084.35 804.379 3103.63 794.825 3120.98 786.199 3144.01 786.817 3155.59 787.127 3173.84 788.261 3193.46 788.089 3196.25 788.054 3202.54 788.089 3210.71 787.573 3214.22 787.333 3220.1 786.886 3227.18 785.924 3239.2 784.308 3248.24 782.178 3251.03 781.525 3291.17 772.245 3311.44 766.643 3330 771.008 3352.31 776.232 3367.29 789.154 3380.9 800.839 3389.53 808.263 3401.38 823.454 3424.79 853.492 3450.8 886.932 3456.82 895.902 3472.18 907.897 3487.54 919.891 3489.47 917.073 3500.26 927.211 3514.62 940.684 3520.02 953.916 3533.59 985.122 3559.54 1044.79 3557.41 1036.98 3559.92 1044.79 3562.46 1052.79 3563.91 1060.66 3567.17 1076.34 3571.29 1096.17 3572.5 1105.72 3577.48 1134.31 3581.36 1156.52 3583.19 1167.65 3584.49 1172.91 3593.29 1208.55 3606.52 1232.75 3610.82 1241.34 3630.92 1281.48 3628.89 1328.94 3624.87 1423.87 3622.43 1481.43 3621.09 1512.71 3607.31 1553.75 3600.2 1574.92 3596.93 1577.36 3579.23 1625.71 3564.25 1666.61 3561.77 1678.02 3549.4 1706.44 3535.66 1738.06 3528.78 1753.87 3514.31 1771.36 3508.2 1778.79 3493.93 1794.74 3456.4 1817.01 3425.2 1835.53 3390.08 1856.36 3338.83 1866.15 3264.95 1880.28 3203.22 1862.75 3179.13 1855.64 3164.11 1851.2 3159.03 1848.52 3129.99 1839.83 3080.6 1825.05 3066.85 1824.26 3036.99 1815.25 3019.12 1809.86 3010.15 1807.35 2998.98 1803.05 2987.74 1798.72 2962.27 1788.72 2936.95 1771.36 2893.88 1741.91 2870.21 1704.42 2861.48 1688.88 2854.6 1676.61 2845.19 1648.53 2826.39 1592.34 2813.98 1555.26 2807.69 1536.46 2805.32 1523.91 2800.71 1499.61 2799.31 1476.45 2796.56 1430.91 2795.66 1416.79 2795.11 1405.21 2794.77 1397.54Z" stroke="#000000" stroke-width="20.625" stroke-miterlimit="8" fill="#EBE2B3" fill-rule="evenodd"/><path d="M3039.38 924.829 3052.52 900.01 3170.43 962.464 3157.28 987.282Z" stroke="#000000" stroke-width="10.3139" stroke-miterlimit="8" fill="#595850" fill-rule="evenodd"/><path d="M3293.32 960.589 3413.54 902.725 3425.72 928.032 3305.5 985.896Z" stroke="#000000" stroke-width="10.3139" stroke-miterlimit="8" fill="#595850" fill-rule="evenodd"/><path d="M3494 2016.5C3494 2021.75 3389.23 2026 3260 2026 3130.77 2026 3026 2021.75 3026 2016.5 3026 2011.25 3130.77 2007 3260 2007 3389.23 2007 3494 2011.25 3494 2016.5Z" fill="#5B5742" fill-rule="evenodd" fill-opacity="0.470588"/><path d="M3316 1183C3316 1195.15 3282.2 1205 3240.5 1205 3198.8 1205 3165 1195.15 3165 1183 3165 1170.85 3198.8 1161 3240.5 1161 3282.2 1161 3316 1170.85 3316 1183Z" stroke="#000000" stroke-width="10.3125" stroke-miterlimit="8" fill="#E73A8F" fill-rule="evenodd"/><path d="M3026.44 995.413C3013.05 1005.6 3020.86 1040.92 3034.45 1063.02 3039.31 1070.92 3050.06 1088.4 3072.11 1095.03 3091.03 1100.71 3107.07 1095.06 3111.64 1093.26 3135.13 1084.03 3156.78 1058.24 3151.77 1039.56 3149.52 1031.14 3143.08 1028.72 3069.47 1003.39 3044.91 994.936 3032.5 990.804 3026.44 995.413Z" stroke="#000000" stroke-width="20.625" stroke-miterlimit="8" fill="#231815" fill-rule="evenodd"/><path d="M3399.33 1414.68C3406.93 1427.32 3447.22 1420.77 3464.47 1415.92 3478.62 1411.96 3492.84 1404.76 3498.31 1401.83 3501.93 1399.93 3509.5 1395.77 3518.52 1389.53 3533.5 1379.17 3540.11 1371.93 3556.33 1356.12 3578.12 1334.87 3593.48 1323.27 3608.18 1300.29 3611.35 1295.37 3615.79 1287.86 3613.24 1281.18 3609.97 1272.67 3597.2 1270.4 3592.65 1269.47 3548.17 1260.44 3381.52 1385.19 3399.33 1414.68L3399.33 1414.68Z" fill="#5B5742" fill-rule="evenodd" fill-opacity="0.431373"/><path d="M3116 1068C3116 1079.05 3107.05 1088 3096 1088 3084.95 1088 3076 1079.05 3076 1068 3076 1056.95 3084.95 1048 3096 1048 3107.05 1048 3116 1056.95 3116 1068Z" fill="#FFFFFF" fill-rule="evenodd"/><path d="M3429.56 995.413C3442.95 1005.6 3435.14 1040.92 3421.55 1063.02 3416.69 1070.92 3405.94 1088.4 3383.89 1095.03 3364.97 1100.71 3348.93 1095.06 3344.36 1093.26 3320.87 1084.03 3299.22 1058.24 3304.23 1039.56 3306.48 1031.14 3312.92 1028.72 3386.53 1003.39 3411.09 994.936 3423.5 990.804 3429.56 995.413Z" stroke="#000000" stroke-width="20.625" stroke-miterlimit="8" fill="#231815" fill-rule="evenodd"/><path d="M3390 1068C3390 1079.05 3381.05 1088 3370 1088 3358.95 1088 3350 1079.05 3350 1068 3350 1056.95 3358.95 1048 3370 1048 3381.05 1048 3390 1056.95 3390 1068Z" fill="#FFFFFF" fill-rule="evenodd"/><path d="M3564.07 1075.52C3561.24 1075.77 3563.26 1079.93 3544.68 1107.8 3544.68 1107.8 3536.16 1123.56 3529.78 1135 3522.46 1148.11 3516.88 1157.41 3508.73 1170.96 3489.29 1203.31 3489.35 1201.42 3482.43 1213.95 3478.24 1221.53 3474.51 1228.94 3460.51 1261.32 3438.04 1313.25 3431.1 1315.57 3434.2 1323.6 3443.11 1346.65 3503.18 1354.94 3544.68 1331.5 3552.66 1326.98 3558.73 1321.11 3570.99 1309.57 3606.91 1275.71 3614.8 1267.66 3617.02 1256.7 3618 1251.85 3617.7 1249.06 3613.9 1227.42 3607.55 1191.27 3604.38 1173.19 3602.55 1165.7 3599.56 1153.44 3580.18 1074.09 3564.07 1075.52Z" stroke="#000000" stroke-width="20.625" stroke-miterlimit="8" fill="#EBE2B3" fill-rule="evenodd"/><path d="M3654.52 1634.17 2741.13 1647.5C2723.17 1647.75 2708.42 1633.41 2708.15 1615.49L2704.5 1366.81C2704.25 1348.85 2718.59 1334.1 2736.51 1333.84L3649.87 1320.5C3667.83 1320.25 3682.58 1334.59 3682.85 1352.51L3686.5 1601.19C3686.79 1619.12 3672.45 1633.9 3654.52 1634.17Z" stroke="#000000" stroke-width="20.625" stroke-miterlimit="8" fill="#A6A897" fill-rule="evenodd"/><path d="M2981.51 1406.08 2951.99 1406.5C2947.51 1406.56 2943.83 1403.03 2943.73 1398.59L2943.5 1383.09C2943.44 1378.66 2947 1375.01 2951.49 1374.92L2981.01 1374.5C2985.49 1374.44 2989.17 1377.97 2989.27 1382.41L2989.5 1397.91C2989.56 1402.38 2985.99 1406.02 2981.51 1406.08Z" stroke="#000000" stroke-width="3.4375" stroke-miterlimit="8" fill="#D6DBD9" fill-rule="evenodd"/><path d="M3119.68 1404.08 3090.81 1404.5C3086.42 1404.56 3082.82 1401.03 3082.73 1396.59L3082.5 1381.1C3082.44 1376.66 3085.93 1373.01 3090.32 1372.92L3119.19 1372.5C3123.58 1372.44 3127.18 1375.97 3127.27 1380.41L3127.5 1395.91C3127.56 1400.35 3124.07 1404.02 3119.68 1404.08Z" stroke="#000000" stroke-width="3.4375" stroke-miterlimit="8" fill="#D6DBD9" fill-rule="evenodd"/><path d="M2793.51 1409.08 2763.99 1409.5C2759.51 1409.56 2755.83 1406.03 2755.73 1401.59L2755.5 1386.09C2755.44 1381.66 2759 1378.01 2763.49 1377.92L2793.01 1377.5C2797.49 1377.44 2801.17 1380.97 2801.27 1385.41L2801.5 1400.91C2801.6 1405.35 2797.99 1409.02 2793.51 1409.08Z" stroke="#000000" stroke-width="3.4375" stroke-miterlimit="8" fill="#D6DBD9" fill-rule="evenodd"/><path d="M2855.51 1408.08 2825.99 1408.5C2821.51 1408.56 2817.83 1405.03 2817.73 1400.59L2817.5 1385.09C2817.44 1380.66 2821 1377.01 2825.49 1376.92L2855.01 1376.5C2859.49 1376.44 2863.17 1379.97 2863.27 1384.41L2863.5 1399.91C2863.59 1404.39 2859.99 1408.02 2855.51 1408.08Z" stroke="#000000" stroke-width="3.4375" stroke-miterlimit="8" fill="#D6DBD9" fill-rule="evenodd"/><path d="M3363.51 1401.08 3333.99 1401.5C3329.51 1401.56 3325.83 1398.03 3325.73 1393.59L3325.5 1378.09C3325.44 1373.66 3329 1370.01 3333.49 1369.92L3363.01 1369.5C3367.49 1369.44 3371.17 1372.97 3371.27 1377.41L3371.5 1392.91C3371.6 1397.35 3368 1400.99 3363.51 1401.08Z" stroke="#000000" stroke-width="3.4375" stroke-miterlimit="8" fill="#D6DBD9" fill-rule="evenodd"/><path d="M2918.68 1407.08 2889.81 1407.5C2885.42 1407.56 2881.82 1404.03 2881.73 1399.59L2881.5 1384.09C2881.44 1379.66 2884.93 1376.01 2889.32 1375.92L2918.19 1375.5C2922.58 1375.44 2926.18 1378.97 2926.27 1383.41L2926.5 1398.91C2926.59 1403.35 2923.07 1407.02 2918.68 1407.08Z" stroke="#000000" stroke-width="3.4375" stroke-miterlimit="8" fill="#D6DBD9" fill-rule="evenodd"/><path d="M3182.51 1404.08 3152.99 1404.5C3148.51 1404.56 3144.83 1401.03 3144.73 1396.59L3144.5 1381.09C3144.44 1376.66 3148 1373.01 3152.49 1372.92L3182.01 1372.5C3186.49 1372.44 3190.17 1375.97 3190.27 1380.41L3190.5 1395.91C3190.57 1400.35 3186.99 1404.02 3182.51 1404.08Z" stroke="#000000" stroke-width="3.4375" stroke-miterlimit="8" fill="#D6DBD9" fill-rule="evenodd"/><path d="M3242.51 1403.08 3212.99 1403.5C3208.51 1403.56 3204.83 1400.03 3204.73 1395.59L3204.5 1380.09C3204.44 1375.66 3208 1372.01 3212.49 1371.92L3242.01 1371.5C3246.49 1371.44 3250.17 1374.97 3250.27 1379.41L3250.5 1394.91C3250.56 1399.38 3246.99 1403.02 3242.51 1403.08Z" stroke="#000000" stroke-width="3.4375" stroke-miterlimit="8" fill="#D6DBD9" fill-rule="evenodd"/><path d="M3302.68 1402.08 3273.81 1402.5C3269.42 1402.56 3265.82 1399.03 3265.73 1394.59L3265.5 1379.1C3265.44 1374.66 3268.93 1371.01 3273.32 1370.92L3302.19 1370.5C3306.58 1370.44 3310.18 1373.97 3310.27 1378.41L3310.5 1393.91C3310.59 1398.35 3307.07 1402.02 3302.68 1402.08Z" stroke="#000000" stroke-width="3.4375" stroke-miterlimit="8" fill="#D6DBD9" fill-rule="evenodd"/><path d="M3050.51 1405.08 3020.99 1405.5C3016.51 1405.56 3012.83 1402.03 3012.73 1397.59L3012.5 1382.1C3012.44 1377.66 3016 1374.01 3020.49 1373.92L3050.01 1373.5C3054.49 1373.44 3058.17 1376.97 3058.27 1381.41L3058.5 1396.91C3058.59 1401.39 3054.99 1405.02 3050.51 1405.08Z" stroke="#000000" stroke-width="3.4375" stroke-miterlimit="8" fill="#D6DBD9" fill-rule="evenodd"/><path d="M3432.68 1398.08 3403.81 1398.5C3399.42 1398.56 3395.82 1395.03 3395.73 1390.59L3395.5 1375.09C3395.44 1370.66 3398.93 1367.01 3403.32 1366.92L3432.19 1366.5C3436.58 1366.44 3440.18 1369.97 3440.27 1374.41L3440.5 1389.91C3440.6 1394.35 3437.07 1398.02 3432.68 1398.08Z" stroke="#000000" stroke-width="3.4375" stroke-miterlimit="8" fill="#D6DBD9" fill-rule="evenodd"/><path d="M2822.57 1454.63 2762.93 1455.5C2758.48 1455.56 2754.83 1451.97 2754.73 1447.45L2754.5 1431.69C2754.44 1427.17 2757.98 1423.47 2762.43 1423.37L2822.07 1422.5C2826.52 1422.44 2830.17 1426.03 2830.27 1430.55L2830.5 1446.31C2830.59 1450.86 2827.02 1454.56 2822.57 1454.63Z" stroke="#000000" stroke-width="3.4375" stroke-miterlimit="8" fill="#D6DBD9" fill-rule="evenodd"/><path d="M2873.54 1453.27 2857.96 1453.5C2853.49 1453.56 2849.83 1450.01 2849.73 1445.54L2849.5 1429.96C2849.44 1425.49 2852.99 1421.83 2857.46 1421.73L2873.04 1421.5C2877.51 1421.44 2881.17 1424.99 2881.27 1429.46L2881.5 1445.04C2881.55 1449.54 2878.01 1453.2 2873.54 1453.27Z" stroke="#000000" stroke-width="3.4375" stroke-miterlimit="8" fill="#D6DBD9" fill-rule="evenodd"/><path d="M2918.54 1452.27 2902.96 1452.5C2898.49 1452.56 2894.83 1449.12 2894.73 1444.79L2894.5 1429.69C2894.44 1425.37 2897.99 1421.82 2902.46 1421.73L2918.04 1421.5C2922.51 1421.44 2926.17 1424.88 2926.27 1429.21L2926.5 1444.31C2926.59 1448.64 2923 1452.21 2918.54 1452.27Z" stroke="#000000" stroke-width="3.4375" stroke-miterlimit="8" fill="#D6DBD9" fill-rule="evenodd"/><path d="M2966.54 1452.27 2950.96 1452.5C2946.49 1452.56 2942.83 1449.01 2942.73 1444.54L2942.5 1428.96C2942.44 1424.49 2945.99 1420.83 2950.46 1420.73L2966.04 1420.5C2970.51 1420.44 2974.17 1423.99 2974.27 1428.46L2974.5 1444.04C2974.59 1448.51 2971.01 1452.21 2966.54 1452.27Z" stroke="#000000" stroke-width="3.4375" stroke-miterlimit="8" fill="#D6DBD9" fill-rule="evenodd"/><path d="M3011.79 1451.27 2996.69 1451.5C2992.37 1451.56 2988.82 1448.01 2988.73 1443.54L2988.5 1427.96C2988.44 1423.49 2991.88 1419.83 2996.21 1419.73L3011.31 1419.5C3015.63 1419.44 3019.18 1422.99 3019.28 1427.46L3019.5 1443.04C3019.56 1447.55 3016.12 1451.21 3011.79 1451.27L3011.79 1451.27Z" stroke="#000000" stroke-width="3.4375" stroke-miterlimit="8" fill="#D6DBD9" fill-rule="evenodd"/><path d="M3066.54 1451.27 3050.96 1451.5C3046.49 1451.56 3042.83 1448.01 3042.73 1443.54L3042.5 1427.96C3042.44 1423.49 3045.99 1419.83 3050.46 1419.73L3066.04 1419.5C3070.51 1419.44 3074.17 1422.99 3074.27 1427.46L3074.5 1443.04C3074.59 1447.51 3071 1451.21 3066.54 1451.27Z" stroke="#000000" stroke-width="3.4375" stroke-miterlimit="8" fill="#D6DBD9" fill-rule="evenodd"/><path d="M3111.54 1450.27 3095.96 1450.5C3091.49 1450.56 3087.83 1447.01 3087.73 1442.54L3087.5 1426.96C3087.44 1422.49 3090.99 1418.83 3095.46 1418.73L3111.04 1418.5C3115.51 1418.44 3119.17 1421.99 3119.27 1426.46L3119.5 1442.04C3119.59 1446.55 3116 1450.2 3111.54 1450.27Z" stroke="#000000" stroke-width="3.4375" stroke-miterlimit="8" fill="#D6DBD9" fill-rule="evenodd"/><path d="M3159.79 1450.27 3144.69 1450.5C3140.37 1450.56 3136.82 1447.01 3136.72 1442.54L3136.5 1426.96C3136.44 1422.49 3139.88 1418.83 3144.21 1418.73L3159.31 1418.5C3163.63 1418.44 3167.18 1421.99 3167.28 1426.46L3167.5 1442.04C3167.56 1446.55 3164.12 1450.21 3159.79 1450.27Z" stroke="#000000" stroke-width="3.4375" stroke-miterlimit="8" fill="#D6DBD9" fill-rule="evenodd"/><path d="M3202.54 1448.28 3186.96 1448.5C3182.49 1448.56 3178.83 1445.12 3178.73 1440.79L3178.5 1425.69C3178.44 1421.37 3181.99 1417.82 3186.46 1417.73L3202.04 1417.5C3206.51 1417.44 3210.17 1420.88 3210.27 1425.21L3210.5 1440.31C3210.56 1444.63 3207.01 1448.21 3202.54 1448.28Z" stroke="#000000" stroke-width="3.4375" stroke-miterlimit="8" fill="#D6DBD9" fill-rule="evenodd"/><path d="M3251.54 1448.27 3235.96 1448.5C3231.49 1448.56 3227.83 1445.01 3227.73 1440.54L3227.5 1424.96C3227.44 1420.49 3230.99 1416.83 3235.46 1416.73L3251.04 1416.5C3255.51 1416.44 3259.17 1419.99 3259.27 1424.46L3259.5 1440.04C3259.56 1444.51 3256.01 1448.21 3251.54 1448.27Z" stroke="#000000" stroke-width="3.4375" stroke-miterlimit="8" fill="#D6DBD9" fill-rule="evenodd"/><path d="M3297.54 1447.27 3281.96 1447.5C3277.49 1447.56 3273.83 1444.01 3273.73 1439.54L3273.5 1423.96C3273.44 1419.49 3276.99 1415.83 3281.46 1415.73L3297.04 1415.5C3301.51 1415.44 3305.17 1418.99 3305.27 1423.46L3305.5 1439.04C3305.6 1443.51 3302.01 1447.2 3297.54 1447.27Z" stroke="#000000" stroke-width="3.4375" stroke-miterlimit="8" fill="#D6DBD9" fill-rule="evenodd"/><path d="M3345.54 1446.28 3329.96 1446.5C3325.49 1446.56 3321.83 1443.12 3321.73 1438.79L3321.5 1423.69C3321.44 1419.37 3324.99 1415.82 3329.46 1415.73L3345.04 1415.5C3349.51 1415.44 3353.17 1418.88 3353.27 1423.21L3353.5 1438.31C3353.59 1442.67 3350 1446.21 3345.54 1446.28Z" stroke="#000000" stroke-width="3.4375" stroke-miterlimit="8" fill="#D6DBD9" fill-rule="evenodd"/><path d="M3390.54 1446.27 3374.96 1446.5C3370.49 1446.56 3366.83 1443.01 3366.73 1438.54L3366.5 1422.96C3366.44 1418.49 3369.99 1414.83 3374.46 1414.73L3390.04 1414.5C3394.51 1414.44 3398.17 1417.99 3398.27 1422.46L3398.5 1438.04C3398.55 1442.54 3395.01 1446.2 3390.54 1446.27Z" stroke="#000000" stroke-width="3.4375" stroke-miterlimit="8" fill="#D6DBD9" fill-rule="evenodd"/><path d="M3432.54 1446.27 3416.96 1446.5C3412.49 1446.56 3408.83 1443.01 3408.73 1438.54L3408.5 1422.96C3408.44 1418.49 3411.99 1414.83 3416.46 1414.73L3432.04 1414.5C3436.51 1414.44 3440.17 1417.99 3440.27 1422.46L3440.5 1438.04C3440.59 1442.55 3437 1446.21 3432.54 1446.27Z" stroke="#000000" stroke-width="3.4375" stroke-miterlimit="8" fill="#D6DBD9" fill-rule="evenodd"/><path d="M2937.54 1499.27 2921.96 1499.5C2917.49 1499.56 2913.83 1496.01 2913.73 1491.54L2913.5 1475.96C2913.44 1471.49 2916.99 1467.83 2921.46 1467.73L2937.04 1467.5C2941.51 1467.44 2945.17 1470.99 2945.27 1475.46L2945.5 1491.04C2945.56 1495.51 2942.01 1499.21 2937.54 1499.27Z" stroke="#000000" stroke-width="3.4375" stroke-miterlimit="8" fill="#D6DBD9" fill-rule="evenodd"/><path d="M2987.79 1498.28 2972.69 1498.5C2968.37 1498.56 2964.82 1495.12 2964.73 1490.79L2964.5 1475.69C2964.44 1471.37 2967.88 1467.82 2972.21 1467.73L2987.31 1467.5C2991.63 1467.44 2995.18 1470.88 2995.27 1475.21L2995.5 1490.31C2995.56 1494.63 2992.12 1498.21 2987.79 1498.28Z" stroke="#000000" stroke-width="3.4375" stroke-miterlimit="8" fill="#D6DBD9" fill-rule="evenodd"/><path d="M3034.79 1498.27 3019.69 1498.5C3015.37 1498.56 3011.82 1495.01 3011.72 1490.54L3011.5 1474.96C3011.44 1470.49 3014.88 1466.83 3019.21 1466.73L3034.31 1466.5C3038.63 1466.44 3042.18 1469.99 3042.27 1474.46L3042.5 1490.04C3042.59 1494.51 3039.11 1498.21 3034.79 1498.27Z" stroke="#000000" stroke-width="3.4375" stroke-miterlimit="8" fill="#D6DBD9" fill-rule="evenodd"/><path d="M3082.54 1497.27 3066.96 1497.5C3062.49 1497.56 3058.83 1494.01 3058.73 1489.54L3058.5 1473.96C3058.44 1469.49 3061.99 1465.83 3066.46 1465.73L3082.04 1465.5C3086.51 1465.44 3090.17 1468.99 3090.27 1473.46L3090.5 1489.04C3090.56 1493.55 3087.01 1497.21 3082.54 1497.27Z" stroke="#000000" stroke-width="3.4375" stroke-miterlimit="8" fill="#D6DBD9" fill-rule="evenodd"/><path d="M3131.54 1496.27 3115.96 1496.5C3111.49 1496.56 3107.83 1493.01 3107.73 1488.54L3107.5 1472.96C3107.44 1468.49 3110.99 1464.83 3115.46 1464.73L3131.04 1464.5C3135.51 1464.44 3139.17 1467.99 3139.27 1472.46L3139.5 1488.04C3139.59 1492.51 3136.01 1496.21 3131.54 1496.27Z" stroke="#000000" stroke-width="3.4375" stroke-miterlimit="8" fill="#D6DBD9" fill-rule="evenodd"/><path d="M3179.54 1495.27 3163.96 1495.5C3159.49 1495.56 3155.83 1492.01 3155.73 1487.54L3155.5 1471.96C3155.44 1467.49 3158.99 1463.83 3163.46 1463.73L3179.04 1463.5C3183.51 1463.44 3187.17 1466.99 3187.27 1471.46L3187.5 1487.04C3187.6 1491.51 3184.01 1495.2 3179.54 1495.27Z" stroke="#000000" stroke-width="3.4375" stroke-miterlimit="8" fill="#D6DBD9" fill-rule="evenodd"/><path d="M3220.54 1491.27 3204.96 1491.5C3200.49 1491.56 3196.83 1488.01 3196.73 1483.54L3196.5 1467.96C3196.44 1463.49 3199.99 1459.83 3204.46 1459.73L3220.04 1459.5C3224.51 1459.44 3228.17 1462.99 3228.27 1467.46L3228.5 1483.04C3228.59 1487.55 3225.01 1491.2 3220.54 1491.27Z" stroke="#000000" stroke-width="3.4375" stroke-miterlimit="8" fill="#D6DBD9" fill-rule="evenodd"/><path d="M3269.54 1491.27 3253.96 1491.5C3249.49 1491.56 3245.83 1488.01 3245.73 1483.54L3245.5 1467.96C3245.44 1463.49 3248.99 1459.83 3253.46 1459.73L3269.04 1459.5C3273.51 1459.44 3277.17 1462.99 3277.27 1467.46L3277.5 1483.04C3277.59 1487.55 3274.01 1491.2 3269.54 1491.27Z" stroke="#000000" stroke-width="3.4375" stroke-miterlimit="8" fill="#D6DBD9" fill-rule="evenodd"/><path d="M3314.79 1490.27 3299.69 1490.5C3295.37 1490.56 3291.82 1487.01 3291.73 1482.54L3291.5 1466.96C3291.44 1462.49 3294.88 1458.83 3299.21 1458.73L3314.31 1458.5C3318.63 1458.44 3322.18 1461.99 3322.27 1466.46L3322.5 1482.04C3322.55 1486.54 3319.11 1490.21 3314.79 1490.27Z" stroke="#000000" stroke-width="3.4375" stroke-miterlimit="8" fill="#D6DBD9" fill-rule="evenodd"/><path d="M3363.54 1489.27 3347.96 1489.5C3343.49 1489.56 3339.83 1486.01 3339.73 1481.54L3339.5 1465.96C3339.44 1461.49 3342.99 1457.83 3347.46 1457.73L3363.04 1457.5C3367.51 1457.44 3371.17 1460.99 3371.27 1465.46L3371.5 1481.04C3371.56 1485.51 3368.01 1489.2 3363.54 1489.27Z" stroke="#000000" stroke-width="3.4375" stroke-miterlimit="8" fill="#D6DBD9" fill-rule="evenodd"/><path d="M2843.61 1500.36 2763.89 1501.5C2759.46 1501.56 2755.83 1498.11 2755.73 1493.77L2755.5 1478.63C2755.44 1474.3 2758.96 1470.74 2763.39 1470.64L2843.11 1469.5C2847.54 1469.44 2851.17 1472.89 2851.27 1477.23L2851.5 1492.37C2851.59 1496.71 2848.03 1500.3 2843.61 1500.36Z" stroke="#000000" stroke-width="3.4375" stroke-miterlimit="8" fill="#D6DBD9" fill-rule="evenodd"/><path d="M2914.54 1548.27 2898.96 1548.5C2894.49 1548.56 2890.83 1545.01 2890.73 1540.54L2890.5 1524.96C2890.44 1520.49 2893.99 1516.83 2898.46 1516.73L2914.04 1516.5C2918.51 1516.44 2922.17 1519.99 2922.27 1524.46L2922.5 1540.04C2922.56 1544.51 2919.01 1548.2 2914.54 1548.27Z" stroke="#000000" stroke-width="3.4375" stroke-miterlimit="8" fill="#D6DBD9" fill-rule="evenodd"/><path d="M2888.54 1499.27 2872.96 1499.5C2868.49 1499.56 2864.83 1496.01 2864.73 1491.54L2864.5 1475.96C2864.44 1471.49 2867.99 1467.83 2872.46 1467.73L2888.04 1467.5C2892.51 1467.44 2896.17 1470.99 2896.27 1475.46L2896.5 1491.04C2896.59 1495.51 2893 1499.2 2888.54 1499.27Z" stroke="#000000" stroke-width="3.4375" stroke-miterlimit="8" fill="#D6DBD9" fill-rule="evenodd"/><path d="M3427.53 1489.96 3388.97 1490.5C3384.5 1490.56 3380.83 1487.05 3380.73 1482.62L3380.5 1467.19C3380.44 1462.77 3383.99 1459.14 3388.47 1459.05L3427.03 1458.5C3431.5 1458.44 3435.17 1461.95 3435.27 1466.38L3435.5 1481.81C3435.56 1486.27 3432 1489.89 3427.53 1489.96L3427.53 1489.96Z" stroke="#000000" stroke-width="3.4375" stroke-miterlimit="8" fill="#D6DBD9" fill-rule="evenodd"/><path d="M2865.61 1547.01 2764.88 1548.5C2760.46 1548.56 2756.83 1545.04 2756.73 1540.6L2756.5 1525.15C2756.44 1520.72 2759.96 1517.08 2764.39 1516.99L2865.12 1515.5C2869.54 1515.44 2873.17 1518.96 2873.27 1523.4L2873.5 1538.85C2873.56 1543.28 2870.04 1546.95 2865.61 1547.01Z" stroke="#000000" stroke-width="3.4375" stroke-miterlimit="8" fill="#D6DBD9" fill-rule="evenodd"/><path d="M2963.54 1546.27 2947.96 1546.5C2943.49 1546.56 2939.83 1543.01 2939.73 1538.54L2939.5 1522.96C2939.44 1518.49 2942.99 1514.83 2947.46 1514.73L2963.04 1514.5C2967.51 1514.44 2971.17 1517.99 2971.27 1522.46L2971.5 1538.04C2971.59 1542.51 2968 1546.21 2963.54 1546.27Z" stroke="#000000" stroke-width="3.4375" stroke-miterlimit="8" fill="#D6DBD9" fill-rule="evenodd"/><path d="M3016.54 1545.27 3000.96 1545.5C2996.49 1545.56 2992.83 1542.01 2992.73 1537.54L2992.5 1521.96C2992.44 1517.49 2995.99 1513.83 3000.46 1513.73L3016.04 1513.5C3020.51 1513.44 3024.17 1516.99 3024.27 1521.46L3024.5 1537.04C3024.59 1541.55 3021.01 1545.2 3016.54 1545.27Z" stroke="#000000" stroke-width="3.4375" stroke-miterlimit="8" fill="#D6DBD9" fill-rule="evenodd"/><path d="M3063.54 1544.27 3047.96 1544.5C3043.49 1544.56 3039.83 1541.01 3039.73 1536.54L3039.5 1520.96C3039.44 1516.49 3042.99 1512.83 3047.46 1512.73L3063.04 1512.5C3067.51 1512.44 3071.17 1515.99 3071.27 1520.46L3071.5 1536.04C3071.59 1540.55 3068.01 1544.21 3063.54 1544.27Z" stroke="#000000" stroke-width="3.4375" stroke-miterlimit="8" fill="#D6DBD9" fill-rule="evenodd"/><path d="M3110.54 1543.27 3094.96 1543.5C3090.49 1543.56 3086.83 1540.01 3086.73 1535.54L3086.5 1519.96C3086.44 1515.49 3089.99 1511.83 3094.46 1511.73L3110.04 1511.5C3114.51 1511.44 3118.17 1514.99 3118.27 1519.46L3118.5 1535.04C3118.56 1539.51 3115.01 1543.21 3110.54 1543.27Z" stroke="#000000" stroke-width="3.4375" stroke-miterlimit="8" fill="#D6DBD9" fill-rule="evenodd"/><path d="M3159.54 1542.27 3143.96 1542.5C3139.49 1542.56 3135.83 1539.12 3135.73 1534.79L3135.5 1519.69C3135.44 1515.37 3138.99 1511.82 3143.46 1511.73L3159.04 1511.5C3163.51 1511.44 3167.17 1514.88 3167.27 1519.21L3167.5 1534.31C3167.6 1538.64 3164.01 1542.18 3159.54 1542.27Z" stroke="#000000" stroke-width="3.4375" stroke-miterlimit="8" fill="#D6DBD9" fill-rule="evenodd"/><path d="M3208.54 1542.27 3192.96 1542.5C3188.49 1542.56 3184.83 1539.01 3184.73 1534.54L3184.5 1518.96C3184.44 1514.49 3187.99 1510.83 3192.46 1510.73L3208.04 1510.5C3212.51 1510.44 3216.17 1513.99 3216.27 1518.46L3216.5 1534.04C3216.55 1538.54 3213.01 1542.21 3208.54 1542.27Z" stroke="#000000" stroke-width="3.4375" stroke-miterlimit="8" fill="#D6DBD9" fill-rule="evenodd"/><path d="M3248.54 1538.27 3232.96 1538.5C3228.49 1538.56 3224.83 1535.01 3224.73 1530.54L3224.5 1514.96C3224.44 1510.49 3227.99 1506.83 3232.46 1506.73L3248.04 1506.5C3252.51 1506.44 3256.17 1509.99 3256.27 1514.46L3256.5 1530.04C3256.59 1534.55 3253 1538.21 3248.54 1538.27Z" stroke="#000000" stroke-width="3.4375" stroke-miterlimit="8" fill="#D6DBD9" fill-rule="evenodd"/><path d="M3297.79 1537.27 3282.69 1537.5C3278.37 1537.56 3274.82 1534.01 3274.72 1529.54L3274.5 1513.96C3274.44 1509.49 3277.88 1505.83 3282.21 1505.73L3297.31 1505.5C3301.63 1505.44 3305.18 1508.99 3305.27 1513.46L3305.5 1529.04C3305.59 1533.51 3302.11 1537.21 3297.79 1537.27Z" stroke="#000000" stroke-width="3.4375" stroke-miterlimit="8" fill="#D6DBD9" fill-rule="evenodd"/><path d="M3343.54 1536.28 3327.96 1536.5C3323.49 1536.56 3319.83 1533.12 3319.73 1528.79L3319.5 1513.69C3319.44 1509.37 3322.99 1505.82 3327.46 1505.73L3343.04 1505.5C3347.51 1505.44 3351.17 1508.88 3351.27 1513.21L3351.5 1528.31C3351.56 1532.63 3348.01 1536.21 3343.54 1536.28Z" stroke="#000000" stroke-width="3.4375" stroke-miterlimit="8" fill="#D6DBD9" fill-rule="evenodd"/><path d="M3433.6 1530.64 3373.9 1531.5C3369.46 1531.56 3365.83 1528.08 3365.73 1523.7L3365.5 1508.43C3365.44 1504.05 3368.96 1500.46 3373.4 1500.36L3433.1 1499.5C3437.54 1499.44 3441.17 1502.92 3441.27 1507.3L3441.5 1522.57C3441.56 1526.98 3438.03 1530.57 3433.6 1530.64Z" stroke="#000000" stroke-width="3.4375" stroke-miterlimit="8" fill="#D6DBD9" fill-rule="evenodd"/><path d="M2776.54 1592.27 2760.96 1592.5C2756.49 1592.56 2752.83 1589.01 2752.73 1584.54L2752.5 1568.96C2752.44 1564.49 2755.99 1560.83 2760.46 1560.73L2776.04 1560.5C2780.51 1560.44 2784.17 1563.99 2784.27 1568.46L2784.5 1584.04C2784.59 1588.55 2781.04 1592.21 2776.54 1592.27Z" stroke="#000000" stroke-width="3.4375" stroke-miterlimit="8" fill="#D6DBD9" fill-rule="evenodd"/><path d="M2821.54 1591.27 2805.96 1591.5C2801.49 1591.56 2797.83 1588.01 2797.73 1583.54L2797.5 1567.96C2797.44 1563.49 2800.99 1559.83 2805.46 1559.73L2821.04 1559.5C2825.51 1559.44 2829.17 1562.99 2829.27 1567.46L2829.5 1583.04C2829.55 1587.55 2826.01 1591.21 2821.54 1591.27Z" stroke="#000000" stroke-width="3.4375" stroke-miterlimit="8" fill="#D6DBD9" fill-rule="evenodd"/><path d="M2869.54 1590.28 2853.96 1590.5C2849.49 1590.56 2845.83 1587.12 2845.73 1582.79L2845.5 1567.69C2845.44 1563.37 2848.99 1559.82 2853.46 1559.73L2869.04 1559.5C2873.51 1559.44 2877.17 1562.88 2877.27 1567.21L2877.5 1582.31C2877.59 1586.64 2874.01 1590.21 2869.54 1590.28Z" stroke="#000000" stroke-width="3.4375" stroke-miterlimit="8" fill="#D6DBD9" fill-rule="evenodd"/><path d="M2915.54 1590.27 2899.96 1590.5C2895.49 1590.56 2891.83 1587.01 2891.73 1582.54L2891.5 1566.96C2891.44 1562.49 2894.99 1558.83 2899.46 1558.73L2915.04 1558.5C2919.51 1558.44 2923.17 1561.99 2923.27 1566.46L2923.5 1582.04C2923.56 1586.51 2920.01 1590.21 2915.54 1590.27Z" stroke="#000000" stroke-width="3.4375" stroke-miterlimit="8" fill="#D6DBD9" fill-rule="evenodd"/><path d="M2969.54 1590.27 2953.96 1590.5C2949.49 1590.56 2945.83 1587.01 2945.73 1582.54L2945.5 1566.96C2945.44 1562.49 2948.99 1558.83 2953.46 1558.73L2969.04 1558.5C2973.51 1558.44 2977.17 1561.99 2977.27 1566.46L2977.5 1582.04C2977.56 1586.51 2974.01 1590.2 2969.54 1590.27Z" stroke="#000000" stroke-width="3.4375" stroke-miterlimit="8" fill="#D6DBD9" fill-rule="evenodd"/><path d="M3154.61 1586.29 3000.88 1588.5C2996.45 1588.56 2992.83 1585.12 2992.73 1580.78L2992.5 1565.68C2992.44 1561.35 2995.95 1557.8 3000.38 1557.71L3154.12 1555.5C3158.54 1555.44 3162.17 1558.88 3162.27 1563.22L3162.5 1578.32C3162.59 1582.69 3159.04 1586.23 3154.61 1586.29Z" stroke="#000000" stroke-width="3.4375" stroke-miterlimit="8" fill="#D6DBD9" fill-rule="evenodd"/><path d="M3200.54 1586.27 3184.96 1586.5C3180.49 1586.56 3176.83 1583.01 3176.73 1578.54L3176.5 1562.96C3176.44 1558.49 3179.99 1554.83 3184.46 1554.73L3200.04 1554.5C3204.51 1554.44 3208.17 1557.99 3208.27 1562.46L3208.5 1578.04C3208.56 1582.51 3205.01 1586.21 3200.54 1586.27Z" stroke="#000000" stroke-width="3.4375" stroke-miterlimit="8" fill="#D6DBD9" fill-rule="evenodd"/><path d="M3248.54 1585.27 3232.96 1585.5C3228.49 1585.56 3224.83 1582.01 3224.73 1577.54L3224.5 1561.96C3224.44 1557.49 3227.99 1553.83 3232.46 1553.73L3248.04 1553.5C3252.51 1553.44 3256.17 1556.99 3256.27 1561.46L3256.5 1577.04C3256.59 1581.51 3253 1585.2 3248.54 1585.27Z" stroke="#000000" stroke-width="3.4375" stroke-miterlimit="8" fill="#D6DBD9" fill-rule="evenodd"/><path d="M3293.54 1584.27 3277.96 1584.5C3273.49 1584.56 3269.83 1581.12 3269.73 1576.79L3269.5 1561.69C3269.44 1557.37 3272.99 1553.82 3277.46 1553.73L3293.04 1553.5C3297.51 1553.44 3301.17 1556.88 3301.27 1561.21L3301.5 1576.31C3301.56 1580.63 3298.01 1584.18 3293.54 1584.27Z" stroke="#000000" stroke-width="3.4375" stroke-miterlimit="8" fill="#D6DBD9" fill-rule="evenodd"/><path d="M3335.54 1584.27 3319.96 1584.5C3315.49 1584.56 3311.83 1581.01 3311.73 1576.54L3311.5 1560.96C3311.44 1556.49 3314.99 1552.83 3319.46 1552.73L3335.04 1552.5C3339.51 1552.44 3343.17 1555.99 3343.27 1560.46L3343.5 1576.04C3343.6 1580.51 3340 1584.2 3335.54 1584.27Z" stroke="#000000" stroke-width="3.4375" stroke-miterlimit="8" fill="#D6DBD9" fill-rule="evenodd"/><path d="M3384.54 1581.28 3368.96 1581.5C3364.49 1581.56 3360.83 1578.12 3360.73 1573.79L3360.5 1558.69C3360.44 1554.37 3363.99 1550.82 3368.46 1550.73L3384.04 1550.5C3388.51 1550.44 3392.17 1553.88 3392.27 1558.21L3392.5 1573.31C3392.59 1577.67 3389.01 1581.21 3384.54 1581.28Z" stroke="#000000" stroke-width="3.4375" stroke-miterlimit="8" fill="#D6DBD9" fill-rule="evenodd"/><path d="M3432.79 1581.27 3417.69 1581.5C3413.37 1581.56 3409.82 1578.01 3409.73 1573.54L3409.5 1557.96C3409.44 1553.49 3412.88 1549.83 3417.21 1549.73L3432.31 1549.5C3436.63 1549.44 3440.18 1552.99 3440.28 1557.46L3440.5 1573.04C3440.56 1577.55 3437.12 1581.21 3432.79 1581.27Z" stroke="#000000" stroke-width="3.4375" stroke-miterlimit="8" fill="#D6DBD9" fill-rule="evenodd"/><path d="M3509.54 1444.27 3493.96 1444.5C3489.49 1444.56 3485.83 1441.01 3485.73 1436.54L3485.5 1420.96C3485.44 1416.49 3488.99 1412.83 3493.46 1412.73L3509.04 1412.5C3513.51 1412.44 3517.17 1415.99 3517.27 1420.46L3517.5 1436.04C3517.59 1440.52 3514.01 1444.17 3509.54 1444.27Z" stroke="#000000" stroke-width="3.4375" stroke-miterlimit="8" fill="#D6DBD9" fill-rule="evenodd"/><path d="M3602.54 1442.27 3586.96 1442.5C3582.49 1442.56 3578.83 1439.12 3578.73 1434.79L3578.5 1419.69C3578.44 1415.37 3581.99 1411.82 3586.46 1411.72L3602.04 1411.5C3606.51 1411.44 3610.17 1414.88 3610.27 1419.21L3610.5 1434.31C3610.59 1438.64 3607 1442.21 3602.54 1442.27Z" stroke="#000000" stroke-width="3.4375" stroke-miterlimit="8" fill="#D6DBD9" fill-rule="evenodd"/><path d="M3555.54 1443.27 3539.96 1443.5C3535.49 1443.56 3531.83 1440.01 3531.73 1435.54L3531.5 1419.96C3531.44 1415.49 3534.99 1411.83 3539.46 1411.73L3555.04 1411.5C3559.51 1411.44 3563.17 1414.99 3563.27 1419.46L3563.5 1435.04C3563.56 1439.51 3560.01 1443.21 3555.54 1443.27Z" stroke="#000000" stroke-width="3.4375" stroke-miterlimit="8" fill="#D6DBD9" fill-rule="evenodd"/><path d="M3510.54 1488.27 3494.96 1488.5C3490.49 1488.56 3486.83 1485.12 3486.73 1480.79L3486.5 1465.69C3486.44 1461.37 3489.99 1457.82 3494.46 1457.73L3510.04 1457.5C3514.51 1457.44 3518.17 1460.88 3518.27 1465.21L3518.5 1480.31C3518.56 1484.63 3515.01 1488.21 3510.54 1488.27Z" stroke="#000000" stroke-width="3.4375" stroke-miterlimit="8" fill="#D6DBD9" fill-rule="evenodd"/><path d="M3555.79 1486.27 3540.69 1486.5C3536.37 1486.56 3532.82 1483.12 3532.73 1478.79L3532.5 1463.69C3532.44 1459.37 3535.88 1455.82 3540.21 1455.73L3555.31 1455.5C3559.63 1455.44 3563.18 1458.88 3563.28 1463.21L3563.5 1478.31C3563.56 1482.63 3560.11 1486.21 3555.79 1486.27Z" stroke="#000000" stroke-width="3.4375" stroke-miterlimit="8" fill="#D6DBD9" fill-rule="evenodd"/><path d="M3603.54 1486.27 3587.96 1486.5C3583.49 1486.56 3579.83 1483.01 3579.73 1478.54L3579.5 1462.96C3579.44 1458.49 3582.99 1454.83 3587.46 1454.73L3603.04 1454.5C3607.51 1454.44 3611.17 1457.99 3611.27 1462.46L3611.5 1478.04C3611.59 1482.55 3608 1486.21 3603.54 1486.27Z" stroke="#000000" stroke-width="3.4375" stroke-miterlimit="8" fill="#D6DBD9" fill-rule="evenodd"/><path d="M3511.54 1533.27 3495.96 1533.5C3491.49 1533.56 3487.83 1530.01 3487.73 1525.54L3487.5 1509.96C3487.44 1505.49 3490.99 1501.83 3495.46 1501.73L3511.04 1501.5C3515.51 1501.44 3519.17 1504.99 3519.27 1509.46L3519.5 1525.04C3519.55 1529.54 3516.01 1533.2 3511.54 1533.27Z" stroke="#000000" stroke-width="3.4375" stroke-miterlimit="8" fill="#D6DBD9" fill-rule="evenodd"/><path d="M3556.54 1528.27 3540.96 1528.5C3536.49 1528.56 3532.83 1525.01 3532.73 1520.54L3532.5 1504.96C3532.44 1500.49 3535.99 1496.83 3540.46 1496.73L3556.04 1496.5C3560.51 1496.44 3564.17 1499.99 3564.27 1504.46L3564.5 1520.04C3564.59 1524.55 3561 1528.21 3556.54 1528.27Z" stroke="#000000" stroke-width="3.4375" stroke-miterlimit="8" fill="#D6DBD9" fill-rule="evenodd"/><path d="M3605.54 1528.27 3589.96 1528.5C3585.49 1528.56 3581.83 1525.01 3581.73 1520.54L3581.5 1504.96C3581.44 1500.49 3584.99 1496.83 3589.46 1496.73L3605.04 1496.5C3609.51 1496.44 3613.17 1499.99 3613.27 1504.46L3613.5 1520.04C3613.59 1524.51 3610 1528.21 3605.54 1528.27Z" stroke="#000000" stroke-width="3.4375" stroke-miterlimit="8" fill="#D6DBD9" fill-rule="evenodd"/><path d="M3566.56 1573.5 3495.93 1574.5C3491.48 1574.56 3487.83 1571.1 3487.73 1566.73L3487.5 1551.52C3487.44 1547.17 3490.98 1543.59 3495.44 1543.5L3566.07 1542.5C3570.52 1542.44 3574.17 1545.9 3574.27 1550.27L3574.5 1565.48C3574.59 1569.87 3571.01 1573.44 3566.56 1573.5L3566.56 1573.5Z" stroke="#000000" stroke-width="3.4375" stroke-miterlimit="8" fill="#D6DBD9" fill-rule="evenodd"/><path d="M3605.79 1572.27 3590.69 1572.5C3586.37 1572.56 3582.82 1569.01 3582.73 1564.54L3582.5 1548.96C3582.44 1544.49 3585.88 1540.83 3590.21 1540.73L3605.31 1540.5C3609.63 1540.44 3613.18 1543.99 3613.27 1548.46L3613.5 1564.04C3613.59 1568.51 3610.11 1572.21 3605.79 1572.27Z" stroke="#000000" stroke-width="3.4375" stroke-miterlimit="8" fill="#D6DBD9" fill-rule="evenodd"/><path d="M2875.44 1327.85C2871.97 1336.93 2889.35 1353.94 2913.71 1377.76 2916.98 1380.96 2928.1 1391.61 2944.42 1403.33 2953.33 1409.73 2960.66 1414.16 2963.89 1416.12 2972.67 1421.31 2988.81 1431.17 3010.22 1437.74 3032.07 1444.41 3047.87 1449.25 3068.28 1445.92 3076.27 1444.61 3102.32 1440.39 3108.62 1423.37 3112.27 1413.54 3107.72 1403.54 3106.07 1399.86 3083.08 1349.03 2885.84 1300.56 2875.41 1327.89L2875.44 1327.85Z" fill="#5B5742" fill-rule="evenodd" fill-opacity="0.431373"/><path d="M2852.04 1097.08C2860.84 1082.09 2866.25 1080.04 2869.45 1080.57 2877.02 1081.85 2876.99 1098.6 2890.64 1124.89 2895.28 1133.82 2899.41 1140.12 2902.9 1145.45 2926.52 1177.09 2965.62 1224.8 2992.77 1259.22 3040.23 1311.81 3052.71 1329.25 3089.45 1373.14 3092.18 1375.75 3100.37 1383.5 3103.53 1395.93 3118.39 1472.9 2957.27 1386.28 2941.26 1375.61 2909.11 1355.39 2909.52 1348.97 2857.52 1306.51 2804.96 1263.61 2797.22 1264.19 2792.5 1248.68 2794.81 1229.81 2799.27 1206.97 2807.9 1181.95 2820.59 1145.19 2837.77 1116.83 2852.04 1097.08Z" stroke="#000000" stroke-width="20.625" stroke-miterlimit="8" fill="#EBE2B3" fill-rule="evenodd"/><path d="M3342.12 1635.56C3338.49 1628.98 3351.53 1615.77 3361.69 1609.34 3365.82 1606.73 3374.01 1601.69 3385.66 1601.51 3396.96 1601.32 3404.96 1605.82 3411.21 1609.34 3418.06 1613.2 3435.86 1624.75 3433.24 1631.62 3431.53 1636.11 3422.32 1635.41 3387.95 1636.94 3353.08 1638.49 3344.58 1640.01 3342.12 1635.56Z" stroke="#000000" stroke-width="20.625" stroke-miterlimit="8" fill="#EBE2B3" fill-rule="evenodd"/></g></svg>