<svg width="1448" height="1511" xmlns="http://www.w3.org/2000/svg" xmlns:xlink="http://www.w3.org/1999/xlink" xml:space="preserve" overflow="hidden"><defs><clipPath id="clip0"><rect x="1431" y="598" width="1448" height="1511"/></clipPath></defs><g clip-path="url(#clip0)" transform="translate(-1431 -598)"><path d="M1682 1339.5C1682 1232.63 1838.92 1146 2032.5 1146 2226.08 1146 2383 1232.63 2383 1339.5 2383 1446.37 2226.08 1533 2032.5 1533 1838.92 1533 1682 1446.37 1682 1339.5Z" fill="#ADB0A1" fill-rule="evenodd"/><path d="M1682 1339.5C1682 1232.63 1838.92 1146 2032.5 1146 2226.08 1146 2383 1232.63 2383 1339.5 2383 1446.37 2226.08 1533 2032.5 1533 1838.92 1533 1682 1446.37 1682 1339.5Z" fill="#ADB0A1" fill-rule="evenodd"/><path d="M1682 1339.5C1682 1232.63 1838.92 1146 2032.5 1146 2226.08 1146 2383 1232.63 2383 1339.5 2383 1446.37 2226.08 1533 2032.5 1533 1838.92 1533 1682 1446.37 1682 1339.5Z" fill="#ADB0A1" fill-rule="evenodd"/><path d="M1556.98 1229.46C1465.58 981.963 1604.38 711.499 1867.01 625.363 2129.63 539.228 2416.63 670.038 2508.03 917.537 2545.29 1018.45 2545.33 1128.25 2508.13 1229.18Z" fill="#C8CFE2" fill-rule="evenodd"/><path d="M0 157.408 52.5713 0 180.365 0 232.936 157.408Z" fill="#ADB0A1" fill-rule="evenodd" transform="matrix(0.791011 -0.611802 -0.611802 -0.791011 1527.69 2118.01)"/><path d="M1532.71 1983.97C1446.79 1915.42 1459.05 1741.17 1560.09 1594.78 1628.04 1496.33 1722.42 1431.55 1805.19 1426.54L1786.71 1486.87C1693.54 1506.69 1586.2 1626.64 1546.96 1754.79 1522.35 1835.15 1529.72 1903.36 1566.45 1935.1Z" fill="#ADB0A1" fill-rule="evenodd"/><path d="M2698.36 1575.75 2861.47 1606.37 2878.81 1732.4 2730.04 1805.95Z" fill="#ADB0A1" fill-rule="evenodd"/><path d="M306.679 10.0338C536.768-26.4267 781.334 39.0026 852.931 156.174 866.766 178.816 873.395 202.44 872.566 226.15L814.018 225.619C818.387 135.253 652.827 60.4632 444.229 58.5707 408.955 58.2506 373.752 60.0727 339.646 63.9838Z" fill="#ADB0A1" fill-rule="evenodd" transform="matrix(0.625943 0.779869 0.779869 -0.625943 2074 1138.27)"/><path d="M1920.56 928.542C1880.04 983.75 1800.61 994.261 1743.15 952.02 1685.68 909.779 1671.95 830.78 1712.46 775.572 1712.77 775.161 1713.07 774.751 1713.38 774.343L1816.51 852.057Z" stroke="#404040" stroke-width="4.58333" stroke-miterlimit="8" fill="#FFFFFF" fill-rule="evenodd"/><path d="M2344.55 780.942C2385.77 835.627 2372.99 914.725 2316.01 957.613 2259.03 1000.5 2179.42 990.937 2138.19 936.253 2137.89 935.845 2137.58 935.435 2137.28 935.023L2241.37 858.597Z" stroke="#404040" stroke-width="4.58333" stroke-miterlimit="8" fill="#FFFFFF" fill-rule="evenodd"/><path d="M1845.51 1168.41C1844.54 1097.45 1914.94 1039.29 2002.75 1038.51 2090.56 1037.73 2162.53 1094.62 2163.49 1165.59 2163.5 1166.22 2163.5 1166.85 2163.5 1167.47L2004.5 1167Z" stroke="#404040" stroke-width="4.58333" stroke-miterlimit="8" fill="#FFFFFF" fill-rule="evenodd"/><path d="M1728.5 904C1728.5 874.453 1752.9 850.5 1783 850.5 1813.1 850.5 1837.5 874.453 1837.5 904 1837.5 933.547 1813.1 957.5 1783 957.5 1752.9 957.5 1728.5 933.547 1728.5 904Z" stroke="#404040" stroke-width="4.58333" stroke-miterlimit="8" fill="#0D0D0D" fill-rule="evenodd"/><path d="M2202.5 920C2202.5 890.453 2226.9 866.5 2257 866.5 2287.1 866.5 2311.5 890.453 2311.5 920 2311.5 949.547 2287.1 973.5 2257 973.5 2226.9 973.5 2202.5 949.547 2202.5 920Z" stroke="#404040" stroke-width="4.58333" stroke-miterlimit="8" fill="#0D0D0D" fill-rule="evenodd"/><path d="M0 157.408 52.5713 0 180.365 0 232.936 157.408Z" fill="#ADB0A1" fill-rule="evenodd" transform="matrix(0.506889 0.862011 0.862011 -0.506889 1533.71 1858.88)"/><path d="M1947.44 1289.22C1948.17 1534.57 1860.09 1807.67 1750.71 1899.21 1730.38 1916.23 1710.15 1926.12 1690.72 1928.54L1698.03 1869.58C1771.48 1847.52 1854.01 1644 1882.38 1415.02 1885.63 1388.79 1888.07 1362.85 1889.68 1337.56Z" fill="#ADB0A1" fill-rule="evenodd"/><path d="M2406.17 1759.77 2526.2 1873.8 2471.95 1989.79 2307.5 1970.77Z" fill="#ADB0A1" fill-rule="evenodd"/><path d="M344.788 3.66752C575.999-17.2701 800.041 52.6591 845.2 159.859 857.85 189.888 855.3 220.869 837.75 250.364L777.651 242.677C842.564 168.591 737.995 88.4271 544.09 63.6257 487.332 56.366 426.814 54.4721 367.721 58.106Z" fill="#ADB0A1" fill-rule="evenodd" transform="matrix(0.166414 0.986056 0.986056 -0.166414 2071.34 1118.07)"/><path d="M288.326 14.7594C531.189-24.4351 813.659 16.877 919.242 107.033 941.255 125.829 954.357 145.895 957.972 166.347L907.788 167.568C888.479 96.993 681.074 44.4509 444.537 50.2122 408.124 51.0991 372.24 53.3678 337.751 56.9635Z" fill="#ADB0A1" fill-rule="evenodd" transform="matrix(6.12323e-17 1 1 -6.12323e-17 1984 1068)"/><path d="M2192.01 1894.87 2202.71 2060.48 2084.88 2108.48 1976.81 1982.53Z" fill="#ADB0A1" fill-rule="evenodd"/></g></svg>