<svg width="1551" height="1426" xmlns="http://www.w3.org/2000/svg" xmlns:xlink="http://www.w3.org/1999/xlink" xml:space="preserve" overflow="hidden"><defs><clipPath id="clip0"><rect x="1242" y="648" width="1551" height="1426"/></clipPath></defs><g clip-path="url(#clip0)" transform="translate(-1242 -648)"><path d="M1682 1306.5C1682 1199.63 1838.92 1113 2032.5 1113 2226.08 1113 2383 1199.63 2383 1306.5 2383 1413.37 2226.08 1500 2032.5 1500 1838.92 1500 1682 1413.37 1682 1306.5Z" fill="#ADB0A1" fill-rule="evenodd"/><path d="M0 158 52.7688 0 180.231 0 233 158Z" fill="#ADB0A1" fill-rule="evenodd" transform="matrix(6.12323e-17 1 1 -6.12323e-17 1242 1551)"/><path d="M1803.21 1309.7C1851.04 1408.66 1764.65 1560.48 1610.26 1648.8 1506.42 1708.19 1393.31 1725.8 1316.51 1694.53L1359.25 1648.12C1451.83 1670.53 1600.48 1608.78 1691.28 1510.19 1748.21 1448.37 1771.05 1383.68 1751.66 1339.19Z" fill="#ADB0A1" fill-rule="evenodd"/><path d="M2764.95 1659.79 2792.31 1823.48 2679.94 1883.13 2559.7 1768.74Z" fill="#ADB0A1" fill-rule="evenodd"/><path d="M2247.83 1312.75C2497.48 1445.99 2698.63 1645.91 2697.11 1759.27 2696.9 1775.23 2692.59 1788.94 2684.27 1800.14L2644.54 1774.61C2690.56 1717.61 2549.03 1556.51 2328.41 1414.79 2301.67 1397.62 2274.44 1381.18 2247.12 1365.72Z" fill="#ADB0A1" fill-rule="evenodd"/><path d="M2390 1959.42 2255.11 2055.4 2151.64 1979.95 2201.79 1822.18Z" fill="#ADB0A1" fill-rule="evenodd"/><path d="M2178.26 1430.1C2300.59 1627.52 2339.87 1858.07 2265.99 1945.05 2245.23 1969.48 2216.75 1980.68 2182.81 1977.74L2162.84 1921.4C2257.48 1948.03 2281.22 1820.16 2215.86 1635.8 2196.59 1581.45 2170.8 1526.01 2140.73 1474.28Z" fill="#ADB0A1" fill-rule="evenodd"/><path d="M0 157.408 52.5713 0 180.365 0 232.936 157.408Z" fill="#ADB0A1" fill-rule="evenodd" transform="matrix(0.554036 -0.832493 -0.832493 -0.554036 1870.01 2117.75)"/><path d="M75.8233 94.2738C199.774-10.9227 431.991-31.1548 594.495 49.084 664.661 83.7298 713.392 133.467 731.898 189.324L673.592 197.418C633.588 99.8908 465.264 39.6965 297.63 62.9701 233.066 71.9338 175.097 92.6413 132.147 122.084Z" fill="#ADB0A1" fill-rule="evenodd" transform="matrix(-0.417076 0.908872 0.908872 0.417076 1934.04 1234.15)"/><path d="M1985.4 1964.37 1826.7 2012.92 1752.86 1909.31 1850.53 1775.14Z" fill="#ADB0A1" fill-rule="evenodd"/><path d="M1556.98 1279.46C1465.58 1031.96 1604.38 761.499 1867.01 675.363 2129.63 589.227 2416.63 720.038 2508.03 967.537 2545.29 1068.45 2545.33 1178.25 2508.13 1279.18Z" fill="#C8CFE2" fill-rule="evenodd"/><path d="M1920.56 979.142C1880.04 1034.35 1800.61 1044.86 1743.15 1002.62 1685.68 960.379 1671.95 881.38 1712.46 826.172 1712.77 825.761 1713.07 825.351 1713.38 824.943L1816.51 902.657Z" stroke="#404040" stroke-width="4.58333" stroke-miterlimit="8" fill="#FFFFFF" fill-rule="evenodd"/><path d="M2344.55 831.542C2385.77 886.227 2372.99 965.325 2316.01 1008.21 2259.03 1051.1 2179.42 1041.54 2138.19 986.853 2137.89 986.445 2137.58 986.035 2137.28 985.623L2241.37 909.197Z" stroke="#404040" stroke-width="4.58333" stroke-miterlimit="8" fill="#FFFFFF" fill-rule="evenodd"/><path d="M1845.51 1219.41C1844.54 1148.45 1914.94 1090.29 2002.75 1089.51 2090.56 1088.73 2162.53 1145.62 2163.49 1216.59 2163.5 1217.22 2163.5 1217.85 2163.5 1218.47L2004.5 1218Z" stroke="#404040" stroke-width="4.58333" stroke-miterlimit="8" fill="#FFFFFF" fill-rule="evenodd"/><path d="M1728.5 954.5C1728.5 925.229 1752.9 901.5 1783 901.5 1813.1 901.5 1837.5 925.229 1837.5 954.5 1837.5 983.771 1813.1 1007.5 1783 1007.5 1752.9 1007.5 1728.5 983.771 1728.5 954.5Z" stroke="#404040" stroke-width="4.58333" stroke-miterlimit="8" fill="#0D0D0D" fill-rule="evenodd"/><path d="M2202.5 970.5C2202.5 941.229 2226.9 917.5 2257 917.5 2287.1 917.5 2311.5 941.229 2311.5 970.5 2311.5 999.771 2287.1 1023.5 2257 1023.5 2226.9 1023.5 2202.5 999.771 2202.5 970.5Z" stroke="#404040" stroke-width="4.58333" stroke-miterlimit="8" fill="#0D0D0D" fill-rule="evenodd"/><path d="M2010.74 1273.5C2059.18 1511.75 2017.98 1799.13 1918.71 1915.38 1894.93 1943.23 1869.08 1959.48 1842.67 1963.18L1841.3 1906.97C1920.66 1890.23 1980.38 1687.28 1974.69 1453.67 1973.63 1410.29 1970.32 1367.65 1964.86 1327.24Z" fill="#ADB0A1" fill-rule="evenodd"/></g></svg>