<svg width="1594" height="2113" xmlns="http://www.w3.org/2000/svg" xmlns:xlink="http://www.w3.org/1999/xlink" xml:space="preserve" overflow="hidden"><g transform="translate(-1200 -226)"><path d="M2162 2339 2162 2159 2535 2339Z" fill="#29232D" fill-rule="evenodd"/><rect x="0" y="0" width="193" height="154" fill="#29232D" transform="matrix(-1 0 0 1 2355 2150)"/><path d="M0 179 0 0 373 179Z" fill="#29232D" fill-rule="evenodd" transform="matrix(-1 0 0 1 1993 2147)"/><path d="M2055.66 1406.54 2255.77 1374.33 2331.21 1843.06 2131.1 1875.27Z" fill="#9994A3" fill-rule="evenodd"/><path d="M1883.13 1379.3 2083.4 1410.45 2013.53 1859.66 1813.26 1828.51Z" fill="#9994A3" fill-rule="evenodd"/><path d="M1886 541C1886 428.334 1977.33 337 2090 337 2202.67 337 2294 428.334 2294 541 2294 653.666 2202.67 745 2090 745 1977.33 745 1886 653.666 1886 541Z" fill="#DBAFAD" fill-rule="evenodd"/><path d="M1784.33 396.05 2036.14 226.889 2128.79 364.804 1876.98 533.965Z" fill="#5B535E" fill-rule="evenodd"/><path d="M1819.74 1205.02 1691.64 1164.11 1831.29 726.826 1959.39 767.735Z" fill="#1B1A23" fill-rule="evenodd"/><path d="M2126.82 226.888 2384.12 387.566 2296.12 528.492 2038.82 367.814Z" fill="#5B535E" fill-rule="evenodd"/><path d="M2500.07 1095.79 2390.61 1156.2 2196.51 804.554 2305.97 744.137Z" fill="#1B1A23" fill-rule="evenodd"/><rect x="1858" y="745" width="436" height="672" fill="#1B1A23"/><rect x="1907" y="750" width="51.9999" height="667" fill="#D8D9E6"/><rect x="2192" y="750" width="50.9998" height="667" fill="#D8D9E6"/><rect x="1800" y="2138" width="193" height="154" fill="#29232D"/><path d="M1475.79 1020.6 1548.08 935.51 1821.4 1167.72 1749.11 1252.81Z" fill="#1B1A23" fill-rule="evenodd"/><path d="M1823.42 1734.58 2019.9 1746.14 1993.2 2199.96 1796.72 2188.4Z" fill="#9994A3" fill-rule="evenodd"/><path d="M2133 1804.39 2320.83 1788.26 2355.54 2192.49 2167.71 2208.61Z" fill="#9994A3" fill-rule="evenodd"/><path d="M2724.68 1224.31 2665.18 1318.8 2402.12 1153.16 2461.62 1058.67Z" fill="#1B1A23" fill-rule="evenodd"/><path d="M1401.28 953.8C1395.72 912.823 1421.77 875.456 1459.47 870.339 1497.16 865.222 1532.23 894.292 1537.79 935.269 1543.36 976.246 1517.31 1013.61 1479.61 1018.73 1441.91 1023.85 1406.85 994.777 1401.28 953.8Z" fill="#DBAFAD" fill-rule="evenodd"/><path d="M2656.42 1305.11C2650.86 1264.13 2676.91 1226.76 2714.6 1221.64 2752.3 1216.53 2787.37 1245.6 2792.93 1286.58 2798.49 1327.55 2772.44 1364.92 2734.75 1370.04 2697.05 1375.15 2661.98 1346.08 2656.42 1305.11Z" fill="#DBAFAD" fill-rule="evenodd"/><path d="M1200 799C1200 710.082 1270.07 638 1356.5 638 1442.93 638 1513 710.082 1513 799 1513 887.918 1442.93 960 1356.5 960 1270.07 960 1200 887.918 1200 799Z" fill="#DF8D74" fill-rule="evenodd"/></g></svg>