<svg width="1957" height="2113" xmlns="http://www.w3.org/2000/svg" xmlns:xlink="http://www.w3.org/1999/xlink" xml:space="preserve" overflow="hidden"><g transform="translate(-948 -226)"><path d="M2162 2339 2162 2159 2535 2339Z" fill="#29232D" fill-rule="evenodd"/><rect x="0" y="0" width="193" height="154" fill="#29232D" transform="matrix(-1 0 0 1 2355 2150)"/><path d="M0 179 0 0 373 179Z" fill="#29232D" fill-rule="evenodd" transform="matrix(-1 0 0 1 1993 2147)"/><path d="M2055.66 1406.54 2255.77 1374.33 2331.21 1843.06 2131.1 1875.27Z" fill="#9994A3" fill-rule="evenodd"/><path d="M1883.13 1379.3 2083.4 1410.45 2013.53 1859.66 1813.26 1828.51Z" fill="#9994A3" fill-rule="evenodd"/><path d="M1886 541C1886 428.334 1977.33 337 2090 337 2202.67 337 2294 428.334 2294 541 2294 653.666 2202.67 745 2090 745 1977.33 745 1886 653.666 1886 541Z" fill="#DBAFAD" fill-rule="evenodd"/><path d="M1784.33 396.05 2036.14 226.889 2128.79 364.804 1876.98 533.965Z" fill="#5B535E" fill-rule="evenodd"/><path d="M1600.79 1177.6 1507.32 1080.93 1837.31 761.832 1930.79 858.503Z" fill="#1B1A23" fill-rule="evenodd"/><path d="M2126.82 226.888 2384.12 387.566 2296.12 528.492 2038.82 367.814Z" fill="#5B535E" fill-rule="evenodd"/><path d="M2565.71 1050.73 2471.77 1133.23 2206.71 831.448 2300.65 748.943Z" fill="#1B1A23" fill-rule="evenodd"/><rect x="1858" y="745" width="436" height="672" fill="#1B1A23"/><rect x="1907" y="750" width="51.9999" height="667" fill="#D8D9E6"/><rect x="2192" y="750" width="50.9998" height="667" fill="#D8D9E6"/><path d="M948 737C948 648.082 1018.07 576 1104.5 576 1190.93 576 1261 648.082 1261 737 1261 825.918 1190.93 898 1104.5 898 1018.07 898 948 825.918 948 737Z" fill="#DF8D74" fill-rule="evenodd"/><rect x="1800" y="2138" width="193" height="154" fill="#29232D"/><path d="M1271.11 991.996 1331.76 898.25 1632.87 1093.07 1572.22 1186.82Z" fill="#1B1A23" fill-rule="evenodd"/><path d="M1823.42 1734.58 2019.9 1746.14 1993.2 2199.96 1796.72 2188.4Z" fill="#9994A3" fill-rule="evenodd"/><path d="M2133 1804.39 2320.83 1788.26 2355.54 2192.49 2167.71 2208.61Z" fill="#9994A3" fill-rule="evenodd"/><path d="M2795.47 1086.54 2771.78 1195.65 2467.99 1129.7 2491.68 1020.58Z" fill="#1B1A23" fill-rule="evenodd"/><path d="M1190.2 913.747C1184.64 872.769 1210.69 835.403 1248.39 830.285 1286.08 825.168 1321.15 854.239 1326.71 895.216 1332.28 936.193 1306.23 973.56 1268.53 978.677 1230.83 983.794 1195.77 954.724 1190.2 913.747Z" fill="#DBAFAD" fill-rule="evenodd"/><path d="M2767.62 1163.3C2762.05 1122.33 2788.1 1084.96 2825.8 1079.84 2863.5 1074.73 2898.56 1103.8 2904.13 1144.77 2909.69 1185.75 2883.64 1223.12 2845.94 1228.23 2808.25 1233.35 2773.18 1204.28 2767.62 1163.3Z" fill="#DBAFAD" fill-rule="evenodd"/></g></svg>