<svg width="2299" height="2113" xmlns="http://www.w3.org/2000/svg" xmlns:xlink="http://www.w3.org/1999/xlink" xml:space="preserve" overflow="hidden"><g transform="translate(-707 -226)"><path d="M2162 2339 2162 2159 2535 2339Z" fill="#29232D" fill-rule="evenodd"/><rect x="0" y="0" width="193" height="154" fill="#29232D" transform="matrix(-1 0 0 1 2355 2150)"/><path d="M0 179 0 0 373 179Z" fill="#29232D" fill-rule="evenodd" transform="matrix(-1 0 0 1 1993 2147)"/><path d="M2055.66 1406.54 2255.77 1374.33 2331.21 1843.06 2131.1 1875.27Z" fill="#9994A3" fill-rule="evenodd"/><path d="M1883.13 1379.3 2083.4 1410.45 2013.53 1859.66 1813.26 1828.51Z" fill="#9994A3" fill-rule="evenodd"/><path d="M1886 541C1886 428.334 1977.33 337 2090 337 2202.67 337 2294 428.334 2294 541 2294 653.666 2202.67 745 2090 745 1977.33 745 1886 653.666 1886 541Z" fill="#DBAFAD" fill-rule="evenodd"/><path d="M1784.33 396.05 2036.14 226.889 2128.79 364.804 1876.98 533.965Z" fill="#5B535E" fill-rule="evenodd"/><path d="M1436.14 987.943 1408.14 856.415 1857.12 760.839 1885.12 892.367Z" fill="#1B1A23" fill-rule="evenodd"/><path d="M2126.82 226.888 2384.12 387.566 2296.12 528.492 2038.82 367.814Z" fill="#5B535E" fill-rule="evenodd"/><path d="M2649.67 952.291 2587.81 1060.94 2238.76 862.205 2300.62 753.557Z" fill="#1B1A23" fill-rule="evenodd"/><rect x="1858" y="745" width="436" height="672" fill="#1B1A23"/><rect x="1907" y="750" width="51.9999" height="667" fill="#D8D9E6"/><rect x="2192" y="750" width="50.9998" height="667" fill="#D8D9E6"/><path d="M707 649.5C707 560.858 777.068 489 863.5 489 949.932 489 1020 560.858 1020 649.5 1020 738.142 949.932 810 863.5 810 777.068 810 707 738.142 707 649.5Z" fill="#DF8D74" fill-rule="evenodd"/><rect x="1800" y="2138" width="193" height="154" fill="#29232D"/><path d="M1092.08 880.19 1125.11 773.531 1467.71 879.617 1434.68 986.276Z" fill="#1B1A23" fill-rule="evenodd"/><path d="M1823.42 1734.58 2019.9 1746.14 1993.2 2199.96 1796.72 2188.4Z" fill="#9994A3" fill-rule="evenodd"/><path d="M2133 1804.39 2320.83 1788.26 2355.54 2192.49 2167.71 2208.61Z" fill="#9994A3" fill-rule="evenodd"/><path d="M2884.9 912.406 2898.44 1023.24 2589.88 1060.94 2576.33 950.109Z" fill="#1B1A23" fill-rule="evenodd"/><path d="M986.712 794.702C981.149 753.725 1007.2 716.358 1044.89 711.241 1082.59 706.124 1117.66 735.194 1123.22 776.171 1128.78 817.148 1102.73 854.515 1065.04 859.632 1027.34 864.75 992.274 835.679 986.712 794.702Z" fill="#DBAFAD" fill-rule="evenodd"/><path d="M2868.28 976.861C2862.71 935.883 2888.76 898.516 2926.46 893.399 2964.16 888.282 2999.22 917.353 3004.79 958.33 3010.35 999.307 2984.3 1036.67 2946.6 1041.79 2908.91 1046.91 2873.84 1017.84 2868.28 976.861Z" fill="#DBAFAD" fill-rule="evenodd"/></g></svg>