<svg width="2439" height="2113" xmlns="http://www.w3.org/2000/svg" xmlns:xlink="http://www.w3.org/1999/xlink" xml:space="preserve" overflow="hidden"><defs><clipPath id="clip0"><rect x="604" y="226" width="2439" height="2113"/></clipPath></defs><g clip-path="url(#clip0)" transform="translate(-604 -226)"><path d="M2162 2339 2162 2159 2535 2339Z" fill="#29232D" fill-rule="evenodd"/><rect x="0" y="0" width="193" height="154" fill="#29232D" transform="matrix(-1 0 0 1 2355 2150)"/><path d="M0 179 0 0 373 179Z" fill="#29232D" fill-rule="evenodd" transform="matrix(-1 0 0 1 1993 2147)"/><path d="M2055.66 1406.54 2255.77 1374.33 2331.21 1843.06 2131.1 1875.27Z" fill="#9994A3" fill-rule="evenodd"/><path d="M1883.13 1379.3 2083.4 1410.45 2013.53 1859.66 1813.26 1828.51Z" fill="#9994A3" fill-rule="evenodd"/><path d="M1886 541C1886 428.334 1977.33 337 2090 337 2202.67 337 2294 428.334 2294 541 2294 653.666 2202.67 745 2090 745 1977.33 745 1886 653.666 1886 541Z" fill="#DBAFAD" fill-rule="evenodd"/><path d="M1784.33 396.05 2036.14 226.889 2128.79 364.804 1876.98 533.965Z" fill="#5B535E" fill-rule="evenodd"/><path d="M1410.42 790.538 1438.95 659.125 1887.54 756.523 1859.01 887.936Z" fill="#1B1A23" fill-rule="evenodd"/><path d="M2126.82 226.888 2384.12 387.566 2296.12 528.492 2038.82 367.814Z" fill="#5B535E" fill-rule="evenodd"/><path d="M2706.2 820.188 2687.02 954.709 2278.55 896.473 2297.73 761.952Z" fill="#1B1A23" fill-rule="evenodd"/><rect x="1858" y="745" width="436" height="672" fill="#1B1A23"/><rect x="1907" y="750" width="51.9999" height="667" fill="#D8D9E6"/><rect x="2192" y="750" width="50.9998" height="667" fill="#D8D9E6"/><path d="M604 600C604 511.082 674.067 439 760.5 439 846.933 439 917 511.082 917 600 917 688.918 846.933 761 760.5 761 674.067 761 604 688.918 604 600Z" fill="#DF8D74" fill-rule="evenodd"/><rect x="1800" y="2138" width="193" height="154" fill="#29232D"/><path d="M1081.39 674.466 1114.42 567.807 1457.01 673.893 1423.99 780.552Z" fill="#1B1A23" fill-rule="evenodd"/><path d="M1823.42 1734.58 2019.9 1746.14 1993.2 2199.96 1796.72 2188.4Z" fill="#9994A3" fill-rule="evenodd"/><path d="M2133 1804.39 2320.83 1788.26 2355.54 2192.49 2167.71 2208.61Z" fill="#9994A3" fill-rule="evenodd"/><path d="M973.683 608.282C968.12 567.305 994.17 529.938 1031.87 524.821 1069.56 519.704 1104.63 548.774 1110.19 589.751 1115.76 630.728 1089.71 668.095 1052.01 673.212 1014.31 678.33 979.245 649.259 973.683 608.282Z" fill="#DBAFAD" fill-rule="evenodd"/><path d="M2893.72 726.042 2939.01 828.103 2654.86 954.176 2609.57 852.115Z" fill="#1B1A23" fill-rule="evenodd"/><path d="M2910.21 788.293C2892.94 750.721 2906.95 707.38 2941.52 691.49 2976.08 675.599 3018.1 693.176 3035.38 730.748 3052.65 768.321 3038.63 811.661 3004.07 827.552 2969.51 843.442 2927.48 825.866 2910.21 788.293Z" fill="#DBAFAD" fill-rule="evenodd"/></g></svg>