<svg width="2442" height="2113" xmlns="http://www.w3.org/2000/svg" xmlns:xlink="http://www.w3.org/1999/xlink" xml:space="preserve" overflow="hidden"><defs><clipPath id="clip0"><rect x="482" y="226" width="2442" height="2113"/></clipPath></defs><g clip-path="url(#clip0)" transform="translate(-482 -226)"><path d="M2162 2339 2162 2159 2535 2339Z" fill="#29232D" fill-rule="evenodd"/><rect x="0" y="0" width="193" height="154" fill="#29232D" transform="matrix(-1 0 0 1 2355 2150)"/><path d="M0 179 0 0 373 179Z" fill="#29232D" fill-rule="evenodd" transform="matrix(-1 0 0 1 1993 2147)"/><path d="M2055.66 1406.54 2255.77 1374.33 2331.21 1843.06 2131.1 1875.27Z" fill="#9994A3" fill-rule="evenodd"/><path d="M1883.13 1379.3 2083.4 1410.45 2013.53 1859.66 1813.26 1828.51Z" fill="#9994A3" fill-rule="evenodd"/><path d="M1886 541C1886 428.334 1977.33 337 2090 337 2202.67 337 2294 428.334 2294 541 2294 653.666 2202.67 745 2090 745 1977.33 745 1886 653.666 1886 541Z" fill="#DBAFAD" fill-rule="evenodd"/><path d="M1784.33 396.05 2036.14 226.889 2128.79 364.804 1876.98 533.965Z" fill="#5B535E" fill-rule="evenodd"/><path d="M1469.5 749.743 1525.67 610.218 1907.26 763.856 1851.09 903.381Z" fill="#1B1A23" fill-rule="evenodd"/><path d="M2126.82 226.888 2384.12 387.566 2296.12 528.492 2038.82 367.814Z" fill="#5B535E" fill-rule="evenodd"/><rect x="2274" y="748" width="374" height="136" fill="#1B1A23"/><rect x="1858" y="745" width="436" height="672" fill="#1B1A23"/><rect x="1907" y="750" width="51.9999" height="667" fill="#D8D9E6"/><rect x="2192" y="750" width="50.9998" height="667" fill="#D8D9E6"/><path d="M482 478C482 389.082 552.067 317 638.5 317 724.933 317 795 389.082 795 478 795 566.918 724.933 639 638.5 639 552.067 639 482 566.918 482 478Z" fill="#DF8D74" fill-rule="evenodd"/><rect x="1800" y="2138" width="193" height="154" fill="#29232D"/><path d="M1823.42 1734.58 2019.9 1746.14 1993.2 2199.96 1796.72 2188.4Z" fill="#9994A3" fill-rule="evenodd"/><path d="M2133 1804.39 2320.83 1788.26 2355.54 2192.49 2167.71 2208.61Z" fill="#9994A3" fill-rule="evenodd"/><path d="M1307.29 446.99 1407.79 398.335 1564.07 721.137 1463.57 769.792Z" fill="#1B1A23" fill-rule="evenodd"/><path d="M1282.15 323.097C1308.31 291.065 1353.4 284.601 1382.86 308.661 1412.33 332.72 1415.02 378.191 1388.86 410.223 1362.71 442.256 1317.62 448.719 1288.15 424.66 1258.69 400.601 1256 355.13 1282.15 323.097Z" fill="#DBAFAD" fill-rule="evenodd"/><path d="M2765.49 584.979 2849.68 658.315 2645.51 892.724 2561.31 819.388Z" fill="#1B1A23" fill-rule="evenodd"/><path d="M2806.75 634.418C2775.21 607.676 2769.58 562.474 2794.18 533.458 2818.79 504.441 2864.3 502.598 2895.84 529.34 2927.38 556.083 2933.01 601.284 2908.41 630.301 2883.81 659.318 2838.29 661.161 2806.75 634.418Z" fill="#DBAFAD" fill-rule="evenodd"/></g></svg>