<svg width="861" height="1077" xmlns="http://www.w3.org/2000/svg" xmlns:xlink="http://www.w3.org/1999/xlink" xml:space="preserve" overflow="hidden"><defs><clipPath id="clip0"><rect x="2249" y="854" width="861" height="1077"/></clipPath></defs><g clip-path="url(#clip0)" transform="translate(-2249 -854)"><path d="M2468 1732C2468.71 1745.01 2470.89 1752.42 2472.83 1756.83 2476.72 1765.71 2477.57 1768.06 2479.26 1772.76 2479.69 1773.95 2480.02 1774.9 2480.25 1775.58 2482.73 1782.71 2482.82 1784.09 2487.77 1801.05 2495.72 1828.28 2496.37 1827.69 2498.29 1837.02 2500.94 1849.84 2499.58 1850.17 2502.8 1868.47 2505.77 1885.4 2507.36 1893.97 2511.81 1899.93 2512.96 1901.45 2524.34 1916.21 2540.4 1914.92 2550.95 1914.07 2557.96 1906.71 2562.97 1901.42 2566.01 1898.26 2568.36 1895 2579.53 1871.47 2585.99 1857.88 2589.26 1850.93 2591.59 1844.5 2592.82 1841.1 2593.65 1838.37 2594.27 1835.99 2596.88 1825.97 2598.83 1818.73 2599.1 1817.54 2600.71 1810.54 2606.69 1797.15 2625 1769.46 2599.42 1762.83 2573.34 1756.32 2546.75 1749.98 2520.12 1743.62 2493.86 1737.64 2468 1732Z" stroke="#000000" stroke-width="17.6094" stroke-miterlimit="8" fill="#EBE2B3" fill-rule="evenodd"/><path d="M2773 1783.9C2779.52 1798.67 2786.05 1815.46 2791.98 1834.16 2797.82 1852.62 2802.13 1869.91 2805.32 1885.65 2821.67 1925.65 2864.73 1915.8 2869.9 1873.69 2875.89 1855.17 2881.68 1835.42 2887.02 1814.49 2891.83 1795.65 2895.9 1777.48 2899.33 1760.13 2899.81 1756.18 2900.09 1751.81 2899.98 1747.08 2899.65 1732.86 2895.98 1721.19 2892.49 1713 2852.66 1736.63 2812.83 1760.26 2773 1783.9Z" stroke="#000000" stroke-width="17.6094" stroke-miterlimit="8" fill="#EBE2B3" fill-rule="evenodd"/><path d="M2292.5 1399.86C2290.44 1391.6 2288.06 1379.11 2288 1363.84 2287.94 1347.59 2290.59 1343.13 2291 1329.35 2291.82 1302.06 2282.03 1300.5 2282 1276.85 2282 1248.76 2295.7 1226.73 2300.03 1219.85 2309.85 1204.14 2313.76 1206.37 2325.55 1188.36 2336.52 1171.62 2341.58 1156.81 2346.57 1141.86 2355.25 1115.91 2353.19 1110.71 2360.1 1086.36 2364.98 1069.14 2371.19 1047.2 2385.62 1024.84 2395.03 1010.27 2410.91 996.139 2442.67 967.847 2463.08 949.662 2477.78 937.94 2489.22 928.833 2524.09 901.1 2535.56 895.166 2540.27 892.815 2556.76 884.648 2571.61 877.274 2591.31 877.803 2601.22 878.067 2616.84 879.037 2633.63 878.89 2636.01 878.86 2641.39 878.89 2648.39 878.449 2651.39 878.244 2656.42 877.862 2662.47 877.039 2672.77 875.658 2680.5 873.837 2682.88 873.279 2717.23 865.346 2734.58 860.558 2750.45 864.289 2769.54 868.754 2782.36 879.801 2794 889.789 2801.38 896.135 2811.53 909.12 2831.55 934.797 2853.81 963.382 2858.96 971.05 2872.1 981.303 2885.25 991.556 2886.9 989.147 2896.13 997.813 2908.42 1009.33 2913.04 1020.64 2924.65 1047.32 2946.85 1098.32 2945.03 1091.65 2947.18 1098.32 2949.35 1105.16 2950.59 1111.89 2953.38 1125.29 2956.91 1142.24 2957.94 1150.4 2962.2 1174.85 2965.52 1193.83 2967.08 1203.34 2968.2 1207.84 2975.73 1238.3 2987.05 1258.99 2990.72 1266.33 3007.93 1300.65 3006.19 1341.22 3002.75 1422.36 3000.66 1471.57 2999.52 1498.3 2987.73 1533.38 2981.64 1551.48 2978.85 1553.56 2963.7 1594.9 2950.88 1629.86 2948.76 1639.61 2938.18 1663.91 2926.42 1690.94 2920.53 1704.45 2908.16 1719.4 2902.92 1725.75 2890.72 1739.38 2858.61 1758.42 2831.91 1774.25 2801.86 1792.06 2758.01 1800.43 2694.79 1812.5 2641.98 1797.52 2621.37 1791.44 2608.52 1787.65 2604.16 1785.36 2579.32 1777.93 2567.37 1774.35 2557.86 1771.74 2549.78 1769.65 2517.84 1761.38 2515.47 1762 2499.75 1756.92 2490 1753.77 2483.45 1751.06 2471.64 1746.14 2449.02 1736.72 2429.25 1728.49 2414.15 1719.4 2376.78 1696.93 2357.47 1662.99 2349.57 1648.9 2343.69 1638.41 2335.64 1614.41 2319.55 1566.37 2308.94 1534.67 2303.55 1518.6 2301.53 1507.88 2297.58 1487.11 2296.38 1467.31 2294.03 1428.38 2293.26 1416.31 2292.79 1406.41 2292.5 1399.86Z" stroke="#000000" stroke-width="17.6094" stroke-miterlimit="8" fill="#EBE2B3" fill-rule="evenodd"/><path d="M2502.13 995.746 2513.37 974.523 2614.19 1027.93 2602.95 1049.15Z" stroke="#000000" stroke-width="8.80541" stroke-miterlimit="8" fill="#595850" fill-rule="evenodd"/><path d="M2719.04 1023.22 2821.84 973.746 2832.25 995.386 2729.45 1044.86Z" stroke="#000000" stroke-width="8.80541" stroke-miterlimit="8" fill="#595850" fill-rule="evenodd"/><path d="M2892 1923C2892 1927.42 2802.46 1931 2692 1931 2581.54 1931 2492 1927.42 2492 1923 2492 1918.58 2581.54 1915 2692 1915 2802.46 1915 2892 1918.58 2892 1923Z" fill="#5B5742" fill-rule="evenodd" fill-opacity="0.470588"/><path d="M2587 1100.5C2587 1120.11 2570.88 1136 2551 1136 2531.12 1136 2515 1120.11 2515 1100.5 2515 1080.89 2531.12 1065 2551 1065 2570.88 1065 2587 1080.89 2587 1100.5Z" stroke="#000000" stroke-width="17.6094" stroke-miterlimit="8" fill="#231815" fill-rule="evenodd"/><path d="M2821 1100.5C2821 1120.11 2805.11 1136 2785.5 1136 2765.89 1136 2750 1120.11 2750 1100.5 2750 1080.89 2765.89 1065 2785.5 1065 2805.11 1065 2821 1080.89 2821 1100.5Z" stroke="#000000" stroke-width="17.6094" stroke-miterlimit="8" fill="#231815" fill-rule="evenodd"/><path d="M2572 1112.5C2572 1122.17 2564.39 1130 2555 1130 2545.61 1130 2538 1122.17 2538 1112.5 2538 1102.84 2545.61 1095 2555 1095 2564.39 1095 2572 1102.84 2572 1112.5Z" fill="#FFFFFF" fill-rule="evenodd"/><path d="M2803 1112.5C2803 1122.17 2795.17 1130 2785.5 1130 2775.83 1130 2768 1122.17 2768 1112.5 2768 1102.84 2775.83 1095 2785.5 1095 2795.17 1095 2803 1102.84 2803 1112.5Z" fill="#FFFFFF" fill-rule="evenodd"/><path d="M2739.5 1211.5C2739.5 1221.99 2710.85 1230.5 2675.5 1230.5 2640.15 1230.5 2611.5 1221.99 2611.5 1211.5 2611.5 1201.01 2640.15 1192.5 2675.5 1192.5 2710.85 1192.5 2739.5 1201.01 2739.5 1211.5Z" stroke="#000000" stroke-width="8.80469" stroke-miterlimit="8" fill="#E73A8F" fill-rule="evenodd"/><path d="M3074.24 1580.55 2294.21 1607.98C2278.88 1608.52 2266.02 1596.5 2265.49 1581.15L2258.02 1368.25C2257.48 1352.88 2269.48 1339.99 2284.78 1339.45L3064.79 1312.02C3080.12 1311.48 3092.97 1323.5 3093.51 1338.85L3100.98 1551.75C3101.55 1567.1 3089.55 1580.01 3074.24 1580.55L3074.24 1580.55Z" stroke="#000000" stroke-width="17.6094" stroke-miterlimit="8" fill="#A6A897" fill-rule="evenodd"/><path d="M2495.74 1397.62 2470.26 1398.5C2466.38 1398.63 2463.15 1395.66 2462.98 1391.84L2462.5 1378.54C2462.37 1374.73 2465.38 1371.54 2469.26 1371.38L2494.75 1370.5C2498.62 1370.37 2501.85 1373.34 2502.02 1377.16L2502.5 1390.46C2502.63 1394.3 2499.61 1397.49 2495.74 1397.62Z" stroke="#000000" stroke-width="2.93478" stroke-miterlimit="8" fill="#D6DBD9" fill-rule="evenodd"/><path d="M2613.91 1393.63 2589.06 1394.5C2585.29 1394.63 2582.13 1391.66 2581.97 1387.84L2581.5 1374.54C2581.37 1370.73 2584.31 1367.54 2588.09 1367.38L2612.94 1366.5C2616.71 1366.37 2619.87 1369.34 2620.03 1373.16L2620.5 1386.46C2620.62 1390.27 2617.68 1393.49 2613.91 1393.63Z" stroke="#000000" stroke-width="2.93478" stroke-miterlimit="8" fill="#D6DBD9" fill-rule="evenodd"/><path d="M2334.91 1403.63 2310.06 1404.5C2306.29 1404.63 2303.13 1401.66 2302.97 1397.84L2302.5 1384.54C2302.37 1380.73 2305.31 1377.54 2309.09 1377.37L2333.94 1376.5C2337.71 1376.37 2340.87 1379.34 2341.03 1383.16L2341.49 1396.46C2341.65 1400.28 2338.68 1403.49 2334.91 1403.63Z" stroke="#000000" stroke-width="2.93478" stroke-miterlimit="8" fill="#D6DBD9" fill-rule="evenodd"/><path d="M2387.91 1401.62 2363.06 1402.5C2359.28 1402.63 2356.13 1399.66 2355.97 1395.84L2355.5 1382.54C2355.37 1378.73 2358.31 1375.54 2362.09 1375.38L2386.94 1374.5C2390.71 1374.37 2393.87 1377.34 2394.03 1381.16L2394.49 1394.46C2394.65 1398.31 2391.68 1401.49 2387.91 1401.62Z" stroke="#000000" stroke-width="2.93478" stroke-miterlimit="8" fill="#D6DBD9" fill-rule="evenodd"/><path d="M2821.91 1386.62 2797.06 1387.5C2793.29 1387.63 2790.13 1384.66 2789.97 1380.84L2789.5 1367.54C2789.37 1363.73 2792.31 1360.54 2796.09 1360.37L2820.94 1359.5C2824.71 1359.37 2827.87 1362.34 2828.03 1366.16L2828.49 1379.46C2828.65 1383.28 2825.69 1386.46 2821.91 1386.62Z" stroke="#000000" stroke-width="2.93478" stroke-miterlimit="8" fill="#D6DBD9" fill-rule="evenodd"/><path d="M2441.91 1399.62 2417.06 1400.5C2413.29 1400.63 2410.13 1397.66 2409.97 1393.84L2409.5 1380.54C2409.37 1376.73 2412.31 1373.54 2416.09 1373.38L2440.94 1372.5C2444.71 1372.37 2447.87 1375.34 2448.03 1379.16L2448.49 1392.46C2448.65 1396.28 2445.68 1399.5 2441.91 1399.62Z" stroke="#000000" stroke-width="2.93478" stroke-miterlimit="8" fill="#D6DBD9" fill-rule="evenodd"/><path d="M2667.74 1391.63 2642.26 1392.5C2638.38 1392.63 2635.15 1389.66 2634.98 1385.84L2634.5 1372.54C2634.37 1368.73 2637.38 1365.54 2641.26 1365.37L2666.74 1364.5C2670.62 1364.37 2673.85 1367.34 2674.02 1371.16L2674.5 1384.46C2674.63 1388.27 2671.61 1391.49 2667.74 1391.63Z" stroke="#000000" stroke-width="2.93478" stroke-miterlimit="8" fill="#D6DBD9" fill-rule="evenodd"/><path d="M2718.91 1389.62 2694.06 1390.5C2690.29 1390.63 2687.13 1387.66 2686.97 1383.84L2686.5 1370.54C2686.37 1366.73 2689.31 1363.54 2693.09 1363.38L2717.94 1362.5C2721.72 1362.37 2724.87 1365.34 2725.03 1369.16L2725.5 1382.46C2725.62 1386.3 2722.69 1389.49 2718.91 1389.62Z" stroke="#000000" stroke-width="2.93478" stroke-miterlimit="8" fill="#D6DBD9" fill-rule="evenodd"/><path d="M2770.74 1388.62 2745.26 1389.5C2741.38 1389.63 2738.15 1386.66 2737.98 1382.84L2737.5 1369.54C2737.37 1365.73 2740.38 1362.54 2744.26 1362.38L2769.74 1361.5C2773.62 1361.37 2776.85 1364.34 2777.02 1368.16L2777.49 1381.46C2777.66 1385.28 2774.61 1388.49 2770.74 1388.62Z" stroke="#000000" stroke-width="2.93478" stroke-miterlimit="8" fill="#D6DBD9" fill-rule="evenodd"/><path d="M2554.91 1395.63 2530.06 1396.5C2526.29 1396.63 2523.13 1393.66 2522.97 1389.84L2522.5 1376.54C2522.37 1372.73 2525.31 1369.54 2529.09 1369.38L2553.94 1368.5C2557.71 1368.37 2560.87 1371.34 2561.03 1375.16L2561.49 1388.46C2561.65 1392.31 2558.68 1395.49 2554.91 1395.63Z" stroke="#000000" stroke-width="2.93478" stroke-miterlimit="8" fill="#D6DBD9" fill-rule="evenodd"/><path d="M2881.74 1382.63 2856.26 1383.5C2852.38 1383.63 2849.15 1380.66 2848.98 1376.84L2848.5 1363.54C2848.37 1359.73 2851.38 1356.54 2855.26 1356.37L2880.74 1355.5C2884.62 1355.37 2887.85 1358.34 2888.02 1362.16L2888.49 1375.46C2888.66 1379.28 2885.61 1382.49 2881.74 1382.63Z" stroke="#000000" stroke-width="2.93478" stroke-miterlimit="8" fill="#D6DBD9" fill-rule="evenodd"/><path d="M2360.88 1441.71 2310.09 1443.5C2306.3 1443.63 2303.13 1440.65 2302.97 1436.82L2302.5 1423.48C2302.37 1419.65 2305.32 1416.46 2309.12 1416.29L2359.91 1414.5C2363.7 1414.37 2366.87 1417.35 2367.03 1421.18L2367.49 1434.52C2367.65 1438.38 2364.67 1441.57 2360.88 1441.71Z" stroke="#000000" stroke-width="2.93478" stroke-miterlimit="8" fill="#D6DBD9" fill-rule="evenodd"/><path d="M2403.99 1440.02 2390.97 1440.5C2387.24 1440.63 2384.12 1437.62 2383.96 1433.75L2383.5 1420.25C2383.37 1416.38 2386.28 1413.15 2390.01 1412.98L2403.03 1412.5C2406.76 1412.37 2409.88 1415.38 2410.04 1419.26L2410.5 1432.75C2410.62 1436.65 2407.72 1439.89 2403.99 1440.02Z" stroke="#000000" stroke-width="2.93478" stroke-miterlimit="8" fill="#D6DBD9" fill-rule="evenodd"/><path d="M2442.74 1438.04 2429.25 1438.5C2425.38 1438.63 2422.15 1435.72 2421.98 1431.99L2421.5 1418.97C2421.37 1415.24 2424.38 1412.12 2428.25 1411.96L2441.75 1411.5C2445.62 1411.37 2448.85 1414.28 2449.02 1418.01L2449.49 1431.03C2449.66 1434.76 2446.61 1437.91 2442.74 1438.04Z" stroke="#000000" stroke-width="2.93478" stroke-miterlimit="8" fill="#D6DBD9" fill-rule="evenodd"/><path d="M2483.99 1437.02 2470.97 1437.5C2467.24 1437.63 2464.12 1434.62 2463.96 1430.74L2463.5 1417.25C2463.37 1413.38 2466.28 1410.15 2470.01 1409.98L2483.03 1409.5C2486.76 1409.37 2489.88 1412.38 2490.04 1416.25L2490.49 1429.75C2490.65 1433.62 2487.72 1436.88 2483.99 1437.02Z" stroke="#000000" stroke-width="2.93478" stroke-miterlimit="8" fill="#D6DBD9" fill-rule="evenodd"/><path d="M2522.75 1436.02 2509.25 1436.5C2505.38 1436.63 2502.15 1433.62 2501.98 1429.75L2501.5 1416.25C2501.37 1412.38 2504.38 1409.15 2508.26 1408.98L2521.75 1408.5C2525.62 1408.37 2528.86 1411.38 2529.02 1415.26L2529.5 1428.75C2529.63 1432.65 2526.62 1435.89 2522.75 1436.02L2522.75 1436.02Z" stroke="#000000" stroke-width="2.93478" stroke-miterlimit="8" fill="#D6DBD9" fill-rule="evenodd"/><path d="M2568.98 1434.04 2555.97 1434.5C2552.24 1434.63 2549.12 1431.72 2548.96 1427.99L2548.5 1414.97C2548.37 1411.24 2551.28 1408.12 2555.01 1407.96L2568.03 1407.5C2571.76 1407.37 2574.88 1410.28 2575.03 1414.01L2575.49 1427.03C2575.65 1430.76 2572.72 1433.91 2568.98 1434.04Z" stroke="#000000" stroke-width="2.93478" stroke-miterlimit="8" fill="#D6DBD9" fill-rule="evenodd"/><path d="M2607.99 1433.04 2594.97 1433.5C2591.24 1433.63 2588.12 1430.72 2587.96 1426.99L2587.5 1413.97C2587.37 1410.24 2590.28 1407.12 2594.01 1406.96L2607.03 1406.5C2610.76 1406.37 2613.88 1409.28 2614.04 1413.01L2614.49 1426.03C2614.65 1429.79 2611.71 1432.91 2607.99 1433.04Z" stroke="#000000" stroke-width="2.93478" stroke-miterlimit="8" fill="#D6DBD9" fill-rule="evenodd"/><path d="M2648.99 1432.02 2635.97 1432.5C2632.24 1432.63 2629.12 1429.62 2628.96 1425.74L2628.5 1412.25C2628.37 1408.38 2631.28 1405.15 2635.01 1404.98L2648.03 1404.5C2651.76 1404.37 2654.88 1407.38 2655.04 1411.26L2655.5 1424.75C2655.62 1428.65 2652.72 1431.89 2648.99 1432.02Z" stroke="#000000" stroke-width="2.93478" stroke-miterlimit="8" fill="#D6DBD9" fill-rule="evenodd"/><path d="M2685.75 1430.02 2672.25 1430.5C2668.38 1430.63 2665.15 1427.62 2664.98 1423.75L2664.5 1410.25C2664.37 1406.38 2667.38 1403.15 2671.26 1402.98L2684.75 1402.5C2688.62 1402.37 2691.86 1405.38 2692.02 1409.26L2692.5 1422.75C2692.63 1426.62 2689.61 1429.89 2685.75 1430.02Z" stroke="#000000" stroke-width="2.93478" stroke-miterlimit="8" fill="#D6DBD9" fill-rule="evenodd"/><path d="M2727.74 1428.04 2714.25 1428.5C2710.38 1428.63 2707.15 1425.72 2706.98 1421.99L2706.5 1408.97C2706.37 1405.24 2709.38 1402.12 2713.25 1401.96L2726.75 1401.5C2730.62 1401.37 2733.85 1404.28 2734.02 1408.01L2734.5 1421.03C2734.63 1424.76 2731.61 1427.91 2727.74 1428.04Z" stroke="#000000" stroke-width="2.93478" stroke-miterlimit="8" fill="#D6DBD9" fill-rule="evenodd"/><path d="M2765.98 1427.04 2752.97 1427.5C2749.24 1427.63 2746.12 1424.72 2745.96 1420.99L2745.5 1407.97C2745.37 1404.24 2748.28 1401.12 2752.01 1400.96L2765.03 1400.5C2768.76 1400.37 2771.88 1403.28 2772.03 1407.01L2772.49 1420.03C2772.65 1423.76 2769.72 1426.91 2765.98 1427.04Z" stroke="#000000" stroke-width="2.93478" stroke-miterlimit="8" fill="#D6DBD9" fill-rule="evenodd"/><path d="M2807.74 1426.02 2794.25 1426.5C2790.38 1426.63 2787.15 1423.62 2786.98 1419.74L2786.5 1406.25C2786.37 1402.38 2789.38 1399.15 2793.25 1398.98L2806.75 1398.5C2810.62 1398.37 2813.85 1401.38 2814.02 1405.25L2814.49 1418.75C2814.65 1422.66 2811.61 1425.88 2807.74 1426.02Z" stroke="#000000" stroke-width="2.93478" stroke-miterlimit="8" fill="#D6DBD9" fill-rule="evenodd"/><path d="M2845.99 1424.04 2832.97 1424.5C2829.24 1424.63 2826.12 1421.72 2825.96 1417.99L2825.5 1404.97C2825.37 1401.24 2828.28 1398.12 2832.01 1397.96L2845.03 1397.5C2848.76 1397.37 2851.88 1400.28 2852.04 1404.01L2852.5 1417.03C2852.62 1420.79 2849.72 1423.91 2845.99 1424.04Z" stroke="#000000" stroke-width="2.93478" stroke-miterlimit="8" fill="#D6DBD9" fill-rule="evenodd"/><path d="M2881.99 1423.04 2868.97 1423.5C2865.24 1423.63 2862.12 1420.72 2861.96 1416.99L2861.5 1403.97C2861.37 1400.24 2864.28 1397.12 2868.01 1396.96L2881.03 1396.5C2884.76 1396.37 2887.88 1399.28 2888.04 1403.01L2888.49 1416.03C2888.65 1419.79 2885.71 1422.91 2881.99 1423.04Z" stroke="#000000" stroke-width="2.93478" stroke-miterlimit="8" fill="#D6DBD9" fill-rule="evenodd"/><path d="M2459.74 1477.04 2446.25 1477.5C2442.38 1477.63 2439.15 1474.72 2438.98 1470.99L2438.5 1457.97C2438.37 1454.24 2441.38 1451.12 2445.25 1450.96L2458.75 1450.5C2462.62 1450.37 2465.85 1453.28 2466.02 1457.01L2466.5 1470.03C2466.63 1473.76 2463.61 1476.91 2459.74 1477.04Z" stroke="#000000" stroke-width="2.93478" stroke-miterlimit="8" fill="#D6DBD9" fill-rule="evenodd"/><path d="M2502.99 1476.04 2489.97 1476.5C2486.24 1476.63 2483.12 1473.72 2482.96 1469.99L2482.5 1456.97C2482.37 1453.24 2485.28 1450.12 2489.01 1449.96L2502.03 1449.5C2505.76 1449.37 2508.88 1452.28 2509.04 1456.01L2509.5 1469.03C2509.63 1472.76 2506.72 1475.91 2502.99 1476.04Z" stroke="#000000" stroke-width="2.93478" stroke-miterlimit="8" fill="#D6DBD9" fill-rule="evenodd"/><path d="M2542.99 1475.02 2529.97 1475.5C2526.24 1475.63 2523.12 1472.62 2522.96 1468.75L2522.5 1455.25C2522.37 1451.38 2525.28 1448.15 2529.01 1447.98L2542.03 1447.5C2545.76 1447.37 2548.88 1450.38 2549.04 1454.26L2549.49 1467.75C2549.65 1471.63 2546.72 1474.89 2542.99 1475.02Z" stroke="#000000" stroke-width="2.93478" stroke-miterlimit="8" fill="#D6DBD9" fill-rule="evenodd"/><path d="M2583.75 1473.04 2570.25 1473.5C2566.38 1473.63 2563.15 1470.72 2562.98 1466.99L2562.5 1453.97C2562.37 1450.24 2565.38 1447.12 2569.26 1446.96L2582.75 1446.5C2586.62 1446.37 2589.86 1449.28 2590.02 1453.01L2590.5 1466.03C2590.62 1469.79 2587.62 1472.91 2583.75 1473.04Z" stroke="#000000" stroke-width="2.93478" stroke-miterlimit="8" fill="#D6DBD9" fill-rule="evenodd"/><path d="M2625.74 1472.02 2612.25 1472.5C2608.38 1472.63 2605.15 1469.62 2604.98 1465.74L2604.5 1452.25C2604.37 1448.38 2607.38 1445.15 2611.25 1444.98L2624.75 1444.5C2628.62 1444.37 2631.85 1447.38 2632.02 1451.26L2632.49 1464.75C2632.66 1468.63 2629.61 1471.89 2625.74 1472.02Z" stroke="#000000" stroke-width="2.93478" stroke-miterlimit="8" fill="#D6DBD9" fill-rule="evenodd"/><path d="M2666.98 1470.04 2653.97 1470.5C2650.24 1470.63 2647.12 1467.72 2646.96 1463.99L2646.5 1450.97C2646.37 1447.24 2649.28 1444.12 2653.01 1443.96L2666.03 1443.5C2669.76 1443.37 2672.88 1446.28 2673.03 1450.01L2673.49 1463.03C2673.65 1466.76 2670.71 1469.91 2666.98 1470.04Z" stroke="#000000" stroke-width="2.93478" stroke-miterlimit="8" fill="#D6DBD9" fill-rule="evenodd"/><path d="M2701.74 1466.04 2688.25 1466.5C2684.38 1466.63 2681.15 1463.72 2680.98 1459.99L2680.5 1446.97C2680.37 1443.24 2683.38 1440.12 2687.25 1439.96L2700.75 1439.5C2704.62 1439.37 2707.85 1442.28 2708.02 1446.01L2708.49 1459.03C2708.65 1462.79 2705.61 1465.91 2701.74 1466.04Z" stroke="#000000" stroke-width="2.93478" stroke-miterlimit="8" fill="#D6DBD9" fill-rule="evenodd"/><path d="M2743.74 1465.02 2730.25 1465.5C2726.38 1465.63 2723.15 1462.62 2722.98 1458.74L2722.5 1445.25C2722.37 1441.38 2725.38 1438.15 2729.25 1437.98L2742.75 1437.5C2746.62 1437.37 2749.85 1440.38 2750.02 1444.26L2750.49 1457.75C2750.65 1461.66 2747.61 1464.89 2743.74 1465.02Z" stroke="#000000" stroke-width="2.93478" stroke-miterlimit="8" fill="#D6DBD9" fill-rule="evenodd"/><path d="M2782.75 1463.04 2769.25 1463.5C2765.38 1463.63 2762.15 1460.72 2761.98 1456.99L2761.5 1443.97C2761.37 1440.24 2764.38 1437.12 2768.25 1436.96L2781.75 1436.5C2785.62 1436.37 2788.86 1439.28 2789.02 1443.01L2789.5 1456.03C2789.62 1459.79 2786.61 1462.91 2782.75 1463.04Z" stroke="#000000" stroke-width="2.93478" stroke-miterlimit="8" fill="#D6DBD9" fill-rule="evenodd"/><path d="M2823.74 1462.02 2810.25 1462.5C2806.38 1462.63 2803.15 1459.62 2802.98 1455.75L2802.5 1442.25C2802.37 1438.38 2805.38 1435.15 2809.25 1434.98L2822.75 1434.5C2826.62 1434.37 2829.85 1437.38 2830.02 1441.26L2830.5 1454.75C2830.63 1458.62 2827.61 1461.89 2823.74 1462.02Z" stroke="#000000" stroke-width="2.93478" stroke-miterlimit="8" fill="#D6DBD9" fill-rule="evenodd"/><path d="M2379.84 1481.05 2311.14 1483.5C2307.33 1483.63 2304.14 1480.62 2303.97 1476.74L2303.5 1463.23C2303.37 1459.36 2306.34 1456.12 2310.16 1455.95L2378.85 1453.5C2382.67 1453.37 2385.86 1456.39 2386.02 1460.26L2386.49 1473.77C2386.65 1477.65 2383.65 1480.92 2379.84 1481.05Z" stroke="#000000" stroke-width="2.93478" stroke-miterlimit="8" fill="#D6DBD9" fill-rule="evenodd"/><path d="M2440.99 1520.02 2427.97 1520.5C2424.24 1520.63 2421.12 1517.62 2420.96 1513.74L2420.5 1500.25C2420.37 1496.38 2423.28 1493.15 2427.01 1492.98L2440.03 1492.5C2443.76 1492.37 2446.88 1495.38 2447.04 1499.26L2447.5 1512.75C2447.62 1516.62 2444.72 1519.89 2440.99 1520.02Z" stroke="#000000" stroke-width="2.93478" stroke-miterlimit="8" fill="#D6DBD9" fill-rule="evenodd"/><path d="M2417.74 1479.02 2404.25 1479.5C2400.38 1479.63 2397.15 1476.62 2396.98 1472.74L2396.5 1459.25C2396.37 1455.38 2399.38 1452.15 2403.25 1451.98L2416.75 1451.5C2420.62 1451.37 2423.85 1454.38 2424.02 1458.26L2424.49 1471.75C2424.66 1475.63 2421.61 1478.89 2417.74 1479.02Z" stroke="#000000" stroke-width="2.93478" stroke-miterlimit="8" fill="#D6DBD9" fill-rule="evenodd"/><path d="M2878.87 1461.36 2846.11 1462.5C2842.31 1462.63 2839.13 1459.69 2838.97 1455.91L2838.5 1442.73C2838.37 1438.95 2841.33 1435.8 2845.13 1435.64L2877.89 1434.5C2881.69 1434.37 2884.87 1437.31 2885.03 1441.09L2885.5 1454.27C2885.62 1458.08 2882.66 1461.23 2878.87 1461.36L2878.87 1461.36Z" stroke="#000000" stroke-width="2.93478" stroke-miterlimit="8" fill="#D6DBD9" fill-rule="evenodd"/><path d="M2399.85 1520.45 2313.13 1523.5C2309.32 1523.63 2306.14 1520.68 2305.97 1516.88L2305.5 1503.66C2305.37 1499.87 2308.34 1496.71 2312.15 1496.54L2398.87 1493.5C2402.68 1493.37 2405.86 1496.32 2406.03 1500.12L2406.5 1513.34C2406.63 1517.12 2403.66 1520.32 2399.85 1520.45Z" stroke="#000000" stroke-width="2.93478" stroke-miterlimit="8" fill="#D6DBD9" fill-rule="evenodd"/><path d="M2482.74 1517.04 2469.25 1517.5C2465.38 1517.63 2462.15 1514.72 2461.98 1510.99L2461.5 1497.97C2461.37 1494.24 2464.38 1491.12 2468.25 1490.96L2481.75 1490.5C2485.62 1490.37 2488.85 1493.28 2489.02 1497.01L2489.49 1510.03C2489.66 1513.76 2486.61 1516.91 2482.74 1517.04Z" stroke="#000000" stroke-width="2.93478" stroke-miterlimit="8" fill="#D6DBD9" fill-rule="evenodd"/><path d="M2527.99 1516.02 2514.97 1516.5C2511.24 1516.63 2508.12 1513.62 2507.96 1509.75L2507.5 1496.25C2507.37 1492.38 2510.28 1489.15 2514.01 1488.98L2527.03 1488.5C2530.76 1488.37 2533.88 1491.38 2534.04 1495.26L2534.49 1508.75C2534.65 1512.66 2531.72 1515.89 2527.99 1516.02Z" stroke="#000000" stroke-width="2.93478" stroke-miterlimit="8" fill="#D6DBD9" fill-rule="evenodd"/><path d="M2567.99 1514.04 2554.97 1514.5C2551.24 1514.63 2548.12 1511.72 2547.96 1507.99L2547.5 1494.97C2547.37 1491.24 2550.28 1488.12 2554.01 1487.96L2567.03 1487.5C2570.76 1487.37 2573.88 1490.28 2574.03 1494.01L2574.49 1507.03C2574.65 1510.79 2571.72 1513.91 2567.99 1514.04Z" stroke="#000000" stroke-width="2.93478" stroke-miterlimit="8" fill="#D6DBD9" fill-rule="evenodd"/><path d="M2608.75 1512.04 2595.25 1512.5C2591.38 1512.63 2588.15 1509.72 2587.98 1505.99L2587.5 1492.97C2587.37 1489.24 2590.38 1486.12 2594.26 1485.96L2607.75 1485.5C2611.62 1485.37 2614.86 1488.28 2615.02 1492.01L2615.5 1505.03C2615.63 1508.76 2612.61 1511.91 2608.75 1512.04Z" stroke="#000000" stroke-width="2.93478" stroke-miterlimit="8" fill="#D6DBD9" fill-rule="evenodd"/><path d="M2650.74 1511.04 2637.25 1511.5C2633.38 1511.63 2630.15 1508.72 2629.98 1504.99L2629.5 1491.97C2629.37 1488.24 2632.38 1485.12 2636.25 1484.96L2649.75 1484.5C2653.62 1484.37 2656.85 1487.28 2657.02 1491.01L2657.49 1504.03C2657.66 1507.76 2654.62 1510.88 2650.74 1511.04Z" stroke="#000000" stroke-width="2.93478" stroke-miterlimit="8" fill="#D6DBD9" fill-rule="evenodd"/><path d="M2691.99 1510.02 2678.97 1510.5C2675.24 1510.63 2672.12 1507.62 2671.96 1503.74L2671.5 1490.25C2671.37 1486.38 2674.28 1483.15 2678.01 1482.98L2691.03 1482.5C2694.76 1482.37 2697.88 1485.38 2698.04 1489.26L2698.5 1502.75C2698.62 1506.65 2695.72 1509.88 2691.99 1510.02Z" stroke="#000000" stroke-width="2.93478" stroke-miterlimit="8" fill="#D6DBD9" fill-rule="evenodd"/><path d="M2726.74 1505.04 2713.25 1505.5C2709.38 1505.63 2706.15 1502.72 2705.98 1498.99L2705.5 1485.97C2705.37 1482.24 2708.38 1479.12 2712.26 1478.96L2725.75 1478.5C2729.62 1478.37 2732.85 1481.28 2733.02 1485.01L2733.49 1498.03C2733.65 1501.79 2730.61 1504.91 2726.74 1505.04Z" stroke="#000000" stroke-width="2.93478" stroke-miterlimit="8" fill="#D6DBD9" fill-rule="evenodd"/><path d="M2768.74 1504.02 2755.25 1504.5C2751.38 1504.63 2748.15 1501.62 2747.98 1497.75L2747.5 1484.25C2747.37 1480.38 2750.38 1477.15 2754.25 1476.98L2767.75 1476.5C2771.62 1476.37 2774.85 1479.38 2775.02 1483.26L2775.49 1496.75C2775.66 1500.62 2772.61 1503.89 2768.74 1504.02Z" stroke="#000000" stroke-width="2.93478" stroke-miterlimit="8" fill="#D6DBD9" fill-rule="evenodd"/><path d="M2806.99 1503.02 2793.97 1503.5C2790.24 1503.63 2787.12 1500.62 2786.96 1496.74L2786.5 1483.25C2786.37 1479.38 2789.28 1476.15 2793.01 1475.98L2806.03 1475.5C2809.76 1475.37 2812.88 1478.38 2813.04 1482.25L2813.5 1495.75C2813.62 1499.62 2810.71 1502.88 2806.99 1503.02Z" stroke="#000000" stroke-width="2.93478" stroke-miterlimit="8" fill="#D6DBD9" fill-rule="evenodd"/><path d="M2884.81 1496.69 2833.18 1498.5C2829.35 1498.63 2826.14 1495.66 2825.98 1491.83L2825.5 1478.5C2825.37 1474.67 2828.35 1471.48 2832.19 1471.32L2883.82 1469.5C2887.66 1469.37 2890.86 1472.34 2891.02 1476.17L2891.5 1489.5C2891.62 1493.36 2888.64 1496.55 2884.81 1496.69Z" stroke="#000000" stroke-width="2.93478" stroke-miterlimit="8" fill="#D6DBD9" fill-rule="evenodd"/><path d="M2323.74 1560.02 2310.25 1560.5C2306.38 1560.63 2303.15 1557.62 2302.98 1553.74L2302.5 1540.25C2302.37 1536.38 2305.38 1533.15 2309.25 1532.98L2322.75 1532.5C2326.62 1532.37 2329.85 1535.38 2330.02 1539.25L2330.49 1552.75C2330.65 1556.66 2327.64 1559.89 2323.74 1560.02Z" stroke="#000000" stroke-width="2.93478" stroke-miterlimit="8" fill="#D6DBD9" fill-rule="evenodd"/><path d="M2362.75 1559.02 2349.25 1559.5C2345.38 1559.63 2342.15 1556.62 2341.98 1552.74L2341.5 1539.25C2341.37 1535.38 2344.38 1532.15 2348.26 1531.98L2361.75 1531.5C2365.62 1531.37 2368.86 1534.38 2369.02 1538.25L2369.5 1551.75C2369.62 1555.65 2366.61 1558.88 2362.75 1559.02Z" stroke="#000000" stroke-width="2.93478" stroke-miterlimit="8" fill="#D6DBD9" fill-rule="evenodd"/><path d="M2403.74 1557.04 2390.25 1557.5C2386.38 1557.63 2383.15 1554.72 2382.98 1550.99L2382.5 1537.97C2382.37 1534.24 2385.38 1531.12 2389.25 1530.96L2402.75 1530.5C2406.62 1530.37 2409.85 1533.28 2410.02 1537.01L2410.49 1550.03C2410.66 1553.76 2407.61 1556.91 2403.74 1557.04Z" stroke="#000000" stroke-width="2.93478" stroke-miterlimit="8" fill="#D6DBD9" fill-rule="evenodd"/><path d="M2441.99 1556.02 2428.97 1556.5C2425.24 1556.63 2422.12 1553.62 2421.96 1549.75L2421.5 1536.25C2421.37 1532.38 2424.28 1529.15 2428.01 1528.98L2441.03 1528.5C2444.76 1528.37 2447.88 1531.38 2448.04 1535.26L2448.5 1548.75C2448.62 1552.62 2445.72 1555.89 2441.99 1556.02Z" stroke="#000000" stroke-width="2.93478" stroke-miterlimit="8" fill="#D6DBD9" fill-rule="evenodd"/><path d="M2488.99 1555.02 2475.97 1555.5C2472.24 1555.63 2469.12 1552.62 2468.96 1548.74L2468.5 1535.25C2468.37 1531.38 2471.28 1528.15 2475.01 1527.98L2488.03 1527.5C2491.76 1527.37 2494.88 1530.38 2495.04 1534.26L2495.5 1547.75C2495.63 1551.62 2492.72 1554.89 2488.99 1555.02Z" stroke="#000000" stroke-width="2.93478" stroke-miterlimit="8" fill="#D6DBD9" fill-rule="evenodd"/><path d="M2646.88 1548.81 2515.1 1553.5C2511.3 1553.63 2508.13 1550.64 2507.97 1546.8L2507.5 1533.4C2507.37 1529.56 2510.32 1526.35 2514.12 1526.19L2645.9 1521.5C2649.7 1521.37 2652.87 1524.36 2653.03 1528.2L2653.49 1541.6C2653.65 1545.47 2650.67 1548.68 2646.88 1548.81Z" stroke="#000000" stroke-width="2.93478" stroke-miterlimit="8" fill="#D6DBD9" fill-rule="evenodd"/><path d="M2685.99 1547.04 2672.97 1547.5C2669.24 1547.63 2666.12 1544.72 2665.96 1540.99L2665.5 1527.97C2665.37 1524.24 2668.28 1521.12 2672.01 1520.96L2685.03 1520.5C2688.76 1520.37 2691.88 1523.28 2692.04 1527.01L2692.5 1540.03C2692.62 1543.76 2689.72 1546.91 2685.99 1547.04Z" stroke="#000000" stroke-width="2.93478" stroke-miterlimit="8" fill="#D6DBD9" fill-rule="evenodd"/><path d="M2726.98 1546.02 2713.97 1546.5C2710.24 1546.63 2707.12 1543.62 2706.96 1539.74L2706.5 1526.25C2706.37 1522.38 2709.28 1519.15 2713.01 1518.98L2726.03 1518.5C2729.76 1518.37 2732.88 1521.38 2733.04 1525.25L2733.49 1538.75C2733.65 1542.63 2730.72 1545.88 2726.98 1546.02Z" stroke="#000000" stroke-width="2.93478" stroke-miterlimit="8" fill="#D6DBD9" fill-rule="evenodd"/><path d="M2765.99 1545.02 2752.97 1545.5C2749.24 1545.63 2746.12 1542.62 2745.96 1538.74L2745.5 1525.25C2745.37 1521.38 2748.28 1518.15 2752.01 1517.98L2765.03 1517.5C2768.76 1517.37 2771.88 1520.38 2772.04 1524.26L2772.5 1537.75C2772.62 1541.62 2769.72 1544.85 2765.99 1545.02Z" stroke="#000000" stroke-width="2.93478" stroke-miterlimit="8" fill="#D6DBD9" fill-rule="evenodd"/><path d="M2801.74 1544.02 2788.25 1544.5C2784.38 1544.63 2781.15 1541.62 2780.98 1537.75L2780.5 1524.25C2780.37 1520.38 2783.38 1517.15 2787.25 1516.98L2800.75 1516.5C2804.62 1516.37 2807.85 1519.38 2808.02 1523.26L2808.49 1536.75C2808.66 1540.63 2805.61 1543.89 2801.74 1544.02Z" stroke="#000000" stroke-width="2.93478" stroke-miterlimit="8" fill="#D6DBD9" fill-rule="evenodd"/><path d="M2843.74 1540.04 2830.25 1540.5C2826.38 1540.63 2823.15 1537.72 2822.98 1533.99L2822.5 1520.97C2822.37 1517.24 2825.38 1514.12 2829.25 1513.96L2842.75 1513.5C2846.62 1513.37 2849.85 1516.28 2850.02 1520.01L2850.49 1533.03C2850.65 1536.79 2847.61 1539.91 2843.74 1540.04Z" stroke="#000000" stroke-width="2.93478" stroke-miterlimit="8" fill="#D6DBD9" fill-rule="evenodd"/><path d="M2884.75 1539.04 2871.25 1539.5C2867.38 1539.63 2864.15 1536.72 2863.98 1532.99L2863.5 1519.97C2863.37 1516.24 2866.38 1513.12 2870.26 1512.96L2883.75 1512.5C2887.62 1512.37 2890.86 1515.28 2891.02 1519.01L2891.5 1532.03C2891.63 1535.79 2888.61 1538.91 2884.75 1539.04Z" stroke="#000000" stroke-width="2.93478" stroke-miterlimit="8" fill="#D6DBD9" fill-rule="evenodd"/><path d="M2947.98 1421.02 2934.97 1421.5C2931.24 1421.63 2928.12 1418.62 2927.96 1414.74L2927.5 1401.25C2927.37 1397.38 2930.28 1394.15 2934.01 1393.98L2947.03 1393.5C2950.76 1393.37 2953.88 1396.38 2954.03 1400.26L2954.49 1413.75C2954.65 1417.63 2951.72 1420.85 2947.98 1421.02Z" stroke="#000000" stroke-width="2.93478" stroke-miterlimit="8" fill="#D6DBD9" fill-rule="evenodd"/><path d="M3027.74 1418.02 3014.25 1418.5C3010.38 1418.63 3007.15 1415.62 3006.98 1411.75L3006.5 1398.25C3006.37 1394.38 3009.38 1391.15 3013.25 1390.98L3026.75 1390.5C3030.62 1390.37 3033.85 1393.38 3034.02 1397.26L3034.49 1410.75C3034.66 1414.62 3031.61 1417.89 3027.74 1418.02Z" stroke="#000000" stroke-width="2.93478" stroke-miterlimit="8" fill="#D6DBD9" fill-rule="evenodd"/><path d="M2986.99 1419.04 2973.97 1419.5C2970.24 1419.63 2967.12 1416.72 2966.96 1412.99L2966.5 1399.97C2966.37 1396.24 2969.28 1393.12 2973.01 1392.96L2986.03 1392.5C2989.76 1392.37 2992.88 1395.28 2993.04 1399.01L2993.5 1412.03C2993.63 1415.76 2990.72 1418.91 2986.99 1419.04Z" stroke="#000000" stroke-width="2.93478" stroke-miterlimit="8" fill="#D6DBD9" fill-rule="evenodd"/><path d="M2949.75 1459.02 2936.25 1459.5C2932.38 1459.63 2929.15 1456.62 2928.98 1452.74L2928.5 1439.25C2928.37 1435.38 2931.38 1432.15 2935.26 1431.98L2948.75 1431.5C2952.62 1431.37 2955.86 1434.38 2956.02 1438.25L2956.5 1451.75C2956.63 1455.62 2953.61 1458.89 2949.75 1459.02Z" stroke="#000000" stroke-width="2.93478" stroke-miterlimit="8" fill="#D6DBD9" fill-rule="evenodd"/><path d="M2987.99 1456.04 2974.97 1456.5C2971.24 1456.63 2968.12 1453.72 2967.96 1449.99L2967.5 1436.97C2967.37 1433.24 2970.28 1430.12 2974.01 1429.96L2987.03 1429.5C2990.76 1429.37 2993.88 1432.28 2994.04 1436.01L2994.5 1449.03C2994.63 1452.76 2991.72 1455.91 2987.99 1456.04Z" stroke="#000000" stroke-width="2.93478" stroke-miterlimit="8" fill="#D6DBD9" fill-rule="evenodd"/><path d="M3028.74 1455.02 3015.25 1455.5C3011.38 1455.63 3008.15 1452.62 3007.98 1448.74L3007.5 1435.25C3007.37 1431.38 3010.38 1428.15 3014.25 1427.98L3027.75 1427.5C3031.62 1427.37 3034.85 1430.38 3035.02 1434.26L3035.49 1447.75C3035.65 1451.65 3032.61 1454.89 3028.74 1455.02Z" stroke="#000000" stroke-width="2.93478" stroke-miterlimit="8" fill="#D6DBD9" fill-rule="evenodd"/><path d="M2950.99 1496.04 2937.97 1496.5C2934.24 1496.63 2931.12 1493.72 2930.96 1489.99L2930.5 1476.97C2930.37 1473.24 2933.28 1470.12 2937.01 1469.96L2950.03 1469.5C2953.76 1469.37 2956.88 1472.28 2957.04 1476.01L2957.5 1489.03C2957.62 1492.79 2954.72 1495.91 2950.99 1496.04Z" stroke="#000000" stroke-width="2.93478" stroke-miterlimit="8" fill="#D6DBD9" fill-rule="evenodd"/><path d="M2989.74 1492.02 2976.25 1492.5C2972.38 1492.63 2969.15 1489.62 2968.98 1485.74L2968.5 1472.25C2968.37 1468.38 2971.38 1465.15 2975.25 1464.98L2988.75 1464.5C2992.62 1464.37 2995.85 1467.38 2996.02 1471.26L2996.49 1484.75C2996.65 1488.66 2993.61 1491.89 2989.74 1492.02Z" stroke="#000000" stroke-width="2.93478" stroke-miterlimit="8" fill="#D6DBD9" fill-rule="evenodd"/><path d="M3030.98 1491.04 3017.97 1491.5C3014.24 1491.63 3011.12 1488.72 3010.96 1484.99L3010.5 1471.97C3010.37 1468.24 3013.28 1465.12 3017.01 1464.96L3030.03 1464.5C3033.76 1464.37 3036.88 1467.28 3037.03 1471.01L3037.49 1484.03C3037.65 1487.76 3034.72 1490.91 3030.98 1491.04Z" stroke="#000000" stroke-width="2.93478" stroke-miterlimit="8" fill="#D6DBD9" fill-rule="evenodd"/><path d="M2998.91 1530.4 2939.06 1532.5C2935.28 1532.63 2932.13 1529.68 2931.97 1525.9L2931.5 1512.7C2931.37 1508.92 2934.31 1505.76 2938.09 1505.6L2997.94 1503.5C3001.71 1503.37 3004.87 1506.32 3005.03 1510.1L3005.49 1523.3C3005.65 1527.11 3002.68 1530.27 2998.91 1530.4L2998.91 1530.4Z" stroke="#000000" stroke-width="2.93478" stroke-miterlimit="8" fill="#D6DBD9" fill-rule="evenodd"/><path d="M3032.74 1529.02 3019.25 1529.5C3015.38 1529.63 3012.15 1526.62 3011.98 1522.74L3011.5 1509.25C3011.37 1505.38 3014.38 1502.15 3018.25 1501.98L3031.75 1501.5C3035.62 1501.37 3038.85 1504.38 3039.02 1508.26L3039.49 1521.75C3039.66 1525.63 3036.61 1528.88 3032.74 1529.02Z" stroke="#000000" stroke-width="2.93478" stroke-miterlimit="8" fill="#D6DBD9" fill-rule="evenodd"/><path d="M2373.92 1268C2366.92 1272.13 2355.15 1280.6 2349.97 1295.1 2346.44 1305 2348.09 1315.9 2351.52 1337.29 2353.95 1352.37 2355.78 1363.79 2361.2 1378.65 2365.98 1391.78 2371.58 1401.19 2382.76 1420 2395.92 1442.11 2402.71 1453.35 2413.6 1462.48 2420.91 1468.61 2436.52 1481.7 2450.22 1477 2458.63 1474.12 2462.79 1465.75 2464.38 1462.56 2481.04 1429.03 2413.22 1307.71 2403.11 1289.83 2393.38 1282.55 2383.65 1275.28 2373.92 1268Z" fill="#5B5742" fill-rule="evenodd" fill-opacity="0.431373"/><path d="M2400.98 1122.96C2408.74 1120.73 2421.5 1117.25 2428.81 1123.71 2433.73 1128.07 2434.48 1135.44 2435.77 1149.77 2436.51 1157.96 2435.27 1162.11 2436.35 1170.29 2440.8 1203.85 2450.12 1255.9 2456.05 1293.02 2469.58 1352.22 2471.62 1370.49 2480.78 1418.7 2481.73 1421.78 2484.62 1431.01 2481.79 1441.65 2460.76 1505.54 2376.46 1373.5 2368.94 1358.84 2353.34 1330.29 2356.33 1325.65 2335.17 1272.16 2313.79 1218.1 2307.75 1215.32 2310.7 1201.72 2325.59 1183.18 2339.37 1168.65 2350.08 1158.1 2372.68 1135.84 2385.61 1127.37 2400.98 1122.96Z" stroke="#000000" stroke-width="17.6094" stroke-miterlimit="8" fill="#EBE2B3" fill-rule="evenodd"/><path d="M2744.66 1381.53C2749.79 1393.09 2784.58 1391.75 2799.69 1389.43 2812.08 1387.54 2824.87 1382.91 2829.81 1380.99 2833.07 1379.76 2839.92 1377 2848.21 1372.64 2861.97 1365.38 2868.33 1359.92 2883.71 1348.16 2904.38 1332.35 2918.59 1324.08 2933.44 1306.06 2936.63 1302.2 2941.18 1296.27 2939.72 1290.31 2937.84 1282.72 2927.26 1279.44 2923.51 1278.17 2886.79 1265.81 2732.67 1354.54 2744.66 1381.53L2744.66 1381.53Z" fill="#5B5742" fill-rule="evenodd" fill-opacity="0.431373"/><path d="M2976.36 1160.53C2975.02 1157.57 2971.34 1150.65 2964.09 1148.05 2953.36 1144.19 2938.42 1151.11 2930.57 1166.54 2905.36 1215 2888.04 1228.37 2843.5 1270.86 2773.53 1341.78 2730.72 1360.55 2793.49 1368.44 2857.58 1375.06 2963.26 1321.9 2992.31 1281.84 2993.35 1270.44 2993.43 1256.77 2991.02 1241.6 2990.25 1236.73 2989.29 1232.14 2988.21 1227.84 2987.2 1217.95 2985.82 1207.49 2983.95 1196.54 2981.76 1183.67 2979.16 1171.65 2976.36 1160.53Z" stroke="#000000" stroke-width="17.6094" stroke-miterlimit="8" fill="#EBE2B3" fill-rule="evenodd"/></g></svg>