<svg width="1030" height="1279" xmlns="http://www.w3.org/2000/svg" xmlns:xlink="http://www.w3.org/1999/xlink" xml:space="preserve" overflow="hidden"><defs><clipPath id="clip0"><rect x="2745" y="827" width="1030" height="1279"/></clipPath></defs><g clip-path="url(#clip0)" transform="translate(-2745 -827)"><path d="M3197.58 860.344 3168.22 918.781 3200 975.844 3135.05 966.219 3090.13 1014 3079.42 949.375 3020 921.875 3078.39 891.625 3086.33 827 3133.32 872.719Z" fill="#72C9E1" fill-rule="evenodd" fill-opacity="0.639216"/><path d="M3089.52 936.31 3095.54 944.258 2851.89 1128.68 2845.87 1120.74Z" stroke="#000000" stroke-width="3.4375" stroke-miterlimit="8" fill="#5B612B" fill-rule="evenodd"/><path d="M3182.78 872.885 3159.46 918.801 3184.5 963.689 3133.73 956.151 3098.39 993.5 3090.16 943.13 3043.5 921.199 3089.13 897.556 3095.65 846.5 3132.01 882.822Z" stroke="#000000" stroke-width="3.4375" stroke-miterlimit="8" fill="#F6AF1E" fill-rule="evenodd"/><path d="M3676.9 1752.89 2781.56 1573.44C2764.02 1570 2752.68 1552.81 2756.11 1535.28L2804.94 1291.55C2808.38 1274.02 2825.57 1262.68 2843.1 1266.11L3738.44 1445.56C3755.98 1449 3767.32 1466.19 3763.89 1483.72L3715.06 1727.45C3711.62 1744.98 3694.43 1756.32 3676.9 1752.89L3676.9 1752.89Z" stroke="#000000" stroke-width="20.625" stroke-miterlimit="8" fill="#A6A897" fill-rule="evenodd"/><path d="M3092.5 1873.5C3093.19 1888.58 3095.95 1897.5 3098.02 1902.64 3102.51 1912.92 3103.55 1915.67 3105.62 1921.15 3105.96 1922.52 3106.65 1923.55 3106.65 1924.58 3109.42 1932.81 3109.76 1934.52 3115.63 1954.41 3124.95 1986.29 3125.64 1985.6 3128.06 1996.57 3131.16 2011.66 3129.44 2012 3133.24 2033.26 3136.69 2053.14 3138.76 2063.08 3143.94 2069.94 3145.32 2071.65 3158.44 2088.79 3177.42 2087.42 3189.85 2086.39 3198.14 2077.82 3204 2071.65 3207.46 2067.88 3210.22 2064.11 3223.34 2036.68 3230.93 2020.91 3234.73 2012.69 3237.49 2005.14 3238.87 2001.03 3239.91 1997.94 3240.6 1995.2 3243.7 1983.55 3245.78 1974.98 3246.12 1973.6 3247.85 1965.38 3255.1 1949.61 3276.5 1917.38 3246.47 1909.5 3216.09 1901.95 3184.67 1894.76 3153.6 1887.21 3122.88 1880.01 3092.5 1873.5Z" stroke="#000000" stroke-width="20.625" stroke-miterlimit="8" fill="#EBE2B3" fill-rule="evenodd"/><path d="M3449.5 1934.24C3457.07 1951.41 3464.63 1971.32 3471.51 1993.3 3478.39 2014.93 3483.2 2035.18 3486.98 2053.72 3505.9 2100.76 3556.1 2089.08 3562.29 2039.65 3569.17 2018.02 3576.05 1994.67 3582.23 1970.29 3587.74 1948.32 3592.55 1927.03 3596.68 1906.78 3597.37 1902.31 3597.71 1897.16 3597.37 1891.33 3597.02 1874.85 3592.55 1861.11 3588.77 1851.5 3542.35 1878.97 3495.92 1906.78 3449.5 1934.24Z" stroke="#000000" stroke-width="20.625" stroke-miterlimit="8" fill="#EBE2B3" fill-rule="evenodd"/><path d="M2887.88 1485.41C2885.47 1475.78 2882.72 1461.01 2882.72 1443.13 2882.72 1424.23 2885.81 1419.08 2886.16 1402.92 2887.19 1370.96 2875.84 1369.24 2875.5 1341.41 2875.5 1308.41 2891.66 1282.64 2896.47 1274.73 2907.82 1256.18 2912.63 1258.93 2926.38 1237.96 2939.1 1218.37 2944.94 1201.19 2951.13 1183.66 2961.1 1153.42 2958.69 1147.23 2966.95 1118.71 2972.79 1098.43 2980.01 1073 2996.85 1046.88 3007.86 1029.7 3026.42 1013.2 3063.55 980.206 3087.27 958.899 3104.46 945.152 3117.86 934.498 3158.77 902.193 3172.18 894.976 3177.68 892.226 3196.93 882.603 3214.47 874.011 3237.5 874.699 3249.19 875.042 3267.41 876.073 3287 876.073 3289.76 876.073 3295.94 876.073 3304.19 875.73 3307.63 875.386 3313.48 875.042 3320.7 874.011 3332.73 872.293 3341.67 870.231 3344.42 869.544 3384.64 860.264 3404.92 854.766 3423.49 858.89 3445.83 864.045 3460.96 877.105 3474.37 888.789 3482.96 896.35 3494.99 911.472 3518.37 941.371 3544.5 974.708 3550.34 983.643 3565.81 995.672 3581.28 1007.7 3583 1004.95 3594 1014.92 3608.44 1028.32 3613.94 1041.72 3627.35 1073 3653.13 1132.8 3651.07 1124.89 3653.82 1132.8 3656.23 1140.7 3657.94 1148.61 3661.04 1164.42 3665.16 1184.35 3666.19 1193.63 3671.35 1222.5 3675.13 1244.83 3677.2 1255.83 3678.23 1260.99 3687.17 1296.73 3700.23 1320.79 3704.7 1329.38 3724.98 1369.59 3722.92 1417.01 3718.79 1511.87 3716.39 1569.61 3715.01 1600.54 3701.26 1641.78 3694.04 1663.08 3690.95 1665.49 3673.07 1713.6 3657.94 1754.5 3655.54 1765.84 3643.16 1794.37 3629.41 1825.99 3622.53 1841.79 3608.1 1859.32 3601.91 1866.88 3587.81 1882.69 3550 1905.03 3518.71 1923.59 3483.65 1944.55 3432.42 1954.18 3358.51 1968.27 3296.63 1950.74 3272.57 1943.52 3257.44 1939.05 3252.28 1936.31 3223.41 1927.71 3209.31 1923.59 3198.31 1920.5 3189.03 1918.09 3151.56 1908.47 3148.81 1909.15 3130.58 1903.31 3119.24 1899.53 3111.68 1896.44 3097.58 1890.6 3071.11 1879.6 3048.08 1869.98 3030.2 1859.32 2986.54 1832.86 2963.85 1793.34 2954.57 1776.84 2947.69 1764.47 2938.41 1736.63 2919.5 1680.27 2907.13 1643.15 2900.94 1624.25 2898.53 1611.88 2894.06 1587.48 2892.34 1564.45 2889.94 1518.74 2888.91 1504.65 2888.22 1492.97 2887.88 1485.41Z" stroke="#000000" stroke-width="20.625" stroke-miterlimit="8" fill="#EBE2B3" fill-rule="evenodd"/><path d="M3132.33 1012 3145.52 987.096 3263.39 1049.53 3250.19 1074.44Z" stroke="#000000" stroke-width="10.3139" stroke-miterlimit="8" fill="#595850" fill-rule="evenodd"/><path d="M3385.7 1044.16 3505.88 986.313 3518.1 1011.71 3397.92 1069.56Z" stroke="#000000" stroke-width="10.3139" stroke-miterlimit="8" fill="#595850" fill-rule="evenodd"/><path d="M3588 2096.5C3588 2101.75 3483.23 2106 3354 2106 3224.77 2106 3120 2101.75 3120 2096.5 3120 2091.25 3224.77 2087 3354 2087 3483.23 2087 3588 2091.25 3588 2096.5Z" fill="#5B5742" fill-rule="evenodd" fill-opacity="0.470588"/><path d="M3231.5 1135.5C3231.5 1158.7 3212.92 1177.5 3190 1177.5 3167.08 1177.5 3148.5 1158.7 3148.5 1135.5 3148.5 1112.3 3167.08 1093.5 3190 1093.5 3212.92 1093.5 3231.5 1112.3 3231.5 1135.5Z" stroke="#000000" stroke-width="20.625" stroke-miterlimit="8" fill="#231815" fill-rule="evenodd"/><path d="M3505.5 1135.5C3505.5 1158.7 3486.92 1177.5 3464 1177.5 3441.08 1177.5 3422.5 1158.7 3422.5 1135.5 3422.5 1112.3 3441.08 1093.5 3464 1093.5 3486.92 1093.5 3505.5 1112.3 3505.5 1135.5Z" stroke="#000000" stroke-width="20.625" stroke-miterlimit="8" fill="#231815" fill-rule="evenodd"/><path d="M3214 1148.5C3214 1159.27 3205.05 1168 3194 1168 3182.95 1168 3174 1159.27 3174 1148.5 3174 1137.73 3182.95 1129 3194 1129 3205.05 1129 3214 1137.73 3214 1148.5Z" fill="#FFFFFF" fill-rule="evenodd"/><path d="M3483 1148.5C3483 1159.27 3474.27 1168 3463.5 1168 3452.73 1168 3444 1159.27 3444 1148.5 3444 1137.73 3452.73 1129 3463.5 1129 3474.27 1129 3483 1137.73 3483 1148.5Z" fill="#FFFFFF" fill-rule="evenodd"/><path d="M3410 1263C3410 1275.15 3376.2 1285 3334.5 1285 3292.8 1285 3259 1275.15 3259 1263 3259 1250.85 3292.8 1241 3334.5 1241 3376.2 1241 3410 1250.85 3410 1263Z" stroke="#000000" stroke-width="10.3125" stroke-miterlimit="8" fill="#E73A8F" fill-rule="evenodd"/><path d="M3010.74 1274C3016.24 1266.09 3024.49 1251.31 3022.77 1233.44 3021.74 1221.06 3014.52 1210.4 3000.09 1189.78 2990.13 1175 2982.57 1163.99 2969.17 1150.93 2957.49 1139.59 2946.84 1132.37 2925.88 1118.27 2900.8 1101.43 2888.09 1093.18 2871.94 1089.05 2861.29 1086.3 2837.93 1080.12 2825.9 1092.15 2818.35 1099.37 2818.35 1110.37 2818 1114.49 2817.32 1157.81 2949.25 1251.66 2968.83 1265.41 2982.92 1268.5 2997 1271.25 3010.74 1274Z" fill="#5B5742" fill-rule="evenodd" fill-opacity="0.431373"/><path d="M3058.79 1432.59C3056.38 1433.62 3041.94 1438.78 3028.88 1432.25 3019.94 1427.78 3015.81 1419.86 3013.41 1415.74 3003.44 1397.51 2989 1382.03 2978.34 1363.8 2974.21 1356.58 2975.24 1359.33 2918.86 1283.66 2899.95 1258.2 2890.33 1245.48 2883.45 1235.84 2865.57 1211.08 2853.54 1192.5 2831.88 1161.89 2829.47 1159.14 2821.91 1150.54 2819.85 1138.16 2811.25 1060.08 2964.59 1159.48 2979.71 1171.52 3003.09 1189.07 3007.9 1196.98 3030.94 1221.05 3042.28 1232.75 3050.88 1241.35 3057.41 1247.54 3091.79 1280.22 3105.89 1286.41 3110.36 1305.32 3112.42 1314.27 3111.39 1322.52 3109.67 1329.06 3106.23 1349.01 3101.07 1364.83 3096.95 1375.84 3086.29 1403.7 3078.38 1425.02 3058.79 1432.59Z" stroke="#000000" stroke-width="20.625" stroke-miterlimit="8" fill="#EBE2B3" fill-rule="evenodd"/><path d="M3471.91 1507.63C3482.21 1517.94 3519.65 1502.13 3535.44 1493.2 3548.15 1485.98 3560.17 1475.67 3564.98 1471.55 3568.07 1468.8 3574.25 1462.96 3581.46 1454.71 3593.48 1440.97 3598.29 1432.38 3610.31 1413.48 3626.45 1387.71 3638.47 1372.93 3647.4 1347.16 3649.46 1341.66 3651.87 1333.42 3647.75 1327.58 3642.6 1320.02 3629.55 1321.05 3625.08 1321.05 3579.4 1323.11 3447.87 1483.58 3471.91 1507.63L3471.91 1507.63Z" fill="#5B5742" fill-rule="evenodd" fill-opacity="0.431373"/><path d="M3651.51 1149.5C3646.02 1149.5 3637.44 1150.53 3629.21 1155.01 3614.11 1163.27 3608.28 1178.06 3599.01 1200.43 3591.46 1217.98 3582.54 1234.5 3576.02 1252.4 3567.1 1276.14 3555.78 1299.2 3535.19 1346.35 3502.59 1420.68 3473.77 1461.63 3483.38 1474.02 3486.46 1478.15 3494.7 1481.59 3521.12 1474.02 3597.3 1451.31 3653.23 1381.45 3682.39 1338.09 3685.14 1323.29 3686.85 1303.33 3684.11 1279.58 3682.39 1263.75 3678.96 1249.99 3675.19 1239.32 3673.13 1230.03 3671.07 1220.74 3669.01 1211.44 3663.52 1189.42 3657.69 1168.77 3651.51 1149.5Z" stroke="#000000" stroke-width="20.625" stroke-miterlimit="8" fill="#EBE2B3" fill-rule="evenodd"/></g></svg>