<svg width="1030" height="1337" xmlns="http://www.w3.org/2000/svg" xmlns:xlink="http://www.w3.org/1999/xlink" xml:space="preserve" overflow="hidden"><defs><clipPath id="clip0"><rect x="3000" y="656" width="1030" height="1337"/></clipPath></defs><g clip-path="url(#clip0)" transform="translate(-3000 -656)"><path d="M3361.62 657.372 3349.94 721.507 3396 767.465 3331.38 776.039 3301.81 834 3273.62 775.353 3209 765.406 3256.44 720.478 3245.78 656 3303.53 686.867Z" fill="#72C9E1" fill-rule="evenodd" fill-opacity="0.639216"/><path d="M3279 759.231 3287.01 765.173 3104.84 1010.53 3096.84 1004.59Z" stroke="#000000" stroke-width="3.4375" stroke-miterlimit="8" fill="#5B612B" fill-rule="evenodd"/><path d="M3350.43 672.534 3341.18 723.211 3377.5 759.754 3326.79 766.649 3303.49 812.5 3281.21 765.96 3230.5 758.031 3267.85 722.522 3259.63 671.5 3304.86 695.977Z" stroke="#000000" stroke-width="3.4375" stroke-miterlimit="8" fill="#F6AF1E" fill-rule="evenodd"/><path d="M3931.9 1640.89 3036.56 1461.44C3019.02 1458 3007.68 1440.81 3011.11 1423.28L3059.94 1179.55C3063.38 1162.02 3080.57 1150.68 3098.1 1154.11L3993.44 1333.56C4010.98 1337 4022.32 1354.19 4018.89 1371.72L3970.06 1615.45C3966.62 1632.98 3949.43 1644.32 3931.9 1640.89L3931.9 1640.89Z" stroke="#000000" stroke-width="20.625" stroke-miterlimit="8" fill="#A6A897" fill-rule="evenodd"/><path d="M3348.5 1760.5C3349.19 1775.65 3351.93 1784.61 3353.99 1789.78 3358.46 1800.11 3359.49 1802.86 3361.55 1808.38 3361.89 1809.75 3362.58 1810.79 3362.58 1811.82 3365.32 1820.09 3365.67 1821.81 3371.5 1841.78 3380.77 1873.82 3381.46 1873.13 3383.86 1884.15 3386.95 1899.3 3385.24 1899.65 3389.01 1921 3392.45 1940.98 3394.51 1950.97 3399.66 1957.86 3401.03 1959.58 3414.08 1976.8 3432.96 1975.42 3445.32 1974.39 3453.56 1965.78 3459.4 1959.58 3462.83 1955.79 3465.58 1952 3478.63 1924.45 3486.18 1908.6 3489.96 1900.34 3492.7 1892.76 3494.08 1888.63 3495.11 1885.53 3495.79 1882.77 3498.88 1871.06 3500.94 1862.45 3501.29 1861.07 3503 1852.81 3510.21 1836.96 3531.5 1804.59 3501.63 1796.66 3471.42 1789.09 3440.17 1781.85 3409.27 1774.28 3378.71 1767.04 3348.5 1760.5Z" stroke="#000000" stroke-width="20.625" stroke-miterlimit="8" fill="#EBE2B3" fill-rule="evenodd"/><path d="M3705.5 1821.24C3713.07 1838.41 3720.63 1858.32 3727.51 1880.3 3734.39 1901.93 3739.2 1922.18 3742.98 1940.72 3761.9 1987.76 3812.1 1976.08 3818.29 1926.65 3825.17 1905.02 3832.05 1881.67 3838.24 1857.29 3843.74 1835.32 3848.55 1814.03 3852.68 1793.78 3853.37 1789.31 3853.71 1784.16 3853.37 1778.33 3853.02 1761.85 3848.55 1748.11 3844.77 1738.5 3798.35 1765.97 3751.92 1793.78 3705.5 1821.24Z" stroke="#000000" stroke-width="20.625" stroke-miterlimit="8" fill="#EBE2B3" fill-rule="evenodd"/><path d="M3142.88 1372.41C3140.47 1362.78 3137.72 1348.01 3137.72 1330.13 3137.72 1311.23 3140.81 1306.08 3141.16 1289.92 3142.19 1257.96 3130.84 1256.24 3130.5 1228.41 3130.5 1195.41 3146.66 1169.64 3151.47 1161.73 3162.82 1143.18 3167.63 1145.93 3181.38 1124.96 3194.1 1105.37 3199.94 1088.19 3206.13 1070.66 3216.1 1040.42 3213.69 1034.23 3221.95 1005.71 3227.79 985.43 3235.01 959.998 3251.85 933.879 3262.86 916.695 3281.42 900.199 3318.55 867.206 3342.27 845.899 3359.46 832.152 3372.86 821.498 3413.77 789.192 3427.18 781.975 3432.68 779.226 3451.93 769.603 3469.47 761.011 3492.5 761.698 3504.19 762.042 3522.41 763.073 3542 763.073 3544.76 763.073 3550.94 763.073 3559.19 762.73 3562.63 762.386 3568.48 762.042 3575.7 761.011 3587.73 759.293 3596.67 757.231 3599.42 756.544 3639.64 747.264 3659.92 741.765 3678.49 745.89 3700.83 751.045 3715.96 764.104 3729.37 775.789 3737.96 783.35 3749.99 798.472 3773.37 828.371 3799.5 861.708 3805.34 870.643 3820.81 882.672 3836.28 894.7 3838 891.951 3849 901.917 3863.44 915.321 3868.94 928.724 3882.35 959.998 3908.13 1019.8 3906.07 1011.89 3908.82 1019.8 3911.23 1027.7 3912.94 1035.61 3916.04 1051.42 3920.16 1071.35 3921.19 1080.63 3926.35 1109.5 3930.13 1131.83 3932.2 1142.83 3933.23 1147.99 3942.17 1183.73 3955.23 1207.79 3959.7 1216.38 3979.98 1256.59 3977.92 1304.01 3973.79 1398.87 3971.39 1456.61 3970.01 1487.54 3956.26 1528.78 3949.04 1550.08 3945.95 1552.49 3928.07 1600.61 3912.94 1641.5 3910.54 1652.84 3898.16 1681.37 3884.41 1712.99 3877.53 1728.79 3863.1 1746.32 3856.91 1753.88 3842.81 1769.69 3805 1792.03 3773.71 1810.59 3738.65 1831.55 3687.42 1841.18 3613.51 1855.27 3551.63 1837.74 3527.57 1830.52 3512.44 1826.05 3507.28 1823.31 3478.41 1814.71 3464.31 1810.59 3453.31 1807.5 3444.03 1805.09 3406.56 1795.47 3403.81 1796.16 3385.58 1790.31 3374.24 1786.53 3366.68 1783.44 3352.58 1777.6 3326.11 1766.6 3303.08 1756.98 3285.2 1746.32 3241.54 1719.86 3218.85 1680.34 3209.57 1663.84 3202.69 1651.47 3193.41 1623.63 3174.5 1567.27 3162.13 1530.15 3155.94 1511.25 3153.53 1498.88 3149.06 1474.48 3147.34 1451.45 3144.94 1405.74 3143.91 1391.65 3143.22 1379.97 3142.88 1372.41Z" stroke="#000000" stroke-width="20.625" stroke-miterlimit="8" fill="#EBE2B3" fill-rule="evenodd"/><path d="M3387.83 899.255 3401.03 874.346 3518.89 936.778 3505.69 961.688Z" stroke="#000000" stroke-width="10.3139" stroke-miterlimit="8" fill="#595850" fill-rule="evenodd"/><path d="M3641.2 931.408 3761.38 873.563 3773.61 898.963 3653.42 956.807Z" stroke="#000000" stroke-width="10.3139" stroke-miterlimit="8" fill="#595850" fill-rule="evenodd"/><path d="M3843 1983.5C3843 1988.75 3738.46 1993 3609.5 1993 3480.54 1993 3376 1988.75 3376 1983.5 3376 1978.25 3480.54 1974 3609.5 1974 3738.46 1974 3843 1978.25 3843 1983.5Z" fill="#5B5742" fill-rule="evenodd" fill-opacity="0.470588"/><path d="M3487.5 1023C3487.5 1045.92 3468.7 1064.5 3445.5 1064.5 3422.3 1064.5 3403.5 1045.92 3403.5 1023 3403.5 1000.08 3422.3 981.5 3445.5 981.5 3468.7 981.5 3487.5 1000.08 3487.5 1023Z" stroke="#000000" stroke-width="20.625" stroke-miterlimit="8" fill="#231815" fill-rule="evenodd"/><path d="M3761.5 1023C3761.5 1045.92 3742.7 1064.5 3719.5 1064.5 3696.3 1064.5 3677.5 1045.92 3677.5 1023 3677.5 1000.08 3696.3 981.5 3719.5 981.5 3742.7 981.5 3761.5 1000.08 3761.5 1023Z" stroke="#000000" stroke-width="20.625" stroke-miterlimit="8" fill="#231815" fill-rule="evenodd"/><path d="M3469 1036C3469 1047.05 3460.27 1056 3449.5 1056 3438.73 1056 3430 1047.05 3430 1036 3430 1024.95 3438.73 1016 3449.5 1016 3460.27 1016 3469 1024.95 3469 1036Z" fill="#FFFFFF" fill-rule="evenodd"/><path d="M3739 1036C3739 1047.05 3730.05 1056 3719 1056 3707.95 1056 3699 1047.05 3699 1036 3699 1024.95 3707.95 1016 3719 1016 3730.05 1016 3739 1024.95 3739 1036Z" fill="#FFFFFF" fill-rule="evenodd"/><path d="M3665 1151C3665 1163.15 3631.42 1173 3590 1173 3548.58 1173 3515 1163.15 3515 1151 3515 1138.85 3548.58 1129 3590 1129 3631.42 1129 3665 1138.85 3665 1151Z" stroke="#000000" stroke-width="10.3125" stroke-miterlimit="8" fill="#E73A8F" fill-rule="evenodd"/><path d="M3265.74 1161C3271.24 1153.09 3279.49 1138.31 3277.77 1120.44 3276.74 1108.06 3269.52 1097.4 3255.09 1076.78 3245.13 1062 3237.57 1050.99 3224.17 1037.93 3212.49 1026.59 3201.84 1019.37 3180.88 1005.27 3155.8 988.43 3143.09 980.179 3126.94 976.054 3116.29 973.304 3092.93 967.116 3080.91 979.148 3073.35 986.367 3073.35 997.368 3073 1001.49 3072.32 1044.81 3204.25 1138.66 3223.83 1152.41 3237.92 1155.5 3252 1158.25 3265.74 1161Z" fill="#5B5742" fill-rule="evenodd" fill-opacity="0.431373"/><path d="M3314.79 1319.59C3312.38 1320.62 3297.94 1325.78 3284.88 1319.25 3275.94 1314.78 3271.81 1306.86 3269.41 1302.74 3259.44 1284.51 3245 1269.03 3234.34 1250.8 3230.21 1243.58 3231.24 1246.33 3174.86 1170.66 3155.95 1145.2 3146.33 1132.48 3139.45 1122.84 3121.57 1098.08 3109.54 1079.5 3087.88 1048.89 3085.47 1046.14 3077.91 1037.54 3075.85 1025.16 3067.25 947.079 3220.59 1046.48 3235.71 1058.52 3259.09 1076.07 3263.9 1083.98 3286.94 1108.05 3298.28 1119.75 3306.88 1128.35 3313.41 1134.54 3347.79 1167.22 3361.89 1173.41 3366.36 1192.32 3368.42 1201.27 3367.39 1209.52 3365.67 1216.06 3362.23 1236.01 3357.07 1251.83 3352.95 1262.84 3342.29 1290.7 3334.38 1312.02 3314.79 1319.59Z" stroke="#000000" stroke-width="20.625" stroke-miterlimit="8" fill="#EBE2B3" fill-rule="evenodd"/><path d="M3726.92 1395.63C3737.28 1405.94 3774.93 1390.13 3790.81 1381.2 3803.59 1373.98 3815.67 1363.67 3820.51 1359.55 3823.62 1356.8 3829.83 1350.96 3837.09 1342.71 3849.17 1328.97 3854.01 1320.38 3866.09 1301.48 3882.32 1275.71 3894.41 1260.93 3903.39 1235.16 3905.46 1229.66 3907.88 1221.42 3903.73 1215.58 3898.55 1208.02 3885.43 1209.05 3880.94 1209.05 3835.01 1211.11 3702.75 1371.58 3726.92 1395.63L3726.92 1395.63Z" fill="#5B5742" fill-rule="evenodd" fill-opacity="0.431373"/><path d="M3906.51 1036.5C3901.02 1036.5 3892.44 1037.53 3884.21 1042.01 3869.11 1050.27 3863.28 1065.06 3854.01 1087.43 3846.46 1104.98 3837.54 1121.5 3831.02 1139.4 3822.1 1163.14 3810.78 1186.2 3790.19 1233.35 3757.59 1307.68 3728.77 1348.63 3738.38 1361.02 3741.46 1365.15 3749.7 1368.59 3776.12 1361.02 3852.3 1338.31 3908.23 1268.45 3937.39 1225.09 3940.14 1210.29 3941.85 1190.33 3939.11 1166.58 3937.39 1150.75 3933.96 1136.99 3930.19 1126.32 3928.13 1117.03 3926.07 1107.74 3924.01 1098.44 3918.52 1076.42 3912.69 1055.77 3906.51 1036.5Z" stroke="#000000" stroke-width="20.625" stroke-miterlimit="8" fill="#EBE2B3" fill-rule="evenodd"/></g></svg>