<svg width="1052" height="1259" xmlns="http://www.w3.org/2000/svg" xmlns:xlink="http://www.w3.org/1999/xlink" xml:space="preserve" overflow="hidden"><defs><clipPath id="clip0"><rect x="2678" y="948" width="1052" height="1259"/></clipPath></defs><g clip-path="url(#clip0)" transform="translate(-2678 -948)"><path d="M3631.94 1854.86 2737.59 1675.53C2720 1672 2708.62 1654.88 2712.14 1637.32L2760.91 1393.61C2764.44 1376.01 2781.54 1364.62 2799.09 1368.14L3693.41 1547.46C3711 1550.99 3722.38 1568.11 3718.86 1585.67L3670.09 1829.38C3666.61 1846.96 3649.49 1858.38 3631.94 1854.86L3631.94 1854.86Z" stroke="#000000" stroke-width="20.625" stroke-miterlimit="8" fill="#A6A897" fill-rule="evenodd"/><path d="M3048.5 1974.5C3049.33 1989.79 3051.87 1998.5 3054.13 2003.68 3058.66 2014.1 3059.65 2016.87 3061.62 2022.39 3062.12 2023.78 3062.51 2024.9 3062.78 2025.7 3065.67 2034.08 3065.77 2035.7 3071.54 2055.62 3080.82 2087.61 3081.57 2086.92 3083.8 2097.89 3086.89 2112.95 3085.31 2113.33 3089.06 2134.84 3092.53 2154.73 3094.38 2164.79 3099.57 2171.79 3100.91 2173.58 3114.17 2190.92 3132.89 2189.41 3145.19 2188.41 3153.36 2179.75 3159.2 2173.55 3162.74 2169.83 3165.48 2166 3178.5 2138.35 3186.03 2122.39 3189.84 2114.22 3192.55 2106.68 3193.99 2102.68 3194.96 2099.47 3195.68 2096.68 3198.72 2084.9 3200.99 2076.39 3201.31 2075 3203.19 2066.77 3210.16 2051.04 3231.5 2018.51 3201.69 2010.72 3171.28 2003.08 3140.29 1995.62 3109.25 1988.16 3078.64 1981.13 3048.5 1974.5Z" stroke="#000000" stroke-width="20.625" stroke-miterlimit="8" fill="#EBE2B3" fill-rule="evenodd"/><path d="M3405.5 2035.57C3413.1 2052.88 3420.7 2072.55 3427.62 2094.46 3434.43 2116.09 3439.45 2136.35 3443.16 2154.79 3462.22 2201.67 3512.4 2190.13 3518.42 2140.78 3525.41 2119.08 3532.15 2095.94 3538.37 2071.42 3543.98 2049.34 3548.73 2028.05 3552.72 2007.72 3553.28 2003.09 3553.6 1997.97 3553.47 1992.43 3553.09 1975.77 3548.81 1962.09 3544.74 1952.5 3498.33 1980.19 3451.91 2007.88 3405.5 2035.57Z" stroke="#000000" stroke-width="20.625" stroke-miterlimit="8" fill="#EBE2B3" fill-rule="evenodd"/><path d="M2843.77 1586.54C2841.36 1576.88 2838.58 1562.28 2838.51 1544.41 2838.44 1525.4 2841.54 1520.18 2842.02 1504.06 2842.98 1472.13 2831.53 1470.31 2831.5 1442.64 2831.5 1409.79 2847.52 1384.01 2852.57 1375.97 2864.05 1357.58 2868.62 1360.19 2882.4 1339.12 2895.22 1319.53 2901.13 1302.21 2906.97 1284.72 2917.11 1254.37 2914.7 1248.29 2922.78 1219.8 2928.48 1199.66 2935.74 1173.98 2952.61 1147.83 2963.61 1130.78 2982.17 1114.25 3019.28 1081.16 3043.13 1059.88 3060.32 1046.17 3073.69 1035.51 3114.44 1003.07 3127.85 996.129 3133.35 993.379 3152.63 983.825 3169.98 975.198 3193.01 975.817 3204.59 976.126 3222.84 977.26 3242.46 977.088 3245.25 977.054 3251.53 977.088 3259.71 976.573 3263.22 976.332 3269.1 975.886 3276.18 974.923 3288.2 973.308 3297.24 971.177 3300.03 970.524 3340.17 961.245 3360.44 955.643 3379 960.007 3401.31 965.231 3416.29 978.154 3429.9 989.839 3438.53 997.263 3450.38 1012.45 3473.79 1042.49 3499.8 1075.93 3505.82 1084.9 3521.18 1096.9 3536.54 1108.89 3538.47 1106.07 3549.26 1116.21 3563.62 1129.68 3569.02 1142.92 3582.59 1174.12 3608.54 1233.79 3606.41 1225.98 3608.92 1233.79 3611.46 1241.79 3612.9 1249.66 3616.17 1265.34 3620.29 1285.17 3621.5 1294.72 3626.48 1323.31 3630.36 1345.52 3632.19 1356.65 3633.49 1361.91 3642.29 1397.55 3655.52 1421.75 3659.82 1430.34 3679.92 1470.48 3677.89 1517.94 3673.87 1612.87 3671.43 1670.43 3670.09 1701.71 3656.31 1742.75 3649.2 1763.92 3645.93 1766.36 3628.23 1814.71 3613.25 1855.61 3610.77 1867.02 3598.4 1895.44 3584.66 1927.06 3577.78 1942.87 3563.31 1960.36 3557.2 1967.79 3542.93 1983.74 3505.4 2006.01 3474.2 2024.53 3439.08 2045.36 3387.83 2055.15 3313.95 2069.28 3252.22 2051.75 3228.13 2044.64 3213.11 2040.2 3208.03 2037.52 3178.99 2028.83 3165.02 2024.65 3153.9 2021.59 3144.47 2019.14 3107.13 2009.47 3104.37 2010.2 3085.99 2004.25 3074.6 2000.57 3066.94 1997.4 3053.14 1991.65 3026.7 1980.62 3003.6 1971 2985.95 1960.36 2942.28 1934.07 2919.71 1894.36 2910.48 1877.88 2903.6 1865.61 2894.19 1837.53 2875.39 1781.34 2862.98 1744.26 2856.69 1725.46 2854.32 1712.91 2849.71 1688.62 2848.31 1665.45 2845.56 1619.91 2844.66 1605.79 2844.11 1594.21 2843.77 1586.54Z" stroke="#000000" stroke-width="20.625" stroke-miterlimit="8" fill="#EBE2B3" fill-rule="evenodd"/><path d="M3087.99 1113.65 3101.13 1088.83 3219.03 1151.28 3205.89 1176.1Z" stroke="#000000" stroke-width="10.3139" stroke-miterlimit="8" fill="#595850" fill-rule="evenodd"/><path d="M3341.67 1145.82 3461.89 1087.95 3474.07 1113.26 3353.85 1171.12Z" stroke="#000000" stroke-width="10.3139" stroke-miterlimit="8" fill="#595850" fill-rule="evenodd"/><path d="M3543 2198C3543 2202.97 3438.46 2207 3309.5 2207 3180.54 2207 3076 2202.97 3076 2198 3076 2193.03 3180.54 2189 3309.5 2189 3438.46 2189 3543 2193.03 3543 2198Z" fill="#5B5742" fill-rule="evenodd" fill-opacity="0.470588"/><path d="M3187.5 1237C3187.5 1259.92 3168.92 1278.5 3146 1278.5 3123.08 1278.5 3104.5 1259.92 3104.5 1237 3104.5 1214.08 3123.08 1195.5 3146 1195.5 3168.92 1195.5 3187.5 1214.08 3187.5 1237Z" stroke="#000000" stroke-width="20.625" stroke-miterlimit="8" fill="#231815" fill-rule="evenodd"/><path d="M3461.5 1237C3461.5 1259.92 3442.92 1278.5 3420 1278.5 3397.08 1278.5 3378.5 1259.92 3378.5 1237 3378.5 1214.08 3397.08 1195.5 3420 1195.5 3442.92 1195.5 3461.5 1214.08 3461.5 1237Z" stroke="#000000" stroke-width="20.625" stroke-miterlimit="8" fill="#231815" fill-rule="evenodd"/><path d="M3170 1250C3170 1261.05 3161.05 1270 3150 1270 3138.95 1270 3130 1261.05 3130 1250 3130 1238.95 3138.95 1230 3150 1230 3161.05 1230 3170 1238.95 3170 1250Z" fill="#FFFFFF" fill-rule="evenodd"/><path d="M3439 1250C3439 1261.05 3430.05 1270 3419 1270 3407.95 1270 3399 1261.05 3399 1250 3399 1238.95 3407.95 1230 3419 1230 3430.05 1230 3439 1238.95 3439 1250Z" fill="#FFFFFF" fill-rule="evenodd"/><path d="M3366 1365C3366 1377.15 3332.2 1387 3290.5 1387 3248.8 1387 3215 1377.15 3215 1365 3215 1352.85 3248.8 1343 3290.5 1343 3332.2 1343 3366 1352.85 3366 1365Z" stroke="#000000" stroke-width="10.3125" stroke-miterlimit="8" fill="#E73A8F" fill-rule="evenodd"/><path d="M2916 1406.84C2910.55 1399.04 2899.63 1386.07 2882.29 1381.34 2870.45 1378.11 2857.92 1381.02 2833.33 1386.97 2816.01 1391.16 2802.9 1394.33 2786.1 1402 2771.26 1408.77 2760.83 1416.15 2739.97 1430.91 2715.44 1448.26 2702.98 1457.21 2693.36 1470.74 2686.89 1479.83 2673.08 1499.23 2679.8 1514.79 2683.92 1524.35 2694.04 1528.45 2697.89 1530.01 2738.42 1546.43 2873.38 1456.29 2893.26 1442.88 2900.84 1430.87 2908.42 1418.85 2916 1406.84Z" fill="#5B5742" fill-rule="evenodd" fill-opacity="0.431373"/><path d="M3048.83 1415.91C3052.76 1427.86 3058.63 1445.74 3050.17 1455.89 3043.33 1464.1 3032.7 1460.55 3006.29 1466.23 3000.91 1467.38 2998.54 1468.14 2972.43 1476.83 2924.62 1492.73 2900.54 1500.75 2891.73 1503.96 2866.84 1513.04 2865.34 1514.79 2836.23 1525.61 2807.61 1536.24 2786.59 1543.12 2751.44 1555.86 2748.05 1557.53 2737.96 1562.57 2725.17 1561.3 2647.61 1548.89 2784.18 1427.03 2799.69 1415.62 2829.71 1392.3 2835.62 1394.89 2893.35 1360.53 2936.88 1334.62 2944.53 1317.78 2962.24 1319.64 2968.81 1320.33 2978.87 1323.73 2990.26 1338.48 2996.33 1344.39 3005.08 1353.29 3014.94 1364.75 3032.31 1384.94 3042.69 1397.24 3048.83 1415.91Z" stroke="#000000" stroke-width="20.625" stroke-miterlimit="8" fill="#EBE2B3" fill-rule="evenodd"/><path d="M3401.8 1591.42C3410.4 1603.32 3449.83 1593.44 3466.54 1587.18 3480.24 1582.06 3493.75 1573.73 3498.93 1570.36 3502.36 1568.18 3509.53 1563.41 3517.96 1556.47 3531.95 1544.93 3537.9 1537.2 3552.66 1520.16 3572.5 1497.24 3586.77 1484.44 3599.43 1460.42 3602.15 1455.27 3605.93 1447.45 3602.84 1441.03 3598.88 1432.87 3586.02 1431.69 3581.43 1431.14 3536.54 1425.93 3381.66 1563.67 3401.8 1591.42L3401.8 1591.42Z" fill="#5B5742" fill-rule="evenodd" fill-opacity="0.431373"/><path d="M3614.08 1283.03C3611.83 1279.96 3605.97 1272.93 3597.04 1271.69 3583.83 1269.86 3568.41 1281.36 3563.13 1300.9 3545.94 1362.39 3529.33 1381.85 3488.59 1441.16 3425.58 1539.1 3381.12 1570.86 3454.84 1564.78 3529.76 1556.95 3637.9 1470.74 3661.5 1417.94 3659.95 1404.65 3656.75 1389 3650.35 1372.23 3648.29 1366.85 3646.09 1361.82 3643.82 1357.16 3640.29 1346.09 3636.2 1334.46 3631.43 1322.38 3625.82 1308.19 3619.96 1295.06 3614.08 1283.03Z" stroke="#000000" stroke-width="20.625" stroke-miterlimit="8" fill="#EBE2B3" fill-rule="evenodd"/></g></svg>