<svg width="1249" height="1259" xmlns="http://www.w3.org/2000/svg" xmlns:xlink="http://www.w3.org/1999/xlink" xml:space="preserve" overflow="hidden"><defs><clipPath id="clip0"><rect x="1112" y="948" width="1249" height="1259"/></clipPath></defs><g clip-path="url(#clip0)" transform="translate(-1112 -948)"><path d="M1723.5 1974.5C1724.33 1989.79 1726.87 1998.5 1729.13 2003.68 1733.66 2014.1 1734.65 2016.87 1736.62 2022.39 1737.12 2023.78 1737.51 2024.9 1737.78 2025.7 1740.67 2034.08 1740.77 2035.7 1746.54 2055.62 1755.82 2087.61 1756.57 2086.92 1758.8 2097.89 1761.9 2112.95 1760.32 2113.33 1764.06 2134.84 1767.53 2154.73 1769.38 2164.79 1774.57 2171.79 1775.91 2173.58 1789.17 2190.92 1807.89 2189.41 1820.19 2188.41 1828.36 2179.75 1834.2 2173.55 1837.74 2169.83 1840.49 2166 1853.5 2138.35 1861.03 2122.39 1864.84 2114.22 1867.55 2106.68 1868.99 2102.68 1869.96 2099.47 1870.68 2096.68 1873.72 2084.9 1875.99 2076.39 1876.31 2075 1878.19 2066.77 1885.16 2051.04 1906.5 2018.51 1876.69 2010.72 1846.28 2003.08 1815.29 1995.62 1784.25 1988.16 1753.64 1981.13 1723.5 1974.5Z" stroke="#000000" stroke-width="20.625" stroke-miterlimit="8" fill="#EBE2B3" fill-rule="evenodd"/><path d="M2080.5 2035.57C2088.1 2052.88 2095.7 2072.55 2102.62 2094.46 2109.43 2116.09 2114.45 2136.35 2118.16 2154.79 2137.22 2201.67 2187.4 2190.13 2193.42 2140.78 2200.41 2119.08 2207.15 2095.94 2213.37 2071.42 2218.98 2049.34 2223.73 2028.05 2227.72 2007.72 2228.28 2003.09 2228.6 1997.97 2228.47 1992.43 2228.09 1975.77 2223.82 1962.09 2219.74 1952.5 2173.33 1980.19 2126.91 2007.88 2080.5 2035.57Z" stroke="#000000" stroke-width="20.625" stroke-miterlimit="8" fill="#EBE2B3" fill-rule="evenodd"/><path d="M1517.77 1586.54C1515.36 1576.88 1512.58 1562.28 1512.51 1544.41 1512.44 1525.4 1515.54 1520.18 1516.02 1504.06 1516.98 1472.13 1505.53 1470.31 1505.5 1442.64 1505.5 1409.79 1521.52 1384.01 1526.57 1375.97 1538.05 1357.58 1542.62 1360.19 1556.4 1339.12 1569.22 1319.53 1575.13 1302.21 1580.97 1284.72 1591.11 1254.37 1588.7 1248.29 1596.78 1219.8 1602.48 1199.66 1609.74 1173.98 1626.61 1147.83 1637.61 1130.78 1656.17 1114.25 1693.28 1081.16 1717.13 1059.88 1734.32 1046.17 1747.69 1035.51 1788.44 1003.07 1801.85 996.129 1807.35 993.379 1826.63 983.825 1843.98 975.198 1867.01 975.817 1878.59 976.126 1896.84 977.26 1916.46 977.088 1919.25 977.054 1925.54 977.088 1933.71 976.573 1937.22 976.332 1943.1 975.886 1950.18 974.923 1962.2 973.308 1971.24 971.177 1974.03 970.524 2014.17 961.245 2034.44 955.643 2053 960.007 2075.31 965.231 2090.29 978.154 2103.9 989.839 2112.53 997.263 2124.38 1012.45 2147.79 1042.49 2173.8 1075.93 2179.82 1084.9 2195.18 1096.9 2210.54 1108.89 2212.47 1106.07 2223.26 1116.21 2237.62 1129.68 2243.02 1142.92 2256.59 1174.12 2282.54 1233.79 2280.41 1225.98 2282.92 1233.79 2285.46 1241.79 2286.9 1249.66 2290.17 1265.34 2294.29 1285.17 2295.5 1294.72 2300.48 1323.31 2304.36 1345.52 2306.19 1356.65 2307.49 1361.91 2316.29 1397.55 2329.52 1421.75 2333.82 1430.34 2353.92 1470.48 2351.89 1517.94 2347.87 1612.87 2345.43 1670.43 2344.09 1701.71 2330.31 1742.75 2323.2 1763.92 2319.93 1766.36 2302.23 1814.71 2287.25 1855.61 2284.77 1867.02 2272.4 1895.44 2258.66 1927.06 2251.78 1942.87 2237.31 1960.36 2231.2 1967.79 2216.93 1983.74 2179.4 2006.01 2148.2 2024.53 2113.08 2045.36 2061.83 2055.15 1987.95 2069.28 1926.22 2051.75 1902.13 2044.64 1887.11 2040.2 1882.03 2037.52 1852.99 2028.83 1839.02 2024.65 1827.9 2021.59 1818.47 2019.14 1781.13 2009.47 1778.37 2010.2 1759.99 2004.25 1748.6 2000.57 1740.94 1997.4 1727.14 1991.65 1700.7 1980.62 1677.6 1971 1659.95 1960.36 1616.28 1934.07 1593.71 1894.36 1584.48 1877.88 1577.6 1865.61 1568.19 1837.53 1549.39 1781.34 1536.98 1744.26 1530.69 1725.46 1528.32 1712.91 1523.71 1688.62 1522.31 1665.45 1519.56 1619.91 1518.66 1605.79 1518.11 1594.21 1517.77 1586.54Z" stroke="#000000" stroke-width="20.625" stroke-miterlimit="8" fill="#EBE2B3" fill-rule="evenodd"/><path d="M1762.43 1113.64 1775.58 1088.82 1893.48 1151.28 1880.33 1176.09Z" stroke="#000000" stroke-width="10.3136" stroke-miterlimit="8" fill="#595850" fill-rule="evenodd"/><path d="M2016.1 1145.78 2136.32 1087.92 2148.5 1113.22 2028.28 1171.08Z" stroke="#000000" stroke-width="10.3136" stroke-miterlimit="8" fill="#595850" fill-rule="evenodd"/><path d="M2218 2198C2218 2202.97 2113.23 2207 1984 2207 1854.77 2207 1750 2202.97 1750 2198 1750 2193.03 1854.77 2189 1984 2189 2113.23 2189 2218 2193.03 2218 2198Z" fill="#5B5742" fill-rule="evenodd" fill-opacity="0.470588"/><path d="M1861.5 1237C1861.5 1259.92 1842.92 1278.5 1820 1278.5 1797.08 1278.5 1778.5 1259.92 1778.5 1237 1778.5 1214.08 1797.08 1195.5 1820 1195.5 1842.92 1195.5 1861.5 1214.08 1861.5 1237Z" stroke="#000000" stroke-width="20.625" stroke-miterlimit="8" fill="#231815" fill-rule="evenodd"/><path d="M2136.5 1237C2136.5 1259.92 2117.7 1278.5 2094.5 1278.5 2071.3 1278.5 2052.5 1259.92 2052.5 1237 2052.5 1214.08 2071.3 1195.5 2094.5 1195.5 2117.7 1195.5 2136.5 1214.08 2136.5 1237Z" stroke="#000000" stroke-width="20.625" stroke-miterlimit="8" fill="#231815" fill-rule="evenodd"/><path d="M1844 1250C1844 1261.05 1835.05 1270 1824 1270 1812.95 1270 1804 1261.05 1804 1250 1804 1238.95 1812.95 1230 1824 1230 1835.05 1230 1844 1238.95 1844 1250Z" fill="#FFFFFF" fill-rule="evenodd"/><path d="M2114 1250C2114 1261.05 2105.05 1270 2094 1270 2082.95 1270 2074 1261.05 2074 1250 2074 1238.95 2082.95 1230 2094 1230 2105.05 1230 2114 1238.95 2114 1250Z" fill="#FFFFFF" fill-rule="evenodd"/><path d="M2040 1365C2040 1377.15 2006.42 1387 1965 1387 1923.58 1387 1890 1377.15 1890 1365 1890 1352.85 1923.58 1343 1965 1343 2006.42 1343 2040 1352.85 2040 1365Z" stroke="#000000" stroke-width="10.3125" stroke-miterlimit="8" fill="#E73A8F" fill-rule="evenodd"/><path d="M2043.85 1780.86 1148.61 1601.53C1131.01 1598 1119.62 1580.89 1123.14 1563.32L1171.96 1319.61C1175.49 1302.01 1192.61 1290.62 1210.18 1294.14L2105.39 1473.46C2122.99 1476.99 2134.38 1494.1 2130.86 1511.67L2082.04 1755.38C2078.55 1772.96 2061.42 1784.38 2043.85 1780.86L2043.85 1780.86Z" stroke="#000000" stroke-width="20.625" stroke-miterlimit="8" fill="#A6A897" fill-rule="evenodd"/><path d="M1433.79 1416.34 1405 1410.59C1400.63 1409.72 1397.8 1405.5 1398.65 1401.14L1401.7 1385.97C1402.58 1381.62 1406.82 1378.81 1411.21 1379.65L1440 1385.4C1444.37 1386.27 1447.2 1390.48 1446.35 1394.85L1443.3 1410.02C1442.4 1414.41 1438.17 1417.22 1433.79 1416.34Z" stroke="#000000" stroke-width="3.4375" stroke-miterlimit="8" fill="#D6DBD9" fill-rule="evenodd"/><path d="M1569.8 1444.34 1541 1438.59C1536.63 1437.72 1533.8 1433.51 1534.65 1429.14L1537.7 1413.97C1538.58 1409.62 1542.82 1406.81 1547.21 1407.65L1576 1413.4C1580.37 1414.27 1583.2 1418.49 1582.35 1422.85L1579.3 1438.02C1578.42 1442.37 1574.17 1445.21 1569.8 1444.34Z" stroke="#000000" stroke-width="3.4375" stroke-miterlimit="8" fill="#D6DBD9" fill-rule="evenodd"/><path d="M1249.8 1379.34 1221 1373.59C1216.63 1372.72 1213.8 1368.51 1214.65 1364.14L1217.7 1348.97C1218.58 1344.62 1222.82 1341.81 1227.21 1342.65L1256 1348.4C1260.37 1349.27 1263.2 1353.49 1262.35 1357.85L1259.3 1373.02C1258.45 1377.39 1254.17 1380.21 1249.8 1379.34Z" stroke="#000000" stroke-width="3.4375" stroke-miterlimit="8" fill="#D6DBD9" fill-rule="evenodd"/><path d="M1310.79 1392.34 1282 1386.43C1277.63 1385.54 1274.8 1381.21 1275.65 1376.73L1278.7 1361.14C1279.58 1356.68 1283.82 1353.79 1288.21 1354.65L1317 1360.56C1321.37 1361.45 1324.2 1365.78 1323.35 1370.26L1320.3 1385.85C1319.43 1390.36 1315.17 1393.23 1310.79 1392.34Z" stroke="#000000" stroke-width="3.4375" stroke-miterlimit="8" fill="#D6DBD9" fill-rule="evenodd"/><path d="M1808.79 1491.35 1780 1485.6C1775.63 1484.73 1772.8 1480.51 1773.65 1476.15L1776.7 1460.97C1777.58 1456.62 1781.82 1453.81 1786.21 1454.65L1815 1460.4C1819.37 1461.27 1822.2 1465.49 1821.35 1469.85L1818.3 1485.03C1817.45 1489.39 1813.18 1492.19 1808.79 1491.35Z" stroke="#000000" stroke-width="3.4375" stroke-miterlimit="8" fill="#D6DBD9" fill-rule="evenodd"/><path d="M1372.8 1404.34 1344 1398.59C1339.63 1397.72 1336.8 1393.51 1337.65 1389.14L1340.7 1373.97C1341.58 1369.62 1345.82 1366.81 1350.21 1367.65L1379 1373.4C1383.37 1374.27 1386.2 1378.48 1385.35 1382.85L1382.3 1398.02C1381.45 1402.38 1377.17 1405.22 1372.8 1404.34Z" stroke="#000000" stroke-width="3.4375" stroke-miterlimit="8" fill="#D6DBD9" fill-rule="evenodd"/><path d="M1631.06 1456.34 1602.87 1450.59C1598.59 1449.72 1595.82 1445.51 1596.65 1441.14L1599.64 1425.97C1600.5 1421.62 1604.65 1418.81 1608.94 1419.65L1637.13 1425.4C1641.41 1426.27 1644.18 1430.49 1643.35 1434.85L1640.36 1450.02C1639.5 1454.37 1635.34 1457.21 1631.06 1456.34Z" stroke="#000000" stroke-width="3.4375" stroke-miterlimit="8" fill="#D6DBD9" fill-rule="evenodd"/><path d="M1689.8 1468.34 1661 1462.59C1656.63 1461.72 1653.8 1457.51 1654.65 1453.14L1657.7 1437.97C1658.58 1433.62 1662.82 1430.81 1667.21 1431.65L1696 1437.4C1700.37 1438.27 1703.2 1442.48 1702.35 1446.85L1699.3 1462.02C1698.4 1466.4 1694.17 1469.21 1689.8 1468.34Z" stroke="#000000" stroke-width="3.4375" stroke-miterlimit="8" fill="#D6DBD9" fill-rule="evenodd"/><path d="M1749.06 1479.34 1720.87 1473.59C1716.59 1472.72 1713.82 1468.51 1714.65 1464.14L1717.64 1448.97C1718.5 1444.62 1722.65 1441.81 1726.94 1442.65L1755.13 1448.4C1759.41 1449.27 1762.18 1453.48 1761.35 1457.85L1758.36 1473.02C1757.53 1477.38 1753.34 1480.22 1749.06 1479.34Z" stroke="#000000" stroke-width="3.4375" stroke-miterlimit="8" fill="#D6DBD9" fill-rule="evenodd"/><path d="M1501.79 1430.34 1473 1424.59C1468.63 1423.72 1465.8 1419.5 1466.65 1415.14L1469.7 1399.97C1470.58 1395.62 1474.82 1392.81 1479.21 1393.65L1508 1399.4C1512.37 1400.27 1515.2 1404.48 1514.35 1408.85L1511.3 1424.02C1510.44 1428.42 1506.17 1431.21 1501.79 1430.34Z" stroke="#000000" stroke-width="3.4375" stroke-miterlimit="8" fill="#D6DBD9" fill-rule="evenodd"/><path d="M1877.06 1503.34 1848.87 1497.59C1844.59 1496.72 1841.82 1492.51 1842.65 1488.14L1845.64 1472.97C1846.5 1468.62 1850.65 1465.81 1854.94 1466.65L1883.13 1472.4C1887.41 1473.27 1890.18 1477.49 1889.35 1481.85L1886.36 1497.02C1885.54 1501.39 1881.34 1504.21 1877.06 1503.34Z" stroke="#000000" stroke-width="3.4375" stroke-miterlimit="8" fill="#D6DBD9" fill-rule="evenodd"/><path d="M1268.93 1430.34 1210.93 1418.63C1206.61 1417.76 1203.81 1413.54 1204.65 1409.17L1207.67 1393.98C1208.54 1389.62 1212.73 1386.81 1217.07 1387.65L1275.07 1399.36C1279.39 1400.23 1282.19 1404.45 1281.35 1408.82L1278.33 1424.01C1277.48 1428.41 1273.26 1431.21 1268.93 1430.34Z" stroke="#000000" stroke-width="3.4375" stroke-miterlimit="8" fill="#D6DBD9" fill-rule="evenodd"/><path d="M1318.6 1439.34 1303.1 1436.33C1298.66 1435.47 1295.79 1431.29 1296.65 1426.96L1299.75 1411.91C1300.64 1407.6 1304.95 1404.81 1309.4 1405.65L1324.9 1408.66C1329.34 1409.52 1332.21 1413.7 1331.35 1418.03L1328.25 1433.08C1327.34 1437.42 1323.04 1440.21 1318.6 1439.34Z" stroke="#000000" stroke-width="3.4375" stroke-miterlimit="8" fill="#D6DBD9" fill-rule="evenodd"/><path d="M1362.97 1448.34 1347.92 1445.33C1343.6 1444.47 1340.81 1440.29 1341.65 1435.96L1344.66 1420.91C1345.53 1416.6 1349.71 1413.81 1354.03 1414.65L1369.08 1417.66C1373.4 1418.52 1376.19 1422.7 1375.35 1427.03L1372.34 1442.08C1371.5 1446.4 1367.28 1449.21 1362.97 1448.34Z" stroke="#000000" stroke-width="3.4375" stroke-miterlimit="8" fill="#D6DBD9" fill-rule="evenodd"/><path d="M1409.97 1458.34 1394.92 1455.24C1390.6 1454.35 1387.81 1450.05 1388.65 1445.59L1391.66 1430.1C1392.53 1425.66 1396.71 1422.79 1401.03 1423.65L1416.08 1426.75C1420.4 1427.64 1423.19 1431.95 1422.35 1436.4L1419.34 1451.89C1418.5 1456.34 1414.28 1459.23 1409.97 1458.34Z" stroke="#000000" stroke-width="3.4375" stroke-miterlimit="8" fill="#D6DBD9" fill-rule="evenodd"/><path d="M1454.6 1467.34 1439.1 1464.24C1434.66 1463.35 1431.79 1459.05 1432.65 1454.59L1435.75 1439.1C1436.64 1434.66 1440.95 1431.79 1445.4 1432.65L1460.9 1435.75C1465.34 1436.64 1468.21 1440.94 1467.35 1445.4L1464.25 1460.89C1463.34 1465.36 1459.04 1468.23 1454.6 1467.34L1454.6 1467.34Z" stroke="#000000" stroke-width="3.4375" stroke-miterlimit="8" fill="#D6DBD9" fill-rule="evenodd"/><path d="M1507.97 1478.34 1492.92 1475.33C1488.6 1474.47 1485.81 1470.29 1486.65 1465.96L1489.66 1450.91C1490.53 1446.6 1494.71 1443.81 1499.03 1444.65L1514.08 1447.66C1518.4 1448.52 1521.19 1452.7 1520.35 1457.03L1517.34 1472.08C1516.51 1476.4 1512.28 1479.21 1507.97 1478.34Z" stroke="#000000" stroke-width="3.4375" stroke-miterlimit="8" fill="#D6DBD9" fill-rule="evenodd"/><path d="M1551.97 1487.34 1536.92 1484.24C1532.6 1483.35 1529.81 1479.04 1530.65 1474.59L1533.66 1459.1C1534.53 1454.66 1538.71 1451.79 1543.03 1452.65L1558.08 1455.75C1562.4 1456.64 1565.19 1460.94 1564.35 1465.4L1561.34 1480.89C1560.49 1485.37 1556.28 1488.23 1551.97 1487.34Z" stroke="#000000" stroke-width="3.4375" stroke-miterlimit="8" fill="#D6DBD9" fill-rule="evenodd"/><path d="M1599.6 1496.34 1584.1 1493.33C1579.66 1492.47 1576.79 1488.29 1577.65 1483.96L1580.75 1468.91C1581.64 1464.6 1585.95 1461.81 1590.4 1462.65L1605.9 1465.66C1610.34 1466.52 1613.21 1470.7 1612.35 1475.03L1609.25 1490.08C1608.34 1494.42 1604.04 1497.21 1599.6 1496.34Z" stroke="#000000" stroke-width="3.4375" stroke-miterlimit="8" fill="#D6DBD9" fill-rule="evenodd"/><path d="M1641.6 1504.34 1626.1 1501.33C1621.66 1500.47 1618.79 1496.29 1619.65 1491.96L1622.75 1476.91C1623.64 1472.6 1627.95 1469.81 1632.4 1470.65L1647.9 1473.66C1652.34 1474.52 1655.21 1478.7 1654.35 1483.03L1651.25 1498.08C1650.36 1502.39 1646.04 1505.21 1641.6 1504.34Z" stroke="#000000" stroke-width="3.4375" stroke-miterlimit="8" fill="#D6DBD9" fill-rule="evenodd"/><path d="M1689.97 1514.34 1674.92 1511.24C1670.6 1510.35 1667.81 1506.05 1668.65 1501.59L1671.66 1486.1C1672.53 1481.66 1676.71 1478.79 1681.03 1479.65L1696.08 1482.75C1700.4 1483.64 1703.19 1487.94 1702.35 1492.4L1699.34 1507.89C1698.48 1512.33 1694.28 1515.23 1689.97 1514.34Z" stroke="#000000" stroke-width="3.4375" stroke-miterlimit="8" fill="#D6DBD9" fill-rule="evenodd"/><path d="M1733.97 1523.34 1718.92 1520.24C1714.6 1519.35 1711.81 1515.04 1712.65 1510.59L1715.66 1495.1C1716.53 1490.66 1720.71 1487.79 1725.03 1488.65L1740.08 1491.75C1744.4 1492.64 1747.19 1496.94 1746.35 1501.4L1743.34 1516.89C1742.51 1521.34 1738.28 1524.23 1733.97 1523.34Z" stroke="#000000" stroke-width="3.4375" stroke-miterlimit="8" fill="#D6DBD9" fill-rule="evenodd"/><path d="M1781.6 1532.34 1766.1 1529.33C1761.66 1528.47 1758.79 1524.29 1759.65 1519.96L1762.75 1504.91C1763.64 1500.6 1767.95 1497.81 1772.4 1498.65L1787.9 1501.66C1792.34 1502.52 1795.21 1506.7 1794.35 1511.03L1791.25 1526.08C1790.37 1530.43 1786.04 1533.21 1781.6 1532.34Z" stroke="#000000" stroke-width="3.4375" stroke-miterlimit="8" fill="#D6DBD9" fill-rule="evenodd"/><path d="M1825.97 1541.34 1810.92 1538.33C1806.6 1537.47 1803.81 1533.29 1804.65 1528.96L1807.66 1513.91C1808.53 1509.6 1812.71 1506.81 1817.03 1507.65L1832.08 1510.66C1836.4 1511.52 1839.19 1515.7 1838.35 1520.03L1835.34 1535.08C1834.46 1539.42 1830.28 1542.21 1825.97 1541.34Z" stroke="#000000" stroke-width="3.4375" stroke-miterlimit="8" fill="#D6DBD9" fill-rule="evenodd"/><path d="M1866.6 1550.34 1851.1 1547.24C1846.66 1546.35 1843.79 1542.04 1844.65 1537.59L1847.75 1522.1C1848.64 1517.66 1852.95 1514.79 1857.4 1515.65L1872.9 1518.75C1877.34 1519.64 1880.21 1523.94 1879.35 1528.4L1876.25 1543.89C1875.37 1548.37 1871.04 1551.23 1866.6 1550.34Z" stroke="#000000" stroke-width="3.4375" stroke-miterlimit="8" fill="#D6DBD9" fill-rule="evenodd"/><path d="M1371.6 1497.34 1356.1 1494.33C1351.66 1493.47 1348.79 1489.29 1349.65 1484.96L1352.75 1469.91C1353.64 1465.6 1357.95 1462.81 1362.4 1463.65L1377.9 1466.66C1382.34 1467.52 1385.21 1471.7 1384.35 1476.03L1381.25 1491.08C1380.35 1495.39 1376.04 1498.21 1371.6 1497.34Z" stroke="#000000" stroke-width="3.4375" stroke-miterlimit="8" fill="#D6DBD9" fill-rule="evenodd"/><path d="M1420.97 1508.34 1405.92 1505.24C1401.6 1504.35 1398.81 1500.05 1399.65 1495.59L1402.66 1480.1C1403.53 1475.66 1407.71 1472.79 1412.03 1473.65L1427.08 1476.75C1431.4 1477.64 1434.19 1481.95 1433.35 1486.4L1430.34 1501.89C1429.47 1506.33 1425.28 1509.23 1420.97 1508.34Z" stroke="#000000" stroke-width="3.4375" stroke-miterlimit="8" fill="#D6DBD9" fill-rule="evenodd"/><path d="M1466.97 1517.34 1451.92 1514.33C1447.6 1513.47 1444.81 1509.29 1445.65 1504.96L1448.66 1489.91C1449.53 1485.6 1453.71 1482.81 1458.03 1483.65L1473.08 1486.66C1477.4 1487.52 1480.19 1491.7 1479.35 1496.03L1476.34 1511.08C1475.5 1515.4 1471.28 1518.21 1466.97 1517.34Z" stroke="#000000" stroke-width="3.4375" stroke-miterlimit="8" fill="#D6DBD9" fill-rule="evenodd"/><path d="M1513.6 1526.34 1498.1 1523.33C1493.66 1522.47 1490.79 1518.29 1491.65 1513.96L1494.75 1498.91C1495.64 1494.6 1499.95 1491.81 1504.4 1492.65L1519.9 1495.66C1524.34 1496.52 1527.21 1500.7 1526.35 1505.03L1523.25 1520.08C1522.34 1524.42 1518.04 1527.21 1513.6 1526.34Z" stroke="#000000" stroke-width="3.4375" stroke-miterlimit="8" fill="#D6DBD9" fill-rule="evenodd"/><path d="M1561.97 1536.34 1546.92 1533.24C1542.6 1532.35 1539.81 1528.04 1540.65 1523.59L1543.66 1508.1C1544.53 1503.66 1548.71 1500.79 1553.03 1501.65L1568.08 1504.75C1572.4 1505.64 1575.19 1509.94 1574.35 1514.4L1571.34 1529.89C1570.51 1534.34 1566.28 1537.23 1561.97 1536.34Z" stroke="#000000" stroke-width="3.4375" stroke-miterlimit="8" fill="#D6DBD9" fill-rule="evenodd"/><path d="M1609.6 1545.34 1594.1 1542.33C1589.66 1541.47 1586.79 1537.29 1587.65 1532.96L1590.75 1517.91C1591.64 1513.6 1595.95 1510.81 1600.4 1511.65L1615.9 1514.66C1620.34 1515.52 1623.21 1519.7 1622.35 1524.03L1619.25 1539.08C1618.39 1543.4 1614.04 1546.21 1609.6 1545.34Z" stroke="#000000" stroke-width="3.4375" stroke-miterlimit="8" fill="#D6DBD9" fill-rule="evenodd"/><path d="M1649.97 1550.34 1634.92 1547.24C1630.6 1546.35 1627.81 1542.05 1628.65 1537.59L1631.66 1522.1C1632.53 1517.66 1636.71 1514.79 1641.03 1515.65L1656.08 1518.75C1660.4 1519.64 1663.19 1523.95 1662.35 1528.4L1659.34 1543.89C1658.49 1548.37 1654.28 1551.23 1649.97 1550.34Z" stroke="#000000" stroke-width="3.4375" stroke-miterlimit="8" fill="#D6DBD9" fill-rule="evenodd"/><path d="M1697.97 1559.34 1682.92 1556.33C1678.6 1555.47 1675.81 1551.29 1676.65 1546.96L1679.66 1531.91C1680.53 1527.6 1684.71 1524.81 1689.03 1525.65L1704.08 1528.66C1708.4 1529.52 1711.19 1533.7 1710.35 1538.03L1707.34 1553.08C1706.49 1557.43 1702.28 1560.21 1697.97 1559.34Z" stroke="#000000" stroke-width="3.4375" stroke-miterlimit="8" fill="#D6DBD9" fill-rule="evenodd"/><path d="M1742.6 1568.34 1727.1 1565.33C1722.66 1564.47 1719.79 1560.29 1720.65 1555.96L1723.75 1540.91C1724.64 1536.6 1728.95 1533.81 1733.4 1534.65L1748.9 1537.66C1753.34 1538.52 1756.21 1542.7 1755.35 1547.03L1752.25 1562.08C1751.34 1566.42 1747.04 1569.21 1742.6 1568.34Z" stroke="#000000" stroke-width="3.4375" stroke-miterlimit="8" fill="#D6DBD9" fill-rule="evenodd"/><path d="M1789.97 1578.34 1774.92 1575.24C1770.6 1574.35 1767.81 1570.05 1768.65 1565.59L1771.66 1550.1C1772.53 1545.66 1776.71 1542.79 1781.03 1543.65L1796.08 1546.75C1800.4 1547.64 1803.19 1551.95 1802.35 1556.4L1799.34 1571.89C1798.47 1576.33 1794.28 1579.23 1789.97 1578.34Z" stroke="#000000" stroke-width="3.4375" stroke-miterlimit="8" fill="#D6DBD9" fill-rule="evenodd"/><path d="M1279.92 1479.34 1201.94 1463.63C1197.61 1462.76 1194.81 1458.54 1195.65 1454.17L1198.67 1438.98C1199.54 1434.62 1203.74 1431.81 1208.08 1432.65L1286.06 1448.36C1290.39 1449.23 1293.19 1453.45 1292.35 1457.82L1289.33 1473.01C1288.49 1477.38 1284.25 1480.22 1279.92 1479.34Z" stroke="#000000" stroke-width="3.4375" stroke-miterlimit="8" fill="#D6DBD9" fill-rule="evenodd"/><path d="M1338.97 1541.34 1323.92 1538.24C1319.6 1537.35 1316.81 1533.05 1317.65 1528.59L1320.66 1513.1C1321.53 1508.66 1325.71 1505.79 1330.03 1506.65L1345.08 1509.75C1349.4 1510.64 1352.19 1514.95 1351.35 1519.4L1348.34 1534.89C1347.47 1539.33 1343.28 1542.23 1338.97 1541.34Z" stroke="#000000" stroke-width="3.4375" stroke-miterlimit="8" fill="#D6DBD9" fill-rule="evenodd"/><path d="M1323.6 1488.34 1308.1 1485.24C1303.66 1484.35 1300.79 1480.04 1301.65 1475.59L1304.75 1460.1C1305.64 1455.66 1309.95 1452.79 1314.4 1453.65L1329.9 1456.75C1334.34 1457.64 1337.21 1461.94 1336.35 1466.4L1333.25 1481.89C1332.39 1486.34 1328.04 1489.23 1323.6 1488.34Z" stroke="#000000" stroke-width="3.4375" stroke-miterlimit="8" fill="#D6DBD9" fill-rule="evenodd"/><path d="M1852.78 1592.34 1815.01 1584.77C1810.63 1583.89 1807.8 1579.65 1808.65 1575.27L1811.71 1560C1812.59 1555.63 1816.83 1552.8 1821.22 1553.65L1858.99 1561.22C1863.37 1562.1 1866.2 1566.34 1865.35 1570.72L1862.29 1585.99C1861.4 1590.39 1857.16 1593.22 1852.78 1592.34L1852.78 1592.34Z" stroke="#000000" stroke-width="3.4375" stroke-miterlimit="8" fill="#D6DBD9" fill-rule="evenodd"/><path d="M1291.77 1529.34 1192.02 1509.55C1187.63 1508.68 1184.8 1504.47 1185.65 1500.11L1188.71 1484.96C1189.59 1480.62 1193.83 1477.81 1198.23 1478.65L1297.99 1498.44C1302.37 1499.32 1305.2 1503.52 1304.35 1507.88L1301.29 1523.03C1300.41 1527.37 1296.15 1530.22 1291.77 1529.34Z" stroke="#000000" stroke-width="3.4375" stroke-miterlimit="8" fill="#D6DBD9" fill-rule="evenodd"/><path d="M1386.97 1549.34 1371.92 1546.24C1367.6 1545.35 1364.81 1541.05 1365.65 1536.59L1368.66 1521.1C1369.53 1516.66 1373.71 1513.79 1378.03 1514.65L1393.08 1517.75C1397.4 1518.64 1400.19 1522.95 1399.35 1527.4L1396.34 1542.89C1395.51 1547.34 1391.28 1550.23 1386.97 1549.34Z" stroke="#000000" stroke-width="3.4375" stroke-miterlimit="8" fill="#D6DBD9" fill-rule="evenodd"/><path d="M1438.97 1559.34 1423.92 1556.33C1419.6 1555.47 1416.81 1551.29 1417.65 1546.96L1420.66 1531.91C1421.53 1527.6 1425.71 1524.81 1430.03 1525.65L1445.08 1528.66C1449.4 1529.52 1452.19 1533.7 1451.35 1538.03L1448.34 1553.08C1447.49 1557.43 1443.28 1560.21 1438.97 1559.34Z" stroke="#000000" stroke-width="3.4375" stroke-miterlimit="8" fill="#D6DBD9" fill-rule="evenodd"/><path d="M1484.97 1568.34 1469.92 1565.33C1465.6 1564.47 1462.81 1560.29 1463.65 1555.96L1466.66 1540.91C1467.53 1536.6 1471.71 1533.81 1476.03 1534.65L1491.08 1537.66C1495.4 1538.52 1498.19 1542.7 1497.35 1547.03L1494.34 1562.08C1493.49 1566.43 1489.28 1569.21 1484.97 1568.34Z" stroke="#000000" stroke-width="3.4375" stroke-miterlimit="8" fill="#D6DBD9" fill-rule="evenodd"/><path d="M1531.6 1577.34 1516.1 1574.33C1511.66 1573.47 1508.79 1569.29 1509.65 1564.96L1512.75 1549.91C1513.64 1545.6 1517.95 1542.81 1522.4 1543.65L1537.9 1546.66C1542.34 1547.52 1545.21 1551.7 1544.35 1556.03L1541.25 1571.08C1540.35 1575.39 1536.04 1578.21 1531.6 1577.34Z" stroke="#000000" stroke-width="3.4375" stroke-miterlimit="8" fill="#D6DBD9" fill-rule="evenodd"/><path d="M1579.97 1587.35 1564.92 1584.34C1560.6 1583.47 1557.81 1579.29 1558.65 1574.97L1561.66 1559.92C1562.53 1555.6 1566.71 1552.81 1571.03 1553.65L1586.08 1556.66C1590.4 1557.52 1593.19 1561.71 1592.35 1566.03L1589.34 1581.08C1588.5 1585.41 1584.29 1588.19 1579.97 1587.35Z" stroke="#000000" stroke-width="3.4375" stroke-miterlimit="8" fill="#D6DBD9" fill-rule="evenodd"/><path d="M1626.97 1596.34 1611.92 1593.33C1607.6 1592.47 1604.81 1588.29 1605.65 1583.96L1608.66 1568.91C1609.53 1564.6 1613.71 1561.81 1618.03 1562.65L1633.08 1565.66C1637.4 1566.52 1640.19 1570.7 1639.35 1575.03L1636.34 1590.08C1635.46 1594.42 1631.28 1597.21 1626.97 1596.34Z" stroke="#000000" stroke-width="3.4375" stroke-miterlimit="8" fill="#D6DBD9" fill-rule="evenodd"/><path d="M1667.97 1601.34 1652.92 1598.33C1648.6 1597.46 1645.81 1593.29 1646.65 1588.96L1649.66 1573.91C1650.53 1569.6 1654.71 1566.81 1659.03 1567.65L1674.08 1570.66C1678.4 1571.52 1681.19 1575.7 1680.35 1580.03L1677.34 1595.08C1676.49 1599.43 1672.28 1602.21 1667.97 1601.34Z" stroke="#000000" stroke-width="3.4375" stroke-miterlimit="8" fill="#D6DBD9" fill-rule="evenodd"/><path d="M1715.97 1611.34 1700.92 1608.24C1696.6 1607.35 1693.81 1603.04 1694.65 1598.59L1697.66 1583.1C1698.53 1578.66 1702.71 1575.79 1707.03 1576.65L1722.08 1579.75C1726.4 1580.64 1729.19 1584.94 1728.35 1589.4L1725.34 1604.89C1724.51 1609.34 1720.28 1612.23 1715.97 1611.34Z" stroke="#000000" stroke-width="3.4375" stroke-miterlimit="8" fill="#D6DBD9" fill-rule="evenodd"/><path d="M1760.6 1620.34 1745.1 1617.24C1740.66 1616.35 1737.79 1612.05 1738.65 1607.59L1741.75 1592.1C1742.64 1587.66 1746.95 1584.79 1751.4 1585.65L1766.9 1588.75C1771.34 1589.64 1774.21 1593.94 1773.35 1598.4L1770.25 1613.89C1769.35 1618.33 1765.04 1621.23 1760.6 1620.34Z" stroke="#000000" stroke-width="3.4375" stroke-miterlimit="8" fill="#D6DBD9" fill-rule="evenodd"/><path d="M1849.81 1633.34 1790.99 1621.6C1786.63 1620.73 1783.8 1616.52 1784.65 1612.15L1787.7 1596.97C1788.57 1592.62 1792.81 1589.81 1797.19 1590.65L1856.01 1602.39C1860.37 1603.26 1863.2 1607.47 1862.35 1611.84L1859.3 1627.02C1858.41 1631.4 1854.18 1634.22 1849.81 1633.34Z" stroke="#000000" stroke-width="3.4375" stroke-miterlimit="8" fill="#D6DBD9" fill-rule="evenodd"/><path d="M1194.6 1554.34 1179.1 1551.33C1174.66 1550.46 1171.79 1546.28 1172.65 1541.96L1175.75 1526.91C1176.64 1522.6 1180.95 1519.81 1185.4 1520.65L1200.9 1523.66C1205.34 1524.52 1208.21 1528.7 1207.35 1533.03L1204.25 1548.07C1203.37 1552.43 1199.07 1555.22 1194.6 1554.34Z" stroke="#000000" stroke-width="3.4375" stroke-miterlimit="8" fill="#D6DBD9" fill-rule="evenodd"/><path d="M1238.97 1563.34 1223.92 1560.33C1219.6 1559.47 1216.81 1555.29 1217.65 1550.96L1220.66 1535.91C1221.53 1531.6 1225.71 1528.81 1230.03 1529.65L1245.08 1532.66C1249.4 1533.52 1252.19 1537.7 1251.35 1542.03L1248.34 1557.08C1247.46 1561.42 1243.28 1564.21 1238.97 1563.34Z" stroke="#000000" stroke-width="3.4375" stroke-miterlimit="8" fill="#D6DBD9" fill-rule="evenodd"/><path d="M1285.97 1573.34 1270.92 1570.24C1266.6 1569.35 1263.81 1565.04 1264.65 1560.59L1267.66 1545.1C1268.53 1540.66 1272.71 1537.79 1277.03 1538.65L1292.08 1541.75C1296.4 1542.64 1299.19 1546.94 1298.35 1551.4L1295.34 1566.89C1294.51 1571.34 1290.28 1574.23 1285.97 1573.34Z" stroke="#000000" stroke-width="3.4375" stroke-miterlimit="8" fill="#D6DBD9" fill-rule="evenodd"/><path d="M1330.97 1582.34 1315.92 1579.24C1311.6 1578.35 1308.81 1574.05 1309.65 1569.59L1312.66 1554.1C1313.53 1549.66 1317.71 1546.79 1322.03 1547.65L1337.08 1550.75C1341.4 1551.64 1344.19 1555.95 1343.35 1560.4L1340.34 1575.89C1339.47 1580.33 1335.28 1583.23 1330.97 1582.34Z" stroke="#000000" stroke-width="3.4375" stroke-miterlimit="8" fill="#D6DBD9" fill-rule="evenodd"/><path d="M1383.97 1593.34 1368.92 1590.33C1364.6 1589.47 1361.81 1585.29 1362.65 1580.96L1365.66 1565.91C1366.53 1561.6 1370.71 1558.81 1375.03 1559.65L1390.08 1562.66C1394.4 1563.52 1397.19 1567.7 1396.35 1572.03L1393.34 1587.08C1392.47 1591.39 1388.28 1594.21 1383.97 1593.34Z" stroke="#000000" stroke-width="3.4375" stroke-miterlimit="8" fill="#D6DBD9" fill-rule="evenodd"/><path d="M1565.81 1629.34 1414 1598.83C1409.63 1597.95 1406.8 1593.7 1407.65 1589.31L1410.7 1574.02C1411.58 1569.64 1415.81 1566.8 1420.19 1567.65L1572 1598.16C1576.37 1599.04 1579.2 1603.29 1578.35 1607.68L1575.3 1622.97C1574.44 1627.4 1570.18 1630.22 1565.81 1629.34Z" stroke="#000000" stroke-width="3.4375" stroke-miterlimit="8" fill="#D6DBD9" fill-rule="evenodd"/><path d="M1609.97 1638.34 1594.92 1635.33C1590.6 1634.47 1587.81 1630.29 1588.65 1625.96L1591.66 1610.91C1592.53 1606.6 1596.71 1603.81 1601.03 1604.65L1616.08 1607.66C1620.4 1608.52 1623.19 1612.7 1622.35 1617.03L1619.34 1632.08C1618.47 1636.39 1614.28 1639.21 1609.97 1638.34Z" stroke="#000000" stroke-width="3.4375" stroke-miterlimit="8" fill="#D6DBD9" fill-rule="evenodd"/><path d="M1657.6 1647.34 1642.1 1644.33C1637.66 1643.47 1634.79 1639.29 1635.65 1634.96L1638.75 1619.91C1639.64 1615.6 1643.95 1612.81 1648.4 1613.65L1663.9 1616.66C1668.34 1617.52 1671.21 1621.7 1670.35 1626.03L1667.25 1641.08C1666.38 1645.4 1662.04 1648.21 1657.6 1647.34Z" stroke="#000000" stroke-width="3.4375" stroke-miterlimit="8" fill="#D6DBD9" fill-rule="evenodd"/><path d="M1701.97 1656.35 1686.92 1653.34C1682.6 1652.47 1679.81 1648.29 1680.65 1643.97L1683.66 1628.92C1684.53 1624.6 1688.71 1621.81 1693.03 1622.65L1708.08 1625.66C1712.4 1626.53 1715.19 1630.71 1714.35 1635.03L1711.34 1650.09C1710.48 1654.4 1706.29 1657.19 1701.97 1656.35Z" stroke="#000000" stroke-width="3.4375" stroke-miterlimit="8" fill="#D6DBD9" fill-rule="evenodd"/><path d="M1742.97 1665.34 1727.92 1662.33C1723.6 1661.47 1720.81 1657.29 1721.65 1652.96L1724.66 1637.91C1725.53 1633.6 1729.71 1630.81 1734.03 1631.65L1749.08 1634.66C1753.4 1635.52 1756.19 1639.7 1755.35 1644.03L1752.34 1659.08C1751.5 1663.4 1747.28 1666.21 1742.97 1665.34Z" stroke="#000000" stroke-width="3.4375" stroke-miterlimit="8" fill="#D6DBD9" fill-rule="evenodd"/><path d="M1791.6 1673.34 1776.1 1670.24C1771.66 1669.35 1768.79 1665.04 1769.65 1660.59L1772.75 1645.1C1773.64 1640.66 1777.95 1637.79 1782.4 1638.65L1797.9 1641.75C1802.34 1642.64 1805.21 1646.94 1804.35 1651.4L1801.25 1666.89C1800.37 1671.37 1796.04 1674.23 1791.6 1673.34Z" stroke="#000000" stroke-width="3.4375" stroke-miterlimit="8" fill="#D6DBD9" fill-rule="evenodd"/><path d="M1838.97 1682.34 1823.92 1679.33C1819.6 1678.47 1816.81 1674.29 1817.65 1669.96L1820.66 1654.91C1821.53 1650.6 1825.71 1647.81 1830.03 1648.65L1845.08 1651.66C1849.4 1652.52 1852.19 1656.7 1851.35 1661.03L1848.34 1676.08C1847.46 1680.42 1843.28 1683.21 1838.97 1682.34Z" stroke="#000000" stroke-width="3.4375" stroke-miterlimit="8" fill="#D6DBD9" fill-rule="evenodd"/><path d="M1942.6 1564.35 1927.1 1561.34C1922.66 1560.47 1919.79 1556.29 1920.65 1551.97L1923.75 1536.92C1924.64 1532.6 1928.95 1529.81 1933.4 1530.65L1948.9 1533.66C1953.34 1534.52 1956.21 1538.71 1955.35 1543.03L1952.25 1558.08C1951.38 1562.41 1947.05 1565.19 1942.6 1564.35Z" stroke="#000000" stroke-width="3.4375" stroke-miterlimit="8" fill="#D6DBD9" fill-rule="evenodd"/><path d="M2033.6 1583.34 2018.1 1580.24C2013.66 1579.35 2010.79 1575.05 2011.65 1570.59L2014.75 1555.1C2015.64 1550.66 2019.95 1547.79 2024.4 1548.65L2039.9 1551.75C2044.34 1552.64 2047.21 1556.95 2046.35 1561.4L2043.25 1576.89C2042.39 1581.34 2038.04 1584.23 2033.6 1583.34Z" stroke="#000000" stroke-width="3.4375" stroke-miterlimit="8" fill="#D6DBD9" fill-rule="evenodd"/><path d="M1987.6 1573.34 1972.1 1570.33C1967.66 1569.47 1964.79 1565.29 1965.65 1560.96L1968.75 1545.91C1969.64 1541.6 1973.95 1538.81 1978.4 1539.65L1993.9 1542.66C1998.34 1543.52 2001.21 1547.7 2000.35 1552.03L1997.25 1567.08C1996.35 1571.39 1992.04 1574.21 1987.6 1573.34Z" stroke="#000000" stroke-width="3.4375" stroke-miterlimit="8" fill="#D6DBD9" fill-rule="evenodd"/><path d="M1933.97 1608.34 1918.92 1605.33C1914.6 1604.47 1911.81 1600.29 1912.65 1595.96L1915.66 1580.91C1916.53 1576.6 1920.71 1573.81 1925.03 1574.65L1940.08 1577.66C1944.4 1578.52 1947.19 1582.7 1946.35 1587.03L1943.34 1602.08C1942.48 1606.39 1938.28 1609.21 1933.97 1608.34Z" stroke="#000000" stroke-width="3.4375" stroke-miterlimit="8" fill="#D6DBD9" fill-rule="evenodd"/><path d="M1978.97 1616.34 1963.92 1613.24C1959.6 1612.35 1956.81 1608.05 1957.65 1603.59L1960.66 1588.1C1961.53 1583.66 1965.71 1580.79 1970.03 1581.65L1985.08 1584.75C1989.4 1585.64 1992.19 1589.95 1991.35 1594.4L1988.34 1609.89C1987.47 1614.33 1983.28 1617.23 1978.97 1616.34Z" stroke="#000000" stroke-width="3.4375" stroke-miterlimit="8" fill="#D6DBD9" fill-rule="evenodd"/><path d="M2024.97 1625.34 2009.92 1622.33C2005.6 1621.47 2002.81 1617.29 2003.65 1612.96L2006.66 1597.91C2007.53 1593.6 2011.71 1590.81 2016.03 1591.65L2031.08 1594.66C2035.4 1595.52 2038.19 1599.7 2037.35 1604.03L2034.34 1619.08C2033.49 1623.43 2029.28 1626.21 2024.97 1625.34Z" stroke="#000000" stroke-width="3.4375" stroke-miterlimit="8" fill="#D6DBD9" fill-rule="evenodd"/><path d="M1925.6 1651.34 1910.1 1648.33C1905.66 1647.47 1902.79 1643.29 1903.65 1638.96L1906.75 1623.91C1907.64 1619.6 1911.95 1616.81 1916.4 1617.65L1931.9 1620.66C1936.34 1621.52 1939.21 1625.7 1938.35 1630.03L1935.25 1645.08C1934.34 1649.42 1930.04 1652.21 1925.6 1651.34Z" stroke="#000000" stroke-width="3.4375" stroke-miterlimit="8" fill="#D6DBD9" fill-rule="evenodd"/><path d="M1970.97 1656.34 1955.92 1653.33C1951.6 1652.46 1948.81 1648.29 1949.65 1643.96L1952.66 1628.91C1953.53 1624.6 1957.71 1621.81 1962.03 1622.65L1977.08 1625.66C1981.4 1626.52 1984.19 1630.7 1983.35 1635.03L1980.34 1650.08C1979.49 1654.44 1975.28 1657.21 1970.97 1656.34Z" stroke="#000000" stroke-width="3.4375" stroke-miterlimit="8" fill="#D6DBD9" fill-rule="evenodd"/><path d="M2018.6 1667.34 2003.1 1664.33C1998.66 1663.47 1995.79 1659.29 1996.65 1654.96L1999.75 1639.91C2000.64 1635.6 2004.95 1632.81 2009.4 1633.65L2024.9 1636.66C2029.34 1637.52 2032.21 1641.7 2031.35 1646.03L2028.25 1661.08C2027.39 1665.4 2023.04 1668.21 2018.6 1667.34Z" stroke="#000000" stroke-width="3.4375" stroke-miterlimit="8" fill="#D6DBD9" fill-rule="evenodd"/><path d="M1970.88 1703.34 1901.96 1689.53C1897.62 1688.66 1894.81 1684.45 1895.65 1680.1L1898.68 1664.96C1899.55 1660.61 1903.77 1657.81 1908.12 1658.65L1977.04 1672.46C1981.38 1673.33 1984.19 1677.53 1983.35 1681.89L1980.32 1697.03C1979.46 1701.42 1975.22 1704.21 1970.88 1703.34L1970.88 1703.34Z" stroke="#000000" stroke-width="3.4375" stroke-miterlimit="8" fill="#D6DBD9" fill-rule="evenodd"/><path d="M2009.97 1710.34 1994.92 1707.33C1990.6 1706.47 1987.81 1702.29 1988.65 1697.96L1991.66 1682.91C1992.53 1678.6 1996.71 1675.81 2001.03 1676.65L2016.08 1679.66C2020.4 1680.52 2023.19 1684.7 2022.35 1689.03L2019.34 1704.08C2018.51 1708.4 2014.28 1711.21 2009.97 1710.34Z" stroke="#000000" stroke-width="3.4375" stroke-miterlimit="8" fill="#D6DBD9" fill-rule="evenodd"/><path d="M1638.56 1430.43C1629.35 1428.08 1612.62 1425.4 1596.43 1433.15 1585.38 1438.44 1577.83 1448.84 1563.17 1469.43 1552.84 1483.94 1545.02 1494.92 1537.37 1511.72 1530.6 1526.56 1527.56 1538.98 1521.48 1563.8 1514.33 1593 1510.78 1607.93 1512.38 1624.48 1513.45 1635.6 1515.73 1659.34 1530.98 1666.74 1540.35 1671.29 1550.67 1667.78 1554.6 1666.44 1595.93 1652.37 1638.77 1495.79 1645 1472.62 1642.85 1458.55 1640.71 1444.49 1638.56 1430.43Z" fill="#5B5742" fill-rule="evenodd" fill-opacity="0.431373"/><path d="M1771.74 1315.86C1780.22 1319.93 1794.03 1326.77 1795.39 1338.08 1796.31 1345.7 1791.27 1352.72 1781.33 1366.24 1775.64 1373.96 1771.35 1376.62 1765.97 1384.61 1743.92 1417.37 1711.81 1470.07 1688.3 1507.09 1654.34 1569.28 1642.01 1586.83 1612.73 1636.03 1611.17 1639.46 1606.55 1649.76 1595.88 1656.87 1528.19 1696.38 1556.78 1515.71 1561.56 1497.07 1570.04 1460.04 1576.22 1458.31 1599.13 1395.18 1622.27 1331.39 1619.17 1324.27 1632.25 1314.69 1659.54 1310.02 1682.77 1308.01 1700.25 1307.1 1737.14 1305.18 1754.94 1307.8 1771.74 1315.86Z" stroke="#000000" stroke-width="20.625" stroke-miterlimit="8" fill="#EBE2B3" fill-rule="evenodd"/><path d="M2045.78 1564.95C2051.76 1578.44 2092.41 1576.88 2110.06 1574.17 2124.55 1571.97 2139.49 1566.56 2145.26 1564.32 2149.07 1562.88 2157.07 1559.67 2166.76 1554.58 2182.84 1546.12 2190.26 1539.74 2208.23 1526.02 2232.38 1507.58 2248.99 1497.93 2266.33 1476.9 2270.07 1472.4 2275.38 1465.48 2273.67 1458.53 2271.48 1449.68 2259.12 1445.85 2254.73 1444.37 2211.83 1429.95 2031.76 1533.47 2045.78 1564.95L2045.78 1564.95Z" fill="#5B5742" fill-rule="evenodd" fill-opacity="0.431373"/><path d="M2318.03 1306.35C2316.47 1302.88 2312.17 1294.78 2303.69 1291.73 2291.14 1287.21 2273.67 1295.31 2264.49 1313.38 2235 1370.14 2214.74 1385.8 2162.65 1435.56 2080.81 1518.63 2030.75 1540.61 2104.16 1549.84 2179.12 1557.59 2302.72 1495.34 2336.69 1448.42 2337.91 1435.07 2338 1419.06 2335.18 1401.3 2334.28 1395.59 2333.16 1390.22 2331.9 1385.17 2330.72 1373.6 2329.1 1361.34 2326.92 1348.52 2324.36 1333.44 2321.31 1319.36 2318.03 1306.35Z" stroke="#000000" stroke-width="20.625" stroke-miterlimit="8" fill="#EBE2B3" fill-rule="evenodd"/></g></svg>