<svg width="880" height="1077" xmlns="http://www.w3.org/2000/svg" xmlns:xlink="http://www.w3.org/1999/xlink" xml:space="preserve" overflow="hidden"><defs><clipPath id="clip0"><rect x="768" y="854" width="880" height="1077"/></clipPath></defs><g clip-path="url(#clip0)" transform="translate(-768 -854)"><path d="M997 1732C997.706 1745.01 999.875 1752.42 1001.8 1756.83 1005.66 1765.71 1006.51 1768.06 1008.19 1772.76 1008.61 1773.95 1008.94 1774.9 1009.18 1775.58 1011.63 1782.71 1011.72 1784.09 1016.64 1801.05 1024.55 1828.28 1025.19 1827.69 1027.09 1837.02 1029.73 1849.84 1028.38 1850.17 1031.57 1868.47 1034.53 1885.4 1036.11 1893.97 1040.53 1899.93 1041.68 1901.45 1052.98 1916.21 1068.94 1914.92 1079.42 1914.07 1086.39 1906.71 1091.37 1901.42 1094.38 1898.26 1096.73 1895 1107.82 1871.47 1114.23 1857.88 1117.49 1850.93 1119.8 1844.5 1121.03 1841.1 1121.85 1838.37 1122.46 1835.99 1125.06 1825.97 1126.99 1818.73 1127.27 1817.54 1128.86 1810.54 1134.81 1797.15 1153 1769.46 1127.59 1762.83 1101.67 1756.32 1075.25 1749.98 1048.79 1743.62 1022.69 1737.64 997 1732Z" stroke="#000000" stroke-width="17.6094" stroke-miterlimit="8" fill="#EBE2B3" fill-rule="evenodd"/><path d="M1302 1783.9C1308.52 1798.67 1315.05 1815.46 1320.98 1834.16 1326.82 1852.62 1331.13 1869.91 1334.32 1885.65 1350.67 1925.65 1393.73 1915.8 1398.9 1873.69 1404.89 1855.17 1410.68 1835.42 1416.02 1814.49 1420.83 1795.65 1424.9 1777.48 1428.33 1760.13 1428.81 1756.18 1429.09 1751.81 1428.98 1747.08 1428.65 1732.86 1424.98 1721.19 1421.49 1713 1381.66 1736.63 1341.83 1760.26 1302 1783.9Z" stroke="#000000" stroke-width="17.6094" stroke-miterlimit="8" fill="#EBE2B3" fill-rule="evenodd"/><path d="M821.497 1399.86C819.439 1391.6 817.057 1379.11 816.999 1363.84 816.94 1347.59 819.586 1343.13 819.998 1329.35 820.821 1302.06 811.029 1300.5 811 1276.85 811 1248.76 824.703 1226.73 829.025 1219.85 838.847 1204.14 842.758 1206.37 854.549 1188.36 865.517 1171.62 870.575 1156.81 875.574 1141.86 884.248 1115.91 882.19 1110.71 889.1 1086.36 893.982 1069.14 900.186 1047.2 914.624 1024.84 924.034 1010.27 939.912 996.139 971.67 967.847 992.077 949.662 1006.78 937.94 1018.22 928.833 1053.09 901.1 1064.56 895.166 1069.27 892.815 1085.76 884.648 1100.61 877.274 1120.31 877.803 1130.22 878.067 1145.84 879.037 1162.63 878.89 1165.01 878.86 1170.39 878.89 1177.39 878.449 1180.39 878.244 1185.42 877.862 1191.47 877.039 1201.77 875.658 1209.5 873.837 1211.88 873.279 1246.23 865.346 1263.58 860.558 1279.45 864.289 1298.54 868.754 1311.36 879.801 1323 889.789 1330.38 896.135 1340.53 909.12 1360.55 934.797 1382.81 963.382 1387.96 971.05 1401.1 981.303 1414.25 991.556 1415.9 989.147 1425.13 997.813 1437.42 1009.33 1442.04 1020.64 1453.65 1047.32 1475.85 1098.32 1474.03 1091.65 1476.18 1098.32 1478.35 1105.16 1479.59 1111.89 1482.38 1125.29 1485.91 1142.24 1486.94 1150.4 1491.2 1174.85 1494.52 1193.83 1496.08 1203.34 1497.2 1207.84 1504.73 1238.3 1516.05 1258.99 1519.72 1266.33 1536.93 1300.65 1535.19 1341.22 1531.75 1422.36 1529.66 1471.57 1528.52 1498.3 1516.73 1533.38 1510.64 1551.48 1507.85 1553.56 1492.7 1594.9 1479.88 1629.86 1477.76 1639.61 1467.18 1663.91 1455.42 1690.94 1449.53 1704.45 1437.16 1719.4 1431.92 1725.75 1419.72 1739.38 1387.61 1758.42 1360.91 1774.25 1330.86 1792.06 1287.01 1800.43 1223.79 1812.5 1170.98 1797.52 1150.37 1791.44 1137.52 1787.65 1133.16 1785.36 1108.32 1777.93 1096.37 1774.35 1086.86 1771.74 1078.78 1769.65 1046.84 1761.38 1044.47 1762 1028.75 1756.92 1019 1753.77 1012.45 1751.06 1000.64 1746.14 978.016 1736.72 958.25 1728.49 943.147 1719.4 905.785 1696.93 886.474 1662.99 878.573 1648.9 872.692 1638.41 864.635 1614.41 848.55 1566.37 837.935 1534.67 832.554 1518.6 830.525 1507.88 826.585 1487.11 825.379 1467.31 823.027 1428.38 822.262 1416.31 821.792 1406.41 821.497 1399.86Z" stroke="#000000" stroke-width="17.6094" stroke-miterlimit="8" fill="#EBE2B3" fill-rule="evenodd"/><path d="M1030.88 995.746 1042.12 974.523 1142.94 1027.93 1131.7 1049.15Z" stroke="#000000" stroke-width="8.80541" stroke-miterlimit="8" fill="#595850" fill-rule="evenodd"/><path d="M1247.79 1023.22 1350.59 973.746 1361 995.386 1258.2 1044.86Z" stroke="#000000" stroke-width="8.80541" stroke-miterlimit="8" fill="#595850" fill-rule="evenodd"/><path d="M1420 1923C1420 1927.42 1330.46 1931 1220 1931 1109.54 1931 1020 1927.42 1020 1923 1020 1918.58 1109.54 1915 1220 1915 1330.46 1915 1420 1918.58 1420 1923Z" fill="#5B5742" fill-rule="evenodd" fill-opacity="0.470588"/><path d="M1616.43 1519.13 849.507 1664.51C834.427 1667.36 819.906 1657.45 817.055 1642.38L777.489 1433.36C774.638 1418.26 784.544 1403.73 799.594 1400.87L1566.48 1255.49C1581.56 1252.64 1596.08 1262.55 1598.94 1277.62L1638.5 1486.64C1641.38 1501.71 1631.48 1516.27 1616.43 1519.13L1616.43 1519.13Z" stroke="#000000" stroke-width="17.6094" stroke-miterlimit="8" fill="#A6A897" fill-rule="evenodd"/><path d="M1116 1100.5C1116 1120.11 1099.88 1136 1080 1136 1060.12 1136 1044 1120.11 1044 1100.5 1044 1080.89 1060.12 1065 1080 1065 1099.88 1065 1116 1080.89 1116 1100.5Z" stroke="#000000" stroke-width="17.6094" stroke-miterlimit="8" fill="#231815" fill-rule="evenodd"/><path d="M1350 1100.5C1350 1120.11 1334.11 1136 1314.5 1136 1294.89 1136 1279 1120.11 1279 1100.5 1279 1080.89 1294.89 1065 1314.5 1065 1334.11 1065 1350 1080.89 1350 1100.5Z" stroke="#000000" stroke-width="17.6094" stroke-miterlimit="8" fill="#231815" fill-rule="evenodd"/><path d="M1101 1112.5C1101 1122.17 1093.39 1130 1084 1130 1074.61 1130 1067 1122.17 1067 1112.5 1067 1102.84 1074.61 1095 1084 1095 1093.39 1095 1101 1102.84 1101 1112.5Z" fill="#FFFFFF" fill-rule="evenodd"/><path d="M1331 1112.5C1331 1122.17 1323.39 1130 1314 1130 1304.61 1130 1297 1122.17 1297 1112.5 1297 1102.84 1304.61 1095 1314 1095 1323.39 1095 1331 1102.84 1331 1112.5Z" fill="#FFFFFF" fill-rule="evenodd"/><path d="M1268.5 1211.5C1268.5 1221.99 1239.85 1230.5 1204.5 1230.5 1169.15 1230.5 1140.5 1221.99 1140.5 1211.5 1140.5 1201.01 1169.15 1192.5 1204.5 1192.5 1239.85 1192.5 1268.5 1201.01 1268.5 1211.5Z" stroke="#000000" stroke-width="8.80469" stroke-miterlimit="8" fill="#E73A8F" fill-rule="evenodd"/><path d="M1016.88 1426.65 992.195 1431.38C988.444 1432.09 984.841 1429.61 984.103 1425.81L981.622 1412.55C980.913 1408.75 983.364 1405.1 987.115 1404.35L1011.81 1399.62C1015.56 1398.91 1019.16 1401.39 1019.9 1405.19L1022.38 1418.45C1023.09 1422.28 1020.64 1425.93 1016.88 1426.65Z" stroke="#000000" stroke-width="2.93478" stroke-miterlimit="8" fill="#D6DBD9" fill-rule="evenodd"/><path d="M1133.89 1404.65 1109.2 1409.38C1105.44 1410.09 1101.84 1407.61 1101.1 1403.81L1098.62 1390.55C1097.91 1386.75 1100.36 1383.1 1104.12 1382.35L1128.81 1377.62C1132.56 1376.91 1136.16 1379.39 1136.9 1383.19L1139.38 1396.45C1140.09 1400.25 1137.64 1403.93 1133.89 1404.65Z" stroke="#000000" stroke-width="2.93478" stroke-miterlimit="8" fill="#D6DBD9" fill-rule="evenodd"/><path d="M858.878 1456.65 834.193 1461.38C830.443 1462.09 826.84 1459.61 826.102 1455.81L823.622 1442.55C822.914 1438.75 825.364 1435.1 829.114 1434.35L853.799 1429.62C857.549 1428.91 861.152 1431.39 861.89 1435.19L864.37 1448.45C865.108 1452.25 862.628 1455.93 858.878 1456.65Z" stroke="#000000" stroke-width="2.93478" stroke-miterlimit="8" fill="#D6DBD9" fill-rule="evenodd"/><path d="M910.878 1446.65 886.193 1451.38C882.443 1452.09 878.84 1449.61 878.102 1445.81L875.622 1432.55C874.914 1428.75 877.364 1425.1 881.114 1424.35L905.799 1419.62C909.549 1418.91 913.152 1421.39 913.89 1425.19L916.37 1438.45C917.108 1442.28 914.628 1445.93 910.878 1446.65Z" stroke="#000000" stroke-width="2.93478" stroke-miterlimit="8" fill="#D6DBD9" fill-rule="evenodd"/><path d="M1337.88 1365.8 1313.19 1370.38C1309.44 1371.08 1305.84 1368.67 1305.1 1364.99L1302.62 1352.14C1301.91 1348.46 1304.36 1344.93 1308.11 1344.2L1332.8 1339.62C1336.55 1338.92 1340.15 1341.33 1340.89 1345.01L1343.37 1357.86C1344.11 1361.54 1341.63 1365.07 1337.88 1365.8Z" stroke="#000000" stroke-width="2.93478" stroke-miterlimit="8" fill="#D6DBD9" fill-rule="evenodd"/><path d="M964.878 1436.65 940.193 1441.38C936.443 1442.09 932.84 1439.61 932.102 1435.81L929.622 1422.55C928.913 1418.75 931.364 1415.1 935.114 1414.35L959.799 1409.62C963.549 1408.91 967.152 1411.39 967.89 1415.19L970.37 1428.45C971.108 1432.25 968.628 1435.93 964.878 1436.65Z" stroke="#000000" stroke-width="2.93478" stroke-miterlimit="8" fill="#D6DBD9" fill-rule="evenodd"/><path d="M1185.88 1394.65 1161.19 1399.38C1157.44 1400.09 1153.84 1397.61 1153.1 1393.81L1150.62 1380.55C1149.91 1376.75 1152.36 1373.1 1156.12 1372.35L1180.81 1367.62C1184.56 1366.91 1188.16 1369.39 1188.9 1373.19L1191.38 1386.45C1192.09 1390.25 1189.64 1393.93 1185.88 1394.65Z" stroke="#000000" stroke-width="2.93478" stroke-miterlimit="8" fill="#D6DBD9" fill-rule="evenodd"/><path d="M1236.02 1384.8 1211.93 1389.38C1208.27 1390.08 1204.76 1387.67 1204.04 1383.99L1201.62 1371.14C1200.93 1367.46 1203.32 1363.93 1206.98 1363.2L1231.07 1358.62C1234.73 1357.92 1238.24 1360.33 1238.96 1364.01L1241.38 1376.86C1242.07 1380.57 1239.68 1384.1 1236.02 1384.8Z" stroke="#000000" stroke-width="2.93478" stroke-miterlimit="8" fill="#D6DBD9" fill-rule="evenodd"/><path d="M1286.88 1375.65 1262.19 1380.38C1258.44 1381.09 1254.84 1378.61 1254.1 1374.81L1251.62 1361.55C1250.91 1357.75 1253.36 1354.1 1257.11 1353.35L1281.8 1348.62C1285.55 1347.91 1289.15 1350.39 1289.89 1354.19L1292.37 1367.45C1293.11 1371.25 1290.63 1374.93 1286.88 1375.65Z" stroke="#000000" stroke-width="2.93478" stroke-miterlimit="8" fill="#D6DBD9" fill-rule="evenodd"/><path d="M1075.02 1415.65 1050.93 1420.38C1047.27 1421.09 1043.76 1418.61 1043.04 1414.81L1040.62 1401.55C1039.93 1397.75 1042.32 1394.1 1045.98 1393.35L1070.06 1388.62C1073.72 1387.91 1077.23 1390.39 1077.95 1394.19L1080.37 1407.45C1081.09 1411.28 1078.67 1414.93 1075.02 1415.65Z" stroke="#000000" stroke-width="2.93478" stroke-miterlimit="8" fill="#D6DBD9" fill-rule="evenodd"/><path d="M1395.88 1352.8 1371.19 1357.38C1367.44 1358.08 1363.84 1355.67 1363.1 1351.99L1360.62 1339.14C1359.91 1335.46 1362.36 1331.93 1366.11 1331.2L1390.8 1326.62C1394.55 1325.92 1398.15 1328.33 1398.89 1332.01L1401.37 1344.86C1402.11 1348.54 1399.63 1352.1 1395.88 1352.8Z" stroke="#000000" stroke-width="2.93478" stroke-miterlimit="8" fill="#D6DBD9" fill-rule="evenodd"/><path d="M890.842 1489.98 840.262 1499.38C836.487 1500.08 832.862 1497.66 832.119 1493.95L829.623 1481.02C828.91 1477.31 831.376 1473.75 835.15 1473.02L885.73 1463.62C889.504 1462.92 893.13 1465.34 893.873 1469.05L896.369 1481.98C897.112 1485.72 894.616 1489.28 890.842 1489.98Z" stroke="#000000" stroke-width="2.93478" stroke-miterlimit="8" fill="#D6DBD9" fill-rule="evenodd"/><path d="M932.96 1481.93 920.052 1484.38C916.351 1485.08 912.796 1482.66 912.068 1478.96L909.62 1466.05C908.921 1462.35 911.34 1458.8 915.04 1458.07L927.948 1455.62C931.649 1454.92 935.204 1457.34 935.932 1461.04L938.38 1473.95C939.079 1477.68 936.66 1481.23 932.96 1481.93Z" stroke="#000000" stroke-width="2.93478" stroke-miterlimit="8" fill="#D6DBD9" fill-rule="evenodd"/><path d="M970.954 1474.84 958.049 1477.38C954.349 1478.1 950.795 1475.6 950.067 1471.77L947.62 1458.42C946.921 1454.59 949.339 1450.91 953.038 1450.16L965.943 1447.62C969.643 1446.9 973.197 1449.4 973.925 1453.23L976.372 1466.58C977.1 1470.41 974.653 1474.12 970.954 1474.84Z" stroke="#000000" stroke-width="2.93478" stroke-miterlimit="8" fill="#D6DBD9" fill-rule="evenodd"/><path d="M1010.95 1466.93 998.049 1469.38C994.349 1470.08 990.795 1467.66 990.067 1463.96L987.62 1451.05C986.921 1447.35 989.339 1443.8 993.039 1443.07L1005.94 1440.62C1009.64 1439.92 1013.2 1442.34 1013.92 1446.04L1016.37 1458.95C1017.1 1462.65 1014.65 1466.23 1010.95 1466.93Z" stroke="#000000" stroke-width="2.93478" stroke-miterlimit="8" fill="#D6DBD9" fill-rule="evenodd"/><path d="M1049.77 1459.93 1036.42 1462.38C1032.59 1463.08 1028.91 1460.66 1028.16 1456.96L1025.62 1444.05C1024.9 1440.35 1027.4 1436.8 1031.23 1436.07L1044.58 1433.62C1048.41 1432.92 1052.09 1435.34 1052.84 1439.04L1055.38 1451.95C1056.1 1455.68 1053.6 1459.23 1049.77 1459.93L1049.77 1459.93Z" stroke="#000000" stroke-width="2.93478" stroke-miterlimit="8" fill="#D6DBD9" fill-rule="evenodd"/><path d="M1094.95 1451.84 1082.05 1454.38C1078.35 1455.1 1074.8 1452.6 1074.07 1448.77L1071.62 1435.42C1070.92 1431.59 1073.34 1427.91 1077.04 1427.16L1089.94 1424.62C1093.64 1423.9 1097.2 1426.4 1097.92 1430.23L1100.37 1443.58C1101.1 1447.41 1098.65 1451.12 1094.95 1451.84Z" stroke="#000000" stroke-width="2.93478" stroke-miterlimit="8" fill="#D6DBD9" fill-rule="evenodd"/><path d="M1132.95 1443.93 1120.05 1446.38C1116.35 1447.08 1112.8 1444.66 1112.07 1440.96L1109.62 1428.05C1108.92 1424.35 1111.34 1420.8 1115.04 1420.07L1127.94 1417.62C1131.64 1416.92 1135.2 1419.34 1135.92 1423.04L1138.37 1435.95C1139.1 1439.68 1136.65 1443.23 1132.95 1443.93Z" stroke="#000000" stroke-width="2.93478" stroke-miterlimit="8" fill="#D6DBD9" fill-rule="evenodd"/><path d="M1173.96 1436.93 1161.05 1439.38C1157.35 1440.08 1153.8 1437.66 1153.07 1433.96L1150.62 1421.05C1149.92 1417.35 1152.34 1413.8 1156.04 1413.07L1168.95 1410.62C1172.65 1409.92 1176.2 1412.34 1176.93 1416.04L1179.38 1428.95C1180.08 1432.68 1177.66 1436.23 1173.96 1436.93Z" stroke="#000000" stroke-width="2.93478" stroke-miterlimit="8" fill="#D6DBD9" fill-rule="evenodd"/><path d="M1209.96 1429.84 1197.05 1432.38C1193.35 1433.1 1189.8 1430.6 1189.07 1426.77L1186.62 1413.42C1185.92 1409.59 1188.34 1405.91 1192.04 1405.16L1204.95 1402.62C1208.65 1401.9 1212.2 1404.4 1212.93 1408.23L1215.38 1421.58C1216.08 1425.41 1213.66 1429.12 1209.96 1429.84Z" stroke="#000000" stroke-width="2.93478" stroke-miterlimit="8" fill="#D6DBD9" fill-rule="evenodd"/><path d="M1250.96 1421.84 1238.05 1424.38C1234.35 1425.1 1230.8 1422.6 1230.07 1418.77L1227.62 1405.42C1226.92 1401.59 1229.34 1397.91 1233.04 1397.16L1245.95 1394.62C1249.65 1393.9 1253.2 1396.4 1253.93 1400.23L1256.38 1413.58C1257.08 1417.41 1254.66 1421.12 1250.96 1421.84Z" stroke="#000000" stroke-width="2.93478" stroke-miterlimit="8" fill="#D6DBD9" fill-rule="evenodd"/><path d="M1288.95 1414.84 1276.05 1417.38C1272.35 1418.1 1268.8 1415.6 1268.07 1411.77L1265.62 1398.42C1264.92 1394.59 1267.34 1390.91 1271.04 1390.16L1283.94 1387.62C1287.64 1386.9 1291.2 1389.4 1291.93 1393.23L1294.37 1406.58C1295.1 1410.41 1292.65 1414.12 1288.95 1414.84Z" stroke="#000000" stroke-width="2.93478" stroke-miterlimit="8" fill="#D6DBD9" fill-rule="evenodd"/><path d="M1329.76 1406.93 1316.41 1409.38C1312.59 1410.08 1308.91 1407.66 1308.16 1403.96L1305.62 1391.05C1304.9 1387.35 1307.4 1383.8 1311.23 1383.07L1324.58 1380.62C1328.41 1379.92 1332.08 1382.34 1332.84 1386.04L1335.37 1398.95C1336.12 1402.68 1333.59 1406.23 1329.76 1406.93Z" stroke="#000000" stroke-width="2.93478" stroke-miterlimit="8" fill="#D6DBD9" fill-rule="evenodd"/><path d="M1367.77 1399.84 1354.42 1402.38C1350.59 1403.1 1346.91 1400.6 1346.16 1396.77L1343.62 1383.42C1342.9 1379.59 1345.4 1375.91 1349.23 1375.16L1362.58 1372.62C1366.41 1371.9 1370.09 1374.4 1370.84 1378.23L1373.38 1391.58C1374.1 1395.44 1371.6 1399.12 1367.77 1399.84Z" stroke="#000000" stroke-width="2.93478" stroke-miterlimit="8" fill="#D6DBD9" fill-rule="evenodd"/><path d="M1402.95 1392.93 1390.05 1395.38C1386.35 1396.08 1382.8 1393.66 1382.07 1389.96L1379.62 1377.05C1378.92 1373.35 1381.34 1369.8 1385.04 1369.07L1397.94 1366.62C1401.64 1365.92 1405.2 1368.34 1405.92 1372.04L1408.37 1384.95C1409.1 1388.68 1406.65 1392.23 1402.95 1392.93Z" stroke="#000000" stroke-width="2.93478" stroke-miterlimit="8" fill="#D6DBD9" fill-rule="evenodd"/><path d="M993.769 1510.84 980.416 1513.38C976.587 1514.1 972.91 1511.6 972.156 1507.77L969.624 1494.42C968.901 1490.59 971.403 1486.91 975.231 1486.16L988.585 1483.62C992.413 1482.9 996.091 1485.4 996.844 1489.23L999.376 1502.58C1000.1 1506.41 997.598 1510.12 993.769 1510.84Z" stroke="#000000" stroke-width="2.93478" stroke-miterlimit="8" fill="#D6DBD9" fill-rule="evenodd"/><path d="M1035.96 1502.93 1023.05 1505.38C1019.35 1506.08 1015.8 1503.66 1015.07 1499.96L1012.62 1487.05C1011.92 1483.35 1014.34 1479.8 1018.04 1479.07L1030.95 1476.62C1034.65 1475.92 1038.2 1478.34 1038.93 1482.04L1041.38 1494.95C1042.08 1498.65 1039.66 1502.23 1035.96 1502.93Z" stroke="#000000" stroke-width="2.93478" stroke-miterlimit="8" fill="#D6DBD9" fill-rule="evenodd"/><path d="M1075.95 1495.84 1063.05 1498.38C1059.35 1499.1 1055.8 1496.6 1055.07 1492.77L1052.62 1479.42C1051.92 1475.59 1054.34 1471.91 1058.04 1471.16L1070.94 1468.62C1074.64 1467.9 1078.2 1470.4 1078.92 1474.23L1081.37 1487.58C1082.1 1491.41 1079.65 1495.12 1075.95 1495.84Z" stroke="#000000" stroke-width="2.93478" stroke-miterlimit="8" fill="#D6DBD9" fill-rule="evenodd"/><path d="M1114.96 1487.93 1102.05 1490.38C1098.35 1491.08 1094.8 1488.66 1094.07 1484.96L1091.62 1472.05C1090.92 1468.35 1093.34 1464.8 1097.04 1464.07L1109.95 1461.62C1113.65 1460.92 1117.2 1463.34 1117.93 1467.04L1120.38 1479.95C1121.08 1483.68 1118.66 1487.23 1114.96 1487.93Z" stroke="#000000" stroke-width="2.93478" stroke-miterlimit="8" fill="#D6DBD9" fill-rule="evenodd"/><path d="M1156.95 1479.93 1144.05 1482.38C1140.35 1483.08 1136.8 1480.66 1136.07 1476.96L1133.62 1464.05C1132.92 1460.35 1135.34 1456.8 1139.04 1456.07L1151.94 1453.62C1155.64 1452.92 1159.2 1455.34 1159.93 1459.04L1162.37 1471.95C1163.1 1475.65 1160.65 1479.23 1156.95 1479.93Z" stroke="#000000" stroke-width="2.93478" stroke-miterlimit="8" fill="#D6DBD9" fill-rule="evenodd"/><path d="M1196.95 1471.93 1184.05 1474.38C1180.35 1475.08 1176.8 1472.66 1176.07 1468.96L1173.62 1456.05C1172.92 1452.35 1175.34 1448.8 1179.04 1448.07L1191.94 1445.62C1195.64 1444.92 1199.2 1447.34 1199.92 1451.04L1202.37 1463.95C1203.1 1467.65 1200.65 1471.23 1196.95 1471.93Z" stroke="#000000" stroke-width="2.93478" stroke-miterlimit="8" fill="#D6DBD9" fill-rule="evenodd"/><path d="M1230.95 1462.93 1218.05 1465.38C1214.35 1466.08 1210.8 1463.66 1210.07 1459.96L1207.62 1447.05C1206.92 1443.35 1209.34 1439.8 1213.04 1439.07L1225.94 1436.62C1229.64 1435.92 1233.2 1438.34 1233.92 1442.04L1236.37 1454.95C1237.1 1458.68 1234.65 1462.23 1230.95 1462.93Z" stroke="#000000" stroke-width="2.93478" stroke-miterlimit="8" fill="#D6DBD9" fill-rule="evenodd"/><path d="M1271.95 1454.93 1259.05 1457.38C1255.35 1458.08 1251.8 1455.66 1251.07 1451.96L1248.62 1439.05C1247.92 1435.35 1250.34 1431.8 1254.04 1431.07L1266.94 1428.62C1270.64 1427.92 1274.2 1430.34 1274.92 1434.04L1277.37 1446.95C1278.1 1450.68 1275.65 1454.23 1271.95 1454.93Z" stroke="#000000" stroke-width="2.93478" stroke-miterlimit="8" fill="#D6DBD9" fill-rule="evenodd"/><path d="M1310.77 1447.93 1297.42 1450.38C1293.59 1451.08 1289.91 1448.66 1289.16 1444.96L1286.62 1432.05C1285.9 1428.35 1288.4 1424.8 1292.23 1424.07L1305.58 1421.62C1309.41 1420.92 1313.09 1423.34 1313.84 1427.04L1316.38 1439.95C1317.1 1443.68 1314.6 1447.23 1310.77 1447.93Z" stroke="#000000" stroke-width="2.93478" stroke-miterlimit="8" fill="#D6DBD9" fill-rule="evenodd"/><path d="M1350.96 1439.93 1338.05 1442.38C1334.35 1443.08 1330.8 1440.66 1330.07 1436.96L1327.62 1424.05C1326.92 1420.35 1329.34 1416.8 1333.04 1416.07L1345.95 1413.62C1349.65 1412.92 1353.2 1415.34 1353.93 1419.04L1356.38 1431.95C1357.08 1435.65 1354.66 1439.23 1350.96 1439.93Z" stroke="#000000" stroke-width="2.93478" stroke-miterlimit="8" fill="#D6DBD9" fill-rule="evenodd"/><path d="M914.933 1525.82 848.089 1538.38C844.375 1539.08 840.808 1536.67 840.077 1532.98L837.62 1520.13C836.919 1516.45 839.346 1512.91 843.059 1512.18L909.903 1499.62C913.617 1498.92 917.184 1501.33 917.915 1505.02L920.372 1517.87C921.102 1521.55 918.646 1525.12 914.933 1525.82Z" stroke="#000000" stroke-width="2.93478" stroke-miterlimit="8" fill="#D6DBD9" fill-rule="evenodd"/><path d="M981.769 1555.84 968.415 1558.38C964.587 1559.1 960.91 1556.6 960.156 1552.77L957.624 1539.42C956.901 1535.59 959.403 1531.91 963.231 1531.16L976.584 1528.62C980.413 1527.9 984.09 1530.4 984.844 1534.23L987.376 1547.58C988.099 1551.41 985.597 1555.12 981.769 1555.84Z" stroke="#000000" stroke-width="2.93478" stroke-miterlimit="8" fill="#D6DBD9" fill-rule="evenodd"/><path d="M951.953 1518.84 939.049 1521.38C935.349 1522.1 931.795 1519.6 931.067 1515.77L928.62 1502.42C927.921 1498.59 930.339 1494.91 934.038 1494.16L946.943 1491.62C950.643 1490.9 954.197 1493.4 954.925 1497.23L957.372 1510.58C958.1 1514.41 955.653 1518.12 951.953 1518.84Z" stroke="#000000" stroke-width="2.93478" stroke-miterlimit="8" fill="#D6DBD9" fill-rule="evenodd"/><path d="M1404.96 1431.27 1373.05 1437.38C1369.35 1438.09 1365.8 1435.64 1365.07 1431.89L1362.62 1418.82C1361.92 1415.07 1364.34 1411.47 1368.04 1410.73L1399.95 1404.62C1403.65 1403.91 1407.2 1406.36 1407.93 1410.11L1410.38 1423.18C1411.08 1426.96 1408.66 1430.56 1404.96 1431.27L1404.96 1431.27Z" stroke="#000000" stroke-width="2.93478" stroke-miterlimit="8" fill="#D6DBD9" fill-rule="evenodd"/><path d="M939.923 1562.23 855.122 1578.38C851.397 1579.09 847.818 1576.64 847.085 1572.9L844.621 1559.84C843.917 1556.1 846.352 1552.51 850.077 1551.77L934.878 1535.62C938.604 1534.91 942.182 1537.36 942.915 1541.1L945.38 1554.16C946.083 1557.9 943.649 1561.52 939.923 1562.23Z" stroke="#000000" stroke-width="2.93478" stroke-miterlimit="8" fill="#D6DBD9" fill-rule="evenodd"/><path d="M1021.95 1546.84 1009.05 1549.38C1005.35 1550.1 1001.8 1547.6 1001.07 1543.77L998.62 1530.42C997.921 1526.59 1000.34 1522.91 1004.04 1522.16L1016.94 1519.62C1020.64 1518.9 1024.2 1521.4 1024.92 1525.23L1027.37 1538.58C1028.1 1542.41 1025.65 1546.12 1021.95 1546.84Z" stroke="#000000" stroke-width="2.93478" stroke-miterlimit="8" fill="#D6DBD9" fill-rule="evenodd"/><path d="M1066.95 1537.93 1054.05 1540.38C1050.35 1541.08 1046.8 1538.66 1046.07 1534.96L1043.62 1522.05C1042.92 1518.35 1045.34 1514.8 1049.04 1514.07L1061.94 1511.62C1065.64 1510.92 1069.2 1513.34 1069.92 1517.04L1072.37 1529.95C1073.1 1533.68 1070.65 1537.23 1066.95 1537.93Z" stroke="#000000" stroke-width="2.93478" stroke-miterlimit="8" fill="#D6DBD9" fill-rule="evenodd"/><path d="M1105.95 1530.84 1093.05 1533.38C1089.35 1534.1 1085.8 1531.6 1085.07 1527.77L1082.62 1514.42C1081.92 1510.59 1084.34 1506.91 1088.04 1506.16L1100.94 1503.62C1104.64 1502.9 1108.2 1505.4 1108.92 1509.23L1111.37 1522.58C1112.1 1526.44 1109.65 1530.12 1105.95 1530.84Z" stroke="#000000" stroke-width="2.93478" stroke-miterlimit="8" fill="#D6DBD9" fill-rule="evenodd"/><path d="M1145.96 1522.93 1133.05 1525.38C1129.35 1526.08 1125.8 1523.66 1125.07 1519.96L1122.62 1507.05C1121.92 1503.35 1124.34 1499.8 1128.04 1499.07L1140.95 1496.62C1144.65 1495.92 1148.2 1498.34 1148.93 1502.04L1151.38 1514.95C1152.08 1518.65 1149.66 1522.23 1145.96 1522.93Z" stroke="#000000" stroke-width="2.93478" stroke-miterlimit="8" fill="#D6DBD9" fill-rule="evenodd"/><path d="M1187.76 1514.93 1174.41 1517.38C1170.59 1518.08 1166.91 1515.66 1166.16 1511.96L1163.62 1499.05C1162.9 1495.35 1165.4 1491.8 1169.23 1491.07L1182.58 1488.62C1186.41 1487.92 1190.08 1490.34 1190.84 1494.04L1193.37 1506.95C1194.12 1510.65 1191.59 1514.2 1187.76 1514.93Z" stroke="#000000" stroke-width="2.93478" stroke-miterlimit="8" fill="#D6DBD9" fill-rule="evenodd"/><path d="M1227.96 1506.93 1215.05 1509.38C1211.35 1510.08 1207.8 1507.66 1207.07 1503.96L1204.62 1491.05C1203.92 1487.35 1206.34 1483.8 1210.04 1483.07L1222.95 1480.62C1226.65 1479.92 1230.2 1482.34 1230.93 1486.04L1233.38 1498.95C1234.08 1502.68 1231.66 1506.23 1227.96 1506.93Z" stroke="#000000" stroke-width="2.93478" stroke-miterlimit="8" fill="#D6DBD9" fill-rule="evenodd"/><path d="M1261.95 1497.93 1249.05 1500.38C1245.35 1501.08 1241.8 1498.66 1241.07 1494.96L1238.62 1482.05C1237.92 1478.35 1240.34 1474.8 1244.04 1474.07L1256.94 1471.62C1260.64 1470.92 1264.2 1473.34 1264.92 1477.04L1267.37 1489.95C1268.1 1493.68 1265.65 1497.23 1261.95 1497.93Z" stroke="#000000" stroke-width="2.93478" stroke-miterlimit="8" fill="#D6DBD9" fill-rule="evenodd"/><path d="M1302.95 1489.93 1290.05 1492.38C1286.35 1493.08 1282.8 1490.66 1282.07 1486.96L1279.62 1474.05C1278.92 1470.35 1281.34 1466.8 1285.04 1466.07L1297.94 1463.62C1301.64 1462.92 1305.2 1465.34 1305.93 1469.04L1308.37 1481.95C1309.1 1485.65 1306.65 1489.23 1302.95 1489.93Z" stroke="#000000" stroke-width="2.93478" stroke-miterlimit="8" fill="#D6DBD9" fill-rule="evenodd"/><path d="M1340.96 1482.93 1328.05 1485.38C1324.35 1486.08 1320.8 1483.66 1320.07 1479.96L1317.62 1467.05C1316.92 1463.35 1319.34 1459.8 1323.04 1459.07L1335.95 1456.62C1339.65 1455.92 1343.2 1458.34 1343.93 1462.04L1346.38 1474.95C1347.08 1478.65 1344.66 1482.23 1340.96 1482.93Z" stroke="#000000" stroke-width="2.93478" stroke-miterlimit="8" fill="#D6DBD9" fill-rule="evenodd"/><path d="M1415.95 1464.94 1366.06 1474.38C1362.36 1475.08 1358.8 1472.66 1358.07 1468.96L1355.62 1456.05C1354.92 1452.35 1357.34 1448.79 1361.05 1448.06L1410.94 1438.62C1414.64 1437.92 1418.2 1440.34 1418.93 1444.04L1421.38 1456.95C1422.08 1460.68 1419.66 1464.24 1415.95 1464.94Z" stroke="#000000" stroke-width="2.93478" stroke-miterlimit="8" fill="#D6DBD9" fill-rule="evenodd"/><path d="M871.761 1612.93 858.412 1615.38C854.585 1616.08 850.909 1613.66 850.155 1609.96L847.624 1597.05C846.901 1593.35 849.402 1589.8 853.229 1589.07L866.578 1586.62C870.406 1585.92 874.082 1588.34 874.835 1592.04L877.367 1604.95C878.12 1608.68 875.619 1612.23 871.761 1612.93Z" stroke="#000000" stroke-width="2.93478" stroke-miterlimit="8" fill="#D6DBD9" fill-rule="evenodd"/><path d="M909.96 1605.84 897.052 1608.38C893.351 1609.1 889.796 1606.6 889.068 1602.77L886.62 1589.42C885.921 1585.59 888.34 1581.91 892.04 1581.16L904.948 1578.62C908.649 1577.9 912.204 1580.4 912.932 1584.23L915.38 1597.58C916.079 1601.44 913.66 1605.12 909.96 1605.84Z" stroke="#000000" stroke-width="2.93478" stroke-miterlimit="8" fill="#D6DBD9" fill-rule="evenodd"/><path d="M949.954 1597.93 937.049 1600.38C933.349 1601.08 929.795 1598.66 929.067 1594.96L926.62 1582.05C925.921 1578.35 928.339 1574.8 932.038 1574.07L944.943 1571.62C948.643 1570.92 952.197 1573.34 952.925 1577.04L955.372 1589.95C956.1 1593.65 953.653 1597.23 949.954 1597.93Z" stroke="#000000" stroke-width="2.93478" stroke-miterlimit="8" fill="#D6DBD9" fill-rule="evenodd"/><path d="M987.96 1590.93 975.052 1593.38C971.351 1594.08 967.796 1591.66 967.068 1587.96L964.62 1575.05C963.921 1571.35 966.34 1567.8 970.04 1567.07L982.948 1564.62C986.649 1563.92 990.204 1566.34 990.932 1570.04L993.38 1582.95C994.079 1586.65 991.66 1590.23 987.96 1590.93Z" stroke="#000000" stroke-width="2.93478" stroke-miterlimit="8" fill="#D6DBD9" fill-rule="evenodd"/><path d="M1033.96 1582.84 1021.05 1585.38C1017.35 1586.1 1013.8 1583.6 1013.07 1579.77L1010.62 1566.42C1009.92 1562.59 1012.34 1558.91 1016.04 1558.16L1028.95 1555.62C1032.65 1554.9 1036.2 1557.4 1036.93 1561.23L1039.38 1574.58C1040.08 1578.41 1037.66 1582.12 1033.96 1582.84Z" stroke="#000000" stroke-width="2.93478" stroke-miterlimit="8" fill="#D6DBD9" fill-rule="evenodd"/><path d="M1189.9 1552.98 1060.15 1577.38C1056.41 1578.08 1052.83 1575.66 1052.09 1571.95L1049.62 1559.02C1048.92 1555.31 1051.36 1551.75 1055.09 1551.02L1184.84 1526.62C1188.58 1525.92 1192.17 1528.34 1192.9 1532.05L1195.37 1544.98C1196.11 1548.72 1193.64 1552.28 1189.9 1552.98Z" stroke="#000000" stroke-width="2.93478" stroke-miterlimit="8" fill="#D6DBD9" fill-rule="evenodd"/><path d="M1227.96 1545.84 1215.05 1548.38C1211.35 1549.1 1207.8 1546.6 1207.07 1542.77L1204.62 1529.42C1203.92 1525.59 1206.34 1521.91 1210.04 1521.16L1222.95 1518.62C1226.65 1517.9 1230.2 1520.4 1230.93 1524.23L1233.38 1537.58C1234.08 1541.41 1231.66 1545.12 1227.96 1545.84Z" stroke="#000000" stroke-width="2.93478" stroke-miterlimit="8" fill="#D6DBD9" fill-rule="evenodd"/><path d="M1268.76 1537.93 1255.41 1540.38C1251.59 1541.08 1247.91 1538.66 1247.16 1534.96L1244.62 1522.05C1243.9 1518.35 1246.4 1514.8 1250.23 1514.07L1263.58 1511.62C1267.41 1510.92 1271.08 1513.34 1271.84 1517.04L1274.37 1529.95C1275.12 1533.65 1272.59 1537.23 1268.76 1537.93Z" stroke="#000000" stroke-width="2.93478" stroke-miterlimit="8" fill="#D6DBD9" fill-rule="evenodd"/><path d="M1306.77 1530.84 1293.42 1533.38C1289.59 1534.1 1285.91 1531.6 1285.16 1527.77L1282.62 1514.42C1281.9 1510.59 1284.4 1506.91 1288.23 1506.16L1301.58 1503.62C1305.41 1502.9 1309.09 1505.4 1309.84 1509.23L1312.38 1522.58C1313.1 1526.41 1310.6 1530.09 1306.77 1530.84Z" stroke="#000000" stroke-width="2.93478" stroke-miterlimit="8" fill="#D6DBD9" fill-rule="evenodd"/><path d="M1341.76 1523.93 1328.41 1526.38C1324.59 1527.08 1320.91 1524.66 1320.16 1520.96L1317.62 1508.05C1316.9 1504.35 1319.4 1500.8 1323.23 1500.07L1336.58 1497.62C1340.41 1496.92 1344.08 1499.34 1344.84 1503.04L1347.37 1515.95C1348.12 1519.65 1345.59 1523.23 1341.76 1523.93Z" stroke="#000000" stroke-width="2.93478" stroke-miterlimit="8" fill="#D6DBD9" fill-rule="evenodd"/><path d="M1382.76 1514.93 1369.41 1517.38C1365.59 1518.08 1361.91 1515.66 1361.16 1511.96L1358.62 1499.05C1357.9 1495.35 1360.4 1491.8 1364.23 1491.07L1377.58 1488.62C1381.41 1487.92 1385.08 1490.34 1385.84 1494.04L1388.37 1506.95C1389.12 1510.68 1386.59 1514.23 1382.76 1514.93Z" stroke="#000000" stroke-width="2.93478" stroke-miterlimit="8" fill="#D6DBD9" fill-rule="evenodd"/><path d="M1422.96 1506.93 1410.05 1509.38C1406.35 1510.08 1402.8 1507.66 1402.07 1503.96L1399.62 1491.05C1398.92 1487.35 1401.34 1483.8 1405.04 1483.07L1417.95 1480.62C1421.65 1479.92 1425.2 1482.34 1425.93 1486.04L1428.38 1498.95C1429.08 1502.68 1426.66 1506.23 1422.96 1506.93Z" stroke="#000000" stroke-width="2.93478" stroke-miterlimit="8" fill="#D6DBD9" fill-rule="evenodd"/><path d="M1467.95 1380.84 1455.05 1383.38C1451.35 1384.1 1447.8 1381.6 1447.07 1377.77L1444.62 1364.42C1443.92 1360.59 1446.34 1356.91 1450.04 1356.16L1462.94 1353.62C1466.64 1352.9 1470.2 1355.4 1470.93 1359.23L1473.37 1372.58C1474.1 1376.41 1471.65 1380.09 1467.95 1380.84Z" stroke="#000000" stroke-width="2.93478" stroke-miterlimit="8" fill="#D6DBD9" fill-rule="evenodd"/><path d="M1545.76 1365.93 1532.41 1368.38C1528.59 1369.08 1524.91 1366.66 1524.16 1362.96L1521.62 1350.05C1520.9 1346.35 1523.4 1342.8 1527.23 1342.07L1540.58 1339.62C1544.41 1338.92 1548.08 1341.34 1548.84 1345.04L1551.37 1357.95C1552.12 1361.65 1549.59 1365.23 1545.76 1365.93Z" stroke="#000000" stroke-width="2.93478" stroke-miterlimit="8" fill="#D6DBD9" fill-rule="evenodd"/><path d="M1505.96 1372.93 1493.05 1375.38C1489.35 1376.08 1485.8 1373.66 1485.07 1369.96L1482.62 1357.05C1481.92 1353.35 1484.34 1349.8 1488.04 1349.07L1500.95 1346.62C1504.65 1345.92 1508.2 1348.34 1508.93 1352.04L1511.38 1364.95C1512.08 1368.65 1509.66 1372.23 1505.96 1372.93Z" stroke="#000000" stroke-width="2.93478" stroke-miterlimit="8" fill="#D6DBD9" fill-rule="evenodd"/><path d="M1474.96 1417.93 1462.05 1420.38C1458.35 1421.08 1454.8 1418.66 1454.07 1414.96L1451.62 1402.05C1450.92 1398.35 1453.34 1394.8 1457.04 1394.07L1469.95 1391.62C1473.65 1390.92 1477.2 1393.34 1477.93 1397.04L1480.38 1409.95C1481.08 1413.65 1478.66 1417.23 1474.96 1417.93Z" stroke="#000000" stroke-width="2.93478" stroke-miterlimit="8" fill="#D6DBD9" fill-rule="evenodd"/><path d="M1512.96 1409.84 1500.05 1412.38C1496.35 1413.1 1492.8 1410.6 1492.07 1406.77L1489.62 1393.42C1488.92 1389.59 1491.34 1385.91 1495.04 1385.16L1507.95 1382.62C1511.65 1381.9 1515.2 1384.4 1515.93 1388.23L1518.38 1401.58C1519.08 1405.41 1516.66 1409.12 1512.96 1409.84Z" stroke="#000000" stroke-width="2.93478" stroke-miterlimit="8" fill="#D6DBD9" fill-rule="evenodd"/><path d="M1552.76 1401.93 1539.41 1404.38C1535.59 1405.08 1531.91 1402.66 1531.16 1398.96L1528.62 1386.05C1527.9 1382.35 1530.4 1378.8 1534.23 1378.07L1547.58 1375.62C1551.41 1374.92 1555.08 1377.34 1555.84 1381.04L1558.37 1393.95C1559.12 1397.68 1556.59 1401.23 1552.76 1401.93Z" stroke="#000000" stroke-width="2.93478" stroke-miterlimit="8" fill="#D6DBD9" fill-rule="evenodd"/><path d="M1481.96 1454.93 1469.05 1457.38C1465.35 1458.08 1461.8 1455.66 1461.07 1451.96L1458.62 1439.05C1457.92 1435.35 1460.34 1431.8 1464.04 1431.07L1476.95 1428.62C1480.65 1427.92 1484.2 1430.34 1484.93 1434.04L1487.38 1446.95C1488.08 1450.68 1485.66 1454.23 1481.96 1454.93Z" stroke="#000000" stroke-width="2.93478" stroke-miterlimit="8" fill="#D6DBD9" fill-rule="evenodd"/><path d="M1519.76 1443.93 1506.41 1446.38C1502.59 1447.08 1498.91 1444.66 1498.16 1440.96L1495.62 1428.05C1494.9 1424.35 1497.4 1420.8 1501.23 1420.07L1514.58 1417.62C1518.41 1416.92 1522.08 1419.34 1522.84 1423.04L1525.37 1435.95C1526.12 1439.68 1523.59 1443.23 1519.76 1443.93Z" stroke="#000000" stroke-width="2.93478" stroke-miterlimit="8" fill="#D6DBD9" fill-rule="evenodd"/><path d="M1560.76 1437.84 1547.41 1440.38C1543.59 1441.1 1539.91 1438.6 1539.16 1434.77L1536.62 1421.42C1535.9 1417.59 1538.4 1413.91 1542.23 1413.16L1555.58 1410.62C1559.41 1409.9 1563.08 1412.4 1563.84 1416.23L1566.37 1429.58C1567.12 1433.41 1564.59 1437.12 1560.76 1437.84Z" stroke="#000000" stroke-width="2.93478" stroke-miterlimit="8" fill="#D6DBD9" fill-rule="evenodd"/><path d="M1534.86 1481.18 1475.22 1492.38C1471.46 1493.08 1467.85 1490.64 1467.11 1486.91L1464.62 1473.88C1463.91 1470.15 1466.37 1466.56 1470.13 1465.83L1529.77 1454.62C1533.53 1453.92 1537.14 1456.36 1537.88 1460.09L1540.37 1473.12C1541.11 1476.88 1538.62 1480.47 1534.86 1481.18L1534.86 1481.18Z" stroke="#000000" stroke-width="2.93478" stroke-miterlimit="8" fill="#D6DBD9" fill-rule="evenodd"/><path d="M1567.95 1474.84 1555.05 1477.38C1551.35 1478.1 1547.8 1475.6 1547.07 1471.77L1544.62 1458.42C1543.92 1454.59 1546.34 1450.91 1550.04 1450.16L1562.94 1447.62C1566.64 1446.9 1570.2 1449.4 1570.92 1453.23L1573.37 1466.58C1574.1 1470.41 1571.65 1474.12 1567.95 1474.84Z" stroke="#000000" stroke-width="2.93478" stroke-miterlimit="8" fill="#D6DBD9" fill-rule="evenodd"/><path d="M891.379 1334.74C888.406 1342.53 903.271 1357.13 924.113 1377.57 926.91 1380.32 936.418 1389.46 950.372 1399.52 957.996 1405.01 964.266 1408.81 967.033 1410.5 974.54 1414.95 988.346 1423.42 1006.66 1429.05 1025.35 1434.77 1038.86 1438.93 1056.32 1436.07 1063.15 1434.95 1085.43 1431.32 1090.82 1416.72 1093.94 1408.28 1090.05 1399.7 1088.64 1396.54 1068.98 1352.91 900.269 1311.32 891.349 1334.77L891.379 1334.74Z" fill="#5B5742" fill-rule="evenodd" fill-opacity="0.431373"/><path d="M870.949 1136.19C878.486 1123.36 883.113 1121.6 885.849 1122.06 892.326 1123.16 892.303 1137.49 903.987 1159.99 907.955 1167.64 911.486 1173.03 914.473 1177.59 934.687 1204.67 968.152 1245.51 991.388 1274.97 1032 1319.98 1042.68 1334.91 1074.12 1372.47 1076.45 1374.7 1083.46 1381.34 1086.17 1391.98 1098.89 1457.86 961.007 1383.72 947.302 1374.59 919.789 1357.28 920.142 1351.79 875.638 1315.45 830.662 1278.72 824.035 1279.22 820 1265.94 821.973 1249.8 825.79 1230.25 833.18 1208.83 844.037 1177.37 858.737 1153.09 870.949 1136.19Z" stroke="#000000" stroke-width="17.6094" stroke-miterlimit="8" fill="#EBE2B3" fill-rule="evenodd"/><path d="M1325.13 1404.78C1331.61 1415.52 1365.93 1409.96 1380.62 1405.83 1392.68 1402.47 1404.79 1396.35 1409.45 1393.86 1412.53 1392.25 1418.98 1388.71 1426.67 1383.41 1439.43 1374.6 1445.06 1368.46 1458.87 1355.03 1477.44 1336.97 1490.52 1327.11 1503.04 1307.59 1505.74 1303.4 1509.53 1297.02 1507.36 1291.35 1504.57 1284.12 1493.69 1282.19 1489.82 1281.4 1451.92 1273.73 1309.97 1379.73 1325.13 1404.78L1325.13 1404.78Z" fill="#5B5742" fill-rule="evenodd" fill-opacity="0.431373"/><path d="M1487.94 1133.86C1485.52 1129.92 1480.93 1123.63 1475.74 1124.02 1470.02 1124.43 1468 1133.45 1462.92 1140.7 1452.57 1155.46 1447.83 1165.66 1439.66 1180.48 1436.57 1186.07 1428.81 1198.53 1413.37 1223.26 1395.43 1252.01 1386.5 1266.38 1376.59 1281.85 1329.48 1355.49 1312.46 1374.51 1319.54 1384.63 1322.34 1388.62 1329.57 1392.24 1350.3 1388.3 1371.74 1383.24 1401.29 1373.54 1432.34 1354.05 1482.79 1322.36 1510.7 1281.41 1523.99 1258.39 1524.14 1248.92 1522.93 1242.63 1516.55 1226.17 1508.77 1206.1 1514.18 1198.48 1504.52 1169.13 1501.75 1160.71 1498.84 1154.16 1497.05 1150.37 1495.9 1148.38 1494.75 1146.36 1493.61 1144.31 1491.64 1140.78 1489.76 1137.3 1487.94 1133.86Z" stroke="#000000" stroke-width="17.6094" stroke-miterlimit="8" fill="#EBE2B3" fill-rule="evenodd"/></g></svg>