<svg width="1030" height="1259" xmlns="http://www.w3.org/2000/svg" xmlns:xlink="http://www.w3.org/1999/xlink" xml:space="preserve" overflow="hidden"><g transform="translate(-1367 -734)"><path d="M1644.31 1322 1598.6 1275.25 1534.34 1286.59 1564.58 1228.5 1534 1170.75 1598.6 1181.75 1643.96 1135 1653.24 1199.63 1712 1228.5 1653.58 1257.38Z" fill="#72C9E1" fill-rule="evenodd" fill-opacity="0.639216"/><path d="M1607.89 1195.55 1598.41 1198.65 1503.52 908.15 1513 905.055Z" stroke="#000000" stroke-width="3.4375" stroke-miterlimit="8" fill="#5B612B" fill-rule="evenodd"/><path d="M1638.93 1304.5 1602.65 1267.84 1551.5 1276.4 1575.69 1231.17 1551.5 1185.6 1602.65 1194.16 1638.59 1157.5 1646.19 1208.21 1692.5 1230.83 1646.19 1253.79Z" stroke="#000000" stroke-width="3.4375" stroke-miterlimit="8" fill="#F6AF1E" fill-rule="evenodd"/><path d="M2298.9 1640.89 1403.56 1461.44C1386.02 1458 1374.68 1440.81 1378.11 1423.28L1426.94 1179.55C1430.38 1162.02 1447.57 1150.68 1465.1 1154.11L2360.44 1333.56C2377.98 1337 2389.32 1354.19 2385.89 1371.72L2337.06 1615.45C2333.62 1632.98 2316.43 1644.32 2298.9 1640.89L2298.9 1640.89Z" stroke="#000000" stroke-width="20.625" stroke-miterlimit="8" fill="#A6A897" fill-rule="evenodd"/><path d="M1714.5 1760.5C1715.19 1775.65 1717.95 1784.61 1720.02 1789.78 1724.51 1800.11 1725.55 1802.86 1727.62 1808.38 1727.96 1809.75 1728.65 1810.79 1728.65 1811.82 1731.42 1820.09 1731.76 1821.81 1737.63 1841.78 1746.95 1873.82 1747.64 1873.13 1750.06 1884.15 1753.16 1899.3 1751.44 1899.65 1755.24 1921 1758.69 1940.98 1760.76 1950.97 1765.94 1957.86 1767.32 1959.58 1780.44 1976.8 1799.42 1975.42 1811.85 1974.39 1820.14 1965.78 1826.01 1959.58 1829.46 1955.79 1832.22 1952 1845.34 1924.45 1852.93 1908.6 1856.73 1900.34 1859.49 1892.76 1860.87 1888.63 1861.91 1885.53 1862.6 1882.77 1865.7 1871.06 1867.78 1862.45 1868.12 1861.07 1869.85 1852.81 1877.1 1836.96 1898.5 1804.59 1868.47 1796.66 1838.09 1789.09 1806.67 1781.85 1775.6 1774.28 1744.88 1767.04 1714.5 1760.5Z" stroke="#000000" stroke-width="20.625" stroke-miterlimit="8" fill="#EBE2B3" fill-rule="evenodd"/><path d="M2071.5 1821.24C2079.07 1838.41 2086.63 1858.32 2093.51 1880.3 2100.39 1901.93 2105.2 1922.18 2108.98 1940.72 2127.9 1987.76 2178.1 1976.08 2184.29 1926.65 2191.17 1905.02 2198.05 1881.67 2204.24 1857.29 2209.74 1835.32 2214.55 1814.03 2218.68 1793.78 2219.37 1789.31 2219.71 1784.16 2219.37 1778.33 2219.02 1761.85 2214.55 1748.11 2210.77 1738.5 2164.35 1765.97 2117.92 1793.78 2071.5 1821.24Z" stroke="#000000" stroke-width="20.625" stroke-miterlimit="8" fill="#EBE2B3" fill-rule="evenodd"/><path d="M1509.88 1372.41C1507.47 1362.78 1504.72 1348.01 1504.72 1330.13 1504.72 1311.23 1507.81 1306.08 1508.16 1289.92 1509.19 1257.96 1497.84 1256.24 1497.5 1228.41 1497.5 1195.41 1513.66 1169.64 1518.47 1161.73 1529.82 1143.18 1534.63 1145.93 1548.38 1124.96 1561.1 1105.37 1566.94 1088.19 1573.13 1070.66 1583.1 1040.42 1580.69 1034.23 1588.95 1005.71 1594.79 985.43 1602.01 959.998 1618.85 933.879 1629.86 916.695 1648.42 900.199 1685.55 867.206 1709.27 845.899 1726.46 832.152 1739.86 821.498 1780.77 789.192 1794.18 781.975 1799.68 779.226 1818.93 769.603 1836.47 761.011 1859.5 761.698 1871.19 762.042 1889.41 763.073 1909 763.073 1911.76 763.073 1917.94 763.073 1926.19 762.73 1929.63 762.386 1935.48 762.042 1942.7 761.011 1954.73 759.293 1963.67 757.231 1966.42 756.544 2006.64 747.264 2026.92 741.765 2045.49 745.89 2067.83 751.045 2082.96 764.104 2096.37 775.789 2104.96 783.35 2116.99 798.472 2140.37 828.371 2166.5 861.708 2172.34 870.643 2187.81 882.672 2203.28 894.7 2205 891.951 2216 901.917 2230.44 915.321 2235.94 928.724 2249.35 959.998 2275.13 1019.8 2273.07 1011.89 2275.82 1019.8 2278.23 1027.7 2279.94 1035.61 2283.04 1051.42 2287.16 1071.35 2288.19 1080.63 2293.35 1109.5 2297.13 1131.83 2299.2 1142.83 2300.23 1147.99 2309.17 1183.73 2322.23 1207.79 2326.7 1216.38 2346.98 1256.59 2344.92 1304.01 2340.79 1398.87 2338.39 1456.61 2337.01 1487.54 2323.26 1528.78 2316.04 1550.08 2312.95 1552.49 2295.07 1600.61 2279.94 1641.5 2277.54 1652.84 2265.16 1681.37 2251.41 1712.99 2244.53 1728.79 2230.1 1746.32 2223.91 1753.88 2209.81 1769.69 2172 1792.03 2140.71 1810.59 2105.65 1831.55 2054.42 1841.18 1980.51 1855.27 1918.63 1837.74 1894.57 1830.52 1879.44 1826.05 1874.28 1823.31 1845.41 1814.71 1831.31 1810.59 1820.31 1807.5 1811.03 1805.09 1773.56 1795.47 1770.81 1796.16 1752.58 1790.31 1741.24 1786.53 1733.68 1783.44 1719.58 1777.6 1693.11 1766.6 1670.08 1756.98 1652.2 1746.32 1608.54 1719.86 1585.85 1680.34 1576.57 1663.84 1569.69 1651.47 1560.41 1623.63 1541.5 1567.27 1529.13 1530.15 1522.94 1511.25 1520.53 1498.88 1516.06 1474.48 1514.34 1451.45 1511.94 1405.74 1510.91 1391.65 1510.22 1379.97 1509.88 1372.41Z" stroke="#000000" stroke-width="20.625" stroke-miterlimit="8" fill="#EBE2B3" fill-rule="evenodd"/><path d="M1754.33 899.255 1767.53 874.346 1885.39 936.778 1872.19 961.688Z" stroke="#000000" stroke-width="10.3139" stroke-miterlimit="8" fill="#595850" fill-rule="evenodd"/><path d="M2007.7 931.408 2127.88 873.563 2140.11 898.963 2019.92 956.807Z" stroke="#000000" stroke-width="10.3139" stroke-miterlimit="8" fill="#595850" fill-rule="evenodd"/><path d="M2210 1983.5C2210 1988.75 2105.23 1993 1976 1993 1846.77 1993 1742 1988.75 1742 1983.5 1742 1978.25 1846.77 1974 1976 1974 2105.23 1974 2210 1978.25 2210 1983.5Z" fill="#5B5742" fill-rule="evenodd" fill-opacity="0.470588"/><path d="M1853.5 1023C1853.5 1045.92 1834.92 1064.5 1812 1064.5 1789.08 1064.5 1770.5 1045.92 1770.5 1023 1770.5 1000.08 1789.08 981.5 1812 981.5 1834.92 981.5 1853.5 1000.08 1853.5 1023Z" stroke="#000000" stroke-width="20.625" stroke-miterlimit="8" fill="#231815" fill-rule="evenodd"/><path d="M2127.5 1023C2127.5 1045.92 2108.92 1064.5 2086 1064.5 2063.08 1064.5 2044.5 1045.92 2044.5 1023 2044.5 1000.08 2063.08 981.5 2086 981.5 2108.92 981.5 2127.5 1000.08 2127.5 1023Z" stroke="#000000" stroke-width="20.625" stroke-miterlimit="8" fill="#231815" fill-rule="evenodd"/><path d="M1836 1036C1836 1047.05 1827.05 1056 1816 1056 1804.95 1056 1796 1047.05 1796 1036 1796 1024.95 1804.95 1016 1816 1016 1827.05 1016 1836 1024.95 1836 1036Z" fill="#FFFFFF" fill-rule="evenodd"/><path d="M2105 1036C2105 1047.05 2096.27 1056 2085.5 1056 2074.73 1056 2066 1047.05 2066 1036 2066 1024.95 2074.73 1016 2085.5 1016 2096.27 1016 2105 1024.95 2105 1036Z" fill="#FFFFFF" fill-rule="evenodd"/><path d="M2032 1151C2032 1163.15 1998.2 1173 1956.5 1173 1914.8 1173 1881 1163.15 1881 1151 1881 1138.85 1914.8 1129 1956.5 1129 1998.2 1129 2032 1138.85 2032 1151Z" stroke="#000000" stroke-width="10.3125" stroke-miterlimit="8" fill="#E73A8F" fill-rule="evenodd"/><path d="M1632.74 1161C1638.24 1153.09 1646.49 1138.31 1644.77 1120.44 1643.74 1108.06 1636.52 1097.4 1622.09 1076.78 1612.13 1062 1604.57 1050.99 1591.17 1037.93 1579.49 1026.59 1568.84 1019.37 1547.88 1005.27 1522.8 988.43 1510.09 980.179 1493.94 976.054 1483.29 973.304 1459.93 967.116 1447.9 979.148 1440.35 986.367 1440.35 997.368 1440 1001.49 1439.32 1044.81 1571.25 1138.66 1590.83 1152.41 1604.92 1155.5 1619 1158.25 1632.74 1161Z" fill="#5B5742" fill-rule="evenodd" fill-opacity="0.431373"/><path d="M1680.79 1319.59C1678.38 1320.62 1663.94 1325.78 1650.88 1319.25 1641.94 1314.78 1637.81 1306.86 1635.41 1302.74 1625.44 1284.51 1611 1269.03 1600.34 1250.8 1596.21 1243.58 1597.24 1246.33 1540.86 1170.66 1521.95 1145.2 1512.33 1132.48 1505.45 1122.84 1487.57 1098.08 1475.54 1079.5 1453.88 1048.89 1451.47 1046.14 1443.91 1037.54 1441.85 1025.16 1433.25 947.079 1586.59 1046.48 1601.71 1058.52 1625.09 1076.07 1629.9 1083.98 1652.94 1108.05 1664.28 1119.75 1672.88 1128.35 1679.41 1134.54 1713.79 1167.22 1727.89 1173.41 1732.36 1192.32 1734.42 1201.27 1733.39 1209.52 1731.67 1216.06 1728.23 1236.01 1723.07 1251.83 1718.95 1262.84 1708.29 1290.7 1700.38 1312.02 1680.79 1319.59Z" stroke="#000000" stroke-width="20.625" stroke-miterlimit="8" fill="#EBE2B3" fill-rule="evenodd"/><path d="M2093.91 1395.63C2104.21 1405.94 2141.65 1390.13 2157.44 1381.2 2170.15 1373.98 2182.17 1363.67 2186.98 1359.55 2190.07 1356.8 2196.25 1350.96 2203.46 1342.71 2215.48 1328.97 2220.29 1320.38 2232.31 1301.48 2248.45 1275.71 2260.47 1260.93 2269.4 1235.16 2271.46 1229.66 2273.87 1221.42 2269.75 1215.58 2264.6 1208.02 2251.54 1209.05 2247.08 1209.05 2201.4 1211.11 2069.87 1371.58 2093.91 1395.63L2093.91 1395.63Z" fill="#5B5742" fill-rule="evenodd" fill-opacity="0.431373"/><path d="M2273.51 1036.5C2268.02 1036.5 2259.44 1037.53 2251.21 1042.01 2236.11 1050.27 2230.28 1065.06 2221.01 1087.43 2213.46 1104.98 2204.54 1121.5 2198.02 1139.4 2189.1 1163.14 2177.78 1186.2 2157.19 1233.35 2124.59 1307.68 2095.77 1348.63 2105.38 1361.02 2108.46 1365.15 2116.7 1368.59 2143.12 1361.02 2219.3 1338.31 2275.23 1268.45 2304.39 1225.09 2307.14 1210.29 2308.85 1190.33 2306.11 1166.58 2304.39 1150.75 2300.96 1136.99 2297.19 1126.32 2295.13 1117.03 2293.07 1107.74 2291.01 1098.44 2285.52 1076.42 2279.69 1055.77 2273.51 1036.5Z" stroke="#000000" stroke-width="20.625" stroke-miterlimit="8" fill="#EBE2B3" fill-rule="evenodd"/></g></svg>