<svg width="1030" height="1259" xmlns="http://www.w3.org/2000/svg" xmlns:xlink="http://www.w3.org/1999/xlink" xml:space="preserve" overflow="hidden"><defs><clipPath id="clip0"><rect x="120" y="734" width="1030" height="1259"/></clipPath></defs><g clip-path="url(#clip0)" transform="translate(-120 -734)"><path d="M1051.85 1640.86 156.613 1461.53C139.012 1458 127.62 1440.88 131.138 1423.32L179.96 1179.61C183.492 1162.01 200.612 1150.62 218.178 1154.14L1113.39 1333.46C1130.99 1336.99 1142.38 1354.11 1138.86 1371.67L1090.04 1615.38C1086.55 1632.96 1069.42 1644.38 1051.85 1640.86L1051.85 1640.86Z" stroke="#000000" stroke-width="20.625" stroke-miterlimit="8" fill="#A6A897" fill-rule="evenodd"/><path d="M468.5 1760.5C469.328 1775.72 471.873 1784.38 474.126 1789.54 478.664 1799.92 479.653 1802.67 481.625 1808.17 482.123 1809.55 482.507 1810.67 482.782 1811.46 485.668 1819.8 485.771 1821.42 491.541 1841.25 500.815 1873.09 501.571 1872.4 503.804 1883.31 506.895 1898.31 505.315 1898.68 509.059 1920.09 512.529 1939.89 514.383 1949.91 519.57 1956.87 520.909 1958.66 534.168 1975.92 552.888 1974.41 565.185 1973.41 573.36 1964.8 579.199 1958.62 582.737 1954.92 585.485 1951.11 598.503 1923.59 606.026 1907.71 609.839 1899.58 612.552 1892.06 613.995 1888.08 614.956 1884.89 615.678 1882.11 618.721 1870.39 620.991 1861.92 621.311 1860.53 623.186 1852.34 630.159 1836.68 651.5 1804.3 621.689 1796.55 591.283 1788.94 560.294 1781.53 529.249 1774.09 498.641 1767.09 468.5 1760.5Z" stroke="#000000" stroke-width="20.625" stroke-miterlimit="8" fill="#EBE2B3" fill-rule="evenodd"/><path d="M825.5 1821.57C833.101 1838.88 840.703 1858.55 847.617 1880.46 854.427 1902.09 859.449 1922.35 863.164 1940.79 882.219 1987.67 932.403 1976.13 938.423 1926.78 945.405 1905.08 952.147 1881.94 958.372 1857.42 963.979 1835.34 968.726 1814.05 972.716 1793.72 973.283 1789.09 973.6 1783.97 973.473 1778.43 973.087 1761.77 968.815 1748.09 964.743 1738.5 918.328 1766.19 871.914 1793.88 825.5 1821.57Z" stroke="#000000" stroke-width="20.625" stroke-miterlimit="8" fill="#EBE2B3" fill-rule="evenodd"/><path d="M262.769 1372.54C260.364 1362.88 257.58 1348.28 257.511 1330.41 257.442 1311.4 260.535 1306.18 261.017 1290.06 261.979 1258.13 250.534 1256.31 250.5 1228.64 250.5 1195.79 266.515 1170.01 271.567 1161.97 283.046 1143.58 287.617 1146.19 301.398 1125.12 314.217 1105.53 320.128 1088.21 325.97 1070.72 336.109 1040.37 333.703 1034.29 341.779 1005.8 347.484 985.658 354.735 959.985 371.61 933.83 382.607 916.783 401.165 900.252 438.282 867.156 462.133 845.882 479.316 832.169 492.685 821.515 533.444 789.071 546.848 782.129 552.346 779.379 571.626 769.825 588.982 761.199 612.008 761.817 623.589 762.126 641.838 763.261 661.462 763.089 664.246 763.054 670.535 763.089 678.714 762.573 682.22 762.333 688.096 761.886 695.176 760.924 707.204 759.308 716.243 757.177 719.027 756.524 759.167 747.245 779.444 741.643 798.002 746.008 820.307 751.232 835.291 764.154 848.9 775.839 857.526 783.263 869.383 798.454 892.787 828.491 918.803 861.932 924.817 870.902 940.179 882.897 955.541 894.891 957.466 892.073 968.257 902.212 982.623 915.684 988.018 928.916 1001.59 960.122 1027.54 1019.79 1025.41 1011.98 1027.92 1019.79 1030.46 1027.79 1031.9 1035.66 1035.17 1051.34 1039.29 1071.17 1040.5 1080.72 1045.48 1109.31 1049.36 1131.52 1051.19 1142.65 1052.49 1147.91 1061.29 1183.55 1074.52 1207.75 1078.82 1216.34 1098.92 1256.48 1096.89 1303.94 1092.87 1398.87 1090.43 1456.43 1089.09 1487.71 1075.31 1528.75 1068.2 1549.92 1064.93 1552.36 1047.23 1600.71 1032.25 1641.61 1029.77 1653.02 1017.4 1681.44 1003.66 1713.06 996.782 1728.87 982.313 1746.37 976.196 1753.79 961.933 1769.74 924.405 1792.01 893.199 1810.53 858.076 1831.36 806.835 1841.15 732.946 1855.28 671.222 1837.75 647.131 1830.64 632.112 1826.2 627.026 1823.52 597.986 1814.83 584.019 1810.65 572.905 1807.59 563.471 1805.14 526.135 1795.47 523.371 1796.2 504.988 1790.25 493.596 1786.57 485.942 1783.4 472.144 1777.65 445.698 1766.62 422.597 1757 404.946 1746.37 361.279 1720.07 338.71 1680.36 329.476 1663.88 322.602 1651.61 313.186 1623.53 294.387 1567.34 281.98 1530.26 275.691 1511.46 273.32 1498.91 268.714 1474.62 267.306 1451.45 264.556 1405.91 263.663 1391.79 263.113 1380.21 262.769 1372.54Z" stroke="#000000" stroke-width="20.625" stroke-miterlimit="8" fill="#EBE2B3" fill-rule="evenodd"/><path d="M507.541 899.27 520.687 874.452 638.587 936.904 625.441 961.722Z" stroke="#000000" stroke-width="10.3136" stroke-miterlimit="8" fill="#595850" fill-rule="evenodd"/><path d="M761.203 931.406 881.424 873.543 893.605 898.85 773.383 956.712Z" stroke="#000000" stroke-width="10.3136" stroke-miterlimit="8" fill="#595850" fill-rule="evenodd"/><path d="M963 1983.5C963 1988.75 858.234 1993 729 1993 599.765 1993 495 1988.75 495 1983.5 495 1978.25 599.765 1974 729 1974 858.234 1974 963 1978.25 963 1983.5Z" fill="#5B5742" fill-rule="evenodd" fill-opacity="0.470588"/><path d="M607.5 1022.5C607.5 1045.7 588.696 1064.5 565.5 1064.5 542.304 1064.5 523.5 1045.7 523.5 1022.5 523.5 999.304 542.304 980.5 565.5 980.5 588.696 980.5 607.5 999.304 607.5 1022.5Z" stroke="#000000" stroke-width="20.625" stroke-miterlimit="8" fill="#231815" fill-rule="evenodd"/><path d="M881.5 1022.5C881.5 1045.7 862.696 1064.5 839.5 1064.5 816.304 1064.5 797.5 1045.7 797.5 1022.5 797.5 999.304 816.304 980.5 839.5 980.5 862.696 980.5 881.5 999.304 881.5 1022.5Z" stroke="#000000" stroke-width="20.625" stroke-miterlimit="8" fill="#231815" fill-rule="evenodd"/><path d="M589 1036C589 1047.05 580.046 1056 569 1056 557.954 1056 549 1047.05 549 1036 549 1024.95 557.954 1016 569 1016 580.046 1016 589 1024.95 589 1036Z" fill="#FFFFFF" fill-rule="evenodd"/><path d="M859 1036C859 1047.05 850.046 1056 839 1056 827.955 1056 819 1047.05 819 1036 819 1024.95 827.955 1016 839 1016 850.046 1016 859 1024.95 859 1036Z" fill="#FFFFFF" fill-rule="evenodd"/><path d="M785 1151C785 1163.15 751.422 1173 710 1173 668.579 1173 635 1163.15 635 1151 635 1138.85 668.579 1129 710 1129 751.422 1129 785 1138.85 785 1151Z" stroke="#000000" stroke-width="10.3125" stroke-miterlimit="8" fill="#E73A8F" fill-rule="evenodd"/><path d="M385.844 1161C391.22 1153.15 399.491 1138.36 397.768 1120.49 396.595 1108.3 389.421 1097.65 375.119 1076.83 365.042 1062.17 357.413 1051.06 344.264 1038.11 332.652 1026.68 322.034 1019.57 300.802 1005.36 275.839 988.64 263.03 980.198 246.936 976.027 236.119 973.222 213.041 967.239 200.837 979.028 193.346 986.264 193.098 997.164 193.005 1001.31 192.012 1044.95 324.37 1138.81 344.002 1152.6 357.953 1155.4 371.9 1158.2 385.844 1161Z" fill="#5B5742" fill-rule="evenodd" fill-opacity="0.431373"/><path d="M434.978 1319.57C432.712 1320.44 418.14 1325.84 405.015 1319.34 396.14 1314.94 391.894 1307.07 389.604 1302.95 379.477 1284.72 365.07 1269.14 354.607 1251.11 350.429 1243.91 351.65 1246.57 295.073 1170.74 276.017 1145.2 266.427 1132.48 259.557 1122.9 241.756 1098.09 229.577 1079.63 208.021 1049.07 205.521 1046.25 197.991 1037.83 195.846 1025.16 187.28 947.028 340.709 1046.62 355.793 1058.57 379.223 1076.16 384.026 1083.98 407.181 1108.03 418.473 1119.76 427.142 1128.26 433.592 1134.39 467.915 1167.03 482.126 1173.28 486.383 1192.1 488.374 1200.9 487.435 1209.15 485.661 1215.96 482.181 1235.9 477.089 1251.8 472.918 1262.91 462.493 1290.66 454.536 1312 434.978 1319.57Z" stroke="#000000" stroke-width="20.625" stroke-miterlimit="8" fill="#EBE2B3" fill-rule="evenodd"/><path d="M846.958 1395.58C857.354 1406 894.9 1390.1 910.489 1381.3 923.281 1374.11 935.37 1363.76 939.989 1359.63 943.048 1356.94 949.408 1351.1 956.68 1342.93 968.748 1329.34 973.446 1320.77 985.422 1301.61 1001.52 1275.87 1013.66 1260.99 1022.46 1235.26 1024.36 1229.74 1026.89 1221.42 1022.82 1215.56 1017.62 1208.11 1004.68 1208.94 1000.05 1209.12 954.718 1210.95 822.658 1371.27 846.958 1395.58L846.958 1395.58Z" fill="#5B5742" fill-rule="evenodd" fill-opacity="0.431373"/><path d="M1026.76 1036.5C1021.13 1036.55 1012.82 1037.43 1004.48 1041.93 989.357 1050.09 983.676 1065.01 974.171 1087.45 966.777 1104.9 957.787 1121.67 951.035 1139.38 942.045 1162.96 930.909 1186.21 910.155 1233.39 877.49 1307.64 848.707 1348.78 858.411 1361.05 861.559 1365.03 869.89 1368.72 896.074 1360.94 972.3 1338.29 1028.1 1268.45 1057.35 1224.98 1059.97 1210.28 1061.9 1190.11 1059.18 1166.5 1057.36 1150.67 1053.88 1137.07 1050.24 1126.13 1048.34 1116.99 1046.26 1107.67 1043.98 1098.19 1038.74 1076.45 1032.91 1055.87 1026.76 1036.5Z" stroke="#000000" stroke-width="20.625" stroke-miterlimit="8" fill="#EBE2B3" fill-rule="evenodd"/></g></svg>