<svg width="948" height="685" xmlns="http://www.w3.org/2000/svg" xmlns:xlink="http://www.w3.org/1999/xlink" xml:space="preserve" overflow="hidden"><g transform="translate(-860 -959)"><path d="M1063.23 1083.43C1060.06 1067.73 1032.15 1047.62 1015.55 1036.87 998.943 1026.11 978.277 1020.47 963.617 1018.88 948.957 1017.29 936.417 1020.82 927.586 1027.34 918.754 1033.87 911.866 1047.45 910.63 1058.03 909.393 1068.61 917.341 1082.72 920.167 1090.83 922.994 1098.95 926.173 1109.7 927.586 1106.71 928.999 1103.71 926.526 1083.25 928.646 1072.84 930.765 1062.44 932.355 1049.74 940.303 1044.27 948.251 1038.81 964.854 1036.34 976.335 1040.04 987.815 1043.74 999.826 1053.8 1009.19 1066.5 1018.55 1079.19 1028.26 1105.47 1032.5 1116.23 1036.74 1126.99 1029.15 1136.16 1034.62 1131.04 1040.1 1125.93 1066.41 1099.12 1063.23 1083.43Z" stroke="#7F6000" stroke-width="4.58333" stroke-miterlimit="8" fill="#7F6000" fill-rule="evenodd"/><path d="M164.675 63.8304C161.148 50.4186 127.643 37.4915 107.069 26.9882 86.4958 16.4849 59.0643-4.36001 41.2339 0.8108 23.4035 5.98161 1.65434 51.7112 0.0868121 58.0132-1.48072 64.3151 18.505 42.9855 31.8288 38.6226 45.1526 34.2596 63.9628 20.3631 80.0298 31.8359 96.0967 43.3086 114.319 102.127 128.231 107.459 142.142 112.792 168.202 77.2422 164.675 63.8304Z" stroke="#7F6000" stroke-width="4.58333" stroke-miterlimit="8" fill="#7F6000" fill-rule="evenodd" transform="matrix(-1 0 0 1 1611.5 961.5)"/><path d="M1616.02 1441.13C1509.15 1452.98 1420.36 1443.18 1417.71 1419.26 1415.06 1395.33 1499.54 1366.33 1606.41 1354.48 1713.28 1342.63 1802.06 1352.43 1804.72 1376.36 1807.37 1400.29 1722.88 1429.29 1616.02 1441.13Z" stroke="#DA9BE9" stroke-width="4.58333" stroke-miterlimit="8" fill="#DA9BE9" fill-rule="evenodd"/><path d="M1021.97 1413.82C1111.35 1409.4 1184.8 1425.91 1186.02 1450.69 1187.25 1475.47 1115.79 1499.14 1026.41 1503.56 937.033 1507.98 863.585 1491.47 862.36 1466.69 861.135 1441.91 932.596 1418.24 1021.97 1413.82Z" stroke="#9DC3E6" stroke-width="4.58333" stroke-miterlimit="8" fill="#9DC3E6" fill-rule="evenodd"/><path d="M1136.5 1457C1136.5 1377.75 1208.36 1313.5 1297 1313.5 1385.64 1313.5 1457.5 1377.75 1457.5 1457 1457.5 1536.25 1385.64 1600.5 1297 1600.5 1208.36 1600.5 1136.5 1536.25 1136.5 1457Z" stroke="#BDD7EE" stroke-width="4.58333" stroke-miterlimit="8" fill="#BDD7EE" fill-rule="evenodd"/><path d="M1286.88 1576.77 1230.44 1641.01 1157.91 1607.72 1169.82 1523.04Z" stroke="#BDD7EE" stroke-width="4.58333" stroke-miterlimit="8" fill="#BDD7EE" fill-rule="evenodd"/><path d="M1424.5 1545.5 1399.98 1627.5 1326.02 1627.5 1301.5 1545.5Z" stroke="#BDD7EE" stroke-width="4.58333" stroke-miterlimit="8" fill="#BDD7EE" fill-rule="evenodd"/><path d="M1007.33 1244.42C995.853 1127.18 1081.58 1022.84 1198.82 1011.36L1333.09 998.21C1450.32 986.73 1554.67 1072.46 1566.15 1189.7L1566.15 1189.7C1577.63 1306.93 1491.9 1411.27 1374.66 1422.76L1240.39 1435.9C1123.16 1447.38 1018.81 1361.65 1007.33 1244.42Z" stroke="#BDD7EE" stroke-width="4.58333" stroke-miterlimit="8" fill="#BDD7EE" fill-rule="evenodd"/><path d="M1285.89 1117.64C1307.46 1081.73 1360.05 1073.7 1403.34 1099.7 1446.64 1125.7 1464.26 1175.9 1442.69 1211.81 1421.12 1247.72 1368.54 1255.75 1325.24 1229.75 1281.94 1203.75 1264.33 1153.55 1285.89 1117.64Z" stroke="#C158DA" stroke-width="4.58333" stroke-miterlimit="8" fill="#C158DA" fill-rule="evenodd"/><path d="M1212.86 1116.07C1241.01 1116.95 1263.12 1140.49 1262.23 1168.64 1261.35 1196.79 1237.81 1218.9 1209.66 1218.01 1181.51 1217.13 1159.41 1193.59 1160.29 1165.44 1161.17 1137.29 1184.71 1115.19 1212.86 1116.07Z" stroke="#2F5597" stroke-width="4.58333" stroke-miterlimit="8" fill="#2F5597" fill-rule="evenodd"/><path d="M1339.41 1101.36C1367.56 1102.24 1389.66 1125.78 1388.78 1153.93 1387.9 1182.08 1364.36 1204.18 1336.21 1203.3 1308.06 1202.42 1285.95 1178.88 1286.84 1150.73 1287.72 1122.58 1311.26 1100.47 1339.41 1101.36Z" stroke="#2F5597" stroke-width="4.58333" stroke-miterlimit="8" fill="#2F5597" fill-rule="evenodd"/><path d="M1196.5 1179.22C1186.75 1165.41 1190.04 1146.32 1203.84 1136.57 1217.65 1126.83 1236.74 1130.11 1246.49 1143.92 1256.24 1157.72 1252.95 1176.81 1239.14 1186.56 1225.34 1196.31 1206.25 1193.02 1196.5 1179.22Z" stroke="#000000" stroke-width="4.58333" stroke-miterlimit="8" fill-rule="evenodd"/><path d="M1298.69 1169.21C1288.94 1155.41 1292.23 1136.31 1306.04 1126.57 1319.84 1116.82 1338.93 1120.11 1348.68 1133.91 1358.43 1147.71 1355.14 1166.81 1341.34 1176.56 1327.53 1186.3 1308.44 1183.01 1298.69 1169.21Z" stroke="#000000" stroke-width="4.58333" stroke-miterlimit="8" fill-rule="evenodd"/><path d="M1228.5 1149.55C1226.61 1146.87 1229.13 1141.83 1234.14 1138.29 1239.15 1134.76 1244.75 1134.06 1246.64 1136.74 1248.53 1139.42 1246 1144.46 1240.99 1148 1235.98 1151.53 1230.39 1152.23 1228.5 1149.55Z" stroke="#FFFFFF" stroke-width="4.58333" stroke-miterlimit="8" fill="#FFFFFF" fill-rule="evenodd"/><path d="M1335.93 1144.8C1334.56 1141.82 1338.4 1137.13 1344.5 1134.31 1350.61 1131.49 1356.67 1131.61 1358.05 1134.58 1359.42 1137.56 1355.58 1142.25 1349.48 1145.07 1343.37 1147.9 1337.31 1147.77 1335.93 1144.8Z" stroke="#FFFFFF" stroke-width="4.58333" stroke-miterlimit="8" fill="#FFFFFF" fill-rule="evenodd"/><path d="M1182.19 1209.64 1196.98 1216.95 1101.07 1410.79 1086.28 1403.47Z" stroke="#00B0F0" stroke-width="4.58333" stroke-miterlimit="8" fill="#00B0F0" fill-rule="evenodd"/><path d="M1053.1 1403.08C1063.3 1382.47 1088.13 1373.95 1108.56 1384.06 1128.99 1394.17 1137.28 1419.08 1127.08 1439.69 1116.88 1460.3 1092.05 1468.82 1071.62 1458.71 1051.19 1448.6 1042.9 1423.69 1053.1 1403.08Z" stroke="#00B0F0" stroke-width="4.58333" stroke-miterlimit="8" fill="#00B0F0" fill-rule="evenodd"/><path d="M1373.48 1183.26 1386.66 1173.34 1516.69 1346.16 1503.51 1356.08Z" stroke="#00B0F0" stroke-width="4.58333" stroke-miterlimit="8" fill="#00B0F0" fill-rule="evenodd"/><path d="M1488.24 1385.54C1474.42 1367.16 1477.97 1341.15 1496.19 1327.45 1514.4 1313.74 1540.38 1317.53 1554.2 1335.91 1568.03 1354.29 1564.47 1380.29 1546.26 1394 1528.05 1407.7 1502.07 1403.92 1488.24 1385.54Z" stroke="#00B0F0" stroke-width="4.58333" stroke-miterlimit="8" fill="#00B0F0" fill-rule="evenodd"/><path d="M1224.92 1317.65C1221.51 1286.6 1248.77 1258.14 1285.79 1254.08 1322.82 1250.01 1355.6 1271.88 1359.01 1302.92 1327.83 1274.93 1274.61 1274.41 1240.14 1301.75 1234.23 1306.45 1229.1 1311.8 1224.92 1317.65Z" stroke="#000000" stroke-width="4.58333" stroke-miterlimit="8" fill="#FF0000" fill-rule="evenodd"/></g></svg>