<svg width="946" height="686" xmlns="http://www.w3.org/2000/svg" xmlns:xlink="http://www.w3.org/1999/xlink" xml:space="preserve" overflow="hidden"><g transform="translate(-1911 -1478)"><path d="M2110.24 1602.43C2107.08 1586.73 2079.35 1566.62 2062.86 1555.87 2046.36 1545.11 2025.83 1539.47 2011.27 1537.88 1996.71 1536.29 1984.25 1539.82 1975.47 1546.34 1966.7 1552.87 1959.86 1566.45 1958.63 1577.03 1957.4 1587.61 1965.3 1601.72 1968.1 1609.83 1970.91 1617.95 1974.07 1628.7 1975.47 1625.71 1976.88 1622.71 1974.42 1602.25 1976.53 1591.84 1978.63 1581.44 1980.21 1568.74 1988.11 1563.27 1996 1557.81 2012.5 1555.34 2023.9 1559.04 2035.31 1562.74 2047.24 1572.8 2056.54 1585.5 2065.84 1598.19 2075.49 1624.47 2079.7 1635.23 2083.92 1645.99 2076.37 1655.16 2081.81 1650.04 2087.25 1644.93 2113.4 1618.12 2110.24 1602.43Z" stroke="#7F6000" stroke-width="4.58333" stroke-miterlimit="8" fill="#7F6000" fill-rule="evenodd"/><path d="M163.677 64.4214C160.172 50.8854 126.869 37.8387 106.42 27.2381 85.9715 16.6376 58.7063-4.40038 40.984 0.818308 23.2616 6.037 1.64432 52.19 0.086286 58.5504-1.47175 64.9107 18.3928 43.3835 31.6359 38.9802 44.879 34.5769 63.5751 20.5517 79.5448 32.1307 95.5143 43.7097 113.626 103.073 127.454 108.454 141.281 113.836 167.183 77.9575 163.677 64.4214Z" stroke="#7F6000" stroke-width="4.58333" stroke-miterlimit="8" fill="#7F6000" fill-rule="evenodd" transform="matrix(-1 0 0 1 2658.5 1480.5)"/><path d="M2664.92 1955.03C2557.93 1965.7 2469.25 1954.93 2466.86 1930.98 2464.47 1907.02 2549.27 1878.95 2656.26 1868.27 2763.26 1857.6 2851.93 1868.36 2854.32 1892.32 2856.71 1916.28 2771.91 1944.35 2664.92 1955.03Z" stroke="#DA9BE9" stroke-width="4.58333" stroke-miterlimit="8" fill="#DA9BE9" fill-rule="evenodd"/><path d="M2071.04 1934.06C2160.22 1926.59 2234.19 1940.57 2236.26 1965.29 2238.33 1990.02 2167.73 2016.12 2078.55 2023.6 1989.38 2031.08 1915.41 2017.1 1913.34 1992.37 1911.26 1967.65 1981.87 1941.54 2071.04 1934.06Z" stroke="#9DC3E6" stroke-width="4.58333" stroke-miterlimit="8" fill="#9DC3E6" fill-rule="evenodd"/><path d="M2184.5 1976.5C2184.5 1896.97 2256.36 1832.5 2345 1832.5 2433.64 1832.5 2505.5 1896.97 2505.5 1976.5 2505.5 2056.03 2433.64 2120.5 2345 2120.5 2256.36 2120.5 2184.5 2056.03 2184.5 1976.5Z" stroke="#BDD7EE" stroke-width="4.58333" stroke-miterlimit="8" fill="#BDD7EE" fill-rule="evenodd"/><path d="M2352.5 2068.5 2327.98 2150.5 2248.02 2150.5 2223.5 2068.5Z" stroke="#BDD7EE" stroke-width="4.58333" stroke-miterlimit="8" fill="#BDD7EE" fill-rule="evenodd"/><path d="M2471.95 2040.47 2491.35 2123.75 2426.79 2160.67 2364.85 2101.71Z" stroke="#BDD7EE" stroke-width="4.58333" stroke-miterlimit="8" fill="#BDD7EE" fill-rule="evenodd"/><path d="M2054.65 1763.61C2043.17 1646.37 2128.9 1542.03 2246.14 1530.55L2380.41 1517.4C2497.64 1505.92 2601.99 1591.65 2613.47 1708.88L2613.47 1708.88C2624.95 1826.12 2539.22 1930.46 2421.98 1941.94L2287.71 1955.09C2170.48 1966.57 2066.13 1880.84 2054.65 1763.61Z" stroke="#BDD7EE" stroke-width="4.58333" stroke-miterlimit="8" fill="#BDD7EE" fill-rule="evenodd"/><path d="M2333.21 1636.83C2354.78 1600.92 2407.37 1592.88 2450.66 1618.89 2493.96 1644.89 2511.58 1695.08 2490.01 1730.99 2468.44 1766.91 2415.86 1774.94 2372.56 1748.94 2329.26 1722.93 2311.65 1672.74 2333.21 1636.83Z" stroke="#C158DA" stroke-width="4.58333" stroke-miterlimit="8" fill="#C158DA" fill-rule="evenodd"/><path d="M2260.18 1635.26C2288.33 1636.14 2310.44 1659.68 2309.55 1687.83 2308.67 1715.98 2285.13 1738.08 2256.98 1737.2 2228.83 1736.32 2206.73 1712.78 2207.61 1684.63 2208.49 1656.48 2232.03 1634.37 2260.18 1635.26Z" stroke="#2F5597" stroke-width="4.58333" stroke-miterlimit="8" fill="#2F5597" fill-rule="evenodd"/><path d="M2386.73 1620.54C2414.88 1621.43 2436.98 1644.96 2436.1 1673.11 2435.22 1701.26 2411.68 1723.37 2383.53 1722.49 2355.38 1721.6 2333.27 1698.07 2334.16 1669.92 2335.04 1641.76 2358.58 1619.66 2386.73 1620.54Z" stroke="#2F5597" stroke-width="4.58333" stroke-miterlimit="8" fill="#2F5597" fill-rule="evenodd"/><path d="M2243.82 1698.4C2234.07 1684.6 2237.36 1665.51 2251.16 1655.76 2264.97 1646.01 2284.06 1649.3 2293.81 1663.1 2303.56 1676.91 2300.27 1696 2286.46 1705.75 2272.66 1715.5 2253.57 1712.21 2243.82 1698.4Z" stroke="#000000" stroke-width="4.58333" stroke-miterlimit="8" fill-rule="evenodd"/><path d="M2346.01 1688.4C2336.26 1674.59 2339.55 1655.5 2353.35 1645.75 2367.16 1636 2386.25 1639.29 2396 1653.1 2405.75 1666.9 2402.46 1685.99 2388.66 1695.74 2374.85 1705.49 2355.76 1702.2 2346.01 1688.4Z" stroke="#000000" stroke-width="4.58333" stroke-miterlimit="8" fill-rule="evenodd"/><path d="M2275.82 1668.74C2273.93 1666.06 2276.45 1661.02 2281.46 1657.48 2286.47 1653.94 2292.07 1653.25 2293.96 1655.93 2295.85 1658.61 2293.32 1663.65 2288.31 1667.18 2283.3 1670.72 2277.71 1671.42 2275.82 1668.74Z" stroke="#FFFFFF" stroke-width="4.58333" stroke-miterlimit="8" fill="#FFFFFF" fill-rule="evenodd"/><path d="M2383.25 1663.98C2381.88 1661.01 2385.72 1656.31 2391.82 1653.49 2397.93 1650.67 2403.99 1650.8 2405.37 1653.77 2406.74 1656.74 2402.9 1661.44 2396.8 1664.26 2390.69 1667.08 2384.63 1666.96 2383.25 1663.98Z" stroke="#FFFFFF" stroke-width="4.58333" stroke-miterlimit="8" fill="#FFFFFF" fill-rule="evenodd"/><path d="M2269.08 1836.47C2265.67 1805.43 2292.92 1776.97 2329.94 1772.9 2366.97 1768.83 2399.75 1790.7 2403.16 1821.74 2371.98 1793.75 2318.76 1793.23 2284.29 1820.58 2278.38 1825.27 2273.25 1830.62 2269.08 1836.47Z" stroke="#000000" stroke-width="4.58333" stroke-miterlimit="8" fill="#FF0000" fill-rule="evenodd"/><path d="M2226.4 1732.2 2237.05 1736.72 2204.46 1813.36 2193.82 1808.84Z" stroke="#00B0F0" stroke-width="4.58333" stroke-miterlimit="8" fill="#00B0F0" fill-rule="evenodd"/><path d="M2156.13 1808.42C2165.13 1787.26 2189.43 1777.33 2210.41 1786.25 2231.39 1795.17 2241.09 1819.56 2232.1 1840.72 2223.1 1861.89 2198.8 1871.81 2177.82 1862.89 2156.84 1853.98 2147.13 1829.59 2156.13 1808.42Z" stroke="#00B0F0" stroke-width="4.58333" stroke-miterlimit="8" fill="#00B0F0" fill-rule="evenodd"/><path d="M2426.8 1707.31 2435.9 1700.2 2487.07 1765.7 2477.96 1772.81Z" stroke="#00B0F0" stroke-width="4.58333" stroke-miterlimit="8" fill="#00B0F0" fill-rule="evenodd"/><path d="M2459.39 1805.51C2445.26 1787.43 2448.34 1761.41 2466.27 1747.41 2484.19 1733.4 2510.18 1736.71 2524.31 1754.8 2538.44 1772.89 2535.36 1798.9 2517.43 1812.91 2499.5 1826.91 2473.52 1823.6 2459.39 1805.51Z" stroke="#00B0F0" stroke-width="4.58333" stroke-miterlimit="8" fill="#00B0F0" fill-rule="evenodd"/></g></svg>