<svg width="838" height="690" xmlns="http://www.w3.org/2000/svg" xmlns:xlink="http://www.w3.org/1999/xlink" xml:space="preserve" overflow="hidden"><g transform="translate(-70 -552)"><path d="M225.235 676.426C222.055 660.73 194.148 640.625 177.546 629.867 160.943 619.109 140.277 613.465 125.617 611.878 110.957 610.291 98.417 613.818 89.5857 620.343 80.7543 626.869 73.8659 640.448 72.6295 651.03 71.3931 661.612 79.3413 675.721 82.1674 683.833 84.9934 691.946 88.1726 702.704 89.5857 699.706 90.9987 696.708 88.526 676.25 90.6455 665.844 92.7649 655.439 94.3546 642.741 102.303 637.274 110.251 631.807 126.854 629.338 138.334 633.041 149.815 636.745 161.826 646.797 171.187 659.495 180.548 672.193 190.263 698.471 194.502 709.229 198.741 719.987 191.146 729.158 196.621 724.044 202.097 718.929 228.414 692.122 225.235 676.426Z" stroke="#7F6000" stroke-width="4.58333" stroke-miterlimit="8" fill="#7F6000" fill-rule="evenodd"/><path d="M164.675 63.8304C161.148 50.4186 127.643 37.4915 107.069 26.9882 86.4958 16.4849 59.0643-4.36001 41.2339 0.8108 23.4035 5.98161 1.65434 51.7112 0.0868121 58.0132-1.48072 64.3151 18.505 42.9855 31.8288 38.6226 45.1526 34.2596 63.9628 20.3631 80.0298 31.8359 96.0967 43.3086 114.319 102.127 128.231 107.459 142.142 112.792 168.202 77.2422 164.675 63.8304Z" stroke="#7F6000" stroke-width="4.58333" stroke-miterlimit="8" fill="#7F6000" fill-rule="evenodd" transform="matrix(-1 0 0 1 773.5 554.5)"/><path d="M767.043 944.098C677.75 1008.76 593.699 1045.08 579.311 1025.21 564.923 1005.34 625.646 936.814 714.939 872.149 804.232 807.484 888.282 771.169 902.671 791.037 917.059 810.905 856.336 879.433 767.043 944.098Z" stroke="#DA9BE9" stroke-width="4.58333" stroke-miterlimit="8" fill="#DA9BE9" fill-rule="evenodd"/><path d="M199.701 1076.33C259.808 1003.2 323.666 956.357 342.332 971.699 360.998 987.041 327.403 1058.76 267.295 1131.89 207.188 1205.02 143.33 1251.86 124.664 1236.52 105.999 1221.18 139.594 1149.46 199.701 1076.33Z" stroke="#9DC3E6" stroke-width="4.58333" stroke-miterlimit="8" fill="#9DC3E6" fill-rule="evenodd"/><path d="M298.5 1050C298.5 970.747 370.358 906.5 459 906.5 547.642 906.5 619.5 970.747 619.5 1050 619.5 1129.25 547.642 1193.5 459 1193.5 370.358 1193.5 298.5 1129.25 298.5 1050Z" stroke="#BDD7EE" stroke-width="4.58333" stroke-miterlimit="8" fill="#BDD7EE" fill-rule="evenodd"/><path d="M169.058 837.216C157.578 719.982 243.308 615.637 360.543 604.156L494.813 591.008C612.048 579.527 716.392 665.258 727.873 782.492L727.872 782.492C739.353 899.727 653.622 1004.07 536.388 1015.55L402.118 1028.7C284.883 1040.18 180.539 954.451 169.058 837.216Z" stroke="#BDD7EE" stroke-width="4.58333" stroke-miterlimit="8" fill="#BDD7EE" fill-rule="evenodd"/><path d="M447.619 710.438C469.187 674.526 521.771 666.493 565.069 692.497 608.367 718.5 625.982 768.692 604.414 804.605 582.846 840.517 530.262 848.55 486.965 822.547 443.667 796.543 426.051 746.351 447.619 710.438Z" stroke="#C158DA" stroke-width="4.58333" stroke-miterlimit="8" fill="#C158DA" fill-rule="evenodd"/><path d="M374.584 708.867C402.736 709.75 424.841 733.287 423.958 761.438 423.075 789.589 399.538 811.695 371.387 810.812 343.236 809.929 321.13 786.392 322.013 758.241 322.896 730.089 346.433 707.984 374.584 708.867Z" stroke="#2F5597" stroke-width="4.58333" stroke-miterlimit="8" fill="#2F5597" fill-rule="evenodd"/><path d="M501.131 694.153C529.282 695.036 551.388 718.573 550.505 746.724 549.622 774.875 526.085 796.98 497.934 796.097 469.782 795.214 447.677 771.678 448.56 743.526 449.443 715.375 472.98 693.27 501.131 694.153Z" stroke="#2F5597" stroke-width="4.58333" stroke-miterlimit="8" fill="#2F5597" fill-rule="evenodd"/><path d="M358.224 772.015C348.477 758.211 351.765 739.118 365.569 729.37 379.373 719.622 398.466 722.911 408.214 736.715 417.962 750.519 414.673 769.612 400.869 779.36 387.065 789.108 367.972 785.819 358.224 772.015Z" stroke="#000000" stroke-width="4.58333" stroke-miterlimit="8" fill-rule="evenodd"/><path d="M460.415 762.008C450.668 748.203 453.956 729.111 467.76 719.363 481.564 709.615 500.657 712.903 510.405 726.708 520.153 740.512 516.865 759.605 503.06 769.353 489.256 779.1 470.163 775.812 460.415 762.008Z" stroke="#000000" stroke-width="4.58333" stroke-miterlimit="8" fill-rule="evenodd"/><path d="M553.347 884.951 553.347 884.951C545.798 887.461 538.463 890.143 530.699 892.482 527.54 893.434 524.042 894.038 520.694 894.79 518.798 895.216 516.901 895.646 514.968 896.015 507.032 897.527 504.551 897.726 496.276 899.174 490.994 900.098 485.71 901.027 480.48 902.049 469.538 904.187 467.531 905.095 456.127 907.09 451.849 907.839 447.484 908.379 443.162 909.024L389.404 912.296C387.879 912.376 386.513 912.03 384.996 912.063 380.654 912.159 376.267 912.476 371.903 912.682 369.951 912.651 367.911 912.768 366.047 912.591 364.418 912.436 363.125 911.945 361.575 911.701 359.654 911.397 357.629 911.201 355.656 910.952 354.122 910.217 352.837 909.354 351.055 908.746 348.271 907.796 344.975 907.169 342.047 906.307 337.306 904.912 337.803 904.919 334.422 903.069 331.921 899.013 328.853 896.673 331.879 892.028 332.507 891.064 340.517 887.547 341.626 887.089 351.555 882.987 348.077 884.675 363.02 881.673 383.176 877.624 372.759 879.38 400.467 876.013L432.252 872.236C439.93 871.042 447.513 869.482 455.286 868.652 488.184 865.14 497.641 864.761 523.457 863.305 527.89 863.539 530.64 863.641 535.232 864.144 539.231 864.582 543.581 864.746 547.071 865.641 553.928 867.4 556.039 867.747 562.128 870.144 563.811 870.806 565.195 871.615 566.729 872.35 566.44 874.371 566.96 876.389 565.861 878.412 564.705 880.54 559.35 882.57 556.178 884.01 554.737 886.44 553.819 884.794 553.347 884.951Z" stroke="#BDD7EE" stroke-width="4.58333" stroke-miterlimit="8" fill-rule="evenodd"/><path d="M444.502 884.653C477.824 881.39 505.672 887.27 506.702 897.788L446.366 903.697Z" fill="#FF0000" fill-rule="evenodd"/><path d="M444.502 884.653C477.824 881.39 505.672 887.27 506.702 897.788" stroke="#FF0000" stroke-width="2.29167" stroke-miterlimit="8" fill="none" fill-rule="evenodd"/><path d="M391.893 909.031C390.841 898.292 416.446 886.996 449.082 883.8L450.987 903.244Z" fill="#FF0000" fill-rule="evenodd"/><path d="M391.893 909.031C390.841 898.292 416.446 886.996 449.082 883.8" stroke="#FF0000" stroke-width="2.29167" stroke-miterlimit="8" fill="none" fill-rule="evenodd"/><path d="M458.5 1139.5 433.979 1221.5 355.021 1221.5 330.5 1139.5Z" stroke="#BDD7EE" stroke-width="4.58333" stroke-miterlimit="8" fill="#BDD7EE" fill-rule="evenodd"/><path d="M586.5 1138.5 561.979 1220.5 488.021 1220.5 463.5 1138.5Z" stroke="#BDD7EE" stroke-width="4.58333" stroke-miterlimit="8" fill="#BDD7EE" fill-rule="evenodd"/><path d="M390.223 742.347C388.331 739.668 390.858 734.628 395.867 731.091 400.876 727.553 406.471 726.858 408.363 729.537 410.255 732.217 407.728 737.256 402.719 740.794 397.709 744.331 392.115 745.027 390.223 742.347Z" stroke="#FFFFFF" stroke-width="4.58333" stroke-miterlimit="8" fill="#FFFFFF" fill-rule="evenodd"/><path d="M497.66 737.595C496.286 734.621 500.123 729.924 506.229 727.103 512.335 724.282 518.399 724.406 519.772 727.38 521.146 730.354 517.31 735.051 511.203 737.872 505.097 740.692 499.033 740.568 497.66 737.595Z" stroke="#FFFFFF" stroke-width="4.58333" stroke-miterlimit="8" fill="#FFFFFF" fill-rule="evenodd"/><path d="M467.97 910.944 467.97 910.944C467.643 914.815 467.372 918.709 466.99 922.555 466.882 923.643 466.5 924.609 466.5 925.722 466.5 930.661 466.791 935.58 466.99 940.5 467.376 950.066 467.068 947.34 467.97 953.167 468.133 957.037 468.354 960.898 468.46 964.778 468.68 972.864 468.534 981.005 468.949 989.056 469.03 990.619 469.368 992.27 469.929 993.278 470.447 994.207 471.25 993.875 471.889 994.333 476.723 997.805 471.95 995.415 476.788 997.5 477.768 996.444 478.917 995.921 479.727 994.333 484.288 985.401 482.045 978.931 481.197 964.778 480.984 961.219 480.815 957.571 480.217 954.222 479.969 952.829 479.274 952.027 478.748 951.055 476.967 947.767 476.836 947.94 474.828 945.778 473.654 938.188 474.344 944.014 474.828 928.889 475.008 923.261 475.155 917.629 475.318 912 474.777 903.832 475.345 906.836 474.339 902.5L468.46 902.5 467.97 910.944Z" stroke="#5B9BD5" stroke-width="4.58333" stroke-miterlimit="8" fill="#5B9BD5" fill-rule="evenodd"/><path d="M477.878 905.767 477.878 905.767C477.572 907.722 477.318 909.69 476.959 911.633 476.858 912.183 476.5 912.671 476.5 913.233 476.5 915.729 476.773 918.214 476.959 920.7 477.321 925.533 477.033 924.156 477.878 927.1 478.031 929.056 478.238 931.006 478.337 932.967 478.544 937.052 478.407 941.166 478.796 945.233 478.872 946.023 479.189 946.858 479.715 947.367 480.2 947.836 480.953 947.668 481.552 947.9 486.084 949.654 481.61 948.447 486.145 949.5 487.064 948.967 488.141 948.702 488.901 947.9 493.176 943.387 491.073 940.118 490.279 932.967 490.079 931.169 489.92 929.326 489.36 927.633 489.127 926.929 488.475 926.524 487.982 926.033 486.313 924.372 486.19 924.459 484.308 923.367 483.207 919.532 483.854 922.475 484.308 914.833 484.477 911.99 484.614 909.145 484.767 906.3 484.259 902.173 484.792 903.691 483.849 901.5L478.337 901.5 477.878 905.767Z" stroke="#5B9BD5" stroke-width="4.58333" stroke-miterlimit="8" fill="#5B9BD5" fill-rule="evenodd"/></g></svg>