<svg width="948" height="685" xmlns="http://www.w3.org/2000/svg" xmlns:xlink="http://www.w3.org/1999/xlink" xml:space="preserve" overflow="hidden"><g transform="translate(-860 -959)"><path d="M1063.23 1083.43C1060.06 1067.73 1032.15 1047.62 1015.55 1036.87 998.943 1026.11 978.277 1020.47 963.617 1018.88 948.957 1017.29 936.417 1020.82 927.586 1027.34 918.754 1033.87 911.866 1047.45 910.63 1058.03 909.393 1068.61 917.341 1082.72 920.167 1090.83 922.994 1098.95 926.173 1109.7 927.586 1106.71 928.999 1103.71 926.526 1083.25 928.646 1072.84 930.765 1062.44 932.355 1049.74 940.303 1044.27 948.251 1038.81 964.854 1036.34 976.335 1040.04 987.815 1043.74 999.826 1053.8 1009.19 1066.5 1018.55 1079.19 1028.26 1105.47 1032.5 1116.23 1036.74 1126.99 1029.15 1136.16 1034.62 1131.04 1040.1 1125.93 1066.41 1099.12 1063.23 1083.43Z" stroke="#7F6000" stroke-width="4.58333" stroke-miterlimit="8" fill="#7F6000" fill-rule="evenodd"/><path d="M164.675 63.8304C161.148 50.4186 127.643 37.4915 107.069 26.9882 86.4958 16.4849 59.0643-4.36001 41.2339 0.8108 23.4035 5.98161 1.65434 51.7112 0.0868121 58.0132-1.48072 64.3151 18.505 42.9855 31.8288 38.6226 45.1526 34.2596 63.9628 20.3631 80.0298 31.8359 96.0967 43.3086 114.319 102.127 128.231 107.459 142.142 112.792 168.202 77.2422 164.675 63.8304Z" stroke="#7F6000" stroke-width="4.58333" stroke-miterlimit="8" fill="#7F6000" fill-rule="evenodd" transform="matrix(-1 0 0 1 1611.5 961.5)"/><path d="M1616.02 1441.13C1509.15 1452.98 1420.36 1443.18 1417.71 1419.26 1415.06 1395.33 1499.54 1366.33 1606.41 1354.48 1713.28 1342.63 1802.06 1352.43 1804.72 1376.36 1807.37 1400.29 1722.88 1429.29 1616.02 1441.13Z" stroke="#DA9BE9" stroke-width="4.58333" stroke-miterlimit="8" fill="#DA9BE9" fill-rule="evenodd"/><path d="M1021.97 1413.82C1111.35 1409.4 1184.8 1425.91 1186.02 1450.69 1187.25 1475.47 1115.79 1499.14 1026.41 1503.56 937.033 1507.98 863.585 1491.47 862.36 1466.69 861.135 1441.91 932.596 1418.24 1021.97 1413.82Z" stroke="#9DC3E6" stroke-width="4.58333" stroke-miterlimit="8" fill="#9DC3E6" fill-rule="evenodd"/><path d="M1136.5 1457C1136.5 1377.75 1208.36 1313.5 1297 1313.5 1385.64 1313.5 1457.5 1377.75 1457.5 1457 1457.5 1536.25 1385.64 1600.5 1297 1600.5 1208.36 1600.5 1136.5 1536.25 1136.5 1457Z" stroke="#BDD7EE" stroke-width="4.58333" stroke-miterlimit="8" fill="#BDD7EE" fill-rule="evenodd"/><path d="M1286.88 1576.77 1230.44 1641.01 1157.91 1607.72 1169.82 1523.04Z" stroke="#BDD7EE" stroke-width="4.58333" stroke-miterlimit="8" fill="#BDD7EE" fill-rule="evenodd"/><path d="M1424.5 1545.5 1399.98 1627.5 1326.02 1627.5 1301.5 1545.5Z" stroke="#BDD7EE" stroke-width="4.58333" stroke-miterlimit="8" fill="#BDD7EE" fill-rule="evenodd"/><path d="M1007.33 1244.42C995.853 1127.18 1081.58 1022.84 1198.82 1011.36L1333.09 998.21C1450.32 986.73 1554.67 1072.46 1566.15 1189.7L1566.15 1189.7C1577.63 1306.93 1491.9 1411.27 1374.66 1422.76L1240.39 1435.9C1123.16 1447.38 1018.81 1361.65 1007.33 1244.42Z" stroke="#BDD7EE" stroke-width="4.58333" stroke-miterlimit="8" fill="#BDD7EE" fill-rule="evenodd"/><path d="M1285.89 1117.64C1307.46 1081.73 1360.05 1073.7 1403.34 1099.7 1446.64 1125.7 1464.26 1175.9 1442.69 1211.81 1421.12 1247.72 1368.54 1255.75 1325.24 1229.75 1281.94 1203.75 1264.33 1153.55 1285.89 1117.64Z" stroke="#C158DA" stroke-width="4.58333" stroke-miterlimit="8" fill="#C158DA" fill-rule="evenodd"/><path d="M1212.86 1116.07C1241.01 1116.95 1263.12 1140.49 1262.23 1168.64 1261.35 1196.79 1237.81 1218.9 1209.66 1218.01 1181.51 1217.13 1159.41 1193.59 1160.29 1165.44 1161.17 1137.29 1184.71 1115.19 1212.86 1116.07Z" stroke="#2F5597" stroke-width="4.58333" stroke-miterlimit="8" fill="#2F5597" fill-rule="evenodd"/><path d="M1339.41 1101.36C1367.56 1102.24 1389.66 1125.78 1388.78 1153.93 1387.9 1182.08 1364.36 1204.18 1336.21 1203.3 1308.06 1202.42 1285.95 1178.88 1286.84 1150.73 1287.72 1122.58 1311.26 1100.47 1339.41 1101.36Z" stroke="#2F5597" stroke-width="4.58333" stroke-miterlimit="8" fill="#2F5597" fill-rule="evenodd"/><path d="M1196.5 1179.22C1186.75 1165.41 1190.04 1146.32 1203.84 1136.57 1217.65 1126.83 1236.74 1130.11 1246.49 1143.92 1256.24 1157.72 1252.95 1176.81 1239.14 1186.56 1225.34 1196.31 1206.25 1193.02 1196.5 1179.22Z" stroke="#000000" stroke-width="4.58333" stroke-miterlimit="8" fill-rule="evenodd"/><path d="M1298.69 1169.21C1288.94 1155.41 1292.23 1136.31 1306.04 1126.57 1319.84 1116.82 1338.93 1120.11 1348.68 1133.91 1358.43 1147.71 1355.14 1166.81 1341.34 1176.56 1327.53 1186.3 1308.44 1183.01 1298.69 1169.21Z" stroke="#000000" stroke-width="4.58333" stroke-miterlimit="8" fill-rule="evenodd"/><path d="M1391.62 1292.15 1391.62 1292.15C1384.07 1294.66 1376.74 1297.35 1368.97 1299.68 1365.81 1300.64 1362.32 1301.24 1358.97 1301.99 1357.07 1302.42 1355.18 1302.85 1353.24 1303.22 1345.31 1304.73 1342.83 1304.93 1334.55 1306.38 1329.27 1307.3 1323.99 1308.23 1318.76 1309.25 1307.81 1311.39 1305.81 1312.3 1294.4 1314.29 1290.12 1315.04 1285.76 1315.58 1281.44 1316.23L1227.68 1319.5C1226.15 1319.58 1224.79 1319.23 1223.27 1319.27 1218.93 1319.36 1214.54 1319.68 1210.18 1319.88 1208.23 1319.85 1206.19 1319.97 1204.32 1319.79 1202.69 1319.64 1201.4 1319.15 1199.85 1318.9 1197.93 1318.6 1195.9 1318.4 1193.93 1318.15 1192.4 1317.42 1191.11 1316.56 1189.33 1315.95 1186.55 1315 1183.25 1314.37 1180.32 1313.51 1175.58 1312.11 1176.08 1312.12 1172.7 1310.27 1170.2 1306.22 1167.13 1303.88 1170.15 1299.23 1170.78 1298.27 1178.79 1294.75 1179.9 1294.29 1189.83 1290.19 1186.35 1291.88 1201.29 1288.88 1221.45 1284.83 1211.03 1286.58 1238.74 1283.22L1270.53 1279.44C1278.2 1278.24 1285.79 1276.69 1293.56 1275.86 1326.46 1272.34 1335.92 1271.96 1361.73 1270.51 1366.17 1270.74 1368.91 1270.84 1373.51 1271.35 1377.51 1271.79 1381.86 1271.95 1385.35 1272.84 1392.2 1274.6 1394.31 1274.95 1400.4 1277.35 1402.09 1278.01 1403.47 1278.82 1405 1279.55 1404.71 1281.57 1405.24 1283.59 1404.14 1285.61 1402.98 1287.74 1397.63 1289.77 1394.45 1291.21 1393.01 1293.64 1392.09 1292 1391.62 1292.15Z" stroke="#BDD7EE" stroke-width="4.58333" stroke-miterlimit="8" fill-rule="evenodd"/><path d="M1282.78 1291.86C1316.1 1288.59 1343.95 1294.47 1344.98 1304.99L1284.64 1310.9Z" fill="#FF0000" fill-rule="evenodd"/><path d="M1282.78 1291.86C1316.1 1288.59 1343.95 1294.47 1344.98 1304.99" stroke="#FF0000" stroke-width="2.29167" stroke-miterlimit="8" fill="none" fill-rule="evenodd"/><path d="M1230.17 1316.23C1229.12 1305.5 1254.72 1294.2 1287.36 1291L1289.26 1310.45Z" fill="#FF0000" fill-rule="evenodd"/><path d="M1230.17 1316.23C1229.12 1305.5 1254.72 1294.2 1287.36 1291" stroke="#FF0000" stroke-width="2.29167" stroke-miterlimit="8" fill="none" fill-rule="evenodd"/><path d="M1228.5 1149.55C1226.61 1146.87 1229.13 1141.83 1234.14 1138.29 1239.15 1134.76 1244.75 1134.06 1246.64 1136.74 1248.53 1139.42 1246 1144.46 1240.99 1148 1235.98 1151.53 1230.39 1152.23 1228.5 1149.55Z" stroke="#FFFFFF" stroke-width="4.58333" stroke-miterlimit="8" fill="#FFFFFF" fill-rule="evenodd"/><path d="M1335.93 1144.8C1334.56 1141.82 1338.4 1137.13 1344.5 1134.31 1350.61 1131.49 1356.67 1131.61 1358.05 1134.58 1359.42 1137.56 1355.58 1142.25 1349.48 1145.07 1343.37 1147.9 1337.31 1147.77 1335.93 1144.8Z" stroke="#FFFFFF" stroke-width="4.58333" stroke-miterlimit="8" fill="#FFFFFF" fill-rule="evenodd"/><path d="M1305.97 1318.03 1305.97 1318.03C1305.64 1321.94 1305.37 1325.88 1304.99 1329.77 1304.88 1330.87 1304.5 1331.84 1304.5 1332.97 1304.5 1337.96 1304.79 1342.93 1304.99 1347.9 1305.38 1357.57 1305.07 1354.81 1305.97 1360.7 1306.13 1364.61 1306.35 1368.51 1306.46 1372.43 1306.68 1380.6 1306.53 1388.83 1306.95 1396.97 1307.03 1398.55 1307.37 1400.22 1307.93 1401.23 1308.45 1402.17 1309.25 1401.84 1309.89 1402.3 1314.72 1405.81 1309.95 1403.39 1314.79 1405.5 1315.77 1404.43 1316.92 1403.9 1317.73 1402.3 1322.29 1393.27 1320.04 1386.74 1319.2 1372.43 1318.98 1368.84 1318.81 1365.15 1318.22 1361.77 1317.97 1360.36 1317.27 1359.55 1316.75 1358.57 1314.97 1355.24 1314.84 1355.42 1312.83 1353.23 1311.65 1345.56 1312.34 1351.45 1312.83 1336.17 1313.01 1330.48 1313.15 1324.79 1313.32 1319.1 1312.78 1310.85 1313.34 1313.88 1312.34 1309.5L1306.46 1309.5 1305.97 1318.03Z" stroke="#5B9BD5" stroke-width="4.58333" stroke-miterlimit="8" fill="#5B9BD5" fill-rule="evenodd"/><path d="M1315.88 1312.77 1315.88 1312.77C1315.57 1314.72 1315.32 1316.69 1314.96 1318.63 1314.86 1319.18 1314.5 1319.67 1314.5 1320.23 1314.5 1322.73 1314.77 1325.21 1314.96 1327.7 1315.32 1332.53 1315.03 1331.16 1315.88 1334.1 1316.03 1336.06 1316.24 1338.01 1316.34 1339.97 1316.54 1344.05 1316.41 1348.17 1316.8 1352.23 1316.87 1353.02 1317.19 1353.86 1317.71 1354.37 1318.2 1354.84 1318.95 1354.67 1319.55 1354.9 1324.08 1356.65 1319.61 1355.45 1324.15 1356.5 1325.06 1355.97 1326.14 1355.7 1326.9 1354.9 1331.18 1350.39 1329.07 1347.12 1328.28 1339.97 1328.08 1338.17 1327.92 1336.33 1327.36 1334.63 1327.13 1333.93 1326.48 1333.52 1325.98 1333.03 1324.31 1331.37 1324.19 1331.46 1322.31 1330.37 1321.21 1326.53 1321.85 1329.48 1322.31 1321.83 1322.48 1318.99 1322.61 1316.14 1322.77 1313.3 1322.26 1309.17 1322.79 1310.69 1321.85 1308.5L1316.34 1308.5 1315.88 1312.77Z" stroke="#5B9BD5" stroke-width="4.58333" stroke-miterlimit="8" fill="#5B9BD5" fill-rule="evenodd"/></g></svg>