<svg width="1509" height="2185" xmlns="http://www.w3.org/2000/svg" xmlns:xlink="http://www.w3.org/1999/xlink" xml:space="preserve" overflow="hidden"><defs><clipPath id="clip0"><rect x="1293" y="145" width="1509" height="2185"/></clipPath></defs><g clip-path="url(#clip0)" transform="translate(-1293 -145)"><rect x="2107" y="543" width="179" height="156" fill="#A07089"/><rect x="2065" y="697" width="260" height="780" fill="#8E7F82"/><rect x="1806" y="696" width="260" height="779" fill="#383522"/><rect x="2064" y="866" width="270" height="104" fill="#383522"/><rect x="1839" y="1474" width="714" height="161" fill="#A390AB"/><rect x="1839" y="1635" width="253" height="519" fill="#A390AB"/><rect x="2286" y="2154" width="267" height="176" fill="#383522"/><rect x="1985" y="145" width="623" height="364" fill="#A25E40"/><rect x="1901" y="225" width="585" height="418" fill="#A07089"/><rect x="2324" y="696" width="260" height="779" fill="#383522"/><rect x="2056" y="1159" width="270" height="104" fill="#383522"/><rect x="1603" y="777" width="208" height="520" fill="#383522"/><rect x="2551" y="757" width="208" height="519" fill="#383522"/><rect x="2542" y="1165" width="260" height="260" fill="#A07089"/><rect x="2300" y="1635" width="253" height="519" fill="#A390AB"/><rect x="1728" y="2151" width="364" height="176" fill="#383522"/><rect x="1544" y="1210" width="262" height="151" fill="#383522"/><rect x="1293" y="1109" width="260" height="260" fill="#A07089"/></g></svg>