<?xml version="1.0" encoding="UTF-8"?>
<svg xmlns="http://www.w3.org/2000/svg" xmlns:xlink="http://www.w3.org/1999/xlink" width="128px" height="167px" viewBox="0 0 128 167" version="1.1">
<g id="surface1">
<path style="fill-rule:evenodd;fill:rgb(49.803922%,49.803922%,49.803922%);fill-opacity:1;stroke-width:6.875;stroke-linecap:butt;stroke-linejoin:miter;stroke:rgb(34.901961%,34.901961%,34.901961%);stroke-opacity:1;stroke-miterlimit:8;" d="M 2114.778931 1307.125421 C 2103.758789 1297.578031 2102.551636 1280.938295 2112.053101 1269.910086 C 2121.593506 1258.881877 2138.26001 1257.67384 2149.241211 1267.221229 L 2260.883423 1363.747287 C 2271.864624 1373.255707 2273.071777 1389.934412 2263.570312 1400.923653 C 2254.029907 1411.951862 2237.402344 1413.159899 2226.382202 1403.612509 Z M 2114.778931 1307.125421 " transform="matrix(0.100313,0,0,0.10024,-133.316614,-43.303721)"/>
<path style="fill-rule:evenodd;fill:rgb(49.803922%,49.803922%,49.803922%);fill-opacity:1;stroke-width:6.875;stroke-linecap:butt;stroke-linejoin:miter;stroke:rgb(34.901961%,34.901961%,34.901961%);stroke-opacity:1;stroke-miterlimit:8;" d="M 1718.482178 1699.503649 C 1718.482178 1674.641467 1738.65332 1654.494527 1763.497314 1654.494527 L 2188.493164 1654.494527 C 2213.337158 1654.494527 2233.508301 1674.641467 2233.508301 1699.503649 C 2233.508301 1724.365831 2213.337158 1744.512771 2188.493164 1744.512771 L 1763.497314 1744.512771 C 1738.65332 1744.512771 1718.482178 1724.365831 1718.482178 1699.503649 Z M 1718.482178 1699.503649 " transform="matrix(0.100313,0,0,0.10024,-133.316614,-43.303721)"/>
<path style="fill:none;stroke-width:27.5;stroke-linecap:round;stroke-linejoin:miter;stroke:rgb(34.901961%,34.901961%,34.901961%);stroke-opacity:1;stroke-miterlimit:8;" d="M 1589.433594 1733.016935 C 1496.716431 1743.421641 1403.999268 1753.826347 1373.859375 1809.318114 C 1343.719482 1864.848849 1310.113892 2027.349317 1408.633179 2066.08444 C 1507.152466 2104.819564 1736.083252 2073.293694 1965.014038 2041.806793 " transform="matrix(0.100313,0,0,0.10024,-133.316614,-43.303721)"/>
<path style="fill-rule:evenodd;fill:rgb(100%,100%,100%);fill-opacity:1;stroke-width:10.3125;stroke-linecap:butt;stroke-linejoin:miter;stroke:rgb(34.901961%,34.901961%,34.901961%);stroke-opacity:1;stroke-miterlimit:8;" d="M 2063.805908 1100.629023 C 2126.110596 925.580558 2195.307739 896.120041 2218.321533 1034.810488 C 2241.335327 1173.500936 2209.482056 1427.812219 2147.177368 1602.860685 C 2084.872681 1777.90915 2015.714478 1807.369667 1992.700684 1668.67922 C 1990.909424 1657.923793 1989.429687 1646.272081 1988.261475 1633.84099 Z M 2063.805908 1100.629023 " transform="matrix(0.100313,0,0,0.10024,-133.316614,-43.303721)"/>
<path style="fill-rule:evenodd;fill:rgb(49.803922%,49.803922%,49.803922%);fill-opacity:1;stroke-width:10.3125;stroke-linecap:butt;stroke-linejoin:miter;stroke:rgb(34.901961%,34.901961%,34.901961%);stroke-opacity:1;stroke-miterlimit:8;" d="M 1556.996216 1564.593189 L 2188.220581 860.541402 L 1996.984131 1741.356287 Z M 1556.996216 1564.593189 " transform="matrix(0.100313,0,0,0.10024,-133.316614,-43.303721)"/>
<path style="fill-rule:evenodd;fill:rgb(49.803922%,49.803922%,49.803922%);fill-opacity:1;stroke-width:10.3125;stroke-linecap:butt;stroke-linejoin:miter;stroke:rgb(34.901961%,34.901961%,34.901961%);stroke-opacity:1;stroke-miterlimit:8;" d="M 1730.008545 633.001778 C 1730.008545 524.74607 1817.974976 436.988024 1926.501953 436.988024 C 2035.028931 436.988024 2122.995361 524.74607 2122.995361 633.001778 C 2122.995361 741.257485 2035.028931 829.015531 1926.501953 829.015531 C 1817.974976 829.015531 1730.008545 741.257485 1730.008545 633.001778 Z M 1730.008545 633.001778 " transform="matrix(0.100313,0,0,0.10024,-133.316614,-43.303721)"/>
<path style="fill-rule:evenodd;fill:rgb(49.803922%,49.803922%,49.803922%);fill-opacity:1;stroke-width:10.3125;stroke-linecap:butt;stroke-linejoin:miter;stroke:rgb(34.901961%,34.901961%,34.901961%);stroke-opacity:1;stroke-miterlimit:8;" d="M 2056.913452 633.001778 C 2071.944458 633.001778 2086.702881 633.859094 2101.071899 635.534759 L 2124.085693 639.587528 L 2133.314575 650.771613 C 2162.403076 677.114615 2236.350952 704.626684 2325.446655 719.707663 C 2399.667114 732.216692 2466.800415 733.151946 2508.077271 724.22806 L 2519.564697 720.759824 L 2528.988281 729.761649 C 2534.128418 736.230492 2538.256104 743.322839 2541.254517 750.96075 C 2573.458252 832.756549 2466.839355 951.14418 2303.172729 1015.442927 C 2282.690063 1023.470528 2262.324219 1030.290092 2242.230957 1035.901619 L 2193.828003 1046.734983 L 2169.801758 1056.672062 C 2135.105835 1067.817178 2096.944214 1074.013239 2056.913452 1074.013239 C 1896.829346 1074.013239 1767.001953 975.265952 1767.001953 853.488024 C 1767.001953 731.710095 1896.829346 633.001778 2056.913452 633.001778 Z M 2056.913452 633.001778 " transform="matrix(0.100313,0,0,0.10024,-133.316614,-43.303721)"/>
<path style="fill-rule:evenodd;fill:rgb(49.803922%,49.803922%,49.803922%);fill-opacity:1;stroke-width:10.3125;stroke-linecap:butt;stroke-linejoin:miter;stroke:rgb(34.901961%,34.901961%,34.901961%);stroke-opacity:1;stroke-miterlimit:8;" d="M 1548.000977 761.014736 C 1548.000977 652.759029 1635.967407 565.000982 1744.494385 565.000982 C 1853.021362 565.000982 1940.987793 652.759029 1940.987793 761.014736 C 1940.987793 869.231475 1853.021362 956.989521 1744.494385 956.989521 C 1635.967407 956.989521 1548.000977 869.231475 1548.000977 761.014736 Z M 1548.000977 761.014736 " transform="matrix(0.100313,0,0,0.10024,-133.316614,-43.303721)"/>
<path style="fill-rule:evenodd;fill:rgb(49.803922%,49.803922%,49.803922%);fill-opacity:1;stroke-width:6.875;stroke-linecap:butt;stroke-linejoin:miter;stroke:rgb(34.901961%,34.901961%,34.901961%);stroke-opacity:1;stroke-miterlimit:8;" d="M 2045.464966 1345.509824 C 2034.444824 1335.962435 2033.237671 1319.322698 2042.778076 1308.333458 C 2052.279541 1297.305249 2068.946045 1296.097212 2079.966187 1305.605632 L 2191.569458 1402.13169 C 2202.5896 1411.679079 2203.796753 1428.318815 2194.256348 1439.347025 C 2184.754883 1450.336265 2168.088379 1451.544302 2157.068237 1442.035881 Z M 2045.464966 1345.509824 " transform="matrix(0.100313,0,0,0.10024,-133.316614,-43.303721)"/>
<path style="fill-rule:evenodd;fill:rgb(49.803922%,49.803922%,49.803922%);fill-opacity:1;stroke-width:6.875;stroke-linecap:butt;stroke-linejoin:miter;stroke:rgb(34.901961%,34.901961%,34.901961%);stroke-opacity:1;stroke-miterlimit:8;" d="M 1692.508911 1762.51642 C 1692.508911 1737.654238 1712.641113 1717.507298 1737.485107 1717.507298 L 2162.480957 1717.507298 C 2187.363892 1717.507298 2207.496094 1737.654238 2207.496094 1762.51642 C 2207.496094 1787.339633 2187.363892 1807.486574 2162.480957 1807.486574 L 1737.485107 1807.486574 C 1712.641113 1807.486574 1692.508911 1787.339633 1692.508911 1762.51642 Z M 1692.508911 1762.51642 " transform="matrix(0.100313,0,0,0.10024,-133.316614,-43.303721)"/>
<path style="fill-rule:evenodd;fill:rgb(100%,60%,60%);fill-opacity:1;stroke-width:6.875;stroke-linecap:butt;stroke-linejoin:miter;stroke:rgb(34.901961%,34.901961%,34.901961%);stroke-opacity:1;stroke-miterlimit:8;" d="M 1623.50647 761.014736 C 1623.50647 687.285507 1683.280029 627.507158 1756.994263 627.507158 C 1830.747437 627.507158 1890.482056 687.285507 1890.482056 761.014736 C 1890.482056 834.743965 1830.747437 894.483346 1756.994263 894.483346 C 1683.280029 894.483346 1623.50647 834.743965 1623.50647 761.014736 Z M 1623.50647 761.014736 " transform="matrix(0.100313,0,0,0.10024,-133.316614,-43.303721)"/>
<path style=" stroke:none;fill-rule:evenodd;fill:rgb(0%,0%,0%);fill-opacity:1;" d="M 82.859375 31.023438 C 82.859375 29.003906 83.644531 27.367188 84.613281 27.367188 C 85.585938 27.367188 86.371094 29.003906 86.371094 31.023438 C 86.371094 33.046875 85.585938 34.683594 84.613281 34.683594 C 83.644531 34.683594 82.859375 33.046875 82.859375 31.023438 Z M 82.859375 31.023438 "/>
<path style=" stroke:none;fill-rule:evenodd;fill:rgb(0%,0%,0%);fill-opacity:1;" d="M 72.425781 34.832031 C 72.425781 32.8125 73.210938 31.175781 74.183594 31.175781 C 75.152344 31.175781 75.9375 32.8125 75.9375 34.832031 C 75.9375 36.855469 75.152344 38.492188 74.183594 38.492188 C 73.210938 38.492188 72.425781 36.855469 72.425781 34.832031 Z M 72.425781 34.832031 "/>
<path style="fill-rule:evenodd;fill:rgb(49.803922%,49.803922%,49.803922%);fill-opacity:1;stroke-width:10.3125;stroke-linecap:butt;stroke-linejoin:miter;stroke:rgb(34.901961%,34.901961%,34.901961%);stroke-opacity:1;stroke-miterlimit:8;" d="M 1496.015503 1579.518292 C 1496.015503 1448.348849 1622.922363 1342.00262 1779.501831 1342.00262 C 1936.081299 1342.00262 2062.988159 1448.348849 2062.988159 1579.518292 C 2062.988159 1710.687734 1936.081299 1816.994994 1779.501831 1816.994994 C 1622.922363 1816.994994 1496.015503 1710.687734 1496.015503 1579.518292 Z M 1496.015503 1579.518292 " transform="matrix(0.100313,0,0,0.10024,-133.316614,-43.303721)"/>
<path style="fill-rule:evenodd;fill:rgb(100%,60%,60%);fill-opacity:1;stroke-width:4.58333;stroke-linecap:butt;stroke-linejoin:miter;stroke:rgb(49.803922%,49.803922%,49.803922%);stroke-opacity:1;stroke-miterlimit:8;" d="M 2399.472412 954.612416 C 2371.785767 986.956634 2306.560547 1017.975908 2223.928955 1038.083879 L 2141.336304 958.470341 Z M 2399.472412 954.612416 " transform="matrix(0.100313,0,0,0.10024,-133.316614,-43.303721)"/>
<path style=" stroke:none;fill-rule:evenodd;fill:rgb(0%,0%,0%);fill-opacity:1;" d="M 115.460938 32.828125 C 115.460938 29.425781 118.269531 26.664062 121.730469 26.664062 C 125.191406 26.664062 128 29.425781 128 32.828125 C 128 36.234375 125.191406 38.992188 121.730469 38.992188 C 118.269531 38.992188 115.460938 36.234375 115.460938 32.828125 Z M 115.460938 32.828125 "/>
</g>
</svg>
