<svg width="1276" height="1666" xmlns="http://www.w3.org/2000/svg" xmlns:xlink="http://www.w3.org/1999/xlink" overflow="hidden"><defs><clipPath id="clip0"><rect x="1329" y="432" width="1276" height="1666"/></clipPath></defs><g clip-path="url(#clip0)" transform="translate(-1329 -432)"><path d="M2114.77 1307.11C2103.75 1297.58 2102.54 1280.93 2112.07 1269.92L2112.07 1269.92C2121.6 1258.9 2138.25 1257.69 2149.26 1267.22L2260.87 1363.74C2271.88 1373.27 2273.09 1389.92 2263.57 1400.93L2263.57 1400.93C2254.04 1411.95 2237.39 1413.15 2226.37 1403.63Z" stroke="#595959" stroke-width="6.875" stroke-miterlimit="8" fill="#7F7F7F" fill-rule="evenodd"/><path d="M1718.5 1699.5C1718.5 1674.65 1738.65 1654.5 1763.5 1654.5L2188.5 1654.5C2213.35 1654.5 2233.5 1674.65 2233.5 1699.5L2233.5 1699.5C2233.5 1724.35 2213.35 1744.5 2188.5 1744.5L1763.5 1744.5C1738.65 1744.5 1718.5 1724.35 1718.5 1699.5Z" stroke="#595959" stroke-width="6.875" stroke-miterlimit="8" fill="#7F7F7F" fill-rule="evenodd"/><path d="M1589.45 1733C1496.73 1743.41 1404 1753.82 1373.86 1809.33 1343.73 1864.84 1310.11 2027.33 1408.63 2066.07 1507.16 2104.82 1736.08 2073.3 1965 2041.79" stroke="#595959" stroke-width="27.5" stroke-linecap="round" stroke-miterlimit="8" fill="none" fill-rule="evenodd"/><path d="M2063.82 1100.64C2126.13 925.598 2195.3 896.125 2218.31 1034.81 2241.33 1173.49 2209.48 1427.82 2147.18 1602.86 2084.87 1777.9 2015.7 1807.38 1992.69 1668.69 1990.9 1657.91 1989.42 1646.27 1988.27 1633.84Z" stroke="#595959" stroke-width="10.3125" stroke-miterlimit="8" fill="#FFFFFF" fill-rule="evenodd"/><path d="M1556.98 1564.59 2188.21 860.558 1996.97 1741.34Z" stroke="#595959" stroke-width="10.3125" stroke-miterlimit="8" fill="#7F7F7F" fill-rule="evenodd"/><path d="M1730 633C1730 524.752 1817.98 437 1926.5 437 2035.02 437 2123 524.752 2123 633 2123 741.248 2035.02 829 1926.5 829 1817.98 829 1730 741.248 1730 633Z" stroke="#595959" stroke-width="10.3125" stroke-miterlimit="8" fill="#7F7F7F" fill-rule="evenodd"/><path d="M2056.93 633C2071.94 633 2086.69 633.867 2101.09 635.541L2124.1 639.574 2133.3 650.774C2162.41 677.114 2236.36 704.64 2325.43 719.692 2399.65 732.236 2466.81 733.149 2508.06 724.247L2519.58 720.761 2528.98 729.767C2534.12 736.235 2538.25 743.307 2541.27 750.973 2573.45 832.743 2466.84 951.15 2303.16 1015.44 2282.7 1023.48 2262.32 1030.29 2242.25 1035.9L2193.84 1046.74 2169.79 1056.67C2135.1 1067.83 2096.96 1074 2056.93 1074 1896.81 1074 1767 975.279 1767 853.5 1767 731.721 1896.81 633 2056.93 633Z" stroke="#595959" stroke-width="10.3125" stroke-miterlimit="8" fill="#7F7F7F" fill-rule="evenodd"/><path d="M1548 761C1548 652.752 1635.98 565 1744.5 565 1853.02 565 1941 652.752 1941 761 1941 869.248 1853.02 957 1744.5 957 1635.98 957 1548 869.248 1548 761Z" stroke="#595959" stroke-width="10.3125" stroke-miterlimit="8" fill="#7F7F7F" fill-rule="evenodd"/><path d="M2045.46 1345.51C2034.45 1335.98 2033.24 1319.33 2042.77 1308.32L2042.77 1308.32C2052.29 1297.3 2068.94 1296.09 2079.96 1305.62L2191.57 1402.14C2202.58 1411.67 2203.79 1428.32 2194.26 1439.33L2194.26 1439.33C2184.74 1450.35 2168.09 1451.56 2157.07 1442.03Z" stroke="#595959" stroke-width="6.875" stroke-miterlimit="8" fill="#7F7F7F" fill-rule="evenodd"/><path d="M1692.5 1762.5C1692.5 1737.65 1712.65 1717.5 1737.5 1717.5L2162.5 1717.5C2187.35 1717.5 2207.5 1737.65 2207.5 1762.5L2207.5 1762.5C2207.5 1787.35 2187.35 1807.5 2162.5 1807.5L1737.5 1807.5C1712.65 1807.5 1692.5 1787.35 1692.5 1762.5Z" stroke="#595959" stroke-width="6.875" stroke-miterlimit="8" fill="#7F7F7F" fill-rule="evenodd"/><path d="M1623.5 761C1623.5 687.27 1683.27 627.5 1757 627.5 1830.73 627.5 1890.5 687.27 1890.5 761 1890.5 834.73 1830.73 894.5 1757 894.5 1683.27 894.5 1623.5 834.73 1623.5 761Z" stroke="#595959" stroke-width="6.875" stroke-miterlimit="8" fill="#FF9999" fill-rule="evenodd"/><path d="M2155 741.5C2155 721.342 2162.83 705 2172.5 705 2182.17 705 2190 721.342 2190 741.5 2190 761.658 2182.17 778 2172.5 778 2162.83 778 2155 761.658 2155 741.5Z" fill-rule="evenodd"/><path d="M2051 779.5C2051 759.341 2058.84 743 2068.5 743 2078.17 743 2086 759.341 2086 779.5 2086 799.658 2078.17 816 2068.5 816 2058.84 816 2051 799.658 2051 779.5Z" fill-rule="evenodd"/><path d="M1496 1579.5C1496 1448.33 1622.93 1342 1779.5 1342 1936.07 1342 2063 1448.33 2063 1579.5 2063 1710.67 1936.07 1817 1779.5 1817 1622.93 1817 1496 1710.67 1496 1579.5Z" stroke="#595959" stroke-width="10.3125" stroke-miterlimit="8" fill="#7F7F7F" fill-rule="evenodd"/><path d="M2399.49 954.596C2371.77 986.954 2306.58 1017.96 2223.93 1038.1L2141.35 958.459Z" stroke="#7F7F7F" stroke-width="4.58333" stroke-miterlimit="8" fill="#FF9999" fill-rule="evenodd"/><path d="M2480 759.5C2480 725.535 2507.98 698 2542.5 698 2577.02 698 2605 725.535 2605 759.5 2605 793.465 2577.02 821 2542.5 821 2507.98 821 2480 793.465 2480 759.5Z" fill-rule="evenodd"/></g></svg>