<?xml version="1.0" encoding="UTF-8"?>
<svg xmlns="http://www.w3.org/2000/svg" xmlns:xlink="http://www.w3.org/1999/xlink" width="250px" height="px" viewBox="0 0 251 89" version="1.1">
<g id="surface1">
<path style="fill:none;stroke-width:27.5;stroke-linecap:round;stroke-linejoin:miter;stroke:rgb(34.901961%,34.901961%,34.901961%);stroke-opacity:1;stroke-miterlimit:8;" d="M 1790.014971 1551.422402 C 1723.041615 1622.157742 1656.068258 1692.893083 1545.56222 1688.848841 C 1435.09512 1684.765713 1281.056399 1605.864115 1127.017679 1527.001404 " transform="matrix(0.10032,0,0,0.100451,-111.655875,-111.702032)"/>
<path style="fill-rule:evenodd;fill:rgb(49.803922%,49.803922%,49.803922%);fill-opacity:1;stroke-width:6.875;stroke-linecap:butt;stroke-linejoin:miter;stroke:rgb(34.901961%,34.901961%,34.901961%);stroke-opacity:1;stroke-miterlimit:8;" d="M 2014.49253 1877.489379 C 2014.49253 1852.640625 2034.662413 1832.497191 2059.504856 1832.497191 L 2484.513104 1832.497191 C 2509.355547 1832.497191 2529.486492 1852.640625 2529.486492 1877.489379 C 2529.486492 1902.338132 2509.355547 1922.481566 2484.513104 1922.481566 L 2059.504856 1922.481566 C 2034.662413 1922.481566 2014.49253 1902.338132 2014.49253 1877.489379 Z M 2014.49253 1877.489379 " transform="matrix(0.10032,0,0,0.100451,-111.655875,-111.702032)"/>
<path style="fill-rule:evenodd;fill:rgb(49.803922%,49.803922%,49.803922%);fill-opacity:1;stroke-width:6.875;stroke-linecap:butt;stroke-linejoin:miter;stroke:rgb(34.901961%,34.901961%,34.901961%);stroke-opacity:1;stroke-miterlimit:8;" d="M 2874.593968 1788.399403 C 2863.26301 1778.716555 2861.900181 1761.64519 2871.595742 1750.251317 C 2881.291304 1738.935218 2898.385085 1737.574175 2909.716042 1747.257022 L 3067.765376 1882.194698 C 3079.135271 1891.877546 3080.459163 1908.948912 3070.763602 1920.303897 C 3061.06804 1931.658883 3044.013197 1933.019926 3032.643302 1923.337079 Z M 2874.593968 1788.399403 " transform="matrix(0.10032,0,0,0.100451,-111.655875,-111.702032)"/>
<path style="fill-rule:evenodd;fill:rgb(100%,100%,100%);fill-opacity:1;stroke-width:10.3125;stroke-linecap:butt;stroke-linejoin:miter;stroke:rgb(34.901961%,34.901961%,34.901961%);stroke-opacity:1;stroke-miterlimit:8;" d="M 2853.684263 1675.510621 C 3038.990195 1689.315485 3085.676855 1748.229196 2958.038098 1807.10402 C 2830.360402 1865.978845 2576.679345 1902.49368 2391.373413 1888.64993 C 2206.106418 1874.845067 2159.38082 1815.931355 2287.058516 1757.056531 C 2296.987705 1752.506759 2307.812469 1747.995874 2319.493868 1743.60165 Z M 2853.684263 1675.510621 " transform="matrix(0.10032,0,0,0.100451,-111.655875,-111.702032)"/>
<path style="fill-rule:evenodd;fill:rgb(49.803922%,49.803922%,49.803922%);fill-opacity:1;stroke-width:10.3125;stroke-linecap:butt;stroke-linejoin:miter;stroke:rgb(34.901961%,34.901961%,34.901961%);stroke-opacity:1;stroke-miterlimit:8;" d="M 2326.736336 1319.500702 L 3174.143987 1728.591292 L 2274.870923 1770.705846 Z M 2326.736336 1319.500702 " transform="matrix(0.10032,0,0,0.100451,-111.655875,-111.702032)"/>
<path style="fill-rule:evenodd;fill:rgb(49.803922%,49.803922%,49.803922%);fill-opacity:1;stroke-width:10.3125;stroke-linecap:butt;stroke-linejoin:miter;stroke:rgb(34.901961%,34.901961%,34.901961%);stroke-opacity:1;stroke-miterlimit:8;" d="M 1783.512326 1559.666433 C 1799.243277 1386.891766 1980.227092 1262.181355 2187.688745 1281.080407 C 2395.189336 1300.018346 2550.590886 1455.371664 2534.859935 1628.146331 C 2519.128984 1800.88211 2338.145169 1925.592521 2130.683516 1906.693469 C 1923.182925 1887.794417 1767.781375 1732.402212 1783.512326 1559.666433 Z M 1783.512326 1559.666433 " transform="matrix(0.10032,0,0,0.100451,-111.655875,-111.702032)"/>
<path style="fill-rule:evenodd;fill:rgb(49.803922%,49.803922%,49.803922%);fill-opacity:1;stroke-width:6.875;stroke-linecap:butt;stroke-linejoin:miter;stroke:rgb(34.901961%,34.901961%,34.901961%);stroke-opacity:1;stroke-miterlimit:8;" d="M 1936.49972 1938.502985 C 1936.49972 1913.654231 1956.630665 1893.510797 1981.512046 1893.510797 L 2406.481356 1893.510797 C 2431.362737 1893.510797 2451.493682 1913.654231 2451.493682 1938.502985 C 2451.493682 1963.351738 2431.362737 1983.495172 2406.481356 1983.495172 L 1981.512046 1983.495172 C 1956.630665 1983.495172 1936.49972 1963.351738 1936.49972 1938.502985 Z M 1936.49972 1938.502985 " transform="matrix(0.10032,0,0,0.100451,-111.655875,-111.702032)"/>
<path style="fill-rule:evenodd;fill:rgb(49.803922%,49.803922%,49.803922%);fill-opacity:1;stroke-width:6.875;stroke-linecap:butt;stroke-linejoin:miter;stroke:rgb(34.901961%,34.901961%,34.901961%);stroke-opacity:1;stroke-miterlimit:8;" d="M 2762.452534 1821.453301 C 2751.160514 1810.91494 2750.537506 1793.182496 2761.050766 1781.905284 C 2771.602963 1770.628072 2789.319752 1770.005881 2800.611772 1780.544242 L 2957.064648 1926.525808 C 2968.356667 1937.064168 2968.940737 1954.757725 2958.427478 1966.034937 C 2947.87528 1977.312149 2930.197429 1977.93434 2918.90541 1967.39598 Z M 2762.452534 1821.453301 " transform="matrix(0.10032,0,0,0.100451,-111.655875,-111.702032)"/>
<path style="fill-rule:evenodd;fill:rgb(49.803922%,49.803922%,49.803922%);fill-opacity:1;stroke-width:4.58333;stroke-linecap:butt;stroke-linejoin:miter;stroke:rgb(49.803922%,49.803922%,49.803922%);stroke-opacity:1;stroke-miterlimit:8;" d="M 2060.283616 1468.865432 C 2098.71542 1359.243153 2247.186006 1311.489993 2391.840669 1362.237447 C 2536.495331 1412.984902 2622.626183 1542.983936 2584.155441 1652.606215 C 2545.723637 1762.228494 2397.25305 1809.981654 2252.598388 1759.234199 C 2107.943725 1708.486745 2021.812874 1578.487711 2060.283616 1468.865432 Z M 2060.283616 1468.865432 " transform="matrix(0.10032,0,0,0.100451,-111.655875,-111.702032)"/>
<path style="fill-rule:evenodd;fill:rgb(49.803922%,49.803922%,49.803922%);fill-opacity:1;stroke-width:10.3125;stroke-linecap:butt;stroke-linejoin:miter;stroke:rgb(34.901961%,34.901961%,34.901961%);stroke-opacity:1;stroke-miterlimit:8;" d="M 1825.993682 1817.486833 C 1825.993682 1720.580583 1925.40239 1641.990081 2048.018146 1641.990081 C 2170.594964 1641.990081 2270.003673 1720.580583 2270.003673 1817.486833 C 2270.003673 1914.43197 2170.594964 1992.983585 2048.018146 1992.983585 C 1925.40239 1992.983585 1825.993682 1914.43197 1825.993682 1817.486833 Z M 1825.993682 1817.486833 " transform="matrix(0.10032,0,0,0.100451,-111.655875,-111.702032)"/>
<path style="fill-rule:evenodd;fill:rgb(49.803922%,49.803922%,49.803922%);fill-opacity:1;stroke-width:10.3125;stroke-linecap:butt;stroke-linejoin:miter;stroke:rgb(34.901961%,34.901961%,34.901961%);stroke-opacity:1;stroke-miterlimit:8;" d="M 2933.546097 1212.989379 C 2989.188496 1119.971822 3109.7016 1089.678897 3202.724477 1145.326106 C 3295.747354 1200.973315 3326.041117 1321.483936 3270.398718 1414.501492 C 3214.71738 1507.519048 3094.204277 1537.811973 3001.181399 1482.164765 C 2908.19746 1426.517556 2877.86476 1306.006935 2933.546097 1212.989379 Z M 2933.546097 1212.989379 " transform="matrix(0.10032,0,0,0.100451,-111.655875,-111.702032)"/>
<path style="fill-rule:evenodd;fill:rgb(49.803922%,49.803922%,49.803922%);fill-opacity:1;stroke-width:10.3125;stroke-linecap:butt;stroke-linejoin:miter;stroke:rgb(34.901961%,34.901961%,34.901961%);stroke-opacity:1;stroke-miterlimit:8;" d="M 3010.565457 1333.150018 C 3021.039778 1332.683374 3031.70879 1332.800035 3042.533553 1333.5 C 3094.398967 1336.80539 3149.340482 1353.526773 3200.816515 1384.325228 C 3213.704993 1392.024842 3225.892586 1400.30776 3237.379295 1409.135095 L 3256.887232 1426.012026 L 3257.276612 1428.423016 C 3268.685446 1465.948912 3317.942013 1527.506935 3386.589704 1586.109551 C 3443.789623 1634.951545 3500.872728 1670.183111 3540.823114 1683.676879 L 3549.350535 1685.81566 L 3555.814243 1709.458919 C 3556.904507 1717.625176 3556.826631 1725.83032 3555.463801 1733.95769 C 3541.09568 1820.636675 3388.925984 1867.534322 3215.574016 1838.757988 C 3193.92449 1835.18039 3172.936909 1830.552844 3152.844902 1825.069786 L 3105.8078 1809.553897 L 3080.069783 1805.742978 C 3044.597267 1797.537834 3008.735371 1783.266327 2974.430995 1762.734024 C 2837.174552 1680.60481 2776.548089 1529.334621 2839.082514 1424.806531 C 2873.270076 1367.681619 2937.206269 1336.377633 3010.565457 1333.150018 Z M 3010.565457 1333.150018 " transform="matrix(0.10032,0,0,0.100451,-111.655875,-111.702032)"/>
<path style="fill-rule:evenodd;fill:rgb(49.803922%,49.803922%,49.803922%);fill-opacity:1;stroke-width:10.3125;stroke-linecap:butt;stroke-linejoin:miter;stroke:rgb(34.901961%,34.901961%,34.901961%);stroke-opacity:1;stroke-miterlimit:8;" d="M 2698.594217 1233.327247 C 2754.236616 1140.309691 2874.74972 1110.016766 2967.772597 1165.663975 C 3060.795474 1221.311183 3091.089237 1341.821805 3035.446838 1434.878248 C 2979.804438 1527.895804 2859.291335 1558.188729 2766.268457 1502.502633 C 2673.24558 1446.894312 2642.951818 1326.344803 2698.594217 1233.327247 Z M 2698.594217 1233.327247 " transform="matrix(0.10032,0,0,0.100451,-111.655875,-111.702032)"/>
<path style="fill-rule:evenodd;fill:rgb(100%,60%,60%);fill-opacity:1;stroke-width:6.875;stroke-linecap:butt;stroke-linejoin:miter;stroke:rgb(34.901961%,34.901961%,34.901961%);stroke-opacity:1;stroke-miterlimit:8;" d="M 2763.270232 1271.125351 C 2801.156904 1207.856303 2883.121389 1187.246225 2946.434574 1225.083216 C 3009.708821 1262.959094 3030.34596 1344.971647 2992.459288 1408.240695 C 2954.611554 1471.548631 2872.60813 1492.158708 2809.294945 1454.28283 C 2746.020698 1416.445839 2725.422498 1334.433287 2763.270232 1271.125351 Z M 2763.270232 1271.125351 " transform="matrix(0.10032,0,0,0.100451,-111.655875,-111.702032)"/>
<path style=" stroke:none;fill-rule:evenodd;fill:rgb(0%,0%,0%);fill-opacity:1;" d="M 239.371094 60.128906 C 241.109375 57.222656 244.910156 56.300781 247.863281 58.066406 C 250.816406 59.835938 251.800781 63.628906 250.0625 66.535156 C 248.328125 69.441406 244.523438 70.363281 241.574219 68.597656 C 238.621094 66.828125 237.636719 63.039062 239.371094 60.128906 Z M 239.371094 60.128906 "/>
<path style="fill:none;stroke-width:27.5;stroke-linecap:round;stroke-linejoin:miter;stroke:rgb(0%,0%,0%);stroke-opacity:1;stroke-miterlimit:8;" d="M 3150.002428 1546.017117 L 3207.241285 1583.115256 " transform="matrix(0.10032,0,0,0.100451,-111.655875,-111.702032)"/>
<path style="fill:none;stroke-width:14.8958;stroke-linecap:round;stroke-linejoin:miter;stroke:rgb(0%,0%,0%);stroke-opacity:1;stroke-miterlimit:8;" d="M 3116.51575 1740.490695 L 3202.412973 1832.147209 " transform="matrix(0.10032,0,0,0.100451,-111.655875,-111.702032)"/>
</g>
</svg>
