<svg width="2502" height="886" xmlns="http://www.w3.org/2000/svg" xmlns:xlink="http://www.w3.org/1999/xlink" overflow="hidden"><defs><clipPath id="clip0"><rect x="1113" y="1112" width="2502" height="886"/></clipPath></defs><g clip-path="url(#clip0)" transform="translate(-1113 -1112)"><path d="M1790 1551.43C1723.04 1622.17 1656.08 1692.9 1545.58 1688.83 1435.08 1684.76 1281.04 1605.88 1127 1527" stroke="#595959" stroke-width="27.5" stroke-linecap="round" stroke-miterlimit="8" fill="none" fill-rule="evenodd"/><path d="M2014.5 1877.5C2014.5 1852.65 2034.65 1832.5 2059.5 1832.5L2484.5 1832.5C2509.35 1832.5 2529.5 1852.65 2529.5 1877.5L2529.5 1877.5C2529.5 1902.35 2509.35 1922.5 2484.5 1922.5L2059.5 1922.5C2034.65 1922.5 2014.5 1902.35 2014.5 1877.5Z" stroke="#595959" stroke-width="6.875" stroke-miterlimit="8" fill="#7F7F7F" fill-rule="evenodd"/><path d="M2874.61 1788.4C2863.25 1778.7 2861.91 1761.63 2871.6 1750.27L2871.6 1750.27C2881.3 1738.92 2898.37 1737.57 2909.73 1747.27L3067.76 1882.19C3079.12 1891.88 3080.46 1908.96 3070.77 1920.31L3070.77 1920.31C3061.07 1931.67 3044 1933.02 3032.64 1923.32Z" stroke="#595959" stroke-width="6.875" stroke-miterlimit="8" fill="#7F7F7F" fill-rule="evenodd"/><path d="M2853.69 1675.51C3038.98 1689.32 3085.69 1748.24 2958.02 1807.1 2830.36 1865.96 2576.66 1902.48 2391.37 1888.66 2206.09 1874.85 2159.38 1815.93 2287.04 1757.07 2296.97 1752.5 2307.8 1748 2319.49 1743.6Z" stroke="#595959" stroke-width="10.3125" stroke-miterlimit="8" fill="#FFFFFF" fill-rule="evenodd"/><path d="M2326.75 1319.5 3174.16 1728.61 2274.88 1770.7Z" stroke="#595959" stroke-width="10.3125" stroke-miterlimit="8" fill="#7F7F7F" fill-rule="evenodd"/><path d="M1783.51 1559.66C1799.25 1386.9 1980.21 1262.18 2187.69 1281.09 2395.17 1300 2550.6 1455.37 2534.86 1628.13 2519.11 1800.89 2338.16 1925.61 2130.68 1906.7 1923.2 1887.79 1767.77 1732.42 1783.51 1559.66Z" stroke="#595959" stroke-width="10.3125" stroke-miterlimit="8" fill="#7F7F7F" fill-rule="evenodd"/><path d="M1936.5 1938.5C1936.5 1913.65 1956.65 1893.5 1981.5 1893.5L2406.5 1893.5C2431.35 1893.5 2451.5 1913.65 2451.5 1938.5L2451.5 1938.5C2451.5 1963.35 2431.35 1983.5 2406.5 1983.5L1981.5 1983.5C1956.65 1983.5 1936.5 1963.35 1936.5 1938.5Z" stroke="#595959" stroke-width="6.875" stroke-miterlimit="8" fill="#7F7F7F" fill-rule="evenodd"/><path d="M2762.44 1821.44C2751.15 1810.9 2750.54 1793.2 2761.07 1781.91L2761.07 1781.91C2771.61 1770.62 2789.31 1770 2800.6 1780.54L2957.05 1926.51C2968.35 1937.05 2968.96 1954.75 2958.43 1966.04L2958.43 1966.04C2947.89 1977.33 2930.19 1977.95 2918.9 1967.41Z" stroke="#595959" stroke-width="6.875" stroke-miterlimit="8" fill="#7F7F7F" fill-rule="evenodd"/><path d="M2060.27 1468.86C2098.72 1359.23 2247.17 1311.49 2391.84 1362.24 2536.51 1412.98 2622.61 1542.98 2584.16 1652.61 2545.71 1762.24 2397.26 1809.97 2252.59 1759.23 2107.93 1708.49 2021.82 1578.49 2060.27 1468.86Z" stroke="#7F7F7F" stroke-width="4.58333" stroke-miterlimit="8" fill="#7F7F7F" fill-rule="evenodd"/><path d="M1826 1817.5C1826 1720.57 1925.39 1642 2048 1642 2170.61 1642 2270 1720.57 2270 1817.5 2270 1914.43 2170.61 1993 2048 1993 1925.39 1993 1826 1914.43 1826 1817.5Z" stroke="#595959" stroke-width="10.3125" stroke-miterlimit="8" fill="#7F7F7F" fill-rule="evenodd"/><path d="M2933.53 1212.98C2989.18 1119.97 3109.7 1089.67 3202.72 1145.32 3295.74 1200.97 3326.03 1321.49 3270.38 1414.5 3214.73 1507.52 3094.21 1537.82 3001.2 1482.17 2908.18 1426.52 2877.88 1306 2933.53 1212.98Z" stroke="#595959" stroke-width="10.3125" stroke-miterlimit="8" fill="#7F7F7F" fill-rule="evenodd"/><path d="M3010.56 1333.14C3021.04 1332.68 3031.71 1332.79 3042.52 1333.49 3094.39 1336.82 3149.34 1353.52 3200.82 1384.31 3213.69 1392.01 3225.89 1400.32 3237.37 1409.14L3256.9 1426.02 3257.26 1428.43C3268.7 1465.96 3317.96 1527.51 3386.59 1586.11 3443.78 1634.94 3500.89 1670.17 3540.83 1683.68L3549.35 1685.82 3555.83 1709.45C3556.91 1717.64 3556.82 1725.82 3555.48 1733.95 3541.08 1820.62 3388.91 1867.55 3215.58 1838.77 3193.92 1835.17 3172.94 1830.56 3152.86 1825.08L3105.79 1809.56 3080.07 1805.74C3044.61 1797.53 3008.75 1783.26 2974.43 1762.73 2837.16 1680.61 2776.55 1529.32 2839.07 1424.82 2873.26 1367.67 2937.19 1336.36 3010.56 1333.14Z" stroke="#595959" stroke-width="10.3125" stroke-miterlimit="8" fill="#7F7F7F" fill-rule="evenodd"/><path d="M2698.6 1233.34C2754.25 1140.32 2874.76 1110.03 2967.78 1165.68 3060.8 1221.33 3091.09 1341.84 3035.45 1434.86 2979.8 1527.88 2859.28 1558.17 2766.26 1502.52 2673.24 1446.88 2642.95 1326.36 2698.6 1233.34Z" stroke="#595959" stroke-width="10.3125" stroke-miterlimit="8" fill="#7F7F7F" fill-rule="evenodd"/><path d="M2763.27 1271.14C2801.14 1207.85 2883.14 1187.23 2946.43 1225.1 3009.72 1262.96 3030.33 1344.97 2992.47 1408.26 2954.61 1471.55 2872.6 1492.16 2809.31 1454.3 2746.02 1416.43 2725.41 1334.43 2763.27 1271.14Z" stroke="#595959" stroke-width="6.875" stroke-miterlimit="8" fill="#FF9999" fill-rule="evenodd"/><path d="M3499.1 1710.59C3516.42 1681.65 3554.31 1672.46 3583.74 1690.07 3613.17 1707.67 3622.99 1745.41 3605.67 1774.35 3588.36 1803.29 3550.46 1812.48 3521.04 1794.88 3491.61 1777.27 3481.79 1739.54 3499.1 1710.59Z" fill-rule="evenodd"/><path d="M3150 1546 3207.26 1583.11" stroke="#000000" stroke-width="27.5" stroke-linecap="round" stroke-miterlimit="8" fill="none" fill-rule="evenodd"/><path d="M3116.5 1740.5 3202.43 1832.14" stroke="#000000" stroke-width="14.8958" stroke-linecap="round" stroke-miterlimit="8" fill="none" fill-rule="evenodd"/></g></svg>