<?xml version="1.0" encoding="UTF-8"?>
<svg xmlns="http://www.w3.org/2000/svg" xmlns:xlink="http://www.w3.org/1999/xlink" width="250px" height="px" viewBox="0 0 248 94" version="1.1">
<g id="surface1">
<path style="fill:none;stroke-width:27.5;stroke-linecap:round;stroke-linejoin:miter;stroke:rgb(34.901961%,34.901961%,34.901961%);stroke-opacity:1;stroke-miterlimit:8;" d="M 1790.007592 1551.434425 C 1723.051663 1622.160198 1656.095735 1692.885971 1545.592836 1688.841132 C 1435.089938 1684.757023 1281.040071 1605.863032 1126.990203 1527.008311 " transform="matrix(0.0991207,0,0,0.0994709,-110.321343,-110.61164)"/>
<path style="fill-rule:evenodd;fill:rgb(49.803922%,49.803922%,49.803922%);fill-opacity:1;stroke-width:6.875;stroke-linecap:butt;stroke-linejoin:miter;stroke:rgb(34.901961%,34.901961%,34.901961%);stroke-opacity:1;stroke-miterlimit:8;" d="M 2030.993763 1742.05236 C 2039.900202 1718.804355 2065.988974 1707.141082 2089.240297 1716.055436 L 2485.69506 1867.795795 C 2508.946384 1876.670878 2520.611454 1902.746343 2511.705015 1926.033619 C 2502.798576 1949.281624 2476.709803 1960.944897 2453.45848 1952.030544 L 2057.003717 1800.290185 C 2033.752394 1791.375831 2022.087324 1765.300366 2030.993763 1742.05236 Z M 2030.993763 1742.05236 " transform="matrix(0.0991207,0,0,0.0994709,-110.321343,-110.61164)"/>
<path style="fill-rule:evenodd;fill:rgb(49.803922%,49.803922%,49.803922%);fill-opacity:1;stroke-width:6.875;stroke-linecap:butt;stroke-linejoin:miter;stroke:rgb(34.901961%,34.901961%,34.901961%);stroke-opacity:1;stroke-miterlimit:8;" d="M 2869.657164 1771.073097 C 2862.208858 1758.113905 2866.662078 1741.581117 2879.627646 1734.159034 C 2892.553805 1726.697681 2909.105595 1731.135223 2916.5539 1744.094415 L 3020.199628 1924.187916 C 3027.647933 1937.147108 3023.194714 1953.679895 3010.229146 1961.101978 C 2997.302986 1968.563331 2980.751197 1964.12579 2973.302892 1951.166597 Z M 2869.657164 1771.073097 " transform="matrix(0.0991207,0,0,0.0994709,-110.321343,-110.61164)"/>
<path style="fill-rule:evenodd;fill:rgb(100%,100%,100%);fill-opacity:1;stroke-width:10.3125;stroke-linecap:butt;stroke-linejoin:miter;stroke:rgb(34.901961%,34.901961%,34.901961%);stroke-opacity:1;stroke-miterlimit:8;" d="M 2853.69651 1675.528507 C 3038.997732 1689.312375 3085.697423 1748.257064 2958.012191 1807.083943 C 2830.366368 1865.950091 2576.651084 1902.471451 2391.38927 1888.648313 C 2206.088048 1874.864445 2159.388357 1815.919756 2287.03418 1757.053607 C 2296.965253 1752.498255 2307.802734 1747.982173 2319.507214 1743.583901 Z M 2853.69651 1675.528507 " transform="matrix(0.0991207,0,0,0.0994709,-110.321343,-110.61164)"/>
<path style="fill-rule:evenodd;fill:rgb(49.803922%,49.803922%,49.803922%);fill-opacity:1;stroke-width:10.3125;stroke-linecap:butt;stroke-linejoin:miter;stroke:rgb(34.901961%,34.901961%,34.901961%);stroke-opacity:1;stroke-miterlimit:8;" d="M 2326.758474 1319.504156 L 3174.170678 1728.621925 L 2274.896201 1770.680394 Z M 2326.758474 1319.504156 " transform="matrix(0.0991207,0,0,0.0994709,-110.321343,-110.61164)"/>
<path style="fill-rule:evenodd;fill:rgb(49.803922%,49.803922%,49.803922%);fill-opacity:1;stroke-width:10.3125;stroke-linecap:butt;stroke-linejoin:miter;stroke:rgb(34.901961%,34.901961%,34.901961%);stroke-opacity:1;stroke-miterlimit:8;" d="M 1783.505103 1559.641913 C 1799.268712 1386.891955 1980.195533 1262.169548 2187.684035 1281.097822 C 2395.172537 1299.986827 2550.60172 1455.379322 2534.87752 1628.12928 C 2519.113911 1800.879239 2338.147681 1925.601646 2130.698589 1906.712641 C 1923.210087 1887.784367 1767.780903 1732.431142 1783.505103 1559.641913 Z M 1783.505103 1559.641913 " transform="matrix(0.0991207,0,0,0.0994709,-110.321343,-110.61164)"/>
<path style="fill-rule:evenodd;fill:rgb(49.803922%,49.803922%,49.803922%);fill-opacity:1;stroke-width:6.875;stroke-linecap:butt;stroke-linejoin:miter;stroke:rgb(34.901961%,34.901961%,34.901961%);stroke-opacity:1;stroke-miterlimit:8;" d="M 1922.185452 1840.149518 C 1931.091891 1816.901513 1957.180664 1805.23824 1980.431987 1814.152593 L 2376.88675 1965.892952 C 2400.138073 1974.807306 2411.803144 2000.882771 2402.896705 2024.130776 C 2393.990266 2047.378782 2367.901493 2059.042055 2344.65017 2050.127701 L 1948.195407 1898.387342 C 1924.944084 1889.472989 1913.279013 1863.397523 1922.185452 1840.149518 Z M 1922.185452 1840.149518 " transform="matrix(0.0991207,0,0,0.0994709,-110.321343,-110.61164)"/>
<path style="fill-rule:evenodd;fill:rgb(49.803922%,49.803922%,49.803922%);fill-opacity:1;stroke-width:6.875;stroke-linecap:butt;stroke-linejoin:miter;stroke:rgb(34.901961%,34.901961%,34.901961%);stroke-opacity:1;stroke-miterlimit:8;" d="M 2759.430129 1804.177942 C 2752.336505 1790.472615 2757.696132 1773.586395 2771.371062 1766.478474 C 2785.085402 1759.370554 2801.991872 1764.750582 2809.085496 1778.455909 L 2907.529234 1968.44552 C 2914.662267 1982.150848 2909.30264 1999.037068 2895.5883 2006.144988 C 2881.87396 2013.252909 2865.006899 2007.872881 2857.873866 1994.167553 Z M 2759.430129 1804.177942 " transform="matrix(0.0991207,0,0,0.0994709,-110.321343,-110.61164)"/>
<path style="fill-rule:evenodd;fill:rgb(49.803922%,49.803922%,49.803922%);fill-opacity:1;stroke-width:4.58333;stroke-linecap:butt;stroke-linejoin:miter;stroke:rgb(49.803922%,49.803922%,49.803922%);stroke-opacity:1;stroke-miterlimit:8;" d="M 2060.274666 1468.849028 C 2098.737872 1359.245678 2247.152249 1311.493019 2391.82277 1362.230219 C 2536.49329 1412.96742 2622.602004 1542.991315 2584.178207 1652.594664 C 2545.715001 1762.237284 2397.261215 1809.950673 2252.590694 1759.213472 C 2107.920174 1708.476272 2021.81146 1578.491647 2060.274666 1468.849028 Z M 2060.274666 1468.849028 " transform="matrix(0.0991207,0,0,0.0994709,-110.321343,-110.61164)"/>
<path style="fill-rule:evenodd;fill:rgb(49.803922%,49.803922%,49.803922%);fill-opacity:1;stroke-width:10.3125;stroke-linecap:butt;stroke-linejoin:miter;stroke:rgb(34.901961%,34.901961%,34.901961%);stroke-opacity:1;stroke-miterlimit:8;" d="M 1825.988029 1796.009724 C 1825.988029 1698.815783 1925.377583 1620.000332 2048.01846 1620.000332 C 2170.619928 1620.000332 2270.009482 1698.815783 2270.009482 1796.009724 C 2270.009482 1893.203665 2170.619928 1972.019116 2048.01846 1972.019116 C 1925.377583 1972.019116 1825.988029 1893.203665 1825.988029 1796.009724 Z M 1825.988029 1796.009724 " transform="matrix(0.0991207,0,0,0.0994709,-110.321343,-110.61164)"/>
<path style="fill-rule:evenodd;fill:rgb(49.803922%,49.803922%,49.803922%);fill-opacity:1;stroke-width:10.3125;stroke-linecap:butt;stroke-linejoin:miter;stroke:rgb(34.901961%,34.901961%,34.901961%);stroke-opacity:1;stroke-miterlimit:8;" d="M 2933.539189 1212.963888 C 2989.184728 1119.971867 3109.697518 1089.655211 3202.70281 1145.301197 C 3295.747511 1200.986453 3326.01364 1321.50694 3270.368101 1414.498961 C 3214.722562 1507.530253 3094.209772 1537.807638 3001.20448 1482.161652 C 2908.199187 1426.515667 2877.893649 1305.99518 2933.539189 1212.963888 Z M 2933.539189 1212.963888 " transform="matrix(0.0991207,0,0,0.0994709,-110.321343,-110.61164)"/>
<path style="fill-rule:evenodd;fill:rgb(49.803922%,49.803922%,49.803922%);fill-opacity:1;stroke-width:10.3125;stroke-linecap:butt;stroke-linejoin:miter;stroke:rgb(34.901961%,34.901961%,34.901961%);stroke-opacity:1;stroke-miterlimit:8;" d="M 3010.544418 1333.130942 C 3021.027218 1332.698969 3031.707063 1332.77751 3042.505135 1333.484375 C 3094.406817 1336.822349 3149.342994 1353.512217 3200.811177 1384.300116 C 3213.697927 1391.997091 3225.875315 1400.32239 3237.382749 1409.158203 L 3256.890215 1426.005153 L 3257.244897 1428.43991 C 3268.712922 1465.943027 3317.9742 1527.518825 3386.585307 1586.110081 C 3443.767799 1634.923039 3500.871472 1670.187749 3540.83222 1683.696725 L 3549.344569 1685.81732 L 3555.847058 1709.458029 C 3556.911101 1717.626247 3556.832283 1725.833735 3555.492377 1733.962683 C 3541.068674 1820.632189 3388.91044 1867.560173 3215.58956 1838.775058 C 3193.914598 1835.162192 3172.948998 1830.56757 3152.850397 1825.069731 L 3105.796024 1809.55797 L 3080.061933 1805.748753 C 3044.593813 1797.541265 3008.731603 1783.246883 2974.445754 1762.747798 C 2837.14472 1680.594373 2776.533644 1529.325258 2839.075762 1424.827045 C 2873.243385 1367.688788 2937.204228 1336.351105 3010.544418 1333.130942 Z M 3010.544418 1333.130942 " transform="matrix(0.0991207,0,0,0.0994709,-110.321343,-110.61164)"/>
<path style="fill-rule:evenodd;fill:rgb(49.803922%,49.803922%,49.803922%);fill-opacity:1;stroke-width:10.3125;stroke-linecap:butt;stroke-linejoin:miter;stroke:rgb(34.901961%,34.901961%,34.901961%);stroke-opacity:1;stroke-miterlimit:8;" d="M 2698.582598 1233.345163 C 2754.267547 1140.313871 2874.740927 1110.036486 2967.785629 1165.682472 C 3060.790921 1221.328457 3091.096459 1341.848944 3035.45092 1434.840966 C 2979.805381 1527.872257 2859.292591 1558.188913 2766.247889 1502.503657 C 2673.242597 1446.896941 2642.937059 1326.376454 2698.582598 1233.345163 Z M 2698.582598 1233.345163 " transform="matrix(0.0991207,0,0,0.0994709,-110.321343,-110.61164)"/>
<path style="fill-rule:evenodd;fill:rgb(100%,60%,60%);fill-opacity:1;stroke-width:6.875;stroke-linecap:butt;stroke-linejoin:miter;stroke:rgb(34.901961%,34.901961%,34.901961%);stroke-opacity:1;stroke-miterlimit:8;" d="M 2763.252804 1271.123172 C 2801.124874 1207.858752 2883.135049 1187.241855 2946.425939 1225.098404 C 3009.716828 1262.954953 3030.327747 1344.951297 2992.455677 1408.254987 C 2954.623015 1471.558677 2872.61284 1492.175573 2809.321951 1454.319024 C 2746.031061 1416.423205 2725.420142 1334.426862 2763.252804 1271.123172 Z M 2763.252804 1271.123172 " transform="matrix(0.0991207,0,0,0.0994709,-110.321343,-110.61164)"/>
<path style=" stroke:none;fill-rule:evenodd;fill:rgb(0%,0%,0%);fill-opacity:1;" d="M 236.511719 59.542969 C 238.230469 56.664062 241.984375 55.75 244.902344 57.5 C 247.820312 59.25 248.792969 63.007812 247.074219 65.882812 C 245.359375 68.761719 241.601562 69.675781 238.6875 67.925781 C 235.769531 66.175781 234.796875 62.421875 236.511719 59.542969 Z M 236.511719 59.542969 "/>
<path style="fill:none;stroke-width:27.5;stroke-linecap:round;stroke-linejoin:miter;stroke:rgb(0%,0%,0%);stroke-opacity:1;stroke-miterlimit:8;" d="M 3150.012947 1546.015126 L 3207.274257 1583.12554 " transform="matrix(0.0991207,0,0,0.0994709,-110.321343,-110.61164)"/>
<path style="fill:none;stroke-width:14.8958;stroke-linecap:round;stroke-linejoin:miter;stroke:rgb(0%,0%,0%);stroke-opacity:1;stroke-miterlimit:8;" d="M 3116.515278 1740.481549 L 3202.426947 1832.138381 " transform="matrix(0.0991207,0,0,0.0994709,-110.321343,-110.61164)"/>
</g>
</svg>
