<svg width="2502" height="974" xmlns="http://www.w3.org/2000/svg" xmlns:xlink="http://www.w3.org/1999/xlink" overflow="hidden"><defs><clipPath id="clip0"><rect x="1113" y="1112" width="2502" height="974"/></clipPath></defs><g clip-path="url(#clip0)" transform="translate(-1113 -1112)"><path d="M1790 1551.43C1723.04 1622.17 1656.08 1692.9 1545.58 1688.83 1435.08 1684.76 1281.04 1605.88 1127 1527" stroke="#595959" stroke-width="27.5" stroke-linecap="round" stroke-miterlimit="8" fill="none" fill-rule="evenodd"/><path d="M2049.08 1692.17C2062.16 1670.97 2089.94 1664.38 2111.14 1677.46L2472.42 1900.34C2493.62 1913.42 2500.2 1941.2 2487.13 1962.4L2487.12 1962.4C2474.05 1983.6 2446.26 1990.18 2425.06 1977.1L2063.79 1754.23C2042.59 1741.15 2036.01 1713.36 2049.08 1692.16Z" stroke="#595959" stroke-width="6.875" stroke-miterlimit="8" fill="#7F7F7F" fill-rule="evenodd"/><path d="M2873.5 1765.5C2873.5 1750.59 2885.59 1738.5 2900.5 1738.5L2900.5 1738.5C2915.41 1738.5 2927.5 1750.59 2927.5 1765.5L2927.5 1973.5C2927.5 1988.41 2915.41 2000.5 2900.5 2000.5L2900.5 2000.5C2885.59 2000.5 2873.5 1988.41 2873.5 1973.5Z" stroke="#595959" stroke-width="6.875" stroke-miterlimit="8" fill="#7F7F7F" fill-rule="evenodd"/><path d="M2853.69 1675.51C3038.98 1689.32 3085.69 1748.24 2958.02 1807.1 2830.36 1865.96 2576.66 1902.48 2391.37 1888.66 2206.09 1874.85 2159.38 1815.93 2287.04 1757.07 2296.97 1752.5 2307.8 1748 2319.49 1743.6Z" stroke="#595959" stroke-width="10.3125" stroke-miterlimit="8" fill="#FFFFFF" fill-rule="evenodd"/><path d="M2326.75 1319.5 3174.16 1728.61 2274.88 1770.7Z" stroke="#595959" stroke-width="10.3125" stroke-miterlimit="8" fill="#7F7F7F" fill-rule="evenodd"/><path d="M1783.51 1559.66C1799.25 1386.9 1980.21 1262.18 2187.69 1281.09 2395.17 1300 2550.6 1455.37 2534.86 1628.13 2519.11 1800.89 2338.16 1925.61 2130.68 1906.7 1923.2 1887.79 1767.77 1732.42 1783.51 1559.66Z" stroke="#595959" stroke-width="10.3125" stroke-miterlimit="8" fill="#7F7F7F" fill-rule="evenodd"/><path d="M1940.27 1790.27C1953.35 1769.07 1981.14 1762.49 2002.33 1775.57L2363.61 1998.45C2384.81 2011.52 2391.39 2039.31 2378.32 2060.51L2378.32 2060.51C2365.24 2081.7 2337.45 2088.29 2316.26 2075.21L1954.98 1852.33C1933.78 1839.25 1927.2 1811.47 1940.27 1790.27Z" stroke="#595959" stroke-width="6.875" stroke-miterlimit="8" fill="#7F7F7F" fill-rule="evenodd"/><path d="M2765.38 1799.48C2766.06 1784.04 2779.12 1772.09 2794.56 1772.77L2794.56 1772.77C2809.99 1773.45 2821.95 1786.51 2821.27 1801.94L2811.84 2015.71C2811.16 2031.14 2798.1 2043.1 2782.67 2042.42L2782.67 2042.42C2767.23 2041.74 2755.28 2028.67 2755.96 2013.24Z" stroke="#595959" stroke-width="6.875" stroke-miterlimit="8" fill="#7F7F7F" fill-rule="evenodd"/><path d="M2060.27 1468.86C2098.72 1359.23 2247.17 1311.49 2391.84 1362.24 2536.51 1412.98 2622.61 1542.98 2584.16 1652.61 2545.71 1762.24 2397.26 1809.97 2252.59 1759.23 2107.93 1708.49 2021.82 1578.49 2060.27 1468.86Z" stroke="#7F7F7F" stroke-width="4.58333" stroke-miterlimit="8" fill="#7F7F7F" fill-rule="evenodd"/><path d="M1832 1783.5C1832 1686.57 1931.39 1608 2054 1608 2176.61 1608 2276 1686.57 2276 1783.5 2276 1880.43 2176.61 1959 2054 1959 1931.39 1959 1832 1880.43 1832 1783.5Z" stroke="#595959" stroke-width="10.3125" stroke-miterlimit="8" fill="#7F7F7F" fill-rule="evenodd"/><path d="M2933.53 1212.98C2989.18 1119.97 3109.7 1089.67 3202.72 1145.32 3295.74 1200.97 3326.03 1321.49 3270.38 1414.5 3214.73 1507.52 3094.21 1537.82 3001.2 1482.17 2908.18 1426.52 2877.88 1306 2933.53 1212.98Z" stroke="#595959" stroke-width="10.3125" stroke-miterlimit="8" fill="#7F7F7F" fill-rule="evenodd"/><path d="M3010.56 1333.14C3021.04 1332.68 3031.71 1332.79 3042.52 1333.49 3094.39 1336.82 3149.34 1353.52 3200.82 1384.31 3213.69 1392.01 3225.89 1400.32 3237.37 1409.14L3256.9 1426.02 3257.26 1428.43C3268.7 1465.96 3317.96 1527.51 3386.59 1586.11 3443.78 1634.94 3500.89 1670.17 3540.83 1683.68L3549.35 1685.82 3555.83 1709.45C3556.91 1717.64 3556.82 1725.82 3555.48 1733.95 3541.08 1820.62 3388.91 1867.55 3215.58 1838.77 3193.92 1835.17 3172.94 1830.56 3152.86 1825.08L3105.79 1809.56 3080.07 1805.74C3044.61 1797.53 3008.75 1783.26 2974.43 1762.73 2837.16 1680.61 2776.55 1529.32 2839.07 1424.82 2873.26 1367.67 2937.19 1336.36 3010.56 1333.14Z" stroke="#595959" stroke-width="10.3125" stroke-miterlimit="8" fill="#7F7F7F" fill-rule="evenodd"/><path d="M2698.6 1233.34C2754.25 1140.32 2874.76 1110.03 2967.78 1165.68 3060.8 1221.33 3091.09 1341.84 3035.45 1434.86 2979.8 1527.88 2859.28 1558.17 2766.26 1502.52 2673.24 1446.88 2642.95 1326.36 2698.6 1233.34Z" stroke="#595959" stroke-width="10.3125" stroke-miterlimit="8" fill="#7F7F7F" fill-rule="evenodd"/><path d="M2763.27 1271.14C2801.14 1207.85 2883.14 1187.23 2946.43 1225.1 3009.72 1262.96 3030.33 1344.97 2992.47 1408.26 2954.61 1471.55 2872.6 1492.16 2809.31 1454.3 2746.02 1416.43 2725.41 1334.43 2763.27 1271.14Z" stroke="#595959" stroke-width="6.875" stroke-miterlimit="8" fill="#FF9999" fill-rule="evenodd"/><path d="M3499.1 1710.59C3516.42 1681.65 3554.31 1672.46 3583.74 1690.07 3613.17 1707.67 3622.99 1745.41 3605.67 1774.35 3588.36 1803.29 3550.46 1812.48 3521.04 1794.88 3491.61 1777.27 3481.79 1739.54 3499.1 1710.59Z" fill-rule="evenodd"/><path d="M3150 1546 3207.26 1583.11" stroke="#000000" stroke-width="27.5" stroke-linecap="round" stroke-miterlimit="8" fill="none" fill-rule="evenodd"/><path d="M3116.5 1740.5 3202.43 1832.14" stroke="#000000" stroke-width="14.8958" stroke-linecap="round" stroke-miterlimit="8" fill="none" fill-rule="evenodd"/></g></svg>