<?xml version="1.0" encoding="UTF-8"?>
<svg xmlns="http://www.w3.org/2000/svg" xmlns:xlink="http://www.w3.org/1999/xlink" width="250px" height="px" viewBox="0 0 249 97" version="1.1">
<g id="surface1">
<path style="fill:none;stroke-width:27.5;stroke-linecap:round;stroke-linejoin:miter;stroke:rgb(34.901961%,34.901961%,34.901961%);stroke-opacity:1;stroke-miterlimit:8;" d="M 1789.996988 1551.421794 C 1723.035203 1622.181137 1656.073419 1692.901256 1545.582549 1688.822004 C 1435.091679 1684.742751 1281.032474 1605.864127 1127.012519 1526.985503 " transform="matrix(0.0995204,0,0,0.0995893,-110.766187,-110.743326)"/>
<path style="fill-rule:evenodd;fill:rgb(49.803922%,49.803922%,49.803922%);fill-opacity:1;stroke-width:6.875;stroke-linecap:butt;stroke-linejoin:miter;stroke:rgb(34.901961%,34.901961%,34.901961%);stroke-opacity:1;stroke-miterlimit:8;" d="M 2049.091209 1692.156008 C 2062.161709 1670.975274 2089.951242 1664.385712 2111.146649 1677.447165 L 2472.41058 1900.354784 C 2493.605986 1913.416237 2500.200113 1941.186534 2487.129612 1962.406492 C 2474.059111 1983.587226 2446.269578 1990.176788 2425.074172 1977.115335 L 2063.77099 1754.246939 C 2042.575584 1741.146263 2036.020708 1713.375966 2049.091209 1692.156008 Z M 2049.091209 1692.156008 " transform="matrix(0.0995204,0,0,0.0995893,-110.766187,-110.743326)"/>
<path style="fill-rule:evenodd;fill:rgb(49.803922%,49.803922%,49.803922%);fill-opacity:1;stroke-width:6.875;stroke-linecap:butt;stroke-linejoin:miter;stroke:rgb(34.901961%,34.901961%,34.901961%);stroke-opacity:1;stroke-miterlimit:8;" d="M 2873.514025 1765.504108 C 2873.514025 1750.599146 2885.603257 1738.518283 2900.518543 1738.518283 C 2915.394578 1738.518283 2927.48381 1750.599146 2927.48381 1765.504108 L 2927.48381 1973.506765 C 2927.48381 1988.411727 2915.394578 2000.49259 2900.518543 2000.49259 C 2885.603257 2000.49259 2873.514025 1988.411727 2873.514025 1973.506765 Z M 2873.514025 1765.504108 " transform="matrix(0.0995204,0,0,0.0995893,-110.766187,-110.743326)"/>
<path style="fill-rule:evenodd;fill:rgb(100%,100%,100%);fill-opacity:1;stroke-width:10.3125;stroke-linecap:butt;stroke-linejoin:miter;stroke:rgb(34.901961%,34.901961%,34.901961%);stroke-opacity:1;stroke-miterlimit:8;" d="M 2853.692395 1675.525209 C 3038.9952 1689.33191 3085.703596 1748.245731 2958.020896 1807.081105 C 2830.377447 1865.955702 2576.66058 1902.472858 2391.357775 1888.666157 C 2206.094221 1874.859456 2159.385825 1815.945635 2287.029273 1757.071037 C 2296.959714 1752.481878 2307.792922 1748.01039 2319.489646 1743.617349 Z M 2853.692395 1675.525209 " transform="matrix(0.0995204,0,0,0.0995893,-110.766187,-110.743326)"/>
<path style="fill-rule:evenodd;fill:rgb(49.803922%,49.803922%,49.803922%);fill-opacity:1;stroke-width:10.3125;stroke-linecap:butt;stroke-linejoin:miter;stroke:rgb(34.901961%,34.901961%,34.901961%);stroke-opacity:1;stroke-miterlimit:8;" d="M 2326.751035 1319.492751 L 3174.174793 1728.594716 L 2274.86154 1770.68162 Z M 2326.751035 1319.492751 " transform="matrix(0.0995204,0,0,0.0995893,-110.766187,-110.743326)"/>
<path style="fill-rule:evenodd;fill:rgb(49.803922%,49.803922%,49.803922%);fill-opacity:1;stroke-width:10.3125;stroke-linecap:butt;stroke-linejoin:miter;stroke:rgb(34.901961%,34.901961%,34.901961%);stroke-opacity:1;stroke-miterlimit:8;" d="M 1783.520614 1559.658747 C 1799.260166 1386.91809 1980.206137 1262.187097 2187.685617 1281.092864 C 2395.165098 1299.998631 2550.59808 1455.363241 2534.858528 1628.143122 C 2519.118976 1800.883779 2338.173005 1925.614771 2130.693524 1906.709005 C 1923.214044 1887.803238 1767.781062 1732.438628 1783.520614 1559.658747 Z M 1783.520614 1559.658747 " transform="matrix(0.0995204,0,0,0.0995893,-110.766187,-110.743326)"/>
<path style="fill-rule:evenodd;fill:rgb(49.803922%,49.803922%,49.803922%);fill-opacity:1;stroke-width:6.875;stroke-linecap:butt;stroke-linejoin:miter;stroke:rgb(34.901961%,34.901961%,34.901961%);stroke-opacity:1;stroke-miterlimit:8;" d="M 1940.288121 1790.254188 C 1953.358622 1769.073454 1981.148155 1762.483892 2002.343562 1775.584568 L 2363.607492 1998.452964 C 2384.802899 2011.514417 2391.397026 2039.323937 2378.326525 2060.504671 C 2365.256024 2081.685406 2337.466491 2088.274968 2316.271084 2075.213515 L 1954.967903 1852.345119 C 1933.772496 1839.244443 1927.21762 1811.474146 1940.288121 1790.254188 Z M 1940.288121 1790.254188 " transform="matrix(0.0995204,0,0,0.0995893,-110.766187,-110.743326)"/>
<path style="fill-rule:evenodd;fill:rgb(49.803922%,49.803922%,49.803922%);fill-opacity:1;stroke-width:6.875;stroke-linecap:butt;stroke-linejoin:miter;stroke:rgb(34.901961%,34.901961%,34.901961%);stroke-opacity:1;stroke-miterlimit:8;" d="M 2765.3782 1799.47173 C 2766.045463 1784.056862 2779.115964 1772.093669 2794.54151 1772.76047 C 2810.006306 1773.466495 2821.938535 1786.527948 2821.271273 1801.942816 L 2811.851092 2015.71134 C 2811.144578 2031.126208 2798.113328 2043.089401 2782.687782 2042.4226 C 2767.222986 2041.755799 2755.290757 2028.655122 2755.95802 2013.240255 Z M 2765.3782 1799.47173 " transform="matrix(0.0995204,0,0,0.0995893,-110.766187,-110.743326)"/>
<path style="fill-rule:evenodd;fill:rgb(49.803922%,49.803922%,49.803922%);fill-opacity:1;stroke-width:4.58333;stroke-linecap:butt;stroke-linejoin:miter;stroke:rgb(49.803922%,49.803922%,49.803922%);stroke-opacity:1;stroke-miterlimit:8;" d="M 2060.277673 1468.856153 C 2098.70416 1359.22624 2247.150508 1311.49114 2391.828784 1362.246456 C 2536.507059 1412.962548 2622.623212 1542.988724 2584.157474 1652.618637 C 2545.691736 1762.24855 2397.245388 1809.98365 2252.606363 1759.228334 C 2107.928087 1708.473019 2021.811935 1578.486066 2060.277673 1468.856153 Z M 2060.277673 1468.856153 " transform="matrix(0.0995204,0,0,0.0995893,-110.766187,-110.743326)"/>
<path style="fill-rule:evenodd;fill:rgb(49.803922%,49.803922%,49.803922%);fill-opacity:1;stroke-width:10.3125;stroke-linecap:butt;stroke-linejoin:miter;stroke:rgb(34.901961%,34.901961%,34.901961%);stroke-opacity:1;stroke-miterlimit:8;" d="M 1831.995294 1783.507732 C 1831.995294 1686.58626 1931.3782 1607.9822 2053.997553 1607.9822 C 2176.616905 1607.9822 2275.999812 1686.58626 2275.999812 1783.507732 C 2275.999812 1880.429204 2176.616905 1958.99404 2053.997553 1958.99404 C 1931.3782 1958.99404 1831.995294 1880.429204 1831.995294 1783.507732 Z M 1831.995294 1783.507732 " transform="matrix(0.0995204,0,0,0.0995893,-110.766187,-110.743326)"/>
<path style="fill-rule:evenodd;fill:rgb(49.803922%,49.803922%,49.803922%);fill-opacity:1;stroke-width:10.3125;stroke-linecap:butt;stroke-linejoin:miter;stroke:rgb(34.901961%,34.901961%,34.901961%);stroke-opacity:1;stroke-miterlimit:8;" d="M 2933.528426 1212.961501 C 2989.185994 1119.962387 3109.685806 1089.681782 3202.71009 1145.300822 C 3295.734375 1200.959085 3326.035956 1321.493154 3270.378389 1414.492268 C 3214.720821 1507.530606 3094.221009 1537.811211 3001.196724 1482.152948 C 2908.17244 1426.533908 2877.870858 1305.999839 2933.528426 1212.961501 Z M 2933.528426 1212.961501 " transform="matrix(0.0995204,0,0,0.0995893,-110.766187,-110.743326)"/>
<path style="fill-rule:evenodd;fill:rgb(49.803922%,49.803922%,49.803922%);fill-opacity:1;stroke-width:10.3125;stroke-linecap:butt;stroke-linejoin:miter;stroke:rgb(34.901961%,34.901961%,34.901961%);stroke-opacity:1;stroke-miterlimit:8;" d="M 3010.577654 1333.142558 C 3021.057605 1332.671875 3031.694559 1332.789546 3042.527767 1333.49557 C 3094.378012 1336.829575 3149.329066 1353.538821 3200.826054 1384.329333 C 3213.700301 1392.017155 3225.907285 1400.332555 3237.368505 1409.157861 L 3256.91538 1426.024001 L 3257.268637 1428.41664 C 3268.690606 1465.953608 3317.950301 1527.495409 3386.599868 1586.095441 C 3443.788215 1634.928802 3500.898061 1670.151579 3540.816077 1683.683715 L 3549.33349 1685.801788 L 3555.849115 1709.453608 C 3556.908886 1717.651337 3556.830384 1725.809842 3555.495858 1733.968347 C 3541.090832 1820.613241 3388.915663 1867.563869 3215.584337 1838.77376 C 3193.917922 1835.16519 3172.95802 1830.576031 3152.861634 1825.084729 L 3105.799981 1809.552191 L 3080.051487 1805.747503 C 3044.608057 1797.510551 3008.732869 1783.27239 2974.427711 1762.719233 C 2837.167828 1680.624275 2776.564665 1529.338918 2839.051864 1424.80807 C 2873.27852 1367.659311 2937.178746 1336.358892 3010.577654 1333.142558 Z M 3010.577654 1333.142558 " transform="matrix(0.0995204,0,0,0.0995893,-110.766187,-110.743326)"/>
<path style="fill-rule:evenodd;fill:rgb(49.803922%,49.803922%,49.803922%);fill-opacity:1;stroke-width:10.3125;stroke-linecap:butt;stroke-linejoin:miter;stroke:rgb(34.901961%,34.901961%,34.901961%);stroke-opacity:1;stroke-miterlimit:8;" d="M 2698.612669 1233.357764 C 2754.230986 1140.319427 2874.770049 1110.038821 2967.794334 1165.697084 C 3060.818618 1221.316124 3091.080949 1341.850193 3035.462632 1434.849307 C 2979.805064 1527.887645 2859.266002 1558.168251 2766.241717 1502.509987 C 2673.256683 1446.890947 2642.955102 1326.356878 2698.612669 1233.357764 Z M 2698.612669 1233.357764 " transform="matrix(0.0995204,0,0,0.0995893,-110.766187,-110.743326)"/>
<path style="fill-rule:evenodd;fill:rgb(100%,60%,60%);fill-opacity:1;stroke-width:6.875;stroke-linecap:butt;stroke-linejoin:miter;stroke:rgb(34.901961%,34.901961%,34.901961%);stroke-opacity:1;stroke-miterlimit:8;" d="M 2763.25866 1271.130074 C 2801.135636 1207.862436 2883.130459 1187.230831 2946.441924 1225.081588 C 3009.714138 1262.971569 3030.320783 1344.98808 2992.483057 1408.255718 C 2954.606081 1471.562581 2872.611258 1492.154961 2809.299793 1454.304204 C 2746.027579 1416.414224 2725.420934 1334.436936 2763.25866 1271.130074 Z M 2763.25866 1271.130074 " transform="matrix(0.0995204,0,0,0.0995893,-110.766187,-110.743326)"/>
<path style=" stroke:none;fill-rule:evenodd;fill:rgb(0%,0%,0%);fill-opacity:1;" d="M 237.464844 59.613281 C 239.1875 56.730469 242.960938 55.816406 245.890625 57.570312 C 248.816406 59.324219 249.796875 63.082031 248.070312 65.964844 C 246.347656 68.84375 242.578125 69.761719 239.648438 68.007812 C 236.71875 66.253906 235.742188 62.496094 237.464844 59.613281 Z M 237.464844 59.613281 "/>
<path style="fill:none;stroke-width:27.5;stroke-linecap:round;stroke-linejoin:miter;stroke:rgb(0%,0%,0%);stroke-opacity:1;stroke-miterlimit:8;" d="M 3149.996329 1546.00894 L 3207.263178 1583.114449 " transform="matrix(0.0995204,0,0,0.0995893,-110.766187,-110.743326)"/>
<path style="fill:none;stroke-width:14.8958;stroke-linecap:round;stroke-linejoin:miter;stroke:rgb(0%,0%,0%);stroke-opacity:1;stroke-miterlimit:8;" d="M 3116.515437 1740.518686 L 3202.435335 1832.144974 " transform="matrix(0.0995204,0,0,0.0995893,-110.766187,-110.743326)"/>
</g>
</svg>
