<?xml version="1.0" encoding="UTF-8"?>
<svg xmlns="http://www.w3.org/2000/svg" xmlns:xlink="http://www.w3.org/1999/xlink" width="250px" height="px" viewBox="0 0 249 104" version="1.1">
<g id="surface1">
<path style="fill:none;stroke-width:27.5;stroke-linecap:round;stroke-linejoin:miter;stroke:rgb(34.901961%,34.901961%,34.901961%);stroke-opacity:1;stroke-miterlimit:8;" d="M 1789.996988 1551.445575 C 1723.035203 1622.177584 1656.073419 1692.909593 1545.582549 1688.843187 C 1435.091679 1684.77678 1281.032474 1605.872859 1127.012519 1527.008038 " transform="matrix(0.0995204,0,0,0.0999039,-110.766187,-111.09318)"/>
<path style="fill-rule:evenodd;fill:rgb(49.803922%,49.803922%,49.803922%);fill-opacity:1;stroke-width:6.875;stroke-linecap:butt;stroke-linejoin:miter;stroke:rgb(34.901961%,34.901961%,34.901961%);stroke-opacity:1;stroke-miterlimit:8;" d="M 2074.918204 1602.901255 C 2096.270614 1590.115535 2123.981645 1597.075346 2136.777391 1618.423978 L 2354.854575 1982.641038 C 2367.65032 2003.989671 2360.702937 2031.672514 2339.311276 2044.497333 C 2317.958867 2057.283053 2290.287086 2050.323242 2277.45209 2028.974609 L 2059.414157 1664.75755 C 2046.618411 1643.408917 2053.565794 1615.686974 2074.918204 1602.901255 Z M 2074.918204 1602.901255 " transform="matrix(0.0995204,0,0,0.0999039,-110.766187,-111.09318)"/>
<path style="fill-rule:evenodd;fill:rgb(49.803922%,49.803922%,49.803922%);fill-opacity:1;stroke-width:6.875;stroke-linecap:butt;stroke-linejoin:miter;stroke:rgb(34.901961%,34.901961%,34.901961%);stroke-opacity:1;stroke-miterlimit:8;" d="M 2875.241058 1762.5468 C 2880.932417 1748.744479 2896.750471 1742.175669 2910.566736 1747.884277 C 2924.34375 1753.592886 2930.937877 1769.38931 2925.246517 1783.191632 L 2845.959996 1975.251127 C 2840.268637 1989.053448 2824.450584 1995.622258 2810.634319 1989.952749 C 2796.818053 1984.244141 2790.263178 1968.447716 2795.954537 1954.645395 Z M 2875.241058 1762.5468 " transform="matrix(0.0995204,0,0,0.0999039,-110.766187,-111.09318)"/>
<path style="fill-rule:evenodd;fill:rgb(100%,100%,100%);fill-opacity:1;stroke-width:10.3125;stroke-linecap:butt;stroke-linejoin:miter;stroke:rgb(34.901961%,34.901961%,34.901961%);stroke-opacity:1;stroke-miterlimit:8;" d="M 2853.692395 1675.510066 C 3038.9952 1689.312387 3085.703596 1748.236178 2958.020896 1807.081768 C 2830.377447 1865.966459 2576.66058 1902.485915 2391.357775 1888.644494 C 2206.094221 1874.842172 2159.385825 1815.918382 2287.029273 1757.072791 C 2296.959714 1752.498084 2307.792922 1748.001578 2319.489646 1743.583271 Z M 2853.692395 1675.510066 " transform="matrix(0.0995204,0,0,0.0999039,-110.766187,-111.09318)"/>
<path style="fill-rule:evenodd;fill:rgb(49.803922%,49.803922%,49.803922%);fill-opacity:1;stroke-width:10.3125;stroke-linecap:butt;stroke-linejoin:miter;stroke:rgb(34.901961%,34.901961%,34.901961%);stroke-opacity:1;stroke-miterlimit:8;" d="M 2326.751035 1319.504019 L 3174.174793 1728.607948 L 2274.86154 1770.718712 Z M 2326.751035 1319.504019 " transform="matrix(0.0995204,0,0,0.0999039,-110.766187,-111.09318)"/>
<path style="fill-rule:evenodd;fill:rgb(49.803922%,49.803922%,49.803922%);fill-opacity:1;stroke-width:10.3125;stroke-linecap:butt;stroke-linejoin:miter;stroke:rgb(34.901961%,34.901961%,34.901961%);stroke-opacity:1;stroke-miterlimit:8;" d="M 1783.520614 1559.656588 C 1799.260166 1386.912523 1980.206137 1262.183331 2187.685617 1281.10776 C 2395.165098 1299.993089 2550.59808 1455.376728 2534.858528 1628.120793 C 2519.118976 1800.903959 2338.173005 1925.59405 2130.693524 1906.708721 C 1923.214044 1887.784292 1767.781062 1732.400654 1783.520614 1559.656588 Z M 1783.520614 1559.656588 " transform="matrix(0.0995204,0,0,0.0999039,-110.766187,-111.09318)"/>
<path style="fill-rule:evenodd;fill:rgb(49.803922%,49.803922%,49.803922%);fill-opacity:1;stroke-width:6.875;stroke-linecap:butt;stroke-linejoin:miter;stroke:rgb(34.901961%,34.901961%,34.901961%);stroke-opacity:1;stroke-miterlimit:8;" d="M 1966.115117 1701.003305 C 1987.467526 1688.217586 2015.178558 1695.177396 2027.974303 1716.526029 L 2246.051487 2080.743089 C 2258.847233 2102.091722 2251.899849 2129.813664 2230.54744 2142.599384 C 2209.155779 2155.385104 2181.444748 2148.425293 2168.688253 2127.07666 L 1950.571819 1762.8596 C 1937.776073 1741.510968 1944.723456 1713.828125 1966.115117 1701.003305 Z M 1966.115117 1701.003305 " transform="matrix(0.0995204,0,0,0.0999039,-110.766187,-111.09318)"/>
<path style="fill-rule:evenodd;fill:rgb(49.803922%,49.803922%,49.803922%);fill-opacity:1;stroke-width:6.875;stroke-linecap:butt;stroke-linejoin:miter;stroke:rgb(34.901961%,34.901961%,34.901961%);stroke-opacity:1;stroke-miterlimit:8;" d="M 2768.910768 1798.792556 C 2775.465644 1784.794734 2792.068712 1778.734225 2806.081231 1785.224835 C 2820.09375 1791.754545 2826.177617 1808.37207 2819.661992 1822.408992 L 2729.38526 2016.38439 C 2722.869635 2030.382212 2706.227316 2036.481821 2692.214797 2029.952111 C 2678.202278 2023.422401 2672.157662 2006.804875 2678.673287 1992.807054 Z M 2768.910768 1798.792556 " transform="matrix(0.0995204,0,0,0.0999039,-110.766187,-111.09318)"/>
<path style="fill-rule:evenodd;fill:rgb(49.803922%,49.803922%,49.803922%);fill-opacity:1;stroke-width:4.58333;stroke-linecap:butt;stroke-linejoin:miter;stroke:rgb(49.803922%,49.803922%,49.803922%);stroke-opacity:1;stroke-miterlimit:8;" d="M 2060.277673 1468.866248 C 2098.70416 1359.22968 2247.150508 1311.488507 2391.828784 1362.240385 C 2536.507059 1412.992263 2622.623212 1542.960862 2584.157474 1652.597431 C 2545.691736 1762.233999 2397.245388 1809.975173 2252.606363 1759.223295 C 2107.928087 1708.471417 2021.811935 1578.502817 2060.277673 1468.866248 Z M 2060.277673 1468.866248 " transform="matrix(0.0995204,0,0,0.0999039,-110.766187,-111.09318)"/>
<path style="fill-rule:evenodd;fill:rgb(49.803922%,49.803922%,49.803922%);fill-opacity:1;stroke-width:10.3125;stroke-linecap:butt;stroke-linejoin:miter;stroke:rgb(34.901961%,34.901961%,34.901961%);stroke-opacity:1;stroke-miterlimit:8;" d="M 1821.986352 1758.519494 C 1821.986352 1661.551345 1921.173005 1582.999324 2043.517602 1582.999324 C 2165.822948 1582.999324 2265.009601 1661.551345 2265.009601 1758.519494 C 2265.009601 1855.448543 2165.822948 1934.000563 2043.517602 1934.000563 C 1921.173005 1934.000563 1821.986352 1855.448543 1821.986352 1758.519494 Z M 1821.986352 1758.519494 " transform="matrix(0.0995204,0,0,0.0999039,-110.766187,-111.09318)"/>
<path style="fill-rule:evenodd;fill:rgb(49.803922%,49.803922%,49.803922%);fill-opacity:1;stroke-width:10.3125;stroke-linecap:butt;stroke-linejoin:miter;stroke:rgb(34.901961%,34.901961%,34.901961%);stroke-opacity:1;stroke-miterlimit:8;" d="M 2933.528426 1212.995455 C 2989.185994 1119.976412 3109.685806 1089.673866 3202.71009 1145.313251 C 3295.734375 1200.952637 3326.035956 1321.498122 3270.378389 1414.517165 C 3214.720821 1507.536208 3094.221009 1537.838755 3001.196724 1482.160269 C 2908.17244 1426.520883 2877.870858 1306.014498 2933.528426 1212.995455 Z M 2933.528426 1212.995455 " transform="matrix(0.0995204,0,0,0.0999039,-110.766187,-111.09318)"/>
<path style="fill-rule:evenodd;fill:rgb(49.803922%,49.803922%,49.803922%);fill-opacity:1;stroke-width:10.3125;stroke-linecap:butt;stroke-linejoin:miter;stroke:rgb(34.901961%,34.901961%,34.901961%);stroke-opacity:1;stroke-miterlimit:8;" d="M 3010.577654 1333.14994 C 3021.057605 1332.680739 3031.694559 1332.798039 3042.527767 1333.50184 C 3094.378012 1336.825346 3149.329066 1353.521071 3200.826054 1384.292819 C 3213.700301 1391.99553 3225.907285 1400.323843 3237.368505 1409.121357 L 3256.91538 1426.012583 L 3257.268637 1428.436786 C 3268.690606 1465.972844 3317.950301 1527.516339 3386.599868 1586.127329 C 3443.788215 1634.924204 3500.898061 1670.153358 3540.816077 1683.681979 L 3549.33349 1685.832482 L 3555.849115 1709.448918 C 3556.908886 1717.620831 3556.830384 1725.831843 3555.495858 1733.964656 C 3541.090832 1820.610389 3388.915663 1867.530461 3215.584337 1838.752817 C 3193.917922 1835.155611 3172.95802 1830.541804 3152.861634 1825.067796 L 3105.799981 1809.545072 L 3080.051487 1805.752366 C 3044.608057 1797.541354 3008.732869 1783.269832 2974.427711 1762.7423 C 2837.167828 1680.593074 2776.564665 1529.314941 2839.051864 1424.800481 C 2873.27852 1367.675293 2937.178746 1336.356145 3010.577654 1333.14994 Z M 3010.577654 1333.14994 " transform="matrix(0.0995204,0,0,0.0999039,-110.766187,-111.09318)"/>
<path style="fill-rule:evenodd;fill:rgb(49.803922%,49.803922%,49.803922%);fill-opacity:1;stroke-width:10.3125;stroke-linecap:butt;stroke-linejoin:miter;stroke:rgb(34.901961%,34.901961%,34.901961%);stroke-opacity:1;stroke-miterlimit:8;" d="M 2698.612669 1233.327486 C 2754.230986 1140.308444 2874.770049 1110.044997 2967.794334 1165.684383 C 3060.818618 1221.323768 3091.080949 1341.830153 3035.462632 1434.849196 C 2979.805064 1527.868239 2859.266002 1558.170786 2766.241717 1502.5314 C 2673.256683 1446.892015 2642.955102 1326.346529 2698.612669 1233.327486 Z M 2698.612669 1233.327486 " transform="matrix(0.0995204,0,0,0.0999039,-110.766187,-111.09318)"/>
<path style="fill-rule:evenodd;fill:rgb(100%,60%,60%);fill-opacity:1;stroke-width:6.875;stroke-linecap:butt;stroke-linejoin:miter;stroke:rgb(34.901961%,34.901961%,34.901961%);stroke-opacity:1;stroke-miterlimit:8;" d="M 2763.25866 1271.137245 C 2801.135636 1207.834247 2883.130459 1187.228516 2946.441924 1225.116474 C 3009.714138 1262.965332 3030.320783 1344.958158 2992.483057 1408.261155 C 2954.606081 1471.564153 2872.611258 1492.169884 2809.299793 1454.281926 C 2746.027579 1416.433068 2725.420934 1334.440242 2763.25866 1271.137245 Z M 2763.25866 1271.137245 " transform="matrix(0.0995204,0,0,0.0999039,-110.766187,-111.09318)"/>
<path style=" stroke:none;fill-rule:evenodd;fill:rgb(0%,0%,0%);fill-opacity:1;" d="M 237.464844 59.800781 C 239.1875 56.910156 242.960938 55.992188 245.890625 57.75 C 248.816406 59.511719 249.796875 63.28125 248.070312 66.171875 C 246.347656 69.0625 242.578125 69.980469 239.648438 68.222656 C 236.71875 66.464844 235.742188 62.695312 237.464844 59.800781 Z M 237.464844 59.800781 "/>
<path style="fill:none;stroke-width:27.5;stroke-linecap:round;stroke-linejoin:miter;stroke:rgb(0%,0%,0%);stroke-opacity:1;stroke-miterlimit:8;" d="M 3149.996329 1546.010667 L 3207.263178 1583.116624 " transform="matrix(0.0995204,0,0,0.0999039,-110.766187,-111.09318)"/>
<path style="fill:none;stroke-width:14.8958;stroke-linecap:round;stroke-linejoin:miter;stroke:rgb(0%,0%,0%);stroke-opacity:1;stroke-miterlimit:8;" d="M 3116.515437 1740.494366 L 3202.435335 1832.144907 " transform="matrix(0.0995204,0,0,0.0999039,-110.766187,-111.09318)"/>
</g>
</svg>
