<svg width="2225" height="2227" xmlns="http://www.w3.org/2000/svg" xmlns:xlink="http://www.w3.org/1999/xlink" xml:space="preserve" overflow="hidden"><defs><clipPath id="clip0"><rect x="1088" y="124" width="2225" height="2227"/></clipPath></defs><g clip-path="url(#clip0)" transform="translate(-1088 -124)"><path d="M1316.11 2351C1316.11 2327.09 1316.31 2303.21 1316 2279.3 1315.9 2272.27 1317.48 2268.97 1325.46 2269 1376.85 2269.41 1428.27 2269.38 1479.65 2269.52 1481.3 2296.67 1481.65 2323.85 1479.48 2351L1316.07 2351Z" fill="#707070" fill-rule="evenodd"/><path d="M1212 124.172C1211.86 151.31 1211.76 178.414 1211.62 205.552 1184.3 207.945 1156.95 206.304 1129.6 206.475 1115.8 206.543 1101.9 208.15 1088.14 205.381 1088.18 180.772 1088.42 156.163 1088 131.554 1087.9 125.368 1089.42 123.966 1095.61 124.001 1134.42 124.342 1173.19 124.172 1212 124.172Z" fill="#707070" fill-rule="evenodd"/><path d="M2696 124C2695.86 151.223 2695.76 178.411 2695.62 205.633 2667.92 207.999 2640.17 206.319 2612.43 206.559 2599.41 206.662 2586.36 207.93 2573.38 205.633 2573.24 178.411 2573.14 151.223 2573 124 2614 124 2654.97 124 2695.97 124Z" fill="#707070" fill-rule="evenodd"/><path d="M1088 206.023C1129 206.07 1170 206.093 1211 206.14 1208.02 209.134 1203.56 207.614 1199.86 207.614 1162.56 207.754 1125.3 207.684 1088 207.684L1088 206Z" fill="#707070" fill-rule="evenodd"/><path d="M1479 2351C1479.07 2324.01 1479.11 2297.02 1479.18 2270 1483.74 2272.95 1481.39 2277.43 1481.42 2281.13 1481.67 2304.42 1481.53 2327.71 1481.57 2351L1479 2351Z" fill="#707070" fill-rule="evenodd"/><path d="M1479.68 865.518C1428.15 865.621 1376.62 865.656 1325.09 866 1317.96 866.034 1315.9 863.383 1316 856.567 1316.31 835.534 1316.31 814.466 1316 793.433 1315.9 786.651 1317.96 783.966 1325.09 784 1376.62 784.345 1428.15 784.345 1479.68 784.482 1481.44 811.506 1481.44 838.495 1479.68 865.518Z" fill="#707070" fill-rule="evenodd"/><path d="M2221.68 865.518C2170.15 865.621 2118.62 865.656 2067.09 866 2059.96 866.034 2057.9 863.383 2058 856.567 2058.31 835.534 2058.31 814.466 2058 793.433 2057.9 786.651 2059.96 783.966 2067.09 784 2118.62 784.345 2170.15 784.345 2221.68 784.482 2223.44 811.506 2223.44 838.495 2221.68 865.518Z" fill="#707070" fill-rule="evenodd"/><path d="M3149.68 2021.55C3098.23 2021.66 3046.81 2021.69 2995.36 2022 2988.55 2022.03 2985.9 2019.94 2986 2012.88 2986.42 1988.68 2986.35 1964.47 2986.48 1940.27 2990.41 1938.35 2994.57 1939.28 2998.63 1939.24 3045.47 1939.17 3092.28 1939.41 3139.12 1939 3148.1 1938.93 3151.44 1940.92 3150.96 1950.45 3149.72 1974.11 3152.09 1997.86 3149.68 2021.52Z" fill="#707070" fill-rule="evenodd"/><path d="M2963.68 1608.52C2912.15 1608.62 2860.62 1608.66 2809.09 1609 2801.96 1609.03 2799.9 1606.38 2800 1599.57 2800.31 1578.53 2800.31 1557.47 2800 1536.43 2799.9 1529.65 2801.96 1526.97 2809.09 1527 2860.62 1527.34 2912.15 1527.34 2963.68 1527.48 2965.44 1554.51 2965.44 1581.49 2963.68 1608.52Z" fill="#707070" fill-rule="evenodd"/><path d="M2221.68 1608.52C2170.15 1608.62 2118.62 1608.66 2067.09 1609 2059.96 1609.03 2057.9 1606.38 2058 1599.57 2058.31 1578.53 2058.31 1557.47 2058 1536.43 2057.9 1529.65 2059.96 1526.97 2067.09 1527 2118.62 1527.34 2170.15 1527.34 2221.68 1527.48 2223.44 1554.51 2223.44 1581.49 2221.68 1608.52Z" fill="#707070" fill-rule="evenodd"/><path d="M1664.68 1279.55C1613.23 1279.65 1561.81 1279.69 1510.36 1280 1503.55 1280.03 1500.9 1277.92 1501 1270.77 1501.42 1246.28 1501.35 1221.78 1501.48 1197.29 1505.41 1195.34 1509.57 1196.28 1513.63 1196.24 1560.47 1196.18 1607.28 1196.42 1654.12 1196 1663.1 1195.93 1666.44 1197.94 1665.96 1207.59 1664.72 1231.53 1667.09 1255.57 1664.68 1279.51Z" fill="#707070" fill-rule="evenodd"/><path d="M2963.68 865.518C2912.15 865.621 2860.62 865.656 2809.09 866 2801.96 866.034 2799.9 863.383 2800 856.567 2800.31 835.534 2800.31 814.466 2800 793.433 2799.9 786.651 2801.96 783.966 2809.09 784 2860.62 784.345 2912.15 784.345 2963.68 784.482 2965.44 811.506 2965.44 838.495 2963.68 865.518Z" fill="#707070" fill-rule="evenodd"/><path d="M2862.49 1071.64C2862.38 1047.42 2862.45 1023.2 2862 999.011 2861.87 991.851 2864.76 989.966 2871.48 990 2913.16 990.206 2954.84 990.206 2996.52 990 3003.24 990 3006.13 991.816 3006 999.011 3005.55 1023.23 3005.65 1047.46 3005.51 1071.64 2983.78 1073.97 2961.94 1072.6 2940.17 1072.57 2914.26 1072.5 2888.32 1074.01 2862.45 1071.64Z" fill="#707070" fill-rule="evenodd"/><path d="M1378.48 329.644C1378.38 305.421 1378.45 281.199 1378 257.011 1377.87 249.85 1380.74 247.966 1387.41 248 1428.8 248.206 1470.2 248.206 1511.59 248 1518.26 248 1521.13 249.816 1521 257.011 1520.55 281.233 1520.65 305.456 1520.52 329.644 1498.93 331.973 1477.24 330.603 1455.62 330.569 1429.9 330.5 1404.14 332.008 1378.45 329.644Z" fill="#707070" fill-rule="evenodd"/><path d="M2120.49 329.644C2120.38 305.421 2120.45 281.199 2120 257.011 2119.87 249.85 2122.76 247.966 2129.48 248 2171.16 248.206 2212.84 248.206 2254.52 248 2261.24 248 2264.13 249.816 2264 257.011 2263.55 281.233 2263.65 305.456 2263.51 329.644 2241.78 331.973 2219.94 330.603 2198.17 330.569 2172.26 330.5 2146.32 332.008 2120.45 329.644Z" fill="#707070" fill-rule="evenodd"/><path d="M2862.49 329.644C2862.38 305.421 2862.45 281.199 2862 257.011 2861.87 249.85 2864.76 247.966 2871.48 248 2913.16 248.206 2954.84 248.206 2996.52 248 3003.24 248 3006.13 249.816 3006 257.011 3005.55 281.233 3005.65 305.456 3005.51 329.644 2983.78 331.973 2961.94 330.603 2940.17 330.569 2914.26 330.5 2888.32 332.008 2862.45 329.644Z" fill="#707070" fill-rule="evenodd"/><path d="M1378.48 1814.63C1378.38 1790.11 1378.45 1765.6 1378 1741.12 1377.87 1733.87 1380.74 1731.97 1387.41 1732 1428.8 1732.21 1470.2 1732.21 1511.59 1732 1518.26 1732 1521.13 1733.84 1521 1741.12 1520.55 1765.63 1520.65 1790.15 1520.52 1814.63 1498.93 1816.99 1477.24 1815.6 1455.62 1815.56 1429.9 1815.49 1404.14 1817.02 1378.45 1814.63Z" fill="#707070" fill-rule="evenodd"/><path d="M2120.49 1071.64C2120.38 1047.42 2120.45 1023.2 2120 999.011 2119.87 991.851 2122.76 989.966 2129.48 990 2171.16 990.206 2212.84 990.206 2254.52 990 2261.24 990 2264.13 991.816 2264 999.011 2263.55 1023.23 2263.65 1047.46 2263.51 1071.64 2241.78 1073.97 2219.94 1072.6 2198.17 1072.57 2172.26 1072.5 2146.32 1074.01 2120.45 1071.64Z" fill="#707070" fill-rule="evenodd"/><path d="M1830.49 947.634C1830.38 923.415 1830.45 899.195 1830 875.01 1829.87 867.85 1832.72 865.966 1839.46 866 1874.48 866.24 1909.52 866.24 1944.54 866 1951.28 865.966 1954.13 867.85 1954 875.01 1953.55 899.229 1953.65 923.415 1953.51 947.634 1925.62 949.998 1897.69 948.319 1869.76 948.559 1856.66 948.662 1843.52 949.929 1830.45 947.634Z" fill="#707070" fill-rule="evenodd"/><path d="M1825.69 494.517C1789.16 494.62 1752.59 494.62 1716.05 494.999 1708.92 495.068 1706.9 492.347 1707 485.563 1707.31 464.521 1707.31 443.479 1707 422.437 1706.9 415.653 1708.92 412.932 1716.05 413.001 1752.59 413.38 1789.16 413.345 1825.69 413.483 1827.44 440.517 1827.44 467.517 1825.69 494.551Z" fill="#707070" fill-rule="evenodd"/><path d="M1825.69 1979.52C1789.16 1979.62 1752.59 1979.62 1716.05 1980 1708.92 1980.07 1706.9 1977.35 1707 1970.56 1707.31 1949.52 1707.31 1928.48 1707 1907.44 1706.9 1900.65 1708.92 1897.93 1716.05 1898 1752.59 1898.38 1789.16 1898.35 1825.69 1898.48 1827.44 1925.52 1827.44 1952.52 1825.69 1979.55Z" fill="#707070" fill-rule="evenodd"/><path d="M2567.69 494.517C2531.15 494.62 2494.59 494.62 2458.05 494.999 2450.92 495.068 2448.9 492.347 2449 485.563 2449.31 464.521 2449.31 443.479 2449 422.437 2448.9 415.653 2450.92 412.932 2458.05 413.001 2494.59 413.38 2531.15 413.345 2567.69 413.483 2569.44 440.517 2569.44 467.517 2567.69 494.551Z" fill="#707070" fill-rule="evenodd"/><path d="M3310.68 494.517C3273.84 494.62 3236.97 494.62 3200.13 494.999 3192.94 495.068 3190.9 492.347 3191 485.563 3191.31 464.521 3191.31 443.479 3191 422.437 3190.9 415.653 3192.94 412.932 3200.13 413.001 3236.97 413.38 3273.84 413.345 3310.68 413.483 3312.44 440.517 3312.44 467.517 3310.68 494.551Z" fill="#707070" fill-rule="evenodd"/><path d="M3310.68 1237.52C3273.84 1237.62 3236.97 1237.62 3200.13 1238 3192.94 1238.07 3190.9 1235.35 3191 1228.56 3191.31 1207.52 3191.31 1186.48 3191 1165.44 3190.9 1158.65 3192.94 1155.93 3200.13 1156 3236.97 1156.38 3273.84 1156.35 3310.68 1156.48 3312.44 1183.52 3312.44 1210.52 3310.68 1237.55Z" fill="#707070" fill-rule="evenodd"/><path d="M2567.69 1237.52C2531.15 1237.62 2494.59 1237.62 2458.05 1238 2450.92 1238.07 2448.9 1235.35 2449 1228.56 2449.31 1207.52 2449.31 1186.48 2449 1165.44 2448.9 1158.65 2450.92 1155.93 2458.05 1156 2494.59 1156.38 2531.15 1156.35 2567.69 1156.48 2569.44 1183.52 2569.44 1210.52 2567.69 1237.55Z" fill="#707070" fill-rule="evenodd"/><path d="M2672.49 1813.69C2672.38 1789.45 2672.45 1765.25 2672 1741.02 2671.87 1733.85 2674.72 1731.93 2681.41 1732 2708.15 1732.28 2734.85 1732.28 2761.59 1732 2768.32 1731.93 2771.13 1733.89 2771 1741.02 2770.55 1765.22 2770.65 1789.45 2770.51 1813.69 2737.8 1815.44 2705.13 1815.44 2672.42 1813.69Z" fill="#707070" fill-rule="evenodd"/><path d="M1187.49 1071.69C1187.38 1047.45 1187.45 1023.25 1187 999.017 1186.87 991.853 1189.72 989.933 1196.41 990.002 1223.15 990.276 1249.85 990.276 1276.59 990.002 1283.32 989.933 1286.13 991.887 1286 999.017 1285.55 1023.22 1285.65 1047.45 1285.52 1071.69 1252.8 1073.44 1220.13 1073.44 1187.42 1071.69Z" fill="#707070" fill-rule="evenodd"/><path d="M1788.69 247.513C1764.46 247.617 1740.27 247.548 1716.05 247.995 1708.92 248.133 1706.94 245.309 1707 238.56 1707.31 217.52 1707.31 196.48 1707 175.44 1706.9 168.691 1708.89 165.867 1716.05 166.005 1740.24 166.453 1764.46 166.349 1788.69 166.487 1790.44 193.519 1790.44 220.516 1788.69 247.548Z" fill="#707070" fill-rule="evenodd"/><path d="M2225.55 1217.49C2236.16 1218.76 2252.85 1211.8 2261.06 1220.27 2268.62 1228.05 2262.91 1244.54 2263.28 1257.18 2263.59 1268.25 2263.08 1279.36 2263.42 1290.46 2263.63 1296.94 2261.09 1299.03 2254.8 1298.96 2233.49 1298.72 2212.14 1298.62 2190.83 1299 2183.47 1299.13 2181.93 1295.91 2182 1289.4 2182.28 1268.46 2182.31 1247.48 2182 1226.54 2181.9 1219.52 2184.43 1217.15 2191.27 1217.39 2201.91 1217.8 2212.59 1217.49 2225.55 1217.49Z" fill="#707070" fill-rule="evenodd"/><path d="M3273.67 247.513C3249.16 247.617 3224.68 247.548 3200.16 247.995 3192.95 248.133 3190.93 245.309 3191 238.56 3191.32 217.52 3191.32 196.48 3191 175.44 3190.9 168.691 3192.91 165.867 3200.16 166.005 3224.64 166.453 3249.16 166.349 3273.67 166.487 3275.44 193.519 3275.44 220.516 3273.67 247.548Z" fill="#707070" fill-rule="evenodd"/><path d="M2038.31 1403.49C2062.54 1403.38 2086.73 1403.45 2110.95 1403 2118.08 1402.87 2120.07 1405.69 2120 1412.44 2119.69 1433.48 2119.69 1454.52 2120 1475.56 2120.1 1482.31 2118.11 1485.13 2110.95 1485 2086.76 1484.55 2062.54 1484.65 2038.31 1484.51 2036.56 1457.48 2036.56 1430.48 2038.31 1403.45Z" fill="#707070" fill-rule="evenodd"/><path d="M1521.49 519.102C1520.21 529.832 1527.25 546.758 1518.68 555.03 1510.81 562.645 1494.12 556.9 1481.32 557.245 1470.12 557.557 1458.88 557.038 1447.64 557.384 1441.05 557.592 1438.97 554.961 1439.04 548.627 1439.28 527.063 1439.39 505.464 1439 483.901 1438.87 476.424 1442.16 474.901 1448.75 475.005 1469.94 475.282 1491.17 475.317 1512.37 475.005 1519.48 474.901 1521.87 477.497 1521.59 484.42 1521.18 495.184 1521.49 505.984 1521.49 519.102Z" fill="#707070" fill-rule="evenodd"/><path d="M3005.85 517.24C3005.85 527.576 3005.61 537.911 3005.96 548.212 3006.16 554.448 3004.13 557.1 2997.51 556.997 2975.63 556.721 2953.71 556.756 2931.82 556.963 2925.86 557.031 2923.97 554.516 2924 548.832 2924.17 526.955 2924.17 505.044 2924 483.168 2923.97 477.483 2925.83 474.969 2931.82 475.037 2953.71 475.244 2975.63 475.279 2997.51 475.003 3004.13 474.9 3006.16 477.553 3005.99 483.788 3005.68 494.916 3005.89 506.078 3005.89 517.24Z" fill="#707070" fill-rule="evenodd"/><path d="M1295.33 661.487C1319.84 661.384 1344.33 661.453 1368.84 661.005 1376.05 660.867 1378.07 663.691 1378 670.44 1377.68 691.48 1377.68 712.52 1378 733.56 1378.1 740.309 1376.09 743.133 1368.84 742.995 1344.36 742.548 1319.84 742.651 1295.33 742.513 1293.56 715.482 1293.56 688.484 1295.33 661.453Z" fill="#707070" fill-rule="evenodd"/><path d="M2780.31 661.487C2804.54 661.384 2828.73 661.453 2852.95 661.005 2860.08 660.867 2862.06 663.691 2862 670.44 2861.69 691.48 2861.69 712.52 2862 733.56 2862.1 740.309 2860.11 743.133 2852.95 742.995 2828.76 742.548 2804.54 742.651 2780.31 742.513 2778.56 715.482 2778.56 688.484 2780.31 661.453Z" fill="#707070" fill-rule="evenodd"/><path d="M2530.69 989.513C2506.46 989.617 2482.27 989.548 2458.05 989.995 2450.92 990.133 2448.94 987.31 2449 980.56 2449.31 959.52 2449.31 938.48 2449 917.44 2448.9 910.691 2450.89 907.867 2458.05 908.005 2482.24 908.452 2506.46 908.349 2530.69 908.487 2532.44 935.519 2532.44 962.516 2530.69 989.548Z" fill="#707070" fill-rule="evenodd"/><path d="M1707.48 1071.69C1707.38 1047.46 1707.45 1023.27 1707 999.049 1706.87 991.922 1709.67 989.901 1716.37 990.004 1734.79 990.312 1753.21 990.312 1771.63 990.004 1778.33 989.901 1781.13 991.888 1781 999.049 1780.55 1023.24 1780.65 1047.46 1780.52 1071.69 1756.15 1073.44 1731.82 1073.44 1707.45 1071.69Z" fill="#707070" fill-rule="evenodd"/><path d="M3191.49 1813.69C3191.39 1789.46 3191.46 1765.27 3191 1741.05 3190.87 1733.92 3193.71 1731.9 3200.5 1732 3219.17 1732.31 3237.83 1732.31 3256.5 1732 3263.29 1731.9 3266.13 1733.89 3266 1741.05 3265.58 1765.24 3265.65 1789.46 3265.51 1813.69 3240.81 1815.44 3216.15 1815.44 3191.46 1813.69Z" fill="#707070" fill-rule="evenodd"/><path d="M1664.42 1279C1664.35 1256.39 1663.91 1233.78 1664.42 1211.17 1664.66 1200.95 1660.93 1197.65 1650.87 1197.69 1601.23 1198 1551.63 1197.72 1502 1197.69 1504.5 1193.4 1508.64 1195.53 1511.93 1195.53 1559.95 1195.36 1607.98 1195.63 1655.97 1195.22 1664.56 1195.15 1667.16 1197.38 1666.89 1206.13 1666.24 1227.5 1666.75 1248.91 1666.58 1270.29 1666.58 1273.2 1668.43 1276.98 1664.39 1279Z" fill="#707070" fill-rule="evenodd"/><path d="M3149.41 2021C3149.34 1998.39 3148.89 1975.78 3149.41 1953.17 3149.65 1942.95 3145.89 1939.65 3135.77 1939.69 3085.83 1940 3035.93 1939.72 2986 1939.69 2988.51 1935.4 2992.68 1937.53 2995.99 1937.53 3044.3 1937.36 3092.62 1937.63 3140.9 1937.22 3149.54 1937.15 3152.16 1939.38 3151.89 1948.13 3151.23 1969.5 3151.75 1990.91 3151.58 2012.29 3151.58 2015.2 3153.43 2018.98 3149.37 2021Z" fill="#707070" fill-rule="evenodd"/><path d="M2120 1072C2167.66 1072 2215.34 1072 2263 1072 2261.79 1074.7 2259.01 1073.89 2256.77 1073.89 2213.24 1073.94 2169.76 1073.94 2126.23 1073.89 2123.99 1073.89 2121.17 1074.7 2120 1072Z" fill="#707070" fill-rule="evenodd"/><path d="M2863 1072C2910.32 1072 2957.68 1072 3005 1072 3003.8 1074.7 3001.03 1073.89 2998.81 1073.89 2955.59 1073.94 2912.41 1073.94 2869.19 1073.89 2866.97 1073.89 2864.16 1074.7 2863 1072Z" fill="#707070" fill-rule="evenodd"/><path d="M2863 329C2910.32 329 2957.68 329 3005 329 3003.8 333.047 3001.03 331.828 2998.81 331.828 2955.59 331.916 2912.41 331.916 2869.19 331.828 2866.97 331.828 2864.16 333.047 2863 329Z" fill="#707070" fill-rule="evenodd"/><path d="M1378 1814C1425.66 1814 1473.34 1814 1521 1814 1519.8 1818.05 1517.01 1816.83 1514.77 1816.83 1471.24 1816.92 1427.76 1816.92 1384.23 1816.83 1381.99 1816.83 1379.17 1818.05 1378 1814Z" fill="#707070" fill-rule="evenodd"/><path d="M2120 329C2167.66 329 2215.34 329 2263 329 2261.79 333.047 2259.01 331.828 2256.77 331.828 2213.24 331.916 2169.76 331.916 2126.23 331.828 2123.99 331.828 2121.17 333.047 2120 329Z" fill="#707070" fill-rule="evenodd"/><path d="M1378 329C1425.66 329 1473.34 329 1521 329 1519.8 333.047 1517.01 331.828 1514.77 331.828 1471.24 331.916 1427.76 331.916 1384.23 331.828 1381.99 331.828 1379.17 333.047 1378 329Z" fill="#707070" fill-rule="evenodd"/><path d="M1831 948C1871.99 948 1913.01 948 1954 948 1952.83 950.697 1950.01 949.885 1947.78 949.885 1910.91 949.943 1874.05 949.943 1837.22 949.885 1834.99 949.885 1832.17 950.669 1831 948Z" fill="#707070" fill-rule="evenodd"/><path d="M2573 206C2613.99 206 2655.01 206 2696 206 2694.83 208.698 2692.01 207.885 2689.78 207.885 2652.91 207.944 2616.05 207.944 2579.22 207.885 2576.99 207.885 2574.17 208.669 2573 206Z" fill="#707070" fill-rule="evenodd"/><path d="M1187 1072C1220.01 1072 1252.99 1072 1286 1072 1285.13 1072.69 1284.3 1073.93 1283.44 1073.93 1252.16 1074.02 1220.88 1074.02 1189.56 1073.93 1188.7 1073.93 1187.87 1072.65 1187 1072Z" fill="#707070" fill-rule="evenodd"/><path d="M2672 1814C2704.68 1814 2737.32 1814 2770 1814 2769.14 1814.69 2768.32 1815.93 2767.46 1815.93 2736.5 1816.02 2705.54 1816.02 2674.54 1815.93 2673.68 1815.93 2672.86 1814.65 2672 1814Z" fill="#707070" fill-rule="evenodd"/><path d="M3310 495C3310 467.989 3310 441.011 3310 414 3314.81 416.477 3312.38 420.607 3312.42 423.876 3312.69 444.28 3312.69 464.685 3312.42 485.125 3312.38 488.394 3314.81 492.523 3310 495Z" fill="#707070" fill-rule="evenodd"/><path d="M2531 990C2531 962.989 2531 936.011 2531 909 2535.81 911.477 2533.38 915.607 2533.42 918.876 2533.69 939.28 2533.69 959.685 2533.42 980.125 2533.38 983.393 2535.81 987.523 2531 990Z" fill="#707070" fill-rule="evenodd"/><path d="M2038 1404C2038 1431.01 2038 1457.99 2038 1485 2033.19 1482.52 2035.62 1478.39 2035.58 1475.12 2035.31 1454.72 2035.31 1434.31 2035.58 1413.88 2035.62 1410.61 2033.19 1406.48 2038 1404Z" fill="#707070" fill-rule="evenodd"/><path d="M2568 495C2568 467.989 2568 441.011 2568 414 2572.81 416.477 2570.39 420.607 2570.42 423.876 2570.69 444.28 2570.69 464.685 2570.42 485.125 2570.39 488.394 2572.81 492.523 2568 495Z" fill="#707070" fill-rule="evenodd"/><path d="M2222 1608C2222 1580.99 2222 1554.01 2222 1527 2225.21 1529.48 2223.59 1533.61 2223.62 1536.88 2223.8 1557.28 2223.8 1577.69 2223.62 1598.12 2223.59 1601.39 2225.21 1605.52 2222 1608Z" fill="#707070" fill-rule="evenodd"/><path d="M1826 495C1826 467.989 1826 441.011 1826 414 1829.21 416.477 1827.59 420.607 1827.62 423.876 1827.79 444.28 1827.79 464.685 1827.62 485.125 1827.59 488.394 1829.21 492.523 1826 495Z" fill="#707070" fill-rule="evenodd"/><path d="M2964 1608C2964 1580.99 2964 1554.01 2964 1527 2968.81 1529.48 2966.39 1533.61 2966.42 1536.88 2966.69 1557.28 2966.69 1577.69 2966.42 1598.12 2966.39 1601.39 2968.81 1605.52 2964 1608Z" fill="#707070" fill-rule="evenodd"/><path d="M1789 247.001C1789 219.989 1789 193.012 1789 166 1792.21 168.478 1790.59 172.607 1790.62 175.876 1790.79 196.281 1790.79 216.685 1790.62 237.125 1790.59 240.394 1792.21 244.523 1789 247.001Z" fill="#707070" fill-rule="evenodd"/><path d="M3273 247.001C3273 219.989 3273 193.012 3273 166 3277.81 168.478 3275.38 172.607 3275.42 175.876 3275.69 196.281 3275.69 216.685 3275.42 237.125 3275.38 240.394 3277.81 244.523 3273 247.001Z" fill="#707070" fill-rule="evenodd"/><path d="M2964 866C2964 838.989 2964 812.011 2964 785 2968.81 787.478 2966.39 791.607 2966.42 794.876 2966.69 815.28 2966.69 835.685 2966.42 856.125 2966.39 859.393 2968.81 863.522 2964 866Z" fill="#707070" fill-rule="evenodd"/><path d="M2222 866C2222 838.989 2222 812.011 2222 785 2225.21 787.478 2223.59 791.607 2223.62 794.876 2223.8 815.28 2223.8 835.685 2223.62 856.125 2223.59 859.393 2225.21 863.522 2222 866Z" fill="#707070" fill-rule="evenodd"/><path d="M1479 866C1479 838.989 1479 812.011 1479 785 1483.81 787.478 1481.38 791.607 1481.42 794.876 1481.69 815.28 1481.69 835.685 1481.42 856.125 1481.38 859.393 1483.81 863.522 1479 866Z" fill="#707070" fill-rule="evenodd"/><path d="M2780 661C2780 688.012 2780 714.989 2780 742 2776.79 739.523 2778.41 735.394 2778.38 732.125 2778.2 711.72 2778.2 691.315 2778.38 670.876 2778.41 667.607 2776.79 663.478 2780 661Z" fill="#707070" fill-rule="evenodd"/><path d="M1826 1979C1826 1951.99 1826 1925.01 1826 1898 1829.21 1900.48 1827.59 1904.61 1827.62 1907.88 1827.79 1928.28 1827.79 1948.69 1827.62 1969.12 1827.59 1972.39 1829.21 1976.52 1826 1979Z" fill="#707070" fill-rule="evenodd"/><path d="M2568 1237C2568 1209.99 2568 1183.01 2568 1156 2572.81 1158.48 2570.39 1162.61 2570.42 1165.88 2570.69 1186.28 2570.69 1206.69 2570.42 1227.12 2570.39 1230.39 2572.81 1234.52 2568 1237Z" fill="#707070" fill-rule="evenodd"/><path d="M1296 661C1296 688.012 1296 714.989 1296 742 1291.19 739.523 1293.62 735.394 1293.58 732.125 1293.31 711.72 1293.31 691.315 1293.58 670.876 1293.62 667.607 1291.19 663.478 1296 661Z" fill="#707070" fill-rule="evenodd"/><path d="M3310 1237C3310 1209.99 3310 1183.01 3310 1156 3314.81 1158.48 3312.38 1162.61 3312.42 1165.88 3312.69 1186.28 3312.69 1206.69 3312.42 1227.12 3312.38 1230.39 3314.81 1234.52 3310 1237Z" fill="#707070" fill-rule="evenodd"/><path d="M1707 1072C1731.68 1072 1756.32 1072 1781 1072 1767.67 1077.04 1753.83 1073.95 1740.3 1073.99 1729.26 1074.02 1717.76 1077.25 1707 1072Z" fill="#707070" fill-rule="evenodd"/><path d="M3192 1814C3216.34 1814 3240.66 1814 3265 1814 3251.85 1819.04 3238.2 1815.95 3224.85 1815.99 3213.95 1816.02 3202.62 1819.25 3192 1814Z" fill="#707070" fill-rule="evenodd"/></g></svg>