<svg width="2228" height="2227" xmlns="http://www.w3.org/2000/svg" xmlns:xlink="http://www.w3.org/1999/xlink" xml:space="preserve" overflow="hidden"><defs><clipPath id="clip0"><rect x="1086" y="124" width="2228" height="2227"/></clipPath></defs><g clip-path="url(#clip0)" transform="translate(-1086 -124)"><path d="M1086.17 205.547C1086.17 180.519 1086.38 155.492 1086 130.464 1085.93 125.199 1087.03 123.216 1092.36 124.276 1093.95 124.583 1095.66 124.31 1097.31 124.31 1832.41 124.31 2567.5 124.344 3302.59 124.105 3311.88 124.105 3314.28 126.156 3313.97 135.422 3313.22 158.774 3313.73 182.16 3313.73 205.547 3309.47 207.872 3304.83 206.71 3300.39 206.71 2566.78 206.778 1833.13 206.778 1099.52 206.71 1095.08 206.71 1090.44 207.838 1086.17 205.547Z" fill="#525252" fill-rule="evenodd"/><path d="M2799.11 2351C2799.11 2327.09 2799.31 2303.21 2799 2279.3 2798.93 2272.27 2800.48 2268.97 2808.46 2269 2859.83 2269.41 2911.24 2269.38 2962.65 2269.52 2964.3 2296.67 2964.65 2323.85 2962.48 2351L2799.11 2351Z" fill="#707070" fill-rule="evenodd"/><path d="M1086 206 3313 206 3313 208 1086 208 1086 206Z" fill="#525252" fill-rule="evenodd"/><path d="M2962 2351C2962.07 2324.01 2962.11 2297.02 2962.18 2270 2966.74 2272.95 2964.39 2277.43 2964.42 2281.13 2964.67 2304.42 2964.53 2327.71 2964.57 2351L2962 2351Z" fill="#707070" fill-rule="evenodd"/><path d="M1994.49 1566.73C1994.38 1542.55 1994.45 1518.41 1994 1494.23 1993.87 1487.12 1996.7 1485.1 2003.46 1485.2 2019.99 1485.55 2036.59 1484.49 2053.05 1485.58 2065.3 1486.4 2070.93 1482.91 2069 1470.36 2096.98 1468 2125.01 1469.68 2153.03 1469.44 2166.18 1469.34 2179.36 1468.07 2192.47 1470.36 2192.58 1494.13 2192.4 1517.9 2192.99 1541.63 2193.2 1549.94 2190.02 1551.95 2182.19 1551.89 2149.51 1551.54 2116.83 1552.33 2084.18 1551.44 2072 1551.1 2066.3 1554.14 2068.24 1566.69 2043.63 1568.44 2019.06 1568.44 1994.45 1566.69Z" fill="#707070" fill-rule="evenodd"/><path d="M1449.48 727.412C1449.58 751.409 1449.41 775.407 1449.99 799.37 1450.2 807.76 1447.04 809.797 1439.24 809.729 1406.73 809.383 1374.22 810.177 1341.75 809.279 1329.63 808.934 1323.96 812.007 1325.88 824.679 1301.41 826.44 1276.96 826.44 1252.49 824.679 1252.38 800.267 1252.45 775.89 1252 751.478 1251.87 744.296 1254.68 742.259 1261.41 742.363 1277.86 742.708 1294.37 741.638 1310.74 742.742 1322.93 743.571 1328.53 740.049 1326.61 727.377 1354.45 724.994 1382.32 726.686 1410.2 726.445 1423.28 726.341 1436.4 725.064 1449.44 727.377Z" fill="#707070" fill-rule="evenodd"/><path d="M2405.68 536.554C2354.23 536.657 2302.81 536.691 2251.36 537 2244.55 537.034 2241.9 534.942 2242 527.911 2242.42 503.698 2242.35 479.484 2242.48 455.271 2246.41 453.35 2250.57 454.276 2254.63 454.242 2301.47 454.173 2348.28 454.413 2395.12 454.002 2404.1 453.933 2407.44 455.923 2406.95 465.457 2405.72 489.122 2408.09 512.855 2405.68 536.554Z" fill="#707070" fill-rule="evenodd"/><path d="M1662.69 2021.55C1611.55 2021.66 1560.44 2021.69 1509.3 2022 1502.53 2022.03 1499.9 2019.94 1500 2012.88 1500.41 1988.68 1500.34 1964.47 1500.48 1940.27 1504.38 1938.35 1508.52 1939.28 1512.55 1939.24 1559.11 1939.17 1605.64 1939.41 1652.2 1939 1661.12 1938.93 1664.43 1940.92 1663.96 1950.45 1662.72 1974.11 1665.08 1997.83 1662.69 2021.52Z" fill="#707070" fill-rule="evenodd"/><path d="M2860.49 1814.63C2860.38 1790.11 2860.45 1765.6 2860 1741.12 2859.87 1733.87 2862.76 1731.97 2869.48 1732 2911.15 1732.21 2952.82 1732.21 2994.52 1732 3001.24 1732 3004.13 1733.84 3004 1741.12 3003.55 1765.63 3003.65 1790.11 3003.51 1814.63 2981.78 1816.99 2959.95 1815.6 2938.18 1815.56 2912.28 1815.49 2886.35 1817.02 2860.49 1814.63Z" fill="#707070" fill-rule="evenodd"/><path d="M3308.69 1979.52C3272.15 1979.62 3235.59 1979.62 3199.05 1980 3191.92 1980.07 3189.9 1977.35 3190 1970.56 3190.31 1949.52 3190.31 1928.48 3190 1907.44 3189.9 1900.65 3191.92 1897.93 3199.05 1898 3235.59 1898.38 3272.15 1898.35 3308.69 1898.48 3310.44 1925.52 3310.44 1952.52 3308.69 1979.55Z" fill="#707070" fill-rule="evenodd"/><path d="M1928.49 329.689C1928.38 305.454 1928.45 281.252 1928 257.017 1927.87 249.853 1930.72 247.933 1937.41 248.002 1964.15 248.276 1990.85 248.276 2017.59 248.002 2024.32 247.933 2027.13 249.887 2027 257.017 2026.55 281.218 2026.65 305.454 2026.52 329.689 1993.8 331.437 1961.13 331.437 1928.42 329.689Z" fill="#707070" fill-rule="evenodd"/><path d="M1185.49 1814.67C1185.38 1790.15 1185.45 1765.65 1185 1741.13 1184.87 1733.88 1187.72 1731.93 1194.41 1732 1221.15 1732.28 1247.85 1732.28 1274.59 1732 1281.32 1731.93 1284.13 1733.91 1284 1741.13 1283.55 1765.62 1283.65 1790.15 1283.51 1814.67 1250.8 1816.44 1218.13 1816.44 1185.42 1814.67Z" fill="#707070" fill-rule="evenodd"/><path d="M1598.52 455.311C1598.62 479.547 1598.55 503.748 1599 527.983 1599.13 535.148 1596.28 537.067 1589.59 536.998 1562.85 536.724 1536.15 536.724 1509.41 536.998 1502.68 537.067 1499.87 535.113 1500 527.983 1500.45 503.782 1500.35 479.547 1500.49 455.311 1533.2 453.563 1565.87 453.563 1598.58 455.311Z" fill="#707070" fill-rule="evenodd"/><path d="M2340.51 1197.33C2340.62 1221.85 2340.55 1246.35 2341 1270.87 2341.13 1278.13 2338.28 1280.07 2331.59 1280 2304.85 1279.72 2278.15 1279.72 2251.41 1280 2244.68 1280.07 2241.87 1278.09 2242 1270.87 2242.45 1246.38 2242.35 1221.85 2242.49 1197.33 2275.2 1195.56 2307.87 1195.56 2340.58 1197.33Z" fill="#707070" fill-rule="evenodd"/><path d="M2447.49 329.689C2447.39 305.454 2447.46 281.254 2447 257.053 2446.87 249.923 2449.71 247.901 2456.5 248.003 2475.17 248.312 2493.84 248.312 2512.5 248.003 2519.29 247.901 2522.13 249.889 2522 257.053 2521.58 281.254 2521.65 305.489 2521.51 329.689 2496.81 331.437 2472.15 331.437 2447.46 329.689Z" fill="#707070" fill-rule="evenodd"/><path d="M1705.48 1814.67C1705.38 1790.15 1705.45 1765.65 1705 1741.16 1704.87 1733.95 1707.67 1731.9 1714.37 1732 1732.79 1732.32 1751.21 1732.32 1769.63 1732 1776.33 1731.9 1779.13 1733.91 1779 1741.16 1778.59 1765.65 1778.65 1790.18 1778.52 1814.67 1754.15 1816.44 1729.82 1816.44 1705.45 1814.67Z" fill="#707070" fill-rule="evenodd"/><path d="M1705.45 329.776C1705.34 305.621 1705.38 281.431 1705 257.275 1704.9 250.413 1707.15 247.805 1714.12 248.011 1729.99 248.492 1745.89 248.354 1761.8 248.457 1764.15 273.71 1762.21 298.998 1762.85 324.252 1762.99 328.849 1761.18 331.011 1756.47 330.84 1739.48 330.188 1722.41 332.178 1705.45 329.776Z" fill="#707070" fill-rule="evenodd"/><path d="M2447.46 1071.78C2447.35 1047.62 2447.39 1023.43 2447 999.275 2446.9 992.413 2449.19 989.805 2456.27 990.011 2472.42 990.492 2488.6 990.354 2504.78 990.457 2507.17 1015.71 2505.19 1041 2505.85 1066.25 2505.99 1070.85 2504.15 1073.01 2499.36 1072.84 2482.07 1072.19 2464.71 1074.18 2447.46 1071.78Z" fill="#707070" fill-rule="evenodd"/><path d="M2405.41 537C2405.34 514.391 2404.89 491.781 2405.41 469.172 2405.65 458.948 2401.89 455.655 2391.77 455.689 2341.83 455.998 2291.93 455.723 2242 455.689 2244.51 451.4 2248.68 453.528 2251.99 453.528 2300.3 453.356 2348.62 453.63 2396.9 453.219 2405.54 453.15 2408.16 455.38 2407.89 464.129 2407.23 485.503 2407.75 506.912 2407.58 528.286 2407.58 531.202 2409.44 534.976 2405.37 537Z" fill="#707070" fill-rule="evenodd"/><path d="M1663.41 2022C1663.34 1999.12 1662.89 1976.24 1663.41 1953.36 1663.65 1943.02 1659.89 1939.69 1649.77 1939.72 1599.83 1940.03 1549.93 1939.76 1500 1939.72 1502.51 1935.38 1506.68 1937.53 1509.99 1937.53 1558.3 1937.36 1606.62 1937.64 1654.9 1937.22 1663.54 1937.15 1666.16 1939.41 1665.89 1948.26 1665.23 1969.89 1665.75 1991.55 1665.58 2013.18 1665.58 2016.13 1667.44 2019.95 1663.37 2022Z" fill="#707070" fill-rule="evenodd"/><path d="M2861 1814C2908.66 1814 2956.34 1814 3004 1814 3002.8 1818.05 3000.01 1816.83 2997.77 1816.83 2954.24 1816.92 2910.76 1816.92 2867.23 1816.83 2864.99 1816.83 2862.17 1818.05 2861 1814Z" fill="#707070" fill-rule="evenodd"/><path d="M2448 1072.28C2462.66 1072.21 2477.33 1071.8 2491.95 1072.21 2500.94 1072.45 2504.2 1068.95 2504.07 1059.96 2503.73 1036.97 2504.07 1013.99 2504.13 991 2509.07 996.215 2506.11 1002.63 2506.24 1008.36 2506.68 1027.68 2506.48 1046.99 2506.31 1066.34 2506.31 1069.23 2507.94 1074.3 2503.11 1074.2 2484.74 1073.79 2466.2 1077.25 2448 1072.31Z" fill="#707070" fill-rule="evenodd"/><path d="M1705 329.279C1719.91 329.21 1734.82 328.799 1749.7 329.21 1758.83 329.45 1762.15 325.951 1762.02 316.962 1761.67 293.974 1762.02 270.987 1762.09 248 1767.1 253.215 1764.09 259.631 1764.23 265.36 1764.68 284.677 1764.47 303.993 1764.3 323.343 1764.3 326.225 1765.96 331.303 1761.05 331.2 1742.36 330.788 1723.51 334.254 1705 329.313Z" fill="#707070" fill-rule="evenodd"/><path d="M2192 1470C2150.99 1470 2110.01 1470 2069 1470 2070.17 1467.3 2072.99 1468.11 2075.22 1468.11 2112.07 1468.06 2148.93 1468.06 2185.74 1468.11 2187.98 1468.11 2190.8 1467.33 2191.97 1470Z" fill="#707070" fill-rule="evenodd"/><path d="M1450 728C1408.99 728 1368.01 728 1327 728 1328.17 723.954 1330.99 725.172 1333.22 725.172 1370.07 725.085 1406.93 725.085 1443.74 725.172 1445.98 725.172 1448.8 723.997 1449.97 728Z" fill="#707070" fill-rule="evenodd"/><path d="M1598 455C1565.32 455 1532.68 455 1500 455 1500.86 454.314 1501.68 453.073 1502.54 453.073 1533.5 452.976 1564.5 452.976 1595.46 453.073 1596.32 453.073 1597.14 454.347 1598 455Z" fill="#707070" fill-rule="evenodd"/><path d="M1928 330C1960.68 330 1993.32 330 2026 330 2025.14 330.686 2024.32 331.927 2023.46 331.927 1992.5 332.024 1961.5 332.024 1930.54 331.927 1929.68 331.927 1928.86 330.653 1928 330Z" fill="#707070" fill-rule="evenodd"/><path d="M1186 1814C1218.68 1814 1251.32 1814 1284 1814 1283.14 1814.69 1282.32 1815.93 1281.46 1815.93 1250.5 1816.02 1219.5 1816.02 1188.54 1815.93 1187.68 1815.93 1186.86 1814.65 1186 1814Z" fill="#707070" fill-rule="evenodd"/><path d="M2341 1198C2307.99 1198 2275.01 1198 2242 1198 2242.87 1197.31 2243.7 1196.07 2244.56 1196.07 2275.84 1195.98 2307.16 1195.98 2338.44 1196.07 2339.3 1196.07 2340.13 1197.35 2341 1198Z" fill="#707070" fill-rule="evenodd"/><path d="M3309 1979C3309 1952.32 3309 1925.68 3309 1899 3312.21 1901.45 3310.59 1905.53 3310.62 1908.75 3310.8 1928.91 3310.8 1949.06 3310.62 1969.25 3310.59 1972.47 3312.21 1976.55 3309 1979Z" fill="#707070" fill-rule="evenodd"/><path d="M2448 330C2472.34 330 2496.66 330 2521 330 2507.85 335.042 2494.2 331.955 2480.85 331.989 2469.95 332.024 2458.62 335.247 2448 330Z" fill="#707070" fill-rule="evenodd"/><path d="M1705 1814C1729.68 1814 1754.32 1814 1779 1814 1765.67 1819.04 1751.83 1815.95 1738.3 1815.99 1727.26 1816.02 1715.76 1819.25 1705 1814Z" fill="#707070" fill-rule="evenodd"/><path d="M1253 824C1277.34 824 1301.66 824 1326 824 1312.85 829.042 1299.2 825.955 1285.85 825.989 1274.95 826.024 1263.62 829.247 1253 824Z" fill="#707070" fill-rule="evenodd"/><path d="M1995 1567C2019.34 1567 2043.66 1567 2068 1567 2054.85 1572.04 2041.2 1568.95 2027.85 1568.99 2016.95 1569.02 2005.62 1572.25 1995 1567Z" fill="#707070" fill-rule="evenodd"/></g></svg>