<svg width="4455" height="579" xmlns="http://www.w3.org/2000/svg" xmlns:xlink="http://www.w3.org/1999/xlink" xml:space="preserve" overflow="hidden"><defs><clipPath id="clip0"><rect x="0" y="951" width="4455" height="579"/></clipPath></defs><g clip-path="url(#clip0)" transform="matrix(1 0 0 1 0 -951)"><path d="M4454.97 953.477 4454.97 1032.55C4450.7 1034.85 4446.06 1033.72 4441.59 1033.72 2966.59 1033.79 1491.59 1033.79 16.5831 1033.72-0.640383 1033.72 1.25016 1035.61 1.18158 1018.75 1.11264 999.797 1.45661 980.843 1.00978 961.924 0.837615 954.507 2.93497 951.142 10.7386 952.206 13.5578 952.584 16.5141 952.275 19.4019 952.275 1492.34 952.275 2965.28 952.275 4438.22 952.344 4443.79 952.344 4449.57 951.039 4455 953.511Z" fill="#676767" fill-rule="evenodd"/><path d="M4454.97 954.091C2979.18 954.091 1503.39 954.091 27.6074 954.091-0.375345 954.125 2.89052 951.162 2.64979 979.222 2.54693 993.115 2.92481 1007.01 2.54693 1020.87 2.34049 1029.08 5.26241 1033.16 13.9942 1032.55 18.9102 1032.21 23.8947 1032.55 28.8449 1032.55 1504.22 1032.55 2979.59 1032.55 4454.97 1032.55L4454.97 1035 0.17468 1035C0.17468 1009.26 0.346833 983.513 0.00288727 957.769-0.0656854 952.524 1.03436 950.549 6.36246 951.605 7.94397 951.911 9.66261 951.639 11.3127 951.639 1488.82 951.639 2966.32 951.639 4443.86 951.775 4447.47 951.775 4452.25 948.949 4455 954.091Z" fill="#676767" fill-rule="evenodd"/><path d="M2227.71 1529.73C1984.82 1529.73 1741.93 1529.63 1499.04 1530 1487.56 1530 1484.57 1526.9 1485.05 1515.88 1485.94 1495.49 1485.53 1474.99 1485.19 1454.56 1485.08 1448.18 1486.97 1445.42 1493.54 1446.27 1495.98 1446.58 1498.49 1446.31 1500.96 1446.31 1986.33 1446.31 2471.66 1446.38 2957.03 1446 2970.09 1446 2973.63 1449.38 2972.91 1462 2971.81 1481.16 2972.26 1500.43 2972.81 1519.63 2973.05 1527.58 2970.75 1530.07 2962.56 1529.93 2935.37 1529.45 2908.15 1529.76 2880.93 1529.76 2663.2 1529.76 2445.47 1529.76 2227.74 1529.76Z" fill="#676767" fill-rule="evenodd"/><path d="M2228.67 1527.86C1988.25 1527.86 1747.8 1527.86 1507.38 1527.86 1493.93 1527.86 1487.2 1521.08 1487.2 1507.51 1487.2 1492.17 1487.68 1476.83 1487.03 1461.53 1486.58 1450.99 1490.92 1447.19 1500.82 1448.23 1503.67 1448.54 1506.59 1448.26 1509.48 1448.26 1988.7 1448.26 2467.92 1448.26 2947.11 1448.26 2950 1448.26 2952.92 1448.57 2955.77 1448.23 2966.64 1446.88 2970.38 1451.54 2969.97 1462.39 2969.28 1479.77 2969.32 1497.22 2969.97 1514.59 2970.35 1525.13 2966.08 1528.03 2956.18 1528 2899.29 1527.69 2842.35 1527.86 2785.45 1527.86 2599.87 1527.86 2414.29 1527.86 2228.71 1527.86Z" fill="#676767" fill-rule="evenodd"/></g></svg>