<svg width="1029" height="1279" xmlns="http://www.w3.org/2000/svg" xmlns:xlink="http://www.w3.org/1999/xlink" xml:space="preserve" overflow="hidden"><defs><clipPath id="clip0"><rect x="2988" y="599" width="1029" height="1279"/></clipPath></defs><g clip-path="url(#clip0)" transform="translate(-2988 -599)"><path d="M3320.4 1658.97C3315.56 1678.51 3317.57 1687.84 3320.67 1692.72 3327.75 1703.89 3328.86 1705.9 3331.09 1709.91 3331.8 1711.2 3332.36 1712.24 3332.76 1712.98 3336.96 1720.75 3337.33 1722.33 3346.24 1741 3360.55 1770.96 3361.19 1770.16 3365.16 1780.58 3370.65 1794.9 3369.15 1795.53 3376.32 1816.08 3382.95 1835.08 3386.41 1844.69 3392.66 1850.73 3394.27 1852.28 3410.15 1867.18 3428.36 1862.65 3440.32 1859.67 3446.98 1849.83 3451.74 1842.77 3454.63 1838.53 3456.72 1834.32 3465.09 1805.01 3469.92 1788.09 3472.36 1779.43 3473.82 1771.56 3474.6 1767.39 3475.03 1764.08 3475.29 1761.22 3476.38 1749.65 3477.06 1742.19 3477.34 1738.97 3477.96 1731.56 3480.6 1720.74 3489.81 1706.69 3467.48 1706.71 3436.72 1704.42 3401.66 1694.53 3366.73 1684.68 3339.4 1670.62 3320.4 1658.97ZM3672.05 1667.08C3682.35 1682.94 3693.03 1701.14 3703.39 1721.66 3713.61 1741.92 3721.84 1761.11 3728.49 1778.72 3754.87 1821.92 3802.41 1802.38 3800.33 1752.68 3803.68 1730.11 3806.56 1706.16 3808.71 1680.93 3810.65 1658.22 3811.87 1636.42 3812.5 1615.7 3812.34 1611.04 3811.83 1605.93 3810.76 1600.47 3807.03 1581.45 3798.24 1567.3 3791.47 1558.5 3751.66 1594.69 3711.86 1630.89 3672.05 1667.08Z" stroke="#000000" stroke-width="20.625" stroke-miterlimit="8" fill="#EBE2B3" fill-rule="evenodd"/><path d="M3044.36 1315.1C3040.42 1305.96 3035.3 1291.99 3032.33 1274.36 3029.17 1255.61 3031.38 1249.95 3029.24 1233.96 3025 1202.28 3013.41 1202.34 3008.88 1175.03 3003.54 1142.6 3015.16 1114.55 3018.85 1105.79 3027.19 1085.77 3032.13 1087.61 3042.31 1064.57 3051.78 1043.15 3054.8 1025.09 3057.73 1006.87 3062.81 975.258 3059.44 969.643 3062.79 940.205 3065.15 919.395 3068.14 892.874 3080.55 864.313 3088.63 845.697 3104.27 826.362 3135.53 787.661 3155.62 762.783 3170.36 746.456 3181.82 733.764 3216.79 695.115 3228.89 686.082 3233.87 682.475 3251.35 669.91 3267.08 658.573 3289.91 655.444 3301.39 653.87 3319.59 652.023 3338.94 648.667 3341.68 648.182 3347.89 647.192 3355.88 645.356 3359.3 644.547 3365.03 643.151 3371.86 641.054 3383.48 637.505 3392.05 633.933 3394.69 632.836 3432.81 617.153 3451.92 608.329 3470.94 609.625 3493.81 611.159 3510.7 621.482 3526.03 630.807 3535.75 636.735 3549.92 649.805 3577.91 675.656 3609.02 704.444 3616.41 712.321 3633.52 721.668 3650.64 731.014 3652.08 727.919 3664.38 736.175 3680.75 747.14 3688.22 759.327 3706.69 787.932 3741.99 842.619 3738.62 835.264 3742.37 842.557 3746.18 850.05 3748.88 857.584 3754.65 872.528 3761.94 891.436 3764.68 900.672 3774.24 928.091 3781.68 949.38 3785.29 960.077 3787.43 965.056 3801.91 998.813 3818.9 1020.55 3824.53 1028.33 3850.9 1064.7 3856.6 1111.88 3868.05 1206.25 3874.99 1263.48 3878.75 1294.57 3871.81 1337.32 3868.23 1359.37 3865.4 1362.31 3855.78 1412.93 3847.63 1455.74 3847.04 1467.41 3839.45 1497.48 3831.01 1530.92 3826.79 1547.65 3815.35 1567.27 3810.52 1575.59 3799.03 1593.65 3765.6 1621.74 3740.52 1642.8 3707.99 1670.33 3657.53 1689.35 3657.53 1689.35 3612.34 1706.39 3506.68 1712.07 3491.55 1712.88 3478.25 1712.3 3478.25 1712.3 3466.49 1711.78 3459.67 1710.72 3450.26 1709.79 3426.94 1707.47 3424.85 1709.64 3406.4 1708.11 3380.37 1705.95 3360.1 1699.63 3345.53 1694.99 3331.82 1690.63 3329.01 1688.76 3311.8 1682.27 3276.45 1668.94 3260.81 1668.25 3245.42 1661.06 3198.13 1638.98 3168.67 1605.81 3157.53 1591.89 3148.75 1580.9 3134.89 1554.7 3107.21 1502.28 3088.94 1467.69 3079.68 1450.15 3075.3 1438.15 3066.95 1415.26 3061.81 1392.76 3051.55 1347.76 3048.4 1333.97 3045.95 1322.61 3044.36 1315.1Z" stroke="#000000" stroke-width="20.625" stroke-miterlimit="8" fill="#EBE2B3" fill-rule="evenodd"/><path d="M3209 808.583 3217.91 782 3344 824.417 3335.09 851 3209 808.583Z" stroke="#000000" stroke-width="10.3129" stroke-miterlimit="8" fill="#595850" fill-rule="evenodd"/><path d="M3465 802.146 3574.79 726 3591 748.855 3481.21 825 3465 802.146Z" stroke="#000000" stroke-width="10.3129" stroke-miterlimit="8" fill="#595850" fill-rule="evenodd"/><path d="M3739 1868.5C3739 1873.75 3634.23 1878 3505 1878 3375.77 1878 3271 1873.75 3271 1868.5 3271 1863.25 3375.77 1859 3505 1859 3634.23 1859 3739 1863.25 3739 1868.5Z" fill="#5B5742" fill-rule="evenodd" fill-opacity="0.470588"/><path d="M3985.18 1301.62 3127.47 1614.52C3110.61 1620.67 3091.96 1612.01 3085.82 1595.2L3000.48 1361.97C2994.32 1345.13 3003 1326.51 3019.83 1320.37L3877.51 1007.48C3894.38 1001.33 3913.02 1009.99 3919.17 1026.81L4004.51 1260.03C4010.69 1276.83 4002.02 1295.48 3985.18 1301.62L3985.18 1301.62Z" stroke="#000000" stroke-width="20.625" stroke-miterlimit="8" fill="#A6A897" fill-rule="evenodd"/><path d="M3494 1020.7C3499.9 1056.54 3487.98 1088.34 3467.39 1091.73 3446.78 1095.12 3425.3 1068.81 3419.41 1032.98 3413.51 997.141 3425.43 965.341 3446.03 961.951 3466.62 958.56 3488.11 984.863 3494 1020.7Z" stroke="#000000" stroke-width="10.3114" stroke-miterlimit="8" fill="#E73A8F" fill-rule="evenodd"/><path d="M3274.5 1308.15 3247.02 1318.17C3242.85 1319.7 3238.24 1317.56 3236.69 1313.4L3231.36 1298.84C3229.84 1294.67 3231.98 1290.07 3236.14 1288.51L3263.62 1278.49C3267.79 1276.97 3272.4 1279.1 3273.95 1283.27L3279.27 1297.82C3280.8 1302.03 3278.67 1306.63 3274.5 1308.15ZM3404.99 1260.5 3377.52 1270.52C3373.34 1272.04 3368.74 1269.91 3367.18 1265.74L3361.86 1251.19C3360.34 1247.01 3362.47 1242.41 3366.64 1240.86L3394.12 1230.83C3398.29 1229.31 3402.89 1231.45 3404.45 1235.61L3409.77 1250.17C3411.29 1254.34 3409.17 1258.97 3404.99 1260.5ZM3098.12 1372.59 3070.65 1382.61C3066.47 1384.13 3061.87 1382 3060.31 1377.83L3054.99 1363.28C3053.47 1359.11 3055.6 1354.5 3059.77 1352.95L3087.25 1342.93C3091.42 1341.4 3096.02 1343.54 3097.58 1347.7L3102.9 1362.26C3104.46 1366.43 3102.3 1371.06 3098.12 1372.59ZM3156.28 1351.32 3128.81 1361.34C3124.63 1362.86 3120.03 1360.73 3118.47 1356.56L3113.15 1342.01C3111.63 1337.84 3113.76 1333.23 3117.93 1331.68L3145.41 1321.66C3149.58 1320.13 3154.18 1322.27 3155.74 1326.44L3161.06 1340.99C3162.61 1345.14 3160.5 1349.75 3156.36 1351.29 3156.33 1351.3 3156.31 1351.31 3156.28 1351.32ZM3633.39 1177.09 3605.91 1187.11C3601.74 1188.64 3597.14 1186.5 3595.58 1182.33L3590.26 1167.78C3588.74 1163.61 3590.87 1159.01 3595.04 1157.45L3622.51 1147.43C3626.69 1145.9 3631.29 1148.04 3632.85 1152.2L3638.17 1166.76C3639.73 1170.93 3637.56 1175.54 3633.39 1177.09ZM3216.1 1329.5 3188.62 1339.52C3184.45 1341.04 3179.84 1338.91 3178.29 1334.74L3172.97 1320.19C3171.44 1316.01 3173.58 1311.41 3177.74 1309.85L3205.22 1299.83C3209.39 1298.31 3214 1300.44 3215.55 1304.61L3220.88 1319.16C3222.44 1323.34 3220.27 1327.98 3216.1 1329.5ZM3463.65 1239.08 3436.18 1249.1C3432 1250.62 3427.4 1248.49 3425.84 1244.32L3420.52 1229.77C3419 1225.59 3421.13 1220.99 3425.3 1219.44L3452.78 1209.41C3456.95 1207.89 3461.55 1210.03 3463.11 1214.19L3468.43 1228.75C3469.96 1232.92 3467.83 1237.55 3463.65 1239.08ZM3519.81 1218.55 3492.34 1228.57C3488.16 1230.1 3483.56 1227.96 3482 1223.8L3476.68 1209.24C3475.16 1205.07 3477.29 1200.47 3481.46 1198.91L3508.94 1188.89C3513.11 1187.37 3517.71 1189.5 3519.27 1193.67L3524.59 1208.22C3526.12 1212.43 3523.99 1217.03 3519.81 1218.55ZM3576.64 1197.82 3549.16 1207.84C3544.99 1209.36 3540.38 1207.23 3538.83 1203.06L3533.5 1188.51C3531.98 1184.33 3534.12 1179.73 3538.28 1178.18L3565.76 1168.15C3569.93 1166.63 3574.54 1168.77 3576.09 1172.93L3581.41 1187.49C3582.97 1191.65 3580.81 1196.29 3576.64 1197.82ZM3339.73 1284.33 3312.25 1294.35C3308.08 1295.87 3303.47 1293.74 3301.92 1289.57L3296.6 1275.02C3295.07 1270.84 3297.21 1266.24 3301.37 1264.69L3328.85 1254.66C3333.02 1253.14 3337.63 1255.28 3339.18 1259.44L3344.51 1274C3346.05 1278.14 3343.94 1282.75 3339.8 1284.3 3339.78 1284.31 3339.75 1284.32 3339.73 1284.33ZM3698.1 1151.16 3670.63 1161.18C3666.45 1162.7 3661.85 1160.57 3660.29 1156.4L3654.97 1141.85C3653.45 1137.67 3655.58 1133.07 3659.75 1131.52L3687.23 1121.49C3691.4 1119.97 3696 1122.11 3697.56 1126.27L3702.88 1140.83C3704.44 1144.99 3702.28 1149.63 3698.1 1151.16ZM3140.75 1405.28 3084.81 1425.7C3080.64 1427.22 3076.04 1425.09 3074.48 1420.92L3069.16 1406.37C3067.63 1402.19 3069.77 1397.59 3073.94 1396.04L3129.87 1375.62C3134.04 1374.1 3138.65 1376.23 3140.2 1380.4L3145.52 1394.95C3147.07 1399.09 3144.96 1403.71 3140.82 1405.25 3140.8 1405.26 3140.77 1405.27 3140.75 1405.28ZM3187.98 1387.9 3173.42 1393.22C3169.25 1394.74 3164.65 1392.61 3163.09 1388.44L3157.77 1373.89C3156.25 1369.71 3158.38 1365.11 3162.55 1363.56L3177.1 1358.24C3181.28 1356.71 3185.88 1358.85 3187.44 1363.01L3192.76 1377.57C3194.29 1381.78 3192.15 1386.38 3187.98 1387.9ZM3230.51 1372.37 3215.95 1377.69C3211.78 1379.21 3207.17 1377.08 3205.62 1372.91L3200.3 1358.36C3198.77 1354.19 3200.91 1349.59 3205.07 1348.03L3219.63 1342.71C3223.8 1341.19 3228.41 1343.32 3229.96 1347.49L3235.29 1362.04C3236.84 1366.21 3234.68 1370.85 3230.51 1372.37ZM3275.83 1355.83 3261.27 1361.15C3257.09 1362.67 3252.49 1360.53 3250.93 1356.37L3245.61 1341.82C3244.09 1337.64 3246.22 1333.04 3250.39 1331.48L3264.95 1326.17C3269.12 1324.64 3273.73 1326.78 3275.28 1330.94L3280.6 1345.5C3282.16 1349.66 3280 1354.3 3275.83 1355.83ZM3318.38 1340.26 3303.82 1345.58C3299.65 1347.1 3295.05 1344.97 3293.49 1340.8L3288.17 1326.25C3286.64 1322.08 3288.78 1317.47 3292.94 1315.92L3307.5 1310.6C3311.68 1309.07 3316.28 1311.21 3317.84 1315.37L3323.16 1329.93C3324.69 1334.13 3322.55 1338.74 3318.38 1340.26L3318.38 1340.26ZM3369.72 1322.2 3355.16 1327.52C3350.99 1329.04 3346.39 1326.91 3344.83 1322.74L3339.51 1308.19C3337.98 1304.02 3340.12 1299.41 3344.29 1297.86L3358.84 1292.54C3363.02 1291.01 3367.62 1293.15 3369.18 1297.31L3374.5 1311.87C3376.06 1316.04 3373.89 1320.68 3369.72 1322.2ZM3412.24 1306.64 3397.68 1311.96C3393.51 1313.48 3388.91 1311.35 3387.35 1307.18L3382.03 1292.63C3380.5 1288.45 3382.64 1283.85 3386.8 1282.3L3401.36 1276.98C3405.54 1275.45 3410.14 1277.59 3411.7 1281.75L3417.02 1296.31C3418.56 1300.45 3416.46 1305.06 3412.32 1306.61 3412.29 1306.62 3412.26 1306.63 3412.24 1306.64ZM3457.59 1290.09 3443.03 1295.41C3438.86 1296.93 3434.26 1294.79 3432.7 1290.63L3427.38 1276.07C3425.86 1271.9 3427.99 1267.3 3432.16 1265.74L3446.72 1260.42C3450.89 1258.9 3455.49 1261.03 3457.05 1265.2L3462.37 1279.76C3463.9 1283.96 3461.77 1288.56 3457.59 1290.09ZM3497.57 1274.98 3483.01 1280.3C3478.84 1281.82 3474.24 1279.68 3472.68 1275.52L3467.36 1260.96C3465.84 1256.79 3467.97 1252.19 3472.14 1250.63L3486.69 1245.31C3490.87 1243.79 3495.47 1245.93 3497.03 1250.09L3502.35 1264.65C3503.88 1268.82 3501.74 1273.45 3497.57 1274.98ZM3543.74 1258.12 3529.19 1263.44C3525.01 1264.96 3520.41 1262.82 3518.85 1258.66L3513.53 1244.1C3512.01 1239.93 3514.14 1235.33 3518.31 1233.77L3532.87 1228.45C3537.04 1226.93 3541.64 1229.07 3543.2 1233.23L3548.52 1247.78C3550.05 1251.96 3547.92 1256.59 3543.74 1258.12ZM3586.27 1242.59 3571.71 1247.91C3567.54 1249.43 3562.93 1247.3 3561.38 1243.13L3556.05 1228.58C3554.53 1224.4 3556.67 1219.8 3560.83 1218.25L3575.39 1212.93C3579.56 1211.4 3584.17 1213.54 3585.72 1217.7L3591.05 1232.26C3592.61 1236.43 3590.44 1241.07 3586.27 1242.59ZM3631.58 1226.01 3617.02 1231.33C3612.85 1232.85 3608.25 1230.72 3606.69 1226.55L3601.37 1212C3599.85 1207.83 3601.98 1203.22 3606.15 1201.67L3620.71 1196.35C3624.88 1194.83 3629.48 1196.96 3631.04 1201.13L3636.36 1215.68C3637.91 1219.82 3635.8 1224.44 3631.66 1225.98 3631.63 1225.99 3631.61 1226 3631.58 1226.01ZM3674.14 1210.48 3659.58 1215.8C3655.41 1217.32 3650.81 1215.18 3649.25 1211.02L3643.93 1196.46C3642.41 1192.29 3644.54 1187.69 3648.71 1186.13L3663.27 1180.81C3667.44 1179.29 3672.04 1181.43 3673.6 1185.59L3678.92 1200.15C3680.45 1204.35 3678.32 1208.95 3674.14 1210.48ZM3713.46 1196.63 3698.9 1201.95C3694.73 1203.47 3690.12 1201.33 3688.57 1197.17L3683.25 1182.61C3681.72 1178.44 3683.86 1173.84 3688.02 1172.28L3702.58 1166.96C3706.76 1165.44 3711.36 1167.57 3712.92 1171.74L3718.24 1186.29C3719.78 1190.44 3717.68 1195.05 3713.53 1196.6 3713.51 1196.61 3713.48 1196.62 3713.46 1196.63ZM3263.53 1409.6 3248.97 1414.92C3244.8 1416.45 3240.2 1414.31 3238.64 1410.14L3233.32 1395.59C3231.79 1391.42 3233.93 1386.82 3238.09 1385.26L3252.65 1379.94C3256.83 1378.42 3261.43 1380.55 3262.99 1384.72L3268.31 1399.27C3269.83 1403.45 3267.7 1408.08 3263.53 1409.6ZM3311.25 1392.84 3296.69 1398.16C3292.52 1399.68 3287.92 1397.54 3286.36 1393.38L3281.04 1378.82C3279.51 1374.65 3281.65 1370.05 3285.82 1368.49L3300.37 1363.17C3304.55 1361.65 3309.15 1363.79 3310.71 1367.95L3316.03 1382.51C3317.55 1386.68 3315.42 1391.31 3311.25 1392.84ZM3355.48 1376.68 3340.92 1382C3336.75 1383.52 3332.15 1381.39 3330.59 1377.22L3325.27 1362.67C3323.75 1358.5 3325.88 1353.9 3330.05 1352.34L3344.6 1347.02C3348.78 1345.5 3353.38 1347.63 3354.94 1351.8L3360.26 1366.35C3361.82 1370.52 3359.66 1375.16 3355.48 1376.68ZM3399.75 1360.1 3385.19 1365.42C3381.02 1366.94 3376.42 1364.81 3374.86 1360.64L3369.54 1346.09C3368.01 1341.92 3370.15 1337.31 3374.32 1335.76L3388.87 1330.44C3393.05 1328.91 3397.65 1331.05 3399.21 1335.21L3404.53 1349.77C3406.06 1353.97 3403.92 1358.58 3399.75 1360.1ZM3446.12 1343.17 3431.56 1348.49C3427.39 1350.02 3422.79 1347.88 3421.23 1343.72L3415.91 1329.16C3414.38 1324.99 3416.52 1320.39 3420.69 1318.83L3435.24 1313.51C3439.42 1311.99 3444.02 1314.12 3445.58 1318.29L3450.9 1332.84C3452.46 1337.01 3450.29 1341.65 3446.12 1343.17ZM3491.44 1326.63 3476.88 1331.95C3472.71 1333.47 3468.11 1331.33 3466.55 1327.17L3461.23 1312.61C3459.71 1308.44 3461.84 1303.84 3466.01 1302.28L3480.57 1296.96C3484.74 1295.44 3489.34 1297.58 3490.9 1301.74L3496.22 1316.3C3497.78 1320.46 3495.62 1325.1 3491.44 1326.63ZM3528.57 1309.44 3514.01 1314.76C3509.84 1316.28 3505.24 1314.15 3503.68 1309.98L3498.36 1295.43C3496.84 1291.26 3498.97 1286.66 3503.14 1285.1L3517.69 1279.78C3521.87 1278.26 3526.47 1280.39 3528.03 1284.56L3533.35 1299.11C3534.9 1303.26 3532.79 1307.87 3528.65 1309.41 3528.62 1309.42 3528.6 1309.44 3528.57 1309.44ZM3574.75 1292.58 3560.19 1297.9C3556.01 1299.42 3551.41 1297.29 3549.85 1293.12L3544.53 1278.57C3543.01 1274.4 3545.14 1269.8 3549.31 1268.24L3563.87 1262.92C3568.04 1261.4 3572.64 1263.53 3574.2 1267.7L3579.52 1282.25C3581.07 1286.4 3578.96 1291.01 3574.82 1292.55 3574.8 1292.56 3574.77 1292.57 3574.75 1292.58ZM3617.3 1277.05 3602.74 1282.37C3598.57 1283.89 3593.97 1281.76 3592.41 1277.59L3587.09 1263.04C3585.57 1258.86 3587.7 1254.26 3591.87 1252.71L3606.43 1247.39C3610.6 1245.86 3615.2 1248 3616.76 1252.16L3622.08 1266.72C3623.61 1270.93 3621.48 1275.53 3617.3 1277.05ZM3662.62 1260.5 3648.07 1265.82C3643.89 1267.35 3639.29 1265.21 3637.73 1261.05L3632.41 1246.49C3630.89 1242.32 3633.02 1237.72 3637.19 1236.16L3651.75 1230.84C3655.92 1229.32 3660.52 1231.45 3662.08 1235.62L3667.4 1250.17C3668.92 1254.35 3666.8 1258.98 3662.62 1260.5ZM3176.02 1442.21 3100.89 1469.65C3096.72 1471.18 3092.12 1469.04 3090.56 1464.87L3085.24 1450.32C3083.72 1446.15 3085.85 1441.54 3090.02 1439.99L3165.14 1412.55C3169.32 1411.03 3173.92 1413.16 3175.48 1417.33L3180.8 1431.88C3182.35 1436.05 3180.19 1440.69 3176.02 1442.21ZM3258.18 1463.7 3243.63 1469.02C3239.45 1470.54 3234.85 1468.41 3233.29 1464.24L3227.97 1449.69C3226.45 1445.51 3228.58 1440.91 3232.75 1439.35L3247.31 1434.03C3251.48 1432.51 3256.08 1434.65 3257.64 1438.81L3262.96 1453.37C3264.49 1457.55 3262.36 1462.18 3258.18 1463.7ZM3217.36 1426.46 3202.8 1431.78C3198.62 1433.31 3194.02 1431.17 3192.46 1427.01L3187.14 1412.45C3185.62 1408.28 3187.75 1403.68 3191.92 1402.12L3206.48 1396.8C3210.65 1395.28 3215.26 1397.41 3216.81 1401.58L3222.13 1416.13C3223.69 1420.3 3221.53 1424.94 3217.36 1426.46ZM3723.63 1239.78 3687.64 1252.91C3683.47 1254.43 3678.86 1252.29 3677.31 1248.13L3671.98 1233.57C3670.46 1229.4 3672.6 1224.8 3676.76 1223.24L3712.75 1210.12C3716.92 1208.59 3721.53 1210.73 3723.08 1214.89L3728.41 1229.45C3729.94 1233.65 3727.8 1238.25 3723.63 1239.78L3723.63 1239.78ZM3211.95 1478.9 3116.94 1513.61C3112.77 1515.14 3108.17 1513 3106.61 1508.84L3101.29 1494.28C3099.77 1490.11 3101.9 1485.51 3106.07 1483.95L3201.07 1449.24C3205.25 1447.72 3209.85 1449.85 3211.41 1454.02L3216.73 1468.57C3218.25 1472.74 3216.12 1477.38 3211.95 1478.9ZM3303.37 1445.51 3288.81 1450.83C3284.64 1452.35 3280.04 1450.21 3278.48 1446.05L3273.16 1431.5C3271.64 1427.32 3273.77 1422.72 3277.94 1421.16L3292.49 1415.84C3296.67 1414.32 3301.27 1416.46 3302.83 1420.62L3308.15 1435.18C3309.71 1439.34 3307.54 1443.98 3303.37 1445.51ZM3353.21 1427.42 3338.65 1432.74C3334.48 1434.26 3329.87 1432.12 3328.32 1427.96L3323 1413.4C3321.47 1409.23 3323.61 1404.63 3327.77 1403.07L3342.33 1397.75C3346.51 1396.23 3351.11 1398.37 3352.67 1402.53L3357.99 1417.09C3359.53 1421.23 3357.43 1425.84 3353.29 1427.39 3353.26 1427.4 3353.23 1427.41 3353.21 1427.42ZM3397.44 1411.26 3382.88 1416.58C3378.71 1418.1 3374.11 1415.97 3372.55 1411.8L3367.23 1397.25C3365.71 1393.08 3367.84 1388.47 3372.01 1386.92L3386.56 1381.6C3390.74 1380.08 3395.34 1382.21 3396.9 1386.38L3402.22 1400.93C3403.77 1405.07 3401.66 1409.69 3397.52 1411.23 3397.49 1411.24 3397.46 1411.25 3397.44 1411.26ZM3441.71 1394.71 3427.16 1400.03C3422.98 1401.56 3418.38 1399.42 3416.82 1395.26L3411.5 1380.7C3409.98 1376.53 3412.11 1371.93 3416.28 1370.37L3430.84 1365.05C3435.01 1363.53 3439.61 1365.66 3441.17 1369.83L3446.49 1384.38C3448.02 1388.55 3445.89 1393.19 3441.71 1394.71ZM3488.08 1377.78 3473.52 1383.1C3469.35 1384.63 3464.75 1382.49 3463.19 1378.33L3457.87 1363.77C3456.35 1359.6 3458.48 1355 3462.65 1353.44L3477.21 1348.12C3481.38 1346.6 3485.98 1348.73 3487.54 1352.9L3492.86 1367.45C3494.42 1371.62 3492.25 1376.23 3488.08 1377.78ZM3533.43 1361.2 3518.87 1366.52C3514.7 1368.04 3510.1 1365.91 3508.54 1361.74L3503.22 1347.19C3501.7 1343.02 3503.83 1338.42 3508 1336.86L3522.56 1331.54C3526.73 1330.02 3531.33 1332.15 3532.89 1336.32L3538.21 1350.87C3539.74 1355.08 3537.61 1359.68 3533.43 1361.2ZM3570.53 1344.06 3555.98 1349.38C3551.8 1350.9 3547.2 1348.76 3545.64 1344.6L3540.32 1330.04C3538.8 1325.87 3540.93 1321.27 3545.1 1319.71L3559.66 1314.39C3563.83 1312.87 3568.43 1315.01 3569.99 1319.17L3575.31 1333.73C3576.86 1337.87 3574.75 1342.48 3570.61 1344.03 3570.59 1344.04 3570.56 1344.05 3570.53 1344.06ZM3616.71 1327.2 3602.15 1332.52C3597.98 1334.04 3593.37 1331.9 3591.82 1327.74L3586.49 1313.18C3584.97 1309.01 3587.11 1304.41 3591.27 1302.85L3605.83 1297.53C3610 1296.01 3614.61 1298.15 3616.16 1302.31L3621.49 1316.87C3623.04 1321.03 3620.88 1325.67 3616.71 1327.2ZM3659.27 1311.66 3644.71 1316.98C3640.53 1318.5 3635.93 1316.37 3634.37 1312.21L3629.05 1297.65C3627.53 1293.48 3629.66 1288.88 3633.83 1287.32L3648.39 1282C3652.56 1280.48 3657.16 1282.61 3658.72 1286.78L3664.04 1301.33C3665.57 1305.51 3663.44 1310.14 3659.27 1311.66ZM3742.64 1276.56 3686.45 1297.09C3682.27 1298.61 3677.67 1296.48 3676.11 1292.31L3670.79 1277.76C3669.27 1273.58 3671.4 1268.98 3675.57 1267.43L3731.76 1246.9C3735.94 1245.38 3740.54 1247.51 3742.1 1251.67L3747.42 1266.23C3748.95 1270.44 3746.81 1275.04 3742.64 1276.56ZM3142.24 1550.69 3127.68 1556.01C3123.51 1557.53 3118.91 1555.4 3117.35 1551.23L3112.03 1536.68C3110.51 1532.51 3112.64 1527.9 3116.81 1526.35L3131.36 1521.03C3135.54 1519.5 3140.14 1521.64 3141.7 1525.8L3147.02 1540.36C3148.58 1544.56 3146.45 1549.16 3142.24 1550.69ZM3184.8 1535.16 3170.24 1540.48C3166.07 1542 3161.46 1539.86 3159.91 1535.7L3154.59 1521.14C3153.06 1516.97 3155.2 1512.37 3159.36 1510.81L3173.92 1505.49C3178.09 1503.97 3182.7 1506.11 3184.26 1510.27L3189.58 1524.82C3191.11 1529.03 3188.98 1533.63 3184.8 1535.16ZM3230.12 1518.61 3215.56 1523.93C3211.39 1525.45 3206.79 1523.32 3205.23 1519.15L3199.91 1504.6C3198.38 1500.43 3200.52 1495.83 3204.68 1494.27L3219.24 1488.95C3223.42 1487.43 3228.02 1489.56 3229.58 1493.73L3234.9 1508.28C3236.45 1512.45 3234.29 1517.09 3230.12 1518.61ZM3272.68 1503.08 3258.12 1508.4C3253.95 1509.92 3249.34 1507.79 3247.79 1503.62L3242.46 1489.07C3240.94 1484.89 3243.08 1480.29 3247.24 1478.74L3261.8 1473.42C3265.97 1471.89 3270.58 1474.03 3272.13 1478.19L3277.46 1492.75C3278.98 1496.92 3276.85 1501.56 3272.68 1503.08ZM3324.01 1484.98 3309.46 1490.3C3305.28 1491.83 3300.68 1489.69 3299.12 1485.53L3293.8 1470.97C3292.28 1466.8 3294.41 1462.2 3298.58 1460.64L3313.14 1455.32C3317.31 1453.8 3321.91 1455.93 3323.47 1460.1L3328.79 1474.65C3330.32 1478.83 3328.19 1483.46 3324.01 1484.98ZM3498 1420.91 3352.98 1473.88C3348.81 1475.4 3344.21 1473.27 3342.65 1469.1L3337.33 1454.55C3335.8 1450.38 3337.94 1445.77 3342.11 1444.22L3487.13 1391.25C3491.3 1389.72 3495.9 1391.86 3497.46 1396.02L3502.78 1410.58C3504.33 1414.72 3502.22 1419.33 3498.08 1420.88 3498.06 1420.89 3498.03 1420.9 3498 1420.91ZM3540.56 1405.37 3526 1410.69C3521.83 1412.22 3517.23 1410.08 3515.67 1405.92L3510.35 1391.36C3508.83 1387.19 3510.96 1382.59 3515.13 1381.03L3529.69 1375.71C3533.86 1374.19 3538.46 1376.32 3540.02 1380.49L3545.34 1395.04C3546.87 1399.22 3544.74 1403.85 3540.56 1405.37ZM3585.88 1388.83 3571.32 1394.15C3567.15 1395.67 3562.55 1393.54 3560.99 1389.37L3555.67 1374.82C3554.15 1370.65 3556.28 1366.04 3560.45 1364.49L3575.01 1359.17C3579.18 1357.64 3583.78 1359.78 3585.34 1363.94L3590.66 1378.5C3592.22 1382.67 3590.06 1387.31 3585.88 1388.83ZM3628.44 1373.3 3613.88 1378.62C3609.71 1380.14 3605.11 1378 3603.55 1373.84L3598.23 1359.28C3596.7 1355.11 3598.84 1350.51 3603.01 1348.95L3617.56 1343.63C3621.74 1342.11 3626.34 1344.24 3627.9 1348.41L3633.22 1362.96C3634.74 1367.14 3632.61 1371.74 3628.44 1373.3ZM3667.76 1359.45 3653.2 1364.77C3649.02 1366.29 3644.42 1364.15 3642.86 1359.99L3637.54 1345.43C3636.02 1341.26 3638.15 1336.66 3642.32 1335.1L3656.88 1329.78C3661.05 1328.26 3665.66 1330.4 3667.21 1334.56L3672.53 1349.11C3674.09 1353.28 3671.93 1357.92 3667.76 1359.45ZM3713.22 1340.58 3698.66 1345.9C3694.49 1347.42 3689.88 1345.29 3688.33 1341.12L3683.01 1326.57C3681.48 1322.39 3683.62 1317.79 3687.78 1316.24L3702.34 1310.92C3706.51 1309.39 3711.12 1311.53 3712.68 1315.69L3718 1330.25C3719.54 1334.39 3717.44 1339 3713.29 1340.55 3713.27 1340.56 3713.24 1340.57 3713.22 1340.58ZM3758.57 1324.03 3744.01 1329.35C3739.84 1330.87 3735.24 1328.74 3733.68 1324.57L3728.36 1310.01C3726.83 1305.84 3728.97 1301.24 3733.14 1299.68L3747.69 1294.36C3751.87 1292.84 3756.47 1294.97 3758.03 1299.14L3763.35 1313.7C3764.88 1317.9 3762.74 1322.5 3758.57 1324.03ZM3785.95 1169.51 3771.4 1174.83C3767.22 1176.36 3762.62 1174.22 3761.06 1170.06L3755.74 1155.5C3754.22 1151.33 3756.35 1146.73 3760.52 1145.17L3775.08 1139.85C3779.25 1138.33 3783.85 1140.46 3785.41 1144.63L3790.73 1159.18C3792.29 1163.35 3790.12 1167.96 3785.95 1169.51ZM3873.14 1137.65 3858.58 1142.97C3854.4 1144.5 3849.8 1142.36 3848.24 1138.2L3842.92 1123.64C3841.4 1119.47 3843.53 1114.87 3847.7 1113.31L3862.26 1107.99C3866.43 1106.47 3871.03 1108.6 3872.59 1112.77L3877.91 1127.32C3879.47 1131.49 3877.31 1136.13 3873.14 1137.65ZM3828.81 1153.86 3814.25 1159.18C3810.08 1160.71 3805.47 1158.57 3803.92 1154.41L3798.59 1139.85C3797.07 1135.68 3799.21 1131.08 3803.37 1129.52L3817.93 1124.2C3822.1 1122.68 3826.71 1124.81 3828.26 1128.98L3833.59 1143.53C3835.11 1147.71 3832.98 1152.34 3828.81 1153.86ZM3801.29 1211.44 3786.73 1216.76C3782.55 1218.28 3777.95 1216.14 3776.39 1211.98L3771.07 1197.42C3769.55 1193.25 3771.68 1188.65 3775.85 1187.09L3790.41 1181.77C3794.58 1180.25 3799.19 1182.38 3800.74 1186.55L3806.06 1201.1C3807.59 1205.28 3805.46 1209.91 3801.29 1211.44ZM3843.63 1194.4 3829.07 1199.72C3824.9 1201.25 3820.3 1199.11 3818.74 1194.95L3813.42 1180.39C3811.89 1176.22 3814.03 1171.62 3818.2 1170.06L3832.75 1164.74C3836.93 1163.22 3841.53 1165.35 3843.09 1169.52L3848.41 1184.07C3849.93 1188.25 3847.81 1192.88 3843.63 1194.4ZM3887.96 1178.2 3873.4 1183.52C3869.23 1185.04 3864.63 1182.9 3863.07 1178.74L3857.75 1164.18C3856.23 1160.01 3858.36 1155.41 3862.53 1153.85L3877.08 1148.53C3881.26 1147.01 3885.86 1149.15 3887.42 1153.31L3892.74 1167.86C3894.29 1172.01 3892.18 1176.62 3888.04 1178.16 3888.01 1178.18 3887.99 1178.19 3887.96 1178.2ZM3816.66 1252.79 3802.1 1258.11C3797.93 1259.63 3793.33 1257.5 3791.77 1253.33L3786.45 1238.78C3784.93 1234.6 3787.06 1230 3791.23 1228.45L3805.79 1223.13C3809.96 1221.6 3814.56 1223.74 3816.12 1227.9L3821.44 1242.46C3822.97 1246.67 3820.84 1251.27 3816.66 1252.79ZM3857.84 1233.34 3843.29 1238.66C3839.11 1240.18 3834.51 1238.05 3832.95 1233.88L3827.63 1219.33C3826.11 1215.15 3828.24 1210.55 3832.41 1208.99L3846.97 1203.67C3851.14 1202.15 3855.74 1204.29 3857.3 1208.45L3862.62 1223.01C3864.17 1227.15 3862.06 1231.76 3857.92 1233.31 3857.89 1233.32 3857.87 1233.33 3857.84 1233.34ZM3904.06 1217.62 3889.5 1222.94C3885.33 1224.46 3880.73 1222.33 3879.17 1218.16L3873.85 1203.61C3872.33 1199.43 3874.46 1194.83 3878.63 1193.28L3893.19 1187.96C3897.36 1186.43 3901.96 1188.57 3903.52 1192.73L3908.84 1207.29C3910.4 1211.46 3908.24 1216.1 3904.06 1217.62ZM3882.57 1273.09 3816.38 1297.24C3812.21 1298.76 3807.61 1296.63 3806.05 1292.46L3800.73 1277.91C3799.21 1273.74 3801.34 1269.14 3805.51 1267.58L3871.69 1243.42C3875.87 1241.9 3880.47 1244.04 3882.03 1248.2L3887.35 1262.75C3888.9 1266.9 3886.79 1271.51 3882.65 1273.06 3882.62 1273.06 3882.6 1273.08 3882.57 1273.09L3882.57 1273.09ZM3919.22 1259.08 3904.66 1264.4C3900.48 1265.92 3895.88 1263.79 3894.32 1259.62L3889 1245.07C3887.48 1240.89 3889.61 1236.29 3893.78 1234.74L3908.34 1229.42C3912.51 1227.89 3917.12 1230.03 3918.67 1234.2L3923.99 1248.75C3925.55 1252.92 3923.39 1257.56 3919.22 1259.08Z" stroke="#000000" stroke-width="3.4375" stroke-miterlimit="8" fill="#D6DBD9" fill-rule="evenodd"/><path d="M3112.13 1226.19C3110.18 1235.63 3130.08 1249.49 3157.98 1268.89 3161.73 1271.49 3174.42 1280.13 3192.42 1288.98 3202.25 1293.81 3210.19 1296.97 3213.7 1298.36 3223.2 1302.03 3240.72 1309.09 3262.9 1312.08 3285.54 1315.09 3301.9 1317.29 3321.49 1310.74 3329.15 1308.18 3354.16 1299.85 3357.6 1282.18 3359.61 1271.97 3353.5 1262.91 3351.27 1259.58 3320.34 1213.52 3117.95 1197.8 3112.1 1226.23L3112.13 1226.19 3112.13 1226.19Z" fill="#5B5742" fill-rule="evenodd" fill-opacity="0.431373"/><path d="M3051.85 1001.63C3058.1 985.39 3063.1 982.486 3066.34 982.5 3074.01 982.534 3076.71 999.084 3094.46 1022.84 3100.49 1030.91 3105.59 1036.47 3109.9 1041.17 3138.35 1068.59 3184.7 1109.39 3217.08 1138.98 3272.47 1183.25 3287.61 1198.45 3331.01 1235.85 3334.12 1237.98 3343.46 1244.32 3348.61 1256.08 3375.79 1329.7 3202.74 1270.25 3185.21 1262.31 3150.2 1247.55 3149.56 1241.14 3091.34 1207.63 3032.51 1173.76 3024.97 1175.6 3017.79 1161.03 3016.82 1138.14 3018.28 1115.21 3022.12 1092.62 3027.52 1061 3037.54 1030.34 3051.85 1001.63L3051.85 1001.63Z" stroke="#000000" stroke-width="20.625" stroke-miterlimit="8" fill="#EBE2B3" fill-rule="evenodd"/><path d="M3626.33 1224.61C3635.88 1235.84 3674.49 1222.85 3690.69 1215.26 3703.98 1209.06 3716.82 1199.65 3721.74 1195.87 3724.99 1193.42 3731.78 1188.08 3739.65 1180.46 3752.72 1167.81 3758.06 1159.6 3771.47 1141.38 3789.49 1116.88 3802.73 1102.94 3813.49 1077.9 3815.81 1072.53 3818.97 1064.4 3815.37 1058.22 3810.78 1050.36 3797.83 1050.19 3793.2 1050.01 3747.93 1048.34 3604.03 1198.43 3626.33 1224.61L3626.33 1224.61Z" fill="#5B5742" fill-rule="evenodd" fill-opacity="0.431373"/><path d="M3768.67 888.13C3766 884.1 3756.06 869.706 3747.57 871.686 3741.61 873.078 3741.11 882.519 3735.63 893.898 3726.48 912.893 3722.95 925.562 3716.33 944.213 3713.83 951.243 3707.24 967.102 3694.11 998.559 3678.87 1035.14 3671.28 1053.43 3662.77 1073.15 3622.38 1167.07 3606.34 1192.25 3616.44 1202.58 3620.42 1206.66 3629.46 1209.46 3652.65 1200.98 3676.44 1191.07 3708.71 1174.27 3740.86 1145.89 3793.09 1099.74 3817.53 1047.19 3828.5 1018.1 3826.87 1007.15 3824.29 1000.12 3813.79 982.332 3800.99 960.649 3805.79 950.844 3789.07 918.803 3784.29 909.648 3779.71 902.686 3776.98 898.718 3774.21 895.188 3771.44 891.66 3768.67 888.13Z" stroke="#000000" stroke-width="20.625" stroke-miterlimit="8" fill="#EBE2B3" fill-rule="evenodd"/><path d="M3211.95 922.007 3219.8 905.703 3339.76 963.473 3331.91 979.777Z" stroke="#000000" stroke-width="20.6275" stroke-miterlimit="8" fill="#231815" fill-rule="evenodd"/><path d="M3233.18 997.879 3296.91 880.99 3312.8 889.653 3249.07 1006.54Z" stroke="#000000" stroke-width="20.625" stroke-miterlimit="8" fill="#231815" fill-rule="evenodd"/><path d="M3394.14 1157 3220.11 1116.49C3209.94 1114.13 3203.63 1103.99 3206 1093.85L3210.16 1076.07C3212.53 1065.93 3222.7 1059.63 3232.86 1062L3406.89 1102.51C3417.06 1104.87 3423.37 1115.01 3421 1125.15L3416.84 1142.93C3414.47 1153.07 3404.3 1159.37 3394.14 1157Z" stroke="#000000" stroke-width="3.4375" stroke-miterlimit="8" fill="#F0C785" fill-rule="evenodd"/><path d="M3325.21 1134.79 3277.38 1124.48C3272.34 1123.39 3269.13 1118.39 3270.21 1113.32L3275.71 1087.44C3276.79 1082.36 3281.75 1079.12 3286.79 1080.21L3334.62 1090.52C3339.66 1091.61 3342.87 1096.61 3341.79 1101.68L3336.29 1127.56C3335.22 1132.64 3330.26 1135.88 3325.21 1134.79Z" stroke="#000000" stroke-width="1.71893" stroke-miterlimit="8" fill="#EBAA7A" fill-rule="evenodd"/><path d="M3623 876C3623 913.555 3592.33 944 3554.5 944 3516.67 944 3486 913.555 3486 876 3486 838.445 3516.67 808 3554.5 808 3592.33 808 3623 838.445 3623 876Z" fill="#8B1C67" fill-rule="evenodd" fill-opacity="0.529412"/><path d="M3598.5 876.5C3598.5 899.696 3579.7 918.5 3556.5 918.5 3533.3 918.5 3514.5 899.696 3514.5 876.5 3514.5 853.304 3533.3 834.5 3556.5 834.5 3579.7 834.5 3598.5 853.304 3598.5 876.5Z" stroke="#000000" stroke-width="20.625" stroke-miterlimit="8" fill="#231815" fill-rule="evenodd"/><path d="M3577.94 885.875C3579.73 896.796 3572.34 907.106 3561.42 908.904 3550.49 910.701 3540.18 903.305 3538.39 892.384 3536.59 881.463 3543.99 871.153 3554.91 869.356 3565.83 867.558 3576.14 874.954 3577.94 885.875Z" fill="#FFFFFF" fill-rule="evenodd"/><path d="M3650.2 915.398C3651.34 922.365 3632.46 931.273 3608.01 935.297 3583.57 939.32 3562.82 936.934 3561.68 929.967 3560.53 923.001 3579.42 914.092 3603.86 910.069 3628.31 906.045 3649.05 908.431 3650.2 915.398Z" fill="#89D1F0" fill-rule="evenodd" fill-opacity="0.788235"/></g></svg>