<svg width="1029" height="1260" xmlns="http://www.w3.org/2000/svg" xmlns:xlink="http://www.w3.org/1999/xlink" xml:space="preserve" overflow="hidden"><defs><clipPath id="clip0"><rect x="1591" y="618" width="1029" height="1260"/></clipPath></defs><g clip-path="url(#clip0)" transform="translate(-1591 -618)"><path d="M1872.77 1651.11C1866.01 1662.96 1866.32 1671.65 1866.63 1674.83 1867.22 1680.73 1870.04 1690.11 1870.99 1692.75 1871.06 1692.95 1871.52 1694.26 1872.15 1696.06 1875.03 1704.42 1875.13 1706.03 1880.91 1725.91 1890.18 1757.83 1890.94 1757.15 1893.17 1768.08 1896.26 1783.12 1894.68 1783.49 1898.43 1804.96 1901.9 1824.8 1903.75 1834.85 1908.94 1841.83 1910.28 1843.62 1923.54 1860.92 1942.26 1859.41 1954.56 1858.41 1962.74 1849.78 1968.58 1843.58 1972.12 1839.87 1974.86 1836.05 1987.88 1808.47 1995.41 1792.54 1999.22 1784.39 2001.93 1776.86 2003.38 1772.87 2004.34 1769.67 2005.06 1766.88 2008.02 1755.63 2009.9 1748.38 2010.69 1745.25 2012.52 1738.02 2016.88 1727.77 2028.25 1715.39 2004.26 1710.57 1975.03 1702.6 1943.17 1689.04 1914.98 1677.04 1891.49 1663.53 1872.77 1651.11ZM2214.65 1705.93C2222.24 1723.27 2229.84 1742.98 2236.74 1764.92 2243.54 1786.59 2248.56 1806.88 2252.27 1825.35 2271.3 1872.3 2321.42 1860.75 2327.44 1811.32 2334.41 1789.58 2341.14 1766.4 2347.36 1741.84 2352.96 1719.72 2357.7 1698.4 2361.69 1678.04 2362.3 1673.45 2362.64 1668.31 2362.44 1662.72 2361.75 1643.66 2355.13 1628.7 2349.92 1619.5 2304.83 1648.31 2259.74 1677.12 2214.65 1705.93Z" stroke="#000000" stroke-width="20.625" stroke-miterlimit="8" fill="#EBE2B3" fill-rule="evenodd"/><path d="M1652.77 1256.94C1650.36 1247.27 1647.58 1232.66 1647.51 1214.78 1647.44 1195.76 1650.54 1190.53 1651.02 1174.4 1651.98 1142.45 1640.53 1140.63 1640.5 1112.95 1640.5 1080.07 1656.52 1054.28 1661.57 1046.23 1673.05 1027.83 1677.62 1030.45 1691.4 1009.36 1704.22 989.762 1710.13 972.43 1715.97 954.925 1726.11 924.559 1723.7 918.472 1731.78 889.962 1737.48 869.81 1744.74 844.121 1761.61 817.95 1772.61 800.892 1791.17 784.351 1828.28 751.233 1852.13 729.946 1869.32 716.224 1882.69 705.563 1923.44 673.099 1936.85 666.152 1942.35 663.401 1961.63 653.841 1978.98 645.209 2002.01 645.828 2013.59 646.137 2031.84 647.272 2051.46 647.1 2054.25 647.066 2060.53 647.1 2068.71 646.584 2072.22 646.344 2078.1 645.897 2085.18 644.934 2097.2 643.317 2106.24 641.185 2109.03 640.532 2149.17 631.246 2169.44 625.641 2188 630.008 2210.31 635.236 2225.29 648.166 2238.9 659.859 2247.53 667.287 2259.38 682.488 2282.79 712.544 2308.8 746.006 2314.82 754.982 2330.18 766.984 2345.54 778.986 2347.47 776.166 2358.26 786.311 2372.62 799.792 2378.02 813.032 2391.59 844.258 2417.54 903.959 2415.41 896.153 2417.92 903.959 2420.46 911.972 2421.91 919.847 2425.17 935.529 2429.29 955.372 2430.5 964.933 2435.48 993.545 2439.36 1015.76 2441.19 1026.9 2442.49 1032.17 2451.29 1067.83 2464.52 1092.04 2468.82 1100.64 2488.92 1140.8 2486.89 1188.3 2482.87 1283.28 2480.43 1340.88 2479.09 1372.18 2465.31 1413.24 2458.2 1434.42 2454.93 1436.87 2437.23 1485.25 2422.25 1526.18 2419.77 1537.59 2407.4 1566.04 2393.66 1597.67 2386.78 1613.49 2372.31 1631 2366.2 1638.43 2351.93 1654.38 2314.4 1676.67 2286.25 1693.39 2249.69 1715.27 2196.83 1725.85 2196.83 1725.85 2149.49 1735.32 2044.36 1723.77 2029.31 1722.11 2016.29 1719.37 2016.29 1719.37 2004.77 1716.95 1998.22 1714.8 1989.09 1712.35 1966.45 1706.28 1964.04 1708.07 1946.09 1703.57 1920.76 1697.22 1901.8 1687.68 1888.18 1680.74 1884.75 1679 1882.02 1677.54 1879.62 1676.17 1870.11 1670.74 1863.66 1665.84 1862.44 1664.93 1848.85 1654.85 1805.26 1635.92 1794.95 1631 1755.78 1612.31 1734.55 1575.38 1719.48 1548.46 1712.61 1536.18 1703.19 1508.09 1684.39 1451.86 1671.98 1414.75 1665.69 1395.94 1663.32 1383.39 1658.8 1359.44 1657.38 1336.41 1654.56 1290.33 1653.69 1276.21 1653.12 1264.6 1652.77 1256.94Z" stroke="#000000" stroke-width="20.625" stroke-miterlimit="8" fill="#EBE2B3" fill-rule="evenodd"/><path d="M1897 783.743 1910.14 759 2028 821.258 2014.86 846 1897 783.743Z" stroke="#000000" stroke-width="10.3129" stroke-miterlimit="8" fill="#595850" fill-rule="evenodd"/><path d="M2151 819.744 2270.86 762 2283 787.256 2163.14 845 2151 819.744Z" stroke="#000000" stroke-width="10.3129" stroke-miterlimit="8" fill="#595850" fill-rule="evenodd"/><path d="M2353 1868.5C2353 1873.75 2248.23 1878 2119 1878 1989.77 1878 1885 1873.75 1885 1868.5 1885 1863.25 1989.77 1859 2119 1859 2248.23 1859 2353 1863.25 2353 1868.5Z" fill="#5B5742" fill-rule="evenodd" fill-opacity="0.470588"/><path d="M2583.1 1396.08 1686.29 1565.93C1668.65 1569.26 1651.67 1557.68 1648.34 1540.08L1602.07 1295.87C1598.74 1278.24 1610.32 1261.26 1627.92 1257.92L2524.7 1088.07C2542.34 1084.74 2559.32 1096.32 2562.65 1113.92L2608.92 1358.13C2612.29 1375.73 2600.7 1392.74 2583.1 1396.08L2583.1 1396.08Z" stroke="#000000" stroke-width="20.625" stroke-miterlimit="8" fill="#A6A897" fill-rule="evenodd"/><path d="M1996.5 907.5C1996.5 930.696 1977.92 949.5 1955 949.5 1932.08 949.5 1913.5 930.696 1913.5 907.5 1913.5 884.304 1932.08 865.5 1955 865.5 1977.92 865.5 1996.5 884.304 1996.5 907.5Z" stroke="#000000" stroke-width="20.625" stroke-miterlimit="8" fill="#231815" fill-rule="evenodd"/><path d="M2270.5 907.5C2270.5 930.696 2251.92 949.5 2229 949.5 2206.08 949.5 2187.5 930.696 2187.5 907.5 2187.5 884.304 2206.08 865.5 2229 865.5 2251.92 865.5 2270.5 884.304 2270.5 907.5Z" stroke="#000000" stroke-width="20.625" stroke-miterlimit="8" fill="#231815" fill-rule="evenodd"/><path d="M1979 920.5C1979 931.822 1970.05 941 1959 941 1947.95 941 1939 931.822 1939 920.5 1939 909.178 1947.95 900 1959 900 1970.05 900 1979 909.178 1979 920.5Z" fill="#FFFFFF" fill-rule="evenodd"/><path d="M2249 920.5C2249 931.822 2239.82 941 2228.5 941 2217.18 941 2208 931.822 2208 920.5 2208 909.178 2217.18 900 2228.5 900 2239.82 900 2249 909.178 2249 920.5Z" fill="#FFFFFF" fill-rule="evenodd"/><path d="M2144 1040C2144 1076.45 2123.41 1106 2098 1106 2072.59 1106 2052 1076.45 2052 1040 2052 1003.55 2072.59 974 2098 974 2123.41 974 2144 1003.55 2144 1040Z" stroke="#000000" stroke-width="10.3125" stroke-miterlimit="8" fill="#E73A8F" fill-rule="evenodd"/><path d="M1880.35 1287.76 1851.59 1293.19C1847.22 1294.01 1843.02 1291.16 1842.16 1286.8L1839.27 1271.58C1838.45 1267.22 1841.3 1263.03 1845.67 1262.17L1874.43 1256.75C1878.8 1255.92 1883 1258.77 1883.86 1263.13L1886.74 1278.35C1887.57 1282.74 1884.72 1286.93 1880.35 1287.76ZM2016.95 1261.93 1988.19 1267.36C1983.82 1268.18 1979.63 1265.33 1978.77 1260.97L1975.88 1245.75C1975.05 1241.39 1977.91 1237.2 1982.28 1236.34L2011.04 1230.92C2015.4 1230.09 2019.6 1232.94 2020.46 1237.31L2023.35 1252.52C2024.18 1256.88 2021.32 1261.11 2016.95 1261.93ZM1695.72 1322.69 1666.96 1328.11C1662.59 1328.94 1658.39 1326.09 1657.53 1321.73L1654.64 1306.51C1653.82 1302.15 1656.67 1297.96 1661.04 1297.1L1689.8 1291.67C1694.17 1290.85 1698.37 1293.7 1699.23 1298.06L1702.12 1313.28C1702.98 1317.64 1700.09 1321.86 1695.72 1322.69ZM1756.61 1311.15 1727.85 1316.57C1723.48 1317.4 1719.28 1314.55 1718.42 1310.19L1715.53 1294.97C1714.71 1290.61 1717.56 1286.42 1721.93 1285.56L1750.69 1280.13C1755.06 1279.31 1759.26 1282.16 1760.12 1286.52L1763 1301.74C1763.86 1306.08 1761.03 1310.28 1756.69 1311.13 1756.66 1311.14 1756.63 1311.14 1756.61 1311.15ZM2256.04 1216.73 2227.28 1222.16C2222.91 1222.98 2218.71 1220.13 2217.85 1215.77L2214.96 1200.56C2214.14 1196.19 2216.99 1192 2221.36 1191.15L2250.12 1185.72C2254.49 1184.9 2258.69 1187.75 2259.55 1192.11L2262.44 1207.32C2263.3 1211.68 2260.41 1215.87 2256.04 1216.73ZM1819.22 1299.33 1790.46 1304.76C1786.09 1305.58 1781.89 1302.73 1781.03 1298.37L1778.14 1283.16C1777.32 1278.79 1780.17 1274.6 1784.54 1273.75L1813.3 1268.32C1817.67 1267.5 1821.86 1270.35 1822.72 1274.71L1825.61 1289.92C1826.47 1294.28 1823.58 1298.51 1819.22 1299.33ZM2078.36 1250.32 2049.6 1255.75C2045.23 1256.57 2041.03 1253.72 2040.17 1249.36L2037.28 1234.15C2036.46 1229.78 2039.31 1225.59 2043.68 1224.74L2072.44 1219.31C2076.81 1218.48 2081.01 1221.34 2081.87 1225.7L2084.76 1240.91C2085.58 1245.27 2082.73 1249.5 2078.36 1250.32ZM2137.15 1239.2 2108.39 1244.62C2104.02 1245.45 2099.82 1242.59 2098.96 1238.23L2096.07 1223.02C2095.25 1218.66 2098.1 1214.47 2102.47 1213.61L2131.23 1208.18C2135.6 1207.36 2139.8 1210.21 2140.66 1214.57L2143.55 1229.78C2144.37 1234.18 2141.52 1238.37 2137.15 1239.2ZM2196.63 1227.96 2167.87 1233.39C2163.5 1234.21 2159.3 1231.36 2158.44 1227L2155.55 1211.79C2154.73 1207.43 2157.58 1203.24 2161.95 1202.38L2190.71 1196.95C2195.08 1196.13 2199.28 1198.98 2200.14 1203.34L2203.03 1218.55C2203.89 1222.92 2201 1227.14 2196.63 1227.96ZM1948.63 1274.85 1919.87 1280.27C1915.5 1281.1 1911.31 1278.25 1910.45 1273.88L1907.56 1258.67C1906.73 1254.31 1909.59 1250.12 1913.96 1249.26L1942.72 1243.83C1947.08 1243.01 1951.28 1245.86 1952.14 1250.22L1955.03 1265.43C1955.88 1269.77 1953.06 1273.98 1948.71 1274.83 1948.68 1274.84 1948.66 1274.84 1948.63 1274.85ZM2324.15 1201.66 2295.39 1207.08C2291.02 1207.91 2286.83 1205.06 2285.97 1200.69L2283.08 1185.48C2282.25 1181.12 2285.11 1176.93 2289.48 1176.07L2318.24 1170.64C2322.6 1169.82 2326.8 1172.67 2327.66 1177.03L2330.55 1192.24C2331.41 1196.61 2328.52 1200.83 2324.15 1201.66ZM1732.49 1361.84 1673.94 1372.9C1669.57 1373.73 1665.38 1370.87 1664.52 1366.51L1661.63 1351.3C1660.8 1346.94 1663.66 1342.75 1668.02 1341.89L1726.57 1330.83C1730.94 1330 1735.14 1332.85 1736 1337.22L1738.89 1352.43C1739.74 1356.77 1736.92 1360.97 1732.57 1361.83 1732.54 1361.83 1732.52 1361.84 1732.49 1361.84ZM1781.96 1352.36 1766.72 1355.25C1762.35 1356.07 1758.15 1353.22 1757.29 1348.86L1754.4 1333.64C1753.58 1329.28 1756.43 1325.09 1760.8 1324.23L1776.04 1321.35C1780.41 1320.52 1784.61 1323.38 1785.47 1327.74L1788.36 1342.95C1789.18 1347.35 1786.33 1351.54 1781.96 1352.36ZM1826.47 1343.95 1811.23 1346.83C1806.87 1347.66 1802.67 1344.81 1801.81 1340.44L1798.92 1325.23C1798.09 1320.87 1800.95 1316.68 1805.32 1315.82L1820.56 1312.93C1824.93 1312.11 1829.12 1314.96 1829.98 1319.32L1832.87 1334.54C1833.73 1338.9 1830.84 1343.12 1826.47 1343.95ZM1873.91 1334.98 1858.67 1337.87C1854.3 1338.69 1850.11 1335.84 1849.25 1331.48L1846.36 1316.27C1845.53 1311.9 1848.39 1307.71 1852.76 1306.85L1868 1303.97C1872.37 1303.15 1876.56 1306 1877.42 1310.36L1880.31 1325.57C1881.17 1329.93 1878.28 1334.16 1873.91 1334.98ZM1918.46 1326.53 1903.22 1329.42C1898.85 1330.24 1894.66 1327.39 1893.8 1323.03L1890.91 1307.82C1890.08 1303.45 1892.94 1299.26 1897.31 1298.41L1912.55 1295.52C1916.91 1294.7 1921.11 1297.55 1921.97 1301.91L1924.86 1317.12C1925.69 1321.52 1922.83 1325.71 1918.46 1326.53L1918.46 1326.53ZM1972.09 1317.06 1956.85 1319.94C1952.48 1320.76 1948.29 1317.91 1947.43 1313.55L1944.54 1298.34C1943.71 1293.98 1946.57 1289.79 1950.94 1288.93L1966.18 1286.04C1970.55 1285.22 1974.74 1288.07 1975.6 1292.43L1978.49 1307.64C1979.35 1312.01 1976.46 1316.23 1972.09 1317.06ZM2016.61 1308.61 2001.37 1311.49C1997 1312.32 1992.8 1309.47 1991.94 1305.1L1989.05 1289.89C1988.23 1285.53 1991.08 1281.34 1995.45 1280.48L2010.69 1277.59C2015.06 1276.77 2019.26 1279.62 2020.12 1283.98L2023.01 1299.2C2023.86 1303.53 2021.03 1307.74 2016.69 1308.59 2016.66 1308.6 2016.64 1308.6 2016.61 1308.61ZM2064.08 1299.64 2048.84 1302.53C2044.47 1303.35 2040.28 1300.5 2039.42 1296.14L2036.53 1280.92C2035.7 1276.56 2038.56 1272.37 2042.92 1271.51L2058.16 1268.63C2062.53 1267.8 2066.73 1270.65 2067.59 1275.02L2070.48 1290.23C2071.31 1294.63 2068.45 1298.82 2064.08 1299.64ZM2106.02 1291.23 2090.78 1294.11C2086.41 1294.94 2082.21 1292.09 2081.35 1287.72L2078.46 1272.51C2077.64 1268.15 2080.49 1263.96 2084.86 1263.1L2100.1 1260.21C2104.47 1259.39 2108.66 1262.24 2109.52 1266.6L2112.41 1281.82C2113.24 1286.18 2110.38 1290.4 2106.02 1291.23ZM2154.35 1282.09 2139.11 1284.98C2134.74 1285.8 2130.54 1282.95 2129.68 1278.59L2126.79 1263.37C2125.97 1259.01 2128.82 1254.82 2133.19 1253.96L2148.43 1251.08C2152.8 1250.25 2157 1253.1 2157.86 1257.47L2160.75 1272.68C2161.57 1277.04 2158.72 1281.27 2154.35 1282.09ZM2198.86 1273.68 2183.62 1276.56C2179.26 1277.39 2175.06 1274.54 2174.2 1270.17L2171.31 1254.96C2170.48 1250.6 2173.34 1246.41 2177.71 1245.55L2192.95 1242.66C2197.32 1241.84 2201.51 1244.69 2202.37 1249.05L2205.26 1264.27C2206.12 1268.63 2203.23 1272.85 2198.86 1273.68ZM2246.3 1264.68 2231.06 1267.56C2226.69 1268.39 2222.5 1265.54 2221.64 1261.18L2218.75 1245.96C2217.92 1241.6 2220.78 1237.41 2225.15 1236.55L2240.39 1233.67C2244.75 1232.84 2248.95 1235.69 2249.81 1240.05L2252.7 1255.27C2253.55 1259.61 2250.73 1263.81 2246.38 1264.67 2246.35 1264.67 2246.33 1264.68 2246.3 1264.68ZM2290.85 1256.26 2275.61 1259.15C2271.24 1259.97 2267.05 1257.12 2266.19 1252.76L2263.3 1237.55C2262.47 1233.18 2265.33 1228.99 2269.7 1228.14L2284.94 1225.25C2289.3 1224.43 2293.5 1227.28 2294.36 1231.64L2297.25 1246.85C2298.08 1251.25 2295.22 1255.44 2290.85 1256.26ZM2331.93 1248.98 2316.69 1251.87C2312.32 1252.69 2308.12 1249.84 2307.26 1245.48L2304.37 1230.26C2303.55 1225.9 2306.4 1221.71 2310.77 1220.85L2326.01 1217.97C2330.38 1217.15 2334.58 1220 2335.44 1224.36L2338.33 1239.57C2339.18 1243.91 2336.35 1248.11 2332.01 1248.97 2331.98 1248.97 2331.95 1248.98 2331.93 1248.98ZM1853.03 1386.02 1837.79 1388.91C1833.42 1389.73 1829.23 1386.88 1828.37 1382.52L1825.48 1367.3C1824.65 1362.94 1827.51 1358.75 1831.88 1357.89L1847.11 1355.01C1851.48 1354.18 1855.68 1357.03 1856.54 1361.4L1859.43 1376.61C1860.26 1380.97 1857.4 1385.2 1853.03 1386.02ZM1902.88 1377.23 1887.64 1380.11C1883.27 1380.94 1879.07 1378.09 1878.21 1373.73L1875.32 1358.51C1874.5 1354.15 1877.35 1349.96 1881.72 1349.1L1896.96 1346.21C1901.33 1345.39 1905.53 1348.24 1906.39 1352.6L1909.28 1367.82C1910.1 1372.18 1907.25 1376.4 1902.88 1377.23ZM1949.18 1368.47 1933.94 1371.35C1929.57 1372.18 1925.38 1369.33 1924.52 1364.97L1921.63 1349.75C1920.8 1345.39 1923.66 1341.2 1928.03 1340.34L1943.27 1337.46C1947.63 1336.63 1951.83 1339.48 1952.69 1343.84L1955.58 1359.06C1956.44 1363.42 1953.55 1367.65 1949.18 1368.47ZM1995.59 1359.3 1980.35 1362.19C1975.98 1363.01 1971.78 1360.16 1970.92 1355.8L1968.03 1340.58C1967.21 1336.22 1970.06 1332.03 1974.43 1331.17L1989.67 1328.29C1994.04 1327.46 1998.24 1330.31 1999.1 1334.67L2001.99 1349.89C2002.81 1354.29 1999.96 1358.48 1995.59 1359.3ZM2044.13 1350.13 2028.89 1353.01C2024.52 1353.84 2020.32 1350.99 2019.46 1346.63L2016.57 1331.41C2015.75 1327.05 2018.6 1322.86 2022.97 1322L2038.21 1319.12C2042.58 1318.29 2046.78 1321.14 2047.64 1325.5L2050.53 1340.72C2051.39 1345.08 2048.5 1349.31 2044.13 1350.13ZM2091.57 1341.17 2076.33 1344.05C2071.96 1344.88 2067.76 1342.02 2066.9 1337.66L2064.01 1322.45C2063.19 1318.09 2066.04 1313.9 2070.41 1313.04L2085.65 1310.15C2090.02 1309.33 2094.22 1312.18 2095.08 1316.54L2097.97 1331.76C2098.83 1336.12 2095.94 1340.34 2091.57 1341.17ZM2131.03 1330.24 2115.79 1333.13C2111.42 1333.95 2107.22 1331.1 2106.36 1326.74L2103.47 1311.53C2102.64 1307.16 2105.5 1302.97 2109.87 1302.12L2125.11 1299.23C2129.48 1298.41 2133.67 1301.26 2134.53 1305.62L2137.42 1320.83C2138.28 1325.17 2135.45 1329.37 2131.1 1330.23 2131.08 1330.23 2131.05 1330.24 2131.03 1330.24ZM2179.36 1321.11 2164.12 1323.99C2159.75 1324.82 2155.55 1321.97 2154.69 1317.6L2151.8 1302.39C2150.98 1298.03 2153.83 1293.84 2158.2 1292.98L2173.44 1290.09C2177.81 1289.27 2182.01 1292.12 2182.87 1296.48L2185.76 1311.7C2186.61 1316.04 2183.78 1320.24 2179.44 1321.09 2179.41 1321.1 2179.39 1321.1 2179.36 1321.11ZM2223.91 1312.69 2208.67 1315.58C2204.3 1316.4 2200.1 1313.55 2199.24 1309.19L2196.35 1293.98C2195.53 1289.61 2198.38 1285.42 2202.75 1284.56L2217.99 1281.68C2222.36 1280.86 2226.56 1283.71 2227.42 1288.07L2230.31 1303.28C2231.13 1307.68 2228.28 1311.87 2223.91 1312.69ZM2271.35 1303.73 2256.11 1306.61C2251.74 1307.44 2247.54 1304.59 2246.68 1300.23L2243.79 1285.01C2242.97 1280.65 2245.82 1276.46 2250.19 1275.6L2265.43 1272.72C2269.8 1271.89 2274 1274.74 2274.86 1279.1L2277.75 1294.32C2278.57 1298.68 2275.72 1302.91 2271.35 1303.73ZM1761.32 1403.98 1682.68 1418.85C1678.31 1419.68 1674.11 1416.83 1673.25 1412.47L1670.36 1397.25C1669.54 1392.89 1672.39 1388.7 1676.76 1387.84L1755.4 1372.97C1759.77 1372.15 1763.97 1375 1764.83 1379.36L1767.72 1394.57C1768.58 1398.93 1765.69 1403.16 1761.32 1403.98ZM1838.96 1438.5 1823.72 1441.38C1819.35 1442.21 1815.16 1439.36 1814.3 1435L1811.41 1419.78C1810.58 1415.42 1813.44 1411.23 1817.81 1410.37L1833.05 1407.49C1837.41 1406.66 1841.61 1409.51 1842.47 1413.87L1845.36 1429.09C1846.19 1433.45 1843.33 1437.68 1838.96 1438.5ZM1804.7 1395.16 1789.46 1398.04C1785.09 1398.87 1780.89 1396.02 1780.03 1391.65L1777.14 1376.44C1776.32 1372.08 1779.17 1367.89 1783.54 1367.03L1798.78 1364.14C1803.15 1363.32 1807.35 1366.17 1808.21 1370.53L1811.1 1385.75C1811.96 1390.11 1809.07 1394.33 1804.7 1395.16ZM2334.95 1293.19 2297.28 1300.29C2292.92 1301.12 2288.72 1298.27 2287.86 1293.91L2284.97 1278.69C2284.14 1274.33 2287 1270.14 2291.37 1269.28L2329.04 1262.17C2333.41 1261.35 2337.6 1264.2 2338.46 1268.56L2341.35 1283.77C2342.18 1288.17 2339.32 1292.36 2334.95 1293.19L2334.95 1293.19ZM1790.84 1445.99 1691.38 1464.81C1687.01 1465.63 1682.82 1462.78 1681.96 1458.42L1679.07 1443.21C1678.24 1438.84 1681.1 1434.65 1685.47 1433.79L1784.92 1414.97C1789.29 1414.15 1793.48 1417 1794.34 1421.36L1797.23 1436.58C1798.06 1440.94 1795.2 1445.16 1790.84 1445.99ZM1886.54 1427.89 1871.3 1430.77C1866.93 1431.6 1862.73 1428.75 1861.87 1424.38L1858.98 1409.17C1858.16 1404.81 1861.01 1400.62 1865.38 1399.76L1880.62 1396.87C1884.99 1396.05 1889.19 1398.9 1890.05 1403.26L1892.94 1418.48C1893.8 1422.84 1890.91 1427.06 1886.54 1427.89ZM1938.69 1418.13 1923.45 1421.02C1919.08 1421.84 1914.88 1418.99 1914.02 1414.63L1911.13 1399.42C1910.31 1395.05 1913.16 1390.86 1917.53 1390L1932.77 1387.12C1937.14 1386.3 1941.34 1389.15 1942.2 1393.51L1945.09 1408.72C1945.94 1413.06 1943.11 1417.26 1938.77 1418.12 1938.74 1418.12 1938.72 1418.13 1938.69 1418.13ZM1984.99 1409.38 1969.75 1412.26C1965.39 1413.08 1961.19 1410.23 1960.33 1405.87L1957.44 1390.66C1956.61 1386.3 1959.47 1382.11 1963.84 1381.25L1979.08 1378.36C1983.45 1377.54 1987.64 1380.39 1988.5 1384.75L1991.39 1399.96C1992.25 1404.3 1989.42 1408.51 1985.07 1409.36 1985.05 1409.37 1985.02 1409.37 1984.99 1409.38ZM2031.4 1400.24 2016.16 1403.12C2011.79 1403.95 2007.6 1401.1 2006.73 1396.74L2003.85 1381.52C2003.02 1377.16 2005.88 1372.97 2010.24 1372.11L2025.48 1369.23C2029.85 1368.4 2034.05 1371.25 2034.91 1375.61L2037.8 1390.83C2038.62 1395.19 2035.77 1399.42 2031.4 1400.24ZM2079.94 1391.07 2064.7 1393.95C2060.33 1394.78 2056.13 1391.93 2055.27 1387.57L2052.39 1372.35C2051.56 1367.99 2054.41 1363.8 2058.78 1362.94L2074.02 1360.06C2078.39 1359.23 2082.59 1362.08 2083.45 1366.44L2086.34 1381.66C2087.2 1386.02 2084.31 1390.21 2079.94 1391.07ZM2127.41 1382.07 2112.17 1384.96C2107.8 1385.78 2103.61 1382.93 2102.75 1378.57L2099.86 1363.35C2099.03 1358.99 2101.89 1354.8 2106.26 1353.94L2121.5 1351.06C2125.87 1350.23 2130.06 1353.08 2130.92 1357.45L2133.81 1372.66C2134.64 1377.06 2131.78 1381.25 2127.41 1382.07ZM2166.84 1371.18 2151.6 1374.07C2147.23 1374.89 2143.03 1372.04 2142.17 1367.68L2139.28 1352.47C2138.46 1348.1 2141.31 1343.91 2145.68 1343.05L2160.92 1340.17C2165.29 1339.35 2169.49 1342.2 2170.35 1346.56L2173.24 1361.77C2174.09 1366.11 2171.26 1370.31 2166.92 1371.17 2166.89 1371.17 2166.86 1371.18 2166.84 1371.18ZM2215.17 1362.05 2199.93 1364.93C2195.56 1365.76 2191.36 1362.91 2190.5 1358.54L2187.61 1343.33C2186.79 1338.97 2189.64 1334.78 2194.01 1333.92L2209.25 1331.03C2213.62 1330.21 2217.82 1333.06 2218.68 1337.42L2221.57 1352.64C2222.43 1357 2219.54 1361.22 2215.17 1362.05ZM2259.72 1353.63 2244.48 1356.52C2240.11 1357.34 2235.91 1354.49 2235.05 1350.13L2232.16 1334.91C2231.34 1330.55 2234.19 1326.36 2238.56 1325.5L2253.8 1322.62C2258.17 1321.8 2262.37 1324.65 2263.23 1329.01L2266.12 1344.22C2266.94 1348.58 2264.09 1352.81 2259.72 1353.63ZM2347.75 1332.55 2288.93 1343.67C2284.56 1344.5 2280.36 1341.65 2279.5 1337.28L2276.61 1322.07C2275.78 1317.71 2278.64 1313.52 2283.01 1312.66L2341.83 1301.53C2346.2 1300.71 2350.4 1303.56 2351.26 1307.92L2354.15 1323.13C2354.98 1327.53 2352.12 1331.72 2347.75 1332.55ZM1710.34 1505.47 1695.1 1508.36C1690.73 1509.18 1686.53 1506.33 1685.67 1501.97L1682.78 1486.75C1681.96 1482.39 1684.81 1478.2 1689.18 1477.34L1704.42 1474.46C1708.79 1473.64 1712.99 1476.49 1713.85 1480.85L1716.74 1496.06C1717.6 1500.46 1714.74 1504.65 1710.34 1505.47ZM1754.89 1497.06 1739.65 1499.94C1735.28 1500.77 1731.08 1497.92 1730.22 1493.56L1727.33 1478.34C1726.51 1473.98 1729.36 1469.79 1733.73 1468.93L1748.97 1466.04C1753.34 1465.22 1757.54 1468.07 1758.4 1472.43L1761.28 1487.65C1762.11 1492.04 1759.26 1496.23 1754.89 1497.06ZM1802.33 1488.09 1787.09 1490.98C1782.72 1491.8 1778.52 1488.95 1777.66 1484.59L1774.77 1469.38C1773.94 1465.01 1776.8 1460.82 1781.17 1459.97L1796.41 1457.08C1800.78 1456.26 1804.97 1459.11 1805.83 1463.47L1808.72 1478.68C1809.58 1483.05 1806.69 1487.27 1802.33 1488.09ZM1846.87 1479.68 1831.63 1482.56C1827.27 1483.39 1823.07 1480.54 1822.21 1476.18L1819.32 1460.96C1818.49 1456.6 1821.35 1452.41 1825.72 1451.55L1840.96 1448.67C1845.33 1447.84 1849.52 1450.69 1850.38 1455.05L1853.27 1470.27C1854.1 1474.63 1851.24 1478.86 1846.87 1479.68ZM1900.51 1470.17 1885.27 1473.05C1880.9 1473.88 1876.7 1471.02 1875.84 1466.66L1872.95 1451.45C1872.12 1447.09 1874.98 1442.9 1879.35 1442.04L1894.59 1439.15C1898.96 1438.33 1903.15 1441.18 1904.01 1445.54L1906.9 1460.76C1907.73 1465.12 1904.87 1469.34 1900.51 1470.17ZM2082.73 1435.2 1930.92 1463.92C1926.55 1464.74 1922.35 1461.89 1921.49 1457.53L1918.6 1442.31C1917.77 1437.95 1920.63 1433.76 1925 1432.9L2076.81 1404.19C2081.18 1403.36 2085.38 1406.22 2086.24 1410.58L2089.13 1425.79C2089.98 1430.13 2087.15 1434.33 2082.81 1435.19 2082.78 1435.19 2082.75 1435.2 2082.73 1435.2ZM2127.28 1426.79 2112.04 1429.67C2107.67 1430.5 2103.47 1427.65 2102.61 1423.28L2099.72 1408.07C2098.9 1403.71 2101.75 1399.52 2106.12 1398.66L2121.36 1395.77C2125.73 1394.95 2129.92 1397.8 2130.78 1402.16L2133.67 1417.38C2134.5 1421.74 2131.64 1425.96 2127.28 1426.79ZM2174.71 1417.82 2159.47 1420.71C2155.11 1421.53 2150.91 1418.68 2150.05 1414.32L2147.16 1399.11C2146.33 1394.74 2149.19 1390.55 2153.56 1389.7L2168.8 1386.81C2173.17 1385.99 2177.36 1388.84 2178.22 1393.2L2181.11 1408.41C2181.97 1412.78 2179.08 1417 2174.71 1417.82ZM2219.26 1409.41 2204.02 1412.29C2199.66 1413.12 2195.46 1410.27 2194.6 1405.91L2191.71 1390.69C2190.88 1386.33 2193.74 1382.14 2198.11 1381.28L2213.35 1378.4C2217.72 1377.57 2221.91 1380.42 2222.77 1384.78L2225.66 1400C2226.49 1404.36 2223.63 1408.55 2219.26 1409.41ZM2260.34 1402.13 2245.1 1405.01C2240.73 1405.84 2236.53 1402.99 2235.67 1398.63L2232.78 1383.41C2231.96 1379.05 2234.81 1374.86 2239.18 1374L2254.42 1371.11C2258.79 1370.29 2262.99 1373.14 2263.85 1377.5L2266.74 1392.72C2267.6 1397.08 2264.71 1401.3 2260.34 1402.13ZM2308.29 1390.9 2293.05 1393.78C2288.68 1394.61 2284.49 1391.76 2283.63 1387.39L2280.74 1372.18C2279.91 1367.82 2282.77 1363.63 2287.14 1362.77L2302.38 1359.88C2306.74 1359.06 2310.94 1361.91 2311.8 1366.27L2314.69 1381.49C2315.54 1385.82 2312.72 1390.03 2308.37 1390.88 2308.34 1390.89 2308.32 1390.89 2308.29 1390.9ZM2355.77 1381.93 2340.53 1384.82C2336.16 1385.64 2331.96 1382.79 2331.1 1378.43L2328.21 1363.22C2327.39 1358.85 2330.24 1354.66 2334.61 1353.8L2349.85 1350.92C2354.22 1350.1 2358.42 1352.95 2359.28 1357.31L2362.16 1372.52C2362.99 1376.92 2360.14 1381.11 2355.77 1381.93ZM2407.92 1234.01 2392.68 1236.89C2388.31 1237.72 2384.11 1234.87 2383.25 1230.51L2380.36 1215.29C2379.54 1210.93 2382.39 1206.74 2386.76 1205.88L2402 1202.99C2406.37 1202.17 2410.57 1205.02 2411.43 1209.38L2414.32 1224.6C2415.18 1228.96 2412.29 1233.15 2407.92 1234.01ZM2499.18 1216.73 2483.94 1219.62C2479.57 1220.44 2475.38 1217.59 2474.52 1213.23L2471.63 1198.02C2470.8 1193.65 2473.66 1189.46 2478.03 1188.6L2493.27 1185.72C2497.64 1184.9 2501.83 1187.75 2502.69 1192.11L2505.58 1207.32C2506.44 1211.68 2503.55 1215.91 2499.18 1216.73ZM2452.78 1225.53 2437.54 1228.41C2433.17 1229.23 2428.97 1226.38 2428.11 1222.02L2425.22 1206.81C2424.4 1202.45 2427.25 1198.26 2431.62 1197.4L2446.86 1194.51C2451.23 1193.69 2455.43 1196.54 2456.29 1200.9L2459.18 1216.11C2460 1220.48 2457.15 1224.7 2452.78 1225.53ZM2416.24 1277.83 2401 1280.72C2396.63 1281.54 2392.44 1278.69 2391.58 1274.33L2388.69 1259.12C2387.86 1254.75 2390.72 1250.56 2395.09 1249.7L2410.33 1246.82C2414.7 1246 2418.89 1248.85 2419.75 1253.21L2422.64 1268.42C2423.47 1272.78 2420.61 1277.01 2416.24 1277.83ZM2460.83 1267.91 2445.59 1270.79C2441.22 1271.62 2437.02 1268.77 2436.16 1264.4L2433.27 1249.19C2432.45 1244.83 2435.3 1240.64 2439.67 1239.78L2454.91 1236.89C2459.28 1236.07 2463.48 1238.92 2464.34 1243.28L2467.23 1258.5C2468.05 1262.86 2465.2 1267.08 2460.83 1267.91ZM2507.23 1259.12 2491.99 1262C2487.62 1262.82 2483.43 1259.97 2482.57 1255.61L2479.68 1240.4C2478.85 1236.03 2481.71 1231.84 2486.08 1230.99L2501.32 1228.1C2505.69 1227.28 2509.88 1230.13 2510.74 1234.49L2513.63 1249.7C2514.49 1254.04 2511.66 1258.25 2507.31 1259.1 2507.29 1259.1 2507.26 1259.11 2507.23 1259.12ZM2424.71 1321.11 2409.47 1323.99C2405.1 1324.82 2400.9 1321.97 2400.04 1317.6L2397.15 1302.39C2396.33 1298.03 2399.18 1293.84 2403.55 1292.98L2418.79 1290.09C2423.16 1289.27 2427.35 1292.12 2428.21 1296.48L2431.1 1311.7C2431.93 1316.09 2429.07 1320.28 2424.71 1321.11ZM2468.53 1308.61 2453.29 1311.49C2448.92 1312.32 2444.73 1309.47 2443.87 1305.1L2440.98 1289.89C2440.15 1285.53 2443.01 1281.34 2447.38 1280.48L2462.62 1277.59C2466.98 1276.77 2471.18 1279.62 2472.04 1283.98L2474.93 1299.2C2475.78 1303.53 2472.96 1307.74 2468.61 1308.59 2468.58 1308.6 2468.56 1308.6 2468.53 1308.61ZM2516.73 1300.6 2501.49 1303.49C2497.12 1304.31 2492.92 1301.46 2492.06 1297.1L2489.17 1281.89C2488.35 1277.52 2491.2 1273.33 2495.57 1272.48L2510.81 1269.59C2515.18 1268.77 2519.38 1271.62 2520.24 1275.98L2523.13 1291.19C2523.99 1295.56 2521.1 1299.78 2516.73 1300.6ZM2486.49 1351.81 2417.21 1364.9C2412.84 1365.72 2408.64 1362.87 2407.78 1358.51L2404.89 1343.3C2404.07 1338.93 2406.92 1334.74 2411.29 1333.88L2480.57 1320.8C2484.94 1319.97 2489.14 1322.83 2490 1327.19L2492.89 1342.4C2493.74 1346.74 2490.91 1350.94 2486.57 1351.8 2486.54 1351.8 2486.52 1351.81 2486.49 1351.81L2486.49 1351.81ZM2524.95 1343.95 2509.71 1346.83C2505.34 1347.66 2501.14 1344.81 2500.28 1340.44L2497.39 1325.23C2496.57 1320.87 2499.42 1316.68 2503.79 1315.82L2519.03 1312.93C2523.4 1312.11 2527.6 1314.96 2528.46 1319.32L2531.35 1334.54C2532.21 1338.9 2529.32 1343.12 2524.95 1343.95Z" stroke="#000000" stroke-width="3.4375" stroke-miterlimit="8" fill="#D6DBD9" fill-rule="evenodd"/><path d="M1734.44 1179.85C1730.97 1188.93 1748.35 1205.94 1772.71 1229.76 1775.98 1232.96 1787.1 1243.61 1803.41 1255.33 1812.33 1261.73 1819.66 1266.16 1822.89 1268.12 1831.67 1273.31 1847.81 1283.17 1869.22 1289.74 1891.07 1296.41 1906.87 1301.25 1927.28 1297.92 1935.27 1296.61 1961.32 1292.39 1967.62 1275.37 1971.27 1265.54 1966.72 1255.54 1965.07 1251.86 1942.08 1201.03 1744.84 1152.56 1734.41 1179.89L1734.44 1179.85 1734.44 1179.85Z" fill="#5B5742" fill-rule="evenodd" fill-opacity="0.431373"/><path d="M1711.04 949.082C1719.84 934.089 1725.25 932.036 1728.45 932.575 1736.02 933.852 1735.99 950.599 1749.64 976.891 1754.28 985.822 1758.41 992.121 1761.9 997.451 1785.52 1029.09 1824.62 1076.8 1851.77 1111.22 1899.23 1163.81 1911.71 1181.25 1948.45 1225.14 1951.18 1227.75 1959.37 1235.5 1962.53 1247.93 1977.39 1324.9 1816.27 1238.28 1800.26 1227.61 1768.11 1207.39 1768.52 1200.97 1716.52 1158.51 1663.96 1115.61 1656.22 1116.19 1651.5 1100.68 1654.27 1077.96 1659.44 1055.59 1666.9 1033.95 1677.37 1003.66 1692.24 975.065 1711.04 949.082L1711.04 949.082Z" stroke="#000000" stroke-width="20.625" stroke-miterlimit="8" fill="#EBE2B3" fill-rule="evenodd"/><path d="M2241.32 1262.68C2248.89 1275.32 2288.99 1268.77 2306.16 1263.92 2320.25 1259.96 2334.4 1252.76 2339.85 1249.83 2343.45 1247.93 2350.99 1243.77 2359.97 1237.53 2374.87 1227.17 2381.45 1219.93 2397.6 1204.12 2419.29 1182.87 2434.57 1171.27 2449.21 1148.29 2452.36 1143.37 2456.78 1135.86 2454.25 1129.18 2450.99 1120.67 2438.28 1118.4 2433.75 1117.47 2389.47 1108.44 2223.6 1233.19 2241.32 1262.68L2241.32 1262.68Z" fill="#5B5742" fill-rule="evenodd" fill-opacity="0.431373"/><path d="M2438.21 959.672C2430.29 936.872 2424.15 932.402 2420.02 932.502 2413.5 932.66 2410.6 944.234 2397.18 967.618 2390.88 978.604 2391.96 975.285 2375.83 1000.45 2362.41 1021.39 2355.3 1034.1 2345.08 1050.48 2324.09 1084.11 2313.63 1100.92 2302.04 1119.01 2246.93 1205.14 2227.02 1227.39 2235.31 1239.21 2238.57 1243.89 2247.04 1248.12 2271.29 1243.51 2296.37 1237.6 2330.94 1226.25 2367.26 1203.46 2426.29 1166.39 2458.94 1118.49 2474.49 1091.57 2474.66 1080.5 2473.25 1073.14 2465.78 1053.89 2455.95 1028.52 2464.08 1017.87 2451.71 987.182 2448.24 978.569 2444.47 971.957 2441.98 967.91 2440.72 965.163 2439.46 962.419 2438.21 959.672Z" stroke="#000000" stroke-width="20.625" stroke-miterlimit="8" fill="#EBE2B3" fill-rule="evenodd"/></g></svg>