<svg width="1516" height="1511" xmlns="http://www.w3.org/2000/svg" xmlns:xlink="http://www.w3.org/1999/xlink" xml:space="preserve" overflow="hidden"><defs><clipPath id="clip0"><rect x="1220" y="598" width="1516" height="1511"/></clipPath></defs><g clip-path="url(#clip0)" transform="translate(-1220 -598)"><path d="M1682 1339.5C1682 1232.63 1838.92 1146 2032.5 1146 2226.08 1146 2383 1232.63 2383 1339.5 2383 1446.37 2226.08 1533 2032.5 1533 1838.92 1533 1682 1446.37 1682 1339.5Z" fill="#ADB0A1" fill-rule="evenodd"/><path d="M1556.98 1229.46C1465.58 981.963 1604.38 711.499 1867.01 625.363 2129.63 539.228 2416.63 670.038 2508.03 917.537 2545.29 1018.45 2545.33 1128.25 2508.13 1229.18Z" fill="#C8CFE2" fill-rule="evenodd"/><path d="M0 157.408 52.5713 0 180.365 0 232.936 157.408Z" fill="#ADB0A1" fill-rule="evenodd" transform="matrix(-0.843102 0.537754 0.537754 0.843102 1372.81 1393.77)"/><path d="M1786.8 1339.99C1838.27 1436.77 1778.75 1573.14 1653.86 1644.57 1528.97 1716.01 1386 1695.46 1334.53 1598.68 1331.08 1592.2 1328.1 1585.45 1325.6 1578.48L1377 1554.61C1400.75 1630.68 1502.23 1654.16 1603.66 1607.07 1705.09 1559.97 1768.07 1460.13 1744.32 1384.06 1742.58 1378.49 1740.4 1373.14 1737.78 1368.03Z" fill="#ADB0A1" fill-rule="evenodd"/><path d="M0 157.408 52.5713 0 180.365 0 232.936 157.408Z" fill="#ADB0A1" fill-rule="evenodd" transform="matrix(0.506889 0.862011 0.862011 -0.506889 1533.71 1858.88)"/><path d="M1947.44 1289.22C1948.17 1534.57 1860.09 1807.67 1750.71 1899.21 1730.38 1916.23 1710.15 1926.12 1690.72 1928.54L1698.03 1869.58C1771.48 1847.52 1854.01 1644 1882.38 1415.02 1885.63 1388.79 1888.07 1362.85 1889.68 1337.56Z" fill="#ADB0A1" fill-rule="evenodd"/><path d="M2735.22 1757.2 2618.72 1875.39 2504.48 1819.38 2526.58 1654.9Z" fill="#ADB0A1" fill-rule="evenodd"/><path d="M2298.72 1409C2410.3 1382.38 2558.61 1450.13 2629.99 1560.33 2681.49 1639.84 2680.27 1723.17 2626.89 1772.42L2587.21 1739.73C2644.06 1693.75 2618.86 1597.73 2530.9 1525.27 2469.35 1474.55 2390.38 1446.93 2328.07 1454.32Z" fill="#ADB0A1" fill-rule="evenodd"/><path d="M1920.56 928.542C1880.04 983.75 1800.61 994.261 1743.15 952.02 1685.68 909.779 1671.95 830.78 1712.46 775.572 1712.77 775.161 1713.07 774.751 1713.38 774.343L1816.51 852.057Z" stroke="#404040" stroke-width="4.58333" stroke-miterlimit="8" fill="#FFFFFF" fill-rule="evenodd"/><path d="M2344.55 780.942C2385.77 835.627 2372.99 914.725 2316.01 957.613 2259.03 1000.5 2179.42 990.937 2138.19 936.253 2137.89 935.845 2137.58 935.435 2137.28 935.023L2241.37 858.597Z" stroke="#404040" stroke-width="4.58333" stroke-miterlimit="8" fill="#FFFFFF" fill-rule="evenodd"/><path d="M1845.51 1168.41C1844.54 1097.45 1914.94 1039.29 2002.75 1038.51 2090.56 1037.73 2162.53 1094.62 2163.49 1165.59 2163.5 1166.22 2163.5 1166.85 2163.5 1167.47L2004.5 1167Z" stroke="#404040" stroke-width="4.58333" stroke-miterlimit="8" fill="#FFFFFF" fill-rule="evenodd"/><path d="M1728.5 904C1728.5 874.453 1752.9 850.5 1783 850.5 1813.1 850.5 1837.5 874.453 1837.5 904 1837.5 933.547 1813.1 957.5 1783 957.5 1752.9 957.5 1728.5 933.547 1728.5 904Z" stroke="#404040" stroke-width="4.58333" stroke-miterlimit="8" fill="#0D0D0D" fill-rule="evenodd"/><path d="M2202.5 920C2202.5 890.453 2226.9 866.5 2257 866.5 2287.1 866.5 2311.5 890.453 2311.5 920 2311.5 949.547 2287.1 973.5 2257 973.5 2226.9 973.5 2202.5 949.547 2202.5 920Z" stroke="#404040" stroke-width="4.58333" stroke-miterlimit="8" fill="#0D0D0D" fill-rule="evenodd"/><path d="M2073.13 2010.88 1962.34 1887.87 2025.44 1776.44 2187.92 1808.19Z" fill="#ADB0A1" fill-rule="evenodd"/><path d="M2151.58 1405.5C2273.91 1602.92 2313.18 1833.47 2239.3 1920.45 2199.16 1967.7 2131.28 1964.29 2054.41 1911.14L2046.82 1838.88C2160.35 1945.35 2239.4 1908.14 2223.38 1755.76 2214 1666.58 2173.09 1552.78 2113.55 1450.27Z" fill="#ADB0A1" fill-rule="evenodd"/><path d="M288.326 14.7594C531.189-24.4351 813.659 16.877 919.242 107.033 941.255 125.829 954.357 145.895 957.972 166.347L907.788 167.568C888.479 96.993 681.074 44.4509 444.537 50.2122 408.124 51.0991 372.24 53.3678 337.751 56.9635Z" fill="#ADB0A1" fill-rule="evenodd" transform="matrix(6.12323e-17 1 1 -6.12323e-17 1984 1068)"/><path d="M2192.01 1894.87 2202.71 2060.48 2084.88 2108.48 1976.81 1982.53Z" fill="#ADB0A1" fill-rule="evenodd"/></g></svg>