<svg width="1551" height="1553" xmlns="http://www.w3.org/2000/svg" xmlns:xlink="http://www.w3.org/1999/xlink" xml:space="preserve" overflow="hidden"><g transform="translate(-1242 -580)"><path d="M1682 1383.5C1682 1276.63 1838.92 1190 2032.5 1190 2226.08 1190 2383 1276.63 2383 1383.5 2383 1490.37 2226.08 1577 2032.5 1577 1838.92 1577 1682 1490.37 1682 1383.5Z" fill="#ADB0A1" fill-rule="evenodd"/><path d="M0 158 52.7688 0 180.231 0 233 158Z" fill="#ADB0A1" fill-rule="evenodd" transform="matrix(6.12323e-17 1 1 -6.12323e-17 1242 1628)"/><path d="M1803.21 1386.7C1851.04 1485.66 1764.65 1637.48 1610.26 1725.8 1506.42 1785.19 1393.31 1802.8 1316.51 1771.53L1359.25 1725.12C1451.83 1747.53 1600.48 1685.78 1691.28 1587.19 1748.21 1525.37 1771.05 1460.68 1751.66 1416.19Z" fill="#ADB0A1" fill-rule="evenodd"/><path d="M0 158 52.7688 0 180.231 0 233 158Z" fill="#ADB0A1" fill-rule="evenodd" transform="matrix(6.12323e-17 1 1 -6.12323e-17 1512 1745)"/><path d="M1934.64 1483.6C1924.15 1649.27 1810.17 1828.38 1680.06 1883.64 1620.13 1909.09 1564.3 1904.51 1523.93 1870.83L1553.06 1823.06C1613.86 1881.58 1728.52 1821.85 1809.14 1689.63 1844.1 1632.3 1868.44 1567.77 1877.73 1507.77Z" fill="#ADB0A1" fill-rule="evenodd"/><path d="M2764.95 1736.79 2792.31 1900.48 2679.94 1960.13 2559.7 1845.74Z" fill="#ADB0A1" fill-rule="evenodd"/><path d="M2247.83 1389.75C2497.48 1522.99 2698.63 1722.91 2697.11 1836.27 2696.9 1852.23 2692.59 1865.94 2684.27 1877.14L2644.54 1851.61C2690.56 1794.61 2549.03 1633.51 2328.41 1491.79 2301.67 1474.62 2274.44 1458.18 2247.12 1442.72Z" fill="#ADB0A1" fill-rule="evenodd"/><path d="M2390 2036.42 2255.11 2132.4 2151.64 2056.95 2201.79 1899.18Z" fill="#ADB0A1" fill-rule="evenodd"/><path d="M2178.26 1507.1C2300.59 1704.52 2339.87 1935.07 2265.99 2022.05 2245.23 2046.48 2216.75 2057.68 2182.81 2054.74L2162.84 1998.4C2257.48 2025.03 2281.22 1897.16 2215.86 1712.8 2196.59 1658.45 2170.8 1603.01 2140.73 1551.28Z" fill="#ADB0A1" fill-rule="evenodd"/><path d="M288.367 14.8133C531.367-24.4872 814.09 16.8585 919.846 107.162 1012.37 186.165 939.653 278.452 747.078 326.433L678.985 288.692C887.193 256.495 966.825 180.979 856.848 120.022 758.789 65.6723 540.176 40.3114 341.574 60.2468Z" fill="#ADB0A1" fill-rule="evenodd" transform="matrix(-0.166414 0.986056 0.986056 0.166414 2065.99 1088.75)"/><path d="M2075.12 1893.69 2227.77 1828.59 2312.19 1923.77 2229.3 2067.55Z" fill="#ADB0A1" fill-rule="evenodd"/><path d="M1556.98 1211.46C1465.58 963.963 1604.38 693.499 1867.01 607.363 2129.63 521.227 2416.63 652.038 2508.03 899.537 2545.29 1000.45 2545.33 1110.25 2508.13 1211.18Z" fill="#C8CFE2" fill-rule="evenodd"/><path d="M1920.56 910.942C1880.04 966.15 1800.61 976.661 1743.15 934.42 1685.68 892.179 1671.95 813.18 1712.46 757.972 1712.77 757.561 1713.07 757.151 1713.38 756.743L1816.51 834.457Z" stroke="#404040" stroke-width="4.58333" stroke-miterlimit="8" fill="#FFFFFF" fill-rule="evenodd"/><path d="M2344.55 763.342C2385.77 818.027 2372.99 897.125 2316.01 940.013 2259.03 982.901 2179.42 973.337 2138.19 918.652 2137.89 918.245 2137.58 917.835 2137.28 917.423L2241.37 840.997Z" stroke="#404040" stroke-width="4.58333" stroke-miterlimit="8" fill="#FFFFFF" fill-rule="evenodd"/><path d="M1845.51 1150.91C1844.54 1080.22 1914.94 1022.29 2002.75 1021.51 2090.55 1020.73 2162.52 1077.4 2163.49 1148.09 2163.5 1148.72 2163.5 1149.35 2163.5 1149.97L2004.5 1149.5Z" stroke="#404040" stroke-width="4.58333" stroke-miterlimit="8" fill="#FFFFFF" fill-rule="evenodd"/><path d="M1728.5 886.5C1728.5 857.229 1752.9 833.5 1783 833.5 1813.1 833.5 1837.5 857.229 1837.5 886.5 1837.5 915.771 1813.1 939.5 1783 939.5 1752.9 939.5 1728.5 915.771 1728.5 886.5Z" stroke="#404040" stroke-width="4.58333" stroke-miterlimit="8" fill="#0D0D0D" fill-rule="evenodd"/><path d="M2202.5 902.5C2202.5 873.229 2226.9 849.5 2257 849.5 2287.1 849.5 2311.5 873.229 2311.5 902.5 2311.5 931.771 2287.1 955.5 2257 955.5 2226.9 955.5 2202.5 931.771 2202.5 902.5Z" stroke="#404040" stroke-width="4.58333" stroke-miterlimit="8" fill="#0D0D0D" fill-rule="evenodd"/></g></svg>