<svg width="2108" height="1731" xmlns="http://www.w3.org/2000/svg" xmlns:xlink="http://www.w3.org/1999/xlink" overflow="hidden"><defs><clipPath id="clip0"><rect x="957" y="354" width="2108" height="1731"/></clipPath></defs><g clip-path="url(#clip0)" transform="translate(-957 -354)"><path d="M1227.11 1527.56C1194.21 1482.91 1232.32 1398.99 1312.23 1340.12 1392.13 1281.25 1483.57 1269.71 1516.47 1314.36 1549.36 1359 1511.25 1442.92 1431.35 1501.79 1351.44 1560.67 1260 1572.2 1227.11 1527.56Z" stroke="#000000" stroke-width="6.875" stroke-miterlimit="8" fill="#DA8200" fill-rule="evenodd"/><path d="M959.5 1121C959.5 979.339 1032.93 864.5 1123.5 864.5 1214.07 864.5 1287.5 979.339 1287.5 1121 1287.5 1262.66 1214.07 1377.5 1123.5 1377.5 1032.93 1377.5 959.5 1262.66 959.5 1121Z" stroke="#000000" stroke-width="4.58333" stroke-miterlimit="8" fill="#DA8200" fill-rule="evenodd"/><path d="M1002.5 1379.5C1002.5 1317.09 1094.51 1266.5 1208 1266.5 1321.49 1266.5 1413.5 1317.09 1413.5 1379.5 1413.5 1441.91 1321.49 1492.5 1208 1492.5 1094.51 1492.5 1002.5 1441.91 1002.5 1379.5Z" stroke="#000000" stroke-width="4.58333" stroke-miterlimit="8" fill="#DA8200" fill-rule="evenodd"/><path d="M1044.24 1159.47C1100.51 1091.28 1227.05 1102.78 1326.89 1185.16 1426.74 1267.53 1462.06 1389.59 1405.8 1457.78 1349.53 1525.98 1222.99 1514.48 1123.14 1432.1 1023.3 1349.72 987.978 1227.66 1044.24 1159.47Z" fill="#DA8200" fill-rule="evenodd"/><path d="M1156.5 1076C1156.5 934.339 1265.07 819.5 1399 819.5 1532.93 819.5 1641.5 934.339 1641.5 1076 1641.5 1217.66 1532.93 1332.5 1399 1332.5 1265.07 1332.5 1156.5 1217.66 1156.5 1076Z" stroke="#000000" stroke-width="4.58333" stroke-miterlimit="8" fill="#FFFFFF" fill-rule="evenodd"/><path d="M1204 870C1204 801.517 1294.44 746 1406 746 1517.56 746 1608 801.517 1608 870 1608 938.483 1517.56 994 1406 994 1294.44 994 1204 938.483 1204 870Z" fill="#FFFFFF" fill-rule="evenodd"/><path d="M2607.79 693.25C2744.3 531.531 2914.61 450.785 2988.19 512.899 3061.78 575.012 3010.77 756.464 2874.26 918.182 2737.75 1079.9 2567.43 1160.65 2493.85 1098.53 2420.27 1036.42 2471.28 854.968 2607.79 693.25Z" stroke="#000000" stroke-width="10.3125" stroke-miterlimit="8" fill="#DA8200" fill-rule="evenodd"/><path d="M2683.53 730.949C2766.55 596.969 2879.12 516.408 2934.96 551.012 2990.81 585.615 2968.79 722.279 2885.78 856.259 2802.77 990.239 2690.2 1070.8 2634.35 1036.2 2578.5 1001.59 2600.52 864.929 2683.53 730.949Z" fill="#F2F2F2" fill-rule="evenodd"/><path d="M2514.5 1940.5C2514.5 1866.49 2565.32 1806.5 2628 1806.5 2690.68 1806.5 2741.5 1866.49 2741.5 1940.5 2741.5 2014.51 2690.68 2074.5 2628 2074.5 2565.32 2074.5 2514.5 2014.51 2514.5 1940.5Z" stroke="#000000" stroke-width="6.875" stroke-miterlimit="8" fill="#F2F2F2" fill-rule="evenodd"/><path d="M1836.5 1927C1836.5 1852.72 1887.54 1792.5 1950.5 1792.5 2013.46 1792.5 2064.5 1852.72 2064.5 1927 2064.5 2001.28 2013.46 2061.5 1950.5 2061.5 1887.54 2061.5 1836.5 2001.28 1836.5 1927Z" stroke="#000000" stroke-width="6.875" stroke-miterlimit="8" fill="#F2F2F2" fill-rule="evenodd"/><path d="M1420 1240.5C1420 842.579 1787.13 520 2240 520 2692.87 520 3060 842.579 3060 1240.5 3060 1638.42 2692.87 1961 2240 1961 1787.13 1961 1420 1638.42 1420 1240.5Z" stroke="#000000" stroke-width="10.3125" stroke-miterlimit="8" fill="#DA8200" fill-rule="evenodd"/><path d="M3059 1220.5C3059 1626.71 2692.1 1956 2239.5 1956 1903.04 1956 1600.77 1771.42 1477.23 1490.54L2239.5 1220.5Z" fill="#F2F2F2" fill-rule="evenodd"/><path d="M2810 1082.5C2810 1025.34 2858.13 979 2917.5 979 2976.87 979 3025 1025.34 3025 1082.5 3025 1139.66 2976.87 1186 2917.5 1186 2858.13 1186 2810 1139.66 2810 1082.5Z" fill="#F2F2F2" fill-rule="evenodd"/><path d="M2839 1088C2839 1043.82 2876.83 1008 2923.5 1008 2970.17 1008 3008 1043.82 3008 1088 3008 1132.18 2970.17 1168 2923.5 1168 2876.83 1168 2839 1132.18 2839 1088Z" fill-rule="evenodd"/><path d="M2664.74 1297.29C2679.91 1198.14 2757.95 1127.82 2839.05 1140.23 2920.14 1152.64 2973.59 1243.08 2958.41 1342.23 2943.24 1441.38 2865.2 1511.7 2784.1 1499.29 2703 1486.88 2649.56 1396.44 2664.74 1297.29Z" stroke="#000000" stroke-width="13.75" stroke-miterlimit="8" fill="#F2F2F2" fill-rule="evenodd"/><path d="M2690.1 1464.08C2613.55 1390.99 2585.24 1296.38 2626.88 1252.78 2668.51 1209.18 2764.32 1233.09 2840.87 1306.18 2917.42 1379.28 2945.73 1473.88 2904.09 1517.48 2862.46 1561.08 2766.66 1537.17 2690.1 1464.08Z" fill="#F2F2F2" fill-rule="evenodd"/><path d="M2199 766C2199 541.22 2284.51 359 2390 359 2495.49 359 2581 541.22 2581 766 2581 990.78 2495.49 1173 2390 1173 2284.51 1173 2199 990.78 2199 766Z" stroke="#000000" stroke-width="10.3125" stroke-miterlimit="8" fill="#DA8200" fill-rule="evenodd"/><path d="M2270.07 702.229C2258.85 545.017 2309 413.342 2382.08 408.126 2455.17 402.909 2523.51 526.126 2534.73 683.339 2545.95 840.551 2495.8 972.226 2422.72 977.442 2349.64 982.659 2281.3 859.442 2270.07 702.229Z" fill="#F2F2F2" fill-rule="evenodd"/><path d="M2027 1018C2027 808.684 2187.06 639 2384.5 639 2581.94 639 2742 808.684 2742 1018 2742 1227.32 2581.94 1397 2384.5 1397 2187.06 1397 2027 1227.32 2027 1018Z" fill="#DA8200" fill-rule="evenodd"/><path d="M2370 1104C2370 1037.17 2439.4 983 2525 983 2610.6 983 2680 1037.17 2680 1104 2680 1170.83 2610.6 1225 2525 1225 2439.4 1225 2370 1170.83 2370 1104Z" fill="#F2F2F2" fill-rule="evenodd"/><path d="M2402 1101C2402 1047.98 2460.87 1005 2533.5 1005 2606.13 1005 2665 1047.98 2665 1101 2665 1154.02 2606.13 1197 2533.5 1197 2460.87 1197 2402 1154.02 2402 1101Z" fill-rule="evenodd"/><path d="M2782 1261.5C2782 1210.97 2830.13 1170 2889.5 1170 2948.87 1170 2997 1210.97 2997 1261.5 2997 1312.03 2948.87 1353 2889.5 1353 2830.13 1353 2782 1312.03 2782 1261.5Z" fill-rule="evenodd"/><path d="M2566.97 936.083C2539.24 896.636 2542.45 846.601 2574.13 824.327 2605.81 802.053 2653.98 815.974 2681.71 855.421 2709.44 894.868 2706.24 944.903 2674.56 967.177 2642.87 989.451 2594.71 975.529 2566.97 936.083Z" fill="#F2F2F2" fill-rule="evenodd"/><path d="M2758.99 878.712C2773.91 840.243 2811.07 818.779 2841.96 830.771 2872.86 842.762 2885.81 883.668 2870.88 922.137 2855.95 960.606 2818.8 982.07 2787.9 970.078 2757 958.087 2744.06 917.181 2758.99 878.712Z" fill="#F2F2F2" fill-rule="evenodd"/><path d="M1672.52 1858.03C1717.13 1798.91 1793.94 1781.64 1844.08 1819.47 1894.22 1857.3 1898.7 1935.91 1854.08 1995.03 1809.47 2054.16 1732.65 2071.42 1682.52 2033.59 1632.38 1995.76 1627.9 1917.16 1672.52 1858.03Z" stroke="#000000" stroke-width="6.875" stroke-miterlimit="8" fill="#F2F2F2" fill-rule="evenodd"/><path d="M2366.42 1884.4C2412.12 1826.1 2489.23 1810.26 2538.66 1849 2588.1 1887.75 2591.12 1966.42 2545.43 2024.72 2499.73 2083.01 2422.62 2098.86 2373.19 2060.11 2323.75 2021.36 2320.72 1942.7 2366.42 1884.4Z" stroke="#000000" stroke-width="6.875" stroke-miterlimit="8" fill="#F2F2F2" fill-rule="evenodd"/><path d="M1467.88 1470.86C1448.55 1386.6 1585.47 1283.29 1773.7 1240.1 1961.93 1196.91 2130.19 1230.2 2149.53 1314.46 2168.86 1398.72 2031.94 1502.04 1843.71 1545.23 1655.48 1588.41 1487.22 1555.12 1467.88 1470.86Z" fill="#F2F2F2" fill-rule="evenodd"/><path d="M0 0 118.184 106.831" stroke="#000000" stroke-width="13.75" stroke-miterlimit="8" fill="none" fill-rule="evenodd" transform="matrix(1 0 0 -1 2729 1518.83)"/><path d="M2839 1414 2911.26 1493.94" stroke="#000000" stroke-width="13.75" stroke-miterlimit="8" fill="none" fill-rule="evenodd"/></g></svg>