<svg width="856" height="649" xmlns="http://www.w3.org/2000/svg" xmlns:xlink="http://www.w3.org/1999/xlink" overflow="hidden"><defs><clipPath id="clip0"><rect x="1704" y="901" width="856" height="649"/></clipPath></defs><g clip-path="url(#clip0)" transform="translate(-1704 -901)"><path d="M1708.13 1331.69C1713.94 1226.82 1908.41 1152.32 2142.48 1165.29 2376.56 1178.26 2561.61 1273.79 2555.79 1378.67 2549.98 1483.54 2355.51 1558.04 2121.44 1545.06 1887.36 1532.09 1702.31 1436.56 1708.13 1331.69Z" stroke="#000000" stroke-width="6.875" stroke-miterlimit="8" fill="#AB3409" fill-rule="evenodd"/><path d="M2141.5 904.5C2367.94 904.5 2551.5 1067.67 2551.5 1268.95 2551.5 1281.53 2550.78 1293.96 2549.38 1306.21L2544.13 1336.82 2504.51 1357.32C2412.39 1400.36 2301.35 1425.5 2181.81 1425.5 2002.51 1425.5 1842.3 1368.94 1736.44 1280.21L1731.9 1276.01 1731.5 1268.95C1731.5 1067.67 1915.06 904.5 2141.5 904.5Z" stroke="#000000" stroke-width="6.875" stroke-miterlimit="8" fill="#C00000" fill-rule="evenodd"/><path d="M2170 1098.5C2285.15 1098.5 2378.5 1205.69 2378.5 1337.91 2378.5 1354.44 2377.04 1370.58 2374.26 1386.16L2370 1401.94 2349.55 1407.52C2295.32 1419.21 2237.66 1425.5 2177.87 1425.5 2110.62 1425.5 2046.05 1417.53 1986.03 1402.89L1968.93 1397.96 1965.74 1386.16C1962.96 1370.58 1961.5 1354.44 1961.5 1337.91 1961.5 1205.69 2054.85 1098.5 2170 1098.5Z" stroke="#000000" stroke-width="3.4375" stroke-miterlimit="8" fill="#FA3000" fill-rule="evenodd"/><path d="M1771.34 1220.05C1806.77 1216.93 1845.41 1227.02 1878.88 1251.07 1920.71 1281.13 1944.56 1325.88 1946.5 1369.29L1945.33 1389.5 1931.21 1385.43C1855.66 1360.16 1789.26 1323.79 1736.43 1279.36L1731.9 1275.15 1731.5 1268.08C1731.5 1255.48 1732.22 1243.03 1733.61 1230.76L1733.81 1229.62 1745.51 1224.86C1753.83 1222.44 1762.48 1220.83 1771.34 1220.05Z" stroke="#000000" stroke-width="3.4375" stroke-miterlimit="8" fill="#FA3000" fill-rule="evenodd"/><path d="M1980.19 932.5 1981.32 933.804C2020.99 988.14 2032.78 1053.34 2006.29 1107.98 1969.21 1184.47 1869.39 1214.94 1770.66 1185.35L1745.5 1175.53 1762.73 1126.19C1799.06 1049.85 1863.8 986.792 1945.16 947.499Z" stroke="#000000" stroke-width="3.4375" stroke-miterlimit="8" fill="#FA3000" fill-rule="evenodd"/><path d="M2544.03 1218.5 2546.38 1232.23C2547.78 1244.53 2548.5 1257.02 2548.5 1269.66 2548.5 1282.3 2547.78 1294.78 2546.38 1307.09L2541.12 1337.85 2501.46 1358.43C2478.41 1369.24 2454.18 1378.93 2428.92 1387.38L2417.5 1390.5 2420.81 1357.17C2433.03 1296.6 2474.25 1246.74 2529.1 1223.2Z" stroke="#000000" stroke-width="3.4375" stroke-miterlimit="8" fill="#FA3000" fill-rule="evenodd"/><path d="M2138.42 904.5C2209.34 904.5 2276.07 920.44 2334.3 948.501L2336.5 949.685 2329.62 963.076C2296.29 1015.22 2239.84 1049.5 2175.81 1049.5 2098.98 1049.5 2033.06 1000.13 2004.9 929.779L2003.5 925.018 2016.21 920.89C2054.82 910.238 2095.86 904.5 2138.42 904.5Z" stroke="#000000" stroke-width="3.4375" stroke-miterlimit="8" fill="#FA3000" fill-rule="evenodd"/><path d="M2380.79 973.5 2403.8 988.862C2454.31 1026.07 2494.65 1073.9 2520.52 1128.52L2542.5 1191.73 2523.29 1201.64C2473.02 1221.64 2414.05 1211.19 2374.62 1170.45 2322.04 1116.11 2324.11 1028.49 2379.24 974.74Z" stroke="#000000" stroke-width="3.4375" stroke-miterlimit="8" fill="#FA3000" fill-rule="evenodd"/></g></svg>