<svg width="1356" height="894" xmlns="http://www.w3.org/2000/svg" xmlns:xlink="http://www.w3.org/1999/xlink" overflow="hidden"><defs><clipPath id="clip0"><rect x="1608" y="883" width="1356" height="894"/></clipPath></defs><g clip-path="url(#clip0)" transform="translate(-1608 -883)"><path d="M2352.5 1526C2352.5 1474.91 2393.91 1433.5 2445 1433.5L2482 1433.5C2533.09 1433.5 2574.5 1474.91 2574.5 1526L2574.5 1603C2574.5 1654.09 2533.09 1695.5 2482 1695.5L2445 1695.5C2393.91 1695.5 2352.5 1654.09 2352.5 1603Z" stroke="#000000" stroke-width="6.875" stroke-miterlimit="8" fill="#D2DB7E" fill-rule="evenodd"/><path d="M2531.79 1626.5C2540.15 1626.5 2547.72 1630.46 2553.2 1636.87L2559.5 1647.79 2558.47 1649.67C2548.51 1664.33 2534.41 1675.97 2517.83 1682.94L2509.54 1685.5 2503.88 1675.68C2502.35 1671.45 2501.5 1666.79 2501.5 1661.9 2501.5 1642.35 2515.06 1626.5 2531.79 1626.5Z" stroke="#000000" stroke-width="4.58333" stroke-miterlimit="8" fill="#FFFFFF" fill-rule="evenodd"/><path d="M1864.5 1551C1864.5 1499.91 1905.91 1458.5 1957 1458.5L1994 1458.5C2045.09 1458.5 2086.5 1499.91 2086.5 1551L2086.5 1628C2086.5 1679.09 2045.09 1720.5 1994 1720.5L1957 1720.5C1905.91 1720.5 1864.5 1679.09 1864.5 1628Z" stroke="#000000" stroke-width="6.875" stroke-miterlimit="8" fill="#D2DB7E" fill-rule="evenodd"/><path d="M2044.31 1651.5C2052.82 1651.5 2060.52 1655.53 2066.09 1662.04L2072.5 1673.15 2071.45 1675.07C2061.32 1689.97 2046.98 1701.81 2030.11 1708.9L2021.68 1711.5 2015.92 1701.51C2014.36 1697.21 2013.5 1692.47 2013.5 1687.5 2013.5 1667.62 2027.29 1651.5 2044.31 1651.5Z" stroke="#000000" stroke-width="4.58333" stroke-miterlimit="8" fill="#FFFFFF" fill-rule="evenodd"/><path d="M2719.98 896.15C2730.94 896.15 2741.64 897.414 2751.97 899.819L2756.42 901.389 2761.39 901.482C2803.07 906.191 2847.89 926.591 2885.98 961.565 2962.15 1031.51 2982.52 1133.27 2931.48 1188.85 2905.96 1216.64 2867.42 1227.62 2825.74 1222.91L2814.88 1220.7 2808.73 1226.48C2789.73 1241.08 2767.8 1251.13 2744.16 1255.24L2731 1256.37 2722.1 1293.47C2711.65 1327.25 2696.21 1362.02 2675.8 1395.99 2604.4 1514.91 2495.86 1584.73 2416.99 1568.59L2406.86 1565.63 2343.77 1578.4C2289.77 1586.92 2230.4 1591.63 2168.08 1591.63 2012.29 1591.63 1874.93 1562.2 1793.82 1517.43L1762.84 1496.15 1613.48 1496.15 1619.69 1481.2C1640.9 1443.67 1676.35 1411.74 1720.97 1389.19L1728.94 1385.76 1752.2 1357.81C1820.72 1297.41 1981.13 1255.02 2168.08 1255.02 2323.88 1255.02 2461.24 1284.45 2542.35 1329.22L2554.7 1337.71 2557.03 1332.21C2568.82 1298.23 2576.99 1260.45 2580.48 1220.35L2581.99 1164.31 2573.74 1147.02C2565.71 1125.42 2561.26 1101.67 2561.26 1076.73 2561.26 977 2632.33 896.15 2719.98 896.15Z" stroke="#000000" stroke-width="6.875" stroke-miterlimit="8" fill="#D2DB7E" fill-rule="evenodd"/><path d="M1779.35 1555.03C1789.63 1504.96 1838.54 1472.71 1888.61 1482.98L1924.86 1490.42C1974.93 1500.7 2007.18 1549.61 1996.91 1599.68L1981.43 1675.11C1971.15 1725.17 1922.24 1757.43 1872.17 1747.15L1835.92 1739.71C1785.85 1729.43 1753.6 1680.52 1763.87 1630.46Z" stroke="#000000" stroke-width="6.875" stroke-miterlimit="8" fill="#D2DB7E" fill-rule="evenodd"/><path d="M1935.95 1699.35C1943.54 1698.2 1951.25 1702.68 1957.58 1710.86L1960.69 1716.42 1952.79 1725.8C1948.54 1729.95 1943.91 1733.68 1938.97 1736.94L1915.74 1746.51 1915.22 1733.36C1916.7 1715 1924.57 1701.08 1935.95 1699.35Z" stroke="#000000" stroke-width="4.58333" stroke-miterlimit="8" fill="#FFFFFF" fill-rule="evenodd"/><path d="M1881.03 1715.02C1892.41 1713.29 1904.07 1724.24 1910.93 1741.33L1911.63 1743.91 1908.32 1745.27C1896.54 1747.64 1884.09 1747.72 1871.58 1745.16L1861.56 1743.1 1863.81 1732.44C1867.42 1722.74 1873.45 1716.17 1881.03 1715.02Z" stroke="#000000" stroke-width="3.4375" stroke-miterlimit="8" fill="#FFFFFF" fill-rule="evenodd"/><path d="M2255.77 1618.52C2247.76 1568.04 2282.19 1520.63 2332.66 1512.62L2369.22 1506.82C2419.69 1498.81 2467.11 1533.24 2475.12 1583.71L2487.18 1659.76C2495.19 1710.24 2460.77 1757.65 2410.29 1765.66L2373.74 1771.46C2323.26 1779.47 2275.85 1745.05 2267.84 1694.57Z" stroke="#000000" stroke-width="6.875" stroke-miterlimit="8" fill="#D2DB7E" fill-rule="evenodd"/><path d="M2453.16 1698.47C2459.85 1694.72 2468.65 1696.2 2477.45 1701.63L2482.32 1705.73 2478.23 1717.29C2475.71 1722.68 2472.69 1727.8 2469.21 1732.59L2450.84 1749.73 2445.73 1737.6C2440.65 1719.9 2443.12 1704.09 2453.16 1698.47Z" stroke="#000000" stroke-width="4.58333" stroke-miterlimit="8" fill="#FFFFFF" fill-rule="evenodd"/><path d="M2407.27 1732.47C2417.31 1726.84 2432.08 1732.99 2444.52 1746.56L2446.08 1748.74 2443.47 1751.18C2433.27 1757.54 2421.65 1762 2409.03 1764L2398.93 1765.61 2397.28 1754.83C2397.25 1744.49 2400.58 1736.22 2407.27 1732.47Z" stroke="#000000" stroke-width="3.4375" stroke-miterlimit="8" fill="#FFFFFF" fill-rule="evenodd"/><path d="M1772 1464C1772 1407.67 1953.77 1362 2178 1362 2402.23 1362 2584 1407.67 2584 1464 2584 1520.33 2402.23 1566 2178 1566 1953.77 1566 1772 1520.33 1772 1464Z" fill="#D2DB7E" fill-rule="evenodd"/><path d="M1708.13 1331.69C1713.94 1226.82 1908.41 1152.32 2142.48 1165.29 2376.56 1178.26 2561.61 1273.79 2555.79 1378.67 2549.98 1483.54 2355.51 1558.04 2121.44 1545.06 1887.36 1532.09 1702.31 1436.56 1708.13 1331.69Z" stroke="#000000" stroke-width="6.875" stroke-miterlimit="8" fill="#FFDC6D" fill-rule="evenodd"/><path d="M2141.5 904.5C2367.94 904.5 2551.5 1067.67 2551.5 1268.95 2551.5 1281.53 2550.78 1293.96 2549.38 1306.21L2544.13 1336.82 2504.51 1357.32C2412.39 1400.36 2301.35 1425.5 2181.81 1425.5 2002.51 1425.5 1842.3 1368.94 1736.44 1280.21L1731.9 1276.01 1731.5 1268.95C1731.5 1067.67 1915.06 904.5 2141.5 904.5Z" stroke="#000000" stroke-width="6.875" stroke-miterlimit="8" fill="#2E75B6" fill-rule="evenodd"/><path d="M2170 1095.5C2285.15 1095.5 2378.5 1202.69 2378.5 1334.91 2378.5 1351.44 2377.04 1367.58 2374.26 1383.16L2370 1398.94 2349.55 1404.52C2295.32 1416.2 2237.66 1422.5 2177.87 1422.5 2110.62 1422.5 2046.05 1414.53 1986.03 1399.89L1968.93 1394.96 1965.74 1383.16C1962.96 1367.58 1961.5 1351.44 1961.5 1334.91 1961.5 1202.69 2054.85 1095.5 2170 1095.5Z" stroke="#000000" stroke-width="3.4375" stroke-miterlimit="8" fill="#BDD7EE" fill-rule="evenodd"/><path d="M1771.34 1220.05C1806.77 1216.93 1845.41 1227.02 1878.88 1251.07 1920.71 1281.13 1944.56 1325.88 1946.5 1369.29L1945.33 1389.5 1931.21 1385.43C1855.66 1360.16 1789.26 1323.79 1736.43 1279.36L1731.9 1275.15 1731.5 1268.08C1731.5 1255.48 1732.22 1243.03 1733.61 1230.76L1733.81 1229.62 1745.51 1224.86C1753.83 1222.44 1762.48 1220.83 1771.34 1220.05Z" stroke="#000000" stroke-width="3.4375" stroke-miterlimit="8" fill="#BDD7EE" fill-rule="evenodd"/><path d="M1980.19 932.5 1981.32 933.804C2020.99 988.14 2032.78 1053.34 2006.29 1107.98 1969.21 1184.47 1869.39 1214.94 1770.66 1185.35L1745.5 1175.53 1762.73 1126.19C1799.06 1049.85 1863.8 986.792 1945.16 947.499Z" stroke="#000000" stroke-width="3.4375" stroke-miterlimit="8" fill="#BDD7EE" fill-rule="evenodd"/><path d="M2544.03 1218.5 2546.38 1232.23C2547.78 1244.53 2548.5 1257.02 2548.5 1269.66 2548.5 1282.3 2547.78 1294.78 2546.38 1307.09L2541.12 1337.85 2501.46 1358.43C2478.41 1369.24 2454.18 1378.93 2428.92 1387.38L2417.5 1390.5 2420.81 1357.17C2433.03 1296.6 2474.25 1246.74 2529.1 1223.2Z" stroke="#000000" stroke-width="3.4375" stroke-miterlimit="8" fill="#BDD7EE" fill-rule="evenodd"/><path d="M2138.42 904.5C2209.34 904.5 2276.07 920.44 2334.3 948.501L2336.5 949.685 2329.62 963.076C2296.29 1015.22 2239.84 1049.5 2175.81 1049.5 2098.98 1049.5 2033.06 1000.13 2004.9 929.779L2003.5 925.018 2016.21 920.89C2054.82 910.238 2095.86 904.5 2138.42 904.5Z" stroke="#000000" stroke-width="3.4375" stroke-miterlimit="8" fill="#BDD7EE" fill-rule="evenodd"/><path d="M2380.79 973.5 2403.8 988.862C2454.31 1026.07 2494.65 1073.9 2520.52 1128.52L2542.5 1191.73 2523.29 1201.64C2473.02 1221.64 2414.05 1211.19 2374.62 1170.45 2322.04 1116.11 2324.11 1028.49 2379.24 974.74Z" stroke="#000000" stroke-width="3.4375" stroke-miterlimit="8" fill="#BDD7EE" fill-rule="evenodd"/><path d="M2814.5 1219.5C2801.44 1215.74 2788.39 1211.98 2772.72 1202.15 2757.06 1192.31 2738.78 1176.41 2720.5 1160.5" stroke="#000000" stroke-width="6.875" stroke-miterlimit="8" fill="none" fill-rule="evenodd"/><path d="M2643.5 959C2643.5 918.959 2667.68 886.5 2697.5 886.5 2727.32 886.5 2751.5 918.959 2751.5 959 2751.5 999.041 2727.32 1031.5 2697.5 1031.5 2667.68 1031.5 2643.5 999.041 2643.5 959Z" stroke="#000000" stroke-width="6.875" stroke-miterlimit="8" fill="#D2DB7E" fill-rule="evenodd"/><path d="M2609.06 1018.54C2600.39 980.357 2637.7 939.333 2692.39 926.908 2747.09 914.484 2798.46 935.364 2807.14 973.545 2815.81 1011.73 2778.5 1052.75 2723.8 1065.17 2669.1 1077.6 2617.73 1056.72 2609.06 1018.54Z" fill="#D2DB7E" fill-rule="evenodd"/><path d="M2673.5 1012.5C2673.5 982.677 2688.27 958.5 2706.5 958.5 2724.73 958.5 2739.5 982.677 2739.5 1012.5 2739.5 1042.32 2724.73 1066.5 2706.5 1066.5 2688.27 1066.5 2673.5 1042.32 2673.5 1012.5Z" stroke="#000000" stroke-width="6.875" stroke-miterlimit="8" fill="#FFFFFF" fill-rule="evenodd"/><path d="M2683 1012.5C2683 992.342 2693.07 976 2705.5 976 2717.93 976 2728 992.342 2728 1012.5 2728 1032.66 2717.93 1049 2705.5 1049 2693.07 1049 2683 1032.66 2683 1012.5Z" fill-rule="evenodd"/><path d="M2692 1004C2692 999.582 2695.58 996 2700 996 2704.42 996 2708 999.582 2708 1004 2708 1008.42 2704.42 1012 2700 1012 2695.58 1012 2692 1008.42 2692 1004Z" fill="#FFFFFF" fill-rule="evenodd"/></g></svg>