<svg width="1030" height="1260" xmlns="http://www.w3.org/2000/svg" xmlns:xlink="http://www.w3.org/1999/xlink" xml:space="preserve" overflow="hidden"><defs><clipPath id="clip0"><rect x="3391" y="779" width="1030" height="1260"/></clipPath></defs><g clip-path="url(#clip0)" transform="translate(-3391 -779)"><path d="M4096.5 1867.57C4104.1 1884.88 4111.7 1904.55 4118.62 1926.46 4125.43 1948.09 4130.45 1968.35 4134.16 1986.79 4153.22 2033.67 4203.4 2022.13 4209.42 1972.78 4216.41 1951.08 4223.15 1927.94 4229.37 1903.42 4234.98 1881.34 4239.73 1860.05 4243.72 1839.72 4244.28 1835.09 4244.6 1829.97 4244.47 1824.43 4244.09 1807.77 4239.82 1794.09 4235.74 1784.5 4189.33 1812.19 4142.91 1839.88 4096.5 1867.57Z" stroke="#000000" stroke-width="20.625" stroke-miterlimit="8" fill="#EBE2B3" fill-rule="evenodd"/><path d="M3739.5 1806.5C3740.33 1821.72 3742.87 1830.38 3745.13 1835.54 3749.66 1845.92 3750.65 1848.67 3752.62 1854.17 3753.12 1855.55 3753.51 1856.67 3753.78 1857.46 3756.67 1865.8 3756.77 1867.42 3762.54 1887.25 3771.82 1919.09 3772.57 1918.4 3774.8 1929.31 3777.9 1944.31 3776.32 1944.68 3780.06 1966.09 3783.53 1985.89 3785.38 1995.91 3790.57 2002.87 3791.91 2004.66 3805.17 2021.92 3823.89 2020.41 3836.19 2019.41 3844.36 2010.8 3850.2 2004.62 3853.74 2000.92 3856.49 1997.11 3869.5 1969.59 3877.03 1953.71 3880.84 1945.58 3883.55 1938.06 3884.99 1934.08 3885.96 1930.89 3886.68 1928.11 3889.72 1916.39 3891.99 1907.92 3892.31 1906.53 3894.19 1898.34 3901.16 1882.68 3922.5 1850.3 3892.69 1842.55 3862.28 1834.94 3831.29 1827.53 3800.25 1820.09 3769.64 1813.09 3739.5 1806.5Z" stroke="#000000" stroke-width="20.625" stroke-miterlimit="8" fill="#EBE2B3" fill-rule="evenodd"/><path d="M4322.85 1685.86 3427.61 1506.53C3410.01 1503 3398.62 1485.88 3402.14 1468.32L3450.96 1224.61C3454.49 1207.01 3471.61 1195.62 3489.18 1199.14L4384.39 1378.46C4401.99 1381.99 4413.38 1399.11 4409.86 1416.67L4361.04 1660.38C4357.55 1677.96 4340.42 1689.38 4322.85 1685.86L4322.85 1685.86Z" stroke="#000000" stroke-width="20.625" stroke-miterlimit="8" fill="#A6A897" fill-rule="evenodd"/><path d="M3533.78 1418.11C3531.38 1408.45 3528.59 1393.83 3528.52 1375.94 3528.45 1356.91 3531.55 1351.69 3532.03 1335.55 3532.99 1303.6 3521.53 1301.77 3521.5 1274.08 3521.5 1241.19 3537.53 1215.4 3542.59 1207.35 3554.08 1188.94 3558.66 1191.56 3572.46 1170.47 3585.29 1150.86 3591.21 1133.52 3597.06 1116.02 3607.21 1085.64 3604.8 1079.55 3612.89 1051.03 3618.6 1030.88 3625.86 1005.18 3642.75 979.002 3653.76 961.94 3672.34 945.394 3709.5 912.267 3733.38 890.974 3750.59 877.249 3763.97 866.585 3804.78 834.111 3818.2 827.163 3823.7 824.411 3843.01 814.848 3860.38 806.214 3883.44 806.833 3895.03 807.142 3913.3 808.278 3932.95 808.105 3935.74 808.071 3942.03 808.105 3950.22 807.59 3953.73 807.349 3959.61 806.902 3966.7 805.939 3978.74 804.322 3987.79 802.189 3990.58 801.535 4030.77 792.247 4051.07 786.641 4069.65 791.009 4091.98 796.238 4106.98 809.172 4120.61 820.868 4129.24 828.298 4141.12 843.503 4164.55 873.568 4190.59 907.039 4196.61 916.017 4212 928.022 4227.38 940.027 4229.3 937.207 4240.11 947.355 4254.49 960.839 4259.89 974.083 4273.48 1005.32 4299.46 1065.04 4297.33 1057.23 4299.84 1065.04 4302.38 1073.05 4303.83 1080.93 4307.1 1096.61 4311.23 1116.46 4312.43 1126.03 4317.42 1154.65 4321.31 1176.87 4323.13 1188.01 4324.44 1193.28 4333.25 1228.95 4346.5 1253.17 4350.8 1261.77 4370.92 1301.94 4368.89 1349.45 4364.87 1444.46 4362.43 1502.08 4361.08 1533.38 4347.29 1574.46 4340.16 1595.65 4336.9 1598.09 4319.18 1646.49 4304.17 1687.42 4301.7 1698.85 4289.31 1727.29 4275.55 1758.94 4268.66 1774.76 4254.18 1792.27 4248.05 1799.7 4233.77 1815.67 4196.2 1837.96 4164.96 1856.5 4129.79 1877.34 4078.49 1887.15 4004.52 1901.29 3942.72 1883.74 3918.6 1876.62 3903.56 1872.18 3898.47 1869.5 3869.4 1860.8 3855.41 1856.61 3844.29 1853.55 3834.84 1851.1 3797.46 1841.42 3794.69 1842.15 3776.29 1836.2 3764.88 1832.51 3757.22 1829.34 3743.41 1823.58 3716.93 1812.55 3693.8 1802.91 3676.13 1792.27 3632.41 1765.96 3609.81 1726.21 3600.57 1709.72 3593.69 1697.43 3584.26 1669.33 3565.44 1613.09 3553.02 1575.97 3546.72 1557.15 3544.35 1544.6 3539.74 1520.28 3538.32 1497.09 3535.57 1451.51 3534.68 1437.38 3534.13 1425.78 3533.78 1418.11Z" stroke="#000000" stroke-width="20.625" stroke-miterlimit="8" fill="#EBE2B3" fill-rule="evenodd"/><path d="M3778.81 944.938 3791.95 920.12 3909.86 982.575 3896.71 1007.39Z" stroke="#000000" stroke-width="10.3143" stroke-miterlimit="8" fill="#595850" fill-rule="evenodd"/><path d="M4032.5 977.141 4152.73 919.275 4164.91 944.582 4044.68 1002.45Z" stroke="#000000" stroke-width="10.3143" stroke-miterlimit="8" fill="#595850" fill-rule="evenodd"/><path d="M4234 2029.5C4234 2034.75 4129.23 2039 4000 2039 3870.77 2039 3766 2034.75 3766 2029.5 3766 2024.25 3870.77 2020 4000 2020 4129.23 2020 4234 2024.25 4234 2029.5Z" fill="#5B5742" fill-rule="evenodd" fill-opacity="0.470588"/><path d="M3878.5 1068.5C3878.5 1091.7 3859.7 1110.5 3836.5 1110.5 3813.3 1110.5 3794.5 1091.7 3794.5 1068.5 3794.5 1045.3 3813.3 1026.5 3836.5 1026.5 3859.7 1026.5 3878.5 1045.3 3878.5 1068.5Z" stroke="#000000" stroke-width="20.625" stroke-miterlimit="8" fill="#231815" fill-rule="evenodd"/><path d="M4152.5 1068.5C4152.5 1091.7 4133.92 1110.5 4111 1110.5 4088.08 1110.5 4069.5 1091.7 4069.5 1068.5 4069.5 1045.3 4088.08 1026.5 4111 1026.5 4133.92 1026.5 4152.5 1045.3 4152.5 1068.5Z" stroke="#000000" stroke-width="20.625" stroke-miterlimit="8" fill="#231815" fill-rule="evenodd"/><path d="M3861 1081C3861 1092.05 3852.05 1101 3841 1101 3829.95 1101 3821 1092.05 3821 1081 3821 1069.95 3829.95 1061 3841 1061 3852.05 1061 3861 1069.95 3861 1081Z" fill="#FFFFFF" fill-rule="evenodd"/><path d="M4130 1081C4130 1092.05 4121.05 1101 4110 1101 4098.95 1101 4090 1092.05 4090 1081 4090 1069.95 4098.95 1061 4110 1061 4121.05 1061 4130 1069.95 4130 1081Z" fill="#FFFFFF" fill-rule="evenodd"/><path d="M4056 1196C4056 1208.15 4022.42 1218 3981 1218 3939.58 1218 3906 1208.15 3906 1196 3906 1183.85 3939.58 1174 3981 1174 4022.42 1174 4056 1183.85 4056 1196Z" stroke="#000000" stroke-width="10.3125" stroke-miterlimit="8" fill="#E73A8F" fill-rule="evenodd"/><path d="M3662.85 1183.74C3672.12 1186 3688.91 1188.54 3705.07 1180.62 3716.1 1175.21 3723.58 1164.73 3738.08 1143.99 3748.29 1129.37 3756.03 1118.3 3763.55 1101.41 3770.2 1086.49 3773.13 1074.04 3778.99 1049.12 3785.89 1019.83 3789.3 1004.85 3787.55 988.298 3786.37 977.174 3783.86 953.434 3768.49 946.162 3759.06 941.697 3748.74 945.312 3744.81 946.689 3703.5 961.161 3662.02 1118.31 3656 1141.57 3658.29 1155.63 3660.57 1169.68 3662.85 1183.74Z" fill="#5B5742" fill-rule="evenodd" fill-opacity="0.431373"/><path d="M3531.98 1284.89C3530.36 1283.07 3520.18 1271.31 3521.64 1256.73 3522.63 1246.86 3528.5 1240.11 3531.55 1236.52 3545.04 1220.61 3554.54 1201.63 3567.74 1185.47 3573 1179.02 3570.94 1181.1 3621.97 1101.39 3639.15 1074.55 3647.69 1061.08 3654.23 1051.27 3671.17 1025.86 3684.16 1007.94 3705.16 976.986 3706.92 973.65 3712.15 963.632 3723.25 957.157 3793.34 921.629 3754.18 1100.47 3748.31 1118.81 3740.11 1146.96 3734.48 1154.21 3720.13 1184.38 3713.13 1199.09 3708.23 1210.21 3704.76 1218.41 3686.3 1262.07 3685.47 1277.58 3669.35 1288.2 3661.82 1293.16 3653.77 1295.18 3646.77 1295.92 3626.88 1299.67 3610.22 1300.5 3598.36 1300.5 3568.72 1300.5 3545.95 1300.55 3531.98 1284.89Z" stroke="#000000" stroke-width="20.625" stroke-miterlimit="8" fill="#EBE2B3" fill-rule="evenodd"/><path d="M4154.04 1458.22C4166.18 1466.51 4199.9 1443.75 4213.49 1432.14 4224.64 1422.64 4234.51 1410.17 4238.25 1405.23 4240.73 1402 4245.84 1395.06 4251.41 1385.63 4260.64 1369.98 4263.61 1360.66 4271.7 1339.54 4282.57 1311.17 4291.63 1294.23 4295.37 1267.25 4296.19 1261.46 4297.08 1252.8 4291.99 1247.81 4285.49 1241.46 4272.98 1244.73 4268.48 1245.78 4224.48 1256.18 4125.66 1438.92 4154.04 1458.22L4154.04 1458.22Z" fill="#5B5742" fill-rule="evenodd" fill-opacity="0.431373"/><path d="M4299.93 1065.5C4288.88 1066.65 4272.17 1070.24 4258.91 1082.75 4247.59 1093.42 4243.98 1105.68 4234.32 1140.62 4227.42 1165.59 4223.97 1178.08 4218.52 1198.48 4208.58 1235.71 4201.3 1244.42 4185.32 1287.08 4164.97 1341.4 4141.01 1406.89 4158.62 1422 4162.47 1425.3 4171.37 1427.33 4195.65 1414.74 4266.32 1378.09 4307.97 1299.05 4328.5 1250.9 4324.56 1233.97 4321.16 1214.64 4319.22 1193.25 4317.99 1179.65 4317.49 1166.84 4317.5 1154.96 4315.99 1145.3 4314.32 1135.49 4312.5 1125.54 4308.69 1104.72 4304.46 1084.69 4299.93 1065.5Z" stroke="#000000" stroke-width="20.625" stroke-miterlimit="8" fill="#EBE2B3" fill-rule="evenodd"/></g></svg>