<svg width="245" height="100" xmlns="http://www.w3.org/2000/svg" xmlns:xlink="http://www.w3.org/1999/xlink" xml:space="preserve" overflow="hidden"><g transform="translate(-1788 -1530)"><path d="M1805.62 1581.24C1810.52 1569.35 1824.16 1553.94 1849.07 1544.75 1867.41 1537.98 1882.65 1538 1896.32 1538 1901.83 1538 1921.37 1538.26 1945.91 1545.04 1958.09 1548.41 1974.67 1553.13 1993.16 1565.29 2005.36 1573.31 2022.63 1582.56 2020.88 1589.06 2020.42 1590.77 2018.36 1593.38 1986.16 1597.28 1967.64 1599.52 1956.41 1600.21 1956.41 1600.21 1940.73 1601.18 1924.37 1602.18 1905.07 1601.97 1898.31 1601.9 1806.79 1600.56 1805.02 1584.12 1804.92 1583.08 1805.19 1582.27 1805.62 1581.24Z" fill="#F2F091" fill-rule="evenodd"/><path d="M1800.85 1593.82C1793.68 1599.96 1790.49 1613.5 1795.28 1618.68 1798.28 1621.91 1803.81 1621.26 1806.12 1621.02 1825.07 1619.08 1844.53 1623.61 1863.26 1620.14 1918.68 1609.87 2017.68 1632.93 2024.11 1617.51 2025.08 1615.2 2025.58 1612.25 2025.58 1612.25 2026.64 1605.98 2025.77 1597.32 2022.07 1593.82 2016.19 1588.28 2003.31 1596.02 1988.08 1600.26 1978.05 1603.05 1963.62 1602.9 1934.75 1602.6 1890.25 1602.13 1868 1601.3 1844.22 1596.16 1823.08 1591.59 1809.78 1586.19 1800.85 1593.82Z" fill="#EDB67E" fill-rule="evenodd"/><path d="M2021.5 1593.09C1988.07 1600.47 1935.87 1608.29 1873.38 1602.47 1846.49 1599.97 1823.02 1595.43 1803.5 1590.5" stroke="#000000" stroke-width="6.875" stroke-miterlimit="8" fill="none" fill-rule="evenodd"/><path d="M1793 1624C1792.99 1608.78 1796.32 1596.91 1799.05 1589.48 1802.55 1579.98 1807.98 1565.19 1822.31 1553.99 1831.86 1546.53 1841.89 1543.43 1851.32 1540.43 1861.84 1537.09 1870.2 1536 1873.45 1535.64 1873.45 1535.64 1883.06 1534.56 1893.23 1535.2 1893.23 1535.2 1893.37 1535.21 1893.61 1535.23 2005.19 1542.41 2024.57 1591.99 2024.57 1591.99 2027.01 1598.23 2029.27 1607.82 2027.17 1621.36 1949.11 1622.24 1871.06 1623.12 1793 1624Z" stroke="#000000" stroke-width="10.3125" stroke-miterlimit="8" fill="none" fill-rule="evenodd"/><path d="M1972.58 1557.13 1947.4 1548.82C1943.65 1547.59 1941.62 1543.56 1942.87 1539.84L1943.36 1538.36C1944.61 1534.64 1948.67 1532.63 1952.42 1533.86L1977.6 1542.17C1981.35 1543.41 1983.38 1547.43 1982.13 1551.16L1981.64 1552.63C1980.39 1556.36 1976.33 1558.38 1972.58 1557.13Z" stroke="#000000" stroke-width="3.4375" stroke-miterlimit="8" fill="#403290" fill-rule="evenodd"/></g></svg>