<svg width="1003" height="1266" xmlns="http://www.w3.org/2000/svg" xmlns:xlink="http://www.w3.org/1999/xlink" xml:space="preserve" overflow="hidden"><defs><clipPath id="clip0"><rect x="1573" y="1049" width="1003" height="1266"/></clipPath></defs><g clip-path="url(#clip0)" transform="translate(-1573 -1049)"><path d="M1878.5 2100.5C1880.73 2105.01 1882.55 2108.9 1883.89 2111.9 1888.59 2122.47 1891.44 2130.7 1892.54 2133.9 1895.42 2142.26 1895.52 2143.88 1901.29 2163.78 1910.56 2195.73 1911.31 2195.05 1913.54 2205.99 1916.63 2221.04 1915.05 2221.42 1918.79 2242.9 1922.26 2262.77 1924.11 2272.82 1929.3 2279.81 1930.64 2281.6 1943.88 2298.92 1962.59 2297.41 1974.88 2296.41 1983.05 2287.77 1988.88 2281.57 1992.42 2277.85 1995.16 2274.03 2008.17 2246.42 2015.69 2230.47 2019.5 2222.31 2022.21 2214.77 2023.65 2210.78 2024.61 2207.58 2025.33 2204.79 2028.28 2193.53 2030.17 2186.27 2030.96 2183.13 2032.78 2175.9 2037.14 2165.64 2048.5 2153.25 1991.83 2135.65 1935.17 2118.09 1878.5 2100.5L1878.5 2100.5Z" stroke="#000000" stroke-width="20.625" stroke-miterlimit="8" fill="#EBE2B3" fill-rule="evenodd"/><path d="M2234.5 2144.1C2242.11 2161.46 2249.73 2181.2 2256.66 2203.17 2263.48 2224.88 2268.51 2245.2 2272.23 2263.7 2291.32 2310.72 2341.6 2299.15 2347.63 2249.64 2354.62 2227.87 2361.38 2204.66 2367.61 2180.06 2373.23 2157.91 2377.99 2136.55 2381.98 2116.16 2382.5 2105.93 2382.98 2095.7 2383.5 2085.5L2234.57 2144.1 2234.5 2144.1Z" stroke="#000000" stroke-width="20.625" stroke-miterlimit="8" fill="#EBE2B3" fill-rule="evenodd"/><path d="M1673.77 1687.54C1671.36 1677.88 1668.58 1663.28 1668.51 1645.41 1668.44 1626.4 1671.54 1621.18 1672.02 1605.06 1672.98 1573.13 1661.53 1571.31 1661.5 1543.64 1661.5 1510.79 1677.52 1485.01 1682.57 1476.97 1694.05 1458.58 1698.62 1461.19 1712.4 1440.12 1725.22 1420.53 1731.13 1403.21 1736.97 1385.72 1747.11 1355.37 1744.7 1349.29 1752.78 1320.8 1758.48 1300.66 1765.74 1274.98 1782.61 1248.83 1793.61 1231.78 1812.17 1215.25 1849.28 1182.16 1873.13 1160.88 1890.32 1147.17 1903.69 1136.51 1944.44 1104.07 1957.85 1097.13 1963.35 1094.38 1982.63 1084.82 1999.98 1076.2 2023.01 1076.82 2034.59 1077.13 2052.84 1078.26 2072.46 1078.09 2075.25 1078.05 2081.53 1078.09 2089.71 1077.57 2093.22 1077.33 2099.1 1076.89 2106.18 1075.92 2118.2 1074.31 2127.24 1072.18 2130.03 1071.52 2170.17 1062.24 2190.44 1056.64 2209 1061.01 2231.31 1066.23 2246.29 1079.15 2259.9 1090.84 2268.53 1098.26 2280.38 1113.45 2303.79 1143.49 2329.8 1176.93 2335.82 1185.9 2351.18 1197.9 2366.54 1209.89 2368.47 1207.07 2379.26 1217.21 2393.62 1230.68 2399.02 1243.92 2412.59 1275.12 2438.54 1334.79 2436.41 1326.98 2438.92 1334.79 2441.46 1342.79 2442.91 1350.66 2446.17 1366.34 2450.29 1386.17 2451.5 1395.72 2456.48 1424.31 2460.36 1446.52 2462.19 1457.65 2463.49 1462.91 2472.29 1498.55 2485.52 1522.75 2489.82 1531.34 2509.92 1571.48 2507.89 1618.94 2503.87 1713.87 2501.43 1771.43 2500.09 1802.71 2486.31 1843.75 2479.2 1864.92 2475.93 1867.36 2458.23 1915.71 2443.25 1956.61 2440.77 1968.02 2428.4 1996.44 2414.66 2028.06 2407.78 2043.87 2393.31 2061.36 2387.2 2068.79 2372.93 2084.74 2335.4 2107.01 2304.2 2125.53 2269.08 2146.36 2217.83 2156.15 2143.95 2170.28 2082.22 2152.75 2058.13 2145.64 2043.11 2141.2 2038.03 2138.52 2008.99 2129.83 1959.6 2115.05 1945.85 2114.26 1915.99 2105.25 1898.12 2099.86 1889.15 2097.35 1877.98 2093.05 1866.74 2088.72 1841.27 2078.72 1815.95 2061.36 1772.88 2031.91 1749.2 1994.42 1740.48 1978.88 1733.6 1966.61 1724.19 1938.53 1705.39 1882.34 1692.98 1845.26 1686.69 1826.46 1684.32 1813.91 1679.71 1789.61 1678.31 1766.45 1675.56 1720.91 1674.66 1706.79 1674.11 1695.21 1673.77 1687.54Z" stroke="#000000" stroke-width="20.625" stroke-miterlimit="8" fill="#EBE2B3" fill-rule="evenodd"/><path d="M1918.3 1214.63 1931.44 1189.81 2049.34 1252.26 2036.19 1277.08Z" stroke="#000000" stroke-width="10.3132" stroke-miterlimit="8" fill="#595850" fill-rule="evenodd"/><path d="M2172.21 1250.32 2292.43 1192.46 2304.61 1217.76 2184.39 1275.63Z" stroke="#000000" stroke-width="10.3132" stroke-miterlimit="8" fill="#595850" fill-rule="evenodd"/><path d="M2373 2306C2373 2310.97 2268.23 2315 2139 2315 2009.77 2315 1905 2310.97 1905 2306 1905 2301.03 2009.77 2297 2139 2297 2268.23 2297 2373 2301.03 2373 2306Z" fill="#5B5742" fill-rule="evenodd" fill-opacity="0.470588"/><path d="M2195 1473C2195 1485.15 2161.2 1495 2119.5 1495 2077.8 1495 2044 1485.15 2044 1473 2044 1460.85 2077.8 1451 2119.5 1451 2161.2 1451 2195 1460.85 2195 1473Z" stroke="#000000" stroke-width="10.3125" stroke-miterlimit="8" fill="#E73A8F" fill-rule="evenodd"/><path d="M1905.44 1285.39C1892.05 1295.48 1899.86 1330.46 1913.45 1352.35 1918.31 1360.18 1929.06 1377.49 1951.11 1384.05 1970.03 1389.68 1986.07 1384.08 1990.64 1382.3 2014.13 1373.16 2035.78 1347.62 2030.77 1329.12 2028.52 1320.78 2022.08 1318.39 1948.47 1293.3 1923.91 1284.92 1911.5 1280.83 1905.44 1285.39Z" stroke="#000000" stroke-width="20.625" stroke-miterlimit="8" fill="#231815" fill-rule="evenodd"/><path d="M2278.33 1704.68C2285.93 1717.32 2326.22 1710.77 2343.47 1705.92 2357.62 1701.95 2371.84 1694.76 2377.31 1691.83 2380.93 1689.93 2388.5 1685.77 2397.52 1679.53 2412.5 1669.17 2419.11 1661.93 2435.33 1646.12 2457.12 1624.87 2472.48 1613.26 2487.18 1590.29 2490.35 1585.37 2494.79 1577.86 2492.24 1571.18 2488.97 1562.67 2476.2 1560.4 2471.65 1559.47 2427.17 1550.44 2260.52 1675.19 2278.33 1704.68L2278.33 1704.68Z" fill="#5B5742" fill-rule="evenodd" fill-opacity="0.431373"/><path d="M1995 1358C1995 1369.05 1986.05 1378 1975 1378 1963.95 1378 1955 1369.05 1955 1358 1955 1346.95 1963.95 1338 1975 1338 1986.05 1338 1995 1346.95 1995 1358Z" fill="#FFFFFF" fill-rule="evenodd"/><path d="M2308.56 1285.39C2321.95 1295.48 2314.14 1330.46 2300.55 1352.35 2295.69 1360.18 2284.94 1377.49 2262.89 1384.05 2243.97 1389.68 2227.93 1384.08 2223.36 1382.3 2199.87 1373.16 2178.22 1347.62 2183.23 1329.12 2185.48 1320.78 2191.92 1318.39 2265.53 1293.3 2290.09 1284.92 2302.5 1280.83 2308.56 1285.39Z" stroke="#000000" stroke-width="20.625" stroke-miterlimit="8" fill="#231815" fill-rule="evenodd"/><path d="M2269 1358C2269 1369.05 2260.05 1378 2249 1378 2237.95 1378 2229 1369.05 2229 1358 2229 1346.95 2237.95 1338 2249 1338 2260.05 1338 2269 1346.95 2269 1358Z" fill="#FFFFFF" fill-rule="evenodd"/><path d="M2443.07 1365.52C2440.24 1365.77 2442.26 1369.93 2423.68 1397.8 2423.68 1397.8 2415.16 1413.56 2408.78 1425 2401.46 1438.11 2395.88 1447.41 2387.73 1460.96 2368.29 1493.31 2368.35 1491.42 2361.43 1503.95 2357.24 1511.53 2353.51 1518.94 2339.51 1551.32 2317.04 1603.25 2310.1 1605.57 2313.2 1613.6 2322.11 1636.65 2382.18 1644.94 2423.68 1621.5 2431.66 1616.98 2437.73 1611.11 2449.99 1599.57 2485.91 1565.71 2493.8 1557.66 2496.02 1546.7 2497.01 1541.85 2496.7 1539.06 2492.9 1517.42 2486.55 1481.27 2483.38 1463.19 2481.55 1455.7 2478.56 1443.44 2459.18 1364.09 2443.07 1365.52Z" stroke="#000000" stroke-width="20.625" stroke-miterlimit="8" fill="#EBE2B3" fill-rule="evenodd"/><path d="M2533.52 1924.17 1620.13 1937.5C1602.17 1937.75 1587.42 1923.41 1587.15 1905.49L1583.5 1656.81C1583.25 1638.85 1597.59 1624.1 1615.51 1623.84L2528.87 1610.5C2546.83 1610.25 2561.58 1624.59 2561.85 1642.51L2565.5 1891.19C2565.79 1909.12 2551.45 1923.9 2533.52 1924.17Z" stroke="#000000" stroke-width="20.625" stroke-miterlimit="8" fill="#A6A897" fill-rule="evenodd"/><path d="M1860.51 1696.08 1830.99 1696.5C1826.51 1696.56 1822.83 1693.03 1822.73 1688.59L1822.5 1673.09C1822.44 1668.66 1826 1665.01 1830.49 1664.92L1860.01 1664.5C1864.49 1664.44 1868.17 1667.97 1868.27 1672.41L1868.5 1687.91C1868.56 1692.38 1864.99 1696.02 1860.51 1696.08Z" stroke="#000000" stroke-width="3.4375" stroke-miterlimit="8" fill="#D6DBD9" fill-rule="evenodd"/><path d="M1998.68 1694.08 1969.81 1694.5C1965.42 1694.56 1961.82 1691.03 1961.73 1686.59L1961.5 1671.1C1961.44 1666.66 1964.93 1663.01 1969.32 1662.92L1998.19 1662.5C2002.58 1662.44 2006.18 1665.97 2006.27 1670.41L2006.5 1685.91C2006.56 1690.34 2003.07 1694.02 1998.68 1694.08Z" stroke="#000000" stroke-width="3.4375" stroke-miterlimit="8" fill="#D6DBD9" fill-rule="evenodd"/><path d="M1672.51 1699.08 1642.99 1699.5C1638.51 1699.56 1634.83 1696.03 1634.73 1691.59L1634.5 1676.09C1634.44 1671.66 1638 1668.01 1642.49 1667.92L1672.01 1667.5C1676.49 1667.44 1680.17 1670.97 1680.27 1675.41L1680.5 1690.91C1680.6 1695.35 1676.99 1699.02 1672.51 1699.08Z" stroke="#000000" stroke-width="3.4375" stroke-miterlimit="8" fill="#D6DBD9" fill-rule="evenodd"/><path d="M1734.51 1698.08 1704.99 1698.5C1700.51 1698.56 1696.83 1695.03 1696.73 1690.59L1696.5 1675.09C1696.44 1670.66 1700 1667.01 1704.49 1666.92L1734.01 1666.5C1738.49 1666.44 1742.17 1669.97 1742.27 1674.41L1742.5 1689.91C1742.59 1694.39 1738.99 1698.02 1734.51 1698.08Z" stroke="#000000" stroke-width="3.4375" stroke-miterlimit="8" fill="#D6DBD9" fill-rule="evenodd"/><path d="M2242.51 1691.08 2212.99 1691.5C2208.51 1691.56 2204.83 1688.03 2204.73 1683.59L2204.5 1668.09C2204.44 1663.66 2208 1660.01 2212.49 1659.92L2242.01 1659.5C2246.49 1659.44 2250.17 1662.97 2250.27 1667.41L2250.5 1682.91C2250.6 1687.35 2247 1690.99 2242.51 1691.08Z" stroke="#000000" stroke-width="3.4375" stroke-miterlimit="8" fill="#D6DBD9" fill-rule="evenodd"/><path d="M1797.68 1697.08 1768.81 1697.5C1764.42 1697.56 1760.82 1694.03 1760.73 1689.59L1760.5 1674.09C1760.44 1669.66 1763.93 1666.01 1768.32 1665.92L1797.19 1665.5C1801.58 1665.44 1805.18 1668.97 1805.27 1673.41L1805.5 1688.91C1805.59 1693.35 1802.07 1697.02 1797.68 1697.08Z" stroke="#000000" stroke-width="3.4375" stroke-miterlimit="8" fill="#D6DBD9" fill-rule="evenodd"/><path d="M2061.51 1693.08 2031.99 1693.5C2027.51 1693.56 2023.83 1690.03 2023.73 1685.59L2023.5 1670.09C2023.44 1665.66 2027 1662.01 2031.49 1661.92L2061.01 1661.5C2065.49 1661.44 2069.17 1664.97 2069.27 1669.41L2069.5 1684.91C2069.56 1689.35 2065.99 1693.02 2061.51 1693.08Z" stroke="#000000" stroke-width="3.4375" stroke-miterlimit="8" fill="#D6DBD9" fill-rule="evenodd"/><path d="M2121.51 1692.08 2091.99 1692.5C2087.51 1692.56 2083.83 1689.03 2083.73 1684.59L2083.5 1669.09C2083.44 1664.66 2087 1661.01 2091.49 1660.92L2121.01 1660.5C2125.49 1660.44 2129.17 1663.97 2129.27 1668.41L2129.5 1683.91C2129.56 1688.38 2125.99 1692.02 2121.51 1692.08Z" stroke="#000000" stroke-width="3.4375" stroke-miterlimit="8" fill="#D6DBD9" fill-rule="evenodd"/><path d="M2181.68 1692.08 2152.81 1692.5C2148.42 1692.56 2144.82 1689.03 2144.73 1684.59L2144.5 1669.1C2144.44 1664.66 2147.93 1661.01 2152.32 1660.92L2181.19 1660.5C2185.58 1660.44 2189.18 1663.97 2189.27 1668.41L2189.5 1683.91C2189.59 1688.35 2186.07 1692.02 2181.68 1692.08Z" stroke="#000000" stroke-width="3.4375" stroke-miterlimit="8" fill="#D6DBD9" fill-rule="evenodd"/><path d="M1929.51 1695.08 1899.99 1695.5C1895.51 1695.56 1891.83 1692.03 1891.73 1687.59L1891.5 1672.1C1891.44 1667.66 1895 1664.01 1899.49 1663.92L1929.01 1663.5C1933.49 1663.44 1937.17 1666.97 1937.27 1671.41L1937.5 1686.91C1937.59 1691.39 1933.99 1695.02 1929.51 1695.08Z" stroke="#000000" stroke-width="3.4375" stroke-miterlimit="8" fill="#D6DBD9" fill-rule="evenodd"/><path d="M2311.68 1688.08 2282.81 1688.5C2278.42 1688.56 2274.82 1685.03 2274.73 1680.59L2274.5 1665.09C2274.44 1660.66 2277.93 1657.01 2282.32 1656.92L2311.19 1656.5C2315.58 1656.44 2319.18 1659.97 2319.27 1664.41L2319.5 1679.91C2319.6 1684.35 2316.07 1688.02 2311.68 1688.08Z" stroke="#000000" stroke-width="3.4375" stroke-miterlimit="8" fill="#D6DBD9" fill-rule="evenodd"/><path d="M1701.57 1743.65 1641.93 1744.5C1637.48 1744.56 1633.83 1741.08 1633.73 1736.69L1633.5 1721.41C1633.44 1717.03 1636.98 1713.44 1641.43 1713.34L1701.07 1712.5C1705.52 1712.44 1709.17 1715.92 1709.27 1720.31L1709.5 1735.59C1709.59 1740 1706.02 1743.59 1701.57 1743.65Z" stroke="#000000" stroke-width="3.4375" stroke-miterlimit="8" fill="#D6DBD9" fill-rule="evenodd"/><path d="M1752.54 1743.27 1736.96 1743.5C1732.49 1743.56 1728.83 1740.01 1728.73 1735.54L1728.5 1719.96C1728.44 1715.49 1731.99 1711.83 1736.46 1711.73L1752.04 1711.5C1756.51 1711.44 1760.17 1714.99 1760.27 1719.46L1760.5 1735.04C1760.55 1739.54 1757.01 1743.2 1752.54 1743.27Z" stroke="#000000" stroke-width="3.4375" stroke-miterlimit="8" fill="#D6DBD9" fill-rule="evenodd"/><path d="M1797.54 1742.27 1781.96 1742.5C1777.49 1742.56 1773.83 1739.01 1773.73 1734.54L1773.5 1718.96C1773.44 1714.49 1776.99 1710.83 1781.46 1710.73L1797.04 1710.5C1801.51 1710.44 1805.17 1713.99 1805.27 1718.46L1805.5 1734.04C1805.59 1738.51 1802 1742.21 1797.54 1742.27Z" stroke="#000000" stroke-width="3.4375" stroke-miterlimit="8" fill="#D6DBD9" fill-rule="evenodd"/><path d="M1845.54 1742.27 1829.96 1742.5C1825.49 1742.56 1821.83 1739.01 1821.73 1734.54L1821.5 1718.96C1821.44 1714.49 1824.99 1710.83 1829.46 1710.73L1845.04 1710.5C1849.51 1710.44 1853.17 1713.99 1853.27 1718.46L1853.5 1734.04C1853.6 1738.51 1850.01 1742.21 1845.54 1742.27Z" stroke="#000000" stroke-width="3.4375" stroke-miterlimit="8" fill="#D6DBD9" fill-rule="evenodd"/><path d="M1890.79 1741.27 1875.69 1741.5C1871.37 1741.56 1867.82 1738.01 1867.73 1733.54L1867.5 1717.96C1867.44 1713.49 1870.88 1709.83 1875.21 1709.73L1890.31 1709.5C1894.63 1709.44 1898.18 1712.99 1898.28 1717.46L1898.5 1733.04C1898.56 1737.55 1895.12 1741.21 1890.79 1741.27L1890.79 1741.27Z" stroke="#000000" stroke-width="3.4375" stroke-miterlimit="8" fill="#D6DBD9" fill-rule="evenodd"/><path d="M1945.54 1741.27 1929.96 1741.5C1925.49 1741.56 1921.83 1738.01 1921.73 1733.54L1921.5 1717.96C1921.44 1713.49 1924.99 1709.83 1929.46 1709.73L1945.04 1709.5C1949.51 1709.44 1953.17 1712.99 1953.27 1717.46L1953.5 1733.04C1953.6 1737.51 1950 1741.21 1945.54 1741.27Z" stroke="#000000" stroke-width="3.4375" stroke-miterlimit="8" fill="#D6DBD9" fill-rule="evenodd"/><path d="M1990.54 1740.27 1974.96 1740.5C1970.49 1740.56 1966.83 1737.01 1966.73 1732.54L1966.5 1716.96C1966.44 1712.49 1969.99 1708.83 1974.46 1708.73L1990.04 1708.5C1994.51 1708.44 1998.17 1711.99 1998.27 1716.46L1998.5 1732.04C1998.59 1736.55 1995 1740.2 1990.54 1740.27Z" stroke="#000000" stroke-width="3.4375" stroke-miterlimit="8" fill="#D6DBD9" fill-rule="evenodd"/><path d="M2038.79 1739.28 2023.69 1739.5C2019.37 1739.56 2015.82 1736.12 2015.72 1731.79L2015.5 1716.69C2015.44 1712.37 2018.88 1708.82 2023.21 1708.73L2038.31 1708.5C2042.63 1708.44 2046.18 1711.88 2046.28 1716.21L2046.5 1731.31C2046.56 1735.67 2043.12 1739.21 2038.79 1739.28Z" stroke="#000000" stroke-width="3.4375" stroke-miterlimit="8" fill="#D6DBD9" fill-rule="evenodd"/><path d="M2081.54 1738.27 2065.96 1738.5C2061.49 1738.56 2057.83 1735.01 2057.73 1730.54L2057.5 1714.96C2057.44 1710.49 2060.99 1706.83 2065.46 1706.73L2081.04 1706.5C2085.51 1706.44 2089.17 1709.99 2089.27 1714.46L2089.5 1730.04C2089.56 1734.51 2086.01 1738.21 2081.54 1738.27Z" stroke="#000000" stroke-width="3.4375" stroke-miterlimit="8" fill="#D6DBD9" fill-rule="evenodd"/><path d="M2130.54 1738.27 2114.96 1738.5C2110.49 1738.56 2106.83 1735.01 2106.73 1730.54L2106.5 1714.96C2106.44 1710.49 2109.99 1706.83 2114.46 1706.73L2130.04 1706.5C2134.51 1706.44 2138.17 1709.99 2138.27 1714.46L2138.5 1730.04C2138.56 1734.51 2135.01 1738.21 2130.54 1738.27Z" stroke="#000000" stroke-width="3.4375" stroke-miterlimit="8" fill="#D6DBD9" fill-rule="evenodd"/><path d="M2176.54 1737.27 2160.96 1737.5C2156.49 1737.56 2152.83 1734.01 2152.73 1729.54L2152.5 1713.96C2152.44 1709.49 2155.99 1705.83 2160.46 1705.73L2176.04 1705.5C2180.51 1705.44 2184.17 1708.99 2184.27 1713.46L2184.5 1729.04C2184.6 1733.51 2181.01 1737.2 2176.54 1737.27Z" stroke="#000000" stroke-width="3.4375" stroke-miterlimit="8" fill="#D6DBD9" fill-rule="evenodd"/><path d="M2224.54 1736.27 2208.96 1736.5C2204.49 1736.56 2200.83 1733.01 2200.73 1728.54L2200.5 1712.96C2200.44 1708.49 2203.99 1704.83 2208.46 1704.73L2224.04 1704.5C2228.51 1704.44 2232.17 1707.99 2232.27 1712.46L2232.5 1728.04C2232.59 1732.55 2229 1736.21 2224.54 1736.27Z" stroke="#000000" stroke-width="3.4375" stroke-miterlimit="8" fill="#D6DBD9" fill-rule="evenodd"/><path d="M2269.54 1736.27 2253.96 1736.5C2249.49 1736.56 2245.83 1733.01 2245.73 1728.54L2245.5 1712.96C2245.44 1708.49 2248.99 1704.83 2253.46 1704.73L2269.04 1704.5C2273.51 1704.44 2277.17 1707.99 2277.27 1712.46L2277.5 1728.04C2277.55 1732.54 2274 1736.2 2269.54 1736.27Z" stroke="#000000" stroke-width="3.4375" stroke-miterlimit="8" fill="#D6DBD9" fill-rule="evenodd"/><path d="M2311.54 1735.28 2295.96 1735.5C2291.49 1735.56 2287.83 1732.12 2287.73 1727.79L2287.5 1712.69C2287.44 1708.37 2290.99 1704.82 2295.46 1704.73L2311.04 1704.5C2315.51 1704.44 2319.17 1707.88 2319.27 1712.21L2319.5 1727.31C2319.59 1731.68 2316 1735.21 2311.54 1735.28Z" stroke="#000000" stroke-width="3.4375" stroke-miterlimit="8" fill="#D6DBD9" fill-rule="evenodd"/><path d="M1816.54 1788.27 1800.96 1788.5C1796.49 1788.56 1792.83 1785.01 1792.73 1780.54L1792.5 1764.96C1792.44 1760.49 1795.99 1756.83 1800.46 1756.73L1816.04 1756.5C1820.51 1756.44 1824.17 1759.99 1824.27 1764.46L1824.5 1780.04C1824.56 1784.51 1821.01 1788.21 1816.54 1788.27Z" stroke="#000000" stroke-width="3.4375" stroke-miterlimit="8" fill="#D6DBD9" fill-rule="evenodd"/><path d="M1866.79 1788.27 1851.69 1788.5C1847.37 1788.56 1843.82 1785.01 1843.72 1780.54L1843.5 1764.96C1843.44 1760.49 1846.88 1756.83 1851.21 1756.73L1866.31 1756.5C1870.63 1756.44 1874.18 1759.99 1874.27 1764.46L1874.5 1780.04C1874.56 1784.51 1871.12 1788.21 1866.79 1788.27Z" stroke="#000000" stroke-width="3.4375" stroke-miterlimit="8" fill="#D6DBD9" fill-rule="evenodd"/><path d="M1913.79 1788.27 1898.69 1788.5C1894.37 1788.56 1890.82 1785.01 1890.73 1780.54L1890.5 1764.96C1890.44 1760.49 1893.88 1756.83 1898.21 1756.73L1913.31 1756.5C1917.63 1756.44 1921.18 1759.99 1921.27 1764.46L1921.5 1780.04C1921.59 1784.51 1918.11 1788.21 1913.79 1788.27Z" stroke="#000000" stroke-width="3.4375" stroke-miterlimit="8" fill="#D6DBD9" fill-rule="evenodd"/><path d="M1961.54 1786.27 1945.96 1786.5C1941.49 1786.56 1937.83 1783.12 1937.73 1778.79L1937.5 1763.69C1937.44 1759.37 1940.99 1755.82 1945.46 1755.72L1961.04 1755.5C1965.51 1755.44 1969.17 1758.88 1969.27 1763.21L1969.5 1778.31C1969.56 1782.67 1966.01 1786.21 1961.54 1786.27Z" stroke="#000000" stroke-width="3.4375" stroke-miterlimit="8" fill="#D6DBD9" fill-rule="evenodd"/><path d="M2010.54 1786.27 1994.96 1786.5C1990.49 1786.56 1986.83 1783.01 1986.73 1778.54L1986.5 1762.96C1986.44 1758.49 1989.99 1754.83 1994.46 1754.73L2010.04 1754.5C2014.51 1754.44 2018.17 1757.99 2018.27 1762.46L2018.5 1778.04C2018.6 1782.51 2015.01 1786.21 2010.54 1786.27Z" stroke="#000000" stroke-width="3.4375" stroke-miterlimit="8" fill="#D6DBD9" fill-rule="evenodd"/><path d="M2058.54 1785.27 2042.96 1785.5C2038.49 1785.56 2034.83 1782.01 2034.73 1777.54L2034.5 1761.96C2034.44 1757.49 2037.99 1753.83 2042.46 1753.73L2058.04 1753.5C2062.51 1753.44 2066.17 1756.99 2066.27 1761.46L2066.5 1777.04C2066.6 1781.51 2063.01 1785.2 2058.54 1785.27Z" stroke="#000000" stroke-width="3.4375" stroke-miterlimit="8" fill="#D6DBD9" fill-rule="evenodd"/><path d="M2099.54 1781.27 2083.96 1781.5C2079.49 1781.56 2075.83 1778.01 2075.73 1773.54L2075.5 1757.96C2075.44 1753.49 2078.99 1749.83 2083.46 1749.73L2099.04 1749.5C2103.51 1749.44 2107.17 1752.99 2107.27 1757.46L2107.5 1773.04C2107.59 1777.55 2104.01 1781.2 2099.54 1781.27Z" stroke="#000000" stroke-width="3.4375" stroke-miterlimit="8" fill="#D6DBD9" fill-rule="evenodd"/><path d="M2148.54 1780.27 2132.96 1780.5C2128.49 1780.56 2124.83 1777.01 2124.73 1772.54L2124.5 1756.96C2124.44 1752.49 2127.99 1748.83 2132.46 1748.73L2148.04 1748.5C2152.51 1748.44 2156.17 1751.99 2156.27 1756.46L2156.5 1772.04C2156.59 1776.55 2153.01 1780.2 2148.54 1780.27Z" stroke="#000000" stroke-width="3.4375" stroke-miterlimit="8" fill="#D6DBD9" fill-rule="evenodd"/><path d="M2193.79 1780.27 2178.69 1780.5C2174.37 1780.56 2170.82 1777.01 2170.73 1772.54L2170.5 1756.96C2170.44 1752.49 2173.88 1748.83 2178.21 1748.73L2193.31 1748.5C2197.63 1748.44 2201.18 1751.99 2201.27 1756.46L2201.5 1772.04C2201.55 1776.54 2198.11 1780.21 2193.79 1780.27Z" stroke="#000000" stroke-width="3.4375" stroke-miterlimit="8" fill="#D6DBD9" fill-rule="evenodd"/><path d="M2242.54 1779.27 2226.96 1779.5C2222.49 1779.56 2218.83 1776.01 2218.73 1771.54L2218.5 1755.96C2218.44 1751.49 2221.99 1747.83 2226.46 1747.73L2242.04 1747.5C2246.51 1747.44 2250.17 1750.99 2250.27 1755.46L2250.5 1771.04C2250.56 1775.51 2247.01 1779.2 2242.54 1779.27Z" stroke="#000000" stroke-width="3.4375" stroke-miterlimit="8" fill="#D6DBD9" fill-rule="evenodd"/><path d="M1722.61 1790.32 1642.89 1791.5C1638.46 1791.56 1634.83 1788.01 1634.73 1783.53L1634.5 1767.92C1634.44 1763.45 1637.96 1759.77 1642.39 1759.68L1722.11 1758.5C1726.54 1758.44 1730.17 1761.99 1730.27 1766.47L1730.5 1782.08C1730.59 1786.56 1727.03 1790.26 1722.61 1790.32Z" stroke="#000000" stroke-width="3.4375" stroke-miterlimit="8" fill="#D6DBD9" fill-rule="evenodd"/><path d="M1793.54 1838.27 1777.96 1838.5C1773.49 1838.56 1769.83 1835.01 1769.73 1830.54L1769.5 1814.96C1769.44 1810.49 1772.99 1806.83 1777.46 1806.73L1793.04 1806.5C1797.51 1806.44 1801.17 1809.99 1801.27 1814.46L1801.5 1830.04C1801.56 1834.51 1798.01 1838.2 1793.54 1838.27Z" stroke="#000000" stroke-width="3.4375" stroke-miterlimit="8" fill="#D6DBD9" fill-rule="evenodd"/><path d="M1767.54 1789.27 1751.96 1789.5C1747.49 1789.56 1743.83 1786.01 1743.73 1781.54L1743.5 1765.96C1743.44 1761.49 1746.99 1757.83 1751.46 1757.73L1767.04 1757.5C1771.51 1757.44 1775.17 1760.99 1775.27 1765.46L1775.5 1781.04C1775.6 1785.51 1772 1789.2 1767.54 1789.27Z" stroke="#000000" stroke-width="3.4375" stroke-miterlimit="8" fill="#D6DBD9" fill-rule="evenodd"/><path d="M2306.53 1779.96 2267.97 1780.5C2263.5 1780.56 2259.83 1777.05 2259.73 1772.62L2259.5 1757.19C2259.44 1752.77 2262.99 1749.14 2267.47 1749.05L2306.03 1748.5C2310.5 1748.44 2314.17 1751.95 2314.27 1756.38L2314.5 1771.81C2314.56 1776.27 2311 1779.89 2306.53 1779.96L2306.53 1779.96Z" stroke="#000000" stroke-width="3.4375" stroke-miterlimit="8" fill="#D6DBD9" fill-rule="evenodd"/><path d="M1744.61 1837.01 1643.88 1838.5C1639.46 1838.56 1635.83 1835.04 1635.73 1830.6L1635.5 1815.15C1635.44 1810.72 1638.96 1807.08 1643.39 1806.99L1744.12 1805.5C1748.54 1805.44 1752.17 1808.96 1752.27 1813.4L1752.5 1828.85C1752.56 1833.28 1749.04 1836.95 1744.61 1837.01Z" stroke="#000000" stroke-width="3.4375" stroke-miterlimit="8" fill="#D6DBD9" fill-rule="evenodd"/><path d="M1842.54 1835.28 1826.96 1835.5C1822.49 1835.56 1818.83 1832.12 1818.73 1827.79L1818.5 1812.69C1818.44 1808.37 1821.99 1804.82 1826.46 1804.73L1842.04 1804.5C1846.51 1804.44 1850.17 1807.88 1850.27 1812.21L1850.5 1827.31C1850.59 1831.64 1847 1835.22 1842.54 1835.28Z" stroke="#000000" stroke-width="3.4375" stroke-miterlimit="8" fill="#D6DBD9" fill-rule="evenodd"/><path d="M1895.54 1835.27 1879.96 1835.5C1875.49 1835.56 1871.83 1832.01 1871.73 1827.54L1871.5 1811.96C1871.44 1807.49 1874.99 1803.83 1879.46 1803.73L1895.04 1803.5C1899.51 1803.44 1903.17 1806.99 1903.27 1811.46L1903.5 1827.04C1903.59 1831.55 1900.01 1835.2 1895.54 1835.27Z" stroke="#000000" stroke-width="3.4375" stroke-miterlimit="8" fill="#D6DBD9" fill-rule="evenodd"/><path d="M1942.54 1834.27 1926.96 1834.5C1922.49 1834.56 1918.83 1831.01 1918.73 1826.54L1918.5 1810.96C1918.44 1806.49 1921.99 1802.83 1926.46 1802.73L1942.04 1802.5C1946.51 1802.44 1950.17 1805.99 1950.27 1810.46L1950.5 1826.04C1950.59 1830.55 1947.01 1834.21 1942.54 1834.27Z" stroke="#000000" stroke-width="3.4375" stroke-miterlimit="8" fill="#D6DBD9" fill-rule="evenodd"/><path d="M1989.54 1833.27 1973.96 1833.5C1969.49 1833.56 1965.83 1830.01 1965.73 1825.54L1965.5 1809.96C1965.44 1805.49 1968.99 1801.83 1973.46 1801.73L1989.04 1801.5C1993.51 1801.44 1997.17 1804.99 1997.27 1809.46L1997.5 1825.04C1997.56 1829.51 1994.01 1833.21 1989.54 1833.27Z" stroke="#000000" stroke-width="3.4375" stroke-miterlimit="8" fill="#D6DBD9" fill-rule="evenodd"/><path d="M2038.54 1832.27 2022.96 1832.5C2018.49 1832.56 2014.83 1829.01 2014.73 1824.54L2014.5 1808.96C2014.44 1804.49 2017.99 1800.83 2022.46 1800.73L2038.04 1800.5C2042.51 1800.44 2046.17 1803.99 2046.27 1808.46L2046.5 1824.04C2046.59 1828.51 2043.01 1832.17 2038.54 1832.27Z" stroke="#000000" stroke-width="3.4375" stroke-miterlimit="8" fill="#D6DBD9" fill-rule="evenodd"/><path d="M2087.54 1832.27 2071.96 1832.5C2067.49 1832.56 2063.83 1829.01 2063.73 1824.54L2063.5 1808.96C2063.44 1804.49 2066.99 1800.83 2071.46 1800.73L2087.04 1800.5C2091.51 1800.44 2095.17 1803.99 2095.27 1808.46L2095.5 1824.04C2095.55 1828.54 2092.01 1832.21 2087.54 1832.27Z" stroke="#000000" stroke-width="3.4375" stroke-miterlimit="8" fill="#D6DBD9" fill-rule="evenodd"/><path d="M2127.54 1828.27 2111.96 1828.5C2107.49 1828.56 2103.83 1825.01 2103.73 1820.54L2103.5 1804.96C2103.44 1800.49 2106.99 1796.83 2111.46 1796.73L2127.04 1796.5C2131.51 1796.44 2135.17 1799.99 2135.27 1804.46L2135.5 1820.04C2135.59 1824.55 2132 1828.21 2127.54 1828.27Z" stroke="#000000" stroke-width="3.4375" stroke-miterlimit="8" fill="#D6DBD9" fill-rule="evenodd"/><path d="M2176.79 1827.27 2161.69 1827.5C2157.37 1827.56 2153.82 1824.01 2153.72 1819.54L2153.5 1803.96C2153.44 1799.49 2156.88 1795.83 2161.21 1795.73L2176.31 1795.5C2180.63 1795.44 2184.18 1798.99 2184.27 1803.46L2184.5 1819.04C2184.59 1823.51 2181.11 1827.21 2176.79 1827.27Z" stroke="#000000" stroke-width="3.4375" stroke-miterlimit="8" fill="#D6DBD9" fill-rule="evenodd"/><path d="M2222.54 1826.27 2206.96 1826.5C2202.49 1826.56 2198.83 1823.01 2198.73 1818.54L2198.5 1802.96C2198.44 1798.49 2201.99 1794.83 2206.46 1794.73L2222.04 1794.5C2226.51 1794.44 2230.17 1797.99 2230.27 1802.46L2230.5 1818.04C2230.56 1822.51 2227.01 1826.2 2222.54 1826.27Z" stroke="#000000" stroke-width="3.4375" stroke-miterlimit="8" fill="#D6DBD9" fill-rule="evenodd"/><path d="M2312.6 1820.64 2252.9 1821.5C2248.46 1821.56 2244.83 1818.08 2244.73 1813.7L2244.5 1798.43C2244.44 1794.05 2247.96 1790.46 2252.4 1790.36L2312.1 1789.5C2316.54 1789.44 2320.17 1792.92 2320.27 1797.3L2320.5 1812.57C2320.56 1816.98 2317.03 1820.57 2312.6 1820.64Z" stroke="#000000" stroke-width="3.4375" stroke-miterlimit="8" fill="#D6DBD9" fill-rule="evenodd"/><path d="M1655.54 1882.27 1639.96 1882.5C1635.49 1882.56 1631.83 1879.01 1631.73 1874.54L1631.5 1858.96C1631.44 1854.49 1634.99 1850.83 1639.46 1850.73L1655.04 1850.5C1659.51 1850.44 1663.17 1853.99 1663.27 1858.46L1663.5 1874.04C1663.59 1878.55 1660.04 1882.21 1655.54 1882.27Z" stroke="#000000" stroke-width="3.4375" stroke-miterlimit="8" fill="#D6DBD9" fill-rule="evenodd"/><path d="M1700.54 1881.27 1684.96 1881.5C1680.49 1881.56 1676.83 1878.01 1676.73 1873.54L1676.5 1857.96C1676.44 1853.49 1679.99 1849.83 1684.46 1849.73L1700.04 1849.5C1704.51 1849.44 1708.17 1852.99 1708.27 1857.46L1708.5 1873.04C1708.55 1877.55 1705.01 1881.21 1700.54 1881.27Z" stroke="#000000" stroke-width="3.4375" stroke-miterlimit="8" fill="#D6DBD9" fill-rule="evenodd"/><path d="M1748.54 1880.27 1732.96 1880.5C1728.49 1880.56 1724.83 1877.01 1724.73 1872.54L1724.5 1856.96C1724.44 1852.49 1727.99 1848.83 1732.46 1848.73L1748.04 1848.5C1752.51 1848.44 1756.17 1851.99 1756.27 1856.46L1756.5 1872.04C1756.6 1876.51 1753.01 1880.21 1748.54 1880.27Z" stroke="#000000" stroke-width="3.4375" stroke-miterlimit="8" fill="#D6DBD9" fill-rule="evenodd"/><path d="M1794.54 1880.27 1778.96 1880.5C1774.49 1880.56 1770.83 1877.01 1770.73 1872.54L1770.5 1856.96C1770.44 1852.49 1773.99 1848.83 1778.46 1848.73L1794.04 1848.5C1798.51 1848.44 1802.17 1851.99 1802.27 1856.46L1802.5 1872.04C1802.56 1876.51 1799.01 1880.21 1794.54 1880.27Z" stroke="#000000" stroke-width="3.4375" stroke-miterlimit="8" fill="#D6DBD9" fill-rule="evenodd"/><path d="M1848.54 1879.28 1832.96 1879.5C1828.49 1879.56 1824.83 1876.12 1824.73 1871.79L1824.5 1856.69C1824.44 1852.37 1827.99 1848.82 1832.46 1848.72L1848.04 1848.5C1852.51 1848.44 1856.17 1851.88 1856.27 1856.21L1856.5 1871.31C1856.56 1875.63 1853.01 1879.21 1848.54 1879.28Z" stroke="#000000" stroke-width="3.4375" stroke-miterlimit="8" fill="#D6DBD9" fill-rule="evenodd"/><path d="M2033.61 1876.23 1879.88 1878.5C1875.45 1878.56 1871.83 1875.02 1871.73 1870.55L1871.5 1854.99C1871.44 1850.53 1874.95 1846.87 1879.38 1846.77L2033.12 1844.5C2037.54 1844.44 2041.17 1847.98 2041.27 1852.45L2041.5 1868.01C2041.59 1872.51 2038.04 1876.16 2033.61 1876.23Z" stroke="#000000" stroke-width="3.4375" stroke-miterlimit="8" fill="#D6DBD9" fill-rule="evenodd"/><path d="M2079.54 1876.27 2063.96 1876.5C2059.49 1876.56 2055.83 1873.01 2055.73 1868.54L2055.5 1852.96C2055.44 1848.49 2058.99 1844.83 2063.46 1844.73L2079.04 1844.5C2083.51 1844.44 2087.17 1847.99 2087.27 1852.46L2087.5 1868.04C2087.57 1872.51 2084.01 1876.21 2079.54 1876.27Z" stroke="#000000" stroke-width="3.4375" stroke-miterlimit="8" fill="#D6DBD9" fill-rule="evenodd"/><path d="M2127.54 1875.27 2111.96 1875.5C2107.49 1875.56 2103.83 1872.01 2103.73 1867.54L2103.5 1851.96C2103.44 1847.49 2106.99 1843.83 2111.46 1843.73L2127.04 1843.5C2131.51 1843.44 2135.17 1846.99 2135.27 1851.46L2135.5 1867.04C2135.59 1871.51 2132 1875.2 2127.54 1875.27Z" stroke="#000000" stroke-width="3.4375" stroke-miterlimit="8" fill="#D6DBD9" fill-rule="evenodd"/><path d="M2172.54 1874.27 2156.96 1874.5C2152.49 1874.56 2148.83 1871.01 2148.73 1866.54L2148.5 1850.96C2148.44 1846.49 2151.99 1842.83 2156.46 1842.73L2172.04 1842.5C2176.51 1842.44 2180.17 1845.99 2180.27 1850.46L2180.5 1866.04C2180.56 1870.51 2177.01 1874.17 2172.54 1874.27Z" stroke="#000000" stroke-width="3.4375" stroke-miterlimit="8" fill="#D6DBD9" fill-rule="evenodd"/><path d="M2214.54 1874.27 2198.96 1874.5C2194.49 1874.56 2190.83 1871.01 2190.73 1866.54L2190.5 1850.96C2190.44 1846.49 2193.99 1842.83 2198.46 1842.73L2214.04 1842.5C2218.51 1842.44 2222.17 1845.99 2222.27 1850.46L2222.5 1866.04C2222.59 1870.51 2219 1874.2 2214.54 1874.27Z" stroke="#000000" stroke-width="3.4375" stroke-miterlimit="8" fill="#D6DBD9" fill-rule="evenodd"/><path d="M2263.54 1871.27 2247.96 1871.5C2243.49 1871.56 2239.83 1868.01 2239.73 1863.54L2239.5 1847.96C2239.44 1843.49 2242.99 1839.83 2247.46 1839.73L2263.04 1839.5C2267.51 1839.44 2271.17 1842.99 2271.27 1847.46L2271.5 1863.04C2271.59 1867.55 2268.01 1871.21 2263.54 1871.27Z" stroke="#000000" stroke-width="3.4375" stroke-miterlimit="8" fill="#D6DBD9" fill-rule="evenodd"/><path d="M2311.79 1871.27 2296.69 1871.5C2292.37 1871.56 2288.82 1868.01 2288.72 1863.54L2288.5 1847.96C2288.44 1843.49 2291.88 1839.83 2296.21 1839.73L2311.31 1839.5C2315.63 1839.44 2319.18 1842.99 2319.28 1847.46L2319.5 1863.04C2319.56 1867.55 2316.12 1871.21 2311.79 1871.27Z" stroke="#000000" stroke-width="3.4375" stroke-miterlimit="8" fill="#D6DBD9" fill-rule="evenodd"/><path d="M2388.54 1734.27 2372.96 1734.5C2368.49 1734.56 2364.83 1731.01 2364.73 1726.54L2364.5 1710.96C2364.44 1706.49 2367.99 1702.83 2372.46 1702.73L2388.04 1702.5C2392.51 1702.44 2396.17 1705.99 2396.27 1710.46L2396.5 1726.04C2396.59 1730.52 2393.01 1734.17 2388.54 1734.27Z" stroke="#000000" stroke-width="3.4375" stroke-miterlimit="8" fill="#D6DBD9" fill-rule="evenodd"/><path d="M2481.54 1732.27 2465.96 1732.5C2461.49 1732.56 2457.83 1729.01 2457.73 1724.54L2457.5 1708.96C2457.44 1704.49 2460.99 1700.83 2465.46 1700.73L2481.04 1700.5C2485.51 1700.44 2489.17 1703.99 2489.27 1708.46L2489.5 1724.04C2489.59 1728.51 2486 1732.21 2481.54 1732.27Z" stroke="#000000" stroke-width="3.4375" stroke-miterlimit="8" fill="#D6DBD9" fill-rule="evenodd"/><path d="M2434.54 1733.27 2418.96 1733.5C2414.49 1733.56 2410.83 1730.01 2410.73 1725.54L2410.5 1709.96C2410.44 1705.49 2413.99 1701.83 2418.46 1701.73L2434.04 1701.5C2438.51 1701.44 2442.17 1704.99 2442.27 1709.46L2442.5 1725.04C2442.56 1729.51 2439 1733.21 2434.54 1733.27Z" stroke="#000000" stroke-width="3.4375" stroke-miterlimit="8" fill="#D6DBD9" fill-rule="evenodd"/><path d="M2389.54 1778.27 2373.96 1778.5C2369.49 1778.56 2365.83 1775.01 2365.73 1770.54L2365.5 1754.96C2365.44 1750.49 2368.99 1746.83 2373.46 1746.73L2389.04 1746.5C2393.51 1746.44 2397.17 1749.99 2397.27 1754.46L2397.5 1770.04C2397.56 1774.51 2394.01 1778.2 2389.54 1778.27Z" stroke="#000000" stroke-width="3.4375" stroke-miterlimit="8" fill="#D6DBD9" fill-rule="evenodd"/><path d="M2434.79 1776.27 2419.69 1776.5C2415.37 1776.56 2411.82 1773.01 2411.73 1768.54L2411.5 1752.96C2411.44 1748.49 2414.88 1744.83 2419.21 1744.73L2434.31 1744.5C2438.63 1744.44 2442.18 1747.99 2442.27 1752.46L2442.5 1768.04C2442.56 1772.51 2439.11 1776.21 2434.79 1776.27Z" stroke="#000000" stroke-width="3.4375" stroke-miterlimit="8" fill="#D6DBD9" fill-rule="evenodd"/><path d="M2482.54 1775.27 2466.96 1775.5C2462.49 1775.56 2458.83 1772.12 2458.73 1767.79L2458.5 1752.69C2458.44 1748.37 2461.99 1744.82 2466.46 1744.73L2482.04 1744.5C2486.51 1744.44 2490.17 1747.88 2490.27 1752.21L2490.5 1767.31C2490.59 1771.67 2487 1775.21 2482.54 1775.27Z" stroke="#000000" stroke-width="3.4375" stroke-miterlimit="8" fill="#D6DBD9" fill-rule="evenodd"/><path d="M2390.54 1822.28 2374.96 1822.5C2370.49 1822.56 2366.83 1819.12 2366.73 1814.79L2366.5 1799.69C2366.44 1795.37 2369.99 1791.82 2374.46 1791.73L2390.04 1791.5C2394.51 1791.44 2398.17 1794.88 2398.27 1799.21L2398.5 1814.31C2398.55 1818.67 2395 1822.21 2390.54 1822.28Z" stroke="#000000" stroke-width="3.4375" stroke-miterlimit="8" fill="#D6DBD9" fill-rule="evenodd"/><path d="M2435.54 1818.27 2419.96 1818.5C2415.49 1818.56 2411.83 1815.01 2411.73 1810.54L2411.5 1794.96C2411.44 1790.49 2414.99 1786.83 2419.46 1786.73L2435.04 1786.5C2439.51 1786.44 2443.17 1789.99 2443.27 1794.46L2443.5 1810.04C2443.59 1814.55 2440 1818.21 2435.54 1818.27Z" stroke="#000000" stroke-width="3.4375" stroke-miterlimit="8" fill="#D6DBD9" fill-rule="evenodd"/><path d="M2484.54 1818.27 2468.96 1818.5C2464.49 1818.56 2460.83 1815.01 2460.73 1810.54L2460.5 1794.96C2460.44 1790.49 2463.99 1786.83 2468.46 1786.73L2484.04 1786.5C2488.51 1786.44 2492.17 1789.99 2492.27 1794.46L2492.5 1810.04C2492.59 1814.51 2489 1818.21 2484.54 1818.27Z" stroke="#000000" stroke-width="3.4375" stroke-miterlimit="8" fill="#D6DBD9" fill-rule="evenodd"/><path d="M2445.56 1863.47 2374.93 1864.5C2370.48 1864.56 2366.83 1860.99 2366.73 1856.49L2366.5 1840.81C2366.44 1836.31 2369.98 1832.62 2374.44 1832.53L2445.07 1831.5C2449.52 1831.44 2453.17 1835.01 2453.27 1839.51L2453.5 1855.19C2453.59 1859.73 2450.01 1863.41 2445.56 1863.47L2445.56 1863.47Z" stroke="#000000" stroke-width="3.4375" stroke-miterlimit="8" fill="#D6DBD9" fill-rule="evenodd"/><path d="M2484.79 1862.27 2469.69 1862.5C2465.37 1862.56 2461.82 1859.01 2461.73 1854.54L2461.5 1838.96C2461.44 1834.49 2464.88 1830.83 2469.21 1830.73L2484.31 1830.5C2488.63 1830.44 2492.18 1833.99 2492.27 1838.46L2492.5 1854.04C2492.59 1858.51 2489.11 1862.21 2484.79 1862.27Z" stroke="#000000" stroke-width="3.4375" stroke-miterlimit="8" fill="#D6DBD9" fill-rule="evenodd"/><path d="M1754.44 1617.85C1750.97 1626.93 1768.35 1643.94 1792.71 1667.76 1795.98 1670.96 1807.1 1681.61 1823.41 1693.33 1832.33 1699.73 1839.66 1704.16 1842.89 1706.12 1851.67 1711.31 1867.81 1721.17 1889.22 1727.74 1911.07 1734.41 1926.87 1739.25 1947.28 1735.92 1955.27 1734.61 1981.32 1730.39 1987.62 1713.37 1991.27 1703.54 1986.72 1693.54 1985.07 1689.86 1962.08 1639.03 1764.84 1590.56 1754.41 1617.89L1754.44 1617.85Z" fill="#5B5742" fill-rule="evenodd" fill-opacity="0.431373"/><path d="M1731.04 1387.08C1739.84 1372.09 1745.25 1370.04 1748.45 1370.57 1756.02 1371.85 1755.99 1388.6 1769.64 1414.89 1774.28 1423.82 1778.41 1430.12 1781.9 1435.45 1805.52 1467.09 1844.62 1514.8 1871.77 1549.22 1919.23 1601.81 1931.71 1619.25 1968.45 1663.14 1971.18 1665.75 1979.37 1673.5 1982.53 1685.93 1997.39 1762.9 1836.27 1676.28 1820.26 1665.61 1788.11 1645.39 1788.52 1638.97 1736.52 1596.51 1683.96 1553.61 1676.22 1554.19 1671.5 1538.68 1673.81 1519.81 1678.27 1496.97 1686.9 1471.95 1699.59 1435.19 1716.77 1406.83 1731.04 1387.08Z" stroke="#000000" stroke-width="20.625" stroke-miterlimit="8" fill="#EBE2B3" fill-rule="evenodd"/><path d="M2221.12 1924.56C2217.49 1917.98 2230.53 1904.77 2240.69 1898.34 2244.83 1895.73 2253.01 1890.69 2264.66 1890.51 2275.96 1890.32 2283.96 1894.82 2290.21 1898.34 2297.06 1902.2 2314.86 1913.75 2312.24 1920.62 2310.53 1925.11 2301.32 1924.41 2266.95 1925.94 2232.08 1927.49 2223.58 1929.01 2221.12 1924.56Z" stroke="#000000" stroke-width="20.625" stroke-miterlimit="8" fill="#EBE2B3" fill-rule="evenodd"/></g></svg>