<svg width="2446" height="1266" xmlns="http://www.w3.org/2000/svg" xmlns:xlink="http://www.w3.org/1999/xlink" xml:space="preserve" overflow="hidden"><defs><clipPath id="clip0"><rect x="2705" y="1050" width="2446" height="1266"/></clipPath></defs><g clip-path="url(#clip0)" transform="translate(-2705 -1050)"><path d="M3852 1717 5151 1717 5151 1736 3852 1736Z" fill="#AAD5F2" fill-rule="evenodd"/><path d="M3852 1721 5151 1721 5151 1732 3852 1732Z" fill="#2553A4" fill-rule="evenodd"/><path d="M3844.71 1740.5 3745.29 1740.5C3740.99 1740.5 3737.5 1736.94 3737.5 1732.55L3737.5 1721.45C3737.5 1717.06 3740.99 1713.5 3745.29 1713.5L3844.71 1713.5C3849.01 1713.5 3852.5 1717.06 3852.5 1721.45L3852.5 1732.55C3852.5 1736.94 3849.01 1740.5 3844.71 1740.5Z" stroke="#000000" stroke-width="6.875" stroke-miterlimit="8" fill="#CBC49C" fill-rule="evenodd"/><path d="M3736.28 1749.5 3729.72 1749.5C3726.29 1749.5 3723.5 1746.7 3723.5 1743.24L3723.5 1711.76C3723.5 1708.3 3726.29 1705.5 3729.72 1705.5L3736.28 1705.5C3739.71 1705.5 3742.5 1708.3 3742.5 1711.76L3742.5 1743.24C3742.5 1746.7 3739.71 1749.5 3736.28 1749.5Z" stroke="#000000" stroke-width="6.875" stroke-miterlimit="8" fill="#CBC49C" fill-rule="evenodd"/><path d="M3717.09 1758.5 3705.91 1758.5C3700.71 1758.5 3696.5 1754.24 3696.5 1748.98L3696.5 1703.02C3696.5 1697.76 3700.71 1693.5 3705.91 1693.5L3717.09 1693.5C3722.29 1693.5 3726.5 1697.76 3726.5 1703.02L3726.5 1748.98C3726.5 1754.24 3722.29 1758.5 3717.09 1758.5Z" stroke="#000000" stroke-width="6.875" stroke-miterlimit="8" fill="#CBC49C" fill-rule="evenodd"/><path d="M3009.5 2101.5C3011.73 2106.01 3013.55 2109.9 3014.89 2112.9 3019.59 2123.47 3022.44 2131.7 3023.54 2134.9 3026.42 2143.26 3026.52 2144.88 3032.29 2164.78 3041.56 2196.73 3042.31 2196.05 3044.54 2206.99 3047.63 2222.04 3046.05 2222.42 3049.79 2243.9 3053.26 2263.77 3055.11 2273.82 3060.3 2280.81 3061.64 2282.6 3074.88 2299.92 3093.59 2298.41 3105.88 2297.41 3114.05 2288.77 3119.88 2282.57 3123.42 2278.85 3126.16 2275.03 3139.17 2247.42 3146.69 2231.47 3150.5 2223.31 3153.21 2215.77 3154.65 2211.78 3155.61 2208.58 3156.33 2205.79 3159.28 2194.53 3161.17 2187.27 3161.96 2184.13 3163.78 2176.9 3168.14 2166.64 3179.5 2154.25 3122.83 2136.65 3066.17 2119.09 3009.5 2101.5L3009.5 2101.5Z" stroke="#000000" stroke-width="20.625" stroke-miterlimit="8" fill="#EBE2B3" fill-rule="evenodd"/><path d="M3366.5 2144.81C3374.06 2162.09 3381.63 2181.74 3388.51 2203.61 3395.29 2225.21 3400.28 2245.43 3403.98 2263.84 3422.94 2310.64 3472.88 2299.12 3478.87 2249.85 3485.82 2228.19 3492.53 2205.08 3498.72 2180.6 3504.3 2158.56 3509.02 2137.31 3512.99 2117.01 3513.51 2106.83 3513.99 2096.65 3514.5 2086.5L3366.57 2144.81 3366.5 2144.81Z" stroke="#000000" stroke-width="20.625" stroke-miterlimit="8" fill="#EBE2B3" fill-rule="evenodd"/><path d="M2804.78 1688.54C2802.38 1678.88 2799.59 1664.28 2799.52 1646.41 2799.45 1627.4 2802.55 1622.18 2803.03 1606.06 2803.99 1574.13 2792.53 1572.31 2792.5 1544.64 2792.5 1511.79 2808.53 1486.01 2813.59 1477.97 2825.08 1459.58 2829.66 1462.19 2843.46 1441.12 2856.29 1421.53 2862.21 1404.21 2868.06 1386.72 2878.21 1356.37 2875.8 1350.29 2883.89 1321.8 2889.6 1301.66 2896.86 1275.98 2913.75 1249.83 2924.76 1232.78 2943.34 1216.25 2980.5 1183.16 3004.38 1161.88 3021.59 1148.17 3034.97 1137.51 3075.78 1105.07 3089.2 1098.13 3094.7 1095.38 3114.01 1085.82 3131.38 1077.2 3154.44 1077.82 3166.03 1078.13 3184.3 1079.26 3203.95 1079.09 3206.74 1079.05 3213.03 1079.09 3221.22 1078.57 3224.73 1078.33 3230.61 1077.89 3237.7 1076.92 3249.75 1075.31 3258.79 1073.18 3261.58 1072.52 3301.77 1063.24 3322.07 1057.64 3340.65 1062.01 3362.98 1067.23 3377.98 1080.15 3391.61 1091.84 3400.24 1099.26 3412.12 1114.45 3435.55 1144.49 3461.59 1177.93 3467.62 1186.9 3483 1198.9 3498.38 1210.89 3500.3 1208.07 3511.11 1218.21 3525.49 1231.68 3530.89 1244.92 3544.48 1276.12 3570.46 1335.79 3568.33 1327.98 3570.84 1335.79 3573.38 1343.79 3574.83 1351.66 3578.1 1367.34 3582.23 1387.17 3583.43 1396.72 3588.42 1425.31 3592.31 1447.52 3594.13 1458.65 3595.44 1463.91 3604.25 1499.55 3617.5 1523.75 3621.8 1532.34 3641.93 1572.48 3639.9 1619.94 3635.87 1714.87 3633.43 1772.43 3632.08 1803.71 3618.29 1844.75 3611.16 1865.92 3607.9 1868.36 3590.18 1916.71 3575.17 1957.61 3572.7 1969.02 3560.31 1997.44 3546.55 2029.06 3539.67 2044.87 3525.18 2062.37 3519.05 2069.79 3504.78 2085.74 3467.2 2108.01 3435.96 2126.53 3400.8 2147.36 3349.49 2157.15 3275.52 2171.28 3213.72 2153.75 3189.6 2146.64 3174.56 2142.2 3169.47 2139.52 3140.4 2130.83 3090.95 2116.05 3077.19 2115.26 3047.29 2106.25 3029.4 2100.86 3020.42 2098.35 3009.23 2094.05 2997.98 2089.72 2972.49 2079.72 2947.13 2062.37 2904.02 2032.91 2880.31 1995.42 2871.57 1979.88 2864.69 1967.61 2855.26 1939.53 2836.44 1883.34 2824.02 1846.26 2817.72 1827.46 2815.35 1814.91 2810.74 1790.61 2809.33 1767.45 2806.57 1721.91 2805.68 1707.79 2805.13 1696.21 2804.78 1688.54Z" stroke="#000000" stroke-width="20.625" stroke-miterlimit="8" fill="#EBE2B3" fill-rule="evenodd"/><path d="M3049.76 1215.56 3062.9 1190.74 3180.8 1253.19 3167.66 1278.01Z" stroke="#000000" stroke-width="10.3139" stroke-miterlimit="8" fill="#595850" fill-rule="evenodd"/><path d="M3303.7 1251.32 3423.92 1193.46 3436.1 1218.76 3315.88 1276.63Z" stroke="#000000" stroke-width="10.3139" stroke-miterlimit="8" fill="#595850" fill-rule="evenodd"/><path d="M3504 2307C3504 2311.97 3399.23 2316 3270 2316 3140.77 2316 3036 2311.97 3036 2307 3036 2302.03 3140.77 2298 3270 2298 3399.23 2298 3504 2302.03 3504 2307Z" fill="#5B5742" fill-rule="evenodd" fill-opacity="0.470588"/><path d="M3326 1474C3326 1486.15 3292.42 1496 3251 1496 3209.58 1496 3176 1486.15 3176 1474 3176 1461.85 3209.58 1452 3251 1452 3292.42 1452 3326 1461.85 3326 1474Z" stroke="#000000" stroke-width="10.3125" stroke-miterlimit="8" fill="#E73A8F" fill-rule="evenodd"/><path d="M3036.44 1286.39C3023.05 1296.48 3030.86 1331.46 3044.45 1353.35 3049.31 1361.18 3060.06 1378.49 3082.11 1385.05 3101.03 1390.68 3117.07 1385.08 3121.64 1383.3 3145.13 1374.16 3166.78 1348.62 3161.77 1330.12 3159.52 1321.78 3153.08 1319.39 3079.47 1294.3 3054.91 1285.92 3042.5 1281.83 3036.44 1286.39Z" stroke="#000000" stroke-width="20.625" stroke-miterlimit="8" fill="#231815" fill-rule="evenodd"/><path d="M3409.33 1704.72C3416.93 1717.28 3457.22 1710.78 3474.47 1705.96 3488.62 1702.02 3502.84 1694.87 3508.31 1691.96 3511.93 1690.08 3519.5 1685.94 3528.52 1679.74 3543.5 1669.45 3550.11 1662.26 3566.33 1646.55 3588.12 1625.44 3603.48 1613.91 3618.18 1591.09 3621.35 1586.19 3625.79 1578.73 3623.24 1572.1 3619.97 1563.64 3607.2 1561.39 3602.65 1560.46 3558.17 1551.5 3391.52 1675.43 3409.33 1704.72L3409.33 1704.72Z" fill="#5B5742" fill-rule="evenodd" fill-opacity="0.431373"/><path d="M3126 1359C3126 1370.05 3117.05 1379 3106 1379 3094.95 1379 3086 1370.05 3086 1359 3086 1347.95 3094.95 1339 3106 1339 3117.05 1339 3126 1347.95 3126 1359Z" fill="#FFFFFF" fill-rule="evenodd"/><path d="M3439.61 1286.39C3452.9 1296.48 3445.15 1331.46 3431.66 1353.35 3426.84 1361.18 3416.17 1378.49 3394.28 1385.05 3375.51 1390.68 3359.59 1385.08 3355.05 1383.3 3331.74 1374.16 3310.26 1348.62 3315.22 1330.12 3317.46 1321.78 3323.85 1319.39 3396.91 1294.3 3421.28 1285.92 3433.6 1281.83 3439.61 1286.39Z" stroke="#000000" stroke-width="20.625" stroke-miterlimit="8" fill="#231815" fill-rule="evenodd"/><path d="M3400 1359C3400 1370.05 3391.05 1379 3380 1379 3368.95 1379 3360 1370.05 3360 1359 3360 1347.95 3368.95 1339 3380 1339 3391.05 1339 3400 1347.95 3400 1359Z" fill="#FFFFFF" fill-rule="evenodd"/><path d="M3575.07 1366.52C3572.24 1366.77 3574.26 1370.93 3555.68 1398.8 3555.68 1398.8 3547.16 1414.56 3540.78 1426 3533.46 1439.11 3527.88 1448.41 3519.73 1461.96 3500.29 1494.31 3500.35 1492.42 3493.43 1504.95 3489.24 1512.53 3485.51 1519.94 3471.51 1552.32 3449.04 1604.25 3442.1 1606.57 3445.2 1614.6 3454.11 1637.65 3514.18 1645.94 3555.68 1622.5 3563.66 1617.98 3569.73 1612.11 3581.99 1600.57 3617.91 1566.71 3625.8 1558.66 3628.02 1547.7 3629 1542.85 3628.7 1540.06 3624.9 1518.42 3618.55 1482.27 3615.38 1464.19 3613.55 1456.7 3610.56 1444.44 3591.18 1365.09 3575.07 1366.52Z" stroke="#000000" stroke-width="20.625" stroke-miterlimit="8" fill="#EBE2B3" fill-rule="evenodd"/><path d="M3664.56 1925.17 2752.09 1938.5C2734.15 1938.75 2719.41 1924.41 2719.15 1906.49L2715.5 1657.81C2715.25 1639.85 2729.57 1625.1 2747.48 1624.84L3659.91 1611.5C3677.85 1611.25 3692.58 1625.59 3692.85 1643.51L3696.5 1892.19C3696.79 1910.12 3682.46 1924.9 3664.56 1925.17Z" stroke="#000000" stroke-width="20.625" stroke-miterlimit="8" fill="#A6A897" fill-rule="evenodd"/><path d="M2991.51 1697.08 2961.99 1697.5C2957.51 1697.56 2953.83 1694.03 2953.73 1689.59L2953.5 1674.09C2953.44 1669.66 2957 1666.01 2961.49 1665.92L2991.01 1665.5C2995.49 1665.44 2999.17 1668.97 2999.27 1673.41L2999.5 1688.91C2999.56 1693.38 2995.99 1697.02 2991.51 1697.08Z" stroke="#000000" stroke-width="3.4375" stroke-miterlimit="8" fill="#D6DBD9" fill-rule="evenodd"/><path d="M3130.51 1695.08 3100.99 1695.5C3096.51 1695.56 3092.83 1692.03 3092.73 1687.59L3092.5 1672.1C3092.44 1667.66 3096 1664.01 3100.49 1663.92L3130.01 1663.5C3134.49 1663.44 3138.17 1666.97 3138.27 1671.41L3138.5 1686.91C3138.56 1691.34 3134.99 1695.02 3130.51 1695.08Z" stroke="#000000" stroke-width="3.4375" stroke-miterlimit="8" fill="#D6DBD9" fill-rule="evenodd"/><path d="M2803.68 1700.08 2774.81 1700.5C2770.42 1700.56 2766.82 1697.03 2766.73 1692.59L2766.5 1677.09C2766.44 1672.66 2769.93 1669.01 2774.32 1668.92L2803.19 1668.5C2807.58 1668.44 2811.18 1671.97 2811.27 1676.41L2811.5 1691.91C2811.59 1696.35 2808.07 1700.02 2803.68 1700.08Z" stroke="#000000" stroke-width="3.4375" stroke-miterlimit="8" fill="#D6DBD9" fill-rule="evenodd"/><path d="M2865.68 1699.08 2836.81 1699.5C2832.42 1699.56 2828.82 1696.03 2828.73 1691.59L2828.5 1676.09C2828.44 1671.66 2831.93 1668.01 2836.32 1667.92L2865.19 1667.5C2869.58 1667.44 2873.18 1670.97 2873.27 1675.41L2873.5 1690.91C2873.59 1695.39 2870.07 1699.02 2865.68 1699.08Z" stroke="#000000" stroke-width="3.4375" stroke-miterlimit="8" fill="#D6DBD9" fill-rule="evenodd"/><path d="M3373.51 1692.08 3343.99 1692.5C3339.51 1692.56 3335.83 1689.03 3335.73 1684.59L3335.5 1669.09C3335.44 1664.66 3339 1661.01 3343.49 1660.92L3373.01 1660.5C3377.49 1660.44 3381.17 1663.97 3381.27 1668.41L3381.5 1683.91C3381.6 1688.35 3378 1691.99 3373.51 1692.08Z" stroke="#000000" stroke-width="3.4375" stroke-miterlimit="8" fill="#D6DBD9" fill-rule="evenodd"/><path d="M2929.51 1698.08 2899.99 1698.5C2895.51 1698.56 2891.83 1695.03 2891.73 1690.59L2891.5 1675.09C2891.44 1670.66 2895 1667.01 2899.49 1666.92L2929.01 1666.5C2933.49 1666.44 2937.17 1669.97 2937.27 1674.41L2937.5 1689.91C2937.6 1694.35 2933.99 1698.02 2929.51 1698.08Z" stroke="#000000" stroke-width="3.4375" stroke-miterlimit="8" fill="#D6DBD9" fill-rule="evenodd"/><path d="M3192.68 1694.08 3163.81 1694.5C3159.42 1694.56 3155.82 1691.03 3155.73 1686.59L3155.5 1671.09C3155.44 1666.66 3158.93 1663.01 3163.32 1662.92L3192.19 1662.5C3196.58 1662.44 3200.18 1665.97 3200.27 1670.41L3200.5 1685.91C3200.56 1690.35 3197.07 1694.02 3192.68 1694.08Z" stroke="#000000" stroke-width="3.4375" stroke-miterlimit="8" fill="#D6DBD9" fill-rule="evenodd"/><path d="M3252.51 1693.08 3222.99 1693.5C3218.51 1693.56 3214.83 1690.03 3214.73 1685.59L3214.5 1670.09C3214.44 1665.66 3218 1662.01 3222.49 1661.92L3252.01 1661.5C3256.49 1661.44 3260.17 1664.97 3260.27 1669.41L3260.5 1684.91C3260.56 1689.38 3256.99 1693.02 3252.51 1693.08Z" stroke="#000000" stroke-width="3.4375" stroke-miterlimit="8" fill="#D6DBD9" fill-rule="evenodd"/><path d="M3313.51 1693.08 3283.99 1693.5C3279.51 1693.56 3275.83 1690.03 3275.73 1685.59L3275.5 1670.1C3275.44 1665.66 3279 1662.01 3283.49 1661.92L3313.01 1661.5C3317.49 1661.44 3321.17 1664.97 3321.27 1669.41L3321.5 1684.91C3321.6 1689.35 3317.99 1693.02 3313.51 1693.08Z" stroke="#000000" stroke-width="3.4375" stroke-miterlimit="8" fill="#D6DBD9" fill-rule="evenodd"/><path d="M3060.68 1696.08 3031.81 1696.5C3027.42 1696.56 3023.82 1693.03 3023.73 1688.59L3023.5 1673.1C3023.44 1668.66 3026.93 1665.01 3031.32 1664.92L3060.19 1664.5C3064.58 1664.44 3068.18 1667.97 3068.27 1672.41L3068.5 1687.91C3068.59 1692.39 3065.07 1696.02 3060.68 1696.08Z" stroke="#000000" stroke-width="3.4375" stroke-miterlimit="8" fill="#D6DBD9" fill-rule="evenodd"/><path d="M3443.51 1688.08 3413.99 1688.5C3409.51 1688.56 3405.83 1685.03 3405.73 1680.59L3405.5 1665.09C3405.44 1660.66 3409 1657.01 3413.49 1656.92L3443.01 1656.5C3447.49 1656.44 3451.17 1659.97 3451.27 1664.41L3451.5 1679.91C3451.6 1684.35 3447.99 1688.02 3443.51 1688.08Z" stroke="#000000" stroke-width="3.4375" stroke-miterlimit="8" fill="#D6DBD9" fill-rule="evenodd"/><path d="M2833.57 1744.65 2773.93 1745.5C2769.48 1745.56 2765.83 1742.08 2765.73 1737.69L2765.5 1722.41C2765.44 1718.03 2768.98 1714.44 2773.43 1714.34L2833.07 1713.5C2837.52 1713.44 2841.17 1716.92 2841.27 1721.31L2841.5 1736.59C2841.59 1741 2838.02 1744.59 2833.57 1744.65Z" stroke="#000000" stroke-width="3.4375" stroke-miterlimit="8" fill="#D6DBD9" fill-rule="evenodd"/><path d="M2883.54 1744.27 2867.96 1744.5C2863.49 1744.56 2859.83 1741.01 2859.73 1736.54L2859.5 1720.96C2859.44 1716.49 2862.99 1712.83 2867.46 1712.73L2883.04 1712.5C2887.51 1712.44 2891.17 1715.99 2891.27 1720.46L2891.5 1736.04C2891.55 1740.54 2888.01 1744.2 2883.54 1744.27Z" stroke="#000000" stroke-width="3.4375" stroke-miterlimit="8" fill="#D6DBD9" fill-rule="evenodd"/><path d="M2928.54 1743.27 2912.96 1743.5C2908.49 1743.56 2904.83 1740.01 2904.73 1735.54L2904.5 1719.96C2904.44 1715.49 2907.99 1711.83 2912.46 1711.73L2928.04 1711.5C2932.51 1711.44 2936.17 1714.99 2936.27 1719.46L2936.5 1735.04C2936.6 1739.51 2933 1743.21 2928.54 1743.27Z" stroke="#000000" stroke-width="3.4375" stroke-miterlimit="8" fill="#D6DBD9" fill-rule="evenodd"/><path d="M2976.79 1743.27 2961.69 1743.5C2957.37 1743.56 2953.82 1740.01 2953.72 1735.54L2953.5 1719.96C2953.44 1715.49 2956.88 1711.83 2961.21 1711.73L2976.31 1711.5C2980.63 1711.44 2984.18 1714.99 2984.27 1719.46L2984.5 1735.04C2984.59 1739.51 2981.12 1743.21 2976.79 1743.27Z" stroke="#000000" stroke-width="3.4375" stroke-miterlimit="8" fill="#D6DBD9" fill-rule="evenodd"/><path d="M3022.54 1742.27 3006.96 1742.5C3002.49 1742.56 2998.83 1739.01 2998.73 1734.54L2998.5 1718.96C2998.44 1714.49 3001.99 1710.83 3006.46 1710.73L3022.04 1710.5C3026.51 1710.44 3030.17 1713.99 3030.27 1718.46L3030.5 1734.04C3030.56 1738.55 3027.01 1742.21 3022.54 1742.27L3022.54 1742.27Z" stroke="#000000" stroke-width="3.4375" stroke-miterlimit="8" fill="#D6DBD9" fill-rule="evenodd"/><path d="M3076.54 1742.27 3060.96 1742.5C3056.49 1742.56 3052.83 1739.01 3052.73 1734.54L3052.5 1718.96C3052.44 1714.49 3055.99 1710.83 3060.46 1710.73L3076.04 1710.5C3080.51 1710.44 3084.17 1713.99 3084.27 1718.46L3084.5 1734.04C3084.59 1738.51 3081 1742.21 3076.54 1742.27Z" stroke="#000000" stroke-width="3.4375" stroke-miterlimit="8" fill="#D6DBD9" fill-rule="evenodd"/><path d="M3121.79 1741.27 3106.69 1741.5C3102.37 1741.56 3098.82 1738.01 3098.72 1733.54L3098.5 1717.96C3098.44 1713.49 3101.88 1709.83 3106.21 1709.73L3121.31 1709.5C3125.63 1709.44 3129.18 1712.99 3129.27 1717.46L3129.5 1733.04C3129.59 1737.55 3126.11 1741.2 3121.79 1741.27Z" stroke="#000000" stroke-width="3.4375" stroke-miterlimit="8" fill="#D6DBD9" fill-rule="evenodd"/><path d="M3170.54 1740.27 3154.96 1740.5C3150.49 1740.56 3146.83 1737.01 3146.73 1732.54L3146.5 1716.96C3146.44 1712.49 3149.99 1708.83 3154.46 1708.73L3170.04 1708.5C3174.51 1708.44 3178.17 1711.99 3178.27 1716.46L3178.5 1732.04C3178.56 1736.55 3175.01 1740.21 3170.54 1740.27Z" stroke="#000000" stroke-width="3.4375" stroke-miterlimit="8" fill="#D6DBD9" fill-rule="evenodd"/><path d="M3212.79 1739.27 3197.69 1739.5C3193.37 1739.56 3189.82 1736.01 3189.73 1731.54L3189.5 1715.96C3189.44 1711.49 3192.88 1707.83 3197.21 1707.73L3212.31 1707.5C3216.63 1707.44 3220.18 1710.99 3220.28 1715.46L3220.5 1731.04C3220.56 1735.51 3217.11 1739.21 3212.79 1739.27Z" stroke="#000000" stroke-width="3.4375" stroke-miterlimit="8" fill="#D6DBD9" fill-rule="evenodd"/><path d="M3262.54 1738.27 3246.96 1738.5C3242.49 1738.56 3238.83 1735.12 3238.73 1730.79L3238.5 1715.69C3238.44 1711.37 3241.99 1707.82 3246.46 1707.72L3262.04 1707.5C3266.51 1707.44 3270.17 1710.88 3270.27 1715.21L3270.5 1730.31C3270.56 1734.64 3267.01 1738.21 3262.54 1738.27Z" stroke="#000000" stroke-width="3.4375" stroke-miterlimit="8" fill="#D6DBD9" fill-rule="evenodd"/><path d="M3307.54 1738.27 3291.96 1738.5C3287.49 1738.56 3283.83 1735.01 3283.73 1730.54L3283.5 1714.96C3283.44 1710.49 3286.99 1706.83 3291.46 1706.73L3307.04 1706.5C3311.51 1706.44 3315.17 1709.99 3315.27 1714.46L3315.5 1730.04C3315.6 1734.51 3312.01 1738.2 3307.54 1738.27Z" stroke="#000000" stroke-width="3.4375" stroke-miterlimit="8" fill="#D6DBD9" fill-rule="evenodd"/><path d="M3355.54 1737.27 3339.96 1737.5C3335.49 1737.56 3331.83 1734.01 3331.73 1729.54L3331.5 1713.96C3331.44 1709.49 3334.99 1705.83 3339.46 1705.73L3355.04 1705.5C3359.51 1705.44 3363.17 1708.99 3363.27 1713.46L3363.5 1729.04C3363.59 1733.55 3360 1737.21 3355.54 1737.27Z" stroke="#000000" stroke-width="3.4375" stroke-miterlimit="8" fill="#D6DBD9" fill-rule="evenodd"/><path d="M3400.79 1736.28 3385.69 1736.5C3381.37 1736.56 3377.82 1733.12 3377.72 1728.79L3377.5 1713.69C3377.44 1709.37 3380.88 1705.82 3385.21 1705.72L3400.31 1705.5C3404.63 1705.44 3408.18 1708.88 3408.28 1713.21L3408.5 1728.31C3408.55 1732.67 3405.11 1736.21 3400.79 1736.28Z" stroke="#000000" stroke-width="3.4375" stroke-miterlimit="8" fill="#D6DBD9" fill-rule="evenodd"/><path d="M3442.54 1736.27 3426.96 1736.5C3422.49 1736.56 3418.83 1733.01 3418.73 1728.54L3418.5 1712.96C3418.44 1708.49 3421.99 1704.83 3426.46 1704.73L3442.04 1704.5C3446.51 1704.44 3450.17 1707.99 3450.27 1712.46L3450.5 1728.04C3450.59 1732.55 3447 1736.21 3442.54 1736.27Z" stroke="#000000" stroke-width="3.4375" stroke-miterlimit="8" fill="#D6DBD9" fill-rule="evenodd"/><path d="M2947.54 1789.27 2931.96 1789.5C2927.49 1789.56 2923.83 1786.01 2923.73 1781.54L2923.5 1765.96C2923.44 1761.49 2926.99 1757.83 2931.46 1757.73L2947.04 1757.5C2951.51 1757.44 2955.17 1760.99 2955.27 1765.46L2955.5 1781.04C2955.56 1785.51 2952.01 1789.21 2947.54 1789.27Z" stroke="#000000" stroke-width="3.4375" stroke-miterlimit="8" fill="#D6DBD9" fill-rule="evenodd"/><path d="M2998.54 1789.27 2982.96 1789.5C2978.49 1789.56 2974.83 1786.01 2974.73 1781.54L2974.5 1765.96C2974.44 1761.49 2977.99 1757.83 2982.46 1757.73L2998.04 1757.5C3002.51 1757.44 3006.17 1760.99 3006.27 1765.46L3006.5 1781.04C3006.56 1785.51 3003.01 1789.21 2998.54 1789.27Z" stroke="#000000" stroke-width="3.4375" stroke-miterlimit="8" fill="#D6DBD9" fill-rule="evenodd"/><path d="M3045.54 1788.28 3029.96 1788.5C3025.49 1788.56 3021.83 1785.12 3021.73 1780.79L3021.5 1765.69C3021.44 1761.37 3024.99 1757.82 3029.46 1757.73L3045.04 1757.5C3049.51 1757.44 3053.17 1760.88 3053.27 1765.21L3053.5 1780.31C3053.59 1784.64 3050 1788.21 3045.54 1788.28Z" stroke="#000000" stroke-width="3.4375" stroke-miterlimit="8" fill="#D6DBD9" fill-rule="evenodd"/><path d="M3092.54 1787.28 3076.96 1787.5C3072.49 1787.56 3068.83 1784.12 3068.73 1779.79L3068.5 1764.69C3068.44 1760.37 3071.99 1756.82 3076.46 1756.73L3092.04 1756.5C3096.51 1756.44 3100.17 1759.88 3100.27 1764.21L3100.5 1779.31C3100.56 1783.67 3097.01 1787.21 3092.54 1787.28Z" stroke="#000000" stroke-width="3.4375" stroke-miterlimit="8" fill="#D6DBD9" fill-rule="evenodd"/><path d="M3141.79 1787.27 3126.69 1787.5C3122.37 1787.56 3118.82 1784.01 3118.72 1779.54L3118.5 1763.96C3118.44 1759.49 3121.88 1755.83 3126.21 1755.73L3141.31 1755.5C3145.63 1755.44 3149.18 1758.99 3149.27 1763.46L3149.5 1779.04C3149.59 1783.51 3146.12 1787.21 3141.79 1787.27Z" stroke="#000000" stroke-width="3.4375" stroke-miterlimit="8" fill="#D6DBD9" fill-rule="evenodd"/><path d="M3190.54 1786.27 3174.96 1786.5C3170.49 1786.56 3166.83 1783.01 3166.73 1778.54L3166.5 1762.96C3166.44 1758.49 3169.99 1754.83 3174.46 1754.73L3190.04 1754.5C3194.51 1754.44 3198.17 1757.99 3198.27 1762.46L3198.5 1778.04C3198.6 1782.51 3195.01 1786.2 3190.54 1786.27Z" stroke="#000000" stroke-width="3.4375" stroke-miterlimit="8" fill="#D6DBD9" fill-rule="evenodd"/><path d="M3230.79 1782.27 3215.69 1782.5C3211.37 1782.56 3207.82 1779.01 3207.72 1774.54L3207.5 1758.96C3207.44 1754.49 3210.88 1750.83 3215.21 1750.73L3230.31 1750.5C3234.63 1750.44 3238.18 1753.99 3238.27 1758.46L3238.5 1774.04C3238.59 1778.55 3235.12 1782.2 3230.79 1782.27Z" stroke="#000000" stroke-width="3.4375" stroke-miterlimit="8" fill="#D6DBD9" fill-rule="evenodd"/><path d="M3280.54 1781.27 3264.96 1781.5C3260.49 1781.56 3256.83 1778.01 3256.73 1773.54L3256.5 1757.96C3256.44 1753.49 3259.99 1749.83 3264.46 1749.73L3280.04 1749.5C3284.51 1749.44 3288.17 1752.99 3288.27 1757.46L3288.5 1773.04C3288.59 1777.55 3285.01 1781.2 3280.54 1781.27Z" stroke="#000000" stroke-width="3.4375" stroke-miterlimit="8" fill="#D6DBD9" fill-rule="evenodd"/><path d="M3325.54 1781.27 3309.96 1781.5C3305.49 1781.56 3301.83 1778.01 3301.73 1773.54L3301.5 1757.96C3301.44 1753.49 3304.99 1749.83 3309.46 1749.73L3325.04 1749.5C3329.51 1749.44 3333.17 1752.99 3333.27 1757.46L3333.5 1773.04C3333.55 1777.54 3330 1781.21 3325.54 1781.27Z" stroke="#000000" stroke-width="3.4375" stroke-miterlimit="8" fill="#D6DBD9" fill-rule="evenodd"/><path d="M3373.54 1780.27 3357.96 1780.5C3353.49 1780.56 3349.83 1777.01 3349.73 1772.54L3349.5 1756.96C3349.44 1752.49 3352.99 1748.83 3357.46 1748.73L3373.04 1748.5C3377.51 1748.44 3381.17 1751.99 3381.27 1756.46L3381.5 1772.04C3381.56 1776.51 3378.01 1780.2 3373.54 1780.27Z" stroke="#000000" stroke-width="3.4375" stroke-miterlimit="8" fill="#D6DBD9" fill-rule="evenodd"/><path d="M2854.52 1791.32 2773.97 1792.5C2769.5 1792.56 2765.83 1789.01 2765.73 1784.53L2765.5 1768.92C2765.44 1764.45 2768.99 1760.77 2773.47 1760.68L2854.03 1759.5C2858.5 1759.44 2862.17 1762.99 2862.27 1767.47L2862.5 1783.08C2862.6 1787.56 2859 1791.26 2854.52 1791.32Z" stroke="#000000" stroke-width="3.4375" stroke-miterlimit="8" fill="#D6DBD9" fill-rule="evenodd"/><path d="M2924.54 1839.27 2908.96 1839.5C2904.49 1839.56 2900.83 1836.01 2900.73 1831.54L2900.5 1815.96C2900.44 1811.49 2903.99 1807.83 2908.46 1807.73L2924.04 1807.5C2928.51 1807.44 2932.17 1810.99 2932.27 1815.46L2932.5 1831.04C2932.56 1835.51 2929.01 1839.2 2924.54 1839.27Z" stroke="#000000" stroke-width="3.4375" stroke-miterlimit="8" fill="#D6DBD9" fill-rule="evenodd"/><path d="M2898.54 1790.27 2882.96 1790.5C2878.49 1790.56 2874.83 1787.01 2874.73 1782.54L2874.5 1766.96C2874.44 1762.49 2877.99 1758.83 2882.46 1758.73L2898.04 1758.5C2902.51 1758.44 2906.17 1761.99 2906.27 1766.46L2906.5 1782.04C2906.59 1786.51 2903 1790.2 2898.54 1790.27Z" stroke="#000000" stroke-width="3.4375" stroke-miterlimit="8" fill="#D6DBD9" fill-rule="evenodd"/><path d="M3438.53 1780.96 3399.97 1781.5C3395.5 1781.56 3391.83 1778.05 3391.73 1773.62L3391.5 1758.19C3391.44 1753.77 3394.99 1750.14 3399.47 1750.04L3438.03 1749.5C3442.5 1749.44 3446.17 1752.95 3446.27 1757.38L3446.5 1772.81C3446.56 1777.27 3443 1780.89 3438.53 1780.96L3438.53 1780.96Z" stroke="#000000" stroke-width="3.4375" stroke-miterlimit="8" fill="#D6DBD9" fill-rule="evenodd"/><path d="M2876.55 1838.01 2774.95 1839.5C2770.49 1839.56 2766.83 1836.04 2766.73 1831.6L2766.5 1816.15C2766.44 1811.72 2769.98 1808.08 2774.45 1807.99L2876.05 1806.5C2880.51 1806.44 2884.17 1809.96 2884.27 1814.4L2884.5 1829.85C2884.56 1834.28 2881.01 1837.95 2876.55 1838.01Z" stroke="#000000" stroke-width="3.4375" stroke-miterlimit="8" fill="#D6DBD9" fill-rule="evenodd"/><path d="M2973.54 1836.27 2957.96 1836.5C2953.49 1836.56 2949.83 1833.01 2949.73 1828.54L2949.5 1812.96C2949.44 1808.49 2952.99 1804.83 2957.46 1804.73L2973.04 1804.5C2977.51 1804.44 2981.17 1807.99 2981.27 1812.46L2981.5 1828.04C2981.59 1832.51 2978 1836.21 2973.54 1836.27Z" stroke="#000000" stroke-width="3.4375" stroke-miterlimit="8" fill="#D6DBD9" fill-rule="evenodd"/><path d="M3026.54 1836.27 3010.96 1836.5C3006.49 1836.56 3002.83 1833.01 3002.73 1828.54L3002.5 1812.96C3002.44 1808.49 3005.99 1804.83 3010.46 1804.73L3026.04 1804.5C3030.51 1804.44 3034.17 1807.99 3034.27 1812.46L3034.5 1828.04C3034.59 1832.55 3031.01 1836.2 3026.54 1836.27Z" stroke="#000000" stroke-width="3.4375" stroke-miterlimit="8" fill="#D6DBD9" fill-rule="evenodd"/><path d="M3073.54 1835.27 3057.96 1835.5C3053.49 1835.56 3049.83 1832.01 3049.73 1827.54L3049.5 1811.96C3049.44 1807.49 3052.99 1803.83 3057.46 1803.73L3073.04 1803.5C3077.51 1803.44 3081.17 1806.99 3081.27 1811.46L3081.5 1827.04C3081.59 1831.55 3078.01 1835.21 3073.54 1835.27Z" stroke="#000000" stroke-width="3.4375" stroke-miterlimit="8" fill="#D6DBD9" fill-rule="evenodd"/><path d="M3120.54 1834.27 3104.96 1834.5C3100.49 1834.56 3096.83 1831.01 3096.73 1826.54L3096.5 1810.96C3096.44 1806.49 3099.99 1802.83 3104.46 1802.73L3120.04 1802.5C3124.51 1802.44 3128.17 1805.99 3128.27 1810.46L3128.5 1826.04C3128.56 1830.51 3125.01 1834.21 3120.54 1834.27Z" stroke="#000000" stroke-width="3.4375" stroke-miterlimit="8" fill="#D6DBD9" fill-rule="evenodd"/><path d="M3170.54 1833.27 3154.96 1833.5C3150.49 1833.56 3146.83 1830.01 3146.73 1825.54L3146.5 1809.96C3146.44 1805.49 3149.99 1801.83 3154.46 1801.73L3170.04 1801.5C3174.51 1801.44 3178.17 1804.99 3178.27 1809.46L3178.5 1825.04C3178.6 1829.51 3175.01 1833.17 3170.54 1833.27Z" stroke="#000000" stroke-width="3.4375" stroke-miterlimit="8" fill="#D6DBD9" fill-rule="evenodd"/><path d="M3218.54 1832.28 3202.96 1832.5C3198.49 1832.56 3194.83 1829.12 3194.73 1824.79L3194.5 1809.69C3194.44 1805.37 3197.99 1801.82 3202.46 1801.73L3218.04 1801.5C3222.51 1801.44 3226.17 1804.88 3226.27 1809.21L3226.5 1824.31C3226.55 1828.67 3223.01 1832.21 3218.54 1832.28Z" stroke="#000000" stroke-width="3.4375" stroke-miterlimit="8" fill="#D6DBD9" fill-rule="evenodd"/><path d="M3259.54 1828.27 3243.96 1828.5C3239.49 1828.56 3235.83 1825.12 3235.73 1820.79L3235.5 1805.69C3235.44 1801.37 3238.99 1797.82 3243.46 1797.73L3259.04 1797.5C3263.51 1797.44 3267.17 1800.88 3267.27 1805.21L3267.5 1820.31C3267.59 1824.67 3264 1828.21 3259.54 1828.27Z" stroke="#000000" stroke-width="3.4375" stroke-miterlimit="8" fill="#D6DBD9" fill-rule="evenodd"/><path d="M3308.54 1828.27 3292.96 1828.5C3288.49 1828.56 3284.83 1825.01 3284.73 1820.54L3284.5 1804.96C3284.44 1800.49 3287.99 1796.83 3292.46 1796.73L3308.04 1796.5C3312.51 1796.44 3316.17 1799.99 3316.27 1804.46L3316.5 1820.04C3316.59 1824.51 3313 1828.21 3308.54 1828.27Z" stroke="#000000" stroke-width="3.4375" stroke-miterlimit="8" fill="#D6DBD9" fill-rule="evenodd"/><path d="M3353.54 1827.27 3337.96 1827.5C3333.49 1827.56 3329.83 1824.01 3329.73 1819.54L3329.5 1803.96C3329.44 1799.49 3332.99 1795.83 3337.46 1795.73L3353.04 1795.5C3357.51 1795.44 3361.17 1798.99 3361.27 1803.46L3361.5 1819.04C3361.56 1823.51 3358.01 1827.2 3353.54 1827.27Z" stroke="#000000" stroke-width="3.4375" stroke-miterlimit="8" fill="#D6DBD9" fill-rule="evenodd"/><path d="M3443.6 1821.64 3383.9 1822.5C3379.46 1822.56 3375.83 1819.08 3375.73 1814.7L3375.5 1799.43C3375.44 1795.05 3378.96 1791.46 3383.4 1791.36L3443.1 1790.5C3447.54 1790.44 3451.17 1793.92 3451.27 1798.3L3451.5 1813.57C3451.56 1817.98 3448.03 1821.57 3443.6 1821.64Z" stroke="#000000" stroke-width="3.4375" stroke-miterlimit="8" fill="#D6DBD9" fill-rule="evenodd"/><path d="M2786.54 1883.27 2770.96 1883.5C2766.49 1883.56 2762.83 1880.01 2762.73 1875.54L2762.5 1859.96C2762.44 1855.49 2765.99 1851.83 2770.46 1851.73L2786.04 1851.5C2790.51 1851.44 2794.17 1854.99 2794.27 1859.46L2794.5 1875.04C2794.59 1879.55 2791.04 1883.21 2786.54 1883.27Z" stroke="#000000" stroke-width="3.4375" stroke-miterlimit="8" fill="#D6DBD9" fill-rule="evenodd"/><path d="M2831.79 1882.27 2816.69 1882.5C2812.37 1882.56 2808.82 1879.01 2808.73 1874.54L2808.5 1858.96C2808.44 1854.49 2811.88 1850.83 2816.21 1850.73L2831.31 1850.5C2835.63 1850.44 2839.18 1853.99 2839.28 1858.46L2839.5 1874.04C2839.55 1878.55 2836.11 1882.21 2831.79 1882.27Z" stroke="#000000" stroke-width="3.4375" stroke-miterlimit="8" fill="#D6DBD9" fill-rule="evenodd"/><path d="M2880.54 1881.27 2864.96 1881.5C2860.49 1881.56 2856.83 1878.01 2856.73 1873.54L2856.5 1857.96C2856.44 1853.49 2859.99 1849.83 2864.46 1849.73L2880.04 1849.5C2884.51 1849.44 2888.17 1852.99 2888.27 1857.46L2888.5 1873.04C2888.59 1877.51 2885.01 1881.21 2880.54 1881.27Z" stroke="#000000" stroke-width="3.4375" stroke-miterlimit="8" fill="#D6DBD9" fill-rule="evenodd"/><path d="M2925.54 1881.27 2909.96 1881.5C2905.49 1881.56 2901.83 1878.01 2901.73 1873.54L2901.5 1857.96C2901.44 1853.49 2904.99 1849.83 2909.46 1849.73L2925.04 1849.5C2929.51 1849.44 2933.17 1852.99 2933.27 1857.46L2933.5 1873.04C2933.56 1877.51 2930.01 1881.21 2925.54 1881.27Z" stroke="#000000" stroke-width="3.4375" stroke-miterlimit="8" fill="#D6DBD9" fill-rule="evenodd"/><path d="M2979.79 1880.28 2964.69 1880.5C2960.37 1880.56 2956.82 1877.12 2956.73 1872.79L2956.5 1857.69C2956.44 1853.37 2959.88 1849.82 2964.21 1849.72L2979.31 1849.5C2983.63 1849.44 2987.18 1852.88 2987.28 1857.21L2987.5 1872.31C2987.56 1876.63 2984.11 1880.21 2979.79 1880.28Z" stroke="#000000" stroke-width="3.4375" stroke-miterlimit="8" fill="#D6DBD9" fill-rule="evenodd"/><path d="M3165.57 1877.23 3010.93 1879.5C3006.48 1879.56 3002.83 1876.02 3002.73 1871.55L3002.5 1855.99C3002.44 1851.53 3005.98 1847.87 3010.43 1847.77L3165.07 1845.5C3169.52 1845.44 3173.17 1848.98 3173.27 1853.45L3173.5 1869.01C3173.59 1873.51 3170.02 1877.16 3165.57 1877.23Z" stroke="#000000" stroke-width="3.4375" stroke-miterlimit="8" fill="#D6DBD9" fill-rule="evenodd"/><path d="M3210.54 1876.28 3194.96 1876.5C3190.49 1876.56 3186.83 1873.12 3186.73 1868.79L3186.5 1853.69C3186.44 1849.37 3189.99 1845.82 3194.46 1845.73L3210.04 1845.5C3214.51 1845.44 3218.17 1848.88 3218.27 1853.21L3218.5 1868.31C3218.56 1872.63 3215.01 1876.21 3210.54 1876.28Z" stroke="#000000" stroke-width="3.4375" stroke-miterlimit="8" fill="#D6DBD9" fill-rule="evenodd"/><path d="M3258.79 1876.27 3243.69 1876.5C3239.37 1876.56 3235.82 1873.01 3235.72 1868.54L3235.5 1852.96C3235.44 1848.49 3238.88 1844.83 3243.21 1844.73L3258.31 1844.5C3262.63 1844.44 3266.18 1847.99 3266.27 1852.46L3266.5 1868.04C3266.59 1872.51 3263.11 1876.2 3258.79 1876.27Z" stroke="#000000" stroke-width="3.4375" stroke-miterlimit="8" fill="#D6DBD9" fill-rule="evenodd"/><path d="M3304.54 1875.27 3288.96 1875.5C3284.49 1875.56 3280.83 1872.01 3280.73 1867.54L3280.5 1851.96C3280.44 1847.49 3283.99 1843.83 3288.46 1843.73L3304.04 1843.5C3308.51 1843.44 3312.17 1846.99 3312.27 1851.46L3312.5 1867.04C3312.56 1871.51 3309.01 1875.17 3304.54 1875.27Z" stroke="#000000" stroke-width="3.4375" stroke-miterlimit="8" fill="#D6DBD9" fill-rule="evenodd"/><path d="M3345.79 1875.27 3330.69 1875.5C3326.37 1875.56 3322.82 1872.01 3322.72 1867.54L3322.5 1851.96C3322.44 1847.49 3325.88 1843.83 3330.21 1843.73L3345.31 1843.5C3349.63 1843.44 3353.18 1846.99 3353.27 1851.46L3353.5 1867.04C3353.59 1871.51 3350.11 1875.2 3345.79 1875.27Z" stroke="#000000" stroke-width="3.4375" stroke-miterlimit="8" fill="#D6DBD9" fill-rule="evenodd"/><path d="M3394.79 1872.27 3379.69 1872.5C3375.37 1872.56 3371.82 1869.01 3371.72 1864.54L3371.5 1848.96C3371.44 1844.49 3374.88 1840.83 3379.21 1840.73L3394.31 1840.5C3398.63 1840.44 3402.18 1843.99 3402.27 1848.46L3402.5 1864.04C3402.59 1868.55 3399.12 1872.21 3394.79 1872.27Z" stroke="#000000" stroke-width="3.4375" stroke-miterlimit="8" fill="#D6DBD9" fill-rule="evenodd"/><path d="M3443.54 1871.28 3427.96 1871.5C3423.49 1871.56 3419.83 1868.12 3419.73 1863.79L3419.5 1848.69C3419.44 1844.37 3422.99 1840.82 3427.46 1840.73L3443.04 1840.5C3447.51 1840.44 3451.17 1843.88 3451.27 1848.21L3451.5 1863.31C3451.56 1867.67 3448.01 1871.21 3443.54 1871.28Z" stroke="#000000" stroke-width="3.4375" stroke-miterlimit="8" fill="#D6DBD9" fill-rule="evenodd"/><path d="M3520.54 1735.27 3504.96 1735.5C3500.49 1735.56 3496.83 1732.01 3496.73 1727.54L3496.5 1711.96C3496.44 1707.49 3499.99 1703.83 3504.46 1703.73L3520.04 1703.5C3524.51 1703.44 3528.17 1706.99 3528.27 1711.46L3528.5 1727.04C3528.59 1731.52 3525.01 1735.17 3520.54 1735.27Z" stroke="#000000" stroke-width="3.4375" stroke-miterlimit="8" fill="#D6DBD9" fill-rule="evenodd"/><path d="M3612.54 1733.27 3596.96 1733.5C3592.49 1733.56 3588.83 1730.01 3588.73 1725.54L3588.5 1709.96C3588.44 1705.49 3591.99 1701.83 3596.46 1701.73L3612.04 1701.5C3616.51 1701.44 3620.17 1704.99 3620.27 1709.46L3620.5 1725.04C3620.59 1729.51 3617 1733.21 3612.54 1733.27Z" stroke="#000000" stroke-width="3.4375" stroke-miterlimit="8" fill="#D6DBD9" fill-rule="evenodd"/><path d="M3565.54 1734.27 3549.96 1734.5C3545.49 1734.56 3541.83 1731.01 3541.73 1726.54L3541.5 1710.96C3541.44 1706.49 3544.99 1702.83 3549.46 1702.73L3565.04 1702.5C3569.51 1702.44 3573.17 1705.99 3573.27 1710.46L3573.5 1726.04C3573.56 1730.51 3570.01 1734.21 3565.54 1734.27Z" stroke="#000000" stroke-width="3.4375" stroke-miterlimit="8" fill="#D6DBD9" fill-rule="evenodd"/><path d="M3520.54 1779.27 3504.96 1779.5C3500.49 1779.56 3496.83 1776.01 3496.73 1771.54L3496.5 1755.96C3496.44 1751.49 3499.99 1747.83 3504.46 1747.73L3520.04 1747.5C3524.51 1747.44 3528.17 1750.99 3528.27 1755.46L3528.5 1771.04C3528.56 1775.51 3525.01 1779.2 3520.54 1779.27Z" stroke="#000000" stroke-width="3.4375" stroke-miterlimit="8" fill="#D6DBD9" fill-rule="evenodd"/><path d="M3566.54 1777.27 3550.96 1777.5C3546.49 1777.56 3542.83 1774.01 3542.73 1769.54L3542.5 1753.96C3542.44 1749.49 3545.99 1745.83 3550.46 1745.73L3566.04 1745.5C3570.51 1745.44 3574.17 1748.99 3574.27 1753.46L3574.5 1769.04C3574.56 1773.51 3571 1777.21 3566.54 1777.27Z" stroke="#000000" stroke-width="3.4375" stroke-miterlimit="8" fill="#D6DBD9" fill-rule="evenodd"/><path d="M3613.54 1776.28 3597.96 1776.5C3593.49 1776.56 3589.83 1773.12 3589.73 1768.79L3589.5 1753.69C3589.44 1749.37 3592.99 1745.82 3597.46 1745.73L3613.04 1745.5C3617.51 1745.44 3621.17 1748.88 3621.27 1753.21L3621.5 1768.31C3621.59 1772.67 3618 1776.21 3613.54 1776.28Z" stroke="#000000" stroke-width="3.4375" stroke-miterlimit="8" fill="#D6DBD9" fill-rule="evenodd"/><path d="M3521.54 1823.28 3505.96 1823.5C3501.49 1823.56 3497.83 1820.12 3497.73 1815.79L3497.5 1800.69C3497.44 1796.37 3500.99 1792.82 3505.46 1792.73L3521.04 1792.5C3525.51 1792.44 3529.17 1795.88 3529.27 1800.21L3529.5 1815.31C3529.55 1819.67 3526.01 1823.21 3521.54 1823.28Z" stroke="#000000" stroke-width="3.4375" stroke-miterlimit="8" fill="#D6DBD9" fill-rule="evenodd"/><path d="M3566.79 1819.27 3551.69 1819.5C3547.37 1819.56 3543.82 1816.01 3543.73 1811.54L3543.5 1795.96C3543.44 1791.49 3546.88 1787.83 3551.21 1787.73L3566.31 1787.5C3570.63 1787.44 3574.18 1790.99 3574.27 1795.46L3574.5 1811.04C3574.59 1815.55 3571.11 1819.21 3566.79 1819.27Z" stroke="#000000" stroke-width="3.4375" stroke-miterlimit="8" fill="#D6DBD9" fill-rule="evenodd"/><path d="M3615.54 1819.27 3599.96 1819.5C3595.49 1819.56 3591.83 1816.01 3591.73 1811.54L3591.5 1795.96C3591.44 1791.49 3594.99 1787.83 3599.46 1787.73L3615.04 1787.5C3619.51 1787.44 3623.17 1790.99 3623.27 1795.46L3623.5 1811.04C3623.59 1815.51 3620 1819.21 3615.54 1819.27Z" stroke="#000000" stroke-width="3.4375" stroke-miterlimit="8" fill="#D6DBD9" fill-rule="evenodd"/><path d="M3577.56 1864.47 3506.93 1865.5C3502.48 1865.56 3498.83 1861.99 3498.73 1857.49L3498.5 1841.81C3498.44 1837.31 3501.98 1833.62 3506.44 1833.53L3577.07 1832.5C3581.52 1832.44 3585.17 1836.01 3585.27 1840.51L3585.5 1856.19C3585.59 1860.73 3582.01 1864.41 3577.56 1864.47L3577.56 1864.47Z" stroke="#000000" stroke-width="3.4375" stroke-miterlimit="8" fill="#D6DBD9" fill-rule="evenodd"/><path d="M3616.54 1863.27 3600.96 1863.5C3596.49 1863.56 3592.83 1860.01 3592.73 1855.54L3592.5 1839.96C3592.44 1835.49 3595.99 1831.83 3600.46 1831.73L3616.04 1831.5C3620.51 1831.44 3624.17 1834.99 3624.27 1839.46L3624.5 1855.04C3624.59 1859.51 3621 1863.21 3616.54 1863.27Z" stroke="#000000" stroke-width="3.4375" stroke-miterlimit="8" fill="#D6DBD9" fill-rule="evenodd"/><path d="M2885.44 1618.85C2881.97 1627.93 2899.35 1644.94 2923.71 1668.76 2926.98 1671.96 2938.1 1682.61 2954.41 1694.33 2963.33 1700.73 2970.66 1705.16 2973.89 1707.12 2982.67 1712.31 2998.81 1722.17 3020.22 1728.74 3042.07 1735.41 3057.87 1740.25 3078.28 1736.92 3086.27 1735.61 3112.32 1731.39 3118.62 1714.37 3122.27 1704.54 3117.72 1694.54 3116.07 1690.86 3093.08 1640.03 2895.84 1591.56 2885.41 1618.89L2885.44 1618.85Z" fill="#5B5742" fill-rule="evenodd" fill-opacity="0.431373"/><path d="M2862.04 1388.08C2870.84 1373.09 2876.25 1371.04 2879.45 1371.58 2887.02 1372.85 2886.99 1389.6 2900.64 1415.89 2905.28 1424.82 2909.41 1431.12 2912.9 1436.45 2936.52 1468.09 2975.62 1515.8 3002.77 1550.22 3050.23 1602.81 3062.71 1620.25 3099.45 1664.14 3102.18 1666.75 3110.37 1674.5 3113.53 1686.93 3128.39 1763.9 2967.27 1677.28 2951.26 1666.61 2919.11 1646.39 2919.52 1639.97 2867.52 1597.51 2814.96 1554.61 2807.22 1555.19 2802.5 1539.68 2804.81 1520.81 2809.27 1497.97 2817.9 1472.95 2830.59 1436.19 2847.77 1407.83 2862.04 1388.08Z" stroke="#000000" stroke-width="20.625" stroke-miterlimit="8" fill="#EBE2B3" fill-rule="evenodd"/><path d="M3353.12 1925.56C3349.49 1918.98 3362.53 1905.77 3372.69 1899.34 3376.82 1896.73 3385.01 1891.69 3396.66 1891.51 3407.96 1891.32 3415.96 1895.82 3422.21 1899.34 3429.06 1903.2 3446.86 1914.75 3444.24 1921.62 3442.53 1926.11 3433.32 1925.41 3398.95 1926.94 3364.08 1928.49 3355.58 1930.01 3353.12 1925.56Z" stroke="#000000" stroke-width="20.625" stroke-miterlimit="8" fill="#EBE2B3" fill-rule="evenodd"/></g></svg>