<?xml version="1.0" encoding="iso-8859-1"?>
<!-- Generator: Adobe Illustrator 27.0.0, SVG Export Plug-In . SVG Version: 6.00 Build 0)  -->
<svg version="1.1" id="a" xmlns="http://www.w3.org/2000/svg" xmlns:xlink="http://www.w3.org/1999/xlink" x="0px" y="0px"
	 viewBox="0 0 595.2 841.92" style="enable-background:new 0 0 595.2 841.92;" xml:space="preserve">
<path style="fill:#EBE2B3;stroke:#000000;stroke-width:6;stroke-miterlimit:10;" d="M115.6,671.98c0.65,1.31,1.18,2.44,1.57,3.31
	c1.37,3.07,2.2,5.46,2.52,6.39c0.84,2.43,0.87,2.9,2.55,8.68c2.7,9.28,2.92,9.08,3.57,12.26c0.9,4.37,0.44,4.48,1.53,10.72
	c1.01,5.77,1.55,8.69,3.06,10.72c0.39,0.52,4.25,5.55,9.7,5.11c3.58-0.29,5.96-2.8,7.66-4.6c1.03-1.08,1.83-2.19,5.62-10.21
	c2.19-4.63,3.3-7,4.09-9.19c0.42-1.16,0.7-2.09,0.91-2.9c0.86-3.27,1.41-5.38,1.64-6.29c0.53-2.1,1.8-5.08,5.11-8.68
	C148.62,682.19,132.11,677.09,115.6,671.98L115.6,671.98z"/>
<path style="fill:#EBE2B3;stroke:#000000;stroke-width:6;stroke-miterlimit:10;" d="M219.39,684.55c2.21,5.04,4.42,10.77,6.43,17.15
	c1.98,6.3,3.44,12.2,4.52,17.57c5.54,13.65,20.13,10.29,21.88-4.08c2.03-6.32,3.99-13.06,5.8-20.2c1.63-6.43,3.01-12.63,4.17-18.55
	c0.15-2.97,0.29-5.94,0.44-8.9l-43.22,17.01H219.39z"/>
<g>
	<path style="fill:#EBE2B3;stroke:#000000;stroke-width:6;stroke-miterlimit:10;" d="M56.151,551.831
		c-0.7-2.81-1.51-7.06-1.53-12.26c-0.02-5.53,0.88-7.05,1.02-11.74c0.28-9.29-3.05-9.82-3.06-17.87c0-9.56,4.66-17.06,6.13-19.4
		c3.34-5.35,4.67-4.59,8.68-10.72c3.73-5.7,5.45-10.74,7.15-15.83c2.95-8.83,2.25-10.6,4.6-18.89c1.66-5.86,3.77-13.33,8.68-20.94
		c3.2-4.96,8.6-9.77,19.4-19.4c6.94-6.19,11.94-10.18,15.83-13.28c11.86-9.44,15.76-11.46,17.36-12.26
		c5.61-2.78,10.66-5.29,17.36-5.11c3.37,0.09,8.68,0.42,14.39,0.37c0.81-0.01,2.64,0,5.02-0.15c1.02-0.07,2.73-0.2,4.79-0.48
		c3.5-0.47,6.13-1.09,6.94-1.28c11.68-2.7,17.58-4.33,22.98-3.06c6.49,1.52,10.85,5.28,14.81,8.68c2.51,2.16,5.96,6.58,12.77,15.32
		c7.57,9.73,9.32,12.34,13.79,15.83s5.03,2.67,8.17,5.62c4.18,3.92,5.75,7.77,9.7,16.85c7.55,17.36,6.93,15.09,7.66,17.36
		c0.74,2.33,1.16,4.62,2.11,9.18c1.2,5.77,1.55,8.55,3,16.87c1.13,6.46,1.66,9.7,2.04,11.23c2.56,10.37,6.41,17.41,7.66,19.91
		c5.85,11.68,5.26,25.49,4.09,53.11c-0.71,16.75-1.1,25.85-5.11,37.79c-2.07,6.16-3.02,6.87-8.17,20.94
		c-4.36,11.9-5.08,15.22-8.68,23.49c-4,9.2-6,13.8-10.21,18.89c-1.78,2.16-5.93,6.8-16.85,13.28c-9.08,5.39-19.3,11.45-34.21,14.3
		c-21.5,4.11-39.46-0.99-46.47-3.06c-4.37-1.29-5.85-2.07-14.3-4.6c-14.37-4.3-18.37-4.53-27.06-7.15c-5.2-1.57-7.81-2.3-11.06-3.55
		c-3.27-1.26-10.68-4.17-18.05-9.22c-12.53-8.57-19.42-19.48-21.96-24c-2-3.57-4.74-11.74-10.21-28.09
		c-3.61-10.79-5.44-16.26-6.13-19.91c-1.34-7.07-1.75-13.81-2.55-27.06C56.411,557.431,56.251,554.061,56.151,551.831
		L56.151,551.831z"/>
	
		<rect x="142.411" y="400.413" transform="matrix(0.4681 -0.8837 0.8837 0.4681 -293.0627 352.7618)" style="fill:#595850;stroke:#000000;stroke-width:3.0001;stroke-miterlimit:10.0002;" width="8.17" height="38.811"/>
	
		<rect x="201.147" y="415.898" transform="matrix(0.9011 -0.4337 0.4337 0.9011 -160.3193 137.2009)" style="fill:#595850;stroke:#000000;stroke-width:3.0001;stroke-miterlimit:10.0004;" width="38.811" height="8.17"/>
</g>
<ellipse style="opacity:0.47;fill:#5B5742;enable-background:new    ;" cx="191.57" cy="731.87" rx="68.04" ry="2.68"/>
<path style="fill:#A6A897;stroke:#000000;stroke-width:6;stroke-miterlimit:10;" d="M326.42,594.43l-260.9,49.41
	c-5.13,0.97-10.07-2.4-11.04-7.52l-13.46-71.04c-0.97-5.13,2.4-10.07,7.52-11.04l260.89-49.41c5.13-0.97,10.07,2.4,11.04,7.52
	l13.46,71.04C334.91,588.51,331.54,593.46,326.42,594.43z"/>
<ellipse style="fill:#E73A8F;stroke:#000000;stroke-width:3;stroke-miterlimit:10;" cx="185.96" cy="489.55" rx="21.89" ry="6.38"/>
<g>
	<path style="fill:#D6DBD9;stroke:#000000;stroke-miterlimit:10;" d="M122.17,562.78l-8.36,1.58c-1.27,0.24-2.49-0.59-2.74-1.86
		l-0.84-4.43c-0.24-1.27,0.59-2.49,1.86-2.74l8.36-1.58c1.27-0.24,2.49,0.59,2.74,1.86l0.84,4.43
		C124.27,561.32,123.44,562.54,122.17,562.78z"/>
	<path style="fill:#D6DBD9;stroke:#000000;stroke-miterlimit:10;" d="M161.88,555.26l-8.36,1.58c-1.27,0.24-2.49-0.59-2.74-1.86
		l-0.84-4.43c-0.24-1.27,0.59-2.49,1.86-2.74l8.36-1.58c1.27-0.24,2.49,0.59,2.74,1.86l0.84,4.43
		C163.98,553.79,163.15,555.02,161.88,555.26z"/>
	<path style="fill:#D6DBD9;stroke:#000000;stroke-miterlimit:10;" d="M68.5,572.95l-8.36,1.58c-1.27,0.24-2.49-0.59-2.74-1.86
		l-0.84-4.43c-0.24-1.27,0.59-2.49,1.86-2.74l8.36-1.58c1.27-0.24,2.49,0.59,2.74,1.86l0.84,4.43
		C70.61,571.48,69.77,572.71,68.5,572.95z"/>
	<path style="fill:#D6DBD9;stroke:#000000;stroke-miterlimit:10;" d="M86.2,569.59l-8.36,1.58c-1.27,0.24-2.49-0.59-2.74-1.86
		l-0.84-4.43c-0.24-1.27,0.59-2.49,1.86-2.74l8.36-1.58c1.27-0.24,2.49,0.59,2.74,1.86l0.84,4.43
		C88.31,568.13,87.47,569.35,86.2,569.59z"/>
	<path style="fill:#D6DBD9;stroke:#000000;stroke-miterlimit:10;" d="M231.38,542.1l-8.36,1.58c-1.27,0.24-2.49-0.59-2.74-1.86
		l-0.84-4.43c-0.24-1.27,0.59-2.49,1.86-2.74l8.36-1.58c1.27-0.24,2.49,0.59,2.74,1.86l0.84,4.43
		C233.49,540.63,232.65,541.85,231.38,542.1z"/>
	<path style="fill:#D6DBD9;stroke:#000000;stroke-miterlimit:10;" d="M104.4,566.15l-8.36,1.58c-1.27,0.24-2.49-0.59-2.74-1.86
		l-0.84-4.43c-0.24-1.27,0.59-2.49,1.86-2.74l8.36-1.58c1.27-0.24,2.49,0.59,2.74,1.86l0.84,4.43
		C106.51,564.68,105.67,565.91,104.4,566.15z"/>
	<path style="fill:#D6DBD9;stroke:#000000;stroke-miterlimit:10;" d="M179.73,551.88l-8.36,1.58c-1.27,0.24-2.49-0.59-2.74-1.86
		l-0.84-4.43c-0.24-1.27,0.59-2.49,1.86-2.74l8.36-1.58c1.27-0.24,2.49,0.59,2.74,1.86l0.84,4.43
		C181.83,550.41,181,551.64,179.73,551.88z"/>
	<path style="fill:#D6DBD9;stroke:#000000;stroke-miterlimit:10;" d="M196.82,548.64l-8.36,1.58c-1.27,0.24-2.49-0.59-2.74-1.86
		l-0.84-4.43c-0.24-1.27,0.59-2.49,1.86-2.74l8.36-1.58c1.27-0.24,2.49,0.59,2.74,1.86l0.84,4.43
		C198.92,547.18,198.09,548.4,196.82,548.64z"/>
	<path style="fill:#D6DBD9;stroke:#000000;stroke-miterlimit:10;" d="M214.11,545.37l-8.36,1.58c-1.27,0.24-2.49-0.59-2.74-1.86
		l-0.84-4.43c-0.24-1.27,0.59-2.49,1.86-2.74l8.36-1.58c1.27-0.24,2.49,0.59,2.74,1.86l0.84,4.43
		C216.22,543.9,215.38,545.13,214.11,545.37z"/>
	<path style="fill:#D6DBD9;stroke:#000000;stroke-miterlimit:10;" d="M142.02,559.02l-8.36,1.58c-1.27,0.24-2.49-0.59-2.74-1.86
		l-0.84-4.43c-0.24-1.27,0.59-2.49,1.86-2.74l8.36-1.58c1.27-0.24,2.49,0.59,2.74,1.86l0.84,4.43
		C144.13,557.56,143.29,558.78,142.02,559.02z"/>
	<path style="fill:#D6DBD9;stroke:#000000;stroke-miterlimit:10;" d="M251.18,537.71l-8.36,1.58c-1.27,0.24-2.49-0.59-2.74-1.86
		l-0.84-4.43c-0.24-1.27,0.59-2.49,1.86-2.74l8.36-1.58c1.27-0.24,2.49,0.59,2.74,1.86l0.84,4.43
		C253.29,536.24,252.45,537.47,251.18,537.71z"/>
	<path style="fill:#D6DBD9;stroke:#000000;stroke-miterlimit:10;" d="M79.19,584.35l-17.02,3.22c-1.27,0.24-2.49-0.59-2.74-1.86
		l-0.84-4.43c-0.24-1.27,0.59-2.49,1.86-2.74l17.02-3.22c1.27-0.24,2.49,0.59,2.74,1.86l0.84,4.43
		C81.3,582.89,80.46,584.11,79.19,584.35z"/>
	<path style="fill:#D6DBD9;stroke:#000000;stroke-miterlimit:10;" d="M93.57,581.59l-4.43,0.84c-1.27,0.24-2.49-0.59-2.74-1.86
		l-0.84-4.43c-0.24-1.27,0.59-2.49,1.86-2.74l4.43-0.84c1.27-0.24,2.49,0.59,2.74,1.86l0.84,4.43
		C95.67,580.13,94.84,581.35,93.57,581.59z"/>
	<path style="fill:#D6DBD9;stroke:#000000;stroke-miterlimit:10;" d="M106.51,579.14l-4.43,0.84c-1.27,0.24-2.49-0.59-2.74-1.86
		l-0.84-4.43c-0.24-1.27,0.59-2.49,1.86-2.74l4.43-0.84c1.27-0.24,2.49,0.59,2.74,1.86l0.84,4.43
		C108.62,577.67,107.78,578.9,106.51,579.14z"/>
	<path style="fill:#D6DBD9;stroke:#000000;stroke-miterlimit:10;" d="M120.3,576.53l-4.43,0.84c-1.27,0.24-2.49-0.59-2.74-1.86
		l-0.84-4.43c-0.24-1.27,0.59-2.49,1.86-2.74l4.43-0.84c1.27-0.24,2.49,0.59,2.74,1.86l0.84,4.43
		C122.41,575.06,121.57,576.29,120.3,576.53z"/>
	<path style="fill:#D6DBD9;stroke:#000000;stroke-miterlimit:10;" d="M133.25,574.07l-4.43,0.84c-1.27,0.24-2.49-0.59-2.74-1.86
		l-0.84-4.43c-0.24-1.27,0.59-2.49,1.86-2.74l4.43-0.84c1.27-0.24,2.49,0.59,2.74,1.86l0.84,4.43
		C135.35,572.61,134.52,573.83,133.25,574.07L133.25,574.07z"/>
	<path style="fill:#D6DBD9;stroke:#000000;stroke-miterlimit:10;" d="M148.84,571.31l-4.43,0.84c-1.27,0.24-2.49-0.59-2.74-1.86
		l-0.84-4.43c-0.24-1.27,0.59-2.49,1.86-2.74l4.43-0.84c1.27-0.24,2.49,0.59,2.74,1.86l0.84,4.43
		C150.95,569.84,150.11,571.07,148.84,571.31z"/>
	<path style="fill:#D6DBD9;stroke:#000000;stroke-miterlimit:10;" d="M161.78,568.85l-4.43,0.84c-1.27,0.24-2.49-0.59-2.74-1.86
		l-0.84-4.43c-0.24-1.27,0.59-2.49,1.86-2.74l4.43-0.84c1.27-0.24,2.49,0.59,2.74,1.86l0.84,4.43
		C163.89,567.39,163.05,568.61,161.78,568.85z"/>
	<path style="fill:#D6DBD9;stroke:#000000;stroke-miterlimit:10;" d="M175.58,566.24l-4.43,0.84c-1.27,0.24-2.49-0.59-2.74-1.86
		l-0.84-4.43c-0.24-1.27,0.59-2.49,1.86-2.74l4.43-0.84c1.27-0.24,2.49,0.59,2.74,1.86l0.84,4.43
		C177.68,564.78,176.85,566,175.58,566.24z"/>
	<path style="fill:#D6DBD9;stroke:#000000;stroke-miterlimit:10;" d="M187.77,563.79l-4.43,0.84c-1.27,0.24-2.49-0.59-2.74-1.86
		l-0.84-4.43c-0.24-1.27,0.59-2.49,1.86-2.74l4.43-0.84c1.27-0.24,2.49,0.59,2.74,1.86l0.84,4.43
		C189.87,562.32,189.04,563.55,187.77,563.79z"/>
	<path style="fill:#D6DBD9;stroke:#000000;stroke-miterlimit:10;" d="M201.82,561.13l-4.43,0.84c-1.27,0.24-2.49-0.59-2.74-1.86
		l-0.84-4.43c-0.24-1.27,0.59-2.49,1.86-2.74l4.43-0.84c1.27-0.24,2.49,0.59,2.74,1.86l0.84,4.43
		C203.92,559.66,203.09,560.89,201.82,561.13z"/>
	<path style="fill:#D6DBD9;stroke:#000000;stroke-miterlimit:10;" d="M214.76,558.68l-4.43,0.84c-1.27,0.24-2.49-0.59-2.74-1.86
		l-0.84-4.43c-0.24-1.27,0.59-2.49,1.86-2.74l4.43-0.84c1.27-0.24,2.49,0.59,2.74,1.86l0.84,4.43
		C216.87,557.21,216.03,558.44,214.76,558.68z"/>
	<path style="fill:#D6DBD9;stroke:#000000;stroke-miterlimit:10;" d="M228.55,556.06l-4.43,0.84c-1.27,0.24-2.49-0.59-2.74-1.86
		l-0.84-4.43c-0.24-1.27,0.59-2.49,1.86-2.74l4.43-0.84c1.27-0.24,2.49,0.59,2.74,1.86l0.84,4.43
		C230.66,554.6,229.82,555.82,228.55,556.06z"/>
	<path style="fill:#D6DBD9;stroke:#000000;stroke-miterlimit:10;" d="M241.5,553.61l-4.43,0.84c-1.27,0.24-2.49-0.59-2.74-1.86
		l-0.84-4.43c-0.24-1.27,0.59-2.49,1.86-2.74l4.43-0.84c1.27-0.24,2.49,0.59,2.74,1.86l0.84,4.43
		C243.6,552.15,242.77,553.37,241.5,553.61z"/>
	<path style="fill:#D6DBD9;stroke:#000000;stroke-miterlimit:10;" d="M253.44,551.49l-4.43,0.84c-1.27,0.24-2.49-0.59-2.74-1.86
		l-0.84-4.43c-0.24-1.27,0.59-2.49,1.86-2.74l4.43-0.84c1.27-0.24,2.49,0.59,2.74,1.86l0.84,4.43
		C255.55,550.03,254.71,551.25,253.44,551.49z"/>
	<path style="fill:#D6DBD9;stroke:#000000;stroke-miterlimit:10;" d="M114.23,591.39l-4.43,0.84c-1.27,0.24-2.49-0.59-2.74-1.86
		l-0.84-4.43c-0.24-1.27,0.59-2.49,1.86-2.74l4.43-0.84c1.27-0.24,2.49,0.59,2.74,1.86l0.84,4.43
		C116.33,589.92,115.5,591.15,114.23,591.39z"/>
	<path style="fill:#D6DBD9;stroke:#000000;stroke-miterlimit:10;" d="M128.72,588.83l-4.43,0.84c-1.27,0.24-2.49-0.59-2.74-1.86
		l-0.84-4.43c-0.24-1.27,0.59-2.49,1.86-2.74l4.43-0.84c1.27-0.24,2.49,0.59,2.74,1.86l0.84,4.43
		C130.82,587.36,129.99,588.59,128.72,588.83z"/>
	<path style="fill:#D6DBD9;stroke:#000000;stroke-miterlimit:10;" d="M142.18,586.28l-4.43,0.84c-1.27,0.24-2.49-0.59-2.74-1.86
		l-0.84-4.43c-0.24-1.27,0.59-2.49,1.86-2.74l4.43-0.84c1.27-0.24,2.49,0.59,2.74,1.86l0.84,4.43
		C144.29,584.81,143.45,586.04,142.18,586.28z"/>
	<path style="fill:#D6DBD9;stroke:#000000;stroke-miterlimit:10;" d="M155.67,583.61l-4.43,0.84c-1.27,0.24-2.49-0.59-2.74-1.86
		l-0.84-4.43c-0.24-1.27,0.59-2.49,1.86-2.74l4.43-0.84c1.27-0.24,2.49,0.59,2.74,1.86l0.84,4.43
		C157.77,582.15,156.94,583.37,155.67,583.61z"/>
	<path style="fill:#D6DBD9;stroke:#000000;stroke-miterlimit:10;" d="M169.78,580.94l-4.43,0.84c-1.27,0.24-2.49-0.59-2.74-1.86
		l-0.84-4.43c-0.24-1.27,0.59-2.49,1.86-2.74l4.43-0.84c1.27-0.24,2.49,0.59,2.74,1.86l0.84,4.43
		C171.89,579.47,171.05,580.7,169.78,580.94z"/>
	<path style="fill:#D6DBD9;stroke:#000000;stroke-miterlimit:10;" d="M183.57,578.33l-4.43,0.84c-1.27,0.24-2.49-0.59-2.74-1.86
		l-0.84-4.43c-0.24-1.27,0.59-2.49,1.86-2.74l4.43-0.84c1.27-0.24,2.49,0.59,2.74,1.86l0.84,4.43
		C185.68,576.86,184.84,578.09,183.57,578.33z"/>
	<path style="fill:#D6DBD9;stroke:#000000;stroke-miterlimit:10;" d="M195.04,575.15l-4.43,0.84c-1.27,0.24-2.49-0.59-2.74-1.86
		l-0.84-4.43c-0.24-1.27,0.59-2.49,1.86-2.74l4.43-0.84c1.27-0.24,2.49,0.59,2.74,1.86l0.84,4.43
		C197.15,573.69,196.31,574.91,195.04,575.15z"/>
	<path style="fill:#D6DBD9;stroke:#000000;stroke-miterlimit:10;" d="M209.09,572.49l-4.43,0.84c-1.27,0.24-2.49-0.59-2.74-1.86
		l-0.84-4.43c-0.24-1.27,0.59-2.49,1.86-2.74l4.43-0.84c1.27-0.24,2.49,0.59,2.74,1.86l0.84,4.43
		C211.2,571.03,210.36,572.25,209.09,572.49z"/>
	<path style="fill:#D6DBD9;stroke:#000000;stroke-miterlimit:10;" d="M222.04,570.04l-4.43,0.84c-1.27,0.24-2.49-0.59-2.74-1.86
		l-0.84-4.43c-0.24-1.27,0.59-2.49,1.86-2.74l4.43-0.84c1.27-0.24,2.49,0.59,2.74,1.86l0.84,4.43
		C224.14,568.58,223.31,569.8,222.04,570.04z"/>
	<path style="fill:#D6DBD9;stroke:#000000;stroke-miterlimit:10;" d="M235.83,567.43l-4.43,0.84c-1.27,0.24-2.49-0.59-2.74-1.86
		l-0.84-4.43c-0.24-1.27,0.59-2.49,1.86-2.74l4.43-0.84c1.27-0.24,2.49,0.59,2.74,1.86l0.84,4.43
		C237.93,565.96,237.1,567.19,235.83,567.43z"/>
	<path style="fill:#D6DBD9;stroke:#000000;stroke-miterlimit:10;" d="M87.57,596.62l-22.86,4.33c-1.27,0.24-2.49-0.59-2.74-1.86
		l-0.84-4.43c-0.24-1.27,0.59-2.49,1.86-2.74l22.86-4.33c1.27-0.24,2.49,0.59,2.74,1.86l0.84,4.43
		C89.68,595.15,88.84,596.38,87.57,596.62z"/>
	<path style="fill:#D6DBD9;stroke:#000000;stroke-miterlimit:10;" d="M110.14,606.67l-4.43,0.84c-1.27,0.24-2.49-0.59-2.74-1.86
		l-0.84-4.43c-0.24-1.27,0.59-2.49,1.86-2.74l4.43-0.84c1.27-0.24,2.49,0.59,2.74,1.86l0.84,4.43
		C112.24,605.2,111.41,606.43,110.14,606.67z"/>
	<path style="fill:#D6DBD9;stroke:#000000;stroke-miterlimit:10;" d="M100.18,594.05l-4.43,0.84c-1.27,0.24-2.49-0.59-2.74-1.86
		l-0.84-4.43c-0.24-1.27,0.59-2.49,1.86-2.74l4.43-0.84c1.27-0.24,2.49,0.59,2.74,1.86l0.84,4.43
		C102.29,592.58,101.45,593.81,100.18,594.05z"/>
	<path style="fill:#D6DBD9;stroke:#000000;stroke-miterlimit:10;" d="M254.32,564.36l-10.95,2.07c-1.27,0.24-2.49-0.59-2.74-1.86
		l-0.84-4.43c-0.24-1.27,0.59-2.49,1.86-2.74l10.95-2.07c1.27-0.24,2.49,0.59,2.74,1.86l0.84,4.43
		C256.42,562.9,255.59,564.12,254.32,564.36L254.32,564.36z"/>
	<path style="fill:#D6DBD9;stroke:#000000;stroke-miterlimit:10;" d="M96.15,608.85l-28.91,5.48c-1.27,0.24-2.49-0.59-2.74-1.86
		l-0.84-4.43c-0.24-1.27,0.59-2.49,1.86-2.74l28.91-5.48c1.27-0.24,2.49,0.59,2.74,1.86l0.84,4.43
		C98.25,607.38,97.42,608.61,96.15,608.85z"/>
	<path style="fill:#D6DBD9;stroke:#000000;stroke-miterlimit:10;" d="M123.97,603.58l-4.43,0.84c-1.27,0.24-2.49-0.59-2.74-1.86
		l-0.84-4.43c-0.24-1.27,0.59-2.49,1.86-2.74l4.43-0.84c1.27-0.24,2.49,0.59,2.74,1.86l0.84,4.43
		C126.08,602.11,125.24,603.34,123.97,603.58z"/>
	<path style="fill:#D6DBD9;stroke:#000000;stroke-miterlimit:10;" d="M139.13,600.74l-4.43,0.84c-1.27,0.24-2.49-0.59-2.74-1.86
		l-0.84-4.43c-0.24-1.27,0.59-2.49,1.86-2.74l4.43-0.84c1.27-0.24,2.49,0.59,2.74,1.86l0.84,4.43
		C141.24,599.28,140.4,600.5,139.13,600.74z"/>
	<path style="fill:#D6DBD9;stroke:#000000;stroke-miterlimit:10;" d="M152.59,598.19l-4.43,0.84c-1.27,0.24-2.49-0.59-2.74-1.86
		l-0.84-4.43c-0.24-1.27,0.59-2.49,1.86-2.74l4.43-0.84c1.27-0.24,2.49,0.59,2.74,1.86l0.84,4.43
		C154.7,596.73,153.86,597.95,152.59,598.19z"/>
	<path style="fill:#D6DBD9;stroke:#000000;stroke-miterlimit:10;" d="M166.08,595.53l-4.43,0.84c-1.27,0.24-2.49-0.59-2.74-1.86
		l-0.84-4.43c-0.24-1.27,0.59-2.49,1.86-2.74l4.43-0.84c1.27-0.24,2.49,0.59,2.74,1.86l0.84,4.43
		C168.18,594.06,167.35,595.29,166.08,595.53z"/>
	<path style="fill:#D6DBD9;stroke:#000000;stroke-miterlimit:10;" d="M180.19,592.86l-4.43,0.84c-1.27,0.24-2.49-0.59-2.74-1.86
		l-0.84-4.43c-0.24-1.27,0.59-2.49,1.86-2.74l4.43-0.84c1.27-0.24,2.49,0.59,2.74,1.86l0.84,4.43
		C182.3,591.39,181.46,592.61,180.19,592.86z"/>
	<path style="fill:#D6DBD9;stroke:#000000;stroke-miterlimit:10;" d="M193.99,590.24l-4.43,0.84c-1.27,0.24-2.49-0.59-2.74-1.86
		l-0.84-4.43c-0.24-1.27,0.59-2.49,1.86-2.74l4.43-0.84c1.27-0.24,2.49,0.59,2.74,1.86l0.84,4.43
		C196.09,588.78,195.26,590,193.99,590.24z"/>
	<path style="fill:#D6DBD9;stroke:#000000;stroke-miterlimit:10;" d="M205.45,587.07l-4.43,0.84c-1.27,0.24-2.49-0.59-2.74-1.86
		l-0.84-4.43c-0.24-1.27,0.59-2.49,1.86-2.74l4.43-0.84c1.27-0.24,2.49,0.59,2.74,1.86l0.84,4.43
		C207.56,585.61,206.72,586.83,205.45,587.07z"/>
	<path style="fill:#D6DBD9;stroke:#000000;stroke-miterlimit:10;" d="M219.5,584.41l-4.43,0.84c-1.27,0.24-2.49-0.59-2.74-1.86
		l-0.84-4.43c-0.24-1.27,0.59-2.49,1.86-2.74l4.43-0.84c1.27-0.24,2.49,0.59,2.74,1.86l0.84,4.43
		C221.61,582.94,220.77,584.17,219.5,584.41z"/>
	<path style="fill:#D6DBD9;stroke:#000000;stroke-miterlimit:10;" d="M232.45,581.96l-4.43,0.84c-1.27,0.24-2.49-0.59-2.74-1.86
		l-0.84-4.43c-0.24-1.27,0.59-2.49,1.86-2.74l4.43-0.84c1.27-0.24,2.49,0.59,2.74,1.86l0.84,4.43
		C234.55,580.49,233.72,581.72,232.45,581.96z"/>
	<path style="fill:#D6DBD9;stroke:#000000;stroke-miterlimit:10;" d="M258.04,575.82l-17.1,3.24c-1.27,0.24-2.49-0.59-2.74-1.86
		l-0.84-4.43c-0.24-1.27,0.59-2.49,1.86-2.74l17.1-3.24c1.27-0.24,2.49,0.59,2.74,1.86l0.84,4.43
		C260.14,574.36,259.31,575.58,258.04,575.82z"/>
	<path style="fill:#D6DBD9;stroke:#000000;stroke-miterlimit:10;" d="M72.75,626.17l-4.43,0.84c-1.27,0.24-2.49-0.59-2.74-1.86
		l-0.84-4.43c-0.24-1.27,0.59-2.49,1.86-2.74l4.43-0.84c1.27-0.24,2.49,0.59,2.74,1.86l0.84,4.43
		C74.86,624.71,74.03,625.93,72.75,626.17z"/>
	<path style="fill:#D6DBD9;stroke:#000000;stroke-miterlimit:10;" d="M85.7,623.72l-4.43,0.84c-1.27,0.24-2.49-0.59-2.74-1.86
		l-0.84-4.43c-0.24-1.27,0.59-2.49,1.86-2.74l4.43-0.84c1.27-0.24,2.49,0.59,2.74,1.86l0.84,4.43
		C87.8,622.26,86.97,623.48,85.7,623.72z"/>
	<path style="fill:#D6DBD9;stroke:#000000;stroke-miterlimit:10;" d="M99.49,621.11l-4.43,0.84c-1.27,0.24-2.49-0.59-2.74-1.86
		l-0.84-4.43c-0.24-1.27,0.59-2.49,1.86-2.74l4.43-0.84c1.27-0.24,2.49,0.59,2.74,1.86l0.84,4.43
		C101.6,619.64,100.76,620.87,99.49,621.11z"/>
	<path style="fill:#D6DBD9;stroke:#000000;stroke-miterlimit:10;" d="M112.44,618.66l-4.43,0.84c-1.27,0.24-2.49-0.59-2.74-1.86
		l-0.84-4.43c-0.24-1.27,0.59-2.49,1.86-2.74l4.43-0.84c1.27-0.24,2.49,0.59,2.74,1.86l0.84,4.43
		C114.54,617.19,113.71,618.42,112.44,618.66z"/>
	<path style="fill:#D6DBD9;stroke:#000000;stroke-miterlimit:10;" d="M128.03,615.89l-4.43,0.84c-1.27,0.24-2.49-0.59-2.74-1.86
		l-0.84-4.43c-0.24-1.27,0.59-2.49,1.86-2.74l4.43-0.84c1.27-0.24,2.49,0.59,2.74,1.86l0.84,4.43
		C130.13,614.42,129.3,615.65,128.03,615.89z"/>
	<path style="fill:#D6DBD9;stroke:#000000;stroke-miterlimit:10;" d="M181,605.71l-44.13,8.36c-1.27,0.24-2.49-0.59-2.74-1.86
		l-0.84-4.43c-0.24-1.27,0.59-2.49,1.86-2.74l44.13-8.36c1.27-0.24,2.49,0.59,2.74,1.86l0.84,4.43
		C183.11,604.25,182.27,605.47,181,605.71z"/>
	<path style="fill:#D6DBD9;stroke:#000000;stroke-miterlimit:10;" d="M193.95,603.26l-4.43,0.84c-1.27,0.24-2.49-0.59-2.74-1.86
		l-0.84-4.43c-0.24-1.27,0.59-2.49,1.86-2.74l4.43-0.84c1.27-0.24,2.49,0.59,2.74,1.86l0.84,4.43
		C196.05,601.79,195.22,603.02,193.95,603.26z"/>
	<path style="fill:#D6DBD9;stroke:#000000;stroke-miterlimit:10;" d="M207.74,600.65l-4.43,0.84c-1.27,0.24-2.49-0.59-2.74-1.86
		l-0.84-4.43c-0.24-1.27,0.59-2.49,1.86-2.74l4.43-0.84c1.27-0.24,2.49,0.59,2.74,1.86l0.84,4.43
		C209.85,599.18,209.01,600.41,207.74,600.65z"/>
	<path style="fill:#D6DBD9;stroke:#000000;stroke-miterlimit:10;" d="M220.69,598.2l-4.43,0.84c-1.27,0.24-2.49-0.59-2.74-1.86
		l-0.84-4.43c-0.24-1.27,0.59-2.49,1.86-2.74l4.43-0.84c1.27-0.24,2.49,0.59,2.74,1.86l0.84,4.43
		C222.79,596.73,221.96,597.95,220.69,598.2z"/>
	<path style="fill:#D6DBD9;stroke:#000000;stroke-miterlimit:10;" d="M232.63,596.08l-4.43,0.84c-1.27,0.24-2.49-0.59-2.74-1.86
		l-0.84-4.43c-0.24-1.27,0.59-2.49,1.86-2.74l4.43-0.84c1.27-0.24,2.49,0.59,2.74,1.86l0.84,4.43
		C234.74,594.61,233.9,595.84,232.63,596.08z"/>
	<path style="fill:#D6DBD9;stroke:#000000;stroke-miterlimit:10;" d="M246.57,592.81l-4.43,0.84c-1.27,0.24-2.49-0.59-2.74-1.86
		l-0.84-4.43c-0.24-1.27,0.59-2.49,1.86-2.74l4.43-0.84c1.27-0.24,2.49,0.59,2.74,1.86l0.84,4.43
		C248.68,591.35,247.84,592.57,246.57,592.81z"/>
	<path style="fill:#D6DBD9;stroke:#000000;stroke-miterlimit:10;" d="M260.37,590.2l-4.43,0.84c-1.27,0.24-2.49-0.59-2.74-1.86
		l-0.84-4.43c-0.24-1.27,0.59-2.49,1.86-2.74l4.43-0.84c1.27-0.24,2.49,0.59,2.74,1.86l0.84,4.43
		C262.47,588.74,261.64,589.96,260.37,590.2z"/>
</g>
<path style="fill:#D6DBD9;stroke:#000000;stroke-miterlimit:10;" d="M275.53,547.13l-4.43,0.84c-1.27,0.24-2.49-0.59-2.74-1.86
	l-0.84-4.43c-0.24-1.27,0.59-2.49,1.86-2.74l4.43-0.84c1.27-0.24,2.49,0.59,2.74,1.86l0.84,4.43
	C277.64,545.66,276.8,546.88,275.53,547.13z"/>
<path style="fill:#D6DBD9;stroke:#000000;stroke-miterlimit:10;" d="M302.06,542.1l-4.43,0.84c-1.27,0.24-2.49-0.59-2.74-1.86
	l-0.84-4.43c-0.24-1.27,0.59-2.49,1.86-2.74l4.43-0.84c1.27-0.24,2.49,0.59,2.74,1.86l0.84,4.43
	C304.17,540.63,303.33,541.86,302.06,542.1z"/>
<path style="fill:#D6DBD9;stroke:#000000;stroke-miterlimit:10;" d="M288.57,544.66l-4.43,0.84c-1.27,0.24-2.49-0.59-2.74-1.86
	l-0.84-4.43c-0.24-1.27,0.59-2.49,1.86-2.74l4.43-0.84c1.27-0.24,2.49,0.59,2.74,1.86l0.84,4.43
	C290.67,543.19,289.84,544.42,288.57,544.66z"/>
<path style="fill:#D6DBD9;stroke:#000000;stroke-miterlimit:10;" d="M277.95,559.89l-4.43,0.84c-1.27,0.24-2.49-0.59-2.74-1.86
	l-0.84-4.43c-0.24-1.27,0.59-2.49,1.86-2.74l4.43-0.84c1.27-0.24,2.49,0.59,2.74,1.86l0.84,4.43
	C280.05,558.42,279.22,559.65,277.95,559.89z"/>
<path style="fill:#D6DBD9;stroke:#000000;stroke-miterlimit:10;" d="M290.91,557l-4.43,0.84c-1.27,0.24-2.49-0.59-2.74-1.86
	l-0.84-4.43c-0.24-1.27,0.59-2.49,1.86-2.74l4.43-0.84c1.27-0.24,2.49,0.59,2.74,1.86l0.84,4.43
	C293.01,555.53,292.18,556.76,290.91,557z"/>
<path style="fill:#D6DBD9;stroke:#000000;stroke-miterlimit:10;" d="M304.4,554.44l-4.43,0.84c-1.27,0.24-2.49-0.59-2.74-1.86
	l-0.84-4.43c-0.24-1.27,0.59-2.49,1.86-2.74l4.43-0.84c1.27-0.24,2.49,0.59,2.74,1.86l0.84,4.43
	C306.51,552.98,305.67,554.2,304.4,554.44z"/>
<path style="fill:#D6DBD9;stroke:#000000;stroke-miterlimit:10;" d="M280.41,572.49l-4.43,0.84c-1.27,0.24-2.49-0.59-2.74-1.86
	l-0.84-4.43c-0.24-1.27,0.59-2.49,1.86-2.74l4.43-0.84c1.27-0.24,2.49,0.59,2.74,1.86l0.84,4.43
	C282.51,571.03,281.68,572.25,280.41,572.49z"/>
<path style="fill:#D6DBD9;stroke:#000000;stroke-miterlimit:10;" d="M293.15,568.85l-4.43,0.84c-1.27,0.24-2.49-0.59-2.74-1.86
	l-0.84-4.43c-0.24-1.27,0.59-2.49,1.86-2.74l4.43-0.84c1.27-0.24,2.49,0.59,2.74,1.86l0.84,4.43
	C295.26,567.39,294.42,568.61,293.15,568.85z"/>
<path style="fill:#D6DBD9;stroke:#000000;stroke-miterlimit:10;" d="M307.16,566.52l-4.43,0.84c-1.27,0.24-2.49-0.59-2.74-1.86
	l-0.84-4.43c-0.24-1.27,0.59-2.49,1.86-2.74l4.43-0.84c1.27-0.24,2.49,0.59,2.74,1.86l0.84,4.43
	C309.27,565.05,308.43,566.28,307.16,566.52z"/>
<path style="fill:#D6DBD9;stroke:#000000;stroke-miterlimit:10;" d="M298.37,581.43l-20.14,3.81c-1.27,0.24-2.49-0.59-2.74-1.86
	l-0.84-4.43c-0.24-1.27,0.59-2.49,1.86-2.74l20.14-3.81c1.27-0.24,2.49,0.59,2.74,1.86l0.84,4.43
	C300.48,579.97,299.64,581.19,298.37,581.43L298.37,581.43z"/>
<path style="fill:#D6DBD9;stroke:#000000;stroke-miterlimit:10;" d="M309.55,579.14l-4.43,0.84c-1.27,0.24-2.49-0.59-2.74-1.86
	l-0.84-4.43c-0.24-1.27,0.59-2.49,1.86-2.74l4.43-0.84c1.27-0.24,2.49,0.59,2.74,1.86l0.84,4.43
	C311.66,577.67,310.82,578.9,309.55,579.14z"/>
<path style="fill:#231815;stroke:#000000;stroke-width:6;stroke-miterlimit:10;" d="M123.476,434.723
	c-3.894,2.95-1.624,13.179,2.328,19.581c1.413,2.289,4.537,7.35,10.948,9.27c5.498,1.647,10.161,0.009,11.489-0.511
	c6.83-2.675,13.121-10.143,11.667-15.554c-0.655-2.438-2.527-3.138-23.925-10.475C128.843,434.585,125.237,433.388,123.476,434.723z
	"/>
<path style="opacity:0.43;fill:#5B5742;enable-background:new    ;" d="M79.74,531.7c-1.01,2.64,4.04,7.59,11.12,14.52
	c0.95,0.93,4.18,4.03,8.92,7.44c2.59,1.86,4.72,3.15,5.66,3.72c2.55,1.51,7.24,4.38,13.46,6.29c6.35,1.94,10.94,3.35,16.87,2.38
	c2.32-0.38,9.89-1.61,11.72-6.56c1.06-2.86-0.26-5.77-0.74-6.84c-6.68-14.79-63.99-28.89-67.02-20.94L79.74,531.7z"/>
<path style="fill:#EBE2B3;stroke:#000000;stroke-width:6;stroke-miterlimit:10;" d="M72.809,464.273
	c2.559-4.368,4.13-4.966,5.059-4.809c2.199,0.372,2.191,5.251,6.158,12.911c1.347,2.602,2.546,4.437,3.56,5.99
	c6.863,9.217,18.225,23.118,26.114,33.145c13.789,15.323,17.413,20.404,28.09,33.19c0.791,0.759,3.171,3.019,4.091,6.639
	c4.316,22.424-42.496-2.812-47.149-5.92c-9.341-5.89-9.221-7.76-24.331-20.13c-15.27-12.5-17.52-12.33-18.89-16.85
	c0.67-5.497,1.966-12.151,4.475-19.441C63.672,478.288,68.663,470.026,72.809,464.273z"/>
<path style="opacity:0.43;fill:#5B5742;enable-background:new    ;" d="M227.16,555.6c2.21,3.67,13.91,1.77,18.92,0.36
	c4.11-1.15,8.24-3.24,9.83-4.09c1.05-0.55,3.25-1.76,5.87-3.57c4.35-3.01,6.27-5.11,10.98-9.7c6.33-6.17,10.79-9.54,15.06-16.21
	c0.92-1.43,2.21-3.61,1.47-5.55c-0.95-2.47-4.66-3.13-5.98-3.4C270.39,510.82,221.99,547.04,227.16,555.6L227.16,555.6z"/>
<path style="fill:#EBE2B3;stroke:#000000;stroke-width:6;stroke-miterlimit:10;" d="M280.07,458.11c-1.42,1.6-3.57,4.14-5.9,7.46
	c-3.52,5.02-5.13,8.49-7.91,13.53c-1.05,1.9-3.69,6.14-8.94,14.55c-6.1,9.78-9.14,14.67-12.51,19.93
	c-16.02,25.05-21.81,31.52-19.4,34.96c0.95,1.36,3.41,2.59,10.46,1.25c7.29-1.72,17.34-5.02,27.9-11.65
	c17.16-10.78,26.65-24.71,31.17-32.54c0.05-3.22-0.36-5.36-2.53-10.96c-2.485-6.412-1.21-10.291-4.09-19.4
	c-0.894-2.828-2.523-7.057-5.66-11.946C281.796,461.566,280.933,459.838,280.07,458.11z"/>
<circle style="fill:#FFFFFF;" cx="143.924" cy="456.12" r="5.83"/>
<path style="fill:#231815;stroke:#000000;stroke-width:6;stroke-miterlimit:10;" d="M240.843,434.723
	c3.894,2.95,1.624,13.179-2.328,19.581c-1.413,2.289-4.537,7.35-10.948,9.27c-5.498,1.647-10.161,0.009-11.489-0.511
	c-6.83-2.675-13.121-10.143-11.667-15.554c0.655-2.438,2.527-3.138,23.925-10.475C235.476,434.585,239.082,433.388,240.843,434.723z
	"/>
<circle style="fill:#FFFFFF;" cx="223.53" cy="456.12" r="5.83"/>
</svg>
