<svg width="677" height="573" xmlns="http://www.w3.org/2000/svg" xmlns:xlink="http://www.w3.org/1999/xlink" xml:space="preserve" overflow="hidden"><g transform="translate(-1543 -1235)"><path d="M2012.8 1675.48 2139.88 1661.64 2126.79 1777.6 2050.54 1785.9Z" stroke="#767171" stroke-width="4.58333" stroke-miterlimit="8" fill="#767171" fill-rule="evenodd"/><path d="M1776.41 1673.82 1903.79 1663.05 1887.91 1778.65 1811.48 1785.11Z" stroke="#767171" stroke-width="4.58333" stroke-miterlimit="8" fill="#767171" fill-rule="evenodd"/><path d="M1743.5 1594C1743.5 1503.15 1849.61 1429.5 1980.5 1429.5 2111.39 1429.5 2217.5 1503.15 2217.5 1594 2217.5 1684.85 2111.39 1758.5 1980.5 1758.5 1849.61 1758.5 1743.5 1684.85 1743.5 1594Z" stroke="#A5A5A5" stroke-width="4.58333" stroke-miterlimit="8" fill="#A5A5A5" fill-rule="evenodd"/><path d="M1845.5 1485.5 1900.76 1353.5 1941.5 1485.5Z" stroke="#A5A5A5" stroke-width="4.58333" stroke-miterlimit="8" fill="#A5A5A5" fill-rule="evenodd"/><path d="M1940.99 1452.85 2017.02 1332.22 2035.49 1470.28Z" stroke="#A5A5A5" stroke-width="4.58333" stroke-miterlimit="8" fill="#A5A5A5" fill-rule="evenodd"/><path d="M2023.07 1478.85 2142.17 1378.5 2114.39 1508.75Z" stroke="#A5A5A5" stroke-width="4.58333" stroke-miterlimit="8" fill="#A5A5A5" fill-rule="evenodd"/><path d="M1644.6 1524.59C1658.54 1475.06 1710.89 1447.35 1761.53 1462.68 1812.17 1478.01 1841.92 1530.59 1827.98 1580.11 1814.04 1629.64 1761.69 1657.36 1711.05 1642.03 1683.5 1633.69 1660.82 1613.68 1649.29 1587.53L1736.29 1552.35Z" stroke="#A5A5A5" stroke-width="4.58333" stroke-miterlimit="8" fill="#A5A5A5" fill-rule="evenodd"/><path d="M1694.5 1505C1694.5 1501.41 1696.96 1498.5 1700 1498.5 1703.04 1498.5 1705.5 1501.41 1705.5 1505 1705.5 1508.59 1703.04 1511.5 1700 1511.5 1696.96 1511.5 1694.5 1508.59 1694.5 1505Z" stroke="#000000" stroke-width="4.58333" stroke-miterlimit="8" fill-rule="evenodd"/><path d="M1779.35 1668.51 1905.17 1691.06 1859.93 1798.62 1784.43 1785.09Z" stroke="#A5A5A5" stroke-width="4.58333" stroke-miterlimit="8" fill="#A5A5A5" fill-rule="evenodd"/><path d="M2017.15 1667.53 2140.35 1701.63 2085.34 1804.54 2011.42 1784.08Z" stroke="#A5A5A5" stroke-width="4.58333" stroke-miterlimit="8" fill="#A5A5A5" fill-rule="evenodd"/><path d="M1707.99 1356.84C1705.78 1356.11 1703.69 1355.09 1701.37 1354.65 1683.22 1351.18 1688.82 1355.19 1670.95 1369.99 1669.25 1386.19 1648.41 1435.72 1692.12 1442.3 1703.75 1444.06 1713.28 1433.54 1723.86 1429.16 1729.15 1416.37 1738.92 1404.3 1739.73 1390.81 1741.34 1364.08 1715.64 1355.74 1694.76 1342.59 1687.71 1345.15 1676.95 1344.52 1673.6 1350.26 1658.18 1376.66 1695.05 1394.37 1715.92 1402.86 1724.67 1406.41 1735.32 1404.32 1745.02 1405.05 1747.67 1393.73 1758.06 1381.81 1752.96 1371.08 1726.02 1314.5 1660.25 1314.71 1599.53 1298.76 1582.78 1304.97 1558.76 1304.38 1549.27 1317.39 1540.96 1328.8 1547.64 1346.12 1557.21 1356.84 1602.99 1408.11 1634.65 1398.5 1702.7 1403.95 1733.16 1395.92 1827.56 1394.27 1800.57 1337.12 1793.27 1321.66 1769.71 1315.93 1754.28 1305.34 1741.05 1306.07 1725.13 1300.86 1714.6 1307.53 1706.08 1312.93 1703.54 1326.34 1709.31 1333.83 1721.94 1350.23 1742.69 1362.13 1763.54 1371.08 1780.35 1378.3 1800.57 1377.66 1819.09 1380.94 1816 1371.08 1817.64 1359.23 1809.83 1351.36 1752.54 1293.62 1744.37 1301.86 1666.99 1286.71 1660.81 1294.38 1647.32 1300.55 1648.47 1309.72 1655.64 1367.11 1739.09 1370.51 1786.02 1385.33 1798.81 1378.75 1823.34 1378.04 1824.38 1365.6 1827.94 1322.86 1753.15 1307.87 1725.18 1297.67 1723.73 1298.05 1653.03 1307.64 1688.15 1333.83 1706.71 1347.67 1734.88 1348.44 1758.25 1355.74 1776.76 1352.09 1814.36 1360.55 1813.8 1344.79 1811.78 1287.97 1708.52 1263.77 1666.99 1248.36 1649.79 1250.19 1629.78 1245.81 1615.4 1253.84 1605.56 1259.34 1601.71 1273.21 1606.15 1282.33 1637.15 1346.12 1662.95 1340.02 1731.79 1359.03 1735.32 1349.17 1748.2 1338.53 1742.38 1329.45 1713.22 1283.98 1677.22 1287.49 1627.31 1280.14 1618.49 1288.9 1602.74 1295.13 1600.85 1306.43 1591.26 1364.09 1710.67 1375.33 1737.08 1384.23 1755.16 1376.56 1788.3 1377.86 1791.31 1361.22 1799.45 1316.27 1717.93 1313.59 1693.44 1309.72 1688.15 1318.49 1673.64 1326.77 1677.57 1336.02 1696.6 1380.83 1748.6 1370.27 1789.99 1372.18 1786.46 1358.3 1792.74 1339.44 1779.41 1330.54 1696.06 1274.88 1667.67 1285.41 1581.02 1287.81 1581.9 1299.5 1575.87 1313.1 1583.66 1322.87 1613.79 1360.64 1651.77 1348.44 1696.08 1346.98 1676.6 1314.69 1674.59 1289.32 1618.05 1290 1603.61 1290.17 1593.36 1302.42 1581.02 1308.63 1600.67 1329.56 1607.02 1344.63 1651.11 1339.31 1659.51 1338.29 1659.05 1326.89 1663.02 1320.68 1649.79 1313.37 1639.23 1298.96 1623.34 1298.76 1568.61 1298.1 1573.23 1318.86 1567.79 1345.88 1584.05 1353.74 1634.94 1390.46 1660.37 1360.13 1667.77 1351.3 1652.44 1339.67 1648.47 1329.45 1611.34 1331.5 1580.34 1324.05 1578.37 1375.47 1577.93 1386.84 1596.89 1392.27 1606.15 1400.67 1640.98 1395.08 1679.34 1399.66 1660.37 1346.98 1656.54 1336.33 1636.57 1336.75 1624.66 1331.64 1612.07 1343.6 1543.46 1388.87 1582.34 1419.29 1593.46 1428 1612.32 1414.18 1627.31 1411.62 1643.62 1393 1665.07 1376.81 1676.24 1355.74 1679.26 1350.06 1670.86 1334.83 1665.66 1339.31 1652.1 1350.99 1650.67 1369.26 1643.18 1384.23 1668.03 1419.91 1671.93 1445.55 1751.63 1405.05 1766.6 1397.45 1758.69 1376.56 1762.21 1362.32 1753.4 1361.95 1742.54 1356.54 1735.76 1361.22 1695.12 1389.28 1707.95 1391.33 1727.83 1402.86 1732.24 1393.73 1742.17 1385.26 1741.05 1375.47 1739.74 1363.92 1734.88 1342.24 1721.21 1344.79 1702.01 1348.37 1699.17 1371.81 1688.15 1385.33 1695.2 1395.55 1695.14 1415.06 1709.31 1416.01 1723.66 1416.97 1736.76 1400.54 1737.08 1388.61 1738.17 1348.27 1732.82 1306.14 1713.28 1269.18 1704.35 1252.29 1676.24 1248.73 1657.73 1238.5 1650.67 1249.09 1636.57 1258.18 1636.57 1270.28 1636.57 1312.02 1658.52 1308.78 1690.79 1315.2 1694.32 1298.4 1704.29 1281.68 1701.37 1264.8 1699.88 1256.1 1688.43 1242.35 1678.89 1246.17 1665.03 1251.73 1666.55 1269.55 1660.37 1281.23 1667.87 1290.73 1670.61 1304.65 1682.86 1309.72 1693.62 1314.18 1708.9 1311.28 1718.57 1305.34 1725.44 1301.11 1726.21 1291.34 1723.86 1284.52 1722.23 1279.81 1718.57 1293.29 1715.92 1297.67 1722.54 1308.26 1721.9 1326.23 1735.76 1329.45 1746.02 1331.82 1745.89 1313.78 1748.99 1305.34 1749.39 1304.23 1746.34 1304.61 1745.02 1304.24 1744.14 1319.22 1739.62 1334.35 1742.38 1349.17 1743.37 1354.53 1750.83 1364.94 1755.6 1361.22 1764.56 1354.24 1761.77 1341.5 1764.86 1331.64 1759.57 1312.64 1762.24 1290.76 1748.99 1274.66 1744.1 1268.71 1729.8 1277.33 1725.18 1283.42 1714.58 1297.42 1712.84 1314.84 1706.66 1330.54 1715.04 1337.85 1719.88 1350.44 1731.79 1352.46 1792.4 1362.72 1760.03 1279.83 1755.6 1273.56 1745.34 1259.04 1719.45 1258.22 1701.37 1250.55 1671.88 1271.23 1606.95 1299.87 1641.86 1348.07 1654.2 1365.12 1686.83 1361.95 1709.31 1368.89 1722.98 1355.38 1748.84 1345.94 1750.31 1328.35 1754.58 1277.47 1666.17 1286.32 1641.86 1284.52 1625.98 1302.42 1599.62 1316.45 1594.24 1338.21 1590.8 1352.15 1602.62 1372.34 1619.37 1375.47 1643.04 1379.88 1665.22 1362.32 1688.15 1355.74 1687.71 1344.05 1697.37 1328.45 1686.83 1320.68 1677.86 1314.08 1659.93 1321.69 1652.44 1329.45 1640.24 1342.07 1640.09 1360.13 1633.92 1375.47 1642.74 1382.41 1648.21 1396.28 1660.37 1396.28 1703.94 1396.28 1718.65 1341.07 1704.02 1318.49 1698.13 1309.4 1681.09 1326.52 1669.63 1330.54 1665.22 1345.15 1651.37 1359.9 1656.41 1374.37 1660.43 1385.96 1678.6 1390.71 1692.12 1395.19 1695.98 1396.47 1702.7 1389.71 1702.7 1389.71" stroke="#172C51" stroke-width="4.58333" stroke-miterlimit="8" fill="none" fill-rule="evenodd"/></g></svg>