<svg width="578" height="484" xmlns="http://www.w3.org/2000/svg" xmlns:xlink="http://www.w3.org/1999/xlink" xml:space="preserve" overflow="hidden"><g transform="translate(-2346 -1307)"><path d="M2715.42 1675.54 2837.08 1636.28 2847.71 1752.49 2774.72 1776.05Z" stroke="#767171" stroke-width="4.58333" stroke-miterlimit="8" fill="#767171" fill-rule="evenodd"/><path d="M2485.97 1669.85 2611.11 1643.78 2609.3 1760.45 2534.22 1776.1Z" stroke="#767171" stroke-width="4.58333" stroke-miterlimit="8" fill="#767171" fill-rule="evenodd"/><path d="M2447.5 1576C2447.5 1485.15 2553.61 1411.5 2684.5 1411.5 2815.39 1411.5 2921.5 1485.15 2921.5 1576 2921.5 1666.85 2815.39 1740.5 2684.5 1740.5 2553.61 1740.5 2447.5 1666.85 2447.5 1576Z" stroke="#A5A5A5" stroke-width="4.58333" stroke-miterlimit="8" fill="#A5A5A5" fill-rule="evenodd"/><path d="M2549.5 1468.5 2604.76 1335.5 2645.5 1468.5Z" stroke="#A5A5A5" stroke-width="4.58333" stroke-miterlimit="8" fill="#A5A5A5" fill-rule="evenodd"/><path d="M2645.39 1434.99 2721.42 1314.35 2739.89 1452.42Z" stroke="#A5A5A5" stroke-width="4.58333" stroke-miterlimit="8" fill="#A5A5A5" fill-rule="evenodd"/><path d="M2727.47 1460.98 2846.57 1360.63 2818.79 1490.88Z" stroke="#A5A5A5" stroke-width="4.58333" stroke-miterlimit="8" fill="#A5A5A5" fill-rule="evenodd"/><path d="M2349 1506.73C2362.94 1457.2 2415.29 1429.48 2465.93 1444.81 2516.57 1460.14 2546.32 1512.72 2532.38 1562.25 2518.44 1611.78 2466.09 1639.49 2415.45 1624.16 2387.9 1615.82 2365.23 1595.81 2353.69 1569.66L2440.69 1534.49Z" stroke="#A5A5A5" stroke-width="4.58333" stroke-miterlimit="8" fill="#A5A5A5" fill-rule="evenodd"/><path d="M2398.5 1487.5C2398.5 1483.63 2400.96 1480.5 2404 1480.5 2407.04 1480.5 2409.5 1483.63 2409.5 1487.5 2409.5 1491.37 2407.04 1494.5 2404 1494.5 2400.96 1494.5 2398.5 1491.37 2398.5 1487.5Z" stroke="#000000" stroke-width="4.58333" stroke-miterlimit="8" fill-rule="evenodd"/><path d="M2484.53 1643.78 2603.48 1690.61 2537.98 1787.18 2466.61 1759.08Z" stroke="#A5A5A5" stroke-width="4.58333" stroke-miterlimit="8" fill="#A5A5A5" fill-rule="evenodd"/><path d="M2725.2 1643.87 2844.2 1690.56 2778.81 1787.21 2707.41 1759.19Z" stroke="#A5A5A5" stroke-width="4.58333" stroke-miterlimit="8" fill="#A5A5A5" fill-rule="evenodd"/></g></svg>