<svg width="590" height="724" xmlns="http://www.w3.org/2000/svg" xmlns:xlink="http://www.w3.org/1999/xlink" xml:space="preserve" overflow="hidden"><g transform="translate(-3597 -1544)"><path d="M3722.37 1740.43C3727.79 1649.37 3829.59 1581.35 3949.74 1588.5 4069.89 1595.66 4162.9 1675.28 4157.47 1766.34 4152.05 1857.4 4050.25 1925.41 3930.1 1918.26 3809.95 1911.11 3716.95 1831.49 3722.37 1740.43Z" stroke="#A9D18E" stroke-width="4.58333" stroke-miterlimit="8" fill="#A9D18E" fill-rule="evenodd"/><path d="M3630.68 2033.94C3573.4 1962.94 3602.91 1844.12 3696.59 1768.55 3790.27 1692.97 3912.65 1689.26 3969.92 1760.26 4027.2 1831.26 3997.69 1950.08 3904.01 2025.65 3810.33 2101.23 3687.96 2104.94 3630.68 2033.94Z" stroke="#A9D18E" stroke-width="4.58333" stroke-miterlimit="8" fill="#A9D18E" fill-rule="evenodd"/><path d="M3600.95 1802.28C3589.82 1711.74 3677.63 1626.43 3797.09 1611.74 3916.56 1597.04 4022.43 1658.52 4033.57 1749.06 4044.71 1839.6 3956.89 1924.91 3837.43 1939.61 3717.97 1954.3 3612.09 1892.82 3600.95 1802.28Z" stroke="#A9D18E" stroke-width="4.58333" stroke-miterlimit="8" fill="#A9D18E" fill-rule="evenodd"/><path d="M3639.5 1904.5C3639.5 1706.78 3751.88 1546.5 3890.5 1546.5 4029.12 1546.5 4141.5 1706.78 4141.5 1904.5 4141.5 2102.22 4029.12 2262.5 3890.5 2262.5 3751.88 2262.5 3639.5 2102.22 3639.5 1904.5Z" stroke="#A9D18E" stroke-width="4.58333" stroke-miterlimit="8" fill="#A9D18E" fill-rule="evenodd"/><path d="M3753.75 1840.81C3770.49 1751.14 3879.98 1696.35 3998.3 1718.44 4116.62 1740.52 4198.96 1831.12 4182.23 1920.79 4165.49 2010.46 4056 2065.25 3937.68 2043.17 3819.36 2021.08 3737.01 1930.48 3753.75 1840.81Z" stroke="#A9D18E" stroke-width="4.58333" stroke-miterlimit="8" fill="#A9D18E" fill-rule="evenodd"/><path d="M3791.22 1938.62C3838.06 1860.34 3959.76 1846.98 4063.04 1908.78 4166.33 1970.58 4212.09 2084.13 4165.25 2162.41 4118.42 2240.69 3996.72 2254.05 3893.43 2192.25 3790.14 2130.45 3744.38 2016.9 3791.22 1938.62Z" stroke="#A9D18E" stroke-width="4.58333" stroke-miterlimit="8" fill="#A9D18E" fill-rule="evenodd"/><g><g><g><path d="M-7262.87-7198.22C-7262.52-7198.46-7258.59-7198.17-7258.59-7198.17-7252.94-7197.39-7250.09-7195.79-7244.61-7194.18-7240.87-7192.99-7238.96-7191.74-7238.96-7190.49L-7239.02-7190.31C-7239.2-7187.7-7244.97-7181.1-7253.65-7166.64-7254.13-7165.87-7256.15-7166.58-7256.33-7167.48-7256.33-7167.48-7263.17-7197.99-7262.87-7198.22Z" fill="#FFFFFF" transform="matrix(1.00404 0 0 1 11124.8 9017.8)"/><path d="M-7186.87-7183.42C-7187.22-7181.81-7175.27-7166.76-7172.71-7166.58-7170.21-7166.47-7166.76-7168.55-7167.06-7172.23-7167.36-7175.98-7166.47-7188.59-7168.13-7189.36-7169.74-7190.08-7186.27-7185.79-7186.87-7183.42Z" fill="#FFFFFF" transform="matrix(1.00404 0 0 1 11124.8 9017.8)"/><path d="M-7264.3-7316.46C-7244.85-7316.46-7230.7-7302.84-7231.77-7285.12-7233.08-7262.34-7248-7256.09-7267.45-7256.09-7286.9-7256.09-7298.79-7267.21-7298.79-7284.94-7298.79-7302.72-7283.75-7316.46-7264.3-7316.46Z" fill="#FFFFFF" transform="matrix(1.00404 0 0 1 11124.8 9017.8)"/><path d="M-7212.8-7350.6C-7195.07-7350.6-7180.68-7334.12-7180.44-7316.64-7180.15-7295.23-7188.11-7288.09-7205.9-7288.09-7214.04-7288.09-7227.01-7293.68-7232.96-7298.79-7238.37-7303.43-7240.51-7306.23-7244.55-7313.37-7245.51-7315.09-7246.04-7317.41-7246.04-7319.43-7246.04-7336.92-7230.52-7350.6-7212.8-7350.6Z" fill="#FFFFFF" transform="matrix(1.00404 0 0 1 11124.8 9017.8)"/><path d="M-7168.84-7262.64C-7154.57-7262.64-7145.06-7272.03-7145.06-7287.79-7145.06-7303.55-7157.96-7315.57-7168.84-7315.74-7173.07-7315.8-7176.1-7314.62-7179.73-7312.89-7180.68-7312.47-7180.56-7302.19-7182.94-7297.49-7186.21-7291.12-7194.6-7291.48-7194.54-7288.98-7194.24-7281.49-7189.07-7276.91-7186.93-7270.13-7184.67-7263.11-7176.4-7262.64-7168.84-7262.64Z" fill="#FFFFFF" transform="matrix(1.00404 0 0 1 11124.8 9017.8)"/><path d="M-7160.64-7196.68C-7161.53-7197.93-7163.02-7198.7-7164.56-7198.76-7165.34-7198.76-7166.11-7198.52-7166.7-7198.05-7169.08-7200.01-7172.71-7199.83-7174.97-7197.81-7175.09-7197.63-7175.62-7197.63-7175.74-7197.57-7176.7-7197.39-7177.59-7197.04-7178.42-7196.56-7178.9-7196.26-7179.85-7195.96-7179.97-7195.91-7199.77-7189.07-7221.12-7192.57-7241.17-7196.5-7248.12-7197.39-7256.45-7201.26-7263.11-7198.76-7263.17-7198.46-7263.11-7198.17-7262.93-7197.99-7257.46-7193.17-7250.44-7191.62-7243.84-7188.71-7247.59-7181.99-7250.21-7177.17-7253.6-7170.81L-7253.83-7170.45C-7254.43-7173.96-7255.32-7177.35-7256.51-7180.68-7258.53-7186.15-7258.89-7192.63-7262.46-7197.21-7262.58-7197.39-7262.75-7197.45-7262.93-7197.45-7265.25-7196.08-7264.42-7191.03-7264.48-7188.35-7264.3-7183.3-7264-7178.66-7263.41-7172.95L-7263.41-7172.95C-7263.11-7166.82-7261.27-7158.08-7253.65-7157.84-7251.69-7157.9-7249.79-7158.68-7248.3-7159.98-7241.28-7167.12-7237.54-7177.17-7232.6-7185.14-7218.45-7181.45-7203.58-7179.79-7189.01-7181.69-7187.34-7177.41-7184.67-7172.83-7181.63-7169.14-7176.81-7162.06-7167.54-7153.32-7162.54-7164.62-7161.71-7167.12-7161.17-7169.74-7160.94-7172.41-7160.22-7177.59-7159.63-7182.76-7159.27-7187.7-7158.97-7190.73-7158.73-7194.06-7160.64-7196.68ZM-7170.09-7186.69C-7170.27-7180.92-7170.81-7175.09-7171.64-7169.32-7174.14-7171.16-7176.46-7173.19-7178.48-7175.51-7180.74-7177.83-7182.88-7180.15-7184.9-7182.35-7179.85-7183.3-7174.85-7184.72-7170.09-7186.69L-7170.09-7186.69Z" transform="matrix(1.00404 0 0 1 11124.8 9017.8)"/><path d="M-7287.97-7241.28C-7290.89-7241.34-7293.8-7241.76-7296.59-7242.41-7303.14-7243.84-7309.02-7247.35-7313.43-7252.41-7313.6-7252.64-7313.66-7253-7313.48-7253.24-7313.43-7253.48-7313.19-7253.65-7312.95-7253.65-7307.6-7250.21-7301.77-7247.53-7295.41-7246.81-7291.9-7246.4-7288.33-7246.46-7284.94-7247.17-7283.81-7247.47-7282.62-7247.59-7281.43-7247.65-7280.71-7247.65-7280-7247.53-7279.35-7247.35-7278.75-7247.23-7278.34-7246.81-7278.16-7246.28-7278.22-7242.41-7283.27-7241.46-7287.97-7241.28Z" transform="matrix(1.00404 0 0 1 11124.8 9017.8)"/><path d="M-7150.11-7250.38C-7152.01-7250.56-7156-7250.21-7157.07-7251.57-7157.07-7251.81-7156.83-7251.99-7156.59-7251.99L-7156.59-7251.99C-7156.42-7251.99-7156.18-7251.99-7156-7251.99-7152.61-7251.93-7149.22-7252.82-7146.3-7254.55-7143.63-7256.21-7141.9-7258.95-7139.29-7260.61-7138.81-7260.85-7138.33-7261.03-7137.8-7261.03-7136.73-7260.97-7135.72-7260.38-7135.18-7259.42-7134.71-7258.53-7134.71-7257.4-7135.18-7256.51-7136.67-7254.25-7138.93-7252.52-7141.55-7251.75-7144.28-7250.8-7147.2-7250.32-7150.11-7250.38L-7150.11-7250.38Z" transform="matrix(1.00404 0 0 1 11124.8 9017.8)"/><path d="M-7142.26-7296.65C-7146.42-7309.68-7163.73-7324.49-7176.99-7314.67-7176.46-7340.37-7202.03-7362.08-7226.95-7351.61-7237.95-7346.49-7248.48-7334.84-7246.4-7321.93-7246.34-7321.75-7246.16-7321.63-7245.92-7321.63-7245.74-7321.63-7245.63-7321.69-7245.57-7321.87-7241.05-7333.29-7232.72-7344.11-7219.75-7346.14-7206.08-7348.51-7192.28-7340.31-7187.64-7327.22-7183.48-7315.63-7181.81-7294.75-7197.81-7293.38-7206.79-7293.15-7217.14-7292.91-7222.79-7299.33L-7223.8-7300.52C-7224.27-7301-7224.81-7301.41-7225.46-7301.71-7226.95-7302.24-7228.79-7301.89-7230.1-7300.94-7237.3-7318.66-7262.4-7327.16-7278.46-7317.23-7300.52-7312.47-7309.38-7284.76-7298.62-7266.08-7290.05-7249.55-7270.01-7250.32-7254.13-7252.23-7236.35-7253.71-7224.27-7271.5-7226.71-7288.68-7223.74-7286.84-7220.41-7285.65-7216.96-7285.12-7209.82-7283.81-7202.51-7283.87-7195.31-7284.94-7187.82-7268.46-7180.98-7241.05-7189.42-7226.59-7194-7218.27-7204.65-7213.21-7212.02-7219.64-7216.84-7223.8-7220.71-7233.08-7218.45-7239.8-7217.97-7241.34-7218.21-7243.07-7219.1-7244.44-7219.99-7245.69-7221.48-7246.46-7223.03-7246.46-7233.14-7245.92-7230.88-7232.07-7228.02-7225.64-7224.33-7216.3-7216.48-7207.5-7205.72-7207.68-7179.37-7208.81-7175.03-7239.68-7181.63-7260.08-7158.14-7247.47-7133.16-7272.75-7142.26-7296.65ZM-7236.76-7276.14C-7241.52-7260.85-7256.81-7260.2-7270.6-7260.49-7286.78-7259.54-7295.64-7271.5-7294.63-7287.26-7294.22-7296-7289.58-7304.03-7282.2-7308.79-7275.84-7308.91-7269.83-7312.59-7263.23-7312.24-7244.61-7313.13-7230.76-7294.1-7236.76-7276.14ZM-7173.25-7267.81C-7174.49-7268.4-7175.68-7269.12-7176.7-7270.01-7178.42-7271.32-7180.09-7272.51-7182.23-7272.51-7183.3-7272.51-7184.37-7272.27-7185.32-7271.68-7187.16-7276.61-7189.66-7281.25-7192.63-7285.59-7181.51-7288.74-7176.64-7301.06-7176.87-7311.7-7176.87-7311.88-7176.87-7312.06-7176.87-7312.24L-7176.93-7313.25C-7168.37-7316.99-7157.54-7308.37-7154.57-7304.27-7140.12-7288.98-7151.84-7260.02-7173.25-7267.81Z" transform="matrix(1.00404 0 0 1 11124.8 9017.8)"/><path d="M-7265.01-7276.31C-7270.19-7276.08-7275.48-7280.71-7274.53-7286.07-7274.53-7286.19-7274.47-7286.25-7274.47-7286.25-7273.99-7288.74-7273.22-7290.47-7271.56-7292.25-7270.25-7293.5-7268.52-7294.27-7266.74-7294.33-7265.67-7296.18-7263.65-7297.31-7261.5-7297.25-7259.24-7297.25-7257.1-7296.12-7255.8-7294.27L-7255.68-7294.1-7255.62-7294.1C-7251.69-7288.68-7253.48-7280.77-7259.42-7277.62-7261.15-7276.79-7263.05-7276.31-7265.01-7276.31Z" transform="matrix(1.00404 0 0 1 11124.8 9017.8)"/><path d="M-7165.93-7278.81C-7166.47-7278.81-7167-7278.87-7167.48-7278.99-7169.62-7279.58-7171.4-7281.19-7172-7283.33L-7172.65-7284.88C-7176.7-7294.33-7168.55-7303.08-7160.1-7296.3-7157.9-7294.39-7157.49-7291.24-7158.02-7288.51-7158.26-7287.32-7158.56-7286.07-7158.85-7284.88-7159.03-7284.34-7159.21-7283.87-7159.51-7283.39-7160.22-7280.6-7163.08-7278.75-7165.93-7278.81L-7165.93-7278.81Z" transform="matrix(1.00404 0 0 1 11124.8 9017.8)"/><path d="M-7212.32-7309.62C-7219.04-7309.44-7224.04-7316.88-7221.18-7323-7218.51-7330.14-7207.8-7330.79-7204.11-7324.13-7200.48-7318.12-7205.06-7309.38-7212.32-7309.62Z" transform="matrix(1.00404 0 0 1 11124.8 9017.8)"/></g></g></g><path d="M3711.17 2224.11C3647.56 2158.73 3665.93 2037.69 3752.19 1953.75 3838.46 1869.82 3959.97 1854.78 4023.58 1920.16 4087.19 1985.54 4068.82 2106.59 3982.55 2190.52 3896.28 2274.46 3774.78 2289.5 3711.17 2224.11Z" stroke="#A9D18E" stroke-width="4.58333" stroke-miterlimit="8" fill="#A9D18E" fill-rule="evenodd"/></g></svg>