<svg width="616" height="720" xmlns="http://www.w3.org/2000/svg" xmlns:xlink="http://www.w3.org/1999/xlink" xml:space="preserve" overflow="hidden"><g transform="translate(-1823 -678)"><path d="M1978.9 970.178C1943.94 885.891 2005.76 780.169 2116.97 734.041 2228.19 687.913 2346.68 718.847 2381.64 803.134 2416.6 887.421 2354.79 993.144 2243.57 1039.27 2132.36 1085.4 2013.86 1054.47 1978.9 970.178Z" stroke="#A9D18E" stroke-width="4.58333" stroke-miterlimit="8" fill="#A9D18E" fill-rule="evenodd"/><path d="M1830.32 1087.92C1806.25 999.906 1880.89 902.808 1997.03 871.049 2113.16 839.29 2226.82 884.897 2250.89 972.915 2274.96 1060.93 2200.33 1158.03 2084.19 1189.79 1968.05 1221.55 1854.39 1175.94 1830.32 1087.92Z" stroke="#A9D18E" stroke-width="4.58333" stroke-miterlimit="8" fill="#A9D18E" fill-rule="evenodd"/><path d="M1849.12 845.122C1875.84 757.871 1990.83 715.719 2105.95 750.972 2221.07 786.225 2292.74 885.533 2266.02 972.784 2239.31 1060.03 2124.32 1102.19 2009.2 1066.93 1894.07 1031.68 1822.41 932.372 1849.12 845.122Z" stroke="#A9D18E" stroke-width="4.58333" stroke-miterlimit="8" fill="#A9D18E" fill-rule="evenodd"/><path d="M1879.5 1038C1879.5 840.558 1991.88 680.5 2130.5 680.5 2269.12 680.5 2381.5 840.558 2381.5 1038 2381.5 1235.44 2269.12 1395.5 2130.5 1395.5 1991.88 1395.5 1879.5 1235.44 1879.5 1038Z" stroke="#A9D18E" stroke-width="4.58333" stroke-miterlimit="8" fill="#A9D18E" fill-rule="evenodd"/><path d="M1994.41 1056.05C1976.86 966.503 2058.42 875.138 2176.57 851.979 2294.72 828.821 2404.73 882.638 2422.28 972.184 2439.83 1061.73 2358.28 1153.09 2240.13 1176.25 2121.98 1199.41 2011.96 1145.59 1994.41 1056.05Z" stroke="#A9D18E" stroke-width="4.58333" stroke-miterlimit="8" fill="#A9D18E" fill-rule="evenodd"/><path d="M2002.13 1158.06C2012.93 1067.46 2118.61 1005.56 2238.17 1019.82 2357.72 1034.08 2445.88 1119.09 2435.07 1209.7 2424.26 1300.31 2318.58 1362.2 2199.03 1347.94 2079.48 1333.68 1991.32 1248.67 2002.13 1158.06Z" stroke="#A9D18E" stroke-width="4.58333" stroke-miterlimit="8" fill="#A9D18E" fill-rule="evenodd"/><g><g><g><path d="M-7257.36-7192.76C-7257-7193-7253.08-7192.7-7253.08-7192.7-7247.43-7191.93-7244.58-7190.32-7239.11-7188.72-7235.37-7187.53-7233.47-7186.28-7233.47-7185.03L-7233.53-7184.85C-7233.7-7182.24-7239.47-7175.64-7248.15-7161.2-7248.62-7160.43-7250.64-7161.14-7250.82-7162.03-7250.82-7162.03-7257.65-7192.52-7257.36-7192.76Z" fill="#FFFFFF" transform="matrix(1 0 0 1.00076 9330.6 8150.78)"/><path d="M-7181.41-7177.96C-7181.76-7176.36-7169.82-7161.32-7167.26-7161.14-7164.77-7161.02-7161.32-7163.1-7161.62-7166.79-7161.91-7170.53-7161.02-7183.13-7162.69-7183.9-7164.29-7184.62-7180.81-7180.34-7181.41-7177.96Z" fill="#FFFFFF" transform="matrix(1 0 0 1.00076 9330.6 8150.78)"/><path d="M-7258.78-7310.9C-7239.35-7310.9-7225.21-7297.29-7226.28-7279.58-7227.58-7256.82-7242.5-7250.58-7261.93-7250.58-7281.37-7250.58-7293.25-7261.7-7293.25-7279.4-7293.25-7297.17-7278.22-7310.9-7258.78-7310.9Z" fill="#FFFFFF" transform="matrix(1 0 0 1.00076 9330.6 8150.78)"/><path d="M-7207.32-7345.01C-7189.61-7345.01-7175.23-7328.55-7174.99-7311.08-7174.69-7289.69-7182.65-7282.55-7200.42-7282.55-7208.57-7282.55-7221.52-7288.14-7227.46-7293.25-7232.87-7297.89-7235.01-7300.68-7239.05-7307.81-7240-7309.53-7240.54-7311.85-7240.54-7313.87-7240.54-7331.35-7225.03-7345.01-7207.32-7345.01Z" fill="#FFFFFF" transform="matrix(1 0 0 1.00076 9330.6 8150.78)"/><path d="M-7163.4-7257.12C-7149.14-7257.12-7139.63-7266.51-7139.63-7282.26-7139.63-7298.01-7152.52-7310.01-7163.4-7310.19-7167.62-7310.25-7170.65-7309.06-7174.28-7307.34-7175.23-7306.92-7175.11-7296.64-7177.48-7291.94-7180.75-7285.58-7189.13-7285.94-7189.07-7283.45-7188.78-7275.96-7183.61-7271.38-7181.47-7264.61-7179.21-7257.59-7170.95-7257.12-7163.4-7257.12Z" fill="#FFFFFF" transform="matrix(1 0 0 1.00076 9330.6 8150.78)"/><path d="M-7155.2-7191.21C-7156.09-7192.46-7157.58-7193.23-7159.12-7193.29-7159.89-7193.29-7160.67-7193.06-7161.26-7192.58-7163.64-7194.54-7167.26-7194.36-7169.52-7192.34-7169.64-7192.16-7170.18-7192.16-7170.29-7192.1-7171.24-7191.93-7172.14-7191.57-7172.97-7191.09-7173.44-7190.8-7174.39-7190.5-7174.51-7190.44-7194.3-7183.61-7215.64-7187.11-7235.67-7191.03-7242.62-7191.93-7250.94-7195.79-7257.59-7193.29-7257.65-7193-7257.59-7192.7-7257.42-7192.52-7251.95-7187.71-7244.94-7186.16-7238.34-7183.25-7242.08-7176.53-7244.7-7171.72-7248.09-7165.36L-7248.32-7165C-7248.92-7168.51-7249.81-7171.9-7251-7175.23-7253.02-7180.69-7253.38-7187.17-7256.94-7191.75-7257.06-7191.93-7257.24-7191.98-7257.42-7191.98-7259.73-7190.62-7258.9-7185.57-7258.96-7182.89-7258.78-7177.84-7258.49-7173.21-7257.89-7167.5L-7257.89-7167.5C-7257.59-7161.38-7255.75-7152.64-7248.15-7152.41-7246.18-7152.47-7244.28-7153.24-7242.8-7154.55-7235.78-7161.68-7232.04-7171.72-7227.11-7179.68-7212.96-7176-7198.11-7174.33-7183.55-7176.24-7181.88-7171.96-7179.21-7167.38-7176.18-7163.7-7171.36-7156.62-7162.09-7147.89-7157.1-7159.18-7156.27-7161.68-7155.73-7164.29-7155.5-7166.97-7154.78-7172.14-7154.19-7177.31-7153.83-7182.24-7153.53-7185.27-7153.3-7188.6-7155.2-7191.21ZM-7164.65-7181.23C-7164.83-7175.46-7165.36-7169.64-7166.19-7163.88-7168.69-7165.72-7171.01-7167.74-7173.03-7170.06-7175.29-7172.37-7177.43-7174.69-7179.45-7176.89-7174.39-7177.84-7169.4-7179.27-7164.65-7181.23L-7164.65-7181.23Z" transform="matrix(1 0 0 1.00076 9330.6 8150.78)"/><path d="M-7282.44-7235.78C-7285.35-7235.84-7288.26-7236.26-7291.05-7236.91-7297.59-7238.34-7303.47-7241.85-7307.87-7246.9-7308.05-7247.13-7308.11-7247.49-7307.93-7247.73-7307.87-7247.97-7307.63-7248.15-7307.4-7248.15-7302.05-7244.7-7296.22-7242.02-7289.86-7241.31-7286.36-7240.9-7282.79-7240.95-7279.4-7241.67-7278.28-7241.96-7277.09-7242.08-7275.9-7242.14-7275.19-7242.14-7274.47-7242.02-7273.82-7241.85-7273.22-7241.73-7272.81-7241.31-7272.63-7240.78-7272.69-7236.91-7277.74-7235.96-7282.44-7235.78Z" transform="matrix(1 0 0 1.00076 9330.6 8150.78)"/><path d="M-7144.68-7244.88C-7146.58-7245.06-7150.56-7244.7-7151.63-7246.07-7151.63-7246.3-7151.4-7246.48-7151.16-7246.48L-7151.16-7246.48C-7150.98-7246.48-7150.74-7246.48-7150.56-7246.48-7147.18-7246.42-7143.79-7247.31-7140.88-7249.04-7138.2-7250.7-7136.48-7253.43-7133.86-7255.1-7133.39-7255.34-7132.91-7255.51-7132.38-7255.51-7131.31-7255.46-7130.3-7254.86-7129.76-7253.91-7129.29-7253.02-7129.29-7251.89-7129.76-7251-7131.25-7248.74-7133.51-7247.02-7136.12-7246.24-7138.86-7245.29-7141.77-7244.82-7144.68-7244.88L-7144.68-7244.88Z" transform="matrix(1 0 0 1.00076 9330.6 8150.78)"/><path d="M-7136.84-7291.11C-7141-7304.13-7158.29-7318.92-7171.54-7309.12-7171.01-7334.79-7196.56-7356.48-7221.46-7346.02-7232.46-7340.91-7242.98-7329.27-7240.9-7316.37-7240.84-7316.19-7240.66-7316.07-7240.42-7316.07-7240.24-7316.07-7240.12-7316.13-7240.06-7316.31-7235.55-7327.72-7227.23-7338.54-7214.27-7340.56-7200.6-7342.93-7186.81-7334.73-7182.18-7321.66-7178.02-7310.07-7176.36-7289.21-7192.34-7287.84-7201.32-7287.61-7211.66-7287.37-7217.3-7293.79L-7218.31-7294.98C-7218.79-7295.45-7219.32-7295.87-7219.98-7296.16-7221.46-7296.7-7223.3-7296.34-7224.61-7295.39-7231.8-7313.1-7256.88-7321.6-7272.93-7311.67-7294.98-7306.92-7303.83-7279.23-7293.07-7260.57-7284.52-7244.04-7264.49-7244.82-7248.62-7246.72-7230.85-7248.21-7218.79-7265.97-7221.22-7283.15-7218.25-7281.31-7214.92-7280.12-7211.48-7279.58-7204.35-7278.28-7197.04-7278.33-7189.85-7279.4-7182.36-7262.94-7175.52-7235.55-7183.96-7221.1-7188.54-7212.79-7199.18-7207.73-7206.55-7214.15-7211.36-7218.31-7215.22-7227.58-7212.96-7234.3-7212.49-7235.84-7212.73-7237.57-7213.62-7238.93-7214.51-7240.18-7215.99-7240.95-7217.54-7240.95-7227.64-7240.42-7225.38-7226.57-7222.53-7220.15-7218.85-7210.82-7211-7202.03-7200.25-7202.21-7173.92-7203.34-7169.58-7234.18-7176.18-7254.56-7152.7-7241.96-7127.74-7267.22-7136.84-7291.11ZM-7231.27-7270.61C-7236.02-7255.34-7251.3-7254.68-7265.08-7254.98-7281.25-7254.03-7290.1-7265.97-7289.09-7281.72-7288.68-7290.46-7284.04-7298.48-7276.67-7303.24-7270.31-7303.35-7264.31-7307.04-7257.71-7306.68-7239.11-7307.57-7225.27-7288.56-7231.27-7270.61ZM-7167.8-7262.29C-7169.05-7262.88-7170.23-7263.6-7171.24-7264.49-7172.97-7265.8-7174.63-7266.98-7176.77-7266.98-7177.84-7266.98-7178.91-7266.75-7179.86-7266.15-7181.7-7271.08-7184.2-7275.72-7187.17-7280.06-7176.06-7283.21-7171.19-7295.51-7171.42-7306.15-7171.42-7306.33-7171.42-7306.5-7171.42-7306.68L-7171.48-7307.69C-7162.92-7311.44-7152.11-7302.82-7149.14-7298.72-7134.7-7283.45-7146.4-7254.5-7167.8-7262.29Z" transform="matrix(1 0 0 1.00076 9330.6 8150.78)"/><path d="M-7259.5-7270.79C-7264.67-7270.55-7269.96-7275.19-7269-7280.53-7269-7280.65-7268.95-7280.71-7268.95-7280.71-7268.47-7283.21-7267.7-7284.93-7266.03-7286.71-7264.73-7287.96-7263-7288.73-7261.22-7288.79-7260.15-7290.64-7258.13-7291.77-7255.99-7291.71-7253.73-7291.71-7251.59-7290.58-7250.28-7288.73L-7250.17-7288.56-7250.11-7288.56C-7246.18-7283.15-7247.97-7275.24-7253.91-7272.1-7255.63-7271.26-7257.53-7270.79-7259.5-7270.79Z" transform="matrix(1 0 0 1.00076 9330.6 8150.78)"/><path d="M-7160.49-7273.28C-7161.02-7273.28-7161.56-7273.34-7162.03-7273.46-7164.17-7274.06-7165.96-7275.66-7166.55-7277.8L-7167.2-7279.35C-7171.24-7288.79-7163.1-7297.53-7154.66-7290.76-7152.47-7288.85-7152.05-7285.7-7152.58-7282.97-7152.82-7281.78-7153.12-7280.53-7153.42-7279.35-7153.59-7278.81-7153.77-7278.33-7154.07-7277.86-7154.78-7275.07-7157.64-7273.22-7160.49-7273.28L-7160.49-7273.28Z" transform="matrix(1 0 0 1.00076 9330.6 8150.78)"/><path d="M-7206.84-7304.07C-7213.56-7303.89-7218.55-7311.32-7215.7-7317.44-7213.02-7324.57-7202.33-7325.22-7198.64-7318.57-7195.02-7312.57-7199.59-7303.83-7206.84-7304.07Z" transform="matrix(1 0 0 1.00076 9330.6 8150.78)"/></g></g></g><path d="M1897.42 1263.02C1873.35 1175 1947.98 1077.9 2064.12 1046.14 2180.26 1014.38 2293.92 1059.99 2317.99 1148.01 2342.06 1236.02 2267.42 1333.12 2151.28 1364.88 2035.15 1396.64 1921.49 1351.03 1897.42 1263.02Z" stroke="#A9D18E" stroke-width="4.58333" stroke-miterlimit="8" fill="#A9D18E" fill-rule="evenodd"/></g></svg>